<svg width="350" height="350" viewBox="0 0 350 350" fill="none" xmlns="http://www.w3.org/2000/svg">
<path d="M289.593 149.11C298.68 152.443 303.148 154.943 302.996 156.609C302.845 158.427 297.998 159.942 288.457 161.154C278.461 162.517 270.434 163.426 264.376 163.881C258.469 164.335 253.547 164.184 249.609 163.426C245.823 162.669 239.726 161.608 237 159.336C215.532 150.701 205.5 142 193.033 128.659C190.156 124.569 187.127 120.175 183.946 115.479C180.917 110.783 177.585 105.48 173.95 99.5723C171.376 107.45 168.044 114.494 163.955 120.705C160.017 126.917 155.17 132.446 149.415 137.294C143.66 141.99 116.845 156.08 108.969 159.565C100.5 161.154 93 161.154 81.9349 161.2C72.5 161.239 66.4867 160.851 66.0324 159.336C65.578 157.821 69.8944 154.943 78.9816 150.701C95.7928 142.823 128.515 133.431 137.148 122.523C145.932 111.616 151.838 99.4965 154.867 86.1652C147.749 87.3771 122.085 90.5891 115.876 91.801C109.818 93.0129 65.5168 100.225 60.9733 101.437C58.2471 102.194 43.9753 104.725 42.1579 105.028C40.4919 105.33 38.9017 105.406 37.3872 105.255C35.8726 104.952 34.3581 104.422 32.8436 103.664C31.3291 102.755 29.4359 101.467 27.1641 99.801C21.4089 95.8622 18.91 93.2111 19.6672 91.8477C20.4245 90.3327 36.6652 87.4238 44.3892 87.1208C50.2959 86.9693 97.1714 80.2876 107.016 79.0757C117.012 77.8637 146.462 74.4245 157.366 72.7581C158.124 67.0014 158.427 61.4719 158.275 56.1697C158.275 50.8675 157.518 46.1712 156.003 42.0809C153.277 41.6264 120.021 40.9447 116.235 40.0358C109.268 46.3984 100.635 52.3066 90.3363 57.7604C83.2181 61.5477 79.2803 62.9869 78.5231 62.0779C77.9172 61.1689 80.4162 57.6846 86.02 51.6249C92.381 44.8078 97.8332 38.1421 102.377 31.6279C107.072 24.9623 110.858 18.8268 113.736 13.2216C116.613 7.61638 118.582 2.61714 119.642 -1.77614C120.703 -6.16942 120.854 -9.65374 120.097 -12.2291C118.885 -15.8649 118.204 -18.6675 118.052 -20.6369C118.052 -22.7578 118.809 -24.0455 120.324 -24.5C121.838 -25.106 124.262 -24.9545 127.594 -24.0455C130.926 -23.2881 135.318 -21.7731 140.77 -19.5007C144.859 -17.8343 147.964 -16.2437 150.084 -14.7287C152.356 -13.3653 153.719 -11.9261 154.174 -10.4112C154.628 -9.04777 154.401 -7.60859 153.492 -6.09367C152.583 -4.73024 151.144 -3.13957 149.176 -1.32166C147.813 -0.109723 145.995 2.08692 143.723 5.26826C141.603 8.4496 139.407 11.8582 137.135 15.494C135.924 17.6149 134.182 20.0388 131.91 22.7656C129.79 25.4925 127.442 28.2951 124.867 31.1735C131.228 30.719 179.574 27.2798 187.904 24.8559C196.234 22.2806 207.336 22.0235 215.212 18.0847C217.484 17.0242 235.453 15.191 237.119 14.585C238.785 13.8276 240.451 13.4489 242.117 13.4489C243.782 13.2974 245.524 13.6003 247.342 14.3578C249.159 14.9638 251.279 15.9485 253.703 17.3119C258.398 20.0388 260.669 22.3869 260.518 24.3563C260.367 26.1742 257.413 28.2194 251.658 30.4917C248.629 31.7037 245.676 32.7641 242.798 33.6731C240.072 34.582 221.043 36.491 217.711 37.3999C214.53 38.1574 196.896 39.9149 192.806 40.6723C188.717 41.4298 183.946 40.1873 178.494 40.9447C182.735 42.9141 185.082 44.6563 185.537 46.1712C186.142 47.6861 185.385 50.3372 183.265 54.1246C182.205 55.791 181.523 57.6846 181.22 59.8055C181.069 61.7749 180.766 64.8805 180.311 69.1223C188.49 67.6074 215.911 66.2439 222.575 65.032C229.39 63.6686 264.918 62.3809 269.159 61.1689C275.066 59.654 289.836 58.5178 293.471 57.7604C297.258 56.8514 300.362 56.4727 302.786 56.6242C305.209 56.6242 307.253 57.0787 308.919 57.9876C310.585 58.7451 312.403 59.957 314.372 61.6234C322.247 68.2891 325.125 72.9854 323.004 75.7122C320.884 78.4391 312.554 79.348 298.015 78.4391C294.834 78.2876 291.048 78.2876 286.656 78.4391C282.264 78.4391 267.417 78.6663 262.116 79.1208C256.967 79.4238 221.439 79.954 215.532 80.7115C209.777 81.3174 183.946 81.9992 178.04 82.7566C186.824 92.7551 194.851 101.239 202.121 108.207C209.542 115.176 216.812 121.16 223.93 126.159C253 146.576 269.159 143.5 289.593 149.11Z" fill="black"/>
<path d="M299.255 158.733C304.549 159.383 313.061 164.459 324.79 173.959C336.585 182.93 342.157 190.062 341.507 195.356C340.922 200.12 337.259 203.7 330.516 206.096C323.774 208.492 310.824 215.5 291.665 227.118C272.571 238.207 260.679 245.344 255.989 248.53C251.365 251.186 248.857 254.102 248.467 257.278C248.142 259.925 251.29 262.73 257.912 265.692C279.17 276.362 294.276 286.815 303.229 297.049C312.181 307.283 315.813 319.281 314.123 333.045C312.433 346.808 307.883 353.235 300.472 352.325C295.178 351.675 289.843 346.99 284.465 338.269C266.94 310.325 249.893 289.425 233.325 275.569C225.57 268.707 221.921 263.422 222.376 259.717C222.831 256.011 227.91 249.65 237.615 240.632C247.849 231.679 258.143 220.047 268.498 205.735C279.382 191.489 285.641 179.899 287.275 170.965C289.439 162.096 293.432 158.018 299.255 158.733ZM144.588 263.062C144.393 264.65 145.586 265.871 148.168 266.726C168.888 273.031 183.858 282.392 193.081 294.808C202.303 307.225 206.199 319.256 204.769 330.902C203.339 342.548 198.654 347.883 190.714 346.908C185.949 346.323 181.31 342.53 176.797 335.527C158.742 307.518 144.282 289.623 133.416 281.84C123.145 273.594 118.204 267.882 118.594 264.706C119.049 261.001 121.816 255.967 126.896 249.605C151.571 219.32 164.721 197.561 166.346 184.327C166.736 181.15 166.564 178.174 165.83 175.397C165.096 172.62 164.827 170.438 165.022 168.85C165.802 162.498 169.633 159.744 176.514 160.589C180.749 161.109 188.072 167.113 198.483 178.6C209.488 189.624 214.666 197.782 214.016 203.076C213.431 207.84 209.238 211.355 201.437 213.622C195.289 215.553 184.326 223.879 168.548 238.6C152.77 253.32 144.783 261.474 144.588 263.062ZM92.5455 332.437C90.9206 345.671 86.4026 351.833 78.9916 350.923C73.698 350.273 68.3625 345.587 62.9852 336.867C58.2022 327.682 50.8699 317.379 40.9884 305.956C31.7011 294.069 23.677 285.024 16.9159 278.82C10.2199 272.087 7.09936 266.868 7.55434 263.162C8.00932 259.457 11.9004 254.024 19.2277 246.864C27.0843 239.768 34.899 228.638 42.6719 213.472C51.0391 197.842 55.6127 186.85 56.3926 180.498C57.1726 174.146 57.1632 169.846 56.3645 167.599C56.0951 165.416 56.1879 162.472 56.6429 158.767C57.0979 155.061 60.2368 153.566 66.0598 154.281C71.8827 154.996 79.5678 160.238 89.115 170.008C99.2565 179.313 103.937 187.142 103.157 193.494C102.907 199.912 100.469 204.448 95.8442 207.104C91.2844 209.231 85.3733 213.61 78.111 220.241L52.8557 242.127C42.6866 250.55 36.9427 255.755 35.624 257.743C34.3703 259.201 33.581 261.253 33.256 263.9C32.996 266.018 35.6475 268.493 41.2104 271.325C60.0167 280.082 73.6641 289.281 82.1526 298.92C90.7061 308.031 94.1704 319.203 92.5455 332.437Z" fill="black"/>
</svg>
