<svg width="500" height="500" viewBox="0 0 500 500" fill="none" xmlns="http://www.w3.org/2000/svg">
<path d="M197.629 141.167C238.507 134.878 249.956 126.747 291.129 123.167C298.795 122.5 305.295 122.5 310.629 123.167C316.295 123.5 321.462 124.833 326.129 127.167C330.795 129.5 336.129 132.667 342.129 136.667C349.129 141.333 353.962 145.833 356.629 150.167C359.295 154.5 359.795 158.333 358.129 161.667C356.462 164.667 352.462 167 346.129 168.667C340.129 170 331.629 170 320.629 168.667C270.021 162.953 248.319 163.286 197.629 167.667C197.629 176.667 197.462 186.833 197.129 198.167C197.129 236.472 197.562 275.133 192.129 313.167C192.093 313.562 184.933 326.004 175.629 327.167C165.764 328.482 158.688 315.203 158.629 314.667C156.851 282.664 155.629 250.722 155.629 218.667C155.629 202.667 155.629 187.167 155.629 172.167C112.312 177.407 88.0542 202.424 44.1286 195.667C40.1286 195 35.7952 193.667 31.1286 191.667C26.7952 189.667 21.2952 186.667 14.6286 182.667C3.96191 176.333 -0.871428 171.167 0.128571 167.167C1.12857 163.167 9.12857 161.333 24.1286 161.667C26.1286 161.667 29.1286 161.667 33.1286 161.667C37.4619 161.333 42.1286 161.167 47.1286 161.167C93.4166 158.081 109.614 153.023 155.629 147.167C155.962 118.5 154.962 98 152.629 65.6667C151.962 55 150.462 46.5 148.129 40.1667C145.795 33.8333 142.462 28.1667 138.129 23.1667C130.129 13.5 128.129 6.66666 132.129 2.66666C136.462 -1.33333 147.462 -0.833329 165.129 4.16667C176.462 7.16667 185.295 10 191.629 12.6667C197.962 15.3333 202.462 18.1667 205.129 21.1667C208.129 24.1667 209.462 27.3333 209.129 30.6667C208.795 34 207.629 38 205.629 42.6667C203.962 46.3333 202.629 50.1667 201.629 54.1667C200.629 57.8333 199.795 63.5 199.129 71.1667C197.917 97.8143 197.629 114.495 197.629 141.167Z" fill="black"/>
<path d="M466.632 363.833C474.299 369.833 479.632 375.167 482.632 379.833C485.966 384.5 486.632 388.5 484.632 391.833C482.966 394.833 478.632 397 471.632 398.333C464.632 399.667 454.632 399.667 441.632 398.333C360.635 390.74 326.362 399.598 246.132 412.333C225.132 415.667 206.299 419.333 189.632 423.333C183.299 425 177.799 426.167 173.132 426.833C168.799 427.167 164.466 426.833 160.132 425.833C155.799 424.833 151.299 423 146.632 420.333C142.299 417.667 137.132 413.833 131.132 408.833C120.799 400.5 116.132 394.833 117.132 391.833C118.466 388.5 126.299 387 140.632 387.333C147.299 387.333 153.632 387.333 159.632 387.333C165.632 387.333 171.632 387.333 177.632 387.333C183.966 387 190.466 386.667 197.132 386.333C203.799 386 211.299 385.5 219.632 384.833C274.108 380.798 278.212 373.46 332.132 364.833C349.132 361.833 364.799 358.833 379.132 355.833C391.799 353.167 402.299 351.333 410.632 350.333C419.299 349 426.632 348.667 432.632 349.333C438.966 349.667 444.632 351.167 449.632 353.833C454.966 356.167 460.632 359.5 466.632 363.833Z" fill="black"/>
</svg>
