<svg width="500" height="500" viewBox="0 0 500 500" fill="none" xmlns="http://www.w3.org/2000/svg">
<path d="M197.629 141.167C238.507 134.878 249.956 126.747 291.129 123.167C298.795 122.5 305.295 122.5 310.629 123.167C316.295 123.5 321.462 124.833 326.129 127.167C330.795 129.5 336.129 132.667 342.129 136.667C349.129 141.333 353.962 145.833 356.629 150.167C359.295 154.5 359.795 158.333 358.129 161.667C356.462 164.667 352.462 167 346.129 168.667C340.129 170 331.629 170 320.629 168.667C270.021 162.953 248.319 163.286 197.629 167.667C197.629 176.667 197.462 186.833 197.129 198.167C197.129 236.472 197.562 275.133 192.129 313.167C192.093 313.562 184.933 326.004 175.629 327.167C165.764 328.482 158.688 315.203 158.629 314.667C156.851 282.664 155.629 250.722 155.629 218.667C155.629 202.667 155.629 187.167 155.629 172.167C112.312 177.407 88.0542 202.424 44.1286 195.667C40.1286 195 35.7952 193.667 31.1286 191.667C26.7952 189.667 21.2952 186.667 14.6286 182.667C3.96191 176.333 -0.871428 171.167 0.128571 167.167C1.12857 163.167 9.12857 161.333 24.1286 161.667C26.1286 161.667 29.1286 161.667 33.1286 161.667C37.4619 161.333 42.1286 161.167 47.1286 161.167C93.4166 158.081 109.614 153.023 155.629 147.167C155.962 118.5 154.962 98 152.629 65.6667C151.962 55 150.462 46.5 148.129 40.1667C145.795 33.8333 142.462 28.1667 138.129 23.1667C130.129 13.5 128.129 6.66666 132.129 2.66666C136.462 -1.33333 147.462 -0.833329 165.129 4.16667C176.462 7.16667 185.295 10 191.629 12.6667C197.962 15.3333 202.462 18.1667 205.129 21.1667C208.129 24.1667 209.462 27.3333 209.129 30.6667C208.795 34 207.629 38 205.629 42.6667C203.962 46.3333 202.629 50.1667 201.629 54.1667C200.629 57.8333 199.795 63.5 199.129 71.1667C197.917 97.8143 197.629 114.495 197.629 141.167Z" fill="black"/>
<path d="M476.596 407.5C492.596 420.5 498.929 431.167 495.596 439.5C492.596 447.5 479.929 449.5 457.596 445.5C444.596 443.167 432.596 441.333 421.596 440C410.596 438.667 398.596 437.833 385.596 437.5C335.445 434.861 288.19 435.271 238.596 446.5C230.929 448.167 224.262 449.333 218.596 450C212.929 450.667 207.929 450.833 203.596 450.5C199.596 449.833 195.929 448.667 192.596 447C189.262 445.333 185.929 443.167 182.596 440.5C167.929 428.5 161.096 420.5 162.096 416.5C163.429 412.5 172.596 411.333 189.596 413C193.262 413.333 198.429 413.5 205.096 413.5C211.762 413.167 222.096 412.667 236.096 412C280.229 409.615 323.72 404.514 367.596 399.5C379.596 397.833 388.762 396.333 395.096 395C405.429 393 414.429 391.833 422.096 391.5C430.096 390.833 437.096 391 443.096 392C449.429 392.667 455.096 394.333 460.096 397C465.429 399.667 470.929 403.167 476.596 407.5Z" fill="black"/>
<path d="M392.167 303.5C398.167 302.167 403.667 301 408.667 300C423.667 296.667 431 292 430.667 286C430.667 279.667 421.667 273 403.667 266C400 264.667 395.834 263.833 391.167 263.5C386.834 262.833 381.667 262.833 375.667 263.5C318.043 266.701 301.772 281.03 243.667 285.5C233.667 286.167 228.167 287.833 227.167 290.5C226.5 292.833 230.5 296.5 239.167 301.5C245.167 304.833 251 307.5 256.667 309.5C262.667 311.5 269.5 312.833 277.167 313.5C320.828 317.297 327.658 313.882 370.667 307C379 305.667 386.167 304.5 392.167 303.5Z" fill="black"/>
</svg>
