<?xml version="1.0" encoding="UTF-8"?>
<svg width="800px" height="305px" viewBox="0 0 800 305" version="1.1" xmlns="http://www.w3.org/2000/svg" xmlns:xlink="http://www.w3.org/1999/xlink">
    <title>0_san_m</title>
    <g id="0_san_m" stroke="none" stroke-width="1" fill="none" fill-rule="evenodd">
        <g id="艹" transform="translate(48.000000, 0.000000)" fill="#000000" fill-rule="nonzero">
            <path d="M409.123161,1.86114628 C417.113104,-1.67503165 427.500031,-0.172156031 440.283941,6.36977315 C453.06785,12.9117023 463.721109,21.8405516 472.243715,33.156321 C477.570344,41.6431481 479.301499,49.0691218 477.437178,55.434242 C475.572858,61.7993623 474.640698,70.2861894 474.640698,80.8947232 L474.640698,97.3379506 L552.942146,96.8075239 C589.695886,96.4539061 612.467226,96.3655017 621.256164,96.5423106 C630.045102,96.7191195 636.037559,97.8683773 639.233537,99.9900841 C644.027503,102.819026 652.416944,107.327653 664.401859,113.515965 C676.386775,119.704276 683.977221,126.157801 687.173198,132.876539 C698.35912,153.386371 690.102844,164.348523 662.404373,165.762994 C644.293834,166.116611 598.751156,162.934051 525.776337,156.215313 C492.751237,153.032753 474.374367,151.441473 470.645726,151.441473 C467.982412,151.441473 465.85176,153.209562 464.253772,156.74574 C462.655783,160.281918 460.2588,168.768745 457.062822,182.206221 C454.932171,193.168373 452.535188,200.417537 449.871873,203.953715 C444.545244,211.733307 439.484946,230.121432 434.69098,259.118091 C433.092991,265.129594 430.96234,269.991838 428.299025,273.704825 C425.635711,277.417812 420.04275,282.456866 411.520144,288.821986 C408.856829,291.29731 405.39452,294.65668 401.133217,298.900093 C397.937239,302.082653 394.075433,304.027551 389.547799,304.734787 C385.020164,305.442022 381.424689,304.734787 378.761375,302.61308 C376.09806,300.491373 372.236254,294.833488 367.175957,285.639426 C362.115659,276.445363 358.387019,270.875883 355.990036,268.930985 C353.593052,266.986087 353.726218,263.980336 356.389533,259.913731 C359.052847,255.847127 361.582996,245.326997 363.979979,228.353343 C366.376962,211.379689 368.64078,196.350933 370.771431,183.267074 C372.902083,170.183216 373.967409,161.165962 373.967409,156.215313 L373.967409,148.258913 L338.811657,149.850193 C281.284063,152.325518 247.992631,155.15446 238.937362,158.33702 C235.741384,159.397873 233.877064,161.607985 233.344401,164.967354 C232.811738,168.326723 233.07807,176.194719 234.143395,188.571341 C235.741384,207.666702 237.605704,220.662156 239.736356,227.557703 C241.867008,234.45325 242.000173,238.961877 240.135853,241.083584 C238.271533,243.205291 237.339373,247.625513 237.339373,254.344251 C236.80671,259.2949 233.743898,264.775976 228.150938,270.787478 C222.557977,276.798981 217.630845,279.804732 213.369542,279.804732 C208.042913,279.804732 202.716284,278.655474 197.389655,276.356959 C192.063026,274.058443 189.13338,271.494714 188.600717,268.665772 C187.535391,264.775976 185.005242,259.736922 181.01027,253.548611 C177.015298,247.3603 175.284144,238.343046 175.816807,226.49685 C176.34947,214.650654 175.017813,203.158075 171.821835,192.019115 C168.625858,180.880154 167.693698,173.277372 169.025355,169.210767 C170.357012,165.144163 169.424852,163.11086 166.228875,163.11086 C161.967571,163.11086 151.846976,164.525331 135.867089,167.354274 C119.887202,170.183216 108.434949,172.658541 101.510331,174.780247 C91.922399,177.255572 86.3294384,178.493234 84.7314497,178.493234 C83.133461,178.493234 78.6058263,179.730897 71.1485455,182.206221 C53.5706696,188.217724 34.9274678,183.443883 15.2189402,167.8847 C4.56568207,160.458727 -0.494615557,155.331269 0.0380473506,152.502326 C0.570710258,149.673384 6.96266515,146.314015 19.213912,142.424219 C39.4551025,137.119952 79.6711521,130.754832 139.862061,123.328858 L162.233903,120.676725 L162.233903,111.129045 C162.233903,104.410306 161.168577,97.3379506 159.037925,89.9119769 C156.907274,82.4860033 157.439937,74.5296029 160.635914,66.0427759 C162.766566,60.0312734 164.49772,56.406691 165.829377,55.1690287 C167.161035,53.9313664 171.022841,53.1357264 177.414796,52.7821086 C185.937402,52.074873 196.057997,54.0197709 207.776581,58.6168022 C216.831851,62.1529801 222.424811,65.6891581 224.555463,69.225336 C226.686115,72.7615139 228.816766,82.1323855 230.947418,97.3379506 C231.480081,105.117542 232.412241,109.802978 233.743898,111.394258 C235.075555,112.985538 237.872036,113.604369 242.133339,113.250751 C245.861979,112.543516 265.17101,111.482662 300.06043,110.068191 C334.949851,108.65372 357.454859,107.06244 367.575454,105.294351 L382.756347,102.111791 L385.952324,78.2425897 C388.615639,50.6604018 391.412119,31.7418499 394.341765,21.4869338 C397.271411,11.2320178 402.198543,4.69008863 409.123161,1.86114628 Z"></path>
        </g>
    </g>
</svg>