<?xml version="1.0" encoding="UTF-8"?>
<svg width="400px" height="305px" viewBox="0 0 400 305" version="1.1" xmlns="http://www.w3.org/2000/svg" xmlns:xlink="http://www.w3.org/1999/xlink">
    <title>1_yi_s</title>
    <g id="1_yi_s" stroke="none" stroke-width="1" fill="none" fill-rule="evenodd">
        <path d="M325.141033,112.395806 C330.134306,109.585621 334.19134,108.102469 337.312136,107.946347 C340.432931,107.790226 347.142641,108.805015 357.441266,110.990714 C367.739891,112.86417 374.605641,114.659566 378.038516,116.376901 C381.471391,118.094235 385.684465,121.450845 390.677738,126.446728 C394.110613,129.881398 396.37319,132.769643 397.465468,135.111463 C398.557747,137.453284 399.259926,142.058864 399.572005,148.928203 C400.820323,160.793427 399.337946,169.067859 395.124872,173.751499 C390.911798,178.43514 383.655948,179.996354 373.357323,178.43514 C365.555335,177.498412 361.186221,176.639744 360.249982,175.859138 C359.313744,175.078531 349.795317,172.814771 331.694704,169.067859 C313.59409,165.320946 292.8408,163.44749 269.434834,163.44749 C244.78055,163.44749 212.870416,164.540339 173.704433,166.726038 C134.53845,168.911737 111.366543,170.941315 104.188714,172.814771 C73.9169978,181.245324 58.0009409,186.709572 56.4405432,189.207514 C55.8163841,190.456484 52.6955886,191.08097 47.0781568,191.08097 C41.4607249,191.08097 37.2476511,190.300363 34.4389351,188.739149 C28.8215033,185.616722 22.0337731,180.308596 14.0757447,172.814771 C6.11771625,165.320946 2.13870202,160.637305 2.13870202,158.763849 C1.51454293,157.514878 2.99692078,155.016936 6.58583557,151.270024 C10.1747504,147.523111 13.0614862,145.181291 15.246043,144.244563 C30.2258613,139.873165 43.9573613,136.672677 56.4405432,134.643099 C68.9237251,132.613522 90.4572138,130.193641 121.041009,127.383456 C146.007373,125.197757 163.795907,123.480422 174.406612,122.231451 C185.953555,120.982481 205.224467,119.655449 232.219348,118.250357 C259.214229,116.845265 279.42138,116.142718 292.8408,116.142718 C309.068937,116.142718 319.835681,114.893748 325.141033,112.395806 Z" id="一" fill="#000000" fill-rule="nonzero"></path>
    </g>
</svg>