<?xml version="1.0" encoding="UTF-8"?>
<svg width="1000px" height="1000px" viewBox="0 0 1000 1000" version="1.1" xmlns="http://www.w3.org/2000/svg" xmlns:xlink="http://www.w3.org/1999/xlink">
    <title>1_yi_l</title>
    <g id="1_yi_l" stroke="none" stroke-width="1" fill="none" fill-rule="evenodd">
        <g id="一" transform="translate(74.203704, 437.466667)" fill="#000000" fill-rule="nonzero">
            <path d="M690.296296,9.53333333 C700.962963,3.53333333 709.62963,0.366666667 716.296296,0.0333333333 C722.962963,-0.3 737.296296,1.86666667 759.296296,6.53333333 C781.296296,10.5333333 795.962963,14.3666667 803.296296,18.0333333 C810.62963,21.7 819.62963,28.8666667 830.296296,39.5333333 C837.62963,46.8666667 842.462963,53.0333333 844.796296,58.0333333 C847.12963,63.0333333 848.62963,72.8666667 849.296296,87.5333333 C851.962963,112.866667 848.796296,130.533333 839.796296,140.533333 C830.796296,150.533333 815.296296,153.866667 793.296296,150.533333 C776.62963,148.533333 767.296296,146.7 765.296296,145.033333 C763.296296,143.366667 742.962963,138.533333 704.296296,130.533333 C665.62963,122.533333 621.296296,118.533333 571.296296,118.533333 C518.62963,118.533333 450.462963,120.866667 366.796296,125.533333 C283.12963,130.2 233.62963,134.533333 218.296296,138.533333 C153.62963,156.533333 119.62963,168.2 116.296296,173.533333 C114.962963,176.2 108.296296,177.533333 96.2962963,177.533333 C84.2962963,177.533333 75.2962963,175.866667 69.2962963,172.533333 C57.2962963,165.866667 42.7962963,154.533333 25.7962963,138.533333 C8.7962963,122.533333 0.296296296,112.533333 0.296296296,108.533333 C-1.03703704,105.866667 2.12962963,100.533333 9.7962963,92.5333333 C17.462963,84.5333333 23.6296296,79.5333333 28.2962963,77.5333333 C60.2962963,68.2 89.6296296,61.3666667 116.296296,57.0333333 C142.962963,52.7 188.962963,47.5333333 254.296296,41.5333333 C307.62963,36.8666667 345.62963,33.2 368.296296,30.5333333 C392.962963,27.8666667 434.12963,25.0333333 491.796296,22.0333333 C549.462963,19.0333333 592.62963,17.5333333 621.296296,17.5333333 C655.962963,17.5333333 678.962963,14.8666667 690.296296,9.53333333 Z"></path>
        </g>
    </g>
</svg>