<?xml version="1.0" encoding="UTF-8"?>
<svg width="520px" height="230px" viewBox="0 0 520 230" version="1.1" xmlns="http://www.w3.org/2000/svg" xmlns:xlink="http://www.w3.org/1999/xlink">
    <title>1_yi_m</title>
    <g id="1_yi_m" stroke="none" stroke-width="1" fill="none" fill-rule="evenodd">
        <path d="M392.874573,74.7791964 C398.219132,71.7713106 402.561585,70.1838152 405.901934,70.0167105 C409.242283,69.8496057 416.424033,70.9357867 427.447185,73.2752535 C438.470336,75.2805107 445.819104,77.2022155 449.493487,79.040368 C453.167871,80.8785205 457.677342,84.471273 463.021901,89.8186256 C466.696284,93.4949305 469.118037,96.5863688 470.287159,99.0929403 C471.456282,101.599512 472.20786,106.529103 472.541895,113.881712 C473.878035,126.581675 472.291369,135.438228 467.781898,140.451371 C463.272427,145.464514 455.506116,147.135561 444.482964,145.464514 C436.132092,144.461885 431.455603,143.542809 430.453499,142.707285 C429.451394,141.871761 419.26333,139.448742 399.889306,135.438228 C380.515282,131.427713 358.301962,129.422456 333.249345,129.422456 C306.860589,129.422456 272.705521,130.592189 230.784142,132.931656 C188.862763,135.271123 164.060672,137.443485 156.37787,139.448742 C123.976485,148.4724 106.940706,154.321066 105.270531,156.994743 C104.602461,158.331581 101.262112,159 95.2494844,159 C89.2368564,159 84.7273853,158.164476 81.7210713,156.493428 C75.7084432,153.151333 68.4431843,147.469771 59.9252946,139.448742 C51.4074048,131.427713 47.14846,126.41457 47.14846,124.409313 C46.4803902,123.072475 48.0670559,120.398798 51.9084572,116.388284 C55.7498584,112.377769 58.8396812,109.871198 61.1779254,108.868569 C77.2116002,104.189636 91.9091355,100.763988 105.270531,98.591626 C118.631927,96.419264 141.680334,93.8291401 174.415754,90.8212542 C201.138545,88.4817875 220.178534,86.643635 231.53572,85.3067968 C243.895011,83.9699587 264.521666,82.5495682 293.415684,81.0456252 C322.309702,79.5416823 343.938462,78.7897109 358.301962,78.7897109 C375.671776,78.7897109 387.19598,77.4528727 392.874573,74.7791964 Z" id="一" fill="#000000" fill-rule="nonzero"></path>
    </g>
</svg>