<?xml version="1.0" encoding="UTF-8"?>
<svg width="1000px" height="1000px" viewBox="0 0 1000 1000" version="1.1" xmlns="http://www.w3.org/2000/svg" xmlns:xlink="http://www.w3.org/1999/xlink">
    <title>2_er_l</title>
    <g id="2_er_l" stroke="none" stroke-width="1" fill="none" fill-rule="evenodd">
        <g id="二" transform="translate(58.100000, 274.517241)" fill="#000000" fill-rule="nonzero">
            <path d="M707.4,302.482759 C753.4,300.482759 779.4,299.149425 785.4,298.482759 C792.733333,298.482759 802.4,300.482759 814.4,304.482759 C826.4,308.482759 833.4,312.482759 835.4,316.482759 C839.4,321.149425 845.4,324.816092 853.4,327.482759 C870.066667,332.816092 880.066667,349.482759 883.4,377.482759 C884.733333,386.816092 884.733333,393.149425 883.4,396.482759 C882.066667,399.816092 878.733333,404.149425 873.4,409.482759 C849.4,433.482759 823.733333,436.149425 796.4,417.482759 C785.733333,410.816092 771.4,406.482759 753.4,404.482759 C732.066667,401.816092 699.233333,400.816092 654.9,401.482759 C610.566667,402.149425 575.733333,403.816092 550.4,406.482759 C405.066667,424.482759 304.066667,439.816092 247.4,452.482759 L198.4,463.482759 C177.733333,468.149425 157.9,473.649425 138.9,479.982759 C119.9,486.316092 108.733333,491.816092 105.4,496.482759 C94.0666667,508.482759 74.7333333,507.649425 47.4,493.982759 C20.0666667,480.316092 4.4,463.816092 0.4,444.482759 C-0.933333333,435.149425 1.06666667,428.149425 6.4,423.482759 C11.7333333,418.816092 23.0666667,413.816092 40.4,408.482759 C56.4,404.482759 74.0666667,398.982759 93.4,391.982759 C112.733333,384.982759 130.4,379.482759 146.4,375.482759 L205.4,358.482759 C228.733333,352.482759 251.733333,348.649425 274.4,346.982759 C297.066667,345.316092 316.9,342.982759 333.9,339.982759 C350.9,336.982759 374.233333,334.149425 403.9,331.482759 C433.566667,328.816092 460.066667,325.816092 483.4,322.482759 C531.4,313.149425 606.066667,306.482759 707.4,302.482759 Z M479.4,2.48275862 C486.066667,-1.51724138 498.9,-0.683908046 517.9,4.98275862 C536.9,10.6494253 551.066667,17.4827586 560.4,25.4827586 C568.4,33.4827586 573.233333,42.9827586 574.9,53.9827586 C576.566667,64.9827586 574.4,74.4827586 568.4,82.4827586 C563.066667,89.1494253 556.233333,94.4827586 547.9,98.4827586 C539.566667,102.482759 531.733333,103.149425 524.4,100.482759 C518.4,99.1494253 505.566667,100.149425 485.9,103.482759 C466.233333,106.816092 453.4,108.816092 447.4,109.482759 C441.4,110.149425 437.233333,111.316092 434.9,112.982759 C432.566667,114.649425 428.733333,115.482759 423.4,115.482759 C416.733333,115.482759 389.733333,124.816092 342.4,143.482759 L324.4,148.482759 L277.4,125.482759 C245.4,110.816092 228.4,99.816092 226.4,92.4827586 C223.066667,84.4827586 221.9,78.816092 222.9,75.4827586 C223.9,72.1494253 228.4,68.4827586 236.4,64.4827586 C246.4,59.816092 267.9,53.316092 300.9,44.9827586 C333.9,36.6494253 363.4,30.1494253 389.4,25.4827586 C417.4,20.816092 433.566667,16.4827586 437.9,12.4827586 C442.233333,8.48275862 449.233333,6.48275862 458.9,6.48275862 C468.566667,6.48275862 475.4,5.14942529 479.4,2.48275862 Z"></path>
        </g>
    </g>
</svg>