<?xml version="1.0" encoding="UTF-8"?>
<svg width="520px" height="230px" viewBox="0 0 520 230" version="1.1" xmlns="http://www.w3.org/2000/svg" xmlns:xlink="http://www.w3.org/1999/xlink">
    <title>3_san_m</title>
    <g id="3_san_m" stroke="none" stroke-width="1" fill="none" fill-rule="evenodd">
        <path d="M379.573238,155.625612 C382.191042,155.625612 385.206262,156.767595 389.07342,158.968369 L389.609,159.277 L389.988954,159.429738 C393.446638,160.790233 396.703548,161.696694 399.75746,162.159031 L400.365535,162.24558 L401.134331,162.342186 C411.351312,163.86252 418.726576,166.335351 423.380495,170.036509 C428.461897,174.077635 431,179.977857 431,187.274091 C431,191.692057 429.187214,196.393151 425.745285,201.474071 C422.490244,206.279112 419.078806,209.434629 415.279605,210.744653 L414.922287,210.862055 L414.622,210.95 L414.471717,211.008808 C412.630766,211.686438 410.141556,211.948831 406.836512,211.857244 L406.027552,211.828498 C405.890086,211.822584 405.751293,211.816112 405.611163,211.809086 L404.754245,211.760304 L403.864712,211.698399 L402.94205,211.623559 C402.785484,211.610019 402.627515,211.595947 402.468134,211.581348 L401.494812,211.487461 L400.487073,211.381109 L399.444403,211.262482 L398.366286,211.131767 L396.710917,210.917696 L395.630833,210.772077 L394.587357,210.627143 L393.090083,210.410751 L391.673382,210.195187 L390.336175,209.980024 L389.488336,209.836593 L388.675031,209.693022 L387.895941,209.549185 L386.790759,209.332651 L386.095809,209.187593 L385.433957,209.041823 L384.804884,208.895216 L384.20827,208.747644 L383.643797,208.598981 C383.460961,208.54923 383.283429,208.499277 383.111146,208.449099 L382.609998,208.297871 L382.140033,208.145171 C382.064287,208.119592 381.989826,208.093945 381.916645,208.068229 L381.492858,207.913083 L381.099456,207.756146 L380.736122,207.597293 L380.613,207.541 L380.427396,207.496921 L380.126009,207.43179 L379.562986,207.321356 L379.059668,207.230515 L378.49917,207.135292 L377.881786,207.035756 L377.20781,206.931976 L375.691263,206.711965 L373.951884,206.475815 L372.283007,206.260636 L368.983447,205.857954 L366.881596,205.612957 L362.206319,205.090553 L355.479203,204.376962 L350.861792,203.905898 L348.246799,203.651321 L345.698378,203.415836 L343.216621,203.199421 L341.599199,203.065729 L340.011473,202.940495 L338.453472,202.823715 L336.925223,202.715382 L335.426753,202.615489 L333.234945,202.48146 L331.811042,202.402639 L330.417015,202.332235 L329.05289,202.270243 L327.718695,202.216656 L326.414457,202.171466 L325.140203,202.134669 L323.895961,202.106257 L322.681758,202.086224 L321.497622,202.074563 C321.302773,202.073317 321.109178,202.072419 320.916837,202.07187 L319.777851,202.072756 L318.669001,202.081998 L317.590312,202.09959 L316.541813,202.125526 L315.523531,202.159798 L314.535493,202.202401 C314.373341,202.210196 314.212452,202.218337 314.052824,202.226825 L313.110203,202.281912 L312.197896,202.345313 L311.315928,202.417022 C311.171463,202.429665 311.028263,202.442655 310.88633,202.45599 L310.049923,202.540149 L307.07386,202.873117 L305.308607,203.063288 L302.582081,203.346028 L299.761141,203.625755 L296.845745,203.902474 L293.835852,204.176193 L291.776738,204.357009 L288.609258,204.625743 L286.445048,204.803242 L283.119867,205.067011 L280.850484,205.241206 L277.367487,205.500029 L275.459275,205.63841 L273.989449,205.750816 L272.496286,205.872391 L270.212792,206.071946 L268.661301,206.216445 L267.086485,206.370114 L265.488347,206.532953 L263.866891,206.704962 L261.390991,206.980171 L259.711252,207.175107 L257.147945,207.484707 L254.532208,207.814943 L251.864053,208.165815 L249.143491,208.537325 L247.300674,208.796464 L245.434573,209.064776 L242.591771,209.484442 L239.6966,209.924749 L237.737398,210.229754 L235.754928,210.543933 L232.737605,211.032402 L229.667949,211.541514 L226.545973,212.07127 L224.435594,212.435909 L222.30197,212.809723 L219.057955,213.387649 L215.761657,213.986221 L213.535083,214.39674 L210.151671,215.029723 L205.559173,215.90582 L202.053853,216.586983 L198.496305,217.288796 L193.671685,218.256669 L189.992317,219.006668 L185.005311,220.038792 L182.596,220.543 L180.250085,221.154234 L177.567953,221.839596 L175.555716,222.341 L174.087221,222.697141 L173.06613,222.938314 L171.513147,223.291458 L170.401042,223.530572 L169.401209,223.731614 L168.942374,223.818004 L168.304328,223.930091 L167.725306,224.021355 L167.371402,224.070728 L166.887693,224.127727 L166.596057,224.154439 L166.328614,224.172189 L166.269,224.174 L166.058555,224.237665 L165.71721,224.355777 L165.316879,224.509737 L164.859671,224.699331 L164.347693,224.924344 L163.761767,225.194489 L163.129731,225.497834 L162.451868,225.834287 C162.335087,225.893117 162.216409,225.953322 162.095839,226.014901 L161.349764,226.400847 L160.558567,226.819673 L159.722529,227.27129 L158.841935,227.755605 L157.917064,228.27253 C151.726628,231.758302 144.189072,233.637016 135.34759,233.973042 L134.586557,233.99819 L133.368282,233.99819 L131.338583,233.983515 L129.927651,233.962587 L128.192527,233.921044 L126.99918,233.879378 L126.254358,233.846478 L125.549707,233.809404 L124.88486,233.768094 L123.961429,233.698046 L123.12551,233.618106 L122.616242,233.559212 C122.534539,233.549019 122.454419,233.538635 122.375874,233.528061 L121.923445,233.46231 L121.508453,233.391908 C120.378748,233.184578 119.075664,232.742004 117.559274,232.058093 L116.896217,231.750195 C116.670768,231.642626 116.440848,231.530113 116.206343,231.412639 L115.488952,231.045319 C115.123261,230.854199 114.74699,230.651879 114.359746,230.438296 L113.57051,229.996098 L112.751313,229.523762 L111.901457,229.021182 L111.020244,228.488252 L110.106975,227.924864 L108.28791,226.794384 L107.43827,226.273386 L106.239922,225.547897 L105.133368,224.889829 L104.119122,224.299418 L103.197701,223.7769 L102.635243,223.46639 L102.110668,223.184253 L101.632026,222.934891 L101.207288,222.722173 L100.838322,222.54662 C100.781578,222.520488 100.727237,222.495925 100.675336,222.472944 L100.493,222.395 L100.348087,222.381958 C97.4936577,222.06016 95.543932,220.101992 93.8443509,217.013813 L93.6752024,216.701247 L93.5127928,216.391371 C92.2998608,214.041661 91.28656,211.440827 90.4666832,208.591096 L90.2319624,207.749497 L90.2045977,207.623944 C89.2411917,203.203702 91.5181295,198.893271 96.2479821,194.177518 L96.6946003,193.737564 L96.8388214,193.616251 C100.354789,190.658763 103.695671,188.638196 106.934944,187.597839 L107.490853,187.425218 L107.901395,187.303892 L108.577341,187.112462 L109.325719,186.909622 L110.734816,186.545938 L112.347403,186.149856 L114.164908,185.720936 L116.188761,185.258742 L119.371541,184.554933 L122.965486,183.783845 L124.632586,183.432485 L124.826093,183.395861 C185.916052,173.075585 244.083507,166.85815 299.346065,164.745241 L305.671467,164.515102 L311.716806,164.276108 L316.540552,164.070197 L322.072084,163.815021 L325.603972,163.640014 L329.011173,163.461104 L332.293645,163.278294 L336.221274,163.044309 L338.484241,162.901003 L342.09978,162.65731 L344.175433,162.508188 L347.478678,162.254817 L349.980671,162.047775 L352.357638,161.836877 L353.580152,161.722254 L355.460605,161.536621 L357.246368,161.348436 L358.384136,161.221602 L360.011469,161.029349 L361.543374,160.834765 L362.511493,160.703788 L363.436994,160.571838 L364.745158,160.372139 L365.563757,160.237861 L366.339451,160.102694 L367.072158,159.966664 C367.588588,159.867578 368.066572,159.768596 368.504957,159.670392 L369.132691,159.523754 C369.232315,159.49944 369.329429,159.475195 369.424013,159.451031 L369.961025,159.307088 L370.436476,159.165575 L370.801196,159.04416 L371.055568,158.949467 L371.22,158.88 L371.323599,158.799421 C373.710147,156.92231 376.229073,155.819688 378.85457,155.648953 L379.213251,155.631462 L379.573238,155.625612 Z M260.478508,80.686514 L261.399736,80.6628735 L262.356457,80.6525221 C262.843748,80.6506422 263.344476,80.6536859 263.858833,80.6615638 L264.905777,80.6837385 L265.989406,80.718645 C266.173087,80.7255148 266.358311,80.7329086 266.545085,80.7408228 L267.68438,80.7945284 L268.861213,80.8605676 L272.587858,81.0918561 L275.989246,81.2822622 L277.547297,81.36029 L279.476294,81.4465325 L280.377049,81.4820323 L282.050758,81.5378003 L283.193964,81.5663072 L284.240869,81.5834058 L285.19126,81.5891037 C289.922505,81.5891037 295.013865,84.0425223 300.744921,88.692495 L301.175954,89.0453575 L301.272447,89.1271223 C306.915046,94.0324138 310.213759,98.5729014 310.952518,103.148764 C311.749431,108.084836 309.516629,112.880789 304.867168,117.544895 L304.645,117.764 L301.465049,121.208127 L298.188066,124.73541 C293.483023,129.717117 286.197603,129.832693 276.663014,126.171378 L275.762567,125.817098 C275.006721,125.512699 274.237209,125.185456 273.454191,124.835887 C269.542689,123.13569 263.467018,122.395034 255.316743,122.759197 L254.776,122.785 L253.116496,122.943191 C244.83367,123.75619 236.331915,124.959906 227.611346,126.554855 L225.739304,126.902618 L223.357142,127.360532 L220.938823,127.842308 L219.1253,128.215692 L217.837628,128.487914 L216.219569,128.839486 L214.716997,129.176935 L212.685706,129.65398 L211.483912,129.95083 L210.157966,130.29594 L209.241608,130.549794 L208.456591,130.782575 L207.955679,130.942605 L207.531362,131.089592 L207.29161,131.180086 L207.086761,131.264404 L206.932,131.334 L206.836589,131.41738 C204.58221,133.304664 202.075208,134.281123 199.416107,134.031682 L199.096292,133.995845 L198.775054,133.948118 L198.610975,133.918849 L198.266609,133.84622 L197.900044,133.754643 C197.83706,133.737791 197.773123,133.720141 197.708216,133.70169 L197.30703,133.581338 L196.881883,133.441567 L196.43207,133.282187 L195.956885,133.10301 L195.455624,132.903846 L194.927582,132.684507 L194.083762,132.317256 L193.485682,132.046651 L192.858354,131.75521 L191.86098,131.278565 L191.157446,130.934205 L190.042459,130.377297 L188.853731,129.77138 L187.301,128.965 L186.437912,128.585119 L185.441351,128.133693 C184.791642,127.834979 184.171182,127.540644 183.579491,127.250118 L182.713471,126.817113 C180.179779,125.52624 178.223793,124.30671 176.80175,123.106529 L176.569679,122.906669 L176.347451,122.707114 C174.206482,120.742501 172.430825,118.044697 170.943342,114.63522 L170.764,114.217 L170.640698,113.947753 C167.764052,107.597269 167.733711,102.163761 171.714469,98.5379962 L171.939756,98.3384303 L172.173341,98.142618 L172.435674,97.9286412 L172.724455,97.7519786 L172.974997,97.6066041 L173.255004,97.4590238 C173.304136,97.4342407 173.354502,97.409364 173.406104,97.3843925 L173.730589,97.2334196 L174.084911,97.0801294 L174.469218,96.924477 C174.535776,96.8983356 174.60359,96.8720939 174.672662,96.8457511 L175.102224,96.6864719 L175.562142,96.5247189 L176.052563,96.3604477 L176.573636,96.1936135 L177.413043,95.9384589 L178.32225,95.6772865 L179.301757,95.4099457 L180.717988,95.0436355 L182.261273,94.6657342 L183.932797,94.2758847 L185.733747,93.8737298 L187.665307,93.4589126 L189.728663,93.0310757 L191.925001,92.5898622 L194.255507,92.1349149 L196.721366,91.6658767 L199.995837,91.0592195 L203.485965,90.4292898 L205.684521,90.039871 L208.738858,89.5069623 L214.425334,88.5357397 L219.649368,87.6628957 L224.25252,86.906141 L230.54477,85.9294663 L235.140892,85.1940437 L238.802538,84.590087 L240.886012,84.2370094 L243.887661,83.7120596 L245.868021,83.3513225 L247.881645,82.9670099 L249.122367,82.7170638 L249.995388,82.532093 L251.104081,82.280002 L251.708338,82.1290928 L252.090244,82.0250332 L252.310745,81.9600429 L252.590131,81.8691833 C254.561055,81.1802021 257.165327,80.7977539 260.478508,80.686514 Z M268.583437,-2.78810275 C272.259021,-4.87603819 276.006937,-5.54115372 279.607242,-4.55343589 L280.223513,-4.37403936 L280.673124,-4.25448347 L281.199693,-4.12677269 L282.020642,-3.94403958 L282.724856,-3.79782566 L283.780867,-3.59091161 L284.969586,-3.37061982 L286.640317,-3.07693007 L289.320251,-2.63267755 L291.47488,-2.29257071 L294.823029,-1.7858539 L297.042887,-1.45647901 L298.199797,-1.27591231 L299.320926,-1.09286635 L300.406525,-0.907170052 L301.456842,-0.718652342 L302.47213,-0.527142148 L303.452637,-0.332468394 L304.398615,-0.134460007 L305.310313,0.0670540865 C305.45942,0.100941415 305.607109,0.134981943 305.753386,0.169179234 L306.614134,0.376272652 L307.441229,0.587299462 C307.981464,0.729333149 308.499429,0.874103146 308.995459,1.02183755 L309.723095,1.24569098 C311.738354,1.8864033 313.360423,2.58272027 314.614922,3.35215202 L315.0419,3.62018845 C320.229656,6.96008844 322.607042,12.8961256 322.499805,20.8086375 L322.490864,21.267317 L322.476423,21.7303557 C322.175793,29.8684215 319.356306,36.2733974 313.957118,40.5246969 L313.697,40.725 L313.395134,40.9708559 C310.529321,43.2576917 307.625329,44.6938432 304.659283,45.1724164 L304.254435,45.231731 L303.848805,45.2791145 C301.585965,45.5098306 298.636528,45.2075985 294.858787,44.4053998 L293.854407,44.1848109 C293.683848,44.146163 293.511699,44.1065755 293.33795,44.066051 L292.276153,43.8116818 C292.095955,43.7674202 291.914132,43.7222271 291.730674,43.676105 L290.610202,43.3882484 L290.415748,43.3330425 C284.897738,41.6452152 277.687039,40.8542289 268.816994,40.9968356 L267.402675,41.0271162 L265.960807,41.0729457 C265.718202,41.0818815 265.474449,41.0914665 265.229551,41.1017014 L263.746412,41.1709146 L262.235797,41.255757 L260.697733,41.356261 C259.663215,41.4284913 258.610417,41.5111839 257.539379,41.6043819 C243.555001,42.821253 231.015771,45.1564547 219.922251,48.5991795 L218.925,48.913 L217.295143,49.4793403 L215.107224,50.2256986 L213.545296,50.747826 L212.5412,51.0780255 L211.09026,51.5465482 L209.70487,51.9830014 L208.817306,52.2561883 L207.958295,52.515174 L206.722808,52.8770703 L205.55026,53.2071303 L204.803141,53.409518 L204.083414,53.5978081 L203.390849,53.7720212 L202.725212,53.9321782 L202.086272,54.0782997 L201.473796,54.2104064 L200.887554,54.3285192 C200.79202,54.3470397 200.697569,54.3649779 200.604197,54.3823344 L200.056869,54.479495 L199.535193,54.5627135 C199.365551,54.5881316 199.200146,54.6112295 199.038939,54.6320106 L198.567872,54.6874069 L198.121763,54.7289233 C198.049478,54.7346872 197.978223,54.7398736 197.907994,54.744483 L197.498885,54.7652183 L197.303486,54.7703991 L197.114152,54.7721255 C195.71189,54.7721255 194.166798,54.3429749 192.317684,53.4621897 L191.753669,53.1843826 C191.466939,53.0386821 191.173006,52.8827691 190.871327,52.716568 L190.257476,52.3704255 C190.153393,52.3104413 190.048408,52.2493083 189.942502,52.1870238 L189.295849,51.7994753 C189.186178,51.7325733 189.075544,51.664514 188.96393,51.5952948 L188.282299,51.1660368 L187.576141,50.7088039 L186.844487,50.2234611 C186.720367,50.1402207 186.595144,50.0558034 186.468798,49.9702064 L185.697089,49.4424458 L184.897467,48.8862382 L183.264543,47.7406192 L182.141408,46.9657576 L181.448195,46.4949337 L180.492334,45.8576627 L179.911439,45.4789898 L179.125255,44.9805813 L178.672257,44.7033341 L178.284622,44.4741992 L177.952646,44.2863431 L177.815,44.212 L177.591198,44.1917528 C171.866555,43.5820064 168.844377,38.4554041 167.790069,30.4606401 L167.738153,30.0516629 L167.676862,29.5247397 L167.032819,19.4778816 L191.854897,12.0234475 L192.017568,11.9775778 C211.941157,6.72137459 231.037715,2.89943503 249.308426,0.513917973 L251.132744,0.280154423 L251.299455,0.262032714 L252.842584,0.114976327 L254.321205,-0.0368495192 L255.270738,-0.140518793 L256.64015,-0.299404285 L257.943019,-0.461991893 L259.178583,-0.627881364 L260.346078,-0.796672445 L261.444741,-0.967964883 L262.47381,-1.14135842 L263.120815,-1.25792374 L264.032197,-1.43392967 L264.600038,-1.55186598 L265.391613,-1.72937248 L265.878877,-1.84793856 L266.333514,-1.96654901 C266.406555,-1.98631453 266.478228,-2.00607696 266.548527,-2.02583382 L266.9538,-2.14428847 C267.018586,-2.16401319 267.081988,-2.18372742 267.144004,-2.20342866 L267.499404,-2.32146067 L267.821274,-2.43906268 C267.872112,-2.45862059 267.921544,-2.47815564 267.969564,-2.49766537 L268.240714,-2.61440001 C268.325427,-2.65319706 268.404457,-2.69187304 268.477767,-2.73040816 L268.583437,-2.78810275 Z" id="三" fill="#000000" fill-rule="nonzero"></path>
    </g>
</svg>