<?xml version="1.0" encoding="UTF-8"?>
<svg width="400px" height="305px" viewBox="0 0 400 305" version="1.1" xmlns="http://www.w3.org/2000/svg" xmlns:xlink="http://www.w3.org/1999/xlink">
    <title>3_san_s</title>
    <g id="3_san_s" stroke="none" stroke-width="1" fill="none" fill-rule="evenodd">
        <path d="M319.573238,193.631464 C322.191042,193.631464 325.206262,194.773447 329.07342,196.974222 L329.609,197.282852 L329.988954,197.435591 C333.446638,198.796086 336.703548,199.702546 339.75746,200.164884 L340.365535,200.251432 L341.134331,200.348038 C351.351312,201.868372 358.726576,204.341203 363.380495,208.042362 C368.461897,212.083487 371,217.983709 371,225.279944 C371,229.69791 369.187214,234.399003 365.745285,239.479924 C362.490244,244.284965 359.078806,247.440481 355.279605,248.750506 L354.922287,248.867908 L354.622,248.955852 L354.471717,249.01466 C352.630766,249.69229 350.141556,249.954684 346.836512,249.863096 L346.027552,249.83435 C345.890086,249.828437 345.751293,249.821965 345.611163,249.814939 L344.754245,249.766156 L343.864712,249.704251 L342.94205,249.629412 C342.785484,249.615871 342.627515,249.6018 342.468134,249.587201 L341.494812,249.493313 L340.487073,249.386962 L339.444403,249.268335 L338.366286,249.13762 L336.710917,248.923549 L335.630833,248.777929 L334.587357,248.632996 L333.090083,248.416603 L331.673382,248.20104 L330.336175,247.985876 L329.488336,247.842445 L328.675031,247.698874 L327.895941,247.555037 L326.790759,247.338504 L326.095809,247.193445 L325.433957,247.047676 L324.804884,246.901069 L324.20827,246.753497 L323.643797,246.604833 C323.460961,246.555083 323.283429,246.505129 323.111146,246.454951 L322.609998,246.303724 L322.140033,246.151024 C322.064287,246.125444 321.989826,246.099798 321.916645,246.074082 L321.492858,245.918935 L321.099456,245.761998 L320.736122,245.603145 L320.613,245.546852 L320.427396,245.502773 L320.126009,245.437642 L319.562986,245.327208 L319.059668,245.236368 L318.49917,245.141144 L317.881786,245.041608 L317.20781,244.937828 L315.691263,244.717817 L313.951884,244.481668 L312.283007,244.266488 L308.983447,243.863807 L306.881596,243.61881 L302.206319,243.096405 L295.479203,242.382815 L290.861792,241.911751 L288.246799,241.657174 L285.698378,241.421689 L283.216621,241.205274 L281.599199,241.071581 L280.011473,240.946348 L278.453472,240.829568 L276.925223,240.721234 L275.426753,240.621341 L273.234945,240.487312 L271.811042,240.408491 L270.417015,240.338088 L269.05289,240.276096 L267.718695,240.222508 L266.414457,240.177319 L265.140203,240.140521 L263.895961,240.112109 L262.681758,240.092076 L261.497622,240.080415 C261.302773,240.079169 261.109178,240.078272 260.916837,240.077723 L259.777851,240.078609 L258.669001,240.087851 L257.590312,240.105443 L256.541813,240.131378 L255.523531,240.165651 L254.535493,240.208254 C254.373341,240.216048 254.212452,240.224189 254.052824,240.232677 L253.110203,240.287764 L252.197896,240.351165 L251.315928,240.422874 C251.171463,240.435518 251.028263,240.448507 250.88633,240.461842 L250.049923,240.546001 L247.07386,240.878969 L245.308607,241.069141 L242.582081,241.351881 L239.761141,241.631607 L236.845745,241.908326 L233.835852,242.182045 L231.776738,242.362861 L228.609258,242.631596 L226.445048,242.809095 L223.119867,243.072864 L220.850484,243.247059 L217.367487,243.505881 L215.459275,243.644262 L213.989449,243.756668 L212.496286,243.878243 L210.212792,244.077799 L208.661301,244.222298 L207.086485,244.375966 L205.488347,244.538805 L203.866891,244.710815 L201.390991,244.986023 L199.711252,245.180959 L197.147945,245.490559 L194.532208,245.820795 L191.864053,246.171668 L189.143491,246.543178 L187.300674,246.802317 L185.434573,247.070628 L182.591771,247.490295 L179.6966,247.930602 L177.737398,248.235606 L175.754928,248.549785 L172.737605,249.038255 L169.667949,249.547367 L166.545973,250.077122 L164.435594,250.441761 L162.30197,250.815576 L159.057955,251.393502 L155.761657,251.992074 L153.535083,252.402592 L150.151671,253.035575 L145.559173,253.911672 L142.053853,254.592836 L138.496305,255.294648 L133.671685,256.262522 L129.992317,257.01252 L125.005311,258.044644 L122.596,258.548852 L120.250085,259.160087 L117.567953,259.845449 L115.555716,260.346853 L114.087221,260.702993 L113.06613,260.944166 L111.513147,261.297311 L110.401042,261.536425 L109.401209,261.737466 L108.942374,261.823857 L108.304328,261.935944 L107.725306,262.027208 L107.371402,262.07658 L106.887693,262.133579 L106.596057,262.160291 L106.328614,262.178041 L106.269,262.179852 L106.058555,262.243517 L105.71721,262.36163 L105.316879,262.51559 L104.859671,262.705184 L104.347693,262.930196 L103.761767,263.200342 L103.129731,263.503687 L102.451868,263.84014 C102.335087,263.898969 102.216409,263.959175 102.095839,264.020754 L101.349764,264.406699 L100.558567,264.825526 L99.7225294,265.277142 L98.8419345,265.761458 L97.9170641,266.278382 C91.7266277,269.764155 84.1890724,271.642869 75.3475902,271.978895 L74.5865566,272.004042 L73.368282,272.004042 L71.3385826,271.989368 L69.9276506,271.96844 L68.1925271,271.926896 L66.9991799,271.885231 L66.2543584,271.85233 L65.5497066,271.815257 L64.8848602,271.773947 L63.9614286,271.703898 L63.1255098,271.623959 L62.6162416,271.565065 C62.534539,271.554871 62.4544191,271.544488 62.3758743,271.533913 L61.9234452,271.468162 L61.5084535,271.397761 C60.3787475,271.190431 59.0756638,270.747856 57.5592744,270.063946 L56.8962173,269.756048 C56.6707675,269.648478 56.4408481,269.535965 56.2063427,269.418492 L55.4889521,269.051171 C55.1232615,268.860052 54.7469904,268.657731 54.359746,268.444149 L53.5705098,268.00195 L52.7513131,267.529615 L51.9014575,267.027035 L51.0202444,266.494104 L50.1069754,265.930716 L48.2879104,264.800236 L47.4382701,264.279238 L46.2399223,263.553749 L45.1333678,262.895681 L44.1191222,262.30527 L43.1977007,261.782752 L42.6352433,261.472242 L42.1106679,261.190105 L41.6320262,260.940744 L41.2072882,260.728025 L40.8383215,260.552473 C40.7815785,260.52634 40.727237,260.501778 40.6753361,260.478797 L40.493,260.400852 L40.3480866,260.387811 C37.4936577,260.066012 35.543932,258.107845 33.8443509,255.019665 L33.6752024,254.707099 L33.5127928,254.397223 C32.2998608,252.047513 31.28656,249.446679 30.4666832,246.596948 L30.2319624,245.75535 L30.2045977,245.629797 C29.2411917,241.209555 31.5181295,236.899124 36.2479821,232.183371 L36.6946003,231.743416 L36.8388214,231.622103 C40.354789,228.664615 43.6956713,226.644048 46.9349439,225.603692 L47.4908535,225.431071 L47.9013955,225.309744 L48.5773406,225.118315 L49.3257187,224.915474 L50.7348161,224.551791 L52.3474029,224.155708 L54.1649082,223.726789 L56.1887614,223.264594 L59.3715412,222.560786 L62.9654857,221.789698 L64.6325862,221.438338 L64.8260932,221.401714 C125.916052,211.081437 184.083507,204.864002 239.346065,202.751093 L245.671467,202.520954 L251.716806,202.28196 L256.540552,202.076049 L262.072084,201.820873 L265.603972,201.645867 L269.011173,201.466956 L272.293645,201.284147 L276.221274,201.050161 L278.484241,200.906855 L282.09978,200.663162 L284.175433,200.514041 L287.478678,200.260669 L289.980671,200.053627 L292.357638,199.84273 L293.580152,199.728107 L295.460605,199.542473 L297.246368,199.354288 L298.384136,199.227455 L300.011469,199.035201 L301.543374,198.840617 L302.511493,198.709641 L303.436994,198.57769 L304.745158,198.377992 L305.563757,198.243713 L306.339451,198.108546 L307.072158,197.972516 C307.588588,197.87343 308.066572,197.774449 308.504957,197.676245 L309.132691,197.529607 C309.232315,197.505292 309.329429,197.481048 309.424013,197.456883 L309.961025,197.312941 L310.436476,197.171427 L310.801196,197.050013 L311.055568,196.955319 L311.22,196.885852 L311.323599,196.805274 C313.710147,194.928162 316.229073,193.82554 318.85457,193.654805 L319.213251,193.637314 L319.573238,193.631464 Z M200.478508,118.692367 L201.399736,118.668726 L202.356457,118.658375 C202.843748,118.656495 203.344476,118.659538 203.858833,118.667416 L204.905777,118.689591 L205.989406,118.724497 C206.173087,118.731367 206.358311,118.738761 206.545085,118.746675 L207.68438,118.800381 L208.861213,118.86642 L212.587858,119.097709 L215.989246,119.288115 L217.547297,119.366143 L219.476294,119.452385 L220.377049,119.487885 L222.050758,119.543653 L223.193964,119.57216 L224.240869,119.589258 L225.19126,119.594956 C229.922505,119.594956 235.013865,122.048375 240.744921,126.698347 L241.175954,127.05121 L241.272447,127.132975 C246.915046,132.038266 250.213759,136.578754 250.952518,141.154617 C251.749431,146.090689 249.516629,150.886642 244.867168,155.550747 L244.645,155.769852 L241.465049,159.213979 L238.188066,162.741262 C233.483023,167.722969 226.197603,167.838545 216.663014,164.177231 L215.762567,163.82295 C215.006721,163.518551 214.237209,163.191308 213.454191,162.841739 C209.542689,161.141542 203.467018,160.400886 195.316743,160.76505 L194.776,160.790852 L193.116496,160.949043 C184.83367,161.762043 176.331915,162.965758 167.611346,164.560707 L165.739304,164.90847 L163.357142,165.366384 L160.938823,165.848161 L159.1253,166.221544 L157.837628,166.493766 L156.219569,166.845339 L154.716997,167.182787 L152.685706,167.659832 L151.483912,167.956682 L150.157966,168.301793 L149.241608,168.555647 L148.456591,168.788428 L147.955679,168.948458 L147.531362,169.095445 L147.29161,169.185938 L147.086761,169.270257 L146.932,169.339852 L146.836589,169.423232 C144.58221,171.310517 142.075208,172.286976 139.416107,172.037535 L139.096292,172.001697 L138.775054,171.95397 L138.610975,171.924702 L138.266609,171.852072 L137.900044,171.760495 C137.83706,171.743643 137.773123,171.725994 137.708216,171.707543 L137.30703,171.587191 L136.881883,171.44742 L136.43207,171.28804 L135.956885,171.108862 L135.455624,170.909699 L134.927582,170.690359 L134.083762,170.323108 L133.485682,170.052504 L132.858354,169.761062 L131.86098,169.284418 L131.157446,168.940058 L130.042459,168.38315 L128.853731,167.777233 L127.301,166.970852 L126.437912,166.590971 L125.441351,166.139545 C124.791642,165.840831 124.171182,165.546497 123.579491,165.25597 L122.713471,164.822966 C120.179779,163.532093 118.223793,162.312563 116.80175,161.112382 L116.569679,160.912522 L116.347451,160.712967 C114.206482,158.748354 112.430825,156.05055 110.943342,152.641072 L110.764,152.222852 L110.640698,151.953605 C107.764052,145.603121 107.733711,140.169613 111.714469,136.543849 L111.939756,136.344283 L112.173341,136.14847 L112.435674,135.934494 L112.724455,135.757831 L112.974997,135.612457 L113.255004,135.464876 C113.304136,135.440093 113.354502,135.415216 113.406104,135.390245 L113.730589,135.239272 L114.084911,135.085982 L114.469218,134.930329 C114.535776,134.904188 114.60359,134.877946 114.672662,134.851604 L115.102224,134.692324 L115.562142,134.530571 L116.052563,134.3663 L116.573636,134.199466 L117.413043,133.944311 L118.32225,133.683139 L119.301757,133.415798 L120.717988,133.049488 L122.261273,132.671587 L123.932797,132.281737 L125.733747,131.879582 L127.665307,131.464765 L129.728663,131.036928 L131.925001,130.595715 L134.255507,130.140767 L136.721366,129.671729 L139.995837,129.065072 L143.485965,128.435142 L145.684521,128.045723 L148.738858,127.512815 L154.425334,126.541592 L159.649368,125.668748 L164.25252,124.911993 L170.54477,123.935319 L175.140892,123.199896 L178.802538,122.59594 L180.886012,122.242862 L183.887661,121.717912 L185.868021,121.357175 L187.881645,120.972862 L189.122367,120.722916 L189.995388,120.537946 L191.104081,120.285854 L191.708338,120.134945 L192.090244,120.030886 L192.310745,119.965895 L192.590131,119.875036 C194.561055,119.186055 197.165327,118.803606 200.478508,118.692367 Z M208.583437,35.2177497 C212.259021,33.1298143 216.006937,32.4646988 219.607242,33.4524166 L220.223513,33.6318131 L220.673124,33.751369 L221.199693,33.8790798 L222.020642,34.0618129 L222.724856,34.2080268 L223.780867,34.4149409 L224.969586,34.6352327 L226.640317,34.9289224 L229.320251,35.3731749 L231.47488,35.7132818 L234.823029,36.2199986 L237.042887,36.5493735 L238.199797,36.7299402 L239.320926,36.9129861 L240.406525,37.0986824 L241.456842,37.2872001 L242.47213,37.4787103 L243.452637,37.6733841 L244.398615,37.8713925 L245.310313,38.0729066 C245.45942,38.1067939 245.607109,38.1408344 245.753386,38.1750317 L246.614134,38.3821251 L247.441229,38.5931519 C247.981464,38.7351856 248.499429,38.8799556 248.995459,39.02769 L249.723095,39.2515435 C251.738354,39.8922558 253.360423,40.5885728 254.614922,41.3580045 L255.0419,41.6260409 C260.229656,44.9659409 262.607042,50.9019781 262.499805,58.81449 L262.490864,59.2731695 L262.476423,59.7362082 C262.175793,67.874274 259.356306,74.2792499 253.957118,78.5305494 L253.697,78.7308525 L253.395134,78.9767084 C250.529321,81.2635441 247.625329,82.6996957 244.659283,83.1782689 L244.254435,83.2375834 L243.848805,83.2849669 C241.585965,83.5156831 238.636528,83.213451 234.858787,82.4112523 L233.854407,82.1906633 C233.683848,82.1520155 233.511699,82.112428 233.33795,82.0719035 L232.276153,81.8175343 C232.095955,81.7732727 231.914132,81.7280795 231.730674,81.6819575 L230.610202,81.3941009 L230.415748,81.338895 C224.897738,79.6510677 217.687039,78.8600814 208.816994,79.0026881 L207.402675,79.0329687 L205.960807,79.0787982 C205.718202,79.087734 205.474449,79.097319 205.229551,79.1075538 L203.746412,79.176767 L202.235797,79.2616095 L200.697733,79.3621135 C199.663215,79.4343437 198.610417,79.5170364 197.539379,79.6102343 C183.555001,80.8271055 171.015771,83.1623072 159.922251,86.605032 L158.925,86.9188525 L157.295143,87.4851928 L155.107224,88.231551 L153.545296,88.7536785 L152.5412,89.083878 L151.09026,89.5524007 L149.70487,89.9888539 L148.817306,90.2620408 L147.958295,90.5210264 L146.722808,90.8829228 L145.55026,91.2129828 L144.803141,91.4153705 L144.083414,91.6036606 L143.390849,91.7778737 L142.725212,91.9380307 L142.086272,92.0841522 L141.473796,92.2162589 L140.887554,92.3343717 C140.79202,92.3528922 140.697569,92.3708304 140.604197,92.3881868 L140.056869,92.4853475 L139.535193,92.568566 C139.365551,92.5939841 139.200146,92.617082 139.038939,92.6378631 L138.567872,92.6932594 L138.121763,92.7347758 C138.049478,92.7405397 137.978223,92.7457261 137.907994,92.7503355 L137.498885,92.7710708 L137.303486,92.7762516 L137.114152,92.777978 C135.71189,92.777978 134.166798,92.3488274 132.317684,91.4680422 L131.753669,91.1902351 C131.466939,91.0445345 131.173006,90.8886216 130.871327,90.7224205 L130.257476,90.3762779 C130.153393,90.3162938 130.048408,90.2551608 129.942502,90.1928763 L129.295849,89.8053278 C129.186178,89.7384258 129.075544,89.6703665 128.96393,89.6011473 L128.282299,89.1718893 L127.576141,88.7146564 L126.844487,88.2293136 C126.720367,88.1460732 126.595144,88.0616558 126.468798,87.9760589 L125.697089,87.4482983 L124.897467,86.8920906 L123.264543,85.7464716 L122.141408,84.9716101 L121.448195,84.5007861 L120.492334,83.8635151 L119.911439,83.4848422 L119.125255,82.9864338 L118.672257,82.7091866 L118.284622,82.4800517 L117.952646,82.2921955 L117.815,82.2178525 L117.591198,82.1976053 C111.866555,81.5878589 108.844377,76.4612566 107.790069,68.4664926 L107.738153,68.0575153 L107.676862,67.5305921 L107.032819,57.4837341 L131.854897,50.0293 L132.017568,49.9834303 C151.941157,44.7272271 171.037715,40.9052875 189.308426,38.5197705 L191.132744,38.2860069 L191.299455,38.2678852 L192.842584,38.1208288 L194.321205,37.969003 L195.270738,37.8653337 L196.64015,37.7064482 L197.943019,37.5438606 L199.178583,37.3779711 L200.346078,37.20918 L201.444741,37.0378876 L202.47381,36.8644941 L203.120815,36.7479287 L204.032197,36.5719228 L204.600038,36.4539865 L205.391613,36.27648 L205.878877,36.1579139 L206.333514,36.0393035 C206.406555,36.019538 206.478228,35.9997755 206.548527,35.9800187 L206.9538,35.861564 C207.018586,35.8418393 207.081988,35.8221251 207.144004,35.8024238 L207.499404,35.6843918 L207.821274,35.5667898 C207.872112,35.5472319 207.921544,35.5276968 207.969564,35.5081871 L208.240714,35.3914525 C208.325427,35.3526554 208.404457,35.3139794 208.477767,35.2754443 L208.583437,35.2177497 Z" id="三" fill="#000000" fill-rule="nonzero"></path>
    </g>
</svg>