<?xml version="1.0" encoding="UTF-8"?>
<svg width="1000px" height="1000px" viewBox="0 0 1000 1000" version="1.1" xmlns="http://www.w3.org/2000/svg" xmlns:xlink="http://www.w3.org/1999/xlink">
    <title>3_san_l</title>
    <g id="3_san_l" stroke="none" stroke-width="1" fill="none" fill-rule="evenodd">
        <g id="三" transform="translate(66.764706, 198.052632)" fill="#000000" fill-rule="nonzero">
            <path d="M731.235294,466.947368 C735.901961,462.947368 740.401961,460.947368 744.735294,460.947368 C749.068627,460.947368 755.901961,463.947368 765.235294,469.947368 C777.235294,475.280702 788.568627,478.614035 799.235294,479.947368 C823.901961,483.947368 841.235294,490.280702 851.235294,498.947368 C861.235294,507.614035 866.235294,520.280702 866.235294,536.947368 C866.235294,546.280702 862.401961,557.114035 854.735294,569.447368 C847.068627,581.780702 839.568627,588.947368 832.235294,590.947368 C826.901961,593.614035 813.735294,593.447368 792.735294,590.447368 C771.735294,587.447368 758.568627,584.614035 753.235294,581.947368 C751.235294,579.947368 724.568627,576.114035 673.235294,570.447368 C621.901961,564.780702 584.235294,563.447368 560.235294,566.447368 C536.235294,569.447368 507.235294,572.280702 473.235294,574.947368 C413.235294,579.614035 330.901961,593.947368 226.235294,617.947368 C202.901961,624.614035 189.401961,627.947368 185.735294,627.947368 C182.068627,627.947368 172.901961,632.447368 158.235294,641.447368 C143.568627,650.447368 125.235294,655.280702 103.235294,655.947368 C87.2352941,655.947368 76.7352941,655.447368 71.7352941,654.447368 C66.7352941,653.447368 57.9019608,648.614035 45.2352941,639.947368 C28.5686275,628.614035 18.9019608,622.947368 16.2352941,622.947368 C13.5686275,622.947368 10.7352941,619.780702 7.73529412,613.447368 C4.73529412,607.114035 2.23529412,599.947368 0.235294118,591.947368 C-1.09803922,585.280702 3.23529412,576.614035 13.2352941,565.947368 C21.2352941,558.614035 28.5686275,553.780702 35.2352941,551.447368 C41.9019608,549.114035 56.9019608,545.280702 80.2352941,539.947368 C239.568627,510.614035 391.235294,492.947368 535.235294,486.947368 C657.901961,482.280702 723.235294,475.614035 731.235294,466.947368 Z M340.235294,261.947368 C384.235294,254.614035 409.735294,249.614035 416.735294,246.947368 C423.735294,244.280702 436.735294,243.614035 455.735294,244.947368 C474.735294,246.280702 488.735294,246.947368 497.735294,246.947368 C506.735294,246.947368 517.901961,252.947368 531.235294,264.947368 C543.901961,276.947368 550.901961,287.447368 552.235294,296.447368 C553.568627,305.447368 549.235294,315.280702 539.235294,325.947368 C531.901961,334.614035 526.235294,341.280702 522.235294,345.947368 C513.568627,355.947368 496.901961,354.947368 472.235294,342.947368 C459.568627,336.947368 441.235294,334.614035 417.235294,335.947368 C390.568627,338.614035 363.068627,342.947368 334.735294,348.947368 C306.401961,354.947368 289.901961,359.614035 285.235294,362.947368 C281.235294,366.947368 277.401961,368.614035 273.735294,367.947368 C270.068627,367.280702 261.235294,362.947368 247.235294,354.947368 C234.568627,348.947368 226.068627,343.780702 221.735294,339.447368 C217.401961,335.114035 213.568627,328.614035 210.235294,319.947368 C204.235294,305.947368 204.235294,296.280702 210.235294,290.947368 C218.235294,285.614035 261.568627,275.947368 340.235294,261.947368 Z M410.235294,14.9473684 C436.901961,12.2807018 453.735294,8.78070175 460.735294,4.44736842 C467.735294,0.114035088 474.235294,-1.05263158 480.235294,0.947368421 C486.235294,2.94736842 500.735294,5.78070175 523.735294,9.44736842 C546.735294,13.1140351 561.568627,17.2807018 568.235294,21.9473684 C578.235294,28.6140351 582.901961,41.7807018 582.235294,61.4473684 C581.568627,81.1140351 575.568627,95.6140351 564.235294,104.947368 C557.568627,110.947368 551.235294,114.280702 545.235294,114.947368 C539.235294,115.614035 529.235294,113.947368 515.235294,109.947368 C493.235294,102.614035 462.901961,100.780702 424.235294,104.447368 C385.568627,108.114035 350.901961,115.280702 320.235294,125.947368 C292.235294,136.614035 274.568627,141.947368 267.235294,141.947368 C263.235294,141.947368 254.735294,136.947368 241.735294,126.947368 C228.735294,116.947368 221.235294,111.947368 219.235294,111.947368 C210.568627,111.947368 205.235294,102.280702 203.235294,82.9473684 L202.235294,65.9473684 L257.235294,47.9473684 C310.568627,32.6140351 361.568627,21.6140351 410.235294,14.9473684 Z"></path>
        </g>
    </g>
</svg>