<?xml version="1.0" encoding="UTF-8"?>
<svg width="520px" height="230px" viewBox="0 0 520 230" version="1.1" xmlns="http://www.w3.org/2000/svg" xmlns:xlink="http://www.w3.org/1999/xlink">
    <title>4_si_m</title>
    <g id="4_si_m" stroke="none" stroke-width="1" fill="none" fill-rule="evenodd">
        <path d="M200.368321,-1.99935827 C201.963395,-1.99212034 203.245093,-1.93130316 204.403007,-1.76386995 L204.781,-1.704 L205.43084,-1.66567866 L206.977113,-1.59263494 L211.104469,-1.43588628 L235.157463,-0.657057839 L241.577037,-0.435712739 L247.575872,-0.214189316 L252.492166,-0.0180901174 L257.732488,0.210826742 L261.804393,0.408251269 L264.305911,0.540990521 L266.638411,0.674959051 L271.65147,0.978003887 L277.488942,1.30306408 L289.115833,1.90246043 L307.250351,2.81669361 L314.413423,3.20264963 L319.522447,3.49968449 L323.083845,3.72483371 L325.839272,3.9149399 L327.611605,4.04779308 L329.533227,4.20498174 L331.241564,4.36075772 L332.51031,4.49027539 L333.645157,4.62019466 L334.264482,4.69860043 L335.307503,4.83972919 L336.927234,5.07259926 L338.043897,5.24196607 L339.190068,5.42263066 L340.964715,5.71481408 L342.184781,5.92372953 L343.434457,6.14394788 L345.364552,6.49547156 L346.688377,6.74395357 L348.729831,7.13787961 L350.838232,7.55725364 L352.281073,7.85097655 L354.501268,8.31277489 L356.018729,8.63478525 L359.143377,9.31276005 L361.565487,9.85095674 L364.055097,10.4146294 L366.612305,11.003783 L370.127238,11.8289667 L372.842555,12.4775951 L375.625797,13.1517208 L378.384,13.828 L388.611029,16.1899938 L396.384897,18.0149832 L401.643439,19.2715692 L405.843124,20.2939589 L409.920546,21.3102972 L413.381589,22.2016851 L415.439516,22.7518636 L416.726328,23.1078686 L418.27244,23.5547784 L418.844108,23.7279967 C424.168928,25.368557 430.08519,27.7423573 436.623737,30.845876 L437.664122,31.3446969 C452.721489,38.8832785 461.619988,48.9034097 462.918266,61.5188984 L462.961399,61.9705552 L463,62.408603 L463,62.8483482 C463,63.096129 463,63.3494139 462.995373,63.6082241 L462.981497,64.401251 L462.958381,65.227555 L462.926035,66.0872619 L462.884466,66.9804976 L462.833683,67.9073882 L462.773697,68.8680594 L462.704514,69.8626373 L462.626145,70.8912477 L462.491384,72.4982499 L462.390086,73.6124927 L462.279632,74.7612088 L462.160031,75.9445241 L461.963497,77.7846462 L461.821066,79.0550105 L461.590329,81.0262964 L461.33911,83.0768472 L461.067438,85.207088 L460.885166,86.5937652 L460.623344,88.5168004 L460.448415,89.7546426 L460.273054,90.957444 L460.097152,92.1254656 L459.832048,93.812856 L459.654319,94.8950687 L459.475669,95.9434142 L459.29599,96.9581533 L459.115172,97.9395469 L458.933107,98.8878556 L458.749686,99.8033403 L458.564801,100.686262 L458.378343,101.536881 L458.190204,102.355458 L458.000274,103.142255 L457.808445,103.897531 L457.614609,104.621548 L457.418656,105.314567 L457.220478,105.976848 C457.187257,106.084681 457.153939,106.191245 457.120521,106.296543 L456.918802,106.913207 C456.884977,107.01347 456.851048,107.112479 456.817013,107.21024 L456.611508,107.781873 L456.390877,108.360847 L456.254417,108.656898 C455.388599,110.535305 454.901262,112.830701 454.846924,115.613259 L454.841823,116.140715 C454.841823,116.296959 454.840058,116.456662 454.836525,116.619848 L454.820626,117.119876 L454.794116,117.640941 L454.756985,118.183182 L454.709224,118.746738 L454.650824,119.331749 L454.581774,119.938354 L454.502066,120.566694 L454.41169,121.216908 L454.310636,121.889135 C454.292903,122.003016 454.274725,122.117819 454.256102,122.233548 L454.139014,122.939058 L454.011224,123.666931 L453.799454,124.800977 L453.563552,125.986125 L453.303487,127.222846 L453.019225,128.511613 L452.81626,129.399938 L452.491601,130.776494 L452.142661,132.206353 L451.769407,133.689986 L451.507048,134.709181 L451.0932,136.283484 L450.503444,138.46824 L449.870236,140.751946 L449.193499,143.13572 L448.473158,145.620679 L447.709137,148.20794 L446.90136,150.898621 L445.852272,154.337023 L444.15122,159.819293 L443.090152,163.174339 L442.248014,165.792023 L441.442312,168.251369 L440.52116,170.998402 L439.933383,172.70875 L439.365644,174.324337 L439.089016,175.097143 L438.549694,176.573877 L438.028224,177.960234 L437.64831,178.941746 L437.277577,179.874147 L436.915654,180.758177 L436.679086,181.321023 L436.331028,182.126077 L435.879063,183.127435 L435.658025,183.597729 L435.440137,184.048059 L435.225291,184.478644 L435.013376,184.889703 L434.804284,185.281455 L434.597905,185.65412 L434.39413,186.007916 L434.192849,186.343063 C434.159504,186.397379 434.126258,186.450927 434.09311,186.503712 L433.895365,186.811296 L433.699842,187.100779 L433.50643,187.37238 L433.382,187.538 L433.36424,187.692857 C432.974947,190.693641 431.552111,193.658415 428.955376,197.43413 L428.420336,198.200337 L427.853742,198.989674 C427.756666,199.123242 427.658265,199.257836 427.558534,199.393488 L426.944142,200.220344 L426.297573,201.074096 L425.618577,201.956249 L424.932297,202.835954 C420.447148,208.55183 415.839987,213.418144 411.0922,217.426076 L410.497246,217.922536 L409.206975,219.014588 L407.602371,220.385605 L406.131074,221.658322 L405.115747,222.54763 L403.880391,223.645442 L402.781375,224.641664 L402.04725,225.321442 L401.390902,225.942897 L400.869,226.449 L400.573649,226.790081 C397.437144,230.350291 393.843004,233.617947 389.803605,236.593002 L388.989792,237.184112 L388.213024,237.733322 C382.555232,241.681817 377.768659,243.882016 372.993017,244.001202 L372.583683,244.006314 C371.626385,244.006314 370.835089,244.233005 370.004388,244.765262 L369.776702,244.918059 C363.73587,249.1522 356.548359,248.864322 349.614209,245.161246 L348.709995,244.671761 C346.80754,243.626954 345.270266,242.681401 344.035765,241.77491 C343.019805,241.028893 342.145801,240.270428 341.359151,239.377719 C340.493648,238.395526 339.767756,237.330642 339.26364,236.107689 L339.119141,235.735986 L339.078,235.616 L338.901437,235.417936 L338.564756,235.051593 L338.184119,234.651017 L337.760044,234.217023 L337.293052,233.750426 L336.513231,232.99118 L335.941218,232.446637 L335.338474,231.88209 L334.75941,231.348814 L333.951135,230.621847 L333.453677,230.186453 L332.990275,229.790955 L332.561736,229.435779 L332.168868,229.12135 L331.986063,228.979548 L331.873,228.894 L331.77931,228.872801 C329.855792,228.391797 328.175914,227.441524 326.614678,226.172283 L326.281897,225.895476 L326.007158,225.657581 C324.566253,224.387918 323.19147,222.793971 321.75934,220.822203 C319.065168,217.112845 317.21829,213.487542 316.319702,209.831041 L316.203055,209.332223 L316.159227,209.124318 C315.975648,208.205218 315.900724,207.30103 315.923826,206.41704 L292.950252,206.662191 L277.1996,206.693843 L258.021179,206.769839 L230.028847,206.945809 L214.20948,207.105849 L206.378396,207.227228 L203.313511,207.301711 L202.280947,207.340997 L201.758809,207.373997 L201.705261,207.379427 C198.520236,207.733783 196.055241,208.444134 194.265593,209.420287 L193.988623,209.576612 L193.756666,209.712098 L193.51777,209.834936 C180.680074,216.435934 168.437316,215.799354 158.971972,207.206311 L158.52,206.787 L158.373312,206.659104 C155.870667,204.442577 153.878647,201.945822 152.394589,199.213438 C150.835018,210.35649 146.626747,218.39558 139.101862,222.821562 L138.716379,223.043496 L138.544,223.138 L138.490399,223.174115 C134.294473,225.934028 131.065302,227.457219 127.54638,227.648045 L127.168187,227.663388 L126.787433,227.668508 C120.706849,227.668508 116.052747,224.173343 111.7554,218.364296 C109.95642,215.932481 108.133186,212.942493 106.258897,209.372108 L105.632207,208.160453 C105.108328,207.132776 104.58028,206.060125 104.047488,204.942023 L103.405824,203.578455 L102.759387,202.171071 L102.216,200.963 L101.950173,200.438664 C97.1794134,190.932972 94.4300261,181.458176 93.7736218,172.053135 L93.7224859,171.24716 L93.6825811,170.463301 L93.6084086,168.901382 L93.5300667,167.437899 L93.4194066,165.641137 L93.3615262,164.809541 L93.3020099,164.022793 L93.2097736,162.927297 L93.1463786,162.25374 L93.0815166,161.625886 L93.0152359,161.04398 L92.9205893,160.31119 L92.8601043,159.901002 L92.808,159.584 L92.7316907,159.429402 L92.5454716,159.034257 L92.3618348,158.620065 L92.1807134,158.186631 L92.0020402,157.733759 L91.8257481,157.261255 L91.65177,156.768922 C91.6229628,156.685204 91.5942492,156.600651 91.5656278,156.51526 L91.3949949,155.99282 L91.2265084,155.450065 L90.9776561,154.597414 L90.8142417,154.003016 L90.6527389,153.38762 L90.4139218,152.424726 L90.256904,151.75598 L90.1015629,151.065552 L89.9478313,150.353248 L89.7956422,149.618873 L89.6449284,148.86223 L89.4214773,147.685089 L89.2009683,146.456751 L88.9831751,145.176556 L88.7678711,143.843846 L88.55483,142.457963 L88.3438252,141.018248 L88.1346304,139.524042 L87.8581281,137.445867 L87.7207649,136.369525 L87.4474789,134.141359 L87.1756662,131.811247 L86.9047899,129.377629 L86.7019245,127.483551 L86.2959624,123.51546 L85.956349,120.02232 L85.757,117.905 L85.6277825,116.7059 C83.9677297,101.57667 81.4732708,88.3386028 78.1659748,77.00615 L77.8805022,76.039464 L77.643,75.254 L77.5373538,74.9473661 C74.9614808,67.3899453 74.1433607,61.7273853 75.9084911,56.7957369 L76.0328536,56.4606071 L76.1652801,56.1276605 C77.0053703,54.0847593 77.9940923,52.3436862 79.3193881,50.8397096 C79.7499882,50.3510545 80.2110564,49.8942502 80.7014359,49.4751569 C80.4140671,48.0118405 80.2698784,46.501188 80.2698784,44.9545608 C80.2698784,35.6412829 86.3991884,28.2661258 96.916312,22.336935 C99.3168571,20.9835906 102.003462,19.6720958 104.97842,18.3990912 L106.183788,17.8919343 C108.014924,17.1342541 109.949977,16.3902693 111.989442,15.6592541 L113.364559,15.1738241 C113.596325,15.0932367 113.829382,15.0128074 114.06373,14.9325352 L115.485314,14.4527799 L116.937916,13.9767481 L118.42157,13.5043918 C119.42103,13.1907023 120.441213,12.8794313 121.482162,12.5705152 L123.059165,12.1088993 L124.667349,11.6507679 C124.93798,11.5747003 125.209912,11.498776 125.483144,11.4229939 L127.138162,10.9699997 C127.416603,10.8947825 127.696346,10.8197054 127.977393,10.7447676 L129.679318,10.2968031 L131.412555,9.85213209 L133.177136,9.41070673 C133.473847,9.33740366 133.771865,9.26423383 134.071191,9.19119625 L140.345174,7.61133236 L146.367486,6.07223504 L151.462816,4.74317848 L154.937872,3.81331107 L157.784793,3.02633808 L159.332088,2.58158378 L160.20718,2.32076847 C160.431349,2.25274894 160.66072,2.18556749 160.895324,2.11921169 L161.614864,1.92260878 L162.365989,1.73088509 L163.148886,1.54396596 L163.963745,1.36177673 L164.810752,1.18424274 L165.690098,1.01128932 L166.601969,0.842841829 L167.546555,0.678825594 L168.524043,0.519165958 C168.689711,0.492914921 168.856757,0.466842298 169.025185,0.440946534 L170.052381,0.287681811 L171.112951,0.138587037 L172.207082,-0.00641244614 L173.334964,-0.147391299 L174.496785,-0.284424181 L175.692733,-0.417585753 L177.551055,-0.610232721 L178.833144,-0.734042653 L180.821562,-0.913012129 L182.888884,-1.08411108 L184.956695,-1.24206335 L188.025056,-1.4605934 L190.831197,-1.64216464 L192.390465,-1.7333356 L193.857343,-1.81115767 L195.670763,-1.89412719 L197.323056,-1.95329738 L198.45761,-1.98203334 L199.503288,-1.99935827 L200.368321,-1.99935827 Z M176.789004,41.0884172 L176.7237,41.0944936 C172.539285,41.4249419 168.966583,41.9077152 166.016916,42.5383591 L165.361618,42.6830037 L160.464475,43.648636 L155.968468,44.5566855 L151.732545,45.4344932 L149.053604,46.0027112 L147.120749,46.419877 L144.045141,47.0978754 L141.716238,47.6245981 L139.504636,48.1372657 L137.410644,48.6357663 L135.434574,49.1199884 L133.576735,49.5898202 L132.261131,49.9326832 L131.012339,50.2673416 L130.216992,50.4858659 L129.079842,50.8067455 L128.009852,51.1192948 L126.687896,51.5229878 L125.775122,51.8159168 C125.677455,51.8479938 125.581041,51.8799136 125.485878,51.911676 C120.185722,53.6807175 116.283792,55.9323094 113.64926,58.5725171 L114.028086,58.871077 C119.534252,63.2884173 123.588586,68.6415185 126.046549,74.8348601 L126.272302,75.4179446 L126.488674,76.0059348 L126.621015,76.3811998 L126.881003,77.1553077 C127.137881,77.945168 127.385468,78.7823521 127.624108,79.6674643 L127.859778,80.5685747 C127.976135,81.0271403 128.090284,81.4977383 128.202268,81.980444 L128.423363,82.9620216 C128.459735,83.128316 128.49587,83.2959612 128.53177,83.4649602 L128.744348,84.4952208 L128.951346,85.5581045 L129.152839,86.6537455 C129.185966,86.8390896 129.218868,87.0258041 129.251545,87.2138919 L129.444924,88.3589206 C129.476709,88.5525127 129.508273,88.7474837 129.539616,88.9438364 L129.725054,90.1385547 L129.905294,91.3665672 L130.080412,92.6280082 C130.109176,92.8410415 130.137729,93.0554733 130.166074,93.2713063 L130.333653,94.5831416 L130.496302,95.928741 L130.654097,97.3082385 L130.807115,98.7217685 L130.955433,100.169465 L131.099127,101.651463 L131.238274,103.167896 C131.26109,103.423511 131.283721,103.680568 131.306166,103.939067 C132.552425,117.416357 134.923091,131.034376 138.421602,144.796594 L138.791676,146.238212 L139.158262,147.637864 L139.521301,148.995453 L139.880738,150.310876 L140.236515,151.584034 L140.588577,152.814826 L140.936867,154.003153 L141.281329,155.148914 L141.621905,156.252008 L141.958539,157.312336 L142.291175,158.329796 C142.346278,158.495795 142.401212,158.660004 142.455976,158.82242 L142.782509,159.775393 L143.104903,160.685248 L143.398352,161.485492 L143.661477,162.179125 L143.917827,162.832975 L144.166505,163.446345 L144.406612,164.018539 L144.748738,164.798099 L144.963489,165.264303 L145.166527,165.686891 L145.356953,166.065168 L145.53387,166.398435 L145.696378,166.685997 C145.722213,166.730077 145.747409,166.772223 145.771949,166.812421 L145.901,167.015 L146.123982,167.241228 C148.247456,169.437729 149.850791,172.037203 150.981817,175.001774 C151.909419,173.071095 153.317622,171.493571 155.07028,170.094448 L155.425364,169.816951 L155.729247,169.58827 C157.515285,168.26642 159.721163,167.056587 162.431103,165.845947 L162.865166,165.653956 L163.764274,165.267661 C164.070874,165.138374 164.38438,165.00856 164.704818,164.878203 L165.686954,164.485487 C166.021281,164.354028 166.362566,164.22201 166.710834,164.089418 L167.776613,163.689904 L168.884446,163.286848 C169.072598,163.219372 169.262508,163.151745 169.45418,163.083964 L170.625381,162.67542 C170.824114,162.607018 171.024614,162.538458 171.226886,162.469738 L172.461802,162.055495 C172.671173,161.986131 172.882322,161.916603 173.095252,161.84691 L174.394229,161.426754 L175.736107,161.002539 C175.963337,160.931493 176.19236,160.860274 176.423181,160.78888 L177.829698,160.358399 L179.2795,159.923622 L180.772742,159.484456 L182.553678,158.97198 L183.059992,158.835192 L183.590441,158.699537 L184.145004,158.564993 L184.723664,158.431537 L185.63679,158.233344 L186.275605,158.102511 L186.93845,157.972688 L187.977729,157.7798 L189.447359,157.525944 L190.61244,157.337952 L191.83133,157.151932 L193.103964,156.967809 L194.430277,156.78551 L195.810206,156.604958 L197.733401,156.36681 L199.751646,156.131457 L201.864787,155.898722 L203.511827,155.725781 L206.965532,155.383714 L210.005893,155.102187 L211.900787,154.934655 L215.176533,154.6575 L219.301083,154.327896 L223.636406,154.000974 L228.959993,153.622156 L233.750228,153.298988 L238.930923,152.967514 L251.242858,152.24382 L288.78958,150.139416 L289.088641,150.117424 L291.582385,149.99486 L294.767065,149.85974 L298.957135,149.705801 L305.022739,149.513938 L312.139614,149.319202 L314.881949,149.325379 L317.258903,149.344614 L318.985494,149.369996 L320.56098,149.404747 L321.989447,149.449318 L322.966774,149.489462 L323.865424,149.535572 L324.687122,149.587839 L325.433591,149.646452 L326.106555,149.711601 L326.515213,149.758759 L326.892479,149.808963 C331.76208,150.505535 335.656839,153.350433 338.395802,157.560215 L338.552,157.806 C341.627684,162.595357 343.442328,168.221851 344.076389,174.57575 L344.137773,175.23564 L344.190754,175.900693 C344.36638,178.304066 344.36449,180.618677 344.177832,182.839392 C344.766309,182.514674 345.339457,182.192617 345.897229,181.873324 L346.992255,181.23845 L348.046187,180.611122 C352.179612,178.117147 355.32468,175.808607 357.456042,173.737213 C359.29136,171.953533 361.272786,169.397741 363.36418,166.078072 L363.912232,165.194748 C364.187482,164.744428 364.464549,164.281124 364.743353,163.804854 L365.303254,162.835032 L365.867646,161.830668 C366.245372,161.149585 366.625996,160.445495 367.009328,159.718442 L367.586335,158.610646 L368.167261,157.468437 C368.264401,157.275203 368.361698,157.080536 368.45915,156.884438 L369.045688,155.690671 C376.057134,141.407252 380.775166,128.673654 383.228022,117.541733 L383.352,116.967 L383.564654,115.706429 C384.939879,107.658646 386.509728,100.157365 388.276982,93.2000287 L388.610657,91.9019019 L388.912,90.752 L389.06381,90.1256943 C389.1753,89.6570639 389.283232,89.1941726 389.387617,88.7370495 L389.690145,87.3830137 C390.030709,85.8235616 390.327973,84.3351253 390.582442,82.9189496 L390.79009,81.7228103 C390.822955,81.5264129 390.85495,81.3314974 390.886076,81.1380675 L391.062415,79.9953443 C391.504909,76.9957763 391.725707,74.3783789 391.730838,72.1580179 L391.730838,71.7463566 L391.722664,71.3440227 C391.679142,69.4483069 391.465873,68.016555 391.155819,67.0774093 L391.070336,66.8379372 L391.012,66.699 L390.783371,66.571806 L390.474839,66.4091355 L390.071543,66.2077594 L389.578392,65.9739644 L389.034788,65.7281449 C388.940013,65.6861956 388.843159,65.6437623 388.744236,65.6008535 L388.125972,65.3377625 L387.458613,65.0636674 L386.742705,64.7789764 L385.578999,64.3329652 L384.738361,64.0214284 L383.398395,63.539907 L382.452522,63.2094698 L380.955065,62.6997738 L379.90444,62.350671 L378.250214,61.8131522 L377.095317,61.4456181 L375.285045,60.8806285 L374.026358,60.4948977 L372.726289,60.101954 L371.384916,59.7018347 L369.295579,59.088284 L367.113741,58.4587995 L364.110414,57.6049269 C363.612914,57.4643799 363.116941,57.3247155 362.622495,57.1859336 L359.674154,56.3638325 L356.762486,55.5629119 L353.887503,54.7831712 L351.049217,54.0246099 L348.247642,53.2872273 C347.783773,53.1660951 347.321434,53.0458454 346.860625,52.926478 L344.114139,52.2208627 C343.659453,52.105025 343.206298,51.9900697 342.754674,51.8759967 L340.063306,51.2021476 L337.408698,50.5494751 L334.790864,49.9179789 L332.209815,49.3076584 C331.782707,49.2077029 331.357132,49.1086297 330.93309,49.0104389 L328.407244,48.4318809 C327.153524,48.1478955 325.913611,47.8718505 324.687511,47.6037457 L323.701751,47.3908246 L322.871908,47.2658856 L321.968882,47.1405466 L320.993347,47.0148443 L319.945974,46.8888152 C319.765463,46.8677852 319.581986,46.8467431 319.395559,46.8256897 C319.830068,51.8826633 319.473941,57.7857865 318.477172,64.5460528 L318.261065,65.9619573 L318.022433,67.3901189 C317.987458,67.6032258 317.953196,67.8141334 317.919646,68.0228339 L317.726893,69.2484901 C317.696191,69.4483314 317.6662,69.6459501 317.63692,69.8413386 L317.469761,70.9868444 L317.319625,72.0784528 C317.29602,72.2558755 317.273122,72.431037 317.250931,72.6039296 L317.126271,73.6139963 L317.018554,74.5692381 L316.927751,75.4692839 L316.894,75.828 L316.965851,75.8303256 C317.226228,75.8367154 317.496267,75.8410338 317.775805,75.8432018 L318.642756,75.8431757 C318.791944,75.8420699 318.943466,75.8404067 319.097302,75.8381764 L320.242,75.811 L320.649111,75.7762425 C329.998822,75.0124211 338.206777,76.0115738 345.212585,78.9358343 L345.777988,79.1771583 L346.492449,79.4971792 L347.744338,80.1289208 L348.793227,80.6692608 L349.805232,81.2017903 L350.780798,81.7271561 C350.940381,81.814156 351.098463,81.9008843 351.255055,81.9873546 L352.176796,82.5031873 C352.327463,82.5886792 352.476658,82.67394 352.62439,82.7589831 L353.493305,83.2667378 C357.750856,85.7935303 360.708603,88.1486888 362.616572,90.6959915 C365.027178,93.9143585 366.279738,98.294483 366.896429,104.501437 L366.988593,105.496761 L367.070645,106.523029 C367.096362,106.870341 367.120469,107.222907 367.143043,107.580824 L367.206243,108.670727 L367.260701,109.79332 L367.306874,110.949185 L367.317,111.285 L367.346073,111.6452 L367.390109,112.238867 L367.468132,113.406034 C367.480002,113.598332 367.4913,113.789521 367.502016,113.979605 L367.559271,115.106904 L367.602163,116.207982 C367.904529,125.45653 366.605461,131.894601 362.561385,136.315268 L362.320323,136.572986 L362.076986,136.821974 C358.259621,140.644358 352.544509,142.496834 344.21564,143.258822 L343.138127,143.350241 L342.031884,143.430219 C341.658312,143.455017 341.279897,143.477975 340.896583,143.499162 L339.73189,143.557477 L338.537476,143.605571 L337.313009,143.64385 L335.415272,143.676191 L333.573598,143.703086 L330.915322,143.733213 L328.380916,143.75107 L326.759454,143.756154 L324.936043,143.755116 L322.406973,143.740172 L320.614016,143.71836 L318.909158,143.687295 L317.821122,143.66137 L316.771632,143.631221 L314.787314,143.558078 L313.398445,143.491806 L312.519394,143.442107 L311.270502,143.35917 L310.484008,143.298223 C310.355982,143.287685 310.229481,143.276956 310.104499,143.266036 L309.372808,143.198207 L308.677348,143.125736 L308.017876,143.048579 C307.804022,143.022073 307.596126,142.994779 307.394147,142.96669 C300.856546,142.057496 295.302764,139.715987 290.985814,135.80504 C286.901012,132.104408 283.590589,126.038257 280.370509,117.227249 L280.02,116.258 L279.973368,116.146668 C278.77347,113.266418 277.666529,109.835573 276.63862,105.833642 L276.332604,104.61591 C276.281992,104.410092 276.231574,104.202842 276.181348,103.994156 L275.882288,102.724796 C275.783362,102.29592 275.685191,101.861283 275.587761,101.420863 L275.297684,100.082234 L275.011973,98.7087876 L274.730544,97.3003995 C274.683991,97.0627496 274.637613,96.8236386 274.591409,96.5830641 L274.316247,95.1220336 L274.045158,93.6257543 L273.778059,92.0941035 C273.73387,91.8358739 273.689844,91.5761654 273.645979,91.3149754 L273.384709,89.7300366 L273.087986,87.8624577 L272.764947,85.7698008 L272.457893,83.7181846 L272.166833,81.7075489 L271.891775,79.7378333 L271.632728,77.8089775 L271.3897,75.9209211 L271.162699,74.0736038 L270.951736,72.2669652 L270.756817,70.500945 L270.577952,68.7754829 C270.549479,68.4912823 270.521676,68.2087692 270.494542,67.9279422 L270.339774,66.2632041 C270.315318,65.9891166 270.291533,65.7167128 270.268417,65.4459914 L270.137764,63.8418414 C270.117329,63.5778445 270.097565,63.3155274 270.078471,63.054889 L269.971953,61.5111914 C269.93913,61.0033332 269.908991,60.5021794 269.881537,60.0077199 L269.811802,58.6372865 L269.76217,57.3981903 C269.567403,51.7034102 269.898497,47.2286801 271.1746,43.6667589 L259.14436,43.1309823 L224.534822,41.6709531 C226.793578,46.0188086 227.934881,51.1099375 228.079976,56.8558895 L228.092004,57.4970189 L228.095873,58.1272973 C228.095873,65.4285051 226.702305,71.5675621 223.590865,76.4660947 L223.31186,76.8950968 L223.04095,77.3019967 L222.731644,77.6805337 C221.854212,78.7543608 221.491634,79.7628455 221.491634,81.0780246 C221.491634,86.0477109 219.6721,91.705327 216.184711,98.5470552 L215.620232,99.6372407 L215.028166,100.747541 L214.472,101.762 L214.266821,102.150748 C213.277227,104.002781 212.115651,105.95922 210.781123,108.024064 L210.03604,109.161118 C208.257466,111.83944 206.198453,114.694537 203.857007,117.73465 L202.836232,119.048907 C202.663219,119.269846 202.488763,119.491735 202.312864,119.714577 L201.240148,121.063087 L200.132761,122.434612 L199.566055,123.129051 L198.578044,124.328428 L197.737853,125.336144 L196.92046,126.304545 C196.786113,126.462679 196.652706,126.619183 196.520233,126.774061 L195.353052,128.124163 L194.602531,128.975761 C194.479266,129.114476 194.356909,129.251585 194.235455,129.387091 L193.517515,130.180932 C193.399649,130.310044 193.282674,130.437562 193.166587,130.56349 L192.480657,131.3 C192.368094,131.419582 192.256408,131.53758 192.145592,131.654001 L191.491102,132.33361 L190.857256,132.975524 C190.753321,133.079379 190.650236,133.181671 190.547995,133.282404 L189.944639,133.868131 C186.965068,136.716006 184.602871,138.526811 181.776084,139.288407 L181.420237,139.378141 L181.134,139.441 L180.885188,139.614939 L180.313212,140.029799 L179.857675,140.372075 L179.370594,140.747245 L178.581402,141.371327 L177.722721,142.068526 L176.795441,142.838308 L176.139586,143.391556 L175.453904,143.976667 L174.370032,144.913731 L172.730624,146.347123 L171.874023,147.086698 L171.040144,147.796697 L170.227995,148.477289 L169.436587,149.128642 C169.306359,149.234774 169.176954,149.339694 169.048351,149.443407 L168.286196,150.051216 C168.035243,150.249006 167.787334,150.441994 167.542303,150.630206 L166.815683,151.180544 C166.576245,151.359234 166.33952,151.533177 166.105344,151.7024 L165.410295,152.19594 C161.283889,155.072571 157.929646,156.429248 154.384395,156.429248 C151.680765,156.429248 149.270574,155.946576 146.889924,154.357389 C143.370916,152.0083 141.713836,148.141578 142.048218,144.263722 L142.082,143.925 L142.086938,143.857587 C142.138335,143.118771 142.251829,142.420434 142.446993,141.704317 L142.561663,141.311594 C142.623165,141.114 142.691007,140.914297 142.765585,140.711301 L142.923842,140.300569 C143.007578,140.092658 143.098316,139.880667 143.196452,139.663414 L143.402706,139.221542 L143.629394,138.763537 C143.668918,138.685742 143.709322,138.607187 143.750622,138.527828 L144.009285,138.041685 C144.054226,137.958937 144.100092,137.875299 144.146898,137.790725 L144.439125,137.271716 L144.75461,136.728169 L145.272991,135.862247 L145.847673,134.929298 L146.705613,133.568848 L147.927863,131.665877 L148.704042,130.422294 L149.472528,129.169205 L150.184066,127.984135 L150.838336,126.868154 L151.435019,125.822336 L151.800659,125.164631 L152.140469,124.538904 L152.454354,123.94547 L152.74222,123.384648 L153.125028,122.605257 L153.347435,122.127354 L153.543492,121.683173 C154.879283,118.56223 156.332935,115.837127 157.93979,113.498478 L158.031,113.367 L158.208283,113.067318 L158.53861,112.485832 C158.760295,112.087289 158.984901,111.666988 159.212343,111.225036 L159.55562,110.545882 L159.903086,109.834329 L160.254676,109.090456 L160.610326,108.31434 L160.969972,107.506059 L161.33355,106.665694 L161.700995,105.793321 C161.762555,105.645263 161.824273,105.495874 161.886148,105.345157 L162.259274,104.42492 L162.636107,103.472873 L163.016583,102.489093 L163.400638,101.473659 L163.788208,100.42665 L164.179227,99.3481428 L164.772086,97.6714964 L165.171451,96.5145893 L165.574042,95.3264594 L165.979794,94.1071851 L166.59421,92.2200496 L167.215378,90.2632804 L167.633135,88.9202129 L168.265076,86.8479758 L168.892361,84.7433999 L169.478928,82.7292317 L169.852428,81.4200706 L170.386395,79.5070631 L170.888868,77.6553057 L171.206376,76.4550337 L171.656464,74.7062829 L171.939093,73.5750665 L172.207797,72.4716878 L172.462588,71.3962697 L172.703482,70.3489353 L172.930492,69.3298078 L173.143634,68.3390101 C173.178002,68.1762448 173.211794,68.014665 173.245008,67.8542734 L173.437372,66.9062012 L173.615904,65.9867666 L173.780616,65.0960925 L173.931523,64.2343021 L174.068641,63.4015184 C174.090345,63.2651452 174.111475,63.1299857 174.132032,62.9960425 L174.248491,62.2069996 L174.351195,61.4472711 L174.440158,60.71698 L174.515396,60.0162494 L174.576922,59.3452024 C174.586034,59.2358417 174.594576,59.1277229 174.602547,59.0208487 L174.643533,58.3945577 L174.670842,57.798258 C174.677668,57.6045037 174.682216,57.4157683 174.68449,57.2320726 L174.686195,56.9603112 C174.686195,51.1408259 175.371418,45.8465166 176.789004,41.0884172 Z" id="四" fill="#000000" fill-rule="nonzero"></path>
    </g>
</svg>