<?xml version="1.0" encoding="UTF-8"?>
<svg width="520px" height="230px" viewBox="0 0 520 230" version="1.1" xmlns="http://www.w3.org/2000/svg" xmlns:xlink="http://www.w3.org/1999/xlink">
    <title>5_wu_m</title>
    <g id="5_wu_m" stroke="none" stroke-width="1" fill="none" fill-rule="evenodd">
        <path d="M299.805422,-11 L301.065582,-10.997157 L302.131879,-10.9885025 L303.644984,-10.9642125 L304.597431,-10.9402059 L305.943848,-10.8920057 L306.787893,-10.8514709 L307.590103,-10.8039954 L308.351348,-10.7493911 L309.072501,-10.6874698 L309.754431,-10.6180433 C309.864866,-10.6058363 309.973704,-10.5933088 310.080961,-10.5804568 L310.705694,-10.4994196 L311.293384,-10.4104067 C311.388294,-10.3948961 311.481696,-10.3790454 311.57361,-10.3628506 C314.570732,-9.83477012 317.646294,-8.59903245 320.961287,-6.72340275 L321.715669,-6.2886103 L321.909724,-6.16324061 C327.760992,-2.38302023 331.451036,1.65171011 332.210031,7.22883036 L332.256279,7.60293753 L332.288453,7.89205208 L332.332008,8.75007537 L332.377346,9.86738404 C332.698663,19.2642742 331.371286,26.1107669 327.226819,30.8322537 L326.979768,31.1075404 L326.795,31.304 L326.546584,31.5839822 C324.108955,34.2610215 321.03281,36.0505513 317.464963,36.5471698 L317.06652,36.5970084 L316.664074,36.6360822 L316.420896,36.654504 L315.91235,36.6823256 L315.372914,36.6982274 L314.801025,36.7023412 C314.702918,36.7020518 314.603394,36.7012767 314.502421,36.7000187 L313.878917,36.6866972 L313.219048,36.6619167 C313.105953,36.656839 312.991277,36.6512894 312.874988,36.6452705 L312.15764,36.6035484 L311.400016,36.5506964 C311.270302,36.5409675 311.138845,36.5307804 311.005611,36.5201378 L309.757684,36.4121294 L308.869848,36.3266776 L307.450356,36.17866 L306.582217,36.0829604 L306.215517,36.0143111 C305.296414,35.8422476 304.339957,35.6897795 303.346295,35.556991 L302.340236,35.4307654 C302.000753,35.3908789 301.657141,35.3531822 301.309406,35.3176783 L300.253837,35.2177483 C299.363898,35.1399606 298.448223,35.0758978 297.506899,35.0256086 L296.365004,34.971876 C294.248977,34.8854983 292.008972,34.8658791 289.645895,34.9135372 L288.344745,34.9462078 C288.125854,34.9527659 287.905948,34.9598809 287.685026,34.967553 L286.347321,35.020275 C286.122342,35.0301774 285.896349,35.0406378 285.669343,35.0516565 L284.295158,35.1244721 C284.064102,35.1377258 283.832036,35.1515386 283.598958,35.1659109 L282.188365,35.2588621 L280.753542,35.3652606 C280.512388,35.3841153 280.270225,35.4035311 280.027055,35.4235083 L278.555948,35.5501126 C278.30875,35.5723373 278.060546,35.5951242 277.811336,35.6184738 L276.304019,35.765326 C276.05079,35.7909277 275.796558,35.8170928 275.541321,35.8438217 L273.997867,36.0109639 L272.430364,36.1916562 L270.838843,36.3859173 L269.223337,36.5937659 C268.952089,36.6295407 268.679844,36.6658824 268.4066,36.7027914 L266.75518,36.9310564 L265.079857,37.1729556 L263.380664,37.4285078 L261.657634,37.6977317 L259.9108,37.9806461 L258.140195,38.2772695 C257.843115,38.3278502 257.545045,38.379003 257.245988,38.430728 L255.439787,38.7479503 L253.609897,39.0789284 C253.302943,39.1352388 252.995003,39.1921231 252.686078,39.2495818 L253.669283,39.982639 L254.543417,40.620462 L255.06465,40.9922753 L255.536015,41.3210214 L256.00178,41.6361649 L256.066,41.678 L256.230227,41.7366263 C258.003688,42.3927257 259.488097,43.5167062 260.622519,44.903447 L260.844719,45.1842379 L261.024517,45.4258602 C261.916258,46.6586566 262.430995,47.865288 262.789133,49.1525769 C263.155472,50.4693467 263.332614,51.8337439 263.423205,53.4618411 C263.561458,55.9465237 263.492929,58.4781711 263.221466,61.0530537 C263.039331,62.7806395 262.735919,64.3205826 262.233755,65.7620584 C261.910235,66.6907307 261.512365,67.5749629 261.014146,68.4030018 L260.756553,68.812284 L260.704,68.889 L260.516786,69.4473659 L260.241969,70.2900647 L259.67888,72.0777725 L259.246,73.489 L260.414797,73.3604959 L261.637137,73.2167028 L262.682786,73.0867368 L264.344677,72.867651 L265.51474,72.7055072 L267.362792,72.4381698 L269.322101,72.1418959 L270.689953,71.9283094 L273.573166,71.4625815 L274.495259,71.3112379 L275.240878,71.2015515 L276.707783,70.9929737 L278.14241,70.7988422 L279.544955,70.6192203 C279.77605,70.5904961 280.005816,70.562379 280.234258,70.5348704 L281.589047,70.3771323 C281.812207,70.3520632 282.034051,70.3276053 282.254583,70.30376 L283.562058,70.1680484 C283.777357,70.1466583 283.991352,70.1258834 284.204047,70.105725 L285.46465,69.9921829 C285.672161,69.9744957 285.878381,69.9574276 286.083313,69.94098 L287.297485,69.8497502 C287.497283,69.8357897 287.695801,69.8224522 287.893043,69.8097392 L289.061226,69.7409646 L290.198995,69.6872396 L291.306546,69.6486275 L292.384076,69.6251921 C295.217634,69.5829893 297.733055,69.703347 299.947087,69.9916842 C306.469729,70.8411391 312.185127,73.3611924 316.823412,77.5084328 L317.2421,77.889936 L317.611,78.239 L317.760909,78.3522753 L318.09982,78.596661 L318.490212,78.86406 C318.559525,78.9104931 318.63095,78.9578468 318.704472,79.0061018 L319.170636,79.3062951 L319.686348,79.627201 L320.250835,79.9678992 L320.863324,80.3274694 C320.969363,80.3889194 321.07737,80.4511173 321.187329,80.514044 L321.849621,80.8885979 C324.767779,82.5202226 327.531501,84.3669658 330.136364,86.4263961 L330.913053,87.0506034 L331.088654,87.1974354 C334.097665,89.7725732 336.14832,92.4598676 336.940831,96.0206149 C337.400843,98.087446 337.39068,100.306661 337.051262,103.309779 L336.945448,104.189689 C336.926359,104.340078 336.906555,104.492381 336.886049,104.646665 L336.754727,105.596705 L336.732795,105.742328 C336.676707,106.097 336.61987,106.442293 336.562137,106.778509 L336.386099,107.760222 C336.087728,109.352025 335.763245,110.724402 335.39417,111.914943 C334.922019,113.437981 334.407657,114.753121 333.696562,115.910034 L333.477177,116.25241 L333.334,116.46 L333.295259,116.655852 C333.157171,117.324378 332.973178,118.027033 332.741229,118.777419 L332.530622,119.432614 C332.419399,119.766373 332.299259,120.109613 332.170041,120.463404 L331.899454,121.185373 L331.604372,121.937382 L331.284507,122.721334 L330.939571,123.539134 L330.569279,124.392684 L330.173342,125.283889 L329.751472,126.214651 L329.069416,127.689128 L327.990676,129.985995 L327.433373,131.190533 L326.932715,132.291401 L326.353988,133.595962 L326.102958,134.177503 L325.774669,134.960425 L325.5514,135.515651 L325.418,135.861 L325.400718,136.012496 C324.995765,139.105741 323.496808,141.486398 321.296344,143.453227 L321.028947,143.687279 L320.932,143.768 L320.917569,144.018286 C320.667841,147.666436 319.561178,150.948595 317.375377,153.601225 L317.107887,153.916502 L316.932,154.112 L316.88623,154.424145 C316.43252,157.278159 315.208178,159.918381 313.349604,162.229219 L313.050894,162.591333 L312.848,162.825 L312.786831,163.071568 C312.498142,164.155949 312.062276,165.154398 311.500177,166.084595 L311.283513,166.430253 L311.21,166.539 L314.178369,166.743029 L317.251072,166.938399 L319.717994,167.086228 L322.467156,167.243248 L327.188244,167.498138 L330.636117,167.672114 L334.00428,167.831361 L336.205419,167.929346 L339.44064,168.064056 L342.59604,168.18405 L345.671579,168.289333 L347.677551,168.351351 L350.619896,168.432127 L353.482269,168.498205 L355.346069,168.534095 L357.174296,168.563455 L358.966937,168.586289 L361.589149,168.608304 L364.047,168.615 L367.622159,168.55288 L370.970634,168.509897 L373.985145,168.488638 L376.251773,168.487669 L378.071046,168.499521 L379.715787,168.523961 L381.193288,168.561957 L382.19605,168.599932 L382.816094,168.62999 L383.39843,168.663982 L384.203225,168.722611 L384.695279,168.766967 L385.152816,168.815681 L385.576748,168.868874 C389.395832,169.388847 393.002291,170.801835 396.313484,173.023811 L396.763172,173.331814 L397.07057,173.546657 L397.361012,173.783922 C400.966484,176.729261 404.368493,181.458019 408.069493,188.211385 L408.632344,189.248417 C408.723829,189.418709 408.814151,189.587744 408.90331,189.755545 L409.424303,190.747732 L409.917358,191.711433 C412.632132,197.093829 414,201.158528 414,204.829816 C414,209.920977 411.431243,214.107247 406.553136,219.037521 L405.840582,219.747085 L405.096776,220.46784 L404.618502,220.921172 L403.823829,221.646174 L403.056713,222.330164 C400.166191,224.874489 397.835956,226.531558 395.523868,227.493429 C392.621483,228.700873 389.425282,229.025713 385.790755,228.748681 L385.268539,228.705041 L384.898008,228.671409 L384.530999,228.610336 C383.313362,228.407713 381.982112,228.131435 380.532942,227.781286 L379.549311,227.536907 C379.382445,227.494352 379.214112,227.450885 379.044305,227.406505 L378.007733,227.129268 L376.935513,226.830108 L375.827361,226.50901 C375.639658,226.453665 375.450447,226.397405 375.259721,226.34023 L374.097139,225.986199 L372.897915,225.610195 L371.661767,225.212204 L370.388411,224.792211 L369.077562,224.350202 L367.728938,223.886163 L366.342254,223.400079 C366.107953,223.317227 365.872054,223.233457 365.634551,223.148766 C359.080343,220.811622 352.551044,219.142886 346.040411,218.136634 L344.971,217.977 L323.578129,215.388771 L322.566698,215.243738 L321.654564,215.122545 L320.711111,215.005877 L319.736386,214.893746 L318.730436,214.786165 L317.693307,214.683146 L316.625046,214.584699 L315.525699,214.490838 L314.395312,214.401574 L313.233931,214.316919 L312.041605,214.236885 L310.818377,214.161485 L309.564297,214.090729 L308.279408,214.02463 L306.294413,213.93424 L304.93271,213.879836 L302.83271,213.807045 L300.663916,213.744866 L298.426484,213.693341 L296.896808,213.664929 L294.54533,213.631249 L292.939768,213.614771 L290.474677,213.599048 L288.793519,213.594579 L287.166938,213.594766 L284.859524,213.602237 L282.500222,213.618114 L280.08905,213.642401 L277.626028,213.6751 L275.111176,213.716214 L272.544515,213.765746 L269.926063,213.823698 L266.895759,213.899542 L263.565505,213.993587 L261.131876,214.069885 L257.198166,214.207947 L253.417804,214.359522 L251.2234,214.4569 L247.689423,214.629828 L245.643228,214.73992 L243.652806,214.854728 L240.459667,215.056483 L238.618495,215.183736 L236.833488,215.315604 L234.541027,215.49856 L232.348856,215.689608 L230.257225,215.888681 L228.266387,216.095714 L226.376596,216.310641 L225.025715,216.476979 L223.731921,216.647692 L222.901159,216.763918 L221.702746,216.941864 L220.93567,217.062886 L219.832933,217.247987 L219.12974,217.373755 L218.122976,217.565934 L217.483863,217.696395 L216.662577,217.872527 L208.696709,219.437139 L202.75447,220.583063 L198.498304,221.397761 L196.319193,221.827562 L194.823657,222.135404 L193.893186,222.333567 L193.016244,222.525983 L191.801733,222.803649 L190.709039,223.067917 L189.827738,223.294875 L189.071743,223.503891 L188.639332,223.632315 L188.31954,223.733562 L188.016908,223.837422 L187.939,223.866 L188.053823,223.809457 C184.543189,225.562041 180.07458,226.156928 173.863167,226.156928 C170.72492,226.156928 166.784366,227.19021 162.086772,229.407434 L160.304015,230.256602 L159.486859,230.651878 L158.35477,231.207624 L157.33598,231.718198 L156.431528,232.182957 L155.442469,232.709912 L154.772146,233.085871 L154.599,233.187 L154.3949,233.37962 C152.509804,235.100632 150.143765,236.238492 146.658844,237.464038 L145.723934,237.786176 L144.965838,238.039698 L144.670683,238.118283 C139.277021,239.554354 133.989012,239.261033 129.184935,237.062592 C126.4124,235.793825 123.332587,233.636672 119.729488,230.53101 L118.854587,229.767409 L117.958927,228.9672 L117.041846,228.1302 L116.102681,227.256222 L115.140766,226.345083 C110.042022,221.537099 106.852695,217.367101 105.580374,212.920911 C103.722404,206.428138 106.2904,200.503962 111.535018,196.305544 L111.832,196.072 L112.100365,195.848597 C114.697238,193.718198 118.046204,191.762365 122.17849,189.950802 L123.07598,189.564807 C123.227564,189.500839 123.38015,189.437052 123.533739,189.373445 L124.467327,188.99395 C125.728195,188.490806 127.053463,187.998997 128.443859,187.517817 L129.498878,187.158914 L130.578389,186.80393 L131.68246,186.4528 C131.868522,186.394596 132.05561,186.336549 132.243726,186.278659 L133.384764,185.933184 C133.576996,185.875914 133.770258,185.818798 133.964552,185.761834 L135.142711,185.421866 L136.345703,185.085487 L137.573595,184.752629 L138.826457,184.423227 C139.037352,184.368611 139.24929,184.314137 139.462272,184.259802 L140.752716,183.935459 L142.068299,183.614407 L143.409091,183.296579 L144.775159,182.981909 L146.166572,182.67033 L147.583398,182.361776 L149.025705,182.056181 L150.493562,181.753479 L151.987036,181.453604 L153.506197,181.156488 C153.761535,181.107195 154.017946,181.058015 154.275431,181.008945 L155.833249,180.715846 L157.416924,180.425341 L159.026524,180.137364 L160.662117,179.85185 L162.314571,179.570281 L163.063,179.445 L165.542922,178.987209 L167.35316,178.641268 L168.941255,178.325886 L170.305235,178.041576 L171.077,177.872 L171.41301,177.468337 L172.031369,176.707032 L172.967233,175.524454 L173.482034,174.862263 L174.501246,173.532582 L174.942033,172.950274 L175.723642,171.903059 L176.221105,171.222429 L176.692,170.559 L176.696206,170.547686 C177.044968,169.514908 177.578121,168.533859 178.318384,167.355634 L178.546699,166.996003 L178.948505,166.378174 L179.339007,165.799851 L179.766706,165.186852 L180.232188,164.538083 C180.31295,164.426913 180.39531,164.314207 180.479281,164.199942 L181.002536,163.495467 C181.092999,163.374877 181.185098,163.252681 181.278844,163.128859 L182.167369,161.969913 C184.320545,159.193058 186.039381,156.420799 187.338601,153.653445 L187.870019,152.534812 C188.044874,152.171281 188.217494,151.817042 188.388027,151.471932 L188.893513,150.463827 C189.809299,148.665243 190.666416,147.137867 191.489437,145.854519 L191.713071,145.510545 L191.885,145.251 L191.980391,145.023295 L192.270112,144.282125 L192.545643,143.541105 L192.971272,142.350568 L193.326695,141.325369 L193.848061,139.783912 L194.274139,138.4982 L194.875052,136.653698 L195.519176,134.644005 L196.759129,130.702879 L197.732481,127.557773 L198.595,124.74 L198.315856,124.76784 C192.191277,125.320143 186.324956,123.625673 181.143039,119.562839 L180.745787,119.24564 L180.271745,118.852482 L180.144735,118.738351 C179.898789,118.517344 179.661229,118.302038 179.431706,118.091738 L178.766901,117.475167 C176.308241,115.163911 174.866449,113.423191 173.911829,111.199212 C171.819917,106.325683 173.236665,101.627382 176.428818,98.1837356 L176.73293,97.861206 C176.848401,97.739247 176.967315,97.6181861 177.089766,97.4979425 L177.46783,97.1395831 L177.867694,96.7856431 C178.073171,96.6096972 178.287037,96.4352269 178.509614,96.2619597 L178.966479,95.9169486 C179.98193,95.1725501 181.16498,94.4473309 182.541807,93.7191147 L183.19112,93.3827214 L183.868523,93.045418 L184.574589,92.7067199 C184.694687,92.6501271 184.816003,92.5934559 184.938549,92.5366964 L185.68868,92.194998 L186.468903,91.8506936 L187.27979,91.5032989 L188.121913,91.1523292 L188.995843,90.7973002 L189.902153,90.4377272 L191.32358,89.8887881 L192.313341,89.5157356 L193.337483,89.1364435 L194.939411,88.554746 L198.867506,87.1586094 L201.411291,86.2365486 L202.803531,85.7211843 L204.094735,85.2344679 L204.899198,84.9260044 L206.021073,84.487478 L207.04079,84.0781317 L208.002915,83.6790906 L208.464,83.481 L208.51915,83.134014 L208.586445,82.6397689 L208.674478,81.8780418 L208.923056,79.9646699 C208.964772,79.6492274 209.006634,79.3355081 209.048646,79.0235072 L209.302547,77.1720835 C209.345175,76.8669368 209.38796,76.5634988 209.430907,76.2617648 L209.690562,74.4717687 C209.734172,74.176831 209.777952,73.8835876 209.821905,73.5920336 L210.087744,71.8629446 L210.357943,70.1741711 L210.632696,68.5254817 C210.678878,68.2540277 210.725257,67.9842341 210.771838,67.7160963 L211.053777,66.1270993 L211.340746,64.577608 L211.632935,63.067391 L211.930537,61.5962171 C212.531281,58.6927578 213.165643,56.0221683 213.840503,53.5761192 C213.353101,53.4341406 212.865336,53.2752283 212.377839,53.1013726 C206.589393,51.0785702 200.646488,47.1228015 194.325773,41.3167962 C187.672723,35.2055185 183.695851,30.15557 182.360537,24.9190677 L182.271662,24.5534119 L182.165309,24.0932687 L182.102796,23.6251503 C181.282514,17.4826132 182.443933,12.0710968 186.696325,8.15192237 C189.219292,5.82665546 192.627328,4.34361125 197.497086,3.12886681 L198.458027,2.89695112 L199.456403,2.67081123 C199.62597,2.63355119 199.797135,2.59649328 199.969918,2.55961823 L201.026187,2.34040818 L202.403905,2.07057474 L203.449886,1.93010384 L204.939018,1.72208929 L206.38248,1.51042784 L207.780144,1.29518499 L209.131879,1.07642618 L210.437558,0.854216896 L211.697049,0.6286226 C211.903108,0.590745104 212.107237,0.552729293 212.309434,0.514576532 L213.499401,0.284027473 L214.642858,0.0502570743 C215.016244,-0.0281960075 215.381857,-0.107175068 215.739675,-0.186669195 L216.789721,-0.426685867 C216.960824,-0.466942542 217.129973,-0.507325256 217.297165,-0.547832645 L218.292655,-0.794479605 L225.214607,-1.75719917 L240.296887,-3.77609919 L255.399991,-5.75920388 L259.613789,-6.23899567 L265.554162,-6.93878036 L270.643887,-7.56894053 L273.430563,-7.93192422 L275.534399,-8.21860223 L277.084284,-8.43977825 L278.939746,-8.72162274 L280.234633,-8.93670504 L280.77868,-9.03486353 L281.39592,-9.15583439 L281.888653,-9.26531167 C282.797092,-9.48424861 283.801258,-9.68124683 284.905331,-9.85769865 L285.752183,-9.98620683 L286.636892,-10.1071406 L287.559849,-10.2206306 C287.716885,-10.2389326 287.87553,-10.2569298 288.035794,-10.274625 L289.016858,-10.377194 L290.03715,-10.4726454 L291.097061,-10.5611099 L292.196983,-10.642718 L293.337308,-10.7176002 L294.518428,-10.785887 L295.740734,-10.8477089 L297.004618,-10.9031965 L298.310472,-10.9524804 L299.805422,-11 Z M251.417,113.755 L251.282129,114.307108 C250.109905,119.0345 248.671928,124.108937 246.968684,129.534759 L246.425576,131.248537 L245.753138,133.318588 L245.429717,134.28805 L245.113682,135.215431 L244.804174,136.101953 L244.500335,136.948835 L244.201305,137.7573 L243.906226,138.528567 L243.614239,139.263858 C243.565785,139.383476 243.517423,139.501647 243.469137,139.618394 L243.180177,140.30201 C242.3632,142.191704 241.557595,143.684942 240.675448,144.906691 L240.569,145.051 L240.567332,145.098235 C240.357372,149.13331 238.472594,153.032717 235.068448,157.995722 L234.304778,159.103178 L233.900077,159.703562 L233.531107,160.264302 L233.198215,160.784391 L232.901751,161.262825 L232.642061,161.698596 L232.419493,162.090698 L232.358,162.204 L232.329543,162.408926 C231.8203,165.745936 230.070677,168.661393 227.407949,170.728185 L227.318,170.796 L231.60916,170.565623 L238.698144,170.20929 L239.959408,170.14212 L241.769918,170.038208 L243.482347,169.93059 L245.096229,169.819361 L246.117171,169.743248 L247.565768,169.626208 L248.476087,169.546307 L249.758101,169.423716 L250.556931,169.340202 L251.310924,169.255291 L252.19,169.147 L252.232246,168.913604 C252.288783,168.592143 252.344539,168.250097 252.399086,167.888075 L252.453214,167.519418 C253.260107,161.879957 255.006815,156.446764 257.670888,151.259908 C259.540985,147.618896 261.040403,144.328604 262.169898,141.403822 L262.36,140.902 L262.91446,139.278907 L263.399608,137.828336 L264.078834,135.757187 L264.612466,134.101182 L265.356173,131.756536 L265.938042,129.89572 L266.953573,126.59978 L267.80705,123.788212 L268.471035,121.577736 L269.388098,118.494921 L270.449213,114.883153 L270.878,113.402 L270.648583,113.399493 C267.372381,113.356452 264.262947,113.357577 261.321261,113.402533 L259.384999,113.438993 L257.498503,113.488419 C256.567708,113.516369 255.6556,113.549174 254.762215,113.586819 L253.00042,113.668561 L251.417,113.755 Z" id="五" fill="#000000" fill-rule="nonzero"></path>
    </g>
</svg>