<?xml version="1.0" encoding="UTF-8"?>
<svg width="400px" height="305px" viewBox="0 0 400 305" version="1.1" xmlns="http://www.w3.org/2000/svg" xmlns:xlink="http://www.w3.org/1999/xlink">
    <title>5_wu_s</title>
    <g id="5_wu_s" stroke="none" stroke-width="1" fill="none" fill-rule="evenodd">
        <path d="M247.597652,0 L249.069773,0.00346847392 L250.315423,0.0140269568 L252.083036,0.04366068 L253.195687,0.0729486493 L254.768574,0.131752813 L255.75459,0.181205217 L256.691733,0.239125181 L257.581021,0.305742295 L258.423473,0.381286153 L259.220106,0.465986345 C259.349116,0.480878826 259.47626,0.496162388 259.601558,0.511841814 L260.331372,0.610706992 L261.017913,0.719302485 C261.128787,0.738225348 261.2379,0.757563207 261.345274,0.777320846 C264.846518,1.42157783 268.439396,2.92917499 272.311978,5.217439 L273.193248,5.7478848 L273.419944,5.90083554 C280.255407,10.5126959 284.566125,15.4350578 285.452784,22.2391319 L285.506812,22.6955418 L285.544398,23.0482609 L285.595279,24.0950474 L285.648243,25.4581614 C286.023606,36.9223462 284.472961,45.2750519 279.631386,51.0352551 L279.342781,51.3711043 L279.126934,51.6107845 L278.836733,51.9523622 C275.989091,55.2183441 272.395531,57.4015664 268.227566,58.0074398 L267.762103,58.0682428 L267.291965,58.1159127 L267.007884,58.1383873 L266.413799,58.1723296 L265.783629,58.1917298 L265.115547,58.1967486 C265.000938,58.1963955 264.884675,58.1954499 264.766717,58.1939151 L264.038338,58.1776629 L263.267478,58.1474308 C263.13536,58.141236 263.001396,58.1344655 262.865547,58.1271224 L262.027539,58.0762216 L261.142481,58.0117422 C260.990949,57.9998731 260.83738,57.9874448 260.681737,57.9744609 L259.223905,57.8426908 L258.186733,57.7384399 L256.52848,57.5578586 L255.514318,57.4411054 L255.085938,57.3573535 C254.01224,57.1474364 252.894906,56.9614256 251.734107,56.7994239 L250.558827,56.645429 C250.162242,56.5967676 249.760833,56.5507776 249.354609,56.5074629 L248.121491,56.3855486 C247.081862,56.2906478 246.012169,56.2124914 244.912513,56.1511386 L243.578548,56.0855849 C241.106602,55.9802044 238.489822,55.956269 235.729271,56.0144117 L234.209265,56.0542697 C233.953556,56.0622707 233.696661,56.0709509 233.43858,56.0803109 L231.87587,56.1446316 C231.613049,56.1567125 231.349043,56.1694742 231.083855,56.182917 L229.478528,56.2717518 C229.208609,56.2879213 228.937508,56.3047729 228.665226,56.3223071 L227.017369,56.4357074 L225.341206,56.5655132 C225.059488,56.5885159 224.776593,56.6122031 224.492521,56.6365754 L222.773971,56.7910323 C222.485194,56.8181463 222.195241,56.8459464 221.904114,56.8744328 L220.143263,57.0535921 C219.847441,57.0848261 219.550446,57.1167475 219.252278,57.1493567 L217.449212,57.3532698 L215.618051,57.5737141 L213.758832,57.8107122 L211.871596,58.064287 C211.554723,58.1079322 211.236685,58.1522689 210.917482,58.1972978 L208.988289,58.4757806 L207.031173,58.7708971 L205.046172,59.0826702 L203.033325,59.4111228 L200.99267,59.7562776 L198.924245,60.1181576 C198.577195,60.1798659 198.22899,60.2422721 197.879631,60.3053766 L195.769623,60.692387 L193.631941,61.0961796 C193.273357,61.1648782 192.913621,61.2342769 192.552735,61.3043764 L193.701317,62.1987045 L194.722482,62.9768471 L195.331387,63.4304585 L195.882037,63.831528 L196.426145,64.2160023 L196.501166,64.2670411 L196.693017,64.3385651 C198.764778,65.1390048 200.498867,66.5102585 201.824102,68.2020792 L202.083676,68.5446434 L202.293716,68.839422 C203.33545,70.3434309 203.936767,71.8155185 204.355144,73.386008 C204.783103,74.9924642 204.990041,76.6570258 205.095869,78.6433007 C205.257377,81.6746078 205.17732,84.7632119 204.860197,87.9045629 C204.647427,90.0122137 204.29298,91.8909407 203.70635,93.649538 C203.328414,94.7825161 202.863622,95.8612774 202.281601,96.8714829 L201.980681,97.3708063 L201.919288,97.4643997 L201.700585,98.1456047 L201.379542,99.1736955 L200.72174,101.354695 L200.216049,103.076389 L201.58144,102.919615 L203.009381,102.744187 L204.23091,102.585629 L206.172334,102.318345 L207.539204,102.12053 L209.698103,101.794379 L211.986972,101.432925 L213.584899,101.17235 L216.953074,100.604163 L218.030266,100.419524 L218.901299,100.285707 L220.614941,100.031243 L222.290876,99.7944028 L223.929331,99.5752646 C224.199297,99.540221 224.46771,99.5059182 224.734577,99.4723579 L226.317244,99.2799177 C226.57794,99.2493335 226.837099,99.2194949 227.094724,99.1904036 L228.622119,99.0248358 C228.873632,98.99874 229.123622,98.9733947 229.372092,98.9488014 L230.844731,98.8102803 C231.087147,98.788702 231.328053,98.7678789 231.567455,98.7478129 L232.985853,98.6365127 C233.219257,98.6194809 233.451167,98.6032092 233.681586,98.5876994 L235.04626,98.5037945 L236.375404,98.4382501 L237.669247,98.3911435 L238.92802,98.3625523 C242.238188,98.311065 245.176708,98.4579011 247.763145,98.8096719 C255.382909,99.846005 262.05965,102.920464 267.478104,107.980088 L267.967216,108.445521 L268.398166,108.871379 L268.57329,109.009574 L268.969207,109.307724 L269.425264,109.63395 C269.506235,109.690599 269.589674,109.74837 269.675562,109.807241 L270.220136,110.173476 L270.822591,110.564981 L271.482027,110.980632 L272.197538,111.419307 C272.321413,111.494275 272.447587,111.570157 272.57604,111.646927 L273.349732,112.103882 C276.758731,114.09446 279.987316,116.347483 283.030323,118.859983 L283.937653,119.621515 L284.142789,119.80065 C287.657923,122.942312 290.053502,126.220805 290.979315,130.564909 C291.516702,133.086438 291.50483,135.793875 291.108321,139.457673 L290.984709,140.531161 C290.96241,140.714635 290.939274,140.900444 290.915319,141.088671 L290.761908,142.247716 L290.736288,142.425377 C290.670766,142.858076 290.604369,143.279333 290.536924,143.689515 L290.331277,144.887203 C289.982718,146.829199 289.603657,148.503496 289.172503,149.955953 C288.620934,151.814056 288.020056,153.418524 287.189354,154.829954 L286.933068,155.247653 L286.765808,155.500912 L286.720551,155.739851 C286.559235,156.555451 286.344295,157.412689 286.073331,158.328159 L285.8273,159.127495 C285.697369,159.53468 285.557021,159.953432 285.406069,160.385057 L285.089968,161.265856 L284.745252,162.183305 L284.371585,163.139726 L283.968631,164.13744 L283.536055,165.178769 L283.07352,166.266037 L282.580691,167.401565 L281.783912,169.200424 L280.523726,172.002596 L279.872683,173.472129 L279.287814,174.815186 L278.611743,176.406747 L278.318489,177.116226 L277.934981,178.071389 L277.674158,178.748764 L277.51832,179.170088 L277.49813,179.354913 C277.025064,183.128666 275.273979,186.033061 272.703393,188.432588 L272.391018,188.718131 L272.277765,188.816611 L272.260906,189.121959 C271.969174,193.572694 270.676368,197.576921 268.122911,200.813123 L267.810428,201.19776 L267.604957,201.436267 L267.551488,201.817083 C267.021463,205.298974 265.591184,208.52004 263.419994,211.339256 L263.07104,211.781035 L262.834019,212.066108 L262.762561,212.36692 C262.425315,213.689862 261.916135,214.907968 261.259489,216.042806 L261.006382,216.464509 L260.920504,216.597179 L264.388159,216.846094 L267.977697,217.084446 L270.85956,217.264796 L274.071138,217.45636 L279.586322,217.767325 L283.614135,217.979576 L287.548831,218.173857 L290.120205,218.293398 L293.899597,218.457744 L297.585743,218.604136 L301.178594,218.732581 L303.521974,218.808244 L306.959228,218.90679 L310.303059,218.987405 L312.480354,219.03119 L314.616092,219.06701 L316.710259,219.094867 L319.773533,219.121725 L322.6448,219.129895 L326.821308,219.054108 L330.733003,219.001669 L334.254561,218.975733 L336.902441,218.97455 L339.02772,218.98901 L340.94911,219.018827 L342.67513,219.065182 L343.846558,219.111512 L344.570895,219.148183 L345.251181,219.189653 L346.191344,219.26118 L346.766163,219.315294 L347.300659,219.374725 L347.795896,219.43962 C352.257359,220.073987 356.470432,221.797828 360.338574,224.508634 L360.863901,224.884397 L361.223004,225.146505 L361.562299,225.435968 C365.774219,229.029275 369.748453,234.798349 374.071969,243.03744 L374.729493,244.302616 C374.836366,244.510373 374.94188,244.716595 375.046035,244.921312 L375.654661,246.131778 L376.230649,247.307491 C379.402054,253.874002 381,258.832926 381,263.311888 C381,269.523093 377.999172,274.630333 372.300558,280.645256 L371.468151,281.510923 L370.599235,282.390242 L370.040515,282.943307 L369.112175,283.827807 L368.216029,284.662273 C364.839315,287.766344 362.117129,289.787965 359.416143,290.961445 C356.025572,292.434524 352.291763,292.830828 348.0459,292.49285 L347.435847,292.439609 L347.002991,292.398578 L346.574251,292.324069 C345.151805,292.076869 343.596636,291.739811 341.903712,291.31263 L340.754632,291.014488 C340.559699,290.962572 340.363052,290.909542 340.164683,290.855398 L338.953757,290.51717 L337.701187,290.152195 L336.406642,289.760456 C336.187368,289.692935 335.966331,289.624298 335.743524,289.554545 L334.385393,289.122628 L332.984458,288.663904 L331.540387,288.178355 L330.052849,287.665965 L328.521513,287.126715 L326.946047,286.560588 L325.32612,285.967568 C325.052409,285.866489 324.776831,285.764288 324.49938,285.660966 C316.842741,282.809655 309.215199,280.773801 301.609463,279.546177 L300.360176,279.351423 L275.368979,276.19379 L274.187423,276.016849 L273.121866,275.868994 L272.019722,275.72666 L270.881047,275.589861 L269.705894,275.458612 L268.494318,275.332928 L267.246372,275.212824 L265.962112,275.098313 L264.641592,274.989411 L263.284865,274.886133 L261.891986,274.788492 L260.46301,274.696503 L258.99799,274.610181 L257.49698,274.529541 L255.178105,274.419265 L253.58736,274.352893 L251.134136,274.264087 L248.600546,274.188229 L245.986774,274.125369 L244.199803,274.090706 L241.452801,274.049616 L239.57718,274.029513 L236.697455,274.010331 L234.733523,274.004879 L232.833348,274.005108 L230.137823,274.014222 L227.38168,274.033592 L224.564944,274.063222 L221.687637,274.103115 L218.749782,274.153274 L215.751402,274.213702 L212.692521,274.284404 L209.152514,274.376933 L205.262104,274.491668 L202.419134,274.584751 L197.823765,274.753187 L193.407539,274.938108 L190.844031,275.056909 L186.715631,275.267881 L184.325262,275.402192 L182.000047,275.542259 L178.269815,275.788399 L176.118954,275.943647 L174.033705,276.104526 L171.355648,276.327732 L168.794748,276.56081 L166.3513,276.803678 L164.0256,277.056258 L161.817941,277.318469 L160.23984,277.5214 L158.728427,277.72967 L157.757929,277.871466 L156.35794,278.08856 L155.46184,278.236207 L154.173621,278.462029 L153.352149,278.615465 L152.176046,278.849924 L151.429433,279.009086 L150.470004,279.223966 L141.16426,281.132789 L134.222524,282.530814 L129.250462,283.524744 L126.704819,284.0491 L124.957731,284.424666 L123.870754,284.666426 L122.846308,284.901172 L121.427514,285.239924 L120.151026,285.56233 L119.121488,285.839219 L118.238333,286.094217 L117.73319,286.250894 L117.359608,286.374416 L117.006073,286.501125 L116.915061,286.53599 L117.049197,286.467007 C112.948067,288.605156 107.727829,289.330917 100.471643,289.330917 C96.8055358,289.330917 92.2021728,290.591518 86.7144332,293.296526 L84.6318121,294.33251 L83.677209,294.814746 L82.3547008,295.492755 L81.164548,296.115653 L80.1079651,296.682659 L78.9525447,297.325543 L78.1694709,297.784212 L77.9672019,297.907589 L77.7287721,298.142585 C75.5265988,300.242215 72.7625873,301.630403 68.691495,303.125566 L67.5993306,303.518573 L66.7137221,303.827869 L66.3689206,303.923743 C60.068033,305.675747 53.8905699,305.317896 48.2784368,302.635803 C45.0395554,301.08791 41.4417124,298.456188 37.2325642,294.667287 L36.2105024,293.735695 L35.1641912,292.759443 L34.0928555,291.738304 L32.9957201,290.672053 L31.8720098,289.560466 C25.915646,283.694736 22.1898675,278.607348 20.7035396,273.183006 C18.5330547,265.261837 21.5329933,258.034356 27.659767,252.912296 L28.0067018,252.627373 L28.3202066,252.354821 C31.3538789,249.755739 35.2661481,247.369628 40.093493,245.159524 L41.1419436,244.688611 C41.3190242,244.61057 41.4972753,244.532751 41.6766986,244.45515 L42.7673175,243.992168 C44.2402663,243.378333 45.7884469,242.778327 47.4127102,242.191289 L48.6451864,241.753427 L49.9062734,241.320348 L51.1960509,240.89197 C51.4134091,240.820961 51.6319661,240.750144 51.8517235,240.679519 L53.1846863,240.25804 C53.4092521,240.188171 53.6350216,240.118489 53.8619965,240.048993 L55.2383241,239.634233 L56.6436613,239.223851 L58.0780878,238.817766 L59.5416834,238.415896 C59.7880512,238.349265 60.0356377,238.282806 60.2844445,238.216517 L61.7919433,237.82082 L63.3288107,237.429138 L64.8951262,237.041388 L66.4909699,236.657491 L68.1164213,236.277365 L69.7715602,235.90093 L71.4564665,235.528105 L73.1712199,235.15881 L74.9159002,234.792962 L76.690587,234.430482 C76.9888731,234.370345 77.2884129,234.310344 77.5892079,234.250479 L79.4090542,233.892899 L81.2591065,233.538484 L83.1394447,233.187153 L85.0501484,232.838826 L86.9805484,232.495312 L87.8548646,232.34247 L90.7519144,231.783966 L92.866639,231.361919 L94.7218544,230.977154 L96.3152594,230.630295 L97.2168364,230.423414 L97.6093639,229.930946 L98.3317324,229.002155 L99.4250103,227.559413 L100.026402,226.751541 L101.217047,225.129334 L101.731976,224.418919 L102.645053,223.141319 L103.22619,222.310951 L103.776291,221.50157 L103.781205,221.487767 C104.188629,220.227781 104.81146,219.030902 105.676237,217.593471 L105.942955,217.154721 L106.412345,216.400971 L106.86853,215.69542 L107.368169,214.947562 L107.911947,214.156065 C108.006293,214.020438 108.102506,213.882937 108.200601,213.743534 L108.811868,212.884076 C108.917548,212.736956 109.025138,212.587878 109.134652,212.436815 L110.172629,211.022904 C112.687973,207.635147 114.695922,204.252997 116.213673,200.876831 L116.834476,199.512101 C117.038743,199.068594 117.240398,198.636424 117.439615,198.215391 L118.030125,196.985504 C119.099948,194.791236 120.101234,192.927841 121.062689,191.362159 L121.323938,190.942511 L121.524786,190.625867 L121.636222,190.348068 L121.974674,189.443842 L122.29655,188.539799 L122.793771,187.087347 L123.208977,185.836607 L123.818038,183.956033 L124.315784,182.387467 L125.017771,180.137178 L125.770238,177.685357 L127.218754,172.877192 L128.355825,169.04017 L129.363422,165.602494 L129.037325,165.636459 C121.88258,166.310267 115.029531,164.243017 108.976004,159.286368 L108.511933,158.899386 L107.958157,158.419735 L107.809784,158.280495 C107.522469,158.010868 107.244951,157.748194 106.976822,157.491629 L106.200196,156.739413 C103.327983,153.919687 101.643678,151.796012 100.528489,149.082763 C98.0847134,143.137069 99.7397614,137.405152 103.468841,133.203911 L103.824106,132.810426 C103.958999,132.661636 104.097915,132.513942 104.240963,132.367245 L104.682618,131.930047 L105.149739,131.498241 C105.389778,131.283588 105.639617,131.070734 105.899632,130.859349 L106.433342,130.438436 C107.619594,129.530271 109.001636,128.645506 110.610048,127.757084 L111.368577,127.346684 L112.159921,126.935175 L112.984748,126.521964 C113.125047,126.452921 113.266768,126.383782 113.409927,126.314536 L114.286232,125.897665 L115.19769,125.477614 L116.14497,125.053793 L117.128739,124.625611 L118.149667,124.192476 L119.20842,123.753798 L120.868934,123.084094 L122.025175,122.628971 L123.221579,122.166235 L125.092955,121.456565 L129.681765,119.753282 L132.65342,118.62837 L134.279838,117.999626 L135.788224,117.405834 L136.728,117.029509 L138.038576,116.494508 L139.229812,115.995106 L140.353768,115.508277 L140.892409,115.266607 L140.956835,114.843285 L141.03545,114.240307 L141.13829,113.311001 L141.428679,110.976692 C141.477412,110.591853 141.526315,110.209116 141.575394,109.828476 L141.872002,107.569743 C141.921799,107.197465 141.971781,106.827271 142.021951,106.459156 L142.325281,104.275365 C142.376226,103.915542 142.42737,103.557785 142.478717,103.20209 L142.78927,101.092605 L143.104918,99.0323055 L143.425884,97.0209082 C143.479834,96.6897348 143.534014,96.3605873 143.588431,96.0334598 L143.917792,94.094887 L144.25303,92.2045111 L144.594366,90.3620499 L144.942025,88.5672209 C145.643815,85.0250072 146.384878,81.766894 147.173252,78.7827197 C146.603867,78.609506 146.034059,78.4156335 145.464564,78.2035299 C138.702489,75.7357155 131.759975,70.9096866 124.376102,63.8263733 C116.603995,56.3706283 111.958205,50.2097025 110.398289,43.8211815 L110.294464,43.3750823 L110.170223,42.8137086 L110.097195,42.2426053 C109.13894,34.7487238 110.495711,28.146686 115.463365,23.3653021 C118.4107,20.5284817 122.391976,18.7191711 128.080837,17.2371856 L129.203411,16.954249 L130.369715,16.6783588 C130.567803,16.6329017 130.767759,16.5876911 130.969605,16.5427036 L132.20354,16.2752679 L133.812994,15.9460717 L135.034911,15.7746975 L136.774517,15.5209202 L138.460773,15.2626937 L140.093527,15.0000979 L141.672627,14.7332127 L143.197923,14.4621179 L144.669264,14.1868933 C144.909982,14.1406829 145.148446,14.0943037 145.384653,14.0477574 L146.774776,13.766488 L148.110564,13.4812887 C148.546755,13.3855761 148.973864,13.2892218 149.391868,13.1922392 L150.618534,12.8994194 C150.818417,12.8503063 151.016017,12.8010395 151.211331,12.7516206 L152.374264,12.4507118 L160.460504,11.2761962 L178.079655,8.81314269 L195.723133,6.39375944 L200.6457,5.80841454 L207.585258,4.95467879 L213.531085,4.18588481 L216.786485,3.74304553 L219.244191,3.393299 L221.05477,3.12346476 L223.222326,2.77961511 L224.735015,2.51721519 L225.370572,2.39746205 L226.091632,2.24987788 L226.667244,2.11631585 C227.728484,1.84921327 228.901554,1.60887589 230.191334,1.39360506 L231.180629,1.23682538 L232.214147,1.0892864 L233.292348,0.950828876 C233.475797,0.928500564 233.661127,0.90654401 233.848347,0.884955897 L234.994428,0.759821972 L236.186335,0.643371384 L237.424526,0.535444885 L238.709458,0.435883225 L240.041588,0.344527157 L241.421374,0.261217432 L242.849275,0.185794801 L244.325747,0.118100017 L245.851248,0.0579738291 L247.597652,0 Z M191.215083,152.471727 L191.057176,153.144701 C189.684738,158.907002 188.001156,165.092322 186.007,171.705952 L185.371128,173.794905 L184.583839,176.318126 L184.205178,177.499821 L183.835164,178.630222 L183.472793,179.710819 L183.117059,180.743098 L182.766955,181.72855 L182.421477,182.668661 L182.079619,183.56492 C182.022888,183.710725 181.966267,183.854765 181.909733,183.99707 L181.571419,184.830342 C180.614904,187.133724 179.671703,188.953856 178.638886,190.443068 L178.514256,190.618969 L178.512303,190.676545 C178.266483,195.594968 176.059786,200.348023 172.074216,206.397517 L171.180112,207.747415 L170.706288,208.479233 L170.274298,209.162729 L169.88455,209.796675 L169.537449,210.379846 L169.233405,210.911015 L168.972822,211.388956 L168.900826,211.527061 L168.867509,211.776848 C168.271288,215.844389 166.222831,219.39809 163.105312,221.917339 L163,222 L168.024085,221.71919 L176.32386,221.284849 L177.800547,221.202975 L179.920289,221.076314 L181.9252,220.945137 L183.814731,220.809558 L185.010048,220.716782 L186.706064,220.57412 L187.771865,220.476728 L189.272845,220.327299 L190.208115,220.225502 L191.090889,220.122003 L192.12011,219.990005 L192.169571,219.705514 C192.235765,219.31368 192.301044,218.896754 192.364908,218.455479 L192.428281,218.006116 C193.372991,211.13208 195.418034,204.509465 198.537128,198.187115 C200.726635,193.749023 202.482152,189.738428 203.804563,186.17336 L204.027135,185.56168 L204.676297,183.583264 L205.244307,181.815138 L206.039544,179.290578 L206.66432,177.272045 L207.535051,174.414115 L208.216303,172.145933 L209.405285,168.128454 L210.404536,164.701384 L211.181928,162.006997 L212.255624,158.249299 L213.497976,153.846853 L214,152.041449 L213.731399,152.038393 C209.895625,151.985929 206.255103,151.9873 202.81098,152.042098 L200.544007,152.086541 L198.3353,152.146787 C197.245526,152.180856 196.177631,152.220841 195.131657,152.266728 L193.068949,152.366365 L191.215083,152.471727 Z" id="五" fill="#000000" fill-rule="nonzero"></path>
    </g>
</svg>