<?xml version="1.0" encoding="UTF-8"?>
<svg width="400px" height="305px" viewBox="0 0 400 305" version="1.1" xmlns="http://www.w3.org/2000/svg" xmlns:xlink="http://www.w3.org/1999/xlink">
    <title>7_qi_s</title>
    <g id="7_qi_s" stroke="none" stroke-width="1" fill="none" fill-rule="evenodd">
        <path d="M265.766143,206.898067 L250.776002,205.027074 L245.856192,204.372966 L243.128477,203.997678 L239.658284,203.504297 L236.374334,203.017684 L234.030745,202.656354 L231.061331,202.17834 L228.94821,201.821912 L226.930533,201.466636 L225.006302,201.111945 L223.774411,200.875529 L222.582572,200.63895 L221.315075,200.377705 L220.106726,200.117945 L218.9584,199.859889 C218.772063,199.817033 218.588264,199.774258 218.407021,199.731567 L217.350374,199.476474 L216.355943,199.223628 C216.195438,199.181686 216.037561,199.139847 215.882332,199.098116 L214.982865,198.849049 L214.147804,198.602774 C214.014043,198.561973 213.883002,198.521297 213.7547,198.480752 L213.433658,198.377682 C213.224986,198.309597 213.027093,198.242818 212.840395,198.17763 L212.314302,197.987132 L211.857871,197.80791 C211.787743,197.779075 211.720622,197.750781 211.656559,197.723065 L211.406549,197.610562 L211.195385,197.414651 C206.163244,192.683187 202.10067,184.201006 199.344969,171.630174 L199.206041,170.983816 L199.083302,170.343082 C197.6669,162.75262 196.937215,153.306848 196.937215,142.056645 L196.936838,133.820316 L218.020819,130.60923 L220.340568,130.269608 L221.839903,130.056732 L224.017863,129.757717 L226.110211,129.483048 L228.116547,129.232713 L229.40612,129.079334 L230.657167,128.93676 L231.86957,128.804987 L233.043207,128.68401 L234.73072,128.522781 L235.806925,128.428779 L237.34773,128.307993 L238.325757,128.240941 L239.264305,128.184662 L240.597841,128.120434 L241.437168,128.091069 L241.841877,128.080422 C247.75484,127.942811 253.515334,127.355896 259.119895,126.317154 L260.476192,126.057099 L260.720363,126.019452 L261.034449,125.980815 L261.868949,125.900701 L263.182556,125.80275 L265.392835,125.670361 L269.577196,125.468016 L273.554677,125.30493 L277.669663,125.153742 L287.32607,124.84251 L324.952647,123.822489 L328.976679,123.832137 L332.750567,123.861202 L335.199132,123.893408 L338.68271,123.96416 L340.940245,124.032281 L342.274116,124.084653 L343.183893,124.127504 L344.526213,124.205586 L345.442269,124.27392 L346.216885,124.347349 C346.275513,124.353677 346.332656,124.360057 346.388311,124.366488 C348.570858,124.618707 350.756285,125.346824 352.993729,126.596544 L353.279948,126.756411 L353.574051,126.897214 C365.013215,132.373777 375.82698,132.257986 384.898795,125.746558 L385.432493,125.354925 L385.533937,125.275598 C389.641601,122.06354 392.952898,117.26479 395.75675,111.000444 C398.533971,104.7956 399.998898,98.6347904 399.998898,92.5508601 C399.998898,87.1742469 398.619029,81.727801 396.052136,76.1840327 C393.657679,71.0126787 390.75355,66.6561937 387.301659,63.1857095 L386.713818,62.5947015 L386.055965,62.1047781 C381.896574,59.0071519 375.848718,57.1906093 367.364942,56.2186879 L366.136345,56.0855406 L364.87425,55.963602 L363.578305,55.8525893 L362.248154,55.7522196 L360.883442,55.6622104 C360.65309,55.6480565 360.421284,55.6343225 360.188015,55.6210025 L358.770798,55.5460036 L357.318133,55.480658 L355.829666,55.4246831 L354.300471,55.3781854 L352.790332,55.3460754 C346.588591,55.2451187 341.515212,55.555962 337.458338,56.3297041 L336.998444,56.4199664 C332.45076,57.3383029 328.755757,58.8659312 325.969452,61.6438868 L325.632909,61.9893444 L325.115691,62.151328 L324.471018,62.3415381 L323.75059,62.5439983 L322.679053,62.830055 L321.503902,63.1279723 L320.225586,63.4375957 L318.844549,63.7587704 L317.361239,64.0913418 L315.225173,64.5522312 L312.909141,65.0327398 L310.414202,65.5325009 L307.720307,66.0544913 L306.157986,66.337396 L304.776162,66.5617447 L303.354057,66.7680129 L301.014007,67.0707132 L296.720907,67.5686239 L290.105959,68.2844523 L265.691135,70.838895 L260.200565,71.4335204 L256.566953,71.8412052 L253.164124,72.2366623 L250.602447,72.5453969 L247.017622,72.9978754 L245.337286,73.2201511 L242.69657,73.5860419 L240.723078,73.8756484 L238.423094,74.23524 L236.30079,74.5937761 L235.109241,74.8091172 L233.976878,75.0250839 L233.253965,75.1695953 L232.216261,75.3874423 L231.232963,75.6069203 L230.606772,75.7543313 L225.313171,77.0328416 L221.135579,78.0274592 L217.185098,78.9541846 L212.744594,79.9766135 L208.631775,80.9012238 L205.454994,81.5969886 L202.506218,82.2247864 L200.84648,82.5688338 L199.268941,82.8884033 L196.969535,83.3385632 L197.096425,81.5691607 L197.167908,80.4609028 L197.270397,78.7156437 L197.398305,76.2332521 L197.487755,74.2543534 L197.598495,71.4588453 L197.675232,69.2439114 L197.76924,66.1320926 L197.853882,62.8380906 L197.911303,60.2474039 L197.979897,56.6320716 L198.025446,53.7991893 L198.464724,23.8655257 L188.788363,13.0561005 L188.05655,12.3323128 L187.081363,11.3873271 C179.328455,3.97094717 172.724802,0.00585248277 166.059317,0.00585248277 C162.738281,0.00585248277 160.112748,1.43043881 158.005213,3.53693487 C156.895235,4.64636557 156.006555,5.88123886 155.188637,7.29330968 C154.094047,9.18303428 153.068832,11.5193716 151.988263,14.4508993 C151.706419,15.2155262 151.439747,16.0320725 151.187531,16.9021029 L150.940107,17.7900193 C150.778335,18.3939262 150.622882,19.0218357 150.473535,19.6742113 L150.25407,20.6711822 C150.218247,20.8404216 150.182799,21.0112047 150.147722,21.1835386 L149.941699,22.2362104 L149.744439,23.3264507 L149.555783,24.4546072 L149.375572,25.6210277 C149.287551,26.2138619 149.202637,26.8211754 149.120742,27.4431639 L148.960948,28.7067655 L148.809042,30.009848 C148.784373,30.2303378 148.760026,30.4524872 148.735998,30.6763033 L148.595627,32.0392592 C148.572861,32.2697714 148.550407,32.5019648 148.528261,32.7358468 L148.399068,34.1594584 L148.277127,35.6239418 L148.16228,37.1296448 C148.143721,37.3840495 148.125451,37.6401863 148.107467,37.8980622 L148.002962,39.4662464 L147.905154,41.0765194 L147.813883,42.7292288 L147.72899,44.4247225 L147.644512,46.3336598 C147.150668,58.4122741 147.439368,70.275698 148.512613,81.9194299 L148.668863,83.5532753 L148.769786,84.8746757 L148.872342,86.3054903 L148.963909,87.672506 L149.044527,88.9752947 L149.114234,90.2134284 L149.173066,91.3864791 L149.221064,92.4940187 L149.258264,93.5356193 L149.274855,94.1229686 L133.590983,96.8028009 L128.009849,97.7873253 L126.368511,98.084421 C109.856008,101.100628 94.1310246,104.441866 79.2738656,108.293936 C77.2605029,108.815948 75.2782602,109.343747 73.3280533,109.877465 L70.4268843,110.682499 C62.7551162,112.841184 55.6032495,115.095637 49.0299056,117.454316 L40.8802592,120.464128 L34.9293875,122.687456 L29.3295054,124.809055 L26.8518486,125.761245 L23.3279894,127.137085 L21.036453,128.051664 L18.7384314,128.993946 L17.0864694,129.696533 L15.9312097,130.209142 L15.1504325,130.572191 C15.0906473,130.600717 15.0321784,130.628814 14.9750231,130.656481 C8.64473569,133.720815 4.03114274,139.003487 1.77449814,146.061976 C0.687370095,149.502596 0.0734486106,152.382995 0.00606754858,155.168026 L-0.00110162225,155.514461 C-0.0277842142,159.292833 0.98149146,162.981337 3.25760055,165.706229 L3.53905301,166.029577 L3.64660974,166.430356 C4.78687869,170.458155 7.31095194,174.091842 11.0472152,178.109094 L11.7330339,178.835449 L11.6021571,178.69075 C14.9260821,182.403894 18.1287986,184.942936 21.7322665,186.181527 L22.1457309,186.317664 C25.0606065,187.235937 28.4141613,187.429693 32.5562507,187.138748 L32.9500927,187.107998 L34.0050461,187.041621 L35.0124776,186.968459 C35.1765449,186.95562 35.3387238,186.942438 35.4990601,186.928882 L36.4393332,186.842831 C41.3401068,186.357447 44.4479065,185.428353 47.2643205,183.068699 L47.5519695,182.82157 C49.8290793,180.815665 51.5392846,178.107565 53.4801535,174.026351 L53.9706378,172.977053 L54.3149224,172.218411 L54.2519878,172.337355 C54.4877379,171.863315 54.8254632,171.486043 55.4487656,171.082929 L55.6704118,170.946166 L55.9325419,170.796392 L56.4007279,170.547932 L56.9576458,170.271738 L57.6018816,169.968733 L58.5942462,169.524619 L59.7359765,169.036675 L61.0237206,168.507094 L62.0833337,168.083902 L64.0238419,167.331784 L65.7295152,166.690437 L67.095976,166.187735 L68.1944785,165.789889 L71.4700882,164.505438 L73.7840568,163.61562 L75.9280164,162.807581 L76.9359724,162.434301 L78.8232961,161.749361 L80.1258482,161.289687 L81.3311884,160.876431 L82.5050791,160.488304 L83.237341,160.255431 L83.9068287,160.050553 L84.7906026,159.796077 L85.4567838,159.622289 L85.8625116,159.529655 L90.8415026,159.47355 L101.622113,159.290865 L107.18976,159.165083 L111.124234,159.056657 L114.585142,158.940783 L117.081208,158.838431 L118.890423,158.748245 L120.092824,158.676305 L121.145326,158.600802 L121.764729,158.54814 C122.468208,158.483782 123.065821,158.412746 123.623148,158.318305 C124.111335,158.235579 124.57423,158.135983 125.088728,157.984464 L125.382695,157.895796 C126.832074,157.447253 127.985493,156.906102 129.3329,155.617512 L129.396986,155.553821 L129.707585,155.383627 L130.257421,155.099643 L130.790224,154.839352 L131.382407,154.562162 L132.033281,154.268549 L132.742158,153.958988 L133.508348,153.633954 L134.331162,153.293923 L135.209912,152.93937 L136.163057,152.563591 L137.062183,152.218222 L137.906566,151.903366 L138.695486,151.619126 L139.428219,151.365603 L140.104043,151.142901 L140.722237,150.951122 L141.179424,150.81883 L141.574653,150.71337 L141.90487,150.634564 L142.065068,150.600802 L142.192513,150.599781 C145.162731,150.544452 147.895963,149.957591 150.340003,148.614606 L150.446514,148.552497 L150.459913,149.849591 C150.687209,167.009162 152.676244,183.519433 156.433205,199.359295 C160.535185,216.653806 166.274537,230.758903 173.782199,241.630655 C178.547129,248.427846 185.998043,254.359537 195.902637,259.708104 L197.153474,260.373658 L198.429769,261.033261 C199.503929,261.580484 200.604502,262.121635 201.731226,262.657033 L203.095832,263.29677 L204.485442,263.931106 C204.952802,264.141665 205.424312,264.351345 205.899956,264.560165 L207.339273,265.18407 L208.803292,265.802941 C209.049348,265.905674 209.296429,266.008202 209.544533,266.110528 L211.045417,266.722081 C211.297604,266.823609 211.55081,266.924941 211.805033,267.026077 L213.342554,267.630587 L214.904373,268.230555 L216.49039,268.826102 L218.100505,269.417353 L219.734616,270.004429 L221.392622,270.587453 C221.670942,270.684293 221.950254,270.780969 222.230555,270.877484 L223.924215,271.45466 L225.641519,272.02809 L227.382366,272.597898 C227.674463,272.69257 227.967537,272.787097 228.261586,272.881481 C246.231832,278.649561 265.814693,283.201098 285.256704,286.78572 L286.30503,286.975265 C296.754491,288.922881 306.191367,292.435555 314.732258,297.519188 L315.472722,297.96653 L316.356136,298.539393 C324.515154,303.743203 331.648832,306.022504 338.315654,304.581056 C344.943064,303.14813 350.970984,298.268589 357.022391,290.441217 C366.550115,278.081178 370.585229,265.599081 367.769308,253.371361 L367.589222,252.623906 L367.531267,252.417911 C363.941226,239.65748 357.569698,230.709628 348.241955,226.802134 C348.001519,226.703163 347.768874,226.604719 347.543993,226.506991 L346.892607,226.216136 L346.287629,225.930693 C346.190658,225.883632 346.095612,225.836844 346.00249,225.790352 L345.466805,225.515136 C345.38136,225.46992 345.297832,225.425047 345.216216,225.38054 L344.749442,225.118079 C344.675461,225.07513 344.603386,225.032594 344.533213,224.990494 L344.134967,224.743317 C343.446585,224.300445 342.987465,223.91603 342.7529,223.621244 L342.210367,222.939425 L341.583207,222.355593 C337.415433,218.475756 331.917584,215.492681 325.067818,213.163858 C317.598811,210.624502 311.81554,209.841414 306.78675,211.526707 L306.391892,211.659035 L306.345774,211.677867 L306.16926,211.703972 L305.858851,211.73629 L305.619712,211.754866 L305.092028,211.781569 L304.499625,211.793837 C304.395575,211.794645 304.288887,211.794827 304.179588,211.794369 L303.492712,211.783852 L302.744587,211.757391 L301.922241,211.713517 L301.033345,211.651586 L300.094784,211.572328 L299.106795,211.475711 L298.069616,211.361706 L296.983484,211.230282 L295.848637,211.08141 L294.665312,210.91506 L293.433746,210.731201 L292.154177,210.529804 L290.826841,210.310839 L288.476101,209.904015 L287.30084,209.724428 L283.76282,209.22937 L274.492262,208.010661 L265.766143,206.898067 Z" id="Path" fill="#000000" fill-rule="nonzero"></path>
    </g>
</svg>