<?xml version="1.0" encoding="UTF-8"?>
<svg width="1000px" height="1000px" viewBox="0 0 1000 1000" version="1.1" xmlns="http://www.w3.org/2000/svg" xmlns:xlink="http://www.w3.org/1999/xlink">
    <title>7_qi_l</title>
    <g id="7_qi_l" stroke="none" stroke-width="1" fill="none" fill-rule="evenodd">
        <g id="七" transform="translate(70.369565, 181.000000)" fill="#000000" fill-rule="nonzero">
            <path d="M326.130435,17 C330.797101,5.66666667 334.463768,0 337.130435,0 C347.130435,0 361.130435,8 379.130435,24 L396.130435,41 L395.130435,102 C394.463768,142 393.130435,169.333333 391.130435,184 C389.130435,198.666667 389.463768,206.666667 392.130435,208 C395.463768,211.333333 438.463768,204 521.130435,186 C564.463768,176.666667 605.463768,168.666667 644.130435,162 C682.797101,155.333333 703.130435,150.333333 705.130435,147 C709.797101,139 730.297101,135.5 766.630435,136.5 C802.963768,137.5 826.130435,141.333333 836.130435,148 C842.797101,154 848.630435,161.833333 853.630435,171.5 C858.630435,181.166667 861.130435,190 861.130435,198 C861.130435,208 858.297101,218.666667 852.630435,230 C846.963768,241.333333 840.797101,249.333333 834.130435,254 C818.130435,264.666667 798.463768,265 775.130435,255 C765.797101,250.333333 756.297101,247.5 746.630435,246.5 C736.963768,245.5 716.130435,245 684.130435,245 C637.463768,246.333333 606.630435,248.333333 591.630435,251 C576.630435,253.666667 561.130435,255.166667 545.130435,255.5 C529.130435,255.833333 506.130435,258 476.130435,262 L410.130435,271 L392.130435,275 L392.130435,320 C392.130435,350.666667 394.463768,376.666667 399.130435,398 C408.463768,437.333333 423.630435,465.166667 444.630435,481.5 C465.630435,497.833333 500.797101,509.666667 550.130435,517 C583.463768,522.333333 604.463768,523.333333 613.130435,520 C619.797101,518 630.797101,519.333333 646.130435,524 C661.463768,528.666667 673.130435,534.333333 681.130435,541 C686.463768,547 695.463768,552.333333 708.130435,557 C724.130435,563 735.797101,577.666667 743.130435,601 C748.463768,620.333333 740.797101,642 720.130435,666 C707.463768,680.666667 695.963768,689 685.630435,691 C675.297101,693 661.130435,688.666667 643.130435,678 C615.130435,662.666667 584.130435,652.333333 550.130435,647 C481.463768,635.666667 425.463768,602.333333 382.130435,547 C364.130435,523.666667 349.963768,492.5 339.630435,453.5 C329.297101,414.5 324.130435,373.666667 324.130435,331 L324.130435,298 L305.130435,300 C293.130435,302.666667 285.797101,305.166667 283.130435,307.5 C280.463768,309.833333 276.130435,311 270.130435,311 C265.463768,311 256.130435,313.5 242.130435,318.5 C228.130435,323.5 219.797101,327.333333 217.130435,330 C215.130435,332 211.130435,333 205.130435,333 C199.130435,333 180.130435,338.666667 148.130435,350 C127.463768,356.666667 113.963768,361.833333 107.630435,365.5 C101.297101,369.166667 96.4637681,374 93.1304348,380 C88.4637681,389.333333 84.7971014,395 82.1304348,397 C79.4637681,399 71.7971014,400.333333 59.1304348,401 C49.7971014,401.666667 42.9637681,401.333333 38.6304348,400 C34.2971014,398.666667 29.1304348,395 23.1304348,389 C13.1304348,379.666667 8.13043478,372.5 8.13043478,367.5 C8.13043478,362.5 6.29710145,359.5 2.63043478,358.5 C-1.03623188,357.5 -0.869565217,351.333333 3.13043478,340 C6.46376812,330.666667 13.1304348,323.833333 23.1304348,319.5 C33.1304348,315.166667 63.4637681,304.666667 114.130435,288 C224.130435,252.666667 285.797101,233.666667 299.130435,231 C309.130435,229 315.630435,226.5 318.630435,223.5 C321.630435,220.5 321.797101,203.666667 319.130435,173 C315.797101,143 314.963768,112.333333 316.630435,81 C318.297101,49.6666667 321.463768,28.3333333 326.130435,17 Z"></path>
        </g>
    </g>
</svg>