<?xml version="1.0" encoding="UTF-8"?>
<svg width="1000px" height="1000px" viewBox="0 0 1000 1000" version="1.1" xmlns="http://www.w3.org/2000/svg" xmlns:xlink="http://www.w3.org/1999/xlink">
    <title>8_ba_l</title>
    <g id="8_ba_l" stroke="none" stroke-width="1" fill="none" fill-rule="evenodd">
        <g id="八" transform="translate(27.716981, 267.363636)" fill="#000000" fill-rule="nonzero">
            <path d="M232.283019,136.636364 C248.283019,128.636364 264.283019,129.969697 280.283019,140.636364 C290.283019,147.969697 296.783019,154.80303 299.783019,161.136364 C302.783019,167.469697 303.949686,177.636364 303.283019,191.636364 C302.616352,206.969697 298.783019,219.80303 291.783019,230.136364 C284.783019,240.469697 280.449686,247.969697 278.783019,252.636364 C277.116352,257.30303 274.949686,259.636364 272.283019,259.636364 C269.616352,259.636364 265.783019,265.469697 260.783019,277.136364 C255.783019,288.80303 249.949686,296.636364 243.283019,300.636364 C236.616352,304.636364 227.949686,313.636364 217.283019,327.636364 C206.616352,341.636364 199.449686,348.636364 195.783019,348.636364 C192.116352,348.636364 190.283019,350.136364 190.283019,353.136364 C190.283019,356.136364 188.616352,357.636364 185.283019,357.636364 C181.949686,357.636364 177.283019,360.636364 171.283019,366.636364 C159.283019,377.30303 134.949686,391.30303 98.2830189,408.636364 L42.2830189,435.636364 C16.9496855,447.636364 3.6163522,453.636364 2.28301887,453.636364 C-5.05031447,453.636364 5.28301887,441.636364 33.2830189,417.636364 C38.6163522,412.969697 43.2830189,408.636364 47.2830189,404.636364 C68.6163522,387.30303 85.6163522,371.969697 98.2830189,358.636364 C111.616352,345.30303 127.783019,326.969697 146.783019,303.636364 C165.783019,280.30303 175.949686,266.969697 177.283019,263.636364 C178.616352,259.636364 182.283019,253.636364 188.283019,245.636364 C203.616352,224.30303 214.283019,194.30303 220.283019,155.636364 C221.616352,146.969697 225.616352,140.636364 232.283019,136.636364 Z M419.283019,1.63636364 C421.283019,-0.363636364 427.283019,-0.53030303 437.283019,1.13636364 C447.283019,2.8030303 456.283019,5.63636364 464.283019,9.63636364 C471.616352,12.969697 482.283019,21.969697 496.283019,36.6363636 C510.283019,51.3030303 519.283019,62.6363636 523.283019,70.6363636 C529.283019,85.3030303 548.283019,112.469697 580.283019,152.136364 C612.283019,191.80303 643.283019,226.636364 673.283019,256.636364 C701.949686,284.636364 721.116352,302.636364 730.783019,310.636364 C740.449686,318.636364 754.949686,327.636364 774.283019,337.636364 C800.283019,350.969697 814.283019,358.636364 816.283019,360.636364 C819.616352,364.636364 827.116352,370.136364 838.783019,377.136364 C850.449686,384.136364 861.949686,389.636364 873.283019,393.636364 C891.283019,399.636364 903.616352,404.30303 910.283019,407.636364 C914.949686,409.636364 921.949686,417.136364 931.283019,430.136364 C940.616352,443.136364 945.283019,452.30303 945.283019,457.636364 C945.283019,468.30303 931.616352,475.30303 904.283019,478.636364 C888.949686,481.30303 879.283019,483.636364 875.283019,485.636364 C871.283019,487.636364 867.283019,489.30303 863.283019,490.636364 C855.283019,493.30303 844.283019,500.30303 830.283019,511.636364 C823.616352,516.969697 817.116352,519.136364 810.783019,518.136364 C804.449686,517.136364 793.283019,511.969697 777.283019,502.636364 C761.949686,493.969697 753.283019,489.636364 751.283019,489.636364 C750.616352,489.636364 742.949686,484.136364 728.283019,473.136364 C713.616352,462.136364 705.283019,455.969697 703.283019,454.636364 C701.949686,452.636364 692.283019,444.30303 674.283019,429.636364 C660.283019,418.30303 645.949686,404.969697 631.283019,389.636364 C616.616352,374.30303 608.283019,363.636364 606.283019,357.636364 C604.283019,352.969697 599.783019,346.969697 592.783019,339.636364 C585.783019,332.30303 582.283019,327.636364 582.283019,325.636364 C582.283019,323.636364 579.949686,320.30303 575.283019,315.636364 C567.949686,308.969697 553.116352,287.969697 530.783019,252.636364 C508.449686,217.30303 490.949686,186.969697 478.283019,161.636364 C462.283019,128.969697 454.283019,111.636364 454.283019,109.636364 C454.283019,107.636364 451.949686,101.30303 447.283019,90.6363636 C432.616352,58.6363636 423.283019,36.6363636 419.283019,24.6363636 C415.283019,12.6363636 415.283019,4.96969697 419.283019,1.63636364 Z"></path>
        </g>
    </g>
</svg>