<?xml version="1.0" encoding="UTF-8"?>
<svg width="400px" height="305px" viewBox="0 0 400 305" version="1.1" xmlns="http://www.w3.org/2000/svg" xmlns:xlink="http://www.w3.org/1999/xlink">
    <title>9_jiu_s</title>
    <g id="9_jiu_s" stroke="none" stroke-width="1" fill="none" fill-rule="evenodd">
        <path d="M144.786634,0 C140.607654,0 137.459959,2.01411115 135.070105,4.99967732 C133.680923,6.73513643 132.514611,8.86986275 131.41159,11.5005302 L131.118801,12.2127619 C129.481308,16.2760668 128.211406,20.8039438 127.290525,25.7985256 L127.177653,26.4245806 L124.879834,36.4941406 L122.918931,44.982057 L121.519582,50.9726713 L119.749414,58.4580569 L118.493869,63.6943825 L117.495,67.8099666 L116.169326,73.1919646 L115.627255,75.3625803 L114.758698,78.7985936 L113.933899,82.0070668 L113.153017,84.9874917 L112.416211,87.7393602 L111.723641,90.2621639 L111.201543,92.1151387 L110.70794,93.8209267 L110.242915,95.3792675 L109.912948,96.4511045 L109.49813,97.7507868 L109.301516,98.3450832 L109.112113,98.9023064 L108.927214,99.4289867 L108.302885,99.6414414 L107.663485,99.8481992 L106.669415,100.156348 L105.204579,100.591598 L104.209927,100.878317 L102.364284,101.396753 L99.8484226,102.082188 L96.5715743,102.952818 L94.7259674,103.449629 L92.9205405,103.941855 L91.1552184,104.429526 L88.5822673,105.152558 L86.9168783,105.628973 L84.4934744,106.335259 L82.9275485,106.800603 L81.4012762,107.261572 L79.9145825,107.718194 L78.467392,108.1705 L77.0596297,108.618519 C76.8282841,108.692833 76.5985783,108.76697 76.3705105,108.84093 L75.0217494,109.282576 L73.7122283,109.720009 L72.4418722,110.153261 L71.2106059,110.58236 L67.5985628,111.860306 L65.7611795,112.49917 L63.9040043,113.130907 L62.8621102,113.475048 L61.983217,113.754909 L61.6920717,113.8435 L61.5240675,113.858399 L61.1373734,113.905188 C61.094731,113.911366 61.0521436,113.917886 61.0095584,113.924765 L60.7536504,113.970485 L60.4952576,114.025619 L60.2318434,114.090959 C60.1873816,114.102743 60.1426049,114.114986 60.0974604,114.127704 L59.8217574,114.209838 L59.5346909,114.30416 C59.4857586,114.32094 59.4362471,114.338261 59.3861035,114.356139 L59.0772352,114.470226 L58.7506614,114.59848 L58.2220534,114.819159 L57.6393385,115.07617 L56.993955,115.372187 L55.7557979,115.959492 L53.6144995,116.999794 L52.2319202,117.68069 L49.9653744,118.815546 L47.9293968,119.848911 L47.43277,120.10452 C39.7064954,124.117096 34.5301876,128.513183 32.1900682,134.038489 L32.1673697,134.092303 L32.0795723,134.245091 C31.2274841,135.746579 30.596745,137.158103 30.1935373,138.59054 C29.2443182,141.96274 29.4685088,145.454912 32.040575,148.617904 L32.1940913,148.803296 C33.2236993,150.024088 34.3813502,150.9455 35.9501738,151.788247 L36.4334391,152.038932 C36.6815226,152.163315 36.9394944,152.286424 37.2083102,152.409006 L37.7606836,152.653684 C37.85525,152.69442 37.9510921,152.735152 38.0482452,152.775909 L38.6471798,153.020957 C38.7497187,153.06192 38.8536395,153.102962 38.9589775,153.144111 L39.6082955,153.392507 L40.2933259,153.644792 L41.0157675,153.902289 L41.777319,154.166322 L42.9966937,154.577525 L43.7302034,154.819189 L43.5671009,154.761142 C43.9554921,154.90266 44.3377828,155.039917 44.7141363,155.172894 L45.8255478,155.558963 C50.930535,157.300499 54.9037785,158.199062 58.192857,158.199062 L58.6083476,158.194031 C62.6305075,158.096836 66.8245734,156.593837 71.6377446,153.888844 L72.1577647,153.592641 L73.5597394,152.987319 L75.298597,152.257318 L77.329221,151.422987 L80.487894,150.149481 L84.6535201,148.498689 L88.8963298,146.839317 L91.1421474,145.971728 L92.7276206,145.367318 L93.8329588,144.949733 L93.7369117,145.1772 C93.5864235,145.527605 93.4300952,145.883713 93.2679097,146.245468 L92.935699,146.982773 L87.7872568,158.940428 L87.8485473,158.814081 C82.7878607,169.513904 77.3542904,179.903474 71.5478238,189.983394 L70.3256216,192.092477 L69.5006768,193.536054 L68.6830367,194.9458 C68.5473755,195.177937 68.4120211,195.408662 68.2769749,195.637975 L67.470405,196.996905 L66.6712905,198.321914 L65.8796916,199.612964 C65.7483881,199.825307 65.6174003,200.036234 65.4867294,200.245744 L64.706517,201.48579 C64.5771188,201.689628 64.44804,201.892047 64.3192819,202.093047 L63.5505914,203.282007 L62.7896576,204.436865 C62.663485,204.626498 62.5376382,204.814708 62.4121183,205.001495 L61.6629323,206.105133 C60.4208617,207.916045 59.2117379,209.584491 58.0368158,211.109718 L57.3359768,212.007663 C56.7553813,212.741618 56.1833989,213.439732 55.6201867,214.101909 L55.1916499,214.600995 L54.7701572,215.117583 L54.0712011,215.963189 L53.3285597,216.84858 L52.4718445,217.856012 L51.2131827,219.313808 L50.2057068,220.464864 L48.777885,222.076391 L47.2536045,223.775487 L45.2128347,226.022194 L43.9162608,227.435581 L42.5656792,228.897887 L40.6810002,230.923576 L39.2046445,232.499693 L36.6245295,235.234593 L33.8952632,238.104197 L31.6641776,240.434689 L28.5316178,243.684808 L26.5771931,245.697246 L23.8469008,248.48406 L22.1611819,250.187151 L20.2056153,252.141616 L19.1132458,253.221167 L18.1904165,254.124909 L17.2632416,255.023812 L16.395397,255.855364 L15.3323589,256.857969 L14.6069933,257.529302 L13.7376993,258.315422 L13.1604709,258.822246 L12.6484619,259.257252 L11.9779838,259.812452 C8.41347112,262.797915 5.62338845,265.814316 3.63604129,268.948591 L3.35219013,269.405541 L3.12260952,269.685127 C2.43039084,270.537408 1.87597937,271.317852 1.41616944,272.125638 C0.664414042,273.446308 0.153536584,274.758653 0.0244321495,276.558 C-0.288926803,280.925326 2.43040056,285.181436 7.12179347,286.463487 C9.74652213,287.180765 11.3626806,286.91577 13.8329896,286.169629 L14.1474,286.072255 C14.6795725,285.903499 15.2531191,285.702303 15.8770201,285.466942 L16.6504459,285.167999 L17.0045434,285.02602 L17.6252966,284.835805 C27.6850808,281.684593 38.9071511,275.163493 51.4995033,265.331484 L54.4134222,263.108612 L57.2447317,260.969303 L59.3138024,259.419784 L61.3360795,257.917475 L63.3114234,256.462464 L65.8719668,254.596175 L67.7372569,253.251868 L68.9544597,252.382097 L70.150555,251.533505 L71.9050311,250.300382 L73.6117827,249.115056 L75.2706702,247.977617 L76.3499351,247.24597 L77.4078236,246.535671 L78.4442944,245.846747 L79.4593061,245.179222 L80.9414972,244.218118 L82.3751727,243.30531 L83.3039342,242.723647 L84.3104887,242.100206 L85.2777492,241.491648 L86.2060456,240.897555 L87.0957078,240.317506 L87.9470657,239.751083 C88.085785,239.657792 88.2229221,239.56505 88.3584837,239.47285 L89.153004,238.92608 C89.2822915,238.836011 89.4100175,238.746467 89.5361887,238.657437 L90.2746135,238.129375 L90.9760539,237.613262 C91.772955,237.017937 92.4950197,236.44615 93.1446057,235.894906 L93.6836988,235.427372 C93.7706076,235.350265 93.8560511,235.273559 93.940036,235.197247 L94.2662912,234.893789 L95.4777471,233.81958 L96.3217504,233.063137 L97.1323705,232.330467 L97.909738,231.621412 L98.6539831,230.935817 L99.7085314,229.951064 L100.370541,229.323427 L100.999884,228.718698 L101.882936,227.854214 L102.431185,227.306067 L103.193206,226.52572 C104.394698,225.2755 105.350382,224.18061 106.101647,223.161987 L106.297785,222.892897 C106.939718,222.001088 107.462476,221.157452 107.848341,220.260417 L107.949121,220.014291 L108.27453,219.624815 L108.791616,219.019661 L109.612214,218.083673 L110.580367,217.003301 L111.401784,216.100357 L111.670147,215.809394 L111.940741,215.511592 L112.488649,214.895449 C112.764849,214.580527 113.044424,214.255323 113.327401,213.919816 L113.897901,213.235058 C113.993743,213.11864 114.089965,213.001075 114.186568,212.882363 L114.770768,212.156316 C114.8689,212.033011 114.967415,211.908557 115.066313,211.782954 L115.664324,211.015529 C115.764763,210.885323 115.865589,210.753966 115.966801,210.621456 L116.578732,209.812564 C116.681497,209.675442 116.784652,209.537166 116.888196,209.397735 L117.514156,208.547287 L118.149529,207.669085 L118.794364,206.76309 L119.44871,205.829262 L120.112616,204.867561 C120.224066,204.704952 120.335917,204.541181 120.448169,204.376245 L121.126506,203.372661 L121.814523,202.341104 L122.512271,201.281536 L123.219797,200.193917 L123.937151,199.078207 L124.66438,197.934366 L125.401534,196.762355 L126.148661,195.562134 L127.288158,193.708822 L128.450368,191.791815 L129.237875,190.478358 L130.035598,189.136492 L130.780503,187.873304 L132.44282,185.212556 L133.762686,183.081336 L135.01866,181.035009 L136.499757,178.59333 L137.341497,177.188761 L138.40964,175.384706 L139.170465,174.082062 L139.65865,173.237146 L140.362579,172.004397 L140.813082,171.205271 L141.669373,169.66035 L142.27278,168.547308 L142.656719,167.826532 L143.205331,166.776601 L143.55299,166.097092 L143.886277,165.433638 L144.205273,164.785979 L144.510057,164.153859 L144.800709,163.537017 L145.210365,162.639838 L145.466037,162.060064 L145.707858,161.494664 L145.935908,160.943381 L146.150266,160.405955 L146.351012,159.882129 L146.538227,159.371644 L146.71199,158.874241 L146.872382,158.389663 C146.898005,158.309954 146.923073,158.230769 146.947589,158.152102 L147.088074,157.686275 C147.110389,157.609659 147.132154,157.533551 147.153373,157.457944 L147.274131,157.010287 L147.381838,156.574421 L147.476574,156.150086 C147.491287,156.080311 147.505462,156.011005 147.519102,155.942163 L147.594532,155.534642 C147.606037,155.467636 147.61701,155.401083 147.627452,155.334979 L147.683755,154.94369 C147.692082,154.879357 147.699882,154.815462 147.707157,154.751998 L147.730945,154.516996 L147.795096,154.391104 C147.956919,154.075472 148.185615,153.682835 148.480792,153.223066 L148.798115,152.741286 L148.973369,152.484298 C150.311399,150.543524 151.544687,148.04824 152.729235,144.933686 L153.051127,144.068859 C153.104588,143.922146 153.157959,143.774141 153.211245,143.624839 L153.529985,142.713404 C153.582952,142.558886 153.635846,142.403059 153.688669,142.245915 L154.004825,141.287214 L154.319574,140.296638 L154.633168,139.273894 L154.94586,138.21869 L155.257902,137.130736 L155.569547,136.009739 C155.621468,135.820136 155.673384,135.629144 155.725299,135.436757 L156.036821,134.265648 L156.243634,133.470412 L156.378249,132.839291 L156.577987,131.929438 L156.772638,131.076141 L156.961923,130.280017 C156.993007,130.152128 157.023856,130.026648 157.054465,129.903588 L157.235173,129.194385 L157.337592,128.805329 L174.109344,126.448557 L182.390874,125.308123 L182.125099,126.151322 L181.795115,127.171029 L181.443711,128.23229 L181.070909,129.334931 L180.676735,130.478772 L180.045451,132.271397 L179.597949,133.517465 L179.129157,134.804113 L178.6391,136.131164 L178.1278,137.498441 L177.707074,138.609293 L177.557528,138.967425 L177.310731,139.580848 L177.064295,140.224657 C177.023247,140.334502 176.982209,140.445622 176.94118,140.55802 L176.695086,141.24779 L176.449088,141.968455 C176.367093,142.213849 176.285096,142.464425 176.20308,142.720219 L175.956955,143.503284 L175.710609,144.317856 L175.463933,145.164136 L175.216824,146.042329 L174.969174,146.952639 C174.927848,147.107045 174.886495,147.262798 174.845113,147.419901 L174.596454,148.378767 L174.34699,149.370259 L174.096614,150.394579 L173.845221,151.451931 L173.592704,152.54252 L173.338958,153.666548 L173.083876,154.82422 L172.827353,156.015738 L172.569283,157.241306 L172.207906,159.001639 L171.989611,160.092697 L171.784731,161.140377 L171.502528,162.63118 L171.250414,164.025966 L171.099027,164.902951 L170.960971,165.737965 L170.836229,166.53129 L170.724784,167.283207 L170.62662,167.993999 L170.522643,168.823814 C170.428377,169.625843 170.361843,170.357774 170.325198,171.035161 L170.307089,171.406124 L170.217016,171.59051 C169.688423,172.699931 169.3591,173.916715 169.087029,175.318757 C168.824037,176.674017 168.649344,178.265192 168.536601,180.164761 L168.490634,181.027023 L168.456848,181.81713 L168.428816,182.645086 L168.39752,183.958293 L168.383796,184.881483 L168.373878,186.338192 L168.374351,187.357484 L168.385643,188.959 L168.400202,190.075264 L168.420363,191.230561 L168.446108,192.42503 L168.49516,194.290484 L168.58124,196.947597 L168.634109,198.329599 L168.72294,200.344271 L168.788641,201.648781 L168.859631,202.922632 L168.935996,204.16602 L169.017826,205.379136 L169.105208,206.562176 L169.198231,207.715332 L169.296984,208.838799 L169.401555,209.932769 L169.512032,210.997437 L169.628503,212.032997 L169.751057,213.039641 C169.771994,213.205016 169.793189,213.369195 169.814642,213.532181 L169.946486,214.495816 L170.084634,215.43102 C170.108189,215.584529 170.13201,215.736861 170.156099,215.888021 L170.303868,216.780942 C170.354207,217.073914 170.405633,217.362228 170.458161,217.645916 L170.619067,218.483137 C170.673815,218.757607 170.729679,219.027483 170.786675,219.292799 L170.961072,220.075095 C170.990709,220.203208 171.020632,220.330189 171.050844,220.456042 L171.235591,221.197652 C171.266964,221.319008 171.298629,221.439245 171.330588,221.558365 L171.525884,222.259726 C171.757879,223.062431 172.004457,223.810846 172.266251,224.506355 L172.404228,224.865284 L172.342177,224.688867 C178.51782,242.156175 186.967379,256.006243 197.788309,266.121587 L198.425077,266.709209 L199.641793,267.790589 L200.835247,268.837504 L202.005601,269.850014 C202.198743,270.015902 202.39093,270.180359 202.582164,270.343386 L203.718164,271.304401 L204.831461,272.231161 L205.922215,273.123726 C206.461983,273.56147 206.993356,273.986414 207.516426,274.39859 L208.551518,275.205932 C209.063555,275.601102 209.567348,275.983528 210.062985,276.353244 L211.043414,277.075738 C212.659428,278.251683 214.185497,279.286655 215.624943,280.181906 L216.304334,280.597663 C216.536022,280.737238 216.77294,280.877806 217.015105,281.01938 L217.757351,281.447132 L218.531171,281.880996 L219.336661,282.321048 C219.473554,282.39491 219.611771,282.469033 219.751313,282.543419 L220.60449,282.992898 L221.489581,283.448756 L222.406681,283.911071 L223.355888,284.379919 L224.337299,284.855377 C224.503557,284.935174 224.671161,285.015251 224.840112,285.095608 L225.870011,285.581123 L226.932357,286.073439 L228.027246,286.572632 L229.154776,287.078779 L230.315044,287.591957 L231.508146,288.112241 L232.734181,288.639709 L233.993244,289.174437 L235.943979,289.990309 L238.055497,290.857759 L239.574625,291.471056 C239.825618,291.571586 240.075515,291.671272 240.324318,291.770115 L241.804019,292.353049 L243.257553,292.915738 C243.497633,293.007832 243.736627,293.099082 243.974537,293.189489 L245.388995,293.721805 L246.77752,294.233867 C247.006784,294.317523 247.234973,294.400335 247.462086,294.482303 L248.811886,294.963981 L250.135985,295.425399 L251.434478,295.866554 C251.648765,295.938391 251.861989,296.009383 252.074152,296.079531 L253.33441,296.490286 C253.542336,296.557056 253.749205,296.622982 253.955019,296.688063 L255.177253,297.068411 L256.374255,297.428484 L257.546118,297.76828 C260.251208,298.537477 262.751758,299.141048 265.053112,299.578826 L265.761237,299.709364 L266.699159,299.869124 L267.999553,300.071222 L269.142543,300.234863 L270.700005,300.441927 L272.400917,300.651849 L274.245731,300.8647 L277.071091,301.167747 L279.263121,301.387918 L282.085581,301.656314 L285.118262,301.929398 L288.923131,302.254085 L294.239112,302.681476 L300.708196,303.169932 L306.31208,303.571354 L311.529598,303.930619 L313.668217,304.072745 L315.375339,304.214017 C315.657409,304.236599 315.938257,304.2587 316.217881,304.280318 L317.880975,304.404234 C318.155717,304.423921 318.42924,304.443123 318.701545,304.461841 L320.320774,304.568334 C320.588214,304.585113 320.854439,304.601406 321.119451,304.617213 L322.694979,304.706215 C322.955144,304.720074 323.2141,304.733447 323.471847,304.746331 L325.003836,304.817774 L326.50689,304.877475 L327.981082,304.925402 L329.426485,304.961526 L330.84317,304.985817 C331.544346,304.994999 332.23478,305 332.914513,305 L334.259724,304.994576 C336.034346,304.979392 337.733068,304.932371 339.356662,304.853194 L340.560284,304.787777 C341.155063,304.752048 341.739306,304.711787 342.313051,304.666975 L343.446558,304.57128 L344.552147,304.46342 C345.643801,304.349469 346.693686,304.217226 347.702128,304.066558 L348.471218,303.947384 L348.736646,303.890119 C354.885594,302.563513 362.041754,299.942758 370.309486,296.045675 L371.616289,295.423596 L372.647936,294.923959 L373.646251,294.43228 L374.611622,293.947963 C374.769794,293.867824 374.926609,293.787966 375.082075,293.708379 L375.998756,293.233988 L376.883462,292.765472 C377.173078,292.610213 377.457429,292.455833 377.736579,292.302235 L378.558495,291.843681 L379.349597,291.389215 L380.110273,290.938242 C384.583823,288.241696 387.43526,285.70164 389.041069,282.73953 L389.398848,282.079564 L389.645384,281.372152 L389.817786,281.084293 L390.006799,280.790204 L390.085846,280.672262 C390.516193,280.037201 391.122645,279.263067 391.90073,278.369357 L392.166442,278.067052 C395.842627,273.923003 398.10302,268.121866 399.383167,260.625402 C400.713685,252.833965 399.931701,246.007466 396.647577,240.381119 L396.419777,239.999367 C396.020114,239.344053 395.625507,238.41297 395.249097,237.217726 L395.08893,236.68934 L394.931222,236.12881 L394.776201,235.536341 C394.750601,235.434946 394.725123,235.332228 394.699771,235.228192 L394.549213,234.588194 C394.524385,234.478903 394.499694,234.368302 394.475143,234.256395 L394.329565,233.569324 L394.187594,232.851126 C394.140897,232.606562 394.09484,232.356843 394.04946,232.102004 L393.915393,231.32216 L393.785622,230.511797 L393.660379,229.67112 L393.539891,228.80033 L393.42439,227.899631 L393.314104,226.969226 L393.209265,226.009319 L392.814817,222.16345 L392.53808,219.589548 L392.270963,217.224734 L392.063877,215.481859 L391.81288,213.48753 L391.618074,212.038026 L391.475307,211.035257 L391.335285,210.104237 L391.152683,208.973618 L391.01867,208.208057 L390.93067,207.736643 L390.859975,207.382062 L385.94908,181.20715 L370.167873,202.770371 L369.780667,203.358225 C367.464616,206.941365 366.094652,210.43932 365.910759,214.014612 L365.902883,214.214618 L365.871778,214.304457 L365.75887,214.593364 C365.715427,214.699055 365.666155,214.813971 365.610995,214.937619 L365.427784,215.334265 L365.300469,215.596768 L365.017588,216.152727 C364.967308,216.2488 364.915463,216.346572 364.862056,216.44603 L364.52289,217.0629 C364.463245,217.169048 364.402044,217.276857 364.33929,217.386313 L363.944137,218.062716 C363.806219,218.294704 363.662108,218.53318 363.511826,218.778041 L363.04249,219.531676 C362.879888,219.789204 362.711137,220.053016 362.53626,220.323008 L361.99327,221.151425 L361.53998,221.828849 L361.078199,222.505701 L360.629882,223.149684 L360.19579,223.760476 L359.776687,224.337759 L359.373335,224.881211 L358.986496,225.390514 L358.616934,225.865347 L358.265411,226.305391 L357.93269,226.710324 L357.619534,227.079828 C357.569014,227.138442 357.519341,227.195566 357.470531,227.251194 L357.188152,227.566955 L356.927244,227.846485 C356.885591,227.890037 356.844865,227.932065 356.80508,227.972565 L356.57781,228.197151 C356.541858,228.231506 356.506881,228.264317 356.472894,228.295579 L356.330521,228.421432 L356.131478,228.489125 L355.781556,228.59765 C355.71857,228.616312 355.653268,228.635247 355.585679,228.654429 L355.15292,228.772326 L354.666591,228.89508 L354.128016,229.021578 L353.538519,229.150707 L352.899425,229.281357 L352.155349,229.422886 L351.305909,229.572763 C351.160261,229.597507 351.012579,229.622132 350.862866,229.646637 L349.940263,229.792209 L348.969144,229.934811 L347.949721,230.074365 C347.775803,230.097366 347.599881,230.120236 347.42196,230.142974 L346.330469,230.277806 L345.191196,230.409392 L344.004348,230.537653 C343.802587,230.558748 343.598852,230.579701 343.393149,230.600511 L341.579732,230.775525 L339.863704,230.927023 L338.073885,231.07225 L336.839711,231.165577 L334.927064,231.300321 L332.940814,231.428757 L331.575792,231.51087 L329.467028,231.628764 L327.284851,231.740314 L325.789315,231.81115 L323.484939,231.912098 L321.107338,232.006666 L318.656584,232.094841 L315.275238,232.202441 L311.764134,232.29862 L309.045753,232.363241 L305.32404,232.438954 L301.657757,232.497506 L298.96666,232.529222 L297.200546,232.544571 L294.593352,232.55892 L292.036592,232.562881 L290.360139,232.559763 L287.887589,232.546467 L285.465657,232.52285 L283.094413,232.488935 L281.541778,232.460617 L280.011722,232.42774 L278.504265,232.390313 L276.285499,232.325655 L274.117697,232.250799 L272.000928,232.165769 L269.935262,232.070589 L268.586576,232.00151 L266.606235,231.88947 L264.677181,231.767347 L263.419671,231.680341 L262.185008,231.588873 L260.97321,231.492948 L259.784299,231.392574 L258.618294,231.28776 L257.475217,231.178511 L256.355088,231.064835 L255.257928,230.94674 L254.183756,230.824232 L253.132594,230.69732 L252.104462,230.56601 L251.099381,230.43031 L250.11737,230.290227 L249.15845,230.145768 C249.000556,230.121327 248.843624,230.096704 248.687656,230.0719 L247.763413,229.920891 C247.6113,229.895359 247.460152,229.869646 247.309968,229.843752 L246.420446,229.68621 L245.554097,229.524321 L244.710942,229.358093 L243.891002,229.187533 L243.094296,229.012649 L242.397579,228.852438 L242.086374,228.801411 C239.625006,228.39783 236.289539,226.65768 232.260908,223.35488 C230.162148,221.634251 228.585738,220.069777 227.531133,218.711123 L227.243873,218.328848 C226.665361,217.531698 226.368463,216.938599 226.282187,216.58494 L226.160127,216.084596 L224.148681,210.546454 L222.350481,205.545968 L222.127743,205.089447 C222.08984,205.011763 222.047048,204.910333 222.000589,204.785971 L221.903146,204.50691 L221.798102,204.168139 L221.687633,203.771101 C221.66889,203.700152 221.650011,203.626836 221.631043,203.551183 C221.38732,202.579128 221.163825,201.357605 220.971487,199.902053 L220.917831,199.483438 L220.81626,198.614148 C220.799972,198.465711 220.784004,198.315498 220.768359,198.163513 L220.678365,197.230363 C220.635311,196.753182 220.595178,196.26011 220.558001,195.751239 L220.487598,194.712457 C220.476524,194.535824 220.465781,194.357443 220.45537,194.177315 L220.396898,193.075633 C220.38782,192.888538 220.379077,192.699703 220.370669,192.509133 L220.324263,191.344911 C220.310144,190.949913 220.297378,190.547999 220.285975,190.139197 L220.255864,188.89215 C220.25153,188.680873 220.247539,188.467881 220.243893,188.253176 L220.226747,187.022324 L220.216214,185.855963 L220.211348,184.718736 L220.21454,183.067868 L220.223577,182.00417 L220.238071,180.970161 L220.257962,179.966001 L220.297787,178.516075 L220.34942,177.134202 L220.412659,175.820918 L220.461167,174.983766 L220.514683,174.177495 L220.573149,173.402265 L220.636504,172.658234 L220.704688,171.945562 L220.777643,171.264407 L220.855307,170.614927 L220.937623,169.997283 L221.024528,169.411633 C221.039392,169.316699 221.054444,169.223106 221.069684,169.130855 L221.163364,168.593494 L221.261485,168.088523 L221.383176,167.530007 L221.606531,166.900437 C222.885349,163.212606 223.945956,159.516806 224.787175,155.814026 L224.974597,154.966075 L225.160701,154.287123 C226.909414,148.033371 229.551429,141.733784 233.102172,135.383687 L233.575532,134.545125 L233.81036,134.154004 C234.954982,132.194419 235.923789,130.113733 236.717942,127.918588 L236.982192,127.161511 L237.08371,127.072205 C237.550263,126.669886 238.27226,126.180092 239.244229,125.63791 L239.566949,125.460623 L240.114859,125.210563 C244.664174,123.096744 247.568353,121.049084 249.35965,117.74482 C250.874349,114.950774 251.319204,111.695325 251.346328,106.877572 L251.347672,106.390548 C251.347672,106.068892 251.346099,105.754485 251.342746,105.446974 L251.32713,104.544774 C251.223797,100.280719 250.70188,97.3923163 249.123327,94.8040217 L248.955234,94.5353635 C246.806416,91.18779 243.682099,89.5696557 238.68159,88.1031869 L237.793619,87.8492872 L236.088324,87.2294615 L235.127387,86.8735426 L234.205909,86.5273352 L232.898025,86.0264329 L231.679818,85.5478948 L230.917764,85.2414462 L229.850205,84.8008665 C229.736639,84.7531956 229.62476,84.705954 229.514571,84.6591438 L228.568602,84.2495468 L227.988932,83.9895722 L227.594644,83.8153243 C222.846506,81.7806503 217.499543,81.7690439 211.735579,83.3739643 L211.454625,83.4539225 L211.043917,83.5540429 L210.453421,83.6887638 L209.568209,83.8763033 L208.831178,84.022824 L207.751398,84.2259068 L206.86905,84.3839427 L205.261013,84.6580831 L203.48205,84.9454479 L202.333061,85.1241139 L200.282774,85.4321343 L197.600457,85.8183631 L195.678545,86.0857184 L193.650291,86.3608247 L189.846557,86.8605389 L185.106285,87.4593903 L180.617736,88.0069205 L176.168192,88.5371369 L169.579933,89.3013479 L166.565192,89.6381201 L166.833926,88.4642193 L167.154096,87.0139687 L167.48293,85.4748788 L167.820521,83.8466519 L168.284421,81.5365105 L168.522337,80.321596 L169.010235,77.7716384 L169.514401,75.060921 L169.903333,72.9219598 L170.301629,70.6918763 L171.167857,65.7640577 L171.77078,62.4141234 L172.364057,59.207421 L172.947613,56.1441684 L173.378854,53.9409993 L173.66327,52.5171617 L174.224676,49.7774694 L174.639193,47.8172926 L174.912407,46.5556033 L175.317508,44.7307802 L175.716919,42.9872921 L175.980014,41.8701983 L176.294088,40.5698901 L176.53417,39.3036622 L176.715618,38.3012187 L176.880982,37.3396121 C176.907194,37.1826788 176.93273,37.0273955 176.957586,36.8737365 L177.098541,35.9710681 L177.223035,35.1061466 L177.330919,34.2777363 C177.612913,31.9811301 177.693067,30.109294 177.555968,28.5357179 L177.512869,28.1066395 C177.155421,24.9646685 175.889894,21.9221611 173.880068,18.859039 L173.711844,18.605921 L173.84331,18.8172684 C171.987113,15.7737307 168.944739,12.7847175 164.603835,9.52586479 L163.653725,8.82329079 C162.845336,8.23417362 161.995283,7.63571307 161.102928,7.02606212 L160.202716,6.41658431 C160.054659,6.31729945 159.907576,6.21916219 159.761446,6.12217285 L158.895924,5.55401441 C153.199693,1.85815926 148.958617,0 144.786634,0 Z" id="ä¹" fill="#000000" fill-rule="nonzero"></path>
    </g>
</svg>