<?xml version="1.0" encoding="UTF-8"?>
<svg width="1000px" height="1000px" viewBox="0 0 1000 1000" version="1.1" xmlns="http://www.w3.org/2000/svg" xmlns:xlink="http://www.w3.org/1999/xlink">
    <title>9_jiu_l</title>
    <g id="9_jiu_l" stroke="none" stroke-width="1" fill="none" fill-rule="evenodd">
        <g id="ä¹" transform="translate(62.153846, 125.000000)" fill="#000000" fill-rule="nonzero">
            <path d="M291.846154,53 C293.846154,39 296.679487,26.6666667 300.346154,16 C304.012821,5.33333333 307.512821,0 310.846154,0 C315.512821,0 323.846154,5 335.846154,15 C347.846154,25 355.512821,33.3333333 358.846154,40 C362.179487,46 364.012821,51.3333333 364.346154,56 C364.679487,60.6666667 363.846154,69.3333333 361.846154,82 C357.846154,102 353.512821,128.333333 348.846154,161 C344.179487,193.666667 340.346154,216.666667 337.346154,230 C334.346154,243.333333 333.512821,251.333333 334.846154,254 C336.846154,254.666667 357.179487,252.166667 395.846154,246.5 C434.512821,240.833333 459.179487,236.333333 469.846154,233 C479.179487,229.666667 486.846154,229.666667 492.846154,233 C498.846154,236.333333 507.179487,240.333333 517.846154,245 C525.846154,247.666667 530.512821,250.333333 531.846154,253 C533.179487,255.666667 533.846154,262 533.846154,272 C533.846154,282 533.179487,288.5 531.846154,291.5 C530.512821,294.5 526.179487,298 518.846154,302 C509.512821,308 504.012821,314.166667 502.346154,320.5 C500.679487,326.833333 498.512821,332.666667 495.846154,338 C485.846154,359.333333 478.512821,380.666667 473.846154,402 C471.846154,413.333333 469.179487,424.666667 465.846154,436 C463.179487,448.666667 462.012821,470 462.346154,500 C462.679487,530 464.846154,550 468.846154,560 C472.179487,571.333333 474.846154,580.333333 476.846154,587 C478.846154,597 485.846154,608 497.846154,620 C509.846154,632 520.846154,639 530.846154,641 C561.512821,649.666667 612.012821,653.166667 682.346154,651.5 C752.679487,649.833333 794.512821,645 807.846154,637 C813.179487,633 820.012821,623.333333 828.346154,608 C836.679487,592.666667 840.846154,582 840.846154,576 C840.846154,570.666667 842.846154,564.333333 846.846154,557 L852.846154,547 L854.846154,560 C856.179487,568 857.846154,584.166667 859.846154,608.5 C861.846154,632.833333 865.346154,650 870.346154,660 C875.346154,670 876.679487,683.333333 874.346154,700 C872.012821,716.666667 868.179487,728.666667 862.846154,736 C857.512821,743.333333 854.179487,749.333333 852.846154,754 C850.179487,760 839.679487,768.333333 821.346154,779 C803.012821,789.666667 787.512821,796.666667 774.846154,800 C757.512821,803.333333 732.846154,803.333333 700.846154,800 C643.512821,795.333333 607.346154,791.333333 592.346154,788 C577.346154,784.666667 557.179487,776.666667 531.846154,764 C510.512821,753.333333 495.012821,744.333333 485.346154,737 C475.679487,729.666667 463.512821,718 448.846154,702 C426.179487,676.666667 408.179487,641 394.846154,595 C390.846154,583 388.346154,559 387.346154,523 C386.346154,487 387.179487,467.666667 389.846154,465 C392.512821,463.666667 393.179487,462 391.846154,460 C390.512821,458 391.846154,445.166667 395.846154,421.5 C399.846154,397.833333 403.512821,381.333333 406.846154,372 C422.846154,320.666667 427.512821,295 420.846154,295 C418.179487,295 389.846154,299.666667 335.846154,309 C329.179487,309.666667 324.846154,311.5 322.846154,314.5 C320.846154,317.5 318.512821,326.666667 315.846154,342 C311.179487,364 306.679487,378.833333 302.346154,386.5 C298.012821,394.166667 295.846154,400 295.846154,404 C295.846154,412.666667 283.846154,440.333333 259.846154,487 C242.512821,523 228.512821,548 217.846154,562 C209.846154,572.666667 205.846154,578.666667 205.846154,580 C205.846154,583.333333 197.179487,594.333333 179.846154,613 C175.846154,617.666667 168.512821,624 157.846154,632 C138.512821,646.666667 113.512821,668.333333 82.8461538,697 C54.8461538,723.666667 30.5128205,740.666667 9.84615385,748 C4.51282051,750.666667 1.34615385,751.833333 0.346153846,751.5 C-0.653846154,751.166667 0.512820513,748.666667 3.84615385,744 C7.17948718,736.666667 12.8461538,729 20.8461538,721 C28.8461538,713 45.0128205,693.5 69.3461538,662.5 C93.6794872,631.5 111.179487,608 121.846154,592 C133.179487,576 145.512821,553.666667 158.846154,525 C173.512821,494.333333 187.179487,462.666667 199.846154,430 L211.846154,396 C215.846154,385.333333 218.679487,375.833333 220.346154,367.5 C222.012821,359.166667 223.846154,352.333333 225.846154,347 C227.179487,343.666667 227.512821,341.666667 226.846154,341 C226.179487,340.333333 223.512821,340.666667 218.846154,342 C208.846154,345.333333 194.012821,351.666667 174.346154,361 C154.679487,370.333333 141.179487,377 133.846154,381 C124.512821,387.666667 117.179487,391 111.846154,391 C106.512821,391 97.8461538,388.333333 85.8461538,383 C75.8461538,379 70.1794872,376 68.8461538,374 C67.5128205,372 68.5128205,367.666667 71.8461538,361 C74.5128205,351.666667 83.3461538,342.333333 98.3461538,333 C113.346154,323.666667 121.512821,319 122.846154,319 C124.179487,319 132.512821,315.666667 147.846154,309 C163.179487,302.333333 183.179487,295 207.846154,287 C224.512821,281.666667 235.012821,277.833333 239.346154,275.5 C243.679487,273.166667 246.846154,268.666667 248.846154,262 C256.179487,237.333333 270.512821,167.666667 291.846154,53 Z"></path>
        </g>
    </g>
</svg>