<?xml version="1.0" encoding="UTF-8"?>
<svg width="155px" height="495px" viewBox="0 0 155 495" version="1.1" xmlns="http://www.w3.org/2000/svg" xmlns:xlink="http://www.w3.org/1999/xlink">
    <title>bckSlash_xia_m</title>
    <g id="bckSlash_xia_m" stroke="none" stroke-width="1" fill="none" fill-rule="evenodd">
        <path d="M129.510466,215.611208 C134.419531,213.437392 140.025477,214.579299 143.53767,218.896481 C145.453756,221.251731 146.372212,223.947367 146.847873,227.228302 L146.910044,227.679353 L146.952122,228.000775 L146.973296,228.324246 C147.211917,231.969713 146.742429,236.267872 145.596124,241.326951 L145.330261,242.463761 L145.042192,243.625885 C144.693189,244.996566 144.299004,246.41947 143.860184,247.896483 L143.473135,249.17579 C143.274157,249.822112 143.067009,250.478473 142.851735,251.145019 L142.410363,252.491736 L141.947396,253.86588 L141.653061,254.721812 L141.150053,256.029261 L140.265217,258.305433 C140.117861,258.681952 139.970563,259.057049 139.823324,259.430726 L138.940578,261.655739 L138.059204,263.846665 C137.765639,264.571294 137.4723,265.290245 137.179184,266.00352 L136.300502,268.126321 L135.423139,270.215083 L134.547079,272.269821 L133.672304,274.290553 C133.526614,274.624508 133.380978,274.957047 133.235393,275.288171 L132.362514,277.257921 C132.217138,277.583381 132.071813,277.907427 131.926541,278.230057 L131.055517,280.148861 C130.910448,280.465833 130.76543,280.78139 130.620462,281.095533 L129.751256,282.963428 C129.46172,283.580405 129.172382,284.191729 128.88324,284.797402 L128.016396,286.597471 C127.872019,286.894658 127.72769,287.190433 127.583408,287.484797 L126.718291,289.234039 C125.277374,292.121218 123.841161,294.867292 122.409292,297.472592 L121.64,298.857 L121.503943,299.121035 C121.186006,299.741515 120.862368,300.407243 120.533285,301.117905 L120.135788,301.992245 L119.733163,302.909599 C119.665637,303.066069 119.597901,303.224326 119.529958,303.384368 L119.119826,304.366014 C119.051061,304.533184 118.982093,304.702134 118.912924,304.87286 L118.495507,305.918524 L118.073358,307.006713 C118.002611,307.191615 117.93167,307.378284 117.860539,307.566717 L117.431476,308.718468 L116.997927,309.912441 L116.559991,311.148513 L116.117768,312.426564 L115.671355,313.746471 L115.220851,315.108113 L114.766357,316.511368 L113.835023,319.4502 L113.337355,321.000624 L112.55718,323.391537 L112.01461,325.029025 L111.454072,326.701371 L110.579569,329.27529 L109.974096,331.034865 L109.032172,333.739717 L108.049778,336.523213 L107.372359,338.4226 L106.322488,341.337313 L105.600071,343.324237 L104.101218,347.403246 L101.827984,353.506617 L100.937689,355.923926 L100.304653,357.6654 L99.5069667,359.891327 L98.7623977,362.006705 L98.2389157,363.520172 L97.5876482,365.440012 L96.9898937,367.246929 L96.5767822,368.527491 L96.1939134,369.743684 L95.7305708,371.264514 L95.4185043,372.329095 L95.1368829,373.328092 L94.8857672,374.261141 L94.665218,375.127878 L94.5351965,375.668682 L94.4188051,376.179744 L94.2698136,376.890336 L94.2269843,377.112211 C93.338192,381.826878 92.3155954,386.791292 91.1592757,392.006414 L90.773871,393.732273 L90.6891606,394.024994 C88.5784712,401.318593 86.7613961,409.22242 85.241766,417.734829 L84.9765832,419.243678 L84.726523,420.714438 L84.4915645,422.146983 L84.2716869,423.541188 L84.0668693,424.896929 L83.8770906,426.214079 C83.846713,426.430381 83.816961,426.64507 83.7878344,426.858143 L83.6205751,428.117172 L83.4683025,429.337298 C83.3717784,430.137719 83.2852315,430.912121 83.2086339,431.660336 L83.1011961,432.762999 L83.0086614,433.826257 C82.9944797,434.000176 82.9809181,434.172448 82.9679761,434.34307 L82.8977568,435.346985 L82.8423883,436.311183 L82.8018497,437.235536 L82.7770953,438.074409 L82.7661466,438.809304 C82.7652941,438.926302 82.7649136,439.040522 82.7649839,439.151916 L82.7706469,439.785943 L82.776,440.031 L82.9295138,440.20222 C83.4708808,440.825192 83.9604048,441.494543 84.4308959,442.22999 L84.7111692,442.679347 L84.9884494,443.145514 C85.3027881,443.685762 85.6220224,444.276253 85.9483105,444.919829 L86.3433803,445.717784 L86.7460504,446.567795 L87.1571497,447.470952 C87.2264147,447.625968 87.2960654,447.783244 87.3661192,447.942803 L87.791416,448.92773 L88.2272137,449.968534 C88.3007677,450.146719 88.3747939,450.327277 88.4493093,450.510232 C91.1057831,457.032569 92.5047765,462.375737 92.5047765,466.95 C92.5047765,469.887751 91.6439913,473.030863 89.9181951,476.663142 L89.5351401,477.449079 C89.0727924,478.374981 88.5563626,479.332723 87.9857847,480.326739 L87.4834557,481.18774 C87.3115914,481.477771 87.1353053,481.770866 86.9545959,482.067129 L86.3991961,482.965525 C86.3044173,483.116877 86.2085323,483.269046 86.1115408,483.422046 L85.5163137,484.350118 L84.8945235,485.298751 L84.246161,486.268563 L83.5712168,487.260176 L82.8696819,488.27421 L81.8825466,489.677657 L81.1720001,490.511059 L80.3501429,491.463859 L79.5512962,492.376209 C79.4200337,492.52492 79.2897006,492.671963 79.1602825,492.817347 L78.3946357,493.669808 C78.1430017,493.947372 77.8949104,494.218369 77.6502447,494.482869 L76.9264078,495.256947 L76.2224229,495.992464 L75.5375884,496.689837 C73.6236904,498.612089 71.9319415,500.080088 70.3905019,501.136767 C66.5557215,503.765564 61.9846036,505 56.918227,505 C49.685147,505 43.1143968,502.67411 37.5924312,498.142369 L37.0881636,497.720192 L36.9979858,497.639829 C33.0610936,494.131393 29.4548536,489.661113 26.129372,484.25143 C22.672582,478.628143 20.7285977,474.296657 20.4258205,470.189056 L20.4022473,469.804592 L20.389,469.469 L20.3695626,469.388649 L20.3287451,469.239646 L20.2255311,468.901545 C20.205924,468.840822 20.1851122,468.777939 20.1630921,468.712938 L20.0164436,468.297835 C19.9895761,468.224523 19.9614933,468.149174 19.9321916,468.071829 L19.741726,467.584134 L19.6139643,467.270809 L19.3332042,466.610856 C19.2836105,466.497183 19.2326179,466.381676 19.1802281,466.264345 L18.8491398,465.538548 C18.7911693,465.413959 18.7318053,465.287566 18.6710499,465.159379 L18.2898345,464.368796 L17.8753126,463.535612 L17.4275736,462.660297 C17.3501873,462.510927 17.2714207,462.359821 17.1912756,462.206988 L16.6938785,461.26936 L16.1634877,460.290779 L15.0913376,458.349219 L14.5782287,457.432805 L13.5990618,455.710008 L12.6841201,454.135654 L12.0411378,453.053555 L11.4360434,452.057002 L11.0540685,451.440593 L10.6894918,450.862854 L10.3425369,450.324046 L10.0134273,449.824429 L9.70238669,449.364263 L9.40963877,448.943807 L9.122,448.546 L9.08563088,448.508166 C4.67779248,443.925071 3.5747971,437.605956 4.75404958,430.180213 L4.82909164,429.724198 L4.90814859,429.274471 C6.28694544,421.667981 9.07238813,416.05984 14.4642537,413.151631 L14.7976348,412.976957 L15.063,412.845 L15.2182333,412.685734 L15.4671997,412.409589 L15.7500545,412.075855 L16.0641038,411.685398 L16.4539393,411.176099 L16.8620317,410.617437 L17.2880017,410.009717 L17.73147,409.353244 L18.1920571,408.648324 L18.6693839,407.89526 L19.163071,407.094359 L19.672739,406.245924 L20.1980086,405.350261 L20.845526,404.219015 L22.6425699,401.342053 L24.3021231,398.671096 L25.9392894,396.022308 L27.5540674,393.395696 L29.1464559,390.791264 L30.7164533,388.209019 L32.2640584,385.648967 L33.7892698,383.111113 L35.2920862,380.595462 L36.7725062,378.102021 L38.2305284,375.630795 L39.6661515,373.18179 L41.0793742,370.755012 L42.4701951,368.350466 L43.8386128,365.968159 L45.184626,363.608095 L46.5082334,361.270281 L47.8094335,358.954722 L49.088225,356.661424 C49.2994895,356.281063 49.5098202,355.90163 49.7192172,355.523124 L50.9643933,353.263229 L52.1871575,351.025608 C52.3890838,350.654528 52.5900762,350.284376 52.7901347,349.915153 L53.9792784,347.710956 L55.1460068,345.529049 L56.2903184,343.369437 L57.4122121,341.232126 L58.5116863,339.117122 C58.6930636,338.766481 58.8735068,338.416769 59.0530157,338.067987 L60.1188583,335.986453 C60.2946302,335.641391 60.4694678,335.297259 60.6433711,334.954057 L61.675579,332.906007 L62.1832737,331.890356 L62.2741055,331.712604 L103.07538,253.796553 L105.491571,249.443088 L107.356482,246.111147 L109.127464,242.973812 L110.144894,241.184959 L112.077963,237.818066 L113.584994,235.227376 L114.72251,233.295822 L115.799384,231.489783 L116.815525,229.809426 L118.12217,227.674374 C122.080519,221.260314 125.339515,217.458176 129.510466,215.611208 Z M16.6431028,150.812903 C31.9541129,150.812903 46.9955354,155.278291 61.6331844,164.063993 L62.575,164.636 L74.6538376,170.128625 L74.0225906,196.648616 L73.4179729,221.280224 L59.4451459,230.174616 C59.1186831,230.382425 58.7984321,230.584613 58.4840799,230.781229 L57.5584067,231.354406 L56.6662483,231.894444 C56.5202438,231.981704 56.3755575,232.067597 56.2321503,232.152126 L55.3867431,232.643005 C51.7871115,234.699722 48.9992443,235.843716 46.3355072,236.182836 C42.8676368,236.62433 39.2457464,235.899431 34.9017691,234.286686 L34.3973041,234.096676 L33.2198429,233.646969 L32.190799,232.91915 L32.0089679,232.788742 L31.6363442,232.510764 C31.5732356,232.46252 31.5096216,232.413316 31.4454978,232.363148 L31.0546014,232.05055 L30.6512538,231.714646 L30.2352398,231.355257 L29.8063438,230.972202 L29.3643504,230.565301 L28.9090442,230.134374 L28.4402099,229.67924 L27.9576319,229.19972 L27.2075245,228.434321 L26.6896451,227.893045 L25.8855757,227.034168 L25.3310484,226.430011 L24.7614851,225.800386 L24.1766702,225.145112 L23.5763883,224.46401 L22.6464939,223.393534 L22.0066022,222.647072 L21.3504897,221.874151 L20.6779408,221.074589 L19.6378282,219.824904 L18.5595222,218.514266 L17.4422957,217.142066 L15.8908609,215.215654 L14.6799926,213.697445 L12.5696445,211.025489 L11.2428142,209.327657 L9.97085834,207.682076 L8.75346612,206.087877 L7.59032668,204.544193 L6.84488732,203.542703 L6.12333005,202.563021 L5.42556276,201.604888 L4.75149336,200.668046 L3.78462133,199.302144 L3.1693937,198.417406 L2.57754159,197.553058 L2.00897291,196.708844 L1.46359554,195.884506 L0.9413174,195.079787 C0.856190861,194.947287 0.772022952,194.815594 0.688811753,194.684703 L0.201009745,193.908928 C0.121617715,193.781221 0.043178559,193.654304 -0.0343096426,193.528172 L-0.487842747,192.780763 C-0.561534805,192.657751 -0.634279747,192.535513 -0.70607949,192.414045 L-1.12555092,191.694422 L-1.5224297,190.993001 C-1.58669856,190.8776 -1.65002989,190.762947 -1.71242562,190.649036 L-2.07558811,189.974436 L-2.4163882,189.317394 C-2.4713298,189.209336 -2.52534347,189.101999 -2.57843113,188.995377 L-2.88586032,188.364191 C-3.0834255,187.949067 -3.26623592,187.54522 -3.43441438,187.152306 L-3.67572345,186.571092 C-3.82930065,186.189026 -3.9683073,185.817721 -4.0928662,185.456835 L-4.20609636,185.116245 C-4.87638802,183.125102 -5.76035474,181.105914 -6.86427967,179.05758 L-7.24040986,178.373721 C-10.172215,173.148254 -10.8165161,167.406443 -8.94434626,161.845045 C-7.15425519,156.527467 -2.87168157,153.665095 2.73586502,152.195309 C6.3894253,151.23768 10.9652796,150.812903 16.6431028,150.812903 Z M93.000403,-6.56184697 C103.860964,-8.76518915 113.650676,-8.46504454 122.269303,-5.47258286 C130.695785,-2.54683555 139.395127,3.22145505 148.574533,11.7615502 L149.516521,12.651672 L150.426139,13.5245756 L151.30354,14.3807193 C151.447098,14.5220388 151.589319,14.6626789 151.730208,14.8026494 L152.559572,15.6345123 C152.830713,15.909172 153.096548,16.1812294 153.357103,16.4507606 L154.122955,17.2518526 C154.372976,17.5164081 154.617743,17.7785139 154.857281,18.0382464 L155.560234,18.8104001 L156.231968,19.568772 C158.856669,22.5753065 160.735792,25.2620717 161.913523,27.7610182 C164.048512,32.2911018 165,37.8094201 165,44.3903226 C165,59.9817023 159.545027,73.1135301 148.76375,83.0958038 C136.977564,94.0085123 123.497753,95.9913537 111.018892,87.97166 L110.522848,87.6475458 L110.410605,87.5689531 C106.287356,84.6818371 102.170258,80.470814 97.9727725,74.9100831 L97.1847808,73.8516228 C95.2123409,71.1658985 93.2210495,68.1832532 91.2019933,64.9010294 L90.3928689,63.5721561 L89.5806561,62.2112899 L88.7652283,60.8183932 L87.9464586,59.393428 C87.8097114,59.1532593 87.6728198,58.9117529 87.5357809,58.668908 L86.7117607,57.1957693 C86.5741227,56.947567 86.4363321,56.6980246 86.2983865,56.4471412 C78.2964043,41.893841 73.4309458,28.7058393 71.8009815,16.7819043 L71.692,15.949 L71.571642,15.3853391 C71.1501093,13.3483909 70.9312695,11.4763111 70.9484238,9.70708069 L70.9606832,9.17933502 L70.9845306,8.70067136 C71.2249271,4.87506524 72.6343326,1.38612567 75.8046044,-1.13641666 C76.8192426,-1.9437505 77.9907785,-2.62243201 79.4085539,-3.22310749 L79.9519366,-3.44480319 C80.4146651,-3.62666735 80.902531,-3.80153198 81.4182608,-3.97094268 L82.0506858,-4.17171655 C82.1583772,-4.20477552 82.2672268,-4.23764106 82.3772564,-4.27032554 L83.0517685,-4.46435858 L83.7556473,-4.65463963 C83.8754658,-4.68607344 83.9965516,-4.71737565 84.1189264,-4.74855863 L84.8688185,-4.93432451 L85.6506947,-5.11782218 L86.4656022,-5.29964514 C86.6042308,-5.32984239 86.7442794,-5.35999458 86.8857697,-5.39011408 L87.752187,-5.57053782 L89.1189813,-5.84100091 L90.5695184,-6.11303752 L91.584812,-6.29625862 L92.478,-6.453 L93.000403,-6.56184697 Z" id="江" fill="#000000" fill-rule="nonzero"></path>
    </g>
</svg>