<?xml version="1.0" encoding="UTF-8"?>
<svg width="1000px" height="1000px" viewBox="0 0 1000 1000" version="1.1" xmlns="http://www.w3.org/2000/svg" xmlns:xlink="http://www.w3.org/1999/xlink">
    <title>d_zhong_l</title>
    <g id="d_zhong_l" stroke="none" stroke-width="1" fill="none" fill-rule="evenodd">
        <g id="中-copy" transform="translate(154.000000, 0.000000)" fill="#000000" fill-rule="nonzero">
            <path d="M255.130366,20.3426124 C260.837476,6.78087081 265.117809,0 267.971364,0 C272.251697,0 280.098974,3.21199143 291.513195,9.6359743 C302.927416,16.0599572 312.201471,22.48394 319.335359,28.9079229 C335.029912,43.1834404 340.380328,62.455389 335.386607,86.7237687 C333.24644,97.4304069 332.533052,114.917916 333.24644,139.186296 L334.316524,174.518201 L358.928437,174.518201 C375.33638,175.231977 389.782503,177.908637 402.266808,182.54818 C414.751112,187.187723 425.095249,189.507495 433.299221,189.507495 C441.503192,189.507495 456.662704,191.648822 478.777757,195.931478 C500.89281,200.214133 513.733809,200.927909 517.300753,198.072805 C520.867697,195.217702 524.791335,193.79015 529.071668,193.79015 C533.352001,193.79015 536.205556,192.00571 537.632334,188.436831 C539.059112,184.867951 544.587875,186.117059 554.218624,192.184154 C563.849373,198.251249 571.518302,200.571021 577.225413,199.143469 C582.932523,197.715917 590.7798,202.35546 600.767243,213.062099 C610.754687,223.768737 621.098824,233.226267 631.799657,241.43469 C642.500489,249.643112 648.742641,254.282655 650.526113,255.353319 C652.309585,256.423983 653.91471,264.810849 655.341487,280.513919 C656.768265,293.361884 655.876529,304.42541 652.666279,313.704497 C649.45603,322.983583 645.354044,327.623126 640.360322,327.623126 C636.079989,327.623126 631.442962,330.121342 626.449241,335.117773 L599.69716,364.025696 C586.856162,377.587438 575.798635,393.290507 566.524581,411.134904 C552.256804,440.399714 527.288196,472.162741 491.618756,506.423983 C479.491146,518.558173 468.43362,524.625268 458.446176,524.625268 C452.739066,524.625268 448.993774,523.733048 447.210302,521.948608 C445.42683,520.164168 442.394928,514.275517 438.114595,504.282655 C433.834262,490.720914 428.127152,480.371163 420.993264,473.233405 C415.999542,467.523198 411.00582,463.954318 406.012099,462.526767 C401.018377,461.099215 389.604156,460.385439 371.769436,460.385439 C345.37405,459.671663 331.106274,460.563883 328.966108,463.062099 C326.825941,465.560314 325.220816,487.508922 324.150733,528.907923 C323.08065,570.306924 321.475525,592.969308 319.335359,596.895075 C317.195192,600.820842 315.946762,622.947894 315.590067,663.276231 C315.233373,703.604568 314.519984,724.8394 313.449901,726.980728 C312.379818,729.122056 310.774693,743.754461 308.634526,770.877944 C305.067582,840.114204 301.500638,881.513205 297.933694,895.074946 C295.793528,905.067809 294.188403,919.52177 293.11832,938.436831 C292.048237,957.351892 290.443112,967.523198 288.302945,968.950749 C286.162779,970.378301 285.092696,973.947181 285.092696,979.657388 C285.092696,985.367595 283.844265,988.222698 281.347405,988.222698 C278.850544,988.222698 277.602113,990.185582 277.602113,994.111349 C277.602113,998.037116 274.748558,1000 269.041448,1000 C263.334337,1000 257.270532,992.862241 250.850033,978.586724 C238.009034,947.180585 233.728702,911.491792 238.009034,871.520343 C240.86259,845.824411 240.86259,824.768023 238.009034,808.351178 C235.155479,791.934333 235.155479,773.019272 238.009034,751.605996 C240.86259,729.478944 241.575979,659.17202 240.149201,540.685225 L239.079118,475.374732 L227.308202,475.374732 C219.460925,475.374732 206.263233,478.943612 187.715123,486.08137 C174.874125,491.077802 166.670154,495.003569 163.10321,497.858672 C159.536266,500.713776 156.68271,506.067095 154.542544,513.91863 C151.688989,524.625268 147.943697,529.978587 143.30667,529.978587 C138.669643,529.978587 129.752283,524.803712 116.55459,514.453961 C103.356897,504.104211 97.2930921,497.858672 98.3631753,495.717345 C99.4332585,493.576017 97.4714393,488.579586 92.4777176,480.728051 C79.6367191,461.456103 62.8720821,427.551749 42.1838066,379.014989 C21.4955312,330.47823 7.58444943,292.648108 0.450561353,265.524625 C-0.976216264,259.100642 0.985602959,253.390435 6.33601902,248.394004 C11.6864351,243.397573 24.3490864,234.475375 44.3239731,221.627409 C64.2988597,209.493219 80.3501079,201.820128 92.4777176,198.608137 C104.605327,195.396146 124.580214,192.362598 152.402377,189.507495 L218.747537,180.942184 L244.429534,178.800857 L245.499617,109.207709 C245.499617,78.5153462 246.034659,58.1727338 247.104742,48.1798715 C248.174825,38.1870093 250.850033,28.9079229 255.130366,20.3426124 Z M422.063347,231.263383 C404.942016,228.40828 391.387628,225.553176 381.400185,222.698073 C371.412742,219.842969 363.922159,218.415418 358.928437,218.415418 C346.087439,219.129193 338.240162,222.876517 335.386607,229.657388 C332.533052,236.438258 330.392885,254.817987 328.966108,284.796574 C327.53933,309.778729 326.112552,329.764454 324.685775,344.753747 L322.545608,368.308351 L340.737023,372.591006 C353.578021,376.873662 363.20877,379.014989 369.62927,379.014989 C375.33638,379.014989 383.718699,382.048537 394.776225,388.115632 C405.833752,394.182727 411.362515,399.000714 411.362515,402.569593 C411.362515,413.276231 419.923181,414.346895 437.044512,405.781585 C446.318566,402.212705 454.522538,396.14561 461.656426,387.5803 C472.357258,376.873662 480.561229,365.631692 486.26834,353.85439 C491.97545,342.077088 496.255783,335.117773 499.109338,332.976445 C503.389671,331.548894 508.740087,322.983583 515.160586,307.280514 C521.581086,291.577445 524.791335,280.157031 524.791335,273.019272 C524.791335,268.022841 523.721252,264.453961 521.581086,262.312634 C519.440919,260.171306 514.803892,257.673091 507.670004,254.817987 C474.14073,242.683797 445.605178,234.832263 422.063347,231.263383 Z M245.499617,223.768737 L228.378287,223.768737 C203.409677,223.054961 175.944208,225.910064 145.981878,232.334047 C116.019548,238.75803 93.1911064,246.966453 77.4965526,256.959315 C76.7831638,256.959315 75.7130806,257.316203 74.286303,258.029979 C61.4453045,266.595289 54.6681108,273.554604 53.954722,278.907923 C53.2413332,284.261242 57.521666,299.428979 66.7957205,324.411135 C67.5091093,326.552463 68.2224981,328.336902 68.9358869,329.764454 C71.7894422,337.615989 78.9233303,352.605282 90.3375512,374.732334 C91.05094,377.587438 92.1210232,380.442541 93.5478008,383.297645 C100.681689,397.573162 107.458883,405.424697 113.879382,406.852248 C120.299881,408.2798 138.134601,406.49536 167.383542,401.498929 C173.804042,400.785153 179.154458,400.071378 183.434791,399.357602 C207.69001,394.361171 223.206217,390.970735 229.98341,389.186296 C236.760604,387.401856 240.505895,384.725196 241.219284,381.156317 C242.646062,374.732334 243.716145,346.895075 244.429534,297.64454 L245.499617,223.768737 Z" id="中"></path>
        </g>
    </g>
</svg>