<?xml version="1.0" encoding="UTF-8"?>
<svg width="1000px" height="1000px" viewBox="0 0 1000 1000" version="1.1" xmlns="http://www.w3.org/2000/svg" xmlns:xlink="http://www.w3.org/1999/xlink">
    <title>f_index_l</title>
    <g id="f_index_l" stroke="none" stroke-width="1" fill="none" fill-rule="evenodd">
        <g id="亻-copy" transform="translate(215.000000, 0.000000)" fill="#000000" fill-rule="nonzero">
            <path d="M337.236234,390.493228 C341.840142,380.52645 345.484902,374.968055 348.170515,373.818042 C350.856128,372.66803 357.953819,374.393049 369.463588,378.9931 C388.646536,385.126501 401.690941,394.709941 408.596803,407.743419 C415.502664,420.776898 418.955595,440.327115 418.955595,466.394071 C418.955595,493.227703 417.612789,507.411193 414.927176,508.944544 C412.241563,510.477894 409.74778,527.728086 407.445826,560.695119 L400.539964,660.746231 C399.005329,696.013289 398.62167,727.063634 399.388988,753.897266 C401.690941,895.732175 400.539964,967.416305 395.936057,968.949655 C392.099467,971.249681 390.181172,973.933044 390.181172,976.999744 C390.181172,982.366471 385.385435,987.541528 375.793961,992.524917 C366.202487,997.508306 356.419183,1000 346.44405,1000 C336.468917,1000 327.069272,997.891643 318.245115,993.67493 C309.420959,989.458216 305.008881,984.283159 305.008881,978.149757 C305.008881,975.083056 301.939609,967.032967 295.801066,953.999489 C283.523979,932.532584 281.605684,903.398927 290.046181,866.598518 C302.323268,811.397904 310.380107,723.230258 314.216696,602.095579 C317.285968,528.494761 319.779751,479.427549 321.698046,454.893943 C323.616341,430.360337 328.795737,408.893432 337.236234,390.493228 Z M431.616341,10.989011 C436.220249,4.08893432 439.28952,0.447227191 440.824156,0.0638895988 C442.358792,-0.319447994 448.497336,1.02223358 459.239787,4.08893432 C467.680284,7.15563506 479.765542,15.7807309 495.49556,29.9642218 C511.225577,44.1477128 524.078153,58.5228725 534.053286,73.089701 C537.122558,78.4564273 539.040853,82.481472 539.808171,85.1648352 C540.575488,87.8481983 539.040853,92.2565806 535.204263,98.3899821 C530.600355,108.35676 524.269982,114.873499 516.213144,117.940199 C508.156306,121.0069 504.127886,123.881932 504.127886,126.565295 C504.127886,129.248658 497.605684,137.107079 484.561279,150.140557 C471.516874,163.174035 464.994671,171.224125 464.994671,174.290825 C464.227353,178.890877 415.886323,229.874776 319.971581,327.242525 C310.763766,335.675952 291.964476,351.392793 263.573712,374.393049 C202.188277,422.693585 161.136767,459.110657 140.419183,483.644263 C113.563055,515.84462 86.3232682,541.528239 58.6998224,560.695119 C50.259325,564.528495 41.6269982,568.553539 32.8028419,572.770253 C23.9786856,576.986967 16.6891652,579.861998 10.9342806,581.395349 C5.17939609,582.928699 1.53463588,582.162024 0,579.095323 C0,573.728597 13.044405,557.245081 39.1332149,529.644774 C52.1776199,515.84462 66.7566607,498.211091 82.8703375,476.744186 C98.9840142,455.277281 112.412078,438.793764 123.154529,427.293637 L157.683837,383.593151 C170.728242,368.259647 180.319716,357.526195 186.458259,351.392793 C197.968028,339.12599 220.795737,309.225658 254.941385,261.691797 C289.087034,214.157935 311.147425,181.190902 321.122558,162.790698 C327.261101,151.29057 340.305506,132.890365 360.255773,107.590084 C380.206039,82.2898032 390.181172,68.2979811 390.181172,65.6146179 C390.181172,62.9312548 395.552398,55.2645029 406.294849,42.6143624 C417.0373,29.9642218 425.477798,19.422438 431.616341,10.989011 Z" id="亻"></path>
        </g>
    </g>
</svg>