<?xml version="1.0" encoding="UTF-8"?>
<svg width="260px" height="145px" viewBox="0 0 260 145" version="1.1" xmlns="http://www.w3.org/2000/svg" xmlns:xlink="http://www.w3.org/1999/xlink">
    <title>fwdSlash_shang_s</title>
    <g id="fwdSlash_shang_s" stroke="none" stroke-width="1" fill="none" fill-rule="evenodd">
        <path d="M103.463304,-5.71545574 C100.869436,-4.64739236 98.5506861,-2.89076359 96.4657595,-0.545221247 L96.2004458,-0.246743352 L95.9683284,0.0782210916 C94.219378,2.52675165 93.2841784,4.39715082 93.2841784,7.01180958 L93.2878487,7.29041589 C93.3338979,9.02009587 93.8146511,10.4789016 94.8084012,12.576672 L95.180565,13.3450745 L95.296131,13.5803531 L95.3394606,13.735221 L95.3647698,13.8355646 C95.3901859,13.9396114 95.415717,14.0538044 95.4412091,14.177881 L95.5174142,14.5794996 C95.5300441,14.6512903 95.5426257,14.7254864 95.5551398,14.802055 L95.629259,15.2896742 C95.6414257,15.3756016 95.6534863,15.4638359 95.6654214,15.5543443 L95.7446837,16.2061608 C95.7573815,16.3193834 95.7698213,16.4348936 95.7820004,16.5526824 L95.8519247,17.2866913 C95.8741755,17.5404295 95.8953618,17.8032132 95.9154622,18.0749727 L95.9724839,18.917109 L96.0228608,19.8126823 L96.0664637,20.7612747 L96.1031635,21.7624685 L96.1491467,23.5110962 L96.1723326,24.8091195 L96.1926352,26.6946045 L96.201307,28.815497 L96.1591689,37.515316 L95.86,63.092 L95.7092299,67.3964616 L95.4843316,73.2189206 L95.290109,77.6861359 L95.1480159,80.5982612 L95.0301867,82.7688852 L94.908043,84.7700123 L94.7895744,86.4517102 L94.7204679,87.3057839 L94.654081,88.0311443 L94.5921386,88.6156864 L94.529,89.096 L94.43674,89.4417915 L94.284438,90.0309049 C93.7321289,92.2127093 93.2469584,94.6342684 92.818847,97.3223773 L92.703,98.059 L92.4476178,98.0085677 C92.1683291,97.9521252 91.8769593,97.8909646 91.5737487,97.8250694 L90.4878575,97.5806297 L90.3457298,97.5535578 C85.8665661,96.7003838 81.7967719,96.5888825 78.1210223,97.300318 L77.8137569,97.3621846 C74.2456552,98.1087568 71.267293,99.7242125 69.572,102.321 L68.7681215,102.578471 L67.8452117,102.86075 L66.8286508,103.160363 L65.3258384,103.587408 L64.0885009,103.92825 L61.8170458,104.535223 L59.2850498,105.190476 L57.0726325,105.749173 L53.4440117,106.644227 L51.3608834,107.143472 L49.3370359,107.640638 L47.3721054,108.136094 L46.0947038,108.465628 L44.843218,108.794673 L43.0143456,109.287562 L41.8271778,109.615861 L40.6655485,109.944051 L39.5293499,110.272241 L38.4184743,110.600541 L37.3328138,110.929058 L36.2722606,111.257902 L35.236707,111.587181 L34.2260451,111.917003 L33.2401671,112.247478 C33.0779135,112.302618 32.916688,112.357789 32.7564884,112.412994 L31.8075842,112.744652 C31.6514794,112.800002 31.496396,112.855391 31.3423318,112.91082 L30.4301588,113.243905 C30.2801624,113.299507 30.1311806,113.355154 29.9832113,113.410848 L29.107527,113.745604 L28.2560338,114.081611 L27.4286237,114.418976 L26.6251891,114.757809 C26.4932753,114.814409 26.362356,114.871076 26.2324289,114.92781 L25.4647553,115.269048 C25.3387882,115.326063 25.2138088,115.38315 25.089815,115.440313 L24.3576598,115.784201 C24.1175382,115.899141 23.8813405,116.014399 23.6490489,116.129991 L22.9638745,116.477793 L22.3020286,116.827714 C21.7601807,117.120229 21.2425212,117.415065 20.7487693,117.712505 L20.1677247,118.070702 C20.0727906,118.130616 19.9788082,118.190638 19.8857755,118.250772 L19.3389557,118.612923 L18.8148178,118.977845 C18.5584014,119.161018 18.3104502,119.345271 18.0709036,119.530665 L17.6029986,119.902993 C16.6134066,120.71308 15.7808757,121.545365 15.1004716,122.404822 C13.0568514,125.031883 11.8800829,127.150066 11.5959607,129.707166 C11.3588397,131.841255 11.7662296,133.904945 12.6323488,136.047546 L12.8868955,136.652822 L12.9854603,136.849952 C14.5081263,139.895284 17.1525203,142.539678 20.8507324,145.082198 L21.1287182,145.273314 L21.4227392,145.4387 C24.5353113,147.189522 28.3087859,148.887586 32.7634809,150.558096 L33.2362383,150.734124 L34.152685,151.067287 C34.3022809,151.120698 34.4503324,151.173043 34.5968819,151.224315 L35.4584923,151.518986 C39.6798044,152.927185 42.6254057,153.352567 45.4376514,152.549069 C47.362035,151.999245 49.2860102,150.860782 51.6310548,149.012754 L52.3128893,148.465334 C52.4285594,148.370844 52.5452753,148.274719 52.6630825,148.176947 L53.383386,147.570427 C53.5057406,147.466009 53.6292776,147.359917 53.7540425,147.252138 L54.5177302,146.585109 L54.7379871,146.390765 L54.9423695,146.17979 C55.5133891,145.59035 56.2433504,144.984178 57.1302918,144.36372 L57.5868351,144.052311 C57.6651029,144.000215 57.7444586,143.948023 57.824901,143.895735 L58.3205871,143.580883 L58.8423004,143.263819 L59.3899864,142.944611 L59.9635905,142.623329 C60.061348,142.569612 60.1601832,142.515812 60.2600949,142.46193 L60.872474,142.137662 L61.5106352,141.811488 L62.1745238,141.483476 L62.8640853,141.153695 L63.5792654,140.822212 C63.7005939,140.766827 63.8229876,140.711374 63.9464453,140.655854 L64.6999509,140.321945 L65.4789388,139.986505 L66.2833544,139.649601 L67.1131434,139.311301 L67.9682511,138.971673 L68.8486232,138.630784 L69.754205,138.288704 L70.6849423,137.945499 L71.6407803,137.601238 L72.6216648,137.255988 L73.6275411,136.909818 L74.6583548,136.562795 L75.7140514,136.214988 L77.3441326,135.691955 L78.4617981,135.342483 L79.6041558,134.992465 L80.7711512,134.641967 L82.5677208,134.115472 C82.7704057,134.05693 82.9741115,133.998375 83.1788371,133.939808 L85.0488704,133.412436 L86.9737868,132.884675 L88.2874642,132.532731 L89.6253979,132.180784 C89.8504052,132.122129 90.0764209,132.063478 90.3034439,132.00483 L90.5186051,131.945819 L94.239,130.864 L96.5921034,133.216272 L97.2494024,133.865707 L97.880847,134.480117 L98.4883259,135.060025 C98.5876802,135.15383 98.6861147,135.24622 98.7836686,135.337204 L99.3587406,135.866344 C102.749553,138.941085 105.101213,140.223559 108.249654,140.223559 C112.090246,140.223559 115.134735,138.241101 118.993863,134.515047 L119.343546,134.175216 C121.410173,132.153042 122.91031,130.42728 123.847081,128.661815 L123.972,128.417 L124.783302,128.376899 L125.99411,128.326609 L128.17949,128.256733 L130.427892,128.203642 L133.488074,128.151792 L136.942484,128.112925 L142.160162,128.081376 L146.531186,128.072982 L152.435192,128.08063 L160.541747,128.117453 L166.650687,128.161821 L173.740521,128.235676 L178.777884,128.306911 L182.763099,128.377553 L187.598754,128.485473 L190.343388,128.560878 L193.306116,128.657703 L195.361834,128.737814 L197.238841,128.822702 L199.243708,128.928714 L200.965031,129.036752 L202.172561,129.12642 L202.98411,129.196815 L203.798506,129.281847 L204.177278,129.330698 L204.471469,129.37752 L204.679292,129.42198 L204.929993,129.487954 L205.424575,129.584506 C206.320617,129.772391 207.395923,130.089156 208.641695,130.534812 L209.338059,130.79068 L210.067918,131.072113 C210.192334,131.121149 210.318133,131.17125 210.445308,131.222416 L211.224813,131.542198 C211.357464,131.597626 211.491478,131.654119 211.626848,131.711677 L212.455285,132.069808 L213.315947,132.453507 C213.462058,132.519587 213.609499,132.586733 213.758263,132.654944 L214.666668,133.076994 L215.606504,133.524612 L216.577454,133.997798 L217.579202,134.496553 L218.481,134.954 L219.36428,135.450251 L220.358696,135.999367 C220.521665,136.0885 220.68326,136.17644 220.843496,136.263191 L221.788707,136.769437 L222.701967,137.247244 L223.583956,137.696724 L224.435357,138.117991 C225.271691,138.525189 226.063163,138.890237 226.812839,139.213642 L227.548697,139.523186 C228.993004,140.114587 230.274215,140.540097 231.416857,140.803784 C235.311199,141.702478 239.425205,141.153944 243.681833,139.401215 C249.904669,136.85553 253.891979,131.424539 255.601634,123.975329 C257.302232,116.56558 256.202004,110.032979 251.856027,105.107539 C249.63112,102.604442 246.555013,100.61402 242.622168,98.928515 C238.880106,97.3247741 235.276598,96.3823183 231.800184,96.1505573 L231.551015,96.133946 L231.301292,96.133946 C229.574934,96.133946 227.143695,95.7862849 224.076251,95.0675768 L223.137001,94.8408096 C222.977301,94.8011521 222.816028,94.760561 222.65319,94.7190336 L221.657453,94.4586091 C215.656218,92.8511353 210.838418,92.449652 206.844455,93.5907842 L206.573653,93.6721872 L206.348444,93.7247186 L206.154125,93.7611106 L205.797445,93.8175286 L205.516815,93.8562283 L204.668404,93.9561236 L203.615574,94.0593799 L202.365006,94.1645805 L200.923382,94.2703089 L199.297384,94.3751483 L197.112219,94.4977877 L194.254861,94.6334052 L192.020438,94.723315 L188.151176,94.853632 L183.883425,94.9701826 L179.908421,95.0591101 L174.901437,95.1500381 L168.692322,95.2370233 L162.8337,95.2982956 L155.652095,95.3513328 L153.775738,95.3617571 L132.225,95.552 L132.225187,94.1090285 C132.225187,94.0453752 132.228273,93.9755999 132.234898,93.8988387 L132.247545,93.7783494 C132.257263,93.6989487 132.267758,93.6216756 132.279712,93.5446168 L132.336915,93.2329892 L132.395846,92.9843989 L132.503555,92.6112929 L132.61148,92.2853427 L132.698624,92.0397025 L132.914821,91.4650994 L133.194963,90.7567227 L133.985795,88.8298012 L134.439091,87.737525 L134.810303,86.8207552 C135.045293,86.2301479 135.256317,85.677261 135.449407,85.1415453 L135.573,84.79 L135.78829,84.8091984 C140.428657,85.1937892 146.229413,84.7303122 153.34074,83.5183257 L154.193173,83.3706157 L155.401072,83.1244911 C155.580485,83.0886308 155.758229,83.0534289 155.9343,83.0188849 L156.9706,82.8195094 L157.966475,82.6358943 C158.12907,82.6066036 158.289971,82.5779686 158.449171,82.5499885 L159.38392,82.3899636 L160.277593,82.2456321 L161.12993,82.116967 L161.940671,82.0039417 L162.709557,81.9065293 L163.436326,81.824703 C163.671534,81.8000223 163.899679,81.7779348 164.120719,81.758436 L164.762476,81.7077015 L165.067284,81.6881505 C168.975183,81.4439573 172.176965,80.6435116 174.780186,79.0164988 C177.448994,77.3484937 179.525972,74.6958529 181.399165,71.0636996 L181.708471,70.4521987 L181.777664,70.2965157 C182.853232,67.876488 183.453798,65.7745059 183.453798,63.6464544 C183.453798,62.0587852 183.138434,60.2776166 182.540566,58.0135321 L182.313895,57.1752742 L182.171542,56.8092242 C180.504664,52.5229651 178.290982,49.2024417 175.305194,46.9631009 C172.652924,44.9738985 168.901729,43.5316791 163.796935,42.3142235 L161.806263,41.8450934 L159.713848,41.3331229 L158.62371,41.0543457 L157.659709,40.7974885 L156.834666,40.566224 L156.162203,40.3651488 L155.606739,40.1825126 L155.482,40.136 L155.331291,40.0639298 C151.628651,38.3428327 148.069382,39.1499053 144.593795,41.3748133 L144.186,41.642 L143.68425,41.8310831 L142.833522,42.131017 L141.731745,42.5033329 L140.097247,43.0373485 L138.49071,43.5481358 L137.194,43.952 L137.233989,43.5841177 L137.407371,43.1564258 L137.723938,42.429123 L139.456127,38.629091 L139.801461,37.8515542 L139.964207,37.4786102 C141.654741,33.5795679 142.522395,30.8901645 142.522395,28.1210863 C142.522395,24.9559454 141.631997,21.3387019 139.949786,17.028036 L139.777601,16.590601 C138.518747,13.4209589 137.338152,11.0889381 135.825885,9.38939908 L135.764,9.322 L135.747213,9.1507321 C135.312523,5.31272132 133.170645,2.03623734 129.826696,-0.4353776 C126.617555,-2.8073509 123.065289,-4.09221327 119.319153,-4.09221327 C118.262133,-4.09221327 117.263935,-4.33178075 116.2375,-4.84499842 C115.965054,-4.98122124 115.702699,-5.11053023 115.449248,-5.23310966 L114.714422,-5.58084352 C113.056621,-6.34597549 111.777009,-6.79038772 110.46875,-6.97728181 C108.136577,-7.31044944 106.100935,-6.80153882 103.463304,-5.71545574 Z" id="上" fill="#000000" fill-rule="nonzero"></path>
    </g>
</svg>