<?xml version="1.0" encoding="UTF-8"?>
<svg width="1000px" height="1000px" viewBox="0 0 1000 1000" version="1.1" xmlns="http://www.w3.org/2000/svg" xmlns:xlink="http://www.w3.org/1999/xlink">
    <title>I_dacuo_l</title>
    <g id="I_dacuo_l" stroke="none" stroke-width="1" fill="none" fill-rule="evenodd">
        <path d="M468.853945,618.091637 C479.11136,623.561679 489.368774,631.253925 499.626189,641.168376 C509.883604,651.082826 516.038053,658.433194 518.089536,663.219481 C519.457191,670.740788 521.337717,676.21083 523.731114,679.629606 C526.12451,683.048382 527.663123,688.860301 528.34695,697.065364 L529.372692,710.39859 L579.634024,710.39859 C667.163962,710.39859 737.598209,706.296059 790.936766,698.090996 C833.334079,692.620955 867.867375,702.193528 894.536654,726.808715 C906.845551,738.432554 913,749.372637 913,759.628965 C913,776.03909 904.281198,788.517623 886.843593,797.064563 C869.405988,805.611503 849.404029,807.149952 826.837717,801.67991 C811.109681,796.893624 795.210688,793.816725 779.140739,792.449215 C763.070789,791.081705 739.991606,788.346684 709.90319,784.244153 C685.969222,780.825376 651.606883,778.603172 606.816172,777.577539 C595.170588,777.310875 584.877135,777.17132 575.935815,777.158876 L573.896436,777.158261 C549.711914,777.177953 535.896407,778.172406 532.449916,780.141621 C529.030778,782.876642 526.466424,795.697052 524.756855,818.602852 C523.936262,829.597635 521.185634,855.834143 518.319991,882.113186 L517.961318,885.397188 C514.969572,912.747397 511.935087,939.456584 510.909345,948.345402 C508.857862,966.123037 504.071069,979.456264 496.548965,988.345082 C480.137101,1005.43896 462.015669,1003.72957 442.184667,983.216918 C429.875769,971.593079 422.182708,952.789811 419.105484,926.807113 C416.02826,900.824415 410.899552,792.962031 407.822328,789.885133 C404.745104,786.808235 389.017068,786.637296 360.63822,789.372317 C332.259373,792.107337 310.889759,795.526113 296.529379,799.628645 C284.220481,804.414931 267.808618,808.517462 247.293788,811.936238 C231.565753,813.987504 212.247622,818.77379 189.339396,826.295098 C188.558433,826.551506 187.786809,826.806325 187.024523,827.059554 L185.512402,827.563895 C164.766967,834.511285 151.16938,840.24215 144.719642,844.756488 C135.146055,850.910285 121.811416,852.277796 104.715725,848.85902 C87.6200336,845.440244 76.3368774,839.286447 70.8662563,830.397629 C66.0794628,824.243832 65.737549,816.03877 69.8405148,805.782442 C74.6273083,795.526113 84.3718523,787.49199 99.0741466,781.68007 C113.776441,775.868151 143.6939,767.834028 188.826525,757.577699 L309.864018,730.911246 C326.959709,727.49247 346.961668,725.099327 369.869894,723.731817 C392.77812,722.364306 404.91606,721.338674 406.283716,720.654918 C409.019026,720.654918 410.386682,716.210509 410.386682,707.321692 C410.386682,698.432874 409.019026,690.911567 406.283716,684.75777 C404.232233,677.920218 404.40319,670.569849 406.796586,662.706665 C409.189983,654.84348 413.121992,649.202499 418.592613,645.783723 C421.327924,643.732458 422.695579,641.339314 422.695579,638.604293 C422.695579,635.869273 425.088976,630.741109 429.875769,623.219801 C438.765529,610.228452 451.758254,608.519064 468.853945,618.091637 Z M430.855796,1.05947651 C434.166546,-0.225483543 437.464262,-0.225483543 441.01278,0.442270223 C443.223932,0.858360703 445.630574,1.57859967 448.363759,2.59696449 L448.363759,2.59696449 L448.720943,2.72848167 C449.545075,3.02826957 450.303899,3.27861774 450.992609,3.48286323 L450.992609,3.48286323 L451.565648,3.64671818 C452.954758,4.02851858 454.015607,4.20300108 454.700899,4.20300108 L454.700899,4.20300108 L454.994316,4.20536534 C458.025565,4.25424954 461.038459,5.06189832 464.41751,6.69399624 L464.41751,6.69399624 L465.076196,7.02019869 C465.960814,7.46890885 466.87147,7.97280731 467.814771,8.53302295 L467.814771,8.53302295 L468.528472,8.9637618 L469.255034,9.41572542 L469.995077,9.88901965 C470.119575,9.96968545 470.244661,10.0512444 470.370347,10.1336988 L470.370347,10.1336988 L471.131774,10.6391874 L471.90823,11.1662712 L472.700336,11.715056 L473.508711,12.2856476 L474.753132,13.1826544 L475.60489,13.8082263 L476.475086,14.4559753 L477.364338,15.1260075 L478.273267,15.8184286 L479.202491,16.5333445 L496.031129,29.5955411 L496.031129,42.0634209 L496.02734,42.9378591 L496.015574,43.7849662 L495.995227,44.6053762 L495.965697,45.3997231 C495.954256,45.6602321 495.941185,45.9165028 495.926382,46.1686411 L495.926382,46.1686411 L495.876681,46.912764 C495.849133,47.2787324 495.817464,47.6356404 495.781336,47.9838447 L495.781336,47.9838447 L495.703032,48.668754 C495.238554,52.3730902 494.20713,55.0530449 492.157904,57.1833071 L492.157904,57.1833071 L492.121628,57.2192453 L492.042091,57.4684446 L491.939669,57.8408912 C491.92301,57.9067248 491.906563,57.9744344 491.890337,58.0440148 L491.890337,58.0440148 L491.795709,58.4839046 C491.7651,58.6379896 491.735451,58.7995157 491.706837,58.9684406 L491.706837,58.9684406 L491.624169,59.49737 C491.597697,59.6810506 491.572334,59.872088 491.548155,60.07044 L491.548155,60.07044 L491.479241,60.6873979 C491.446635,61.0068067 491.416859,61.3425787 491.390167,61.6945716 L491.390167,61.6945716 L491.108326,65.1344699 L490.250505,75.2754365 L489.554246,83.0703571 L489.224854,86.592204 L488.688861,92.0496103 L488.269545,96.0399088 L487.913143,99.1996055 L487.68647,101.079686 L487.422106,103.122135 L505.603388,102.637148 L507.215031,102.613669 L509.55529,102.573773 L511.802704,102.528292 L513.957045,102.477255 L516.018086,102.420693 L517.9856,102.358637 L519.245204,102.314229 L521.056335,102.243085 L522.211474,102.192646 L523.865592,102.112498 L525.4252,102.026988 L526.41232,101.967018 C526.573327,101.956826 526.732578,101.946536 526.89007,101.936148 L526.89007,101.936148 L528.29837,101.837126 C528.457483,101.825192 528.614215,101.813164 528.76855,101.801045 L528.76855,101.801045 L529.665675,101.72729 L530.504528,101.65159 L531.284358,101.574159 L532.004411,101.495211 C532.234383,101.468666 532.454266,101.441904 532.663936,101.414961 L532.663936,101.414961 L533.26218,101.333622 L533.538087,101.292611 L533.858636,101.240771 L533.944299,101.189788 C540.742127,97.2018228 549.915884,97.4443303 560.832964,100.631525 L560.832964,100.631525 L560.958936,100.66839 L561.972195,100.905459 C565.203297,101.646509 567.997328,102.168777 570.329143,102.475702 L570.329143,102.475702 L571.099318,102.574624 C573.586632,102.918111 576.255023,103.747442 579.26306,105.084365 L579.26306,105.084365 L580.022238,105.429184 C580.149977,105.48842 580.278329,105.548541 580.407305,105.609548 L580.407305,105.609548 L581.188743,105.986232 C581.583298,106.179903 581.983676,106.381575 582.390187,106.591292 L582.390187,106.591292 L583.211478,107.021465 L584.049674,107.473164 C584.190813,107.550246 584.332679,107.628227 584.475284,107.707111 L584.475284,107.707111 L585.33987,108.191243 C585.485475,108.273739 585.631843,108.35714 585.778984,108.441448 L585.778984,108.441448 L586.671198,108.958183 L587.58252,109.496747 L588.5135,110.057216 C588.670332,110.152457 588.828006,110.248614 588.986533,110.345688 L588.986533,110.345688 L589.948032,110.939156 L590.930565,111.554718 L591.934684,112.192449 L593.055979,112.913903 L593.565148,113.260067 L595.528137,114.60537 L596.960579,115.601034 L597.956427,116.302608 L599.470473,117.389341 L600.026199,117.796156 L600.807518,118.377599 L601.294101,118.746549 L601.75369,119.100963 L602.393288,119.606094 L602.974278,120.08048 L603.329677,120.380239 L603.659975,120.667205 L603.965551,120.941728 L604.246783,121.204156 L604.504051,121.454838 C607.5191,124.463906 608.464266,128.341883 608.464266,133.721606 C608.464266,136.54205 608.238113,138.780288 607.677869,140.628532 C607.23103,142.102653 606.564544,143.421894 605.429403,144.67017 C603.748643,146.518446 601.256961,147.884768 598.232744,148.320513 L598.232744,148.320513 L598.002585,148.350603 L597.837712,148.451203 L597.242675,148.826883 C592.916414,151.489869 587.269976,152.440244 580.37241,152.249025 C574.225609,152.078619 568.538399,150.838302 563.467567,148.529935 L563.467567,148.529935 L563.278914,148.44228 L563.14102,148.400724 L562.428878,148.195122 L561.639096,147.978096 L560.772088,147.749784 L559.828269,147.510323 L558.808054,147.259852 L557.711859,146.998508 L556.540099,146.726429 L554.860923,146.347198 L553.514458,146.050608 L552.093812,145.743743 L550.084942,145.318845 L547.945915,144.876253 L545.677718,144.416292 L543.892392,144.060121 L541.400512,143.570553 L539.608891,143.225327 C528.415151,141.105203 518.219179,139.934125 509.035147,139.696493 L509.035147,139.696493 L508.852756,139.691773 L504.843764,139.471959 L501.207062,139.261661 L497.760272,139.051088 L494.503076,138.8402 L491.435155,138.628954 L489.258236,138.470259 L487.511455,138.336326 L487.618744,138.501495 C488.256877,139.50101 488.818779,140.689263 489.327356,142.101431 L489.327356,142.101431 L489.527997,142.678323 C489.62695,142.972824 489.723892,143.276469 489.819007,143.589539 L489.819007,143.589539 L490.006853,144.228331 L490.190152,144.892758 L490.369228,145.58332 L490.544409,146.300518 L490.716018,147.044852 L490.884383,147.816823 L491.049829,148.616929 L491.212682,149.445673 L491.373268,150.303554 L491.531911,151.191072 L491.688939,152.108728 L491.888549,153.329468 L491.90817,153.603612 C492.180847,157.413517 493.166358,160.677466 494.81942,163.441206 L494.81942,163.441206 L495.128328,163.945266 L495.358295,164.307704 L495.739191,164.890797 L496.163099,165.521017 L496.629885,166.198143 L497.139415,166.921955 L498.083248,168.231458 L499.144812,169.669015 L500.07841,170.910575 L501.086636,172.232915 L502.451377,173.998642 L503.9316,175.888755 L505.859424,178.319644 L507.951562,180.92642 L509.81975,183.23182 L511.115134,184.797496 C511.976584,185.832252 512.833749,186.848951 513.686596,187.847583 L513.686596,187.847583 L514.962624,189.331978 L516.232149,190.789263 C518.553635,193.436099 520.842211,195.946219 523.097176,198.319409 L523.097176,198.319409 L524.32382,199.600294 C529.013145,204.458289 533.554974,208.717463 537.942917,212.37584 L537.84,212.29 L538.491434,212.802807 C538.560382,212.857748 538.629524,212.913021 538.698862,212.968626 L538.907459,213.136438 L539.753584,213.827629 L540.618585,214.550787 C541.055827,214.92037 541.500198,215.301967 541.951774,215.69562 L541.951774,215.69562 L542.864553,216.499012 L543.796677,217.334624 L544.748282,218.202528 L545.719499,219.102796 L546.710464,220.035502 L547.721309,221.000717 L548.75217,221.998513 C548.925656,222.167532 549.099981,222.337911 549.275148,222.509652 L549.275148,222.509652 L550.336283,223.556456 L551.134339,224.349821 L551.715889,224.916869 L552.326437,225.499502 L552.965956,226.097677 L553.634413,226.711354 C553.748233,226.814923 553.863257,226.919136 553.979485,227.023993 L553.979485,227.023993 L554.691295,227.660845 L555.43197,228.313098 L556.201479,228.980708 L556.999792,229.663635 L557.826879,230.361839 L558.68271,231.075277 L559.567256,231.80391 L560.480485,232.547695 L561.422369,233.306593 L562.392876,234.080562 L563.902242,235.269683 C564.07352,235.403681 564.245987,235.538303 564.419644,235.673547 L564.419644,235.673547 L566.014634,236.907543 L567.113578,237.748823 L568.815345,239.038564 L570.581043,240.36157 L572.410571,241.7177 L574.191016,243.026264 L576.489931,244.702123 L578.702825,246.299101 L580.305854,247.444973 L581.860182,248.546317 L583.365676,249.603067 L584.342142,250.282759 L586.229622,251.582515 L587.587804,252.505079 L588.465839,253.095202 L589.741659,253.942957 L590.564661,254.483146 L591.365579,255.003325 L592.144375,255.503476 L593.271002,256.216106 L594.347628,256.883559 L595.037534,257.303397 L595.617907,257.650676 L596.354785,258.068664 L597.184062,258.529608 L598.046556,259.000629 L598.942231,259.4817 L599.871053,259.972797 L600.832985,260.473891 L601.827992,260.984957 L602.856039,261.505968 L603.917089,262.036898 L605.570468,262.851834 L606.713871,263.407446 L607.890154,263.972885 L609.09928,264.548124 L610.341214,265.133137 L611.61592,265.727898 L613.58935,266.638257 L614.945831,267.257271 L617.041756,268.203886 L619.211019,269.172137 L621.453498,270.161933 L625.403176,271.888154 L630.920815,274.316081 L634.347035,275.840643 L637.000649,277.034107 L639.394972,278.124046 L641.531969,279.111465 L643.413604,279.997373 L644.527129,280.532079 L645.76155,281.138101 L646.822047,281.675375 L647.59887,282.08146 L648.126584,282.343783 L648.761299,282.645012 L649.502386,282.984843 L650.577373,283.463449 L652.083727,284.115923 L653.517888,284.724075 L655.79642,285.672679 L658.387728,286.733194 L661.288443,287.903984 L664.978094,289.374966 L669.60049,291.196395 L674.715271,293.190853 L676.97594,294.086719 L678.440986,294.673803 L679.872454,295.252814 L681.270407,295.823797 L682.63491,296.386797 L683.966026,296.941861 L685.26382,297.489034 L687.148172,298.2951 L688.36294,298.822747 L689.544611,299.342664 L690.693247,299.854897 L691.808913,300.359492 L692.891673,300.856493 C693.069395,300.938697 693.245748,301.020586 693.420734,301.102161 L693.420734,301.102161 L694.454255,301.58786 L695.455031,302.066081 L696.423125,302.536869 L697.358601,303.000271 L698.261524,303.456332 L699.131957,303.905099 L699.969964,304.346616 C700.106934,304.419601 700.242555,304.492286 700.376829,304.564671 L700.376829,304.564671 L701.166318,304.995401 L701.923542,305.418997 C705.368735,307.371646 707.949248,309.182343 709.762773,311.059305 C713.008455,314.418521 714.25404,318.429227 711.429106,322.449383 L711.429106,322.449383 L709.886813,324.644216 L706.890699,325.806334 L706.51324,325.941882 L706.234731,326.035291 L705.775371,326.180322 L705.26454,326.331681 L704.700488,326.489846 L703.862608,326.712145 L702.922859,326.948526 L701.877097,327.200123 L700.721176,327.468068 L698.771678,327.903118 L696.940542,328.298466 L694.912993,328.725998 L690.236274,329.686469 L685.568323,330.621746 C675.011816,332.687447 664.906136,334.124112 655.248293,334.927336 L655.630262,334.894219 L654.891998,334.997336 C644.818177,336.425976 636.10443,338.374086 628.755467,340.817777 L628.755467,340.817777 L628.204405,341.003072 L627.265657,341.362099 C618.119188,344.817893 610.870736,346.430152 604.702656,345.901542 L604.702656,345.901542 L604.310231,345.864873 C601.974445,345.628379 599.396171,345.03139 596.498659,344.069935 L596.498659,344.069935 L595.662045,343.785313 C595.380234,343.68713 595.095461,343.585639 594.80766,343.480835 L594.80766,343.480835 L593.935106,343.156481 C592.906372,342.766466 591.839732,342.335829 590.732341,341.864423 L590.732341,341.864423 L589.773103,341.450373 C589.449986,341.309025 589.123477,341.164347 588.793508,341.016333 L588.793508,341.016333 L587.793158,340.562284 L586.771656,340.088204 C586.59962,340.007521 586.426687,339.926002 586.252848,339.843647 L586.252848,339.843647 L585.198871,339.339483 C585.021373,339.253783 584.842953,339.167246 584.663602,339.079872 L584.663602,339.079872 L583.576255,338.545578 L582.466164,337.991172 L581.332931,337.416632 L580.197602,336.832981 L579.32854,336.390191 C563.993145,328.512438 549.797517,318.114493 536.731952,305.231478 L536.731952,305.231478 L535.571184,304.12928 L534.303701,302.934712 L533.062789,301.776593 L531.848503,300.654957 L530.660901,299.569839 C530.465194,299.39203 530.270601,299.215745 530.077124,299.040984 L530.077124,299.040984 L528.929652,298.010705 L527.809005,297.017027 L526.715238,296.059986 L525.648409,295.139615 L524.779035,294.398056 L524.061405,293.780185 L523.382361,293.186045 L522.741367,292.613815 L522.137883,292.061677 L521.571374,291.527809 C519.287199,289.3389 517.951889,287.578424 517.390478,285.654071 L517.390478,285.654071 L517.3528,285.519575 L517.168508,285.291289 L516.863988,284.923941 L516.319739,284.287935 L515.927502,283.840739 L515.321768,283.163119 L514.413725,282.168617 L513.117942,280.780007 L512.255085,279.869667 L511.005379,278.566331 L509.99392,277.52197 L508.546761,276.040791 L505.022619,272.463429 L502.930098,270.322961 L501.341758,268.677591 L500.615395,267.915605 L499.501044,266.729287 L498.502134,265.640271 L497.782341,264.833476 L497.129947,264.079286 L496.828125,263.720576 L496.404848,263.203981 L496.015836,262.71154 L495.774931,262.395769 L495.440329,261.939554 L495.234572,261.646257 L495.042243,261.361008 L494.778142,260.947054 L494.542229,260.54819 C494.517538,260.504643 494.493346,260.461342 494.469646,260.418276 L494.469646,260.418276 L494.33329,260.162604 L494.208383,259.912029 C494.188499,259.870661 494.169077,259.829483 494.15011,259.788484 L494.15011,259.788484 L494.041699,259.544545 L493.943837,259.304359 L493.856161,259.067389 C493.842378,259.028132 493.829004,258.988987 493.816032,258.949942 L493.816032,258.949942 L493.742963,258.716789 L493.685739,258.514828 L493.628782,258.438806 L493.2992,258.021162 L492.981243,257.635486 L492.62402,257.215714 L492.228001,256.762482 L491.562253,256.021287 L491.071291,255.487186 L490.265324,254.627667 L489.682347,254.01667 L486.886263,251.129735 L485.459119,249.64444 L483.634765,247.730017 L481.899872,245.89059 L481.065886,244.998863 L479.46466,243.271111 L477.952193,241.617262 L476.528207,240.036881 L475.518114,238.899546 L474.872222,238.164055 L473.944552,237.094778 L473.066179,236.06609 L472.507926,235.402758 L471.971495,234.757328 L471.45685,234.129747 L470.963958,233.519961 L470.492782,232.927914 L470.043288,232.353553 L469.615441,231.796822 L469.209205,231.257667 L468.824546,230.736034 L468.461429,230.231868 L468.119818,229.745114 L467.177293,228.36493 L466.941805,227.271431 L466.907258,227.202446 C466.891427,227.172808 466.873955,227.14123 466.854831,227.107765 L466.854831,227.107765 L466.720153,226.884759 L466.545234,226.619024 C466.305111,226.26695 466.002219,225.867162 465.637234,225.422986 L465.637234,225.422986 L465.251575,224.964138 L464.82467,224.476437 C464.600931,224.225497 464.361781,223.964014 464.107303,223.692404 L464.107303,223.692404 L463.769762,223.327734 C461.966179,221.355754 460.108297,218.950292 458.173356,216.095591 L458.173356,216.095591 L458.146635,216.055791 C458.098678,216.129247 458.04956,216.20454 457.999282,216.28167 L457.999282,216.28167 L454.31691,221.990838 L448.114235,231.718511 L447.330792,232.938612 L446.556041,234.132378 L445.789921,235.299856 L445.032366,236.441095 L444.283314,237.556142 L443.5427,238.645046 L442.810462,239.707854 L442.086536,240.744614 L441.370858,241.755374 L440.663365,242.740182 L439.963993,243.699086 L439.272679,244.632134 L438.589359,245.539373 L437.913969,246.420852 C437.802062,246.565621 437.690482,246.709319 437.579229,246.851946 L437.579229,246.851946 L436.915616,247.694874 L436.259775,248.512162 L435.611643,249.303856 C435.50426,249.433675 435.397195,249.56243 435.290448,249.690121 L435.290448,249.690121 L434.653759,250.443516 L434.024619,251.171438 L433.402965,251.873935 C433.299977,251.988901 433.197297,252.102811 433.094926,252.215664 L433.094926,252.215664 L432.484382,252.880112 C432.079802,253.314638 431.680107,253.732293 431.285212,254.133142 L431.285212,254.133142 L431.182633,254.237267 L416.220068,268.430634 C411.787273,272.589666 406.971912,276.620833 401.775812,280.524119 C401.291226,280.888137 400.819988,281.238118 400.361723,281.574232 L400.361723,281.574232 L399.46238,282.228025 L398.596966,282.845147 C398.172632,283.144591 397.760771,283.430399 397.361011,283.702742 L397.361011,283.702742 L396.577514,284.229525 C395.80993,284.738457 395.089749,285.193988 394.413979,285.597493 C391.682573,287.228426 389.534412,288.239628 386.904043,288.59811 L386.904043,288.59811 L386.744924,288.617448 L386.585446,288.701763 L386.120098,288.958723 L385.712101,289.195295 L385.221727,289.490883 L384.700856,289.816135 L384.149837,290.170908 L383.569017,290.555059 L382.958748,290.968445 L382.319376,291.410923 L381.651252,291.88235 L380.954723,292.382581 L380.23014,292.911475 L379.477851,293.468887 L378.087253,294.513659 C370.767296,299.975537 363.858604,303.783885 357.171085,305.892763 L357.171085,305.892763 L356.651523,306.058913 C352.539899,307.392382 349.504893,308.827111 347.522463,310.280452 L347.522463,310.280452 L347.294291,310.445674 C346.985361,310.666681 346.657605,310.890542 346.310778,311.117449 L346.310778,311.117449 L345.776204,311.460118 C345.593224,311.575118 345.405446,311.690904 345.212839,311.8075 L345.212839,311.8075 L344.6205,312.159738 C344.519352,312.218857 344.416989,312.278184 344.313407,312.337723 L344.313407,312.337723 L343.67726,312.697514 L343.011678,313.06252 L342.316477,313.432885 L341.591472,313.808752 C341.468144,313.871863 341.343567,313.93521 341.217736,313.998794 L341.217736,313.998794 L340.447681,314.383183 L339.647362,314.773433 L338.816595,315.169688 C338.675586,315.236239 338.533301,315.303046 338.389735,315.370112 L338.389735,315.370112 L337.512951,315.775642 L336.605258,316.187535 L335.666472,316.605936 L334.69641,317.030986 L333.182269,317.681346 C333.010076,317.754475 332.83656,317.827896 332.661718,317.901613 L332.661718,317.901613 L331.052228,318.573107 L329.3705,319.261018 L328.20891,319.728985 L327.014753,320.204606 L325.787847,320.688027 L322.677973,321.901644 C322.373103,322.021377 322.069966,322.140789 321.768566,322.259879 L321.768566,322.259879 L319.980992,322.970546 C319.392079,323.206142 318.810114,323.440445 318.235104,323.673448 L318.235104,323.673448 L316.530939,324.368557 L314.868536,325.05584 L313.247932,325.735267 C312.981317,325.847848 312.716444,325.960101 312.453316,326.072025 L312.453316,326.072025 L310.89548,326.739611 C310.383182,326.96082 309.877866,327.180706 309.379538,327.399265 L309.379538,327.399265 L307.905525,328.050956 C307.42118,328.266856 306.943829,328.481424 306.47348,328.694654 L306.47348,328.694654 L305.083441,329.330328 L303.735444,329.957946 C303.514284,330.061877 303.294877,330.16547 303.077224,330.268726 L303.077224,330.268726 L301.792362,330.884205 L300.549637,331.491553 C300.142423,331.692644 299.742237,331.892374 299.349087,332.090739 L299.349087,332.090739 L299.168074,332.179997 L297.987456,332.741456 C292.734502,335.205826 288.28284,336.830407 284.373333,337.610758 C277.973397,338.888206 271.856108,338.096229 267.880651,334.109605 L267.880651,334.109605 L267.765693,333.991802 L267.628318,333.864136 C266.086155,332.396785 265.08948,330.587983 265.005728,328.484958 L265.005728,328.484958 L265,328.196363 C265,324.382665 267.583955,320.617602 273.118345,316.191082 L273.118345,316.191082 L273.783084,315.66722 C274.009216,315.491554 274.239907,315.314827 274.47518,315.136998 L274.47518,315.136998 L275.194765,314.600159 L275.941973,314.056445 L276.716935,313.5056 L276.716935,313.5056 L277.114866,313.227424 L277.931709,312.6654 C278.208664,312.476778 278.490299,312.28686 278.776638,312.095603 L278.776638,312.095603 L279.649787,311.517776 C279.79767,311.420788 279.946735,311.323454 280.096984,311.22577 L280.096984,311.22577 L281.01271,310.635416 C281.167706,310.536307 281.323892,310.436838 281.48127,310.337002 L281.48127,310.337002 L282.439871,309.733541 L283.427221,309.121022 L284.443453,308.499188 L285.4887,307.867781 L286.563093,307.226546 L287.666767,306.575224 L289.377467,305.578768 L290.55492,304.901107 L291.762117,304.212461 L292.999191,303.512572 L294.91111,302.441097 L296.223455,301.711978 L297.096622,301.228965 L298.332613,300.369766 L304.089485,296.324799 L319.240229,285.59747 C319.539396,285.389269 319.841039,285.177344 320.145154,284.961697 L320.145154,284.961697 L321.06491,284.303589 L321.999474,283.623157 C322.156468,283.507892 322.314077,283.391697 322.472303,283.274573 L322.472303,283.274573 L323.429037,282.560675 C323.750409,282.318992 324.074239,282.073594 324.400524,281.82448 L324.400524,281.82448 L325.386739,281.065999 L326.38766,280.285243 L327.403264,279.482222 L328.433528,278.656948 L329.478429,277.80943 L330.537945,276.939681 L331.612052,276.04771 L332.700728,275.133529 L333.80395,274.197148 L334.921694,273.238578 L336.053939,272.257831 C336.243854,272.092525 336.434371,271.926296 336.625492,271.759144 L336.625492,271.759144 L337.779444,270.745149 L338.947839,269.709004 L340.727462,268.113277 L341.931864,267.021802 L343.150629,265.908213 L344.383734,264.772523 L345.631157,263.614741 L346.892874,262.434878 L348.168862,261.232946 L349.459099,260.008954 L350.763561,258.762915 L352.082227,257.494838 L353.415072,256.204735 L355.365238,254.302368 L357.140535,252.554592 L358.864511,250.841344 L360.537125,249.162719 L361.623645,248.062919 C361.802828,247.880906 361.981057,247.699538 362.158334,247.518814 L362.158334,247.518814 L363.728095,245.909727 L365.246367,244.335553 L366.229921,243.305549 L367.19056,242.291133 L368.12827,241.292335 L369.043039,240.309183 L369.934855,239.341707 L370.803704,238.389934 L371.649575,237.453893 L372.472454,236.533613 L373.663637,235.182808 L374.428984,234.302056 L375.171295,233.437166 L375.890558,232.588166 L376.58676,231.755084 L377.25989,230.93795 L377.909934,230.136791 L378.53688,229.351638 L379.140715,228.582518 L379.721427,227.829459 L380.279003,227.092492 L380.813431,226.371644 L381.324698,225.666944 L381.812791,224.978421 L382.277698,224.306103 C382.579904,223.863299 382.866645,223.431318 383.137903,223.010198 L383.137903,223.010198 L383.28129,222.787595 L392.493005,210.471488 L392.723615,210.105216 C400.780785,197.133726 406.813575,180.246433 410.738698,159.402805 L410.738698,159.402805 L410.921144,158.422862 C410.961219,158.218934 411.000873,158.016353 411.040105,157.815122 L411.040105,157.815122 L411.490663,155.46519 L411.802029,153.788076 L412.090637,152.184381 L412.356484,150.654349 L412.675541,148.729317 L412.888279,147.372121 L413.078254,146.089406 L413.245465,144.881419 L413.369726,143.910265 L412.763499,143.997625 L411.877799,144.131111 L410.962086,144.276099 C410.806972,144.301223 410.650612,144.326825 410.493008,144.352908 L410.493008,144.352908 L409.532476,144.515154 L408.542195,144.688909 L407.001231,144.971127 L405.937048,145.173667 L404.843489,145.387726 L403.72066,145.613306 L402.568669,145.85041 L401.387621,146.099041 L400.177623,146.359201 L398.308575,146.771067 L396.374986,147.208889 C396.156571,147.258978 395.936967,147.309549 395.716176,147.3606 L395.716176,147.3606 L393.697091,147.833046 L392.315621,148.162443 L390.905943,148.503389 L389.468165,148.855886 L388.002393,149.219938 L385.751478,149.787687 L383.438174,150.381449 L381.062838,151.001233 L378.911019,151.570446 L377.147335,152.108327 L375.334265,152.670239 L373.297944,153.316276 L371.856206,153.786567 L371.198708,154.00579 L370.29263,154.314302 L369.48377,154.597979 L368.773272,154.856318 L368.324771,155.024662 L368.176098,155.488097 L367.789054,156.149058 C364.515299,161.739707 358.230701,165.084843 350.274246,165.57893 C343.362077,166.008167 336.270747,164.11005 328.870128,160.280304 C321.795465,156.619237 315.983412,151.533526 311.449867,145.135168 L311.449867,145.135168 L311.352859,144.998258 L310.961494,144.385033 C309.386687,141.87979 308.330095,139.690486 307.811081,137.676103 C306.893177,134.113558 308.536945,130.961211 311.543727,128.5161 C313.343358,127.052643 315.642567,125.827308 318.521687,124.661287 C323.246038,122.747962 329.259699,121.09157 336.636604,119.623311 L336.636604,119.623311 L343.571486,118.251644 L365.371824,113.997027 L372.859027,112.773642 L380.713863,111.505556 L388.043916,110.339444 L394.849539,109.275264 L400.37454,108.42769 L405.498531,107.658097 L409.221067,107.111297 L417.186033,106.337992 L418.507758,64.9796348 L418.527267,63.6839632 L418.609376,58.9464021 L418.68639,55.0793625 L418.755277,51.9931783 L418.858955,47.8803751 L419.004748,42.9480333 L419.183372,37.9355145 L419.318917,34.7189878 L419.442039,32.1530555 L419.616238,29.0055965 L419.778136,26.507678 L419.923992,24.5564373 L420.050564,23.0640059 L420.18173,21.6928266 L420.317511,20.4427073 L420.460447,19.2830306 L420.583128,18.3827507 C420.604225,18.2346805 420.625656,18.0875951 420.64743,17.9414893 L420.64743,17.9414893 L420.782289,17.0765684 L420.92593,16.2349096 C422.210405,9.04061748 424.544003,4.43919037 429.479372,1.70275726 L429.479372,1.70275726 L430.135073,1.33920172 Z M481.246544,348.069961 C509.956221,346.229996 540.374808,345.616674 572.502304,346.229996 C594.376344,346.843317 609.414747,348.069961 617.617512,349.909926 C625.820276,351.749891 637.44086,356.043144 652.479263,362.789683 C693.493088,381.189335 714,398.669005 714,415.228692 C714,423.815196 711.607527,437.154944 706.822581,455.247936 C702.037634,473.340927 697.936252,486.374015 694.518433,494.347197 C689.733487,502.32038 687.341014,510.293563 687.341014,518.266745 C687.341014,529.306537 680.847158,546.479546 667.859447,569.785772 C663.758065,576.532311 661.707373,581.438885 661.707373,584.505494 C661.707373,587.572103 657.4351,594.011981 648.890553,603.825129 C640.346006,613.638277 636.073733,619.924825 636.073733,622.684772 C636.073733,625.44472 628.21275,634.184555 612.490783,648.904277 C586.515361,671.597182 567.717358,676.810417 556.096774,664.543982 C534.222734,641.237755 515.082949,624.064746 498.677419,613.024955 C491.841782,608.118381 485.518817,605.358433 479.708525,604.745111 C473.898233,604.13179 464.841014,605.358433 452.536866,608.425042 L417.675115,616.704885 C405.370968,618.544851 396.484639,622.838103 391.016129,629.584642 C386.231183,635.104538 380.079109,638.631138 372.559908,640.164442 C365.040707,641.697747 358.888633,641.237755 354.103687,638.784468 C349.31874,634.491216 344.192012,627.284686 338.723502,617.164877 C333.254992,607.045068 329.837174,597.38525 328.470046,588.185424 C324.368664,568.559128 318.21659,551.38612 310.013825,536.666398 C307.27957,531.759824 302.494624,519.340058 295.658986,499.407102 C288.823349,479.474145 284.038402,468.281023 281.304147,465.827736 C278.569892,463.374449 277.202765,459.387858 277.202765,453.867962 C277.202765,448.348066 275.493856,444.668136 272.076037,442.828171 C270.025346,440.988205 269,434.394997 269,423.048544 C269,411.702092 270.025346,406.028866 272.076037,406.028866 C274.810292,406.028866 277.886329,402.348935 281.304147,394.989074 C286.772657,384.562605 307.621352,375.056118 343.85023,366.469613 C380.079109,357.883109 425.87788,351.749891 481.246544,348.069961 Z M578.542874,392.636364 C566.238124,388.341991 554.958769,386.501546 544.70481,387.115028 C515.993726,388.341991 483.522856,391.102659 447.292202,395.397032 C405.59277,401.531849 377.223484,406.286333 362.184344,409.660482 C347.145205,413.034632 338.25844,417.175634 335.524051,422.083488 C332.789662,425.764378 332.276964,430.825603 333.985958,437.267161 C335.694951,443.70872 339.283836,449.690167 344.752614,455.211503 L351.930385,464.413729 L378.590678,455.211503 C405.934568,447.23624 433.620257,442.175015 461.647744,440.027829 C489.675232,437.880643 508.815955,439.567718 519.069913,445.089054 C527.27308,449.996908 531.374664,456.898578 531.374664,465.794063 C531.374664,474.689549 529.83657,479.904143 526.760382,481.437848 C523.684195,482.971552 522.4879,485.57885 523.171497,489.25974 C523.855094,494.781076 522.317,498.308596 518.557215,499.842301 C514.797431,501.376005 504.030774,502.142857 486.257245,502.142857 C452.077383,502.756339 421.657305,507.050711 394.997012,515.025974 C384.059456,518.706865 376.198088,520.240569 371.412907,519.627087 C369.362115,518.400124 368.336719,518.706865 368.336719,520.54731 C368.336719,523.614719 371.412907,533.123686 377.565282,549.074212 C382.350463,560.730365 385.768449,567.478664 387.819241,569.319109 C389.870033,571.159555 399.611294,569.47248 417.043024,564.257885 C434.474754,559.04329 452.76098,556.282622 471.901703,555.975881 C491.042426,555.66914 504.030774,558.429808 510.866746,564.257885 C517.702719,570.085962 526.247684,573 536.501643,573 C544.021213,573 549.148192,571.466296 551.882581,568.398887 C554.61697,565.331478 560.085748,555.51577 568.288915,538.951763 C575.808485,521.160792 582.473558,499.995671 588.284135,475.456401 C594.094712,450.91713 597,431.285714 597,416.562152 C597,408.586889 595.974604,403.525665 593.923812,401.378479 C591.873021,399.231293 586.746041,396.317254 578.542874,392.636364 Z" id="早" fill="#000000" fill-rule="nonzero"></path>
    </g>
</svg>