<?xml version="1.0" encoding="UTF-8"?>
<svg width="800px" height="470px" viewBox="0 0 800 470" version="1.1" xmlns="http://www.w3.org/2000/svg" xmlns:xlink="http://www.w3.org/1999/xlink">
    <title>i_ti_m</title>
    <g id="i_ti_m" stroke="none" stroke-width="1" fill="none" fill-rule="evenodd">
        <path d="M142.092687,-154.971283 L143.526959,-155.062213 L145.573593,-155.176164 L146.969025,-155.244319 L148.389284,-155.306224 L150.566255,-155.38737 L152.048647,-155.433661 L153.555918,-155.473709 L155.088085,-155.507516 L156.645162,-155.535083 L158.227165,-155.556413 L159.834109,-155.571507 L161.46601,-155.58197 L163.960689,-155.58197 L165.655049,-155.575251 L167.374419,-155.562303 L169.118814,-155.543129 L171.782364,-155.502697 C172.081446,-155.497427 172.381573,-155.491897 172.682744,-155.486108 L175.421497,-155.42701 L178.216714,-155.353919 L180.111586,-155.297421 L183.001023,-155.201022 L185.947062,-155.090645 L188.949754,-154.966296 L192.00915,-154.827982 L194.080276,-154.728017 L197.234296,-154.566438 L201.528087,-154.329301 L204.81482,-154.13518 L208.158518,-153.927123 L211.559232,-153.705133 L215.017012,-153.469219 L218.531912,-153.219384 C231.040784,-152.238296 244.79243,-149.147609 259.817556,-143.982212 L260.946828,-143.590917 L261.14109,-143.520821 L263.116878,-142.780442 L265.637559,-141.82209 L268.029336,-140.89601 L269.739257,-140.222191 L271.908182,-139.350836 L273.452268,-138.717225 L274.926081,-138.100336 L275.869819,-137.698214 L276.782678,-137.303296 L278.094381,-136.724229 L279.337407,-136.160859 L280.128173,-135.79385 L280.888771,-135.433589 L281.619343,-135.079988 L282.32003,-134.732954 L282.990974,-134.392398 L283.632317,-134.058227 L284.244202,-133.730352 L284.826769,-133.408681 C285.016088,-133.302481 285.200544,-133.1973 285.380162,-133.093123 L285.904521,-132.783587 C285.989503,-132.732495 286.073281,-132.681649 286.155858,-132.631049 L286.399989,-132.479983 C289.632013,-130.459968 292.07184,-128.194415 293.624182,-125.244964 C295.861688,-120.993704 295.659342,-116.137006 293.115667,-112.103913 L292.920503,-111.802998 L292.717835,-111.498996 L292.488852,-111.202132 L292.417939,-111.04478 L292.318785,-110.796436 L292.235547,-110.56846 L292.141562,-110.290338 C292.125142,-110.239795 292.108381,-110.187155 292.091331,-110.132413 C291.764919,-109.08446 291.479727,-107.685495 291.26128,-105.958548 L291.208074,-105.519991 C290.585793,-100.168376 289.593604,-95.322378 288.210055,-90.9747743 L287.961833,-90.2127223 C287.028556,-87.4128924 286.454717,-84.6486552 286.230469,-81.9054272 L286.181685,-81.2200494 C286.101127,-79.8908447 285.957065,-78.866302 285.532541,-77.6167132 C285.268222,-76.8386887 284.917606,-76.0978288 284.487982,-75.4086812 L284.26662,-75.0684841 L284.226,-75.011 L284.10565,-74.2427224 L283.990303,-73.4294439 L283.830878,-72.1897253 L283.665431,-70.769692 L283.537666,-69.5845144 L283.406957,-68.2949301 L283.055913,-64.5558877 L282.970038,-63.7101276 L282.88403,-62.9192059 L282.754342,-61.8325973 L282.667147,-61.1726754 L282.579135,-60.562715 L282.490111,-60.0013226 C282.342685,-59.1167675 282.181014,-58.3545744 281.969647,-57.6300565 L281.862143,-57.2781652 L281.744696,-56.9285536 L281.664,-56.712 L281.980252,-47.0634196 L282.230463,-38.5702996 L282.355049,-33.8594115 L282.491356,-28.0268552 L282.571223,-23.9885836 L282.623134,-20.8432503 L282.673436,-16.7753277 L282.69338,-14.1091456 L282.7,-11.65 C282.7,-3.38457918 282.010383,4.76543504 280.630489,12.7939122 C279.986058,16.5433287 279.266254,19.8164009 278.422462,22.6592889 L278.239734,23.2619116 L278.182,23.442 L442.64179,23.3679357 L492.836419,23.3609973 L643.895576,23.3869745 L714.824938,23.4709913 L719.236765,23.4948491 L719.760153,23.5017142 L719.96943,23.5077818 L723.081691,23.6238107 L725.297452,23.6972269 L728.093139,23.7769986 L730.070398,23.8232563 L731.944783,23.8578954 L733.137028,23.8745397 L734.28326,23.8860295 L735.916077,23.8936079 L737.212127,23.8911239 L738.188731,23.8833536 L739.560138,23.8622276 L740.81802,23.8299893 L741.592802,23.8024639 L742.316025,23.7702099 L742.987246,23.7333117 C743.094758,23.7267797 743.200085,23.7200576 743.303218,23.7131473 L743.895608,23.6694404 L744.388241,23.6258259 L744.776123,23.5853471 L745.033,23.554 L745.139161,23.4996503 C750.726056,20.6928448 757.349347,20.9166539 764.904458,23.3675711 L765.409512,23.5342562 L766.066644,23.7591717 L766.234941,23.824319 C774.895346,27.176734 782.367932,32.2524526 788.546541,38.9927537 C792.224759,43.0053542 794.365564,49.5611979 795.69259,58.0624816 L795.868572,59.2337499 L796.034874,60.4287984 C796.061806,60.6299361 796.088353,60.8320507 796.114522,61.035135 L796.267067,62.2652221 L796.409038,63.5026667 C796.431603,63.7077036 796.453613,63.9121171 796.47506,64.1158745 L796.5969,65.3302875 C796.616055,65.5312912 796.634628,65.7315739 796.652609,65.9311033 L796.753332,67.1189794 C796.784493,67.5117516 796.813216,67.9012506 796.839429,68.2872169 L796.91046,69.4342578 C796.921019,69.6235783 796.930932,69.8119507 796.94019,69.9993426 L796.987802,71.1116674 C797.139619,75.3284823 796.935218,78.9922389 796.263451,81.7080308 L796.17317,82.0568561 L796.122,82.235 L796.062896,82.8880561 L796.011907,83.550802 L795.933808,84.7323984 L795.813858,86.9135427 L795.711842,89.0976515 L795.55971,92.8877572 L795.388347,97.8812279 L795.233653,103.008833 L794.756813,122.074393 L794.290917,144.692852 L793.591698,183.189143 L792.672208,234.147411 L792.391404,248.327223 L792.173313,258.106791 L792.027071,263.719208 L791.889192,268.129729 L791.799037,270.524279 L791.708276,272.567537 L791.615178,274.332657 L791.504,276.1 L791.331121,279.080905 L791.185035,281.386054 L790.996501,284.071054 L790.87915,285.58096 L790.716498,287.48051 L790.58909,288.822606 L790.501237,289.679168 L790.364639,290.908286 L790.270102,291.691442 L790.17258,292.446307 L790.020308,293.526897 L789.914541,294.213711 L789.805164,294.874377 C789.786623,294.982343 789.767925,295.089245 789.749066,295.195096 L789.63394,295.817686 L789.514758,296.415658 L789.391343,296.989623 L789.263514,297.540194 L789.131096,298.067982 C789.108633,298.154082 789.085972,298.239259 789.063109,298.323524 L788.92347,298.818287 L788.778794,299.291797 C788.754252,299.368979 788.729492,299.4453 788.704511,299.520774 L788.551946,299.963555 C788.526067,300.035691 788.499959,300.107005 788.473619,300.177511 L788.312763,300.590938 C788.230913,300.792899 788.146906,300.987809 788.060643,301.176012 L787.924889,301.462423 L787.826594,301.84282 L787.738659,302.223175 L787.63699,302.703322 L787.532507,303.238571 L787.42563,303.827384 L787.316777,304.468226 L787.150714,305.523681 L786.995776,306.590903 L786.814525,307.936223 L786.632298,309.393573 L786.387971,311.510263 L786.203825,313.227416 L786.080684,314.433688 L785.895473,316.335045 L785.636997,319.16443 L785.410749,321.824894 L785.161915,324.913193 L784.221135,337.054269 L783.937033,340.544509 L783.738074,342.83863 L783.527358,345.062541 L783.352016,346.70246 L783.229051,347.720891 L783.081149,348.796474 L783.006149,349.281225 L782.904187,349.879202 L782.799137,350.428343 L782.690077,350.935664 L782.576085,351.408178 L782.425255,351.960558 L782.299241,352.372757 C782.27555,352.446793 782.25177,352.526957 782.227919,352.613193 L782.156171,352.890062 L782.04799,353.37295 L781.975652,353.739444 L781.903266,354.141202 L781.830941,354.577892 L781.722801,355.297691 L781.57983,356.376563 L781.473986,357.273612 L781.369732,358.244745 L781.233829,359.652884 L781.134699,360.792498 L781.006948,362.421186 L780.914922,363.723143 L780.797964,365.564195 L780.688358,367.522925 L780.592363,369.359684 L780.51923,370.651905 L780.403183,372.521846 L780.279265,374.310506 L780.192143,375.458227 L780.101314,376.57048 L780.006695,377.647527 L779.908203,378.68963 L779.75302,380.187842 L779.644479,381.143736 L779.531773,382.065607 L779.414818,382.953716 L779.293531,383.808325 C779.272951,383.947983 779.252186,384.086257 779.231236,384.22315 L779.103294,385.028004 L778.97081,385.800015 L778.833701,386.539447 C778.81046,386.659985 778.787022,386.779177 778.763386,386.897027 L778.619184,387.588081 L778.470148,388.247212 L778.316196,388.874682 L778.237349,389.176627 C777.585477,391.621148 777.228219,394.320155 777.180509,397.285865 L777.175,397.975 C777.175,403.809432 776.073918,408.522811 772.931478,411.996048 L772.657105,412.290714 L772.57,412.378 L772.555356,412.583837 C772.242191,416.264473 770.871544,419.612977 768.416474,422.268715 L768.128383,422.572051 L767.982,422.717 L767.930513,422.88976 C767.47774,424.3079 766.69102,425.647077 765.477351,427.376567 L764.968892,428.090292 L764.428794,428.831595 L763.991927,429.419531 L763.522446,430.038008 L763.020187,430.687286 L762.204977,431.719522 L761.62005,432.446939 L760.680068,433.597602 L759.664481,434.820491 L758.945145,435.676308 L756.713676,438.301632 L755.702042,439.503881 L754.767822,440.627651 L753.643327,442.002868 L752.891336,442.941122 L752.433751,443.52192 L751.813293,444.325603 L751.312662,444.993104 L751.026887,445.385374 L750.780405,445.733597 L750.573996,446.036173 L750.492,446.16 L750.48725,446.173832 C747.768496,453.464963 743.754121,458.993913 738.244583,462.38483 L737.838775,462.629125 L737.578,462.778 L736.539654,463.395231 L734.944067,464.331065 L733.412158,465.216098 L732.425177,465.778086 L730.994517,466.579305 L730.073002,467.085773 L729.176537,467.570231 L728.304469,468.032795 L727.456148,468.473577 L726.630924,468.892691 L725.828147,469.290251 L725.047165,469.666371 L724.287328,470.021164 C724.162415,470.078525 724.038356,470.135003 723.915136,470.190599 L723.185798,470.513616 C723.065887,470.565696 722.946788,470.616899 722.82849,470.667227 L722.128186,470.958725 C721.897878,471.052405 721.670661,471.142608 721.446426,471.229351 L720.782558,471.47922 C720.3458,471.638905 719.920536,471.784828 719.5059,471.91714 L718.891808,472.10542 L718.293006,472.273398 C717.898758,472.378641 717.514269,472.470425 717.138673,472.548902 L716.858631,472.605267 L716.667,472.64 L716.419862,472.867337 L716.122724,473.149686 L715.962952,473.305534 L715.796068,473.471068 C714.272248,474.994888 712.892869,476.211987 711.562382,477.162335 C709.191976,478.855482 706.894036,479.9 703.825,479.9 C700.572141,479.9 698.125078,478.706311 695.7843,476.833688 C694.483379,475.792952 693.20179,474.48964 691.830607,472.876484 C689.429964,470.052199 687.45955,467.04778 685.940036,463.871328 L685.879,463.741 L685.799849,463.627144 L685.656042,463.436725 L685.480399,463.217619 L685.158034,462.836588 L684.766079,462.39465 L684.305759,461.893988 L683.778299,461.336786 L682.972696,460.50967 L682.29334,459.829028 L681.80533,459.347762 L681.021561,458.586226 L680.465076,458.053053 L679.580298,457.216686 L678.30907,456.036593 L677.63524,455.420671 L676.928616,454.783784 L676.252573,454.184278 C676.142476,454.087489 676.033673,453.992269 675.926175,453.898621 L675.296936,453.355654 L674.699521,452.85069 L674.134425,452.383979 L673.602147,451.955769 L673.103182,451.56631 L672.638027,451.215851 L672.20718,450.90464 L671.861,450.666 L671.602661,450.618144 C669.675406,450.226077 668.099833,449.339989 666.261817,447.984375 L665.890533,447.706999 L665.571642,447.46374 C665.175149,447.158745 664.761194,446.825306 664.328287,446.462542 L663.664526,445.896289 C663.43841,445.700133 663.207369,445.496535 662.971216,445.285385 L662.24724,444.629166 L661.491477,443.92697 L660.702809,443.178135 C660.56856,443.049406 660.432893,442.918706 660.295786,442.786021 L659.482874,441.990825 C657.774536,440.300535 656.40883,438.819472 655.353017,437.491191 C653.087494,434.641017 651.825,432.319656 651.825,428.775 C651.825,423.51842 655.040605,420.245393 658.926266,418.788271 C660.471508,418.208805 661.994106,417.964102 663.740053,417.870569 C665.299704,417.787016 667.157837,417.833789 669.37821,418.000484 L670.428951,418.085898 C670.608439,418.101541 670.790128,418.117883 670.974048,418.134921 L672.104564,418.245454 L672.586,418.295 L673.121727,418.341733 C683.388523,419.186328 690.843668,417.946387 695.622628,415.03353 L695.906156,414.856754 L696.075,414.745 L696.147142,414.691366 L696.361739,414.51808 L696.616424,414.299911 C696.662127,414.259856 696.709435,414.217966 696.758317,414.174258 L697.07024,413.890337 L697.418393,413.563631 L698.005175,412.995183 L698.437148,412.565183 L699.142426,411.845725 L699.656223,411.309708 L700.259389,410.669668 L700.891218,409.988345 L701.892424,408.88919 L702.595348,408.105133 L703.326487,407.280175 L704.475813,405.966287 L705.276923,405.039554 L706.530607,403.573516 L707.561251,402.354815 L708.857392,400.802868 L709.77047,399.694634 L710.632535,398.635009 L711.443209,397.624751 L712.202116,396.664621 L712.908879,395.755378 L713.563121,394.897781 L714.164467,394.092589 L714.712538,393.340563 L715.048135,392.869123 L715.506579,392.207392 L715.782077,391.796852 L716.033339,391.411067 L716.260253,391.05026 L716.462709,390.714657 L716.67,390.35 L716.703861,390.283181 C716.740954,390.205288 716.778518,390.120242 716.816564,390.027983 L716.932157,389.729511 C716.951666,389.676139 716.971298,389.620949 716.991053,389.563933 L717.111083,389.199869 L717.234142,388.791625 L717.360286,388.33884 L717.489569,387.841153 L717.62205,387.298201 L717.757782,386.709622 L717.896823,386.075056 L718.039227,385.39414 L718.185052,384.666512 L718.410324,383.486697 L718.643605,382.199746 L718.885085,380.80444 L719.220136,378.773369 L719.481478,377.120487 L719.843698,374.74155 L720.222058,372.159855 L720.617005,369.372507 L720.924369,367.145297 L721.458449,363.169281 L721.792288,360.623284 L722.371609,356.108725 L722.980342,351.250229 L723.61936,346.042146 L724.427387,339.323033 L725.136107,333.325964 L726.184086,324.311113 L727.139099,315.969568 L727.197065,315.449671 L727.312346,314.353411 L727.426749,313.182645 L727.540256,311.938308 L727.65285,310.621335 L727.764517,309.232663 L727.87524,307.773225 L727.985001,306.243959 L728.147807,303.821177 L728.255095,302.121432 L728.414115,299.447316 L728.622485,295.654344 L728.725065,293.66247 L728.926938,289.492624 L729.0754,286.206086 L729.221279,282.78664 L729.411672,278.026089 L729.597245,273.042355 L729.733184,269.162591 L729.910009,263.806293 L730.165497,255.394305 L730.329132,249.545534 L730.487264,243.51287 L730.75036,232.53573 L730.927336,224.38637 L731.062151,217.69298 L731.283188,205.631605 L731.457116,194.966665 L731.62335,183.479092 L731.738058,174.461463 L731.85308,164.09734 L731.948007,153.988329 L732.0321,142.864246 L732.090405,132.327969 L732.123166,122.515281 L732.131071,114.629495 L732.113038,105.603818 L732.077286,99.5635235 L732.04021,95.8295474 L731.98312,92.0398587 L731.937473,89.9587581 L731.899276,88.6438127 L731.857698,87.5475779 L731.828107,86.9417965 L731.797023,86.438524 L731.764449,86.0398819 C731.758896,85.9822786 731.753281,85.9291233 731.747605,85.8804602 L731.712721,85.6216372 C731.630002,85.0012472 731.524322,84.503653 731.411285,84.1287607 L731.362436,83.9756046 L731.324,83.87 L731.139029,83.7810231 L730.994101,83.7161172 L730.834973,83.6484166 C729.987988,83.2968379 728.82618,82.9460933 727.369475,82.6229295 L726.704999,82.4807829 L726.590409,82.4519394 C726.94673,82.5563348 726.96656,82.6075991 726.92939,82.6335283 L726.899233,82.6473662 L726.861863,82.6598428 L726.87,82.661 L724.748741,82.6206804 L720.556806,82.5666624 L707.929595,82.4658471 L669.187252,82.3029723 L596.189953,82.158859 L508.074271,82.0949696 L491.44855,82.0918627 L424.941102,82.103853 L372.199276,82.1419021 L315.944135,82.2159216 L270.110029,82.310822 L245.533559,82.3807151 L224.078533,82.4587131 L204.03997,82.5554774 L193.290458,82.6249274 L186.032855,82.6856285 L181.391558,82.7359445 L178.614237,82.774661 L177.106403,82.8009226 L175.371745,82.84097 L174.573421,82.8680926 C174.355701,82.8771889 174.186627,82.8863401 174.066965,82.8955449 L172.272157,83.0378866 L170.540241,83.1837946 L168.87195,83.3329801 L166.747802,83.5364931 L164.739808,83.7446345 L162.849705,83.9567197 L161.51054,84.1179597 L160.239399,84.2807442 L159.037016,84.4447841 L157.904124,84.6097908 L156.841457,84.7754753 L155.849747,84.9415487 L154.929728,85.1077224 L154.082133,85.2737073 C153.992007,85.2921289 153.903235,85.3105416 153.815822,85.3289437 L153.065933,85.4942277 L152.607148,85.6039556 L152.181529,85.7132145 L151.789293,85.8219188 L151.430658,85.929983 L151.10584,86.0373214 L150.815058,86.1438484 L150.520796,86.2633641 L150.356865,86.3242527 C139.269049,90.4425845 128.456028,89.1756385 119.049785,82.56329 L118.846,82.418 L118.641345,82.286139 C113.874378,79.1818636 111.064089,76.6373661 109.700702,72.8213857 L109.580729,72.4709247 L109.471737,72.1234789 C108.488508,68.8460493 108.97714,65.6350399 110.411978,62.765364 C110.97095,61.6474202 111.663498,60.598099 112.48555,59.5816199 L112.845775,59.1478924 L112.986,58.986 L113.95055,56.7786479 L114.424992,55.7111456 C116.039833,52.1128048 117.634339,48.9439745 119.501495,45.8246528 C125.203658,36.2984661 131.931576,29.720086 140.843807,27.6683025 L142.645411,27.2667217 L144.802115,26.7957261 L146.871224,26.3568774 L148.853342,25.9501719 L150.126724,25.6968906 L151.361891,25.4578926 L152.559022,25.2331768 L153.718296,25.0227423 L154.839892,24.8265879 L155.923989,24.6447127 L156.970766,24.4771156 L157.980402,24.3237955 L158.953076,24.1847514 L159.888967,24.0599823 L160.788253,23.9494872 C160.935094,23.9322608 161.080417,23.915629 161.224226,23.899592 L162.068942,23.8105058 L162.866816,23.7366068 L163.381324,23.6972286 L163.850754,23.6807235 L169.303235,23.6208924 L174.157,23.598 L173.661226,22.9690527 C172.169069,21.0964174 170.621936,19.2908767 169.019745,17.5520156 L168.21406,16.6881398 L167.564,16.007 L146.742981,-4.81488335 L173.304568,-9.00881808 L173.824412,-9.03617829 C180.259533,-9.3748689 185.677171,-8.26036941 189.937095,-5.11071671 L190.289406,-4.84352217 L190.780839,-4.46129657 L191.086,-4.155 L191.30292,-4.01480462 C191.456714,-3.91939502 191.635753,-3.8160731 191.839307,-3.70584646 L192.278887,-3.47648544 C192.514805,-3.35750032 192.774753,-3.2322822 193.058001,-3.10183866 C193.480069,-2.9074653 193.940359,-2.70760326 194.438328,-2.5026728 L195.213475,-2.19152835 L196.044735,-1.87309646 L196.931703,-1.54769235 L197.873971,-1.2156312 L198.871134,-0.877228204 C199.212626,-0.763405255 199.563199,-0.648577865 199.922785,-0.532798566 L200.468917,-0.358422254 C200.802996,-0.252630737 201.129828,-0.15042538 201.449336,-0.0518093009 L202.385809,0.233267984 L203.277869,0.496790891 L204.125047,0.738740712 L204.926874,0.959098737 L205.682883,1.15784626 C205.80504,1.18916893 205.925269,1.21959038 206.043559,1.24911023 L206.756,1.421 L206.799598,1.35379903 C206.932189,1.14356362 207.068731,0.922578388 207.209078,0.690971278 L207.641387,-0.0355877122 L208.095644,-0.825110206 C208.173133,-0.961901596 208.251501,-1.10128448 208.330727,-1.24324285 L208.570968,-1.67682847 L208.788755,-2.0751332 C211.178332,-6.47195465 212.962758,-10.8180334 214.156849,-15.1184289 L214.413896,-16.0867997 L214.601455,-16.8606053 L214.684048,-17.2289029 L214.789538,-17.7596215 L214.89032,-18.3498649 L214.986501,-19.0061987 L215.078189,-19.7351884 L215.144071,-20.3335607 L215.228154,-21.2054967 L215.308041,-22.1681439 L215.365266,-22.9536082 L215.438066,-24.0907985 L215.490101,-25.0147103 L215.572072,-26.6980444 L215.648284,-28.5718437 L215.705248,-30.2166354 L215.784271,-32.9421313 L215.867157,-36.5400947 L215.950316,-41.2466357 L216.005083,-45.2229102 L216.103258,-55.2647334 L216.151011,-62.4921657 L216.27525,-70.3692839 L216.382861,-75.8624151 L216.485768,-80.1246758 L216.532938,-81.8051937 L216.633704,-84.9180581 L216.763624,-88.1566718 L216.865707,-90.2294634 L216.953548,-91.753345 L217.071728,-93.5011412 L217.199954,-95.0865237 L217.310296,-96.2465987 L217.397845,-97.0578737 L217.489691,-97.8218743 L217.586003,-98.5413992 L217.686953,-99.2192469 L217.792709,-99.8582162 L217.865968,-100.263979 L217.980114,-100.84437 L218.09952,-101.393345 L218.224357,-101.913704 L218.354795,-102.408245 L218.444949,-102.724977 L218.537718,-103.032308 L218.681885,-103.47749 L218.825991,-103.889994 L219.138297,-104.733943 L219.216154,-104.949709 L219.325529,-105.281162 L219.394599,-105.514751 L219.461465,-105.76437 L219.559271,-106.179985 L219.656334,-106.660281 L219.755181,-107.222427 L219.858342,-107.88359 L219.968346,-108.660938 L220.127435,-109.876577 L220.148,-110.05 L219.868461,-110.14916 L219.499606,-110.268658 L219.295271,-110.331112 C218.921881,-110.443129 218.507064,-110.556621 218.051798,-110.671025 L217.338684,-110.843247 L216.565632,-111.016417 C216.164244,-111.103169 215.740654,-111.190118 215.295276,-111.277028 L214.37559,-111.450726 L213.466899,-111.612167 C213.311822,-111.63894 213.154932,-111.665646 212.996231,-111.692284 L212.022311,-111.85129 L211.005027,-112.008634 L209.944477,-112.164286 L208.840758,-112.318215 L207.693969,-112.47039 L205.89324,-112.695295 L203.99615,-112.916081 L202.00303,-113.132643 L200.621095,-113.27462 L199.196724,-113.414642 L197.730013,-113.55268 L196.341,-113.677 L195.251109,-113.74647 C190.833857,-114.016582 186.554674,-114.195801 182.413941,-114.284579 L183.472743,-113.532998 L184.111137,-113.091552 C184.21301,-113.021962 184.312615,-112.954368 184.409942,-112.888771 L184.966521,-112.519192 L185.309523,-112.297994 L185.564,-112.137 L185.836136,-112.074223 C187.500899,-111.657225 188.963533,-110.861349 190.611759,-109.717556 L190.99559,-109.447441 L191.33768,-109.201025 C192.272025,-108.521501 193.296782,-107.69824 194.429083,-106.721902 L195.200071,-106.04823 L196.004053,-105.328585 L196.291,-105.066 L196.47922,-104.936808 C199.747998,-102.63347 202.200795,-100.146072 203.752591,-97.1749811 L203.958607,-96.766806 L204.145514,-96.3698554 C205.567262,-93.2420091 206.125,-89.5609389 206.125,-85.0830294 C206.125,-77.7010717 204.691343,-72.0343646 200.554396,-68.1656655 L200.274581,-67.9104169 L200.136,-67.79 L200.06171,-67.5059544 C199.379682,-65.0525032 197.925824,-63.049354 195.972422,-61.2309012 L195.659879,-60.9452732 L195.381538,-60.6992156 C193.750675,-59.2787861 191.694842,-57.9069549 189.140436,-56.4758979 L188.585405,-56.168297 C186.984327,-55.2902865 185.769365,-54.4564888 184.942656,-53.7124512 C184.697693,-53.4919849 184.503397,-53.2941643 184.356484,-53.1230706 L184.183613,-52.9052932 L184.149249,-52.8568706 L183.972289,-52.496157 L183.776323,-52.1211148 L183.561184,-51.7314747 L183.326705,-51.3269673 L183.072719,-50.9073233 L182.799059,-50.4722733 L182.505558,-50.021548 L182.192049,-49.554878 L181.858365,-49.0719941 L181.504339,-48.5726268 L181.129803,-48.0565069 L180.734591,-47.5233649 L180.318536,-46.9729315 L179.88147,-46.4049374 L179.186111,-45.5194308 L178.442539,-44.5928975 L177.65019,-43.6244284 L176.8085,-42.6131147 L176.219684,-41.9146539 L175.294506,-40.8299122 L174.318484,-39.6999016 L173.291054,-38.5237131 L171.840204,-36.8820584 L169.894676,-34.70899 L167.800082,-32.3975495 L160.75972,-24.7014508 L157.331704,-20.9290526 L153.743393,-16.9464478 L151.551425,-14.4865247 L149.712954,-12.3962684 L148.229524,-10.6775224 L147.583,-9.912 L146.745064,-8.84544731 L145.772111,-7.61988234 L144.773225,-6.37518537 C144.604582,-6.16614084 144.434859,-5.95629861 144.264054,-5.74565842 L143.226254,-4.47223964 L142.162502,-3.1796571 L141.072791,-1.86789811 L139.957113,-0.536949944 L138.815462,0.813200085 L137.054267,2.87445642 L135.847649,4.27266671 L134.615031,5.69012332 L132.717338,7.85242291 L130.761104,10.0580982 L128.746305,12.3071921 L127.370557,13.8307306 L125.258093,16.1522841 L123.817212,17.7241688 L121.607014,20.118301 L119.338143,22.5560375 L117.010573,25.0374214 L114.624281,27.5624954 L112.17924,30.1313024 L110.516563,31.8681577 L107.973553,34.5099483 L107.222,35.286 L105.232357,37.4689547 C101.082124,42.0405322 96.9950148,46.6754003 92.9710121,51.373584 L90.9642695,53.7279523 L88.9680443,56.0928739 L88.8518116,56.2287605 C72.6439916,74.837739 54.1374103,89.2312883 33.4058877,99.3250998 L7.09634747,112.026053 L6.95224899,112.090097 C5.99508728,112.515502 5.15478954,112.848724 4.35233198,113.104051 C3.73438933,113.300669 3.12562161,113.456974 2.46332795,113.567357 C1.09461145,113.795476 -0.263841872,113.825008 -1.91742408,113.411612 C-5.64718773,112.479171 -8.82678659,109.476217 -9.4976393,105.115674 C-9.90970666,102.437236 -9.33212801,100.415711 -8.32518111,98.5696418 C-7.84900677,97.6966555 -7.34133629,96.9997841 -6.74099378,96.3216341 L-6.47785198,96.0316858 L-6.4,95.95 L-6.0097429,95.4686701 L-5.60713766,94.986987 L-5.15851265,94.4618523 L-4.4882102,93.6934322 L-3.53334004,92.621984 L-2.44710507,91.425666 L-0.968149409,89.8228096 L0.70463394,88.0346357 L3.24091696,85.3569421 L7.30939999,81.1153871 L12.0649747,76.2089069 L13.4626266,74.774102 L29.1290388,58.5280251 L37.9480596,49.3333019 L43.807,43.156 L46.2032519,40.0762076 L48.7845079,36.7280008 L51.6022799,33.0471888 L54.130953,29.7259462 L53.3973544,29.6041633 L52.7591415,29.4077901 C47.2099538,27.7003477 42.8868771,24.3654029 40.5376216,19.4058634 L40.4360412,19.1873627 L40.2348411,18.7301617 L40.0360726,18.2456019 C39.9701974,18.0794653 39.9046911,17.9086836 39.839517,17.7331717 L39.6449555,17.1923595 L39.452169,16.6226538 L39.2609389,16.023543 C39.2291847,15.9212123 39.1974863,15.8176352 39.165839,15.7128008 L38.9765329,15.0686233 L38.788236,14.3937618 L38.6007293,13.6877048 L38.413794,12.9499407 L38.1339837,11.7827249 L37.9475194,10.9634552 L37.7608605,10.110688 L37.5737881,9.22391173 L37.2919255,7.82886137 L37.0079015,6.35441318 L36.7209775,4.79884068 L36.4304147,3.16041737 L36.1354746,1.43741677 L36.047,0.909 L34.4183063,-8.17365125 L33.3812195,-13.8229955 L32.6844326,-17.4755962 L32.4351958,-18.7104575 C31.2104201,-24.5893808 32.8697409,-30.2615056 36.8329854,-35.0136246 L37.1067699,-35.3361987 C37.9114651,-36.267951 38.6469,-38.075577 39.0981588,-40.8989534 L39.1910407,-41.5199652 L39.3070432,-42.3863142 L39.3816174,-43.0288232 L39.4450514,-43.6704845 L39.4937253,-44.264757 C39.50118,-44.3656576 39.508309,-44.467603 39.5151172,-44.5707692 L39.5521529,-45.2058239 L39.5817137,-45.8786236 L39.6040268,-46.5976137 L39.6193195,-47.3712398 L39.6278187,-48.2079474 L39.6270497,-49.8757548 L39.5980856,-52.3608267 L39.5420724,-55.2046421 L39.4035032,-60.7853287 L39.311003,-64.0611166 L39.2400103,-66.3549571 L39.1621688,-68.7135176 L39.0780027,-71.1168564 L38.9410422,-74.7622007 L38.8433589,-77.1902393 L38.7411863,-79.5932596 L38.621603,-82.2411281 L38.4411326,-85.9278813 L38.2660398,-89.1754229 L38.0865489,-92.1882876 L37.9401009,-94.4195579 L37.7913718,-96.4833993 L37.6784707,-97.9167968 L37.56452,-99.2484749 L37.485312,-100.106445 L37.4035922,-100.933143 L37.3225601,-101.694252 L37.2030675,-102.708013 L37.131,-103.249 L36.8882011,-103.601948 C35.0664659,-106.299505 33.9979818,-109.418654 33.6988694,-112.795505 L33.6613747,-113.279648 L33.6353146,-113.745923 C33.3938646,-119.057823 34.7495451,-123.722394 38.6621818,-127.01986 L39.0750305,-127.356273 L39.2,-127.45 C39.3104356,-127.532827 39.4250375,-127.616532 39.5438707,-127.701161 L39.9131291,-127.957857 C39.9768095,-128.001115 40.041564,-128.044615 40.1074007,-128.088362 L40.5154726,-128.353852 L40.949908,-128.625531 L41.6518466,-129.045228 L42.1538984,-129.333526 L42.6836799,-129.628929 L43.2415813,-129.931699 L43.8279929,-130.242098 L44.7619208,-130.722572 L45.4213156,-131.053188 L46.466548,-131.565213 L47.5803193,-132.097347 L48.763947,-132.650472 L50.0187483,-133.225472 L51.3460405,-133.823229 L53.230804,-134.657165 L55.2499045,-135.535222 L57.4594416,-136.482196 L59.6634778,-137.41449 L62.2454806,-138.488073 L63.7034221,-139.083541 L65.5420745,-139.821016 L67.2616767,-140.494269 L68.4740772,-140.95728 L69.2458557,-141.246071 L69.9886435,-141.519009 L70.7026122,-141.776138 L71.7199046,-142.132288 L72.362576,-142.350092 L72.9770285,-142.552244 L73.8461723,-142.826224 L74.3908283,-142.989443 L74.8129982,-143.111014 L76.3487813,-143.493387 L79.0778154,-144.16306 L81.7812055,-144.81373 L84.4589643,-145.445392 C85.7914381,-145.756471 87.1143049,-146.06042 88.4275719,-146.357237 L91.0413085,-146.94136 C95.3762104,-147.899047 99.6045014,-148.77747 103.726447,-149.576537 L106.186856,-150.046453 C108.226565,-150.430113 110.239701,-150.793929 112.226297,-151.13789 L114.597476,-151.541112 C122.065882,-152.787796 129.151245,-153.747701 135.855387,-154.420191 L137.959814,-154.623002 C139.354321,-154.751839 140.731939,-154.867935 142.092687,-154.971283 Z M143.349328,-111.792114 L142.692324,-111.677589 L140.261959,-111.286994 L135.349483,-110.505857 L130.368011,-109.724787 L125.317536,-108.943784 L120.026929,-108.136917 L119.855009,-108.116926 C110.506512,-107.029892 101.683149,-105.081174 93.3741672,-102.275543 L92.0938363,-101.836003 L90.8747316,-101.403341 L90.096492,-101.119363 L88.9816012,-100.701056 L87.9305409,-100.293096 L87.2657777,-100.027513 L86.6301071,-99.7674923 L86.0238183,-99.513419 L85.1701091,-99.1443036 L84.638541,-98.9067849 L83.8982693,-98.5643077 C83.8198524,-98.5272149 83.7427201,-98.4904502 83.6668783,-98.4540216 L83.0193098,-98.1354563 L82.6267965,-97.9338054 L82.26598,-97.7411849 L81.7848198,-97.470029 L81.5045114,-97.3016704 L81.2569126,-97.143691 L81.0423128,-96.996476 C81.0093121,-96.9728587 80.9776985,-96.9497059 80.9474779,-96.9270257 L80.7829191,-96.7966801 L80.6520826,-96.6780625 L78.737,-94.617 L78.998727,-82.8095542 L79.3317861,-63.3882592 L79.595981,-50.3172779 L79.7925249,-42.1571634 L80.0462425,-32.9295769 L80.05,-32.475 L80.0443138,-31.5978903 L80.0272751,-30.6787663 L79.9989141,-29.7173679 L79.9592608,-28.7134352 L79.9083453,-27.6667081 L79.8461977,-26.5769265 L79.7728479,-25.4438305 L79.6883262,-24.2671599 L79.5926625,-23.0466547 L79.4283417,-21.1331383 L79.2718296,-19.4387336 L79.2167068,-18.7402252 L79.1757876,-18.079253 L79.1483126,-17.456313 L79.1335223,-16.8719006 C79.130622,-16.6835729 79.1297092,-16.5017491 79.1306573,-16.3265118 L79.1389582,-15.8206421 L79.1576655,-15.3547873 C79.1616084,-15.2805069 79.1659532,-15.2079145 79.1706842,-15.1370203 L79.2035771,-14.7321173 L79.2449778,-14.3684684 C79.2979462,-13.968469 79.366734,-13.653709 79.4459146,-13.4277305 L79.4804696,-13.3363285 C80.2655402,-11.4172668 80.6878217,-9.35904745 80.7885157,-7.11583116 L81.2693855,-7.91170504 C81.345926,-8.04017806 81.4206629,-8.16656328 81.4935939,-8.29085849 L81.9094904,-9.01153199 L82.1884614,-9.50695886 L82.6853871,-10.3611516 L83.4668748,-11.6892945 L84.2917006,-13.0736971 L85.4589202,-15.0071499 L86.3849516,-16.5229775 L87.3543925,-18.0951957 L88.7145434,-20.2792732 L90.1519557,-22.5637636 L91.2807483,-24.3430834 L93.2587677,-27.4343556 L95.3577461,-30.6829596 L97.5777829,-34.0890772 L98.9679542,-36.20843 L101.381891,-39.8669479 L103.917143,-43.6834525 L106.277321,-47.2156865 L108.483883,-50.5020728 L111.547491,-55.0423263 L113.936407,-58.5664419 L117.333877,-63.5544566 C117.57804,-63.9003533 117.828838,-64.2631097 118.086228,-64.6426734 L118.609782,-65.4241954 C118.698501,-65.5581789 118.78795,-65.694026 118.878126,-65.8317348 L119.427895,-66.6803125 L119.995043,-67.5734781 C120.091011,-67.7260495 120.1877,-67.8804749 120.285108,-68.0367523 L120.878172,-68.9966259 L121.488415,-70.0008556 L122.115756,-71.0493486 L122.760116,-72.1420122 L123.421415,-73.2787536 L123.758392,-73.8636246 L124.338235,-74.8784243 L125.101366,-76.2293021 L125.884221,-77.6319714 L127.095263,-79.8328233 L128.35011,-82.1495345 L129.648415,-84.5817019 L130.670088,-86.5190638 L131.76111,-88.6134984 L132.520062,-90.0896602 L133.228008,-91.48425 L134.09234,-93.2161419 L134.680701,-94.4188866 L135.217567,-95.5387647 L135.85303,-96.9023607 L136.272017,-97.8339204 L136.631228,-98.664089 L136.835235,-99.1551084 L137.010522,-99.5946052 C137.037327,-99.6634858 137.062923,-99.7301631 137.087304,-99.7946089 L137.219,-100.158 L137.233785,-100.310507 C137.56718,-103.612202 139.157392,-106.560275 142.370547,-110.590382 L143.012812,-111.384299 C143.123266,-111.518999 143.235434,-111.654921 143.349328,-111.792114 Z M276.08239,-69.06185 C272.385977,-70.6959295 268.402504,-69.8826723 265.666514,-67.5575818 C264.410289,-66.4900209 263.709762,-65.4427597 263.193023,-64.3371263 C263.091048,-64.1189355 263.008435,-63.9217983 262.939744,-63.7395456 L262.875493,-63.5620259 L262.829,-63.424 L280.67,-64.9 L280.609071,-65.0097015 C279.774028,-66.45976 278.635,-67.7556652 276.757372,-68.7371701 L276.418271,-68.9070806 L276.08239,-69.06185 Z" id="Combined-Shape" fill="#000000" fill-rule="nonzero"></path>
    </g>
</svg>