<?xml version="1.0" encoding="UTF-8"?>
<svg width="1000px" height="1000px" viewBox="0 0 1000 1000" version="1.1" xmlns="http://www.w3.org/2000/svg" xmlns:xlink="http://www.w3.org/1999/xlink">
    <title>i_ti_l</title>
    <g id="i_ti_l" stroke="none" stroke-width="1" fill="none" fill-rule="evenodd">
        <g id="勹冖" transform="translate(63.555556, -0.250000)" fill="#000000" fill-rule="nonzero">
            <path d="M548.444444,308.25 C563.111111,307.583333 581.277778,307.75 602.944444,308.75 C624.611111,309.75 643.277778,310.583333 658.944444,311.25 C674.611111,311.916667 693.777778,316.583333 716.444444,325.25 C734.444444,332.583333 748.611111,339.75 758.944444,346.75 C769.277778,353.75 782.444444,364.25 798.444444,378.25 L817.444444,397.25 L812.444444,428.25 C809.777778,448.916667 807.111111,462.75 804.444444,469.75 C801.777778,476.75 799.777778,492.25 798.444444,516.25 C797.111111,540.25 795.111111,560.25 792.444444,576.25 C789.777778,592.25 787.777778,611.583333 786.444444,634.25 C785.111111,656.916667 782.444444,674.916667 778.444444,688.25 C774.444444,701.583333 772.444444,711.583333 772.444444,718.25 C772.444444,724.916667 770.611111,730.75 766.944444,735.75 C763.277778,740.75 760.777778,748.583333 759.444444,759.25 C756.777778,774.583333 744.944444,799.75 723.944444,834.75 C702.944444,869.75 683.777778,895.583333 666.444444,912.25 C653.777778,925.583333 641.444444,938.916667 629.444444,952.25 C604.777778,980.916667 579.444444,996.583333 553.444444,999.25 C537.444444,1001.25 526.944444,1000.75 521.944444,997.75 C516.944444,994.75 512.777778,987.583333 509.444444,976.25 C498.777778,940.916667 489.777778,919.583333 482.444444,912.25 C475.111111,905.583333 469.944444,902.25 466.944444,902.25 C463.944444,902.25 453.944444,897.916667 436.944444,889.25 C419.944444,880.583333 409.777778,871.583333 406.444444,862.25 L401.444444,848.25 L413.444444,851.25 C422.111111,853.916667 436.777778,855.916667 457.444444,857.25 C474.111111,858.583333 486.111111,857.75 493.444444,854.75 C500.777778,851.75 520.444444,840.583333 552.444444,821.25 C557.777778,818.583333 568.277778,807.583333 583.944444,788.25 C599.611111,768.916667 609.777778,753.916667 614.444444,743.25 C628.444444,718.583333 638.777778,692.916667 645.444444,666.25 C647.444444,656.916667 649.777778,647.583333 652.444444,638.25 C655.111111,628.916667 656.444444,620.25 656.444444,612.25 C656.444444,604.25 658.444444,591.583333 662.444444,574.25 C673.777778,524.916667 680.111111,472.25 681.444444,416.25 C682.111111,394.916667 681.944444,382.083333 680.944444,377.75 C679.944444,373.416667 677.111111,368.916667 672.444444,364.25 C667.111111,360.916667 661.111111,358.916667 654.444444,358.25 C647.777778,357.583333 633.111111,357.25 610.444444,357.25 C554.444444,358.583333 516.444444,364.25 496.444444,374.25 C485.777778,379.583333 471.444444,382.25 453.444444,382.25 C436.777778,381.583333 424.611111,379.416667 416.944444,375.75 C409.277778,372.083333 405.444444,366.583333 405.444444,359.25 C406.111111,353.916667 408.111111,349.916667 411.444444,347.25 C414.777778,344.583333 422.444444,339.916667 434.444444,333.25 C461.777778,319.25 499.777778,310.916667 548.444444,308.25 Z M410.444444,82.25 C417.777778,68.25 430.777778,67.5833333 449.444444,80.25 C459.444444,86.9166667 465.111111,90.25 466.444444,90.25 C469.777778,90.25 474.611111,93.9166667 480.944444,101.25 C487.277778,108.583333 491.111111,114.916667 492.444444,120.25 C495.777778,129.583333 495.444444,138.416667 491.444444,146.75 C487.444444,155.083333 485.444444,160.75 485.444444,163.75 C485.444444,166.75 479.944444,173.416667 468.944444,183.75 C457.944444,194.083333 451.777778,202.583333 450.444444,209.25 C446.444444,223.916667 439.444444,239.916667 429.444444,257.25 C426.111111,261.916667 417.777778,278.25 404.444444,306.25 C385.777778,344.916667 371.111111,372.083333 360.444444,387.75 C349.777778,403.416667 332.444444,423.25 308.444444,447.25 C287.111111,469.25 273.777778,484.25 268.444444,492.25 C256.444444,506.916667 233.777778,527.916667 200.444444,555.25 C193.777778,560.583333 188.111111,564.583333 183.444444,567.25 C178.777778,569.916667 175.277778,571.083333 172.944444,570.75 C170.611111,570.416667 169.277778,568.916667 168.944444,566.25 C168.611111,563.583333 169.944444,559.583333 172.944444,554.25 C175.944444,548.916667 180.111111,542.583333 185.444444,535.25 C196.111111,521.25 201.444444,513.583333 201.444444,512.25 C201.444444,510.916667 205.277778,504.25 212.944444,492.25 C220.611111,480.25 224.444444,473.583333 224.444444,472.25 C224.444444,470.916667 234.111111,454.583333 253.444444,423.25 C272.777778,391.916667 290.444444,360.25 306.444444,328.25 C322.444444,296.25 332.111111,277.583333 335.444444,272.25 C338.777778,266.916667 342.777778,258.916667 347.444444,248.25 L362.444444,215.25 C376.444444,183.25 388.444444,149.25 398.444444,113.25 C402.444444,100.583333 406.444444,90.25 410.444444,82.25 Z" id="勹"></path>
            <path d="M511.444444,2.25 C631.444444,0.25 695.777778,-0.416666667 704.444444,0.25 C713.111111,0.916666667 728.444444,1.91666667 750.444444,3.25 C786.444444,6.58333333 816.444444,19.9166667 840.444444,43.25 C853.777778,55.9166667 863.111111,70.5833333 868.444444,87.25 C873.777778,103.916667 873.111111,115.25 866.444444,121.25 C861.777778,124.583333 860.277778,130.083333 861.944444,137.75 C863.611111,145.416667 858.111111,155.583333 845.444444,168.25 C818.777778,196.25 800.777778,210.25 791.444444,210.25 C786.111111,210.25 781.444444,211.083333 777.444444,212.75 C773.444444,214.416667 766.444444,210.583333 756.444444,201.25 L740.444444,187.25 L713.444444,193.25 C696.111111,196.583333 681.777778,200.583333 670.444444,205.25 C659.111111,209.916667 647.777778,213.083333 636.444444,214.75 C625.111111,216.416667 615.111111,219.583333 606.444444,224.25 C599.777778,227.583333 590.111111,231.75 577.444444,236.75 C564.777778,241.75 557.111111,244.25 554.444444,244.25 C552.444444,244.25 555.111111,240.583333 562.444444,233.25 C569.777778,225.916667 578.277778,218.083333 587.944444,209.75 C597.611111,201.416667 604.777778,195.583333 609.444444,192.25 C621.444444,184.916667 638.611111,169.416667 660.944444,145.75 C683.277778,122.083333 694.444444,107.25 694.444444,101.25 C694.444444,89.25 670.777778,78.5833333 623.444444,69.25 C606.777778,65.25 580.277778,61.25 543.944444,57.25 C507.611111,53.25 482.777778,51.25 469.444444,51.25 C438.777778,51.25 391.111111,57.25 326.444444,69.25 C311.777778,72.5833333 291.444444,75.9166667 265.444444,79.25 C239.444444,82.5833333 226.444444,85.4166667 226.444444,87.75 C226.444444,90.0833333 222.944444,91.25 215.944444,91.25 C208.944444,91.25 199.444444,94.0833333 187.444444,99.75 C175.444444,105.416667 162.777778,109.916667 149.444444,113.25 C139.444444,115.25 133.277778,117.25 130.944444,119.25 C128.611111,121.25 127.111111,125.916667 126.444444,133.25 C124.444444,143.25 123.444444,165.916667 123.444444,201.25 L123.444444,253.25 L97.4444444,279.25 C86.1111111,290.583333 77.6111111,297.916667 71.9444444,301.25 C66.2777778,304.583333 59.7777778,306.583333 52.4444444,307.25 C30.4444444,309.25 15.2777778,301.916667 6.94444444,285.25 C-1.38888889,268.583333 -2.22222222,241.583333 4.44444444,204.25 C9.77777778,174.916667 18.4444444,149.083333 30.4444444,126.75 C42.4444444,104.416667 62.1111111,79.5833333 89.4444444,52.25 C98.7777778,42.9166667 104.777778,37.9166667 107.444444,37.25 C110.111111,36.5833333 113.444444,39.25 117.444444,45.25 L124.444444,53.25 L150.444444,43.25 C166.444444,35.25 182.444444,29.5833333 198.444444,26.25 C261.777778,15.5833333 306.277778,9.08333333 331.944444,6.75 C357.611111,4.41666667 417.444444,2.91666667 511.444444,2.25 Z" id="冖"></path>
        </g>
    </g>
</svg>