<?xml version="1.0" encoding="UTF-8"?>
<svg width="1000px" height="1000px" viewBox="0 0 1000 1000" version="1.1" xmlns="http://www.w3.org/2000/svg" xmlns:xlink="http://www.w3.org/1999/xlink">
    <title>j_mo_l</title>
    <g id="j_mo_l" stroke="none" stroke-width="1" fill="none" fill-rule="evenodd">
        <g id="木" transform="translate(47.000000, 6.000000)" fill="#000000" fill-rule="nonzero">
            <path d="M459.221308,0.259039677 C463.496449,-1.16567855 469.374766,3.2865659 476.856262,13.615773 C484.337757,23.9449801 489.859813,34.0960975 493.42243,44.069125 C496.985047,58.3163073 497.875701,86.2764024 496.094393,127.94941 C494.313084,169.622418 494.491215,194.376898 496.628785,202.212848 L500.903925,212.898234 L568.237383,211.829696 C613.838879,211.117337 638.064673,208.62408 640.914766,204.349925 C643.76486,200.07577 654.808972,200.25386 674.047103,204.884194 C693.285234,209.514529 707.891963,212.542055 717.86729,213.966773 C730.69271,217.528569 739.06486,220.199915 742.983738,221.980813 C746.902617,223.761711 750.999626,228.570135 755.274766,236.406085 C761.687477,247.091472 764.53757,256.17405 763.825047,263.653821 C763.112523,271.133592 758.481121,279.503811 749.930841,288.76448 L736.036636,304.79256 L677.253458,293.038634 C646.614953,286.627402 612.770093,282.175158 575.718879,279.681901 C538.667664,277.188644 518.004486,277.366734 513.729346,280.21617 C510.879252,282.353248 508.385421,297.312789 506.24785,325.094794 L504.11028,366.767802 L525.485981,393.481269 C536.886355,407.016092 554.87757,426.784058 579.459626,452.785165 C604.041682,478.786273 623.101682,497.841879 636.639626,509.951984 L656.946542,529.18568 C719.648598,588.311486 772.375327,629.272135 815.126729,652.067627 C833.652336,662.040654 844.696449,668.095707 848.259065,670.232784 C853.246729,673.794579 866.784673,681.09626 888.872897,692.137827 C910.961121,703.179393 923.43028,708.700176 926.280374,708.700176 C933.405607,708.700176 939.640187,711.371523 944.984112,716.714216 C950.328037,722.056909 953,727.577692 953,733.276565 C953,738.975438 951.753084,742.715323 949.259252,744.496221 C946.765421,746.277119 940.530841,748.592286 930.555514,751.441723 C916.305047,754.291159 905.973458,755.715877 899.560748,755.715877 C891.722991,755.715877 879.610093,758.743403 863.222056,764.798456 C846.834019,770.853508 834.36486,777.086651 825.814579,783.497883 C815.126729,790.621474 807.288972,794.183269 802.301308,794.183269 C798.026168,794.183269 785.378879,787.059678 764.359439,772.812496 C743.34,758.565314 724.992523,744.318131 709.317009,730.070949 C690.791402,713.68669 679.034766,703.891752 674.047103,700.686136 C669.059439,697.48052 655.877757,682.699068 634.502056,656.341781 C613.126355,629.984494 597.807103,611.463157 588.544299,600.777771 C579.281495,591.517102 567.881121,578.160369 554.343178,560.707571 C540.805234,543.254772 534.036262,533.103655 534.036262,530.254219 C534.036262,528.8295 530.117383,523.308717 522.279626,513.691869 C514.441869,504.075021 509.810467,499.266597 508.385421,499.266597 C506.24785,499.266597 505.179065,514.938498 505.179065,546.282299 C505.891589,596.147436 503.93215,654.917063 499.300748,722.591179 C494.669346,790.265294 489.859813,831.225943 484.87215,845.473125 C482.022056,855.446153 480.240748,862.569744 479.528224,866.843899 L474.184299,898.900059 C470.621682,920.983191 465.455888,942.353964 458.686916,963.012379 C451.917944,983.670793 446.75215,994 443.189533,994 C438.201869,994 433.392336,992.041012 428.760935,988.123037 C424.129533,984.205062 421.45757,979.396638 420.745047,973.697765 C418.607477,965.149456 415.401121,959.806763 411.125981,957.669685 C405.425794,954.10789 401.150654,914.393869 398.300561,838.527624 C395.450467,762.661379 395.450467,674.863118 398.300561,575.132843 C400.438131,501.759854 400.081869,465.07336 397.231776,465.07336 C394.381682,465.07336 387.61271,473.0874 376.92486,489.11548 C366.237009,505.14356 355.549159,518.322203 344.861308,528.651411 C334.173458,538.980618 328.829533,545.569939 328.829533,548.419376 C328.829533,552.693531 305.316262,577.982279 258.28972,624.285621 C246.889346,635.683367 234.063925,646.724933 219.813458,657.41032 C205.562991,668.095707 195.231402,676.287836 188.818692,681.986709 C182.405981,687.685582 177.95271,690.535019 175.458879,690.535019 C172.965047,690.535019 169.40243,693.384455 164.771028,699.083328 C160.139626,704.782201 150.34243,711.015343 135.379439,717.782755 C120.416449,724.550166 112.044299,728.646231 110.262991,730.070949 C108.481682,731.495667 104.384673,733.454655 97.9719626,735.947912 C91.5592523,738.441169 80.1588785,744.318131 63.7708411,753.5788 C26.0071028,775.661932 4.98766355,784.566421 0.712523364,780.292267 C0,778.155189 -0.178130841,776.552381 0.178130841,775.483843 C0.534392523,774.415304 2.31570093,772.634406 5.52205607,770.141149 C8.72841121,767.647892 12.4691589,764.442276 16.7442991,760.524301 C21.0194393,756.606326 27.0758879,751.441723 34.9136449,745.030491 C50.5891589,733.632745 74.1024299,711.371523 105.453458,678.246824 C136.804486,645.122125 158.89271,620.011467 171.718131,602.914848 L189.887477,578.338459 C214.825794,544.145221 229.076262,525.980064 232.638879,523.842987 C236.201495,521.705909 237.982804,518.678383 237.982804,514.760408 C237.982804,510.842433 239.764112,508.527266 243.326729,507.814907 C244.751776,506.390188 256.864673,491.786827 279.665421,464.004821 C302.466168,436.222816 316.716636,417.345299 322.416822,407.372272 C333.817196,389.563294 346.820748,366.767802 361.427477,338.985797 C376.034206,311.203792 382.625047,296.60043 381.2,295.175712 C379.774953,293.038634 355.72729,298.025148 309.057009,310.135253 C262.386729,322.245358 224.44486,333.643104 195.231402,344.32849 C171.718131,352.8768 156.398879,357.150954 149.273645,357.150954 C144.998505,357.150954 136.091963,351.630171 122.554019,340.588605 C109.016075,329.547039 102.247103,322.245358 102.247103,318.683562 C102.247103,315.121767 99.3970093,311.381882 93.6968224,307.463906 C87.9966355,303.545931 85.1465421,297.668969 85.1465421,289.833018 C85.1465421,281.997068 89.0654206,275.942016 96.9031776,271.667861 C104.740935,267.393706 122.197757,261.694834 149.273645,254.571242 C169.936822,250.297088 184.721682,246.735292 193.628224,243.885856 C202.534766,241.036419 214.113271,240.32406 228.363738,241.748778 C242.614206,243.173497 273.965234,240.68024 322.416822,234.269008 L396.162991,223.583621 L396.162991,186.184768 C396.162991,111.387061 400.081869,61.5219233 407.919626,36.5893544 C412.194766,25.1916086 416.826168,16.9994788 421.813832,12.012965 C426.801495,7.02645123 433.214206,3.82083523 441.051963,2.39611701 L459.221308,0.259039677 Z"></path>
        </g>
    </g>
</svg>