<?xml version="1.0" encoding="UTF-8"?>
<svg width="800px" height="470px" viewBox="0 0 800 470" version="1.1" xmlns="http://www.w3.org/2000/svg" xmlns:xlink="http://www.w3.org/1999/xlink">
    <title>k_gou_m</title>
    <g id="k_gou_m" stroke="none" stroke-width="1" fill="none" fill-rule="evenodd">
        <path d="M671.198851,22.5002588 L672.997511,22.5002588 L676.331235,22.5137709 L679.899808,22.5419876 L685.023234,22.6034616 L689.848733,22.6796124 L694.993907,22.7766332 L702.898705,22.9514374 L709.69229,23.1219468 L719.715273,23.4009053 L731.549832,23.7639995 L745.430887,24.2265616 L755.686825,24.5889617 L759.104,24.713 L759.161132,24.6868437 C764.278289,22.3989558 770.326024,22.4144737 777.481145,24.5631181 L778.00667,24.7241404 L778.536162,24.8927617 L779.046425,25.0611978 L779.722141,25.2928877 L779.890438,25.358035 C788.627984,28.7403107 796.163365,33.8620693 802.390118,40.6548914 C805.876165,44.4578517 808.129996,50.5476824 809.565433,59.3816195 L809.66204,59.988191 L809.8388,61.1648346 L810.005451,62.3624394 L810.085721,62.9736004 L810.238808,64.2082313 L810.381038,65.4479707 L810.447562,66.0659608 L810.598109,67.5856413 L810.726766,69.0794358 L810.813473,70.2563131 L810.900153,71.6918926 L810.962478,73.0936776 C811.114982,77.3295611 810.905223,80.8361952 810.306552,83.4783831 L810.222502,83.8333106 L810.128738,84.1948935 L810.094965,84.2800674 L810.036423,84.9264107 L809.985819,85.5837782 L809.908054,86.7598542 L809.788313,88.9368713 L809.68644,91.1177049 L809.534416,94.9049058 L809.36312,99.8963055 L809.208497,105.021334 L808.731707,124.08469 L808.265834,146.701932 L807.566616,185.198163 L806.64711,236.15731 L806.366279,250.338371 L806.148143,260.119815 L806.001826,265.734831 L805.863838,270.148541 L805.773545,272.546467 L805.682582,274.593872 L805.589192,276.364048 L805.478161,278.128949 L805.30512,281.112528 L805.158807,283.421077 L804.969998,286.109798 L804.852327,287.623617 L804.68926,289.527763 L804.561481,290.873621 L804.473178,291.734395 L804.336036,292.968208 L804.240981,293.755506 L804.142688,294.516075 L803.989482,295.602998 L803.882826,296.295377 L803.715731,297.286012 L803.599295,297.915419 L803.478585,298.520767 L803.353388,299.102702 L803.223484,299.661869 L803.055269,300.325627 L803.019311,300.459336 L802.876648,300.964389 L802.730284,301.443313 L802.652237,301.683658 L802.457177,302.243831 L802.251153,302.778739 L802.122192,303.08725 L801.987459,303.390166 L801.883988,303.587514 L801.788745,303.955446 L801.702813,304.32675 L801.602728,304.799116 L801.499468,305.327868 L801.393569,305.911114 L801.285701,306.545939 L801.120527,307.595518 L800.966299,308.657664 L800.785661,309.99826 L800.604,311.450907 L800.36012,313.563577 L800.17624,315.278194 L800.053328,316.482163 L799.868399,318.380533 L799.610199,321.206798 L799.384133,323.86505 L799.135421,326.951821 L798.194487,339.094834 L797.910163,342.587709 L797.710845,344.885793 L797.499524,347.115699 L797.32341,348.762395 L797.19939,349.789005 L797.05027,350.872924 L796.974035,351.365267 L796.870282,351.973147 L796.762969,352.533429 L796.651133,353.052923 L796.533427,353.539884 L796.37841,354.106734 L796.186932,354.738619 L796.119077,354.999369 L796.013526,355.469772 L795.942729,355.828102 L795.871546,356.2229 L795.800392,356.652176 L795.693467,357.363376 L795.551386,358.435153 L795.44613,359.326981 L795.34242,360.292778 L795.206948,361.696213 L795.108168,362.831597 L794.980703,364.456439 L794.888916,365.754843 L794.772183,367.592131 L794.662676,369.549021 L794.566564,371.387936 L794.49327,372.682875 L794.376987,374.556403 L794.252831,376.348351 L794.165484,377.498922 L794.074395,378.614236 L793.979477,379.694573 L793.880542,380.741144 L793.724828,382.244254 L793.615784,383.204414 L793.502493,384.130888 L793.384858,385.023972 L793.263189,385.881219 L793.200036,386.301647 L793.07109,387.112572 L792.93743,387.891174 L792.764193,388.816225 L792.581873,389.698352 L792.430746,390.366356 L792.274974,391.00101 L792.195467,391.305458 C791.600049,393.538275 791.257555,395.977711 791.171627,398.623984 L791.155493,399.289862 L791.15,399.975 C791.15,406.176861 789.907776,410.698842 787.01712,414.059407 L786.772407,414.336777 L786.53,414.596 L786.528556,414.626226 C786.225764,418.184942 784.966367,421.382831 782.811388,423.97717 L782.537355,424.298301 L782.254021,424.61304 L781.955192,424.92734 L781.899,424.983 L781.881825,425.041834 C781.494346,426.255467 780.882407,427.420468 779.835499,428.975217 L779.604427,429.314502 L779.35958,429.666678 L778.848009,430.384722 L778.305129,431.129807 L777.865182,431.721844 L777.392928,432.34394 L776.887575,432.997175 L776.069628,434.032846 L775.482271,434.763261 L774.539718,435.917046 L773.522234,437.142204 L772.801119,438.000128 L770.571255,440.623554 L769.561532,441.823517 L768.629895,442.944155 L767.508479,444.315567 L766.759086,445.250552 L766.30453,445.827468 L765.688291,446.625605 L765.191791,447.287518 L764.909996,447.674246 L764.668451,448.015365 L764.415,448.388 L764.21714,448.910931 C761.554182,455.795438 757.763821,460.949838 752.803805,464.281653 L752.387762,464.555083 L751.977459,464.813199 L751.56167,465.063346 L751.308487,465.207798 L750.267612,465.826522 L748.669191,466.764006 L747.134563,467.650598 L746.14449,468.214333 L744.710343,469.017486 L743.785716,469.52565 L742.885829,470.011941 L742.010003,470.476477 L741.15756,470.919376 L740.32782,471.340756 L739.520097,471.740731 L738.733707,472.119416 L737.782264,472.56183 L736.859981,472.97223 L736.495631,473.128835 L735.791579,473.421875 L735.443688,473.56168 L735.097555,473.697302 L734.42925,473.948817 C734.133272,474.057031 733.842714,474.158933 733.55566,474.255117 L733.127465,474.395177 L732.501856,474.586837 L731.896963,474.756482 C731.628167,474.828236 731.363738,474.893883 731.102335,474.953695 L730.712331,475.039072 L730.373,475.106 L730.23928,475.229796 L729.946855,475.507606 L729.624621,475.824621 C728.039355,477.409887 726.649361,478.625373 725.328001,479.569201 C722.614163,481.507657 720.246497,482.4 717.3,482.4 C714.169862,482.4 711.624358,481.366047 708.946952,479.224122 C707.656425,478.191701 706.360331,476.889359 704.924637,475.200308 C702.650595,472.524965 700.764647,469.696972 699.275305,466.722919 L698.962233,466.083388 L698.943457,466.026402 L698.87585,465.928473 L698.74092,465.749462 L698.573683,465.540563 L698.258961,465.168354 L697.873008,464.733063 L697.417648,464.237718 L696.895118,463.68565 L696.093809,462.862888 L695.417256,462.185033 L694.931899,461.706365 L694.15065,460.947261 L693.596603,460.416407 L692.715124,459.58313 L691.446731,458.405648 L690.77549,457.792076 L690.071874,457.157879 L689.234431,456.416806 L688.449167,455.737518 L687.856123,455.236207 L687.296014,454.77356 L686.7695,454.349919 L686.277307,453.965653 L685.820255,453.621171 L685.398397,453.316305 L685.14,453.138 L684.977986,453.108108 C683.326974,452.772238 681.894114,452.102372 680.152108,450.896398 L679.799429,450.647995 L679.437569,450.384937 L679.062279,450.104538 L678.741787,449.860052 C678.440959,449.628646 678.129931,449.380886 677.806469,449.114968 L677.47878,448.842929 L676.811881,448.273978 L676.348841,447.868028 L675.381906,446.995462 L674.622199,446.289562 L673.831753,445.53903 L673.421148,445.143448 L672.606203,444.346251 C670.858489,442.617001 669.490903,441.128688 668.436606,439.802313 C665.825864,436.517832 664.8,434.154195 664.8,430.775 C664.8,425.728061 667.681973,422.024005 672.225704,420.320106 C673.73276,419.75496 675.261558,419.474503 677.188305,419.371285 C678.632227,419.293932 680.335881,419.325519 682.376501,419.465008 L682.893721,419.502128 L683.947361,419.587786 L684.497702,419.637294 L686.104452,419.796892 L686.637721,419.843417 C696.370723,420.644099 703.733261,419.573732 708.530378,416.789298 L708.833091,416.609242 L709.10519,416.439809 L709.251685,416.343742 L709.30802,416.302358 L709.511457,416.138354 L709.896751,415.804497 L710.203095,415.525733 L710.545494,415.204512 L711.127431,414.640822 L711.555094,414.215165 L712.25647,413.499733 L712.767343,412.966792 L713.36777,412.329682 L713.996579,411.651645 L714.995134,410.555423 L715.696158,409.773499 L716.425152,408.950976 L717.572553,407.639302 L718.371921,406.714595 L719.623827,405.250648 L720.652488,404.034307 L721.946498,402.484929 L722.857614,401.379091 L723.717565,400.322081 L724.525948,399.3147 L725.28235,398.357766 L725.98635,397.452111 L726.637514,396.598593 L727.235391,395.798102 L727.780203,395.050599 L728.112133,394.584382 L728.566398,393.92878 L728.838104,393.523976 L729.085085,393.144878 L729.307124,392.791986 L729.503032,392.467563 L729.698999,392.123984 L729.727432,392.068213 L729.777284,391.959523 L729.825309,391.847413 L729.958087,391.501052 L729.991196,391.407375 L730.10736,391.055565 L730.227485,390.657438 L730.351347,390.213128 L730.47882,389.72263 L730.609837,389.185844 L730.744369,388.602605 L730.882411,387.972702 L731.023976,387.295888 L731.168925,386.572737 L731.393341,385.397517 L731.625929,384.114481 L731.866752,382.723059 L732.201271,380.695283 L732.462175,379.045224 L732.823983,376.669048 L733.202003,374.089709 L733.596699,371.304153 L733.90382,369.078732 L734.437693,365.104276 L734.771354,362.559645 L735.350488,358.046565 L735.959063,353.189337 L736.597936,347.982447 L737.405843,341.264352 L738.114452,335.268227 L739.162331,326.25424 L740.117178,317.914164 L740.174807,317.39738 L740.289717,316.304785 L740.403816,315.137224 L740.517073,313.895716 L740.629459,312.581258 L740.74095,311.194838 L740.851523,309.73743 L740.961126,308.210436 L741.1238,305.78968 L741.230977,304.091751 L741.389868,301.419889 L741.598146,297.628628 L741.70065,295.638292 L741.902447,291.47006 L742.050854,288.184774 L742.196679,284.766659 L742.387018,280.007484 L742.572552,275.024847 L742.708456,271.146094 L742.885239,265.791115 L743.140692,257.380322 L743.304304,251.532432 L743.462408,245.50089 L743.725478,234.524874 L743.902437,226.376301 L744.037235,219.683819 L744.258254,207.623452 L744.432169,196.959431 L744.59839,185.472733 L744.713089,176.455914 L744.828102,166.092645 L744.923022,155.984549 L745.007108,144.86148 L745.065407,134.326299 L745.098167,124.51478 L745.106072,116.630494 L745.088047,107.606777 L745.05231,101.568488 L745.015266,97.8370787 L744.95824,94.0508231 L744.912684,91.9732762 L744.874636,90.6627633 L744.835,89.628 L739.538201,89.0553014 L733.945885,88.4634175 L728.453257,87.8959266 L723.060319,87.3528283 L719.081038,86.9615122 L715.157835,86.5839169 L712.573521,86.3398092 L710.014131,86.1017996 L707.479665,85.869888 L702.485507,85.4243588 L700.025814,85.2107411 L696.383011,84.9017482 L692.79629,84.6064757 L689.265652,84.3249233 L686.943052,84.144844 L684.645377,83.9708625 L682.372629,83.8029788 L679.010246,83.5625866 L675.703949,83.3359142 L672.453739,83.1229617 L669.259617,82.923729 L666.121583,82.738216 L663.03964,82.5664225 L660.013786,82.4083486 L657.044024,82.2639942 L653.171596,82.0928629 L650.332716,81.9805203 L647.54993,81.8818968 L644.823239,81.7969926 L642.152644,81.7258073 L640.403411,81.6859722 L637.82631,81.6376519 L635.305306,81.6030506 L633.655803,81.5876045 L631.211975,81.5758349 L626.433045,81.578574 L621.084187,81.5943838 L615.614161,81.622816 L610.022966,81.6638705 L602.863578,81.732939 L595.514866,81.8217301 L589.499583,81.9069632 L583.363133,82.0048189 L575.522179,82.1448888 L567.491904,82.3046815 L560.931371,82.446716 L554.249674,82.6013732 L547.446812,82.7686529 L538.772847,82.9955032 L528.114187,83.2937578 L519.023721,83.5639985 L509.743939,83.8539623 L498.358302,84.2279532 L486.70005,84.6303455 L476.776595,84.9873678 L464.618554,85.4418292 L445.090796,86.1751656 L427.477018,86.7950411 L401.984096,87.6538555 L366.084952,88.8529628 L344.240457,89.6059996 L329.213806,90.1467961 L321.890913,90.4219912 L314.008569,90.7314721 L309.274267,90.9266019 L304.935555,91.1138149 L300.974534,91.2939986 L296.527116,91.5106957 L294.113963,91.6368291 L290.493299,91.8417787 L287.937762,92.0019916 L285.665939,92.1598356 L284.13749,92.2771981 L282.75101,92.394102 L281.901831,92.4719681 L280.735183,92.5889397 L279.690365,92.7064514 L278.759826,92.8248776 L278.199226,92.9045215 L277.683822,92.9848491 L277.211377,93.0659716 L270.926261,94.2829394 L264.880846,95.4659073 L259.075477,96.6147461 L254.879185,97.4539002 L249.49472,98.5427018 L245.614501,99.3366795 L241.869983,100.111205 L237.088634,101.113552 L233.661316,101.842477 L230.370182,102.551768 L226.194095,103.466852 L222.260714,104.346806 L219.47016,104.983638 L216.816467,105.600582 L215.123443,106.000801 L212.698172,106.584476 L211.157563,106.962466 L209.677996,107.331535 L208.259513,107.691668 L206.902157,108.042849 L204.98083,108.552798 L203.77648,108.881527 L202.633407,109.201246 L201.551655,109.51194 L200.531266,109.813592 L199.572282,110.106187 L198.674748,110.389709 L197.838706,110.66414 C197.704493,110.70912 197.572843,110.753721 197.443758,110.797941 L196.700034,111.058707 C194.561241,111.827318 193.254038,112.472668 192.783641,112.992795 C192.52853,113.345934 192.094918,113.65914 191.480174,113.934048 L191.157695,114.068318 C190.707565,114.24311 190.176737,114.401002 189.564431,114.542479 L189.089912,114.645516 L188.584766,114.742442 L188.04892,114.833304 L187.4823,114.918146 L186.884833,114.997015 C186.782681,115.009664 186.67924,115.022066 186.574509,115.034223 L185.930636,115.104215 C185.82074,115.115391 185.709551,115.126322 185.597068,115.137011 L184.906623,115.198229 L184.185039,115.253656 L183.432243,115.303335 L182.648162,115.347313 L181.832723,115.385635 L180.985852,115.418347 L180.107477,115.445493 L179.197525,115.467119 L178.255922,115.483271 L176.784012,115.497335 L175.762963,115.5 C174.130954,115.5 172.565012,115.474416 171.065077,115.423195 L169.795582,115.373012 C169.168916,115.34478 168.55437,115.311837 167.951941,115.274178 L166.763236,115.192571 C161.095896,114.767739 156.560453,113.902011 153.152738,112.591688 C149.476935,111.178282 145.521919,109.402562 141.287415,107.264522 L139.865562,106.538422 C138.910759,106.04541 137.942152,105.534505 136.959738,105.005707 L135.475763,104.199092 L133.971076,103.365637 C132.961047,102.801055 131.937209,102.218579 130.899558,101.618211 L129.332722,100.70424 C128.80699,100.395109 128.277804,100.081506 127.745165,99.7634291 L126.136885,98.7957792 L124.50788,97.80129 L122.858147,96.7799614 C122.581464,96.6075034 122.303917,96.433927 122.025507,96.2592324 L120.344678,95.1976446 L118.643116,94.1092174 L116.427457,92.6721129 L114.0482,91.1062732 L112.249666,89.9053341 L110.544128,88.7500502 L109.32588,87.9133654 L108.159738,87.1020621 L107.045618,86.3160119 L105.640894,85.3070059 L104.647816,84.5793807 L104.014509,84.108097 L103.107602,83.421776 L102.25228,82.7600665 L101.710681,82.3325364 L101.191945,81.9158497 L100.456653,81.3110677 L99.9949608,80.9213229 L99.5560416,80.5422884 L99.1398692,80.1739261 L98.7464179,79.816198 L98.3756619,79.4690661 L98.0275755,79.1324922 L97.702133,78.8064385 C97.6497781,78.7529708 97.5983656,78.6999398 97.5478951,78.6473448 L97.2563699,78.3369999 L96.9874242,78.03708 C96.9444801,77.98796 96.9024758,77.9392728 96.8614106,77.8910175 L96.6262858,77.6066639 L96.413676,77.3326402 C96.3801159,77.2878283 96.3474928,77.2434452 96.3158062,77.1994902 L96.1369208,76.9408901 C96.1089781,76.8986441 96.081971,76.8568245 96.0558987,76.8154305 L95.9106796,76.5721685 C95.7096664,76.2149184 95.5842939,75.8920185 95.534171,75.6028911 L95.518,75.488 L95.4739252,75.4122205 C94.9577425,74.4656971 95.3632298,73.2288811 96.6685881,71.6669287 L96.9734715,71.3144619 L97.3079272,70.9512061 C97.5407432,70.7054203 97.7932387,70.4523852 98.0653426,70.1919875 L98.488196,69.7958547 C98.5611196,69.7289075 98.6352666,69.6614966 98.7106358,69.5936202 L99.1775086,69.1807622 L99.6736613,68.7566477 L100.199041,68.3211918 L100.753593,67.8743096 L101.337267,67.4159161 L101.950007,66.9459263 L102.591762,66.4642552 L103.262477,65.9708179 L103.608678,65.7196604 L104.695521,64.9428753 C105.053748,64.6895962 105.407924,64.4419657 105.758062,64.1999817 L106.79637,63.4909672 L107.810515,62.8158197 C112.319905,59.8538384 116.097457,57.9201958 119.171713,57.0098868 C120.438296,56.7542003 121.699856,56.5017744 122.956395,56.2526092 L126.710943,55.5148958 L130.435359,54.7967466 L134.129643,54.0981617 C134.742846,53.9833612 135.354793,53.8693759 135.965485,53.7562058 L139.614571,53.0869675 C140.220241,52.9770582 140.824655,52.867964 141.427814,52.759685 L145.031702,52.1197935 L148.605458,51.4994665 C150.977919,51.0924368 153.330292,50.6984502 155.662578,50.3175068 L159.145942,49.7558742 L162.599175,49.2138066 C172.340652,47.7056652 181.719313,46.4331193 190.735184,45.3961769 L192.992193,45.1407047 L194.360575,44.9899873 L196.485409,44.7617578 L198.696956,44.5309442 L202.575568,44.1405117 L205.85189,43.8229967 L210.164088,43.4196412 L213.787285,43.0917871 L218.533084,42.6755068 L225.581911,42.0806499 L233.102909,41.4717163 L241.096092,40.8487045 L249.561473,40.211613 L255.897283,39.7479265 L265.172179,39.0866948 L273.49795,38.5087152 L285.138691,37.7219783 L298.971833,36.8149065 L306.994252,36.3009144 L310.770127,36.0796167 L315.368036,35.8276207 L320.283081,35.5756063 L326.89777,35.258981 L335.568181,34.8739968 L345.923777,34.4468896 L357.348893,34.0049991 L371.952368,33.4709364 L430.730699,31.4240808 L442.552797,30.968188 L449.563029,30.6670466 L453.729899,30.4671351 L456.578373,30.3150347 L459.284816,30.1510881 L461.036436,30.0280703 L461.694851,29.9763938 L464.872697,29.745587 L467.562987,29.5599102 L472.587584,29.2327695 L478.015121,28.9028203 L482.988007,28.6177708 L489.163879,28.2826039 L495.742711,27.9446266 L504.793328,27.5059536 L512.293241,27.1615499 L523.706462,26.6646653 L534.681547,26.2125598 L547.657424,25.7047637 L560.038936,25.2428346 L571.340706,24.8379728 L586.175733,24.3329381 L597.675944,23.9653802 L603.817024,23.7789351 L610.952565,23.5719404 L621.177746,23.295688 L629.785133,23.0846237 L636.944732,22.9265736 L642.805292,22.8108852 L649.320341,22.6989959 L655.488331,22.6119627 L662.112501,22.5429322 L666.78316,22.5124646 L671.198851,22.5002588 Z M140.95,-75.5 C143.562775,-75.5 145.030145,-75.073338 147.403813,-73.6255419 L147.733305,-73.42173 L148.362756,-73.0197907 L149.040775,-72.5748641 L149.692662,-72.1396388 L150.30335,-71.7219681 L150.953451,-71.2675818 L151.643569,-70.7761339 L152.374908,-70.2468301 L153.547713,-69.3831793 L154.382795,-68.7590889 L156.803655,-66.9272053 L157.481867,-66.4206807 L158.426521,-65.7255674 L159.005639,-65.3067635 L159.542865,-64.9244956 L160.273181,-64.4172965 L160.707619,-64.1246477 L160.993,-63.936 L161.187603,-63.8855073 C162.373737,-63.5554602 163.474029,-63.0324186 164.740354,-62.2182997 L165.090021,-61.9889768 L165.449056,-61.7447782 L165.840261,-61.4699102 L166.157053,-61.2417289 C167.077753,-60.5721285 168.092727,-59.7484782 169.240441,-58.7413151 L169.627982,-58.3987569 L170.221909,-57.8572654 L170.360747,-57.7619219 C173.226465,-55.7312402 175.291304,-53.5895608 176.681635,-51.1089249 L176.885141,-50.7342588 L177.096096,-50.3180927 L177.283848,-49.9199309 C178.546733,-47.1415844 179.1,-43.9252971 179.1,-39.8 C179.1,-33.2623447 177.78646,-28.6174926 174.675494,-25.2123985 L174.432636,-24.9529024 L174.152527,-24.668782 L173.993,-24.515 L173.905069,-24.2447031 C173.300452,-22.494464 172.279857,-20.9320728 170.820065,-19.4345683 L170.500521,-19.1146228 L170.167482,-18.7963948 L169.85185,-18.5074614 L169.589948,-18.2758932 C168.276318,-17.1317642 166.671041,-16.0274597 164.6526,-14.867639 L164.179416,-14.5989592 L163.673742,-14.3184697 C162.677709,-13.7722577 161.884492,-13.2493765 161.341855,-12.7928393 L161.130829,-12.6069952 L161.041384,-12.5218712 L160.978,-12.456 L160.833257,-12.1687782 L160.512739,-11.5857808 L160.148761,-10.9727932 L159.88156,-10.5466345 L159.594428,-10.1059082 L159.28711,-9.65014156 L158.958444,-9.17760979 L158.428819,-8.44191097 L158.048829,-7.92991858 L157.6468,-7.39997237 L157.004917,-6.57437514 L156.549105,-6.00081375 L156.071054,-5.40871083 L155.570019,-4.79706043 L154.776101,-3.84359546 L153.637446,-2.50328688 L152.720892,-1.44288878 L151.415688,0.0449481538 L150.725624,0.822911565 L149.272308,2.44557351 L148.115784,3.72423376 L146.485004,5.51217145 L142.127245,10.2731599 L138.423208,14.3512903 L135.882448,17.176148 L133.996559,19.2974592 L132.997588,20.4350953 L132.137566,21.4270979 L131.262345,22.455395 L130.951263,22.8544525 L130.081867,23.9542721 L129.18684,25.0728622 L128.267017,26.2092078 L127.796212,26.785995 L126.83705,27.9516165 L125.852211,29.1360914 L124.841312,30.3398791 L123.277696,32.1799093 L122.202891,33.4305462 L121.102354,34.700135 L119.976073,35.9886969 L118.823726,37.2966008 L117.047662,39.293244 L115.831183,40.6483731 L114.588907,42.0225669 L113.320554,43.4161386 L111.370024,45.5418663 L109.361607,47.7103809 L107.990175,49.1801913 L106.592647,50.6694289 L104.448413,52.938676 L102.98619,54.4759295 L100.744566,56.8176044 L98.5526082,59.089734 L96.7588924,61.058562 C94.2577063,63.817014 91.7850721,66.6040895 89.3414312,69.4192736 L87.5141437,71.535924 L85.697107,73.6638302 L83.7678568,75.9461978 C70.7217343,90.9250791 55.8511362,102.580667 39.2328965,110.844672 L38.3078634,111.300294 L16.9085524,121.630977 L16.7644539,121.695021 C15.8777583,122.089108 15.1317398,122.380757 14.4148884,122.608846 C13.7758572,122.812174 13.1809728,122.959464 12.5527519,123.064167 C10.988229,123.324921 9.607186,123.293699 8.02837594,122.898996 C3.91119755,121.869702 0.768223175,118.568294 0.0986596747,114.216132 C-0.293726304,111.665623 0.135085101,109.560323 1.31334648,107.400178 C1.70655964,106.679287 2.12456322,106.06481 2.62864015,105.459534 L2.8881351,105.157213 L3.15772306,104.863525 L3.6725306,104.237283 L4.24022977,103.571959 L5.0682546,102.629457 L6.03132486,101.559635 L7.36813623,100.104319 L9.18256958,98.1639028 L11.2777905,95.954809 L14.0237924,93.0920916 L17.5716621,89.4280934 L19.2981931,87.6547818 L31.2757804,75.2356693 L35.4407926,70.9014928 L41.0093152,65.0773483 L43.702135,62.2322728 L45.9680072,59.315311 L47.7342522,57.0222304 L49.6354206,54.539452 L52.5236852,50.744905 L57.5963344,44.0311697 L61.0153372,39.479019 L62.8949679,36.9541923 L64.6478857,34.5719847 L65.9582134,32.7702343 L67.1864638,31.0615734 L68.3322447,29.4467527 L69.3951548,27.926541 L70.3747807,26.5017322 L71.2706913,25.1731573 L72.0828843,23.940998 L72.6362207,23.0816077 L73.1423,22.2768804 L73.4520377,21.7730924 L73.8780066,21.0618693 L74.1347668,20.6198544 L74.4639185,20.0375805 L75.1725176,18.8236376 L75.670788,17.9807628 L76.4559809,16.6677878 L77.2870576,15.2954908 L78.1642742,13.8634374 L79.4051984,11.861809 L80.7280578,9.75401645 L82.1331303,7.53957938 L84.0048947,4.62179225 L86.0053612,1.53683726 L88.1346775,-1.71560227 L89.9311361,-4.43855994 L91.332992,-6.55178462 L93.3032942,-9.5066865 L95.8724884,-13.3362663 L98.574598,-17.3391634 L101.40951,-21.5152244 L102.879321,-23.6719017 L103.35861,-24.3608665 L103.76217,-24.9561146 L104.394487,-25.9167602 L105.060219,-26.9605132 L105.758269,-28.0858544 L106.488685,-29.2930506 L106.992924,-30.1422612 L107.510789,-31.0266801 L108.31412,-32.4211352 L109.148633,-33.8960234 L109.721538,-34.9226938 L110.606629,-36.5295424 L111.522063,-38.2158122 L112.148589,-39.3830551 L113.113452,-41.2000009 L113.885122,-42.6698491 L114.833361,-44.5007524 L115.688907,-46.1830239 L116.269048,-47.345601 L116.796315,-48.4227342 L117.270428,-49.4136769 L117.691,-50.3174158 L118.187759,-51.4312569 L118.389813,-51.9076148 L118.556633,-52.3188149 L118.627,-52.502 L118.661342,-52.8046337 C118.928743,-54.886232 119.688326,-56.7885417 121.106539,-58.9664728 L121.380213,-59.3781759 L121.638364,-59.7525625 L122.067151,-60.349873 L122.526013,-60.9623467 L123.015448,-61.5920463 L123.53597,-62.2410293 L124.088106,-62.9113458 L124.821911,-63.7804444 L125.939995,-65.0711869 L126.985922,-66.2545158 L128.04447,-67.4296614 L128.710615,-68.1547295 L129.345776,-68.833536 L129.950812,-69.4667622 L130.524081,-70.0525741 L130.801683,-70.3305453 L131.074069,-70.5992572 L131.590652,-71.0966684 C132.488367,-71.9458584 133.27011,-72.6053519 134.048561,-73.1613889 C136.365989,-74.8166945 138.216754,-75.5 140.95,-75.5 Z" id="勾" fill="#000000" fill-rule="nonzero"></path>
    </g>
</svg>