<?xml version="1.0" encoding="UTF-8"?>
<svg width="1000px" height="1000px" viewBox="0 0 1000 1000" version="1.1" xmlns="http://www.w3.org/2000/svg" xmlns:xlink="http://www.w3.org/1999/xlink">
    <title>k_gou_l</title>
    <g id="k_gou_l" stroke="none" stroke-width="1" fill="none" fill-rule="evenodd">
        <g id="勹" fill="#000000" fill-rule="nonzero">
            <path d="M440.489554,175.078157 C456.27451,174.360713 745.826331,142.540074 769.145016,143.616239 C792.463701,144.692405 812.553645,145.58921 829.414849,146.306653 C846.276052,147.024097 866.904119,160.046203 891.299052,169.372972 C910.671498,177.264853 925.918331,188.977374 937.03955,196.510533 C948.160769,204.043692 962.331355,215.343431 979.551307,230.40975 L1000,250.856897 L994.618765,284.218031 C991.748773,306.458787 988.878781,321.345745 986.008789,328.878904 C983.138797,336.412064 980.986303,353.092631 979.551307,378.920606 C978.116311,404.748581 975.963817,526.271893 973.093825,543.490543 C970.223833,560.709193 968.071339,581.515062 966.636343,605.908149 C965.201347,630.301237 962.331355,649.672218 958.026367,664.021093 C953.721378,678.369968 951.568884,689.131624 951.568884,696.306062 C951.568884,703.480499 949.595765,709.758132 945.649526,715.13896 C941.703287,720.519788 939.012669,728.949752 937.577673,740.428852 C934.707681,756.930058 921.972092,784.01356 899.370904,821.679356 C876.769717,859.345153 856.141649,887.146098 837.486701,905.082192 C823.854239,919.431067 810.580526,933.779942 797.665562,948.128817 C771.118135,978.978898 743.853211,995.838826 715.870789,998.708601 C698.650836,1000.86093 687.350243,1000.32285 681.969008,997.094353 C676.587773,993.865856 672.10341,986.153336 668.51592,973.956792 C657.035952,935.932273 647.349729,912.974073 639.457251,905.082192 C631.564773,897.907755 626.004163,894.320536 622.775422,894.320536 C619.546681,894.320536 608.784211,889.657152 590.488012,880.330383 C572.191813,871.003614 561.249968,861.318124 557.662478,851.273911 L552.281243,836.207592 L565.196207,839.436089 C574.523681,842.305864 590.308637,844.458195 612.551075,845.893083 C630.488526,847.32797 643.40349,846.431166 651.295968,843.202669 C659.188446,839.974172 680.354637,827.956989 714.794542,807.151121 C720.534526,804.281346 731.835119,792.443524 748.696323,771.637655 C765.557526,750.831786 776.49937,734.689302 781.521856,723.210202 C796.589315,696.664783 807.710534,669.043199 814.885514,640.345449 C817.038008,630.301237 819.549251,620.257024 822.419243,610.212812 C825.289235,600.168599 826.724231,590.841831 826.724231,582.232506 C826.724231,573.623181 828.876725,559.991749 833.181713,541.338212 C845.379179,488.247375 852.19541,331.569319 853.630406,271.304044 C854.347904,248.345844 854.16853,234.535052 853.092283,229.871667 C852.016036,225.208283 848.966669,220.365538 843.944183,215.343431 C838.204199,211.756213 831.746717,209.603881 824.571737,208.886438 C817.396757,208.168994 801.611801,207.810272 777.216868,207.810272 C716.947036,209.245159 406.049649,235.343431 384.524709,246.105088 C373.044741,251.844638 357.618534,254.714413 338.246087,254.714413 C320.308637,253.996969 307.214299,251.665277 298.963071,247.719336 C290.711844,243.773395 286.586231,237.854484 286.586231,229.962603 C287.303729,224.223053 289.456223,219.918391 293.043713,217.048616 C296.631203,214.178841 304.88243,209.156735 317.797394,201.982297 C347.214813,186.915978 388.112199,177.947932 440.489554,175.078157 Z M259.967466,11.864726 C267.859944,-3.20159273 281.851155,-3.91903647 301.941099,9.71239474 C312.70357,16.8868322 318.802303,20.474051 320.237299,20.474051 C323.824789,20.474051 329.026649,24.4199916 335.84288,32.3118728 C342.659111,40.203754 346.784725,47.0194696 348.219721,52.7590196 C351.807211,62.8032321 351.448462,72.3093617 347.143474,81.2774086 C342.838486,90.2454554 340.685992,96.3437273 340.685992,99.5722242 C340.685992,102.800721 334.766633,109.975159 322.927916,121.095537 C311.089199,132.215915 304.452342,141.363322 303.017346,148.53776 C298.712358,164.321522 291.178629,181.540172 280.416159,200.19371 C276.828669,205.215816 267.859944,222.793188 253.509984,252.925825 C233.42004,294.537563 217.635083,323.773395 206.155115,340.633323 C194.675147,357.493252 176.020199,378.837203 150.190271,404.665178 C127.230334,428.340822 112.880374,444.483306 107.14039,453.092631 C94.225426,468.876393 69.8304937,491.475871 33.9555932,520.891065 C26.7806132,526.630615 20.6818801,530.935278 15.659394,533.805053 C10.636908,536.674828 6.87004343,537.930354 4.3588004,537.571632 C1.84755737,537.21291 0.412561355,535.598662 0.0538123506,532.728887 C-0.304936654,529.859112 1.13005936,525.554449 4.3588004,519.8149 C7.58754144,514.07535 12.071904,507.259634 17.8118881,499.367753 C29.2918562,484.301434 35.0318403,476.050831 35.0318403,474.615943 C35.0318403,473.181056 39.1574538,466.006618 47.4086809,453.092631 C55.659908,440.178643 59.7855215,433.004206 59.7855215,431.569319 C59.7855215,430.134431 70.1892427,412.557059 90.9966849,378.837203 C111.804127,345.117347 130.817824,311.038769 148.037777,276.601469 C165.257729,242.164169 175.66145,222.075744 179.24894,216.336194 C182.83643,210.596644 187.141418,201.987319 192.163904,190.508219 L208.307609,154.994754 C223.375067,120.557454 236.290032,83.9678226 247.052502,45.2258603 C251.35749,31.594429 255.662478,20.474051 259.967466,11.864726 Z"></path>
        </g>
    </g>
</svg>