<?xml version="1.0" encoding="UTF-8"?>
<svg width="1000px" height="1000px" viewBox="0 0 1000 1000" version="1.1" xmlns="http://www.w3.org/2000/svg" xmlns:xlink="http://www.w3.org/1999/xlink">
    <title>l_da_l</title>
    <g id="l_da_l" stroke="none" stroke-width="1" fill="none" fill-rule="evenodd">
        <g id="ä¸" transform="translate(-0.000000, 0.000000)" fill="#000000" fill-rule="nonzero">
            <path d="M497.916425,188.079775 C506.373227,187.252141 511.754829,186.424507 514.061229,185.596873 C516.36763,184.76924 522.710232,190.562676 533.089035,202.977183 C543.467838,215.391689 551.732441,222.840393 557.882842,225.323294 C563.264444,226.150928 570.375846,236.289442 579.217049,255.738836 C588.058251,275.188229 590.941252,286.98201 587.866051,291.120179 C587.097251,293.603081 586.712851,333.743319 586.712851,411.540893 C586.712851,521.616185 586.328451,589.068337 585.559651,613.89735 C584.79085,637.89873 583.44545,649.89942 581.523449,649.89942 C579.601449,649.89942 578.256048,675.14225 577.487248,725.62791 C576.718448,788.528076 574.988648,831.151216 572.297847,853.497327 C569.607046,875.843439 564.609844,894.051382 557.306242,908.121156 C550.00264,922.190931 535.972036,941.226507 515.21443,965.227887 C472.930417,1010.74774 434.106006,1011.57538 398.741195,967.710788 C364.145185,927.156733 336.468377,899.431002 315.710771,884.533594 C304.178767,876.257256 295.337565,866.325651 289.187163,854.738778 C283.036761,843.151905 278.039559,836.117018 274.195558,833.634117 C271.120357,831.978849 269.198357,829.495948 268.429557,826.185413 C267.660756,822.874878 267.660756,819.97816 268.429557,817.495258 C269.198357,815.012357 271.120357,813.770906 274.195558,813.770906 C278.039559,813.770906 283.805561,816.667625 291.493563,822.461061 C299.950366,829.082131 325.320773,836.944652 367.604786,846.048623 C384.518391,850.186792 395.665994,853.497327 401.047596,855.980229 C405.660397,859.290764 415.6548,858.46313 431.030805,853.497327 C446.406809,848.531525 457.554413,842.738088 464.473615,836.117018 C469.855216,831.978849 475.621218,812.529456 481.77162,777.768837 C485.615621,755.422725 487.729822,726.455543 488.114222,690.867291 C488.498622,655.279039 488.306422,578.309098 487.537622,459.957469 L484.078021,191.804127 L497.916425,188.079775 Z M869.246935,11.7937813 C877.703737,8.48324616 884.430739,6.00034485 889.427941,4.3450773 C894.425142,2.68980976 898.653544,1.4483591 902.113145,0.620725329 C905.572746,-0.206908443 907.879146,-0.206908443 909.032347,0.620725329 C910.185547,1.4483591 910.762147,2.68980976 910.762147,4.3450773 C910.762147,6.82797862 914.413948,10.3454222 921.71755,14.8974079 C929.021153,19.4493936 937.477955,25.0359216 947.087958,31.6569918 C956.697961,38.278062 965.346963,41.588597 973.034966,41.588597 C976.878967,42.4162308 982.644968,47.7958503 990.332971,57.7274556 C998.020973,67.6590609 1003.78697,78.004483 1007.63098,88.7637221 C1009.16858,96.212426 1005.90118,107.799299 997.828773,123.52434 C989.756371,139.249382 982.260568,147.939537 975.341366,149.594804 C969.190964,152.905339 960.541962,152.905339 949.394359,149.594804 C938.246755,146.284269 908.840147,145.456635 861.174532,147.111903 C797.364114,149.594804 713.564889,149.594804 609.776858,147.111903 C563.648844,146.284269 515.59883,147.939537 465.626815,152.077706 C415.6548,156.215874 377.214789,162.009311 350.306781,169.458015 C332.624376,175.251451 316.287371,179.38962 301.295766,181.872521 C286.304162,184.355423 274.772158,187.045232 266.699756,189.941951 C258.627354,192.838669 236.908747,198.425197 201.543937,206.701535 C150.803122,218.288407 125.432714,231.116731 125.432714,245.186505 C123.126313,259.256279 102.753107,254.704293 64.313096,231.530548 C33.5610869,212.494971 13.1878808,193.459394 3.19347787,174.423817 C-1.4193235,165.319846 -1.03492338,158.698776 4.34667821,154.560607 C20.491483,142.1461 62.5832955,127.041784 130.622116,109.247658 C198.660936,91.4535318 261.510355,79.6597506 319.170372,73.8663142 C355.303982,68.9005115 394.512794,63.1070751 436.796807,56.4860049 C487.537622,49.037301 590.556852,39.5195126 745.854498,27.9326398 C808.896117,23.7944709 850.026929,18.4148514 869.246935,11.7937813 Z"></path>
        </g>
    </g>
</svg>