<?xml version="1.0" encoding="UTF-8"?>
<svg width="1000px" height="1000px" viewBox="0 0 1000 1000" version="1.1" xmlns="http://www.w3.org/2000/svg" xmlns:xlink="http://www.w3.org/1999/xlink">
    <title>n_bo_l</title>
    <g id="n_bo_l" stroke="none" stroke-width="1" fill="none" fill-rule="evenodd">
        <g id="尸" transform="translate(49.000000, 0.000000)" fill="#000000" fill-rule="nonzero">
            <path d="M547.842683,12.911064 C596.352032,4.30368799 641.731746,0 683.981824,0 C726.231902,0 757.137052,4.30368799 776.697274,12.911064 C791.563042,19.1709738 806.42881,28.3652163 821.294579,40.4937916 C836.160347,52.6223668 846.722866,64.5553199 852.982137,76.2926508 C857.67659,85.6825155 856.894182,96.0504911 850.634911,107.396578 C844.37564,118.742664 830.683485,136.153038 809.558446,159.6277 C785.303771,184.667339 772.00282,202.077713 769.655594,211.858823 C767.308367,221.639932 762.22271,230.638552 754.398621,238.854684 C746.574533,247.070815 742.662488,264.089945 742.662488,289.912073 C742.662488,307.126825 741.880079,319.2554 740.315262,326.297799 C738.750444,333.340197 734.447195,342.338818 727.405516,353.29366 C718.016609,367.378457 709.21451,375.398966 700.999217,377.355188 C692.783924,379.31141 677.331349,377.159566 654.641492,370.899656 C623.345137,361.509791 580.117048,360.336058 524.957223,367.378457 C469.797399,374.420855 436.34942,385.375698 424.613287,400.242983 C419.918834,406.502893 409.747519,438.193687 394.099342,495.315364 C374.53912,568.869304 349.893241,633.424624 320.161705,688.981323 C312.337616,706.978564 308.425572,717.737784 308.425572,721.258983 C308.425572,724.780182 305.687141,727.518893 300.210279,729.475115 C294.733417,731.431337 291.994986,735.148158 291.994986,740.625579 C291.994986,746.103 290.62577,748.841711 287.887339,748.841711 C285.148908,748.841711 276.346809,759.796553 261.48104,781.706237 C238.008775,816.135741 202.800376,854.086444 155.855845,895.558347 L106.564086,941.333937 C91.6983182,953.853757 73.31171,966.764821 51.404262,980.067129 C23.2375431,997.281881 6.61135485,1003.34617 1.52569727,998.259992 C-3.55996031,993.173815 4.06852606,977.328419 24.4111564,950.723802 C40.8417424,930.379095 52.5778753,915.511809 59.619555,906.121945 C66.6612347,896.73208 83.0918207,875.604884 108.911313,842.740358 C140.207667,805.180899 166.02716,766.447707 186.36979,726.540782 C225.490233,655.334308 245.050454,615.427383 245.050454,606.820007 C245.050454,601.342586 249.744908,588.431522 259.133814,568.086815 C268.52272,547.742108 274.586389,532.483578 277.32482,522.311225 C280.063251,512.138871 285.540113,492.185409 293.755406,462.450837 C301.970699,432.716265 309.012379,402.199205 314.880445,370.899656 C320.748511,339.600107 326.225373,313.386735 331.311031,292.259539 C336.396689,271.132344 340.89554,249.222659 344.807584,226.530486 C348.719628,203.838313 354.587695,178.016185 362.411783,149.064102 L376.495143,105.635978 L365.932623,93.8986471 C346.372402,73.5539402 358.108534,55.9479439 401.141022,41.0806581 C415.224381,36.3857258 464.124935,26.995861 547.842683,12.911064 Z M653.467878,84.5087824 C654.250287,80.5963388 653.467878,77.4663839 651.120652,75.1189177 C648.773425,72.7714515 644.470177,71.2064741 638.210906,70.4239853 C631.951635,69.6414966 623.931944,69.6414966 614.151833,70.4239853 C604.371723,71.2064741 592.048783,72.7714515 577.183015,75.1189177 C487.988405,85.2912711 443.3911,97.8110907 443.3911,112.678377 C443.3911,117.373309 445.738327,126.763174 450.43278,140.847971 C455.909642,154.932768 458.648073,173.712497 458.648073,197.187159 C458.648073,220.661821 456.300846,240.224039 451.606393,255.873813 C446.129531,273.088565 444.369111,282.869674 446.325133,285.217141 C448.281155,287.564607 461.777708,284.434652 486.814792,275.827276 C511.851875,267.2199 536.10655,261.351234 559.578815,258.22128 C596.352032,253.526347 614.73864,241.006528 614.73864,220.661821 C614.73864,215.1844 617.085866,205.012046 621.78032,190.14476 C641.340541,129.893129 651.903061,94.6811358 653.467878,84.5087824 Z"></path>
        </g>
    </g>
</svg>