<?xml version="1.0" encoding="UTF-8"?>
<svg width="1000px" height="1000px" viewBox="0 0 1000 1000" version="1.1" xmlns="http://www.w3.org/2000/svg" xmlns:xlink="http://www.w3.org/1999/xlink">
    <title>O_fancuo_l</title>
    <g id="O_fancuo_l" stroke="none" stroke-width="1" fill="none" fill-rule="evenodd">
        <path d="M479.769231,627.25 C489.769231,632.583333 499.769231,640.083333 509.769231,649.75 C519.769231,659.416667 525.769231,666.583333 527.769231,671.25 C529.102564,678.583333 530.935897,683.916667 533.269231,687.25 C535.602564,690.583333 537.102564,696.25 537.769231,704.25 L538.769231,717.25 L587.769231,717.25 C673.102564,717.25 741.769231,713.25 793.769231,705.25 C835.102564,699.916667 868.769231,709.25 894.769231,733.25 C906.769231,744.583333 912.769231,755.25 912.769231,765.25 C912.769231,781.25 904.269231,793.416667 887.269231,801.75 C870.269231,810.083333 850.769231,811.583333 828.769231,806.25 C813.435897,801.583333 797.935897,798.583333 782.269231,797.25 C766.602564,795.916667 744.102564,793.25 714.769231,789.25 C691.435897,785.916667 657.935897,783.75 614.269231,782.75 C570.602564,781.75 546.435897,782.583333 541.769231,785.25 C538.435897,787.916667 535.935897,800.416667 534.269231,822.75 C533.452564,833.693333 530.675081,860.123117 527.819165,886.274384 L527.469197,889.474116 C524.610014,915.576383 521.749231,940.756667 520.769231,949.25 C518.769231,966.583333 514.102564,979.583333 506.769231,988.25 C490.769231,1004.91667 473.102564,1003.25 453.769231,983.25 C441.769231,971.916667 434.269231,953.583333 431.269231,928.25 C428.269231,902.916667 423.269231,797.75 420.269231,794.75 C417.269231,791.75 401.935897,791.583333 374.269231,794.25 C346.602564,796.916667 325.769231,800.25 311.769231,804.25 C299.769231,808.916667 283.769231,812.916667 263.769231,816.25 C248.435897,818.25 229.602564,822.916667 207.269231,830.25 C184.935897,837.583333 170.435897,843.583333 163.769231,848.25 C154.435897,854.25 141.435897,855.583333 124.769231,852.25 C108.102564,848.916667 97.1025641,842.916667 91.7692308,834.25 C87.1025641,828.25 86.7692308,820.25 90.7692308,810.25 C95.4358974,800.25 104.935897,792.416667 119.269231,786.75 C133.602564,781.083333 162.769231,773.25 206.769231,763.25 L324.769231,737.25 C341.435897,733.916667 360.935897,731.583333 383.269231,730.25 C405.602564,728.916667 417.435897,727.916667 418.769231,727.25 C421.435897,727.25 422.769231,722.916667 422.769231,714.25 C422.769231,705.583333 421.435897,698.25 418.769231,692.25 C416.769231,685.583333 416.935897,678.416667 419.269231,670.75 C421.602564,663.083333 425.435897,657.583333 430.769231,654.25 C433.435897,652.25 434.769231,649.916667 434.769231,647.25 C434.769231,644.583333 437.102564,639.583333 441.769231,632.25 C450.435897,619.583333 463.102564,617.916667 479.769231,627.25 Z M601.16923,118.013521 C603.396394,118.175774 607.142081,120.528437 612.406289,125.07151 C619.290254,129.614584 623.744583,131.88612 625.769279,131.88612 C627.793974,131.88612 631.235957,133.752025 636.095226,137.483836 C640.954495,141.215646 643.991538,144.541825 645.206355,147.462372 C647.635989,152.005445 648.344633,155.493877 647.332285,157.927666 C646.319937,160.361455 643.586599,163.849887 639.132269,168.39296 C633.463122,173.585044 630.021139,178.29037 628.806322,182.508938 C627.591505,186.727507 625.870514,189.648054 623.643349,191.27058 C621.416184,192.893106 620.302601,194.515632 620.302601,196.138159 C620.302601,198.409695 616.354445,206.603453 608.458133,220.719431 C600.561821,234.835409 595.196378,243.029167 592.361804,245.300703 C590.742048,247.247735 589.93217,249.032514 589.93217,250.65504 C589.93217,252.277566 588.211179,254.305724 584.769197,256.739513 C581.327214,259.173302 579.606223,261.20146 579.606223,262.823986 C579.606223,266.718049 590.539579,273.53266 612.406289,283.267817 C634.273,293.002974 656.544649,301.115605 679.221238,307.60571 C697.038558,312.797794 711.008956,316.935236 721.132433,320.018036 C731.25591,323.100836 740.873214,325.534625 749.984343,327.319404 C759.095473,329.104183 766.586846,331.213467 772.458462,333.647256 C778.330079,336.081045 784.70787,337.946951 791.591834,339.244972 C812.243727,343.788045 825.201778,351.089413 830.465986,361.149076 C833.705499,366.016654 834.717847,369.748465 833.503029,372.344507 C832.288212,374.940549 828.441291,376.563075 821.962265,377.212085 C787.542443,382.079664 767.093019,388.245264 760.613994,395.708884 C758.589299,398.953937 756.362134,400.900968 753.932499,401.549979 C747.048535,403.821515 725.384294,397.493663 688.939776,382.566422 C667.882944,373.480275 650.875502,366.665665 637.917451,362.122591 C624.959401,357.579518 614.228515,353.036444 605.724794,348.493371 C597.221073,343.950298 592.159335,341.678761 590.539579,341.678761 C588.109944,341.678761 577.581528,334.052888 558.95433,318.801141 C548.020975,309.714994 541.13701,304.847416 538.302437,304.198405 C535.467863,303.549395 531.216003,305.334174 525.546855,309.552742 C520.687586,313.446805 511.272753,319.206773 497.302354,326.832646 C483.331956,334.458519 472.904774,339.569477 466.02081,342.165519 C444.559039,350.92716 427.450362,357.336139 414.694781,361.392455 C401.9392,365.44877 386.045341,369.586212 367.013204,373.80478 C350.005762,377.049833 337.65512,378.185601 329.961278,377.212085 C317.003227,375.914064 314.573592,373.480275 322.672374,369.910717 C326.316826,367.963686 332.593382,365.692149 341.502041,363.096107 C370.252716,354.334465 400.825617,341.354256 433.220744,324.155478 C465.615871,306.9567 487.482581,292.678469 498.820876,281.320785 L505.502371,273.53266 L488.494929,255.522618 C476.751696,243.515924 466.425749,230.373462 457.517089,216.095231 L443.546691,195.164643 L434.435561,196.624917 C430.386171,196.949422 427.551597,196.787169 425.931841,196.138159 C424.312084,195.489148 422.287389,193.704369 419.857754,190.783822 C416.213303,186.889759 414.593546,183.806959 414.998485,181.535423 C415.403424,178.939381 422.186154,174.55856 435.346674,168.39296 C448.507195,162.227361 461.364011,157.035277 473.917122,152.816709 L494.569015,146.488856 C527.031632,140.701846 546.569943,137.213415 553.183948,136.023562 C563.104956,134.238783 571.507442,132.210626 578.391406,129.939089 C585.27537,127.343047 590.235874,124.665879 593.272917,121.907584 C596.30996,119.149289 598.942065,117.851268 601.16923,118.013521 Z M626,-22.8333333 C627.333333,-20.1666667 629.833333,-18.8333333 633.5,-18.8333333 C637.166667,-18.8333333 642.166667,-15.8333333 648.5,-9.83333333 C654.833333,-3.83333333 663.666667,3.16666667 675,11.1666667 C682.333333,15.8333333 686.833333,19.8333333 688.5,23.1666667 C690.166667,26.5 691,32.1666667 691,40.1666667 C691,51.5 687,61.5 679,70.1666667 C671,78.8333333 660.333333,84.1666667 647,86.1666667 C632.333333,88.1666667 609.5,94.6666667 578.5,105.666667 C547.5,116.666667 518.333333,128.5 491,141.166667 C479.666667,146.5 463.833333,150.5 443.5,153.166667 C433.871849,154.429375 424.766872,155.281019 416.185067,155.721598 C416.517795,159.034217 416.28911,162.471994 415.5,166.034722 C413.833333,173.5595 412.666667,185.264711 412,201.150354 C409.333333,234.315118 405.333333,252.569673 400,255.914019 C398,257.307497 396,261.13956 394,267.410208 C392,273.680857 389,279.742484 385,285.595089 C377.666667,296.464214 371.333333,306.775947 366,316.530289 C364,321.268113 359.166667,326.005936 351.5,330.74376 C343.833333,335.481583 337.333333,339.801363 332,343.7031 C321.333333,352.063965 304.666667,361.609286 282,372.339062 C259.333333,383.068839 239.333333,390.663291 222,395.122419 C206,399.581547 191.666667,401.811111 179,401.811111 C166.333333,401.811111 160,401.114372 160,399.720895 C160,398.966095 164.482542,395.599196 173.447627,389.620199 L174.287905,389.060873 C174.998746,388.588585 175.736111,388.100841 176.5,387.597641 C187.5,380.351558 197,374.498953 205,370.039825 C227,357.777223 245.333333,344.95723 260,331.579846 C270,322.66159 277,315.624529 281,310.468662 C285,305.312796 290.333333,295.628127 297,281.414657 C303,267.201187 308.166667,256.192715 312.5,248.389241 C316.833333,240.585767 320.333333,233.897075 323,228.323165 C325.666667,222.47056 330,202.961875 336,169.797111 C342,140.534084 348,123.812354 354,119.631922 C357.89449,115.833103 369.372505,117.978487 388.434046,126.068074 C389.108014,125.607837 389.79643,125.140499 390.5,124.666667 C406.833333,113.666667 425,103.166667 445,93.1666667 C482.333333,75.1666667 518,54.5 552,31.1666667 C586,7.83333333 605,-9.16666667 609,-19.8333333 C610.333333,-23.8333333 613,-26.1666667 617,-26.8333333 C621,-27.5 624,-26.1666667 626,-22.8333333 Z M581.458051,167.604834 L568.70247,167.604834 C563.373471,167.757352 549.6808,169.916999 535.948771,172.36553 L534.196173,172.679545 C519.308182,175.359763 504.790934,178.294037 501.280112,179.287023 C482.247975,184.803612 472.934376,189.022181 473.339315,191.942728 C473.339315,192.916243 474.959071,194.052012 478.198584,195.350033 C481.438097,196.648054 492.675156,205.166316 511.909763,220.904821 C531.144369,236.643325 542.178959,244.512577 545.013533,244.512577 C547.443168,244.512577 553.517254,235.101925 563.235792,216.280621 C572.95433,197.459317 578.421008,183.667844 579.635825,174.906202 L581.458051,167.604834 Z M491.769231,364.286552 C519.769231,362.491878 549.435897,361.893653 580.769231,362.491878 C602.102564,363.090103 616.769231,364.286552 624.769231,366.081226 C632.769231,367.875899 644.102564,372.063472 658.769231,378.643942 C698.769231,396.59068 718.769231,413.640081 718.769231,429.792145 C718.769231,438.167289 716.435897,451.178674 711.769231,468.8263 C707.102564,486.473925 703.102564,499.186198 699.769231,506.963118 C695.102564,514.740037 692.769231,522.516957 692.769231,530.293877 C692.769231,541.06192 686.435897,557.812208 673.769231,580.544743 C669.769231,587.125213 667.769231,591.91101 667.769231,594.902133 C667.769231,597.893256 663.602564,604.174614 655.269231,613.746208 C646.935897,623.317801 642.769231,629.449604 642.769231,632.141614 C642.769231,634.833625 635.102564,643.358325 619.769231,657.715716 C594.435897,679.850026 576.102564,684.934935 564.769231,672.970443 C543.435897,650.237908 524.769231,633.48762 508.769231,622.719577 C502.102564,617.93378 495.935897,615.241769 490.269231,614.643545 C484.602564,614.04532 475.769231,615.241769 463.769231,618.232892 L429.769231,626.308924 C417.769231,628.103598 409.102564,632.29117 403.769231,638.871641 C399.102564,644.255662 393.102564,647.695454 385.769231,649.191015 C378.435897,650.686577 372.435897,650.237908 367.769231,647.84501 C363.102564,643.657438 358.102564,636.628299 352.769231,626.757593 C347.435897,616.886887 344.102564,607.46485 342.769231,598.491481 C338.769231,579.348294 332.769231,562.598005 324.769231,548.240615 C322.102564,543.454818 317.435897,531.34077 310.769231,511.898471 C304.102564,492.456171 299.435897,481.538572 296.769231,479.145674 C294.102564,476.752776 292.769231,472.864316 292.769231,467.480294 C292.769231,462.096273 291.102564,458.506926 287.769231,456.712252 C285.769231,454.917578 284.769231,448.486664 284.769231,437.419509 C284.769231,426.352354 285.769231,420.818776 287.769231,420.818776 C290.435897,420.818776 293.435897,417.229429 296.769231,410.050733 C302.102564,399.880915 322.435897,390.608434 357.769231,382.23329 C393.102564,373.858145 437.769231,367.875899 491.769231,364.286552 Z M586.769231,408.25606 C574.769231,404.068487 563.769231,402.273814 553.769231,402.872038 C525.769231,404.068487 494.102564,406.760498 458.769231,410.94807 C418.102564,416.930316 390.435897,421.566557 375.769231,424.856792 C361.102564,428.147027 352.435897,432.185043 349.769231,436.97084 C347.102564,440.560188 346.602564,445.495541 348.269231,451.776899 C349.935897,458.058257 353.435897,463.890947 358.769231,469.274968 L365.769231,478.248337 L391.769231,469.274968 C418.435897,461.498049 445.435897,456.562696 472.769231,454.46891 C500.102564,452.375123 518.769231,454.020241 528.769231,459.404262 C536.769231,464.190059 540.769231,470.920086 540.769231,479.594343 C540.769231,488.268599 539.269231,493.353508 536.269231,494.84907 C533.269231,496.344631 532.102564,498.887086 532.769231,502.476433 C533.435897,507.860455 531.935897,511.300246 528.269231,512.795808 C524.602564,514.291369 514.102564,515.03915 496.769231,515.03915 C463.435897,515.637374 433.769231,519.824947 407.769231,527.601866 C397.102564,531.191214 389.435897,532.686775 384.769231,532.088551 C382.769231,530.892102 381.769231,531.191214 381.769231,532.985888 C381.769231,535.977011 384.769231,545.249492 390.769231,560.803331 C395.435897,572.169599 398.769231,578.750069 400.769231,580.544743 C402.769231,582.339417 412.269231,580.694299 429.269231,575.60939 C446.269231,570.524481 464.102564,567.83247 482.769231,567.533358 C501.435897,567.234246 514.102564,569.926256 520.769231,575.60939 C527.435897,581.292524 535.769231,584.134091 545.769231,584.134091 C553.102564,584.134091 558.102564,582.638529 560.769231,579.647406 C563.435897,576.656283 568.769231,567.08469 576.769231,550.932625 C584.102564,533.584112 590.602564,512.945364 596.269231,489.01638 C601.935897,465.087396 604.769231,445.944209 604.769231,431.586819 C604.769231,423.809899 603.769231,418.874546 601.769231,416.78076 C599.769231,414.686974 594.769231,411.845407 586.769231,408.25606 Z" id="早" fill="#000000" fill-rule="nonzero"></path>
    </g>
</svg>