<?xml version="1.0" encoding="UTF-8"?>
<svg width="1000px" height="1000px" viewBox="0 0 1000 1000" version="1.1" xmlns="http://www.w3.org/2000/svg" xmlns:xlink="http://www.w3.org/1999/xlink">
    <title>o_zhai_l</title>
    <g id="o_zhai_l" stroke="none" stroke-width="1" fill="none" fill-rule="evenodd">
        <g id="产刀" transform="translate(76.000000, -12.461538)" fill="#000000" fill-rule="nonzero">
            <path d="M324,233.461538 C325.333333,232.128205 332.5,233.628205 345.5,237.961538 C358.5,242.294872 367.333333,246.461538 372,250.461538 C379.333333,256.461538 386.166667,263.961538 392.5,272.961538 C398.833333,281.961538 402.666667,289.461538 404,295.461538 C405.333333,302.128205 404.833333,310.961538 402.5,321.961538 C400.166667,332.961538 397,340.794872 393,345.461538 C386.333333,352.794872 377.833333,355.628205 367.5,353.961538 C357.166667,352.294872 350,347.128205 346,338.461538 C343.333333,331.128205 339,322.961538 333,313.961538 C327,304.961538 323.666667,289.794872 323,268.461538 C322.333333,247.128205 322.666667,235.461538 324,233.461538 Z M518,186.461538 C520.666667,179.794872 524,176.628205 528,176.961538 C532,177.294872 542.333333,181.794872 559,190.461538 C580.333333,201.128205 591,213.128205 591,226.461538 C591,233.128205 587.666667,242.461538 581,254.461538 C574.333333,266.461538 569.666667,272.461538 567,272.461538 C563.666667,272.461538 558.166667,276.628205 550.5,284.961538 C542.833333,293.294872 530.333333,305.461538 513,321.461538 C508.333333,326.128205 504.166667,330.461538 500.5,334.461538 C496.833333,338.461538 493.833333,341.628205 491.5,343.961538 C489.166667,346.294872 488,347.461538 488,347.461538 C489.333333,348.128205 407.333333,357.461538 412,353.461538 C423.333333,344.128205 440.5,321.628205 463.5,285.961538 C486.5,250.294872 499,226.794872 501,215.461538 C503,206.794872 505.666667,201.794872 509,200.461538 C512.333333,199.128205 515.333333,194.461538 518,186.461538 Z M367,2.46153846 C369,-0.205128205 375.666667,-0.705128205 387,0.961538462 C398.333333,2.62820513 408.666667,5.46153846 418,9.46153846 C455.333333,28.7948718 474,56.4615385 474,92.4615385 L474,114.461538 L485,112.461538 C501,109.794872 519.333333,108.294872 540,107.961538 C560.666667,107.628205 574.333333,108.461538 581,110.461538 C589.666667,113.128205 595.833333,118.794872 599.5,127.461538 C603.166667,136.128205 603.333333,146.128205 600,157.461538 C592.666667,178.128205 576,181.128205 550,166.461538 C540.666667,162.461538 532.833333,159.961538 526.5,158.961538 C520.166667,157.961538 507.333333,157.461538 488,157.461538 C466.666667,157.461538 443,158.961538 417,161.961538 C391,164.961538 372,168.461538 360,172.461538 C342,179.128205 333,186.128205 333,193.461538 C333,197.461538 330.333333,201.461538 325,205.461538 C319.666667,209.461538 314.666667,210.794872 310,209.461538 C305.333333,207.461538 300.5,201.961538 295.5,192.961538 C290.5,183.961538 289,177.461538 291,173.461538 C293.666667,170.128205 293.333333,167.961538 290,166.961538 C286.666667,165.961538 287.333333,165.128205 292,164.461538 C295.333333,164.461538 297.333333,163.461538 298,161.461538 C297.333333,159.461538 296,158.128205 294,157.461538 C286.666667,157.461538 291.666667,153.461538 309,145.461538 C314.333333,143.461538 320.666667,141.128205 328,138.461538 C349.333333,129.794872 362.166667,125.461538 366.5,125.461538 C370.833333,125.461538 378.333333,124.128205 389,121.461538 C397,119.461538 401.833333,117.794872 403.5,116.461538 C405.166667,115.128205 405.333333,112.128205 404,107.461538 C402.666667,100.128205 401,95.1282051 399,92.4615385 C395,87.7948718 383.666667,66.7948718 365,29.4615385 C361.666667,23.4615385 362.166667,18.9615385 366.5,15.9615385 C370.833333,12.9615385 371.666667,10.6282051 369,8.96153846 C366.333333,7.29487179 365.666667,5.12820513 367,2.46153846 Z" id="产"></path>
            <path d="M395,343.461538 C408.333333,340.128205 432.833333,338.461538 468.5,338.461538 C504.166667,338.461538 535.666667,340.128205 563,343.461538 C601,346.794872 642,358.128205 686,377.461538 C716,389.461538 734.5,397.794872 741.5,402.461538 C748.5,407.128205 755.333333,414.794872 762,425.461538 C768.666667,437.461538 770,444.794872 766,447.461538 C762,450.128205 759.333333,456.294872 758,465.961538 C756.666667,475.628205 753.166667,493.794872 747.5,520.461538 C741.833333,547.128205 738.333333,568.461538 737,584.461538 C735.666667,600.461538 733.5,615.461538 730.5,629.461538 C727.5,643.461538 725.833333,663.628205 725.5,689.961538 C725.166667,716.294872 724,730.794872 722,733.461538 C720,736.128205 718,743.128205 716,754.461538 C715.333333,762.461538 711.833333,775.294872 705.5,792.961538 C699.166667,810.628205 695,821.128205 693,824.461538 C691,827.128205 688.666667,833.794872 686,844.461538 C684.666667,854.461538 680.5,866.628205 673.5,880.961538 C666.5,895.294872 661,903.628205 657,905.961538 C653,908.294872 651,911.461538 651,915.461538 C651,918.794872 640.166667,931.294872 618.5,952.961538 C596.833333,974.628205 579.666667,989.794872 567,998.461538 C558.333333,1004.46154 546,1010.12821 530,1015.46154 C514,1020.79487 500.333333,1023.96154 489,1024.96154 C477.666667,1025.96154 471.333333,1024.79487 470,1021.46154 C470,1018.79487 466,1013.46154 458,1005.46154 C450,997.461538 446,990.461538 446,984.461538 C446,978.461538 444.5,973.128205 441.5,968.461538 C438.5,963.794872 438.333333,958.794872 441,953.461538 C444.333333,948.128205 429.666667,925.794872 397,886.461538 C380.333333,866.461538 373,854.794872 375,851.461538 C375,850.794872 376.666667,851.794872 380,854.461538 C382.666667,857.794872 386.833333,859.461538 392.5,859.461538 C398.166667,859.461538 406.666667,863.294872 418,870.961538 C429.333333,878.628205 442.833333,884.461538 458.5,888.461538 C474.166667,892.461538 485.333333,892.128205 492,887.461538 C497.333333,885.461538 506.5,875.794872 519.5,858.461538 C532.5,841.128205 540.666667,827.794872 544,818.461538 C557.333333,786.461538 564,764.794872 564,753.461538 C564,747.461538 566,739.794872 570,730.461538 C576.666667,714.461538 583.166667,678.294872 589.5,621.961538 C595.833333,565.628205 599,517.794872 599,478.461538 L599,414.461538 L567,410.461538 C519.666667,403.128205 487.666667,402.794872 471,409.461538 C465.666667,411.461538 462.833333,412.961538 462.5,413.961538 C462.166667,414.961538 463.666667,417.128205 467,420.461538 C471,425.794872 473,429.294872 473,430.961538 C473,432.628205 477.666667,439.461538 487,451.461538 C494.333333,462.128205 498.166667,470.294872 498.5,475.961538 C498.833333,481.628205 496,488.628205 490,496.961538 C484,505.294872 472.166667,526.461538 454.5,560.461538 C436.833333,594.461538 428,613.128205 428,616.461538 C428,619.794872 426,623.461538 422,627.461538 C418,631.461538 411.333333,643.128205 402,662.461538 C386.666667,692.461538 376.333333,709.128205 371,712.461538 C367.666667,714.461538 366,717.128205 366,720.461538 C366,729.128205 343.166667,755.461538 297.5,799.461538 C251.833333,843.461538 214.333333,875.461538 185,895.461538 C169,906.128205 152.166667,918.128205 134.5,931.461538 C116.833333,944.794872 95,960.461538 69,978.461538 C43,996.461538 28.6666667,1006.79487 26,1009.46154 C18.6666667,1016.12821 10,1021.79487 0,1026.46154 C6.66666667,1015.12821 36,983.461538 88,931.461538 C192,827.461538 264.333333,737.794872 305,662.461538 C324.333333,626.461538 337,601.128205 343,586.461538 C345,582.461538 347,578.294872 349,573.961538 C351,569.628205 357,557.128205 367,536.461538 C391.666667,485.128205 407.166667,453.794872 413.5,442.461538 C419.833333,431.128205 425.666667,424.461538 431,422.461538 C447.666667,414.461538 444.333333,410.128205 421,409.461538 C385,408.128205 343,413.461538 295,425.461538 C273.666667,431.461538 261,433.294872 257,430.961538 C253,428.628205 247.333333,421.794872 240,410.461538 C234,401.794872 231.5,395.128205 232.5,390.461538 C233.5,385.794872 239,380.461538 249,374.461538 C265.666667,365.128205 299,356.794872 349,349.461538 C367,348.128205 382.333333,346.128205 395,343.461538 Z" id="刀"></path>
        </g>
    </g>
</svg>