<?xml version="1.0" encoding="UTF-8"?>
<svg width="375px" height="305px" viewBox="0 0 375 305" version="1.1" xmlns="http://www.w3.org/2000/svg" xmlns:xlink="http://www.w3.org/1999/xlink">
    <title>s_ming_s</title>
    <g id="s_ming_s" stroke="none" stroke-width="1" fill="none" fill-rule="evenodd">
        <path d="M277.419572,46.1007619 C280.837526,45.3748239 284.174172,45.2382848 287.400139,45.7138616 L288.003704,45.810211 C290.199412,46.1876767 292.121867,46.3862807 293.757933,46.4146016 L294.160976,46.4181392 C296.345652,46.4181392 298.781946,47.0034137 301.562056,48.1678365 L302.295161,48.4847325 L303.044229,48.8278795 C304.30618,49.4216535 305.636155,50.124706 307.041733,50.9365335 L307.894212,51.4366789 L308.7652,51.9629061 L309.655059,52.515191 L310.564155,53.0935093 C310.717294,53.1920638 310.87125,53.291702 311.02603,53.3924235 L311.964661,54.0097467 L312.923437,54.653043 C313.084932,54.7624222 313.247282,54.8728825 313.410493,54.9844235 L314.400169,55.6666341 L314.90288,56.0174581 C316.474099,57.1182808 317.955393,58.1981136 319.347181,59.2586171 L320.374246,60.0503963 C320.542629,60.1817641 320.709615,60.3128364 320.875205,60.4436164 L321.851997,61.2248147 C326.652259,65.1135283 330.197533,68.7450161 332.509936,72.2068414 L332.66,72.434 L332.862413,72.7240602 C335.089586,75.9333323 336.311009,78.3671082 336.47974,80.9081458 L336.494932,81.2136417 L336.5,81.5205063 C336.5,83.5530528 335.909683,85.7209774 334.808133,88.3598331 L334.608451,88.8304704 L334.340907,89.4513847 L333.951303,90.0039453 C331.915566,92.8911556 329.36919,95.6071105 326.326767,98.1600947 L325.711673,98.6685211 C323.564073,100.41734 321.414471,102.96433 319.305524,106.330423 L317.628059,109.054498 L316.397031,111.018793 L315.720184,112.079028 L315.089141,113.051169 L314.318258,114.211257 L313.792422,114.979949 L313.466544,115.44444 L313.16026,115.870739 L312.34085,116.996501 L311.701954,117.890616 L311.097823,118.751712 C311.000036,118.892462 310.903702,119.031826 310.808821,119.169799 L310.256996,119.980894 L309.740146,120.758341 C309.656923,120.885098 309.575162,121.010442 309.494863,121.134368 L309.030635,121.860873 C308.881751,122.097342 308.738732,122.328099 308.601592,122.553101 L308.20782,123.210802 L307.849402,123.833725 C307.792616,123.934633 307.737308,124.034082 307.683477,124.132066 C307.242792,124.934214 306.919984,125.604875 306.715284,126.121902 L306.608277,126.408812 L306.551,126.584 L306.542389,126.752996 L306.525292,126.957634 L306.501471,127.164656 L306.470503,127.374993 L306.431963,127.589576 L306.385425,127.809338 L306.330465,128.035208 L306.266658,128.26812 L306.193578,128.509003 L306.065645,128.887312 L305.967526,129.1522 L305.800043,129.570881 L305.67423,129.865593 L305.463213,130.333376 L305.224164,130.834812 L304.955649,131.373044 L304.656234,131.951214 L304.206469,132.789667 L303.829377,133.473251 L303.120895,134.726145 L302.478288,135.839071 L301.380043,137.710272 L299.647112,140.621039 L297.121837,144.823017 L295.813764,146.976221 L294.569346,149.004161 L293.388238,150.907273 L292.270097,152.685994 L290.960441,154.73514 L290.221335,155.872017 L289.290027,157.280193 L288.847491,157.938263 L288.212463,158.868 L287.611837,159.729059 L287.23046,160.265035 L286.74,160.939 L269.644,185.302 L269.201184,186.016364 L268.656845,186.869644 L268.129085,187.671305 C267.436115,188.70607 266.785295,189.604952 266.168373,190.375016 L265.9386,190.657765 L265.711908,190.928521 C264.256472,192.639923 262.902527,193.85612 261.203038,194.457173 L260.880225,194.562632 L260.618,194.635 L260.336085,194.876843 L260.000994,195.173545 L259.420537,195.708671 L258.98961,196.119305 L258.530368,196.566842 L258.042973,197.051153 L257.259447,197.846288 L256.702377,198.42197 L256.117722,199.033976 L255.189368,200.019807 L254.199857,201.086641 L251.493779,204.04422 L250.309155,205.325241 L248.805368,206.931695 L247.387252,208.422722 L246.710029,209.125175 L245.733661,210.125281 L244.804303,211.061369 L244.210654,211.650012 L243.358772,212.480075 L242.816409,212.998316 L242.294357,213.488552 L241.549106,214.171596 L241.07732,214.592216 L240.625437,214.985146 L240.19334,215.350477 L239.469547,215.949287 L238.612772,216.674831 L237.985714,217.215614 L237.103948,217.986725 L236.143831,218.837576 L234.746665,220.091901 L233.216369,221.482738 L231.553597,223.009574 L229.289832,225.108589 L227.833236,226.469199 L227.695598,226.594442 L226.62567,227.532337 L225.160403,228.795129 L224.213003,229.601075 L222.870131,230.732041 L221.063399,232.236429 L218.294544,234.512059 L215.246025,236.985718 L212.897087,238.874042 L208.841287,242.10616 L206.120269,244.25817 L200.248065,248.86721 L196.449081,251.828168 L186.978028,259.161076 L179.486423,264.923416 L177.784292,266.222066 L174.719041,268.541405 L173.018123,269.812437 L171.17854,271.167324 L169.801799,272.162122 L168.795506,272.874787 L167.868222,273.517153 L166.812454,274.226361 L166.230283,274.604401 L165.683949,274.948556 L165.171301,275.260241 L164.690188,275.540871 L164.385904,275.711403 L164.094041,275.869181 L163.678144,276.08285 L163.286612,276.270179 L163.038064,276.38113 L162.798751,276.481423 L162.568036,276.571476 L162.236689,276.688274 L161.921102,276.784391 L161.622,276.86 L161.360143,277.164541 L161.057453,277.437729 C161.00182,277.48794 160.942471,277.539156 160.87937,277.591395 L160.678771,277.751205 L160.455436,277.91727 L160.209141,278.089702 L159.939665,278.268611 L159.646785,278.45411 L159.330281,278.64631 L158.810741,278.947419 L158.236795,279.264233 L157.607695,279.597129 L157.157283,279.82818 L156.181033,280.312671 L155.381973,280.696071 L154.524761,281.097058 L153.608648,281.516009 L152.294244,282.103205 L150.499409,282.884411 L148.939911,283.548233 L146.833087,284.428044 L144.548081,285.365077 L142.081423,286.361073 L137.172603,288.308018 L132.927012,289.9648 L128.982191,291.488122 L121.763302,294.247282 L115.395328,296.658261 L110.096719,298.646028 L103.805318,300.978625 L101.196317,301.935042 L96.9062556,303.490281 L94.0558288,304.509086 L91.9032773,305.269033 L88.8865703,306.317363 L86.5663007,307.107228 L84.931001,307.653156 L83.4843512,308.127044 L81.6919385,308.699654 L80.8540411,308.960616 L79.6698669,309.320441 L78.9287544,309.539275 L77.8894008,309.836004 L76.9365969,310.09497 L76.3493507,310.246669 L75.8003806,310.381636 L75.2896107,310.499892 L74.888908,310.587061 L74.7277683,310.613304 C68.6078104,311.610017 63.0080035,311.773157 57.9247838,311.069104 L57.463,311.001 L33.3341058,308.668913 L55.001397,292.893129 L55.5153988,292.553614 L56.3348931,292.02071 L57.1929352,291.472729 L58.0895742,290.909632 L59.0248589,290.33138 L59.9988384,289.737932 L61.0115616,289.129251 L62.6033983,288.18758 L63.7131954,287.540643 L64.8619078,286.878334 L66.0495844,286.200616 L67.2762742,285.507448 L69.189566,284.438642 L71.1909133,283.334855 L73.2804812,282.195954 L76.2616312,280.591602 L78.3221117,279.499872 L79.8322816,278.713779 L80.8888014,278.173716 L81.5585197,277.836744 L82.2015393,277.517915 L82.8187207,277.216958 L83.6979285,276.798446 L84.2542791,276.540995 L84.7878031,276.300474 L85.2993612,276.076616 L85.7898138,275.86915 L86.2600214,275.677809 L86.7108445,275.502321 L87.1431436,275.34242 L87.5577792,275.197834 L87.9556118,275.068296 L88.3375019,274.953537 C88.3998695,274.935627 88.4616087,274.918321 88.5227374,274.901614 L88.974,274.786 L89.5460361,274.46693 L90.1625645,274.111104 L91.1412958,273.53365 L92.297448,272.83935 L94.3244444,271.603018 L97.3152209,269.752465 L101.338524,267.234103 L106.058252,264.254171 L111.567933,260.754176 C135.435961,246.117875 154.796602,230.432238 169.668095,213.721626 L170.293,213.014 L171.584741,211.365522 L172.606162,210.081791 L173.264849,209.265299 L173.90615,208.479977 L174.530431,207.725573 L175.138055,207.001837 L175.729386,206.308517 L176.304787,205.645362 L176.864623,205.01212 C176.956652,204.909059 177.048047,204.807233 177.138817,204.706638 L177.675987,204.117795 L178.1985,203.558237 L178.706721,203.027713 L179.201014,202.525971 L179.681743,202.05276 L180.14927,201.607829 L180.603961,201.190927 C180.678693,201.123765 180.752905,201.05776 180.826606,200.992908 L181.262723,200.617577 L181.686913,200.269647 C181.965812,200.046771 182.237001,199.841994 182.500966,199.654981 L182.891557,199.387743 L183.082903,199.264038 L183.267769,199.149274 C184.437588,198.438227 185.398804,197.536484 186.19028,196.40186 L186.657321,195.700252 C186.70203,195.633991 186.747815,195.566793 186.794679,195.498654 L187.088835,195.078486 L187.57893,194.405399 L187.938435,193.927801 L188.324323,193.426853 L188.736732,192.902338 L189.405377,192.070904 L189.884697,191.486525 L190.654359,190.564282 L191.201457,189.918687 L192.377855,188.552686 L193.332626,187.461873 L194.003912,186.702682 L195.430558,185.106567 L196.943181,183.432969 L197.648254,182.643346 L198.310526,181.888271 L198.929803,181.168139 C199.029422,181.051051 199.127241,180.935436 199.223257,180.821301 L199.777671,180.154327 C200.044022,179.829791 200.294066,179.518729 200.527692,179.221365 L200.852,178.802 L200.441825,178.527638 L199.852542,178.141895 L198.893355,177.530472 L197.847064,176.881784 L197.101253,176.428706 L195.910273,175.718281 L195.068204,175.224198 L193.733139,174.452495 L192.795214,173.917713 L191.81906,173.366737 L189.752321,172.2164 L187.533436,171.001876 L186.3671,170.370667 L181.599438,167.805019 L178.812064,166.285051 L177.08596,165.331321 L175.462412,164.42245 L173.938709,163.556031 L172.859825,162.932629 L172.17036,162.529041 L170.861403,161.749343 L169.939578,161.187428 L169.352914,160.82314 L168.513899,160.291438 L167.981382,159.946352 L167.469932,159.60842 L166.741516,159.114278 L166.058594,158.634542 L165.628024,158.322219 L165.216826,158.015547 L164.824662,157.714225 L164.271365,157.271615 L163.925306,156.982351 C163.869126,156.934507 163.81369,156.886842 163.758991,156.839349 L163.439578,156.556419 L163.137505,156.277334 C163.088586,156.231123 163.040376,156.185061 162.992866,156.13914 L162.71617,155.86526 L162.455969,155.594474 C162.413957,155.549584 162.372619,155.50481 162.331947,155.460147 L162.095852,155.193438 L161.875404,154.929071 C161.839948,154.885189 161.805129,154.841391 161.770942,154.797672 L161.57333,154.536255 L161.390519,154.276428 C161.361265,154.233239 161.332613,154.190104 161.304557,154.147016 L161.143312,153.88901 C161.11761,153.846088 161.09249,153.8032 161.067944,153.760341 L160.927502,153.503479 L160.800507,153.247005 C160.780443,153.204275 160.760925,153.161548 160.741946,153.118819 L160.634485,152.862362 L160.5855,152.734015 C160.407381,152.251741 159.676046,151.308809 158.348731,150.134784 C153.597893,146.027165 151.962012,140.518458 155.123922,135.338594 C157.288324,131.792855 161.364954,129.135523 167.441552,126.727164 L167.908,126.544 L168.489779,126.308885 L169.719863,125.819063 C169.92185,125.739582 170.122326,125.66118 170.321299,125.583856 L171.497136,125.132846 L172.637167,124.707705 C172.824204,124.639003 173.009761,124.57138 173.193844,124.504833 L174.280702,124.118486 L175.332469,123.757994 C177.745875,122.94701 179.875044,122.347143 181.736345,121.958113 L182.131101,121.877976 L183.449175,121.628273 L184.427233,121.434768 L185.451767,121.223783 L186.522677,120.995326 L187.639864,120.749404 L188.803227,120.486022 L190.012666,120.205189 L191.913001,119.751231 L193.916447,119.258045 C199.968387,117.747798 205.778933,118.320102 211.050275,121.009456 L211.488299,121.23847 C213.81814,122.486258 216.857307,123.681047 220.588797,124.800539 L221.728997,125.134106 C222.115976,125.244527 222.509861,125.354173 222.910635,125.463021 L224.133607,125.78715 C224.548143,125.894381 224.96955,126.000792 225.397813,126.106361 L228.320346,126.8185 L229.395636,127.085956 L231.422889,127.601808 L233.287169,128.092839 L234.990228,128.559765 L236.162775,128.894569 L236.895004,129.110611 L237.919692,129.424155 L238.554033,129.626303 L239.149601,129.823049 L239.706617,130.014482 L240.2253,130.200693 L240.705867,130.38177 L240.868701,130.449073 C240.879907,130.452796 240.889678,130.455078 240.898876,130.455728 L240.925614,130.452589 L240.942,130.444 L241.169157,130.223498 L241.4282,129.955141 C241.472424,129.908008 241.51717,129.859673 241.562439,129.810138 L241.840293,129.498541 L242.130574,129.158231 L242.433194,128.789299 L242.748061,128.391835 L243.075086,127.965931 L243.414179,127.511677 L243.76525,127.029163 L244.128208,126.518481 L244.694739,125.699842 L245.087022,125.119136 L245.697119,124.195886 L246.118166,123.545724 L246.994212,122.16262 L247.6806,121.053217 L248.152002,120.279463 L249.127544,118.650401 L250.146135,116.913204 L250.671349,116.004282 L251.207055,115.068599 L252.030091,113.615095 L253.163355,111.584272 L253.745163,110.529286 L255.243224,107.777124 L256.485715,105.458167 L257.4517,103.634085 L258.435061,101.757068 L259.367005,99.9564128 L260.247455,98.232364 L261.076332,96.5851677 L261.85356,95.0150698 L262.57906,93.5223162 L263.252757,92.1071527 L263.673069,91.2069374 L264.0703,90.3413887 L264.444426,89.5105795 L264.795425,88.7145826 L265.123273,87.9534709 L265.427948,87.2273172 C265.476795,87.1092088 265.524675,86.9925601 265.571588,86.8773724 L265.839,86.206 L265.814857,86.1993628 C263.882474,85.6634264 261.661005,84.7632132 259.048369,83.4950888 L258.109853,83.032233 L257.137856,82.5387884 C256.973011,82.4539967 256.806729,82.3679289 256.63899,82.2805843 L255.6149,81.7411902 L254.554834,81.1711186 L253.594395,80.6456536 L252.676201,80.1352415 L251.79545,79.6367405 L250.951643,79.1492697 C250.814059,79.0688949 250.677994,78.9889429 250.543437,78.9093954 L249.754107,78.4368184 L249.000469,77.9730695 C248.877809,77.8964647 248.756616,77.8201911 248.636878,77.7442302 L247.935841,77.2920717 L247.269245,76.846539 C244.129794,74.7077242 242.179703,72.7702224 241.164748,70.5864545 L241.052049,70.3369542 C239.094269,66.3563124 239.005542,62.2091331 241.190339,58.6609576 L241.377677,58.3666793 L241.489,58.201 L241.510484,58.1668376 C242.367849,56.7661332 243.61272,55.6622891 245.490957,54.6447629 L245.973854,54.3920578 C246.304772,54.2246241 246.653852,54.0591008 247.022233,53.8945132 L247.589422,53.6482115 L248.186416,53.4025823 C248.288447,53.3616595 248.391754,53.3207342 248.496357,53.2797913 L249.13966,53.0337999 L249.814901,52.7866533 L250.522935,52.5376204 L251.264616,52.2859701 L252.040797,52.0309715 L252.852331,51.7718934 L254.137789,51.3740281 L255.507595,50.962872 L256.96463,50.5359577 C264.20975,48.4341541 270.780756,46.9921772 276.692733,46.2167514 L277.167,46.156 L277.419572,46.1007619 Z M211.351115,-1.82730385 C215.320473,-5.58403706 220.701683,-6.35981196 226.604902,-4.60338198 C231.292724,-3.20857834 236.588688,-0.176022069 242.672803,4.46817747 L243.057,4.764 L243.314795,4.93588572 C247.6647,7.89789578 251.223943,11.8887446 253.971706,16.8298333 L254.273672,17.3827496 L254.568953,17.9434629 C257.581597,23.7698994 258.653529,29.2911644 257.46112,34.4131886 L257.388,34.708 L257.341225,34.9141781 C256.264395,39.3397228 252.809989,43.3805109 247.157867,47.6361174 L246.707084,47.9725436 L246.269834,48.2934469 C241.80306,51.5456701 238.501646,54.6153606 236.361136,57.4349632 L236.119305,57.7591883 C233.250146,61.6760867 229.102441,65.7277075 223.666943,69.9906441 L223.057699,70.4651772 C218.37609,74.0868601 214.145078,77.9402944 210.36087,82.0256336 L209.526047,82.9367993 C197.116197,96.13712 183.462512,107.899862 168.645657,118.167376 L164.151267,121.364517 L161.049159,123.554315 L158.176262,125.566435 L155.112937,127.69013 L153.114175,129.060002 L150.923022,130.542629 L149.269194,131.644205 L148.058393,132.438037 L146.947064,133.154345 L145.934916,133.793302 L145.021658,134.355085 L144.602022,134.60709 C140.224859,137.211832 135.519628,139.291808 130.588724,140.816878 C125.782171,142.382495 120.656454,145.203592 115.236711,149.317315 L113.38881,150.735189 L112.603036,151.330036 L111.489193,152.159642 L110.789248,152.67125 L109.802235,153.377008 L109.185567,153.806725 L108.601497,154.204062 L108.049616,154.569236 L107.529516,154.90246 C107.445458,154.955347 107.362707,155.006912 107.281256,155.057159 L107.040788,155.203952 C105.774953,155.968242 104.732702,156.479544 103.597416,156.779436 C102.153674,157.160808 100.698065,157.215737 99.0094195,156.514778 C96.2887641,155.385431 94.8560976,152.844432 94.8560976,150.253719 C94.8560976,146.477497 96.9809535,143.840707 100.436607,141.510584 L100.912904,141.193747 L101.041,141.104 L101.04486,141.093577 C101.152055,140.71873 101.291202,140.340817 101.466128,139.952895 L101.624915,139.617777 L101.801761,139.276786 L101.997201,138.928951 L102.211771,138.573299 L102.446005,138.208859 L102.70044,137.834661 L102.97561,137.449733 L103.27205,137.053103 L103.590296,136.643801 L103.930883,136.220854 L104.484824,135.558726 L104.883606,135.097419 L105.306602,134.619069 L105.754347,134.122703 L106.473542,133.34225 L107.251435,132.515799 L108.089831,131.640072 L108.990538,130.71179 L110.635091,129.038961 L111.717644,127.947614 L111.861121,127.807704 C113.319417,126.428872 114.797954,125.002058 116.296693,123.527279 L117.802165,122.036513 L119.321097,120.513774 L120.85348,118.959066 L122.399306,117.372394 C122.658063,117.105285 122.917381,116.836845 123.177258,116.567073 L124.743232,114.932461 C125.005347,114.657363 125.268021,114.380933 125.531254,114.103172 L127.117358,112.420629 C127.648295,111.854457 128.181467,111.28296 128.716872,110.706138 L130.329787,108.959702 C131.409529,107.784764 132.498199,106.588531 133.595786,105.37101 L135.248853,103.528763 C135.802104,102.909359 136.357583,102.284633 136.915288,101.654586 L138.595081,99.7484843 L140.288224,97.8104612 L141.99471,95.8405206 L143.714529,93.8386666 C144.002276,93.502365 144.290579,93.1647339 144.579436,92.8257733 L146.31924,90.7760566 L147.276184,89.6418093 L172.313208,62.1736293 L172.450252,62.0278493 L176.074269,58.2720036 L178.434246,55.7980245 L179.888493,54.2534305 L180.920062,53.1410772 L181.618135,52.3742511 L182.160341,51.7634054 L182.3,51.601 L182.388518,51.4273312 L182.563504,51.10957 L182.755555,50.7834963 L182.990235,50.405589 C183.032229,50.3394888 183.075687,50.271788 183.120642,50.2024226 L183.408608,49.7657403 L184.07181,48.7988646 L184.99982,47.4938191 L186.139961,45.9297489 L187.494323,44.1034496 L187.909247,43.5485509 L188.036763,43.3981154 C188.369527,43.0055416 188.697624,42.6150249 189.021062,42.2265746 L189.977399,41.0674321 C190.13446,40.875278 190.290358,40.6836428 190.445092,40.4925277 L191.359553,39.3520875 C191.659726,38.9740274 191.955254,38.5980569 192.246141,38.2241854 L193.104893,37.1088773 C193.386508,36.7392131 193.663489,36.3716573 193.935843,36.006219 L194.739027,34.9162665 C195.659893,33.6520886 196.524144,32.4139658 197.332035,31.2022973 L198.010717,30.1702123 C202.775769,22.8201667 205.416852,16.4726759 205.993116,11.2203187 L206.03,10.855 L206.062451,10.4646707 C206.509198,5.53891192 207.97104,1.57473396 210.749664,-1.2459963 L211.031927,-1.5242511 L211.19,-1.671 L211.351115,-1.82730385 Z" id="夕" fill="#000000" fill-rule="nonzero"></path>
    </g>
</svg>