<?xml version="1.0" encoding="UTF-8"?>
<svg width="800px" height="470px" viewBox="0 0 800 470" version="1.1" xmlns="http://www.w3.org/2000/svg" xmlns:xlink="http://www.w3.org/1999/xlink">
    <title>U_li_m</title>
    <g id="U_li_m" stroke="none" stroke-width="1" fill="none" fill-rule="evenodd">
        <g id="å‚å¹¿" transform="translate(56.320000, -10.250000)" fill="#000000" fill-rule="nonzero">
            <path d="M535.315,2.585 C541.425,0.861666667 550.59,0 562.81,0 C570.956667,0.313333333 576.283333,0.705 578.79,1.175 C581.296667,1.645 583.49,2.82 585.37,4.7 C589.756667,8.77333333 592.42,36.6066667 593.36,48.2 C593.986667,55.72 591.01,60.5766667 584.43,62.77 C577.85,64.9633333 568.92,64.18 557.64,60.42 C552.626667,58.54 547.613333,57.365 542.6,56.895 C537.586667,56.425 527.403333,56.19 512.05,56.19 C478.523333,56.19 202.046667,58.54 182.62,63.24 C172.906667,66.06 167.893333,68.2533333 167.58,69.82 C167.58,70.4466667 167.893333,71.0733333 168.52,71.7 C169.773333,72.9533333 170.243333,77.4966667 169.93,85.33 L168.05,110.71 C165.23,154.576667 163.193333,299.173333 161.94,304.5 C160.686667,309.513333 159.668333,314.37 158.885,319.07 C158.101667,323.77 157.083333,327.295 155.83,329.645 C154.576667,331.995 153.95,334.423333 153.95,336.93 C153.95,341.63 151.756667,349.933333 147.37,361.84 C142.983333,373.746667 138.91,382.833333 135.15,389.1 C131.39,394.113333 129.51,396.933333 129.51,397.56 C129.51,398.186667 126.298333,403.2 119.875,412.6 C113.451667,422 109.613333,427.875 108.36,430.225 C107.106667,432.575 106.088333,433.75 105.305,433.75 C104.521667,433.75 102.72,436.1 99.9,440.8 C95.5133333,447.693333 90.03,454.586667 83.45,461.48 C77.81,467.12 73.1883333,472.368333 69.585,477.225 C65.9816667,482.081667 62.8483333,484.98 60.185,485.92 C57.5216667,486.86 53.9966667,489.366667 49.61,493.44 C47.1033333,495.946667 42.0116667,499.315 34.335,503.545 C26.6583333,507.775 2.03666667,509.89 0.47,509.89 C0.156666667,509.89 0,509.42 0,508.48 C0,507.54 0.156666667,506.208333 0.47,504.485 C0.783333333,502.761667 1.25333333,501.43 1.88,500.49 C3.76,497.983333 9.00833333,490.776667 17.625,478.87 C26.2416667,466.963333 32.43,458.19 36.19,452.55 C39.95,446.91 42.9266667,442.523333 45.12,439.39 C50.76,432.81 59.22,416.751667 70.5,391.215 C81.78,365.678333 88.9866667,346.643333 92.12,334.11 L97.76,311.08 C100.58,298.233333 111.86,245.724612 111.86,110.454612 L111.86,72.85 L113.27,58.28 L107.63,53.11 C103.556667,49.9766667 101.833333,46.6866667 102.46,43.24 C103.086667,39.7933333 105.906667,37.0516667 110.92,35.015 C115.933333,32.9783333 119.301667,31.3333333 121.025,30.08 C122.748333,28.8266667 146.586667,27.5733333 152.54,26.32 C181.68,18.4866667 199.696667,14.2566667 206.59,13.63 C214.423333,12.3766667 529.205,4.30833333 535.315,2.585 Z" id="å¹¿"></path>
        </g>
    </g>
</svg>