<?xml version="1.0" encoding="UTF-8"?>
<svg width="800px" height="470px" viewBox="0 0 800 470" version="1.1" xmlns="http://www.w3.org/2000/svg" xmlns:xlink="http://www.w3.org/1999/xlink">
    <title>u_tiao_m</title>
    <g id="u_tiao_m" stroke="none" stroke-width="1" fill="none" fill-rule="evenodd">
        <g id="乇" transform="translate(3.412681, -10.429908)" fill="#000000" fill-rule="nonzero">
            <path d="M26.1206522,1.44736842 C31.9873188,-0.385964912 36.8456522,-0.477631579 40.6956522,1.17236842 C44.5456522,2.82236842 49.5873188,7.13070175 55.8206522,14.0973684 C60.9539855,19.5973684 64.2539855,25.0973684 65.7206522,30.5973684 C67.1873188,36.0973684 66.8206522,40.3140351 64.6206522,43.2473684 C63.5206522,44.7140351 62.6039855,48.1973684 61.8706522,53.6973684 C61.1373188,59.1973684 49.8706522,150.842839 48.2206522,163.147368 C45.6539855,167.914035 44.5539855,298.730702 44.9206522,315.597368 C45.2873188,332.464035 46.9373188,345.664035 49.8706522,355.197368 C52.4373188,364.730702 56.5623188,372.614035 62.2456522,378.847368 C67.9289855,385.080702 74.6206522,389.297368 82.3206522,391.497368 C88.9206522,392.964035 96.2539855,394.797368 104.320652,396.997368 C114.587319,400.297368 130.720652,402.130702 152.720652,402.497368 C174.720652,402.864035 675.437319,401.580702 694.870652,398.647368 C717.237319,394.980702 730.437319,392.414035 734.470652,390.947368 C741.070652,388.014035 747.303986,375.180702 753.170652,352.447368 C755.737319,341.080702 757.937319,335.397368 759.770652,335.397368 C760.503986,335.764035 761.237319,337.780702 761.970652,341.447368 C764.170652,350.980702 767.378986,360.880702 771.595652,371.147368 C775.812319,381.414035 778.928986,386.547368 780.945652,386.547368 C782.962319,386.547368 783.970652,388.014035 783.970652,390.947368 C783.970652,393.880702 785.162319,396.264035 787.545652,398.097368 C789.928986,399.930702 791.120652,402.314035 791.120652,405.247368 C791.120652,408.180702 792.220652,411.114035 794.420652,414.047368 C798.087319,420.647368 796.070652,429.172368 788.370652,439.622368 C780.670652,450.072368 770.037319,458.964035 756.470652,466.297368 C748.403986,470.330702 735.295652,473.630702 717.145652,476.197368 C698.995652,478.764035 679.643769,480.402044 659.120652,480.047368 C96.8706522,470.330702 40.1539855,454.014035 13.0206522,401.947368 C0.920652174,378.847368 -2.74601449,350.247368 2.02065217,316.147368 C3.48731884,305.880702 4.77065217,173.047368 5.87065217,157.647368 C6.60398551,143.347368 9.51686921,48.6307989 10.1706522,36.3723684 C10.9039855,22.6223684 12.0039855,15.7473684 13.4706522,15.7473684 C14.9373188,15.7473684 15.3039855,14.8307018 14.5706522,12.9973684 C14.2039855,10.7973684 15.2123188,8.50570175 17.5956522,6.12236842 C19.9789855,3.73903509 22.8206522,2.18070175 26.1206522,1.44736842 Z"></path>
        </g>
    </g>
</svg>