<?xml version="1.0" encoding="UTF-8"?>
<svg width="1000px" height="1000px" viewBox="0 0 1000 1000" version="1.1" xmlns="http://www.w3.org/2000/svg" xmlns:xlink="http://www.w3.org/1999/xlink">
    <title>u_tiao_l</title>
    <g id="u_tiao_l" stroke="none" stroke-width="1" fill="none" fill-rule="evenodd">
        <g id="匕" transform="translate(22.000000, 0.000000)" fill="#000000" fill-rule="nonzero">
            <path d="M33.2603189,2.11193242 C39.5956177,0 44.8750334,-0.527983105 49.098566,0.527983105 C53.3220985,1.58394931 59.3054363,4.57585357 67.0485793,9.50369588 C77.6074107,16.5434706 83.766729,20.063358 85.5265342,20.063358 C87.2863395,20.063358 92.7417357,24.6392115 101.892723,33.7909187 C106.820178,40.1267159 109.987827,44.8785639 111.395671,48.0464625 C112.803515,51.2143611 113.155476,57.374164 112.451554,66.5258712 C110.339788,78.4934882 107.876061,99.2608237 105.060372,128.827878 L96.6133072,230.200634 C93.7976188,267.51144 61.4172026,684.970081 58.6015142,705.385428 C52.9701375,751.847941 59.3054363,790.918691 77.6074107,822.597677 C85.3505537,838.789159 89.2221252,847.236888 89.2221252,847.940866 C91.3338915,850.052798 119.490775,854.980641 173.692776,862.724393 C201.145738,866.948258 627.194584,867.828229 670.485793,865.364308 C713.777002,862.900387 747.741243,858.148539 772.378516,851.108765 C796.311867,844.06899 813.205997,839.493136 823.060907,837.381204 C837.843271,834.565294 855.089362,819.781767 874.799181,793.030623 C894.508999,766.279479 906.123714,741.640268 909.643324,719.112988 C911.75509,702.921507 916.682545,694.473777 924.425688,693.769799 C925.12961,693.769799 926.185493,694.473777 927.593337,695.881732 C929.001182,697.289687 930.057065,713.305174 930.760987,743.928194 C931.464909,774.551214 935.336481,798.662443 942.375701,816.26188 C956.454143,851.460753 959.621793,881.731785 951.87865,907.074974 C946.247273,922.562478 941.495799,932.594157 937.624227,937.170011 C933.752656,941.745864 931.81687,945.089757 931.81687,947.20169 C931.81687,956.353397 920.202156,964.449138 896.972726,971.488912 C882.190363,975.712777 868.639862,980.64062 856.321226,986.272439 C844.002589,991.904259 828.692283,995.424146 810.390309,996.832101 C789.272646,998.944034 759.707918,1000 721.696125,1000 C683.684332,1000 657.991176,998.592045 644.616656,995.776135 C627.722526,992.960225 219.447712,989.792327 201.145738,986.272439 L140.960399,977.82471 C102.244684,972.19289 71.976034,957.057374 50.1544491,932.418163 C36.7799293,916.226681 28.3328642,904.963041 24.8132538,898.627244 C21.2936433,892.291447 16.3661887,879.971841 10.0308898,861.668427 C4.39951308,844.772967 1.23186366,831.749384 0.527941569,822.597677 C-0.175980523,813.44597 -0.175980523,794.438578 0.527941569,765.575502 L3.69559099,706.441394 C8.97500668,656.458993 11.9666756,629.355861 12.6705977,625.131996 C13.7264808,618.796199 20.9416823,347.412883 23.7573706,275.607181 L26.92502,106.652587 C27.6289421,64.4139388 25.8691369,40.8306934 21.6456043,35.9028511 C17.4220718,30.9750088 17.0701107,26.751144 20.5897212,23.2312566 C24.1093317,19.7113692 25.8691369,15.4875044 25.8691369,10.5596621 C25.8691369,5.63181978 28.3328642,2.81590989 33.2603189,2.11193242 Z"></path>
        </g>
    </g>
</svg>