<?xml version="1.0" encoding="UTF-8"?>
<svg width="1000px" height="1000px" viewBox="0 0 1000 1000" version="1.1" xmlns="http://www.w3.org/2000/svg" xmlns:xlink="http://www.w3.org/1999/xlink">
    <title>v_da_l</title>
    <g id="v_da_l" stroke="none" stroke-width="1" fill="none" fill-rule="evenodd">
        <g id="大-copy" transform="translate(0.000000, 5.000000)" fill="#000000" fill-rule="nonzero">
            <path d="M374.783779,0.600724492 C377.987059,-1.00120749 384.593824,0.600724492 394.604075,5.40652043 C404.614325,10.2123164 413.022935,12.6152143 419.829906,12.6152143 C426.636876,12.6152143 440.451022,23.0277722 461.272343,43.8528879 L492.504324,75.0905615 L492.504324,102.723888 C492.504324,120.34514 490.902684,130.957939 487.699404,134.562286 C484.496124,138.166633 482.494074,146.777018 481.693254,160.393439 C476.888334,236.485208 473.284643,282.14027 470.882183,297.358623 L469.680953,311.776011 L539.352297,309.373113 C584.999039,308.572147 611.02569,306.169249 617.432251,302.164419 C625.440451,294.15476 639.855212,294.15476 660.676533,302.164419 C671.087193,305.368283 680.096419,307.57094 687.704209,308.772389 C695.311999,309.973838 708.725735,318.584222 727.945416,334.603542 C740.758537,345.817066 748.566532,353.226001 751.369402,356.830348 C754.172272,360.434695 755.573707,367.843631 755.573707,379.057154 C755.573707,392.673576 753.972067,399.481787 750.768787,399.481787 C747.565507,399.481787 743.561407,401.484202 738.756487,405.489032 C733.951566,409.493862 725.943366,411.296035 714.731885,410.895552 C703.520405,410.495069 693.510154,407.491447 684.701134,401.884685 C675.091293,397.879855 655.871613,392.273093 627.042091,385.064399 C598.21257,377.855705 571.785508,373.850875 547.760907,373.049909 C524.537126,371.447977 505.717855,369.846045 491.303094,368.244114 C480.091614,367.443148 473.885259,367.643389 472.684028,368.844838 C471.482798,370.046287 470.882183,373.850875 470.882183,380.258603 C470.882183,390.671161 472.283618,398.48058 475.086489,403.686859 C477.889359,408.893137 480.492024,421.107869 482.894484,440.331053 C483.695304,454.74844 486.698379,467.563896 491.903709,478.77742 C497.10904,489.990944 509.321545,510.81606 528.541226,541.252767 C552.565827,578.898169 575.389199,609.334876 597.01134,632.56289 C605.01954,640.57255 614.62938,651.786074 625.840861,666.203461 C637.052342,680.620849 654.670382,699.243309 678.694984,722.070839 C702.719585,744.89837 721.538856,761.518414 735.152796,771.930972 C750.368377,783.144496 772.591133,796.961159 801.821065,813.380962 C831.050996,829.800765 849.469857,840.613806 857.077648,845.820085 C864.685438,851.026363 886.908194,862.840612 923.745916,881.26283 C979.002499,909.296639 1004.22833,927.718857 999.42341,936.529483 C996.220129,938.131415 982.205779,942.136245 957.380357,948.543973 C932.554936,954.951701 908.930745,959.357013 886.507784,961.759911 C859.279903,966.565707 835.655711,973.373918 815.63521,982.184544 C796.41553,991.796136 782.200974,996.001207 772.991543,994.799759 C763.782113,993.59831 748.366327,985.788891 726.744186,971.371503 C692.308924,948.944456 660.276123,918.908231 630.645781,881.26283 C620.235121,868.447374 610.825485,857.434091 602.416875,848.222982 C594.008264,839.011874 589.803959,833.004629 589.803959,830.201248 C589.803959,827.397867 580.594529,813.981686 562.175668,789.952707 C543.756807,765.923727 534.547377,752.507547 534.547377,749.704166 C534.547377,746.900785 529.742456,739.091366 520.132616,726.275911 C495.307195,693.436305 479.290794,670.208291 472.083413,656.59187 C471.282593,651.786074 467.678903,644.977863 461.272343,636.167237 C454.865783,627.356611 447.658402,614.140672 439.650202,596.51942 C433.243641,582.902999 428.839131,576.495271 426.436671,577.296237 C425.635851,577.296237 424.835031,578.898169 424.034211,582.102033 L418.028061,595.317971 C414.824781,600.924733 412.02191,605.930771 409.61945,610.336084 C407.21699,614.741397 398.608175,631.962165 383.793004,661.99839 C368.977833,692.034615 356.364918,713.860938 345.954257,727.47736 L313.521046,767.125176 C303.110385,779.940632 291.698699,792.355605 279.285989,804.370095 C266.873278,816.384584 259.065283,822.391829 255.862003,822.391829 C251.057082,822.391829 240.846627,830.001006 225.230636,845.21936 C209.614645,860.437714 195.40009,870.65003 182.586969,875.856309 C169.773848,881.062588 159.763598,887.069833 152.556218,893.878044 C145.348837,900.686255 129.332436,910.297847 104.507015,922.712819 C79.681594,935.127792 59.2606829,946.541558 43.2442821,956.954116 C20.020501,971.371503 6.0061503,974.97585 1.20123006,967.767156 C0.40041002,966.96619 0,966.165224 0,965.364258 C0,954.951701 22.0225511,934.126585 66.0676533,902.888911 C73.2750336,896.481183 90.8930745,880.461864 118.921776,854.830952 C142.145557,834.005836 170.774873,802.167438 204.809725,759.315758 C238.844577,716.464077 261.868153,683.023747 273.880454,658.994768 L295.502595,621.749849 C316.323916,579.298652 331.539496,524.432481 341.149337,457.151338 C348.356717,409.894345 349.958357,385.464882 345.954257,383.86295 C345.954257,383.86295 343.952207,383.86295 339.948107,383.86295 C320.728426,383.86295 285.492344,392.673576 234.239862,410.294828 C219.825101,415.90159 210.015055,420.106661 204.809725,422.910042 C199.604395,425.713423 196.20091,430.318978 194.59927,436.726706 C190.595169,445.537331 183.587994,450.343127 173.577744,451.144093 C163.567493,451.945059 151.955603,447.940229 138.742072,439.129604 C125.528541,430.318978 114.517266,417.904005 105.708245,401.884685 C102.504965,395.476957 100.502915,390.270678 99.7020949,386.265848 C98.9012749,382.261018 103.10558,377.855705 112.315011,373.049909 C121.524441,368.244114 133.937152,363.838801 149.553142,359.833971 C165.169133,355.829141 187.391889,350.222379 216.221411,343.013685 C257.864053,334.203059 291.498494,327.394848 317.124736,322.589052 L355.564098,317.783256 L359.167788,172.407929 C359.968608,105.126786 361.370043,60.6731737 363.372093,39.047092 C365.374143,17.4210103 369.178038,4.60555444 374.783779,0.600724492 Z" id="大"></path>
        </g>
    </g>
</svg>