<?xml version="1.0" encoding="UTF-8"?>
<svg width="800px" height="235px" viewBox="0 0 800 235" version="1.1" xmlns="http://www.w3.org/2000/svg" xmlns:xlink="http://www.w3.org/1999/xlink">
    <title>0_san_m</title>
    <g id="0_san_m" stroke="none" stroke-width="1" fill="none" fill-rule="evenodd">
        <g id="艹" transform="translate(95.000000, 0.000000)" fill="#000000" fill-rule="nonzero">
            <path d="M361.234467,1.43399796 C368.289171,-1.29059816 377.460287,-0.132644811 388.747815,4.907858 C400.035342,9.94836082 409.441615,16.827966 416.966633,25.5466736 C421.669769,32.0857043 423.198289,37.8073561 421.552191,42.7116291 C419.906093,47.6159021 419.083044,54.1549328 419.083044,62.3287211 L419.083044,74.9980931 L488.219149,74.5894037 C520.67079,74.3169441 540.776698,74.2488292 548.536873,74.385059 C556.297048,74.5212888 561.588076,75.4067825 564.409958,77.0415402 C568.642781,79.2212171 576.050221,82.6950771 586.632277,87.4631203 C597.214334,92.2311635 603.916304,97.2035514 606.738185,102.380284 C616.614772,118.182942 609.32491,126.629189 584.868601,127.719028 C568.877938,127.991488 528.666122,125.539351 464.233153,120.362618 C435.073708,117.910482 418.847887,116.684414 415.555692,116.684414 C413.204124,116.684414 411.322869,118.046712 409.911928,120.771308 C408.500987,123.495904 406.384576,130.034935 403.562694,140.3884 C401.68144,148.834648 399.565028,154.42007 397.21346,157.144666 C392.510324,163.138777 388.042344,177.306677 383.809521,199.648365 C382.398581,204.280179 380.517326,208.026498 378.165758,210.887324 C375.81419,213.74815 370.875896,217.6307 363.350878,222.534973 C360.99931,224.44219 357.942271,227.030556 354.179762,230.300072 C351.357881,232.752208 347.948107,234.250736 343.950441,234.795655 C339.952775,235.340575 336.778158,234.795655 334.42659,233.160898 C332.075021,231.52614 328.665248,227.166786 324.197268,220.082836 C319.729288,212.998886 316.437093,208.707647 314.320682,207.20912 C312.20427,205.710592 312.321849,203.394685 314.673417,200.2614 C317.024985,197.128114 319.258975,189.022441 321.375386,175.944379 C323.491798,162.866318 325.490631,151.286784 327.371885,141.205779 C329.25314,131.124773 330.193767,124.177053 330.193767,120.362618 L330.193767,114.232277 L299.153067,115.458345 C248.359194,117.365563 218.964592,119.54524 210.96926,121.997376 C208.147378,122.814755 206.50128,124.517627 206.030967,127.105994 C205.560653,129.69436 205.79581,135.756586 206.736437,145.292673 C208.147378,160.005492 209.793476,170.018383 211.67473,175.331345 C213.555985,180.644307 213.673563,184.118168 212.027466,185.752925 C210.381368,187.387683 209.558319,190.793428 209.558319,195.970161 C209.088005,199.784595 206.383702,204.007719 201.445409,208.639533 C196.507116,213.271346 192.156714,215.587253 188.394205,215.587253 C183.691069,215.587253 178.987933,214.701759 174.284796,212.930771 C169.58166,211.159784 166.994935,209.184452 166.524621,207.004775 C165.583994,204.007719 163.350004,200.12517 159.822652,195.357127 C156.2953,190.589083 154.76678,183.641363 155.237094,174.513966 C155.707408,165.386569 154.531624,156.531632 151.709742,147.949154 C148.88786,139.366676 148.064811,133.508795 149.240595,130.375509 C150.416379,127.242224 149.59333,125.675581 146.771449,125.675581 C143.008939,125.675581 134.07298,126.765419 119.963571,128.945096 C105.854162,131.124773 95.7424189,133.03199 89.6283416,134.666748 C81.1626962,136.573965 76.224403,137.527574 74.8134621,137.527574 C73.4025212,137.527574 69.4048553,138.481183 62.8204643,140.3884 C47.3001143,145.020213 30.839137,141.342009 13.4375325,129.353786 C4.03125974,123.632134 -0.436719806,119.681469 0.0335938312,117.501792 C0.503907468,115.322116 6.14767111,112.733749 16.9648848,109.736694 C34.836803,105.649799 70.3454825,100.745526 123.490923,95.0238745 L143.244096,92.9804275 L143.244096,85.6240179 C143.244096,80.4472853 142.303469,74.9980931 140.422214,69.2764412 C138.54096,63.5547894 139.011274,57.4244481 141.833155,50.8854175 C143.71441,46.2536041 145.242929,43.460893 146.418713,42.5072844 C147.594497,41.5536758 151.004271,40.9406416 156.648035,40.668182 C164.173053,40.1232628 173.109012,41.6217907 183.455912,45.1637656 C191.451244,47.8883617 196.389537,50.6129578 198.270792,53.337554 C200.152046,56.0621501 202.033301,63.2823298 203.914555,74.9980931 C204.384869,80.9922045 205.207918,84.6022944 206.383702,85.8283626 C207.559486,87.0544309 210.028633,87.5312352 213.791142,87.2587756 C217.083337,86.7138564 234.132207,85.8964776 264.93775,84.8066391 C295.743293,83.7168007 315.614044,82.4907324 324.550003,81.1284343 L337.953942,78.6762978 L340.775824,60.2852741 C343.127392,39.0334244 345.596538,24.4568351 348.183263,16.5555064 C350.769988,8.65417766 355.12039,3.61367485 361.234467,1.43399796 Z"></path>
        </g>
    </g>
</svg>