<?xml version="1.0" encoding="UTF-8"?>
<svg width="800px" height="305px" viewBox="0 0 800 305" version="1.1" xmlns="http://www.w3.org/2000/svg" xmlns:xlink="http://www.w3.org/1999/xlink">
    <title>0_san_m</title>
    <g id="0_san_m" stroke="none" stroke-width="1" fill="none" fill-rule="evenodd">
        <g id="艹" transform="translate(95.000000, 0.000000)" fill="#000000" fill-rule="nonzero">
            <path d="M361.234467,1.45230431 C368.289171,-1.30707388 377.460287,-0.134338149 388.747815,4.97051151 C400.035342,10.0753612 409.441615,17.0427911 416.966633,25.8728013 C421.669769,32.495309 423.198289,38.2900032 421.552191,43.256884 C419.906093,48.2237647 419.083044,54.8462724 419.083044,63.124407 L419.083044,75.9555156 L488.219149,75.5416088 C520.67079,75.265671 540.776698,75.1966865 548.536873,75.3346555 C556.297048,75.4726244 561.588076,76.3694223 564.409958,78.0250492 C568.642781,80.2325518 576.050221,83.750759 586.632277,88.5796708 C597.214334,93.4085826 603.916304,98.4444478 606.738185,103.687266 C616.614772,119.69166 609.32491,128.245732 584.868601,129.349484 C568.877938,129.625421 528.666122,127.141981 464.233153,121.899162 C435.073708,119.415722 418.847887,118.174002 415.555692,118.174002 C413.204124,118.174002 411.322869,119.553691 409.911928,122.313069 C408.500987,125.072447 406.384576,131.694955 403.562694,142.180592 C401.68144,150.734665 399.565028,156.39139 397.21346,159.150768 C392.510324,165.2214 388.042344,179.570167 383.809521,202.197068 C382.398581,206.888011 380.517326,210.682156 378.165758,213.579503 C375.81419,216.47685 370.875896,220.408964 363.350878,225.375845 C360.99931,227.307409 357.942271,229.928819 354.179762,233.240073 C351.357881,235.723513 347.948107,237.241171 343.950441,237.793047 C339.952775,238.344922 336.778158,237.793047 334.42659,236.13742 C332.075021,234.481793 328.665248,230.066788 324.197268,222.892404 C319.729288,215.718021 316.437093,211.372 314.320682,209.854342 C312.20427,208.336684 312.321849,205.991213 314.673417,202.817928 C317.024985,199.644643 319.258975,191.435493 321.375386,178.190478 C323.491798,164.945462 325.490631,153.218105 327.371885,143.008406 C329.25314,132.798706 330.193767,125.762292 330.193767,121.899162 L330.193767,115.690562 L299.153067,116.932282 C248.359194,118.863846 218.964592,121.071349 210.96926,123.554789 C208.147378,124.382603 206.50128,126.107214 206.030967,128.728624 C205.560653,131.350033 205.79581,137.489649 206.736437,147.147473 C208.147378,162.048115 209.793476,172.18883 211.67473,177.569618 C213.555985,182.950405 213.673563,186.468612 212.027466,188.124239 C210.381368,189.779866 209.558319,193.229089 209.558319,198.471907 C209.088005,202.335037 206.383702,206.612073 201.445409,211.303016 C196.507116,215.993959 192.156714,218.33943 188.394205,218.33943 C183.691069,218.33943 178.987933,217.442632 174.284796,215.649037 C169.58166,213.855441 166.994935,211.854892 166.524621,209.647389 C165.583994,206.612073 163.350004,202.679959 159.822652,197.851047 C156.2953,193.022135 154.76678,185.985721 155.237094,176.741804 C155.707408,167.497887 154.531624,158.529908 151.709742,149.837867 C148.88786,141.145825 148.064811,135.213162 149.240595,132.039877 C150.416379,128.866592 149.59333,127.27995 146.771449,127.27995 C143.008939,127.27995 134.07298,128.383701 119.963571,130.591204 C105.854162,132.798706 95.7424189,134.730271 89.6283416,136.385898 C81.1626962,138.317463 76.224403,139.283245 74.8134621,139.283245 C73.4025212,139.283245 69.4048553,140.249027 62.8204643,142.180592 C47.3001143,146.871535 30.839137,143.146375 13.4375325,131.005111 C4.03125974,125.210416 -0.436719806,121.209318 0.0335938312,119.001815 C0.503907468,116.794313 6.14767111,114.172904 16.9648848,111.137588 C34.836803,106.99852 70.3454825,102.031639 123.490923,96.2369453 L143.244096,94.1674116 L143.244096,86.7170905 C143.244096,81.4742719 142.303469,75.9555156 140.422214,70.1608213 C138.54096,64.3661271 139.011274,58.1575262 141.833155,51.5350185 C143.71441,46.8440756 145.242929,44.015713 146.418713,43.0499306 C147.594497,42.0841482 151.004271,41.4632881 156.648035,41.1873503 C164.173053,40.6354747 173.109012,42.1531327 183.455912,45.7403243 C191.451244,48.4997025 196.389537,51.2590807 198.270792,54.0184589 C200.152046,56.7778371 202.033301,64.0901893 203.914555,75.9555156 C204.384869,82.0261476 205.207918,85.6823237 206.383702,86.9240439 C207.559486,88.1657641 210.028633,88.6486552 213.791142,88.3727174 C217.083337,87.8208418 234.132207,86.9930283 264.93775,85.8892771 C295.743293,84.7855258 315.614044,83.5438056 324.550003,82.1641165 L337.953942,79.6806761 L340.775824,61.0548733 C343.127392,39.5317234 345.596538,24.7690501 348.183263,16.7668533 C350.769988,8.76465653 355.12039,3.65980687 361.234467,1.45230431 Z"></path>
        </g>
    </g>
</svg>