<?xml version="1.0" encoding="UTF-8"?>
<svg width="400px" height="305px" viewBox="0 0 400 305" version="1.1" xmlns="http://www.w3.org/2000/svg" xmlns:xlink="http://www.w3.org/1999/xlink">
    <title>10_shi_s</title>
    <g id="10_shi_s" stroke="none" stroke-width="1" fill="none" fill-rule="evenodd">
        <g id="å" transform="translate(0.000000, -10.000000)" fill="#000000" fill-rule="nonzero">
            <path d="M179.402719,0.499808937 C176.728469,1.15944381 174.335951,2.50730127 172.559702,4.69935623 L172.438044,4.85527379 L172.417185,4.87704333 C171.249753,6.20044322 170.641693,7.59184945 170.156268,9.24458036 C169.877982,10.1920644 169.673038,11.212369 169.500822,12.3859236 L169.453126,12.7212879 L169.361702,13.426829 C169.346898,13.5483202 169.332308,13.671773 169.317928,13.7972039 L169.234135,14.5736578 C169.220579,14.707067 169.207225,14.8424872 169.19407,14.979935 L169.117485,15.8290853 L169.045471,16.7276905 L168.977839,17.6765434 C168.966921,17.8389168 168.956179,18.003417 168.945607,18.1700603 L168.884195,19.1957707 L168.811106,20.5890892 L168.730065,22.417038 L168.675117,23.8809873 L168.625154,25.4247876 L168.56627,27.6076293 L168.50505,30.5366183 L168.474901,32.4011467 L168.442356,35.0124503 L168.413934,38.4783409 L168.397728,42.9341357 L168.398661,46.6269307 L168.409227,49.7712769 L168.428862,52.8451266 L168.457579,55.8485426 L168.481775,57.8117213 L168.510018,59.7436427 L168.54231,61.6443255 L168.578656,63.5137882 L168.640784,66.2594856 L168.712053,68.9350427 L168.76465,70.6798117 L168.851184,73.2386081 L168.91397,74.9055948 L168.980837,76.5415011 L169.0888,78.9371259 L169.205969,81.2629247 L169.289201,82.774696 L169.421741,84.9842579 L169.563519,87.1241615 L169.663177,88.5120959 L169.766951,89.8691176 L169.874845,91.1952452 L170.044418,93.126551 L170.19802,94.741622 L170.541833,101.290565 L170.130018,101.3053 C165.098072,101.509969 159.326735,102.325955 152.771602,103.733805 L151.461836,104.018569 L150.536414,104.210979 L149.577938,104.399178 L148.586459,104.583146 L147.562029,104.762861 L146.504699,104.938301 L145.41452,105.109445 L144.291543,105.276271 L142.545693,105.518367 L141.340946,105.674304 L140.103579,105.825847 L138.833645,105.972975 L137.531195,106.115666 L136.19628,106.253899 L134.828951,106.387651 L133.429259,106.516902 L131.997256,106.641629 L130.532992,106.761812 L129.036519,106.877427 L126.73153,107.042241 L125.154759,107.146346 L123.545957,107.245809 L122.729561,107.293792 C104.679109,108.280579 85.784404,110.398969 66.0700581,113.644881 L62.9253323,114.171076 L60.889611,114.52104 L57.8933721,115.050406 L54.9658656,115.585124 L53.0523353,115.944603 L51.1692868,116.306502 L49.3166937,116.670836 L47.4945296,117.037623 L45.702768,117.406878 L43.9413827,117.778617 L42.2103472,118.152858 L40.5096351,118.529616 L38.8392201,118.908907 C38.5633409,118.972334 38.2887229,119.035868 38.0153657,119.099508 L36.3903467,119.48263 L34.7955587,119.868326 C34.5322785,119.932825 34.2702568,119.997431 34.0094931,120.062145 L32.4600022,120.451733 L30.9406764,120.843937 C30.1885503,121.040695 29.4477263,121.23844 28.7181894,121.437181 L27.2741607,121.835993 C27.0359961,121.902683 26.7990845,121.969486 26.5634253,122.0364 L25.1644958,122.439226 L23.7955993,122.844748 L22.4567096,123.252983 C22.2360604,123.32125 22.0166603,123.38963 21.798509,123.458123 L20.5045798,123.870458 L19.2405913,124.285547 C18.824249,124.42437 18.4128924,124.563655 18.0065171,124.703405 L16.8023309,125.124049 C16.6041224,125.194389 16.4071581,125.264846 16.2114375,125.33542 L14.6438811,125.908906 L13.7079031,126.261342 C13.4037593,126.377468 13.1073763,126.492314 12.8184907,126.606096 L11.9740619,126.944464 L11.1730351,127.277739 L10.4138285,127.607216 C8.0742201,128.645912 6.33986534,129.646947 4.98473953,130.795274 C1.32360304,133.897703 0,138.223932 0,143.32622 L0.0040575941,143.713451 C0.158103957,151.043941 4.69031247,156.844059 12.2145344,161.551146 L12.5363252,161.7498 L12.4195514,161.676071 C19.6887733,166.369331 26.825482,169.317542 33.8503865,170.414123 C40.6536149,171.476101 48.3857941,171.112089 57.0859305,169.410754 C65.8937044,167.725483 74.6667291,165.639291 83.3739284,163.158327 L87.0968221,162.083122 L89.2794814,161.464388 L90.9113452,161.012196 L92.4395903,160.598269 L94.2012992,160.134985 L95.4894812,159.80791 L96.383684,159.588145 L97.4785246,159.329347 L98.2255473,159.161027 L99.3270615,158.929855 L99.7167436,158.854738 L100.245967,158.760736 L100.708119,158.689217 L100.978565,158.654073 L101.514436,158.600916 L102.128336,158.532702 C102.337947,158.507279 102.552558,158.479171 102.772234,158.448374 L103.446525,158.347919 L104.151603,158.231319 C104.271704,158.210539 104.393104,158.189086 104.515812,158.166959 L105.267814,158.026113 C105.395785,158.00129 105.52508,157.975793 105.655707,157.949621 L106.455522,157.784492 C106.591511,157.75562 106.728849,157.726072 106.867544,157.69585 L107.716063,157.506401 L108.597544,157.30072 C108.747227,157.265086 108.898299,157.228776 109.05077,157.191787 L109.982437,156.961728 L110.948056,156.715395 L111.948021,156.452774 L112.982729,156.173848 L114.052575,155.878602 L115.157954,155.567019 L116.299262,155.239083 L117.819571,154.794952 L118.528327,154.59547 L119.26824,154.396233 L120.039255,154.197262 C120.170346,154.164124 120.302731,154.130997 120.436408,154.097883 L121.674371,153.80021 L122.538363,153.602175 L123.43324,153.404496 L124.833343,153.108695 L125.805191,152.912006 L126.807733,152.715753 L127.840913,152.519957 L129.448013,152.227171 L131.123743,151.935542 L132.867921,151.645146 L134.068643,151.45227 L135.299649,151.259998 L137.202823,150.972773 L139.173833,150.687032 L141.212494,150.402853 L143.318622,150.120311 L144.760099,149.932897 L146.978265,149.653252 L152.589308,148.95926 L155.832063,148.548285 L160.525069,147.93485 L164.137342,147.44146 L166.871251,147.049845 L169.094199,146.713497 L169.284677,155.095214 L169.284677,176.518601 L169.261505,177.046011 L169.246198,177.599169 L169.2349,178.546668 L169.235008,179.224131 L169.242611,180.112223 L169.26931,181.604212 L169.305605,182.996281 L169.390296,185.510149 L169.49134,188.004731 L169.679435,192.057348 L169.945981,197.196942 L170.242715,202.506498 L170.785405,211.64489 L173.195993,249.757404 L174.654025,271.837937 L174.674652,272.028025 C175.969313,283.958873 178.169956,293.282943 181.470076,300.160836 C185.444672,308.444426 191.351953,313.743303 199.085374,314.803789 L199.707352,314.880611 L199.921509,314.895734 C205.542789,315.292688 209.961378,314.611907 213.578124,311.887629 L213.874461,311.658374 C217.477064,308.795923 219.155137,304.641722 219.751905,299.440724 L219.780458,299.174863 L220.077429,297.739391 L220.470892,295.870505 L220.859917,294.066071 L221.371337,291.761128 L221.749157,290.108678 L221.998179,289.043588 L222.367266,287.501068 L222.730821,286.025054 L222.97001,285.078195 L223.323859,283.713936 L223.671594,282.417277 L223.899911,281.590597 L224.236968,280.407519 L224.457964,279.656939 L224.783735,278.588582 L224.997005,277.914863 L225.207071,277.272101 C225.241811,277.167561 225.276415,277.064315 225.310882,276.962367 L225.51602,276.36627 L225.817397,275.530777 L226.11098,274.766033 L226.302266,274.295712 L226.489926,273.857139 C226.520897,273.786696 226.551714,273.717581 226.582376,273.649797 L226.764477,273.259074 L226.830057,273.123504 L226.784577,273.213049 C228.118355,270.629652 229.056916,268.394123 229.602683,266.338656 L229.687847,266.008216 C230.319589,263.479353 230.458247,261.053791 229.705427,258.696319 L229.630088,258.473915 L229.668486,258.171924 C229.690984,258.00047 229.716257,257.820679 229.744302,257.632637 L229.836753,257.043837 L229.945833,256.406036 L230.071535,255.719742 L230.213853,254.985466 L230.372781,254.203718 L230.6423,252.943203 L230.842723,252.045007 L231.159628,250.673724 L231.245613,250.330033 C231.468218,249.420358 231.684362,248.449855 231.894088,247.418318 L232.101678,246.366428 C232.13592,246.18772 232.169985,246.007315 232.203871,245.825211 L232.405063,244.712201 C232.43824,244.523301 232.47124,244.3327 232.504063,244.140398 L232.698878,242.966165 L232.889455,241.751059 L233.075804,240.495035 C233.106511,240.282285 233.137041,240.067828 233.167396,239.851663 L233.347422,238.534175 C233.377075,238.311175 233.406554,238.086466 233.435857,237.860046 L233.609582,236.48099 L233.779117,235.060831 L233.944475,233.599525 L234.105663,232.097024 L234.262694,230.553284 L234.415575,228.968258 C234.440711,228.700644 234.465673,228.431307 234.490464,228.160248 L234.637141,226.513207 L234.779695,224.824766 L234.918135,223.094879 L235.052471,221.323499 L235.182713,219.510581 L235.370422,216.713221 L235.490473,214.796257 L235.606466,212.837595 L235.718408,210.837188 L235.878753,207.758207 L236.030042,204.585043 L236.125888,202.4172 L236.262162,199.08672 L236.38947,195.661644 L236.469378,193.32563 L236.58182,189.74255 L236.717941,184.817292 L236.809725,181.012284 L236.892712,177.111905 L236.966936,173.116002 L237.03243,169.02442 L237.089227,164.837002 L237.137362,160.553596 L237.176867,156.174045 L237.207312,151.741752 L237.265161,149.303207 L237.349012,146.390027 L237.404425,144.76765 L237.443464,143.738591 L237.505133,142.274061 L237.570493,140.904718 L237.639496,139.630924 L237.747318,137.933436 L238.604107,137.810308 L239.373004,137.705341 L240.601823,137.547311 L241.920994,137.38863 L243.330273,137.229346 L244.829417,137.069509 L246.967646,136.855619 L248.675529,136.694685 L251.091193,136.479511 L253.00649,136.317748 L255.010273,136.155712 L257.62676,135.95357 L260.063532,135.77293 L262.465073,135.602081 L264.831368,135.441018 L267.162402,135.289739 L269.45816,135.148241 L271.718628,135.016521 L273.943791,134.894576 L276.133634,134.782404 L278.288141,134.680001 L280.407298,134.587364 L282.491091,134.504491 L284.539504,134.431379 L286.552522,134.368024 L288.530131,134.314424 L290.472316,134.270577 L292.379061,134.236478 C292.693898,134.231607 293.007257,134.227142 293.319139,134.223083 L295.172698,134.203603 L296.99078,134.193864 L298.731993,134.193234 L300.406673,134.197932 L303.690803,134.221359 L306.096698,134.251146 L308.453441,134.291346 L309.997243,134.323905 L312.271826,134.381344 L314.49697,134.449057 L316.672566,134.52699 L318.095383,134.584598 L319.496098,134.64671 L321.555661,134.748288 L323.565315,134.859913 L325.524952,134.98153 L326.803536,135.068135 L328.059811,135.159143 L329.293743,135.254537 L330.505302,135.354304 L332.280618,135.512116 L333.436102,135.622744 L334.569099,135.737689 L335.679578,135.856935 L336.767507,135.980468 L337.832853,136.108271 L339.388461,136.30795 L340.397211,136.446362 L341.383267,136.58899 L342.346596,136.735819 L343.287167,136.886833 C343.442031,136.91235 343.595944,136.93804 343.748908,136.963904 L344.655281,137.121167 L345.538815,137.282576 L346.399478,137.448116 L347.237238,137.61777 L348.052064,137.791525 C348.185955,137.820825 348.318889,137.850295 348.450866,137.879935 L349.231229,138.05981 C349.359372,138.090128 349.486557,138.120615 349.612781,138.151271 L350.35861,138.337231 L351.081375,138.527229 L351.781045,138.721249 L352.457588,138.919275 C352.568416,138.952612 352.678279,138.986116 352.787177,139.019786 L353.428968,139.223792 L354.047553,139.431767 L354.459049,139.576245 L354.208851,139.472332 C368.45104,145.506713 381.028087,144.973827 390.622876,136.84325 C401.522318,127.607115 402.947109,115.026758 394.755804,103.046398 L394.308963,102.404277 L394.094378,102.139786 C389.648717,96.6601759 384.118941,92.8584032 377.674448,90.9206177 C377.331339,90.8174487 376.977506,90.7172671 376.612853,90.6200322 L375.869094,90.429479 C375.74272,90.398371 375.615138,90.3675873 375.486342,90.3371264 L374.698987,90.1582238 C374.565326,90.1290484 374.430446,90.1001929 374.294342,90.0716557 L373.463009,89.9042404 C373.321997,89.8769705 373.179755,89.8500159 373.036279,89.8233751 L372.160586,89.667284 C372.01216,89.6418923 371.862493,89.6168115 371.711581,89.5920399 L370.791147,89.4471096 C370.479338,89.4000286 370.162522,89.3541725 369.840672,89.3095293 L368.859988,89.1792263 L367.848924,89.0561282 L366.807311,88.9401624 L365.734979,88.8312564 L364.631758,88.7293376 L363.497478,88.6343335 L362.33197,88.5461716 L361.135064,88.4647793 L359.90659,88.3900841 L358.646379,88.3220134 L357.35426,88.2604948 L356.030064,88.2054556 L354.673621,88.1568234 L353.284761,88.1145255 C353.050574,88.1079997 352.815028,88.1017348 352.578122,88.0957293 L351.756187,88.0760361 L350.680908,88.0789173 L349.676319,88.087561 L348.635251,88.1019672 L347.005215,88.1343812 L345.293013,88.1797608 L343.498591,88.2381061 L340.978042,88.3360686 L338.311109,88.4570812 L335.497666,88.6011439 L332.537591,88.7682569 L330.221232,88.9087184 L327.00425,89.1161694 L324.495068,89.2868844 L321.020798,89.5346735 L318.318508,89.7356421 L312.665332,90.1764771 L308.712234,90.4991802 L304.61154,90.8449339 L301.439085,91.1193761 L295.966868,91.6055931 L291.422641,92.0204988 L285.534088,92.571546 L279.413897,93.1586101 L275.630495,93.5281367 L267.813052,94.3060883 L259.661073,95.1359046 C259.198884,95.1834462 258.735145,95.2312279 258.269855,95.2792497 L255.376521,95.5541043 L253.29482,95.7447595 L251.289128,95.922131 L248.116009,96.1882053 L245.731019,96.3744497 L243.483226,96.5370124 L241.887831,96.64338 L240.370289,96.7364049 L238.930889,96.8160778 L237.133749,96.9015226 L235.877815,96.9500048 L235.08446,96.9748918 L234.196803,96.9960013 L234.196749,96.693972 L234.206981,95.4482012 L234.232947,94.1096931 L234.274687,92.6788402 L234.332241,91.156035 L234.379415,90.0899408 L234.463411,88.4147541 L234.563326,86.6486618 L234.679198,84.7920565 L234.811066,82.8453307 L234.95897,80.808877 L235.200705,77.907555 L235.354501,75.9597377 L235.498751,74.04572 L235.63336,72.1653266 L235.758231,70.3183822 L235.873268,68.5047113 L235.978376,66.7241387 L236.073458,64.9764891 L236.158418,63.2615871 L236.233161,61.5792574 L236.297589,59.9293246 L236.351607,58.3116135 L236.39512,56.7259487 L236.42803,55.1721548 L236.450242,53.6500566 L236.46166,52.1594787 L236.462188,50.7002457 C236.460538,50.2190394 236.457058,49.7430281 236.45173,49.2721825 L236.430189,47.8751135 C236.42567,47.6448418 236.420685,47.4158542 236.415233,47.1881471 L236.376889,45.8372409 C236.369557,45.6146411 236.361754,45.3933144 236.353477,45.1732572 L236.298113,43.8681193 L236.231283,42.5932743 C236.219183,42.3833148 236.206602,42.1746102 236.193538,41.9671569 L236.109327,40.7374227 C235.343925,30.4118127 233.309819,23.3217036 229.741579,18.9825607 L229.696593,18.9303676 C226.452907,14.9322818 221.285986,11.4995112 214.041723,8.3153058 L212.966739,7.85106217 C212.240174,7.54270033 211.493764,7.23655731 210.727367,6.93233897 L209.562764,6.47741819 L208.368072,6.02516384 C207.763187,5.7996665 207.146978,5.57508634 206.519385,5.35129928 L205.249004,4.90474584 C205.034739,4.83048426 204.819204,4.7563016 204.602397,4.68219328 L203.28628,4.2383986 L202.616744,4.01710133 C202.168033,3.86975989 201.725457,3.72644093 201.288952,3.58715035 L199.997586,3.1813697 C199.785373,3.11575575 199.574661,3.05115038 199.365443,2.98755432 L198.127993,2.61809565 C193.655925,1.307867 189.898991,0.486861335 186.771512,0.162946763 C184.183406,-0.105104728 181.88239,-0.0580389158 179.738444,0.420927787 L179.402719,0.499808937 Z"></path>
        </g>
    </g>
</svg>