<?xml version="1.0" encoding="UTF-8"?>
<svg width="1000px" height="1000px" viewBox="0 0 1000 1000" version="1.1" xmlns="http://www.w3.org/2000/svg" xmlns:xlink="http://www.w3.org/1999/xlink">
    <title>10_shi_l</title>
    <g id="10_shi_l" stroke="none" stroke-width="1" fill="none" fill-rule="evenodd">
        <g id="å" transform="translate(71.500000, 134.078431)" fill="#000000" fill-rule="nonzero">
            <path d="M383,3.92156863 C386.333333,-2.74509804 401.333333,-0.911764706 428,9.42156863 C454.666667,19.754902 471.666667,30.254902 479,40.9215686 C489.666667,55.5882353 492,104.254902 486,186.921569 C483.333333,228.921569 483.666667,251.754902 487,255.421569 C490.333333,259.088235 515.333333,258.254902 562,252.921569 C666,240.254902 735.333333,233.921569 770,233.921569 C794.666667,234.588235 812.166667,236.754902 822.5,240.421569 C832.833333,244.088235 841.666667,251.254902 849,261.921569 C861.666667,283.254902 860,301.921569 844,317.921569 C829.333333,332.588235 809.333333,333.588235 784,320.921569 C759.333333,310.254902 714.333333,304.921569 649,304.921569 C622.333333,304.921569 590.666667,306.588235 554,309.921569 C517.333333,313.254902 497.666667,316.588235 495,319.921569 C493,321.254902 491.666667,340.254902 491,376.921569 C490.333333,510.921569 486,596.588235 478,633.921569 C474,653.921569 472.833333,665.254902 474.5,667.921569 C476.166667,670.588235 474.666667,677.254902 470,687.921569 C464.666667,700.588235 458.666667,726.254902 452,764.921569 C451.333333,773.588235 449.5,779.254902 446.5,781.921569 C443.5,784.588235 438,785.588235 430,784.921569 C410.666667,782.254902 398.333333,751.921569 393,693.921569 C391.666667,671.254902 389.166667,625.588235 385.5,556.921569 C381.833333,488.254902 380.333333,450.588235 381,443.921569 C381,439.921569 381,420.588235 381,385.921569 L380,333.921569 L368,335.921569 C360.666667,337.921569 340.833333,341.254902 308.5,345.921569 C276.166667,350.588235 252.333333,355.588235 237,360.921569 C221.666667,366.254902 210.833333,369.254902 204.5,369.921569 C198.166667,370.588235 184.833333,374.421569 164.5,381.421569 C144.166667,388.421569 123.666667,394.254902 103,398.921569 C85.6666667,402.921569 70.6666667,403.754902 58,401.421569 C45.3333333,399.088235 32,392.588235 18,381.921569 C6,373.254902 0,364.254902 0,354.921569 C0,348.254902 1.16666667,343.754902 3.5,341.421569 C5.83333333,339.088235 11.6666667,335.921569 21,331.921569 C45.6666667,321.254902 80.6666667,311.421569 126,302.421569 C171.333333,293.421569 214.666667,287.588235 256,284.921569 C285.333333,282.921569 308.333333,279.754902 325,275.421569 C341.666667,271.088235 355.666667,268.921569 367,268.921569 L385,268.921569 L383,223.921569 C380.333333,192.588235 379,148.754902 379,92.4215686 C379,36.0882353 380.333333,6.58823529 383,3.92156863 Z"></path>
        </g>
    </g>
</svg>