<?xml version="1.0" encoding="UTF-8"?>
<svg width="400px" height="305px" viewBox="0 0 400 305" version="1.1" xmlns="http://www.w3.org/2000/svg" xmlns:xlink="http://www.w3.org/1999/xlink">
    <title>11_s</title>
    <g id="11_s" stroke="none" stroke-width="1" fill="none" fill-rule="evenodd">
        <path d="M111.437835,28.3340697 C112.767082,27.9539374 114.193712,27.9165835 115.798337,28.1293228 C117.737374,28.3863979 120.066673,29.0379897 122.839356,30.0778537 L122.839356,30.0778537 L123.606574,30.3710749 C123.73629,30.4215479 123.866931,30.472822 123.998503,30.5248966 L123.998503,30.5248966 L124.79915,30.8469447 C125.069783,30.9574928 125.34418,31.071238 125.622381,31.1881757 L125.622381,31.1881757 L126.037494,31.3638084 L126.853486,31.7160264 C126.987906,31.7748425 127.121538,31.8337177 127.254383,31.8926554 L127.254383,31.8926554 L128.042019,32.2470629 C128.431126,32.4246717 128.813176,32.6029099 129.188205,32.7818761 L129.188205,32.7818761 L129.928913,33.1408081 L130.650968,33.5018563 C131.126134,33.7432995 131.588908,33.9862701 132.039378,34.2310017 L132.039378,34.2310017 L132.705868,34.599449 C137.197312,37.1265962 140.400802,39.8510173 142.411888,43.0241012 L142.411888,43.0241012 L142.439779,43.0655244 C144.652088,46.5092886 145.913233,52.1363593 146.387783,60.3312879 L146.387783,60.3312879 L146.439993,61.3072674 C146.448093,61.4719129 146.455894,61.6375514 146.463395,61.804186 L146.463395,61.804186 L146.50483,62.8159677 L146.539156,63.8517915 C146.544287,64.02644 146.549125,64.2020961 146.553671,64.3787626 L146.553671,64.3787626 L146.577444,65.4509104 C146.580825,65.6316303 146.583916,65.8133665 146.586717,65.9961218 L146.586717,65.9961218 L146.600072,67.1049067 C146.603376,67.4785937 146.605534,67.8563805 146.606557,68.2382903 L146.606557,68.2382903 L146.606229,69.3964116 L146.59915,70.57941 L146.585379,71.7874244 L146.564974,73.0205942 L146.537997,74.2790583 L146.504505,75.5629561 L146.46456,76.8724265 L146.418219,78.2076088 L146.365544,79.5686422 L146.306593,80.9556657 L146.241426,82.3688185 L146.170103,83.8082398 L146.092683,85.2740688 L146.009226,86.7664445 L145.919791,88.2855061 L145.824437,89.8313928 L145.674562,92.1340293 L145.582861,93.7502625 L145.501103,95.295283 L145.429262,96.7687792 L145.367315,98.1704397 L145.315237,99.499953 L145.285989,100.34606 L145.250306,101.554635 L145.224427,102.690233 L145.208328,103.752541 L145.201984,104.741248 L145.202018,104.980953 L145.752365,104.9642 L146.244245,104.944448 L147.022924,104.90597 L148.137151,104.838157 L149.029579,104.774925 L149.970455,104.701095 L150.9596,104.616676 L152.353232,104.487659 L153.831925,104.339846 L155.79926,104.128675 L157.042788,103.987904 L158.333443,103.836591 L160.12731,103.618452 C160.41579,103.58034 160.703308,103.542418 160.989865,103.504686 L160.989865,103.504686 L166.044092,102.846102 L170.890907,102.22868 L173.236616,101.935405 L177.031134,101.469481 L180.682037,101.032142 L183.499458,100.702852 L186.892233,100.316965 L188.859155,100.099154 L191.401585,99.8247462 L193.852506,99.5686326 L197.357475,99.2187636 L199.032895,99.0592646 L201.186942,98.8626066 L202.742635,98.7271185 L204.737164,98.5624749 L206.173306,98.4509976 L208.008553,98.3183682 L209.752887,98.2040327 L211.406386,98.1079909 L212.969126,98.0302429 L214.081668,97.9839372 L215.143233,97.9479216 L216.153856,97.9221962 L216.799318,97.9107627 L217.422163,97.9039026 L218.088836,97.9016159 L218.598436,97.9172455 C218.745318,97.9220118 218.891356,97.9269839 219.036552,97.9321631 L219.036552,97.9321631 L219.897645,97.9657328 L220.738639,98.0043298 L221.559641,98.0480117 L222.360755,98.096836 L223.142086,98.1508604 L223.90374,98.2101423 L224.645821,98.2747394 L225.368436,98.3447091 L226.07169,98.4201092 L226.755687,98.5009971 L227.420533,98.5874305 L228.066333,98.6794668 L228.693192,98.7771638 L229.301217,98.8805788 C229.500764,98.9160099 229.697189,98.9524036 229.890511,98.9897696 L229.890511,98.9897696 L230.46118,99.1047936 L230.46118,99.1047936 L230.739563,99.1645111 L231.282493,99.288393 C231.371448,99.3095364 231.459638,99.330929 231.547065,99.3525718 L231.547065,99.3525718 L232.062492,99.485441 C232.146876,99.5080896 232.230502,99.5309908 232.313372,99.5541459 L232.313372,99.5541459 L232.801532,99.6961321 C232.881385,99.7203073 232.960487,99.7447389 233.038838,99.7694278 L233.038838,99.7694278 L233.499969,99.9206604 C233.726053,99.997831 233.94543,100.07734 234.158158,100.15922 C238.153743,101.697145 241.582205,104.714425 244.338515,109.063322 L244.338515,109.063322 L244.471557,109.273236 L244.748598,109.782855 C249.827207,119.291078 248.943837,129.275488 242.186183,136.605754 C236.237414,143.058592 228.439645,143.481518 219.609487,138.692327 L219.754,138.77 L219.509483,138.660132 L219.12596,138.495073 L218.728049,138.333163 C218.660533,138.306441 218.592418,138.279851 218.523705,138.253393 L218.523705,138.253393 L218.104248,138.096229 L217.670453,137.942245 L217.222338,137.791453 L216.759925,137.643866 C216.681665,137.619536 216.602811,137.595339 216.523362,137.571278 L216.523362,137.571278 L216.039537,137.42852 C215.957711,137.404996 215.875292,137.381607 215.792279,137.358353 L215.792279,137.358353 L215.287088,137.220453 L214.767676,137.085806 L214.234065,136.954425 L213.686274,136.826323 L213.124323,136.701511 C213.029486,136.680984 212.934059,136.660595 212.838044,136.640343 L212.838044,136.640343 L212.25489,136.520491 L211.657626,136.40396 L211.046271,136.290763 L210.420846,136.180912 L209.456369,136.022437 L208.795854,135.921006 L208.121338,135.822964 L207.432841,135.728324 L206.730383,135.637098 L206.013983,135.549299 L204.913287,135.424051 L204.162121,135.344871 L203.397083,135.269161 L202.618193,135.196933 L201.82547,135.128199 L200.610495,135.031677 L199.36451,134.943086 L198.087581,134.862468 L197.219137,134.813173 L196.336991,134.767452 L194.988121,134.705601 L193.608532,134.651861 L192.198291,134.606274 L191.241133,134.580433 L189.779953,134.548528 L188.288298,134.524888 L186.252138,134.506295 L185.213836,134.502567 L184.134284,134.503066 L183.007073,134.510796 L181.857866,134.526257 C181.664499,134.529478 181.470217,134.533021 181.275018,134.536887 L181.275018,134.536887 L180.092836,134.56395 L178.888681,134.59875 L177.662564,134.641289 L176.414492,134.691571 L175.144476,134.749596 L173.852525,134.815368 L172.538647,134.88889 L171.202853,134.970162 L169.845151,135.059188 L168.46555,135.155969 L167.064059,135.260509 L165.640689,135.372809 L164.195448,135.492871 L162.728345,135.620699 L161.23939,135.756294 L159.728591,135.899659 L158.106369,136.060089 L156.864024,136.188689 L155.676539,136.317072 L154.178828,136.487845 L153.11994,136.615571 L151.794239,136.785325 L150.864769,136.912179 L149.991016,137.038595 L149.17313,137.164533 L148.411262,137.289953 L147.934546,137.37326 L147.403337,137.470981 L147.336488,138.818194 L147.293705,139.829141 L147.253182,140.915921 L147.214948,142.078247 L147.190743,142.89496 L147.156387,144.182561 L147.1044,146.494609 L147.068533,148.429962 L147.049658,151.947655 L147.025164,155.423489 L146.995321,158.823018 L146.960106,162.146365 L146.9195,165.393653 L146.873482,168.565004 L146.82203,171.660542 L146.765123,174.68039 L146.680728,178.589325 L146.611014,181.43304 L146.561471,183.287019 L146.48254,186.005333 L146.398051,188.648571 L146.338626,190.369082 L146.244827,192.887466 L146.145413,195.331102 L146.076009,196.918726 L146.004094,198.47322 L145.929662,199.99462 L145.813282,202.214747 L145.732532,203.653571 L145.649244,205.059428 L145.563411,206.432354 L145.475028,207.772387 L145.384087,209.079562 C145.368717,209.294688 145.353241,209.508447 145.337657,209.720839 L145.337657,209.720839 L145.24287,210.978797 L145.145511,212.203987 L145.045574,213.396448 L144.943053,214.556215 L144.837941,215.683325 L144.730232,216.777814 C144.712063,216.957512 144.693787,217.135853 144.675401,217.312837 L144.675401,217.312837 L144.563786,218.358463 C144.544966,218.530022 144.526037,218.700226 144.506999,218.869075 L144.506999,218.869075 L144.391462,219.86592 L144.273304,220.83029 L144.152519,221.762221 C144.132169,221.914841 144.111709,222.066112 144.091139,222.216033 L144.091139,222.216033 L143.9664,223.099374 C143.94539,223.243901 143.92427,223.38708 143.90304,223.528911 L143.90304,223.528911 L143.774335,224.363744 C143.644304,225.182425 143.510295,225.952665 143.37228,226.67463 L143.37228,226.67463 L143.318969,226.9474 L143.122488,228.03572 L142.998226,228.748574 L142.831124,229.748983 L142.732589,230.369417 L142.644352,230.952176 L142.566417,231.496854 L142.498787,232.003045 L142.441467,232.470347 C142.424079,232.619587 142.40841,232.762278 142.394461,232.898352 L142.394461,232.898352 L142.370654,233.138028 L142.417365,233.314539 C142.884113,235.185548 142.798145,237.110598 142.406465,239.117632 L142.406465,239.117632 L142.353663,239.379886 C142.015288,241.011209 141.43338,242.785438 140.606438,244.835753 L140.634636,244.764686 L140.593976,244.872281 L140.481073,245.182378 C140.462063,245.236176 140.442956,245.291029 140.423754,245.346936 L140.423754,245.346936 L140.307405,245.69501 L140.188808,246.068281 L140.006786,246.67522 L139.819933,247.338309 L139.692747,247.811403 C139.671377,247.892314 139.649923,247.974255 139.628384,248.057223 L139.628384,248.057223 L139.498143,248.567351 L139.365915,249.102049 L139.163938,249.949952 L139.02692,250.54565 L138.817945,251.484601 L138.676388,252.140696 L138.460793,253.16979 L138.241406,254.252536 L138.093109,255.004011 L137.867705,256.175451 L137.638871,257.399673 L137.484477,258.244983 L137.250229,259.55645 L136.933149,261.385771 L136.691953,262.817861 L136.448006,264.301104 L136.263884,265.440368 L136.246181,265.651368 C135.876185,269.779145 134.835779,273.07613 132.602166,275.347916 L132.602166,275.347916 L132.418437,275.529865 C130.176054,277.69199 127.436529,278.232292 123.951336,277.917249 L123.951336,277.917249 L123.818558,277.905247 L123.432932,277.844277 C118.638211,277.002622 114.975696,272.797164 112.511447,266.222886 C110.465372,260.764241 109.100974,253.364185 108.298284,243.895258 L108.298284,243.895258 L108.285495,243.744395 L107.381515,226.220162 L105.886951,195.972135 L105.550483,188.719443 L105.366508,184.505509 L105.20125,180.426467 L105.084631,177.210104 L105.021984,175.230277 L104.969475,173.235143 L104.946972,172.130327 L104.930419,170.946209 L104.925705,170.241374 L104.925638,169.703705 L104.932643,168.951721 L104.942133,168.512707 L104.9565,168.094128 L104.9565,151.091439 L104.838403,144.439283 L103.460176,144.706226 L101.765152,145.017031 L99.5255428,145.408611 L96.615879,145.895464 L94.6053711,146.221635 L91.1265243,146.772422 L89.7512614,146.994362 L88.8575458,147.143104 L87.5517461,147.367344 L86.2877764,147.592883 L85.0657504,147.819661 L83.8857822,148.047618 L83.1225584,148.200214 L82.3781113,148.35329 L81.2967208,148.583764 L80.2577678,148.815215 L79.2613661,149.047585 L78.6207943,149.202978 L77.9992185,149.358735 L77.3966727,149.514837 L76.5286087,149.7496 L75.9737852,149.906488 L75.4381097,150.063659 L74.6705729,150.299908 C74.5876929,150.326188 74.5056143,150.352479 74.4243378,150.378779 L74.4243378,150.378779 L73.9463089,150.536693 L73.487563,150.694818 L73.0481339,150.853137 L72.1055422,151.205621 L71.3979315,151.465888 L70.7125966,151.713176 L70.0492922,151.947499 L69.4077733,152.168868 L68.7877945,152.377298 L68.1891109,152.5728 L67.6114772,152.755387 C67.5169454,152.784743 67.4232805,152.813561 67.3304774,152.841841 L67.3304774,152.841841 L66.7839589,153.00508 L66.2578773,153.155436 C66.1718865,153.179423 66.0867371,153.202873 66.0024238,153.225787 L66.0024238,153.225787 L65.5065382,153.356842 C65.4255494,153.377613 65.3453866,153.397849 65.2660447,153.41755 L65.2660447,153.41755 L64.7998033,153.529333 C64.7237246,153.546894 64.6484565,153.56392 64.5739941,153.580412 L64.5739941,153.580412 L64.1368453,153.672951 L63.7187851,153.752678 C63.582586,153.77712 63.4495274,153.799428 63.3195685,153.819604 L63.3195685,153.819604 L62.9389502,153.873743 L62.6067105,153.915931 L62.4390339,153.943823 L62.1524993,154.000584 L61.8243811,154.075189 L61.5827781,154.134805 L60.8998393,154.318275 L60.4366852,154.451862 L59.7578841,154.657258 L59.2034783,154.831675 L58.4048055,155.091258 L57.312546,155.458944 L56.365034,155.787457 L55.3532785,156.14634 L54.0000297,156.637398 L51.6918356,157.490736 C46.2933721,159.459755 40.8540968,161.115463 35.3932769,162.452979 C29.9991923,163.803245 25.2052413,164.092144 20.9872397,163.249304 C16.6317989,162.379001 12.2070394,160.039151 7.70012186,156.314342 L7.742,156.348 L7.57301133,156.215196 C3.01648251,152.56629 0.22972397,148.08978 0.0135725084,142.462225 L0.00251570834,142.058294 L0,141.750968 C0,137.701533 0.820633884,134.268018 3.09053851,131.805773 C3.93071651,130.894402 5.00601646,130.09993 6.4565737,129.275568 L6.4565737,129.275568 L6.92728178,129.014078 L7.42391839,128.749574 L7.94746422,128.481029 C8.12657333,128.390726 8.31033076,128.299578 8.49889995,128.207414 L8.49889995,128.207414 L9.07920626,127.927703 L10.0510912,127.472556 C10.172438,127.416545 10.2945559,127.360626 10.4174451,127.3048 L10.4174451,127.3048 L11.1640406,126.970956 C11.4159933,126.860044 11.6710344,126.7495 11.9291666,126.639323 L11.9291666,126.639323 L12.7128395,126.309888 L13.5150756,125.982638 C13.6503294,125.928277 13.7863574,125.874008 13.9231599,125.819828 L13.9231599,125.819828 L14.7532716,125.495832 L15.6019874,125.173989 L16.4693237,124.854285 C16.6154324,124.801179 16.7623176,124.748161 16.9099797,124.695232 L16.9099797,124.695232 L17.8052774,124.378715 C18.2575903,124.220984 18.7169012,124.064044 19.1832194,123.907886 L19.1832194,123.907886 L20.1252014,123.596614 L21.0858857,123.287417 C21.2475592,123.236056 21.4100127,123.184781 21.5732464,123.133592 L21.5732464,123.133592 L22.5620149,122.827484 L23.5695267,122.523419 C23.7390082,122.472911 23.9092713,122.422487 24.0803165,122.372148 L24.0803165,122.372148 L25.1159738,122.071124 L26.1704153,121.772109 L27.2436573,121.475093 L28.3357162,121.180062 L29.4466083,120.887002 L30.5763501,120.595902 L31.7249578,120.306747 L32.8924479,120.019526 L34.0788367,119.734225 L35.8938907,119.309846 L37.7515588,118.889715 L39.013706,118.611965 L40.963436,118.19435 C53.1863305,115.618229 64.9010478,113.936967 76.092328,113.153803 L76.092328,113.153803 L76.5984935,113.115721 L77.5959504,113.036783 L78.5735487,112.95416 L80.002642,112.823355 L80.9304551,112.731597 L81.8382986,112.636214 L82.7261406,112.537224 L83.5939495,112.434644 L84.4416936,112.328491 L85.269341,112.218782 L86.0768601,112.105536 L86.8642191,111.988767 L87.6313863,111.868495 L88.3783298,111.744736 L89.4607566,111.552596 L90.1570024,111.420195 L90.8329135,111.284366 L91.4884582,111.145128 L92.1236047,111.002497 L92.7383214,110.85649 L93.3325764,110.707126 L93.9063381,110.55442 L94.7183929,110.328417 C98.7825756,109.211076 102.360805,108.563467 105.480611,108.401032 L105.480611,108.401032 L105.735937,108.389337 L105.522772,103.191763 L105.427539,101.909961 L105.322404,100.377179 L105.25551,99.3246965 L105.19117,98.2476952 L105.129382,97.1461599 L105.041479,95.4478238 L104.959305,93.6942032 L104.907701,92.4943846 L104.835056,90.6485126 L104.768119,88.7472231 L104.726661,87.4488847 L104.687734,86.1258794 L104.634083,84.0950886 L104.601473,82.7103513 L104.557286,80.5868933 L104.518767,78.4077684 L104.496232,76.9240678 L104.476211,75.4155894 L104.458701,73.8823185 L104.443699,72.3242402 L104.425894,69.9405766 L104.413721,67.5010134 L104.40717,65.0055006 L104.406592,62.0747109 L104.416639,58.5383658 L104.434261,55.7876589 L104.454439,53.7151958 L104.473131,52.2354113 L104.511087,49.9108169 L104.547595,48.1784028 L104.578572,46.9531645 L104.61264,45.7913 L104.662885,44.3405469 L104.708201,43.2347386 L104.746276,42.4206828 C104.752831,42.2884262 104.759491,42.1578705 104.76626,42.0290027 L104.76626,42.0290027 L104.808192,41.2759449 L104.852841,40.5627661 L104.900323,39.8888373 C104.90848,39.7797518 104.916759,39.6722754 104.925164,39.5663951 L104.925164,39.5663951 L104.977115,38.9501618 C104.986031,38.8506135 104.995077,38.7526351 105.004255,38.6562135 L105.004255,38.6562135 L105.060938,38.0962603 L105.09051,37.8300981 C105.197283,36.8987055 105.324349,36.08894 105.496886,35.3369685 C105.797849,34.0252773 106.174847,32.9209867 106.898654,31.8706693 L106.898654,31.8706693 L106.911587,31.8533919 L106.987015,31.7296478 C108.088289,29.9899216 109.571651,28.9201935 111.229686,28.3966738 L111.229686,28.3966738 Z M373.301215,156.319423 C379.718449,158.302149 383.996604,160.202262 386.135682,162.019761 C388.27476,163.83726 390.899992,167.389644 394.011378,172.676914 C396.150456,176.311912 397.560303,179.368615 398.240919,181.847023 C398.921534,184.325431 399.359073,189.199633 399.553534,196.469629 C400.331381,209.026896 399.407688,217.783936 396.782456,222.740752 C394.157224,227.697568 389.635991,229.34984 383.218758,227.697568 C378.357217,226.706205 375.634754,225.797455 375.051369,224.971319 C374.467985,224.145183 368.536905,221.749389 357.258131,217.783936 C345.979356,213.818484 333.047658,211.835758 318.463036,211.835758 C303.100567,211.835758 283.216866,212.992348 258.811932,215.305529 C234.406997,217.618709 219.968222,219.766663 215.495604,221.749389 C196.632826,230.671657 186.715283,236.454609 185.742975,239.098244 C185.354052,240.420061 183.409436,241.08097 179.909126,241.08097 C176.408817,241.08097 173.783585,240.254834 172.033431,238.602562 C168.533121,235.298018 164.303581,229.680294 159.344809,221.749389 C154.386038,213.818484 151.906652,208.861668 151.906652,206.878942 C151.517729,205.557125 152.441422,202.91349 154.67773,198.948037 C156.914039,194.982585 158.712809,192.504177 160.07404,191.512814 C169.408199,186.886452 177.96451,183.499295 185.742975,181.351342 C193.52144,179.203388 206.939293,176.642367 225.996532,173.668277 C241.553462,171.355097 252.637775,169.537598 259.24947,168.21578 C266.444551,166.893963 278.452556,165.489532 295.273487,164.002487 C312.094418,162.515442 324.685808,161.77192 333.047658,161.77192 C343.159663,161.77192 349.868589,160.450102 353.174436,157.806467 C356.285822,154.832378 358.813824,153.26272 360.75844,153.097493 C362.703056,152.932265 366.883981,154.006242 373.301215,156.319423 Z" id="Combined-Shape" fill="#000000" fill-rule="nonzero"></path>
    </g>
</svg>