<?xml version="1.0" encoding="UTF-8"?>
<svg width="400px" height="305px" viewBox="0 0 400 305" version="1.1" xmlns="http://www.w3.org/2000/svg" xmlns:xlink="http://www.w3.org/1999/xlink">
    <title>11_s</title>
    <g id="11_s" stroke="none" stroke-width="1" fill="none" fill-rule="evenodd">
        <path d="M111.654882,27.0048654 C123.344659,26.8025649 135.697784,32.9274096 143.141755,41.9121393 C150.132918,58.7549683 146.686223,77.5134529 146.228387,95.257176 C146.325761,99.0226401 144.110881,105.518385 150.192948,103.177299 C175.25978,100.989257 200.261064,95.3813074 225.511608,96.8366473 C242.824979,96.5793406 255.195055,118.312635 244.899785,132.929626 C238.552614,144.666244 225.440723,141.210201 215.773123,136.737022 C193.569334,131.985671 170.482848,133.854385 148.152752,136.787205 C147.073592,168.481147 148.626291,200.504443 143.183937,231.868611 C144.200044,240.516661 138.803852,248.329095 138.269554,256.949669 C136.923813,265.445404 136.218653,278.991306 124.066321,276.969287 C109.934751,272.692871 109.857371,254.497322 108.148984,242.420624 C106.547538,209.604163 104.297909,176.794825 104.719738,143.922514 C91.3781505,146.090283 77.9525513,148.089863 65.2580151,152.901834 C48.6790864,156.123862 32.2722176,168.106917 15.2577856,160.397524 C4.08017444,155.72449 -5.20467971,141.485939 3.32933139,130.378019 C16.1347215,121.10566 32.5185139,118.838153 47.6085657,115.404318 C65.7369275,111.464419 84.5898385,112.375949 102.480824,107.199367 C108.607787,107.688509 104.066138,99.1360863 104.951389,95.2205293 C104.391421,74.9628508 103.338989,54.546669 105.378277,34.3597829 C106.036885,31.0901349 108.329145,27.9037083 111.654882,27.0048654 Z M387.45443,161.706999 C395.429425,170.770623 400.667036,182.374071 399.721704,194.644239 C399.785755,205.608584 402.234292,220.369101 391.325009,226.84621 C379.998048,229.655936 371.152237,220.793185 360.701958,218.324505 C329.79323,206.687315 296.349707,211.91064 264.275719,214.020244 C247.839289,216.048228 230.798365,216.134657 214.969632,221.307239 C204.600374,226.847367 192.419199,230.885667 184.46275,239.673702 C171.234729,243.547524 165.103018,229.078299 158.889247,220.273473 C155.290794,213.609549 147.981541,205.857645 154.093798,198.184218 C159.807701,185.543751 175.527677,183.599612 187.292799,179.264522 C214.241714,172.990382 241.805061,169.898691 269.022392,165.064093 C292.957585,162.101542 317.041133,160.362436 341.140365,159.746797 C349.151127,160.318967 353.787716,154.033013 360.492006,151.461413 C369.958513,152.827287 379.749895,156.123034 387.45443,161.706999 Z" id="Combined-Shape" fill="#000000" fill-rule="nonzero"></path>
    </g>
</svg>