<?xml version="1.0" encoding="UTF-8"?>
<svg width="400px" height="305px" viewBox="0 0 400 305" version="1.1" xmlns="http://www.w3.org/2000/svg" xmlns:xlink="http://www.w3.org/1999/xlink">
    <title>11_s</title>
    <g id="11_s" stroke="none" stroke-width="1" fill="none" fill-rule="evenodd">
        <g id="十" transform="translate(0.000000, 28.000000)" fill="#000000" fill-rule="nonzero">
            <path d="M111.229686,0.396673759 C109.571651,0.9201935 108.088289,1.98992164 106.987015,3.7296478 L106.911587,3.8533919 L106.898654,3.87066931 C106.174847,4.92098668 105.797849,6.02527734 105.496886,7.33696854 C105.324349,8.08893996 105.197283,8.89870552 105.09051,9.83009811 L105.060938,10.0962603 L105.004255,10.6562135 C104.995077,10.7526351 104.986031,10.8506135 104.977115,10.9501618 L104.925164,11.5663951 C104.916759,11.6722754 104.90848,11.7797518 104.900323,11.8888373 L104.852841,12.5627661 L104.808192,13.2759449 L104.76626,14.0290027 C104.759491,14.1578705 104.752831,14.2884262 104.746276,14.4206828 L104.708201,15.2347386 L104.662885,16.3405469 L104.61264,17.7913 L104.578572,18.9531645 L104.547595,20.1784028 L104.511087,21.9108169 L104.473131,24.2354113 L104.454439,25.7151958 L104.434261,27.7876589 L104.416639,30.5383658 L104.406592,34.0747109 L104.40717,37.0055006 L104.413721,39.5010134 L104.425894,41.9405766 L104.443699,44.3242402 L104.458701,45.8823185 L104.476211,47.4155894 L104.496232,48.9240678 L104.518767,50.4077684 L104.557286,52.5868933 L104.601473,54.7103513 L104.634083,56.0950886 L104.687734,58.1258794 L104.726661,59.4488847 L104.768119,60.7472231 L104.835056,62.6485126 L104.907701,64.4943846 L104.959305,65.6942032 L105.041479,67.4478238 L105.129382,69.1461599 L105.19117,70.2476952 L105.25551,71.3246965 L105.322404,72.3771787 L105.427539,73.9099611 L105.522772,75.1917635 L105.735937,80.3893372 L105.480611,80.4010315 C102.360805,80.5634673 98.7825756,81.2110756 94.7183929,82.328417 L93.9063381,82.5544202 L93.3325764,82.7071259 L92.7383214,82.8564905 L92.1236047,83.0024968 L91.4884582,83.1451277 L90.8329135,83.284366 L90.1570024,83.4201946 L89.4607566,83.5525963 L88.3783298,83.7447358 L87.6313863,83.8684951 L86.8642191,83.9887674 L86.0768601,84.1055356 L85.269341,84.2187825 L84.4416936,84.3284909 L83.5939495,84.4346437 L82.7261406,84.5372236 L81.8382986,84.6362136 L80.9304551,84.7315965 L80.002642,84.8233551 L78.5735487,84.9541599 L77.5959504,85.0367827 L76.5984935,85.1157211 L76.092328,85.1538033 C64.9010478,85.9369673 53.1863305,87.6182292 40.963436,90.1943503 L39.013706,90.6119653 L37.7515588,90.8897146 L35.8938907,91.3098459 L34.0788367,91.7342252 L32.8924479,92.0195261 L31.7249578,92.3067473 L30.5763501,92.5959016 L29.4466083,92.8870021 L28.3357162,93.1800616 L27.2436573,93.475093 L26.1704153,93.7721094 L25.1159738,94.0711235 L24.0803165,94.3721484 C23.9092713,94.4224875 23.7390082,94.4729109 23.5695267,94.5234189 L22.5620149,94.8274841 L21.5732464,95.1335924 C21.4100127,95.1847814 21.2475592,95.2360561 21.0858857,95.2874168 L20.1252014,95.5966139 L19.1832194,95.9078864 C18.7169012,96.0640436 18.2575903,96.220984 17.8052774,96.3787147 L16.9099797,96.6952322 C16.7623176,96.7481615 16.6154324,96.8011791 16.4693237,96.8542854 L15.6019874,97.1739886 L14.7532716,97.4958319 L13.9231599,97.8198281 C13.7863574,97.8740076 13.6503294,97.9282774 13.5150756,97.9826376 L12.7128395,98.3098875 L11.9291666,98.6393227 C11.6710344,98.7495 11.4159933,98.8600437 11.1640406,98.970956 L10.4174451,99.3048004 C10.2945559,99.3606261 10.172438,99.4165445 10.0510912,99.4725559 L9.07920626,99.9277031 L8.49889995,100.207414 C8.31033076,100.299578 8.12657333,100.390726 7.94746422,100.481029 L7.42391839,100.749574 L6.92728178,101.014078 L6.4565737,101.275568 C5.00601646,102.09993 3.93071651,102.894402 3.09053851,103.805773 C0.820633884,106.268018 0,109.701533 0,113.750968 L0.00251570834,114.058294 C0.0980244535,119.876144 2.90799373,124.479412 7.57301133,128.215196 L7.77252165,128.372857 L7.70012186,128.314342 C12.2070394,132.039151 16.6317989,134.379001 20.9872397,135.249304 C25.2052413,136.092144 29.9991923,135.803245 35.3932769,134.452979 C40.8540968,133.115463 46.2933721,131.459755 51.6918356,129.490736 L54.0000297,128.637398 L55.3532785,128.14634 L56.365034,127.787457 L57.312546,127.458944 L58.4048055,127.091258 L59.2034783,126.831675 L59.7578841,126.657258 L60.4366852,126.451862 L60.8998393,126.318275 L61.5827781,126.134805 L61.8243811,126.075189 L62.1524993,126.000584 L62.4390339,125.943823 L62.6067105,125.915931 L62.9389502,125.873743 L63.3195685,125.819604 C63.4495274,125.799428 63.582586,125.77712 63.7187851,125.752678 L64.1368453,125.672951 L64.5739941,125.580412 C64.6484565,125.56392 64.7237246,125.546894 64.7998033,125.529333 L65.2660447,125.41755 C65.3453866,125.397849 65.4255494,125.377613 65.5065382,125.356842 L66.0024238,125.225787 C66.0867371,125.202873 66.1718865,125.179423 66.2578773,125.155436 L66.7839589,125.00508 L67.3304774,124.841841 C67.4232805,124.813561 67.5169454,124.784743 67.6114772,124.755387 L68.1891109,124.5728 L68.7877945,124.377298 L69.4077733,124.168868 L70.0492922,123.947499 L70.7125966,123.713176 L71.3979315,123.465888 L72.1055422,123.205621 L73.0481339,122.853137 L73.487563,122.694818 L73.9463089,122.536693 L74.4243378,122.378779 C74.5056143,122.352479 74.5876929,122.326188 74.6705729,122.299908 L75.4381097,122.063659 L75.9737852,121.906488 L76.5286087,121.7496 L77.3966727,121.514837 L77.9992185,121.358735 L78.6207943,121.202978 L79.2613661,121.047585 L80.2577678,120.815215 L81.2967208,120.583764 L82.3781113,120.35329 L83.1225584,120.200214 L83.8857822,120.047618 L85.0657504,119.819661 L86.2877764,119.592883 L87.5517461,119.367344 L88.8575458,119.143104 L89.7512614,118.994362 L91.1265243,118.772422 L94.6053711,118.221635 L96.615879,117.895464 L99.5255428,117.408611 L101.765152,117.017031 L103.460176,116.706226 L104.838403,116.439283 L104.9565,123.091439 L104.9565,140.094128 L104.942133,140.512707 L104.932643,140.951721 L104.925638,141.703705 L104.925705,142.241374 L104.930419,142.946209 L104.946972,144.130327 L104.969475,145.235143 L105.021984,147.230277 L105.084631,149.210104 L105.20125,152.426467 L105.366508,156.505509 L105.550483,160.719443 L105.886951,167.972135 L107.381515,198.220162 L108.285495,215.744395 L108.298284,215.895258 C109.100974,225.364185 110.465372,232.764241 112.511447,238.222886 C114.975696,244.797164 118.638211,249.002622 123.432932,249.844277 L123.818558,249.905247 L123.951336,249.917249 C127.436529,250.232292 130.176054,249.69199 132.418437,247.529865 L132.602166,247.347916 C134.835779,245.07613 135.876185,241.779145 136.246181,237.651368 L136.263884,237.440368 L136.448006,236.301104 L136.691953,234.817861 L136.933149,233.385771 L137.250229,231.55645 L137.484477,230.244983 L137.638871,229.399673 L137.867705,228.175451 L138.093109,227.004011 L138.241406,226.252536 L138.460793,225.16979 L138.676388,224.140696 L138.817945,223.484601 L139.02692,222.54565 L139.163938,221.949952 L139.365915,221.102049 L139.498143,220.567351 L139.628384,220.057223 C139.649923,219.974255 139.671377,219.892314 139.692747,219.811403 L139.819933,219.338309 L140.006786,218.67522 L140.188808,218.068281 L140.307405,217.69501 L140.423754,217.346936 C140.442956,217.291029 140.462063,217.236176 140.481073,217.182378 L140.593976,216.872281 L140.634636,216.764686 L140.606438,216.835753 C141.43338,214.785438 142.015288,213.011209 142.353663,211.379886 L142.406465,211.117632 C142.798145,209.110598 142.884113,207.185548 142.417365,205.314539 L142.370654,205.138028 L142.394461,204.898352 C142.40841,204.762278 142.424079,204.619587 142.441467,204.470347 L142.498787,204.003045 L142.566417,203.496854 L142.644352,202.952176 L142.732589,202.369417 L142.831124,201.748983 L142.998226,200.748574 L143.122488,200.03572 L143.318969,198.9474 L143.37228,198.67463 C143.510295,197.952665 143.644304,197.182425 143.774335,196.363744 L143.90304,195.528911 C143.92427,195.38708 143.94539,195.243901 143.9664,195.099374 L144.091139,194.216033 C144.111709,194.066112 144.132169,193.914841 144.152519,193.762221 L144.273304,192.83029 L144.391462,191.86592 L144.506999,190.869075 C144.526037,190.700226 144.544966,190.530022 144.563786,190.358463 L144.675401,189.312837 C144.693787,189.135853 144.712063,188.957512 144.730232,188.777814 L144.837941,187.683325 L144.943053,186.556215 L145.045574,185.396448 L145.145511,184.203987 L145.24287,182.978797 L145.337657,181.720839 C145.353241,181.508447 145.368717,181.294688 145.384087,181.079562 L145.475028,179.772387 L145.563411,178.432354 L145.649244,177.059428 L145.732532,175.653571 L145.813282,174.214747 L145.929662,171.99462 L146.004094,170.47322 L146.076009,168.918726 L146.145413,167.331102 L146.244827,164.887466 L146.338626,162.369082 L146.398051,160.648571 L146.48254,158.005333 L146.561471,155.287019 L146.611014,153.43304 L146.680728,150.589325 L146.765123,146.68039 L146.82203,143.660542 L146.873482,140.565004 L146.9195,137.393653 L146.960106,134.146365 L146.995321,130.823018 L147.025164,127.423489 L147.049658,123.947655 L147.068533,120.429962 L147.1044,118.494609 L147.156387,116.182561 L147.190743,114.89496 L147.214948,114.078247 L147.253182,112.915921 L147.293705,111.829141 L147.336488,110.818194 L147.403337,109.470981 L147.934546,109.37326 L148.411262,109.289953 L149.17313,109.164533 L149.991016,109.038595 L150.864769,108.912179 L151.794239,108.785325 L153.11994,108.615571 L154.178828,108.487845 L155.676539,108.317072 L156.864024,108.188689 L158.106369,108.060089 L159.728591,107.899659 L161.23939,107.756294 L162.728345,107.620699 L164.195448,107.492871 L165.640689,107.372809 L167.064059,107.260509 L168.46555,107.155969 L169.845151,107.059188 L171.202853,106.970162 L172.538647,106.88889 L173.852525,106.815368 L175.144476,106.749596 L176.414492,106.691571 L177.662564,106.641289 L178.888681,106.59875 L180.092836,106.56395 L181.275018,106.536887 C181.470217,106.533021 181.664499,106.529478 181.857866,106.526257 L183.007073,106.510796 L184.134284,106.503066 L185.213836,106.502567 L186.252138,106.506295 L188.288298,106.524888 L189.779953,106.548528 L191.241133,106.580433 L192.198291,106.606274 L193.608532,106.651861 L194.988121,106.705601 L196.336991,106.767452 L197.219137,106.813173 L198.087581,106.862468 L199.36451,106.943086 L200.610495,107.031677 L201.82547,107.128199 L202.618193,107.196933 L203.397083,107.269161 L204.162121,107.344871 L204.913287,107.424051 L206.013983,107.549299 L206.730383,107.637098 L207.432841,107.728324 L208.121338,107.822964 L208.795854,107.921006 L209.456369,108.022437 L210.420846,108.180912 L211.046271,108.290763 L211.657626,108.40396 L212.25489,108.520491 L212.838044,108.640343 C212.934059,108.660595 213.029486,108.680984 213.124323,108.701511 L213.686274,108.826323 L214.234065,108.954425 L214.767676,109.085806 L215.287088,109.220453 L215.792279,109.358353 C215.875292,109.381607 215.957711,109.404996 216.039537,109.42852 L216.523362,109.571278 C216.602811,109.595339 216.681665,109.619536 216.759925,109.643866 L217.222338,109.791453 L217.670453,109.942245 L218.104248,110.096229 L218.523705,110.253393 C218.592418,110.279851 218.660533,110.306441 218.728049,110.333163 L219.12596,110.495073 L219.509483,110.660132 L219.76461,110.774797 L219.609487,110.692327 C228.439645,115.481518 236.237414,115.058592 242.186183,108.605754 C248.943837,101.275488 249.827207,91.2910779 244.748598,81.7828552 L244.471557,81.2732359 L244.338515,81.0633218 C241.582205,76.7144254 238.153743,73.6971454 234.158158,72.1592204 C233.94543,72.0773402 233.726053,71.997831 233.499969,71.9206604 L233.038838,71.7694278 C232.960487,71.7447389 232.881385,71.7203073 232.801532,71.6961321 L232.313372,71.5541459 C232.230502,71.5309908 232.146876,71.5080896 232.062492,71.485441 L231.547065,71.3525718 C231.459638,71.330929 231.371448,71.3095364 231.282493,71.288393 L230.739563,71.1645111 C230.647539,71.144359 230.554746,71.1244536 230.46118,71.1047936 L229.890511,70.9897696 C229.697189,70.9524036 229.500764,70.9160099 229.301217,70.8805788 L228.693192,70.7771638 L228.066333,70.6794668 L227.420533,70.5874305 L226.755687,70.5009971 L226.07169,70.4201092 L225.368436,70.3447091 L224.645821,70.2747394 L223.90374,70.2101423 L223.142086,70.1508604 L222.360755,70.096836 L221.559641,70.0480117 L220.738639,70.0043298 L219.897645,69.9657328 L219.036552,69.9321631 C218.891356,69.9269839 218.745318,69.9220118 218.598436,69.9172455 L218.088836,69.9016159 L217.422163,69.9039026 L216.799318,69.9107627 L216.153856,69.9221962 L215.143233,69.9479216 L214.081668,69.9839372 L212.969126,70.0302429 L211.406386,70.1079909 L209.752887,70.2040327 L208.008553,70.3183682 L206.173306,70.4509976 L204.737164,70.5624749 L202.742635,70.7271185 L201.186942,70.8626066 L199.032895,71.0592646 L197.357475,71.2187636 L193.852506,71.5686326 L191.401585,71.8247462 L188.859155,72.0991539 L186.892233,72.3169651 L183.499458,72.7028517 L180.682037,73.0321419 L177.031134,73.4694809 L173.236616,73.9354048 L170.890907,74.2286799 L166.044092,74.8461018 L160.989865,75.5046862 C160.703308,75.5424176 160.41579,75.5803396 160.12731,75.6184522 L158.333443,75.8365907 L157.042788,75.9879044 L155.79926,76.1286754 L153.831925,76.3398455 L152.353232,76.4876585 L150.9596,76.6166765 L149.970455,76.7010952 L149.029579,76.7749245 L148.137151,76.838157 L147.022924,76.9059703 L146.244245,76.9444482 L145.752365,76.9641998 L145.202018,76.9809534 L145.201984,76.7412476 L145.208328,75.7525407 L145.224427,74.6902326 L145.250306,73.5546351 L145.285989,72.3460595 L145.315237,71.499953 L145.367315,70.1704397 L145.429262,68.7687792 L145.501103,67.295283 L145.582861,65.7502625 L145.674562,64.1340293 L145.824437,61.8313928 L145.919791,60.2855061 L146.009226,58.7664445 L146.092683,57.2740688 L146.170103,55.8082398 L146.241426,54.3688185 L146.306593,52.9556657 L146.365544,51.5686422 L146.418219,50.2076088 L146.46456,48.8724265 L146.504505,47.5629561 L146.537997,46.2790583 L146.564974,45.0205942 L146.585379,43.7874244 L146.59915,42.57941 L146.606229,41.3964116 L146.606557,40.2382903 C146.605534,39.8563805 146.603376,39.4785937 146.600072,39.1049067 L146.586717,37.9961218 C146.583916,37.8133665 146.580825,37.6316303 146.577444,37.4509104 L146.553671,36.3787626 C146.549125,36.2020961 146.544287,36.02644 146.539156,35.8517915 L146.50483,34.8159677 L146.463395,33.804186 C146.455894,33.6375514 146.448093,33.4719129 146.439993,33.3072674 L146.387783,32.3312879 C145.913233,24.1363593 144.652088,18.5092886 142.439779,15.0655244 L142.411888,15.0241012 C140.400802,11.8510173 137.197312,9.12659616 132.705868,6.59944905 L132.039378,6.23100172 C131.588908,5.98627011 131.126134,5.74329945 130.650968,5.50185632 L129.928913,5.14080809 L129.188205,4.78187606 C128.813176,4.60290992 128.431126,4.4246717 128.042019,4.24706292 L127.254383,3.89265543 C127.121538,3.83371767 126.987906,3.77484254 126.853486,3.71602642 L126.037494,3.36380841 L125.622381,3.18817566 C125.34418,3.07123801 125.069783,2.9574928 124.79915,2.84694472 L123.998503,2.52489658 C123.866931,2.47282202 123.73629,2.42154792 123.606574,2.37107486 L122.839356,2.07785369 C120.066673,1.03798968 117.737374,0.386397885 115.798337,0.129322828 C114.193712,-0.083416451 112.767082,-0.0460626316 111.437835,0.334069673 L111.229686,0.396673759 Z"></path>
        </g>
        <path d="M353.174436,157.806467 C356.285822,154.832378 358.813824,153.26272 360.75844,153.097493 C362.703056,152.932265 366.883981,154.006242 373.301215,156.319423 C379.718449,158.302149 383.996604,160.202262 386.135682,162.019761 C388.27476,163.83726 390.899992,167.389644 394.011378,172.676914 C396.150456,176.311912 397.560303,179.368615 398.240919,181.847023 C398.921534,184.325431 399.359073,189.199633 399.553534,196.469629 C400.331381,209.026896 399.407688,217.783936 396.782456,222.740752 C394.157224,227.697568 389.635991,229.34984 383.218758,227.697568 C378.357217,226.706205 375.634754,225.797455 375.051369,224.971319 C374.467985,224.145183 368.536905,221.749389 357.258131,217.783936 C345.979356,213.818484 333.047658,211.835758 318.463036,211.835758 C303.100567,211.835758 283.216866,212.992348 258.811932,215.305529 C234.406997,217.618709 219.968222,219.766663 215.495604,221.749389 C196.632826,230.671657 186.715283,236.454609 185.742975,239.098244 C185.354052,240.420061 183.409436,241.08097 179.909126,241.08097 C176.408817,241.08097 173.783585,240.254834 172.033431,238.602562 C168.533121,235.298018 164.303581,229.680294 159.344809,221.749389 C154.386038,213.818484 151.906652,208.861668 151.906652,206.878942 C151.517729,205.557125 152.441422,202.91349 154.67773,198.948037 C156.914039,194.982585 158.712809,192.504177 160.07404,191.512814 C169.408199,186.886452 177.96451,183.499295 185.742975,181.351342 C193.52144,179.203388 206.939293,176.642367 225.996532,173.668277 C241.553462,171.355097 252.637775,169.537598 259.24947,168.21578 C266.444551,166.893963 278.452556,165.489532 295.273487,164.002487 C312.094418,162.515442 324.685808,161.77192 333.047658,161.77192 C343.159663,161.77192 349.868589,160.450102 353.174436,157.806467 Z" id="一" fill="#000000" fill-rule="nonzero"></path>
    </g>
</svg>