<?xml version="1.0" encoding="UTF-8"?>
<svg width="400px" height="305px" viewBox="0 0 400 305" version="1.1" xmlns="http://www.w3.org/2000/svg" xmlns:xlink="http://www.w3.org/1999/xlink">
    <title>11_s</title>
    <g id="11_s" stroke="none" stroke-width="1" fill="none" fill-rule="evenodd">
        <path d="M111.300358,27.8533409 C112.655711,27.4657431 114.131753,27.4039939 115.864052,27.63366 C117.584135,27.8617064 119.604362,28.3914801 121.98295,29.2333209 L122.498154,29.4184956 L123.017857,29.6108019 L123.985184,29.9822124 L124.989428,30.3845655 L125.817209,30.7276954 L126.235644,30.9047481 L127.256705,31.3469951 L128.25152,31.7930702 L128.833752,32.061769 L129.406243,32.3319215 L130.152531,32.6935997 L130.877467,33.0561006 L131.353217,33.3004899 L131.821389,33.5463632 L132.281284,33.7934154 L132.951051,34.1636907 C137.241178,36.5775656 140.323022,39.1452714 142.370825,42.0623949 L142.602531,42.4005479 L142.860454,42.7952787 C144.78739,45.7948202 146.008875,50.3699759 146.624563,56.833447 L146.724193,57.9600268 L146.812067,59.1239522 L146.887069,60.3045784 L146.951389,61.531979 L147.004556,62.7994076 L147.053548,64.3676785 L147.082233,65.7146707 L147.100059,67.101272 L147.106557,68.2384316 L147.10622,69.3994037 L147.099118,70.5851097 L147.08531,71.7956965 L147.064859,73.0313102 L147.037826,74.2920968 L147.004273,75.5782015 L146.964259,76.8897696 L146.917845,78.2269456 L146.865093,79.5898738 L146.806062,80.9786984 L146.740814,82.3935631 L146.669407,83.8346114 L146.591903,85.3019864 L146.508361,86.7958312 L146.418842,88.3162886 L146.323381,89.8638684 L146.173759,92.1623524 L146.082162,93.7766842 L146.000509,95.3196316 L145.928774,96.7908554 L145.866932,98.19001 L145.814939,99.5172264 L145.785772,100.360816 L145.750176,101.566027 L145.72437,102.697809 L145.708318,103.755749 L145.703,104.465 L146.219568,104.445058 L146.99255,104.406894 L148.101813,104.339407 L148.990465,104.276457 L149.927937,104.202906 L150.913509,104.118805 L152.303499,103.990138 L153.778563,103.842701 L155.743017,103.631849 L156.984568,103.491306 L158.273086,103.340247 L160.061876,103.122752 L165.980909,102.35011 L170.828877,101.732543 L173.175679,101.439132 L176.971665,100.97303 L180.623994,100.535522 L183.442953,100.206055 L186.8372,99.8200029 L188.805501,99.6020409 L191.349619,99.3274539 L193.802842,99.0711052 L197.31009,98.721014 L198.987435,98.5613355 L201.14356,98.3644922 L202.701501,98.2288134 L204.698469,98.0639745 L206.137266,97.9522981 L207.97585,97.8194389 L209.723894,97.704874 L211.381541,97.6086086 L212.948334,97.5306754 L214.064714,97.4842247 L215.13051,97.4480835 L216.145,97.4222746 L216.793811,97.410793 L217.420448,97.4039056 L218.104164,97.4018509 L219.05603,97.4325426 L219.920568,97.4662586 L220.765205,97.5050361 L221.590057,97.5489377 L222.395244,97.598027 L223.180885,97.652368 L223.9471,97.712026 L224.69401,97.7770669 L225.421739,97.8475584 L226.130409,97.9235692 L226.820147,98.0051696 L227.491078,98.0924321 L228.143329,98.1854308 L228.77703,98.2842427 L229.390456,98.3886069 L229.989304,98.4996268 L230.566052,98.6159154 L230.850791,98.6770397 L231.534357,98.8346638 L232.193325,99.002862 L232.453015,99.0740419 L232.947744,99.2179877 L233.194653,99.2943259 L233.661486,99.447467 C233.893636,99.5267078 234.119037,99.6084034 234.337765,99.692593 C238.148434,101.159342 241.462051,103.935091 244.181853,107.915787 L244.470984,108.346897 L244.760836,108.795657 L244.910843,109.03443 L245.189629,109.547288 C250.387263,119.27835 249.431862,129.483785 242.553803,136.944657 C236.723373,143.26913 229.029583,144.07683 220.165837,139.550322 L219.762136,139.340899 L219.545155,139.223005 L219.311823,139.119404 L218.937513,138.958202 L218.348273,138.721606 L217.936988,138.567424 L217.510987,138.416134 L217.07031,138.26778 L216.381862,138.050838 L215.660613,137.840706 L215.16162,137.704455 L214.648141,137.571307 L214.120211,137.44129 L213.577864,137.314429 L212.877795,137.159925 L212.159141,137.011238 L211.566594,136.895604 L210.959774,136.783225 L210.339777,136.674296 L209.380477,136.516644 L208.723934,136.415807 L208.053249,136.318307 L207.368449,136.224161 L206.66956,136.133385 L205.957453,136.046093 L204.860873,135.921296 L204.11288,135.84244 L203.350915,135.767025 L202.575001,135.695064 L201.785873,135.626628 L200.575034,135.530418 L199.333005,135.442092 L198.059245,135.361665 L197.193258,135.312503 L196.314087,135.266928 L194.968659,135.205222 L193.592378,135.151599 L192.184797,135.106092 L191.230218,135.080314 L189.772029,135.048465 L188.283733,135.024867 L186.250342,135.006292 L185.214067,135.002567 L184.137712,135.003055 L183.013799,135.01075 L181.286461,135.036756 L180.10728,135.063741 L178.906018,135.098449 L177.682691,135.140884 L176.437313,135.191049 L175.169898,135.24895 L173.88046,135.314587 L172.569012,135.387967 L171.235568,135.46909 L169.88014,135.557962 L168.502742,135.654584 L167.103386,135.75896 L165.682084,135.871092 L164.238848,135.990984 L162.773691,136.118638 L161.286624,136.254058 L159.777799,136.397231 L158.157851,136.557432 L156.917767,136.685792 L155.733184,136.813853 L154.238705,136.984247 L153.183446,137.111521 L151.861852,137.280732 L150.936364,137.407027 L150.067109,137.532771 L149.254348,137.657892 L148.497334,137.782489 L147.883,137.891 L147.836041,138.839334 L147.793358,139.847772 L147.752912,140.93236 L147.714728,142.093059 L147.690566,142.908296 L147.656261,144.193801 L147.604314,146.503873 L147.568526,148.432645 L147.549645,151.951178 L147.525145,155.427878 L147.495293,158.828316 L147.460067,162.152617 L147.419448,165.400907 L147.373413,168.573314 L147.321941,171.669963 L147.265007,174.691183 L147.180578,178.601579 L147.110836,181.446396 L147.061261,183.301531 L146.982285,186.021307 L146.897753,188.66583 L146.83828,190.387692 L146.744413,192.907791 L146.644936,195.352939 L146.575474,196.941833 L146.503496,198.497652 L146.428976,200.020794 L146.312497,202.242764 L146.231657,203.683141 L146.148269,205.090626 L146.062327,206.465261 L145.973822,207.807088 L145.836243,209.758408 L145.741299,211.018404 L145.643765,212.245745 L145.543632,213.440476 L145.440893,214.602643 L145.335537,215.732294 L145.172577,217.365908 L145.003674,218.926641 L144.887751,219.926727 L144.769157,220.894556 L144.586227,222.285945 L144.461124,223.171818 L144.397202,223.605096 L144.268145,224.442176 C144.202741,224.853965 144.136319,225.253674 144.068759,225.641943 L143.966551,226.215847 L143.811015,227.036232 L143.61506,228.121583 L143.491394,228.830949 L143.324935,229.827408 L143.226954,230.444271 L143.139311,231.022997 L143.062013,231.563068 L142.995067,232.06392 L142.913876,232.742115 L142.877,233.097 L142.902497,233.193516 C143.270006,234.666712 143.325753,236.216244 143.105338,237.93469 L143.044501,238.367874 L142.972281,238.808417 L142.896629,239.216321 L142.843242,239.481436 C142.560054,240.846701 142.106993,242.328733 141.455315,244.040955 L141.272638,244.513717 L141.061693,245.049031 L140.952881,245.347899 L140.783931,245.846413 L140.667734,246.211911 L140.488043,246.810834 L140.302788,247.46812 L140.112844,248.180911 L139.983522,248.687383 L139.852306,249.217912 L139.651214,250.062031 L139.514978,250.654273 L139.306698,251.590053 L139.165764,252.243221 L138.950835,253.269083 L138.731946,254.349339 L138.584102,255.098486 L138.359193,256.267321 L138.130734,257.48951 L137.976687,258.332899 L137.742883,259.641843 L137.426205,261.468812 L137.185325,262.899006 L136.941601,264.380877 L136.762133,265.482171 L136.744184,265.696007 C136.369308,269.878227 135.334732,272.972242 133.41637,275.200769 L133.199571,275.444832 L132.953993,275.703187 L132.76549,275.889801 C130.675824,277.904676 128.124014,278.665251 124.644512,278.469667 L124.268137,278.445066 L123.906322,278.415219 L123.740475,278.399112 L123.346485,278.336747 C118.474306,277.481495 114.636397,273.316519 112.043257,266.398378 C110.116444,261.257909 108.773213,254.383921 107.942332,245.531404 L107.870347,244.745159 L107.786159,243.770153 L106.882125,226.244837 L105.387488,195.995306 L105.050959,188.741252 L104.866918,184.52575 L104.701578,180.444584 L104.584881,177.225917 L104.522157,175.243432 L104.469579,173.245325 L104.447021,172.137317 L104.43043,170.949552 L104.425705,170.241436 L104.42566,169.699048 L104.432759,168.940915 L104.442427,168.495556 L104.4565,168.094128 L104.456578,151.100314 L104.349,145.043 L103.550354,145.198027 L101.851267,145.50956 L99.6080571,145.901755 L96.6959486,146.389011 L94.6835595,146.715483 L91.2061838,147.266036 L89.8333476,147.487578 L88.94217,147.635891 L87.6395773,147.859569 L86.3790065,148.084489 L85.1605914,148.310584 L83.9838105,148.537914 L83.2232633,148.689968 L82.482334,148.842307 L81.4054426,149.0718 L80.3713251,149.302149 L79.3792401,149.533492 L78.7423285,149.687983 L78.1246143,149.842756 L77.5272051,149.997498 L76.6646596,150.230734 L76.1145547,150.386263 L75.5852001,150.541534 L74.5811733,150.853545 L74.1092461,151.009399 L73.6570408,151.165219 L73.2232653,151.321463 L72.2781425,151.674886 L71.5676361,151.936207 L70.8791427,152.184623 L70.2123905,152.42015 L69.5671043,152.642802 L68.9430051,152.852597 L68.3398091,153.049549 L67.6167251,153.277105 L66.921359,153.485831 L66.1301801,153.70919 L65.382618,153.903771 L64.7955164,154.043198 L64.2305104,154.1641 L63.8043159,154.245308 L63.3899792,154.314622 L63.0019346,154.36976 L62.6887561,154.409154 L62.5361924,154.434293 L62.2633564,154.48814 L61.944165,154.560629 L61.7125021,154.617684 L61.0384055,154.798691 L60.5814942,154.930434 L59.9079342,155.134212 L59.3580292,155.307189 L58.564324,155.565129 L57.4763366,155.931355 L56.5321861,156.25869 L55.5238334,156.616351 L54.1734101,157.106375 L51.8631636,157.960466 C46.4496723,159.934967 40.9929425,161.596235 35.5146924,162.938014 C30.0069705,164.316726 25.151023,164.591194 20.8892666,163.739611 C16.788169,162.920132 12.6123735,160.826059 8.34126604,157.473032 L7.86630527,157.095294 L7.43304955,156.741128 L7.26047154,156.605476 C2.49351026,152.788055 -0.139280183,148.263753 -0.465684259,142.89088 L-0.486240276,142.475906 L-0.497467541,142.062387 L-0.5,141.750968 C-0.5,137.273885 0.489339634,133.889711 2.72291828,131.46687 C3.44516979,130.683418 4.33441184,129.978425 5.49474166,129.263361 L5.85107734,129.048452 L6.21376273,128.838484 L6.69224281,128.572766 L7.19571922,128.304687 L7.72382542,128.033831 L8.28180057,127.757005 L8.86715123,127.474898 L10.0262079,126.93369 L10.9638995,126.51276 L11.7354041,126.178393 L12.5239866,125.846925 L13.5338447,125.436527 L14.5759846,125.028318 L15.4290593,124.704845 L16.7433214,124.223825 L17.6421344,123.906079 L18.3287863,123.669073 L19.0263405,123.433135 L19.9720146,123.120658 L21.4253777,122.655958 L22.4175515,122.348809 L23.9407616,121.892019 L24.9795645,121.590091 L26.0370546,121.290223 L27.1132521,120.992398 L28.2081767,120.696601 L29.3218485,120.402817 L30.4542869,120.11103 L31.6055114,119.821224 L32.7755415,119.533385 L33.9650014,119.247356 L35.7835959,118.822163 L37.6440996,118.401399 L38.9089857,118.123055 L40.8603204,117.705099 C52.0419184,115.348443 62.7988579,113.739457 73.1213775,112.880058 L74.5930668,112.762387 L76.559047,112.61728 L77.5538425,112.538559 L78.5279743,112.456241 L79.9534332,112.325783 L80.87821,112.234334 L81.7828943,112.139293 L82.6674464,112.040681 L83.5318257,111.938518 L84.375991,111.832827 L85.1999003,111.723628 L86.0035105,111.610945 L86.7867777,111.494801 L87.5496567,111.37522 L88.2909419,111.252432 L89.367348,111.061399 L90.0584936,110.929995 L90.7290304,110.795277 L91.3789047,110.657277 L92.0080602,110.516031 L92.6164387,110.371573 L93.203979,110.223946 L93.7722781,110.072727 L94.5858488,109.846305 C98.2226251,108.846468 101.456574,108.224892 104.325976,107.979674 L104.895007,107.935648 L105.216,107.916 L105.024147,103.22881 L104.928711,101.944176 L104.823411,100.408894 L104.7564,99.3545133 L104.691955,98.2756975 L104.63005,97.1720044 L104.542027,95.471228 L104.459767,93.7156884 L104.408087,92.514047 L104.335366,90.6661048 L104.268374,88.7631808 L104.226877,87.46359 L104.187908,86.1390841 L104.134222,84.1068604 L104.101581,82.7207535 L104.057364,80.5957301 L104.018825,78.4153615 L103.976244,75.4212992 L103.958724,73.8871325 L103.943713,72.3279748 L103.9259,69.9430716 L103.913722,67.5023259 L103.90717,65.0055993 L103.906594,62.0732903 L103.916649,58.5351627 L103.934285,55.7827911 L103.954478,53.7088804 L103.973198,52.2272484 L104.011198,49.9002825 L104.047755,48.1657657 L104.078787,46.93851 L104.11294,45.7739934 L104.163305,44.3200745 L104.208747,43.2113779 L104.256856,42.1977232 L104.309169,41.2447032 L104.354077,40.5276251 L104.426931,39.5243917 L104.506798,38.6058569 L104.563996,38.041048 L104.593763,37.7731519 C104.707053,36.7849206 104.83872,35.96968 105.00955,35.2251508 C105.298737,33.9647846 105.631464,33.0195413 106.135269,32.144744 L106.29167,31.8841735 L106.491,31.582 L106.564545,31.4622175 C107.497134,29.9889697 108.723938,28.9183523 110.183176,28.2615923 L110.478104,28.1357617 L110.779121,28.0209872 L111.085676,27.9178616 L111.300358,27.8533409 Z M360.716109,152.599288 C361.214738,152.556921 361.842826,152.589383 362.601721,152.696634 L363.072766,152.769959 L363.575269,152.861231 C363.661645,152.877938 363.749334,152.895394 363.838338,152.913597 L364.38815,153.031787 L364.969582,153.167919 L365.582699,153.321992 C365.68753,153.349166 365.793683,153.377088 365.90116,153.405756 L366.561926,153.586737 C366.674705,153.618395 366.788812,153.650801 366.904247,153.683954 L367.612806,153.891838 L368.35331,154.117655 L369.125821,154.361404 L369.930406,154.623082 L370.767128,154.902687 L372.082611,155.355705 L373.448815,155.841705 L374.538227,156.184035 C375.072409,156.354818 375.59081,156.525033 376.093446,156.694698 L377.077703,157.033302 C381.572854,158.610085 384.695649,160.140103 386.459432,161.638728 C387.281418,162.33714 388.168289,163.278557 389.121247,164.463674 L389.603238,165.076545 C389.765741,165.287606 389.930085,165.505441 390.096277,165.730051 L390.600396,166.424213 C390.685342,166.543296 390.77075,166.664073 390.856622,166.786546 L391.377426,167.541728 C391.640616,167.929493 391.907993,168.332522 392.179575,168.750827 L392.728352,169.607804 L393.288376,170.505535 C393.382653,170.658554 393.4774,170.813271 393.572617,170.969688 L394.149575,171.928583 C394.246678,172.091799 394.344254,172.256714 394.442301,172.42333 C396.601851,176.093116 398.029075,179.187494 398.723068,181.714616 L398.776003,181.913884 L398.878864,182.340509 C398.895674,182.414735 398.912317,182.490521 398.928792,182.567869 L399.025647,183.050694 L399.118507,183.571001 L399.20738,184.128805 L399.292273,184.724118 L399.373193,185.356953 L399.450148,186.027324 L399.523147,186.735243 L399.592195,187.480725 L399.6573,188.263782 L399.718471,189.084426 L399.775714,189.942673 L399.829037,190.838533 L399.878448,191.772022 L399.945244,193.242836 L400.003279,194.798386 L400.037114,195.882517 C400.04243,196.066346 400.047585,196.251746 400.052578,196.438717 L400.129917,197.778655 L400.194123,199.089465 L400.245186,200.371154 L400.283097,201.623732 C400.288319,201.83007 400.292993,202.035195 400.297118,202.239108 L400.315285,203.448035 C400.320375,203.846162 400.320375,204.239441 400.320375,204.627873 L400.312089,205.77863 C400.309625,205.968 400.306611,206.156158 400.303048,206.343106 L400.275067,207.450257 C400.269303,207.632361 400.262989,207.813254 400.256125,207.992936 L400.208334,209.056502 C400.190201,209.406182 400.169864,209.751022 400.147324,210.091021 L400.073086,211.096504 C399.65534,216.216496 398.707592,220.174123 397.224312,222.974768 C394.483972,228.148925 389.723417,229.888657 383.118854,228.187485 L382.301946,228.017568 L381.52692,227.849438 L380.442427,227.60021 L379.45093,227.354019 L378.841231,227.191288 C378.644807,227.137206 378.45518,227.083276 378.272313,227.029469 L377.743958,226.868389 C377.659267,226.841594 377.576256,226.814823 377.494922,226.788071 L377.026998,226.62777 C375.832646,226.200781 375.065093,225.777004 374.705572,225.341529 L374.642939,225.259737 C374.620585,225.228081 374.586325,225.192661 374.540226,225.15351 L374.432259,225.070246 C374.41164,225.055544 374.38971,225.040429 374.366473,225.024904 L374.211366,224.926837 L374.024978,224.818978 L373.687001,224.638969 L373.279302,224.437279 L372.968962,224.290878 L372.256314,223.969698 L371.194269,223.515655 L370.208786,223.110973 L369.103566,222.669987 L367.555085,222.068461 L365.822807,221.411959 L363.504034,220.552957 L360.926386,219.61787 L358.093023,218.608375 L357.092289,218.255632 C345.869739,214.309947 332.99372,212.335758 318.463036,212.335758 L316.886975,212.339742 L315.279722,212.351694 L313.641277,212.371615 L311.971641,212.399504 L310.270815,212.435362 L308.538799,212.479189 L306.775593,212.530984 L304.981199,212.590748 L303.155617,212.658481 L301.298847,212.734183 L299.41089,212.817855 L297.491747,212.909495 L294.55456,213.061898 L292.557454,213.173461 L290.529164,213.292994 L288.469691,213.420497 L286.379035,213.555969 L284.257196,213.699411 L282.104175,213.850823 L278.816181,214.092884 L275.45803,214.352878 L272.029727,214.630804 L268.531272,214.926664 L266.159996,215.133866 L262.544627,215.459615 L260.095411,215.686744 L255.986692,216.079292 L253.209414,216.353733 L249.222,216.762452 L246.682801,217.032944 L243.642855,217.368799 L241.318202,217.635653 L238.546601,217.96691 L235.417661,218.360988 L232.97448,218.686491 L231.127528,218.944976 L229.376271,219.20174 L227.72076,219.456768 L226.541991,219.64689 L225.054159,219.89884 L224.001208,220.086636 L223.002215,220.273424 L221.754198,220.520895 L221.166192,220.643949 L220.329204,220.827674 L219.546262,221.010364 L219.054336,221.13158 L218.361517,221.312531 L217.929693,221.432581 L217.327058,221.611776 L216.955376,221.730649 C216.895435,221.750421 216.836496,221.770174 216.778561,221.789907 L216.284225,221.966969 L215.984768,222.084413 C215.888963,222.12348 215.797173,222.162468 215.709398,222.201376 L213.447811,223.276706 L211.809846,224.062954 L210.221866,224.831767 L208.18243,225.829617 L205.758517,227.032933 L203.919889,227.960191 L202.170774,228.855816 L200.511335,229.719644 L198.941734,230.551517 L197.823589,231.154354 L196.411598,231.929918 L195.411848,232.490338 L194.462952,233.032467 L193.276985,233.726735 L192.447018,234.225921 L191.668137,234.706589 L190.940408,235.168673 L190.483708,235.46637 L190.049794,235.755757 L189.638685,236.036813 L189.064829,236.442735 L188.710825,236.702878 L188.379698,236.95462 L188.07147,237.197942 L187.786159,237.432824 L187.523787,237.659244 L187.284373,237.877184 L187.067939,238.086623 L186.874504,238.28754 C186.844183,238.320315 186.814821,238.352735 186.786418,238.384797 L186.627521,238.572896 C186.431021,238.817985 186.295989,239.040217 186.222643,239.239378 C185.746779,240.856678 183.615669,241.58097 179.909126,241.58097 C176.291349,241.58097 173.544221,240.716474 171.69019,238.966136 C169.96677,237.339103 168.073694,235.164203 166.009544,232.440557 L165.352019,231.562216 C165.241483,231.412786 165.130473,231.261835 165.018988,231.109363 L164.344385,230.176289 C164.231001,230.017735 164.117143,229.857661 164.002809,229.696065 L163.311105,228.708243 C163.078635,228.372885 162.844263,228.031442 162.607987,227.683914 L161.893447,226.623074 L161.167474,225.525714 C161.045525,225.339777 160.923099,225.152319 160.800196,224.963338 L160.057055,223.811189 L159.302456,222.622507 L158.644423,221.571318 L157.590737,219.861386 L156.855085,218.644518 L156.390633,217.864391 L155.946953,217.109091 L155.320354,216.022563 L154.928552,215.329074 L154.55748,214.660205 L154.039713,213.70294 L153.720413,213.095369 L153.4218,212.512215 L153.143863,211.953418 L152.886589,211.418921 L152.649966,210.908663 L152.433983,210.422588 L152.238627,209.960636 L152.063886,209.522749 L151.909748,209.108867 L151.776201,208.718933 C151.694031,208.466947 151.62558,208.230886 151.570832,208.010673 L151.498985,207.69223 C151.457936,207.487845 151.430582,207.299268 151.416907,207.126423 L151.408,206.949 L151.390598,206.879985 C151.130231,205.732255 151.607021,203.935929 152.804759,201.437235 L153.119204,200.797898 C153.229019,200.579887 153.343832,200.356968 153.463632,200.129109 L153.837987,199.430681 L154.242212,198.702428 L154.705668,197.890992 L155.156799,197.122333 C155.230974,196.99778 155.304645,196.875003 155.377817,196.754 L155.810902,196.049236 L156.232252,195.38689 C157.617451,193.249606 158.810965,191.81689 159.851998,191.064821 C168.890305,186.585095 177.205551,183.262272 184.799058,181.096949 L185.973966,180.769656 L187.11419,180.466993 L188.326397,180.159094 L189.17453,179.950917 L190.506727,179.634284 L191.910929,179.312408 L192.887072,179.09491 L194.935385,178.652917 L197.111755,178.20159 L198.828081,177.856966 L201.848742,177.270911 L204.409401,176.791548 L206.413984,176.425887 L208.490653,176.054959 L210.639416,175.678764 L213.616595,175.168973 L216.721977,174.649806 L220.784023,173.987657 L225.046458,173.310839 C225.337301,173.265229 225.62948,173.219521 225.922995,173.173715 L233.566968,172.022028 L239.764718,171.06108 L244.138659,170.363166 L248.659067,169.618566 L251.714535,169.097225 L254.041535,168.687069 L256.570884,168.224031 L258.097702,167.933006 L259.159127,167.72401 L260.277321,167.524603 L261.467617,167.323986 L263.166846,167.054613 L264.525403,166.851168 L265.471175,166.714864 L267.458889,166.440634 L269.033831,166.233542 L271.245975,165.955523 L274.19153,165.604948 L276.055075,165.392973 L279.321357,165.036961 L282.078736,164.749698 L284.230985,164.532818 L287.978497,164.168618 L291.926572,163.800996 L296.111569,163.426788 L299.561905,163.129963 L302.06764,162.92177 L304.503081,162.725943 L307.640997,162.484077 L311.387686,162.212659 L314.939168,161.975593 L316.976367,161.849844 L319.583337,161.701416 L322.06541,161.574975 L323.845008,161.494575 L325.554363,161.426542 L327.193479,161.370879 L328.762361,161.327585 L330.261015,161.29666 L331.221105,161.282916 L332.602722,161.272607 L333.047658,161.27192 C333.432518,161.27192 333.812364,161.269992 334.187191,161.266139 L335.296613,161.248817 C335.479006,161.24497 335.660143,161.240643 335.840024,161.235837 L336.904235,161.201256 L337.938277,161.155205 L338.942126,161.097712 C339.106917,161.087178 339.270449,161.076169 339.432721,161.064684 L340.391238,160.990083 L341.319504,160.904112 C346.7983,160.354233 350.642306,159.191926 352.828948,157.445029 C356.016045,154.39857 358.628143,152.776695 360.716109,152.599288 Z" id="Combined-Shape" fill="#000000" fill-rule="nonzero"></path>
    </g>
</svg>