<?xml version="1.0" encoding="UTF-8"?>
<svg width="400px" height="305px" viewBox="0 0 400 305" version="1.1" xmlns="http://www.w3.org/2000/svg" xmlns:xlink="http://www.w3.org/1999/xlink">
    <title>12_s</title>
    <g id="12_s" stroke="none" stroke-width="1" fill="none" fill-rule="evenodd">
        <path d="M368.156716,200.5 C370.02243,200.5 372.422988,201.30924 375.379745,202.915094 C378.374101,204.541368 380.147718,206.192697 380.641283,207.830633 C381.557882,209.572992 382.931411,210.940626 384.765082,211.936599 C388.702004,213.989265 391.107499,219.945658 392.072481,229.788284 L392.170364,230.857721 C392.201157,231.219156 392.230117,231.585548 392.257248,231.956895 L392.326634,232.793181 L392.38442,233.587339 L392.430573,234.339485 L392.465058,235.049733 L392.487841,235.718199 L392.500793,236.344999 C392.500793,236.749002 392.497932,237.125304 392.485638,237.474059 L392.461272,237.97655 C392.420876,238.619042 392.348821,239.151651 392.24474,239.575608 C391.909043,240.94302 391.086065,242.686203 389.776887,244.8193 C384.157878,253.974575 377.975092,255.471983 371.568796,249.217 L371.121487,248.768027 C370.897655,248.53725 370.673561,248.297036 370.449219,248.047382 C367.956541,245.508994 364.598637,243.854921 360.350011,243.085638 L359.998442,243.015915 L359.269445,242.88248 C359.145072,242.86091 359.019263,242.839673 358.892018,242.81877 L358.111314,242.697365 C357.845335,242.658234 357.573613,242.62044 357.296148,242.583984 L356.44653,242.478628 C356.302056,242.461737 356.156147,242.445182 356.008803,242.428961 L355.107518,242.335649 L354.1718,242.250371 C354.012978,242.236827 353.852721,242.223619 353.691031,242.210745 L352.703676,242.137522 C352.536249,242.125988 352.367388,242.114789 352.197093,242.103925 L351.158119,242.042763 L350.084743,241.989646 L348.976972,241.944575 L347.834813,241.907555 L346.658275,241.878588 L345.447365,241.857677 L344.202092,241.844824 L342.269766,241.840662 L340.938617,241.847968 L339.573131,241.863343 L338.173316,241.886789 L336.739181,241.91831 L335.07581,241.962781 L333.450487,242.01375 L331.86323,242.071214 L330.314054,242.135168 L328.802978,242.205609 L327.330018,242.282531 L325.895192,242.365933 L324.498516,242.455809 L323.140008,242.552155 L321.819685,242.654969 C321.602814,242.672643 321.387535,242.690587 321.173848,242.708799 L319.910835,242.821305 C319.703518,242.840594 319.497794,242.860153 319.293663,242.87998 L318.087997,243.00217 C317.692483,243.043975 317.303345,243.086855 316.920585,243.13081 L315.791444,243.265898 C315.606444,243.28895 315.42304,243.31227 315.241231,243.335859 L314.169528,243.48061 L313.136138,243.631798 C312.9671,243.657532 312.799659,243.683534 312.633816,243.709804 L311.657929,243.870641 L307.511666,244.712668 L303.467872,245.544646 L299.526554,246.366573 L294.74402,247.379843 L290.121626,248.3774 L285.659381,249.359238 L283.058911,249.940794 L278.852931,250.897473 L276.406229,251.46393 L273.233665,252.210395 L270.163627,252.946788 L267.928385,253.492472 L265.75082,254.032488 L263.630934,254.566834 L261.56873,255.095511 L260.225974,255.444812 L257.617377,256.13585 L255.11134,256.816803 L253.299119,257.320898 L251.544594,257.819318 L250.406965,258.148444 L248.748605,258.637401 L247.147947,259.120681 L246.112899,259.439712 L244.608416,259.913526 L243.161642,260.381659 L242.229188,260.69059 L241.322384,260.996996 L240.441231,261.300877 L239.167599,261.75196 L226.955547,266.217267 C222.000748,268.040214 217.246122,270.188514 212.691482,272.662199 C211.740491,273.178695 210.873271,273.680291 210.089729,274.166747 L209.438611,274.579996 C206.916093,276.218115 205.376897,277.67746 204.817249,278.948367 C201.896722,283.986813 196.889199,283.635133 190.100072,278.104236 C183.4203,272.662426 179.580349,266.073045 178.598247,258.335857 C178.267774,254.566687 178.769162,251.707427 180.132042,249.764407 C181.475138,247.849592 184.263532,245.845221 188.541367,243.702288 C191.944939,242.315894 195.66792,240.465228 199.708261,238.150847 L200.469543,237.711466 L201.240519,237.259896 C205.656826,234.65457 209.716489,232.57503 213.400465,231.030202 L214.046674,230.763138 L228.275579,224.083574 C233.936885,221.711639 239.521039,220.195225 245.027362,219.535543 C250.159382,218.920705 254.682043,218.074264 258.594606,216.997066 L259.278726,216.804577 C259.846894,216.641211 260.443998,216.479149 261.070047,216.318385 L262.030831,216.078211 C262.35833,215.998478 262.693067,215.919068 263.035043,215.839981 L264.082691,215.603691 L265.173782,215.369335 C265.544721,215.291539 265.922902,215.214065 266.308327,215.136911 L267.486333,214.906414 C267.886246,214.829903 268.293404,214.753712 268.707808,214.67784 L269.972762,214.451186 C270.187211,214.41357 270.403473,214.376033 270.621546,214.338577 L271.951733,214.114793 L273.325419,213.892919 L274.742614,213.67295 L276.203324,213.454881 C283.33522,212.410362 289.70403,211.235612 295.271649,209.941243 C296.225665,209.638995 297.222989,209.343882 298.263626,209.055901 L299.318701,208.770296 L300.402653,208.489444 C300.585718,208.443032 300.769987,208.396817 300.955458,208.3508 L302.082728,208.077077 C302.273013,208.031853 302.464501,207.986826 302.657192,207.941997 L303.827782,207.6754 C304.025287,207.631363 304.223996,207.587524 304.423908,207.543883 L305.637821,207.284411 L306.880618,207.029687 L308.1523,206.779711 L309.452868,206.534482 L310.782324,206.293999 L312.140669,206.058262 L313.527904,205.827269 C313.761518,205.789165 313.996335,205.751259 314.232356,205.713551 L315.662929,205.489673 L317.122396,205.270537 C317.368048,205.23441 317.614904,205.19848 317.862965,205.162748 L319.365774,204.950724 L320.897479,204.743441 L322.458083,204.540897 L324.853175,204.245965 L326.486029,204.055266 L328.147786,203.869304 L329.838446,203.688077 L331.558012,203.511585 L333.306484,203.339826 L335.083863,203.172801 L336.890151,203.010509 L338.72535,202.852948 L341.532356,202.625476 L343.439836,202.479739 L345.37623,202.338732 L347.34154,202.202452 L349.335767,202.070899 L357.572115,201.468304 L362.620495,201.066403 L365.035664,200.853373 L366.463737,200.712347 L367.373525,200.608712 L367.818643,200.548493 L367.992728,200.521051 L368.067645,200.507998 L368.156716,200.5 Z M111.300358,-0.146659098 C112.655711,-0.534256856 114.131753,-0.596006052 115.864052,-0.366339985 C117.584135,-0.138293558 119.604362,0.391480084 121.98295,1.23332088 L122.498154,1.41849564 L123.017857,1.61080194 L123.985184,1.98221238 L124.989428,2.38456553 L125.817209,2.72769535 L126.235644,2.9047481 L127.256705,3.34699511 L128.25152,3.79307024 L128.833752,4.06176896 L129.406243,4.33192146 L130.152531,4.69359974 L130.877467,5.05610059 L131.353217,5.3004899 L131.821389,5.54636319 L132.281284,5.79341544 L132.951051,6.16369072 C137.241178,8.57756561 140.323022,11.1452714 142.370825,14.0623949 L142.602531,14.4005479 L142.860454,14.7952787 C144.78739,17.7948202 146.008875,22.3699759 146.624563,28.833447 L146.724193,29.9600268 L146.812067,31.1239522 L146.887069,32.3045784 L146.951389,33.531979 L147.004556,34.7994076 L147.053548,36.3676785 L147.082233,37.7146707 L147.100059,39.101272 L147.106557,40.2384316 L147.10622,41.3994037 L147.099118,42.5851097 L147.08531,43.7956965 L147.064859,45.0313102 L147.037826,46.2920968 L147.004273,47.5782015 L146.964259,48.8897696 L146.917845,50.2269456 L146.865093,51.5898738 L146.806062,52.9786984 L146.740814,54.3935631 L146.669407,55.8346114 L146.591903,57.3019864 L146.508361,58.7958312 L146.418842,60.3162886 L146.323381,61.8638684 L146.173759,64.1623524 L146.082162,65.7766842 L146.000509,67.3196316 L145.928774,68.7908554 L145.866932,70.19001 L145.814939,71.5172264 L145.785772,72.3608156 L145.750176,73.5660266 L145.72437,74.6978092 L145.708318,75.7557486 L145.703,76.465 L146.219568,76.4450576 L146.99255,76.4068938 L148.101813,76.3394074 L148.990465,76.2764568 L149.927937,76.2029063 L150.913509,76.1188054 L152.303499,75.990138 L153.778563,75.8427012 L155.743017,75.6318486 L156.984568,75.4913056 L158.273086,75.340247 L160.061876,75.1227524 L165.980909,74.35011 L170.828877,73.7325426 L173.175679,73.439132 L176.971665,72.9730302 L180.623994,72.5355223 L183.442953,72.2060547 L186.8372,71.8200029 L188.805501,71.6020409 L191.349619,71.3274539 L193.802842,71.0711052 L197.31009,70.721014 L198.987435,70.5613355 L201.14356,70.3644922 L202.701501,70.2288134 L204.698469,70.0639745 L206.137266,69.9522981 L207.97585,69.8194389 L209.723894,69.704874 L211.381541,69.6086086 L212.948334,69.5306754 L214.064714,69.4842247 L215.13051,69.4480835 L216.145,69.4222746 L216.793811,69.410793 L217.420448,69.4039056 L218.104164,69.4018509 L219.05603,69.4325426 L219.920568,69.4662586 L220.765205,69.5050361 L221.590057,69.5489377 L222.395244,69.598027 L223.180885,69.652368 L223.9471,69.712026 L224.69401,69.7770669 L225.421739,69.8475584 L226.130409,69.9235692 L226.820147,70.0051696 L227.491078,70.0924321 L228.143329,70.1854308 L228.77703,70.2842427 L229.390456,70.3886069 L229.989304,70.4996268 L230.566052,70.6159154 L230.850791,70.6770397 L231.534357,70.8346638 L232.193325,71.002862 L232.453015,71.0740419 L232.947744,71.2179877 L233.194653,71.2943259 L233.661486,71.447467 C233.893636,71.5267078 234.119037,71.6084034 234.337765,71.692593 C238.148434,73.1593425 241.462051,75.9350907 244.181853,79.9157874 L244.470984,80.3468966 L244.760836,80.7956566 L244.910843,81.0344299 L245.189629,81.5472882 C250.387263,91.2783496 249.431862,101.483785 242.553803,108.944657 C236.634713,115.365302 228.797409,116.098776 219.770139,111.345123 L219.544,111.224 L219.311823,111.119404 L218.937513,110.958202 L218.348273,110.721606 L217.936988,110.567424 L217.510987,110.416134 L217.07031,110.26778 L216.381862,110.050838 L215.660613,109.840706 L215.16162,109.704455 L214.648141,109.571307 L214.120211,109.44129 L213.577864,109.314429 L212.877795,109.159925 L212.159141,109.011238 L211.566594,108.895604 L210.959774,108.783225 L210.339777,108.674296 L209.380477,108.516644 L208.723934,108.415807 L208.053249,108.318307 L207.368449,108.224161 L206.66956,108.133385 L205.957453,108.046093 L204.860873,107.921296 L204.11288,107.84244 L203.350915,107.767025 L202.575001,107.695064 L201.785873,107.626628 L200.575034,107.530418 L199.333005,107.442092 L198.059245,107.361665 L197.193258,107.312503 L196.314087,107.266928 L194.968659,107.205222 L193.592378,107.151599 L192.184797,107.106092 L191.230218,107.080314 L189.772029,107.048465 L188.283733,107.024867 L186.250342,107.006292 L185.214067,107.002567 L184.137712,107.003055 L183.013799,107.01075 L181.286461,107.036756 L180.10728,107.063741 L178.906018,107.098449 L177.682691,107.140884 L176.437313,107.191049 L175.169898,107.24895 L173.88046,107.314587 L172.569012,107.387967 L171.235568,107.46909 L169.88014,107.557962 L168.502742,107.654584 L167.103386,107.75896 L165.682084,107.871092 L164.238848,107.990984 L162.773691,108.118638 L161.286624,108.254058 L159.777799,108.397231 L158.157851,108.557432 L156.917767,108.685792 L155.733184,108.813853 L154.238705,108.984247 L153.183446,109.111521 L151.861852,109.280732 L150.936364,109.407027 L150.067109,109.532771 L149.254348,109.657892 L148.497334,109.782489 L147.883,109.891 L147.836041,110.839334 L147.793358,111.847772 L147.752912,112.93236 L147.714728,114.093059 L147.690566,114.908296 L147.656261,116.193801 L147.604314,118.503873 L147.568526,120.432645 L147.549645,123.951178 L147.525145,127.427878 L147.495293,130.828316 L147.460067,134.152617 L147.419448,137.400907 L147.373413,140.573314 L147.321941,143.669963 L147.265007,146.691183 L147.180578,150.601579 L147.110836,153.446396 L147.061261,155.301531 L146.982285,158.021307 L146.897753,160.66583 L146.83828,162.387692 L146.744413,164.907791 L146.644936,167.352939 L146.575474,168.941833 L146.503496,170.497652 L146.428976,172.020794 L146.312497,174.242764 L146.231657,175.683141 L146.148269,177.090626 L146.062327,178.465261 L145.973822,179.807088 L145.836243,181.758408 L145.741299,183.018404 L145.643765,184.245745 L145.543632,185.440476 L145.440893,186.602643 L145.335537,187.732294 L145.172577,189.365908 L145.003674,190.926641 L144.887751,191.926727 L144.769157,192.894556 L144.586227,194.285945 L144.461124,195.171818 L144.397202,195.605096 L144.268145,196.442176 C144.202741,196.853965 144.136319,197.253674 144.068759,197.641943 L143.966551,198.215847 L143.811015,199.036232 L143.61506,200.121583 L143.491394,200.830949 L143.324935,201.827408 L143.226954,202.444271 L143.139311,203.022997 L143.062013,203.563068 L142.995067,204.06392 L142.913876,204.742115 L142.877,205.097 L142.902497,205.193516 C143.270006,206.666712 143.325753,208.216244 143.105338,209.93469 L143.044501,210.367874 L142.972281,210.808417 L142.896629,211.216321 L142.843242,211.481436 C142.560054,212.846701 142.106993,214.328733 141.455315,216.040955 L141.272638,216.513717 L141.063804,217.04334 L140.952881,217.347899 L140.783931,217.846413 L140.667734,218.211911 L140.488043,218.810834 L140.302788,219.46812 L140.112844,220.180911 L139.983522,220.687383 L139.852306,221.217912 L139.651214,222.062031 L139.514978,222.654273 L139.306698,223.590053 L139.165764,224.243221 L138.950835,225.269083 L138.731946,226.349339 L138.584102,227.098486 L138.359193,228.267321 L138.130734,229.48951 L137.976687,230.332899 L137.742883,231.641843 L137.426205,233.468812 L137.185325,234.899006 L136.941601,236.380877 L136.762133,237.482171 L136.744184,237.696007 C136.369308,241.878227 135.334732,244.972242 133.41637,247.200769 L133.199571,247.444832 L132.953993,247.703187 L132.76549,247.889801 C130.675824,249.904676 128.124014,250.665251 124.644512,250.469667 L124.268137,250.445066 L123.906322,250.415219 L123.740475,250.399112 L123.346485,250.336747 C118.474306,249.481495 114.636397,245.316519 112.043257,238.398378 C110.116444,233.257909 108.773213,226.383921 107.942332,217.531404 L107.870347,216.745159 L107.786159,215.770153 L106.882125,198.244837 L105.387488,167.995306 L105.050959,160.741252 L104.866918,156.52575 L104.701578,152.444584 L104.584881,149.225917 L104.522157,147.243432 L104.469579,145.245325 L104.447021,144.137317 L104.43043,142.949552 L104.425705,142.241436 L104.42566,141.699048 L104.432759,140.940915 L104.442427,140.495556 L104.4565,140.094128 L104.456578,123.100314 L104.349,117.043 L103.550354,117.198027 L101.851267,117.50956 L99.6080571,117.901755 L96.6959486,118.389011 L94.6835595,118.715483 L91.2061838,119.266036 L89.8333476,119.487578 L88.94217,119.635891 L87.6395773,119.859569 L86.3790065,120.084489 L85.1605914,120.310584 L83.9838105,120.537914 L83.2232633,120.689968 L82.482334,120.842307 L81.4054426,121.0718 L80.3713251,121.302149 L79.3792401,121.533492 L78.7423285,121.687983 L78.1246143,121.842756 L77.5272051,121.997498 L76.6646596,122.230734 L76.1145547,122.386263 L75.5852001,122.541534 L74.5811733,122.853545 L74.1092461,123.009399 L73.6570408,123.165219 L73.2232653,123.321463 L72.2781425,123.674886 L71.5676361,123.936207 L70.8791427,124.184623 L70.2123905,124.42015 L69.5671043,124.642802 L68.9430051,124.852597 L68.3398091,125.049549 L67.6167251,125.277105 L66.921359,125.485831 L66.1301801,125.70919 L65.382618,125.903771 L64.7955164,126.043198 L64.2305104,126.1641 L63.8043159,126.245308 L63.3899792,126.314622 L63.0019346,126.36976 L62.6887561,126.409154 L62.5361924,126.434293 L62.2633564,126.48814 L61.944165,126.560629 L61.7125021,126.617684 L61.0384055,126.798691 L60.5814942,126.930434 L59.9079342,127.134212 L59.3580292,127.307189 L58.564324,127.565129 L57.4763366,127.931355 L56.5321861,128.25869 L55.5238334,128.616351 L54.1734101,129.106375 L51.8631636,129.960466 C46.4496723,131.934967 40.9929425,133.596235 35.5146924,134.938014 C30.0069705,136.316726 25.151023,136.591194 20.8892666,135.739611 C16.788169,134.920132 12.6123735,132.826059 8.34126604,129.473032 L7.86630527,129.095294 L7.43304955,128.741128 L7.26406087,128.608324 C2.49359999,124.788126 -0.139277939,120.263755 -0.465684203,114.89088 L-0.486240276,114.475906 L-0.497467541,114.062387 L-0.5,113.750968 C-0.5,109.273885 0.489339634,105.889711 2.72291828,103.46687 C3.44516979,102.683418 4.33441184,101.978425 5.49474166,101.263361 L5.85107734,101.048452 L6.21376273,100.838484 L6.69224281,100.572766 L7.19571922,100.304687 L7.72382542,100.033831 L8.28180057,99.7570054 L8.86715123,99.4748978 L10.0262079,98.9336895 L10.9638995,98.51276 L11.7354041,98.1783931 L12.5239866,97.8469247 L13.5338447,97.4365268 L14.5759846,97.0283179 L15.4290593,96.7048449 L16.7433214,96.2238247 L17.6421344,95.9060792 L18.3287863,95.6690727 L19.0263405,95.4331348 L19.9720146,95.1206582 L21.4253777,94.6559578 L22.4175515,94.3488085 L23.9407616,93.8920188 L24.9795645,93.5900908 L26.0370546,93.2902225 L27.1132521,92.992398 L28.2081767,92.6966015 L29.3218485,92.4028173 L30.4542869,92.1110299 L31.6055114,91.8212243 L32.7755415,91.5333853 L33.9650014,91.2473561 L35.7835959,90.8221626 L37.6440996,90.4013986 L38.9089857,90.1230547 L40.8603204,89.7050987 C52.0419184,87.3484432 62.7988579,85.7394565 73.1213775,84.8800583 L74.5930668,84.7623866 L76.559047,84.6172796 L77.5538425,84.5385589 L78.5279743,84.4562413 L79.9534332,84.3257825 L80.87821,84.2343336 L81.7828943,84.1392928 L82.6674464,84.0406806 L83.5318257,83.938518 L84.375991,83.8328265 L85.1999003,83.723628 L86.0035105,83.610945 L86.7867777,83.494801 L87.5496567,83.3752201 L88.2909419,83.2524317 L89.367348,83.0613989 L90.0584936,82.9299946 L90.7290304,82.7952768 L91.3789047,82.6572773 L92.0080602,82.5160305 L92.6164387,82.3715734 L93.203979,82.2239461 L93.7722781,82.0727275 L94.5858488,81.846305 C98.2226251,80.8464679 101.456574,80.2248916 104.325976,79.979674 L104.895007,79.935648 L105.216,79.916 L105.024147,75.2288096 L104.928711,73.9441763 L104.823411,72.4088939 L104.7564,71.3545133 L104.691955,70.2756975 L104.63005,69.1720044 L104.542027,67.471228 L104.459767,65.7156884 L104.408087,64.514047 L104.335366,62.6661048 L104.268374,60.7631808 L104.226877,59.46359 L104.187908,58.1390841 L104.134222,56.1068604 L104.101581,54.7207535 L104.057364,52.5957301 L104.018825,50.4153615 L103.976244,47.4212992 L103.958724,45.8871325 L103.943713,44.3279748 L103.9259,41.9430716 L103.913722,39.5023259 L103.90717,37.0055993 L103.906594,34.0732903 L103.916649,30.5351627 L103.934285,27.7827911 L103.954478,25.7088804 L103.973198,24.2272484 L104.011198,21.9002825 L104.047755,20.1657657 L104.078787,18.93851 L104.11294,17.7739934 L104.163305,16.3200745 L104.208747,15.2113779 L104.256856,14.1977232 L104.309169,13.2447032 L104.354077,12.5276251 L104.426931,11.5243917 L104.506798,10.6058569 L104.563996,10.041048 L104.593763,9.77315188 C104.707053,8.78492055 104.83872,7.96968 105.00955,7.22515082 C105.298737,5.96478457 105.631464,5.01954129 106.135269,4.14474401 L106.29167,3.88417353 L106.491,3.582 L106.564545,3.46221751 C107.497134,1.98896966 108.723938,0.918352342 110.183176,0.261592259 L110.478104,0.135761666 L110.779121,0.0209872238 L111.085676,-0.0821383738 L111.300358,-0.146659098 Z M312.327254,126.559235 C314.583919,124.990815 318.611979,125.175287 324.448454,127.037957 L325.315486,127.322515 C325.462145,127.371935 325.60988,127.422351 325.758693,127.473762 C332.231179,129.709851 337.071899,132.414549 340.305576,135.627283 C343.067996,138.827162 344.737968,142.629319 345.312507,147.021775 C345.889337,151.431746 345.135201,155.261979 343.036246,158.503367 C341.193921,161.170964 338.831879,163.306454 335.954875,164.906107 C333.016815,166.539707 330.215838,166.815838 327.662683,165.734563 C327.037235,165.573564 326.162888,165.505704 325.042417,165.531636 L324.50781,165.550267 C324.4158,165.554483 324.322336,165.559254 324.227419,165.564582 L323.640497,165.603219 C323.539775,165.610771 323.437603,165.61888 323.333982,165.627545 L322.694882,165.686221 C322.585471,165.697115 322.474614,165.708566 322.362312,165.720574 L321.67117,165.799321 C321.553093,165.813562 321.433573,165.82836 321.312613,165.843718 L320.569565,165.942567 L319.791989,166.054836 L318.979945,166.18054 L318.133495,166.319691 L317.252699,166.472306 L316.337617,166.638397 L315.38831,166.81798 L311.012078,167.667207 L308.893097,168.068261 L306.666305,168.478055 L305.073757,168.760018 L303.478164,169.026973 L302.80933,169.131253 L302.051203,169.240027 L301.885528,169.261817 C300.061627,169.496566 298.781151,169.890887 298.054915,170.417933 L297.925244,170.518302 C297.084838,171.213655 295.795421,171.566807 294.05928,171.605948 L293.651189,171.611098 L293.479499,171.622967 L293.285119,171.646701 L293.068067,171.682295 L292.828362,171.729743 L292.426372,171.823135 L291.973518,171.943174 L291.643388,172.037997 L291.105901,172.202415 L290.517719,172.393438 L289.654726,172.689495 L288.70187,173.032786 L287.384659,173.528265 L286.230159,173.977695 L285.305623,174.345686 L283.653181,175.017852 L281.861557,175.763513 L279.931043,176.582597 L278.286828,177.290678 L275.654517,178.440737 L272.332341,179.915692 L268.740464,181.533924 L266.567181,182.522879 L260.288441,184.543169 L244.260534,175.457411 L243.249839,174.917109 L242.269346,174.385411 L241.31904,173.862287 L240.398906,173.347711 L239.508929,172.841653 L238.649097,172.344085 L237.819393,171.854979 L237.019804,171.374306 L236.250314,170.902039 L235.510911,170.438148 L234.801579,169.982607 L234.122304,169.535385 L233.473071,169.096456 C233.367368,169.02399 233.262916,168.951869 233.159716,168.880092 L232.555519,168.453547 C232.457321,168.383143 232.360372,168.31308 232.264674,168.24336 L231.705482,167.829137 L231.176274,167.423093 C231.090571,167.356099 231.006116,167.289444 230.92291,167.223129 L230.438652,166.8293 C228.326886,165.075333 227.124808,163.56765 226.826496,162.294643 C225.670497,159.080888 225.262879,156.787496 225.632698,155.359547 C226.013085,153.890796 227.613979,152.379793 230.431375,150.748261 L230.826545,150.540342 L231.253483,150.326645 C231.327287,150.290546 231.402415,150.254207 231.478867,150.217627 L232.202698,149.881893 L232.724996,149.650829 L233.279099,149.413966 L234.169909,149.047787 L235.132336,148.668532 L235.813757,148.408421 L236.895616,148.007333 L237.656687,147.732651 L238.858066,147.309681 L240.1312,146.87356 L241.019836,146.575497 L242.892863,145.961792 L244.893624,145.324614 L247.022198,144.663921 L248.702551,144.152945 L250.454872,143.628701 L252.279195,143.091173 C253.07492,142.858411 253.864627,142.629304 254.648319,142.403852 L256.981348,141.73846 C257.75301,141.520317 258.51866,141.305828 259.278299,141.094993 L261.539189,140.473449 C262.28681,140.26992 263.028424,140.070046 263.764034,139.873824 L265.952851,139.296115 C266.314652,139.201656 266.674953,139.108111 267.033754,139.015479 L269.168561,138.470639 L271.267382,137.947709 L273.330234,137.446685 L275.357134,136.967563 C276.361598,136.733478 277.352587,136.507605 278.330109,136.289943 L280.2672,135.865567 C280.906914,135.727757 281.540646,135.593596 282.168398,135.463083 L283.168898,135.267407 L284.611578,134.975696 L285.984433,134.686249 L287.287304,134.399179 L288.116923,134.209175 L288.91532,134.020313 L290.054266,133.739232 L290.774394,133.553368 L291.463133,133.368763 L292.120434,133.185451 L292.746249,133.003464 L293.625832,132.733043 L294.172726,132.554519 L294.687967,132.377438 L295.171509,132.201834 C295.249454,132.172692 295.326078,132.143612 295.401377,132.114597 L295.83728,131.941272 C295.90728,131.912514 295.975954,131.883821 296.043302,131.855193 L296.431459,131.684224 C296.493496,131.655862 296.554203,131.627568 296.613582,131.599341 L296.953885,131.430802 C297.007941,131.40285 297.060664,131.374967 297.112055,131.347154 L297.404398,131.181122 C297.726789,130.98841 297.98378,130.799195 298.17503,130.613718 L298.252968,130.534458 C299.761497,128.921454 302.123233,128.096977 305.312946,128.035942 L305.699684,128.032281 C308.859086,128.032281 311.064096,127.533901 312.327254,126.559235 Z" id="Combined-Shape" fill="#000000" fill-rule="nonzero"></path>
    </g>
</svg>