<?xml version="1.0" encoding="UTF-8"?>
<svg width="400px" height="305px" viewBox="0 0 400 305" version="1.1" xmlns="http://www.w3.org/2000/svg" xmlns:xlink="http://www.w3.org/1999/xlink">
    <title>12_s</title>
    <g id="12_s" stroke="none" stroke-width="1" fill="none" fill-rule="evenodd">
        <path d="M368.156716,201 C369.922886,201 372.251018,201.784824 375.141113,203.354473 C378.031208,204.924122 379.717096,206.493771 380.198779,208.06342 C381.162144,209.894677 382.607191,211.333522 384.533921,212.379955 C388.547942,214.47282 390.956355,221.013024 391.759159,232.000566 C392.08028,235.66308 392.08028,238.148358 391.759159,239.456399 C391.438037,240.764439 390.635233,242.464892 389.350746,244.557758 C383.570556,253.975651 377.388964,255.022084 370.80597,247.697055 C368.236997,245.080974 364.784939,243.380521 360.449796,242.595696 C355.31185,241.549264 347.404229,241.156852 336.726934,241.41846 C326.049638,241.680068 317.660335,242.334088 311.559023,243.380521 C276.556762,250.443941 252.231796,256.460929 238.584125,261.431484 L226.782904,265.748018 C221.805518,267.579275 217.028833,269.737542 212.452849,272.22282 C207.876866,274.708097 205.187472,276.866365 204.384668,278.697622 C201.655133,283.406569 196.998869,283.079558 190.415875,277.716591 C183.832881,272.353624 180.059701,265.878822 179.096336,258.292186 C178.775215,254.629672 179.256897,251.882786 180.541384,250.051529 C181.825871,248.220272 184.555405,246.258211 188.729986,244.165345 C192.369365,242.682899 196.366785,240.67542 200.722245,238.142908 L201.494573,237.690544 C206.150837,234.943658 210.405699,232.785391 214.259159,231.215742 L228.468792,224.544734 C234.088422,222.19026 239.62777,220.686014 245.086839,220.031993 C250.545907,219.377973 255.322592,218.462344 259.416893,217.285108 C263.511194,216.107871 269.130823,214.996036 276.27578,213.949604 C283.420737,212.903171 289.80303,211.725934 295.422659,210.417894 C306.983039,206.755379 324.965853,204.139298 349.371099,202.569649 C360.449796,201.784824 366.711669,201.261608 368.156716,201 Z M111.437835,0.334069673 C112.767082,-0.0460626316 114.193712,-0.083416451 115.798337,0.129322828 C117.737374,0.386397885 120.066673,1.03798968 122.839356,2.07785369 L122.839356,2.07785369 L123.606574,2.37107486 C123.73629,2.42154792 123.866931,2.47282202 123.998503,2.52489658 L123.998503,2.52489658 L124.79915,2.84694472 C125.069783,2.9574928 125.34418,3.07123801 125.622381,3.18817566 L125.622381,3.18817566 L126.037494,3.36380841 L126.853486,3.71602642 C126.987906,3.77484254 127.121538,3.83371767 127.254383,3.89265543 L127.254383,3.89265543 L128.042019,4.24706292 C128.431126,4.4246717 128.813176,4.60290992 129.188205,4.78187606 L129.188205,4.78187606 L129.928913,5.14080809 L130.650968,5.50185632 C131.126134,5.74329945 131.588908,5.98627011 132.039378,6.23100172 L132.039378,6.23100172 L132.705868,6.59944905 C137.197312,9.12659616 140.400802,11.8510173 142.411888,15.0241012 L142.411888,15.0241012 L142.439779,15.0655244 C144.652088,18.5092886 145.913233,24.1363593 146.387783,32.3312879 L146.387783,32.3312879 L146.439993,33.3072674 C146.448093,33.4719129 146.455894,33.6375514 146.463395,33.804186 L146.463395,33.804186 L146.50483,34.8159677 L146.539156,35.8517915 C146.544287,36.02644 146.549125,36.2020961 146.553671,36.3787626 L146.553671,36.3787626 L146.577444,37.4509104 C146.580825,37.6316303 146.583916,37.8133665 146.586717,37.9961218 L146.586717,37.9961218 L146.600072,39.1049067 C146.603376,39.4785937 146.605534,39.8563805 146.606557,40.2382903 L146.606557,40.2382903 L146.606229,41.3964116 L146.59915,42.57941 L146.585379,43.7874244 L146.564974,45.0205942 L146.537997,46.2790583 L146.504505,47.5629561 L146.46456,48.8724265 L146.418219,50.2076088 L146.365544,51.5686422 L146.306593,52.9556657 L146.241426,54.3688185 L146.170103,55.8082398 L146.092683,57.2740688 L146.009226,58.7664445 L145.919791,60.2855061 L145.824437,61.8313928 L145.674562,64.1340293 L145.582861,65.7502625 L145.501103,67.295283 L145.429262,68.7687792 L145.367315,70.1704397 L145.315237,71.499953 L145.285989,72.3460595 L145.250306,73.5546351 L145.224427,74.6902326 L145.208328,75.7525407 L145.201984,76.7412476 L145.202018,76.9809534 L145.752365,76.9641998 L146.244245,76.9444482 L147.022924,76.9059703 L148.137151,76.838157 L149.029579,76.7749245 L149.970455,76.7010952 L150.9596,76.6166765 L152.353232,76.4876585 L153.831925,76.3398455 L155.79926,76.1286754 L157.042788,75.9879044 L158.333443,75.8365907 L160.12731,75.6184522 C160.41579,75.5803396 160.703308,75.5424176 160.989865,75.5046862 L160.989865,75.5046862 L166.044092,74.8461018 L170.890907,74.2286799 L173.236616,73.9354048 L177.031134,73.4694809 L180.682037,73.0321419 L183.499458,72.7028517 L186.892233,72.3169651 L188.859155,72.0991539 L191.401585,71.8247462 L193.852506,71.5686326 L197.357475,71.2187636 L199.032895,71.0592646 L201.186942,70.8626066 L202.742635,70.7271185 L204.737164,70.5624749 L206.173306,70.4509976 L208.008553,70.3183682 L209.752887,70.2040327 L211.406386,70.1079909 L212.969126,70.0302429 L214.081668,69.9839372 L215.143233,69.9479216 L216.153856,69.9221962 L216.799318,69.9107627 L217.422163,69.9039026 L218.088836,69.9016159 L218.598436,69.9172455 C218.745318,69.9220118 218.891356,69.9269839 219.036552,69.9321631 L219.036552,69.9321631 L219.897645,69.9657328 L220.738639,70.0043298 L221.559641,70.0480117 L222.360755,70.096836 L223.142086,70.1508604 L223.90374,70.2101423 L224.645821,70.2747394 L225.368436,70.3447091 L226.07169,70.4201092 L226.755687,70.5009971 L227.420533,70.5874305 L228.066333,70.6794668 L228.693192,70.7771638 L229.301217,70.8805788 C229.500764,70.9160099 229.697189,70.9524036 229.890511,70.9897696 L229.890511,70.9897696 L230.46118,71.1047936 L230.46118,71.1047936 L230.739563,71.1645111 L231.282493,71.288393 C231.371448,71.3095364 231.459638,71.330929 231.547065,71.3525718 L231.547065,71.3525718 L232.062492,71.485441 C232.146876,71.5080896 232.230502,71.5309908 232.313372,71.5541459 L232.313372,71.5541459 L232.801532,71.6961321 C232.881385,71.7203073 232.960487,71.7447389 233.038838,71.7694278 L233.038838,71.7694278 L233.499969,71.9206604 C233.726053,71.997831 233.94543,72.0773402 234.158158,72.1592204 C238.153743,73.6971454 241.582205,76.7144254 244.338515,81.0633218 L244.338515,81.0633218 L244.471557,81.2732359 L244.748598,81.7828552 C249.827207,91.2910779 248.943837,101.275488 242.186183,108.605754 C236.237414,115.058592 228.439645,115.481518 219.609487,110.692327 L219.754,110.77 L219.509483,110.660132 L219.12596,110.495073 L218.728049,110.333163 C218.660533,110.306441 218.592418,110.279851 218.523705,110.253393 L218.523705,110.253393 L218.104248,110.096229 L217.670453,109.942245 L217.222338,109.791453 L216.759925,109.643866 C216.681665,109.619536 216.602811,109.595339 216.523362,109.571278 L216.523362,109.571278 L216.039537,109.42852 C215.957711,109.404996 215.875292,109.381607 215.792279,109.358353 L215.792279,109.358353 L215.287088,109.220453 L214.767676,109.085806 L214.234065,108.954425 L213.686274,108.826323 L213.124323,108.701511 C213.029486,108.680984 212.934059,108.660595 212.838044,108.640343 L212.838044,108.640343 L212.25489,108.520491 L211.657626,108.40396 L211.046271,108.290763 L210.420846,108.180912 L209.456369,108.022437 L208.795854,107.921006 L208.121338,107.822964 L207.432841,107.728324 L206.730383,107.637098 L206.013983,107.549299 L204.913287,107.424051 L204.162121,107.344871 L203.397083,107.269161 L202.618193,107.196933 L201.82547,107.128199 L200.610495,107.031677 L199.36451,106.943086 L198.087581,106.862468 L197.219137,106.813173 L196.336991,106.767452 L194.988121,106.705601 L193.608532,106.651861 L192.198291,106.606274 L191.241133,106.580433 L189.779953,106.548528 L188.288298,106.524888 L186.252138,106.506295 L185.213836,106.502567 L184.134284,106.503066 L183.007073,106.510796 L181.857866,106.526257 C181.664499,106.529478 181.470217,106.533021 181.275018,106.536887 L181.275018,106.536887 L180.092836,106.56395 L178.888681,106.59875 L177.662564,106.641289 L176.414492,106.691571 L175.144476,106.749596 L173.852525,106.815368 L172.538647,106.88889 L171.202853,106.970162 L169.845151,107.059188 L168.46555,107.155969 L167.064059,107.260509 L165.640689,107.372809 L164.195448,107.492871 L162.728345,107.620699 L161.23939,107.756294 L159.728591,107.899659 L158.106369,108.060089 L156.864024,108.188689 L155.676539,108.317072 L154.178828,108.487845 L153.11994,108.615571 L151.794239,108.785325 L150.864769,108.912179 L149.991016,109.038595 L149.17313,109.164533 L148.411262,109.289953 L147.934546,109.37326 L147.403337,109.470981 L147.336488,110.818194 L147.293705,111.829141 L147.253182,112.915921 L147.214948,114.078247 L147.190743,114.89496 L147.156387,116.182561 L147.1044,118.494609 L147.068533,120.429962 L147.049658,123.947655 L147.025164,127.423489 L146.995321,130.823018 L146.960106,134.146365 L146.9195,137.393653 L146.873482,140.565004 L146.82203,143.660542 L146.765123,146.68039 L146.680728,150.589325 L146.611014,153.43304 L146.561471,155.287019 L146.48254,158.005333 L146.398051,160.648571 L146.338626,162.369082 L146.244827,164.887466 L146.145413,167.331102 L146.076009,168.918726 L146.004094,170.47322 L145.929662,171.99462 L145.813282,174.214747 L145.732532,175.653571 L145.649244,177.059428 L145.563411,178.432354 L145.475028,179.772387 L145.384087,181.079562 C145.368717,181.294688 145.353241,181.508447 145.337657,181.720839 L145.337657,181.720839 L145.24287,182.978797 L145.145511,184.203987 L145.045574,185.396448 L144.943053,186.556215 L144.837941,187.683325 L144.730232,188.777814 C144.712063,188.957512 144.693787,189.135853 144.675401,189.312837 L144.675401,189.312837 L144.563786,190.358463 C144.544966,190.530022 144.526037,190.700226 144.506999,190.869075 L144.506999,190.869075 L144.391462,191.86592 L144.273304,192.83029 L144.152519,193.762221 C144.132169,193.914841 144.111709,194.066112 144.091139,194.216033 L144.091139,194.216033 L143.9664,195.099374 C143.94539,195.243901 143.92427,195.38708 143.90304,195.528911 L143.90304,195.528911 L143.774335,196.363744 C143.644304,197.182425 143.510295,197.952665 143.37228,198.67463 L143.37228,198.67463 L143.318969,198.9474 L143.122488,200.03572 L142.998226,200.748574 L142.831124,201.748983 L142.732589,202.369417 L142.644352,202.952176 L142.566417,203.496854 L142.498787,204.003045 L142.441467,204.470347 C142.424079,204.619587 142.40841,204.762278 142.394461,204.898352 L142.394461,204.898352 L142.370654,205.138028 L142.417365,205.314539 C142.884113,207.185548 142.798145,209.110598 142.406465,211.117632 L142.406465,211.117632 L142.353663,211.379886 C142.015288,213.011209 141.43338,214.785438 140.606438,216.835753 L140.634636,216.764686 L140.593976,216.872281 L140.481073,217.182378 C140.462063,217.236176 140.442956,217.291029 140.423754,217.346936 L140.423754,217.346936 L140.307405,217.69501 L140.188808,218.068281 L140.006786,218.67522 L139.819933,219.338309 L139.692747,219.811403 C139.671377,219.892314 139.649923,219.974255 139.628384,220.057223 L139.628384,220.057223 L139.498143,220.567351 L139.365915,221.102049 L139.163938,221.949952 L139.02692,222.54565 L138.817945,223.484601 L138.676388,224.140696 L138.460793,225.16979 L138.241406,226.252536 L138.093109,227.004011 L137.867705,228.175451 L137.638871,229.399673 L137.484477,230.244983 L137.250229,231.55645 L136.933149,233.385771 L136.691953,234.817861 L136.448006,236.301104 L136.263884,237.440368 L136.246181,237.651368 C135.876185,241.779145 134.835779,245.07613 132.602166,247.347916 L132.602166,247.347916 L132.418437,247.529865 C130.176054,249.69199 127.436529,250.232292 123.951336,249.917249 L123.951336,249.917249 L123.818558,249.905247 L123.432932,249.844277 C118.638211,249.002622 114.975696,244.797164 112.511447,238.222886 C110.465372,232.764241 109.100974,225.364185 108.298284,215.895258 L108.298284,215.895258 L108.285495,215.744395 L107.381515,198.220162 L105.886951,167.972135 L105.550483,160.719443 L105.366508,156.505509 L105.20125,152.426467 L105.084631,149.210104 L105.021984,147.230277 L104.969475,145.235143 L104.946972,144.130327 L104.930419,142.946209 L104.925705,142.241374 L104.925638,141.703705 L104.932643,140.951721 L104.942133,140.512707 L104.9565,140.094128 L104.9565,123.091439 L104.838403,116.439283 L103.460176,116.706226 L101.765152,117.017031 L99.5255428,117.408611 L96.615879,117.895464 L94.6053711,118.221635 L91.1265243,118.772422 L89.7512614,118.994362 L88.8575458,119.143104 L87.5517461,119.367344 L86.2877764,119.592883 L85.0657504,119.819661 L83.8857822,120.047618 L83.1225584,120.200214 L82.3781113,120.35329 L81.2967208,120.583764 L80.2577678,120.815215 L79.2613661,121.047585 L78.6207943,121.202978 L77.9992185,121.358735 L77.3966727,121.514837 L76.5286087,121.7496 L75.9737852,121.906488 L75.4381097,122.063659 L74.6705729,122.299908 C74.5876929,122.326188 74.5056143,122.352479 74.4243378,122.378779 L74.4243378,122.378779 L73.9463089,122.536693 L73.487563,122.694818 L73.0481339,122.853137 L72.1055422,123.205621 L71.3979315,123.465888 L70.7125966,123.713176 L70.0492922,123.947499 L69.4077733,124.168868 L68.7877945,124.377298 L68.1891109,124.5728 L67.6114772,124.755387 C67.5169454,124.784743 67.4232805,124.813561 67.3304774,124.841841 L67.3304774,124.841841 L66.7839589,125.00508 L66.2578773,125.155436 C66.1718865,125.179423 66.0867371,125.202873 66.0024238,125.225787 L66.0024238,125.225787 L65.5065382,125.356842 C65.4255494,125.377613 65.3453866,125.397849 65.2660447,125.41755 L65.2660447,125.41755 L64.7998033,125.529333 C64.7237246,125.546894 64.6484565,125.56392 64.5739941,125.580412 L64.5739941,125.580412 L64.1368453,125.672951 L63.7187851,125.752678 C63.582586,125.77712 63.4495274,125.799428 63.3195685,125.819604 L63.3195685,125.819604 L62.9389502,125.873743 L62.6067105,125.915931 L62.4390339,125.943823 L62.1524993,126.000584 L61.8243811,126.075189 L61.5827781,126.134805 L60.8998393,126.318275 L60.4366852,126.451862 L59.7578841,126.657258 L59.2034783,126.831675 L58.4048055,127.091258 L57.312546,127.458944 L56.365034,127.787457 L55.3532785,128.14634 L54.0000297,128.637398 L51.6918356,129.490736 C46.2933721,131.459755 40.8540968,133.115463 35.3932769,134.452979 C29.9991923,135.803245 25.2052413,136.092144 20.9872397,135.249304 C16.6317989,134.379001 12.2070394,132.039151 7.70012186,128.314342 L7.742,128.348 L7.57301133,128.215196 C3.01648251,124.56629 0.22972397,120.08978 0.0135725084,114.462225 L0.00251570834,114.058294 L0,113.750968 C0,109.701533 0.820633884,106.268018 3.09053851,103.805773 C3.93071651,102.894402 5.00601646,102.09993 6.4565737,101.275568 L6.4565737,101.275568 L6.92728178,101.014078 L7.42391839,100.749574 L7.94746422,100.481029 C8.12657333,100.390726 8.31033076,100.299578 8.49889995,100.207414 L8.49889995,100.207414 L9.07920626,99.9277031 L10.0510912,99.4725559 C10.172438,99.4165445 10.2945559,99.3606261 10.4174451,99.3048004 L10.4174451,99.3048004 L11.1640406,98.970956 C11.4159933,98.8600437 11.6710344,98.7495 11.9291666,98.6393227 L11.9291666,98.6393227 L12.7128395,98.3098875 L13.5150756,97.9826376 C13.6503294,97.9282774 13.7863574,97.8740076 13.9231599,97.8198281 L13.9231599,97.8198281 L14.7532716,97.4958319 L15.6019874,97.1739886 L16.4693237,96.8542854 C16.6154324,96.8011791 16.7623176,96.7481615 16.9099797,96.6952322 L16.9099797,96.6952322 L17.8052774,96.3787147 C18.2575903,96.220984 18.7169012,96.0640436 19.1832194,95.9078864 L19.1832194,95.9078864 L20.1252014,95.5966139 L21.0858857,95.2874168 C21.2475592,95.2360561 21.4100127,95.1847814 21.5732464,95.1335924 L21.5732464,95.1335924 L22.5620149,94.8274841 L23.5695267,94.5234189 C23.7390082,94.4729109 23.9092713,94.4224875 24.0803165,94.3721484 L24.0803165,94.3721484 L25.1159738,94.0711235 L26.1704153,93.7721094 L27.2436573,93.475093 L28.3357162,93.1800616 L29.4466083,92.8870021 L30.5763501,92.5959016 L31.7249578,92.3067473 L32.8924479,92.0195261 L34.0788367,91.7342252 L35.8938907,91.3098459 L37.7515588,90.8897146 L39.013706,90.6119653 L40.963436,90.1943503 C53.1863305,87.6182292 64.9010478,85.9369673 76.092328,85.1538033 L76.092328,85.1538033 L76.5984935,85.1157211 L77.5959504,85.0367827 L78.5735487,84.9541599 L80.002642,84.8233551 L80.9304551,84.7315965 L81.8382986,84.6362136 L82.7261406,84.5372236 L83.5939495,84.4346437 L84.4416936,84.3284909 L85.269341,84.2187825 L86.0768601,84.1055356 L86.8642191,83.9887674 L87.6313863,83.8684951 L88.3783298,83.7447358 L89.4607566,83.5525963 L90.1570024,83.4201946 L90.8329135,83.284366 L91.4884582,83.1451277 L92.1236047,83.0024968 L92.7383214,82.8564905 L93.3325764,82.7071259 L93.9063381,82.5544202 L94.7183929,82.328417 C98.7825756,81.2110756 102.360805,80.5634673 105.480611,80.4010315 L105.480611,80.4010315 L105.735937,80.3893372 L105.522772,75.1917635 L105.427539,73.9099611 L105.322404,72.3771787 L105.25551,71.3246965 L105.19117,70.2476952 L105.129382,69.1461599 L105.041479,67.4478238 L104.959305,65.6942032 L104.907701,64.4943846 L104.835056,62.6485126 L104.768119,60.7472231 L104.726661,59.4488847 L104.687734,58.1258794 L104.634083,56.0950886 L104.601473,54.7103513 L104.557286,52.5868933 L104.518767,50.4077684 L104.496232,48.9240678 L104.476211,47.4155894 L104.458701,45.8823185 L104.443699,44.3242402 L104.425894,41.9405766 L104.413721,39.5010134 L104.40717,37.0055006 L104.406592,34.0747109 L104.416639,30.5383658 L104.434261,27.7876589 L104.454439,25.7151958 L104.473131,24.2354113 L104.511087,21.9108169 L104.547595,20.1784028 L104.578572,18.9531645 L104.61264,17.7913 L104.662885,16.3405469 L104.708201,15.2347386 L104.746276,14.4206828 C104.752831,14.2884262 104.759491,14.1578705 104.76626,14.0290027 L104.76626,14.0290027 L104.808192,13.2759449 L104.852841,12.5627661 L104.900323,11.8888373 C104.90848,11.7797518 104.916759,11.6722754 104.925164,11.5663951 L104.925164,11.5663951 L104.977115,10.9501618 C104.986031,10.8506135 104.995077,10.7526351 105.004255,10.6562135 L105.004255,10.6562135 L105.060938,10.0962603 L105.09051,9.83009811 C105.197283,8.89870552 105.324349,8.08893996 105.496886,7.33696854 C105.797849,6.02527734 106.174847,4.92098668 106.898654,3.87066931 L106.898654,3.87066931 L106.911587,3.8533919 L106.987015,3.7296478 C108.088289,1.98992164 109.571651,0.9201935 111.229686,0.396673759 L111.229686,0.396673759 Z M325.595423,126.946354 C332.002526,129.159854 336.779751,131.829076 339.9271,134.954018 C342.624827,138.07896 344.254704,141.789828 344.81673,146.086623 C345.378757,150.383418 344.648123,154.094287 342.624827,157.219229 C340.826342,159.823347 338.522033,161.906642 335.711901,163.469113 C332.901768,165.031584 330.260244,165.291996 327.787327,164.250348 C325.764031,163.729525 321.436427,164.120142 314.804514,165.422202 C308.172601,166.724261 303.844997,167.505496 301.821701,167.765908 C299.798406,168.02632 298.39334,168.482041 297.606502,169.13307 C296.819665,169.7841 295.527004,170.109614 293.728519,170.109614 C291.480413,170.109614 282.375584,173.75538 266.41403,181.046911 L260.344144,183 L244.494996,174.015792 C233.704087,168.286732 227.971416,163.989937 227.296984,161.125406 C226.172931,158.000464 225.779513,155.786964 226.116729,154.484905 C226.453945,153.182846 227.971416,151.750581 230.669143,150.18811 C234.041303,148.365227 241.291445,145.826211 252.41957,142.571064 C263.547695,139.315916 273.495565,136.7769 282.263178,134.954018 C291.705224,133.131135 297.156881,131.438458 298.61815,129.875987 C300.079419,128.313516 302.439931,127.532281 305.699684,127.532281 C308.959438,127.532281 311.263747,127.011457 312.612611,125.96981 C314.860717,124.407339 319.188321,124.732853 325.595423,126.946354 Z" id="Combined-Shape" fill="#000000" fill-rule="nonzero"></path>
    </g>
</svg>