<?xml version="1.0" encoding="UTF-8"?>
<svg width="400px" height="305px" viewBox="0 0 400 305" version="1.1" xmlns="http://www.w3.org/2000/svg" xmlns:xlink="http://www.w3.org/1999/xlink">
    <title>13_s</title>
    <g id="13_s" stroke="none" stroke-width="1" fill="none" fill-rule="evenodd">
        <g id="十" fill="#000000" fill-rule="nonzero">
            <path d="M111.229686,0.396673759 C109.571651,0.9201935 108.088289,1.98992164 106.987015,3.7296478 L106.911587,3.8533919 L106.898654,3.87066931 C106.174847,4.92098668 105.797849,6.02527734 105.496886,7.33696854 C105.324349,8.08893996 105.197283,8.89870552 105.09051,9.83009811 L105.060938,10.0962603 L105.004255,10.6562135 C104.995077,10.7526351 104.986031,10.8506135 104.977115,10.9501618 L104.925164,11.5663951 C104.916759,11.6722754 104.90848,11.7797518 104.900323,11.8888373 L104.852841,12.5627661 L104.808192,13.2759449 L104.76626,14.0290027 C104.759491,14.1578705 104.752831,14.2884262 104.746276,14.4206828 L104.708201,15.2347386 L104.662885,16.3405469 L104.61264,17.7913 L104.578572,18.9531645 L104.547595,20.1784028 L104.511087,21.9108169 L104.473131,24.2354113 L104.454439,25.7151958 L104.434261,27.7876589 L104.416639,30.5383658 L104.406592,34.0747109 L104.40717,37.0055006 L104.413721,39.5010134 L104.425894,41.9405766 L104.443699,44.3242402 L104.458701,45.8823185 L104.476211,47.4155894 L104.496232,48.9240678 L104.518767,50.4077684 L104.557286,52.5868933 L104.601473,54.7103513 L104.634083,56.0950886 L104.687734,58.1258794 L104.726661,59.4488847 L104.768119,60.7472231 L104.835056,62.6485126 L104.907701,64.4943846 L104.959305,65.6942032 L105.041479,67.4478238 L105.129382,69.1461599 L105.19117,70.2476952 L105.25551,71.3246965 L105.322404,72.3771787 L105.427539,73.9099611 L105.522772,75.1917635 L105.735937,80.3893372 L105.480611,80.4010315 C102.360805,80.5634673 98.7825756,81.2110756 94.7183929,82.328417 L93.9063381,82.5544202 L93.3325764,82.7071259 L92.7383214,82.8564905 L92.1236047,83.0024968 L91.4884582,83.1451277 L90.8329135,83.284366 L90.1570024,83.4201946 L89.4607566,83.5525963 L88.3783298,83.7447358 L87.6313863,83.8684951 L86.8642191,83.9887674 L86.0768601,84.1055356 L85.269341,84.2187825 L84.4416936,84.3284909 L83.5939495,84.4346437 L82.7261406,84.5372236 L81.8382986,84.6362136 L80.9304551,84.7315965 L80.002642,84.8233551 L78.5735487,84.9541599 L77.5959504,85.0367827 L76.5984935,85.1157211 L76.092328,85.1538033 C64.9010478,85.9369673 53.1863305,87.6182292 40.963436,90.1943503 L39.013706,90.6119653 L37.7515588,90.8897146 L35.8938907,91.3098459 L34.0788367,91.7342252 L32.8924479,92.0195261 L31.7249578,92.3067473 L30.5763501,92.5959016 L29.4466083,92.8870021 L28.3357162,93.1800616 L27.2436573,93.475093 L26.1704153,93.7721094 L25.1159738,94.0711235 L24.0803165,94.3721484 C23.9092713,94.4224875 23.7390082,94.4729109 23.5695267,94.5234189 L22.5620149,94.8274841 L21.5732464,95.1335924 C21.4100127,95.1847814 21.2475592,95.2360561 21.0858857,95.2874168 L20.1252014,95.5966139 L19.1832194,95.9078864 C18.7169012,96.0640436 18.2575903,96.220984 17.8052774,96.3787147 L16.9099797,96.6952322 C16.7623176,96.7481615 16.6154324,96.8011791 16.4693237,96.8542854 L15.6019874,97.1739886 L14.7532716,97.4958319 L13.9231599,97.8198281 C13.7863574,97.8740076 13.6503294,97.9282774 13.5150756,97.9826376 L12.7128395,98.3098875 L11.9291666,98.6393227 C11.6710344,98.7495 11.4159933,98.8600437 11.1640406,98.970956 L10.4174451,99.3048004 C10.2945559,99.3606261 10.172438,99.4165445 10.0510912,99.4725559 L9.07920626,99.9277031 L8.49889995,100.207414 C8.31033076,100.299578 8.12657333,100.390726 7.94746422,100.481029 L7.42391839,100.749574 L6.92728178,101.014078 L6.4565737,101.275568 C5.00601646,102.09993 3.93071651,102.894402 3.09053851,103.805773 C0.820633884,106.268018 0,109.701533 0,113.750968 L0.00251570834,114.058294 C0.0980244535,119.876144 2.90799373,124.479412 7.57301133,128.215196 L7.77252165,128.372857 L7.70012186,128.314342 C12.2070394,132.039151 16.6317989,134.379001 20.9872397,135.249304 C25.2052413,136.092144 29.9991923,135.803245 35.3932769,134.452979 C40.8540968,133.115463 46.2933721,131.459755 51.6918356,129.490736 L54.0000297,128.637398 L55.3532785,128.14634 L56.365034,127.787457 L57.312546,127.458944 L58.4048055,127.091258 L59.2034783,126.831675 L59.7578841,126.657258 L60.4366852,126.451862 L60.8998393,126.318275 L61.5827781,126.134805 L61.8243811,126.075189 L62.1524993,126.000584 L62.4390339,125.943823 L62.6067105,125.915931 L62.9389502,125.873743 L63.3195685,125.819604 C63.4495274,125.799428 63.582586,125.77712 63.7187851,125.752678 L64.1368453,125.672951 L64.5739941,125.580412 C64.6484565,125.56392 64.7237246,125.546894 64.7998033,125.529333 L65.2660447,125.41755 C65.3453866,125.397849 65.4255494,125.377613 65.5065382,125.356842 L66.0024238,125.225787 C66.0867371,125.202873 66.1718865,125.179423 66.2578773,125.155436 L66.7839589,125.00508 L67.3304774,124.841841 C67.4232805,124.813561 67.5169454,124.784743 67.6114772,124.755387 L68.1891109,124.5728 L68.7877945,124.377298 L69.4077733,124.168868 L70.0492922,123.947499 L70.7125966,123.713176 L71.3979315,123.465888 L72.1055422,123.205621 L73.0481339,122.853137 L73.487563,122.694818 L73.9463089,122.536693 L74.4243378,122.378779 C74.5056143,122.352479 74.5876929,122.326188 74.6705729,122.299908 L75.4381097,122.063659 L75.9737852,121.906488 L76.5286087,121.7496 L77.3966727,121.514837 L77.9992185,121.358735 L78.6207943,121.202978 L79.2613661,121.047585 L80.2577678,120.815215 L81.2967208,120.583764 L82.3781113,120.35329 L83.1225584,120.200214 L83.8857822,120.047618 L85.0657504,119.819661 L86.2877764,119.592883 L87.5517461,119.367344 L88.8575458,119.143104 L89.7512614,118.994362 L91.1265243,118.772422 L94.6053711,118.221635 L96.615879,117.895464 L99.5255428,117.408611 L101.765152,117.017031 L103.460176,116.706226 L104.838403,116.439283 L104.9565,123.091439 L104.9565,140.094128 L104.942133,140.512707 L104.932643,140.951721 L104.925638,141.703705 L104.925705,142.241374 L104.930419,142.946209 L104.946972,144.130327 L104.969475,145.235143 L105.021984,147.230277 L105.084631,149.210104 L105.20125,152.426467 L105.366508,156.505509 L105.550483,160.719443 L105.886951,167.972135 L107.381515,198.220162 L108.285495,215.744395 L108.298284,215.895258 C109.100974,225.364185 110.465372,232.764241 112.511447,238.222886 C114.975696,244.797164 118.638211,249.002622 123.432932,249.844277 L123.818558,249.905247 L123.951336,249.917249 C127.436529,250.232292 130.176054,249.69199 132.418437,247.529865 L132.602166,247.347916 C134.835779,245.07613 135.876185,241.779145 136.246181,237.651368 L136.263884,237.440368 L136.448006,236.301104 L136.691953,234.817861 L136.933149,233.385771 L137.250229,231.55645 L137.484477,230.244983 L137.638871,229.399673 L137.867705,228.175451 L138.093109,227.004011 L138.241406,226.252536 L138.460793,225.16979 L138.676388,224.140696 L138.817945,223.484601 L139.02692,222.54565 L139.163938,221.949952 L139.365915,221.102049 L139.498143,220.567351 L139.628384,220.057223 C139.649923,219.974255 139.671377,219.892314 139.692747,219.811403 L139.819933,219.338309 L140.006786,218.67522 L140.188808,218.068281 L140.307405,217.69501 L140.423754,217.346936 C140.442956,217.291029 140.462063,217.236176 140.481073,217.182378 L140.593976,216.872281 L140.634636,216.764686 L140.606438,216.835753 C141.43338,214.785438 142.015288,213.011209 142.353663,211.379886 L142.406465,211.117632 C142.798145,209.110598 142.884113,207.185548 142.417365,205.314539 L142.370654,205.138028 L142.394461,204.898352 C142.40841,204.762278 142.424079,204.619587 142.441467,204.470347 L142.498787,204.003045 L142.566417,203.496854 L142.644352,202.952176 L142.732589,202.369417 L142.831124,201.748983 L142.998226,200.748574 L143.122488,200.03572 L143.318969,198.9474 L143.37228,198.67463 C143.510295,197.952665 143.644304,197.182425 143.774335,196.363744 L143.90304,195.528911 C143.92427,195.38708 143.94539,195.243901 143.9664,195.099374 L144.091139,194.216033 C144.111709,194.066112 144.132169,193.914841 144.152519,193.762221 L144.273304,192.83029 L144.391462,191.86592 L144.506999,190.869075 C144.526037,190.700226 144.544966,190.530022 144.563786,190.358463 L144.675401,189.312837 C144.693787,189.135853 144.712063,188.957512 144.730232,188.777814 L144.837941,187.683325 L144.943053,186.556215 L145.045574,185.396448 L145.145511,184.203987 L145.24287,182.978797 L145.337657,181.720839 C145.353241,181.508447 145.368717,181.294688 145.384087,181.079562 L145.475028,179.772387 L145.563411,178.432354 L145.649244,177.059428 L145.732532,175.653571 L145.813282,174.214747 L145.929662,171.99462 L146.004094,170.47322 L146.076009,168.918726 L146.145413,167.331102 L146.244827,164.887466 L146.338626,162.369082 L146.398051,160.648571 L146.48254,158.005333 L146.561471,155.287019 L146.611014,153.43304 L146.680728,150.589325 L146.765123,146.68039 L146.82203,143.660542 L146.873482,140.565004 L146.9195,137.393653 L146.960106,134.146365 L146.995321,130.823018 L147.025164,127.423489 L147.049658,123.947655 L147.068533,120.429962 L147.1044,118.494609 L147.156387,116.182561 L147.190743,114.89496 L147.214948,114.078247 L147.253182,112.915921 L147.293705,111.829141 L147.336488,110.818194 L147.403337,109.470981 L147.934546,109.37326 L148.411262,109.289953 L149.17313,109.164533 L149.991016,109.038595 L150.864769,108.912179 L151.794239,108.785325 L153.11994,108.615571 L154.178828,108.487845 L155.676539,108.317072 L156.864024,108.188689 L158.106369,108.060089 L159.728591,107.899659 L161.23939,107.756294 L162.728345,107.620699 L164.195448,107.492871 L165.640689,107.372809 L167.064059,107.260509 L168.46555,107.155969 L169.845151,107.059188 L171.202853,106.970162 L172.538647,106.88889 L173.852525,106.815368 L175.144476,106.749596 L176.414492,106.691571 L177.662564,106.641289 L178.888681,106.59875 L180.092836,106.56395 L181.275018,106.536887 C181.470217,106.533021 181.664499,106.529478 181.857866,106.526257 L183.007073,106.510796 L184.134284,106.503066 L185.213836,106.502567 L186.252138,106.506295 L188.288298,106.524888 L189.779953,106.548528 L191.241133,106.580433 L192.198291,106.606274 L193.608532,106.651861 L194.988121,106.705601 L196.336991,106.767452 L197.219137,106.813173 L198.087581,106.862468 L199.36451,106.943086 L200.610495,107.031677 L201.82547,107.128199 L202.618193,107.196933 L203.397083,107.269161 L204.162121,107.344871 L204.913287,107.424051 L206.013983,107.549299 L206.730383,107.637098 L207.432841,107.728324 L208.121338,107.822964 L208.795854,107.921006 L209.456369,108.022437 L210.420846,108.180912 L211.046271,108.290763 L211.657626,108.40396 L212.25489,108.520491 L212.838044,108.640343 C212.934059,108.660595 213.029486,108.680984 213.124323,108.701511 L213.686274,108.826323 L214.234065,108.954425 L214.767676,109.085806 L215.287088,109.220453 L215.792279,109.358353 C215.875292,109.381607 215.957711,109.404996 216.039537,109.42852 L216.523362,109.571278 C216.602811,109.595339 216.681665,109.619536 216.759925,109.643866 L217.222338,109.791453 L217.670453,109.942245 L218.104248,110.096229 L218.523705,110.253393 C218.592418,110.279851 218.660533,110.306441 218.728049,110.333163 L219.12596,110.495073 L219.509483,110.660132 L219.76461,110.774797 L219.609487,110.692327 C228.439645,115.481518 236.237414,115.058592 242.186183,108.605754 C248.943837,101.275488 249.827207,91.2910779 244.748598,81.7828552 L244.471557,81.2732359 L244.338515,81.0633218 C241.582205,76.7144254 238.153743,73.6971454 234.158158,72.1592204 C233.94543,72.0773402 233.726053,71.997831 233.499969,71.9206604 L233.038838,71.7694278 C232.960487,71.7447389 232.881385,71.7203073 232.801532,71.6961321 L232.313372,71.5541459 C232.230502,71.5309908 232.146876,71.5080896 232.062492,71.485441 L231.547065,71.3525718 C231.459638,71.330929 231.371448,71.3095364 231.282493,71.288393 L230.739563,71.1645111 C230.647539,71.144359 230.554746,71.1244536 230.46118,71.1047936 L229.890511,70.9897696 C229.697189,70.9524036 229.500764,70.9160099 229.301217,70.8805788 L228.693192,70.7771638 L228.066333,70.6794668 L227.420533,70.5874305 L226.755687,70.5009971 L226.07169,70.4201092 L225.368436,70.3447091 L224.645821,70.2747394 L223.90374,70.2101423 L223.142086,70.1508604 L222.360755,70.096836 L221.559641,70.0480117 L220.738639,70.0043298 L219.897645,69.9657328 L219.036552,69.9321631 C218.891356,69.9269839 218.745318,69.9220118 218.598436,69.9172455 L218.088836,69.9016159 L217.422163,69.9039026 L216.799318,69.9107627 L216.153856,69.9221962 L215.143233,69.9479216 L214.081668,69.9839372 L212.969126,70.0302429 L211.406386,70.1079909 L209.752887,70.2040327 L208.008553,70.3183682 L206.173306,70.4509976 L204.737164,70.5624749 L202.742635,70.7271185 L201.186942,70.8626066 L199.032895,71.0592646 L197.357475,71.2187636 L193.852506,71.5686326 L191.401585,71.8247462 L188.859155,72.0991539 L186.892233,72.3169651 L183.499458,72.7028517 L180.682037,73.0321419 L177.031134,73.4694809 L173.236616,73.9354048 L170.890907,74.2286799 L166.044092,74.8461018 L160.989865,75.5046862 C160.703308,75.5424176 160.41579,75.5803396 160.12731,75.6184522 L158.333443,75.8365907 L157.042788,75.9879044 L155.79926,76.1286754 L153.831925,76.3398455 L152.353232,76.4876585 L150.9596,76.6166765 L149.970455,76.7010952 L149.029579,76.7749245 L148.137151,76.838157 L147.022924,76.9059703 L146.244245,76.9444482 L145.752365,76.9641998 L145.202018,76.9809534 L145.201984,76.7412476 L145.208328,75.7525407 L145.224427,74.6902326 L145.250306,73.5546351 L145.285989,72.3460595 L145.315237,71.499953 L145.367315,70.1704397 L145.429262,68.7687792 L145.501103,67.295283 L145.582861,65.7502625 L145.674562,64.1340293 L145.824437,61.8313928 L145.919791,60.2855061 L146.009226,58.7664445 L146.092683,57.2740688 L146.170103,55.8082398 L146.241426,54.3688185 L146.306593,52.9556657 L146.365544,51.5686422 L146.418219,50.2076088 L146.46456,48.8724265 L146.504505,47.5629561 L146.537997,46.2790583 L146.564974,45.0205942 L146.585379,43.7874244 L146.59915,42.57941 L146.606229,41.3964116 L146.606557,40.2382903 C146.605534,39.8563805 146.603376,39.4785937 146.600072,39.1049067 L146.586717,37.9961218 C146.583916,37.8133665 146.580825,37.6316303 146.577444,37.4509104 L146.553671,36.3787626 C146.549125,36.2020961 146.544287,36.02644 146.539156,35.8517915 L146.50483,34.8159677 L146.463395,33.804186 C146.455894,33.6375514 146.448093,33.4719129 146.439993,33.3072674 L146.387783,32.3312879 C145.913233,24.1363593 144.652088,18.5092886 142.439779,15.0655244 L142.411888,15.0241012 C140.400802,11.8510173 137.197312,9.12659616 132.705868,6.59944905 L132.039378,6.23100172 C131.588908,5.98627011 131.126134,5.74329945 130.650968,5.50185632 L129.928913,5.14080809 L129.188205,4.78187606 C128.813176,4.60290992 128.431126,4.4246717 128.042019,4.24706292 L127.254383,3.89265543 C127.121538,3.83371767 126.987906,3.77484254 126.853486,3.71602642 L126.037494,3.36380841 L125.622381,3.18817566 C125.34418,3.07123801 125.069783,2.9574928 124.79915,2.84694472 L123.998503,2.52489658 C123.866931,2.47282202 123.73629,2.42154792 123.606574,2.37107486 L122.839356,2.07785369 C120.066673,1.03798968 117.737374,0.386397885 115.798337,0.129322828 C114.193712,-0.083416451 112.767082,-0.0460626316 111.437835,0.334069673 L111.229686,0.396673759 Z"></path>
        </g>
        <path d="M337.37028,234 C339.082152,234 341.053907,234.976271 343.582774,236.857693 L343.933008,237.121538 L344.181473,237.252113 C346.442571,238.415188 348.572376,239.190112 350.569434,239.58536 L350.967075,239.65935 L351.469817,239.741938 C358.151051,241.041657 362.973988,243.155658 366.017345,246.319744 C369.340247,249.774466 371,254.818511 371,261.055996 C371,264.832874 369.814557,268.851796 367.563762,273.195429 C365.435179,277.303214 363.204323,280.000836 360.719896,281.120765 L360.486233,281.221131 L360.289865,281.296313 L360.19159,281.346588 C358.987729,281.925887 357.35995,282.150205 355.198668,282.071908 L354.669661,282.047333 C354.579768,282.042278 354.489006,282.036745 354.39737,282.030738 L353.837002,281.989035 L353.255307,281.936113 L352.651946,281.872133 C352.549562,281.860558 352.446261,281.848528 352.342036,281.836047 L351.705548,281.755784 L351.046553,281.664865 L350.364715,281.563452 L349.659697,281.451705 L348.577195,281.268697 L347.870891,281.144209 L347.188526,281.020306 L346.209408,280.835314 L345.282978,280.651031 L344.408533,280.46709 L343.854102,280.344472 L343.322254,280.221734 L342.81278,280.098769 L342.090064,279.913657 L341.635613,279.789648 L341.202805,279.665031 L340.791432,279.539698 L340.401286,279.41354 L340.032158,279.286449 C339.912595,279.243917 339.796501,279.201213 339.68384,279.158316 L339.356121,279.029033 L339.048795,278.898491 C338.999262,278.876623 338.95057,278.854698 338.902714,278.832714 L338.625585,278.700081 L338.368326,278.565917 L338.13073,278.430115 L338.050216,278.381991 L337.928843,278.344308 L337.731756,278.288628 L337.363576,278.194219 L337.034439,278.11656 L336.66791,278.035154 L336.264182,277.950062 L335.823446,277.861341 L334.831724,277.673256 L333.694285,277.471374 L332.602948,277.287419 L330.445253,276.94317 L329.070781,276.733724 L326.013457,276.287126 L321.614366,275.677084 L318.594883,275.274375 L316.884849,275.05674 L315.218349,274.855426 L313.595444,274.670415 L312.537756,274.556122 L311.499488,274.449061 L310.480658,274.349227 L309.481284,274.256614 L308.501383,274.171216 L307.068084,274.056636 L306.136946,273.989253 L305.225344,273.929065 L304.333296,273.876069 L303.46082,273.830257 L302.607934,273.791625 L301.774656,273.760168 L300.961003,273.735878 L300.166994,273.718752 L299.392647,273.708784 C299.265229,273.707718 299.13863,273.706951 299.012852,273.706482 L298.26803,273.707239 L297.542915,273.71514 L296.837523,273.730179 L296.151874,273.752351 L295.485984,273.781651 L294.839872,273.818071 C294.733836,273.824735 294.628625,273.831695 294.524239,273.838951 L293.907827,273.886044 L293.311238,273.940245 L292.734489,274.001548 C292.640018,274.012357 292.546375,274.023462 292.45356,274.034862 L291.906605,274.106808 L289.960455,274.39146 L288.806096,274.554036 L287.023127,274.795748 L285.178418,275.034883 L283.271941,275.271448 L281.303669,275.505448 L279.957144,275.660026 L277.88582,275.889764 L276.470569,276.041507 L274.296119,276.267 L272.812092,276.415918 L270.534441,276.637183 L269.286596,276.755483 L268.325426,276.851578 L267.348996,276.955512 L265.855741,277.12611 L264.841168,277.249641 L263.811342,277.381011 L262.766265,277.52022 L261.705939,277.667269 L260.086864,277.902543 L258.988425,278.069192 L257.312191,278.333866 L255.601671,278.616182 L253.856873,278.91614 L252.077804,279.23374 L250.872723,279.455275 L249.652416,279.684652 L247.79341,280.043422 L245.900159,280.419836 L244.618969,280.680582 L243.322565,280.94917 L241.349434,281.366758 L239.342081,281.801994 L237.300514,282.254877 L235.920465,282.566603 L234.525215,282.886174 L232.403842,283.380238 L230.24828,283.891951 L228.792248,284.2429 L226.579719,284.784031 L223.576527,285.532999 L221.284278,286.115319 L218.957876,286.715292 L215.802892,287.542718 L213.396827,288.183885 L210.135653,289.066238 L208.560122,289.497281 L207.026048,290.01982 L205.27211,290.60573 L203.95624,291.034376 L202.99594,291.338837 L202.328214,291.545013 L201.312665,291.846913 L200.585422,292.05133 L199.931597,292.223198 L199.631549,292.297053 L199.214309,292.392875 L198.835666,292.470896 L198.604236,292.513104 L198.287923,292.561832 L198.097212,292.584667 L197.922322,292.599842 L197.883338,292.60139 L197.745721,292.655817 L197.522504,292.75679 L197.260714,292.888409 L196.961729,293.050491 L196.62693,293.242852 L196.243772,293.473797 L195.830463,293.733124 L195.387185,294.020755 C195.310818,294.071047 195.23321,294.122516 195.154365,294.17516 L194.666481,294.505101 L194.14909,294.863152 L193.602377,295.249235 L193.026526,295.663272 L192.421721,296.105186 C188.373583,299.085141 183.444518,300.691236 177.66277,300.978502 L177.165104,301 L176.368432,301 L175.041143,300.987455 L174.118486,300.969564 L172.983829,300.934049 L172.203459,300.898429 L171.716394,300.870303 L171.255598,300.838609 L170.820833,300.803294 L170.216969,300.74341 L169.670333,300.67507 L169.337305,300.624722 C169.283877,300.616008 169.231484,300.607131 169.180121,300.598091 L168.884262,300.541881 L168.612885,300.481696 C167.874131,300.304451 167.022,299.926098 166.030381,299.341429 L165.596786,299.07821 C165.449356,298.98625 165.299004,298.890064 165.145653,298.789637 L164.676527,298.475618 C164.437389,298.312232 164.191333,298.139269 163.9381,297.95668 L163.421992,297.578648 L162.886291,297.174853 L162.330541,296.745202 L161.754286,296.289604 L161.157068,295.807969 L159.967519,294.841532 L159.41191,294.396136 L158.62827,293.775922 L157.904656,293.213346 L157.241406,292.708608 L156.638857,292.261913 L156.271047,291.99646 L155.928009,291.755264 L155.615009,291.542087 L155.337258,291.360236 L155.095978,291.210158 C155.058872,291.187818 155.023336,291.166819 154.989396,291.147173 L154.87016,291.080539 L154.775396,291.06939 C152.908788,290.794287 151.633795,289.120268 150.522381,286.480212 L150.411769,286.213002 L150.305564,285.948092 C149.512386,283.939346 148.849754,281.715917 148.313609,279.279708 L148.160117,278.560233 L148.142222,278.452899 C147.512218,274.674074 149.001185,270.989126 152.094198,266.957672 L152.386257,266.581559 L152.480568,266.47785 C154.779779,263.94952 156.964497,262.222156 159.082768,261.332765 L159.446296,261.185193 L159.714764,261.081472 L160.156787,260.917821 L160.646177,260.744414 L161.567634,260.433504 L162.62216,260.094897 L163.810689,259.728218 L165.134156,259.333092 L167.215485,258.731412 L169.565688,258.072216 L170.655862,257.771842 L170.782403,257.740532 C210.731218,248.917822 248.768908,243.602594 284.906986,241.796287 L289.043383,241.599544 L292.996637,241.39523 L296.15105,241.219198 L299.768307,241.001051 L302.07793,240.85144 L304.306015,240.69849 L306.452536,240.542208 L309.020947,240.342176 L310.500779,240.219665 L312.865104,240.011334 L314.222444,239.883852 L316.382549,239.667247 L318.018687,239.490249 L319.573068,239.309954 L320.372512,239.211964 L321.602204,239.053268 L322.769976,238.89239 L323.514001,238.783961 L324.57817,238.619605 L325.579935,238.453257 L326.213021,238.341287 L326.818238,238.228483 L327.673691,238.057763 L328.209001,237.942969 L328.716254,237.827417 L329.195396,237.711126 C329.533107,237.626418 329.845678,237.541799 330.132353,237.457846 L330.542849,237.332486 C330.607997,237.3117 330.671503,237.290974 330.733354,237.270315 L331.084525,237.147261 L331.395439,237.026282 L331.633942,236.922486 L331.800284,236.841533 L331.907812,236.782147 L331.975559,236.713261 C333.536204,235.108535 335.183416,234.165914 336.900319,234.019954 L337.134872,234.005001 L337.37028,234 Z M270.960186,181.031028 L271.561323,181.009786 L272.185622,181.000484 C272.503598,180.998795 272.830343,181.00153 273.165982,181.008609 L273.849155,181.028534 L274.556266,181.0599 C274.676125,181.066073 274.796991,181.072717 274.918868,181.079829 L275.662304,181.128087 L276.430234,181.187428 L278.862018,181.395257 L281.081559,181.566351 L282.098249,181.636465 L283.356997,181.71396 L283.944775,181.745859 L285.036937,181.79597 L285.782924,181.821586 L286.466071,181.83695 L287.08624,181.84207 C290.173565,181.84207 293.49588,184.046643 297.235622,188.224977 L297.516889,188.542049 L297.579854,188.615521 C301.261875,193.023277 303.414416,197.103231 303.896485,201.214972 C304.416503,205.650387 302.959511,209.959895 299.925553,214.150929 L299.780579,214.347811 L297.705535,217.442605 L295.567173,220.612122 C292.496945,225.088544 287.742918,225.192397 281.52122,221.902443 L280.933642,221.584097 C280.440422,221.310573 279.938286,221.016521 279.427335,220.702408 C276.874924,219.174659 272.910307,218.509127 267.591928,218.836354 L267.239072,218.859539 L266.15618,219.001685 C260.751306,219.732223 255.203573,220.813848 249.513054,222.247024 L248.291472,222.559514 L246.737017,222.970983 L245.158967,223.403894 L243.975571,223.739406 L243.135314,223.984016 L242.079467,224.29993 L241.098978,224.603151 L239.77348,225.031811 L238.989262,225.298552 L238.12403,225.608658 L237.526069,225.836764 L237.013814,226.045935 L236.68695,226.189733 L236.410065,226.321811 L236.253618,226.403126 L236.119946,226.478893 L236.018958,226.541429 L235.956699,226.616352 C234.485627,228.312213 232.849708,229.189631 231.114539,228.965491 L230.905846,228.933288 L230.696226,228.890402 L230.589158,228.864102 L230.364446,228.798839 L230.125247,228.716551 C230.084148,228.701408 230.042426,228.685548 230.000072,228.668969 L229.738282,228.560824 L229.460857,228.43523 L229.167336,228.292015 L228.857259,228.131012 L228.530166,227.952049 L228.185597,227.754957 L227.634971,227.424955 L227.244701,227.181798 L226.835344,226.919917 L226.184517,226.491617 L225.725434,226.182185 L224.99786,225.681763 L224.222168,225.137303 L223.208949,224.412713 L222.64575,224.071362 L221.995454,223.665724 C221.571493,223.397308 221.166619,223.132827 220.780517,222.871768 L220.215404,222.482682 C218.562069,221.32274 217.285711,220.226905 216.357771,219.148456 L216.206335,218.968868 L216.061323,218.789553 C214.664255,217.024208 213.505568,214.600037 212.534927,211.536377 L212.417899,211.160576 L212.337439,210.918639 C210.460313,205.212273 210.440515,200.329876 213.038118,197.071866 L213.185126,196.892542 L213.33755,196.716591 L213.508732,196.524317 L213.697174,196.365573 L213.860662,196.234944 L214.043378,196.102332 C214.075439,196.080063 214.108304,196.057709 214.141977,196.035271 L214.353716,195.899611 L214.584925,195.761868 L214.835701,195.622004 C214.879133,195.598514 214.923384,195.574934 214.968456,195.551263 L215.248763,195.408139 L215.548877,195.262792 L215.868897,195.115183 L216.208918,194.96527 L216.756664,194.735995 L217.349957,194.501313 L217.989125,194.261088 L218.913272,193.931932 L219.920327,193.592361 L221.011063,193.242053 L222.186254,192.880688 L223.446674,192.507945 L224.793096,192.123503 L226.226294,191.727041 L227.747042,191.318238 L229.356113,190.896774 L231.492836,190.351649 L233.770283,189.785612 L235.204928,189.435691 L237.198005,188.956834 L240.908656,188.084121 L244.317547,187.299808 L247.321286,186.61981 L251.42723,185.742197 L254.426383,185.081367 L256.815752,184.538669 L258.175302,184.221403 L260.133998,183.749698 L261.426261,183.42555 L262.740231,183.080218 L263.549852,182.855623 L264.119532,182.689414 L264.842999,182.462892 L265.2373,182.327289 L265.486509,182.233784 L265.630395,182.175386 L265.812705,182.093742 C267.098812,181.474643 268.798203,181.130985 270.960186,181.031028 Z M275.075564,126.778166 C277.865283,125.101519 280.709901,124.56742 283.442485,125.360574 L283.910227,125.504632 L284.251475,125.600638 L284.651134,125.703191 L285.274224,125.849929 L285.808712,125.967341 L286.610211,126.133497 L287.512433,126.310395 L288.780495,126.546233 L290.814529,126.902975 L292.449864,127.176087 L294.991064,127.582989 L296.675907,127.847482 L297.553986,127.99248 L298.404908,128.139469 L299.228863,128.288587 L300.02604,128.43997 L300.79663,128.593755 L301.540822,128.750082 L302.258806,128.909086 L302.950773,129.070905 C303.063943,129.098117 303.176037,129.125452 303.287059,129.152913 L303.940356,129.319213 L304.56811,129.488671 C304.978141,129.602726 305.371269,129.718979 305.74775,129.837612 L306.300016,130.01737 C307.82957,130.531873 309.060699,131.091027 310.012847,131.708894 L310.336918,131.924132 C314.274355,134.606128 316.07876,139.372866 315.997368,145.726746 L315.990582,146.095074 L315.979622,146.466902 C315.751447,153.001906 313.611494,158.145209 309.513582,161.559075 L309.316156,161.719921 L309.087044,161.917348 C306.91193,163.753715 304.707839,164.906969 302.45665,165.291272 L302.149376,165.338902 L301.841508,165.376952 C300.124043,165.562221 297.885459,165.319524 295.018204,164.675344 L294.255893,164.498208 C294.126441,164.467173 293.995782,164.435383 293.863909,164.402842 L293.05802,164.198579 C292.921251,164.163036 292.78325,164.126745 292.644008,164.089708 L291.793585,163.858555 L291.645997,163.814223 C287.457901,162.45887 281.985076,161.823694 275.25283,161.93821 L274.179382,161.962526 L273.085023,161.999328 C272.900889,162.006503 272.715884,162.0142 272.530009,162.022419 L271.404327,162.077998 L270.25779,162.146128 L269.09042,162.226835 C268.305235,162.284837 267.506175,162.35124 266.693272,162.42608 C256.079315,163.403248 246.562207,165.278454 238.142373,168.04302 L237.385473,168.295023 L236.148434,168.749804 L234.487832,169.349142 L233.302349,169.76842 L232.540254,170.033575 L231.43901,170.409807 L230.387518,170.760286 L229.713868,170.97966 L229.061891,171.18763 L228.124172,171.478239 L227.234224,171.743282 L226.66717,171.905803 L226.120907,172.057003 L225.595259,172.196899 L225.09005,172.325508 L224.605103,172.442846 L224.140242,172.54893 L223.695292,172.643777 C223.622783,172.658649 223.551096,172.673054 223.480228,172.686991 L223.064813,172.765013 L222.668869,172.831839 C222.540112,172.85225 222.414572,172.870798 222.292218,172.887485 L221.934685,172.93197 L221.596094,172.965308 C221.54123,172.969936 221.487149,172.974101 221.433846,172.977803 L221.123337,172.994453 L220.975032,172.998614 L220.83133,173 C219.767032,173 218.594328,172.655385 217.190875,171.948099 L216.762795,171.725016 C216.545171,171.608016 216.32208,171.482815 216.093109,171.349353 L215.627205,171.071394 C215.548207,171.023226 215.468525,170.974135 215.388144,170.92412 L214.897343,170.612912 C214.814104,170.559188 214.730135,170.504536 214.64542,170.448951 L214.128072,170.10425 L213.592107,169.737084 L213.036792,169.347346 C212.942586,169.280502 212.847544,169.212714 212.751649,169.143978 L212.165932,168.720177 L211.55903,168.273533 L210.319662,167.353582 L209.467217,166.731355 L208.941078,166.353275 L208.215592,165.841536 L207.7747,165.537455 L207.177998,165.137225 L206.834178,164.914591 L206.539968,164.730592 L206.288003,164.57974 L206.183532,164.520041 L206.013669,164.503782 C201.668741,164.014146 199.374948,159.897398 198.574743,153.477467 L198.535339,153.149052 L198.48882,152.725923 L198,144.658127 L216.839626,138.672091 L216.963091,138.635256 C232.084829,134.414437 246.578862,131.345355 260.446088,129.429744 L261.830721,129.242028 L261.957252,129.227476 L263.128467,129.109387 L264.25072,128.987469 L264.971403,128.904221 L266.010768,128.776633 L266.999629,128.646072 L267.937405,128.51286 L268.823519,128.377318 L269.657389,128.239767 L270.438439,128.100529 L270.929507,128.006926 L271.621234,127.86559 L272.052217,127.770885 L272.653013,127.628344 L273.022839,127.533134 L273.367902,127.437887 C273.42334,127.422015 273.477738,127.406146 273.531094,127.390281 L273.838691,127.29516 C273.887863,127.27932 273.935985,127.26349 273.983053,127.247669 L274.252798,127.152887 L274.497093,127.058451 C274.535678,127.042746 274.573196,127.027059 274.609643,127.011392 L274.815442,126.917652 C274.879738,126.886498 274.939721,126.85544 274.995362,126.824496 L275.075564,126.778166 Z" id="三" fill="#000000" fill-rule="nonzero"></path>
    </g>
</svg>