<?xml version="1.0" encoding="UTF-8"?>
<svg width="400px" height="305px" viewBox="0 0 400 305" version="1.1" xmlns="http://www.w3.org/2000/svg" xmlns:xlink="http://www.w3.org/1999/xlink">
    <title>13_s</title>
    <g id="13_s" stroke="none" stroke-width="1" fill="none" fill-rule="evenodd">
        <path d="M337.37028,233.5 C339.088276,233.5 341.016968,234.371316 343.562229,236.221903 L343.883627,236.458334 L344.165608,236.678935 L344.410182,236.807487 C346.45386,237.858724 348.389334,238.588487 350.208528,238.998071 L350.660899,239.093798 L351.048126,239.165963 L351.565293,239.251138 C358.437202,240.58795 363.294286,242.767393 366.377706,245.973133 C369.772298,249.502387 371.5,254.647278 371.5,261.055996 C371.5,264.857852 370.332917,268.938216 368.007701,273.42547 C365.849817,277.589801 363.626991,280.246472 361.172026,281.459806 L360.917229,281.580177 L360.665012,281.688076 L360.517581,281.741449 L360.408395,281.797138 C359.208084,282.37473 357.638923,282.62365 355.569398,282.582479 L355.175466,282.571369 L354.503298,282.538434 L354.360262,282.529359 L353.7917,282.486978 L353.202583,282.433325 L352.439594,282.351042 L351.637212,282.251092 L350.972994,282.159424 L350.286441,282.057287 L349.57635,281.944709 L348.490406,281.761107 L347.781563,281.636164 L347.0957,281.511614 L346.11186,281.325706 L345.180055,281.140323 L344.300562,280.955293 L343.74167,280.831667 L343.204944,280.707778 L342.688718,280.583133 L341.958438,280.396021 L341.49727,280.270128 L341.057083,280.143325 L340.637595,280.015443 L340.238514,279.886303 L339.864583,279.757531 L339.500354,279.623432 L339.160642,279.489237 L338.843508,279.354405 L338.686863,279.283722 L338.394381,279.143414 L338.120212,279.000013 L337.844,278.841 L337.607564,278.772958 L337.248756,278.680856 L336.926032,278.604666 L336.564792,278.524406 L336.165511,278.440229 L335.730279,278.352585 L334.744345,278.165562 L333.611177,277.964419 L332.524172,277.781174 L330.369931,277.437464 L328.99851,277.228474 L325.944777,276.782386 L321.548266,276.172695 L318.531757,275.770375 L316.824885,275.553131 L315.161716,275.352208 L313.541727,275.167521 L312.486471,275.053485 L311.450727,274.946678 L310.43452,274.847094 L309.437873,274.754726 L308.461539,274.669626 L307.031995,274.555332 L306.104006,274.488166 L305.195691,274.428185 L304.307078,274.375381 L303.438195,274.329745 L302.589071,274.29127 L301.759736,274.259945 L300.950221,274.235762 L300.160558,274.218711 L299.389616,274.208774 L299.01336,274.206481 L298.273478,274.207209 L297.553573,274.215026 L296.853684,274.229918 L296.173853,274.251868 L295.514124,274.280858 L294.562327,274.337498 L293.953066,274.383993 L293.364086,274.437444 L292.518768,274.530591 L291.978967,274.601544 L290.030185,274.886574 L288.873266,275.049503 L287.087406,275.291599 L285.239988,275.531078 L283.330968,275.767951 L281.360693,276.002185 L280.012262,276.156978 L277.939124,276.386915 L276.522143,276.53884 L274.346042,276.764502 L272.860438,276.913575 L269.336336,277.253003 L268.378349,277.34877 L267.40575,277.452281 L265.916173,277.622445 L264.904438,277.745622 L263.877362,277.876633 L262.834949,278.01548 L261.777841,278.162073 L260.161863,278.396886 L259.066408,278.563073 L257.393613,278.827192 L255.686386,279.108953 L253.944744,279.408358 L252.168207,279.725499 L250.965089,279.94667 L249.747162,280.175593 L247.890912,280.533823 L245.999874,280.909792 L244.720405,281.170184 L243.42609,281.438335 L241.455382,281.855404 L239.450364,282.290128 L237.410679,282.742589 L236.032095,283.053983 L234.638629,283.373141 L232.519329,283.866718 L230.36544,284.378031 L228.911035,284.728584 L226.700708,285.269172 L223.699636,286.017606 L221.409141,286.599477 L219.084716,287.198936 L215.931639,288.025858 L213.527413,288.666531 L210.267597,289.548515 L208.721337,289.970578 L207.18447,290.494059 L205.426976,291.081142 L204.107351,291.510994 L203.143455,291.816581 L202.47069,292.024284 L201.447964,292.32826 L200.712537,292.534901 L200.051101,292.708707 L199.743464,292.784367 L199.315216,292.882587 L198.925376,292.962782 L198.680363,293.007274 L198.347368,293.058285 L198.140432,293.082796 L197.993,293.095 L197.951795,293.111375 L197.747098,293.203508 L197.499005,293.327974 L197.21082,293.484027 L196.88504,293.67108 L196.509514,293.897331 L196.102624,294.152562 L195.594608,294.482957 L194.951009,294.91625 L194.437515,295.271577 L193.894262,295.655194 L193.321508,296.066986 L192.718135,296.50785 C188.744078,299.433272 183.925651,301.072955 178.27217,301.44416 L177.684349,301.478036 L177.165104,301.5 L176.363707,301.5 L175.031449,301.487361 L174.102843,301.469319 L172.961031,301.433529 L172.174633,301.397598 L171.682085,301.369124 L171.215117,301.336968 L170.771491,301.300853 L170.154943,301.239548 L169.595591,301.169452 L169.086796,301.089305 L168.776003,301.030021 L168.496233,300.967898 C167.785849,300.79746 166.990563,300.460191 166.079089,299.946585 L165.770918,299.768839 L165.332165,299.502446 L165.103791,299.358144 L164.867526,299.205143 L164.394461,298.88846 L164.149932,298.719759 L163.642646,298.360049 L163.121029,297.977925 L162.580474,297.570424 L162.020443,297.137425 L161.440406,296.678809 L160.841786,296.196038 L159.654782,295.231655 L159.10161,294.7882 L158.321379,294.17066 L157.60186,293.611234 L156.943636,293.110271 L156.346248,292.667351 L155.98346,292.405476 L155.64655,292.168521 L155.341126,291.960403 L155.073172,291.784805 L154.713,291.565 L154.702494,291.564047 C152.875088,291.294722 151.530332,289.899772 150.333994,287.294252 L150.196595,286.988238 L150.060399,286.67145 L149.947677,286.399061 L149.840506,286.131725 C149.119623,284.306067 148.504062,282.303086 147.991613,280.118833 L147.824613,279.38403 L147.666924,278.642458 L147.649029,278.535124 C147.037926,274.869671 148.2923,271.212028 151.410659,267.032428 L151.699281,266.651012 L152.01634,266.245164 L152.110651,266.141455 C154.365542,263.661862 156.496514,261.959381 158.568094,261.012683 L158.894701,260.869482 L159.266104,260.718791 L159.541164,260.612576 L159.989794,260.446532 L160.486326,260.270655 L161.414772,259.957444 L162.474758,259.617118 L163.667651,259.249114 L164.995299,258.85276 L167.080453,258.249991 L169.432873,257.590179 L170.535771,257.286478 L170.674576,257.252297 C209.927654,248.583241 247.334588,243.298997 282.908773,241.39893 L284.883231,241.296852 L289.017576,241.10021 L292.968778,240.896007 L296.12095,240.720105 L299.735986,240.502097 L302.043687,240.352613 L304.269707,240.19981 L306.413713,240.043718 L308.979695,239.843881 L310.456892,239.721595 L312.818349,239.513525 L314.172556,239.386347 L316.328772,239.170147 L317.961078,238.993578 L319.512237,238.813668 L320.308515,238.716076 L321.533966,238.557946 L322.697871,238.397616 L323.437683,238.28982 L324.496264,238.126359 L325.492854,237.960899 L326.121406,237.849752 L326.720384,237.738152 L327.568853,237.568877 L328.097945,237.455459 L328.598324,237.341523 L329.07375,237.226149 C329.293217,237.1711 329.502639,237.115901 329.699874,237.061213 L329.986318,236.979647 L330.568006,236.798447 L330.903213,236.681293 L331.195915,236.567816 L331.415146,236.472899 L331.558555,236.40385 L331.603,236.379 L331.617117,236.364665 C333.112475,234.82707 334.673509,233.888664 336.29408,233.596983 L336.580679,233.552232 L336.868508,233.520967 L337.124252,233.505114 L337.37028,233.5 Z M111.300358,-0.146659098 C112.655711,-0.534256856 114.131753,-0.596006052 115.864052,-0.366339985 C117.584135,-0.138293558 119.604362,0.391480084 121.98295,1.23332088 L122.498154,1.41849564 L123.017857,1.61080194 L123.985184,1.98221238 L124.989428,2.38456553 L125.817209,2.72769535 L126.235644,2.9047481 L127.256705,3.34699511 L128.25152,3.79307024 L128.833752,4.06176896 L129.406243,4.33192146 L130.152531,4.69359974 L130.877467,5.05610059 L131.353217,5.3004899 L131.821389,5.54636319 L132.281284,5.79341544 L132.951051,6.16369072 C137.241178,8.57756561 140.323022,11.1452714 142.370825,14.0623949 L142.602531,14.4005479 L142.860454,14.7952787 C144.78739,17.7948202 146.008875,22.3699759 146.624563,28.833447 L146.724193,29.9600268 L146.812067,31.1239522 L146.887069,32.3045784 L146.951389,33.531979 L147.004556,34.7994076 L147.053548,36.3676785 L147.082233,37.7146707 L147.100059,39.101272 L147.106557,40.2384316 L147.10622,41.3994037 L147.099118,42.5851097 L147.08531,43.7956965 L147.064859,45.0313102 L147.037826,46.2920968 L147.004273,47.5782015 L146.964259,48.8897696 L146.917845,50.2269456 L146.865093,51.5898738 L146.806062,52.9786984 L146.740814,54.3935631 L146.669407,55.8346114 L146.591903,57.3019864 L146.508361,58.7958312 L146.418842,60.3162886 L146.323381,61.8638684 L146.173759,64.1623524 L146.082162,65.7766842 L146.000509,67.3196316 L145.928774,68.7908554 L145.866932,70.19001 L145.814939,71.5172264 L145.785772,72.3608156 L145.750176,73.5660266 L145.72437,74.6978092 L145.708318,75.7557486 L145.703,76.465 L146.219568,76.4450576 L146.99255,76.4068938 L148.101813,76.3394074 L148.990465,76.2764568 L149.927937,76.2029063 L150.913509,76.1188054 L152.303499,75.990138 L153.778563,75.8427012 L155.743017,75.6318486 L156.984568,75.4913056 L158.273086,75.340247 L160.061876,75.1227524 L165.980909,74.35011 L170.828877,73.7325426 L173.175679,73.439132 L176.971665,72.9730302 L180.623994,72.5355223 L183.442953,72.2060547 L186.8372,71.8200029 L188.805501,71.6020409 L191.349619,71.3274539 L193.802842,71.0711052 L197.31009,70.721014 L198.987435,70.5613355 L201.14356,70.3644922 L202.701501,70.2288134 L204.698469,70.0639745 L206.137266,69.9522981 L207.97585,69.8194389 L209.723894,69.704874 L211.381541,69.6086086 L212.948334,69.5306754 L214.064714,69.4842247 L215.13051,69.4480835 L216.145,69.4222746 L216.793811,69.410793 L217.420448,69.4039056 L218.104164,69.4018509 L219.05603,69.4325426 L219.920568,69.4662586 L220.765205,69.5050361 L221.590057,69.5489377 L222.395244,69.598027 L223.180885,69.652368 L223.9471,69.712026 L224.69401,69.7770669 L225.421739,69.8475584 L226.130409,69.9235692 L226.820147,70.0051696 L227.491078,70.0924321 L228.143329,70.1854308 L228.77703,70.2842427 L229.390456,70.3886069 L229.989304,70.4996268 L230.566052,70.6159154 L230.850791,70.6770397 L231.534357,70.8346638 L232.193325,71.002862 L232.453015,71.0740419 L232.947744,71.2179877 L233.194653,71.2943259 L233.661486,71.447467 C233.893636,71.5267078 234.119037,71.6084034 234.337765,71.692593 C238.148434,73.1593425 241.462051,75.9350907 244.181853,79.9157874 L244.470984,80.3468966 L244.760836,80.7956566 L244.910843,81.0344299 L245.189629,81.5472882 C250.387263,91.2783496 249.431862,101.483785 242.553803,108.944657 C236.634713,115.365302 228.797409,116.098776 219.770139,111.345123 L219.544,111.224 L219.311823,111.119404 L218.937513,110.958202 L218.348273,110.721606 L217.936988,110.567424 L217.510987,110.416134 L217.07031,110.26778 L216.381862,110.050838 L215.660613,109.840706 L215.16162,109.704455 L214.648141,109.571307 L214.120211,109.44129 L213.577864,109.314429 L212.877795,109.159925 L212.159141,109.011238 L211.566594,108.895604 L210.959774,108.783225 L210.339777,108.674296 L209.380477,108.516644 L208.723934,108.415807 L208.053249,108.318307 L207.368449,108.224161 L206.66956,108.133385 L205.957453,108.046093 L204.860873,107.921296 L204.11288,107.84244 L203.350915,107.767025 L202.575001,107.695064 L201.785873,107.626628 L200.575034,107.530418 L199.333005,107.442092 L198.059245,107.361665 L197.193258,107.312503 L196.314087,107.266928 L194.968659,107.205222 L193.592378,107.151599 L192.184797,107.106092 L191.230218,107.080314 L189.772029,107.048465 L188.283733,107.024867 L186.250342,107.006292 L185.214067,107.002567 L184.137712,107.003055 L183.013799,107.01075 L181.286461,107.036756 L180.10728,107.063741 L178.906018,107.098449 L177.682691,107.140884 L176.437313,107.191049 L175.169898,107.24895 L173.88046,107.314587 L172.569012,107.387967 L171.235568,107.46909 L169.88014,107.557962 L168.502742,107.654584 L167.103386,107.75896 L165.682084,107.871092 L164.238848,107.990984 L162.773691,108.118638 L161.286624,108.254058 L159.777799,108.397231 L158.157851,108.557432 L156.917767,108.685792 L155.733184,108.813853 L154.238705,108.984247 L153.183446,109.111521 L151.861852,109.280732 L150.936364,109.407027 L150.067109,109.532771 L149.254348,109.657892 L148.497334,109.782489 L147.883,109.891 L147.836041,110.839334 L147.793358,111.847772 L147.752912,112.93236 L147.714728,114.093059 L147.690566,114.908296 L147.656261,116.193801 L147.604314,118.503873 L147.568526,120.432645 L147.549645,123.951178 L147.525145,127.427878 L147.495293,130.828316 L147.460067,134.152617 L147.419448,137.400907 L147.373413,140.573314 L147.321941,143.669963 L147.265007,146.691183 L147.180578,150.601579 L147.110836,153.446396 L147.061261,155.301531 L146.982285,158.021307 L146.897753,160.66583 L146.83828,162.387692 L146.744413,164.907791 L146.644936,167.352939 L146.575474,168.941833 L146.503496,170.497652 L146.428976,172.020794 L146.312497,174.242764 L146.231657,175.683141 L146.148269,177.090626 L146.062327,178.465261 L145.973822,179.807088 L145.836243,181.758408 L145.741299,183.018404 L145.643765,184.245745 L145.543632,185.440476 L145.440893,186.602643 L145.335537,187.732294 L145.172577,189.365908 L145.003674,190.926641 L144.887751,191.926727 L144.769157,192.894556 L144.586227,194.285945 L144.461124,195.171818 L144.397202,195.605096 L144.268145,196.442176 C144.202741,196.853965 144.136319,197.253674 144.068759,197.641943 L143.966551,198.215847 L143.811015,199.036232 L143.61506,200.121583 L143.491394,200.830949 L143.324935,201.827408 L143.226954,202.444271 L143.139311,203.022997 L143.062013,203.563068 L142.995067,204.06392 L142.913876,204.742115 L142.877,205.097 L142.902497,205.193516 C143.270006,206.666712 143.325753,208.216244 143.105338,209.93469 L143.044501,210.367874 L142.972281,210.808417 L142.896629,211.216321 L142.843242,211.481436 C142.560054,212.846701 142.106993,214.328733 141.455315,216.040955 L141.272638,216.513717 L141.061693,217.049031 L140.952881,217.347899 L140.783931,217.846413 L140.667734,218.211911 L140.488043,218.810834 L140.302788,219.46812 L140.112844,220.180911 L139.983522,220.687383 L139.852306,221.217912 L139.651214,222.062031 L139.514978,222.654273 L139.306698,223.590053 L139.165764,224.243221 L138.950835,225.269083 L138.731946,226.349339 L138.584102,227.098486 L138.359193,228.267321 L138.130734,229.48951 L137.976687,230.332899 L137.742883,231.641843 L137.426205,233.468812 L137.185325,234.899006 L136.941601,236.380877 L136.762133,237.482171 L136.744184,237.696007 C136.369308,241.878227 135.334732,244.972242 133.41637,247.200769 L133.199571,247.444832 L132.953993,247.703187 L132.76549,247.889801 C130.675824,249.904676 128.124014,250.665251 124.644512,250.469667 L124.268137,250.445066 L123.906322,250.415219 L123.740475,250.399112 L123.346485,250.336747 C118.474306,249.481495 114.636397,245.316519 112.043257,238.398378 C110.116444,233.257909 108.773213,226.383921 107.942332,217.531404 L107.870347,216.745159 L107.786159,215.770153 L106.882125,198.244837 L105.387488,167.995306 L105.050959,160.741252 L104.866918,156.52575 L104.701578,152.444584 L104.584881,149.225917 L104.522157,147.243432 L104.469579,145.245325 L104.447021,144.137317 L104.43043,142.949552 L104.425705,142.241436 L104.42566,141.699048 L104.432759,140.940915 L104.442427,140.495556 L104.4565,140.094128 L104.456578,123.100314 L104.349,117.043 L103.550354,117.198027 L101.851267,117.50956 L99.6080571,117.901755 L96.6959486,118.389011 L94.6835595,118.715483 L91.2061838,119.266036 L89.8333476,119.487578 L88.94217,119.635891 L87.6395773,119.859569 L86.3790065,120.084489 L85.1605914,120.310584 L83.9838105,120.537914 L83.2232633,120.689968 L82.482334,120.842307 L81.4054426,121.0718 L80.3713251,121.302149 L79.3792401,121.533492 L78.7423285,121.687983 L78.1246143,121.842756 L77.5272051,121.997498 L76.6646596,122.230734 L76.1145547,122.386263 L75.5852001,122.541534 L74.5811733,122.853545 L74.1092461,123.009399 L73.6570408,123.165219 L73.2232653,123.321463 L72.2781425,123.674886 L71.5676361,123.936207 L70.8791427,124.184623 L70.2123905,124.42015 L69.5671043,124.642802 L68.9430051,124.852597 L68.3398091,125.049549 L67.6167251,125.277105 L66.921359,125.485831 L66.1301801,125.70919 L65.382618,125.903771 L64.7955164,126.043198 L64.2305104,126.1641 L63.8043159,126.245308 L63.3899792,126.314622 L63.0019346,126.36976 L62.6887561,126.409154 L62.5361924,126.434293 L62.2633564,126.48814 L61.944165,126.560629 L61.7125021,126.617684 L61.0384055,126.798691 L60.5814942,126.930434 L59.9079342,127.134212 L59.3580292,127.307189 L58.564324,127.565129 L57.4763366,127.931355 L56.5321861,128.25869 L55.5238334,128.616351 L54.1734101,129.106375 L51.8631636,129.960466 C46.4496723,131.934967 40.9929425,133.596235 35.5146924,134.938014 C30.0069705,136.316726 25.151023,136.591194 20.8892666,135.739611 C16.788169,134.920132 12.6123735,132.826059 8.34126604,129.473032 L7.86630527,129.095294 L7.43304955,128.741128 L7.26047154,128.605476 C2.49351026,124.788055 -0.139280183,120.263753 -0.465684259,114.89088 L-0.486240276,114.475906 L-0.497467541,114.062387 L-0.5,113.750968 C-0.5,109.273885 0.489339634,105.889711 2.72291828,103.46687 C3.44516979,102.683418 4.33441184,101.978425 5.49474166,101.263361 L5.85107734,101.048452 L6.21376273,100.838484 L6.69224281,100.572766 L7.19571922,100.304687 L7.72382542,100.033831 L8.28180057,99.7570054 L8.86715123,99.4748978 L10.0262079,98.9336895 L10.9638995,98.51276 L11.7354041,98.1783931 L12.5239866,97.8469247 L13.5338447,97.4365268 L14.5759846,97.0283179 L15.4290593,96.7048449 L16.7433214,96.2238247 L17.6421344,95.9060792 L18.3287863,95.6690727 L19.0263405,95.4331348 L19.9720146,95.1206582 L21.4253777,94.6559578 L22.4175515,94.3488085 L23.9407616,93.8920188 L24.9795645,93.5900908 L26.0370546,93.2902225 L27.1132521,92.992398 L28.2081767,92.6966015 L29.3218485,92.4028173 L30.4542869,92.1110299 L31.6055114,91.8212243 L32.7755415,91.5333853 L33.9650014,91.2473561 L35.7835959,90.8221626 L37.6440996,90.4013986 L38.9089857,90.1230547 L40.8603204,89.7050987 C52.0419184,87.3484432 62.7988579,85.7394565 73.1213775,84.8800583 L74.5930668,84.7623866 L76.559047,84.6172796 L77.5538425,84.5385589 L78.5279743,84.4562413 L79.9534332,84.3257825 L80.87821,84.2343336 L81.7828943,84.1392928 L82.6674464,84.0406806 L83.5318257,83.938518 L84.375991,83.8328265 L85.1999003,83.723628 L86.0035105,83.610945 L86.7867777,83.494801 L87.5496567,83.3752201 L88.2909419,83.2524317 L89.367348,83.0613989 L90.0584936,82.9299946 L90.7290304,82.7952768 L91.3789047,82.6572773 L92.0080602,82.5160305 L92.6164387,82.3715734 L93.203979,82.2239461 L93.7722781,82.0727275 L94.5858488,81.846305 C98.2226251,80.8464679 101.456574,80.2248916 104.325976,79.979674 L104.895007,79.935648 L105.216,79.916 L105.024147,75.2288096 L104.928711,73.9441763 L104.823411,72.4088939 L104.7564,71.3545133 L104.691955,70.2756975 L104.63005,69.1720044 L104.542027,67.471228 L104.459767,65.7156884 L104.408087,64.514047 L104.335366,62.6661048 L104.268374,60.7631808 L104.226877,59.46359 L104.187908,58.1390841 L104.134222,56.1068604 L104.101581,54.7207535 L104.057364,52.5957301 L104.018825,50.4153615 L103.976244,47.4212992 L103.958724,45.8871325 L103.943713,44.3279748 L103.9259,41.9430716 L103.913722,39.5023259 L103.90717,37.0055993 L103.906594,34.0732903 L103.916649,30.5351627 L103.934285,27.7827911 L103.954478,25.7088804 L103.973198,24.2272484 L104.011198,21.9002825 L104.047755,20.1657657 L104.078787,18.93851 L104.11294,17.7739934 L104.163305,16.3200745 L104.208747,15.2113779 L104.256856,14.1977232 L104.309169,13.2447032 L104.354077,12.5276251 L104.426931,11.5243917 L104.506798,10.6058569 L104.563996,10.041048 L104.593763,9.77315188 C104.707053,8.78492055 104.83872,7.96968 105.00955,7.22515082 C105.298737,5.96478457 105.631464,5.01954129 106.135269,4.14474401 L106.29167,3.88417353 L106.491,3.582 L106.564545,3.46221751 C107.497134,1.98896966 108.723938,0.918352342 110.183176,0.261592259 L110.478104,0.135761666 L110.779121,0.0209872238 L111.085676,-0.0821383738 L111.300358,-0.146659098 Z M272.178173,180.500272 L272.507956,180.500272 L273.180559,180.508821 L273.871312,180.529026 L274.581983,180.560562 L274.951256,180.580879 L275.700826,180.629573 L276.472811,180.689244 L278.900447,180.896736 L281.115958,181.067536 L282.128974,181.137409 L283.384092,181.214694 L283.967693,181.246384 L285.054095,181.296265 L285.794167,181.321712 L286.470199,181.336967 L287.08624,181.34207 C290.192608,181.34207 293.502929,183.397217 297.28438,187.533536 L297.609664,187.893175 L297.963584,188.294972 C301.805908,192.894628 303.910324,197.03912 304.393084,201.15675 C304.899381,205.475138 303.60519,209.766615 300.613606,214.046221 L300.328175,214.4474 L300.195869,214.62626 L298.120023,217.722246 L295.979508,220.894929 C292.885693,225.405742 288.084774,225.835586 281.624577,222.520025 L281.283035,222.342066 L280.691151,222.021359 C280.192913,221.745052 279.684414,221.447377 279.170544,221.131429 C276.767479,219.693071 273.039748,219.060678 268.136167,219.306691 L267.304146,219.355287 L266.223152,219.497179 C261.250573,220.169288 256.156619,221.139667 250.942894,222.408107 L249.636968,222.731426 L248.419417,223.042867 L246.869296,223.453168 L245.29535,223.884934 L244.115327,224.219477 L243.278638,224.463034 L242.227192,224.777609 L241.252831,225.078892 L239.934489,225.505177 L239.157958,225.769234 L238.30224,226.075821 L237.715085,226.299661 L237.215158,226.503604 L236.90222,226.641019 L236.640657,226.765464 L236.500171,226.838111 L236.35,226.923 L236.334397,226.943986 C234.850047,228.655154 233.220567,229.547742 231.507511,229.496971 L231.273401,229.484189 L231.038288,229.459642 L230.805628,229.423141 L230.576953,229.375967 L230.449707,229.344261 L230.201793,229.271643 L229.902554,229.167114 L229.80917,229.131091 L229.532072,229.016321 L229.241604,228.884594 L228.936926,228.735762 L228.617266,228.56965 L228.281911,228.386064 L227.928564,228.183832 L227.370568,227.849326 L226.975252,227.602983 L226.560481,227.337589 L225.90506,226.90623 L225.442087,226.594149 L224.710607,226.091013 L223.93132,225.544006 L222.949789,224.840306 L222.381124,224.495595 L221.727995,224.088175 C221.441325,223.90668 221.164049,223.727441 220.894857,223.549545 L220.49697,223.283595 L219.92824,222.891995 C218.357284,221.789848 217.129791,220.750152 216.201416,219.726408 L215.975528,219.470777 L215.817557,219.283275 L215.669246,219.099837 C214.328095,217.405148 213.192787,215.119846 212.226342,212.205815 L212.057539,211.68504 L211.943448,211.318361 L211.862477,211.074879 C209.894945,205.093682 210.020667,200.269423 212.476336,196.981749 L212.651445,196.754874 L212.80721,196.56516 L212.964108,196.384113 L213.186597,196.141918 L213.385061,195.974951 L213.566972,195.830288 L213.826984,195.644575 L214.097813,195.47006 L214.341379,195.325193 L214.741082,195.105953 L215.030824,194.958136 L215.339455,194.808763 L215.667185,194.657676 L216.015859,194.504045 L216.57275,194.271048 L217.174051,194.033278 L217.821362,193.790073 L218.753514,193.458142 L219.767436,193.11631 L220.864107,192.764137 L222.04446,192.401215 L223.309396,192.02716 L224.659789,191.641601 L226.096494,191.244183 L227.620351,190.834555 L229.232511,190.412292 L231.372235,189.866411 L233.651803,189.299852 L235.088122,188.949526 L237.083533,188.470115 L240.796546,187.596852 L244.207148,186.812148 L247.216776,186.130854 L251.319641,185.25391 L254.315638,184.593786 L256.702125,184.051751 L258.058236,183.735301 L260.012347,183.264723 L261.299169,182.941972 L262.606575,182.598413 L263.409811,182.375635 L263.970131,182.212256 L264.680393,181.990071 L265.061653,181.859156 L265.298473,181.770489 L265.426037,181.719055 L265.595836,181.643222 C266.851235,181.038905 268.464143,180.684511 270.499817,180.555537 L270.942528,180.53134 L271.553875,180.509841 L272.178173,180.500272 Z M274.745261,127.391541 L274.817998,127.34961 C277.65748,125.643055 280.528394,125.098391 283.266522,125.794555 L283.589657,125.882724 L284.045638,126.023317 L284.375751,126.116328 L284.765749,126.216505 L285.381502,126.361573 L285.910207,126.477751 L286.706414,126.642839 L287.603856,126.818824 L288.86687,127.05375 L290.896892,127.409805 L292.528918,127.682376 L295.068607,128.089038 L296.757369,128.354163 L297.639096,128.499777 L298.493951,128.647462 L299.322145,128.797365 L300.123895,128.949639 L300.899417,129.104435 L301.648932,129.261909 L302.372661,129.422221 L303.067668,129.584761 L303.410403,129.668366 L304.070663,129.836491 L304.702104,130.00696 C304.979533,130.08413 305.249111,130.162237 305.512309,130.241759 L305.902504,130.362164 L306.459426,130.543463 C307.888445,131.024148 309.064652,131.544161 310.012085,132.118457 L310.289476,132.292389 L310.618398,132.51089 C314.54577,135.18603 316.494838,139.876819 316.499947,146.295636 L316.497283,146.735957 L316.490365,147.109805 L316.479317,147.484349 C316.250078,154.04984 314.120095,159.205108 310.131988,162.688588 L309.829397,162.94671 L309.642546,163.098695 L309.409594,163.299397 C307.254453,165.118902 305.092687,166.264324 302.899131,166.716441 L302.53324,166.785371 L302.210705,166.835127 L301.895133,166.874068 C300.233424,167.053322 298.114665,166.852113 295.391835,166.269199 L294.905035,166.162369 L294.139326,165.98443 L293.741063,165.887515 L292.724604,165.628215 L291.649748,165.337419 L291.492048,165.289933 C287.489727,163.9947 282.290394,163.368772 275.94806,163.429002 L275.264153,163.438082 L274.196187,163.462243 L273.104493,163.498948 L272.554666,163.521811 L271.433986,163.577118 L270.292275,163.644938 L269.127255,163.725476 C268.3446,163.783291 267.548525,163.849456 266.73911,163.923974 C256.548751,164.862144 247.367559,166.630969 239.203277,169.225714 L238.300319,169.517418 L237.558001,169.764314 L236.318175,170.22011 L234.65455,170.820529 L233.466653,171.240653 L232.701902,171.506724 L231.597117,171.884151 L230.54234,172.235712 L229.865817,172.456013 L229.209901,172.665221 L228.266887,172.957439 L227.37198,173.223931 L226.80055,173.387685 L226.249501,173.540184 L225.718608,173.681446 L225.207637,173.811485 L224.716346,173.930314 L224.244481,174.037944 L223.572523,174.178399 L223.148024,174.25804 L222.747154,174.325672 L222.353952,174.38366 L221.983679,174.429563 L221.46062,174.477085 L221.137358,174.494257 L220.83133,174.5 C219.774619,174.5 218.63437,174.192747 217.298039,173.557233 L216.959806,173.391503 L216.526031,173.165405 L216.301915,173.04313 L215.836936,172.778742 L215.366906,172.498296 L215.120392,172.346386 L214.498977,171.950546 L213.845492,171.516741 L213.304873,171.146347 L212.458548,170.54906 L211.869568,170.122879 L211.261019,169.675017 L210.024874,168.757438 L209.175441,168.137393 L208.652875,167.761857 L207.931715,167.253135 L207.496181,166.952699 L206.906232,166.556919 L206.569056,166.338513 L206.28313,166.159584 L206.028,166.007 L205.957677,166.000637 C201.684143,165.519046 199.14298,161.798008 198.183852,155.312729 L198.129256,154.928058 L198.078303,154.537031 L198.038334,154.203693 L197.989735,153.756162 L197.477358,145.299557 L216.696683,139.192959 L216.828668,139.153665 C231.414074,135.082547 245.414644,132.082006 258.833204,130.152195 L260.378917,129.934277 L261.773594,129.745302 L261.907094,129.729998 L263.074466,129.612312 L264.193345,129.490772 L264.910482,129.407946 L265.945321,129.280935 L266.929309,129.151042 L267.861803,129.018609 L268.742141,128.883985 L269.569638,128.747528 L270.344818,128.609372 L270.829413,128.517047 L271.513923,128.377241 L271.936795,128.28439 L272.528354,128.144133 L272.889801,128.051158 L273.383376,127.912599 L273.8173,127.775943 L274.072515,127.68652 L274.402384,127.556371 L274.597414,127.467692 L274.745261,127.391541 Z" id="Combined-Shape" fill="#000000" fill-rule="nonzero"></path>
    </g>
</svg>