<?xml version="1.0" encoding="UTF-8"?>
<svg width="520px" height="230px" viewBox="0 0 520 230" version="1.1" xmlns="http://www.w3.org/2000/svg" xmlns:xlink="http://www.w3.org/1999/xlink">
    <title>2_er_m</title>
    <g id="2_er_m" stroke="none" stroke-width="1" fill="none" fill-rule="evenodd">
        <path d="M376.749661,137.792162 C396.046359,136.881088 406.953189,136.273705 409.470149,135.970013 C412.546434,135.970013 416.601538,136.881088 421.635459,138.703237 C426.66938,140.525386 429.605834,142.347535 430.444821,144.169684 C432.122795,146.295524 434.639756,147.965828 437.995703,149.180594 C444.987261,151.610125 449.182195,159.202413 450.580507,171.957456 C451.139831,176.209137 451.139831,179.094206 450.580507,180.612663 C450.021182,182.131121 448.62287,184.105116 446.385572,186.534648 C436.31773,197.467541 425.550731,198.682307 414.084577,190.178946 C409.60998,187.142031 403.597241,185.168036 396.046359,184.256961 C387.097166,183.042195 373.323798,182.586658 354.726255,182.89035 C336.128712,183.194041 321.516358,183.95327 310.88919,185.168036 C249.92281,193.367706 207.553973,200.352611 183.782678,206.122749 L163.227499,211.133659 C154.557968,213.259499 146.238014,215.764954 138.267639,218.650023 C130.297264,221.535093 125.61292,224.040547 124.214609,226.166388 C119.46035,231.632835 111.350143,231.25322 99.8839891,225.027545 C88.4178351,218.801869 81.8457711,211.285505 80.1677974,202.478451 C79.6084728,198.22677 80.4474597,195.038009 82.684758,192.912169 C84.9220564,190.786329 89.6763154,188.508642 96.9475351,186.07911 C103.65943,184.256961 111.070481,181.751507 119.180687,178.562746 C127.290894,175.373985 134.701945,172.86853 141.41384,171.046381 L166.163953,163.302248 C175.952133,160.569025 185.600482,158.822799 195.109,158.06357 C204.617518,157.304341 212.937472,156.241421 220.06886,154.874809 C227.200249,153.508197 236.988429,152.217508 249.433401,151.002743 C261.878373,149.787977 272.994949,148.421365 282.78313,146.902907 C302.918815,142.651226 334.240992,139.614311 376.749661,137.792162 Z M281.105156,1.13098902 C283.901779,-0.691159957 289.285278,-0.311545587 297.255654,2.26983213 C305.226029,4.85120985 311.168853,7.96404769 315.084125,11.6083456 C318.440072,15.2526436 320.467624,19.5802474 321.16678,24.5911571 C321.865935,29.6020668 320.957033,33.9296706 318.440072,37.5739686 C316.202774,40.6108836 313.336235,43.0404155 309.840457,44.8625645 C306.344678,46.6847135 303.058646,46.988405 299.982361,45.773639 C297.4654,45.166256 292.081901,45.6217932 283.831863,47.1402507 C275.581826,48.6587082 270.198327,49.5697827 267.681366,49.8734742 C265.164405,50.1771657 263.416516,50.7086258 262.437698,51.4678546 C261.45888,52.2270833 259.850822,52.6066977 257.613523,52.6066977 C254.8169,52.6066977 243.490577,56.8583786 223.634555,65.3617405 L216.083673,67.6394267 L196.367481,57.1620701 C182.943691,50.4808572 175.812302,45.4699475 174.973315,42.129341 C173.575004,38.4850431 173.085595,35.9036654 173.505088,34.3852079 C173.924582,32.8667504 175.812302,31.1964472 179.16825,29.3742982 C183.363184,27.2484577 192.382293,24.2874656 206.225577,20.4913219 C220.06886,16.6951782 232.443917,13.7341861 243.350746,11.6083456 C255.096563,9.48250517 261.878373,7.50851045 263.696178,5.68636147 C265.513983,3.86421249 268.450437,2.953138 272.50554,2.953138 C276.560644,2.953138 279.427182,2.34575501 281.105156,1.13098902 Z" id="二" fill="#000000" fill-rule="nonzero"></path>
    </g>
</svg>