<?xml version="1.0" encoding="UTF-8"?>
<svg width="400px" height="305px" viewBox="0 0 400 305" version="1.1" xmlns="http://www.w3.org/2000/svg" xmlns:xlink="http://www.w3.org/1999/xlink">
    <title>2_er_s</title>
    <g id="2_er_s" stroke="none" stroke-width="1" fill="none" fill-rule="evenodd">
        <path d="M310.749661,174.798015 C330.046359,173.88694 340.953189,173.279557 343.470149,172.975866 C346.546434,172.975866 350.601538,173.88694 355.635459,175.709089 C360.66938,177.531238 363.605834,179.353387 364.444821,181.175536 C366.122795,183.301377 368.639756,184.97168 371.995703,186.186446 C378.987261,188.615978 383.182195,196.208265 384.580507,208.963308 C385.139831,213.214989 385.139831,216.100058 384.580507,217.618516 C384.021182,219.136973 382.62287,221.110968 380.385572,223.5405 C370.31773,234.473394 359.550731,235.68816 348.084577,227.184798 C343.60998,224.147883 337.597241,222.173888 330.046359,221.262814 C321.097166,220.048048 307.323798,219.592511 288.726255,219.896202 C270.128712,220.199894 255.516358,220.959122 244.88919,222.173888 C183.92281,230.373559 141.553973,237.358463 117.782678,243.128602 L97.2274989,248.139511 C88.5579677,250.265352 80.2380145,252.770807 72.2676391,255.655876 C64.2972637,258.540945 59.6129202,261.0464 58.2146088,263.17224 C53.4603498,268.638687 45.3501432,268.259073 33.8839891,262.033397 C22.4178351,255.807722 15.8457711,248.291357 14.1677974,239.484304 C13.6084728,235.232623 14.4474597,232.043862 16.684758,229.918021 C18.9220564,227.792181 23.6763154,225.514495 30.9475351,223.084963 C37.6594301,221.262814 45.0704809,218.757359 53.1806875,215.568598 C61.290894,212.379838 68.7019448,209.874383 75.4138399,208.052234 L100.163953,200.308101 C109.952133,197.574877 119.600482,195.828651 129.109,195.069422 C138.617518,194.310194 146.937472,193.247273 154.06886,191.880662 C161.200249,190.51405 170.988429,189.223361 183.433401,188.008595 C195.878373,186.793829 206.994949,185.427217 216.78313,183.90876 C236.918815,179.657079 268.240992,176.620164 310.749661,174.798015 Z M215.105156,38.1368415 C217.901779,36.3146925 223.285278,36.6943069 231.255654,39.2756846 C239.226029,41.8570623 245.168853,44.9699002 249.084125,48.6141981 C252.440072,52.2584961 254.467624,56.5860999 255.16678,61.5970096 C255.865935,66.6079193 254.957033,70.9355231 252.440072,74.5798211 C250.202774,77.616736 247.336235,80.046268 243.840457,81.868417 C240.344678,83.690566 237.058646,83.9942575 233.982361,82.7794915 C231.4654,82.1721085 226.081901,82.6276457 217.831863,84.1461032 C209.581826,85.6645607 204.198327,86.5756352 201.681366,86.8793267 C199.164405,87.1830182 197.416516,87.7144783 196.437698,88.473707 C195.45888,89.2329358 193.850822,89.6125501 191.613523,89.6125501 C188.8169,89.6125501 177.490577,93.8642311 157.634555,102.367593 L150.083673,104.645279 L130.367481,94.1679226 C116.943691,87.4867097 109.812302,82.4758 108.973315,79.1351935 C107.575004,75.4908956 107.085595,72.9095178 107.505088,71.3910604 C107.924582,69.8726029 109.812302,68.2022996 113.16825,66.3801507 C117.363184,64.2543102 126.382293,61.2933181 140.225577,57.4971744 C154.06886,53.7010307 166.443917,50.7400386 177.350746,48.6141981 C189.096563,46.4883577 195.878373,44.5143629 197.696178,42.692214 C199.513983,40.870065 202.450437,39.9589905 206.50554,39.9589905 C210.560644,39.9589905 213.427182,39.3516075 215.105156,38.1368415 Z" id="二" fill="#000000" fill-rule="nonzero"></path>
    </g>
</svg>