<?xml version="1.0" encoding="UTF-8"?>
<svg width="1000px" height="1000px" viewBox="0 0 1000 1000" version="1.1" xmlns="http://www.w3.org/2000/svg" xmlns:xlink="http://www.w3.org/1999/xlink">
    <title>4_si_l</title>
    <g id="4_si_l" stroke="none" stroke-width="1" fill="none" fill-rule="evenodd">
        <g id="四" transform="translate(90.434783, 231.000000)" fill="#000000" fill-rule="nonzero">
            <path d="M372.565217,391 C385.231884,390.333333 404.565217,389.666667 430.565217,389 C448.565217,389 459.898551,389.333333 464.565217,390 C469.231884,390.666667 473.231884,393.666667 476.565217,399 C482.565217,408.333333 486.065217,419.833333 487.065217,433.5 C488.065217,447.166667 486.231884,458.666667 481.565217,468 L474.565217,484 L380.565217,485 C337.231884,485 309.565217,485.666667 297.565217,487 C285.565217,488.333333 275.565217,491.333333 267.565217,496 C242.898551,508.666667 222.565217,507.333333 206.565217,492 C192.565217,480 187.898551,463.333333 192.565217,442 C193.898551,434.666667 215.565217,425 257.565217,413 C299.565217,401 337.898551,393.666667 372.565217,391 Z M5.56521739,165 C0.231884058,149.666667 -1.26811594,139.166667 1.06521739,133.5 C3.39855072,127.833333 5.89855072,125 8.56521739,125 C21.2318841,125 37.5652174,133.333333 57.5652174,150 C69.5652174,159.333333 77.8985507,170.5 82.5652174,183.5 C87.2318841,196.5 90.8985507,218.333333 93.5652174,249 C96.8985507,285 103.231884,321.333333 112.565217,358 C121.898551,394.666667 130.231884,417.333333 137.565217,426 C145.565217,433.333333 149.565217,445.666667 149.565217,463 C149.565217,499.666667 141.231884,522.333333 124.565217,531 C116.565217,536.333333 110.898551,539 107.565217,539 C96.8985507,539 83.5652174,521 67.5652174,485 C55.5652174,461.666667 49.0652174,438.833333 48.0652174,416.5 C47.0652174,394.166667 45.5652174,381.666667 43.5652174,379 C38.2318841,370.333333 32.8985507,337.333333 27.5652174,280 C22.8985507,236 15.5652174,197.666667 5.56521739,165 Z M227.565217,108 C230.898551,99.3333333 233.731884,94.5 236.065217,93.5 C238.398551,92.5 243.565217,92.6666667 251.565217,94 C275.565217,98.6666667 290.898551,106.333333 297.565217,117 C303.565217,125.666667 306.565217,137.333333 306.565217,152 C306.565217,166.666667 303.898551,178 298.565217,186 C292.565217,193.333333 289.565217,201.666667 289.565217,211 C289.565217,220.333333 284.565217,234 274.565217,252 C267.231884,266 254.898551,283.5 237.565217,304.5 C220.231884,325.5 209.231884,336 204.565217,336 C201.231884,336 191.398551,343.166667 175.065217,357.5 C158.731884,371.833333 147.898551,379 142.565217,379 C137.898551,379 135.898551,377.666667 136.565217,375 C136.565217,373 140.231884,366.333333 147.565217,355 C155.565217,342.333333 161.065217,332.5 164.065217,325.5 C167.065217,318.5 170.231884,312.666667 173.565217,308 C182.898551,292.666667 193.065217,266.5 204.065217,229.5 C215.065217,192.5 220.565217,165.666667 220.565217,149 C220.565217,133 222.898551,119.333333 227.565217,108 Z M369.565217,75 C386.231884,66.3333333 400.231884,66.3333333 411.565217,75 C423.565217,83.6666667 426.565217,107 420.565217,145 C415.898551,172.333333 415.065217,188.5 418.065217,193.5 C421.065217,198.5 432.565217,200.666667 452.565217,200 C474.565217,198 492.898551,200.333333 507.565217,207 C524.898551,215.666667 535.565217,222.666667 539.565217,228 C543.565217,233.333333 545.898551,246.333333 546.565217,267 C548.565217,291.666667 546.565217,307 540.565217,313 C534.565217,319 519.231884,322.333333 494.565217,323 C457.898551,323.666667 433.565217,323.166667 421.565217,321.5 C409.565217,319.833333 400.065217,315.833333 393.065217,309.5 C386.065217,303.166667 378.898551,289.666667 371.565217,269 C365.565217,255 360.231884,233.333333 355.565217,204 C350.898551,174.666667 348.065217,150.166667 347.065217,130.5 C346.065217,110.833333 347.898551,99 352.565217,95 C355.231884,95 356.565217,93 356.565217,89 C356.565217,85 360.898551,80.3333333 369.565217,75 Z M132.565217,28 C167.231884,19.3333333 190.065217,13.3333333 201.065217,10 C212.065217,6.66666667 230.898551,4 257.565217,2 C284.231884,0 299.898551,-0.5 304.565217,0.5 C309.231884,1.5 338.231884,3.66666667 391.565217,7 C444.898551,10.3333333 484.231884,13.6666667 509.565217,17 C534.898551,20.3333333 571.898551,28 620.565217,40 C675.898551,52.6666667 710.065217,61 723.065217,65 C736.065217,69 750.898551,75 767.565217,83 C799.565217,99 816.565217,118.333333 818.565217,141 C818.565217,153 816.898551,171.666667 813.565217,197 C810.231884,222.333333 806.898551,239.333333 803.565217,248 C799.565217,256.666667 797.565217,266.666667 797.565217,278 C797.565217,290.666667 790.398551,320.333333 776.065217,367 C761.731884,413.666667 752.231884,440 747.565217,446 C744.231884,449.333333 742.565217,453.166667 742.565217,457.5 C742.565217,461.833333 737.065217,471 726.065217,485 C715.065217,499 703.898551,510.666667 692.565217,520 C679.898551,530.666667 670.898551,538.666667 665.565217,544 C657.565217,553.333333 648.065217,561.833333 637.065217,569.5 C626.065217,577.166667 617.565217,581 611.565217,581 C603.565217,581 596.231884,583.333333 589.565217,588 C582.898551,592.666667 574.565217,592.333333 564.565217,587 C554.565217,581.666667 549.565217,578 549.565217,576 C549.565217,573.333333 544.398551,567.166667 534.065217,557.5 C523.731884,547.833333 517.065217,543 514.065217,543 C511.065217,543 506.898551,539.333333 501.565217,532 C496.231884,524.666667 492.898551,518 491.565217,512 C490.898551,508.666667 493.565217,504.833333 499.565217,500.5 C505.565217,496.166667 517.565217,489.333333 535.565217,480 C560.898551,467.333333 579.231884,455.5 590.565217,444.5 C601.898551,433.5 613.565217,415.666667 625.565217,391 C644.898551,351.666667 657.898551,316.333333 664.565217,285 C668.565217,261 673.231884,239 678.565217,219 C689.898551,172.333333 689.231884,143.333333 676.565217,132 C670.565217,126 646.565217,117 604.565217,105 C562.565217,93 524.565217,83.3333333 490.565217,76 C441.231884,68 387.398551,62.5 329.065217,59.5 C270.731884,56.5 228.231884,58 201.565217,64 C150.231884,74 115.065217,82.1666667 96.0652174,88.5 C77.0652174,94.8333333 62.5652174,103.666667 52.5652174,115 C47.2318841,121.666667 42.2318841,125 37.5652174,125 C31.5652174,125 26.0652174,122 21.0652174,116 C16.0652174,110 13.5652174,103 13.5652174,95 C13.5652174,69.6666667 53.2318841,47.3333333 132.565217,28 Z"></path>
        </g>
    </g>
</svg>