<?xml version="1.0" encoding="UTF-8"?>
<svg width="400px" height="305px" viewBox="0 0 400 305" version="1.1" xmlns="http://www.w3.org/2000/svg" xmlns:xlink="http://www.w3.org/1999/xlink">
    <title>4_si_s</title>
    <g id="4_si_s" stroke="none" stroke-width="1" fill="none" fill-rule="evenodd">
        <path d="M129.268052,20 C130.912322,20.0080191 132.233551,20.0754004 133.427179,20.2609049 L133.816829,20.3272367 L134.486713,20.3696941 L136.080677,20.4506215 L140.335331,20.6242883 L165.130185,21.4871767 L171.747755,21.7324119 L177.931611,21.9778447 L182.999536,22.1951091 L188.401484,22.4487333 L192.598977,22.6674661 L195.17765,22.8145321 L197.58209,22.96296 L202.749765,23.2987129 L208.76728,23.6588572 L220.752776,24.3229473 L239.446612,25.3358549 L246.830612,25.7634676 L252.097212,26.0925619 L255.768453,26.3420117 L258.608865,26.5526364 L260.435861,26.6998286 L262.416751,26.8739828 L264.177779,27.0465719 L265.485656,27.1900686 L266.655505,27.3340102 L267.293932,27.4208784 L268.369122,27.5772394 L270.03881,27.8352435 L271.189914,28.0228902 L272.371436,28.2230542 L274.200817,28.5467734 L275.458514,28.7782374 L276.746734,29.0222242 L278.736357,29.4116883 L280.101013,29.6869893 L282.205431,30.1234323 L284.37886,30.5880699 L285.866203,30.9134947 L288.154874,31.4251356 L289.719138,31.781901 L292.940159,32.5330505 L295.436973,33.1293355 L298.003369,33.7538461 L300.639449,34.4065879 L304.262791,35.3208348 L307.061857,36.0394705 L309.930941,36.7863555 L312.774214,37.5356264 L323.316673,40.1525533 L331.330308,42.1745163 L336.751038,43.5667274 L341.080252,44.699465 L345.283433,45.8254981 L348.851223,46.8130947 L350.972623,47.4226546 L352.299123,47.8170837 L353.892921,48.3122291 L354.482222,48.5041432 C359.971273,50.3217713 366.070008,52.9517791 372.810222,56.3902648 L373.882695,56.942924 C389.404472,65.2951549 398.577425,76.3967724 399.915745,90.3738678 L399.960209,90.8742726 L400,91.3595994 L400,91.8468069 C400,92.121331 400,92.4019533 399.99523,92.6886972 L399.980926,93.5673166 L399.957098,94.4828047 L399.923753,95.4353009 L399.880902,96.4249448 L399.828554,97.4518759 L399.766717,98.5162337 L399.695401,99.6181577 L399.614614,100.757787 L399.475697,102.538236 L399.371275,103.77274 L399.257414,105.045439 L399.134124,106.356471 L398.931528,108.3952 L398.784704,109.802676 L398.546851,111.986726 L398.287883,114.258595 L398.007833,116.618756 L397.819939,118.155099 L397.550042,120.28569 L397.369717,121.657134 L397.188948,122.989755 L397.00762,124.283843 L396.73434,126.153356 L396.551129,127.352373 L396.366969,128.513868 L396.181748,129.638129 L395.995353,130.725446 L395.807673,131.776107 L395.618595,132.790401 L395.428008,133.768618 L395.235799,134.711045 L395.041857,135.617973 L394.846069,136.489689 L394.648324,137.326484 L394.448509,138.128645 L394.246512,138.896462 L394.042222,139.630224 C394.007976,139.749696 393.97363,139.867761 393.939182,139.984424 L393.731241,140.667645 C393.696373,140.77873 393.661398,140.888425 393.626313,140.996738 L393.41447,141.630067 L393.187034,142.271531 L393.046365,142.599535 C392.153842,144.680681 391.651475,147.223822 391.595461,150.306706 L391.590203,150.891091 C391.590203,151.064198 391.588383,151.241138 391.584742,151.421937 L391.568352,151.975934 L391.541024,152.553239 L391.502748,153.154004 L391.453514,153.778385 L391.393313,154.426537 L391.322133,155.098614 L391.239967,155.794772 L391.146803,156.515164 L391.042632,157.259946 C391.024353,157.386117 391.005614,157.513312 390.986416,157.641532 L390.865717,158.423188 L390.733986,159.229622 L390.515684,160.486066 L390.272507,161.799129 L390.00442,163.169332 L389.711391,164.597197 L389.502166,165.5814 L389.167494,167.10653 L388.807791,168.690715 L388.423025,170.334478 L388.152574,171.463677 L387.725962,173.207896 L387.118017,175.628456 L386.465278,178.158645 L385.767669,180.799703 L385.025111,183.552867 L384.237526,186.419374 L383.404835,189.400465 L382.32339,193.209978 L380.569873,199.283957 L379.476079,203.001118 L378.607966,205.901331 L377.777415,208.626118 L376.827852,211.669642 L376.221946,213.56459 L375.636697,215.354549 L375.351536,216.210766 L374.795581,217.846885 L374.258027,219.382874 L373.866396,220.470322 L373.484228,221.503359 L373.111143,222.482803 L372.867278,223.106397 L372.508485,223.998342 L372.04258,225.107778 L371.814724,225.628831 L371.590117,226.127766 L371.368644,226.604825 L371.150193,227.06025 L370.934652,227.494284 L370.721908,227.907171 L370.511848,228.299153 L370.304359,228.670473 C370.269985,228.730652 370.235714,228.789979 370.201543,228.848461 L369.9977,229.189243 L369.796146,229.50997 L369.596769,229.810886 L369.468501,229.994381 L369.450193,230.165952 C369.048894,233.490615 367.582173,236.775381 364.905348,240.958614 L364.353806,241.807518 L363.769736,242.68205 C363.669667,242.830034 363.568231,242.979154 363.465424,243.129447 L362.832082,244.045548 L362.165571,244.991446 L361.465633,245.968811 L360.758186,246.943464 C356.134703,253.276262 351.385445,258.667804 346.491224,263.108318 L345.877919,263.658361 L344.547853,264.86828 L342.893759,266.387272 L341.377083,267.797355 L340.330441,268.782648 L339.056983,269.998948 L337.92407,271.102694 L337.167303,271.855841 L336.490712,272.54437 L335.952712,273.105098 L335.648252,273.482992 C332.415008,277.42746 328.710016,281.047799 324.546031,284.343956 L323.707118,284.998865 L322.906392,285.607352 C317.074098,289.982013 312.139895,292.419682 307.216959,292.551733 L306.795,292.557397 C305.808176,292.557397 304.992475,292.808554 304.136152,293.398259 L303.901444,293.567547 C297.674297,298.258685 290.265103,297.939736 283.117085,293.836982 L282.184983,293.294666 C280.223851,292.137091 278.639163,291.089484 277.366587,290.085154 C276.319292,289.258619 275.418332,288.418291 274.60742,287.429231 C273.715222,286.341028 272.966941,285.16121 272.447277,283.806263 L272.298321,283.394441 L272.255911,283.261504 L272.073902,283.042063 L271.726837,282.63618 L271.33446,282.192369 L270.897306,281.711534 L270.415911,281.194576 L269.612037,280.353384 L269.022383,279.750068 L268.401049,279.124588 L267.804124,278.533756 L266.97092,277.728326 L266.458119,277.245939 L265.980424,276.807755 L265.538668,276.414244 L265.133683,276.065878 L264.945239,275.908771 L264.82869,275.81399 L264.73211,275.790503 C262.749265,275.257583 261.017575,274.204746 259.408186,272.798515 L259.065142,272.491831 L258.781929,272.22826 C257.296583,270.82156 255.879398,269.055577 254.403097,266.870993 C251.625829,262.761279 249.721989,258.744692 248.795686,254.69354 L248.675441,254.140884 L248.630261,253.91054 C248.44102,252.89224 248.363786,251.890462 248.3876,250.911061 L224.705459,251.182671 L208.469014,251.21774 L188.699079,251.301939 L159.843388,251.496901 L143.536109,251.674214 L135.463494,251.808694 L132.304079,251.891216 L131.239668,251.934742 L130.701426,251.971304 L130.646226,251.97732 C127.362966,252.369923 124.821944,253.156942 122.977099,254.238453 L122.691587,254.411651 L122.452476,254.56176 L122.206211,254.697856 C108.972566,262.011308 96.3522085,261.306021 86.5949276,251.78552 L86.1290154,251.320952 L85.9778033,251.179252 C83.3979694,248.723492 81.3445101,245.957259 79.8146804,242.929965 C78.2070073,255.275702 73.868942,264.182462 66.1119692,269.086146 L65.714597,269.332033 L65.5369017,269.436737 L65.4816478,269.47675 C61.1563081,272.534544 57.8275404,274.222136 54.2000859,274.433558 L53.8102281,274.450556 L53.4177304,274.456229 C47.1496045,274.456229 42.3519582,270.583826 37.9220686,264.147801 C36.0676039,261.453517 34.1881357,258.140815 32.2560392,254.185074 L31.6100199,252.842643 C31.0699831,251.704048 30.5256485,250.515624 29.9764242,249.276844 L29.3149701,247.766104 L28.6485944,246.206819 L28.0884482,244.868359 L27.8144225,244.287431 C22.8965197,233.755777 20.0623339,223.258353 19.3856843,212.838213 L19.3329712,211.945249 L19.2918356,211.076787 L19.2153755,209.346287 L19.1346173,207.724849 L19.0205441,205.73416 L18.9608785,204.812808 L18.8995266,203.941146 L18.8044455,202.727412 L18.7390952,201.981157 L18.6722327,201.285538 L18.6039077,200.640826 L18.506342,199.828944 L18.4439914,199.374484 L18.3902801,199.023268 L18.3116172,198.851984 L18.1196546,198.414191 L17.930354,197.955295 L17.7436463,197.475079 L17.5594623,196.973328 L17.3777329,196.449826 L17.1983889,195.904355 C17.1686931,195.811601 17.1390939,195.717922 17.1095897,195.623315 L16.9336941,195.044487 L16.760011,194.443152 L16.5034835,193.498473 L16.335029,192.839921 L16.1685449,192.158104 L15.922362,191.091284 L15.7605014,190.350359 L15.6003692,189.585413 L15.4418961,188.796229 L15.2850131,187.982591 L15.1296509,187.144283 L14.8993079,185.840092 L14.6719979,184.479177 L14.4474873,183.060809 L14.2255427,181.584258 L14.0059308,180.048795 L13.7884181,178.453689 L13.5727712,176.798212 L13.2877408,174.495736 L13.1461409,173.303223 L12.8644261,170.834568 L12.5842299,168.252965 L12.3049991,165.556683 L12.0958767,163.458175 L11.6773937,159.061802 L11.3273056,155.191643 L11.1218082,152.845797 L10.9886053,151.517277 C9.27735203,134.755129 6.70595726,120.088259 3.29665537,107.532679 L3.00237799,106.461658 L2.75755059,105.591417 L2.64864596,105.251688 C-0.00667387774,96.8785847 -0.850027031,90.604857 0.969544787,85.1409291 L1.09774293,84.7696283 L1.23425387,84.4007464 C2.10025465,82.137352 3.11947155,80.2083626 4.48564305,78.5420597 C4.929524,78.0006635 5.40481276,77.4945556 5.91031691,77.0302291 C5.61408484,75.4089749 5.46544897,73.7352757 5.46544897,72.0217189 C5.46544897,61.7032463 11.7838035,53.5320786 22.6253035,46.9629422 C25.0998879,45.4635296 27.8693553,44.0104833 30.9360691,42.6000817 L32.1786134,42.0381866 C34.0662263,41.198729 36.0609615,40.3744449 38.1633294,39.5645302 L39.5808592,39.0267071 C39.8197736,38.9374218 40.0600183,38.8483116 40.3015938,38.7593756 L41.7670234,38.2278397 L43.2644282,37.700429 L44.7938419,37.1770908 C45.8241281,36.8295443 46.8757759,36.4846774 47.9488302,36.1424196 L49.5744721,35.6309808 L51.2322573,35.1234027 C51.5112353,35.0391251 51.791554,34.9550062 52.0732142,34.8710448 L53.7792774,34.3691583 C54.0663059,34.2858227 54.3546772,34.2026425 54.6443921,34.1196165 L56.3988089,33.6233027 L58.1855035,33.1306377 L60.0045095,32.6415687 C60.3103716,32.5603539 60.6175815,32.4792868 60.9261397,32.3983662 L67.3936292,30.6479854 L73.6016847,28.9427713 L78.8541685,27.4702678 L82.4364051,26.4400386 L85.3711327,25.5681265 L86.9661509,25.0753693 L87.8682323,24.7864039 C88.099316,24.7110429 88.3357615,24.6366104 88.577601,24.5630928 L89.3193339,24.3452703 L90.0936252,24.1328536 L90.9006692,23.92576 L91.7406599,23.7239068 L92.6137915,23.5272114 L93.5202582,23.3355909 L94.4602542,23.1489626 L95.4339736,22.9672439 L96.4416106,22.790352 C96.6123873,22.7612676 96.7845854,22.7323809 96.9582088,22.7036902 L98.0170863,22.5338834 L99.1103667,22.3686966 L100.238244,22.2080472 L101.400913,22.0518523 L102.598567,21.9000292 L103.831402,21.7524954 L105.747039,21.5390557 L107.068672,21.4018828 L109.118417,21.203597 L111.249502,21.0140311 L113.381089,20.8390308 L116.544087,20.5969145 L119.436776,20.395746 L121.044137,20.2947349 L122.556258,20.2085133 L124.425608,20.1165888 L126.128862,20.0510323 L127.298409,20.0191948 L128.376339,20 L129.268052,20 Z M105.164714,68 L105.097316,68.00673 C100.778701,68.3727267 97.091418,68.907435 94.0471516,69.6059211 L93.3708376,69.7661259 L88.3166368,70.8356373 L83.6764372,71.8413712 L79.3046628,72.8136101 L76.5398055,73.4429548 L74.5449613,73.9049978 L71.3707143,74.6559325 L68.9671212,75.2393181 L66.6845901,75.8071365 L64.5234416,76.3592639 L62.483996,76.8955767 L60.5665736,77.4159512 L59.2087773,77.7956981 L57.9199345,78.1663578 L57.0990802,78.4083901 L55.9254602,78.7637887 L54.821154,79.1099609 L53.4568011,79.5570816 L52.514753,79.8815227 C52.4139543,79.9170504 52.3144475,79.9524041 52.2162335,79.9875834 C46.7460947,81.9469315 42.7190243,84.440741 40,87.3649721 L40.3909749,87.6956499 C46.0737305,92.5881908 50.2580928,98.517158 52.7948854,105.376755 L53.0278782,106.022566 L53.2511901,106.67381 L53.3877752,107.089444 L53.6561013,107.946828 C53.9212178,108.821658 54.1767449,109.748904 54.4230384,110.729233 L54.6662672,111.727281 C54.7863559,112.235177 54.9041658,112.7564 55.0197414,113.291034 L55.2479269,114.378206 C55.2854657,114.562389 55.3227595,114.748069 55.35981,114.935249 L55.5792066,116.076341 L55.7928429,117.253565 L56.0007977,118.467071 C56.0349878,118.672354 56.0689445,118.879154 56.1026694,119.087476 L56.3022505,120.355682 C56.3350549,120.5701 56.3676307,120.786046 56.3999798,121.003521 L56.5913651,122.326763 L56.7773853,123.68688 L56.9581195,125.084022 C56.9878058,125.319973 57.0172751,125.557472 57.0465291,125.796524 L57.2194825,127.249481 L57.3873476,128.739835 L57.5502035,130.267734 L57.7081291,131.833326 L57.8612036,133.43676 L58.009506,135.078185 L58.1531154,136.75775 C58.1766636,137.040864 58.2000196,137.325573 58.2231849,137.611881 C59.5094126,152.539006 61.9561092,167.621999 65.5668214,182.864704 L65.948765,184.461405 L66.3271071,186.011627 L66.7017895,187.515259 L67.0727537,188.972191 L67.4399416,190.38231 L67.8032947,191.745506 L68.1627547,193.061669 L68.5182633,194.330686 L68.8697621,195.552447 L69.2171928,196.726841 L69.5604971,197.853756 C69.6173674,198.037613 69.6740633,198.219486 69.7305836,198.399375 L70.0675889,199.454864 L70.4003219,200.462598 L70.7031823,201.34893 L70.9747459,202.117181 L71.2393176,202.841369 L71.4959706,203.520723 L71.743778,204.154471 L72.0968765,205.017894 L72.3185153,205.53425 L72.5280649,206.002299 L72.7245982,206.421269 L72.9071887,206.790388 L73.0749093,207.108885 C73.1015721,207.157706 73.1275768,207.204386 73.1529039,207.248908 L73.2860934,207.47328 L73.5162271,207.723846 C75.7078035,210.156637 77.3625587,213.035753 78.529859,216.319241 C79.4872102,214.180867 80.9405757,212.433639 82.7494436,210.884004 L83.1159156,210.576654 L83.4295448,210.323373 C85.2728629,208.859323 87.5494857,207.519341 90.3463376,206.178465 L90.7943216,205.965821 L91.7222645,205.53797 C92.0386977,205.394774 92.3622585,205.250995 92.6929734,205.106615 L93.7066071,204.671652 C94.0516568,204.526051 94.4038872,204.379832 94.7633247,204.232976 L95.863285,203.790483 L97.0066471,203.344069 C97.2008331,203.269334 97.3968341,203.194431 97.5946535,203.119358 L98.8034163,202.666865 C99.0085223,202.591104 99.2154533,202.515169 99.4242125,202.439057 L100.698734,201.980251 C100.914819,201.903425 101.13274,201.826417 101.352498,201.749227 L102.693136,201.283873 L104.078049,200.814022 C104.312567,200.735333 104.548935,200.656453 104.787159,200.577378 L106.238785,200.100587 L107.735084,199.619039 L109.276215,199.132629 L111.114268,198.565023 L111.636821,198.413521 L112.184282,198.263272 L112.756631,198.114254 L113.353848,197.966441 L114.29626,197.746928 L114.955563,197.60202 L115.639665,197.458232 L116.712275,197.244593 L118.229038,196.963429 L119.431485,196.755212 L120.689467,196.549181 L122.002915,196.345252 L123.371765,196.143341 L124.79595,195.943366 L126.780824,195.679599 L128.863796,195.418928 L131.044709,195.161156 L132.744572,194.96961 L136.309041,194.590745 L139.44691,194.278932 L141.402576,194.093378 L144.783379,193.786409 L149.040208,193.421346 L153.514571,193.059256 L159.008891,192.639686 L163.952756,192.281753 L169.299602,191.91462 L182.006396,191.113074 L220.757288,188.782286 L221.06594,188.757928 L223.639661,188.622179 L226.926479,188.472524 L231.250929,188.302024 L237.511065,188.089522 L244.856186,187.873836 L247.686472,187.880678 L250.139658,187.901983 L251.921623,187.930094 L253.547637,187.968584 L255.021916,188.01795 L256.030587,188.062412 L256.958058,188.113483 L257.806109,188.171372 L258.576518,188.236291 L259.271065,188.308448 L259.692829,188.360679 L260.082194,188.416284 C265.10797,189.18779 269.127639,192.338731 271.954443,197.001386 L272.115651,197.273612 C275.289976,202.578189 277.162818,208.80996 277.817213,215.847387 L277.880566,216.578265 L277.935247,217.314862 C278.116505,219.97678 278.114555,222.540389 277.921911,225 C278.52926,224.64035 279.12079,224.283647 279.69645,223.930005 L280.826595,223.226834 L281.914329,222.532021 C286.180318,219.769754 289.426252,217.21287 291.625969,214.918643 C293.520148,212.943081 295.56512,210.112348 297.723589,206.435561 L298.289217,205.457213 C298.573294,204.958449 298.859247,204.445304 299.146993,203.917799 L299.724851,202.843648 L300.307343,201.731238 C300.697183,200.976887 301.090015,200.197054 301.485641,199.391787 L302.081153,198.164818 L302.68071,196.899735 C302.780965,196.685713 302.881383,196.470105 302.98196,196.252911 L303.58731,194.930723 C310.823621,179.110749 315.692966,165.00732 318.224489,152.677869 L318.352443,152.041309 L318.571916,150.64513 C319.991247,141.731598 321.611443,133.423358 323.435375,125.717578 L323.779751,124.279804 L324.090759,123.0062 L324.247438,122.312519 C324.362503,121.793475 324.473896,121.280788 324.581629,120.774489 L324.89386,119.274791 C325.245346,117.547579 325.552144,115.899023 325.814774,114.3305 L326.029081,113.005685 C326.063001,112.78816 326.096021,112.572276 326.128145,112.358038 L326.31014,111.092385 C326.766826,107.770135 326.994705,104.871168 327,102.411949 L327,101.956003 L326.991564,101.510387 C326.946646,99.4107376 326.726537,97.8249634 326.40654,96.7847879 L326.318316,96.5195543 L326.258108,96.3656708 L326.022147,96.2247938 L325.70372,96.0446238 L325.28749,95.8215844 L324.778523,95.5626386 L324.217485,95.2903748 C324.11967,95.2439128 324.01971,95.1969147 323.917614,95.1493899 L323.279521,94.8579966 L322.59076,94.5544155 L321.851891,94.2390984 L320.650864,93.7451071 L319.783266,93.4000564 L318.400325,92.8667347 L317.424118,92.5007504 L315.878635,91.9362232 L314.794315,91.5495652 L313.087036,90.9542223 L311.8951,90.5471503 L310.02677,89.9213812 L308.727715,89.494155 L307.385952,89.0589399 L306.001559,88.6157774 L303.845215,87.9362232 L301.593402,87.2390212 L298.493755,86.2932923 C297.980299,86.1376258 297.46842,85.9829368 296.958117,85.8292253 L293.915219,84.9186858 L290.910169,84.0316052 L287.942982,83.167983 L285.013669,82.3278185 L282.122244,81.5111112 C281.643498,81.3769481 281.166331,81.2437623 280.690744,81.1115538 L277.856175,80.3300312 C277.386906,80.2017321 276.919218,80.0744103 276.45311,79.9480658 L273.675426,79.2017266 L270.935682,78.4788422 L268.23389,77.779412 L265.570065,77.1034355 C265.129258,76.9927272 264.690034,76.8829962 264.252393,76.7742423 L261.64554,76.1334452 C260.351612,75.8189098 259.071933,75.513169 257.806511,75.2162224 L256.789135,74.9803961 L255.932679,74.8420167 L255.000692,74.7031942 L253.99387,74.5639693 L252.912906,74.4243825 C252.726606,74.4010902 252.537245,74.3777845 252.344839,74.3544662 C252.793283,79.9554496 252.425735,86.4936081 251.396999,93.9811178 L251.17396,95.5493399 L250.927675,97.1311376 C250.891578,97.3671697 250.856217,97.6007659 250.821591,97.8319176 L250.622657,99.1894252 C250.59097,99.4107647 250.560018,99.6296425 250.529798,99.8460501 L250.357279,101.114785 L250.202328,102.323824 C250.177965,102.520334 250.154332,102.714338 250.13143,102.90583 L250.002772,104.024556 L249.891601,105.082559 L249.797885,106.079428 L249.763052,106.476734 L249.837207,106.479309 C250.105935,106.486387 250.384634,106.491169 250.673137,106.493571 L251.567893,106.493542 C251.721865,106.492317 251.878246,106.490475 252.037016,106.488005 L253.218426,106.457905 L253.638594,106.419408 C263.288162,105.573418 271.759356,106.680055 278.989849,109.918897 L279.573385,110.186181 L280.31076,110.540629 L281.602798,111.240331 L282.685327,111.838799 L283.729788,112.428616 L284.736642,113.010498 C284.901342,113.106857 285.064495,113.202915 285.226109,113.298688 L286.177411,113.870012 C286.33291,113.964701 286.48689,114.059133 286.63936,114.153325 L287.536142,114.715702 C291.930238,117.514317 294.982844,120.122835 296.952003,122.944166 C299.43992,126.508753 300.732651,131.360074 301.369121,138.234749 L301.464241,139.337146 L301.548925,140.473816 C301.575466,140.85849 301.600346,141.248984 301.623644,141.645404 L301.688871,142.852555 L301.745075,144.095912 L301.79273,145.37612 L301.80318,145.748061 L301.833185,146.14701 L301.878633,146.804542 L301.959159,148.097267 C301.97141,148.310253 301.98307,148.522009 301.99413,148.732541 L302.053221,149.98111 L302.097489,151.200639 C302.409552,161.44411 301.068821,168.574764 296.895047,173.470989 L296.646254,173.756431 L296.395113,174.032205 C292.45532,178.265786 286.556917,180.317544 277.960931,181.161504 L276.84886,181.262758 L275.707139,181.351339 C275.321586,181.378804 274.931034,181.404233 274.535427,181.427699 L273.333381,181.492288 L272.100661,181.545555 L270.836924,181.587952 L268.878324,181.623772 L266.977585,181.653561 L264.234055,181.686928 L261.618367,181.706707 L259.944903,181.712337 L258.063013,181.711187 L255.452832,181.694636 L253.602374,181.670478 L251.842838,181.63607 L250.719908,181.607356 L249.63676,181.573965 L247.588801,181.492953 L246.155389,181.419552 L245.248146,181.364506 L243.959201,181.272647 L243.147483,181.205143 C243.015351,181.193472 242.884793,181.181589 242.755803,181.169494 L242.000646,181.094369 L241.282882,181.014101 L240.602259,180.928643 C240.381547,180.899287 240.166983,180.869057 239.958526,180.837946 C233.211257,179.830944 227.479358,177.237545 223.023958,172.905873 C218.808151,168.807141 215.391559,162.088417 212.068207,152.329555 L211.706457,151.256037 L211.658329,151.132729 C210.419949,147.942633 209.277507,144.14271 208.216631,139.710268 L207.900801,138.361536 C207.848566,138.133578 207.796531,137.904032 207.744694,137.672896 L207.436043,136.266983 C207.333944,135.791971 207.232625,135.310577 207.132071,134.822778 L206.83269,133.340145 L206.537816,131.818948 L206.247361,130.259051 C206.199315,129.995836 206.15145,129.731002 206.103764,129.464548 L205.819777,127.846345 L205.539994,126.189102 L205.264329,124.492682 C205.218723,124.206673 205.173285,123.919026 205.128013,123.629738 L204.858363,121.874298 L204.552124,119.805812 L204.218725,117.488035 L203.901824,115.215714 L203.601429,112.988782 L203.317549,110.807172 L203.050194,108.670817 L202.799372,106.579651 L202.565091,104.533606 L202.347362,102.532616 L202.146192,100.576614 L201.96159,98.6655337 C201.932205,98.35076 201.90351,98.0378552 201.875506,97.7268179 L201.715773,95.8829936 C201.690534,95.5794209 201.665985,95.277713 201.642128,94.9778684 L201.507286,93.2011501 C201.486195,92.9087534 201.465797,92.6182173 201.44609,92.3295403 L201.336156,90.6197777 C201.302281,90.0572861 201.271175,89.5022201 201.24284,88.9545686 L201.17087,87.4367091 L201.119646,86.0643157 C200.918632,79.7569131 201.260345,74.8008087 202.577374,70.8557098 L190.161308,70.2622964 L154.4418,68.6452028 C156.772997,73.460784 157.950903,79.0995968 158.100652,85.4636763 L158.113066,86.1737759 L158.117058,86.8718573 C158.117058,94.958501 156.678797,101.757974 153.46757,107.183472 L153.179616,107.658624 L152.900017,108.109297 L152.580792,108.528556 C151.67522,109.717901 151.301013,110.834875 151.301013,112.291536 C151.301013,117.795842 149.423125,124.062082 145.823891,131.639817 L145.241308,132.847281 L144.630254,134.077023 L144.056251,135.200614 L143.844492,135.631181 C142.82316,137.682449 141.62433,139.849355 140.247002,142.136327 L139.478024,143.3957 C137.642409,146.362146 135.517361,149.524383 133.100821,152.89154 L132.047309,154.34718 C131.868747,154.591886 131.688697,154.837645 131.507157,155.084459 L130.400037,156.578037 L129.257135,158.097106 L128.672253,158.866249 L127.652556,160.194651 L126.785419,161.310773 L125.941811,162.383351 C125.803155,162.558497 125.66547,162.731837 125.528748,162.903376 L124.324134,164.398717 L123.549543,165.341927 C123.422325,165.495564 123.296044,165.647423 123.170695,165.797506 L122.429729,166.676745 C122.308083,166.819747 122.187357,166.960982 122.067546,167.100457 L121.359618,167.916198 C121.243445,168.048644 121.128177,168.179336 121.013807,168.308281 L120.338327,169.061 L119.684152,169.771968 C119.576884,169.886995 119.470493,170.000292 119.364973,170.111861 L118.742266,170.760598 C115.667137,173.914837 113.229182,175.920441 110.311736,176.763967 L109.944477,176.863354 L109.64906,176.932975 L109.392268,177.125626 L108.801948,177.585115 L108.331801,177.964212 L107.829098,178.379741 L107.014597,179.070959 L106.128376,179.843161 L105.171358,180.695753 L104.494468,181.308518 L103.786795,181.956573 L102.668163,182.994441 L100.976177,184.582033 L100.092103,185.401168 L99.2314805,186.187546 L98.3932858,186.941354 L97.5764964,187.662777 C97.4420919,187.780326 97.3085365,187.896533 97.1758092,188.011403 L96.3892105,188.684598 C96.1302091,188.903666 95.8743493,189.117414 95.6214604,189.325873 L94.8715363,189.935415 C94.624419,190.133327 94.3801022,190.325982 94.1384156,190.51341 L93.4210754,191.060043 C89.1623308,194.246131 85.7005131,195.748754 82.0415612,195.748754 C79.2512228,195.748754 76.7637335,195.214158 74.3067333,193.454013 C70.6748665,190.852217 68.9646414,186.569529 69.3097479,182.274507 L69.3446133,181.899347 L69.3497095,181.824682 C69.4027553,181.006387 69.5198888,180.232926 69.7213118,179.439771 L69.8396595,179.0048 C69.9031345,178.785951 69.9731521,178.564764 70.0501222,178.33993 L70.2134537,177.885013 C70.2998759,177.654736 70.3935237,177.41994 70.4948071,177.179316 L70.7076758,176.689909 L70.9416343,176.182634 C70.9824253,176.09647 71.0241254,176.009464 71.0667499,175.921568 L71.3337091,175.383127 C71.3800913,175.291478 71.4274282,175.198842 71.4757348,175.10517 L71.777334,174.530328 L72.1029371,173.928309 L72.6379429,172.969234 L73.2310557,171.935922 L74.1165111,170.42912 L75.3779606,168.321434 L76.1790327,166.944072 L76.972165,165.55618 L77.7065223,164.243625 L78.3817755,163.007591 L78.9975957,161.849268 L79.3749617,161.12081 L79.7256695,160.427769 L80.0496215,159.770496 L80.3467202,159.149343 L80.7418053,158.286108 L80.9713445,157.756794 L81.1736894,157.26483 C82.5523208,153.808148 84.0525933,150.789888 85.7109822,148.199657 L85.8051176,148.054035 L85.988086,147.722114 L86.3290071,147.078075 C86.5578023,146.636657 86.7896119,146.171142 87.0243474,145.681647 L87.3786341,144.929432 L87.7372436,144.141333 L88.1001096,143.317436 L88.4671658,142.457829 L88.8383461,141.562597 L89.2135842,140.631828 L89.5928138,139.665609 C89.6563477,139.501623 89.7200452,139.336163 89.7839048,139.169232 L90.1689976,138.150001 L90.5579163,137.095536 L90.9505948,136.005925 L91.3469668,134.881254 L91.746966,133.721611 L92.1505263,132.527083 L92.7623987,130.670069 L93.1745717,129.388707 L93.590074,128.072762 L94.0088392,126.722323 L94.6429601,124.632177 L95.2840501,122.464906 L95.7152047,120.977356 L96.3674131,118.682196 L97.0148164,116.351218 L97.6201952,114.120373 L98.0056733,112.670378 L98.5567659,110.551576 L99.0753532,108.500614 L99.4030442,107.171221 L99.8675668,105.234346 L100.159261,103.981438 L100.436582,102.759362 L100.699545,101.568255 L100.948164,100.408252 L101.182455,99.2794908 L101.402432,98.1821068 C101.437903,98.0018319 101.472778,97.82287 101.507058,97.645224 L101.705591,96.5951619 L101.889848,95.576818 L102.059843,94.5903287 L102.215591,93.6358302 L102.357105,92.7134588 C102.379506,92.5624151 102.401314,92.4127156 102.42253,92.2643634 L102.542723,91.3904383 L102.648721,90.5489811 L102.740538,89.7401281 L102.818189,88.9640156 L102.881688,88.2207799 C102.891092,88.0996546 102.899908,87.9799048 102.908135,87.8615335 L102.950435,87.1678686 L102.97862,86.5074212 C102.985665,86.2928235 102.990359,86.0837848 102.992706,85.8803277 L102.994466,85.5793313 C102.994466,79.1338082 103.701664,73.2699574 105.164714,68 Z" id="四" fill="#000000" fill-rule="nonzero"></path>
    </g>
</svg>