<?xml version="1.0" encoding="UTF-8"?>
<svg width="1000px" height="1000px" viewBox="0 0 1000 1000" version="1.1" xmlns="http://www.w3.org/2000/svg" xmlns:xlink="http://www.w3.org/1999/xlink">
    <title>5_wu_l</title>
    <g id="5_wu_l" stroke="none" stroke-width="1" fill="none" fill-rule="evenodd">
        <g id="五" transform="translate(54.900000, 171.000000)" fill="#000000" fill-rule="nonzero">
            <path d="M352.6,137 C363.933333,125 379.6,127.333333 399.6,144 C414.266667,155.333333 422.6,161 424.6,161 C425.933333,161 426.766667,164 427.1,170 C427.433333,176 427.266667,182.166667 426.6,188.5 C425.933333,194.833333 424.6,198.666667 422.6,200 C421.266667,202.666667 418.266667,211.833333 413.6,227.5 C408.933333,243.166667 406.6,253.666667 406.6,259 C406.6,260.333333 408.266667,261.333333 411.6,262 C414.933333,262.666667 420.433333,262.833333 428.1,262.5 C435.766667,262.166667 445.1,261.333333 456.1,260 C467.1,258.666667 480.6,256.666667 496.6,254 C527.933333,249.333333 551.266667,248 566.6,250 C581.933333,252 594.6,258 604.6,268 C608.6,271.333333 614.766667,275.333333 623.1,280 C631.433333,284.666667 639.266667,290 646.6,296 C651.266667,300 653.933333,303.5 654.6,306.5 C655.266667,309.5 654.933333,315.666667 653.6,325 C651.6,337.666667 649.433333,344.666667 647.1,346 C644.766667,347.333333 643.6,350.166667 643.6,354.5 C643.6,358.833333 639.433333,369.833333 631.1,387.5 C622.766667,405.166667 618.6,415.333333 618.6,418 C618.6,420.666667 616.266667,423.5 611.6,426.5 C606.933333,429.5 604.6,435 604.6,443 C604.6,451 602.6,456.666667 598.6,460 C594.6,463.333333 592.6,467.5 592.6,472.5 C592.6,477.5 590.6,482.166667 586.6,486.5 C582.6,490.833333 580.6,494.333333 580.6,497 C580.6,499.666667 578.433333,502.666667 574.1,506 C569.766667,509.333333 567.6,514.166667 567.6,520.5 C567.6,526.833333 565.6,531.666667 561.6,535 C557.6,538.333333 555.6,540.666667 555.6,542 C555.6,544.666667 581.933333,547.5 634.6,550.5 C687.266667,553.5 731.933333,555 768.6,555 C802.6,554.333333 823.266667,554.5 830.6,555.5 C837.933333,556.5 844.933333,559.333333 851.6,564 C858.933333,570 867.433333,581.833333 877.1,599.5 C886.766667,617.166667 891.6,629.333333 891.6,636 C891.6,642 885.266667,651 872.6,663 C863.933333,671 857.6,675.833333 853.6,677.5 C849.6,679.166667 843.933333,679.666667 836.6,679 C824.6,677 806.933333,671.833333 783.6,663.5 C760.266667,655.166667 736.933333,649.333333 713.6,646 L647.6,638 C611.6,632.666667 553.433333,631 473.1,633 C392.766667,635 337.6,639.333333 307.6,646 C294.266667,648.666667 276.266667,652.166667 253.6,656.5 C230.933333,660.833333 216.933333,664.333333 211.6,667 C206.266667,669.666667 196.266667,671 181.6,671 C166.933333,671 150.433333,675.333333 132.1,684 C113.766667,692.666667 103.6,698.166667 101.6,700.5 C99.6,702.833333 93.6,705.666667 83.6,709 C73.6,711.666667 64.6,711.166667 56.6,707.5 C48.6,703.833333 36.9333333,694.666667 21.6,680 C9.6,668.666667 2.6,659.5 0.6,652.5 C-1.4,645.5 1.6,639 9.6,633 C29.6,615.666667 77.6,600.666667 153.6,588 C175.6,584 187.6,581.333333 189.6,580 C192.266667,578 197.933333,571.333333 206.6,560 C215.266667,548.666667 219.6,542.333333 219.6,541 C219.6,539 223.6,532.833333 231.6,522.5 C239.6,512.166667 246.1,501.666667 251.1,491 C256.1,480.333333 260.266667,472.666667 263.6,468 C266.933333,463.333333 277.933333,429.666667 296.6,367 C301.266667,353.666667 302.266667,345.833333 299.6,343.5 C296.933333,341.166667 290.6,343 280.6,349 C257.933333,361.666667 238.266667,361 221.6,347 C214.933333,341 211.1,336.833333 210.1,334.5 C209.1,332.166667 209.933333,329.666667 212.6,327 C217.266667,321.666667 233.766667,314 262.1,304 C290.433333,294 306.766667,287.333333 311.1,284 C315.433333,280.666667 318.266667,272.666667 319.6,260 C328.266667,192 339.266667,151 352.6,137 Z M483.6,446 C489.6,428.666667 497.266667,404.166667 506.6,372.5 C515.933333,340.833333 520.266667,324.166667 519.6,322.5 C518.933333,320.833333 505.933333,319.833333 480.6,319.5 C455.266667,319.166667 432.933333,319.666667 413.6,321 C404.266667,321.666667 398.6,322.833333 396.6,324.5 C394.6,326.166667 393.266667,330.333333 392.6,337 C388.6,354.333333 383.266667,373.5 376.6,394.5 C369.933333,415.5 364.933333,427.666667 361.6,431 C358.266667,435.666667 356.6,440.666667 356.6,446 C356.6,451.333333 352.433333,460 344.1,472 C335.766667,484 331.6,491.833333 331.6,495.5 C331.6,499.166667 329.933333,502 326.6,504 C320.6,508 314.6,516.666667 308.6,530 C306.6,533.333333 302.266667,538.333333 295.6,545 C288.933333,553 285.933333,558.166667 286.6,560.5 C287.266667,562.833333 292.266667,563.333333 301.6,562 C312.266667,560.666667 338.1,559 379.1,557 C420.1,555 442.433333,552.166667 446.1,548.5 C449.766667,544.833333 452.6,536 454.6,522 C456.6,508 460.933333,494.5 467.6,481.5 C474.266667,468.5 479.6,456.666667 483.6,446 Z M436.6,16 C483.933333,10.6666667 512.433333,6.83333333 522.1,4.5 C531.766667,2.16666667 547.933333,0.666666667 570.6,0 C585.266667,0 595.433333,0.5 601.1,1.5 C606.766667,2.5 613.6,5.33333333 621.6,10 C632.933333,17.3333333 638.933333,24 639.6,30 C640.933333,55.3333333 637.933333,71.6666667 630.6,79 C627.266667,83 623.6,85.1666667 619.6,85.5 C615.6,85.8333333 607.6,85.3333333 595.6,84 C552.933333,76 490.6,80 408.6,96 C393.933333,99.3333333 383.933333,102.333333 378.6,105 C373.266667,107.666667 367.266667,112.666667 360.6,120 C351.266667,130 342.933333,136.333333 335.6,139 C328.266667,141.666667 319.933333,141.333333 310.6,138 C297.266667,133.333333 282.266667,123.333333 265.6,108 C248.933333,92.6666667 239.6,80.6666667 237.6,72 C236.266667,62 237.766667,55 242.1,51 C246.433333,47 257.266667,43.3333333 274.6,40 C294.6,37.3333333 311.266667,34.3333333 324.6,31 C343.266667,28.3333333 380.6,23.3333333 436.6,16 Z"></path>
        </g>
    </g>
</svg>