<?xml version="1.0" encoding="UTF-8"?>
<svg width="400px" height="305px" viewBox="0 0 400 305" version="1.1" xmlns="http://www.w3.org/2000/svg" xmlns:xlink="http://www.w3.org/1999/xlink">
    <title>6_liu_s</title>
    <g id="6_liu_s" stroke="none" stroke-width="1" fill="none" fill-rule="evenodd">
        <path d="M158.307518,0.287934144 L158.32799,0.282208512 C159.674798,-0.0203907063 160.728657,-0.0408722799 161.892348,0.0418787668 C162.434444,0.0804277218 162.950279,0.146454256 163.494631,0.236038805 L164.157472,0.354131176 L164.876001,0.49898278 C165.000865,0.525396555 165.128401,0.552956726 165.258783,0.581679007 L166.076648,0.768083738 L166.749233,0.929042433 L167.86372,1.20695347 L169.10657,1.52895205 L170.479615,1.89539809 L172.51604,2.4537554 L173.308829,2.67473133 L173.552179,2.75447189 C180.643246,5.07806427 187.336149,7.9944509 193.620849,11.5047287 C200.334842,15.2547859 204.774486,18.6248719 207.143189,23.1248771 L207.352826,23.5371232 L207.500079,23.8468141 L207.638266,23.9506928 L207.916989,24.1723834 L208.189708,24.4009012 L208.456501,24.6359365 C209.502147,25.5798766 210.297146,26.5776164 211.002507,27.6774621 C211.824351,28.9589367 212.519129,30.3889513 213.222802,32.1131452 L213.536454,32.9005545 C213.642116,33.1720301 213.748908,33.4525477 213.856884,33.7422159 L214.184419,34.6387807 C214.239619,34.7928196 214.295129,34.9491734 214.350955,35.1078554 L214.689768,36.0879965 L215.03651,37.1246694 L215.391511,38.2185253 L215.755101,39.3702155 L216.127608,40.5803914 L216.703808,42.5067408 C216.769028,42.7282531 216.834653,42.9522702 216.900691,43.1788057 C219.915783,53.5217429 221.024969,62.0402589 219.932733,69.1237506 C219.550724,71.6011961 219.238429,73.9067234 218.995246,76.0372227 L218.825808,77.6022307 L218.68223,79.1013118 C218.616897,79.8343219 218.56124,80.5425001 218.515228,81.2256824 C218.321604,84.1006027 217.788782,86.8920977 216.925552,89.5792727 L216.68194,90.3095365 L216.642361,90.4163517 L220.703114,90.1538178 L226.372067,89.7605856 L231.60653,89.3792853 L235.473253,89.0809176 L238.299097,88.8533121 L240.147518,88.6998045 L244.64386,88.3100452 L248.112037,87.9923099 L251.464984,87.6695508 L253.098058,87.5063582 L255.493207,87.2593826 L257.822775,87.009868 L260.82641,86.6733974 L263.7124,86.3328095 L265.111089,86.1610424 L267.819478,85.8147035 L269.772607,85.5526068 L272.272078,85.2002027 L274.067825,84.9338173 L276.356528,84.5760422 L277.993506,84.3058887 L279.046802,84.1249718 L280.069591,83.9434363 L281.0618,83.7613106 L282.492606,83.4870772 L283.85418,83.2116751 L285.146265,82.9351997 L285.968925,82.7503339 L286.760513,82.5650619 L287.520953,82.379412 L288.603045,82.1002908 L289.614631,81.8204788 L290.249724,81.633601 L290.853293,81.4464869 L291.42526,81.259165 C291.517951,81.2279289 291.609321,81.1966854 291.69937,81.1654349 L292.223795,80.9778543 L292.716431,80.7901367 L293.113535,80.6277775 L293.133243,80.6182002 C297.44878,78.4714815 302.918008,77.9001628 310.186767,78.5477104 L311.349514,78.6600318 C312.72372,78.8027695 314.160143,78.9862308 315.662821,79.2081871 L316.967151,79.4078108 L318.304497,79.6259772 L319.675424,79.8623746 C319.906742,79.9032761 320.139483,79.9449242 320.373658,79.9873124 L321.796016,80.2504714 L323.113303,80.5024066 L326.086321,81.0158919 L328.356562,81.4249746 L329.822745,81.6986865 L331.251548,81.9735592 L332.643372,82.2499085 L333.998618,82.5280504 L335.317687,82.8083008 L336.600981,83.0909758 L337.848902,83.3763912 L339.061849,83.664863 L340.240225,83.9567071 L341.384431,84.2522394 C341.572307,84.3018197 341.758776,84.3515669 341.943846,84.4014875 L343.037549,84.7031446 L344.098085,85.0092799 L345.125856,85.3202093 L346.121262,85.6362487 C347.263845,86.0080651 348.341171,86.3909594 349.356106,86.7871895 L350.210837,87.1301338 C353.849043,88.6308344 356.637813,90.3244123 358.724078,92.326556 L358.970673,92.5681503 L359.388163,92.9458308 C366.019234,99.0296707 369.68964,106.850287 369.981169,115.755474 L369.995387,116.337779 L370,116.910892 C370,126.530527 366.006089,134.997264 358.621392,141.613264 L358.368325,141.835298 L358.13549,142.053177 C352.951715,146.804875 347.057884,149.409444 340.714867,149.207489 L340.199589,149.184951 L339.69566,149.151085 L339.203456,149.107206 L338.681891,149.050786 L338.130641,148.981786 L337.54938,148.900168 L336.937786,148.805892 L335.962809,148.640659 L334.917755,148.446727 L333.801529,148.223963 L333.017298,148.059372 L331.78002,147.788263 L330.468651,147.48797 L328.603014,147.041956 L327.114508,146.673057 L325.548261,146.274534 L323.337109,145.696863 L320.372127,144.899911 L316.512595,143.832963 L314.340815,143.220394 L313.744084,143.046653 L312.528586,142.704925 L311.283726,142.37088 L310.009525,142.04453 C309.794715,141.990781 309.578682,141.937352 309.361429,141.884245 L308.043256,141.569463 L306.695797,141.262407 C306.468781,141.211875 306.240545,141.161667 306.011091,141.11178 L304.61974,140.816339 C304.385411,140.767744 304.149865,140.719474 303.913101,140.671526 L302.477907,140.387727 C302.236274,140.341075 301.993425,140.294746 301.749359,140.248743 L300.270371,139.976614 C299.523583,139.842497 298.765857,139.711304 297.997204,139.583042 L296.445333,139.330427 C296.184261,139.288977 295.921976,139.247852 295.658478,139.207054 L294.062941,138.966185 L292.438322,138.733163 L290.78464,138.508 L289.101917,138.290708 L287.390176,138.081301 L285.649437,137.87979 L283.879721,137.686189 L282.081051,137.50051 L280.253448,137.322766 L278.396933,137.152968 L276.511527,136.991131 L274.597253,136.837266 L272.654131,136.691385 L270.682184,136.553503 L268.681432,136.42363 L266.651897,136.30178 L264.5936,136.187965 L262.506564,136.082198 L260.390808,135.984492 L258.246356,135.894858 L256.073228,135.813311 L253.871446,135.739861 L251.641031,135.674522 L249.382005,135.617307 L247.09439,135.568227 L244.778205,135.527296 C244.389795,135.521154 244.000195,135.515352 243.609407,135.50989 L240.060218,135.46993 L236.446895,135.448389 L234.002419,135.444283 C226.070654,135.444283 216.79117,136.418863 206.197654,138.391176 L204.090283,138.792265 L202.753533,139.056609 L200.851269,139.448281 L199.652028,139.70601 L197.957182,140.087253 L196.896989,140.337692 L195.892847,140.585025 L194.945002,140.829145 C194.791733,140.869558 194.64082,140.909832 194.492268,140.949966 L193.629331,141.189064 L192.844779,141.418295 C192.719734,141.455869 192.597566,141.493114 192.478304,141.530009 L191.797842,141.747002 C191.260244,141.924044 190.796771,142.091267 190.411101,142.246035 L190.113943,142.369582 L189.919038,142.456125 L189.481926,142.753854 C188.962905,143.093871 188.411233,143.408668 187.816865,143.702938 L187.296716,143.950251 C187.208203,143.990668 187.118761,144.030694 187.02836,144.070342 L186.474207,144.303804 L185.895627,144.528853 C185.69854,144.60254 185.497148,144.674934 185.291216,144.746145 L184.659567,144.956336 L183.999276,145.160084 L183.308935,145.358044 L182.587141,145.550873 L181.832486,145.739228 L181.043566,145.923765 C180.909146,145.954239 180.77324,145.984582 180.635817,146.014807 L179.792864,146.194848 L178.457158,146.461033 L177.517121,146.636863 L176.0292,146.899809 L174.443626,147.163766 L172.169421,147.521111 L169.88037,147.862745 L168.804312,148.05105 C159.707423,149.65028 151.327127,151.355339 143.671147,153.159622 L141.145991,153.764716 L138.674551,154.377105 C138.267125,154.479775 137.861939,154.582746 137.458995,154.686019 C148.599231,153.398963 159.410002,158.842181 169.85531,169.669888 L170.340074,170.176554 C181.982805,182.412408 187.986382,195.357462 187.496349,208.827302 L187.46862,209.459084 L187.443851,209.940992 L187.381567,210.41933 C186.614414,216.311045 184.271416,222.124543 180.522389,227.883027 C176.648311,233.83359 171.936147,238.253085 166.375548,240.840612 L165.816659,241.093247 C164.918964,241.490755 163.976673,241.954315 162.990524,242.483801 L162.13453,242.953788 C161.99008,243.034809 161.844739,243.117175 161.69851,243.200885 L160.810488,243.719274 C160.061612,244.164703 159.290628,244.643722 158.497807,245.156283 L157.535955,245.787455 L156.553242,246.45081 C156.222206,246.677291 155.88771,246.909132 155.549771,247.146332 L154.525644,247.874001 L153.480966,248.633801 C153.305146,248.763111 153.128474,248.893758 152.950952,249.025744 L151.875639,249.833706 L150.780033,250.673754 L149.664236,251.545871 C149.476594,251.693895 149.288114,251.843254 149.098799,251.993949 L147.95291,252.914134 C147.760265,253.070168 147.566789,253.227536 147.372485,253.386237 L146.196737,254.354452 L145.001211,255.354664 L143.786012,256.386856 L142.551241,257.451009 L141.297004,258.547107 L140.023402,259.675131 L138.730539,260.835063 C138.513462,261.031043 138.295587,261.228352 138.076917,261.426989 L136.755356,262.634751 C136.533509,262.838701 136.310871,263.043978 136.087443,263.250583 L134.737417,264.506134 C134.510839,264.718046 134.283476,264.931285 134.05533,265.14585 L132.67707,266.449151 L131.829565,267.257391 L130.925947,268.055637 L130.145483,268.731499 L128.912657,269.776773 L128.049278,270.494686 L127.152645,271.229511 L126.222707,271.981299 L124.765243,273.140902 L123.751821,273.935326 L122.704917,274.746897 L121.62448,275.575665 L120.51046,276.421683 L118.776351,277.723167 L116.966394,279.063756 L115.717535,279.979293 L113.780787,281.385446 L112.447242,282.344856 L110.383228,283.817062 L107.512045,285.842047 L104.504302,287.93832 L102.158634,289.557559 L98.7536327,291.886349 L96.3100738,293.540252 L94.5834181,294.698207 L92.4218108,296.1326 L90.9055434,297.126518 L89.478784,298.050499 L88.1411375,298.904761 L86.8922089,299.689524 L86.1086824,300.174197 L84.8864077,300.915771 L83.9730699,301.455848 C83.8254269,301.542002 83.6800287,301.626242 83.536808,301.708594 L82.7030729,302.180241 C82.5682919,302.255137 82.4355533,302.328195 82.3047897,302.399438 L81.5433669,302.805323 C81.0508311,303.061661 80.587734,303.289759 80.1497554,303.491199 C78.9948733,304.022364 77.9330468,304.419084 76.7107157,304.689966 C75.4268852,304.974477 74.110059,305.095649 72.5618576,304.914193 C69.6737768,304.575697 66.8212864,303.23902 64.6866021,300.572998 L64.4235545,300.232797 L64.0781258,299.750233 C60.663991,294.834924 61.1521325,289.706895 63.4357226,285.19845 L63.5979295,284.884923 L63.7620126,284.580368 C64.8753208,282.55366 66.3983145,280.617247 68.3927366,278.525651 L68.974393,277.92243 L69.2163197,277.659034 L69.4792531,277.358459 L69.7629461,277.020955 L70.0671514,276.646772 L70.561379,276.017271 L71.1003686,275.306645 L71.8872088,274.234408 L72.5273978,273.33777 L73.2095671,272.362816 L73.9328824,271.310391 L74.6965092,270.181335 L75.7759427,268.558182 L76.9235796,266.802293 L77.8278758,265.39947 L78.7685894,263.923949 L80.4255858,261.289691 L82.2872979,258.285478 L83.376566,256.499282 L84.3428887,254.889105 L85.185026,253.457283 L85.7343862,252.501869 L86.4471926,251.221946 L86.7716001,250.612637 L86.789801,250.513044 C87.4371888,247.216802 89.1465674,244.565265 91.6187093,242.07551 L91.9605193,241.736955 L92.091559,241.610042 L92.1594162,241.229775 C92.979283,236.862544 95.5478023,232.597992 99.9602458,226.879613 L101.453938,224.964988 L102.354818,223.794208 L102.900244,223.072537 L103.401066,222.398821 L103.856878,221.773808 L104.267274,221.198247 L104.631846,220.672889 L104.909107,220.258413 L104.931508,220.16643 C105.030465,219.763911 105.149365,219.3572 105.290278,218.940126 L105.470073,218.43427 L105.671795,217.916099 C105.707287,217.828579 105.743726,217.740447 105.781128,217.651654 L106.017232,217.110569 L106.277251,216.551246 L106.561979,215.971319 L106.872212,215.368417 C106.926087,215.265888 106.981058,215.162302 107.037141,215.057612 L107.387121,214.415809 L107.764593,213.745111 L108.170352,213.04315 L108.605192,212.307558 L109.313719,211.135927 L110.09215,209.875303 L110.943169,208.51769 L112.268605,206.42793 L112.353189,206.302199 C112.610439,205.919811 112.861325,205.542628 113.105845,205.170718 L113.82031,204.070882 C114.399784,203.167654 114.93947,202.297821 115.439359,201.462469 L116.020121,200.476666 C117.517874,197.892361 118.608047,195.665567 119.290264,193.831775 L119.40326,193.521096 L119.596721,192.948335 C119.711557,192.588486 119.798546,192.273151 119.860255,192.005484 L119.906638,191.779931 L119.900881,191.760824 C118.806359,188.326859 119.039751,184.736682 120.338416,181.455238 L120.506278,181.046699 L120.678043,180.657094 C121.325271,179.236895 122.143198,177.928476 123.12266,176.687549 L123.497511,176.225279 L123.779549,175.893991 L123.731074,175.80059 C121.991961,172.404625 121.643401,168.347805 123.436337,164.150853 L123.616557,163.744276 L123.7881,163.382225 C125.362752,160.15735 127.736088,157.937174 130.579459,156.539782 C120.820663,159.307331 112.573744,162.272013 105.861261,165.414397 L105.121745,165.764281 L104.51764,166.055745 L101.843088,167.3654 L99.9274809,168.286248 L98.6097369,168.905958 L97.3855848,169.467075 L96.2474872,169.971583 L95.5328413,170.27745 L94.8508586,170.559625 L94.1993056,170.818697 L93.5759492,171.055251 L92.9785558,171.269875 L92.4048924,171.463157 L92.1809701,171.533736 L92.0860372,171.650123 C91.9499852,171.816124 91.8058921,171.995465 91.6542093,172.187831 L91.1768441,172.803696 C91.0936389,172.912749 91.0086493,173.02498 90.9219317,173.140351 L90.4212723,173.815359 L90.1718907,174.155847 L89.8996903,174.477461 C84.6304759,180.703218 78.5180678,184.434595 71.4943626,184.71122 C65.4518106,184.949203 59.3037576,182.638276 52.5757234,178.258418 L51.7277262,177.69832 L51.4836401,177.516989 C49.603824,176.120475 47.8559197,174.767884 46.2375675,173.454157 L45.0480576,172.47607 C40.9695334,169.077719 37.7796405,165.938458 35.4357023,162.966801 C33.1967131,160.128199 31.5854446,157.286648 30.7069516,154.213105 C29.488779,149.95114 29.8047671,145.488123 31.9681693,141.541393 L32.1985724,141.134982 L32.3103603,140.94807 C34.3030274,137.683296 37.5050483,134.95215 42.4438647,132.008135 L43.3903746,131.453456 C43.5515614,131.360533 43.7144764,131.267356 43.8791358,131.173903 L44.8881536,130.60969 L45.9398091,130.037753 L47.0348749,129.457 L48.1741236,128.866337 L49.3583279,128.264671 L50.5882603,127.650908 C58.7413805,123.615672 66.2550548,120.798046 73.1840078,119.229831 L73.9022878,119.070835 L74.4968867,118.934843 L75.8051247,118.624894 L77.1595307,118.292173 L78.560022,117.936688 L80.0065162,117.558445 L81.4989307,117.15745 L83.0371831,116.73371 L84.6211908,116.287232 L86.2508712,115.818021 L87.926142,115.326085 L89.6469205,114.811431 L91.4131242,114.274063 L93.2246706,113.71399 L96.0268274,112.831321 L99.0709193,111.853008 L103.255712,110.564516 L106.472672,109.591186 L108.809721,108.894677 L111.082389,108.226848 L114.013214,107.380986 L116.831378,106.586022 L118.871685,106.02317 L121.495159,105.317156 L122.765641,104.983187 L124.620157,104.506012 L126.413607,104.057354 L127.575528,103.77408 L129.268163,103.372901 L130.900885,103.000181 L131.956295,102.767501 L133.490123,102.442166 L134.965192,102.145233 L136.381934,101.876681 L137.294238,101.713403 L138.614728,101.492104 L139.463265,101.360309 L140.286519,101.241095 L141.474275,101.085852 L142.234882,100.998066 L142.970656,100.92284 L143.681723,100.860167 L144.368212,100.810041 L145.030251,100.772456 L145.667968,100.747406 C145.772235,100.744275 145.875493,100.741666 145.977746,100.739579 L146.412639,100.733503 L146.952638,100.680595 L147.373872,100.631909 L148.552814,100.478897 L150.02535,100.268253 L152.114488,99.9485609 L154.563355,99.554775 L158.592392,98.8794435 L159.948682,98.646228 L159.824758,98.3559926 C158.714713,95.7332048 157.613315,92.7734858 156.498652,89.4552486 L156.194308,88.5413697 L155.932843,87.7438216 C153.04936,78.8857935 151.035567,70.7084342 149.916522,63.2586704 C148.968541,57.1916138 147.467378,50.3665107 145.40804,42.7998013 L145.038082,41.4611382 L144.674416,40.1866333 C144.554269,39.7725366 144.435213,39.3692008 144.317287,38.9766939 L143.966943,37.8317278 L143.62363,36.7521422 L143.287594,35.7383449 C143.176822,35.4114225 143.067305,35.0955326 142.959082,34.7907433 L142.638341,33.9097448 L142.405141,33.2984902 L142.078236,32.4853118 L141.784256,31.8012305 L141.609587,31.4194818 L141.454092,31.0989869 L141.319586,30.8412968 L141.207886,30.6479624 L140.970656,30.2972398 L140.795799,30.0080001 C133.099032,17.2764091 138.955132,4.99821461 152.792697,1.11161768 L153.214454,0.996418787 L154.092599,0.763288595 L156.427644,0.518971591 L157.545257,0.389286661 L158.307518,0.287934144 Z M230.982804,171.049891 L231.853686,171.020991 C232.003271,171.017205 232.155083,171.013934 232.309136,171.011175 L233.260464,171 C233.586613,171 233.921838,171 234.266249,171.002549 L235.327152,171.016463 L236.443835,171.042408 L237.616957,171.080297 L238.847181,171.130041 L240.135168,171.19155 L241.481579,171.264736 L242.136333,171.302548 L242.71934,171.329401 C249.346828,171.654214 254.443653,172.481266 258.424393,174.120826 L258.862126,174.306359 L259.290799,174.498674 L259.811347,174.745632 L260.35994,175.019044 C260.453736,175.06683 260.548721,175.115727 260.644905,175.165741 L261.236475,175.479259 L261.857305,175.819797 L262.50788,176.187583 L263.188686,176.582844 L264.267641,177.227745 L265.026151,177.692684 L265.816593,178.185891 L267.063192,178.979202 L268.384371,179.837392 L269.781772,180.761228 L271.257033,181.751476 L272.811795,182.8089 L275.011315,184.32462 L275.483771,184.652393 L276.838664,185.562366 C285.941638,191.710679 294.233521,198.085244 301.712069,204.69106 L302.950963,205.794172 L305.068797,207.711477 L305.99153,208.537767 L306.881869,209.324816 L307.739525,210.072471 L308.564209,210.780579 L309.355632,211.448988 L310.113505,212.077544 L310.83754,212.666094 C310.955376,212.760843 311.071791,212.853919 311.186777,212.945318 L311.859513,213.473573 C311.968763,213.558254 312.076574,213.641252 312.182938,213.722564 L312.803724,214.190178 C312.90428,214.264733 313.003378,214.337596 313.101012,214.408763 L313.635617,214.79169 L314.119216,215.124809 L314.549155,215.407517 L314.922783,215.639208 L315.046698,215.710994 L315.141154,215.732014 C322.175659,217.308375 326.878938,222.835595 328.085821,230.107544 L328.150393,230.521012 L328.20745,230.938118 C328.264119,231.383633 328.337776,231.71299 328.412072,231.935617 L328.447348,232.034957 L328.704901,232.35086 C331.055191,235.304324 332.806245,238.949588 334.142849,243.302388 L334.350475,243.995554 L334.541957,244.666658 C335.080851,246.600745 335.648675,248.008495 336.153182,248.883836 L336.260288,249.063258 L336.362982,249.223965 L336.619666,249.555841 C341.958274,256.611008 342.122154,265.690672 338.703108,276.167841 L338.516527,276.730451 L338.326536,277.285945 C334.766315,287.542808 329.266763,295.012538 321.502562,298.972359 L321.02437,299.210406 L320.856947,299.290079 C316.233341,301.445157 311.29927,302.325076 306.245228,301.893196 C303.361854,301.646805 300.874093,301.079912 298.538112,299.882223 C296.7835,298.982609 295.222925,297.755138 293.977464,296.247905 L293.672734,295.865297 L293.566263,295.722234 L293.232683,295.611374 C287.945507,293.786101 282.510976,289.589161 276.170632,282.914569 L275.187945,281.868146 C274.362914,280.979814 273.522355,280.050669 272.66467,279.080487 L271.627126,277.896556 L271.112756,277.302273 C263.084255,267.989938 256.35044,258.303643 250.927561,248.245008 L250.378528,247.213611 L250.248072,246.978401 L249.965394,246.483966 L249.653769,245.957663 L249.313288,245.399679 L248.944041,244.810199 L248.336432,243.867329 L247.895664,243.19992 L247.181197,242.141027 L246.669473,241.396849 L245.56144,239.817531 L244.65676,238.554181 L243.689285,237.22393 L242.65932,235.827407 L241.189351,233.863365 L240.014758,232.314639 L238.77869,230.701727 L237.481451,229.025255 C236.501882,227.765093 235.562458,226.530869 234.663098,225.321887 L233.603091,223.88318 C228.399161,216.749775 224.636367,210.514999 222.297162,205.02809 L222.000771,204.317426 L216.677101,193.008737 L216.573364,192.760529 C214.230862,187.15571 214.230862,181.118012 218.449464,176.071164 C220.84229,173.208551 223.305992,172.175045 226.390672,171.549778 C227.760132,171.272188 229.251655,171.121857 230.982804,171.049891 Z" id="六" fill="#000000" fill-rule="nonzero"></path>
    </g>
</svg>