<?xml version="1.0" encoding="UTF-8"?>
<svg width="1000px" height="1000px" viewBox="0 0 1000 1000" version="1.1" xmlns="http://www.w3.org/2000/svg" xmlns:xlink="http://www.w3.org/1999/xlink">
    <title>6_liu_l</title>
    <g id="6_liu_l" stroke="none" stroke-width="1" fill="none" fill-rule="evenodd">
        <g id="六" transform="translate(88.150000, 138.461538)" fill="#000000" fill-rule="nonzero">
            <path d="M482.35,510.538462 C480.35,505.871795 480.35,502.371795 482.35,500.038462 C484.35,497.705128 496.683333,497.205128 519.35,498.538462 C535.35,499.205128 546.683333,501.038462 553.35,504.038462 C560.016667,507.038462 572.683333,514.871795 591.35,527.538462 C618.016667,544.871795 641.85,562.871795 662.85,581.538462 C683.85,600.205128 697.683333,610.038462 704.35,611.038462 C711.016667,612.038462 714.85,616.371795 715.85,624.038462 C716.85,631.705128 719.35,637.871795 723.35,642.538462 C727.35,647.205128 730.683333,654.205128 733.35,663.538462 C736.016667,672.871795 739.35,680.205128 743.35,685.538462 C750.683333,694.205128 750.85,708.371795 743.85,728.038462 C736.85,747.705128 727.016667,760.538462 714.35,766.538462 C707.016667,769.871795 699.35,771.205128 691.35,770.538462 C683.35,769.871795 679.35,767.871795 679.35,764.538462 C679.35,761.871795 675.016667,759.205128 666.35,756.538462 C655.683333,753.871795 640.183333,741.038462 619.85,718.038462 C599.516667,695.038462 582.683333,671.205128 569.35,646.538462 C563.35,635.871795 551.183333,619.038462 532.85,596.038462 C514.516667,573.038462 502.35,554.205128 496.35,539.538462 L482.35,510.538462 Z M250.35,455.538462 C269.683333,452.205128 290.683333,462.205128 313.35,485.538462 C338.683333,511.538462 350.683333,537.205128 349.35,562.538462 C348.016667,572.538462 343.683333,583.038462 336.35,594.038462 C329.016667,605.038462 320.683333,612.538462 311.35,616.538462 C286.683333,627.205128 254.35,651.205128 214.35,688.538462 C199.016667,701.871795 173.683333,720.371795 138.35,744.038462 C103.016667,767.705128 84.6833333,778.538462 83.35,776.538462 C81.35,773.871795 84.35,768.538462 92.35,760.538462 C99.0166667,753.871795 109.85,738.871795 124.85,715.538462 C139.85,692.205128 147.35,679.205128 147.35,676.538462 C147.35,673.871795 149.683333,670.538462 154.35,666.538462 C159.016667,662.538462 161.35,658.038462 161.35,653.038462 C161.35,648.038462 166.85,638.705128 177.85,625.038462 C188.85,611.371795 194.35,603.205128 194.35,600.538462 C194.35,597.871795 199.35,588.871795 209.35,573.538462 C230.016667,543.538462 238.016667,522.538462 233.35,510.538462 C231.35,506.538462 233.683333,501.538462 240.35,495.538462 C245.683333,491.538462 248.683333,486.538462 249.35,480.538462 C250.016667,474.538462 248.516667,470.371795 244.85,468.038462 C241.183333,465.705128 240.016667,463.205128 241.35,460.538462 C242.683333,457.871795 245.683333,456.205128 250.35,455.538462 Z M298.35,1.53846154 C305.016667,0.871794872 309.016667,0.371794872 310.35,0.0384615385 C311.683333,-0.294871795 319.683333,1.53846154 334.35,5.53846154 C351.016667,10.8717949 366.683333,17.5384615 381.35,25.5384615 C396.016667,33.5384615 404.016667,40.2051282 405.35,45.5384615 C408.016667,51.5384615 410.683333,54.5384615 413.35,54.5384615 C416.016667,54.5384615 420.683333,65.7051282 427.35,88.0384615 C434.016667,110.371795 436.35,127.871795 434.35,140.538462 C432.35,153.205128 431.016667,164.371795 430.35,174.038462 C429.683333,183.705128 426.683333,192.705128 421.35,201.038462 C416.016667,209.371795 413.35,216.538462 413.35,222.538462 C413.35,227.205128 415.35,230.205128 419.35,231.538462 C425.35,232.205128 451.35,230.871795 497.35,227.538462 C588.016667,220.871795 645.016667,212.538462 668.35,202.538462 C677.016667,197.871795 697.016667,198.538462 728.35,204.538462 C773.016667,211.871795 799.016667,219.538462 806.35,227.538462 C819.016667,238.205128 825.35,251.371795 825.35,267.038462 C825.35,282.705128 818.683333,296.205128 805.35,307.538462 C796.683333,315.538462 788.016667,319.205128 779.35,318.538462 C770.683333,317.871795 750.683333,313.205128 719.35,304.538462 C670.683333,290.538462 598.016667,283.538462 501.35,283.538462 C478.683333,283.538462 452.683333,286.205128 423.35,291.538462 C394.016667,296.871795 376.016667,301.871795 369.35,306.538462 C366.016667,309.205128 352.683333,312.205128 329.35,315.538462 C250.683333,328.871795 191.016667,345.205128 150.35,364.538462 C132.35,373.205128 121.85,377.538462 118.85,377.538462 C115.85,377.538462 110.35,382.871795 102.35,393.538462 C93.6833333,403.538462 85.0166667,408.705128 76.35,409.038462 C67.6833333,409.371795 56.6833333,405.205128 43.35,396.538462 C9.35,371.871795 -4.65,354.538462 1.35,344.538462 C4.68333333,339.205128 16.35,331.705128 36.35,322.038462 C56.35,312.371795 74.35,305.871795 90.35,302.538462 C108.35,298.538462 131.016667,292.205128 158.35,283.538462 C217.683333,265.538462 256.016667,256.538462 273.35,256.538462 C277.35,256.538462 291.183333,254.538462 314.85,250.538462 C338.516667,246.538462 351.683333,244.205128 354.35,243.538462 C357.016667,242.205128 354.35,236.538462 346.35,226.538462 C340.35,218.538462 333.85,204.038462 326.85,183.038462 C319.85,162.038462 315.016667,142.871795 312.35,125.538462 C309.683333,108.871795 305.516667,90.3717949 299.85,70.0384615 C294.183333,49.7051282 289.016667,36.2051282 284.35,29.5384615 C275.683333,15.5384615 280.35,6.20512821 298.35,1.53846154 Z"></path>
        </g>
    </g>
</svg>