<?xml version="1.0" encoding="UTF-8"?>
<svg width="520px" height="230px" viewBox="0 0 520 230" version="1.1" xmlns="http://www.w3.org/2000/svg" xmlns:xlink="http://www.w3.org/1999/xlink">
    <title>6_liu_m</title>
    <g id="6_liu_m" stroke="none" stroke-width="1" fill="none" fill-rule="evenodd">
        <path d="M211.06,-12.767 L211.077402,-12.7717496 C212.222197,-13.0227674 213.117984,-13.0397576 214.107129,-12.9711124 C214.567915,-12.9391346 215.006377,-12.884363 215.46908,-12.8100492 L216.032499,-12.712087 L216.643254,-12.591927 C216.749389,-12.5700158 216.857795,-12.5471535 216.968621,-12.5233273 L217.663811,-12.3686974 L218.235513,-12.2351759 L219.182835,-12.004638 L220.239265,-11.7375278 L221.406363,-11.4335466 L223.137337,-10.9703677 L223.811213,-10.7870596 L224.018062,-10.7209118 C230.045515,-8.79340223 235.734527,-6.37414699 241.076563,-3.46223609 C246.783502,-0.351418998 250.557228,2.44419745 252.570641,6.17712535 L252.748834,6.51909941 L252.874,6.776 L252.99146,6.86217135 L253.228377,7.04607227 L253.460189,7.23563661 L253.686965,7.43060743 C254.575771,8.2136422 255.251526,9.04130586 255.851087,9.95367031 C256.54966,11.0167029 257.140225,12.2029552 257.738352,13.6332406 L258.004959,14.286427 C258.094772,14.5116265 258.185545,14.7443267 258.277326,14.9846176 L258.555733,15.7283527 C258.602653,15.8561339 258.649837,15.9858354 258.69729,16.1174683 L258.985283,16.9305331 L259.280016,17.7904933 L259.581769,18.6978889 L259.890823,19.6532604 L260.207456,20.657148 L260.69723,22.2551291 C260.752667,22.4388822 260.808449,22.624713 260.864581,22.8126329 C263.42743,31.3924984 264.370245,38.4589361 263.441837,44.3349659 C263.117127,46.3901025 262.851675,48.3026263 262.644967,50.0699577 L262.500944,51.3681923 L262.378902,52.6117378 C262.323368,53.219798 262.27606,53.8072592 262.236949,54.3739852 C262.072368,56.7588425 261.619465,59.0744953 260.885714,61.3036107 L260.678642,61.9093927 L260.645,61.998 L264.096667,61.780218 L268.915314,61.4540168 L273.364642,61.1377135 L276.651382,60.8902059 L279.053367,60.7013984 L280.624538,60.5740579 L284.446458,60.2507375 L287.394431,59.9871638 L290.244458,59.7194227 L291.632582,59.5840482 L293.668474,59.3791724 L295.648622,59.1721904 L298.201731,58.893075 L300.654842,58.6105442 L301.843737,58.4680568 L304.145885,58.1807553 L305.806058,57.9633359 L307.930625,57.6710032 L309.457022,57.4500262 L311.402434,57.1532379 L312.793876,56.9291352 L313.689184,56.7790577 L314.558562,56.628467 L315.401946,56.4773867 L316.618141,56.2498995 L317.775487,56.0214428 L318.873768,55.7920958 L319.573035,55.6387425 L320.245889,55.4850522 L320.892268,55.3310485 L321.812054,55.0995066 L322.671908,54.8673918 L323.211742,54.7123694 L323.724779,54.5571511 L324.210955,54.4017603 C324.289743,54.3758488 324.367408,54.3499311 324.443951,54.3240076 L324.889715,54.1684023 L325.308458,54.0126832 L325.646,53.878 L325.662752,53.8700553 C329.330986,52.0892693 333.979866,51.6153384 340.158359,52.1525041 L341.146702,52.2456791 C342.314786,52.3640855 343.535755,52.5162737 344.813041,52.7003951 L345.92173,52.8659906 L347.058483,53.0469681 L348.22378,53.2430688 C348.420402,53.2769982 348.618233,53.3115469 348.817283,53.3467096 L350.026297,53.5650101 L351.146,53.774 L353.673085,54.1999559 L355.602804,54.5393058 L356.849069,54.7663604 L358.063561,54.9943779 L359.24662,55.2236203 L360.398588,55.4543497 L361.519806,55.6868283 L362.610615,55.9213181 L363.671355,56.1580812 L364.702369,56.3973796 L365.703996,56.6394756 L366.676579,56.8846311 C366.836274,56.9257598 366.994774,56.967027 367.152085,57.0084381 L368.08174,57.2586743 L368.983202,57.5126254 L369.856814,57.7705533 L370.702916,58.0327202 C371.674119,58.3411562 372.589853,58.6587818 373.452554,58.98747 L374.179082,59.2719555 C377.27158,60.5168445 379.642053,61.9217328 381.415392,63.5825882 L381.625,63.783 L381.979869,64.0963005 C387.616323,69.1430805 390.736192,75.6305836 390.983993,83.0177801 L390.996079,83.5008238 L391,83.9762439 C391,91.9561019 387.605149,98.9795871 381.328108,104.467815 L381.113,104.652 L380.915089,104.832739 C376.508846,108.774456 371.49905,110.935046 366.107445,110.767517 L365.669455,110.748821 L365.241112,110.720728 L364.822735,110.684328 L364.379402,110.637525 L363.910835,110.580287 L363.41676,110.512582 L362.896901,110.434376 L362.068164,110.29731 L361.179861,110.136436 L360.231062,109.951645 L359.564461,109.815109 L358.512766,109.590214 L357.398094,109.34111 L355.81229,108.971124 L354.54705,108.665108 L353.21573,108.334518 L351.336236,107.855317 L348.815982,107.194215 L345.535354,106.30914 L343.689327,105.800991 L343.182102,105.656866 L342.148921,105.373389 L341.090782,105.096286 L340.007703,104.825566 C339.825112,104.780979 339.641483,104.736658 339.456816,104.692604 L338.336361,104.431479 L337.191011,104.176765 C336.998046,104.134847 336.804045,104.093197 336.609007,104.051814 L335.42635,103.806734 C335.227169,103.766423 335.026953,103.726381 334.825701,103.686606 L333.605778,103.451184 C333.400388,103.412484 333.193964,103.374053 332.986507,103.335891 L331.729357,103.11015 C331.094583,102.998895 330.45051,102.890065 329.79715,102.783667 L328.47805,102.574113 C328.256137,102.539728 328.033193,102.505614 327.809218,102.47177 L326.453001,102.27196 L325.072064,102.078659 L323.666424,101.891878 L322.236098,101.711626 L320.781107,101.537915 L319.301467,101.370754 L317.797197,101.210154 L316.268316,101.056126 L314.714841,100.90868 L313.136791,100.767827 L311.534184,100.633576 L309.907038,100.505939 L308.255372,100.384926 L306.579204,100.270547 L304.878552,100.162812 L303.153433,100.061733 L301.403868,99.9673195 L299.629873,99.8795818 L297.831467,99.7985305 L296.008669,99.7241762 L294.161496,99.6565291 L292.289967,99.5955999 L290.394099,99.5413988 L288.473912,99.4939364 L286.529424,99.4532231 L284.560652,99.4192692 C284.230501,99.4141742 283.899339,99.4093611 283.567166,99.4048304 L280.550332,99.371682 L277.478984,99.3538129 L275.401163,99.3504062 C268.659111,99.3504062 260.771488,100.158858 251.76693,101.794968 L249.975651,102.127687 L248.839405,102.34697 L247.222468,102.671877 L246.203105,102.885673 L244.762475,103.201929 L243.861304,103.409678 L243.007776,103.61485 L242.202102,103.817357 C242.071822,103.850881 241.943545,103.88429 241.817275,103.917583 L241.083773,104.115924 L240.416898,104.30608 C240.31061,104.337249 240.206766,104.368146 240.105393,104.398751 L239.526995,104.578755 C239.070034,104.725618 238.676078,104.864336 238.348256,104.992722 L238.09567,105.095209 L237.93,105.167 L237.558451,105.413977 C237.117281,105.696035 236.648355,105.957171 236.143138,106.201279 L235.701008,106.406435 C235.625772,106.439963 235.549746,106.473166 235.472904,106.506055 L235.00187,106.699721 L234.510074,106.886408 C234.342549,106.947534 234.171364,107.007588 233.996321,107.06666 L233.459415,107.241022 L232.898163,107.410038 L232.311369,107.574254 L231.697839,107.734213 L231.056377,107.890461 L230.38579,108.043541 C230.271532,108.068821 230.156011,108.093991 230.039201,108.119064 L229.322685,108.268415 L228.187326,108.489226 L227.388288,108.635083 L226.123546,108.853208 L224.775798,109.07217 L222.842709,109.368601 L220.897,109.652 L219.982344,109.808207 C212.249929,111.134829 205.126621,112.549242 198.618988,114.045964 L196.472589,114.547913 L194.371849,115.055913 C194.025534,115.141082 193.681124,115.2265 193.338619,115.312169 C202.807892,114.244507 211.997119,118.759866 220.875699,127.741867 L221.287752,128.162166 C231.18415,138.312278 236.287229,149.0507 235.870698,160.224452 L235.847128,160.74854 L235.826074,161.148302 L235.773132,161.545101 C235.121047,166.432506 233.129484,171.255027 229.942786,176.031911 C226.649795,180.968133 222.644424,184.634275 217.917878,186.780728 L217.442819,186.990298 C216.679772,187.320047 215.878819,187.704588 215.040586,188.143817 L214.312985,188.533689 C214.190202,188.600899 214.066661,188.669225 213.942365,188.738666 L213.187541,189.16869 C212.550991,189.53819 211.89565,189.935555 211.221747,190.360744 L210.404167,190.884325 L209.568854,191.434604 C209.287471,191.622478 209.003147,191.8148 208.715897,192.011566 L207.845383,192.615196 L206.957399,193.245479 C206.807951,193.352746 206.657778,193.461124 206.506884,193.570611 L205.592861,194.240847 L204.661588,194.937699 L203.713154,195.661153 C203.553656,195.783945 203.393447,195.907845 203.232528,196.032852 L202.258516,196.796181 C202.094766,196.925617 201.93031,197.056159 201.76515,197.187809 L200.765756,197.99098 L199.749552,198.820695 L198.716624,199.676937 L197.667061,200.559694 L196.600951,201.468949 L195.518381,202.404688 L194.419439,203.366897 C194.234923,203.52947 194.049728,203.693145 193.863856,203.857923 L192.740521,204.859808 C192.55195,205.028992 192.362706,205.199277 192.17279,205.370663 L191.025259,206.412192 C190.832667,206.587981 190.639406,206.764871 190.445481,206.942861 L189.273951,208.024 L188.553566,208.694466 L187.785485,209.356642 L187.122085,209.917295 L186.074175,210.78439 L185.340297,211.379927 L184.578154,211.989492 L183.7877,212.613129 L182.548846,213.575065 L181.687431,214.234071 L180.797555,214.9073 L179.879177,215.594795 L178.932253,216.296599 L177.458248,217.376231 L175.919773,218.488301 L174.858235,219.247774 L173.211986,220.414233 L172.078464,221.2101 L170.324039,222.431352 L167.883514,224.111155 L165.326913,225.850094 L163.33308,227.193315 L160.438806,229.125136 L158.361765,230.497113 L156.894097,231.457681 L155.056716,232.647566 L153.767879,233.472059 L152.555124,234.238537 L151.418116,234.94718 L150.356518,235.598172 L149.690516,236.000226 L148.651574,236.61539 L147.875231,237.063405 C147.749733,237.134873 147.626144,237.204754 147.504405,237.273068 L146.795725,237.664317 C146.68116,237.726447 146.568332,237.787051 146.457182,237.84615 L145.809967,238.182847 C145.391309,238.395489 144.997673,238.584705 144.625388,238.751807 C143.643731,239.192429 142.741172,239.521524 141.702182,239.746231 C140.610918,239.982244 139.491607,240.082761 138.175626,239.932236 C135.720738,239.651441 133.296102,238.542616 131.481607,236.331047 L131.258014,236.048837 L130.964398,235.648532 C128.062361,231.571093 128.477284,227.317196 130.418351,223.577267 L130.556228,223.317184 L130.695699,223.064544 C131.642019,221.383311 132.936573,219.776981 134.631845,218.041922 L135.126257,217.541527 L135.331896,217.32303 L135.555391,217.073691 L135.796532,216.793719 L136.055109,216.48332 L136.475206,215.961124 L136.93335,215.371632 L137.60217,214.48217 L138.146334,213.738374 L138.726183,212.929613 L139.341006,212.056585 L139.990093,211.11999 L140.907619,209.773522 L141.883118,208.316944 L142.651776,207.153248 L143.451388,205.929247 L144.859846,203.744029 L146.442314,201.251917 L147.368199,199.770199 L148.189579,198.434495 L148.905402,197.246744 L149.372361,196.454191 L149.978251,195.392445 L150.254,194.887 L150.269471,194.804384 C150.819755,192.070024 152.272738,189.870471 154.374075,187.805124 L154.664615,187.52428 L154.776,187.419 L154.833679,187.103554 C155.530571,183.480767 157.713829,179.943156 161.464435,175.19954 L162.734084,173.611286 L163.499838,172.640078 L163.963453,172.041425 L164.389155,171.482551 L164.776599,170.964078 L165.125438,170.486629 L165.435327,170.050824 L165.671,169.707 L165.690041,169.630696 C165.774155,169.296792 165.875221,168.959409 165.994998,168.61343 L166.147825,168.193803 L166.31929,167.76396 C166.349458,167.691359 166.380432,167.61825 166.412223,167.544593 L166.612913,167.095742 L166.833931,166.631762 L167.075952,166.15069 L167.339652,165.65056 C167.385446,165.565508 167.432172,165.47958 167.479843,165.392734 L167.777328,164.860334 L168.098182,164.303965 L168.443079,163.721661 L168.812696,163.111459 L169.414949,162.139546 L170.07662,161.09381 L170.799992,159.967617 L171.926621,158.23408 L171.998519,158.129782 C172.217183,157.812576 172.430437,157.499688 172.638281,157.191175 L173.245581,156.278819 C173.738137,155.529556 174.196874,154.807996 174.621783,154.115039 L175.115435,153.297277 C176.388535,151.153497 177.315189,149.306285 177.895078,147.785084 L177.991125,147.527364 L178.155568,147.052236 C178.253179,146.753728 178.327121,146.492145 178.379574,146.270105 L178.419,146.083 L178.414107,146.067151 C177.483756,143.218544 177.682141,140.240354 178.786014,137.518269 L178.928698,137.17937 L179.074699,136.856178 C179.624847,135.678068 180.320091,134.592684 181.152639,133.563287 L181.471266,133.179816 L181.711,132.905 L181.669795,132.827521 C180.191538,130.010436 179.89526,126.645148 181.419267,123.163614 L181.572455,122.826343 L181.718268,122.526008 C183.056732,119.850849 185.074084,118.009128 187.490967,116.849937 C179.195927,119.145726 172.185992,121.605044 166.480337,124.211773 L165.851744,124.502015 L165.33825,124.743795 L163.064864,125.830204 L161.436585,126.594084 L160.316494,127.108157 L159.275957,127.573625 L158.308566,127.992134 L157.701113,128.245862 L157.121423,128.479938 L156.567598,128.694847 L156.037741,128.891078 L155.529953,129.069118 L155.042335,129.229452 L154.852,129.288 L154.771306,129.384548 C154.655661,129.522252 154.533181,129.671022 154.40425,129.830597 L153.998486,130.341481 C153.927761,130.431945 153.85552,130.525045 153.781809,130.620749 L153.356245,131.180695 L153.144269,131.463143 L152.912897,131.729934 C148.43403,136.89444 143.238443,139.989761 137.268248,140.219232 C132.132039,140.416648 126.906153,138.499645 121.18728,134.866384 L120.466477,134.401761 L120.259002,134.251339 C118.661146,133.092877 117.175416,131.97085 115.799806,130.881064 L114.788715,130.069703 C111.321942,127.250639 108.610513,124.646501 106.61815,122.181397 C104.714994,119.826668 103.345405,117.469491 102.598681,114.919869 C101.563226,111.384404 101.831818,107.682159 103.670724,104.408195 L103.866568,104.071061 L103.961588,103.916011 C105.655369,101.207755 108.377107,98.9421636 112.575134,96.4999894 L113.379673,96.0398612 C113.516683,95.9627779 113.655162,95.8854844 113.795124,95.8079617 L114.652795,95.3399247 L115.546709,94.8654813 L116.477523,94.3837243 L117.445891,93.8937467 L118.452473,93.3946414 L119.497924,92.8855013 C126.428129,89.5381169 132.814802,87.2007874 138.704457,85.8998928 L139.315,85.768 L139.820413,85.655189 L140.932424,85.398074 L142.083678,85.1220695 L143.274105,84.8271808 L144.503634,84.5134135 L145.772196,84.1807729 L147.079721,83.8292643 L148.426138,83.4588933 L149.811377,83.0696652 L151.235368,82.6615854 L152.698041,82.2346593 L154.199326,81.7888924 L155.739152,81.32429 L158.121004,80.5920817 L160.708502,79.7805337 L164.265603,78.7116794 L167.00004,77.9042652 L168.986547,77.326484 L170.91833,76.7724941 L173.409551,76.0708188 L175.805009,75.4113654 L177.539283,74.9444584 L179.769253,74.3587924 L180.849172,74.081752 L182.425522,73.6859172 L183.949966,73.3137377 L184.937607,73.0787511 L186.376357,72.7459576 L187.764182,72.4367722 L188.661287,72.2437554 L189.965052,71.9738772 L191.21887,71.7275597 L192.423109,71.5047852 L193.198574,71.3693396 L194.320999,71.185764 L195.042261,71.0764345 L195.742032,70.9775423 L196.751633,70.8487623 L197.398154,70.7759403 L198.023566,70.7135372 L198.627978,70.6615476 L199.211498,70.6199665 L199.774236,70.5887884 L200.3163,70.5680083 C200.404927,70.5654111 200.492697,70.563247 200.579613,70.5615157 L200.949275,70.556475 L201.408277,70.5125863 L201.76633,70.472199 L202.768437,70.3452694 L204.020103,70.1705323 L205.795884,69.9053354 L207.877437,69.5786748 L211.302145,69.0184612 L212.455,68.825 L212.349664,68.5842385 C211.406118,66.4085349 210.469923,63.9533337 209.522452,61.2007279 L209.263757,60.4426302 L209.04151,59.7810332 C206.590531,52.4329571 204.878794,45.6495221 203.927598,39.4696555 C203.121808,34.436798 201.84581,28.7751116 200.095359,22.4982342 L199.780892,21.3877615 L199.471773,20.3305104 C199.369648,19.9870013 199.26845,19.6524187 199.168212,19.3268191 L198.870417,18.3770255 L198.578599,17.4814676 L198.292966,16.6404836 C198.198809,16.3692888 198.105719,16.107246 198.013729,15.8544115 L197.741097,15.1235893 L197.542875,14.61653 L197.265004,13.9419672 L197.015119,13.3744953 L196.866649,13.05782 L196.734477,12.7919572 L196.620146,12.5781933 L196.525201,12.4178149 L196.323553,12.126877 L196.174924,11.8869415 C189.632621,1.32559549 194.610345,-8.85964061 206.372366,-12.0837227 L206.730863,-12.1792847 L207.477291,-12.3726751 L209.462094,-12.5753455 L210.412073,-12.6829242 L211.06,-12.767 Z M272.307499,129.181999 L273.050248,129.157978 C273.177824,129.154832 273.307299,129.152113 273.438687,129.14982 L274.250045,129.140531 C274.528207,129.140531 274.814111,129.140531 275.107848,129.14265 L276.01266,129.154214 L276.965044,129.17578 L277.965564,129.207272 L279.014784,129.248617 L280.113268,129.299742 L281.261581,129.360571 L281.82,129.392 L282.317228,129.414319 C287.969608,129.684294 292.316533,130.371716 295.711584,131.73447 L296.084912,131.88868 L296.450514,132.048526 L296.894474,132.253791 L297.362352,132.481043 C297.442348,132.520761 297.523357,132.561403 297.605389,132.602973 L298.109921,132.86356 L298.639408,133.146606 L299.194263,133.452299 L299.774901,133.780827 L300.695109,134.316851 L301.342019,134.703294 L302.016163,135.113234 L303.079348,135.77261 L304.206141,136.485913 L305.397941,137.253778 L306.656146,138.076843 L307.982155,138.955743 L309.858057,140.215565 L310.261,140.488 L311.416547,141.244343 C319.180192,146.354641 326.252083,151.652993 332.630306,157.143554 L333.68692,158.060428 L335.493156,159.654036 L336.280126,160.340824 L337.039469,160.994996 L337.770937,161.616425 L338.474285,162.204984 L339.149265,162.760545 L339.795632,163.282983 L340.413139,163.772168 C340.513638,163.850921 340.612924,163.928283 340.710993,164.004252 L341.284748,164.443321 C341.377924,164.513705 341.469872,164.582691 341.560587,164.650275 L342.090036,165.038942 C342.175797,165.10091 342.260315,165.161472 342.343584,165.220624 L342.799532,165.538901 L343.211979,165.815781 L343.578661,166.050759 L343.897316,166.243334 L344.003,166.303 L344.083558,166.320472 C350.083071,167.630697 354.094352,172.22476 355.123665,178.268991 L355.178736,178.612653 L355.227399,178.95934 C355.27573,179.329639 355.33855,179.603391 355.401914,179.788431 L355.432,179.871 L355.651659,180.133569 C357.65615,182.588403 359.149569,185.618239 360.289518,189.236159 L360.466595,189.812298 L360.629904,190.3701 C361.08951,191.977657 361.57379,193.147737 362.004068,193.875295 L362.095416,194.024425 L362.183,194.158 L362.401918,194.433846 C366.955052,200.297894 367.094821,207.844645 364.178822,216.552961 L364.019692,217.020586 L363.857655,217.482297 C360.821252,226.0075 356.130854,232.216121 349.509006,235.507409 L349.101172,235.705266 L348.958382,235.771488 C345.015051,237.562726 340.806934,238.294088 336.496498,237.935123 C334.037357,237.73033 331.915622,237.259145 329.923336,236.263661 C328.426882,235.515928 327.095915,234.49569 326.0337,233.242922 L325.773805,232.924909 L325.683,232.806 L325.3985,232.713856 C320.889231,231.196743 316.254286,227.708369 310.846802,222.160643 L310.0087,221.290888 C309.305056,220.552532 308.588169,219.780254 307.856676,218.973867 L306.971787,217.989819 L306.533097,217.495867 C299.685836,209.755727 293.942773,201.704763 289.317766,193.34432 L288.849513,192.487052 L288.738251,192.291553 L288.497164,191.880593 L288.231389,191.443146 L287.941003,190.979366 L287.626084,190.489407 L287.107873,189.705721 L286.731955,189.15099 L286.122608,188.270869 L285.686175,187.652331 L284.741168,186.339648 L283.969594,185.289588 L283.144465,184.183923 L282.266039,183.023173 L281.012348,181.39072 L280.010574,180.103464 L278.95637,178.762858 L277.849995,177.369424 C277.01455,176.322014 276.213344,175.296164 275.446308,174.291293 L274.542261,173.095482 C270.103989,167.166404 266.894818,161.984241 264.899783,157.423683 L264.647,156.833 L260.106607,147.433549 L260.018132,147.227246 C258.020285,142.568684 258.020285,137.550326 261.6182,133.355534 C263.658967,130.976214 265.760183,130.117194 268.391011,129.597491 C269.558981,129.366766 270.831055,129.241815 272.307499,129.181999 Z" id="六" fill="#000000" fill-rule="nonzero"></path>
    </g>
</svg>