<?xml version="1.0" encoding="UTF-8"?>
<svg width="520px" height="230px" viewBox="0 0 520 230" version="1.1" xmlns="http://www.w3.org/2000/svg" xmlns:xlink="http://www.w3.org/1999/xlink">
    <title>7_qi_m</title>
    <g id="7_qi_m" stroke="none" stroke-width="1" fill="none" fill-rule="evenodd">
        <path d="M320.841077,159.589987 L307.087581,158.056331 L302.573642,157.520157 L300.070957,157.212533 L296.887045,156.808108 L293.874011,156.409229 L291.723763,156.113047 L288.999317,155.721218 L287.060522,155.429053 L285.209298,155.137833 L283.443811,154.847092 L282.313547,154.6533 L281.220032,154.459376 L280.0571,154.245233 L278.948436,154.032307 L277.894844,153.820778 C277.72388,153.785649 277.555243,153.750586 277.388952,153.715593 L276.419476,153.506492 L275.507083,153.299234 C275.359819,153.264854 275.214966,153.230559 275.072543,153.196351 L274.24728,152.992191 L273.481109,152.790319 C273.358383,152.756874 273.238153,152.723532 273.120435,152.690296 L272.825878,152.60581 C272.634421,152.550001 272.452854,152.495262 272.281558,152.441827 L271.798866,152.285675 L271.38009,152.138766 C271.315747,152.11513 271.254163,152.091938 271.195384,152.069219 L270.966,151.977 L270.772257,151.816411 C266.155253,147.93802 262.42783,140.985158 259.899467,130.680821 L259.772,130.151 L259.659387,129.625789 C258.359835,123.403871 257.690346,115.661152 257.690346,106.439336 L257.69,99.688 L277.034611,97.0558661 L279.162987,96.7774769 L280.538631,96.6029821 L282.536915,96.3578788 L284.456651,96.1327323 L286.297469,95.9275317 L287.480656,95.8018068 L288.628496,95.6849387 L289.740878,95.5769239 L290.817694,95.4777593 L292.365991,95.3455993 L293.353412,95.2685458 L294.767105,95.1695372 L295.664448,95.1145745 L296.525568,95.0684423 L297.749091,95.0157943 L298.519175,94.9917243 L298.890497,94.9829967 C304.315657,94.8701963 309.600927,94.3891011 314.743127,93.5376422 L315.987533,93.3244748 L316.21156,93.2936154 L316.499735,93.2619441 L317.265391,93.1962749 L318.470629,93.1159838 L320.498566,93.0074644 L324.337729,92.8416016 L327.987078,92.7079196 L331.76259,92.5839911 L340.622369,92.3288732 L375.144857,91.4927597 L378.836918,91.5006689 L382.29947,91.5244934 L384.546036,91.5508921 L387.742229,91.6088881 L389.813523,91.6647272 L391.037353,91.7076564 L391.872076,91.7427816 L393.103658,91.806785 L393.944142,91.8627988 L394.654854,91.9229885 C394.708646,91.9281757 394.761075,91.9334055 394.812139,91.9386775 C396.814631,92.1454217 398.819767,92.7422604 400.872628,93.7666586 L401.135235,93.8977021 L401.405075,94.013119 C411.900539,98.5022687 421.822198,98.407355 430.145613,93.0699236 L430.635283,92.7489009 L430.728359,92.6838768 C434.497151,90.0509455 437.535275,86.1174002 440.107817,80.9825028 C442.655925,75.8963785 444,70.8463499 444,65.8593393 C444,61.4521181 442.733966,56.9876548 440.378834,52.4434161 C438.181914,48.2044463 435.517367,44.6334263 432.350248,41.788663 L431.810902,41.3042125 L431.20732,40.9026212 C427.391068,38.3634905 421.842143,36.8744666 414.058256,36.0777806 L412.931014,35.9686395 L411.773039,35.8686861 L410.584005,35.7776888 L409.363588,35.6954156 L408.111461,35.6216348 C407.900113,35.6100328 407.68743,35.598775 407.473405,35.5878566 L406.173104,35.5263798 L404.84028,35.4728159 L403.474608,35.4269332 L402.071567,35.3888189 L400.68601,35.3624983 C394.995896,35.2797438 390.341057,35.5345428 386.618864,36.1687808 L386.19691,36.242769 C382.024397,36.9955314 378.634222,38.2477316 376.077779,40.5248276 L375.769,40.808 L375.294451,40.9407783 L374.702962,41.0966939 L374.041967,41.262651 L373.058829,41.4971322 L371.980625,41.7413357 L370.807766,41.9951346 L369.540661,42.2584023 L368.17972,42.5310117 L366.219873,42.9088038 L364.094908,43.3026777 L361.805794,43.7123329 L359.334138,44.1402095 L357.900704,44.3721071 L356.632877,44.5560062 L355.328092,44.7250847 L353.18109,44.9732088 L349.242159,45.3813472 L343.172926,45.9681133 L320.772257,48.0619954 L315.734644,48.5494111 L312.400795,48.8835913 L309.27869,49.2077482 L306.928345,49.4608187 L303.639257,49.8317163 L302.097544,50.0139161 L299.67468,50.3138376 L297.863996,50.5512286 L295.753755,50.8459867 L293.806535,51.1398794 L292.713286,51.316395 L291.674339,51.4934233 L291.011064,51.6118797 L290.058968,51.7904493 L289.15679,51.9703559 L288.582257,52.091189 L283.725364,53.1391866 L279.892412,53.9544767 L276.267835,54.7141155 L272.19366,55.5522027 L268.420137,56.3101077 L265.505431,56.8804276 L262.799922,57.3950348 L261.277107,57.6770512 L259.829711,57.9390029 L257.72,58.308 L257.836422,56.857617 L257.902008,55.9491757 L257.996042,54.518583 L258.113398,52.4837614 L258.195468,50.8616539 L258.297072,48.57017 L258.367479,46.754584 L258.453732,44.2038195 L258.531391,41.503719 L258.584075,39.3801277 L258.64701,36.4166321 L258.688801,34.0945125 L259.09184,9.55782483 L250.213752,0.697316007 L249.542312,0.104025748 L248.647575,-0.670581091 C241.534261,-6.74980346 235.475391,-10 229.35979,-10 C226.31273,-10 223.903797,-8.83226356 221.970128,-7.10556426 C220.95172,-6.19616157 220.136353,-5.18393331 219.385911,-4.02645586 C218.381621,-2.47744459 217.440984,-0.562343894 216.449559,1.84063558 C216.190966,2.46740184 215.946294,3.13672656 215.714885,3.84989234 L215.487873,4.57771932 C215.339447,5.07274309 215.196818,5.5874418 215.059792,6.12219547 L214.858432,6.93941469 C214.825564,7.0781406 214.79304,7.21813182 214.760858,7.35939429 L214.571831,8.22227159 L214.390844,9.11594388 L214.217752,10.0406962 L214.052408,10.9968135 C213.971648,11.482761 213.89374,11.9805772 213.8186,12.4904225 L213.671989,13.5261994 L213.532615,14.5943389 C213.509981,14.7750749 213.487643,14.9571711 213.465597,15.1406337 L213.336806,16.2578515 C213.315918,16.4468029 213.295316,16.6371323 213.274998,16.8288458 L213.156462,17.9957833 L213.044581,19.1962235 L212.939209,20.4304514 C212.922181,20.6389875 212.905418,20.8489434 212.888918,21.0603248 L212.793034,22.3457687 L212.703295,23.6657129 L212.619554,25.0204424 L212.541664,26.4102422 L212.464155,27.9750021 C212.011052,37.8758679 212.275936,47.6003416 213.26064,57.1447334 L213.404,58.484 L213.496597,59.5671547 L213.590693,60.7399964 L213.674706,61.8605421 L213.748673,62.9284408 L213.812629,63.9433416 L213.866608,64.9048938 L213.910646,65.8127464 L213.944777,66.6665485 L213.96,67.148 L199.570004,69.3446642 L194.449298,70.151681 L192.943366,70.395211 C177.793099,72.8676026 163.365383,75.6064222 149.733899,78.7639719 C147.886633,79.1918661 146.06792,79.6245042 144.2786,80.0619945 L141.616769,80.7218826 C134.577901,82.4913609 128.016044,84.3393409 121.984983,86.2727549 L114.50766,88.7399044 L109.047718,90.5623713 L103.909811,92.3014504 L101.636554,93.0819621 L98.4034037,94.2097415 L96.3009127,94.9594233 L94.1924716,95.7318143 L92.6767919,96.3077259 L91.6168378,96.7279128 L90.9004727,97.0255047 C90.8456196,97.048888 90.7919742,97.0719187 90.739534,97.0945978 C84.9314779,99.6064387 80.6984937,103.936656 78.628016,109.722515 C77.6305731,112.542798 77.0672984,114.903867 77.0054761,117.186763 L76.9988984,117.470737 C76.974417,120.567876 77.9004302,123.591351 79.9887666,125.824951 L80.247,126.09 L80.3456836,126.418519 C81.3918835,129.720115 83.7077277,132.698655 87.1357595,135.991606 L87.765,136.587 L87.6449202,136.46839 C90.6946306,139.512062 93.6331318,141.593321 96.9393235,142.608596 L97.3186782,142.720187 C99.9930846,143.472898 103.06998,143.63172 106.870359,143.393232 L107.23171,143.368026 L108.199633,143.313617 L109.123954,143.253646 C109.274486,143.243122 109.423286,143.232316 109.570395,143.221205 L110.433098,143.150669 C114.929571,142.752798 117.780986,141.991218 120.365053,140.057005 L120.628972,139.854432 C122.718227,138.210188 124.287345,135.990352 126.068097,132.644973 L126.518118,131.784861 L126.834,131.163 L126.776257,131.260499 C126.992559,130.871927 127.302423,130.562677 127.874304,130.232243 L128.077665,130.120138 L128.31817,129.997368 L128.747732,129.793705 L129.258706,129.567308 L129.849794,129.318934 L130.760291,128.954893 L131.807832,128.554924 L132.989341,128.120826 L133.961539,127.773934 L135.74196,127.157421 L137.30692,126.631708 L138.560652,126.219642 L139.568531,125.893527 L142.573912,124.840659 L144.696984,124.111274 L146.664073,123.448923 L147.588876,123.142944 L149.3205,122.581498 L150.515596,122.204701 L151.621498,121.865955 L152.698546,121.547807 L153.370399,121.35692 L153.984656,121.188981 L154.79552,120.980387 L155.406744,120.837932 L155.779,120.762 L160.347238,120.71601 L170.238478,120.566263 L175.34681,120.463159 L178.9567,120.374282 L182.132092,120.2793 L184.42224,120.195402 L186.0822,120.121476 L187.185406,120.062507 L188.151079,120.000617 L188.719384,119.95745 C189.364827,119.904696 189.913139,119.846467 190.424488,119.769053 C190.872401,119.701243 191.297108,119.619604 191.769161,119.495403 L192.038877,119.422722 C193.368686,119.055051 194.426952,118.611467 195.663201,117.555208 L195.722,117.503 L196.006976,117.363492 L196.511451,117.130709 L197.000299,116.917349 L197.543629,116.690136 L198.140808,116.44946 L198.791204,116.195712 L199.494186,115.929281 L200.24912,115.650557 L201.055376,115.359929 L201.929889,115.051902 L202.754839,114.768803 L203.529563,114.510715 L204.253399,114.277722 L204.925684,114.069909 L205.545755,113.887359 L206.112949,113.730158 L206.532419,113.621718 L206.895043,113.535272 L207.198018,113.470675 L207.345,113.443 L207.461931,113.442163 C210.187115,113.39681 212.694862,112.915758 214.937276,111.814911 L215.035,111.764 L215.047294,112.827231 C215.255838,126.892968 217.080783,140.426472 220.527805,153.41044 C224.291384,167.586788 229.557255,179.148765 236.445555,188.060364 C240.817391,193.632036 247.653626,198.494256 256.741118,202.878487 L257.888765,203.424043 L259.059769,203.964721 C260.045313,204.413281 261.055092,204.856863 262.088865,205.29573 L263.340894,205.820124 L264.615865,206.340091 C265.044669,206.512687 265.477281,206.684562 265.913686,206.855732 L267.234263,207.367148 L268.577505,207.874438 C268.803262,207.958649 269.029959,208.042691 269.257596,208.126568 L270.63466,208.627859 C270.866043,208.711082 271.09836,208.794143 271.33161,208.877046 L272.74229,209.372563 L274.175263,209.864358 L275.630438,210.35253 L277.107723,210.837179 L278.607024,211.318407 L280.12825,211.796313 C280.383609,211.875693 280.639878,211.954938 280.897055,212.034052 L282.450993,212.507164 L284.026624,212.977206 L285.623856,213.444278 C285.891856,213.521882 286.160753,213.599366 286.430543,213.676732 C302.918293,218.40484 320.885622,222.135744 338.723721,225.074067 L339.685562,225.229437 C349.272972,226.825902 357.931331,229.705248 365.767622,233.872313 L366.447,234.239 L367.257535,234.708577 C374.743456,238.974152 381.288626,240.842499 387.405453,239.660942 C393.486121,238.486369 399.016754,234.486599 404.568936,228.070486 C413.310649,217.938935 417.012877,207.707334 414.429262,197.684245 L414.264033,197.071555 L414.210859,196.9027 C410.916986,186.442948 405.071091,179.108375 396.512862,175.905394 C396.292261,175.824267 396.078809,175.743573 395.872479,175.663464 L395.274832,175.42505 L394.719763,175.191072 C394.630791,175.152496 394.543587,175.114144 394.458147,175.076034 L393.966654,174.850438 C393.888259,174.813375 393.811621,174.776593 393.736738,174.74011 L393.308471,174.52497 C393.240594,174.489765 393.174465,174.454898 393.110081,174.420388 L392.744689,174.217777 C392.113097,173.854754 391.691853,173.539648 391.476638,173.298011 L390.978863,172.739123 L390.403442,172.260555 C386.579498,169.080244 381.535206,166.635011 375.250527,164.72607 C368.397693,162.644554 363.091526,162.002656 358.477597,163.384094 L358.115314,163.492563 L358.073,163.508 L357.911048,163.529398 L357.626247,163.555889 L357.406837,163.571116 L356.922685,163.593005 L356.379154,163.603061 C356.283688,163.603723 356.185801,163.603872 356.085519,163.603497 L355.455308,163.594876 L354.768901,163.573186 L354.014397,163.537222 L353.198832,163.486458 L352.3377,163.421489 L351.431217,163.342292 L350.479603,163.248842 L349.483074,163.141114 L348.441848,163.019083 L347.356144,162.882725 L346.226179,162.732016 L345.052171,162.56693 L343.834337,162.387444 L341.677526,162.05397 L340.599221,161.906762 L337.353078,161.500962 L328.847315,160.501984 L320.841077,159.589987 Z" id="Path" fill="#000000" fill-rule="nonzero"></path>
    </g>
</svg>