<?xml version="1.0" encoding="UTF-8"?>
<svg width="400px" height="305px" viewBox="0 0 400 305" version="1.1" xmlns="http://www.w3.org/2000/svg" xmlns:xlink="http://www.w3.org/1999/xlink">
    <title>8_ba_s</title>
    <g id="8_ba_s" stroke="none" stroke-width="1" fill="none" fill-rule="evenodd">
        <path d="M180.808728,6.01230675 C182.89522,5.93493982 185.208003,6.2243723 187.900942,6.82349574 C192.769649,7.90668306 197.248015,9.74490165 201.290731,12.3430217 L201.707835,12.6166391 L201.79417,12.6691558 C203.829506,13.9522047 205.980231,15.8455164 208.334618,18.3949239 L208.981839,19.1065181 C209.742976,19.9557697 210.525544,20.871866 211.332387,21.8562835 L212.029978,22.7168361 L212.739856,23.6110588 C212.859215,23.7629132 212.979102,23.9161791 213.099527,24.0708609 L213.828582,25.015976 L214.57092,25.9952776 L215.326938,27.0089724 L216.097034,28.057267 L216.881606,29.140368 L217.694578,30.2774202 L218.521424,31.4485502 L219.32108,32.5966514 C219.452093,32.7860962 219.581975,32.9745917 219.710728,33.1621429 L220.469698,34.2761609 L221.201612,35.3677632 L221.906524,36.4371951 C222.021762,36.6135999 222.135877,36.7890911 222.24887,36.9636738 L222.913379,38.0003101 C223.02189,38.1712796 223.129282,38.3413509 223.235555,38.510529 L223.859783,39.5149215 C224.063391,39.8461738 224.262535,40.1738945 224.457223,40.4981246 L225.027931,41.4603838 C225.120824,41.6190286 225.212605,41.7768109 225.303276,41.933736 L225.833985,42.8650389 L226.338095,43.776011 L226.815661,44.6668975 L227.266736,45.5379436 C228.069456,47.1168245 228.73889,48.5969135 229.276532,49.9850117 L229.534199,50.6664732 L229.69941,51.2020174 L229.84963,51.6638252 L230.014891,52.1463501 L230.195178,52.6495394 L230.390473,53.1733403 L230.711523,53.9975733 L231.066251,54.8678861 L231.321419,55.4736067 L231.591515,56.0996754 L231.876522,56.7460395 L232.176424,57.4126464 L232.65417,58.4503967 L233.343144,59.9044213 L233.898789,61.0474775 L234.487727,62.2353683 L235.109905,63.467916 L235.765267,64.7449426 L236.453757,66.0662702 L237.175322,67.431721 L237.929905,68.8411171 L238.717453,70.2942806 L239.818699,72.2996072 L240.391221,73.3311984 L241.886266,75.994127 L243.472166,78.7763259 L244.80613,81.0874064 L245.844577,82.8702108 L247.64749,85.9352988 L249.154626,88.4712676 L251.119337,91.7454097 L251.523031,92.4140631 C252.763557,94.4667501 254.000077,96.4946994 255.232582,98.4979067 L257.078328,101.484161 C257.692572,102.473393 258.305812,103.456439 258.918045,104.433298 L260.751727,107.345316 C269.905037,121.812602 278.831786,134.88778 287.528313,146.569009 L288.397198,147.732485 L292.72619,153.354906 L294.772965,155.997629 L297.463444,159.452041 L300.287019,163.047972 L303.43726,167.012311 L305.39017,169.434846 L306.412365,170.688276 L307.593851,172.120794 L308.869941,173.64231 L309.63448,174.536605 L310.162494,175.14414 L310.805833,175.869761 L310.955811,176.036067 C313.321215,178.649189 316.700921,181.636077 321.060849,184.939791 L322.126034,185.738736 C322.487358,186.00706 322.854938,186.277381 323.228756,186.549673 L324.368908,187.372426 L325.546387,188.20682 C325.945089,188.486872 326.349995,188.768835 326.761087,189.052681 L332.529909,193.0251 L335.275961,194.944502 L336.803948,196.027303 L338.457047,197.217076 L340.150794,198.465842 L340.803355,198.95856 L341.798304,199.727458 L342.514565,200.298618 L343.163534,200.8337 L343.608073,201.212999 L343.885111,201.456032 L344.272711,201.806694 L344.627992,202.141729 L344.952337,202.462306 L345.339065,202.869265 L345.513751,203.064747 L345.753587,203.348946 L345.968018,203.623353 L346.226963,203.969013 L346.456977,204.337461 L346.573423,204.509417 C346.595762,204.540339 346.619563,204.572383 346.644818,204.605535 L346.813738,204.81761 L347.017212,205.055546 C347.053985,205.097318 347.092184,205.140138 347.131801,205.183991 L347.386465,205.459394 L347.674829,205.758889 L347.996548,206.081769 L348.540919,206.60839 L349.158415,207.183648 L349.610133,207.592994 L350.093494,208.022188 L350.877118,208.701646 L351.730013,209.42178 L352.651022,210.180204 L353.302299,210.705913 C357.212035,213.837322 361.007124,216.295478 364.678834,218.095824 L365.249707,218.370986 L366.313128,218.846359 L367.474107,219.370923 L369.142387,220.135537 L370.723586,220.874017 L372.218545,221.58698 L373.167688,222.048417 L374.079125,222.498968 L375.376127,223.154783 L376.194388,223.578919 C376.327688,223.648749 376.459454,223.718152 376.58969,223.787132 L377.352793,224.195966 C377.476931,224.263269 377.599551,224.330156 377.720656,224.396631 L378.42916,224.790573 L379.101578,225.174814 L379.738157,225.549538 L380.339146,225.914926 L380.904795,226.271162 L381.217241,226.474299 L381.359202,226.562016 C383.912042,228.171647 386.233925,230.831905 388.81813,234.872542 L389.321707,235.671926 C389.406226,235.808059 389.491052,235.945651 389.5762,236.084712 L390.091094,236.936802 L390.614526,237.824695 L391.14729,238.74892 L391.690183,239.71001 C391.781553,239.873293 391.873379,240.038134 391.965676,240.204545 L392.52525,241.221928 L392.809531,241.744908 L393.090791,242.266071 C393.289518,242.635563 393.484026,243.000582 393.674305,243.361249 L394.232449,244.430315 C394.323355,244.606357 394.413203,244.781342 394.50199,244.955285 L395.021979,245.986554 C395.360143,246.665891 395.681306,247.329039 395.985398,247.976973 L396.428724,248.937585 C398.796502,254.159533 400,258.379142 400,262.143864 C400,268.725232 396.818767,274.214679 391.473498,277.869332 C387.556674,280.547332 382.459698,282.307461 376.072591,283.406977 L375.717133,283.465864 L375.006195,283.635177 L374.068269,283.862741 L372.75239,284.195026 L371.936291,284.41028 L371.169501,284.620336 L370.452349,284.825035 L369.785165,285.024222 L369.168279,285.217738 L368.64608,285.390477 L368.181628,285.553149 L367.776503,285.704617 C367.714014,285.728865 367.654063,285.752599 367.596683,285.775795 L367.331209,285.887263 L367.162995,285.963901 L366.649448,286.301664 C365.284044,287.17881 363.905771,287.961855 362.514539,288.648931 L361.817843,288.984463 L360.996417,289.36075 L360.734209,289.495577 L360.449524,289.658648 L360.142709,289.849901 L359.814108,290.069274 C359.700982,290.147078 359.584283,290.229559 359.464068,290.316706 L359.092932,290.592135 L358.701048,290.8955 L358.288761,291.226738 C358.218365,291.284264 358.147133,291.342948 358.075073,291.402791 L357.632828,291.775724 C357.557482,291.840191 357.481322,291.905813 357.404356,291.972589 L356.932929,292.387078 L356.442481,292.829194 L355.933355,293.298875 L355.405899,293.796059 L354.860457,294.320686 L354.297374,294.872692 C354.202076,294.966971 354.106057,295.062389 354.009325,295.158943 L353.420429,295.751904 L352.814756,296.372091 L351.875546,297.353284 L351.229441,298.041265 C351.12045,298.158181 351.010811,298.276223 350.90053,298.395388 C346.167856,303.449417 340.556582,305.946203 334.502557,304.670196 C332.358475,304.218288 329.995989,303.204597 327.255525,301.596655 L326.531943,301.16369 C326.409882,301.089276 326.28708,301.013732 326.163524,300.937058 L325.413039,300.463412 L324.643831,299.962486 L323.855272,299.434152 L323.046732,298.87828 C322.910275,298.783333 322.772959,298.687233 322.634772,298.589978 L321.795079,297.992561 L320.933832,297.367287 C320.788459,297.260746 320.642163,297.153039 320.494928,297.044164 L319.600168,296.376864 C319.449131,296.263303 319.297131,296.148568 319.144154,296.032656 L318.214464,295.323042 L317.349009,294.652946 L316.166119,293.764858 L315.018608,292.912072 L313.955678,292.131716 L312.978123,291.424261 L312.374241,290.993357 L311.540737,290.40845 L311.033625,290.05968 L310.38594,289.624745 L309.879633,289.296162 L309.687295,289.175225 L309.512446,289.118407 C309.067042,288.963793 308.651294,288.769935 308.229979,288.541363 L307.912398,288.363496 L307.682448,288.228714 C307.293638,287.997262 306.97227,287.773738 306.651841,287.530372 C306.312086,287.272329 305.984066,286.99797 305.614168,286.672082 L305.232651,286.330954 L304.806335,285.940429 L304.333017,285.498694 L303.095497,284.318435 L301.872099,283.130158 L300.144545,281.431273 L297.018366,278.320829 L291.511599,272.823367 L288.490285,269.837733 L287.235199,268.620152 L286.983195,268.384807 L285.550611,267.109926 L284.960118,265.928585 L284.796552,265.720128 L284.26941,265.074079 L283.595024,264.273689 L282.777134,263.324181 L282.329472,262.811019 L281.078365,261.393652 L279.330059,259.441357 L276.953361,256.82099 L274.630514,254.28486 C268.697058,247.873081 262.666614,240.384804 256.52805,231.818112 L255.769728,230.754511 L255.036966,229.715736 L254.329648,228.701325 L253.316121,227.224381 L252.671898,226.268859 L252.052708,225.336083 L251.458433,224.425592 C251.264481,224.125757 251.074662,223.82956 250.888956,223.536922 L250.34416,222.669613 C250.166661,222.384019 249.993257,222.101907 249.823926,221.823202 L249.328139,220.997226 C249.247539,220.86124 249.167952,220.726087 249.089376,220.591757 L248.630037,219.795568 C248.555497,219.664489 248.481963,219.534214 248.409433,219.404732 L247.986279,218.63729 C247.643657,218.005563 247.326011,217.393197 247.033035,216.798989 L246.693285,216.094579 C245.982732,214.586905 245.438122,213.198722 245.054082,211.908874 L244.948521,211.542202 L244.909613,211.436288 C244.829306,211.224195 244.728531,210.988218 244.607318,210.729442 L244.410174,210.324313 C244.339352,210.18366 244.263424,210.037443 244.182394,209.885797 L243.923999,209.414709 C243.878383,209.333525 243.831493,209.251018 243.783328,209.167204 L243.479052,208.648781 L243.144215,208.099818 L242.77884,207.521129 L242.382947,206.913527 C242.314423,206.809895 242.244628,206.705093 242.173564,206.599137 L241.731935,205.94969 C241.655791,205.839186 241.578378,205.727562 241.499696,205.614836 L240.122709,203.670128 L239.566458,202.870536 L239.044381,202.105044 L238.555899,201.370925 L238.100433,200.665454 C236.490215,198.127914 235.534164,196.113121 235.103955,194.016325 L235.048537,193.729834 L235.008177,193.494703 L234.746143,193.104372 C234.652665,192.969001 234.550116,192.82385 234.438653,192.669581 L234.202332,192.347729 L234.012927,192.108229 L233.747335,191.760876 L233.474365,191.39202 L233.050934,190.798216 L232.610536,190.155503 L232.152953,189.463564 L231.677964,188.722082 L231.185352,187.930739 L230.674896,187.089219 L230.146377,186.197203 L229.783888,185.574315 L229.034274,184.260414 L228.64702,183.569211 L228.050395,182.489329 L227.225168,180.968577 L226.365491,179.35467 L225.470844,177.646854 L224.540707,175.844378 L223.819501,174.429946 L222.571885,171.952432 L221.53216,169.861457 L220.179612,167.110302 L218.767347,164.205066 L216.992376,160.513327 L215.128196,156.595057 L213.999788,154.204448 L212.34523,150.670643 L211.267542,148.349451 L210.210119,146.05595 L209.172948,143.7901 L208.156014,141.551856 L207.159305,139.341177 L206.182808,137.15802 L205.226509,135.002343 C205.068808,134.645351 204.911948,134.289502 204.755929,133.934795 L203.829902,131.820258 L202.92404,129.733094 L202.038329,127.67326 L201.172756,125.640715 L200.327307,123.635416 L199.501971,121.657319 C199.36609,121.329901 199.231046,121.003615 199.09684,120.678459 L198.301645,118.741089 C198.170786,118.420453 198.040764,118.100946 197.911578,117.782567 L197.146495,115.885826 L196.40147,114.016118 L195.67649,112.173401 L194.971541,110.357632 L194.28661,108.568768 L193.621684,106.806768 L190.410433,98.0264364 L188.61736,93.0721818 L187.381364,89.6074108 L186.554358,87.2475452 L185.837842,85.1573975 L185.39013,83.817749 L184.993167,82.5970497 L184.5805,81.2782752 L184.286935,80.2918933 L184.083334,79.570889 L183.865931,78.7482284 L183.720223,78.1481237 L183.598296,77.5952826 L183.477499,76.9646307 L183.40469,76.5035766 L183.375816,76.2861701 L183.358919,76.1410602 L183.294465,75.8536521 L183.212753,75.5191388 L183.050076,74.8988901 L182.828045,74.1026726 L182.453801,72.8304114 L182.121192,71.7433537 L181.874873,70.9560571 L181.468722,69.6821263 L181.041282,68.366329 L179.999306,65.3218178 L178.246827,60.15273 L176.423033,54.6915923 L175.180147,50.9066824 L174.22601,47.9552781 L173.178735,44.6558442 L172.38723,42.1074286 L171.669398,39.7411485 L171.273998,38.4085349 L170.787909,36.7331053 L170.246257,34.8012958 L169.956385,33.7286149 L169.692811,32.7205658 L169.531688,32.0843702 C168.529277,28.0700864 168,24.5963655 168,21.5175578 C168,17.3480055 168.941048,13.6245007 171.352732,10.6137257 L171.770509,10.1062328 C174.057161,7.38931362 176.925448,6.28799083 180.128851,6.04994945 L180.473344,6.02771412 L180.808728,6.01230675 Z M97.8610665,80.3190935 C107.767251,73.6821017 118.504067,74.7888382 127.905111,82.9870927 L128.244323,83.2865022 L128.416839,83.4406132 L128.582412,83.6033128 C133.608093,88.5417691 137.085503,93.4403458 138.896503,98.563346 C140.659316,103.550035 141.230751,110.222607 140.919155,118.989233 C140.602658,128.743454 138.71886,137.19414 135.145669,144.262091 L134.506516,145.538209 L133.914101,146.744811 L133.545307,147.50967 L133.197563,148.24225 L132.715657,149.279387 L132.281736,150.240785 L132.019297,150.838718 L131.666181,151.669737 L131.457959,152.179022 L131.271617,152.651879 L131.107267,153.087757 L130.965019,153.486101 C130.943159,153.549333 130.922225,153.610979 130.902218,153.671026 L130.793331,154.012033 C130.777045,154.06564 130.761692,154.117625 130.747273,154.167977 L130.706823,154.314124 C130.082193,156.657684 129.26144,158.665986 128.033689,160.437684 C127.290135,161.510665 126.416042,162.458202 125.426337,163.23437 L125.092174,163.486682 L124.855249,163.653448 L124.800296,163.791119 C124.729914,163.969203 124.657238,164.157449 124.582377,164.35569 L124.351353,164.980231 L124.107892,165.663733 L123.852661,166.405189 C123.809179,166.533539 123.765234,166.664261 123.72084,166.797335 L123.32129,168.021235 C120.813259,175.86283 117.660519,181.621183 113.331644,185.263002 L112.915881,185.605836 L112.745586,185.760846 L112.540962,185.963011 C112.504125,186.000617 112.465953,186.040174 112.426494,186.081676 L112.174682,186.353971 C112.130268,186.403225 112.084662,186.454411 112.037913,186.50752 C111.499742,187.118915 110.880882,187.90586 110.193729,188.862037 C109.607174,189.678233 108.983163,190.60035 108.323302,191.626988 L107.748965,192.532529 C107.457445,192.998065 107.159424,193.482726 106.855029,193.986401 L106.237778,195.019071 L105.603755,196.102251 L104.634212,197.794454 L104.008563,198.876531 L103.398979,199.911809 C103.298698,200.080477 103.199071,200.247212 103.100088,200.412022 L102.513861,201.377841 L101.942712,202.297847 C101.660842,202.746462 101.384477,203.178046 101.113398,203.592819 L100.578219,204.400016 C100.402131,204.661655 100.228326,204.915888 100.056738,205.162781 L99.5485601,205.881506 C99.2977311,206.229924 99.0517427,206.561975 98.8103732,206.877881 C97.7110736,208.316653 96.6534554,209.499197 95.5300999,210.471828 C95.2995926,210.671407 95.066755,210.863238 94.8308554,211.046578 L94.4746182,211.315128 L94.3173358,211.42616 L94.2796885,211.514873 C92.9086416,214.567611 90.4498538,216.876095 87.2689682,217.819255 L86.9373502,217.911927 L86.8621822,217.929648 L86.6082662,218.231095 L86.2815579,218.635624 C86.2243062,218.708077 86.1656921,218.783031 86.1057721,218.860465 L85.7633934,219.311217 L85.5904324,219.542979 L85.4052605,219.763534 C84.9710959,220.280661 84.5086982,220.805522 84.0179487,221.338321 L83.4154328,221.981503 C83.2100528,222.197176 83.000129,222.414132 82.7856536,222.632385 L82.1285657,223.291043 L81.4441233,223.957558 C81.3277675,224.069302 81.21027,224.181378 81.09163,224.293785 L80.3660706,224.97223 L79.6130429,225.658725 L78.8325014,226.35335 L78.0244005,227.056183 L77.1886946,227.767302 C77.0471073,227.886517 76.904368,228.00608 76.7604756,228.125993 L75.8832768,228.849688 L74.9783592,229.581864 C74.8252272,229.704605 74.6709383,229.827702 74.5154916,229.951158 L73.5689103,230.696203 L72.5944962,231.449926 L71.5922039,232.212405 L70.5619876,232.983717 L69.5038019,233.763942 L68.4176012,234.553157 L67.30334,235.351441 L66.1609727,236.158872 L64.9904537,236.975527 L63.7917375,237.801487 L62.5647785,238.636828 L61.3095311,239.481629 L60.0259499,240.335968 L58.7139892,241.199924 L57.3736035,242.073575 L56.0047472,242.956999 L53.8979808,244.30063 L31.3211869,258.886157 L27.3363207,261.405572 L24.2997623,263.308045 L21.6815711,264.92969 L19.4800111,266.271514 L18.1393846,267.07239 L17.2616174,267.585907 L16.4897992,268.026496 L16.0325542,268.28049 L15.423372,268.606984 C15.133223,268.758346 14.8625488,268.892708 14.6015023,269.01379 C14.2556791,269.174196 13.918277,269.316137 13.5451596,269.448481 C12.5861422,269.788642 11.7098445,270 10.4153327,270 C3.57124829,270 -1.09035775,263.575122 0.221325425,256.544662 C0.696120592,253.999818 1.78061401,251.789335 3.50700539,249.102909 L3.89109322,248.514868 L4.30202889,247.904307 L4.73991432,247.271043 L5.20485143,246.614894 L5.69694214,245.935678 L6.21628835,245.233214 L6.76299198,244.507319 L7.33715496,243.757812 L7.93887918,242.98451 L8.56826658,242.187233 L9.56443906,240.945963 L10.2634303,240.087949 L10.9904413,239.205322 L12.1337181,237.834834 L13.3406129,236.407945 L14.6114697,234.924039 L15.8904881,233.446778 L16.3769549,232.874561 C17.8322341,231.152876 19.1400747,229.535661 20.2993767,228.025736 L20.7271501,227.464549 L21.4068355,226.557265 L21.7510369,226.182524 C22.2260142,225.665404 22.6953168,225.151889 23.1589417,224.641987 L24.5327801,223.123128 C24.7589133,222.871794 24.9836263,222.621365 25.2069187,222.371842 L26.5296236,220.885588 L27.8182169,219.421131 C28.2420607,218.936617 28.6602163,218.455743 29.0726806,217.978519 L30.2929966,216.557799 C30.6940753,216.087879 31.0894598,215.621617 31.4791469,215.159019 L32.6311135,213.782227 C33.0094031,213.326966 33.3819924,212.875378 33.7488784,212.427471 L34.8324234,211.094799 C35.0101615,210.87453 35.1864731,210.655183 35.3613578,210.436759 L36.3935392,209.137302 C38.0852925,206.99003 39.6342753,204.935271 41.0401117,202.974022 L41.5293301,202.287233 L42.2956975,201.253585 L43.0020954,200.286812 L43.7225827,199.287669 L44.4571381,198.256179 L45.20574,197.192364 L45.968367,196.096246 L46.7449976,194.967846 L47.5356103,193.807188 C47.668543,193.611058 47.8020575,193.413584 47.9361532,193.214768 L48.7476988,192.005762 L49.5731728,190.764553 L50.4125539,189.491161 L51.697654,187.520779 L52.5717084,186.167029 L53.4595947,184.781173 L54.8173118,182.64224 L56.2060297,180.431195 L57.1490285,178.91714 L58.5892533,176.586072 L60.0602857,174.18309 L62.3695607,170.374831 L64.9605822,166.057375 L66.3867395,163.652834 L68.1328955,160.667657 L68.9991892,159.162098 L69.6261764,158.057512 L70.2047201,157.022843 L70.8636964,155.817583 L71.1444554,155.290885 L71.5624656,154.481491 L71.7647608,154.070146 L71.8008148,153.991298 L71.8907286,153.685018 C72.6998142,150.982009 74.1108137,147.858137 76.1533913,144.079087 L76.7541963,142.981328 L76.9824648,142.570813 L77.2308337,142.103609 C79.1759016,138.388333 80.9270523,134.05444 82.4748977,129.105974 L82.8919897,127.741158 C83.6473913,125.211072 84.3517532,122.527435 85.0039019,119.690752 L85.3544342,118.128295 C85.4695475,117.602419 85.5829278,117.071487 85.6945678,116.535501 L86.0242604,114.912387 C86.9435582,110.270628 87.7366195,105.263989 88.3991127,99.8943371 L88.514667,98.9429836 L88.6275053,97.9840957 C89.442025,90.8897918 92.1409776,85.0416862 96.8633835,81.0810941 L97.1961385,80.8078443 L97.5189765,80.5482886 L97.8610665,80.3190935 Z" id="八" fill="#000000" fill-rule="nonzero"></path>
    </g>
</svg>