<?xml version="1.0" encoding="UTF-8"?>
<svg width="400px" height="240px" viewBox="0 0 400 240" version="1.1" xmlns="http://www.w3.org/2000/svg" xmlns:xlink="http://www.w3.org/1999/xlink">
    <title>banlun_s</title>
    <g id="banlun_s" stroke="none" stroke-width="1" fill="none" fill-rule="evenodd">
        <path d="M205.055703,-0.766492147 C207.151194,-0.0659685864 211.342175,2.21073298 217.628647,6.06361257 C218.466844,6.76413613 219.724138,7.81492147 221.400531,9.21596859 C229.782493,14.4698953 234.706897,18.6730366 236.17374,21.8253927 C236.760477,23.0863351 237.19634,26.7850995 237.561793,30.7696775 L237.62951,31.5196098 L237.62951,31.5196098 L237.72825,32.6501728 C238.192402,38.0538692 238.552122,43.3664921 239.002653,43.3664921 C239.70259,43.3664921 245.403108,38.2645602 251.115009,32.9555966 L251.749458,32.3651085 C251.960787,32.1681609 252.171879,31.971178 252.382479,31.7744085 L253.012553,31.1849888 C256.885792,27.5572486 260.504116,24.0876505 262.262599,22.3507853 C267.291777,16.3963351 269.596817,12.5434555 269.177719,10.7921466 C268.758621,9.74136126 269.282493,8.86570681 270.749337,8.16518325 C272.21618,7.46465969 274.206897,6.76413613 276.721485,6.06361257 C282.169761,5.01282723 288.875332,5.88848168 296.838196,8.69057592 C302.286472,10.7921466 306.058355,12.8937173 308.153846,14.995288 C310.249337,17.0968586 313.183024,21.1248691 316.954907,27.0793194 C322.403183,37.236911 324.708223,44.1545812 323.870027,47.8323298 C323.03183,51.5100785 318.6313,53.3489529 310.668435,53.3489529 C306.896552,53.3489529 304.486737,53.961911 303.438992,55.1878272 C302.841777,55.8865995 293.802333,59.4872731 284.935819,63.2654747 L284.003512,63.6637182 C277.642202,66.3879205 271.526764,69.1545157 268.863395,70.9496073 C262.367374,75.3278796 255.137931,78.3926702 247.175066,80.1439791 C239.212202,81.895288 235.230769,83.6465969 235.230769,85.3979058 C235.230769,87.1492147 236.488064,88.1124346 239.002653,88.2875654 C241.517241,88.4626963 247.384615,88.2 256.604775,87.4994764 C270.435013,86.4486911 279.550398,84.9600785 283.950928,83.0336387 C288.351459,81.107199 295.790451,80.1439791 306.267905,80.1439791 C313.392573,80.1439791 318.212202,80.5818063 320.72679,81.4574607 C323.241379,82.3331152 327.013263,84.5222513 332.04244,88.0248691 C339.167109,92.5782723 343.148541,95.7306283 343.986737,97.4819372 C347.339523,100.984555 344.824934,106.939005 336.442971,115.345288 L330.156499,122.175393 L315.697613,120.073822 C307.31565,118.672775 292.54244,118.147382 271.377984,118.497644 C250.213528,118.847906 239.002653,119.72356 237.745358,121.124607 C235.649867,122.525654 234.602122,124.802356 234.602122,127.954712 C235.02122,133.909162 236.697613,141.26466 237.116711,141.614921 C237.197086,141.682095 237.516384,141.717062 238.074605,141.719823 L238.32847,141.719034 C240.879157,141.692809 247.390356,141.132712 257.862069,140.038743 C271.27321,138.637696 292.332891,137.937173 321.041114,137.937173 C349.749337,137.937173 369.342175,136.360995 379.819629,133.208639 C402.450928,126.553665 421.100796,128.129843 435.769231,137.937173 C442.055703,142.140314 446.875332,146.868848 450.228117,152.122775 C452.742706,156.325916 454,159.12801 454,160.529058 C454,161.930105 452.952255,164.557068 450.856764,168.409948 C448.342175,173.313613 445.408488,176.991361 442.055703,179.443194 C439.541114,181.895026 436.188329,182.858246 431.997347,182.332853 C427.806366,181.807461 415.65252,179.268063 395.535809,174.71466 C387.572944,172.613089 380.448276,171.387173 374.161804,171.036911 C367.875332,170.686649 356.140584,170.86178 338.95756,171.562304 C313.392573,172.262827 297.466844,172.78822 291.180371,173.138482 C285.848693,173.557866 279.519537,174.051787 272.563846,174.595586 C282.25461,176.635274 293.122833,179.025788 304.062811,181.491909 L307.458161,182.259177 C340.844411,189.821855 373.836355,197.823741 375.099208,198.460432 C375.92917,198.878872 377.259744,199.354102 379.09093,199.886119 L379.68584,200.056012 C382.539744,200.857657 386.48085,201.782631 391.509158,202.830935 C400.308697,204.665468 406.848894,206.338129 411.129751,207.848921 C426.350575,212.381295 443.711827,216.266187 463.213507,219.503597 C476.056077,221.446043 489.612123,224.035971 503.881645,227.273381 L541.695879,235.690647 C566.905368,241.302158 571.661876,245.402878 555.965401,247.992806 C550.733243,248.856115 548.117164,249.611511 548.117164,250.258993 C548.117164,251.122302 544.549784,252.255396 537.415023,253.658273 C530.280261,255.061151 525.285929,255.546763 522.432024,255.115108 C518.151168,254.467626 508.994891,254.845324 494.963194,256.248201 C480.931497,257.651079 472.013046,259.107914 468.20784,260.618705 C467.591777,260.898245 466.892596,261.182813 466.110298,261.47241 C510.898209,265.52188 495.774238,272.527696 517.405621,282.490696 C532.139635,289.203931 541.407805,294.406688 545.210132,298.098967 C549.487749,301.791246 551.74538,306.658341 551.983025,312.700253 C552.220671,318.742164 549.963039,324.616244 545.210132,330.322494 C541.883096,335.021758 539.981933,343.329386 539.506642,355.245378 C539.031351,367.16137 537.724302,464.56021 537.011366,477.147525 C536.298429,489.734841 534.753734,497.371145 532.377281,500.056439 C528.574954,504.08438 526.673791,508.280152 526.673791,512.643754 C526.673791,519.692651 520.495011,528.503771 508.137451,539.077116 C495.77989,549.650461 495.304599,564 483.897621,564 C472.490642,564 465.836571,563.496507 463.935408,562.489522 C461.083663,561.146875 457.994273,558.545497 454.667237,554.685387 C451.340202,550.825277 449.676684,547.720406 449.676684,545.370774 C449.676684,543.981134 447.715539,532.896442 445.87508,521.42821 L445.635876,519.930944 C443.571669,506.949051 441.777351,493.994388 443.260259,494.51802 C451.815493,497.874638 462.27189,497.874638 474.62945,494.51802 C480.808231,493.175373 486.036429,488.979602 490.314046,481.930705 C494.591663,473.874824 493.878727,404.8394 489.60111,370.601902 C485.323493,338.378376 483.184684,348.098449 483.184684,339.371244 C483.184684,332.658009 482.590571,328.546153 481.402344,327.035675 C480.214117,325.525197 476.530613,323.595142 470.351833,321.24551 C462.27189,317.888893 451.340202,315.287514 437.556769,313.441375 C436.09489,313.245572 434.697168,313.053545 433.363605,312.865294 L432.236262,312.704861 C421.675772,311.189529 415.369331,309.924555 413.316939,308.909941 C410.940485,307.735125 395.018244,306.476394 365.550216,305.133747 C318.971719,303.7911 47.343036,307.147717 21.2020429,315.203599 C7.41861014,319.567202 -3.39425518,321.665087 -11.2365531,321.497257 C-16.3741919,321.387307 -19.8289481,307.345648 -21.6008219,296.352057 C-25.6646636,297.417282 -28.0213937,297.94964 -28.6715981,297.94964 C-29.860725,297.94964 -32.8335421,298.81295 -37.5900495,300.539568 C-39.4926524,301.18705 -41.8709061,301.726619 -44.7248106,302.158273 C-47.578715,302.589928 -49.838056,302.859712 -51.5028336,302.967626 C-53.1676112,303.07554 -54,302.913669 -54,302.482014 C-54,300.755396 -49.3624053,297.086331 -40.0872159,291.47482 C-34.6283172,288.172174 -28.469187,284.720007 -21.6098254,281.11832 C-19.4918293,278.892313 -14.9560028,276.595132 -8.00188414,274.226791 C-7.40519564,273.933796 -6.80324179,273.640007 -6.19710066,273.345324 C-0.489291782,270.755396 6.40764394,267.356115 14.4937065,263.147482 C22.5797691,258.938849 33.6386488,253.489209 47.6703456,246.798561 C61.7020424,240.107914 72.5230968,234.71223 80.1335086,230.611511 C85.8413175,227.805755 93.570642,223.219424 103.321482,216.852518 C113.072322,210.485612 117.947742,207.086331 117.947742,206.654676 C117.947742,206.438849 121.990774,202.985612 130.076836,196.294964 L142.014597,187.007972 C135.742471,187.905022 129.933892,188.710916 124.588859,189.425654 C85.6127321,193.979058 56.4854111,202.560471 37.2068966,215.169895 C31.7586207,218.672513 27.7771883,220.774084 25.2625995,221.474607 C22.7480106,222.175131 19.6047745,222.175131 15.8328912,221.474607 C9.96551724,220.774084 2.63129973,217.796859 -6.16976127,212.542932 C-12.4562334,209.040314 -16.3328912,206.413351 -17.7997347,204.662042 C-19.2665782,202.910733 -20,200.28377 -20,196.781152 C-20,193.278534 -19.3713528,191.001832 -18.1140584,189.951047 C-16.8567639,188.900262 -11.8275862,187.148953 -3.0265252,184.69712 C27.1485411,175.590314 53.5517241,168.760209 76.1830239,164.206806 C98.8143236,159.653403 129.618037,154.924869 168.594164,150.021204 C177.395225,148.970419 182.214854,148.094764 183.05305,147.394241 C183.472149,146.693717 185.777188,132.42055 184.938992,131.895157 C184.100796,131.369764 177.080902,132.42055 163.87931,135.047513 C150.677719,137.674476 142.190981,139.688482 138.419098,141.089529 C133.809019,143.191099 130.246684,145.993194 127.732095,149.495812 C121.445623,157.902094 110.549072,157.02644 95.0424403,146.868848 C82.0503979,138.812827 76.8116711,131.982723 79.3262599,126.378534 C80.1644562,123.57644 88.4416446,119.72356 104.157825,114.819895 C119.874005,109.91623 137.580902,105.362827 157.278515,101.159686 C163.984085,99.7586387 170.689655,96.6062827 177.395225,91.7026178 L186.824934,84.3471204 C185.847038,58.5211518 185.348311,40.1324084 185.328753,29.1808901 L185.328879,27.8138183 C185.337177,23.835545 185.416764,20.9637487 185.567639,19.1984293 C185.986737,11.8429319 186.615385,7.37709424 187.453581,5.80091623 C188.291777,4.22473822 190.596817,2.91125654 194.3687,1.8604712 C199.397878,-0.591361257 202.960212,-1.46701571 205.055703,-0.766492147 Z M-38.5055366,319.672274 C-32.294162,331.741107 -31.3385659,360.069339 -35.6387483,404.656971 C-38.0277386,427.788901 -39.3334097,460.927747 -39.5723087,481.880582 C-39.8112077,502.833416 -40.8862533,513.980324 -42.7974455,515.321306 C-44.7086377,516.662287 -46.1420319,520.349986 -47.097628,526.384402 C-49.4866183,535.436027 -54.6229473,540.799952 -62.5066152,542.476179 C-70.390283,544.152406 -79.8267945,541.805688 -90.8161497,535.436027 L-103,526.88727 L-101.566606,506.772549 C-100.133212,493.02749 -97.9831205,482.802506 -95.1163322,476.097599 C-92.2495438,469.392692 -89.6216546,458.161973 -87.2326643,442.405441 C-84.1324927,431.599471 -81.8657098,414.742269 -80.4323156,391.833837 C-78.2822244,357.471188 -76.0126837,338.278391 -73.6236934,334.255447 C-71.2347031,330.232503 -70.040208,326.712427 -70.040208,323.695219 C-70.040208,320.67801 -67.8901168,316.990312 -63.5899343,312.632122 C-53.5561753,303.245252 -45.1947094,305.59197 -38.5055366,319.672274 Z M213.910279,182.535971 C211.2942,183.07554 208.321383,184.856115 204.991828,187.877698 C201.186622,191.115108 198.213805,193.057554 196.073376,193.705036 C193.932948,194.352518 191.197956,196.079137 187.868401,198.884892 C184.538846,201.690647 178.117561,206.007194 168.604546,211.834532 L126.509456,236.76259 C108.434728,247.985612 93.4517293,256.18705 81.5604608,261.366906 C78.9232998,262.563523 76.4363844,263.682995 74.0997146,264.725322 C101.160134,263.630373 134.026881,262.587078 167.175725,261.595753 L175.933376,261.335145 C245.986826,259.25995 315.131369,257.416765 331.329279,255.805588 C339.092362,255.283448 351.240149,255.015125 367.77264,255.000622 L370.974713,255.000929 C374.772331,255.004868 378.786477,255.021341 383.017152,255.050349 C384.860238,255.062986 386.652797,255.078003 388.39483,255.095397 C364.549929,248.396145 340.259647,239.877338 315.523952,229.539568 C279.374496,214.431655 298.932849,224.028777 274.19901,206.330935 C268.966852,202.661871 260.88079,198.291367 249.940823,193.219424 C239.000856,188.147482 230.914793,184.856115 225.682635,183.345324 C220.450477,182.266187 216.526358,181.996403 213.910279,182.535971 Z M127.732095,28.1301047 C130.246684,29.5311518 135.799735,30.1441099 144.391247,29.9689791 C152.982759,29.7938482 158.954907,29.0057592 162.307692,27.604712 C166.079576,25.8534031 167.965517,26.028534 167.965517,28.1301047 C167.965517,29.1808901 167.33687,31.8078534 166.079576,36.0109948 C164.403183,41.965445 165.241379,48.445288 168.594164,55.4505236 C171.94695,62.4557592 173.832891,68.9356021 174.251989,74.8900524 C174.671088,79.0931937 174.566313,81.895288 173.937666,83.2963351 C173.309019,84.6973822 171.318302,86.2735602 167.965517,88.0248691 C157.488064,94.3295812 147.429708,95.9057592 137.790451,92.7534031 C131.923077,91.0020942 125.322281,86.623822 117.988064,79.6185864 C110.653846,72.6133508 104.681698,65.4329843 100.071618,58.0774869 C95.8806366,50.7219895 93.8899204,45.4680628 94.0994695,42.3157068 C94.3090186,39.1633508 96.928382,34.9602094 101.95756,29.7062827 C105.729443,26.9041885 109.396552,25.240445 112.958886,24.7150524 C116.52122,24.1896597 121.445623,25.3280105 127.732095,28.1301047 Z" id="Combined-Shape" fill="#000000" fill-rule="nonzero"></path>
    </g>
</svg>