<?xml version="1.0" encoding="UTF-8"?>
<svg width="825px" height="1175px" viewBox="0 0 825 1175" version="1.1" xmlns="http://www.w3.org/2000/svg" xmlns:xlink="http://www.w3.org/1999/xlink">
    <title>bo</title>
    <g id="bo" stroke="none" stroke-width="1" fill="none" fill-rule="evenodd">
        <path d="M285,-18 C313.666667,-26.6666667 329.333333,-33 332,-37 C334.666667,-41 339.333333,-42.3333333 346,-41 C360,-37 375,-29.6666667 391,-19 C407,-8.33333333 415,-9.09494702e-13 415,6 C415,10 411.166667,19.6666667 403.5,35 C395.833333,50.3333333 391.333333,64 390,76 C388,92 382,114 372,142 C362,170 352.333333,192.333333 343,209 C338.333333,217.666667 331,231.666667 321,251 C311,270.333333 299,287 285,301 C209.666667,381 153.666667,432.333333 117,455 C77,479.666667 48,499.333333 30,514 C15.3333333,526.666667 5.66666667,530.333333 1,525 C0.333333333,524.333333 0,523.666667 0,523 C0,519.666667 1,518 3,518 C5,518 9,513 15,503 C23,488.333333 40,467.333333 66,440 L105,398 C122.333333,380 134.333333,366.5 141,357.5 C147.666667,348.5 154.666667,339.833333 162,331.5 C169.333333,323.166667 173,318 173,316 C173,314 177.666667,307.333333 187,296 C201.666667,277.333333 204.333333,264 195,256 C191.666667,252.666667 190,249.166667 190,245.5 C190,241.833333 185.166667,230.666667 175.5,212 C165.833333,193.333333 159.666667,183.333333 157,182 C153,178.666667 151.833333,173.166667 153.5,165.5 C155.166667,157.833333 158,151.333333 162,146 C167.333333,140 171,136.666667 173,136 C175,135.333333 181.333333,136.333333 192,139 C204,143 216.333333,150.666667 229,162 C241.666667,173.333333 250,178.666667 254,178 C258,177.333333 265.333333,166.166667 276,144.5 C286.666667,122.833333 295,101.333333 301,80 L313,36 C316.333333,22.6666667 317.5,15.6666667 316.5,15 C315.5,14.3333333 304.333333,16.3333333 283,21 C263.666667,26.3333333 251,29 245,29 C239,29 233.666667,27.3333333 229,24 C219,14 220.666667,6 234,-9.09494702e-13 C243.333333,-4.66666667 260.333333,-10.6666667 285,-18 Z M551,-31 C573.666667,-38.3333333 590.333333,-42.8333333 601,-44.5 C611.666667,-46.1666667 617,-48.1666667 617,-50.5 C617,-52.8333333 621.666667,-53.6666667 631,-53 C640.333333,-52.3333333 650.333333,-48.1666667 661,-40.5 C671.666667,-32.8333333 679,-24.3333333 683,-15 C687,-7.66666667 689,-2.5 689,0.5 C689,3.5 687,8.66666667 683,16 C679,26.6666667 674,35.3333333 668,42 C652,63.3333333 628,90.3333333 596,123 C588.666667,131 585,136.333333 585,139 C585,141.666667 602.166667,159.833333 636.5,193.5 C670.833333,227.166667 692.666667,247.333333 702,254 C711.333333,260.666667 722.5,269.166667 735.5,279.5 C748.5,289.833333 762,298.666667 776,306 C790,313.333333 802.833333,321 814.5,329 C826.166667,337 832.833333,341 834.5,341 C836.166667,341 844.666667,344.333333 860,351 C875.333333,357.666667 887,363.333333 895,368 C904.333333,373.333333 911.166667,379.333333 915.5,386 C919.833333,392.666667 920.333333,399.666667 917,407 C913.666667,412.333333 905.166667,417.833333 891.5,423.5 C877.833333,429.166667 863.333333,433.333333 848,436 C835.333333,438 825.5,441 818.5,445 C811.5,449 802.666667,448.666667 792,444 C783.333333,441.333333 771.333333,435.666667 756,427 C740.666667,418.333333 732,412.333333 730,409 C728.666667,407.666667 722.666667,403 712,395 C700.666667,387 680,367.666667 650,337 C620,306.333333 601,285.333333 593,274 C585,262.666667 580,256.666667 578,256 C574.666667,254.666667 564.166667,240.166667 546.5,212.5 C528.833333,184.833333 514,159.666667 502,137 L478,92 C453.333333,48 443.333333,10 448,-22 C450,-36.6666667 453,-45 457,-47 C463,-51.6666667 468,-51.3333333 472,-46 C476,-40.6666667 481.333333,-27 488,-5 C491.333333,3 493.833333,7.83333333 495.5,9.5 C497.166667,11.1666667 501.666667,18 509,30 C517,46 527.166667,62 539.5,78 C551.833333,94 559,101.333333 561,100 C565,98.6666667 570.833333,89.6666667 578.5,73 C586.166667,56.3333333 591.666667,41.6666667 595,29 C597.666667,19.6666667 598.833333,14 598.5,12 C598.166667,10 596,9 592,9 C586,9 577.666667,11.8333333 567,17.5 C556.333333,23.1666667 546.333333,24.3333333 537,21 C525,18.3333333 517.666667,15.3333333 515,12 C512.333333,8.66666667 512,2.66666667 514,-6 C516.666667,-13.3333333 519.5,-18 522.5,-20 C525.5,-22 535,-25.6666667 551,-31 Z" id="Combined-Shape" fill="#000000" fill-rule="nonzero"></path>
    </g>
</svg>