<?xml version="1.0" encoding="UTF-8"?>
<svg width="1000px" height="1000px" viewBox="0 0 1000 1000" version="1.1" xmlns="http://www.w3.org/2000/svg" xmlns:xlink="http://www.w3.org/1999/xlink">
    <title>bo_string</title>
    <g id="bo_string" stroke="none" stroke-width="1" fill="none" fill-rule="evenodd">
        <path d="M310.061019,245.246938 C341.248443,236.57419 358.292733,230.236412 361.193889,226.233606 C364.095044,222.230799 369.172067,220.89653 376.424956,222.230799 C391.656024,226.233606 407.975025,233.572085 425.381959,244.246236 C442.788894,254.920388 451.492361,263.259569 451.492361,269.263779 C451.492361,273.266586 447.321949,282.940036 438.981127,298.284129 C430.640304,313.628221 425.744604,327.304478 424.294026,339.312899 C422.118159,355.324126 415.590559,377.339564 404.711225,405.359212 C393.831891,433.378859 383.315201,455.727864 373.161156,472.406226 C368.084134,481.078974 360.105955,495.088798 349.226621,514.435698 C338.347287,533.782598 325.292086,550.460959 310.061019,564.470783 C228.103369,644.52692 167.179099,695.896275 127.288208,718.578847 C83.7708718,743.262822 52.2208032,762.943289 32.638002,777.620248 C16.6816455,790.295803 6.16495593,793.965042 1.0879334,788.627966 C0.362644467,787.960832 6.25277607e-13,787.293697 6.25277607e-13,786.626563 C6.25277607e-13,783.290891 1.0879334,781.623054 3.2638002,781.623054 C5.439667,781.623054 9.7914006,776.619546 16.319001,766.612529 C25.0224682,751.93557 43.517336,730.920834 71.8036044,703.568321 L114.233007,661.538849 C133.090519,643.526218 146.14572,630.016745 153.398609,621.01043 C160.651499,612.004115 168.267032,603.331366 176.245211,594.992186 C184.223389,586.653005 188.212478,581.482712 188.212478,579.481309 C188.212478,577.479906 193.289501,570.808561 203.443546,559.467275 C219.399902,540.78751 222.301058,527.44482 212.147013,519.439206 C208.520568,516.103534 206.707346,512.601078 206.707346,508.931838 C206.707346,505.262599 201.449001,494.088096 190.932312,475.408331 C180.415622,456.728566 173.706699,446.721549 170.805544,445.38728 C166.45381,442.051608 165.184554,436.547748 166.997777,428.875702 C168.810999,421.203655 171.893477,414.699094 176.245211,409.362018 C182.047522,403.357808 186.036611,400.022136 188.212478,399.355001 C190.388345,398.687867 197.27859,399.688569 208.883213,402.357106 C221.938414,406.359913 235.356259,414.03196 249.136748,425.373246 C262.917238,436.714532 271.98335,442.051608 276.335083,441.384473 C280.686817,440.717339 288.664995,429.542836 300.269618,407.860966 C311.874241,386.179095 320.940353,364.664009 327.467953,343.315706 L340.523154,299.28483 C344.149599,285.942141 345.418854,278.937229 344.330921,278.270094 C343.242988,277.60296 331.094398,279.604363 307.885152,284.274305 C286.851773,289.61138 273.071283,292.279918 266.543683,292.279918 C260.016082,292.279918 254.213771,290.612082 249.136748,287.27641 C238.257415,277.269393 240.070637,269.263779 254.576415,263.259569 C264.730461,258.589627 283.225328,252.585417 310.061019,245.246938 Z M599.451303,232.237816 C624.111127,224.899337 642.24335,220.396179 653.847973,218.728343 C665.452596,217.060507 671.254908,215.059103 671.254908,212.724132 C671.254908,210.389162 676.33193,209.555244 686.485975,210.222378 C696.64002,210.889513 707.519354,215.059103 719.123977,222.73115 C730.7286,230.403196 738.706778,238.909161 743.058512,248.249043 C747.410245,255.587522 749.586112,260.757814 749.586112,263.75992 C749.586112,266.762025 747.410245,271.932317 743.058512,279.270796 C738.706778,289.944948 733.267111,298.617696 726.739511,305.289041 C709.332577,326.637344 683.222175,353.65629 648.408306,386.345879 C640.430128,394.351493 636.441039,399.688569 636.441039,402.357106 C636.441039,405.025644 655.117229,423.205059 692.469609,456.89535 C729.821989,490.58564 753.575201,510.766458 763.729246,517.437803 C773.883292,524.109148 786.031881,532.615112 800.175015,542.955697 C814.31815,553.296281 829.00525,562.135813 844.236318,569.474292 C859.467386,576.812771 873.429198,584.484818 886.121754,592.490431 C898.81431,600.496045 906.0672,604.498852 907.880422,604.498852 C909.693644,604.498852 918.941078,607.834524 935.622724,614.505869 C952.304369,621.177214 964.996925,626.847857 973.700393,631.517798 C983.854438,636.854874 991.288649,642.859084 996.003027,649.530429 C1000.71741,656.201773 1001.26137,663.206685 997.634927,670.545165 C994.008483,675.88224 984.761049,681.3861 969.892626,687.056743 C955.024203,692.727386 939.249168,696.896976 922.567523,699.565514 C908.787033,701.566918 898.089021,704.569023 890.473488,708.57183 C882.857954,712.574636 873.247875,712.241069 861.643252,707.571128 C852.214496,704.90259 839.159296,699.231947 822.47765,690.559199 C805.796005,681.886451 796.367248,675.88224 794.191382,672.546568 C792.740804,671.212299 786.213203,666.542358 774.60858,658.536744 C762.278669,650.53113 739.794712,631.184231 707.15671,600.496045 C674.518708,569.807859 653.847973,548.793123 645.144506,537.451837 C636.441039,526.110551 631.001372,520.106341 628.825505,519.439206 C625.19906,518.104937 613.77576,503.594763 594.555603,475.908682 C575.335446,448.222601 559.197767,423.038275 546.142567,400.355703 L520.032165,355.324126 C493.196474,311.293251 482.31714,273.266586 487.394163,241.244131 C489.57003,226.567173 492.83383,218.227992 497.185564,216.226588 C503.713164,211.556647 509.152831,211.890214 513.504565,217.22729 C517.856298,222.564366 523.65861,236.240623 530.911499,258.25606 C534.537944,266.261674 537.257777,271.098399 539.070999,272.766235 C540.884222,274.434071 545.779922,281.2722 553.7581,293.28062 C562.461568,309.291847 573.522224,325.303075 586.940069,341.314302 C600.357914,357.325529 608.15477,364.664009 610.330637,363.32974 C614.682371,361.995471 621.028649,352.989155 629.369472,336.310794 C637.710294,319.632432 643.693928,304.955473 647.320373,292.279918 C650.221528,282.940036 651.490784,277.269393 651.12814,275.267989 C650.765495,273.266586 648.408306,272.265884 644.056573,272.265884 C637.528972,272.265884 628.46286,275.101206 616.858238,280.771849 C605.253615,286.442492 594.374281,287.609977 584.220236,284.274305 C571.165035,281.605767 563.186857,278.603662 560.285701,275.267989 C557.384545,271.932317 557.021901,265.928107 559.197767,257.255359 C562.098923,249.916879 565.181401,245.246938 568.445201,243.245535 C571.709001,241.244131 582.044369,237.574892 599.451303,232.237816 Z" id="Combined-Shape" fill="#000000" fill-rule="nonzero"></path>
    </g>
</svg>