<?xml version="1.0" encoding="UTF-8"?>
<svg width="825px" height="1175px" viewBox="0 0 825 1175" version="1.1" xmlns="http://www.w3.org/2000/svg" xmlns:xlink="http://www.w3.org/1999/xlink">
    <title>bola</title>
    <g id="bola" stroke="none" stroke-width="1" fill="none" fill-rule="evenodd">
        <path d="M631,-53 C640.333333,-52.3333333 650.333333,-48.1666667 661,-40.5 C671.666667,-32.8333333 679,-24.3333333 683,-15 C687,-7.66666667 689,-2.5 689,0.5 C689,3.5 687,8.66666667 683,16 C679,26.6666667 674,35.3333333 668,42 C652,63.3333333 628,90.3333333 596,123 C588.666667,131 585,136.333333 585,139 C585,141.666667 602.166667,159.833333 636.5,193.5 C670.833333,227.166667 692.666667,247.333333 702,254 C711.333333,260.666667 722.5,269.166667 735.5,279.5 C748.5,289.833333 762,298.666667 776,306 C790,313.333333 802.833333,321 814.5,329 C826.166667,337 832.833333,341 834.5,341 C836.166667,341 844.666667,344.333333 860,351 C875.333333,357.666667 887,363.333333 895,368 C904.333333,373.333333 911.166667,379.333333 915.5,386 C919.833333,392.666667 920.333333,399.666667 917,407 C913.666667,412.333333 905.166667,417.833333 891.5,423.5 C877.833333,429.166667 863.333333,433.333333 848,436 C835.333333,438 825.5,441 818.5,445 C811.5,449 802.666667,448.666667 792,444 C783.333333,441.333333 771.333333,435.666667 756,427 C740.666667,418.333333 732,412.333333 730,409 C728.666667,407.666667 722.666667,403 712,395 C700.666667,387 680,367.666667 650,337 C620,306.333333 601,285.333333 593,274 C585,262.666667 580,256.666667 578,256 C574.907004,254.762802 565.643535,242.189153 550.209592,218.279053 L549,221 L510,219 C484.666667,218.333333 470.833333,219.833333 468.5,223.5 C466.166667,227.166667 464.166667,238.5 462.5,257.5 C460.833333,276.5 460.833333,287.333333 462.5,290 C464.166667,292.666667 469.333333,293 478,291 C486.666667,289 496.166667,289.5 506.5,292.5 C516.833333,295.5 525.333333,295.666667 532,293 C538.666667,290.333333 552.666667,292.333333 574,299 C591.333333,305.666667 602.833333,310.833333 608.5,314.5 C614.166667,318.166667 619.666667,325 625,335 C628.333333,342.333333 630,347 630,349 C630,351 628.666667,353 626,355 C621.333333,359 614.833333,369.666667 606.5,387 C598.166667,404.333333 588.666667,418.333333 578,429 C570.666667,435.666667 566.5,440.166667 565.5,442.5 C564.5,444.833333 565.333333,448.666667 568,454 C571.333333,458.666667 572.833333,462.666667 572.5,466 C572.166667,469.333333 569.666667,475 565,483 C559,495 552.166667,503.166667 544.5,507.5 C536.833333,511.833333 523.666667,514.666667 505,516 C486.333333,517.333333 475,520 471,524 C467,528 464,539.666667 462,559 L460,577 C458,667.444444 456.333333,719.111111 455,732 C453,751.333333 452,936 452,986 L451,1198 L434,1213 C423.333333,1223 416,1228 412,1228 C406,1228 399,1223 391,1213 C383,1203 378.333333,1193.33333 377,1184 C375.666667,1174 376.666667,1154.33333 380,1125 C382.666667,1109 384.5,980.333333 385.5,959 C386.23,943.426667 386.604733,849.60585 386.6242,794.24265 L386.6242,785.50745 C386.618067,769.502517 386.576667,757.95 386.5,754.5 C386.166667,739.5 385.740185,659.751209 382.336616,621.859315 C380.06757,596.598052 377.158823,572.978281 373.610378,551 L358,551 L358,551 C355.333333,549.666667 350,552 342,558 C334,564 329.333333,569.333333 328,574 C325.333333,580 320.666667,583.666667 314,585 C307.333333,586.333333 301,585 295,581 C283.666667,573.666667 274.833333,562.166667 268.5,546.5 C262.166667,530.833333 254.666667,501.666667 246,459 C240.666667,437 236.333333,419.333333 233,406 C229,393.333333 227.333333,385.166667 228,381.5 C228.666667,377.833333 230.666667,371.666667 234,363 C238.666667,352.333333 243.333333,347.666667 248,349 C252.666667,350.333333 267.833333,344.833333 293.5,332.5 C319.166667,320.166667 341.333333,311.666667 360,307 C378.666667,302.333333 389,299.333333 391,298 C393,296.666667 394.666667,291.166667 396,281.5 C397.333333,271.833333 397.833333,262.666667 397.5,254 C397.166667,245.333333 396.333333,241 395,241 C391.666667,241 381.333333,245 364,253 C352,258.333333 343.833333,261.5 339.5,262.5 C335.166667,263.5 330,263 324,261 C321.612171,260.104564 319.33292,259.142311 317.162246,258.113241 C307.973794,274.451608 297.252882,288.747118 285,301 C209.666667,381 153.666667,432.333333 117,455 C77,479.666667 48,499.333333 30,514 C15.3333333,526.666667 5.66666667,530.333333 1,525 C0.333333333,524.333333 -1.1937118e-12,523.666667 -1.1937118e-12,523 C-1.1937118e-12,519.666667 1,518 3,518 C5,518 9,513 15,503 C23,488.333333 40,467.333333 66,440 L105,398 C122.333333,380 134.333333,366.5 141,357.5 C147.666667,348.5 154.666667,339.833333 162,331.5 C169.333333,323.166667 173,318 173,316 C173,314 177.666667,307.333333 187,296 C201.666667,277.333333 204.333333,264 195,256 C191.666667,252.666667 190,249.166667 190,245.5 C190,241.833333 185.166667,230.666667 175.5,212 C165.833333,193.333333 159.666667,183.333333 157,182 C153,178.666667 151.833333,173.166667 153.5,165.5 C155.166667,157.833333 158,151.333333 162,146 C167.333333,140 171,136.666667 173,136 C175,135.333333 181.333333,136.333333 192,139 C204,143 216.333333,150.666667 229,162 C241.666667,173.333333 250,178.666667 254,178 C258,177.333333 265.333333,166.166667 276,144.5 C286.666667,122.833333 295,101.333333 301,80 L313,36 C316.333333,22.6666667 317.5,15.6666667 316.5,15 C315.5,14.3333333 304.333333,16.3333333 283,21 C263.666667,26.3333333 251,29 245,29 C239,29 233.666667,27.3333333 229,24 C219,14 220.666667,6 234,-9.09494702e-13 C243.333333,-4.66666667 260.333333,-10.6666667 285,-18 C296.466667,-21.4666667 305.853333,-24.56 313.16,-27.28 L314.2404,-27.6852 C324.533467,-31.5750667 330.453333,-34.68 332,-37 C334.666667,-41 339.333333,-42.3333333 346,-41 C360,-37 375,-29.6666667 391,-19 C407,-8.33333333 415,-9.09494702e-13 415,6 C415,10 411.166667,19.6666667 403.5,35 C395.833333,50.3333333 391.333333,64 390,76 C388,92 382,114 372,142 C366.142194,158.401858 360.398767,172.859262 354.76972,185.372212 L398,170 L400,146 C401.333333,129.333333 402,113.833333 402,99.5 C402,85.1666667 405,73.1666667 411,63.5 C417,53.8333333 421.666667,49 425,49 C429.666667,49 437.5,54.3333333 448.5,65 C459.5,75.6666667 467,85 471,93 C474.333333,102.333333 474.666667,112.666667 472,124 C469.333333,135.333333 469.333333,142.166667 472,144.5 C474.609946,146.783703 487.11832,148.907754 509.52512,150.872153 C506.903276,146.148125 504.395198,141.524262 502,137 L478,92 C453.333333,48 443.333333,10 448,-22 C450,-36.6666667 453,-45 457,-47 C463,-51.6666667 468,-51.3333333 472,-46 C476,-40.6666667 481.333333,-27 488,-5 C491.333333,3 493.833333,7.83333333 495.5,9.5 C497.166667,11.1666667 501.666667,18 509,30 C517,46 527.166667,62 539.5,78 C540.98,79.92 542.3856,81.7152 543.7168,83.3856 L544.3762,84.2104 C553.738733,95.8834667 559.28,101.146667 561,100 C565,98.6666667 570.833333,89.6666667 578.5,73 C586.166667,56.3333333 591.666667,41.6666667 595,29 C597.666667,19.6666667 598.833333,14 598.5,12 C598.166667,10 596,9 592,9 C586,9 577.666667,11.8333333 567,17.5 C556.333333,23.1666667 546.333333,24.3333333 537,21 C525,18.3333333 517.666667,15.3333333 515,12 C512.333333,8.66666667 512,2.66666667 514,-6 C516.666667,-13.3333333 519.5,-18 522.5,-20 C522.94,-20.2933333 523.519822,-20.6225185 524.239467,-20.9875556 L524.645867,-21.1902222 C528.988622,-23.3211852 537.773333,-26.5911111 551,-31 C573.666667,-38.3333333 590.333333,-42.8333333 601,-44.5 C611.666667,-46.1666667 617,-48.1666667 617,-50.5 C617,-52.8333333 621.666667,-53.6666667 631,-53 Z M386,351 C379.333333,351.666667 367.666667,354 351,358 C334.333333,362 324.666667,364.666667 322,366 C316.666667,369.333333 314.666667,374 316,380 C317.333333,386 316.666667,392.333333 314,399 C311.333333,405.666667 313.833333,416.5 321.5,431.5 C329.166667,446.5 333.666667,458.333333 335,467 C335.666667,469.666667 336.166667,472 336.5,474 C336.833333,476 337.333333,477.666667 338,479 C338.185185,479.37037 338.34465,479.6893 338.478395,479.95679 L338.626543,480.253086 C338.875514,480.751029 339,481 339,481 L362,473 C376,468.333333 384,462.666667 386,456 C388,449.333333 389.333333,429.666667 390,397 L389.999023,395.390625 C389.978841,378.921875 389.645833,367.458333 389,361 C388.333333,354.333333 387.333333,351 386,351 Z M465,343 C463,345.666667 461.333333,354.833333 460,370.5 C458.666667,386.166667 458.5,400.833333 459.5,414.5 C460.5,428.166667 462,435 464,435 C466,435 468,432.166667 470,426.5 C472,420.833333 474.333333,416 477,412 C481,408 487.333333,395.833333 496,375.5 C504.666667,355.166667 508.333333,344.333333 507,343 C505,341 498,339.833333 486,339.5 C474,339.166667 467,340.333333 465,343 Z" id="Combined-Shape" fill="#000000" fill-rule="nonzero"></path>
    </g>
</svg>