<?xml version="1.0" encoding="UTF-8"?>
<svg width="800px" height="470px" viewBox="0 0 800 470" version="1.1" xmlns="http://www.w3.org/2000/svg" xmlns:xlink="http://www.w3.org/1999/xlink">
    <title>c_qiaqi_m</title>
    <g id="c_qiaqi_m" stroke="none" stroke-width="1" fill="none" fill-rule="evenodd">
        <g id="孚己" transform="translate(124.000000, 0.000000)" fill="#000000" fill-rule="nonzero">
            <path d="M424.212503,39.8039781 C429.899538,35.9695157 435.902518,36.3181032 442.221445,40.8497406 C446.012801,43.6384405 459.91444,48.8672528 483.926362,56.5361776 L518.996406,66.9938022 L519.944245,77.4514269 C520.576137,86.5147016 515.836942,93.747892 505.726659,99.150998 C495.616377,104.554104 481.714738,106.90707 464.021742,106.209895 C450.751996,105.861307 435.428599,107.952832 418.05155,112.484469 C400.674501,117.016107 388.984486,120.763422 382.981506,123.726416 C376.978526,126.68941 368.921894,129.390963 358.811611,131.831075 L323.741567,139.674294 C309.839928,142.462994 299.729645,145.251693 293.410718,148.040393 C267.292488,148.505177 256.550312,147.459414 261.184192,144.903106 C271.294474,138.977119 285.51206,131.831075 303.836948,123.464975 C343.646187,104.641251 374.924874,81.1115955 397.673011,52.8760089 C403.360045,46.2528467 408.415186,42.9412655 412.838435,42.9412655 C417.261684,42.9412655 421.05304,41.895503 424.212503,39.8039781 Z M235.646433,10.0768887 C246.371534,4.14930711 255.361692,0.836835047 262.616907,0.139472508 C269.872123,-0.557890031 277.915949,1.35985695 286.748385,5.89271346 C293.688156,10.0768887 297.946652,12.1689763 299.523873,12.1689763 C301.101093,12.1689763 304.255535,13.5637014 308.987197,16.3531515 C313.718859,19.1426017 316.084691,23.3267769 316.084691,28.9056772 C316.084691,34.4845776 311.51075,39.7147966 302.36287,44.5963344 C293.21499,49.4778722 285.013442,51.4827895 277.758226,50.6110863 C270.503011,49.7393831 259.935632,51.3084488 246.05609,55.3182834 C232.176547,59.328118 223.028667,61.3330353 218.612449,61.3330353 C214.19623,61.3330353 211.357233,62.0303979 210.095457,63.4251229 C208.83368,64.4711667 209.464568,65.1685293 211.988121,65.5172105 C213.249898,65.8658918 214.827119,66.0402325 216.719784,66.0402325 C223.028667,66.0402325 234.069212,68.393831 249.841419,73.1010282 C265.613627,77.8082253 277.600504,82.4282521 285.802052,86.9611086 C290.849159,90.0992401 294.319044,92.6271793 296.211709,94.5449262 C298.104374,96.4626732 299.050707,99.1649531 299.050707,102.651766 C297.78893,108.230666 294.634488,112.937863 289.587382,116.773357 C286.432941,119.911489 283.436221,121.742065 280.597224,122.265087 C277.758226,122.788109 272.237954,123.04962 264.036406,123.04962 C256.465746,123.04962 250.945474,122.439428 247.475588,121.219043 C244.005703,119.998659 237.539098,116.599017 228.075773,111.020116 C207.256459,96.7241842 196.846802,85.9150648 196.846802,78.5927582 C196.846802,74.0599017 195.90047,71.4447921 194.007805,70.7474296 C192.11514,70.3987483 177.446987,72.7523469 150.003346,77.8082253 C122.559705,82.8641037 107.576108,85.9150648 105.052555,86.9611086 C103.15989,88.0071524 104.737111,89.5762181 109.784217,91.6683058 C124.925536,97.5958873 142.274965,105.964238 161.832502,116.773357 C170.664938,120.957532 175.081156,125.66473 175.081156,130.894949 C175.712044,141.006705 174.450268,147.63165 171.295826,150.769781 C168.141385,153.907912 160.886169,155.651319 149.53018,156 C138.174191,156 121.455651,148.503353 99.3745603,133.510058 C94.327454,130.023245 89.4380697,125.141708 84.7064074,118.865445 C79.9747452,112.589182 77.6089141,107.707644 77.6089141,104.220831 C77.6089141,100.734019 75.8739713,98.2060796 72.4040856,96.6370139 C68.9342,95.0679481 67.5147013,93.2373715 68.1455896,91.1452839 C68.7764779,89.4018775 84.2332412,81.033527 114.515879,66.0402325 C144.798518,51.0469379 168.456829,40.0634779 185.490813,33.0898525 C207.571903,24.0241395 224.290443,16.3531515 235.646433,10.0768887 Z" id="孚"></path>
            <path d="M252.344453,148.161918 C263.730554,144.39773 278.247832,143.994424 295.896288,146.952 C332.33181,152.329412 356.242621,157.437953 367.628722,162.277623 C376.168297,166.041811 382.430652,168.192776 386.415787,168.730517 C389.831618,169.537129 391.112554,173.166882 390.258596,179.619776 C389.404639,186.07267 386.70044,190.509034 382.146,192.928869 C378.73017,195.886446 371.329204,198.642369 359.943104,201.19664 C348.557003,203.75091 336.743924,208.792233 324.503866,216.32061 C312.263808,223.848986 304.435863,227.613174 301.020033,227.613174 C297.604203,227.613174 295.611636,228.621438 295.042331,230.637968 C294.473026,232.654497 294.900004,234.805462 296.323267,237.090862 C297.746529,239.376262 300.166076,240.922267 303.581906,241.728879 C307.567041,243.342103 307.99402,248.114555 304.862842,256.046237 C301.731665,263.97792 297.319551,268.750372 291.6265,270.363596 C287.641365,271.439078 285.648798,272.917866 285.648798,274.79996 C285.648798,277.219795 280.525052,279.10189 270.277562,280.446242 C260.030071,281.790595 239.819743,283.134948 209.646576,284.479301 C175.488275,286.092525 151.71979,287.63853 138.341122,289.117319 C124.962454,290.596107 117.134509,292.612636 114.857289,295.166907 C112.580069,297.721177 107.456324,298.931095 99.4860536,298.796659 C91.5157832,298.662224 82.9762078,297.116218 73.8673273,294.158642 C64.7584469,291.469936 58.9230704,290.730542 56.3611977,291.94046 C53.7993251,293.150377 52.5183888,296.578477 52.5183888,302.224759 C51.9490838,307.3333 50.2411687,317.415947 47.3946435,332.472699 C44.5481184,347.529452 45.1174234,360.300804 49.1025586,370.786757 C51.9490838,379.121745 55.7918927,385.507421 60.6309854,389.943785 C65.4700782,394.38015 73.0133698,399.018167 83.2608603,403.857838 C92.9390457,408.428638 105.748409,411.520649 121.68895,413.133873 C148.446286,415.822579 202.103285,417.839108 282.659946,419.183461 C363.216608,420.527814 413.742429,419.990072 434.23741,417.570237 C457.578916,415.419273 481.062748,410.64682 504.688907,403.252879 C528.315066,395.858938 540.128145,389.742132 540.128145,384.902462 C540.128145,382.751497 542.832344,378.718439 548.240742,372.803286 C553.649139,366.888133 557.918927,359.830281 561.050105,351.629728 C564.181282,343.429175 566.885481,339.328899 569.162701,339.328899 C570.301311,339.328899 571.155269,340.135511 571.724574,341.748734 C572.293879,343.361958 573.147836,347.932758 574.286447,355.461134 C574.855752,362.182898 576.563667,369.240751 579.410192,376.634692 C582.256717,384.028633 584.106958,391.893097 584.960916,400.228085 C585.814873,408.563073 586.526505,413.537179 587.09581,415.150402 C588.803725,416.225884 588.092093,419.855637 584.960916,426.03966 C581.829738,432.223684 578.129255,437.332225 573.859468,441.365283 C569.58968,445.398342 561.761736,450.103577 550.375635,455.480989 C538.989535,460.8584 528.172739,464.757024 517.925249,467.176859 C511.093588,468.790082 502.696339,469.663912 492.733501,469.798347 C482.770663,469.932782 459.002178,470 421.428047,470 C372.467814,470 318.810815,469.462259 260.45705,468.386777 C202.103285,467.311294 168.087309,466.101377 158.409124,464.757024 C148.730938,463.681541 136.775533,462.471624 122.542907,461.127271 C103.186536,459.245177 88.3846055,456.489253 78.137115,452.859501 C67.8896245,449.229748 56.7881765,442.978507 44.8327709,434.105778 C37.4318056,427.652884 30.3154927,422.544343 23.4838324,418.780155 C10.3898168,410.445167 2.70419888,394.985109 0.426978771,372.39998 C-0.711631284,356.536616 0.426978771,341.278211 3.84280894,326.624764 C7.2586391,311.971318 9.53585921,299.670489 10.6744693,289.722277 C12.3823843,280.849548 14.5172782,274.732743 17.0791508,271.37186 C19.6410235,268.010978 23.4838324,266.599408 28.6075776,267.137149 C33.1620179,267.67489 42.2708983,266.801061 55.934219,264.515661 C69.5975396,262.230261 84.5417966,260.079296 100.76699,258.062767 C116.992183,256.046237 126.955021,254.231361 130.655504,252.618138 C134.355987,251.004914 139.622058,249.660561 146.453718,248.585079 C152.146769,248.047338 159.547734,245.963591 168.656614,242.333838 C177.765495,238.704085 184.881808,235.14155 190.005553,231.646233 C196.267908,227.075433 203.384221,219.278186 211.354491,208.254492 C219.324762,197.230799 224.448507,188.492505 226.725727,182.039611 L228.433642,176.796635 L204.522831,177.603246 C188.58229,178.140987 168.798941,179.552558 145.172782,181.837958 C121.546623,184.123358 107.456324,185.803799 102.901884,186.879281 C92.6543932,189.836858 79.2757251,188.089199 62.7658793,181.636305 C57.642134,180.023082 54.7956089,178.678729 54.2263039,177.603246 C53.6569988,176.527764 54.0839776,175.116193 55.5072402,173.368535 C56.9305028,171.620876 59.6347016,170.209305 63.6198368,169.133823 C67.604972,168.058341 76.7138525,166.848423 90.9464782,165.50407 C111.441459,162.546494 123.823843,160.6644 128.093631,159.857788 C132.363419,159.051176 144.461151,157.706824 164.386827,155.824729 C184.312503,153.942635 202.530264,152.732718 219.040109,152.194977 C235.549955,151.926106 246.651403,150.581753 252.344453,148.161918 Z" id="己"></path>
        </g>
    </g>
</svg>