<?xml version="1.0" encoding="UTF-8"?>
<svg width="1000px" height="1000px" viewBox="0 0 1000 1000" version="1.1" xmlns="http://www.w3.org/2000/svg" xmlns:xlink="http://www.w3.org/1999/xlink">
    <title>c_qiaqi_l</title>
    <g id="c_qiaqi_l" stroke="none" stroke-width="1" fill="none" fill-rule="evenodd">
        <g id="孚己" transform="translate(56.000000, 0.000000)" fill="#000000" fill-rule="nonzero">
            <path d="M641.259159,84.7110304 C649.85262,76.5505079 658.923495,77.2923735 668.471785,86.9366274 C674.200759,92.8715528 695.206997,103.999538 731.490498,120.320583 L784.483507,142.576553 L785.91575,164.832524 C786.870579,184.121032 779.709362,199.514744 764.432098,211.013663 C749.154834,222.512581 728.148597,227.520174 701.413385,226.036443 C681.361976,225.294577 658.207374,229.745771 631.949576,239.390025 C605.691779,249.034279 588.027443,257.009335 578.956568,263.315193 C569.885692,269.621051 557.711623,275.37051 542.434359,280.56357 L489.44135,297.255548 C468.435113,303.190473 453.157849,309.125399 443.609559,315.060324 C404.143294,316.049478 387.911201,313.823881 394.913281,308.383533 C410.190544,295.771817 431.674197,280.56357 459.364237,262.758794 C519.518463,222.698047 566.782498,172.622114 601.156342,112.530993 C609.749802,98.4355454 617.388434,91.3878215 624.072237,91.3878215 C630.75604,91.3878215 636.485014,89.1622244 641.259159,84.7110304 Z M356.324145,21.4456862 C372.530437,8.83057667 386.115123,1.78095664 397.078203,0.296826106 C408.041283,-1.18730443 420.196002,2.89405454 433.54236,12.540903 C444.028784,21.4456862 450.463636,25.8980778 452.846914,25.8980778 C455.230192,25.8980778 459.996749,28.8663388 467.146583,34.802861 C474.296418,40.7393831 477.871336,49.6441663 477.871336,61.5172105 C477.871336,73.3902548 470.959829,84.5212338 457.136815,94.9101475 C443.313801,105.299061 430.920754,109.565937 419.957674,107.710773 C408.994594,105.85561 393.02663,109.194904 372.053781,117.728654 C351.080933,126.262405 337.257919,130.52928 330.58474,130.52928 C323.911561,130.52928 319.62166,132.013411 317.715037,134.981672 C315.808415,137.207868 316.761726,138.691998 320.574971,139.434063 C322.481594,140.176129 324.864872,140.547161 327.724806,140.547161 C337.257919,140.547161 353.940867,145.556102 377.773649,155.573983 C401.606432,165.591864 419.719346,175.424229 432.112393,185.071077 C439.738884,191.749665 444.982096,197.129638 447.84203,201.210997 C450.701963,205.292356 452.13193,211.043362 452.13193,218.464014 C450.225308,230.337059 445.458751,240.35494 437.832261,248.517658 C433.065704,255.196245 428.537476,259.092088 424.247575,260.205186 C419.957674,261.318283 411.6162,261.874832 399.223153,261.874832 C387.783418,261.874832 379.441944,260.576218 374.198732,257.97899 C368.95552,255.381761 359.184079,248.146625 344.884409,236.273581 C313.425136,205.848905 297.6955,182.844882 297.6955,167.261511 C297.6955,157.614662 296.265533,152.049173 293.405599,150.565042 C290.545665,149.822977 268.381178,154.831918 226.912136,165.591864 C185.443094,176.35181 162.801951,182.844882 158.988706,185.071077 C156.128772,187.297273 158.51205,190.636567 166.138541,195.088958 C189.018012,207.704068 215.234073,225.513634 244.786723,248.517658 C258.133081,257.422441 264.80626,267.440322 264.80626,278.571301 C265.759571,300.091194 263.852949,314.190434 259.086392,320.869021 C254.319836,327.547608 243.356756,331.257935 226.197153,332 C209.037549,332 183.7748,316.045597 150.408904,284.13679 C142.782414,276.716138 135.394251,266.327224 128.244417,252.970049 C121.094582,239.612874 117.519664,229.223961 117.519664,221.803308 C117.519664,214.382655 114.898058,209.002682 109.654846,205.663388 C104.411634,202.324095 102.266684,198.428252 103.219995,193.975861 C104.173306,190.265534 127.529433,172.455968 173.288375,140.547161 C219.047318,108.638355 254.796491,85.2632991 280.535897,70.4219937 C313.901792,51.1282968 339.164541,34.802861 356.324145,21.4456862 Z" id="孚"></path>
            <path d="M380.662466,315.722724 C397.838438,307.719481 419.737801,306.861991 446.360557,313.150253 C501.323666,324.583457 537.393205,335.445001 554.569177,345.734885 C567.451155,353.738128 576.89794,358.31141 582.90953,359.45473 C588.062321,361.169711 589.994618,368.887124 588.70642,382.606969 C587.418222,396.326814 583.338929,405.759208 576.46854,410.90415 C571.315749,417.192412 560.151368,423.051929 542.975396,428.482701 C525.799425,433.913473 507.979354,444.632102 489.515185,460.638588 C471.051016,476.645074 459.242536,484.648317 454.089744,484.648317 C448.936953,484.648317 445.931158,486.792043 445.072359,491.079495 C444.213561,495.366946 444.85766,499.940228 447.004656,504.79934 C449.151652,509.658452 452.801546,512.945498 457.954338,514.660479 C463.965928,518.09044 464.610027,528.237409 459.886634,545.101385 C455.163242,561.965361 448.507553,572.11233 439.919568,575.542291 C433.907978,577.828932 430.902183,580.973063 430.902183,584.974685 C430.902183,590.119627 423.172996,594.121248 407.714621,596.979549 C392.256247,599.83785 361.768898,602.696151 316.252574,605.554452 C264.724659,608.984414 228.869819,612.27146 208.688053,615.415591 C188.506286,618.559722 176.697806,622.847174 173.262612,628.277946 C169.827417,633.708718 162.09823,636.281189 150.07505,635.995359 C138.05187,635.709529 125.169892,632.422483 111.429115,626.13422 C97.6883374,620.417618 88.885652,618.845552 85.0210585,621.418023 C81.1564649,623.990494 79.2241681,631.279162 79.2241681,643.284027 C78.3653696,654.145571 75.7889738,675.582829 71.494981,707.595801 C67.2009881,739.608773 68.0597867,766.762633 74.0713767,789.057381 C78.3653696,806.778848 84.1622599,820.355778 91.4620478,829.788171 C98.7618356,839.220565 110.140917,849.081704 125.599291,859.371587 C140.198867,869.089811 159.521834,875.663904 183.568194,879.093865 C223.931727,884.810467 304.873493,889.097919 426.39349,891.95622 C547.913488,894.814521 624.131861,893.6712 655.04861,888.526258 C690.259351,883.952977 725.684792,873.806008 761.324933,858.085352 C796.965073,842.364696 814.785144,829.359426 814.785144,819.069542 C814.785144,814.496261 818.864437,805.921357 827.023023,793.344833 C835.18161,780.768308 841.622599,765.762227 846.345991,748.326591 C851.069383,730.890954 855.148677,722.173136 858.583871,722.173136 C860.301468,722.173136 861.589666,723.888117 862.448464,727.318078 C863.307263,730.748039 864.595461,740.466263 866.313058,756.472749 C867.171857,770.764254 869.748252,785.770335 874.042245,801.490991 C878.336238,817.211647 881.127333,833.932708 882.415531,851.654175 C883.703729,869.375641 884.777227,879.951355 885.636026,883.381316 C888.212422,885.667957 887.138923,893.38537 882.415531,906.533555 C877.692139,919.68174 872.109948,930.543284 865.668959,939.118187 C859.22797,947.69309 847.419489,957.697144 830.243518,969.130348 C813.067547,980.563553 796.750374,988.852626 781.291999,993.997568 C770.986417,997.427529 758.319138,999.285425 743.290163,999.571255 C728.261188,999.857085 692.406347,1000 635.725642,1000 C561.868965,1000 480.927199,998.85668 392.900346,996.570039 C304.873493,994.283398 253.560278,991.710927 238.960702,988.852626 C224.361127,986.565985 206.326357,983.993514 184.856392,981.135213 C155.657241,977.133591 133.328478,971.274074 117.870104,963.556661 C102.41173,955.839248 85.6651574,942.548149 67.6303874,923.683361 C56.466006,909.963516 45.7310239,899.101972 35.425441,891.098729 C15.6730739,873.377263 4.07929321,840.5068 0.644098928,792.487342 C-1.07349821,758.75939 0.644098928,726.317673 5.79689035,695.162191 C10.9496818,664.006709 14.3848761,637.853255 16.1024732,616.701827 C18.6788689,597.83704 21.8993635,584.83177 25.7639571,577.686017 C29.6285507,570.540264 35.425441,567.539048 43.1546282,568.682369 C50.0250167,569.825689 63.7657939,567.967793 84.3769595,563.108682 C104.988125,558.24957 127.531588,553.676288 152.007347,549.388836 C176.483106,545.101385 191.512081,541.242678 197.094272,537.812717 C202.676463,534.382756 210.620349,531.524455 220.925932,529.237814 C229.513918,528.094494 240.678299,523.664127 254.419077,515.946714 C268.159854,508.229301 278.894836,500.654803 286.624023,493.22322 C296.070807,483.504997 306.805789,466.926851 318.828969,443.488782 C330.852149,420.050713 338.581336,401.471756 342.016531,387.751911 L344.592926,376.604537 L308.523386,378.319518 C284.477026,379.462838 254.633776,382.464054 218.993635,387.323166 C183.353495,392.182278 162.09823,395.755154 155.227842,398.041795 C139.769467,404.330057 119.587701,400.614266 94.6825424,386.894421 C86.9533553,383.464459 82.6593624,380.606158 81.8005638,378.319518 C80.9417653,376.032877 81.5858642,373.031661 83.7328606,369.315869 C85.879857,365.600078 89.9591503,362.598862 95.9707403,360.312221 C101.98233,358.02558 115.723107,355.453109 137.193072,352.594808 C168.10982,346.306546 186.788689,342.304924 193.229678,340.589943 C199.670668,338.874963 217.920137,336.016662 247.978087,332.01504 C278.036037,328.013419 305.517591,325.440948 330.42275,324.297627 C355.327909,323.725967 372.074481,320.867666 380.662466,315.722724 Z" id="己"></path>
        </g>
    </g>
</svg>