<svg width="350" height="350" viewBox="0 0 350 350" fill="none" xmlns="http://www.w3.org/2000/svg">
<path fill-rule="evenodd" clip-rule="evenodd" d="M262.491 75.5889C258.058 76.9889 254.208 78.6222 250.941 80.4889C247.908 82.1222 243.941 84.3389 239.041 87.1389C235.075 89.4722 230.175 91.9222 224.341 94.4889C218.741 97.0555 211.041 100.089 201.241 103.589C192.841 106.856 187.941 107.789 186.541 106.389C185.375 104.756 188.875 100.206 197.041 92.7389C206.841 83.6389 213.725 75.9389 217.691 69.6389C221.658 63.3389 223.175 57.2722 222.241 51.4389C221.775 48.1722 221.891 45.4889 222.591 43.3889C223.291 41.2889 224.808 40.0056 227.141 39.5389C229.708 39.0722 233.091 39.6556 237.291 41.2889C241.725 42.6889 247.441 45.2555 254.441 48.9889C267.275 56.2222 273.808 61.8222 274.041 65.7889C274.508 69.7556 270.658 73.0222 262.491 75.5889ZM306.941 183.039C312.074 187.939 315.575 192.139 317.441 195.639C319.541 199.139 319.775 201.939 318.141 204.039C316.508 205.906 313.125 207.072 307.991 207.539C302.858 207.772 295.625 207.189 286.291 205.789C260.514 201.945 225.863 202.155 182.338 206.418C196.037 222.134 208.111 235.107 218.561 245.339C229.761 256.072 240.611 265.172 251.111 272.639C261.844 280.106 272.927 286.522 284.361 291.889C296.027 297.022 309.677 302.622 325.311 308.689C336.744 313.122 342.461 316.272 342.461 318.139C342.694 320.239 336.861 322.339 324.961 324.439C307.461 327.706 293.461 329.922 282.961 331.089C272.694 332.489 264.294 332.606 257.761 331.439C251.461 330.506 246.094 328.172 241.661 324.439C237.461 320.706 232.561 315.339 226.961 308.339C220.194 299.706 214.244 292.122 209.111 285.589C204.211 278.822 199.544 272.289 195.111 265.989C190.911 259.689 186.594 253.272 182.161 246.739C177.961 239.972 173.294 232.156 168.161 223.289C163.494 237.522 158.011 250.239 151.711 261.439C145.644 272.406 138.294 282.089 129.661 290.489C121.261 298.889 111.227 306.239 99.5605 312.539C88.1272 318.839 74.7105 324.322 59.3105 328.989C41.1105 334.589 31.4272 336.456 30.2605 334.589C29.3272 332.722 37.8439 326.422 55.8105 315.689C77.7439 302.389 95.3605 286.522 108.661 268.089C121.175 250.745 130.797 231.747 137.527 211.098C121.478 212.971 107.6 214.935 95.8912 216.989C82.8245 219.089 71.1578 221.422 60.8912 223.989C55.2912 225.389 50.6245 226.439 46.8912 227.139C43.3912 227.839 40.1245 228.072 37.0912 227.839C34.2912 227.372 31.4912 226.439 28.6912 225.039C25.8912 223.406 22.5078 221.189 18.5412 218.389C11.0745 213.022 7.57451 209.522 8.04118 207.889C8.74118 206.256 13.9912 205.206 23.7912 204.739C25.4245 204.739 27.0578 204.622 28.6912 204.389C30.5578 204.156 32.6578 203.922 34.9912 203.689C37.3245 203.456 40.1245 203.106 43.3912 202.639C46.6578 202.172 50.8578 201.589 55.9912 200.889C60.8912 200.189 66.9578 199.372 74.1912 198.439C81.6578 197.506 89.4745 196.572 97.6412 195.639C105.808 194.472 113.975 193.422 122.141 192.489C130.192 191.569 137.45 190.762 143.914 190.069C143.977 189.283 144.011 188.46 144.011 187.589L144.191 187.515V158.539C133.225 159.939 124.358 160.989 117.591 161.689C111.058 162.156 105.691 162.389 101.491 162.389C97.2912 162.156 93.7912 161.689 90.9912 160.989C88.4245 160.289 85.6245 159.239 82.5912 157.839C73.7245 153.406 69.7578 150.489 70.6912 149.089C71.6245 147.689 77.3412 146.406 87.8412 145.239C94.8412 144.306 103.358 143.139 113.391 141.739C123.658 140.106 133.925 138.356 144.191 136.489V108.139C144.191 98.3389 144.075 88.1889 143.841 77.6889C143.841 67.8889 143.025 59.8389 141.391 53.5389C139.991 47.0056 137.308 41.4056 133.341 36.7389C129.375 32.3056 126.691 28.4555 125.291 25.1889C124.125 21.6889 124.358 19.1222 125.991 17.4889C127.625 15.6222 130.891 14.8056 135.791 15.0389C140.691 15.0389 147.458 16.2056 156.091 18.5389C164.025 20.6389 170.208 22.8556 174.641 25.1889C179.308 27.5222 182.575 29.9722 184.441 32.5389C186.308 34.8722 187.125 37.4389 186.891 40.2389C186.658 42.8056 185.725 45.7222 184.091 48.9889C182.691 51.7889 181.525 54.9389 180.591 58.4389C179.891 61.9389 179.308 66.6056 178.841 72.4389C178.375 78.0389 178.141 85.2722 178.141 94.1389V127.739C185.841 125.872 192.258 124.472 197.391 123.539C202.525 122.372 207.075 121.789 211.041 121.789C215.008 121.556 218.625 121.789 221.891 122.489C225.158 122.956 228.658 123.889 232.391 125.289C239.158 127.856 242.308 130.889 241.841 134.389C241.375 137.656 238.225 140.222 232.391 142.089C225.858 144.189 218.275 146.289 209.641 148.389C201.241 150.256 190.741 152.122 178.141 153.989V181.989L179.011 181.989C179.011 183.067 179.024 184.335 179.044 185.712C191.97 183.893 203.336 182.185 213.141 180.589C223.175 178.956 232.625 177.206 241.491 175.339C251.525 173.239 259.924 171.839 266.691 171.139C273.691 170.206 279.525 170.089 284.191 170.789C288.858 171.489 292.941 172.889 296.441 174.989C299.941 177.089 303.441 179.772 306.941 183.039ZM116.856 100.989C117.323 109.622 115.106 115.339 110.206 118.139C105.539 120.939 99.4727 120.006 92.006 115.339C89.206 113.472 85.2393 109.622 80.106 103.789C75.206 97.9557 70.656 92.1223 66.456 86.289C62.0227 80.2223 60.3893 76.489 61.556 75.089C62.7227 73.689 67.856 72.989 76.956 72.989C89.7893 72.989 99.4727 74.9724 106.006 78.939C112.773 82.6724 116.389 90.0224 116.856 100.989Z" fill="black"/>
</svg>
