<svg width="350" height="350" viewBox="0 0 350 350" fill="none" xmlns="http://www.w3.org/2000/svg">
<path d="M121.167 85.5613C117.167 86.0946 113.034 86.7613 108.767 87.5613C104.501 88.3613 99.5674 89.2946 93.9674 90.3613C87.3007 91.6946 81.8341 92.628 77.5674 93.1613C73.3007 93.6946 69.5674 93.9613 66.3674 93.9613C63.4341 93.9613 60.9007 93.6946 58.7674 93.1613C56.6341 92.628 54.5007 91.828 52.3674 90.7613C43.5674 86.7613 39.3007 83.6946 39.5674 81.5613C39.8341 79.1613 44.5007 77.428 53.5674 76.3613C61.0341 75.5613 67.1674 74.628 71.9674 73.5613C77.0341 72.4946 82.2341 70.8946 87.5674 68.7613C91.5674 67.1613 95.7007 66.3613 99.9674 66.3613C104.234 66.0946 110.901 67.0279 119.967 69.1613C119.167 60.8946 118.101 53.828 116.767 47.9613C115.434 42.0946 113.967 38.3613 112.367 36.7613C105.967 29.5613 104.234 24.628 107.167 21.9613C110.101 19.028 117.967 19.6946 130.767 23.9613C140.901 27.428 146.901 31.028 148.767 34.7613C150.634 38.4946 149.967 43.6946 146.767 50.3613C145.701 52.4946 145.034 56.7613 144.767 63.1613C144.767 69.5613 145.034 77.6946 145.567 87.5613C146.367 100.895 146.501 112.228 145.967 121.561C145.434 130.628 144.634 136.495 143.567 139.161C141.701 144.228 139.434 147.961 136.767 150.361C134.367 152.761 131.967 153.428 129.567 152.361C127.167 151.295 125.034 148.361 123.167 143.561C121.301 138.761 120.367 131.828 120.367 122.761C103.567 131.828 89.4341 139.828 77.9674 146.761C66.5007 153.695 59.8341 158.361 57.9674 160.761C53.9674 165.828 49.5674 168.228 44.7674 167.961C39.9674 167.428 33.0341 163.161 23.9674 155.161C8.50074 141.295 11.0341 134.761 31.5674 135.561C38.5007 135.828 49.5674 133.828 64.7674 129.561C80.2341 125.295 99.0341 118.361 121.167 108.761C121.434 100.761 121.434 93.028 121.167 85.5613ZM208.367 74.3613C219.567 68.7613 228.501 63.2946 235.167 57.9613C241.834 52.3613 245.301 47.2946 245.567 42.7613C245.567 39.828 246.101 37.5613 247.167 35.9613C248.234 34.0946 249.834 33.028 251.967 32.7613C254.101 32.4946 257.034 33.1613 260.767 34.7613C264.767 36.0946 269.567 38.628 275.167 42.3613C286.367 49.828 291.834 55.5613 291.567 59.5613C291.301 63.5613 286.501 66.4946 277.167 68.3613C272.901 69.1613 268.767 70.0946 264.767 71.1613C260.767 71.9613 256.234 73.1613 251.167 74.7613C246.101 76.3613 240.101 78.3613 233.167 80.7613C226.501 82.8946 218.101 85.6946 207.967 89.1613C207.967 92.8946 207.967 96.0946 207.967 98.7613C208.234 101.428 208.501 103.828 208.767 105.961C209.301 109.961 210.634 113.295 212.767 115.961C215.167 118.628 219.034 120.628 224.367 121.961C229.701 123.295 236.634 123.961 245.167 123.961C253.967 123.695 265.034 122.761 278.367 121.161C282.367 120.628 285.567 119.828 287.967 118.761C290.634 117.695 292.767 115.961 294.367 113.561C296.234 111.161 297.834 107.961 299.167 103.961C300.501 99.9613 301.834 94.628 303.167 87.9613C305.301 77.0279 307.567 71.6946 309.967 71.9613C312.634 72.228 315.034 77.2946 317.167 87.1613C318.501 93.5613 320.101 99.2946 321.967 104.361C324.101 109.428 325.834 112.628 327.167 113.961C329.834 116.361 331.567 118.895 332.367 121.561C333.434 124.228 333.434 126.895 332.367 129.561C331.301 132.228 328.901 134.761 325.167 137.161C321.701 139.561 316.634 141.961 309.967 144.361C301.701 147.295 290.901 149.295 277.567 150.361C264.234 151.161 250.634 151.028 236.767 149.961C226.367 149.161 217.701 147.561 210.767 145.161C203.834 142.761 198.234 139.695 193.967 135.961C189.967 132.228 187.167 127.828 185.567 122.761C183.967 117.695 183.167 112.095 183.167 105.961C183.167 89.9613 183.034 76.7613 182.767 66.3613C182.767 55.9613 182.501 47.6946 181.967 41.5613C181.701 35.428 181.167 30.8946 180.367 27.9613C179.834 24.7613 179.034 22.3613 177.967 20.7613C171.034 10.628 169.301 4.22796 172.767 1.5613C176.234 -1.37204 184.501 -0.172051 197.567 5.16128C203.434 7.56128 207.967 9.69462 211.167 11.5613C214.367 13.4279 216.501 15.6946 217.567 18.3613C218.634 20.7613 218.634 23.6946 217.567 27.1613C216.501 30.6279 214.634 34.8946 211.967 39.9613C211.434 41.0279 210.901 42.3613 210.367 43.9613C210.101 45.2946 209.834 47.2946 209.567 49.9613C209.301 52.3613 209.034 55.5613 208.767 59.5613C208.767 63.5613 208.634 68.4946 208.367 74.3613Z" fill="black"/>
<path d="M299.255 158.733C304.549 159.383 313.061 164.459 324.79 173.959C336.585 182.93 342.157 190.062 341.507 195.356C340.922 200.12 337.259 203.7 330.516 206.096C323.774 208.492 310.824 215.5 291.665 227.118C272.571 238.207 260.679 245.344 255.989 248.53C251.365 251.186 248.857 254.102 248.467 257.278C248.142 259.925 251.29 262.73 257.912 265.692C279.17 276.362 294.276 286.815 303.229 297.049C312.181 307.283 315.813 319.281 314.123 333.045C312.433 346.808 307.883 353.235 300.472 352.325C295.178 351.675 289.843 346.99 284.465 338.269C266.94 310.325 249.893 289.425 233.325 275.569C225.57 268.707 221.921 263.422 222.376 259.717C222.831 256.011 227.91 249.65 237.615 240.632C247.849 231.679 258.143 220.047 268.498 205.735C279.382 191.489 285.641 179.899 287.275 170.965C289.439 162.096 293.432 158.018 299.255 158.733ZM144.588 263.062C144.393 264.65 145.586 265.871 148.168 266.726C168.888 273.031 183.858 282.392 193.081 294.808C202.303 307.225 206.199 319.256 204.769 330.902C203.339 342.548 198.654 347.883 190.714 346.908C185.949 346.323 181.31 342.53 176.797 335.527C158.742 307.518 144.282 289.623 133.416 281.84C123.145 273.594 118.204 267.882 118.594 264.706C119.049 261.001 121.816 255.967 126.896 249.605C151.571 219.32 164.721 197.561 166.346 184.327C166.736 181.15 166.564 178.174 165.83 175.397C165.096 172.62 164.827 170.438 165.022 168.85C165.802 162.498 169.633 159.744 176.514 160.589C180.749 161.109 188.072 167.113 198.483 178.6C209.488 189.624 214.666 197.782 214.016 203.076C213.431 207.84 209.238 211.355 201.437 213.622C195.289 215.553 184.326 223.879 168.548 238.6C152.77 253.32 144.783 261.474 144.588 263.062ZM92.5455 332.437C90.9206 345.671 86.4026 351.833 78.9916 350.923C73.698 350.273 68.3625 345.587 62.9852 336.867C58.2022 327.682 50.8699 317.379 40.9884 305.956C31.7011 294.069 23.677 285.024 16.9159 278.82C10.2199 272.087 7.09936 266.868 7.55434 263.162C8.00932 259.457 11.9004 254.024 19.2277 246.864C27.0843 239.768 34.899 228.638 42.6719 213.472C51.0391 197.842 55.6127 186.85 56.3926 180.498C57.1726 174.146 57.1632 169.846 56.3645 167.599C56.0951 165.416 56.1879 162.472 56.6429 158.767C57.0979 155.061 60.2368 153.566 66.0598 154.281C71.8827 154.996 79.5678 160.238 89.115 170.008C99.2565 179.313 103.937 187.142 103.157 193.494C102.907 199.912 100.469 204.448 95.8442 207.104C91.2844 209.231 85.3733 213.61 78.111 220.241L52.8557 242.127C42.6866 250.55 36.9427 255.755 35.624 257.743C34.3703 259.201 33.581 261.253 33.256 263.9C32.996 266.018 35.6475 268.493 41.2104 271.325C60.0167 280.082 73.6641 289.281 82.1526 298.92C90.7061 308.031 94.1704 319.203 92.5455 332.437Z" fill="black"/>
</svg>
