<svg width="350" height="350" viewBox="0 0 350 350" fill="none" xmlns="http://www.w3.org/2000/svg">
<path fill-rule="evenodd" clip-rule="evenodd" d="M111.285 212.79C106.067 216.372 100.963 219.725 95.9732 222.849C85.4806 229.288 75.085 234.917 64.7864 239.736C61.3674 241.336 58.4705 242.681 55.9885 243.815C59.434 244.769 63.1555 245.896 67.1529 247.195C120.725 241.982 162.28 236.915 191.817 231.992C201.98 230.298 213.308 228.69 224.033 227.168L224.033 227.168C244.478 224.265 262.729 221.675 266.528 219.395C267.085 219.061 267.629 218.739 268.162 218.429C267.942 218.196 267.732 217.966 267.533 217.74C257.044 205.962 240.621 195.658 224.494 185.538L224.494 185.538C208.83 175.71 193.445 166.056 184.045 155.397C172.855 165.362 160.518 175.108 152.013 181.827L152.013 181.827C150.547 182.986 149.194 184.054 147.981 185.018C145.137 187.278 142.643 189.294 140.358 191.14C136.32 194.404 132.935 197.139 129.429 199.762C125.94 202.373 122.497 204.891 119.101 207.316C121.552 206.539 124.572 205.86 128.161 205.278C138.006 203.83 147.418 201.948 156.394 199.631C165.371 197.315 173.335 194.853 180.285 192.247C186.366 189.93 191.289 188.193 195.053 187.035C199.107 185.876 202.582 185.152 205.478 184.863C208.664 184.573 211.415 184.718 213.731 185.297C216.337 185.876 219.233 186.745 222.419 187.903C234.002 192.247 238.925 197.17 237.187 202.672C235.739 208.174 227.197 212.373 211.559 215.269C195.343 218.454 182.312 220.915 172.466 222.653C162.621 224.101 154.657 225.114 148.576 225.693C142.495 225.983 137.717 225.838 134.242 225.259C130.767 224.68 127.437 223.811 124.251 222.653C114.985 219.468 110.641 216.282 111.22 213.097C111.237 212.994 111.259 212.891 111.285 212.79ZM332.45 239.416C332.893 239.372 333.334 239.325 333.774 239.275C341.686 238.399 363.104 234.782 363.104 224.643C363.104 220.278 348.236 216.731 335.071 213.59C327.719 211.835 320.898 210.208 317.495 208.636C314.263 207.143 310.583 205.551 306.692 203.868L306.691 203.868C295.59 199.067 282.774 193.525 273.769 187.414C253.098 172.96 224.272 151.559 205.118 133.878C207.558 130.7 209.353 127.771 210.262 125.226C204.148 117.764 178.358 120.413 163.486 128.275C145.387 137.844 140.962 143.646 135.032 151.422C131.192 156.457 126.721 162.32 117.496 170.57C98.8936 187.145 80.4059 201.349 62.0326 213.182C44.0126 224.898 24.0621 235.271 2.18134 244.301C-2.33611 246.154 -6.10981 247.931 -9.13969 249.634C-11.8163 251.218 -13.2193 252.55 -13.3486 253.63C-13.264 254.811 -11.6596 255.572 -8.53515 255.911C-5.27144 256.032 0.186289 255.765 7.8381 255.113C13.0024 254.692 18.1143 254.046 23.1738 253.175C23.2077 253.352 23.2436 253.53 23.2815 253.71C32.678 295.994 31.8965 300.716 16.3316 323.303C16.3316 330.253 18.9378 337.782 24.1502 345.89C26.6321 349.893 28.4832 353.299 30.0094 356.106L30.0095 356.107C34.0034 363.454 35.7727 366.709 40.8011 365.871C48.0405 365.002 53.253 355.881 56.4384 338.506C57.0176 335.031 57.7415 330.253 58.6103 324.172C58.1653 314.579 57.5866 306.619 57.1058 300.006L57.1058 300.005C55.2399 274.34 54.8487 268.959 69.4695 267.176C75.6433 266.423 83.853 265.67 92.0627 264.917C99.6409 264.222 107.219 263.527 113.196 262.832C125.937 261.384 138.389 260.081 150.552 258.923C163.004 257.475 175.021 256.317 186.604 255.448C193.087 254.815 212.304 254.226 230.113 253.68H230.114C244.921 253.226 258.755 252.802 263.488 252.407C271.596 251.828 277.967 251.683 282.6 251.973C287.523 251.973 291.142 253.276 293.459 255.882C296.065 258.199 297.803 261.964 298.672 267.176C302.146 285.513 302.626 289.66 299.975 301.15C299.106 304.915 297.513 307.666 295.197 309.403C293.17 310.851 290.129 311.575 286.075 311.575C282.052 311.288 276.139 308.776 270.599 306.422C263.614 303.455 257.221 300.739 255.959 303.053C253.679 307.233 256.125 319.882 260.447 325.475C265.37 332.135 269.424 340.244 272.609 349.8C275.795 359.066 280.573 363.265 286.943 362.396C293.604 361.528 302.436 354.288 313.44 340.678C317.494 335.755 320.679 331.122 322.996 326.778C325.602 322.434 327.485 317.511 328.643 312.009C329.801 306.507 330.38 300.281 330.38 293.331C330.894 285.816 331.23 283.946 331.793 280.819C332.182 278.653 332.68 275.883 333.421 270.217C336.317 266.162 338.489 262.687 339.937 259.792C341.385 256.606 341.674 253.566 340.805 250.67C339.937 247.485 337.909 244.444 334.724 241.548C334.034 240.858 333.276 240.147 332.45 239.416Z" fill="black"/>
<path d="M253.705 33.0046C230.981 40.1784 246.214 37.1586 223.502 45.2675C214.487 48.7722 209.228 49.7735 207.726 48.2715C206.474 46.5191 210.23 41.6376 218.994 33.6267C224.862 25.7778 228.274 17.9898 228.274 7.09454C227.773 3.5898 227.898 0.71088 228.649 -1.54217C229.4 -3.79522 231.028 -5.17207 233.532 -5.67274C236.287 -6.17341 239.918 -5.54756 244.426 -3.7952C264.022 2.39122 267.075 5.59813 266.1 22.4903C263.947 27.1111 262.469 30.2509 253.705 33.0046ZM146.635 35.3518C147.136 44.6143 144.757 50.7476 139.499 53.7517C134.49 56.7557 127.979 55.7544 119.966 50.7476C116.961 48.7449 112.704 44.6143 107.195 38.3559C101.936 32.0974 97.0527 25.8389 92.5452 19.5805C87.7872 13.0717 86.0343 9.0662 87.2864 7.56418C88.5385 6.06215 94.0477 5.31114 103.814 5.31114C117.587 5.31114 127.979 7.43906 134.991 11.6948C142.253 15.7002 146.135 23.5859 146.635 35.3518ZM337.83 111.841C343.339 117.098 347.095 121.604 349.098 125.359C351.352 129.115 351.603 132.119 349.85 134.372C348.097 136.374 344.466 137.626 338.956 138.127C333.447 138.377 325.684 137.751 315.668 136.249C287.12 131.993 248.43 132.369 199.599 137.376C182.276 138.127 176.641 139.634 163.163 141.131C142.879 143.384 125.6 145.762 111.327 148.265C97.3031 150.518 84.7822 153.022 73.7638 155.776C67.7538 157.278 62.7454 158.404 58.7388 159.155C54.9825 159.906 51.4766 160.156 48.2212 159.906C45.2162 159.405 42.2112 158.404 39.2062 156.902C36.2011 155.15 32.5701 152.772 28.313 149.767C20.2996 144.01 16.5434 140.255 17.0442 138.502C17.7954 136.75 23.4298 135.623 33.9474 135.123C35.7003 135.123 37.4532 134.997 39.2062 134.747C41.2095 134.497 43.4633 134.246 45.9675 133.996C48.4716 133.746 51.4766 133.37 54.9825 132.87C58.4883 132.369 62.9959 131.743 68.5051 130.992C73.7639 130.241 80.2747 129.365 88.0376 128.363C96.051 127.362 104.44 126.361 113.205 125.359C121.969 124.108 130.734 122.981 139.499 121.98C148.263 120.978 156.151 120.102 163.163 119.351V93.5555C151.393 95.0575 141.878 96.1841 134.615 96.9351C127.604 97.4358 121.844 97.6861 117.337 97.6861C112.829 97.4358 109.073 96.9351 106.068 96.1841C103.313 95.4331 100.308 94.3066 97.0527 92.8045C87.5368 88.0481 83.2797 84.9188 84.2814 83.4168C85.283 81.9148 91.4183 80.5379 102.687 79.2863C110.2 78.2849 119.34 77.0332 130.108 75.5312C141.126 73.7788 152.145 71.9013 163.163 69.8985C163.163 41.4042 167.361 53.1228 160.158 25.3476C158.656 18.3381 155.776 12.3299 151.519 7.32317C147.261 2.56674 144.382 -1.5638 142.879 -5.06854C141.627 -8.82361 141.878 -11.5774 143.63 -13.3298C145.383 -15.3325 148.889 -16.2086 154.148 -15.9583C159.407 -15.9583 166.669 -14.7066 175.934 -12.2032C184.449 -9.95015 191.085 -7.57192 195.843 -5.06854C200.851 -2.56515 204.357 0.0633762 206.36 2.81711C208.363 5.32049 209.24 8.07419 208.99 11.0782C208.739 13.832 207.737 16.9613 205.985 20.466C204.482 23.4701 203.23 26.8496 202.228 30.6047C197.374 54.868 199.599 35.9639 199.599 60.5109C207.863 58.5081 214.749 57.0061 220.258 56.0047C225.768 54.753 230.651 54.1272 234.908 54.1272C239.165 53.8768 243.046 54.1272 246.552 54.8782C250.058 55.3789 253.814 56.3802 257.821 57.8822C265.083 60.636 268.464 63.8904 267.963 67.6454C267.462 71.1502 264.081 73.904 257.821 75.9067C250.809 78.1597 242.671 80.4127 233.405 82.6657C224.39 84.6685 213.121 95.5601 199.599 97.5629V114.845C213.873 112.842 226.394 110.965 237.162 109.213C247.929 107.46 258.071 105.583 267.587 103.58C278.355 101.327 287.37 99.8248 294.632 99.0738C302.145 98.0724 308.405 97.9473 313.414 98.6983C318.422 99.4493 322.804 100.951 326.561 103.204C330.317 105.457 334.073 108.336 337.83 111.841Z" fill="black"/>
</svg>
