<svg width="500" height="500" viewBox="0 0 500 500" fill="none" xmlns="http://www.w3.org/2000/svg">
<path d="M449.333 390.333C426.333 390.333 408.167 390.167 394.833 389.833C381.833 389.167 371.333 387.167 363.333 383.833C355.667 380.5 349.5 375.5 344.833 368.833C340.167 361.833 334.833 352.333 328.833 340.333C323.5 329.667 317 317.167 309.333 302.833C302 288.5 294.167 273.833 285.833 258.833C277.5 243.5 269 228.5 260.333 213.833C252 198.833 244.333 185.333 237.333 173.333C228 157.667 219.333 146 211.333 138.333C203.333 130.667 194.167 124.5 183.833 119.833C179.833 118.167 177 116.167 175.333 113.833C173.667 111.167 173.667 108.667 175.333 106.333C177 104 180.5 102.333 185.833 101.333C191.167 100 198.833 99.6667 208.833 100.333C215.5 101 221 101.833 225.333 102.833C230 103.833 234 105.667 237.333 108.333C240.667 110.667 243.667 114.167 246.333 118.833C249.333 123.167 252.667 129.167 256.333 136.833C262.333 149.833 269.333 163.167 277.333 176.833C285.333 190.5 293.667 204 302.333 217.333C311 230.667 320 243.5 329.333 255.833C338.667 267.833 347.833 278.667 356.833 288.333C366.167 298.667 374.333 307.333 381.333 314.333C388.667 321 396 327 403.333 332.333C410.667 337.667 418.5 342.667 426.833 347.333C435.5 352 445.833 357 457.833 362.333C478.833 372 488.667 379.167 487.333 383.833C486 388.167 473.333 390.333 449.333 390.333ZM193.333 249.833C189.667 252.5 185.667 256.833 181.333 262.833C177.333 268.5 172 276.333 165.333 286.333C156 300.667 146.667 313.333 137.333 324.333C128.333 335 118.833 344.5 108.833 352.833C98.8333 360.833 88.3333 368 77.3333 374.333C66.3333 380.667 54.6667 386.667 42.3333 392.333C25 400 15.3333 402.333 13.3333 399.333C11.3333 396.667 18.3333 389.333 34.3333 377.333C52.6667 363.333 69 348.167 83.3333 331.833C97.6667 315.167 109.5 299.167 118.833 283.833C128.5 268.167 135.5 254.167 139.833 241.833C144.167 229.167 145.5 220 143.833 214.333C140.167 201.667 141.167 194.167 146.833 191.833C152.5 189.167 163.667 193.833 180.333 205.833C194.333 216.167 201.833 224.5 202.833 230.833C204.167 237.167 201 243.5 193.333 249.833Z" fill="black"/>
</svg>
