<svg width="350" height="350" viewBox="0 0 350 350" fill="none" xmlns="http://www.w3.org/2000/svg">
<path d="M317.941 181.039C323.075 185.939 326.575 190.139 328.441 193.639C330.541 197.139 330.775 199.939 329.141 202.039C327.508 203.906 324.125 205.072 318.991 205.539C313.858 205.772 306.625 205.189 297.291 203.789C270.691 199.822 234.641 200.172 189.141 204.839C189.141 211.139 189.141 217.322 189.141 223.389C189.375 229.222 189.491 234.822 189.491 240.189C189.725 259.556 188.908 275.539 187.041 288.139C185.175 300.972 182.375 312.172 178.641 321.739C174.675 331.539 171.291 336.322 168.491 336.089C165.691 336.089 163.008 331.539 160.441 322.439C159.508 318.706 158.691 315.089 157.991 311.589C157.291 308.322 156.708 304.822 156.241 301.089C156.008 297.589 155.775 293.856 155.541 289.889C155.308 285.922 155.191 281.372 155.191 276.239V208.339C136.291 210.439 120.191 212.656 106.891 214.989C93.8245 217.089 82.1578 219.422 71.8912 221.989C66.2912 223.389 61.6245 224.439 57.8912 225.139C54.3912 225.839 51.1245 226.072 48.0912 225.839C45.2912 225.372 42.4912 224.439 39.6912 223.039C36.8912 221.406 33.5078 219.189 29.5412 216.389C22.0745 211.022 18.5745 207.522 19.0412 205.889C19.7412 204.256 24.9912 203.206 34.7912 202.739C36.4245 202.739 38.0578 202.622 39.6912 202.389C41.5578 202.156 43.6578 201.922 45.9912 201.689C48.3245 201.456 51.1245 201.106 54.3912 200.639C57.6578 200.172 61.8578 199.589 66.9912 198.889C71.8912 198.189 77.9578 197.372 85.1912 196.439C92.6578 195.506 100.475 194.572 108.641 193.639C116.808 192.472 124.975 191.422 133.141 190.489C141.308 189.556 148.658 188.739 155.191 188.039V126.539C144.225 127.939 135.358 128.989 128.591 129.689C122.058 130.156 116.691 130.389 112.491 130.389C108.291 130.156 104.791 129.689 101.991 128.989C99.4245 128.289 96.6245 127.239 93.5912 125.839C84.7245 121.406 80.7578 118.489 81.6912 117.089C82.6245 115.689 88.3412 114.406 98.8412 113.239C105.841 112.306 114.358 111.139 124.391 109.739C134.658 108.106 144.925 106.356 155.191 104.489C155.191 77.9284 159.104 77.4303 152.391 51.5389C150.991 45.0056 148.308 39.4056 144.341 34.7389C140.375 30.3055 137.691 26.4555 136.291 23.1889C135.125 19.6889 135.358 17.1222 136.991 15.4889C138.625 13.6222 141.891 12.8056 146.791 13.0389C151.691 13.0389 158.458 14.2056 167.091 16.5389C175.025 18.6389 181.208 20.8556 185.641 23.1889C190.308 25.5222 193.575 27.9722 195.441 30.5389C197.308 32.8722 198.125 35.4389 197.891 38.2389C197.658 40.8056 196.725 43.7222 195.091 46.9889C193.691 49.7889 192.525 52.9389 191.591 56.4389C187.096 78.9133 189.141 73.0073 189.141 95.7389C196.841 93.8722 203.258 92.4722 208.391 91.5389C213.525 90.3722 218.075 89.7889 222.041 89.7889C226.008 89.5556 229.625 89.7889 232.891 90.4889C236.158 90.9556 239.658 91.8889 243.391 93.2889C250.158 95.8556 253.308 98.8889 252.841 102.389C252.375 105.656 249.225 108.222 243.391 110.089C236.858 112.189 229.275 114.289 220.641 116.389C212.241 118.256 201.741 120.122 189.141 121.989V183.839C202.441 181.972 214.108 180.222 224.141 178.589C234.175 176.956 243.625 175.206 252.491 173.339C262.525 171.239 270.925 169.839 277.691 169.139C284.691 168.206 290.525 168.089 295.191 168.789C299.858 169.489 303.941 170.889 307.441 172.989C310.941 175.089 314.441 177.772 317.941 181.039Z" fill="black"/>
</svg>
