<svg width="500" height="500" viewBox="0 0 500 500" fill="none" xmlns="http://www.w3.org/2000/svg">
<path d="M232.553 194.558C215.219 196.558 201.219 198.058 190.553 199.058C180.219 200.058 171.719 200.558 165.053 200.558C158.386 200.558 152.886 200.224 148.553 199.558C144.219 198.891 139.553 197.891 134.553 196.558C123.886 193.891 118.553 191.058 118.553 188.058C118.886 185.058 125.886 182.724 139.553 181.058C152.553 179.724 167.386 177.724 184.053 175.058C200.719 172.391 216.886 169.558 232.553 166.558C232.553 161.891 232.553 157.391 232.553 153.058C232.553 121.416 233.057 108.835 228.053 77.5577C226.719 69.2244 225.053 62.7243 223.053 58.0577C221.053 53.0577 218.386 48.5577 215.053 44.5577C206.386 33.5577 203.886 26.5577 207.553 23.5577C211.219 20.5577 222.553 21.891 241.553 27.5577C250.886 30.5577 258.386 33.391 264.053 36.0577C269.719 38.7244 273.886 41.391 276.553 44.0577C279.219 46.7244 280.553 49.7244 280.553 53.0577C280.553 56.0577 279.886 59.5577 278.553 63.5577C277.553 66.5577 276.553 69.5577 275.553 72.5577C274.886 75.2244 274.219 78.391 273.553 82.0577C273.219 85.391 272.886 89.391 272.553 94.0577C272.553 122.047 271.053 130.039 271.053 158.058C282.053 154.724 291.386 152.058 299.053 150.058C307.053 148.058 314.053 146.891 320.053 146.558C326.053 145.891 331.386 145.891 336.053 146.558C341.053 146.891 345.886 147.891 350.553 149.558C362.219 153.891 368.053 158.391 368.053 163.058C368.386 167.724 362.886 171.558 351.553 174.558C342.886 176.891 331.386 179.391 317.053 182.058C303.053 184.724 287.719 187.224 271.053 189.558C271.053 199.224 271.219 227.891 271.553 235.558C271.886 243.224 272.053 250.891 272.053 258.558C296.053 255.224 315.219 252.391 329.553 250.058C344.219 247.724 356.386 245.558 366.053 243.558C378.053 241.224 387.886 239.558 395.553 238.558C403.553 237.224 410.553 236.891 416.553 237.558C422.553 237.891 428.219 239.391 433.553 242.058C438.886 244.391 444.886 247.724 451.553 252.058C466.219 261.724 471.886 269.724 468.553 276.058C465.219 282.058 451.886 284.058 428.553 282.058C420.219 281.391 410.219 280.891 398.553 280.558C387.219 279.891 374.719 279.558 361.053 279.558C347.719 279.558 333.386 279.891 318.053 280.558C303.053 280.891 287.719 281.724 272.053 283.058C272.386 301.058 272.386 317.224 272.053 331.558C272.053 345.558 271.719 358.224 271.053 369.558C270.719 379.224 270.386 387.558 270.053 394.558C269.719 401.558 269.053 407.891 268.053 413.558C267.386 419.224 266.553 424.891 265.553 430.558C264.553 436.224 263.219 442.724 261.553 450.058C257.553 468.391 253.219 477.391 248.553 477.058C244.219 476.724 240.719 466.558 238.053 446.558C236.719 436.891 235.553 428.058 234.553 420.058C233.886 412.391 233.386 403.058 233.053 392.058C232.719 381.058 232.553 367.391 232.553 351.058C232.553 334.724 232.553 313.224 232.553 286.558C220.219 287.891 207.886 289.391 195.553 291.058C183.553 292.724 171.886 294.558 160.553 296.558C149.219 298.224 138.553 300.058 128.553 302.058C118.886 304.058 110.386 306.058 103.053 308.058C95.7193 310.058 89.7193 311.558 85.0526 312.558C80.7193 313.558 76.7193 313.891 73.0526 313.558C69.386 313.224 65.7193 312.391 62.0526 311.058C58.386 309.391 53.7193 307.224 48.0526 304.558C36.0526 298.891 30.386 294.224 31.0526 290.558C31.7193 286.891 37.5526 284.891 48.5526 284.558C56.2193 284.224 63.7193 283.891 71.0526 283.558C78.386 282.891 87.386 281.891 98.0526 280.558C122.053 277.558 145.719 274.724 169.053 272.058C192.386 269.391 213.553 266.724 232.553 264.058V194.558Z" fill="black"/>
</svg>
