<svg width="388" height="350" viewBox="0 0 388 350" fill="none" xmlns="http://www.w3.org/2000/svg">
<path d="M368.519 268C381.052 273.6 387.319 278.267 387.319 282C387.319 285.467 380.385 288.133 366.519 290C344.652 292.667 327.185 294.267 314.119 294.8C301.319 295.333 291.052 294.4 283.319 292C275.585 289.333 269.319 284.933 264.519 278.8C259.985 272.667 255.185 264.133 250.119 253.2C246.919 246.267 242.519 237.467 236.919 226.8C231.319 216.133 225.319 204.933 218.919 193.2C212.519 181.2 206.119 169.467 199.719 158C193.319 146.533 187.719 136.533 182.919 128C177.319 118.4 172.519 110.667 168.519 104.8C164.785 98.9333 161.185 94.2667 157.719 90.8C154.519 87.0667 151.185 84.2667 147.719 82.4C144.252 80.5333 140.119 78.6667 135.319 76.8C130.785 75.2 127.452 73.3333 125.319 71.2C123.452 68.8 123.185 66.5333 124.519 64.4C125.852 62.2667 129.052 60.4 134.119 58.8C139.185 57.2 146.785 56.2667 156.919 56C163.052 56 168.252 56.5333 172.519 57.6C176.785 58.6667 180.519 60.4 183.719 62.8C186.919 65.2 189.719 68.4 192.119 72.4C194.519 76.4 196.919 81.2 199.319 86.8C202.519 94.8 206.919 104 212.519 114.4C218.385 124.533 224.919 135.067 232.119 146C239.319 156.933 246.919 167.6 254.919 178C263.185 188.4 271.185 197.733 278.919 206C286.119 213.467 292.519 219.867 298.119 225.2C303.985 230.533 310.119 235.467 316.519 240C322.919 244.533 330.119 248.933 338.119 253.2C346.385 257.467 356.519 262.4 368.519 268ZM148.919 178.4C147.319 179.733 145.719 181.2 144.119 182.8C142.785 184.133 141.185 186 139.319 188.4C137.452 190.533 135.185 193.333 132.519 196.8C130.119 200 127.185 204.133 123.719 209.2C115.185 221.467 107.185 231.867 99.7185 240.4C92.2519 248.933 84.6519 256.267 76.9185 262.4C69.1852 268.533 61.0519 273.733 52.5185 278C44.2519 282.267 35.1852 286 25.3185 289.2C9.58519 294.533 1.18519 296.133 0.118519 294C-0.948148 291.867 5.18518 285.867 18.5185 276C26.2519 270.133 33.8519 263.333 41.3185 255.6C49.0519 247.867 56.1185 239.733 62.5185 231.2C69.1852 222.667 75.0519 214.133 80.1185 205.6C85.4519 196.8 89.8519 188.533 93.3185 180.8C96.7852 173.067 99.0519 166.133 100.119 160C101.452 153.867 101.452 149.067 100.119 145.6C97.7185 139.733 96.5185 134.933 96.5185 131.2C96.7852 127.467 98.3852 125.067 101.319 124C104.252 122.933 108.652 123.467 114.519 125.6C120.385 127.467 127.852 131.333 136.919 137.2C151.585 146.533 159.319 154.267 160.119 160.4C161.185 166.267 157.452 172.267 148.919 178.4Z" fill="black"/>
</svg>
