<svg width="500" height="500" viewBox="0 0 500 500" fill="none" xmlns="http://www.w3.org/2000/svg">
<path d="M344.141 320.5C336.141 325.5 328.807 337.834 322.141 357.5C317.474 370.5 313.474 381.334 310.141 390C306.807 399 303.807 406.5 301.141 412.5C298.474 418.834 295.807 424 293.141 428C290.807 432 288.474 435.5 286.141 438.5C276.141 451.167 268.141 457.667 262.141 458C256.141 458.334 252.141 454.167 250.141 445.5C249.141 439.834 248.474 434.834 248.141 430.5C247.807 426.5 247.974 422.667 248.641 419C249.641 415.667 250.974 412.334 252.641 409C254.641 405.667 257.307 402 260.641 398C267.307 389.667 272.974 379.667 277.641 368C282.641 356 287.474 341.333 292.141 324C294.141 315.333 290.474 312 281.141 314C265.807 317 252.307 320.167 240.641 323.5C229.307 326.5 217.807 330.167 206.141 334.5C200.141 336.5 194.974 338 190.641 339C186.641 340 182.974 340.5 179.641 340.5C176.307 340.167 172.974 339.167 169.641 337.5C166.641 335.834 163.141 333.5 159.141 330.5C149.474 323.5 145.141 318.167 146.141 314.5C147.474 310.834 153.807 309.667 165.141 311C171.141 311.667 179.807 311.333 191.141 310C202.807 308.334 214.807 306.167 227.141 303.5C239.807 300.5 251.807 297.167 263.141 293.5C274.807 289.5 283.807 285.333 290.141 281C293.474 278.667 296.307 277 298.641 276C301.307 275 304.141 274.833 307.141 275.5C310.474 275.833 314.141 277 318.141 279C322.141 281 327.307 284 333.641 288C346.974 296.333 353.807 302.834 354.141 307.5C354.807 311.833 351.474 316.167 344.141 320.5ZM291.141 233.5C293.807 242.833 292.474 249.833 287.141 254.5C281.807 258.833 273.474 258.167 262.141 252.5C255.474 248.833 249.474 245 244.141 241C239.141 236.667 233.307 230.833 226.641 223.5C222.974 219.167 221.974 215.833 223.641 213.5C225.307 211.167 230.474 210 239.141 210C248.141 210 255.641 210.5 261.641 211.5C267.641 212.5 272.641 214 276.641 216C280.641 218 283.641 220.5 285.641 223.5C287.974 226.167 289.807 229.5 291.141 233.5Z" fill="black"/>
<path d="M229.148 40.9667C236.848 40.2667 244.198 39.45 251.198 38.5167C258.432 37.5833 265.082 36.65 271.148 35.7167C277.448 34.55 282.932 33.5 287.598 32.5667C292.265 31.4 295.882 30.35 298.448 29.4167C303.815 27.55 308.248 26.15 311.748 25.2167C315.482 24.05 318.748 23.35 321.548 23.1167C324.348 22.8833 326.915 23 329.248 23.4667C331.582 23.7 334.148 24.2833 336.948 25.2167C345.115 28.0167 348.848 31.4 348.148 35.3667C347.682 39.1 343.365 42.1333 335.198 44.4667C329.365 46.1 322.365 47.7333 314.198 49.3667C306.265 50.7667 297.748 52.1667 288.648 53.5667C279.782 54.7333 270.682 55.6667 261.348 56.3667C252.015 56.8333 243.265 57.0667 235.098 57.0667C235.098 61.0333 235.098 65.35 235.098 70.0167C235.098 74.6833 234.982 79.7 234.748 85.0667C239.648 84.6 244.665 84.0167 249.798 83.3167C254.932 82.3833 259.715 81.45 264.148 80.5167C268.815 79.5833 273.015 78.65 276.748 77.7167C280.482 76.7833 283.282 75.85 285.148 74.9167C292.848 71.4167 299.032 69.6667 303.698 69.6667C308.598 69.4333 313.848 70.25 319.448 72.1167C325.982 74.2167 329.248 76.6667 329.248 79.4667C329.248 82.0333 325.982 84.6 319.448 87.1667C315.248 89.0333 309.765 90.6667 302.998 92.0667C296.465 93.4667 289.348 94.75 281.648 95.9167C273.948 96.85 266.015 97.6667 257.848 98.3667C249.682 98.8333 241.982 99.0667 234.748 99.0667C234.515 102.567 234.398 106.183 234.398 109.917C234.398 113.65 234.282 117.383 234.048 121.117C239.182 120.65 244.432 120.067 249.798 119.367C255.398 118.433 260.648 117.617 265.548 116.917C270.448 115.983 274.765 115.05 278.498 114.117C282.465 113.183 285.498 112.367 287.598 111.667C292.032 110.267 295.648 109.217 298.448 108.517C301.482 107.583 304.048 107.117 306.148 107.117C308.482 106.883 310.698 107 312.798 107.467C314.898 107.933 317.348 108.633 320.148 109.567C327.148 112.133 330.415 115.05 329.948 118.317C329.715 121.583 326.448 124.15 320.148 126.017C314.782 127.883 308.482 129.517 301.248 130.917C294.015 132.317 286.432 133.6 278.498 134.767C270.798 135.7 262.982 136.4 255.048 136.867C247.348 137.333 240.232 137.567 233.698 137.567C233.465 142.467 233.348 147.367 233.348 152.267C233.348 156.933 233.232 161.6 232.998 166.267C243.032 164.867 252.948 163.467 262.748 162.067C272.548 160.433 281.765 158.8 290.398 157.167C299.265 155.533 307.198 153.9 314.198 152.267C321.432 150.633 327.498 149.117 332.398 147.717C342.432 144.45 351.065 143.283 358.298 144.217C365.765 145.15 372.182 147.717 377.548 151.917C387.815 159.85 391.782 165.683 389.448 169.417C387.348 173.15 379.182 174.667 364.948 173.967C361.448 173.733 356.898 173.733 351.298 173.967C308.553 175.825 266.5 180.016 223.898 186.217C221.332 186.683 218.765 187.033 216.198 187.267C213.632 187.5 211.065 187.85 208.498 188.317C187.923 192.058 191.722 190.412 163.698 196.017C159.265 196.717 155.532 197.65 152.498 198.817C148.765 199.983 145.498 200.917 142.698 201.617C139.898 202.083 137.215 202.083 134.648 201.617C132.315 201.15 129.865 200.217 127.298 198.817C124.732 197.183 121.698 194.967 118.198 192.167C111.432 186.8 108.398 183.3 109.098 181.667C109.798 179.8 115.398 178.867 125.898 178.867C127.765 178.867 131.032 178.633 135.698 178.167C140.598 177.7 146.432 177.117 153.198 176.417C159.965 175.717 167.548 174.9 175.948 173.967C184.582 172.8 193.565 171.633 202.898 170.467C203.365 148.3 203.598 130.217 203.598 116.217C203.598 102.217 203.248 91.0167 202.548 82.6167C202.082 74.2167 201.265 67.9167 200.098 63.7167C198.932 59.2833 197.532 55.6667 195.898 52.8667C190.532 44 188.898 38.1667 190.998 35.3667C193.332 32.3333 201.265 32.3333 214.798 35.3667C218.065 36.0667 220.865 36.8833 223.198 37.8167C225.532 38.75 227.515 39.8 229.148 40.9667Z" fill="black"/>
</svg>
