<svg width="350" height="350" viewBox="0 0 350 350" fill="none" xmlns="http://www.w3.org/2000/svg">
<path d="M64.6692 167.555C57.7692 169.055 52.0692 170.555 47.5692 172.055C43.0692 173.255 39.1692 174.155 35.8692 174.755C32.5692 175.055 29.4192 175.055 26.4192 174.755C23.7192 174.155 20.8692 173.105 17.8692 171.605C15.1692 169.805 11.8692 167.405 7.96923 164.405C0.769231 159.005 -2.53077 155.255 -1.93077 153.155C-1.03077 151.055 3.91923 150.005 12.9192 150.005C16.5192 150.005 21.6192 149.855 28.2192 149.555C34.8192 148.955 42.6192 148.205 51.6192 147.305C60.9192 146.405 71.1192 145.205 82.2192 143.705C93.3192 142.205 105.169 140.555 117.769 138.755C118.369 117.855 118.519 102.355 118.219 82.255C118.219 62.155 117.619 56.105 116.419 44.105C115.519 31.805 114.319 32.655 112.819 26.655C111.319 20.655 109.519 16.005 107.419 12.705C102.019 5.20499 100.669 0.105 103.369 -2.595C106.369 -5.295 114.469 -5.14501 127.669 -2.14501C133.969 -0.64501 138.469 0.85499 141.169 2.35499C144.169 3.55499 146.569 5.05499 148.369 6.85498C156.469 6.25499 164.569 5.35499 172.669 4.15499C180.769 2.65499 190.219 0.404996 201.019 -2.595C220.219 -7.69501 234.769 -10.695 244.669 -11.595C254.569 -12.495 262.219 -11.895 267.619 -9.79502C274.819 -6.795 278.119 -3.495 277.519 0.10499C276.919 3.405 271.069 6.705 259.969 10.005C241.669 14.805 222.769 18.405 203.269 20.805C184.069 22.905 166.669 23.355 151.069 22.155V51.905C158.869 51.305 167.119 49.955 175.819 47.855C184.819 45.755 192.919 43.505 200.119 41.105C211.219 37.205 220.519 34.805 228.019 33.905C235.819 33.005 242.419 33.155 247.819 34.355C255.619 36.155 259.669 39.455 259.969 44.255C260.569 49.055 257.419 52.205 250.519 53.705C238.219 56.705 227.269 59.105 217.669 60.905C208.369 62.705 199.819 64.055 192.019 64.955C184.519 65.855 177.319 66.455 170.419 66.755C163.819 66.755 157.219 66.455 150.619 65.855C150.619 78.6061 150.776 79.364 150.169 92.105C163.669 91.805 182.869 87.905 207.769 80.405C213.469 78.905 218.119 77.705 221.719 76.805C225.619 75.905 228.919 75.305 231.619 75.005C234.619 74.705 237.469 74.855 240.169 75.455C242.869 75.755 245.719 76.355 248.719 77.255C258.319 80.255 262.969 83.855 262.669 88.055C262.369 91.955 257.719 94.805 248.719 96.605C236.119 99.005 224.869 101.105 214.969 102.905C205.369 104.405 196.669 105.605 188.869 106.505C181.069 107.405 174.019 108.005 167.719 108.305C161.419 108.305 155.419 108.005 149.719 107.405C149.719 117.843 149.368 123.382 148.819 133.805C170.419 130.505 192.319 126.755 214.519 122.555C236.719 118.355 257.719 114.005 277.519 109.505C291.619 105.905 302.719 104.705 310.819 105.905C318.919 106.805 326.719 109.655 334.219 114.455C345.319 122.255 349.669 128.255 347.269 132.455C344.869 136.355 335.869 138.005 320.269 137.405C313.969 136.805 305.569 136.805 295.069 137.405C284.569 138.005 272.269 139.055 258.169 140.555C244.069 141.755 228.619 143.405 211.819 145.505C162.545 150.784 113.005 157.485 64.6692 167.555Z" fill="black"/>
<path d="M299.255 158.733C304.549 159.383 313.061 164.459 324.79 173.959C336.585 182.93 342.157 190.062 341.507 195.356C340.922 200.12 337.259 203.7 330.516 206.096C323.774 208.492 310.824 215.5 291.665 227.118C272.571 238.207 260.679 245.344 255.989 248.53C251.365 251.186 248.857 254.102 248.467 257.278C248.142 259.925 251.29 262.73 257.912 265.692C279.17 276.362 294.276 286.815 303.229 297.049C312.181 307.283 315.813 319.281 314.123 333.045C312.433 346.808 307.883 353.235 300.472 352.325C295.178 351.675 289.843 346.99 284.465 338.269C266.94 310.325 249.893 289.425 233.325 275.569C225.57 268.707 221.921 263.422 222.376 259.717C222.831 256.011 227.91 249.65 237.615 240.632C247.849 231.679 258.143 220.047 268.498 205.735C279.382 191.489 285.641 179.899 287.275 170.965C289.439 162.096 293.432 158.018 299.255 158.733ZM144.588 263.062C144.393 264.65 145.586 265.871 148.168 266.726C168.888 273.031 183.858 282.392 193.081 294.808C202.303 307.225 206.199 319.256 204.769 330.902C203.339 342.548 198.654 347.883 190.714 346.908C185.949 346.323 181.31 342.53 176.797 335.527C158.742 307.518 144.282 289.623 133.416 281.84C123.145 273.594 118.204 267.882 118.594 264.706C119.049 261.001 121.816 255.967 126.896 249.605C151.571 219.32 164.721 197.561 166.346 184.327C166.736 181.15 166.564 178.174 165.83 175.397C165.096 172.62 164.827 170.438 165.022 168.85C165.802 162.498 169.633 159.744 176.514 160.589C180.749 161.109 188.072 167.113 198.483 178.6C209.488 189.624 214.666 197.782 214.016 203.076C213.431 207.84 209.238 211.355 201.437 213.622C195.289 215.553 184.326 223.879 168.548 238.6C152.77 253.32 144.783 261.474 144.588 263.062ZM92.5455 332.437C90.9206 345.671 86.4026 351.833 78.9916 350.923C73.698 350.273 68.3625 345.587 62.9852 336.867C58.2022 327.682 50.8699 317.379 40.9884 305.956C31.7011 294.069 23.677 285.024 16.9159 278.82C10.2199 272.087 7.09936 266.868 7.55434 263.162C8.00932 259.457 11.9004 254.024 19.2277 246.864C27.0843 239.768 34.899 228.638 42.6719 213.472C51.0391 197.842 55.6127 186.85 56.3926 180.498C57.1726 174.146 57.1632 169.846 56.3645 167.599C56.0951 165.416 56.1879 162.472 56.6429 158.767C57.0979 155.061 60.2368 153.566 66.0598 154.281C71.8827 154.996 79.5678 160.238 89.115 170.008C99.2565 179.313 103.937 187.142 103.157 193.494C102.907 199.912 100.469 204.448 95.8442 207.104C91.2844 209.231 85.3733 213.61 78.111 220.241L52.8557 242.127C42.6866 250.55 36.9427 255.755 35.624 257.743C34.3703 259.201 33.581 261.253 33.256 263.9C32.996 266.018 35.6475 268.493 41.2104 271.325C60.0167 280.082 73.6641 289.281 82.1526 298.92C90.7061 308.031 94.1704 319.203 92.5455 332.437Z" fill="black"/>
</svg>
