<svg width="500" height="500" viewBox="0 0 500 500" fill="none" xmlns="http://www.w3.org/2000/svg">
<path d="M254.018 325.5C222.5 332 174.018 326.5 160.018 328.5C144.685 320.833 135.018 318.167 131.018 320.5C127.352 322.833 127.852 328.833 132.518 338.5C133.518 340.5 134.185 343 134.518 346C135.185 348.667 135.685 352.5 136.018 357.5C136.352 362.167 136.352 368.333 136.018 376C135.685 383.333 135.352 393 135.018 405C134.352 422.667 137.352 436.167 144.018 445.5C150.685 454.833 163.519 461.333 182.519 465C190.185 466.667 268.852 467.5 278.518 467.5C288.518 467.167 298.352 466.333 308.019 465C317.685 463.667 326.852 461.833 335.519 459.5C344.185 456.833 351.352 454 357.018 451C366.685 445.667 371.852 441 372.518 437C373.185 433 371.185 428.5 366.518 423.5C363.852 420.833 361.852 417 360.518 412C359.185 406.667 357.852 397.167 356.519 383.5C354.852 366.5 352.185 358.167 348.518 358.5C344.852 358.5 341.185 367.333 337.518 385C334.518 399 331.185 408.833 327.518 414.5C323.852 420.167 319.185 424 313.518 426C303.185 429.667 294.018 432.167 286.018 433.5C243.5 437 220.185 434.5 212.518 433.5C199.518 432.167 187.5 437 167.018 424.5C163.352 419.833 162.352 410.5 164.019 396.5C165.352 385.833 166.185 376.833 166.519 369.5C167.185 362.167 167.518 355.5 167.518 349.5C179.518 348.167 220.519 350.667 232.519 349C244.519 347 295.352 341.167 303.019 339.5C314.019 337.167 319.352 333.333 319.018 328C319.018 322.333 314.685 316.833 306.019 311.5C309.352 301.833 313.185 294 317.519 288C321.852 281.667 328.685 275.667 338.019 270C346.019 265 349.352 260.5 348.018 256.5C346.685 252.5 338.518 246.5 323.518 238.5C311.852 232.167 303.352 229 298.018 229C293.018 229 288.018 230.833 283.018 234.5C275.352 240.167 246.352 245 236.018 249C225.685 252.667 161.852 255.833 144.518 258.5C133.185 260.167 127.352 262.333 127.019 265C126.685 267.667 130.852 271 139.518 275C143.518 277 147.019 278.5 150.019 279.5C153.019 280.167 156.018 280.5 159.018 280.5C162.018 280.5 165.185 280.167 168.519 279.5C171.852 278.5 176.018 277 181.018 275C191.018 271.333 269.352 269 276.018 268C281.018 267.333 284.019 268.167 285.019 270.5C286.352 272.5 286.018 277.833 284.018 286.5C283.018 291.167 282.185 295.167 281.518 298.5C280.852 301.5 279.852 305.333 278.518 310C273.852 315 278.263 320.5 254.018 325.5Z" fill="black"/>
<path d="M227.559 122.923C226.559 124.923 225.725 127.59 225.059 130.923C224.725 133.923 224.225 138.256 223.559 143.923C222.892 149.59 222.559 156.756 222.559 165.423V196.423C227.225 195.423 231.892 194.59 236.559 193.923C241.225 192.923 245.892 191.923 250.559 190.923C252.225 170.256 253.226 153.09 253.559 139.423C254.226 125.423 254.392 113.923 254.059 104.923C254.059 95.5897 253.559 88.4231 252.559 83.4231C251.559 78.0897 250.226 73.9231 248.559 70.9231C242.225 61.2564 240.725 54.9231 244.059 51.9231C247.392 48.5897 256.059 49.5897 270.059 54.9231C278.059 57.9231 284.225 60.5898 288.559 62.9231C293.225 65.2564 296.392 67.5898 298.059 69.9231C300.059 71.9231 300.725 74.2564 300.059 76.9231C299.392 79.2564 297.892 81.9231 295.559 84.9231C293.225 87.5897 291.225 91.4231 289.559 96.4231C287.892 101.09 286.226 107.256 284.559 114.923C283.226 122.59 281.726 132.256 280.059 143.923C278.392 155.256 276.559 169.09 274.559 185.423C278.225 184.756 281.725 184.09 285.059 183.423C288.392 182.423 341.059 171.59 345.059 170.923C354.059 168.59 360.892 167.59 365.559 167.923C370.559 167.923 375.226 169.423 379.559 172.423C385.559 176.756 387.726 180.59 386.059 183.923C384.392 186.923 376.226 189.256 361.559 190.923C355.226 191.59 299.392 202.59 292.059 203.923C278.559 205.423 270.559 206.423 249.059 211.423C227.559 216.423 226.225 216.256 214.559 218.923C183.039 226.128 182.247 226.767 155.059 234.923C149.725 236.59 145.225 237.756 141.559 238.423C138.225 239.09 134.892 239.256 131.559 238.923C128.225 238.59 124.725 237.59 121.059 235.923C117.725 233.923 113.725 231.256 109.059 227.923C98.3922 219.923 93.3922 214.423 94.0588 211.423C95.0588 208.423 101.392 207.59 113.059 208.923C141.076 211.164 173.516 206.034 201.059 200.923C200.059 177.923 198.059 159.256 195.059 144.923C192.392 130.59 189.392 121.756 186.059 118.423C177.392 108.423 174.392 101.756 177.059 98.4231C179.725 94.7564 188.725 94.9231 204.059 98.9231C217.059 101.923 224.892 105.256 227.559 108.923C230.226 112.256 230.226 116.923 227.559 122.923ZM355.059 139.423C348.392 141.09 341.392 143.59 334.059 146.923C326.726 149.923 316.226 154.756 302.559 161.423C295.225 165.423 290.726 166.423 289.059 164.423C287.392 162.09 289.059 158.59 294.059 153.923C299.059 148.923 303.059 144.59 306.059 140.923C309.392 136.923 311.892 133.423 313.559 130.423C315.559 127.423 316.892 124.756 317.559 122.423C318.226 119.756 318.892 116.923 319.559 113.923C320.226 108.256 322.392 105.256 326.059 104.923C329.725 104.59 335.392 107.09 343.059 112.423C355.726 120.09 362.392 126.09 363.059 130.423C364.059 134.756 361.392 137.756 355.059 139.423ZM179.059 177.923C178.392 185.923 175.559 190.756 170.559 192.423C165.559 194.09 160.392 192.256 155.059 186.923C152.059 183.59 148.559 178.923 144.559 172.923C140.892 166.59 137.892 160.423 135.559 154.423C132.892 147.09 132.392 142.59 134.059 140.923C136.059 139.256 140.059 139.423 146.059 141.423C153.392 144.423 159.225 147.09 163.559 149.423C167.892 151.423 171.225 153.923 173.559 156.923C176.225 159.59 177.892 162.756 178.559 166.423C179.225 169.756 179.392 173.59 179.059 177.923Z" fill="black"/>
</svg>
