<svg width="500" height="500" viewBox="0 0 500 500" fill="none" xmlns="http://www.w3.org/2000/svg">
<path d="M230.402 123.774C214.209 156.433 198.736 184.092 183.982 206.753C169.588 229.08 155.374 247.909 141.34 263.238C127.306 278.567 113.272 291.231 99.2377 301.228C85.2036 310.892 70.4499 319.223 54.9764 326.222C42.7416 331.887 35.5446 333.386 33.3856 330.72C31.5863 327.721 36.0844 322.389 46.8798 314.725C64.8722 300.062 80.7055 285.732 94.3798 271.736C108.054 257.406 120.469 242.243 131.624 226.248C142.779 210.252 153.035 192.756 162.391 173.761C172.107 154.433 182.003 132.272 192.078 107.279C197.116 94.9486 200.175 83.285 201.255 72.2879C202.694 60.9575 201.974 52.4597 199.095 46.7946C194.058 35.7975 194.777 29.1325 201.255 26.7998C208.092 24.1338 221.586 28.1328 241.737 38.7967C255.772 46.4613 263.508 52.793 264.948 57.7917C266.387 62.7904 264.228 68.1223 258.47 73.7875C256.311 76.1202 253.972 79.2861 251.453 83.285C248.934 87.284 245.156 94.2822 240.118 104.28C285.713 159.555 346.496 207.895 409.095 243.243C423.849 251.574 439.142 258.239 454.976 263.238C469.01 267.903 475.667 272.069 474.947 275.735C474.588 279.4 465.951 281.9 449.038 283.233C428.887 284.566 413.053 285.399 401.538 285.732C390.023 286.065 380.847 285.565 374.01 284.232C367.533 282.899 362.495 280.733 358.896 277.734C311.101 233.472 266.555 177.799 230.402 123.774Z" fill="black"/>
<path d="M295.357 372.8C302.024 353.133 309.357 340.8 317.357 335.8C324.691 331.467 328.024 327.133 327.357 322.8C327.024 318.133 320.191 311.633 306.857 303.3C300.524 299.3 295.357 296.3 291.357 294.3C287.357 292.3 283.691 291.133 280.357 290.8C277.357 290.133 274.524 290.3 271.857 291.3C269.524 292.3 266.691 293.967 263.357 296.3C257.024 300.633 248.024 304.8 236.357 308.8C225.024 312.467 213.024 315.8 200.357 318.8C188.024 321.467 176.024 323.633 164.357 325.3C153.024 326.633 144.357 326.967 138.357 326.3C127.024 324.967 120.691 326.133 119.357 329.8C118.357 333.467 122.691 338.8 132.357 345.8C136.357 348.8 139.857 351.133 142.857 352.8C146.191 354.467 149.524 355.467 152.857 355.8C156.191 355.8 159.857 355.3 163.857 354.3C168.191 353.3 173.357 351.8 179.357 349.8C191.024 345.467 202.524 341.8 213.857 338.8C225.524 335.467 239.024 332.3 254.357 329.3C263.691 327.3 267.357 330.633 265.357 339.3C260.691 356.633 255.857 371.3 250.857 383.3C246.191 394.967 240.524 404.967 233.857 413.3C230.524 417.3 227.857 420.967 225.857 424.3C224.191 427.633 222.857 430.967 221.857 434.3C221.191 437.967 221.024 441.8 221.357 445.8C221.691 450.133 222.357 455.133 223.357 460.8C225.357 469.467 229.357 473.633 235.357 473.3C241.357 472.967 249.357 466.467 259.357 453.8C261.691 450.8 264.024 447.3 266.357 443.3C269.024 439.3 271.691 434.133 274.357 427.8C277.024 421.8 280.024 414.3 283.357 405.3C286.691 396.633 290.691 385.8 295.357 372.8Z" fill="black"/>
<path d="M260.357 269.8C265.69 265.133 267.024 258.133 264.357 248.8C263.024 244.8 261.191 241.466 258.857 238.8C256.857 235.8 253.857 233.3 249.857 231.3C245.857 229.3 240.857 227.8 234.857 226.8C228.857 225.8 221.357 225.3 212.357 225.3C203.691 225.3 198.524 226.466 196.857 228.8C195.191 231.133 196.19 234.466 199.857 238.8C206.524 246.133 212.357 251.966 217.357 256.3C222.691 260.3 228.69 264.133 235.357 267.8C246.69 273.466 255.024 274.133 260.357 269.8Z" fill="black"/>
</svg>
