<svg width="500" height="500" viewBox="0 0 500 500" fill="none" xmlns="http://www.w3.org/2000/svg">
<path d="M179.429 189.779C178.429 203.446 175.429 210.946 170.429 212.279C165.762 213.613 160.095 210.113 153.429 201.779C150.429 198.446 148.095 195.446 146.429 192.779C144.762 189.779 143.762 186.613 143.429 183.279C143.095 179.946 143.262 175.946 143.929 171.279C144.929 166.613 146.429 160.446 148.429 152.779C149.095 150.113 149.429 146.279 149.429 141.279C149.429 136.279 149.095 131.613 148.429 127.279C147.095 117.613 144.429 109.446 140.429 102.779C136.429 96.4459 135.929 91.9459 138.929 89.2792C142.262 86.6125 151.095 86.9459 165.429 90.2792C173.762 89.6125 182.929 88.7792 192.929 87.7792C203.262 86.4459 213.762 84.9459 224.429 83.2792C223.762 75.6125 222.595 69.1125 220.929 63.7792C219.595 58.4459 217.595 53.1125 214.929 47.7792C225.429 39.779 233.928 39.4241 247.429 43.7792C257.762 47.1125 263.929 49.9459 265.929 52.2792C268.262 54.6125 268.595 57.1125 266.929 59.7792C265.262 63.4459 264.095 66.6125 263.429 69.2792C262.762 71.6125 262.095 74.1125 261.429 76.7792C274.762 74.4459 286.762 71.4459 297.429 67.7792C302.429 66.1125 306.929 64.9459 310.929 64.2792C314.929 63.6125 318.595 63.4459 321.929 63.7792C325.595 63.7792 329.095 64.4459 332.429 65.7792C336.095 67.1125 340.595 69.2792 345.929 72.2792C355.929 77.6125 361.595 82.2792 362.929 86.2792C364.262 89.9459 363.595 93.4459 360.929 96.7792C359.929 98.4459 358.929 100.279 357.929 102.279C356.929 103.946 356.262 106.113 355.929 108.779C355.595 111.113 355.262 114.446 354.929 118.779C354.595 122.779 354.429 127.946 354.429 134.279C354.429 142.946 353.929 150.279 352.929 156.279C352.262 162.279 351.095 167.779 349.429 172.779C348.095 177.446 346.262 181.946 343.929 186.279C341.595 190.279 338.429 194.446 334.429 198.779C328.762 206.446 323.262 210.113 317.929 209.779C312.929 209.446 309.762 206.613 308.429 201.279C306.762 195.946 304.095 190.779 300.429 185.779C297.095 180.779 291.095 174.613 282.429 167.279C274.095 160.279 270.429 155.446 271.429 152.779C272.429 149.779 277.762 149.779 287.429 152.779C297.095 156.113 303.762 157.279 307.429 156.279C311.095 155.279 313.429 152.113 314.429 146.779C316.095 138.779 317.095 130.446 317.429 121.779C318.095 113.113 318.095 106.613 317.429 102.279C316.762 96.6125 315.262 93.2792 312.929 92.2792C310.595 91.2792 305.929 91.1125 298.929 91.7792C292.262 92.4459 286.095 93.1125 280.429 93.7792C274.762 94.4459 268.095 95.2792 260.429 96.2792C258.531 131.385 259.453 116.661 260.429 151.779C260.762 165.779 260.095 178.446 258.429 189.779C257.095 201.446 254.595 214.113 250.929 227.779C247.262 243.113 243.762 250.613 240.429 250.279C237.095 249.946 233.762 241.113 230.429 223.779C229.762 220.446 229.095 216.779 228.429 212.779C228.095 209.113 227.762 204.779 227.429 199.779C227.429 194.779 227.262 188.613 226.929 181.279C226.929 174.279 226.929 165.779 226.929 155.779C226.929 120.967 226.848 136.066 225.429 101.279C214.429 103.279 205.762 104.779 199.429 105.779C193.095 106.446 186.262 107.113 178.929 107.779C179.595 127.113 179.929 143.113 179.929 155.779C180.262 168.113 180.095 179.446 179.429 189.779Z" fill="black"/>
<path d="M254.018 325.5C222.5 332 174.018 326.5 160.018 328.5C144.685 320.833 135.018 318.167 131.018 320.5C127.352 322.833 127.852 328.833 132.518 338.5C133.518 340.5 134.185 343 134.518 346C135.185 348.667 135.685 352.5 136.018 357.5C136.352 362.167 136.352 368.333 136.018 376C135.685 383.333 135.352 393 135.018 405C134.352 422.667 137.352 436.167 144.018 445.5C150.685 454.833 163.519 461.333 182.519 465C190.185 466.667 268.852 467.5 278.518 467.5C288.518 467.167 298.352 466.333 308.019 465C317.685 463.667 326.852 461.833 335.519 459.5C344.185 456.833 351.352 454 357.018 451C366.685 445.667 371.852 441 372.518 437C373.185 433 371.185 428.5 366.518 423.5C363.852 420.833 361.852 417 360.518 412C359.185 406.667 357.852 397.167 356.519 383.5C354.852 366.5 352.185 358.167 348.518 358.5C344.852 358.5 341.185 367.333 337.518 385C334.518 399 331.185 408.833 327.518 414.5C323.852 420.167 319.185 424 313.518 426C303.185 429.667 294.018 432.167 286.018 433.5C243.5 437 220.185 434.5 212.518 433.5C199.518 432.167 187.5 437 167.018 424.5C163.352 419.833 162.352 410.5 164.019 396.5C165.352 385.833 166.185 376.833 166.519 369.5C167.185 362.167 167.518 355.5 167.518 349.5C179.518 348.167 220.519 350.667 232.519 349C244.519 347 295.352 341.167 303.019 339.5C314.019 337.167 319.352 333.333 319.018 328C319.018 322.333 314.685 316.833 306.019 311.5C309.352 301.833 313.185 294 317.519 288C321.852 281.667 328.685 275.667 338.019 270C346.019 265 349.352 260.5 348.018 256.5C346.685 252.5 338.518 246.5 323.518 238.5C311.852 232.167 303.352 229 298.018 229C293.018 229 288.018 230.833 283.018 234.5C275.352 240.167 246.352 245 236.018 249C225.685 252.667 161.852 255.833 144.518 258.5C133.185 260.167 127.352 262.333 127.019 265C126.685 267.667 130.852 271 139.518 275C143.518 277 147.019 278.5 150.019 279.5C153.019 280.167 156.018 280.5 159.018 280.5C162.018 280.5 165.185 280.167 168.519 279.5C171.852 278.5 176.018 277 181.018 275C191.018 271.333 269.352 269 276.018 268C281.018 267.333 284.019 268.167 285.019 270.5C286.352 272.5 286.018 277.833 284.018 286.5C283.018 291.167 282.185 295.167 281.518 298.5C280.852 301.5 279.852 305.333 278.518 310C273.852 315 278.263 320.5 254.018 325.5Z" fill="black"/>
</svg>
