<svg width="500" height="500" viewBox="0 0 500 500" fill="none" xmlns="http://www.w3.org/2000/svg">
<path d="M176.563 328.999C185.563 327.333 193.563 325.333 200.562 322.999C207.896 320.666 215.229 317.999 222.562 314.999C231.229 311.333 237.729 309.166 242.062 308.499C246.396 307.833 250.729 308.333 255.062 309.999C264.729 312.999 269.896 316.666 270.563 320.999C271.229 325.333 268.229 328.333 261.563 329.999C250.563 332.666 240.896 334.833 232.563 336.499C224.563 338.166 217.396 339.666 211.062 340.999C204.729 341.999 198.896 342.833 193.562 343.499C188.563 343.833 183.563 344.166 178.562 344.499C179.229 349.833 179.729 355.166 180.063 360.499C180.396 365.499 180.729 370.833 181.062 376.499C188.729 375.166 196.063 373.499 203.063 371.499C210.063 369.499 217.896 366.666 226.563 362.999C235.229 359.333 241.729 357.166 246.062 356.499C250.396 355.833 254.729 356.333 259.063 357.999C268.729 361.333 273.896 365.166 274.563 369.499C275.229 373.499 272.229 376.333 265.563 377.999C245.229 382.666 228.729 386.166 216.063 388.499C203.396 390.499 192.062 391.666 182.062 391.999C182.396 397.333 182.563 402.666 182.563 407.999C182.563 413.333 182.729 418.999 183.062 424.999C202.396 421.666 217.563 419.166 228.563 417.499C239.896 415.499 248.563 414.333 254.563 413.999C260.563 413.333 264.729 413.333 267.063 413.999C269.396 414.333 271.396 415.166 273.063 416.499C275.729 418.833 277.896 419.166 279.563 417.499C281.563 415.833 283.396 409.499 285.062 398.499C286.729 386.499 287.896 375.833 288.563 366.499C289.563 357.166 290.062 348.499 290.062 340.499C290.396 332.499 290.229 324.666 289.562 316.999C289.229 309.333 288.563 301.333 287.562 292.999C286.896 288.333 283.896 284.499 278.562 281.499C273.563 278.499 268.563 277.666 263.563 278.999C240.563 284.999 221.729 289.666 207.063 292.999C192.396 295.999 180.896 297.999 172.562 298.999C173.229 304.333 173.896 309.499 174.562 314.499C175.229 319.499 175.896 324.333 176.563 328.999ZM162.062 282.999C170.666 270.254 176.563 263 180.563 244.499C178.563 237.499 178.729 231.833 183.062 229.499C187.729 227.166 193.229 224.333 209.562 230.999C225.896 237.666 225.063 243.166 227.062 247.499C229.062 251.499 226.896 255.333 220.562 258.999C211.062 264.999 200.562 269 186.063 278.999C210.729 274.333 230.396 269.666 245.063 264.999C259.729 259.999 270.396 255.166 277.063 250.499C279.396 248.833 281.729 247.666 284.063 246.999C286.396 246.333 289.229 246.333 292.563 246.999C296.229 247.333 300.396 248.666 305.063 250.999C310.063 252.999 316.229 256.166 323.563 260.499C329.896 264.166 334.729 267.333 338.063 269.999C341.729 272.666 344.063 275.166 345.062 277.499C346.063 279.833 346.063 282.166 345.062 284.499C344.063 286.499 342.396 288.833 340.063 291.499C335.396 296.833 331.563 305.499 328.563 317.499C325.563 329.499 324.063 341.166 324.063 352.499C324.063 357.499 323.896 363.166 323.563 369.499C323.229 375.499 322.729 381.833 322.063 388.499C321.729 394.833 321.063 401.333 320.063 407.999C319.396 414.666 318.563 420.666 317.563 425.999C315.563 437.666 312.063 446.666 307.063 452.999C302.396 459.333 298.063 462.499 294.063 462.499C291.396 462.499 288.729 461.166 286.063 458.499C283.729 455.499 280.896 449.666 277.563 440.999C276.563 438.666 275.229 436.999 273.562 435.999C272.229 434.666 268.896 434.166 263.563 434.499C258.229 434.499 250.396 435.499 240.063 437.499C230.063 439.166 216.063 441.666 198.062 444.999C195.396 445.666 192.729 445.999 190.062 445.999C187.396 445.999 184.729 445.999 182.062 445.999C181.396 449.999 179.896 453.666 177.562 456.999C175.229 459.999 172.729 461.499 170.062 461.499C164.396 461.499 159.729 457.333 156.062 448.999C152.396 440.666 150.562 431.499 150.562 421.499C150.562 403.166 150.063 386.999 149.063 372.999C148.063 358.999 146.562 346.999 144.563 336.999C142.896 326.666 140.729 318.166 138.063 311.499C135.396 304.833 132.563 299.333 129.563 294.999C127.229 291.666 125.729 288.833 125.063 286.499C124.729 283.833 125.729 281.999 128.062 280.999C130.396 279.666 134.229 279.166 139.562 279.499C145.229 279.833 152.729 280.999 162.062 282.999Z" fill="black"/>
<path d="M361.747 258.245C354.287 259.364 348.132 260.203 343.283 260.762C338.62 261.322 334.61 261.788 331.253 262.161C327.896 262.534 324.819 262.72 322.021 262.72C319.41 262.907 316.426 263 313.069 263C307.847 263 303.557 262.814 300.2 262.441C297.03 262.254 294.232 261.602 291.807 260.483C289.569 259.364 287.518 257.686 285.653 255.448C283.788 253.211 281.643 250.134 279.218 246.218C273.437 236.895 266.909 226.64 259.635 215.452C252.548 204.078 244.435 191.399 235.296 177.414C232.499 188.042 228.768 197.645 224.106 206.222C219.63 214.8 213.755 222.445 206.481 229.157C199.207 235.87 190.442 241.65 180.184 246.498C170.112 251.533 158.176 255.728 144.375 259.084C134.49 261.508 129.081 261.415 128.149 258.805C127.403 256.381 131.506 253.118 140.458 249.015C150.156 244.727 159.202 239.319 167.595 232.793C176.174 226.081 183.727 218.436 190.255 209.858C196.969 201.095 202.471 191.399 206.761 180.77C211.05 169.956 213.755 158.302 214.874 145.809C210.398 146.741 206.015 147.58 201.725 148.326C197.622 149.072 193.985 149.911 190.815 150.843C185.406 152.335 181.023 153.454 177.666 154.2C174.309 154.759 171.511 154.945 169.273 154.759C167.035 154.572 165.077 154.106 163.398 153.36C161.906 152.428 160.041 151.123 157.803 149.445C154.632 147.021 152.301 145.063 150.809 143.571C149.317 142.08 148.664 140.961 148.851 140.215C149.224 139.283 150.436 138.63 152.488 138.257C154.539 137.698 157.616 137.232 161.72 136.859C168.807 136.299 177.106 135.46 186.618 134.341C196.13 133.036 205.828 131.544 215.713 129.866C216.086 117.933 216.273 107.864 216.273 99.6595C216.273 91.2687 215.993 84.2764 215.433 78.6826C214.874 73.0887 214.128 68.7069 213.195 65.537C212.449 62.1807 211.423 59.477 210.118 57.4259C206.761 52.3914 204.429 48.3825 203.124 45.3991C202.005 42.4158 202.098 40.3647 203.404 39.2459C204.896 37.9407 207.787 37.661 212.076 38.4068C216.552 38.9662 222.893 40.3647 231.1 42.6022C236.695 44.0939 240.985 45.6788 243.969 47.357C247.139 48.8487 249.284 50.5268 250.403 52.3914C251.522 54.2561 251.802 56.4004 251.242 58.8244C250.683 61.0619 249.657 63.8589 248.165 67.2152C247.792 67.961 247.419 69.173 247.046 70.8512C246.673 72.3429 246.207 75.1398 245.647 79.2419C245.274 83.3441 244.808 89.0312 244.248 96.3032C243.689 103.575 243.036 113.271 242.29 125.391C250.123 123.9 257.024 122.501 262.992 121.196C269.147 119.704 273.81 118.399 276.98 117.28C283.321 115.043 288.73 113.458 293.206 112.525C297.682 111.407 301.599 110.94 304.956 111.127C308.313 111.313 311.297 111.966 313.908 113.085C316.706 114.204 319.41 115.695 322.021 117.56C330.787 123.9 334.144 128.561 332.093 131.544C330.041 134.528 322.581 136.206 309.712 136.579C300.387 136.765 289.663 137.325 277.54 138.257C265.417 139.189 253.201 140.401 240.891 141.893C240.891 143.944 240.798 145.809 240.612 147.487C240.425 149.165 240.239 150.843 240.052 152.521C250.683 167.625 260.568 180.118 269.706 190C279.032 199.696 288.357 207.901 297.682 214.613C307.008 221.139 316.706 226.64 326.777 231.115C336.849 235.59 347.946 240.158 360.068 244.82C369.394 248.363 374.056 251.16 374.056 253.211C374.243 255.448 370.14 257.126 361.747 258.245Z" fill="black"/>
</svg>
