<svg width="350" height="350" viewBox="0 0 350 350" fill="none" xmlns="http://www.w3.org/2000/svg">
<path d="M133.133 128.55C123.933 129.35 115.133 129.55 106.733 129.15C98.3333 128.75 90.9333 127.55 84.5333 125.55C56.5333 116.75 57.3333 110.55 86.9333 106.95C103.733 104.95 121.933 101.55 141.533 96.75C161.533 91.55 179.733 85.95 196.133 79.95C202.933 77.55 208.733 75.75 213.533 74.55C218.733 72.95 223.333 72.15 227.333 72.15C231.733 71.75 235.733 72.15 239.333 73.35C243.333 74.15 247.533 75.55 251.933 77.55C262.333 82.75 267.333 87.95 266.933 93.15C266.533 98.35 257.733 103.15 240.533 107.55C237.333 108.35 232.733 109.55 226.733 111.15C221.133 112.35 214.733 113.75 207.533 115.35C200.733 116.55 193.533 117.95 185.933 119.55C178.333 121.15 170.933 122.55 163.733 123.75C177.733 131.75 185.733 138.35 187.733 143.55C189.733 148.35 187.933 152.35 182.333 155.55C177.933 158.35 172.933 161.95 167.333 166.35C162.133 170.35 156.733 174.95 151.133 180.15C144.333 186.55 138.133 192.15 132.533 196.95C126.933 201.75 120.533 207.55 113.333 214.35C107.733 219.55 105.133 222.95 105.533 224.55C106.333 225.75 110.133 225.75 116.933 224.55C128.533 222.55 142.333 220.15 158.333 217.35C174.333 214.15 231.933 200.35 251.133 195.95L246.333 186.95C245.133 184.15 243.933 181.15 242.733 177.95C239.133 169.15 238.533 164.15 240.933 162.95C243.733 161.35 250.933 162.75 262.533 167.15C273.733 171.55 282.733 175.55 289.533 179.15C296.333 182.35 301.533 185.95 305.133 189.95C308.733 193.55 310.933 197.75 311.733 202.55C312.933 207.35 313.333 213.15 312.933 219.95C312.533 226.75 311.133 232.35 308.733 236.75C306.733 240.75 303.933 243.35 300.333 244.55C296.733 245.75 292.733 245.55 288.333 243.95C284.333 241.95 280.333 238.35 276.333 233.15C274.333 229.95 272.133 226.95 269.733 224.15C267.333 220.95 265.133 217.75 263.133 214.55C227.67 222.894 192.285 231.763 157.133 241.35C148.333 243.75 138.733 245.95 125.933 250.35C113.133 254.75 103.133 258.55 95.9333 261.75C88.7333 264.95 82.3333 268.15 76.7333 271.35C71.9333 274.15 67.9333 276.15 64.7333 277.35C61.5333 278.55 58.7333 278.75 56.3333 277.95C53.9333 276.75 51.7333 274.35 49.7333 270.75C47.7333 267.15 45.3333 261.95 42.5333 255.15C36.9333 242.75 34.9333 234.95 36.5333 231.75C38.1333 228.15 43.5333 225.75 52.7333 224.55C60.7333 223.75 67.7333 221.55 73.7333 217.95C79.7333 214.35 87.3333 207.35 96.5333 196.95C109.333 182.95 118.533 170.55 124.133 159.75C130.133 148.55 133.133 138.15 133.133 128.55Z" fill="black"/>
</svg>
