<svg width="350" height="350" viewBox="0 0 350 350" fill="none" xmlns="http://www.w3.org/2000/svg">
<path d="M289.593 149.11C298.68 152.443 303.148 154.943 302.996 156.609C302.845 158.427 297.998 159.942 288.457 161.154C278.461 162.517 270.434 163.426 264.376 163.881C258.469 164.335 253.547 164.184 249.609 163.426C245.823 162.669 239.726 161.608 237 159.336C215.532 150.701 205.5 142 193.033 128.659C190.156 124.569 187.127 120.175 183.946 115.479C180.917 110.783 177.585 105.481 173.95 99.5723C163.535 131.441 138.233 146.618 108.969 159.565C100.5 161.154 93 161.154 81.9349 161.2C72.5 161.239 66.4867 160.851 66.0324 159.336C65.578 157.821 69.8944 154.943 78.9816 150.701C104.757 138.623 147.584 123.223 154.867 91.1653C147.749 92.3772 122.085 95.5891 115.876 96.8011C109.818 98.013 65.5168 105.225 60.9733 106.437C58.2471 107.194 43.9753 109.725 42.1579 110.028C40.4919 110.331 38.9017 110.406 37.3872 110.255C35.8726 109.952 34.3581 109.422 32.8436 108.664C31.3291 107.755 29.4359 106.467 27.1641 104.801C21.4089 100.862 18.91 93.2111 19.6672 91.8477C20.4245 90.3328 36.6652 87.4238 44.3892 87.1208C50.2959 86.9694 97.1714 80.2876 107.016 79.0757C117.012 77.8638 146.462 74.4246 157.366 72.7582C158.124 67.0015 158.427 67.472 158.275 62.1697C158.275 56.8675 157.518 52.1713 156.003 48.081C153.277 47.6265 120.021 46.9448 116.235 46.0358C113.218 48.791 80.7782 64.7849 78.5231 62.078C77.9172 61.169 80.4162 57.6847 86.02 51.625C95.7261 41.2228 105.317 31.0059 108.642 17.2239C109.703 12.8306 109.854 9.34631 109.097 6.77094C107.885 3.13512 107.204 0.332512 107.052 -1.63689C107.052 -3.75778 107.809 -5.04547 109.324 -5.49995C110.838 -6.10591 113.262 -5.95442 116.594 -5.04547C119.926 -4.28801 124.318 -2.77308 129.77 -0.500698C133.859 1.16572 136.964 2.75639 139.084 4.27132C141.356 5.63475 142.719 7.07392 143.174 8.58885C143.628 9.95228 143.401 11.3915 142.492 12.9064C141.583 14.2698 140.144 15.8605 138.176 17.6784C133.687 21.669 128.791 26.7868 124.867 31.1735C131.228 30.719 179.574 27.2799 187.904 24.856C196.234 22.2806 207.336 22.0235 215.212 18.0847C217.484 17.0243 235.453 15.1911 237.119 14.5851C238.785 13.8276 240.451 13.4489 242.117 13.4489C243.782 13.2974 245.524 13.6004 247.342 14.3578C249.159 14.9638 251.279 15.9485 253.703 17.312C258.398 20.0388 260.669 22.387 260.518 24.3564C260.223 27.8926 246.281 34.573 242.798 35.6731C240.072 36.5821 221.043 42.491 217.711 43.4C214.53 44.1575 196.896 45.9149 192.806 46.6724C188.717 47.4298 183.946 46.1873 178.494 46.9448C182.735 48.9142 185.082 50.6563 185.537 52.1713C186.142 53.6862 185.385 56.3373 183.265 60.1246C180.508 64.4582 180.838 64.2041 180.311 69.1224C221 69.1224 256.489 65.467 293.471 57.7604C297.258 56.8515 300.362 56.4727 302.786 56.6242C305.209 56.6242 307.253 57.0787 308.919 57.9877C310.585 58.7451 312.403 59.9571 314.372 61.6235C322.247 68.2891 325.125 77.9854 323.004 80.7123C320.884 83.4391 312.554 84.3481 298.015 83.4391C260.15 81.6356 220.739 82.9221 183.04 87.7567C191.824 97.7552 194.851 101.239 202.121 108.207C209.542 115.176 216.812 121.16 223.93 126.159C253 146.576 269.159 143.5 289.593 149.11Z" fill="black"/>
<path d="M299.255 158.733C304.549 159.383 313.061 164.459 324.79 173.959C336.585 182.93 342.157 190.062 341.507 195.356C340.922 200.12 337.259 203.7 330.516 206.096C323.774 208.492 310.824 215.5 291.665 227.118C272.571 238.207 260.679 245.344 255.989 248.53C251.365 251.186 248.857 254.102 248.467 257.278C248.142 259.925 251.29 262.73 257.912 265.692C279.17 276.362 294.276 286.815 303.229 297.049C312.181 307.283 315.813 319.281 314.123 333.045C312.433 346.808 307.883 353.235 300.472 352.325C295.178 351.675 289.843 346.99 284.465 338.269C266.94 310.325 249.893 289.425 233.325 275.569C225.57 268.707 221.921 263.422 222.376 259.717C222.831 256.011 227.91 249.65 237.615 240.632C247.849 231.679 258.143 220.047 268.498 205.735C279.382 191.489 285.641 179.899 287.275 170.965C289.439 162.096 293.432 158.018 299.255 158.733ZM144.588 263.062C144.393 264.65 145.586 265.871 148.168 266.726C168.888 273.031 183.858 282.392 193.081 294.808C202.303 307.225 206.199 319.256 204.769 330.902C203.339 342.548 198.654 347.883 190.714 346.908C185.949 346.323 181.31 342.53 176.797 335.527C158.742 307.518 144.282 289.623 133.416 281.84C123.145 273.594 118.204 267.882 118.594 264.706C119.049 261.001 121.816 255.967 126.896 249.605C151.571 219.32 164.721 197.561 166.346 184.327C166.736 181.15 166.564 178.174 165.83 175.397C165.096 172.62 164.827 170.438 165.022 168.85C165.802 162.498 169.633 159.744 176.514 160.589C180.749 161.109 188.072 167.113 198.483 178.6C209.488 189.624 214.666 197.782 214.016 203.076C213.431 207.84 209.238 211.355 201.437 213.622C195.289 215.553 184.326 223.879 168.548 238.6C152.77 253.32 144.783 261.474 144.588 263.062ZM92.5455 332.437C90.9206 345.671 86.4026 351.833 78.9916 350.923C73.698 350.273 68.3625 345.587 62.9852 336.867C58.2022 327.682 50.8699 317.379 40.9884 305.956C31.7011 294.069 23.677 285.024 16.9159 278.82C10.2199 272.087 7.09936 266.868 7.55434 263.162C8.00932 259.457 11.9004 254.024 19.2277 246.864C27.0843 239.768 34.899 228.638 42.6719 213.472C51.0391 197.842 55.6127 186.85 56.3926 180.498C57.1726 174.146 57.1632 169.846 56.3645 167.599C56.0951 165.416 56.1879 162.472 56.6429 158.767C57.0979 155.061 60.2368 153.566 66.0598 154.281C71.8827 154.996 79.5678 160.238 89.115 170.008C99.2565 179.313 103.937 187.142 103.157 193.494C102.907 199.912 100.469 204.448 95.8442 207.104C91.2844 209.231 85.3733 213.61 78.111 220.241L52.8557 242.127C42.6866 250.55 36.9427 255.755 35.624 257.743C34.3703 259.201 33.581 261.253 33.256 263.9C32.996 266.018 35.6475 268.493 41.2104 271.325C60.0167 280.082 73.6641 289.281 82.1526 298.92C90.7061 308.031 94.1704 319.203 92.5455 332.437Z" fill="black"/>
</svg>
