<svg width="500" height="500" viewBox="0 0 500 500" fill="none" xmlns="http://www.w3.org/2000/svg">
<path d="M117.5 400C114.5 415.333 110.833 423.833 106.5 425.5C102.5 427.5 98.6667 425.667 95 420C90.6667 413.333 87.3333 407.5 85 402.5C82.6667 397.833 81.1667 393.333 80.5 389C79.8333 384.667 79.8333 380.333 80.5 376C81.5 371.333 83 366 85 360C86.3333 356.333 87.6667 349.667 89 340C90.3333 330 91.6667 318 93 304C94.3333 290 95.3333 274.333 96 257C97 239.333 97.6667 221 98 202C98.3333 165 97.3333 136.667 95 117C92.6667 97 89.3333 83.5 85 76.5C82.3333 72.5 80.8333 69.1667 80.5 66.5C80.1667 63.5 81.1667 61.5 83.5 60.5C86.1667 59.1667 90.5 59 96.5 60C102.5 61 110.5 63.5 120.5 67.5C138.833 67.5 159.667 66.5 183 64.5C206.333 62.5 229 60 251 57C273 54 292.667 51 310 48C327.667 44.6667 339.667 41.6667 346 39C349.333 37.6667 352.167 36.8333 354.5 36.5C356.833 35.8333 359.333 35.8333 362 36.5C365 37.1667 368.5 38.5 372.5 40.5C376.5 42.5 382 45.5 389 49.5C398 54.5 404.833 58.6667 409.5 62C414.167 65.3333 417.167 68.5 418.5 71.5C420.167 74.1667 420.5 77 419.5 80C418.5 82.6667 416.667 86 414 90C410 95.6667 407.333 103.167 406 112.5C404.667 121.833 404.333 135.333 405 153C406.333 185 407.333 213 408 237C409 260.667 409.667 281.333 410 299C410.667 316.667 411.167 331.667 411.5 344C411.833 356.333 412.333 367 413 376C413.667 391 412.5 403.833 409.5 414.5C406.5 425.167 400.667 436.667 392 449C385 459 378.833 463.833 373.5 463.5C368.167 463.167 364 457.667 361 447C358.667 438.667 356.5 431.667 354.5 426C352.5 420.667 350.167 415.167 347.5 409.5C344.833 403.833 342 400.167 339 398.5C336 397.167 331.167 396.167 324.5 395.5C317.5 394.833 307.833 394.667 295.5 395C283.5 395 270.667 395.333 257 396C243.333 396.333 229.667 397 216 398C202.333 399.333 190.5 400.667 180.5 402C168.5 403.333 157.667 403.833 148 403.5C138.667 403.5 128.5 402.333 117.5 400ZM129.5 91C129.833 113 129.833 137.833 129.5 165.5C129.167 192.833 128.5 220.167 127.5 247.5C126.833 274.5 125.833 299.833 124.5 323.5C123.167 346.833 121.833 365.5 120.5 379.5C127.5 379.833 135 380 143 380C151.333 379.667 161.167 379.167 172.5 378.5C184.167 377.5 198 376.167 214 374.5C230.333 372.5 250 370 273 367C295 364.333 312 364 324 366C336 368 346 373.833 354 383.5C361.667 392.167 366.5 390.167 368.5 377.5C370.833 357.167 372.333 335.667 373 313C374 290.333 374.333 267 374 243C374 232 373.667 219.667 373 206C372.667 192 372.167 178.5 371.5 165.5C370.833 152.167 370.167 140.167 369.5 129.5C368.833 118.5 368.167 110.333 367.5 105C366.5 97.3333 365.5 91.3333 364.5 87C363.5 82.6667 362 79.5 360 77.5C358.333 75.1667 355.833 73.8333 352.5 73.5C349.5 72.8333 345.5 72.5 340.5 72.5C335.167 72.5 328 72.8333 319 73.5C310 73.8333 299.667 74.6667 288 76C276.667 77 264.167 78.3333 250.5 80C236.833 81.3333 222.5 83 207.5 85C172.167 89.3333 146.167 91.3333 129.5 91Z" fill="black"/>
<path d="M220.077 142.558C205.312 144.403 203.253 148.8 188.577 151.058C184.577 151.391 180.744 151.391 177.077 151.058C173.41 150.724 169.744 149.891 166.077 148.558C162.744 146.891 158.91 144.724 154.577 142.058C146.577 137.058 142.91 133.558 143.577 131.558C144.577 129.224 150.41 127.558 161.077 126.558C181.852 124.332 190.479 123.193 211.077 119.558C217.077 118.558 223.41 117.224 230.077 115.558C243.744 112.558 254.577 110.224 262.577 108.558C282.977 103.661 291.711 95.2229 312.577 96.0576C321.244 96.0576 330.577 98.7242 340.577 104.058C346.91 107.391 351.41 110.724 354.077 114.058C356.744 117.391 357.244 120.391 355.577 123.058C353.91 125.724 349.744 128.058 343.077 130.058C336.744 131.724 327.577 132.558 315.577 132.558C288.23 133.339 276.657 133.689 249.577 137.558C258.577 140.558 265.41 143.224 270.077 145.558C275.077 147.891 278.41 150.391 280.077 153.058C282.077 155.724 282.744 158.724 282.077 162.058C281.744 165.391 280.577 169.558 278.577 174.558C277.577 177.558 276.744 180.891 276.077 184.558C269.868 218.709 276.077 195.692 276.077 230.058C276.41 245.724 276.744 259.891 277.077 272.558C277.077 280.224 276.91 286.558 276.577 291.558C276.244 296.891 275.244 301.724 273.577 306.058C272.244 310.724 270.077 315.391 267.077 320.058C264.41 324.724 260.577 330.391 255.577 337.058C240.244 357.058 228.577 357.391 220.577 338.058C217.577 331.058 213.244 323.891 207.577 316.558C202.244 309.224 195.077 302.058 186.077 295.058C177.077 288.058 173.244 283.058 174.577 280.058C176.244 276.724 183.41 276.558 196.077 279.558C204.41 281.558 211.077 282.891 216.077 283.558C221.077 284.224 224.91 283.891 227.577 282.558C230.577 281.224 232.577 278.724 233.577 275.058C234.577 271.391 235.41 266.058 236.077 259.058C236.744 252.058 237.244 243.891 237.577 234.558C238.942 196.333 239.328 217.569 234.577 179.558C233.91 174.224 232.91 169.558 231.577 165.558C230.577 161.224 229.077 157.391 227.077 154.058C225.41 150.391 223.077 146.558 220.077 142.558Z" fill="black"/>
</svg>
