<svg width="358" height="350" viewBox="0 0 358 350" fill="none" xmlns="http://www.w3.org/2000/svg">
<path d="M267.23 107.323C262.697 108.656 257.764 109.856 252.43 110.923C247.097 111.99 240.964 113.19 234.03 114.523C227.364 115.59 219.63 116.79 210.83 118.123C202.297 119.19 192.43 120.39 181.23 121.723C170.564 123.056 161.23 123.856 153.23 124.123C145.23 124.39 138.03 124.256 131.63 123.723C125.23 122.923 119.23 121.723 113.63 120.123C108.297 118.523 102.964 116.39 97.6302 113.723C87.4969 108.923 82.6969 105.456 83.2302 103.323C84.0302 100.923 90.4302 99.3231 102.43 98.5231C110.964 97.9897 120.03 97.1897 129.63 96.1231C139.497 94.7897 149.364 93.3231 159.23 91.7231C169.097 90.1231 178.697 88.2564 188.03 86.1231C197.63 83.9897 206.43 81.5897 214.43 78.9231C227.497 74.6564 237.63 72.3897 244.83 72.1231C252.03 71.5897 259.097 72.7897 266.03 75.7231C279.63 81.3231 286.43 87.1897 286.43 93.3231C286.43 99.1897 280.03 103.856 267.23 107.323ZM340.83 232.123C354.697 246.256 360.164 256.523 357.23 262.923C354.564 269.323 343.497 270.656 324.03 266.923C315.23 265.323 306.564 263.99 298.03 262.923C289.764 261.59 280.297 260.656 269.63 260.123C259.23 259.59 246.964 259.456 232.83 259.723C218.964 259.723 202.03 260.123 182.03 260.923C158.83 261.99 137.497 263.59 118.03 265.723C98.5635 267.856 81.8969 270.523 68.0302 273.723C61.0969 275.323 55.3635 276.523 50.8302 277.323C46.2969 277.856 42.2969 277.99 38.8302 277.723C35.3635 277.456 32.1635 276.523 29.2302 274.923C26.2969 273.323 23.0969 270.923 19.6302 267.723C6.03019 254.923 -0.503145 246.79 0.0301887 243.323C0.563522 239.59 9.76352 238.79 27.6302 240.923C30.0302 241.19 33.8969 241.323 39.2302 241.323C44.5635 241.056 53.2302 240.656 65.2302 240.123C79.8969 239.323 97.0969 238.256 116.83 236.923C136.83 235.323 156.697 233.723 176.43 232.123C196.43 230.256 214.964 228.39 232.03 226.523C249.364 224.39 262.83 222.39 272.43 220.523C281.764 218.923 289.63 217.723 296.03 216.923C302.697 216.123 308.564 216.123 313.63 216.923C318.697 217.456 323.364 218.923 327.63 221.323C331.897 223.723 336.297 227.323 340.83 232.123Z" fill="black"/>
</svg>
