<svg width="500" height="500" viewBox="0 0 500 500" fill="none" xmlns="http://www.w3.org/2000/svg">
<path d="M349.596 162C344.596 163 339.096 164.167 333.096 165.5C327.096 166.5 319.929 167.667 311.596 169C303.262 170.333 293.429 171.833 282.096 173.5C271.096 174.833 257.929 176.5 242.596 178.5C227.596 180.5 214.929 181.833 204.596 182.5C194.596 183.167 185.762 183.167 178.096 182.5C170.429 181.833 163.596 180.5 157.596 178.5C151.929 176.5 146.096 173.833 140.096 170.5C131.429 165.5 127.429 161.833 128.096 159.5C129.096 156.833 134.596 155.167 144.596 154.5C161.929 153.167 181.596 150.833 203.596 147.5C225.929 143.833 246.929 139.667 266.596 135C277.596 132.333 287.096 130.167 295.096 128.5C303.429 126.833 310.596 125.833 316.596 125.5C322.596 124.833 327.762 124.833 332.096 125.5C336.762 125.833 340.929 126.667 344.596 128C362.596 135 371.596 141.667 371.596 148C371.929 154 364.596 158.667 349.596 162ZM448.596 324C464.596 337 470.929 347.667 467.596 356C464.596 364 451.929 366 429.596 362C416.596 359.667 404.596 357.833 393.596 356.5C382.596 355.167 370.596 354.333 357.596 354C344.929 353.333 330.262 353.167 313.596 353.5C296.929 353.833 276.596 354.5 252.596 355.5C223.262 356.833 196.262 358.833 171.596 361.5C147.262 363.833 126.262 367 108.596 371C100.929 372.667 94.2624 373.833 88.5958 374.5C82.9291 375.167 77.9291 375.333 73.5957 375C69.5957 374.333 65.9291 373.167 62.5958 371.5C59.2624 369.833 55.9291 367.667 52.5957 365C37.9291 353 31.0957 345 32.0957 341C33.4291 337 42.5957 335.833 59.5957 337.5C63.2624 337.833 68.4291 338 75.0957 338C81.7624 337.667 92.0958 337.167 106.096 336.5C118.429 335.833 132.596 335 148.596 334C164.596 332.667 181.096 331.333 198.096 330C215.429 328.333 232.762 326.667 250.096 325C267.762 323.333 284.096 321.833 299.096 320.5C314.429 318.833 327.929 317.333 339.596 316C351.596 314.333 360.762 312.833 367.096 311.5C377.429 309.5 386.429 308.333 394.096 308C402.096 307.333 409.096 307.5 415.096 308.5C421.429 309.167 427.096 310.833 432.096 313.5C437.429 316.167 442.929 319.667 448.596 324Z" fill="black"/>
</svg>
