<svg width="500" height="500" viewBox="0 0 500 500" fill="none" xmlns="http://www.w3.org/2000/svg">
<path fill-rule="evenodd" clip-rule="evenodd" d="M406.521 83.2355C423.497 99.1016 422.511 107.279 403.563 107.767C399.615 107.787 396.22 107.882 393.378 108.054C390.813 108.264 388.524 108.513 386.512 108.799C384.538 108.809 382.684 108.976 380.948 109.3C379.213 109.625 377.32 110.068 375.27 110.631C368.849 112.079 355.27 115.939 341.435 119.871C325.191 124.488 308.595 129.205 302.822 130.236C300.392 130.69 291.832 132.568 280.023 135.196C284.047 137.232 286.94 139.382 288.699 141.645C290.654 144.157 291.352 147.088 290.793 150.438C290.235 153.788 288.979 157.976 287.025 163.001C285.908 166.072 284.931 169.701 284.093 173.888C283.256 178.075 282.418 183.938 281.581 191.475C281.022 198.734 280.464 208.086 279.906 219.531C279.348 230.698 278.789 244.795 278.231 261.824C292.747 256.52 304.472 252.472 313.405 249.681C322.339 246.889 329.597 244.935 335.18 243.818C340.763 242.702 345.23 242.283 348.58 242.562C351.93 242.841 355.28 243.539 358.63 244.656C370.075 248.564 375.798 253.031 375.798 258.056C375.798 263.081 369.098 267.408 355.699 271.037C344.253 274.108 332.109 276.48 319.268 278.155C306.705 279.551 292.887 280.249 277.812 280.249L274.881 392.054C286.047 390.937 295.539 389.96 303.356 389.123C311.451 388.285 318.57 387.448 324.711 386.61C331.132 385.773 336.855 385.075 341.88 384.516C346.905 383.679 352.069 382.842 357.374 382.004C366.865 380.608 374.961 379.771 381.661 379.492C388.361 378.933 394.223 379.073 399.248 379.91C404.273 380.469 408.74 381.725 412.648 383.679C416.835 385.354 420.883 387.866 424.791 391.216C431.491 396.52 436.098 401.406 438.61 405.872C441.122 410.06 441.122 413.41 438.61 415.922C436.377 418.435 431.212 419.97 423.116 420.528C415.3 421.366 404.273 420.668 390.036 418.435C382.777 417.318 373.286 416.341 361.561 415.504C350.115 414.945 337.972 414.526 325.13 414.247C312.568 413.968 300.006 413.829 287.443 413.829C274.881 414.108 264.133 414.526 255.2 415.085C223.096 417.318 195.04 419.97 171.032 423.041C147.303 426.391 129.158 429.741 116.596 433.091C110.175 434.766 105.01 436.022 101.102 436.86C97.4729 437.976 94.1229 438.395 91.0522 438.116C88.2605 437.837 85.6085 436.999 83.096 435.603C80.5835 434.207 77.6523 432.253 74.3024 429.741C62.8567 421.087 57.8318 415.224 59.2276 412.154C60.6234 408.804 69.2774 407.687 85.1897 408.804C89.098 409.083 96.775 408.943 108.221 408.385C119.946 407.547 135.858 406.152 155.958 404.197C155.678 379.631 155.12 358.973 154.283 342.223C153.445 325.474 152.189 311.655 150.514 300.768C149.118 289.88 147.443 281.505 145.489 275.643C143.535 269.501 141.162 264.756 138.37 261.406C135.02 257.218 132.927 253.729 132.089 250.937C131.252 248.145 131.81 246.191 133.764 245.075C135.997 243.679 139.766 243.26 145.07 243.818C150.653 244.377 158.051 246.191 167.264 249.262C173.405 251.495 178.291 253.589 181.92 255.543C185.549 257.218 188.061 259.172 189.457 261.406C190.853 263.639 191.272 266.291 190.713 269.362C190.434 272.153 189.457 275.783 187.782 280.249C186.945 282.482 186.247 285.972 185.688 290.718C185.13 295.464 184.572 302.443 184.013 311.655C183.734 320.867 183.595 332.732 183.595 347.248V401.266C192.528 400.429 201.88 399.591 211.651 398.754C221.421 397.637 232.029 396.52 243.475 395.404C243.754 385.354 243.894 373.21 243.894 358.973C244.173 344.736 244.452 330.638 244.731 316.68C245.011 302.722 245.15 290.159 245.15 278.993C245.429 267.547 245.569 259.87 245.569 255.962C245.848 235.862 245.708 219.531 245.15 206.969C244.592 194.127 243.754 183.798 242.638 175.982C241.8 167.886 240.544 161.744 238.869 157.557C237.194 153.09 235.24 149.182 233.006 145.832C232.982 145.796 232.958 145.76 232.935 145.724C199.177 153.271 165.109 160.832 160.729 161.377C152.404 162.484 144.689 163.252 137.585 163.682C130.796 163.874 124.044 163.788 117.331 163.427C107.26 162.884 102.259 161.35 102.325 158.823C102.668 156.334 108.204 153.997 118.931 151.812C131.986 149.102 143.934 146.24 154.776 143.225C158.508 142.097 168.044 139.497 179.29 136.432C200.834 130.559 228.654 122.976 233.961 120.745C237.517 119.136 259.652 112.51 283.818 105.276C314.797 96.0028 349.116 85.7298 351.922 83.7421C356.957 79.9271 360.118 76.4175 361.405 73.2133C364.799 64.9452 369.676 61.2494 376.037 62.1261C382.674 63.0408 392.835 70.0773 406.521 83.2355Z" fill="black"/>
</svg>
