<svg width="350" height="350" viewBox="0 0 350 350" fill="none" xmlns="http://www.w3.org/2000/svg">
<path d="M57.6667 147.352C62.6667 146.685 67.8333 146.019 73.1667 145.352C78.8333 144.352 84.5 143.519 90.1667 142.852C90.1667 130.853 90.3716 125.837 89.6667 113.852C83 114.519 77.3333 114.685 72.6667 114.352C68 114.019 62.5 112.685 56.1667 110.352C47.1667 107.019 42.8333 104.185 43.1667 101.852C43.8333 99.1852 48.1667 97.5185 56.1667 96.8519C62.5 96.1852 68.1667 95.6852 73.1667 95.3518C78.5 95.0185 83.6667 94.5185 88.6667 93.8519C87.3205 77.6977 87.3715 68.8699 77.6667 54.8518C70 44.5185 67.5 37.6852 70.1667 34.3518C73.1667 30.6852 81.6667 31.1852 95.6667 35.8519C104 38.5185 110.5 40.8519 115.167 42.8518C119.833 44.8518 123.167 46.8518 125.167 48.8518C127.167 50.8518 128.167 53.0185 128.167 55.3518C128.167 57.6852 127.667 60.3519 126.667 63.3519C123.167 69.8519 121.167 81.8518 121.167 88.3518C126.5 87.3519 132.167 86.3519 138.167 85.3519C144.5 84.0185 150.5 82.8518 156.167 81.8518C156.167 67.1558 155.684 45.1797 147.667 32.3518C139.667 20.0185 137.5 12.1852 141.167 8.85185C144.833 5.51852 155.333 6.68518 172.667 12.3518C180 15.0185 185.667 17.5185 189.667 19.8519C194 21.8519 197 24.0185 198.667 26.3518C200.333 28.6852 200.833 31.5185 200.167 34.8518C198.807 47.0912 189.45 61.9044 189.167 74.3518C196.167 72.3519 202.167 63.6852 207.167 62.3519C212.167 60.6852 215.667 66.1852 217.667 64.8519C225 60.1852 231.333 58.0185 236.667 58.3518C246.785 58.9842 266.435 78.4788 270.667 88.3518C272 90.6852 272 92.6852 270.667 94.3519C260.957 104.062 252.613 105.027 244.167 116.852C251.167 121.519 253.667 126.519 251.667 131.852C249.667 136.852 242.167 140.019 229.167 141.352C225.5 141.685 220 142.352 212.667 143.352C205.333 144.019 197.167 144.852 188.167 145.852V172.352C196.5 171.019 204.667 169.685 212.667 168.352C221 166.685 228.5 165.185 235.167 163.852C241.833 162.185 247.667 160.685 252.667 159.352C258 157.685 261.833 156.185 264.167 154.852C270.167 151.852 275.833 150.685 281.167 151.352C286.833 152.019 295 155.852 305.667 162.852C312.667 167.519 318 182.352 321.667 185.352C325.667 188.019 328.167 190.519 329.167 192.852C330.5 195.185 330.5 197.519 329.167 199.852C328.167 201.852 326.333 204.519 323.667 207.852C305.483 230.232 304.592 219.199 289.167 242.852C284.5 250.185 279.833 255.852 275.167 259.852C266.833 266.852 260 269.685 254.667 268.352C249.333 267.019 245.833 262.685 244.167 255.352C243.5 251.685 241.5 247.352 238.167 242.352C235.167 237.019 229.5 240.185 221.167 229.852C216.833 224.519 215.5 220.685 217.167 218.352C218.833 215.685 223 204.685 229.667 207.352C242.667 222.685 249.167 229.852 255.167 229.852C280.167 212.352 288.877 193.562 280.167 184.852C278.167 182.519 263 181.685 254.667 182.352C248.667 182.685 239.833 183.685 228.167 185.352C216.5 186.685 203.167 188.519 188.167 190.852C188.167 241.817 188.167 256.352 186.167 275.352C185.5 285.352 184.5 294.185 183.167 301.852C181.833 309.519 180.167 317.519 178.167 325.852C175.167 338.185 171.667 344.019 167.667 343.352C164 343.019 161.167 336.685 159.167 324.352C157.5 314.685 156.333 302.352 155.667 287.352C155.667 260.852 155.667 222.5 155.167 196.352C148.167 197.352 141.5 198.519 135.167 199.852C129.167 200.852 123.667 201.852 118.667 202.852C115.789 236.233 112.665 262.543 88.1667 285.352C78.8333 294.019 67.3333 302.352 53.6667 310.352C42.6667 317.019 36.1667 319.185 34.1667 316.852C32.5 314.852 37 308.519 47.6667 297.852C55.6667 289.852 62.6667 282.019 68.6667 274.352C83.4837 254.596 84.1038 234.955 86.6667 210.352C80.3333 212.352 74 214.852 67.6667 217.852C61.3333 220.852 55 225.185 48.6667 230.852C43.3333 235.519 39 237.519 35.6667 236.852C32.3333 235.852 28.3333 231.519 23.6667 223.852C22 220.852 20.6667 218.352 19.6667 216.352C19 214.019 18.8333 212.019 19.1667 210.352C19.8333 208.352 20.8333 206.352 22.1667 204.352C23.8333 202.352 26 200.019 28.6667 197.352C30 195.685 31 192.685 31.6667 188.352C33.8506 178.888 33.5637 179.837 31.6667 170.352C30.6667 165.352 29.1667 161.352 27.1667 158.352C20.8333 149.352 19.8333 143.685 24.1667 141.352C28.5 138.685 39.6667 140.685 57.6667 147.352ZM90.1667 159.352C84.5 160.352 79 161.185 73.6667 161.852C68.6667 162.519 63.8333 163.019 59.1667 163.352C59.1667 177.44 60.1433 180.824 58.6667 194.852C63 194.185 67.6667 193.352 72.6667 192.352C78 191.352 83.3333 190.352 88.6667 189.352C90.0918 175.813 90.1667 172.958 90.1667 159.352ZM121.167 137.352C126.833 136.352 132.5 135.352 138.167 134.352C143.833 133.019 149.5 131.852 155.167 130.852C155.807 118.694 155.667 113.522 155.667 101.352C149.333 102.685 143.333 103.852 137.667 104.852C132.333 105.852 126.833 106.852 121.167 107.852V137.352ZM155.167 149.852C149.167 150.519 143.167 151.352 137.167 152.352C131.5 153.019 126.333 153.685 121.667 154.352C121.667 168.019 121.167 170.352 120.167 183.352C125.833 182.352 131.667 181.352 137.667 180.352C143.667 179.352 149.5 178.519 155.167 177.852V149.852ZM188.167 123.852C190.833 123.185 193.167 122.685 195.167 122.352C197.5 122.019 199.833 121.519 202.167 120.852C208.5 119.519 212.667 117.352 214.667 114.352C217.865 109.555 223.344 97.8934 217.667 93.3518C216 91.6852 213.333 91.1852 209.667 91.8519C206 92.5185 202.333 93.1852 198.667 93.8519C195.333 94.5185 192 95.1852 188.667 95.8518C188.667 107.521 188.167 112.177 188.167 123.852Z" fill="black"/>
</svg>
