<svg width="500" height="500" viewBox="0 0 500 500" fill="none" xmlns="http://www.w3.org/2000/svg">
<g clip-path="url(#clip0_2559_728)">
<path d="M407.082 285C419.349 297.267 424.015 305.8 421.082 310.6C418.149 315.133 406.282 315.933 385.482 313C379.882 312.2 370.148 311.8 356.282 311.8C342.682 311.8 326.282 312.067 307.082 312.6C307.082 345.4 306.948 371.933 306.682 392.2C306.415 412.467 306.015 428.867 305.482 441.4C304.948 453.933 304.015 463.667 302.682 470.6C301.348 477.533 299.748 484.067 297.882 490.2C292.548 507 288.015 515.267 284.282 515C280.815 515 277.215 507.133 273.482 491.4C272.682 488.2 271.882 482.733 271.082 475C270.282 467.533 269.482 457 268.682 443.4C268.148 429.533 267.615 412.2 267.082 391.4C266.815 370.333 266.815 344.733 267.082 314.6C257.749 315.667 248.282 316.733 238.682 317.8C229.082 318.867 220.815 319.8 213.882 320.6C212.015 340.6 208.815 358.333 204.282 373.8C199.748 389.267 193.615 403 185.882 415C178.415 426.733 169.215 436.867 158.282 445.4C147.348 453.667 134.282 460.733 119.082 466.6C103.882 472.467 95.6152 474.333 94.2818 472.2C92.9485 470.333 98.9485 463.667 112.282 452.2C121.615 444.2 129.748 435.933 136.682 427.4C143.615 418.867 149.482 409.667 154.282 399.8C159.082 389.667 163.082 378.733 166.282 367C169.748 355.267 172.548 342.2 174.682 327.8C166.148 329.4 158.415 331 151.482 332.6C144.815 334.2 138.949 335.8 133.882 337.4C126.949 339.533 121.215 341.133 116.682 342.2C112.415 343.267 108.682 343.667 105.482 343.4C102.282 342.867 99.2152 341.8 96.2818 340.2C93.6152 338.6 90.2818 336.333 86.2818 333.4C75.3485 325.133 70.2818 319.8 71.0818 317.4C72.1485 315 78.6818 314.067 90.6818 314.6C93.0818 314.6 97.0818 314.467 102.682 314.2C108.548 313.667 115.348 313 123.082 312.2C130.815 311.4 139.348 310.467 148.682 309.4C158.282 308.067 167.882 306.733 177.482 305.4C177.482 304.6 177.482 303.933 177.482 303.4C177.748 302.6 177.882 301.8 177.882 301C178.415 296.2 178.682 291 178.682 285.4C178.948 279.8 178.815 274.2 178.282 268.6C177.748 262.733 176.682 257 175.082 251.4C173.748 245.533 171.749 240.067 169.082 235C163.749 235.533 159.215 235.533 155.482 235C152.015 234.2 147.348 232.333 141.482 229.4C133.748 225.667 130.015 222.6 130.282 220.2C130.548 217.533 135.082 215.933 143.882 215.4C153.749 214.6 164.415 213.4 175.882 211.8C187.349 210.2 198.548 208.467 209.482 206.6C220.682 204.467 231.082 202.333 240.682 200.2C250.548 197.8 258.949 195.667 265.882 193.8C277.349 190.6 286.815 188.2 294.282 186.6C302.015 184.733 308.549 183.667 313.882 183.4C319.215 182.867 323.882 183 327.882 183.8C331.882 184.6 335.882 185.933 339.882 187.8C351.615 192.867 357.349 197.667 357.082 202.2C356.815 206.733 351.615 210.067 341.482 212.2C334.015 213.533 326.549 214.733 319.082 215.8C311.882 216.6 303.348 217.667 293.482 219C303.348 224.6 309.082 229.533 310.682 233.8C312.548 237.8 312.148 243 309.482 249.4C306.548 256.333 305.482 268.867 306.282 287C311.615 286.2 317.882 285.267 325.082 284.2C332.282 282.867 338.548 281.533 343.882 280.2C353.482 278.067 361.615 276.6 368.282 275.8C374.949 274.733 380.682 274.467 385.482 275C390.282 275.267 394.282 276.333 397.482 278.2C400.948 279.8 404.149 282.067 407.082 285ZM267.082 292.2C267.082 282.067 266.948 273.667 266.682 267C266.415 260.067 265.882 254.067 265.082 249C264.282 243.933 263.215 239.533 261.882 235.8C260.815 232.067 259.215 228.067 257.082 223.8C250.149 224.6 242.149 225.533 233.082 226.6C224.015 227.667 214.949 228.867 205.882 230.2C210.949 232.867 214.815 235.267 217.482 237.4C220.148 239.533 221.882 241.667 222.682 243.8C223.482 245.933 223.615 248.067 223.082 250.2C222.815 252.333 222.149 254.6 221.082 257C219.749 260.467 218.682 265.667 217.882 272.6C217.082 279.267 216.415 288.2 215.882 299.4C217.749 299.133 220.415 298.733 223.882 298.2C227.615 297.667 231.748 297.133 236.282 296.6C241.082 295.8 246.148 295.133 251.482 294.6C256.815 293.8 262.015 293 267.082 292.2Z" fill="black"/>
<path d="M430.147 151.2C444.28 156.533 451.347 160.533 451.347 163.2C451.347 165.6 444.013 168.267 429.347 171.2C412.28 174.4 398.547 176.667 388.147 178C378.013 179.333 369.747 179.6 363.347 178.8C357.213 178 352.147 176 348.147 172.8C344.147 169.6 340.013 165.2 335.747 159.6C322.413 142.267 309.08 124.667 295.747 106.8C282.68 88.6667 269.88 70.8 257.347 53.2C250.68 43.8667 244.147 36.9333 237.747 32.4C231.613 27.8667 224.547 24.4 216.547 22C210.947 20.4 206.68 18.5333 203.747 16.4C201.08 14.2667 199.88 12.1333 200.147 9.99999C200.68 7.86667 202.813 6 206.547 4.39999C210.28 2.53333 215.88 1.2 223.347 0.399995C228.147 -0.133332 232.413 -0.133332 236.147 0.399995C240.147 0.666658 243.88 1.73333 247.347 3.6C251.08 5.46666 254.947 8.26666 258.947 12C262.947 15.7333 267.747 20.6667 273.347 26.8C291.213 47.0667 306.547 63.8667 319.347 77.2C332.147 90.2667 344.147 101.333 355.347 110.4C366.547 119.2 377.88 126.667 389.347 132.8C400.813 138.933 414.413 145.067 430.147 151.2ZM227.747 90.8C226.413 91.8667 225.08 92.9333 223.747 94C222.413 95.0667 220.68 96.8 218.547 99.2C216.68 101.333 214.147 104.267 210.947 108C207.747 111.467 203.613 116.267 198.547 122.4C184.413 139.2 168.813 154.133 151.747 167.2C134.947 180.267 117.08 189.467 98.1465 194.8C81.3465 199.333 72.4132 200.267 71.3465 197.6C70.5465 194.933 77.2132 188.933 91.3465 179.6C97.7465 175.333 103.747 170.933 109.347 166.4C115.213 161.6 120.68 156.533 125.747 151.2C131.08 145.867 136.28 140.133 141.347 134C146.413 127.867 151.613 121.2 156.947 114C162.28 106.8 166.68 100.533 170.147 95.2C173.613 89.8667 176.28 85.2 178.147 81.2C180.013 77.2 181.213 73.7333 181.747 70.8C182.28 67.8667 182.413 64.9333 182.147 62C181.347 56.4 181.213 52 181.747 48.8C182.28 45.3333 183.613 43.2 185.747 42.4C188.147 41.6 191.48 42.1333 195.747 44C200.28 45.8667 206.013 48.9333 212.947 53.2C220.68 58 226.547 62.2667 230.547 66C234.547 69.4667 236.947 72.6667 237.747 75.6C238.813 78.2667 238.413 80.8 236.547 83.2C234.68 85.6 231.747 88.1333 227.747 90.8Z" fill="black"/>
</g>
<defs>
<clipPath id="clip0_2559_728">
<rect width="500" height="500" fill="white"/>
</clipPath>
</defs>
</svg>
