<svg width="500" height="500" viewBox="0 0 500 500" fill="none" xmlns="http://www.w3.org/2000/svg">
<g clip-path="url(#clip0_2582_3277)">
<path fill-rule="evenodd" clip-rule="evenodd" d="M318.47 129.489C261.186 144.629 219.341 152.253 192.938 152.362C220.955 121.127 237.865 103.878 243.669 100.615C249.526 96.8084 252.726 92.1877 253.269 86.7529C253.866 80.7746 246.243 72.3291 230.401 61.4163C214.56 50.5035 203.434 44.7272 197.024 44.0873C191.107 43.4967 187.878 45.9188 187.335 51.3536C186.793 56.7885 186.881 63.3841 187.601 71.1405C188.868 78.4027 181.052 96.8339 164.154 126.434C147.803 155.54 119.458 187.566 79.1191 222.511C72.6055 227.898 69.2402 231.679 69.0232 233.853C68.8605 235.484 69.5187 236.373 70.9979 236.52C75.9285 237.013 90.4938 230.782 114.694 217.829C138.948 204.332 159.749 188.02 177.095 168.894C188.164 172.743 202.081 175.505 218.845 177.178C235.609 178.852 258.396 177.559 287.206 173.299C316.509 169.089 344.251 165.546 370.433 162.67C396.615 159.795 410.113 154.281 410.927 146.129C411.469 140.694 406.753 135.558 396.779 130.72C386.804 125.882 376.393 122.921 365.546 121.838C355.192 120.805 339.5 123.355 318.47 129.489ZM371.579 257.708C373.446 251.841 375.979 246.908 379.179 242.908C382.379 238.908 384.646 235.574 385.979 232.908C387.313 229.974 387.179 227.174 385.579 224.508C384.246 221.574 381.313 218.508 376.779 215.308C372.246 211.841 365.713 207.708 357.179 202.908C351.046 199.441 345.979 196.908 341.979 195.308C337.979 193.441 334.513 192.508 331.579 192.508C328.646 192.241 325.713 192.774 322.779 194.108C319.846 195.441 316.246 197.308 311.979 199.708C309.313 201.308 304.246 203.174 296.779 205.308C289.579 207.441 281.179 209.574 271.579 211.708C262.246 213.574 252.379 215.308 241.979 216.908C231.579 218.508 222.113 219.574 213.579 220.108C200.513 216.908 190.113 214.908 182.379 214.108C174.646 213.308 169.046 213.574 165.579 214.908C162.113 216.241 160.513 218.374 160.779 221.308C161.313 224.241 163.313 227.708 166.779 231.708C170.246 235.708 173.179 242.108 175.579 250.908C182.101 271.777 182.379 274.832 182.379 296.508C182.842 318.234 182.277 330.125 179.579 351.708C178.513 360.241 177.313 366.241 175.979 369.708C172.513 378.241 170.646 385.841 170.379 392.508C170.113 398.908 172.246 406.241 176.779 414.508C179.979 420.374 183.313 424.908 186.779 428.108C190.513 431.574 193.979 433.174 197.179 432.908C200.646 432.641 203.713 430.374 206.379 426.108C209.313 421.841 211.713 415.041 213.579 405.708C219.713 406.508 225.846 406.774 231.979 406.508C238.113 406.241 245.046 405.441 252.779 404.108C259.179 403.041 264.779 402.241 269.579 401.708C274.379 400.908 278.646 400.374 282.379 400.108C286.113 399.574 289.579 399.174 292.779 398.908C295.979 398.641 299.046 398.508 301.979 398.508C306.513 398.508 309.846 398.908 311.979 399.708C314.113 400.241 315.579 402.774 316.379 407.308C317.713 414.241 318.913 420.241 319.979 425.308C321.313 430.641 322.646 435.574 323.979 440.108C326.913 449.708 330.246 454.908 333.979 455.708C337.713 456.774 343.579 453.041 351.579 444.508C356.379 439.441 360.113 434.508 362.779 429.708C365.713 424.908 367.846 418.641 369.179 410.908C370.513 403.174 371.046 393.308 370.779 381.308C370.779 363.715 369.887 349.164 368.976 334.316C368.228 322.129 367.468 309.741 367.179 295.308C367.162 294.439 367.146 293.611 367.129 292.818C366.795 276.297 366.775 275.324 371.579 257.708ZM326.779 296.108C327.303 320.213 326.982 334.405 326.379 358.508C325.846 369.441 325.046 376.641 323.979 380.108C322.913 383.308 321.979 384.508 321.179 383.708C317.446 380.241 313.846 377.441 310.379 375.308C306.913 372.908 303.046 371.441 298.779 370.908C294.513 370.108 289.446 370.108 283.579 370.908C277.979 371.441 271.179 372.774 263.179 374.908C253.579 377.308 245.046 379.174 237.579 380.508C230.113 381.574 223.179 382.108 216.779 382.108L216.953 380.438C219.469 356.299 221.043 341.197 221.579 316.508C231.446 318.641 242.513 319.174 254.779 318.108C267.313 317.041 282.779 314.108 301.179 309.308C320.379 304.241 320.779 296.108 302.379 284.908C297.046 281.708 291.313 280.241 285.179 280.508C279.046 280.508 271.179 282.241 261.579 285.708C251.446 289.441 243.579 292.108 237.979 293.708C232.379 295.041 227.046 295.974 221.979 296.508C221.979 272.145 221.825 266.968 217.579 242.908C222.913 242.641 229.179 241.708 236.379 240.108C249.179 237.708 261.046 235.974 271.979 234.908C282.913 233.841 293.046 233.041 302.379 232.508C307.179 232.241 310.913 232.241 313.579 232.508C316.246 232.508 318.246 233.308 319.579 234.908C321.179 236.241 322.246 238.508 322.779 241.708C323.579 244.641 324.246 248.908 324.779 254.508C325.097 258.792 325.369 262.207 325.601 265.118C326.476 276.1 326.779 279.907 326.779 296.108Z" fill="black"/>
</g>
<defs>
<clipPath id="clip0_2582_3277">
<rect width="500" height="500" fill="white"/>
</clipPath>
</defs>
</svg>
