<svg width="500" height="500" viewBox="0 0 500 500" fill="none" xmlns="http://www.w3.org/2000/svg">
<path d="M337.218 429.959C339.378 424.09 337.064 416.213 330.277 406.327C324.416 397.678 320.56 383.005 318.709 362.308C317.476 347.48 315.47 340.221 312.694 340.53C310.226 340.838 307.604 347.48 304.828 360.454C302.977 368.795 301.126 375.745 299.275 381.306C297.424 386.866 295.111 391.5 292.335 395.207C289.867 398.605 286.936 401.23 283.543 403.084C280.458 404.937 276.602 406.482 271.975 407.717C264.88 409.571 257.785 410.807 250.69 411.424C243.595 411.733 237.888 411.579 233.569 410.961C225.24 409.725 219.996 407.409 217.837 404.011C215.677 400.613 214.443 393.971 214.135 384.086V374.819V361.844V347.943C214.443 343.001 214.752 338.213 215.06 333.579C226.783 332.035 237.271 330.799 246.525 329.872C255.78 328.637 263.492 327.71 269.661 327.092C282.617 325.547 290.175 321.995 292.335 316.435C294.494 310.874 291.563 305.314 283.543 299.753C287.862 287.397 291.718 278.13 295.111 271.952C298.504 265.464 302.36 260.985 306.679 258.514C315.316 253.571 319.018 248.938 317.784 244.613C316.55 239.979 308.684 233.029 294.185 223.762C284.006 217.274 275.985 214.031 270.124 214.031C264.571 213.722 258.402 215.73 251.615 220.055C242.361 226.233 232.644 231.021 222.464 234.419C212.593 237.508 200.408 239.825 185.909 241.369C172.953 242.914 166.321 244.922 166.012 247.393C165.704 249.556 171.256 254.653 182.67 262.684C188.531 267.009 193.93 269.326 198.865 269.635C204.109 269.944 211.513 267.936 221.076 263.611C226.32 261.14 230.33 259.441 233.106 258.514C235.883 257.587 238.813 256.66 241.898 255.734C246.525 254.189 249.61 254.498 251.153 256.66C252.695 258.823 252.541 264.847 250.69 274.732C249.456 281.219 248.53 286.161 247.913 289.559C247.297 292.648 246.217 296.819 244.674 302.07C239.43 303.615 233.261 305.005 226.166 306.241C219.071 307.476 211.513 308.712 203.492 309.947C187.452 305.314 177.58 304.078 173.878 306.241C170.177 308.094 170.485 313.654 174.804 322.922C177.272 328.173 178.968 334.66 179.894 342.383C180.819 349.797 180.973 357.056 180.356 364.161C179.123 377.753 178.814 389.337 179.431 398.914C180.048 408.181 181.59 416.058 184.058 422.545C186.526 429.032 189.919 434.129 194.238 437.836C198.557 441.543 203.647 444.478 209.508 446.64C223.698 451.583 239.585 454.363 257.168 454.981C274.751 455.29 294.185 451.892 315.47 444.787C327.81 440.462 335.059 435.519 337.218 429.959Z" fill="black"/>
<path fill-rule="evenodd" clip-rule="evenodd" d="M290.02 113.265C295.026 109.845 299.895 106.965 304.63 104.625C310.714 101.476 315.19 98.409 318.057 95.4232C320.924 92.4373 321.695 89.5429 320.369 86.7397C319.231 83.5424 315.706 80.5398 309.793 77.7321C303.881 74.9243 295.188 72.1242 283.713 69.3317C273.318 66.8101 264.945 65.3697 258.594 65.0106C252.431 64.2573 247.605 64.5016 244.117 65.7434C240.629 66.9852 238.479 69.2246 237.666 72.4615C236.75 75.4077 236.632 79.2161 237.312 83.8865C238.239 91.0893 233.06 102.759 221.774 118.894C210.488 135.03 192.34 154.428 167.329 177.088C156.215 187.268 151.57 193.998 153.393 197.279C155.112 200.269 161.869 199.01 173.663 193.501C182.364 189.421 190.431 185.402 197.865 181.446C205.486 177.095 213.294 172.35 221.29 167.211C229.182 161.781 237.594 155.511 246.525 148.401C255.748 141.187 266.061 132.439 277.465 122.156C281.017 119.254 285.202 116.29 290.02 113.265ZM325 182.693C325 190.483 321.944 195.936 315.832 199.052C310.025 202.168 302.996 201.545 294.745 197.183C289.55 194.69 284.813 190.327 280.535 184.095C276.562 177.862 273.047 171.63 269.991 165.398C265.713 155.426 264.185 149.506 265.407 147.636C266.935 145.455 272.742 145.455 282.827 147.636C299.635 151.064 310.789 155.582 316.29 161.191C322.097 166.8 325 173.967 325 182.693Z" fill="black"/>
</svg>
