<svg width="350" height="350" viewBox="0 0 350 350" fill="none" xmlns="http://www.w3.org/2000/svg">
<path d="M260.526 269.36C229.974 275.47 173.332 288.818 143.526 297.76C135.526 300.16 128.126 302.56 121.326 304.96C114.926 307.36 109.926 309.56 106.326 311.56C99.5263 315.16 94.1263 317.76 90.1263 319.36C83.7466 321.487 78.2605 320.228 75.1263 313.96C73.9263 310.76 72.3263 305.96 70.3263 299.56C67.1263 289.96 66.5263 283.56 68.5263 280.36C70.9263 276.76 76.9263 273.56 86.5263 270.76C90.9263 269.56 95.7263 266.96 100.926 262.96C106.526 258.96 111.926 254.36 117.126 249.16C130.326 235.96 140.126 224.36 146.526 214.36C152.926 204.36 156.326 196.56 156.726 190.96C157.526 180.56 159.726 174.76 163.326 173.56C167.326 172.36 174.926 174.96 186.126 181.36C199.326 189.36 206.326 195.36 207.126 199.36C207.926 203.36 202.926 208.36 192.126 214.36C189.726 215.56 186.726 217.36 183.126 219.76C179.926 222.16 175.526 225.76 169.926 230.56C164.726 234.96 157.926 240.96 149.526 248.56C141.126 255.76 130.526 265.36 117.726 277.36C124.926 276.16 131.726 274.96 138.126 273.76C166.316 268.474 221.428 257.876 249.726 253.16C247.726 249.96 245.726 246.96 243.726 244.16C242.126 240.96 240.526 237.96 238.926 235.16C233.726 226.36 232.526 220.76 235.326 218.36C238.126 215.56 244.326 216.16 253.926 220.16C264.326 224.56 272.726 228.56 279.126 232.16C285.526 235.76 290.526 239.36 294.126 242.96C297.726 246.16 299.926 249.76 300.726 253.76C301.926 257.76 302.326 262.16 301.926 266.96C300.726 278.96 296.526 286.16 289.326 288.56C282.526 290.96 275.926 288.56 269.526 281.36C268.326 279.36 266.926 277.36 265.326 275.36C264.126 273.36 262.526 271.36 260.526 269.36ZM130.926 184.96C126.126 188.16 121.526 191.76 117.126 195.76C112.726 199.76 106.326 205.16 97.9263 211.96C88.3263 220.36 78.5263 227.96 68.5263 234.76C58.5263 241.16 48.9263 245.96 39.7263 249.16C30.5263 251.96 25.3263 251.96 24.1263 249.16C23.3263 246.36 26.3263 242.16 33.1263 236.56C53.9263 218.56 68.5263 203.56 76.9263 191.56C85.7263 179.56 90.1263 170.16 90.1263 163.36C90.1263 156.96 92.5263 152.96 97.3263 151.36C102.126 149.76 110.726 151.36 123.126 156.16C135.926 160.96 142.926 165.36 144.126 169.36C145.726 173.36 141.326 178.56 130.926 184.96ZM313.326 183.76C316.926 195.76 315.526 203.96 309.126 208.36C303.126 212.76 294.326 211.56 282.726 204.76C277.126 201.56 269.526 196.36 259.926 189.16C250.326 181.96 239.726 172.76 228.126 161.56C222.526 155.96 220.326 151.76 221.526 148.96C223.126 146.16 228.526 145.16 237.726 145.96C262.526 147.96 280.326 151.96 291.126 157.96C302.326 163.96 309.726 172.56 313.326 183.76ZM304.326 86.56C320.726 95.76 327.526 103.56 324.726 109.96C321.926 116.36 307.926 119.76 282.726 120.16C273.926 120.16 265.726 120.56 258.126 121.36C250.926 121.76 241.926 122.56 231.126 123.76C220.726 124.96 207.926 126.96 192.726 129.76C177.526 132.16 157.726 135.56 133.326 139.96C125.726 141.16 119.126 142.16 113.526 142.96C108.326 143.76 103.526 144.16 99.1263 144.16C94.7263 143.76 90.3263 142.96 85.9263 141.76C81.9263 140.16 77.3263 138.16 72.1263 135.76C62.9263 131.36 58.7263 127.76 59.5263 124.96C60.7263 121.76 67.1263 119.96 78.7263 119.56C87.1263 119.16 97.7263 118.16 110.526 116.56C123.726 114.56 137.726 112.16 152.526 109.36C167.326 106.56 182.126 103.56 196.926 100.36C212.126 97.16 225.926 93.96 238.326 90.76C256.326 86.36 270.326 83.76 280.326 82.96C290.726 82.16 298.726 83.36 304.326 86.56ZM218.526 62.56C220.126 67.76 220.326 72.36 219.126 76.36C218.326 79.96 216.326 82.96 213.126 85.36C210.326 87.36 206.726 88.56 202.326 88.96C198.326 88.96 193.926 87.76 189.126 85.36C181.126 81.36 173.126 75.96 165.126 69.16C157.126 62.36 149.126 54.76 141.126 46.36C135.526 39.96 133.326 35.76 134.526 33.76C136.126 31.76 143.326 30.56 156.126 30.16C175.326 29.36 189.526 31.56 198.726 36.76C207.926 41.96 214.526 50.56 218.526 62.56Z" fill="black"/>
</svg>
