<svg width="350" height="350" viewBox="0 0 350 350" fill="none" xmlns="http://www.w3.org/2000/svg">
<path d="M318.494 276.215C320.594 278.548 322.111 280.998 323.044 283.565C324.211 285.898 324.444 288.348 323.744 290.915C323.044 293.715 321.294 296.398 318.494 298.965C315.694 301.532 311.611 303.982 306.244 306.315C297.844 310.048 288.394 312.848 277.894 314.715C267.394 316.582 256.661 317.515 245.694 317.515C234.727 317.748 224.111 317.048 213.844 315.415C203.577 313.782 194.477 311.215 186.544 307.715C174.177 302.348 165.661 294.298 160.994 283.565C156.561 272.832 155.511 256.965 157.844 235.965C159.711 219.165 160.411 205.398 159.944 194.665C159.477 183.698 158.194 175.182 156.094 169.115C151.194 188.015 145.361 204.815 138.594 219.515C131.827 234.215 124.127 247.048 115.494 258.015C106.861 268.982 97.1772 278.315 86.4439 286.015C75.9438 293.948 64.3938 300.598 51.7938 305.965C35.6938 312.732 26.8272 314.715 25.1938 311.915C23.7938 309.348 29.9772 303.048 43.7438 293.015C65.2105 277.148 82.5938 258.248 95.8938 236.315C109.427 214.148 119.811 187.198 127.044 155.465C118.411 157.798 111.411 159.548 106.044 160.715C100.677 161.882 96.1272 162.465 92.3939 162.465C88.6605 162.465 85.1605 161.882 81.8938 160.715C78.8605 159.548 75.2438 157.915 71.0438 155.815C63.3438 151.848 60.0772 148.582 61.2438 146.015C62.6438 143.448 68.7105 141.932 79.4438 141.465C84.8105 140.998 92.0439 140.182 101.144 139.015C110.244 137.848 120.394 136.098 131.594 133.765C135.794 110.898 138.011 93.165 138.244 80.565C138.477 67.7317 136.727 58.6317 132.994 53.265C126.694 44.165 125.294 37.9817 128.794 34.715C132.294 31.4483 141.511 32.8483 156.444 38.915C164.144 42.1817 170.211 44.865 174.644 46.965C179.311 48.8317 182.461 50.815 184.094 52.915C185.961 54.7817 186.544 56.9983 185.844 59.565C185.377 62.1317 183.744 65.3983 180.944 69.365C179.777 70.9983 178.727 72.865 177.794 74.965C177.094 77.065 176.161 80.0983 174.994 84.065C173.827 88.0317 172.544 93.2817 171.144 99.815C169.744 106.348 167.994 114.865 165.894 125.365C177.794 122.098 189.694 118.365 201.594 114.165C210.694 110.898 218.277 109.148 224.344 108.915C230.411 108.448 236.127 110.082 241.494 113.815C245.694 116.615 248.844 119.182 250.944 121.515C253.044 123.848 253.511 126.065 252.344 128.165C251.411 130.265 248.494 132.248 243.594 134.115C238.694 135.748 231.227 137.382 221.194 139.015C209.761 140.882 199.261 142.632 189.694 144.265C180.127 145.898 171.377 147.415 163.444 148.815C172.311 153.482 179.077 157.215 183.744 160.015C188.644 162.582 192.027 164.915 193.894 167.015C195.994 168.882 196.811 170.748 196.344 172.615C195.877 174.482 194.944 176.815 193.544 179.615C192.377 181.715 191.327 184.398 190.394 187.665C189.694 190.698 188.994 195.015 188.294 200.615C187.594 206.215 187.011 213.332 186.544 221.965C186.077 230.598 185.844 241.448 185.844 254.515C185.844 258.248 186.077 261.398 186.544 263.965C187.244 266.532 188.294 268.748 189.694 270.615C191.327 272.248 193.427 273.648 195.994 274.815C198.794 275.982 202.411 277.148 206.844 278.315C214.777 280.182 223.644 280.998 233.444 280.765C243.244 280.532 254.094 278.432 265.994 274.465C269.727 273.298 272.877 271.898 275.444 270.265C278.244 268.632 280.577 266.182 282.444 262.915C284.544 259.415 286.411 254.865 288.044 249.265C289.911 243.665 291.894 236.198 293.994 226.865C297.027 213.332 300.177 207.032 303.444 207.965C306.944 208.898 308.694 215.665 308.694 228.265C308.694 242.732 309.511 253.582 311.144 260.815C313.011 267.815 315.461 272.948 318.494 276.215Z" fill="black"/>
</svg>
