<svg width="359" height="350" viewBox="0 0 359 350" fill="none" xmlns="http://www.w3.org/2000/svg">
<path d="M350.788 286.109C358.254 295.176 360.388 303.042 357.188 309.709C354.254 316.109 343.321 322.109 324.388 327.709C317.188 329.842 308.921 331.309 299.588 332.109C290.521 333.176 281.454 333.709 272.388 333.709C263.321 333.709 254.654 333.309 246.388 332.509C238.121 331.976 231.321 331.042 225.988 329.709C196.921 323.309 182.654 301.442 183.188 264.109C183.188 256.909 183.454 249.709 183.988 242.509C184.788 235.309 186.121 227.309 187.988 218.509C189.854 209.709 192.254 199.709 195.188 188.509C198.388 177.042 202.388 163.576 207.188 148.109C209.321 141.442 209.988 137.442 209.188 136.109C208.654 134.776 206.521 134.642 202.788 135.709C197.454 137.042 191.454 138.642 184.788 140.509C178.121 142.376 171.188 144.376 163.988 146.509C157.054 172.642 149.054 195.176 139.988 214.109C130.921 233.042 120.521 249.309 108.788 262.909C97.3209 276.242 84.3876 287.442 69.9876 296.509C55.5876 305.309 39.5876 312.909 21.9876 319.309C-5.4791 328.909 -7.21244 324.376 16.7876 305.709C31.1876 294.509 43.5876 283.842 53.9876 273.709C64.6542 263.309 73.9876 252.509 81.9876 241.309C89.9876 230.109 96.9209 217.976 102.788 204.909C108.654 191.842 113.854 176.909 118.388 160.109C108.521 163.042 99.5876 165.842 91.5876 168.509C83.8542 171.176 78.1209 173.442 74.3876 175.309C69.3209 177.709 65.0542 179.442 61.5876 180.509C58.1209 181.576 54.9209 181.976 51.9876 181.709C49.3209 181.442 46.5209 180.509 43.5876 178.909C40.6542 177.042 37.0542 174.509 32.7876 171.309C22.3876 163.309 17.4542 158.109 17.9876 155.709C18.7876 153.042 25.5876 151.042 38.3876 149.709C55.1876 147.842 70.7876 145.576 85.1876 142.909C99.5876 140.242 112.788 137.442 124.788 134.509C125.854 129.709 126.921 124.242 127.988 118.109C129.321 111.709 130.654 105.442 131.988 99.3091C134.921 83.0424 136.254 70.3758 135.988 61.3091C135.721 51.9757 133.721 44.2424 129.988 38.1091C122.788 26.3758 121.588 19.3091 126.388 16.9091C131.454 14.2424 144.254 17.4424 164.788 26.5091C172.521 29.9758 178.521 33.1758 182.788 36.1091C187.054 38.7757 189.854 41.4424 191.188 44.1091C192.521 46.7758 192.654 49.4424 191.588 52.1091C190.788 54.5091 189.188 57.0424 186.788 59.7091C182.254 64.5091 178.788 74.2424 176.388 88.9091C175.321 94.2424 174.254 99.5758 173.188 104.909C172.388 109.976 171.454 114.909 170.388 119.709C187.988 112.509 199.854 106.242 205.988 100.909C208.654 98.5091 211.188 96.7758 213.588 95.7091C215.988 94.3758 218.654 93.7091 221.588 93.7091C224.521 93.4424 227.854 93.8424 231.588 94.9091C235.321 95.9758 239.988 97.7091 245.588 100.109C255.454 104.642 263.054 108.509 268.388 111.709C273.721 114.642 276.921 117.576 277.988 120.509C279.054 123.442 278.121 126.376 275.188 129.309C272.254 132.242 267.454 135.709 260.788 139.709C256.788 142.109 252.654 145.976 248.388 151.309C244.388 156.642 240.921 163.309 237.988 171.309C234.254 181.709 231.188 190.909 228.788 198.909C226.388 206.642 224.521 214.109 223.188 221.309C221.854 228.509 220.788 235.709 219.988 242.909C219.188 249.842 218.521 257.709 217.988 266.509C217.454 273.176 218.788 278.242 221.988 281.709C225.188 285.176 230.254 287.576 237.188 288.909C244.121 290.242 252.254 291.042 261.588 291.309C270.921 291.309 281.988 290.109 294.788 287.709C298.254 286.909 301.054 285.842 303.188 284.509C305.588 283.176 307.721 280.642 309.588 276.909C311.721 273.176 313.721 267.976 315.588 261.309C317.721 254.642 320.121 245.709 322.788 234.509C327.588 214.242 331.588 204.109 334.788 204.109C338.254 203.842 340.521 214.109 341.588 234.909C342.388 250.909 343.588 262.909 345.188 270.909C346.788 278.642 348.654 283.709 350.788 286.109Z" fill="black"/>
</svg>
