<svg width="500" height="500" viewBox="0 0 500 500" fill="none" xmlns="http://www.w3.org/2000/svg">
<path d="M156.631 452.6C149.374 448.294 149.031 439.2 147.031 434C145.431 428.4 144.631 423 144.631 417.8C144.631 412.6 145.431 407 147.031 401C148.631 395 150.831 387.8 153.631 379.4C155.631 374.2 157.231 368.2 158.431 361.4C159.631 354.6 160.431 346.2 160.831 336.2C161.631 326.2 162.031 314.2 162.031 300.2C162.431 286.2 162.431 269.4 162.031 249.8C161.631 236.2 161.031 225.2 160.231 216.8C159.831 208.4 158.831 201.2 157.231 195.2C147.631 208.4 138.231 219.4 129.031 228.2C119.831 237 110.031 245.2 99.6308 252.8C88.8308 260 82.2308 262.8 79.8308 261.2C77.4308 259.2 80.2308 252.6 88.2308 241.4C95.0308 231.8 101.431 222.4 107.431 213.2C113.431 204 118.831 194.4 123.631 184.4C128.831 174 134.031 163.2 139.231 152C144.431 140.4 149.431 127.8 154.231 114.2C159.831 99.8 163.231 88.2 164.431 79.4C165.631 70.6 164.631 62.6 161.431 55.4C156.631 44.6 157.431 38 163.831 35.6C170.631 33.2 184.031 38 204.031 50C211.631 54.8 217.431 59 221.431 62.6C225.831 65.8 228.631 68.8 229.831 71.6C231.031 74 231.031 76.6 229.831 79.4C228.631 81.8 226.831 84.4 224.431 87.2C222.031 90.8 219.631 94 217.231 96.8C214.831 99.6 212.231 103.6 209.431 108.8C206.631 113.6 203.031 120 198.631 128C194.231 135.6 188.631 145.6 181.831 158C181.031 160 180.031 161.8 178.831 163.4C178.031 164.6 177.031 166 175.831 167.6C183.031 176.8 187.831 186.8 190.231 197.6C193.031 208.4 194.631 220.4 195.031 233.6C195.031 240 195.031 249.8 195.031 263C195.431 275.8 195.631 289.6 195.631 304.4C196.031 319.2 196.231 334 196.231 348.8C196.231 363.6 196.031 376.2 195.631 386.6C207.631 385.8 220.231 384.6 233.431 383C247.031 381 260.431 378.4 273.631 375.2L273.031 325.4C264.631 327.4 256.231 328.6 247.831 329C239.831 329 231.831 328 223.831 326C213.831 323.6 208.831 320.6 208.831 317C208.831 313.4 214.431 310.8 225.631 309.2C230.431 308.4 237.231 307 246.031 305C254.831 303 263.831 300.4 273.031 297.2V253.4C265.831 255 258.231 255.8 250.231 255.8C242.631 255.4 233.431 254 222.631 251.6C212.231 249.6 207.231 247 207.631 243.8C208.431 240.6 214.431 238.2 225.631 236.6C230.431 235.8 237.231 234.4 246.031 232.4C254.831 230 263.831 227.2 273.031 224C272.631 212.8 271.831 204 270.631 197.6C269.431 191.2 266.831 185.2 262.831 179.6C247.231 181.6 233.631 181.4 222.031 179C208.831 176.6 202.431 173.6 202.831 170C203.631 166 210.231 162.8 222.631 160.4C251.831 155.2 286.631 144.8 327.031 129.2C339.431 124.4 349.231 122 356.431 122C364.031 122 371.231 123.2 378.031 125.6C388.031 129.6 392.831 134.8 392.431 141.2C392.431 147.6 384.831 152.2 369.631 155C367.631 155.4 365.231 156 362.431 156.8C360.031 157.2 356.431 158 351.631 159.2C346.831 160.4 340.031 162 331.231 164C322.431 166 310.431 169 295.231 173C302.431 175 307.831 177 311.431 179C315.031 180.6 317.631 182.2 319.231 183.8C321.231 185.4 322.031 187.2 321.631 189.2C321.631 190.8 321.031 192.4 319.831 194C317.431 198.8 315.631 203.6 314.431 208.4C335.231 200.8 351.231 199.6 362.431 204.8C371.231 208.8 375.431 213.6 375.031 219.2C375.031 224.8 368.431 229.4 355.231 233C345.631 235.4 337.431 237.4 330.631 239C324.231 240.2 318.431 241.4 313.231 242.6V282.2C324.031 278.2 333.231 276 340.831 275.6C348.431 275.2 355.631 276 362.431 278C374.431 282.4 380.031 287.4 379.231 293C378.431 298.2 370.431 302.4 355.231 305.6C348.031 307.2 340.831 308.8 333.631 310.4C326.831 311.6 320.031 313.2 313.231 315.2V366.2C320.031 364.2 326.231 362.6 331.831 361.4C337.431 359.8 342.831 358 348.031 356C360.031 351.6 370.031 349.8 378.031 350.6C386.031 351 395.631 354.8 406.831 362C418.431 369.2 423.231 375.6 421.231 381.2C419.231 386.4 409.031 389 390.631 389C366.631 389 342.431 390.6 318.031 393.8C294.031 396.6 268.831 401 242.431 407C233.631 409.4 225.631 410.6 218.431 410.6C211.231 410.6 203.431 408.6 195.031 404.6C194.231 415.4 192.831 424.8 190.831 432.8C189.231 440.4 187.231 448.8 184.831 458C180.892 473.1 165.73 458 156.631 452.6ZM334.831 87.2C334.831 98.8 331.431 106.2 324.631 109.4C317.831 112.2 311.431 111 305.431 105.8C303.831 104.6 302.031 103.2 300.031 101.6C298.431 100 296.031 97.6 292.831 94.4C290.031 90.8 286.231 86.2 281.431 80.6C277.031 75 271.431 67.4 264.631 57.8C258.631 49.8 256.431 44.6 258.031 42.2C259.631 39.8 265.631 39.2 276.031 40.4C299.631 43.2 315.231 48.4 322.831 56C330.831 63.6 334.831 74 334.831 87.2Z" fill="black"/>
</svg>
