<svg width="500" height="500" viewBox="0 0 500 500" fill="none" xmlns="http://www.w3.org/2000/svg">
<path d="M225.211 212.441C217.544 242.441 208.377 269.108 197.711 292.441C187.377 315.775 175.211 336.108 161.211 353.441C147.211 370.775 131.377 385.608 113.711 397.941C96.0439 409.941 76.0439 419.775 53.7105 427.441C40.7105 432.108 33.5439 432.941 32.2105 429.941C30.8772 427.275 35.8772 421.941 47.2105 413.941C65.5439 401.275 81.5439 388.441 95.2105 375.441C109.211 362.441 121.544 348.608 132.211 333.941C143.211 319.275 152.544 303.108 160.211 285.441C168.211 267.775 175.377 247.775 181.711 225.441C169.711 229.108 158.377 232.775 147.711 236.441C137.044 240.108 127.711 243.775 119.711 247.441C113.377 250.108 108.044 252.108 103.711 253.441C99.7105 254.775 96.0439 255.275 92.7105 254.941C89.3772 254.608 85.8772 253.441 82.2105 251.441C78.8772 249.441 74.7105 246.608 69.7105 242.941C59.0439 234.941 54.0439 229.441 54.7105 226.441C55.3772 223.441 62.2105 221.608 75.2105 220.941C88.8772 220.275 105.044 218.275 123.711 214.941C142.711 211.275 164.044 206.608 187.711 200.941C189.377 193.608 191.044 185.941 192.711 177.941C194.377 169.608 196.211 159.275 198.211 146.941C200.877 129.941 201.711 116.108 200.711 105.441C200.044 94.4412 197.711 85.1078 193.711 77.4412C188.044 66.4412 187.377 59.6078 191.711 56.9412C196.044 54.2745 208.044 57.2745 227.711 65.9412C236.711 69.9412 243.711 73.4412 248.711 76.4412C253.711 79.4412 257.044 82.2745 258.711 84.9412C260.711 87.6078 261.211 90.2745 260.211 92.9412C259.211 95.6079 257.377 98.7745 254.711 102.441C252.044 106.108 249.711 110.775 247.711 116.441C246.044 121.775 244.544 127.775 243.211 134.441C241.544 143.775 239.711 152.941 237.711 161.941C235.711 170.941 233.711 179.775 231.711 188.441C244.711 184.441 255.711 180.775 264.711 177.441C273.711 173.775 279.544 170.775 282.211 168.441C288.877 162.775 294.377 158.608 298.711 155.941C303.044 152.941 307.211 151.441 311.211 151.441C315.544 151.441 320.377 153.108 325.711 156.441C331.377 159.441 338.711 163.941 347.711 169.941C356.044 175.608 359.877 180.775 359.211 185.441C358.544 189.775 353.044 195.108 342.711 201.441C338.377 204.108 334.044 208.275 329.711 213.941C325.711 219.275 322.044 226.275 318.711 234.941C315.711 242.608 312.877 250.108 310.211 257.441C307.877 264.441 305.711 271.775 303.711 279.441C302.044 287.108 300.377 295.275 298.711 303.941C297.377 312.608 296.044 322.441 294.711 333.441C293.377 344.108 292.711 352.941 292.711 359.941C293.044 366.941 294.044 372.941 295.711 377.941C297.711 382.608 300.377 386.275 303.711 388.941C307.044 391.608 311.377 393.608 316.711 394.941C322.711 396.608 329.377 397.775 336.711 398.441C344.377 399.108 352.044 399.441 359.711 399.441C367.711 399.108 375.377 398.275 382.711 396.941C390.377 395.608 397.377 393.941 403.711 391.941C407.377 390.608 410.544 388.941 413.211 386.941C415.877 384.608 418.377 381.275 420.711 376.941C423.044 372.275 425.377 366.275 427.711 358.941C430.044 351.275 432.544 341.608 435.211 329.941C439.877 309.941 443.877 300.275 447.211 300.941C450.544 301.275 452.544 311.275 453.211 330.941C453.877 348.608 454.877 362.108 456.211 371.441C457.544 380.441 459.544 386.775 462.211 390.441C468.544 399.108 470.044 406.775 466.711 413.441C463.711 419.775 453.377 426.108 435.711 432.441C427.044 435.441 417.044 437.775 405.711 439.441C394.711 441.441 383.377 442.608 371.711 442.941C360.044 443.275 348.711 442.941 337.711 441.941C327.044 440.941 317.877 439.108 310.211 436.441C289.877 430.108 275.544 419.108 267.211 403.441C259.211 387.441 256.877 364.775 260.211 335.441C262.544 313.108 265.711 292.275 269.711 272.941C274.044 253.275 279.377 232.108 285.711 209.441C287.377 203.775 287.711 200.275 286.711 198.941C285.711 197.608 283.544 197.275 280.211 197.941C272.544 199.941 263.877 202.275 254.211 204.941C244.877 207.275 235.211 209.775 225.211 212.441Z" fill="black"/>
</svg>
