<svg width="350" height="350" viewBox="0 0 350 350" fill="none" xmlns="http://www.w3.org/2000/svg">
<path d="M216.641 66.44C218.241 74.9734 218.241 82.1733 216.641 88.04C215.308 93.64 212.774 97.64 209.041 100.04C205.574 102.44 201.174 103.107 195.841 102.04C190.508 100.973 184.641 97.64 178.241 92.04C173.708 88.3067 168.241 83.3733 161.841 77.24C155.441 71.1067 148.641 64.1733 141.441 56.44C133.974 48.7067 130.908 43.64 132.241 41.24C133.841 38.84 141.841 37.7733 156.241 38.04C176.774 38.3067 191.441 40.84 200.241 45.64C209.308 50.1733 214.774 57.1067 216.641 66.44ZM333.841 120.84C346.641 132.84 351.841 141.373 349.441 146.44C347.041 151.507 335.441 152.973 314.641 150.84C304.508 150.04 292.241 149.64 277.841 149.64C263.708 149.64 248.508 150.04 232.241 150.84C215.974 151.373 199.308 152.44 182.241 154.04C165.441 155.373 149.441 156.973 134.241 158.84C119.041 160.44 105.308 162.307 93.041 164.44C81.041 166.307 71.5744 168.307 64.641 170.44C59.5744 172.04 55.3077 173.24 51.841 174.04C48.3744 174.573 45.1744 174.84 42.241 174.84C39.3077 174.573 36.3744 173.773 33.441 172.44C30.5077 170.84 27.041 168.573 23.041 165.64C13.1744 158.44 8.50769 153.773 9.04103 151.64C9.84103 149.507 16.1077 148.173 27.841 147.64C37.9744 147.373 50.241 146.573 64.641 145.24C79.3077 143.64 94.7744 141.907 111.041 140.04C127.574 137.907 144.241 135.64 161.041 133.24C178.108 130.84 193.841 128.44 208.241 126.04C222.908 123.64 235.841 121.507 247.041 119.64C258.241 117.773 266.241 116.173 271.041 114.84C286.241 111.107 298.774 109.507 308.641 110.04C318.508 110.573 326.908 114.173 333.841 120.84ZM307.841 275.24C307.041 284.84 305.174 292.84 302.241 299.24C299.574 305.373 296.108 309.24 291.841 310.84C287.841 312.707 283.308 312.04 278.241 308.84C273.174 305.64 268.108 299.373 263.041 290.04C258.774 282.573 253.841 274.44 248.241 265.64C242.908 256.573 237.441 247.907 231.841 239.64C226.241 231.373 220.908 223.773 215.841 216.84C211.041 209.907 207.041 204.44 203.841 200.44C195.041 189.24 191.841 182.84 194.241 181.24C196.641 179.373 205.841 182.04 221.841 189.24C239.708 197.24 254.241 204.973 265.441 212.44C276.908 219.64 285.841 226.707 292.241 233.64C298.641 240.307 302.908 247.107 305.041 254.04C307.174 260.973 308.108 268.04 307.841 275.24ZM158.641 227.24C156.508 228.573 153.308 231.24 149.041 235.24C145.041 238.973 138.908 245.107 130.641 253.64C119.708 265.373 108.374 274.973 96.641 282.44C84.9077 289.907 70.5077 296.44 53.441 302.04C27.5744 310.307 14.1077 313.24 13.041 310.84C11.9744 308.707 21.841 300.44 42.641 286.04C54.1077 278.307 64.1077 270.44 72.641 262.44C81.441 254.173 88.641 246.44 94.241 239.24C100.108 231.773 104.241 225.107 106.641 219.24C109.041 213.107 109.841 208.04 109.041 204.04C107.174 195.773 108.641 190.573 113.441 188.44C118.241 186.04 128.508 187.773 144.241 193.64C153.041 197.107 159.708 200.307 164.241 203.24C168.774 206.173 171.441 208.973 172.241 211.64C173.041 214.307 172.241 216.973 169.841 219.64C167.441 222.04 163.708 224.573 158.641 227.24Z" fill="black"/>
</svg>
