<svg width="500" height="500" viewBox="0 0 500 500" fill="none" xmlns="http://www.w3.org/2000/svg">
<path d="M220.5 111C243.5 112 260.5 115.333 271.5 121C282.833 126.667 289.833 135.333 292.5 147C294.5 156.333 294.833 164.333 293.5 171C292.5 177.333 290.167 182 286.5 185C282.833 188 278.167 189 272.5 188C266.833 186.667 260.833 183.167 254.5 177.5C246.833 170.833 238.833 163.5 230.5 155.5C222.5 147.5 214.167 139 205.5 130C197.833 122.333 194.833 117.167 196.5 114.5C198.5 111.5 206.5 110.333 220.5 111ZM446.5 218C453.5 223 458.333 227.667 461 232C464 236 464.333 239.5 462 242.5C460 245.167 455.167 247.167 447.5 248.5C440.167 249.833 429.5 250.167 415.5 249.5C401.833 248.833 386 248.667 368 249C350.333 249 331.667 249.667 312 251C292.667 252 273 253.333 253 255C233 256.667 213.833 258.667 195.5 261C177.5 263 161 265.333 146 268C131.333 270.333 119.333 272.667 110 275C104 276.667 98.8333 277.833 94.5 278.5C90.1667 279.167 86.1667 279.5 82.5 279.5C79.1667 279.167 75.6667 278.333 72 277C68.3333 275.333 64.3333 273 60 270C49.6667 263.333 44.8333 258.5 45.5 255.5C46.5 252.5 53.1667 250.667 65.5 250C76.1667 249.667 89.8333 248.667 106.5 247C123.5 245.333 141.833 243.5 161.5 241.5C181.167 239.167 201.333 236.667 222 234C243 231 263 228.167 282 225.5C301 222.5 318.333 219.667 334 217C349.667 214.333 362 212 371 210C380 208 388 206.667 395 206C402.333 205 408.833 204.833 414.5 205.5C420.5 206.167 426 207.5 431 209.5C436.333 211.5 441.5 214.333 446.5 218ZM415.5 403C415.5 413.667 414.167 422.167 411.5 428.5C408.833 434.5 405.333 438.167 401 439.5C396.667 441.167 391.833 440.333 386.5 437C381.5 434 376.5 428.167 371.5 419.5C361.833 403.167 349.833 385.5 335.5 366.5C321.167 347.5 306.333 329.667 291 313C282.333 303.667 279.333 297.833 282 295.5C285 292.833 293.667 294.833 308 301.5C329.333 311.167 346.833 320.167 360.5 328.5C374.5 336.833 385.5 345 393.5 353C401.833 361 407.5 369 410.5 377C413.833 385 415.5 393.667 415.5 403ZM221.5 344.5C218.833 346.167 214.333 349.833 208 355.5C201.667 361.167 195.333 367.333 189 374C175 388.333 160 400.667 144 411C128 421.333 111.833 429.333 95.5 435C73.8333 442.333 62.3333 444.667 61 442C59.6667 439.333 67.5 432 84.5 420C99.5 409.333 112.5 398.833 123.5 388.5C134.833 377.833 144.167 368 151.5 359C158.833 349.667 164 341.5 167 334.5C170.333 327.167 171.5 321.5 170.5 317.5C168.833 307.5 170.5 301.5 175.5 299.5C180.833 297.5 191.5 300.333 207.5 308C224.167 316 233.167 322.667 234.5 328C236.167 333.333 231.833 338.833 221.5 344.5Z" fill="black"/>
</svg>
