<svg width="500" height="500" viewBox="0 0 500 500" fill="none" xmlns="http://www.w3.org/2000/svg">
<path fill-rule="evenodd" clip-rule="evenodd" d="M178.399 214.792C172.488 219.491 166.708 223.889 161.059 227.985C149.248 236.377 137.546 243.713 125.953 249.993C123.493 251.326 121.273 252.523 119.262 253.599C120.412 253.661 121.63 253.776 122.914 253.943C130.738 254.921 141.169 257.529 154.207 261.767C203.34 256.986 230.216 252.314 256.47 247.75L256.47 247.75C262.439 246.712 268.376 245.68 274.536 244.654C304.08 239.73 310.791 235.449 316.494 231.812L316.495 231.812C317.21 231.356 317.909 230.91 318.635 230.474C323.524 227.54 327.599 225.421 330.859 224.118C334.444 222.814 338.356 222.651 342.594 223.629C346.831 224.281 351.721 226.236 357.262 229.496C360.866 231.298 365.085 233.715 369.919 236.747C364.445 232.088 357.724 225.984 354.176 221.327C342.368 205.977 323.882 192.548 305.729 179.359C288.111 166.56 270.807 153.989 260.224 140.111C243.56 156.613 227.288 171.609 219.602 178.681C216.401 181.626 213.593 184.253 211.022 186.659L211.021 186.66C206.475 190.913 202.665 194.477 198.718 197.897C195.646 200.558 192.605 203.146 189.597 205.659C191.834 205.078 194.399 204.552 197.292 204.083C208.375 202.453 218.968 200.334 229.073 197.727C239.178 195.119 248.142 192.348 255.965 189.415C262.811 186.807 268.352 184.851 272.59 183.547C277.153 182.243 281.065 181.428 284.325 181.102C287.91 180.776 291.007 180.939 293.615 181.591C296.548 182.243 299.808 183.221 303.394 184.525C316.432 189.415 321.974 194.956 320.018 201.149C318.388 207.343 308.772 212.069 291.17 215.329C272.916 218.914 258.247 221.685 247.165 223.641C236.082 225.271 227.118 226.412 220.272 227.064C213.427 227.39 208.048 227.227 204.137 226.575C200.225 225.923 196.477 224.945 192.891 223.641C184.31 220.691 179.48 217.742 178.399 214.792ZM385.395 247.104C388.297 248.179 391.476 248.941 394.933 249.392C402.756 250.37 416.354 251.022 428.741 249.392C437.646 248.25 461.756 243.536 461.756 230.323C461.756 224.635 445.02 220.011 430.201 215.917C421.925 213.631 414.247 211.51 410.416 209.461C406.778 207.515 402.635 205.441 398.255 203.248C385.759 196.991 371.332 189.768 361.195 181.803C338.523 163.45 307.136 136.5 285.596 113.813C297.862 100.306 307.449 88.0739 309.708 80.7568C302.826 71.031 273.795 74.4839 257.055 84.7307C235.236 98.0855 222.621 114.261 209.208 131.46C201.986 140.72 194.532 150.278 185.286 159.851C164.346 181.453 143.535 199.965 122.853 215.387C102.569 230.655 80.1116 244.173 55.4814 255.942C50.3963 258.357 46.1484 260.673 42.7378 262.892C39.7248 264.957 38.1456 266.693 38 268.1C38.0952 269.64 39.9013 270.631 43.4183 271.074C47.0921 271.23 53.2356 270.883 61.8489 270.032C68.7877 269.378 75.6426 268.306 82.4134 266.816C87.7397 265.45 91.0565 264.842 93.6417 264.368C97.477 263.666 99.7022 263.258 104.49 261.109C104.043 263.258 104.154 265.922 104.823 269.101C115.4 316.698 114.521 352.012 97 377.438C97 385.261 99.9337 393.736 105.801 402.863C108.595 407.37 110.679 411.203 112.397 414.364C116.892 422.635 118.884 426.298 124.544 425.355C132.693 424.377 138.561 414.109 142.146 394.551C142.798 390.64 143.613 385.261 144.591 378.416C144.22 370.415 143.766 362.732 143.336 355.446C140.932 314.733 139.258 286.399 156.815 284.258C163.765 283.411 173.006 282.563 182.247 281.716L182.247 281.716C190.778 280.934 199.308 280.151 206.036 279.369C220.378 277.739 234.395 276.272 248.085 274.968C254.956 274.169 256.904 273.449 258.64 272.806C260.445 272.138 262.021 271.555 268.668 271.057C276.579 270.285 287.32 269.57 297.202 268.913L297.203 268.913C304.017 268.459 310.423 268.033 315.212 267.634C324.339 266.982 331.51 266.819 336.726 267.145C342.267 267.145 346.342 268.612 348.95 271.546C351.883 274.153 353.839 278.391 354.817 284.258C358.729 304.899 359.269 339.568 356.284 352.501C355.306 356.739 353.513 359.836 350.906 361.791C348.624 363.421 345.201 364.236 340.638 364.236C336.109 363.913 329.454 361.085 323.218 358.436C315.354 355.096 308.158 352.038 306.737 354.643C304.171 359.348 306.925 373.587 311.79 379.883C317.331 387.38 321.895 396.507 325.48 407.264C329.066 417.695 334.444 422.422 341.615 421.444C349.113 420.466 359.055 412.316 371.441 396.996C376.005 391.455 379.591 386.239 382.198 381.35C385.132 376.46 387.251 370.918 388.555 364.725C389.859 358.532 390.51 351.524 390.51 343.7C390.844 338.823 391.11 332.576 391.398 325.844V325.843C391.955 312.812 392.59 297.959 393.933 287.681C397.193 283.117 399.638 279.206 401.267 275.946C402.897 272.361 403.223 268.938 402.245 265.678C401.267 262.093 398.986 258.67 395.4 255.41C392.874 252.884 389.539 250.116 385.395 247.104Z" fill="black"/>
</svg>
