<svg width="500" height="500" viewBox="0 0 500 500" fill="none" xmlns="http://www.w3.org/2000/svg">
<path d="M289.431 427.903C288.09 429.909 286.582 431.748 284.905 433.42C283.565 435.426 282.056 437.432 280.38 439.439C272.67 448.801 264.792 453.648 256.747 453.983C248.702 454.317 243.841 449.803 242.165 440.441C240.824 433.42 237.304 426.231 231.605 418.875C225.907 411.853 220.04 405.668 214.006 400.318C199.927 387.612 194.396 379.922 197.413 377.247C200.43 374.238 211.66 375.073 231.102 379.754C237.136 381.092 241.83 381.928 245.182 382.262C248.869 382.262 251.719 381.26 253.73 379.254C255.741 377.248 257.25 374.07 258.255 369.724C259.261 365.043 260.434 358.857 261.775 351.167C263.451 343.142 264.625 332.443 265.295 319.069C265.965 305.36 266.301 291.484 266.301 277.441C255.574 294.159 243.17 308.703 229.091 321.075C215.347 333.112 198.418 343.978 178.305 353.675C162.214 361.365 152.661 363.539 149.644 360.195C146.962 356.851 152.661 348.994 166.74 336.623C178.473 326.258 188.865 315.893 197.916 305.528C206.967 295.162 215.179 284.63 222.554 273.93C229.929 262.896 236.634 251.696 242.668 240.327C249.037 228.625 255.238 216.253 261.272 203.213C260.602 199.869 259.931 196.859 259.261 194.185C258.591 191.51 257.92 188.836 257.25 186.161C249.204 193.517 241.159 199.87 233.114 205.219C225.404 210.569 216.856 215.417 207.469 219.764C199.424 223.442 192.887 225.782 187.859 226.785C182.831 227.453 179.478 227.119 177.802 225.782C176.461 224.11 177.132 221.268 179.814 217.256C182.495 213.244 187.691 208.228 195.401 202.21C203.782 195.523 211.827 188.167 219.537 180.142C227.247 172.118 234.455 163.759 241.159 155.065C235.796 147.71 229.426 140.855 222.051 134.502C215.012 127.815 208.14 122.632 201.435 118.954C197.077 116.279 194.228 113.103 192.887 109.425C191.882 105.747 193.222 102.403 196.91 99.394C198.586 98.0566 201.938 97.5548 206.966 97.8891C211.995 98.2235 216.185 99.2271 219.537 100.899C229.259 105.58 237.304 109.926 243.673 113.938C250.378 117.95 256.076 121.796 260.77 125.474C268.48 113.103 274.346 101.734 278.369 91.3689C282.727 81.0037 284.235 73.6483 282.894 69.3016C280.883 63.2831 280.212 58.1 280.883 53.7534C281.553 49.4067 283.565 46.7325 286.917 45.7294C290.604 44.392 295.633 44.8938 302.002 47.2343C308.371 49.2405 316.249 53.42 325.635 59.7728C333.68 65.4569 339.714 70.137 343.737 73.815C347.76 77.4929 350.106 80.8365 350.777 83.8458C351.447 86.5207 350.609 88.8619 348.262 90.8681C346.251 92.8742 343.402 95.0478 339.714 97.3883C323.069 108.678 309.679 125.701 297.476 141.523C294.124 145.535 290.437 149.882 286.414 154.563C292.113 164.26 296.471 176.297 299.488 190.674C302.84 205.052 305.354 224.111 307.03 247.85C307.701 257.547 308.203 266.574 308.539 274.933C308.874 282.958 309.041 291.317 309.041 300.01C309.041 308.369 308.874 317.396 308.539 327.093C308.203 336.789 307.701 347.824 307.03 360.195C306.36 371.563 305.354 381.092 304.013 388.782C303.007 396.473 301.331 403.494 298.985 409.847C295.786 418.508 292.952 420.608 289.431 427.903Z" fill="black"/>
</svg>
