<svg width="350" height="350" viewBox="0 0 350 350" fill="none" xmlns="http://www.w3.org/2000/svg">
<path d="M212.968 131.265C212.968 137.273 211.215 147.453 207.709 161.804C200.113 163.139 193.247 164.308 187.111 165.309C180.975 165.976 175.132 166.811 169.58 167.812C164.321 168.48 158.916 169.147 153.365 169.815C147.813 170.482 141.824 171.316 135.396 172.318C134.812 165.643 134.666 159.969 134.958 155.296C135.25 150.29 136.273 144.783 138.026 138.775C138.902 136.439 139.194 134.436 138.902 132.767C138.61 130.765 137.149 128.929 134.52 127.26C131.89 125.591 127.946 124.09 122.686 122.754C117.427 121.086 110.123 119.25 100.773 117.247C89.9629 114.911 83.6811 116.079 81.9281 120.752C80.4672 125.425 83.0968 131.098 89.8168 137.774C94.1994 142.113 97.5594 146.785 99.8968 151.792C102.234 156.798 104.572 164.808 106.909 175.822C100.189 176.49 93.1768 177.157 85.8724 177.825L64.8359 179.827C58.1158 180.495 51.5419 180.996 45.1141 181.329C38.9784 181.663 33.5732 181.997 28.8984 182.331C16.9192 182.998 10.6375 184.5 10.0531 186.836C9.46877 189.173 13.7053 193.678 22.7627 200.354C25.9766 203.024 28.8984 205.026 31.528 206.361C34.1575 207.696 36.7871 208.531 39.4167 208.864C42.0462 209.198 44.968 209.031 48.1819 208.364C51.3958 207.696 55.4863 206.695 60.4532 205.36C70.095 202.69 78.7142 200.52 86.3107 198.852C93.9072 197.183 101.942 195.514 110.415 193.845C111.876 206.528 114.067 215.54 116.989 220.88C120.203 226.22 123.417 228.556 126.631 227.889C128.384 227.555 130.429 225.386 132.766 221.38C135.396 217.042 136.711 212.703 136.711 208.364C137.003 205.36 137.003 202.356 136.711 199.352V189.84C146.353 188.505 156.871 187.17 168.266 185.835C179.953 184.5 191.347 183.332 202.45 182.331C199.821 191.008 197.629 197.35 195.876 201.355C194.415 205.36 192.808 209.365 191.055 213.37C188.134 219.712 188.572 223.717 192.37 225.386C196.168 226.721 200.843 224.05 206.394 217.375C211.946 210.7 216.621 204.526 220.419 198.852C224.509 192.844 228.161 186.503 231.375 179.827C244.231 179.16 256.648 178.993 268.628 179.327C280.899 179.66 290.249 180.161 296.676 180.829C308.363 182.164 317.421 182.497 323.849 181.83C330.569 180.829 334.951 179.16 336.997 176.824C339.334 174.153 339.626 171.15 337.873 167.812C336.12 164.141 332.906 160.136 328.231 155.797C321.219 149.455 314.061 145.784 306.756 144.783C299.744 143.781 289.664 145.116 276.516 148.788C269.796 150.457 263.807 151.958 258.548 153.293C253.581 154.295 248.029 155.296 241.894 156.297C245.108 149.288 247.445 144.449 248.906 141.779C250.367 139.109 252.266 136.606 254.603 134.269C257.233 131.599 258.986 129.263 259.862 127.26C261.031 124.924 261.031 122.588 259.862 120.251C258.694 117.915 256.356 115.579 252.85 113.242C249.344 110.906 244.377 108.236 237.949 105.232C223.341 98.8907 214.137 97.3887 210.339 100.726C206.541 104.064 206.979 109.905 211.654 118.249C212.822 120.919 213.261 125.258 212.968 131.265Z" fill="black"/>
</svg>
