<svg width="501" height="500" viewBox="0 0 501 500" fill="none" xmlns="http://www.w3.org/2000/svg">
<path d="M343.2 225.4C386.581 219.711 413 203.8 439.5 203.8C453.3 203.8 466.8 208 480 216.4C493.8 224.8 500.7 232.6 500.7 239.8C500.7 246.4 496.5 251.2 488.1 254.2C479.7 257.2 465.3 258.1 444.9 256.9C417 254.2 365.5 254.2 329.7 255.1C315.9 285.1 301.8 309.4 287.4 328C273 346.6 263.4 355.9 258.6 355.9C253.8 355.9 251.4 354.1 251.4 350.5C251.4 346.9 252.6 343 255 338.8C262.8 326.2 274.5 299.5 290.1 258.7L193.4 279.4C197 311.8 198.8 331 198.8 337C198.8 343 197.3 347.8 194.3 351.4C191.3 354.4 187.7 355.9 183.5 355.9C179.3 355.9 175.4 353.2 171.8 347.8C168.2 341.8 164 320.8 159.2 284.8C118.735 291.327 94.4007 307.7 53.1 307.7C39.3 307.7 27 302.9 16.2 293.3C5.4 283.7 0 277.4 0 274.4C0 270.8 1.5 268.7 4.5 268.1C7.50001 267.5 13.5 267.2 22.5 267.2C38.1 267.2 50.9 266.8 152.9 256C148.1 233.2 142.4 215.5 135.8 202.9C129.8 189.7 122.9 178.6 115.1 169.6C107.3 160.6 103.4 154.3 103.4 150.7C103.4 143.5 111.5 139.9 127.7 139.9C144.5 139.9 159.5 142.9 172.7 148.9C185.9 154.9 191.6 165.4 189.8 180.4C189.2 185.8 188.9 193.6 188.9 203.8C188.9 214 189.8 229.9 191.6 251.5C228.2 247.3 236.7 240.7 299.1 231.7C312.3 190.3 318.9 162.4 318.9 148C318.9 133 317.4 123.1 314.4 118.3C311.4 112.9 309.9 108.4 309.9 104.8C309.9 97.6 313.8 94 321.6 94C330 94 343.8 98.5 363 107.5C382.2 116.5 391.8 124 391.8 130C391.8 136 389.4 143.2 384.6 151.6C369 178 355.2 202.6 343.2 225.4Z" fill="black"/>
</svg>
