<svg width="500" height="500" viewBox="0 0 500 500" fill="none" xmlns="http://www.w3.org/2000/svg">
<path d="M254.018 325.5C222.5 332 174.018 326.5 160.018 328.5C144.685 320.833 135.018 318.167 131.018 320.5C127.352 322.833 127.852 328.833 132.518 338.5C133.518 340.5 134.185 343 134.518 346C135.185 348.667 135.685 352.5 136.018 357.5C136.352 362.167 136.352 368.333 136.018 376C135.685 383.333 135.352 393 135.018 405C134.352 422.667 137.352 436.167 144.018 445.5C150.685 454.833 163.519 461.333 182.519 465C190.185 466.667 268.852 467.5 278.518 467.5C288.518 467.167 298.352 466.333 308.019 465C317.685 463.667 326.852 461.833 335.519 459.5C344.185 456.833 351.352 454 357.018 451C366.685 445.667 371.852 441 372.518 437C373.185 433 371.185 428.5 366.518 423.5C363.852 420.833 361.852 417 360.518 412C359.185 406.667 357.852 397.167 356.519 383.5C354.852 366.5 352.185 358.167 348.518 358.5C344.852 358.5 341.185 367.333 337.518 385C334.518 399 331.185 408.833 327.518 414.5C323.852 420.167 319.185 424 313.518 426C303.185 429.667 294.018 432.167 286.018 433.5C243.5 437 220.185 434.5 212.518 433.5C199.518 432.167 187.5 437 167.018 424.5C163.352 419.833 162.352 410.5 164.019 396.5C165.352 385.833 166.185 376.833 166.519 369.5C167.185 362.167 167.518 355.5 167.518 349.5C179.518 348.167 220.519 350.667 232.519 349C244.519 347 295.352 341.167 303.019 339.5C314.019 337.167 319.352 333.333 319.018 328C319.018 322.333 314.685 316.833 306.019 311.5C309.352 301.833 313.185 294 317.519 288C321.852 281.667 328.685 275.667 338.019 270C346.019 265 349.352 260.5 348.018 256.5C346.685 252.5 338.518 246.5 323.518 238.5C311.852 232.167 303.352 229 298.018 229C293.018 229 288.018 230.833 283.018 234.5C275.352 240.167 246.352 245 236.018 249C225.685 252.667 161.852 255.833 144.518 258.5C133.185 260.167 127.352 262.333 127.019 265C126.685 267.667 130.852 271 139.518 275C143.518 277 147.019 278.5 150.019 279.5C153.019 280.167 156.018 280.5 159.018 280.5C162.018 280.5 165.185 280.167 168.519 279.5C171.852 278.5 176.018 277 181.018 275C191.018 271.333 269.352 269 276.018 268C281.018 267.333 284.019 268.167 285.019 270.5C286.352 272.5 286.018 277.833 284.018 286.5C283.018 291.167 282.185 295.167 281.518 298.5C280.852 301.5 279.852 305.333 278.518 310C273.852 315 278.263 320.5 254.018 325.5Z" fill="black"/>
<path fill-rule="evenodd" clip-rule="evenodd" d="M332.072 35.0681C328.788 36.1794 325.176 37.6241 321.236 39.4022C317.295 41.1803 314.011 43.1806 311.384 45.4032C308.757 47.1813 305.145 49.2927 300.548 51.7376C295.95 53.9602 291.681 55.9605 287.741 57.7386C279.86 61.0725 275.098 61.8504 273.456 60.0723C271.814 58.2942 274.605 54.1824 281.83 47.7369C288.397 41.7359 293.323 35.9572 296.607 30.4007C300.219 24.622 301.697 20.3991 301.04 17.7319C298.413 6.17446 303.996 3.95188 317.788 11.0642C325.012 14.8426 330.43 18.0653 334.042 20.7324C337.655 23.1773 339.789 25.2887 340.446 27.0668C341.431 28.8449 341.103 30.4007 339.461 31.7343C337.819 32.8456 335.356 33.9569 332.072 35.0681ZM226.747 117.988L223.913 122.202C222.969 124.308 221.316 126.883 218.954 129.926C215.648 134.608 213.05 138.47 211.161 141.514C209.272 144.323 207.855 146.546 206.91 148.185C201.715 156.378 196.756 160.123 192.033 159.421C187.782 158.485 187.31 153.452 190.616 144.323C192.977 138.236 194.394 132.15 194.866 126.064C195.339 119.744 195.103 114.945 194.158 111.668C189.907 102.071 195.339 99.2615 210.453 103.241C213.759 104.177 216.593 105.114 218.954 106.05C221.788 106.752 223.913 107.454 225.33 108.157C227.219 109.093 228.4 110.263 228.872 111.668C229.345 113.072 228.636 115.179 226.747 117.988ZM311.054 140.109C307.275 145.259 302.552 147.834 296.884 147.834C291.217 147.6 286.966 145.259 284.132 140.811C282.715 138.705 281.298 136.13 279.881 133.087L275.631 123.255C274.686 119.744 273.742 116.467 272.797 113.424C271.852 110.146 271.38 107.454 271.38 105.348C270.908 100.666 271.616 98.2081 273.505 97.9741C275.867 97.5059 279.881 99.0274 285.549 102.539C299.246 110.966 307.748 118.222 311.054 124.308C314.832 130.395 314.832 135.661 311.054 140.109ZM341.436 201.556C337.657 208.579 331.99 215.25 324.433 221.57C321.888 223.504 320.45 225.004 319.39 226.109C317.5 228.081 316.811 228.8 313.179 228.5C307.511 228.266 305.386 226.252 302.552 221.57C300.191 218.293 297.357 214.782 294.051 211.036C290.745 207.525 286.494 204.482 281.298 201.907C270.435 196.523 265.948 192.778 267.838 190.671C270.199 188.564 278.701 188.798 293.342 191.373C297.593 192.076 301.135 192.544 303.969 192.778C307.275 192.778 309.637 191.959 311.054 190.32C312.943 188.681 314.36 186.106 315.304 182.595C316.249 179.084 316.957 174.168 317.43 167.848C317.902 161.996 317.902 155.207 317.43 147.483C316.957 139.524 316.249 131.682 315.304 123.957C314.832 116.233 314.124 109.21 313.179 102.89C312.234 96.3355 311.526 91.6538 311.054 88.8448C309.164 82.2905 306.803 78.311 303.969 76.9065C301.608 75.502 297.593 75.0339 291.925 75.502C287.202 75.7361 282.715 75.9702 278.465 76.2043C274.214 76.4384 269.727 76.7895 265.004 77.2577C264.532 92.0049 264.059 104.06 263.587 113.424C263.587 122.787 263.351 130.395 262.878 136.247V149.589C263.351 152.867 263.587 155.676 263.587 158.016C264.059 165.507 264.059 171.242 263.587 175.222C263.115 178.967 262.17 182.361 260.753 185.404C256.975 192.895 251.779 196.64 245.167 196.64C239.027 196.64 232.415 192.895 225.33 185.404C222.969 183.063 221.316 181.191 220.371 179.786C219.426 178.148 218.718 176.626 218.246 175.222C218.246 173.817 218.482 172.296 218.954 170.657C219.899 168.784 221.079 166.561 222.496 163.986C224.386 160.24 226.039 156.495 227.456 152.75C228.872 149.004 230.053 144.323 230.998 138.705C231.942 132.852 232.651 125.362 233.123 116.233C233.596 107.103 234.068 95.1651 234.54 80.4178L224.622 81.8223C221.788 82.0564 218.718 82.4075 215.412 82.8757C210.216 83.5779 204.549 84.2802 198.409 84.9824C192.269 85.4506 186.365 85.9188 180.697 86.3869C181.642 104.411 182.114 121.499 182.114 137.651C182.114 153.803 181.642 167.146 180.697 177.679C179.753 190.086 178.336 199.215 176.447 205.067C172.668 214.665 167.473 219.229 160.86 218.761C157.261 218.634 156.641 217.084 155.453 214.113C154.457 211.626 153.064 208.143 149.19 203.663C145.411 199.683 143.522 195.821 143.522 192.076C143.522 188.096 145.884 183.297 150.607 177.679C152.496 175.339 154.149 171.827 155.566 167.146C156.983 162.23 157.927 156.612 158.4 150.292C159.344 143.971 159.581 137.183 159.108 129.926C159.108 122.436 158.872 114.711 158.4 106.752C157.927 101.602 156.747 96.8037 154.857 92.3561C152.968 87.6744 151.079 84.7483 149.19 83.5779C141.161 78.4281 139.035 74.9168 142.814 73.0442C146.131 71.1945 146.976 71.3297 160.238 73.4495L160.238 73.4496C162.082 73.7443 164.165 74.0773 166.528 74.4487C180.225 73.5123 192.741 72.576 204.076 71.6397C215.412 70.7033 225.566 69.767 234.54 68.8307C235.272 48.8848 234.61 48.1246 222.924 34.7004L222.923 34.6991C222.337 34.0255 221.722 33.3201 221.079 32.5788C215.412 19.6993 226.747 13.7445 243.75 16.7781C255.558 18.8849 264.532 20.7576 270.672 22.3962C276.811 23.8006 281.062 25.3222 283.424 26.9608C285.785 28.3653 286.258 30.1209 284.841 32.2277C283.896 34.1003 281.771 36.6752 278.465 39.9524C276.52 41.8797 274.789 43.1077 273.265 44.1884C268.682 47.4394 265.978 49.3577 265.004 64.9683C274.922 63.5638 282.715 62.0423 288.383 60.4037C293.106 58.9992 297.121 57.9458 300.427 57.2435C304.205 56.5413 307.748 56.1902 311.054 56.1902C314.36 56.1902 317.902 56.5413 321.681 57.2435C324.153 57.7031 328.669 59.8568 333.19 62.0131C336.419 63.5534 339.652 65.0951 342.144 66.0217C346.395 67.1921 348.993 68.4795 349.937 69.884C351.354 71.2885 351.354 72.9271 349.937 74.7998C348.993 76.4384 347.103 78.7792 344.27 81.8223C343.325 83.2268 342.38 85.6847 341.436 89.1959C340.963 92.4731 340.491 96.4525 340.019 101.134C337.185 140.811 337.185 158.016 341.436 201.556ZM219.63 63.9025C221.358 61.237 222.395 57.7718 222.741 53.5069C223.086 49.7751 223.086 46.7097 222.741 44.3107C222.395 41.6452 221.185 39.3794 219.111 37.5135C217.383 35.3811 214.444 33.5152 210.296 31.9159C206.494 30.05 201.309 28.0508 194.741 25.9184C184.025 22.1866 177.457 21.1204 175.037 22.7197C172.963 24.0525 174 28.0508 178.148 34.7147C181.951 40.8455 185.753 46.5764 189.556 51.9075C193.704 56.9721 197.679 61.9034 201.481 66.7014C202.864 68.3007 204.593 69.3669 206.667 69.9C209.086 70.1666 211.333 69.9 213.407 69.1004C215.827 68.0342 217.901 66.3015 219.63 63.9025Z" fill="black"/>
</svg>
