<svg width="500" height="500" viewBox="0 0 500 500" fill="none" xmlns="http://www.w3.org/2000/svg">
<path d="M154.3 299.6C157.3 273.8 158.5 256.1 157.9 246.5C184.9 244.7 211.6 241.4 238 236.6C264.4 231.2 280 226.7 284.8 223.1C289.6 219.5 292 215.6 292 211.4C292 206.6 289 201.8 283 197C277 192.2 274 186.5 274 179.9C274 173.3 278.2 162.5 286.6 147.5C295 132.5 309.4 120.2 329.8 110.6C338.8 106.4 343.3 101.3 343.3 95.3C343.3 88.7 332.2 78.5 310 64.7C288.4 50.9 273.4 44 265 44C257.2 44 248.2 48.5 238 57.5C227.8 66.5 214.9 73.7 199.3 79.1C184.3 84.5 158.2 89.9 121 95.3C113.2 96.5 109.3 99.2 109.3 103.4C109.3 107 113.5 111.2 121.9 116C130.9 120.8 139.6 123.2 148 123.2C157 123.2 169.3 120.8 184.9 116C208.3 108.8 226.6 105.2 239.8 105.2C246.4 105.2 249.7 108.5 249.7 115.1C249.7 121.7 247.3 134.3 242.5 152.9C238.3 171.5 234.1 184.1 229.9 190.7C225.7 197.3 217.9 202.7 206.5 206.9C195.7 211.1 176.5 215.6 148.9 220.4C134.5 212.6 123.1 208.7 114.7 208.7C106.9 208.7 103 211.1 103 215.9C103 220.1 104.8 225.2 108.4 231.2C112.6 237.2 115.3 243.8 116.5 251C118.3 258.2 119.2 269.6 119.2 285.2L117.4 357.2C117.4 423.2 159.4 456.2 243.4 456.2C277.6 456.2 311.8 451.1 346 440.9C380.2 430.1 397.3 417.5 397.3 403.1C397.3 398.3 394.3 387.5 388.3 370.7C382.3 353.9 377.5 336.8 373.9 319.4C370.9 301.4 367.3 292.4 363.1 292.4C358.9 292.4 355 303.5 351.4 325.7C348.4 347.9 343.3 364.4 336.1 375.2C328.9 386 313 394.1 288.4 399.5C264.4 404.9 241.9 407.6 220.9 407.6C200.5 407.6 183.7 403.1 170.5 394.1C157.3 385.1 150.7 369.2 150.7 346.4C150.7 341 151.9 325.4 154.3 299.6Z" fill="black"/>
</svg>
