<svg width="350" height="350" viewBox="0 0 350 350" fill="none" xmlns="http://www.w3.org/2000/svg">
<path d="M314.119 326.906C325.552 331.339 331.269 334.489 331.269 336.356C331.502 338.456 325.669 340.556 313.769 342.656C296.269 345.922 282.269 348.139 271.769 349.306C261.502 350.706 253.102 350.822 246.569 349.656C240.269 348.722 234.902 346.389 230.469 342.656C226.269 338.922 221.369 333.556 215.769 326.556C198.234 304.183 180.769 286 156.969 261.506C147.264 291.105 115.462 316.126 88.3691 330.756C76.9358 337.056 63.5191 342.539 48.1191 347.206C29.9191 352.806 20.2358 354.672 19.0691 352.806C18.1358 350.939 26.6525 344.639 44.6191 333.906C73.3814 316.465 117.279 279.114 127.569 245.406C112.636 247.272 101.902 249.139 95.3691 251.006C89.3025 252.639 84.4025 253.922 80.6691 254.856C76.9358 255.556 73.7858 255.906 71.2191 255.906C68.6525 255.672 66.3191 255.089 64.2191 254.156C62.3525 252.989 60.0191 251.356 57.2191 249.256C52.3191 245.756 48.7025 242.956 46.3691 240.856C44.0358 238.756 43.3358 237.122 44.2691 235.956C45.2025 234.556 47.7691 233.622 51.9691 233.156C56.1691 232.689 62.4691 232.456 70.8691 232.456C77.4025 232.456 86.1525 231.872 97.1191 230.706C108.319 229.306 120.219 227.672 132.819 225.806C134.219 219.039 135.386 212.156 136.319 205.156C137.252 198.156 137.952 191.272 138.419 184.506C127.919 185.439 119.636 185.439 113.569 184.506C107.736 183.339 102.136 181.122 96.7691 177.856C91.1691 174.356 88.8358 171.789 89.7691 170.156C90.7025 168.522 94.9025 167.356 102.369 166.656C110.069 165.956 116.719 165.256 122.319 164.556C128.152 163.856 133.986 162.922 139.819 161.756C140.286 143.556 139.469 129.672 137.369 120.106C135.502 110.539 133.286 104.239 130.719 101.206C121.619 90.9389 118.702 84.1722 121.969 80.9056C125.469 77.6389 136.202 78.5722 154.169 83.7055C163.502 86.2722 170.619 88.7222 175.519 91.0556C180.652 93.1556 184.152 95.3722 186.019 97.7056C187.886 100.039 188.352 102.606 187.419 105.406C186.719 107.972 185.319 111.006 183.219 114.506C182.286 115.906 181.469 117.539 180.769 119.406C180.069 121.039 179.486 123.256 179.019 126.056C178.552 128.856 178.086 132.356 177.619 136.556C177.152 140.756 176.802 146.006 176.569 152.306C185.202 149.972 192.436 148.222 198.269 147.056C204.336 145.656 209.586 144.839 214.019 144.606C218.452 144.139 222.302 144.139 225.569 144.606C228.836 145.072 232.102 145.889 235.369 147.056C244.236 150.556 248.552 154.289 248.319 158.256C248.086 161.989 242.836 165.372 232.569 168.406C229.302 169.339 225.919 170.272 222.419 171.206C219.152 172.139 215.186 173.072 210.519 174.006C206.086 174.706 200.836 175.639 194.769 176.806C188.936 177.739 181.936 178.789 173.769 179.956C173.069 187.189 172.252 194.072 171.319 200.606C170.386 206.906 169.219 213.439 167.819 220.206C178.552 218.339 188.352 216.589 197.219 214.956C206.086 213.089 212.852 211.572 217.519 210.406C229.652 207.139 239.219 205.856 246.219 206.556C253.452 207.022 260.102 209.822 266.169 214.956C277.136 224.289 280.869 231.172 277.369 235.606C274.102 239.806 261.852 240.972 240.619 239.106C231.519 238.406 220.436 238.289 207.369 238.756C194.536 239.222 181.469 240.039 168.169 241.206C193.272 270.231 238.08 293.635 273.169 310.106C284.836 315.239 298.486 320.839 314.119 326.906Z" fill="black"/>
<path d="M325.125 139.259C309.258 142.759 296.658 145.326 287.325 146.959C278.225 148.592 270.875 149.176 265.275 148.709C259.675 148.242 255.125 146.842 251.625 144.509C248.125 141.942 244.275 138.326 240.075 133.659C227.242 119.659 214.292 105.076 201.225 89.9091C188.392 74.7425 176.025 59.8091 164.125 45.1091C146.158 76.8424 126.442 102.859 104.975 123.159C83.5083 143.459 58.5417 158.859 30.075 169.359C16.075 174.492 8.725 176.126 8.025 174.259C7.55833 172.392 13.625 166.559 26.225 156.759C39.2917 146.726 50.2583 137.742 59.125 129.809C68.225 121.642 76.275 113.359 83.275 104.959C90.5083 96.3258 97.5083 86.9924 104.275 76.9591C111.042 66.9258 118.625 54.6758 127.025 40.2091C132.392 31.3424 135.892 23.4091 137.525 16.4091C139.392 9.40907 139.975 4.74245 139.275 2.40912C137.642 -2.72421 136.708 -6.92425 136.475 -10.1909C136.475 -13.4576 137.525 -15.5576 139.625 -16.4909C141.725 -17.4242 145.108 -17.0743 149.775 -15.4409C154.675 -14.0409 161.092 -11.1242 169.025 -6.69092C175.092 -3.19092 179.642 -0.0409076 182.675 2.7591C185.708 5.32576 187.575 7.6591 188.275 9.7591C188.975 11.8591 188.742 13.8424 187.575 15.7091C186.642 17.3425 185.008 18.9757 182.675 20.6091C180.108 22.2424 177.308 25.2758 174.275 29.7091C198.499 52.1251 223.206 74.1158 251.275 91.6591C262.475 98.4258 273.675 104.142 284.875 108.809C296.075 113.476 308.442 117.792 321.975 121.759C329.208 123.859 334.458 125.726 337.725 127.359C341.225 128.992 342.975 130.509 342.975 131.909C342.975 133.309 341.458 134.592 338.425 135.759C335.392 136.926 330.958 138.092 325.125 139.259Z" fill="black"/>
</svg>
