<svg width="500" height="500" viewBox="0 0 500 500" fill="none" xmlns="http://www.w3.org/2000/svg">
<path d="M253.5 275.782C253.167 284.782 253 292.449 253 298.782C253 305.115 253.167 310.949 253.5 316.282C254.167 321.615 255 326.949 256 332.282C257 337.615 258.333 343.782 260 350.782C262.667 363.115 266.833 371.782 272.5 376.782C278.5 381.449 288.167 384.949 301.5 387.282C307.5 388.282 314.167 388.949 321.5 389.282C328.833 389.615 336.167 389.615 343.5 389.282C351.167 388.615 358.667 387.615 366 386.282C373.333 384.949 379.833 383.282 385.5 381.282C394.167 378.282 400.833 372.115 405.5 362.782C410.5 353.115 414.333 338.782 417 319.782C419.333 302.782 422.5 294.449 426.5 294.782C430.833 294.782 434 303.949 436 322.282C437.667 336.949 439.833 349.282 442.5 359.282C445.167 368.949 447.833 375.615 450.5 379.282C455.833 386.949 457.833 393.615 456.5 399.282C455.5 404.615 449 410.115 437 415.782C427 420.449 415.5 424.282 402.5 427.282C389.833 430.282 376.833 432.449 363.5 433.782C350.5 435.115 337.833 435.449 325.5 434.782C313.5 434.449 303.333 433.282 295 431.282C279.667 427.282 267.167 421.782 257.5 414.782C247.833 408.115 240 399.282 234 388.282C228.333 376.949 224.333 363.115 222 346.782C220 330.115 218.833 310.115 218.5 286.782C206.833 290.782 195.333 294.782 184 298.782C173 302.782 162.833 306.615 153.5 310.282C144.5 313.615 136.333 316.782 129 319.782C122 322.449 116.667 324.615 113 326.282C106.333 329.282 100.833 331.615 96.5 333.282C92.1667 334.615 88 335.282 84 335.282C80.3333 335.282 76.3333 334.449 72 332.782C67.6667 331.115 62.3333 328.782 56 325.782C45.3333 320.449 40 315.782 40 311.782C40.3333 307.449 46.6667 304.615 59 303.282C65 302.615 71.6667 301.615 79 300.282C86.6667 298.615 97.8333 295.782 112.5 291.782C117.833 290.449 124.333 288.615 132 286.282C140 283.949 148.667 281.449 158 278.782C167.333 275.782 177.167 272.615 187.5 269.282C197.833 265.949 208.167 262.615 218.5 259.282C218.5 229.282 218.167 204.615 217.5 185.282C217.167 165.615 216.333 149.782 215 137.782C213.667 125.449 211.833 115.949 209.5 109.282C207.5 102.615 205 97.1154 202 92.7821C191.333 78.1154 188.667 69.282 194 66.282C199.667 62.9487 214.667 66.1154 239 75.7821C247.333 79.1154 254 82.1154 259 84.782C264 87.4487 267.5 90.2821 269.5 93.2821C271.5 96.2821 272.167 99.7821 271.5 103.782C270.833 107.782 269.333 112.782 267 118.782C265.333 122.782 263.833 127.282 262.5 132.282C261.5 136.949 260.5 143.949 259.5 153.282C258.5 162.282 257.5 174.282 256.5 189.282C255.833 203.949 255.167 223.115 254.5 246.782C277.5 238.782 298.167 231.282 316.5 224.282C334.833 217.282 349.333 211.615 360 207.282C370.333 202.949 379.333 199.615 387 197.282C394.667 194.615 401.5 192.949 407.5 192.282C413.5 191.615 419 191.949 424 193.282C429 194.282 434 196.115 439 198.782C453.333 206.449 460 213.282 459 219.282C458 224.949 449.167 229.115 432.5 231.782C411.833 235.115 386.5 240.449 356.5 247.782C326.833 254.782 292.5 264.115 253.5 275.782Z" fill="black"/>
</svg>
