<svg width="350" height="350" viewBox="0 0 350 350" fill="none" xmlns="http://www.w3.org/2000/svg">
<path d="M335.247 277.033C340.847 283.7 342.847 289.7 341.247 295.033C339.914 300.1 333.38 306.1 321.647 313.033C314.18 317.567 304.98 321.033 294.047 323.433C283.38 326.1 272.447 327.7 261.247 328.233C250.047 328.767 239.114 328.5 228.447 327.433C218.047 326.633 209.247 325.167 202.047 323.033C189.247 319.3 178.714 314.633 170.447 309.033C162.447 303.7 156.047 296.633 151.247 287.833C146.447 279.033 143.114 268.1 141.247 255.033C139.38 241.967 138.447 225.833 138.447 206.633C129.914 209.3 121.647 212.1 113.647 215.033C105.647 217.7 98.1804 220.233 91.2471 222.633C84.5804 225.033 78.7137 227.3 73.6471 229.433C68.5804 231.567 64.7137 233.167 62.0471 234.233C55.9137 236.9 50.8471 238.9 46.8471 240.233C43.1137 241.567 39.5137 242.1 36.0471 241.833C32.8471 241.567 29.3804 240.633 25.6471 239.033C22.1804 237.167 17.6471 234.633 12.0471 231.433C3.51373 226.1 -0.486275 221.833 0.0470588 218.633C0.580392 215.433 6.71373 213.167 18.4471 211.833C23.5137 211.3 28.8471 210.5 34.4471 209.433C40.0471 208.1 48.3137 205.967 59.2471 203.033C69.9137 200.1 82.3137 196.633 96.4471 192.633C110.58 188.367 124.58 183.967 138.447 179.433C138.714 155.967 138.714 136.5 138.447 121.033C138.18 105.567 137.514 93.0333 136.447 83.4333C135.38 73.8333 133.914 66.3667 132.047 61.0333C130.447 55.7 128.447 51.3 126.047 47.8333C121.247 41.1667 118.047 35.7 116.447 31.4333C114.847 27.1667 115.38 24.2333 118.047 22.6333C120.714 20.7667 125.647 20.5 132.847 21.8333C140.314 23.1667 150.58 26.1 163.647 30.6333C171.38 33.3 177.247 35.8333 181.247 38.2333C185.514 40.3667 188.447 42.9 190.047 45.8333C191.647 48.5 192.047 51.8333 191.247 55.8333C190.714 59.5667 189.38 64.6333 187.247 71.0333C185.647 76.1 184.18 81.1667 182.847 86.2333C181.78 91.0333 180.847 96.9 180.047 103.833C179.247 110.767 178.58 119.167 178.047 129.033C177.514 138.9 177.114 151.433 176.847 166.633C197.647 159.7 214.714 153.7 228.047 148.633C241.647 143.3 252.847 138.767 261.647 135.033C270.18 131.567 277.247 128.9 282.847 127.033C288.447 124.9 293.38 123.7 297.647 123.433C302.18 122.9 306.447 123.167 310.447 124.233C314.714 125.3 319.647 127.167 325.247 129.833C339.114 136.233 345.514 142.633 344.447 149.033C343.647 155.167 336.314 159.3 322.447 161.433C304.58 164.1 283.114 168.367 258.047 174.233C233.247 179.833 205.914 186.9 176.047 195.433C176.047 209.833 176.447 222.1 177.247 232.233C178.047 242.1 179.38 250.367 181.247 257.033C183.114 263.433 185.514 268.367 188.447 271.833C191.647 275.3 195.38 277.7 199.647 279.033C203.914 280.633 208.847 281.833 214.447 282.633C220.047 283.433 225.914 283.833 232.047 283.833C238.18 283.833 244.18 283.567 250.047 283.033C255.914 282.233 261.247 281.167 266.047 279.833C270.847 278.233 274.98 276.5 278.447 274.633C282.18 272.767 285.38 270.1 288.047 266.633C290.98 262.9 293.647 257.967 296.047 251.833C298.714 245.433 301.38 237.167 304.047 227.033C309.38 207.567 313.114 197.967 315.247 198.233C317.38 198.5 319.514 208.367 321.647 227.833C323.247 242.767 325.114 253.833 327.247 261.033C329.38 267.967 332.047 273.3 335.247 277.033Z" fill="black"/>
</svg>
