<svg width="350" height="350" viewBox="0 0 350 350" fill="none" xmlns="http://www.w3.org/2000/svg">
<path fill-rule="evenodd" clip-rule="evenodd" d="M256.504 138.516C252.095 138.936 245.612 139.379 238.793 139.844C231.129 140.367 223.042 140.919 217 141.5C213.033 141.967 208.483 142.433 203.35 142.9C198.216 143.367 191.916 143.95 184.45 144.65C188.883 132.283 192.733 121.9 196 113.5C199.5 104.867 202.533 97.6334 205.1 91.8001C207.9 85.9668 210.35 81.3001 212.45 77.8001C214.783 74.0668 217.116 70.9168 219.45 68.3501C221.783 66.0168 223.416 63.6834 224.35 61.3501C225.283 58.7834 225.166 56.2168 224 53.6501C223.066 50.8501 220.85 48.0501 217.35 45.2501C213.85 42.4501 208.716 39.3001 201.95 35.8001C193.083 31.3668 185.733 28.5668 179.9 27.4001C174.3 26.0001 170.1 26.0001 167.3 27.4001C164.733 28.5668 163.566 30.7834 163.8 34.0501C164.033 37.0834 165.666 40.8168 168.7 45.2501C172.666 51.0834 173.366 62.6334 170.8 79.9001C168.466 97.1668 163.333 119.567 155.4 147.1C128.566 149.2 106.516 150.6 89.2496 151.3C81.0829 151.767 74.7829 152 70.3496 152C65.9162 152 61.5996 151.883 57.3996 151.65C46.1996 150.95 40.4829 151.767 40.2496 154.1C40.0162 156.433 43.7496 160.983 51.4496 167.75C55.1829 171.017 58.3329 173.583 60.8996 175.45C63.6996 177.083 66.4996 178.25 69.2996 178.95C72.3329 179.417 75.7162 179.3 79.4496 178.6C83.1829 177.9 88.0829 176.733 94.1496 175.1C98.3496 173.933 105.466 172.65 115.5 171.25C125.533 169.617 136.966 167.983 149.8 166.35C148.166 171.017 146.533 175.567 144.9 180C143.266 184.2 141.4 188.633 139.3 193.3C135.566 201.467 133.933 207.067 134.4 210.1C134.866 213.133 137.433 215.467 142.1 217.1C146.533 218.733 150.733 220.367 154.7 222C158.666 223.633 162.633 225.383 166.6 227.25C170.566 228.883 174.65 230.75 178.85 232.85C181.305 233.941 183.839 235.192 186.454 236.602C182.823 240.4 179.076 244.169 175.211 247.909C169.408 253.54 163.37 258.94 157.097 264.107C151.057 269.039 144.433 273.858 137.225 278.564C130.251 283.501 122.46 288.326 113.852 293.039C105.479 297.984 96.1718 302.934 85.9316 307.889C56.6059 321.814 58.3791 326.121 91.251 320.811C125.987 315.024 157.763 301.204 186.58 279.349C194.746 273.155 203.86 264.786 213.241 255.15C214.986 256.278 216.722 257.47 218.4 258.75C227.266 265.517 235.666 272.75 243.6 280.45C251.533 288.15 259.933 297.717 268.8 309.15C272.533 314.283 276.033 317.9 279.3 320C282.8 322.333 285.716 322.917 288.05 321.75C290.616 320.583 292.483 317.667 293.65 313C295.05 308.567 295.516 302.033 295.05 293.4C294.816 287.1 293.766 281.383 291.9 276.25C290.266 270.883 287.35 265.75 283.15 260.85C278.95 255.95 273.233 251.167 266 246.5C261.861 243.696 253.76 240.816 245.445 237.86C241.238 236.364 236.975 234.848 233.143 233.313C250.35 213.28 266.845 191.153 278.464 172.484C284.249 163.353 288.53 156.797 291.309 152.815C294.32 148.599 297.22 145.55 300.01 143.668C303.496 141.083 306.05 138.736 307.672 136.627C309.528 134.517 310.099 132.297 309.387 129.968C308.674 127.638 306.56 124.966 303.043 121.952C299.759 118.703 294.721 114.763 287.93 110.133C280.903 105.27 275.169 101.918 270.725 100.075C266.516 98.2309 263.363 97.7811 261.268 98.7257C259.173 99.6703 258.134 101.776 258.152 105.043C258.169 108.309 258.893 112.739 260.323 118.331C261.279 122.526 260.262 128.598 257.271 136.548C257.027 137.197 256.771 137.853 256.504 138.516ZM245.041 160.451C242.172 160.515 238.205 160.587 233.814 160.666C222.285 160.875 207.832 161.136 202.65 161.45C195.183 161.683 186.9 162.267 177.8 163.2C175.933 167.867 174.3 172.183 172.9 176.15C171.733 180.117 170.216 184.783 168.35 190.15C166.483 195.05 165.9 198.317 166.6 199.95C167.3 201.35 168.7 202.517 170.8 203.45C177.8 206.017 184.45 208.583 190.75 211.15C195.558 212.931 200.094 214.712 204.359 216.493C204.619 216.178 204.879 215.863 205.137 215.548C214.177 204.299 236.82 173.641 243.066 163.574C243.743 162.522 244.402 161.481 245.041 160.451Z" fill="black"/>
</svg>
