<svg width="500" height="500" viewBox="0 0 500 500" fill="none" xmlns="http://www.w3.org/2000/svg">
<path fill-rule="evenodd" clip-rule="evenodd" d="M165.205 236.69C173.955 235.64 184.63 234.59 197.23 233.54C194.43 241.94 191.98 248.94 189.88 254.54C188.13 259.79 186.38 264.165 184.63 267.665C183.23 271.165 181.83 273.965 180.43 276.065C179.38 277.815 178.33 279.215 177.28 280.265C166.08 292.865 167.655 302.14 182.005 308.09C186.205 309.84 191.28 312.29 197.23 315.44C203.18 318.24 209.48 321.39 216.13 324.89C222.78 328.39 229.43 332.065 236.08 335.915C240.544 338.499 244.771 341.005 248.761 343.431C247.873 344.358 246.979 345.284 246.079 346.209C226.988 365.717 205.614 383.133 181.958 398.456C158.68 414.1 136.419 427.199 115.174 437.755C101.05 445.258 94.2789 450.39 94.8609 453.151C95.472 456.261 103.901 456.259 120.148 453.144C147.033 447.034 173.742 436.724 200.275 422.213C227.158 407.674 251.38 390.722 272.942 371.359C275.272 369.309 277.566 367.25 279.825 365.182C281.565 366.538 283.412 367.972 285.43 369.515C297.33 378.615 309.755 389.64 322.705 402.59C336.005 415.54 350.53 432.165 366.28 452.465C378.18 467.515 387.63 472.94 394.63 468.74C401.63 464.89 403.73 451.415 400.93 428.315C400.23 420.965 398.305 413.965 395.155 407.315C392.355 400.315 387.455 393.14 380.455 385.79C373.805 378.44 364.705 370.915 353.155 363.215C351.069 361.716 348.534 359.852 345.677 357.752C336.105 350.715 322.931 341.03 311.015 333.557C316.18 327.716 321.084 321.812 325.727 315.845C340.633 296.687 354.812 275.131 368.263 251.177C373.754 241.235 378.2 233.488 381.599 227.936C383.058 225.381 386.28 219.318 389.641 212.991C394.044 204.704 398.687 195.965 399.923 194.069C402.451 190.697 404.514 188.066 406.112 186.176C408.059 184.257 410.18 182.324 412.476 180.376C415.411 177.672 417.503 175.39 418.753 173.53C419.973 171.32 419.943 168.864 418.664 166.161C417.355 163.11 414.433 159.666 409.898 155.831C405.363 151.995 398.807 147.099 390.231 141.143C373.05 128.881 361.568 123.87 355.784 126.109C350.001 128.349 349.669 136.982 354.788 152.007C356.62 157.123 355.765 165.799 352.222 178.037C350.668 183.207 346.759 192.565 342.138 202.82C340.679 202.882 339.129 202.972 337.48 203.09C332.466 203.448 319.414 203.806 306.362 204.165C293.906 204.506 281.449 204.848 275.98 205.19C264.78 205.89 252.53 206.59 239.23 207.29C246.58 185.24 252.705 167.39 257.605 153.74C262.505 140.09 266.705 129.065 270.205 120.665C273.705 112.265 276.855 105.79 279.655 101.24C282.455 96.69 285.43 92.49 288.58 88.64C291.73 85.14 293.83 81.815 294.88 78.665C296.28 75.515 296.28 72.365 294.88 69.215C293.83 66.065 291.03 62.565 286.48 58.715C282.28 54.515 275.98 49.615 267.58 44.015C257.43 37.365 248.855 32.99 241.855 30.89C234.855 28.79 229.43 28.44 225.58 29.84C221.73 31.24 219.63 34.04 219.28 38.24C218.93 42.09 220.68 46.99 224.53 52.94C227.33 57.84 229.08 64.49 229.78 72.89C230.83 80.94 230.655 91.265 229.255 103.865C227.855 116.465 225.23 131.515 221.38 149.015C217.53 166.165 212.105 186.29 205.105 209.39C198.105 209.74 190.93 210.09 183.58 210.44C176.23 210.44 168.53 210.79 160.48 211.49C139.83 212.54 123.03 213.415 110.08 214.115C97.48 214.465 87.33 214.815 79.63 215.165C71.93 215.515 65.98 215.69 61.78 215.69H50.755C38.855 214.99 32.03 217.09 30.28 221.99C28.88 226.54 32.73 231.265 41.83 236.165C48.48 240.015 54.08 242.99 58.63 245.09C63.53 247.19 68.255 248.59 72.805 249.29C77.355 249.64 82.255 249.465 87.505 248.765C92.755 248.065 99.23 246.84 106.93 245.09C113.23 243.69 119.005 242.465 124.255 241.415C129.855 240.365 135.98 239.49 142.63 238.79C149.28 238.09 156.805 237.39 165.205 236.69ZM330.774 226.964C323.577 227.231 313.054 227.498 302.53 227.765C288.73 228.115 274.93 228.465 268.63 228.815C256.03 229.515 243.605 230.215 231.355 230.915C223.305 251.565 217.53 265.215 214.03 271.865C209.83 279.915 207.905 285.165 208.255 287.615C208.605 289.715 211.58 291.99 217.18 294.44C228.38 298.99 238.705 303.365 248.155 307.565C256.165 311.125 263.923 314.685 271.43 318.245C278.818 309.466 285.711 300.646 292.106 291.786C305.297 273.123 315.975 255.899 324.139 240.114C326.045 236.482 328.333 231.947 330.774 226.964Z" fill="black"/>
</svg>
