<svg width="500" height="501" viewBox="0 0 500 501" fill="none" xmlns="http://www.w3.org/2000/svg">
<path d="M267.629 209.167C276.295 207.833 283.795 206.833 290.129 206.167C296.795 205.167 303.295 204.167 309.629 203.167C316.295 202.167 323.629 201 331.629 199.667C339.629 198.333 349.629 196.833 361.629 195.167C373.629 193.167 383.462 191.833 391.129 191.167C398.795 190.5 405.295 190.5 410.629 191.167C416.295 191.5 421.462 192.833 426.129 195.167C430.795 197.5 436.129 200.667 442.129 204.667C449.129 209.333 453.962 213.833 456.629 218.167C459.295 222.5 459.795 226.333 458.129 229.667C456.462 232.667 452.462 235 446.129 236.667C440.129 238 431.629 238 420.629 236.667C399.962 234.333 375.962 233 348.629 232.667C321.629 232.333 294.629 233.333 267.629 235.667C267.629 244.667 267.462 254.833 267.129 266.167C267.129 277.5 266.962 289 266.629 300.667C266.629 312 266.462 323.167 266.129 334.167C266.129 344.833 266.129 354.333 266.129 362.667C266.129 374.667 265.962 385.167 265.629 394.167C265.295 402.833 264.795 411.167 264.129 419.167C263.795 426.833 263.129 434.167 262.129 441.167C261.462 448.5 260.462 456.333 259.129 464.667C255.462 487.667 250.962 499.5 245.629 500.167C240.629 500.833 236.295 491.667 232.629 472.667C231.629 468 230.795 463.333 230.129 458.667C229.795 454 229.295 448.667 228.629 442.667C228.295 436.667 227.962 429.833 227.629 422.167C227.295 414.833 226.962 406 226.629 395.667C226.629 389.667 226.462 381 226.129 369.667C226.129 358.333 225.962 345.667 225.629 331.667C225.629 317.333 225.629 302.333 225.629 286.667C225.629 270.667 225.629 255.167 225.629 240.167C184.295 245.167 147.962 251.667 116.629 259.667C109.295 261.667 103.129 263 98.1286 263.667C93.1286 264.333 88.4619 264.333 84.1286 263.667C80.1286 263 75.7952 261.667 71.1286 259.667C66.7952 257.667 61.2952 254.667 54.6286 250.667C43.9619 244.333 39.1286 239.167 40.1286 235.167C41.1286 231.167 49.1286 229.333 64.1286 229.667C66.1286 229.667 69.1286 229.667 73.1286 229.667C77.4619 229.333 82.1286 229.167 87.1286 229.167C92.1286 228.833 97.1286 228.5 102.129 228.167C107.129 227.833 111.629 227.5 115.629 227.167C131.962 225.5 149.795 223.667 169.129 221.667C188.462 219.667 207.295 217.5 225.629 215.167C225.962 186.5 224.962 156 222.629 123.667C221.962 113 220.462 104.5 218.129 98.1667C215.795 91.8333 212.462 86.1667 208.129 81.1667C200.129 71.5 198.129 64.6667 202.129 60.6667C206.462 56.6667 217.462 57.1667 235.129 62.1667C246.462 65.1667 255.295 68 261.629 70.6667C267.962 73.3333 272.462 76.1667 275.129 79.1667C278.129 82.1667 279.462 85.3333 279.129 88.6667C278.795 92 277.629 96 275.629 100.667C273.962 104.333 272.629 108.167 271.629 112.167C270.629 115.833 269.795 121.5 269.129 129.167C268.795 136.5 268.462 146.5 268.129 159.167C267.795 171.5 267.629 188.167 267.629 209.167Z" fill="black"/>
</svg>
