<svg width="500" height="500" viewBox="0 0 500 500" fill="none" xmlns="http://www.w3.org/2000/svg">
<path d="M351.632 130.625C342.966 132.958 334.632 134.958 326.632 136.625C318.966 138.292 311.132 139.958 303.132 141.625C295.132 142.958 286.799 144.458 278.132 146.125C269.466 147.458 260.132 148.792 250.132 150.125C235.132 152.125 222.632 153.792 212.632 155.125C202.632 156.125 193.966 156.625 186.632 156.625C179.299 156.625 172.799 156.125 167.132 155.125C161.466 153.792 155.632 151.958 149.632 149.625C137.632 144.958 131.799 141.125 132.132 138.125C132.466 134.792 139.632 132.625 153.632 131.625C165.632 130.625 176.632 129.625 186.632 128.625C196.966 127.292 207.299 125.625 217.632 123.625C228.299 121.625 239.632 119.292 251.632 116.625C263.632 113.625 277.466 110.125 293.132 106.125C300.799 104.125 307.132 102.625 312.132 101.625C317.466 100.625 322.132 100.125 326.132 100.125C330.132 99.7917 333.966 100.125 337.632 101.125C341.632 101.792 346.132 102.958 351.132 104.625C360.799 108.292 365.966 112.958 366.632 118.625C367.299 123.958 362.299 127.958 351.632 130.625ZM337.132 228.625C349.132 235.958 354.632 242.292 353.632 247.625C352.966 252.625 344.632 254.958 328.632 254.625C322.966 254.625 314.966 254.958 304.632 255.625C294.632 256.292 283.799 257.292 272.132 258.625C260.466 259.958 248.966 261.458 237.632 263.125C226.632 264.792 217.466 266.292 210.132 267.625C200.132 269.625 191.299 270.292 183.632 269.625C175.966 268.958 167.632 266.458 158.632 262.125C147.966 257.125 142.966 252.958 143.632 249.625C144.632 246.292 151.132 244.458 163.132 244.125C171.466 244.125 179.799 243.792 188.132 243.125C196.466 242.125 205.132 240.792 214.132 239.125C223.466 237.458 233.299 235.458 243.632 233.125C253.966 230.792 265.299 227.958 277.632 224.625C284.966 222.625 291.299 221.292 296.632 220.625C301.966 219.625 306.799 219.292 311.132 219.625C315.466 219.625 319.632 220.458 323.632 222.125C327.966 223.458 332.466 225.625 337.132 228.625ZM457.632 354.625C469.632 366.292 473.966 374.792 470.632 380.125C467.632 385.125 455.299 386.292 433.632 383.625C421.966 382.292 408.466 381.125 393.132 380.125C378.132 378.792 362.299 377.958 345.632 377.625C329.299 376.958 312.966 376.792 296.632 377.125C280.299 377.125 264.966 377.458 250.632 378.125C219.299 379.792 190.966 382.292 165.632 385.625C140.632 388.958 121.299 392.292 107.632 395.625C99.6324 397.625 92.9657 398.958 87.6324 399.625C82.6324 400.292 77.9657 400.458 73.6324 400.125C69.299 399.458 64.799 397.958 60.1324 395.625C55.4657 393.292 49.799 390.125 43.1324 386.125C32.799 379.792 28.1324 374.792 29.1324 371.125C30.4657 367.458 37.1324 365.958 49.1324 366.625C58.4657 366.958 70.9657 366.958 86.6324 366.625C102.632 365.958 120.299 364.958 139.632 363.625C158.966 362.292 179.466 360.792 201.132 359.125C222.799 357.125 244.132 355.125 265.132 353.125C286.132 350.792 305.966 348.458 324.632 346.125C343.632 343.792 360.299 341.458 374.632 339.125C386.632 337.125 396.799 335.958 405.132 335.625C413.466 334.958 420.632 335.292 426.632 336.625C432.966 337.625 438.466 339.625 443.132 342.625C447.799 345.625 452.632 349.625 457.632 354.625Z" fill="black"/>
</svg>
