<svg width="366" height="350" viewBox="0 0 366 350" fill="none" xmlns="http://www.w3.org/2000/svg">
<path d="M270.536 78.68C264.936 80.0133 259.47 81.2133 254.136 82.28C249.07 83.3467 243.47 84.4133 237.336 85.48C231.203 86.5467 224.136 87.7467 216.136 89.08C208.136 90.4133 198.536 92.0133 187.336 93.88C174.803 95.7467 164.136 97.2133 155.336 98.28C146.803 99.3467 139.336 99.88 132.936 99.88C126.803 99.88 121.336 99.3467 116.536 98.28C112.003 97.2133 107.603 95.6133 103.336 93.48C91.8695 87.88 86.4028 83.88 86.9362 81.48C87.4695 79.08 94.5362 77.3467 108.136 76.28C114.536 75.7467 120.803 75.08 126.936 74.28C133.336 73.48 140.003 72.5467 146.936 71.48C154.136 70.1467 161.603 68.68 169.336 67.08C177.336 65.2133 186.003 62.9467 195.336 60.28C207.87 56.8133 217.736 54.1467 224.936 52.28C232.403 50.4133 238.536 49.3467 243.336 49.08C248.136 48.8133 252.27 49.2133 255.736 50.28C259.47 51.3467 263.87 53.08 268.936 55.48C278.003 59.7467 282.536 64.1467 282.536 68.68C282.803 73.2133 278.803 76.5467 270.536 78.68ZM260.136 153.88C268.67 160.547 272.003 166.28 270.136 171.08C268.536 175.88 261.336 178.413 248.536 178.68C239.203 178.947 230.136 179.347 221.336 179.88C212.803 180.147 204.27 180.947 195.736 182.28C178.403 185.213 164.803 187.48 154.936 189.08C145.07 190.413 137.336 191.213 131.736 191.48C126.403 191.747 122.403 191.347 119.736 190.28C117.07 189.213 114.403 187.613 111.736 185.48C101.87 177.747 97.4695 172.947 98.5362 171.08C99.6028 168.947 105.336 167.747 115.736 167.48C120.803 167.48 127.336 166.947 135.336 165.88C143.603 164.813 152.003 163.48 160.536 161.88C169.07 160.28 177.336 158.547 185.336 156.68C193.336 154.813 199.736 153.08 204.536 151.48C217.87 146.947 228.67 144.813 236.936 145.08C245.203 145.347 252.936 148.28 260.136 153.88ZM351.336 255.48C363.336 269.347 367.603 278.28 364.136 282.28C360.936 286.28 350.27 286.813 332.136 283.88C321.736 282.28 312.003 280.947 302.936 279.88C293.87 278.813 283.87 278.28 272.936 278.28C262.003 278.013 249.336 278.147 234.936 278.68C220.536 279.213 202.936 280.147 182.136 281.48C170.403 282.28 158.67 283.347 146.936 284.68C135.203 285.747 124.136 287.08 113.736 288.68C103.336 290.013 93.8695 291.48 85.3362 293.08C77.0695 294.68 70.5362 296.147 65.7362 297.48C60.1362 299.08 55.4695 300.147 51.7362 300.68C48.0028 301.48 44.4028 301.48 40.9362 300.68C37.7362 300.147 34.1362 298.813 30.1362 296.68C26.4028 294.28 21.6028 290.947 15.7362 286.68C4.2695 278.413 -0.930496 273.08 0.13617 270.68C1.20284 268.013 9.73617 267.08 25.7362 267.88C29.4695 268.147 34.9362 268.147 42.1362 267.88C49.3362 267.613 55.7362 267.213 61.3362 266.68C87.4695 264.013 112.136 261.48 135.336 259.08C158.803 256.68 180.003 254.413 198.936 252.28C218.136 250.147 234.803 248.28 248.936 246.68C263.336 244.813 274.536 243.213 282.536 241.88C293.47 240.28 302.536 239.347 309.736 239.08C316.936 238.813 323.07 239.213 328.136 240.28C333.203 241.347 337.47 243.213 340.936 245.88C344.403 248.28 347.87 251.48 351.336 255.48Z" fill="black"/>
</svg>
