<svg width="350" height="350" viewBox="0 0 350 350" fill="none" xmlns="http://www.w3.org/2000/svg">
<path d="M335.613 112.52C332.146 116.253 329.079 120.253 326.413 124.52C324.013 128.52 321.746 133.32 319.613 138.92C317.479 144.52 315.479 151.187 313.613 158.92C311.746 166.387 309.746 175.587 307.613 186.52C305.479 197.187 303.479 206.253 301.613 213.72C300.013 221.187 298.413 227.587 296.812 232.92C295.213 238.253 293.613 242.787 292.013 246.52C290.679 249.987 289.212 253.053 287.612 255.72C280.679 267.453 274.413 276.387 268.812 282.52C263.213 288.387 258.279 291.853 254.012 292.92C250.013 294.253 246.546 293.32 243.613 290.12C240.946 286.92 239.079 281.987 238.013 275.32C236.679 268.12 235.346 262.52 234.012 258.52C232.946 254.253 231.479 251.053 229.613 248.92C228.013 246.52 226.013 245.053 223.613 244.52C221.213 243.72 218.146 243.187 214.413 242.92C211.479 242.653 206.279 242.787 198.812 243.32C191.346 243.853 182.946 244.653 173.613 245.72C164.546 246.52 155.346 247.587 146.012 248.92C136.679 249.987 128.813 251.053 122.413 252.12C111.213 253.987 102.279 255.053 95.6125 255.32C88.9458 255.587 82.1458 255.053 75.2125 253.72C73.8792 260.92 71.8792 265.853 69.2125 268.52C66.5458 271.187 64.2792 272.52 62.4125 272.52C60.0125 272.52 57.6125 271.453 55.2125 269.32C53.0792 267.187 51.0792 264.52 49.2125 261.32C47.6125 257.853 46.1458 253.987 44.8125 249.72C43.4792 245.187 42.6792 240.52 42.4125 235.72C40.8125 218.653 39.4792 204.92 38.4125 194.52C37.3458 184.12 36.2792 175.453 35.2125 168.52C34.1458 161.587 32.9458 155.587 31.6125 150.52C30.5458 145.453 29.2125 139.72 27.6125 133.32C25.7458 125.587 23.6125 118.787 21.2125 112.92C19.0792 107.053 16.5458 102.52 13.6125 99.32C7.47917 92.3867 5.6125 87.72 8.0125 85.32C10.6792 82.6533 19.7458 81.9867 35.2125 83.32C41.0792 83.8533 45.6125 84.52 48.8125 85.32C52.0125 86.12 54.5458 87.1867 56.4125 88.52C78.0125 86.6533 98.2792 84.7867 117.213 82.92C136.146 80.7867 153.613 78.7867 169.613 76.92C185.346 75.0533 198.279 73.4533 208.413 72.12C218.546 70.7867 226.813 69.5867 233.213 68.52C239.879 67.4533 245.213 66.3867 249.213 65.32C253.213 63.9867 257.079 62.6533 260.813 61.32C265.079 59.72 268.813 58.52 272.013 57.72C275.479 56.92 278.813 56.7867 282.013 57.32C285.479 57.8533 289.346 59.1867 293.613 61.32C298.146 63.1867 303.612 66.12 310.013 70.12C319.613 76.2533 326.946 81.1867 332.013 84.92C337.346 88.6533 340.813 91.9867 342.413 94.92C344.013 97.8533 344.013 100.653 342.413 103.32C341.079 105.987 338.813 109.053 335.613 112.52ZM272.812 109.72C273.346 101.987 272.546 97.1867 270.413 95.32C268.279 93.4533 263.079 92.3867 254.813 92.12C251.079 91.8533 243.879 92.12 233.213 92.92C222.813 93.4533 210.546 94.2533 196.413 95.32C202.279 97.72 206.813 99.72 210.012 101.32C213.479 102.92 215.746 104.52 216.812 106.12C217.879 107.453 218.012 109.053 217.212 110.92C216.679 112.787 215.479 115.32 213.613 118.52C210.946 123.053 209.079 128.92 208.012 136.12C207.213 143.32 207.479 149.853 208.813 155.72C210.146 162.12 215.879 164.12 226.013 161.72C232.146 160.387 237.079 159.453 240.812 158.92C244.546 158.387 247.746 158.52 250.413 159.32C253.346 159.853 255.879 161.187 258.012 163.32C260.412 165.453 263.212 168.253 266.413 171.72C267.746 162.653 268.946 153.053 270.013 142.92C271.346 132.787 272.279 121.72 272.812 109.72ZM111.613 103.32C103.079 104.12 94.8125 104.92 86.8125 105.72C78.8125 106.52 71.4792 107.32 64.8125 108.12C65.6125 113.187 66.4125 119.853 67.2125 128.12C68.2792 136.12 69.2125 144.92 70.0125 154.52C71.0792 163.853 71.8792 173.453 72.4125 183.32C73.2125 193.187 73.8792 202.387 74.4125 210.92C82.9458 202.653 90.2792 193.587 96.4125 183.72C102.546 173.853 107.079 164.12 110.012 154.52C113.213 143.587 115.213 134.387 116.013 126.92C117.079 119.187 115.613 111.32 111.613 103.32ZM263.612 185.32C259.612 187.453 252.946 189.053 243.613 190.12C228.146 191.987 215.879 192.653 206.813 192.12C197.746 191.32 190.946 189.053 186.413 185.32C182.146 181.32 179.613 175.72 178.813 168.52C178.013 161.053 178.013 151.587 178.813 140.12C179.879 127.853 180.146 118.653 179.613 112.52C179.079 106.12 177.746 101.053 175.613 97.32C169.479 97.8533 163.213 98.3867 156.812 98.92C150.413 99.4533 144.146 99.9867 138.013 100.52C143.879 103.72 148.413 106.52 151.613 108.92C155.079 111.32 157.346 113.453 158.413 115.32C159.746 117.187 160.146 119.053 159.613 120.92C159.346 122.787 158.413 124.787 156.812 126.92C153.879 131.187 151.213 135.587 148.813 140.12C146.413 144.387 144.146 150.12 142.012 157.32C137.746 170.92 129.879 183.187 118.413 194.12C107.212 205.053 92.8125 213.587 75.2125 219.72C75.7458 222.92 76.0125 225.853 76.0125 228.52C76.0125 230.92 76.0125 233.453 76.0125 236.12C96.5458 233.987 116.413 231.587 135.613 228.92C154.813 225.987 175.212 222.653 196.812 218.92C204.279 217.587 210.279 216.787 214.813 216.52C219.346 215.987 223.079 216.12 226.013 216.92C229.213 217.72 231.879 219.187 234.012 221.32C236.146 223.187 238.546 225.987 241.213 229.72C244.946 229.72 247.746 229.32 249.613 228.52C251.746 227.72 253.346 225.72 254.413 222.52C256.279 216.653 257.879 210.787 259.213 204.92C260.813 198.787 262.279 192.253 263.612 185.32Z" fill="black"/>
</svg>
