<svg width="500" height="500" viewBox="0 0 500 500" fill="none" xmlns="http://www.w3.org/2000/svg">
<path d="M255.167 216.382C264.833 214.716 275.333 212.216 286.667 208.882C298 205.216 310.667 200.549 324.667 194.882C333.333 191.216 341.667 189.549 349.667 189.882C357.667 190.216 366.167 192.716 375.167 197.382C385.5 203.049 390 208.382 388.667 213.382C387.333 218.049 378.833 221.882 363.167 224.882C346.5 228.216 332.333 230.882 320.667 232.882C309 234.549 299.167 235.716 291.167 236.382C283.167 237.049 276.333 237.382 270.667 237.382C265 237.382 259.833 237.049 255.167 236.382L254.167 385.882C280.833 383.216 302.167 381.049 318.167 379.382C334.167 377.716 346.5 376.382 355.167 375.382C363.833 374.382 370 373.549 373.667 372.882C377.667 372.216 381.167 371.549 384.167 370.882C392.5 369.216 399.5 368.049 405.167 367.382C411.167 366.716 416.667 366.882 421.667 367.882C426.667 368.882 431.5 370.882 436.167 373.882C441.167 376.549 447 380.216 453.667 384.882C459.667 389.549 463.833 393.882 466.167 397.882C468.833 401.882 468.833 405.382 466.167 408.382C463.833 411.049 458.667 413.049 450.667 414.382C442.667 415.382 431 415.049 415.667 413.382C395 411.382 371.167 410.216 344.167 409.882C317.5 409.549 285.5 410.382 248.167 412.382C220.167 413.716 192.5 415.882 165.167 418.882C137.833 422.216 114.167 426.549 94.1667 431.882C88.8333 433.549 84.1667 434.549 80.1667 434.882C76.5 435.549 73 435.549 69.6667 434.882C66.3333 434.549 63 433.549 59.6667 431.882C56.6667 430.549 53 428.549 48.6667 425.882C25.3333 410.549 26.5 402.716 52.1667 402.382C59.5 402.382 69.1667 402.049 81.1667 401.382C93.5 400.716 107 399.882 121.667 398.882C136.667 397.549 152.333 396.216 168.667 394.882C185 393.549 201 392.049 216.667 390.382L216.167 227.382C216.167 202.382 215.833 181.882 215.167 165.882C214.5 149.882 213.667 137.049 212.667 127.382C211.667 117.382 210.333 110.049 208.667 105.382C207 100.382 205 96.3824 202.667 93.3824C192.667 80.7157 189.5 72.2157 193.167 67.8824C197.167 63.2157 208.333 64.2157 226.667 70.8823C238.667 75.2157 248 78.8824 254.667 81.8824C261.667 84.549 266.333 87.3824 268.667 90.3824C271.333 93.3824 272.167 96.8824 271.167 100.882C270.5 104.549 268.667 109.216 265.667 114.882C263.667 118.882 262 123.382 260.667 128.382C259.667 133.382 258.667 139.716 257.667 147.382C257 154.716 256.333 164.049 255.667 175.382C255.333 186.382 255.167 200.049 255.167 216.382Z" fill="black"/>
</svg>
