<svg width="500" height="500" viewBox="0 0 500 500" fill="none" xmlns="http://www.w3.org/2000/svg">
<path d="M197.629 141.167C238.507 134.878 249.956 126.747 291.129 123.167C298.795 122.5 305.295 122.5 310.629 123.167C316.295 123.5 321.462 124.833 326.129 127.167C330.795 129.5 336.129 132.667 342.129 136.667C349.129 141.333 353.962 145.833 356.629 150.167C359.295 154.5 359.795 158.333 358.129 161.667C356.462 164.667 352.462 167 346.129 168.667C340.129 170 331.629 170 320.629 168.667C270.021 162.953 248.319 163.286 197.629 167.667C197.629 176.667 197.462 186.833 197.129 198.167C197.129 236.472 197.562 275.133 192.129 313.167C192.093 313.562 184.933 326.004 175.629 327.167C165.764 328.482 158.688 315.203 158.629 314.667C156.851 282.664 155.629 250.722 155.629 218.667C155.629 202.667 155.629 187.167 155.629 172.167C112.312 177.407 88.0542 202.424 44.1286 195.667C40.1286 195 35.7952 193.667 31.1286 191.667C26.7952 189.667 21.2952 186.667 14.6286 182.667C3.96191 176.333 -0.871428 171.167 0.128571 167.167C1.12857 163.167 9.12857 161.333 24.1286 161.667C26.1286 161.667 29.1286 161.667 33.1286 161.667C37.4619 161.333 42.1286 161.167 47.1286 161.167C93.4166 158.081 109.614 153.023 155.629 147.167C155.962 118.5 154.962 98 152.629 65.6667C151.962 55 150.462 46.5 148.129 40.1667C145.795 33.8333 142.462 28.1667 138.129 23.1667C130.129 13.5 128.129 6.66666 132.129 2.66666C136.462 -1.33333 147.462 -0.833329 165.129 4.16667C176.462 7.16667 185.295 10 191.629 12.6667C197.962 15.3333 202.462 18.1667 205.129 21.1667C208.129 24.1667 209.462 27.3333 209.129 30.6667C208.795 34 207.629 38 205.629 42.6667C203.962 46.3333 202.629 50.1667 201.629 54.1667C200.629 57.8333 199.795 63.5 199.129 71.1667C197.917 97.8143 197.629 114.495 197.629 141.167Z" fill="black"/>
<path d="M413.059 343.125C414.059 337.792 408.559 331.458 396.559 324.125C391.892 321.125 387.392 318.958 383.059 317.625C379.059 315.958 374.892 315.125 370.559 315.125C366.226 314.792 361.392 315.125 356.059 316.125C350.725 316.792 344.392 318.125 337.059 320.125C321.362 324.367 305.878 327.667 289.559 329.625C281.225 330.292 272.892 330.625 264.559 330.625C252.559 330.958 246.059 332.792 245.059 336.125C244.392 339.458 249.392 343.625 260.059 348.625C269.059 352.958 277.392 355.458 285.059 356.125C310.173 358.309 338.795 352.809 364.059 351.125C374.392 350.458 382.392 350.125 388.059 350.125C404.059 350.458 412.392 348.125 413.059 343.125Z" fill="black"/>
<path d="M476.596 407.5C492.596 420.5 498.929 431.167 495.596 439.5C492.596 447.5 479.929 449.5 457.596 445.5C444.596 443.167 432.596 441.333 421.596 440C410.596 438.667 398.596 437.833 385.596 437.5C335.445 434.861 288.19 435.271 238.596 446.5C230.929 448.167 224.262 449.333 218.596 450C212.929 450.667 207.929 450.833 203.596 450.5C199.596 449.833 195.929 448.667 192.596 447C189.262 445.333 185.929 443.167 182.596 440.5C167.929 428.5 161.096 420.5 162.096 416.5C163.429 412.5 172.596 411.333 189.596 413C193.262 413.333 198.429 413.5 205.096 413.5C211.762 413.167 222.096 412.667 236.096 412C280.229 409.615 323.72 404.514 367.596 399.5C379.596 397.833 388.762 396.333 395.096 395C405.429 393 414.429 391.833 422.096 391.5C430.096 390.833 437.096 391 443.096 392C449.429 392.667 455.096 394.333 460.096 397C465.429 399.667 470.929 403.167 476.596 407.5Z" fill="black"/>
<path d="M392.071 269.5C398.071 268.167 403.571 267 408.571 266C423.571 262.667 430.905 258 430.571 252C430.571 245.667 421.571 239 403.571 232C399.905 230.667 395.738 229.833 391.071 229.5C386.738 228.833 381.571 228.833 375.571 229.5C317.947 232.701 301.676 247.03 243.571 251.5C233.571 252.167 228.071 253.833 227.071 256.5C226.405 258.833 230.405 262.5 239.071 267.5C245.071 270.833 250.905 273.5 256.571 275.5C262.571 277.5 269.405 278.833 277.071 279.5C320.733 283.297 327.562 279.882 370.571 273C378.905 271.667 386.071 270.5 392.071 269.5Z" fill="black"/>
</svg>
