<svg width="500" height="500" viewBox="0 0 500 500" fill="none" xmlns="http://www.w3.org/2000/svg">
<path d="M115.182 339.75C113.515 348.083 111.515 353.917 109.182 357.25C107.182 360.25 105.182 361.75 103.182 361.75C98.8485 361.75 94.6818 358.083 90.6818 350.75C87.0152 343.417 84.5152 332.25 83.1818 317.25C81.5152 296.917 80.0152 280.25 78.6818 267.25C77.3485 253.917 76.0152 242.583 74.6818 233.25C73.3485 223.917 71.8485 215.583 70.1818 208.25C68.8485 200.583 67.0152 192.25 64.6818 183.25C63.0152 176.583 60.8485 170.417 58.1818 164.75C55.8485 159.083 53.1818 153.917 50.1818 149.25C46.8485 143.917 44.8485 139.417 44.1818 135.75C43.5152 132.083 44.6818 129.583 47.6818 128.25C50.6818 126.583 55.6818 126.25 62.6818 127.25C70.0152 128.25 79.6818 130.75 91.6818 134.75C126.348 132.417 159.682 129.75 191.682 126.75C224.015 123.75 252.848 120.917 278.182 118.25C303.515 115.583 324.349 113.083 340.682 110.75C357.349 108.417 367.682 106.75 371.682 105.75C378.015 103.75 383.182 102.417 387.182 101.75C391.515 100.75 395.515 100.75 399.182 101.75C402.848 102.417 406.682 104.083 410.682 106.75C414.682 109.083 419.682 112.583 425.682 117.25C434.682 124.25 441.348 129.917 445.682 134.25C450.348 138.25 453.348 141.75 454.682 144.75C456.015 147.75 455.849 150.417 454.182 152.75C452.515 155.083 449.849 157.917 446.182 161.25C437.515 168.917 431.182 184.083 427.182 206.75C422.182 235.083 417.348 259.417 412.682 279.75C408.348 299.75 404.015 316.75 399.682 330.75C395.348 344.75 390.848 356.25 386.182 365.25C381.515 373.917 376.682 380.917 371.682 386.25C362.015 396.25 354.682 400.75 349.682 399.75C344.682 398.75 341.182 392.25 339.182 380.25C337.182 368.583 335.349 359.583 333.682 353.25C332.349 346.583 330.682 341.583 328.682 338.25C326.682 334.917 324.182 332.917 321.182 332.25C318.182 331.25 314.182 330.417 309.182 329.75C305.515 329.417 298.182 329.417 287.182 329.75C276.515 330.083 264.515 330.583 251.182 331.25C238.182 331.917 225.015 332.75 211.682 333.75C198.682 334.75 187.682 335.75 178.682 336.75C170.348 337.75 163.182 338.583 157.182 339.25C151.182 339.917 145.682 340.417 140.682 340.75C136.015 341.083 131.682 341.25 127.682 341.25C123.682 340.917 119.515 340.417 115.182 339.75ZM275.182 139.75C288.848 147.083 296.682 152.75 298.682 156.75C300.682 160.75 299.682 165.25 295.682 170.25C291.682 175.583 289.182 182.917 288.182 192.25C287.515 201.25 288.015 210.417 289.682 219.75C290.682 225.083 293.848 228.417 299.182 229.75C304.848 230.75 311.348 229.917 318.682 227.25C327.015 223.917 333.515 222.417 338.182 222.75C342.849 223.083 348.682 225.583 355.682 230.25C365.015 236.583 368.515 242.417 366.182 247.75C364.182 252.75 355.182 256.083 339.182 257.75C321.182 259.417 306.515 259.417 295.182 257.75C284.182 256.083 275.682 252.917 269.682 248.25C263.682 243.25 259.848 236.75 258.182 228.75C256.515 220.417 256.182 210.417 257.182 198.75C257.515 190.75 257.682 184.083 257.682 178.75C257.682 173.417 257.349 168.75 256.682 164.75C256.015 160.417 254.849 156.583 253.182 153.25C251.515 149.583 249.348 145.75 246.682 141.75C237.015 142.417 227.848 143.25 219.182 144.25C210.848 144.917 202.348 145.583 193.682 146.25C200.348 150.25 205.515 153.75 209.182 156.75C212.848 159.417 215.515 161.917 217.182 164.25C218.848 166.583 219.515 168.75 219.182 170.75C218.848 172.75 218.015 174.75 216.682 176.75C214.682 180.083 213.015 183.083 211.682 185.75C210.349 188.417 209.015 191.25 207.682 194.25C206.682 196.917 205.682 199.917 204.682 203.25C203.682 206.583 202.515 210.417 201.182 214.75C199.182 222.417 196.015 229.917 191.682 237.25C187.682 244.25 183.015 250.917 177.682 257.25C172.348 263.25 166.682 268.583 160.682 273.25C154.682 277.917 149.015 281.417 143.682 283.75C127.682 290.75 119.182 293.583 118.182 292.25C117.182 290.583 122.348 283.917 133.682 272.25C141.682 263.583 148.515 253.917 154.182 243.25C160.182 232.25 164.515 222.583 167.182 214.25C171.848 199.25 174.348 187.083 174.682 177.75C175.015 168.417 172.848 158.75 168.182 148.75C155.848 150.083 143.848 151.417 132.182 152.75C120.848 153.75 110.348 155.083 100.682 156.75C102.682 170.75 104.515 185.917 106.182 202.25C107.848 218.25 109.348 233.917 110.682 249.25C112.015 264.25 113.182 278.083 114.182 290.75C115.182 303.417 115.848 313.417 116.182 320.75C127.182 319.75 137.515 318.75 147.182 317.75C157.182 316.75 168.182 315.583 180.182 314.25C192.515 312.583 206.682 310.75 222.682 308.75C238.682 306.417 258.348 303.75 281.682 300.75C291.348 299.417 299.349 298.583 305.682 298.25C312.015 297.917 317.349 298.25 321.682 299.25C326.349 300.25 330.182 302.25 333.182 305.25C336.515 307.917 340.015 311.75 343.682 316.75C348.015 322.083 350.849 325.083 352.182 325.75C353.849 326.083 355.349 324.417 356.682 320.75C364.015 300.417 370.182 277.25 375.182 251.25C380.182 225.25 383.515 196.083 385.182 163.75C385.515 157.75 385.515 153.083 385.182 149.75C384.848 146.083 383.682 143.25 381.682 141.25C380.015 139.25 377.348 137.917 373.682 137.25C370.015 136.583 365.182 136.083 359.182 135.75C357.182 135.75 353.349 135.917 347.682 136.25C342.349 136.25 335.848 136.417 328.182 136.75C320.515 137.083 312.015 137.583 302.682 138.25C293.682 138.583 284.515 139.083 275.182 139.75Z" fill="black"/>
</svg>
