<svg width="359" height="350" viewBox="0 0 359 350" fill="none" xmlns="http://www.w3.org/2000/svg">
<path d="M348.429 286.786C353.229 291.586 356.429 296.12 358.029 300.386C359.629 304.386 359.095 307.72 356.429 310.386C354.029 312.786 349.362 314.386 342.429 315.186C335.495 316.253 325.895 315.986 313.629 314.386C304.029 313.053 294.295 311.986 284.429 311.186C274.562 310.386 264.162 309.853 253.229 309.586C242.562 309.32 231.095 309.32 218.829 309.586C206.829 309.586 193.762 309.853 179.629 310.386C155.362 311.186 133.095 312.92 112.829 315.586C92.5619 318.253 74.6952 321.186 59.2286 324.386C54.1619 325.453 49.8952 326.12 46.4286 326.386C43.2286 326.92 40.2952 326.92 37.6286 326.386C35.2286 326.12 32.6952 325.186 30.0286 323.586C27.3619 322.253 24.1619 320.253 20.4286 317.586C13.4952 312.52 8.29524 308.52 4.82857 305.586C1.36191 302.653 -0.238095 300.386 0.0285713 298.786C0.561905 297.186 2.9619 296.253 7.22857 295.986C11.4952 295.453 17.6286 295.186 25.6286 295.186C42.4286 295.186 61.4952 294.786 82.8286 293.986C104.162 292.92 126.562 291.32 150.029 289.186C150.562 243.586 150.829 206.12 150.829 176.786C151.095 147.186 150.962 123.453 150.429 105.586C150.162 87.7195 149.229 74.5195 147.629 65.9862C146.295 57.4529 144.295 51.4529 141.629 47.9862C132.295 36.2529 128.962 28.9195 131.629 25.9862C134.562 22.7862 145.095 23.4529 163.229 27.9862C174.695 30.9195 183.495 33.7195 189.629 36.3862C196.029 38.7862 200.295 41.5862 202.429 44.7862C204.829 47.9862 205.495 51.7195 204.429 55.9862C203.362 59.9862 201.229 64.9195 198.029 70.7862C195.095 76.3862 193.095 85.3195 192.029 97.5862C191.229 109.853 190.562 125.586 190.029 144.786C198.029 142.92 206.295 140.653 214.829 137.986C223.362 135.053 231.495 132.12 239.229 129.186C248.295 125.453 256.295 123.72 263.229 123.986C270.162 124.253 277.495 126.653 285.229 131.186C294.562 136.786 298.429 141.853 296.829 146.386C295.229 150.92 287.362 154.653 273.229 157.586C262.029 159.72 252.162 161.586 243.629 163.186C235.362 164.52 227.895 165.586 221.229 166.386C214.829 167.186 209.095 167.72 204.029 167.986C198.962 167.986 194.295 167.72 190.029 167.186L188.429 285.986C197.229 285.186 206.562 284.253 216.429 283.186C226.295 282.12 235.762 281.053 244.829 279.986C254.162 278.92 262.562 277.986 270.029 277.186C277.762 276.12 283.762 275.186 288.029 274.386C297.095 272.786 304.429 271.72 310.029 271.186C315.629 270.653 320.562 270.786 324.829 271.586C329.095 272.386 332.962 273.986 336.429 276.386C339.895 278.786 343.895 282.253 348.429 286.786Z" fill="black"/>
</svg>
