<svg width="500" height="500" viewBox="0 0 500 500" fill="none" xmlns="http://www.w3.org/2000/svg">
<path d="M212.563 345.143C221.563 343.476 229.563 341.476 236.562 339.143C243.896 336.81 251.229 334.143 258.562 331.143C267.229 327.476 273.729 325.31 278.062 324.643C282.396 323.976 286.729 324.476 291.062 326.143C300.729 329.143 305.896 332.81 306.563 337.143C307.229 341.476 304.229 344.476 297.563 346.143C286.563 348.81 276.896 350.976 268.563 352.643C260.563 354.31 253.396 355.81 247.062 357.143C240.729 358.143 234.896 358.976 229.562 359.643C224.563 359.976 219.563 360.31 214.562 360.643C215.229 365.976 215.729 371.31 216.063 376.643C216.396 381.643 216.729 386.976 217.062 392.643C224.729 391.31 232.063 389.643 239.063 387.643C246.063 385.643 253.896 382.81 262.563 379.143C271.229 375.476 277.729 373.31 282.062 372.643C286.396 371.976 290.729 372.476 295.063 374.143C304.729 377.476 309.896 381.31 310.563 385.643C311.229 389.643 308.229 392.476 301.563 394.143C281.229 398.81 264.729 402.31 252.063 404.643C239.396 406.643 228.062 407.81 218.062 408.143C218.396 413.476 218.563 418.81 218.563 424.143C218.563 429.476 218.729 435.143 219.062 441.143C238.396 437.81 253.563 435.31 264.563 433.643C275.896 431.643 284.563 430.476 290.563 430.143C296.563 429.476 300.729 429.476 303.063 430.143C305.396 430.476 307.396 431.31 309.063 432.643C311.729 434.976 313.896 435.31 315.563 433.643C317.563 431.976 319.396 425.643 321.062 414.643C322.729 402.643 323.896 391.976 324.563 382.643C325.563 373.31 326.062 364.643 326.062 356.643C326.396 348.643 326.229 340.81 325.562 333.143C325.229 325.476 324.563 317.476 323.562 309.143C322.896 304.476 319.896 300.643 314.562 297.643C309.563 294.643 304.563 293.81 299.563 295.143C276.563 301.143 257.729 305.81 243.063 309.143C228.396 312.143 216.896 314.143 208.562 315.143C209.229 320.476 209.896 325.643 210.562 330.643C211.229 335.643 211.896 340.476 212.563 345.143ZM198.062 299.143C206.666 286.397 212.563 279.143 216.563 260.643C214.563 253.643 214.729 247.976 219.062 245.643C223.729 243.31 229.229 240.476 245.562 247.143C261.896 253.81 261.063 259.31 263.062 263.643C265.062 267.643 262.896 271.476 256.562 275.143C247.062 281.143 236.562 285.143 222.063 295.143C246.729 290.476 266.396 285.81 281.063 281.143C295.729 276.143 306.396 271.31 313.063 266.643C315.396 264.976 317.729 263.81 320.063 263.143C322.396 262.476 325.229 262.476 328.563 263.143C332.229 263.476 336.396 264.81 341.063 267.143C346.063 269.143 352.229 272.31 359.563 276.643C365.896 280.31 370.729 283.476 374.063 286.143C377.729 288.81 380.063 291.31 381.062 293.643C382.063 295.976 382.063 298.31 381.062 300.643C380.063 302.643 378.396 304.976 376.063 307.643C371.396 312.976 367.563 321.643 364.563 333.643C361.563 345.643 360.063 357.31 360.063 368.643C360.063 373.643 359.896 379.31 359.563 385.643C359.229 391.643 358.729 397.976 358.063 404.643C357.729 410.976 357.063 417.476 356.063 424.143C355.396 430.81 354.563 436.81 353.563 442.143C351.563 453.81 348.063 462.81 343.063 469.143C338.396 475.476 334.063 478.643 330.063 478.643C327.396 478.643 324.729 477.31 322.063 474.643C319.729 471.643 316.896 465.81 313.563 457.143C312.563 454.81 311.229 453.143 309.562 452.143C308.229 450.81 304.896 450.31 299.563 450.643C294.229 450.643 286.396 451.643 276.063 453.643C266.063 455.31 252.063 457.81 234.062 461.143C231.396 461.81 228.729 462.143 226.062 462.143C223.396 462.143 220.729 462.143 218.062 462.143C217.396 466.143 215.896 469.81 213.562 473.143C211.229 476.143 208.729 477.643 206.062 477.643C200.396 477.643 195.729 473.476 192.062 465.143C188.396 456.81 186.562 447.643 186.562 437.643C186.562 419.31 186.063 403.143 185.063 389.143C184.063 375.143 182.562 363.143 180.563 353.143C178.896 342.81 176.729 334.31 174.063 327.643C171.396 320.976 168.563 315.476 165.563 311.143C163.229 307.81 161.729 304.976 161.063 302.643C160.729 299.976 161.729 298.143 164.062 297.143C166.396 295.81 170.229 295.31 175.562 295.643C181.229 295.976 188.729 297.143 198.062 299.143Z" fill="black"/>
<path d="M269.511 59.3353C268.811 60.502 268.228 62.0186 267.761 63.8853C267.528 65.5186 267.178 68.0853 266.711 71.5853C266.478 75.0853 266.245 79.6353 266.011 85.2353C266.011 90.602 265.895 97.602 265.661 106.235C265.428 113.469 265.311 121.285 265.311 129.685C265.545 138.085 265.778 146.369 266.011 154.535C266.478 160.602 266.128 166.669 264.961 172.735C263.795 178.802 261.928 184.635 259.361 190.235C255.395 199.102 250.961 203.419 246.061 203.185C241.161 202.719 236.495 198.169 232.061 189.535C229.961 185.335 228.328 181.835 227.161 179.035C226.228 176.235 225.645 173.552 225.411 170.985C225.178 168.185 225.295 165.385 225.761 162.585C226.461 159.785 227.511 156.402 228.911 152.435C229.378 151.035 229.845 148.585 230.311 145.085C230.778 141.585 231.128 137.619 231.361 133.185C231.595 128.519 231.711 123.619 231.711 118.485C231.945 113.352 232.061 108.335 232.061 103.435C231.828 87.102 230.895 74.3853 229.261 65.2853C227.861 56.1853 225.878 49.8853 223.311 46.3853C215.145 34.952 212.111 27.3686 214.211 23.6353C216.311 19.902 224.945 20.1353 240.111 24.3353C249.678 26.902 257.028 29.352 262.161 31.6853C267.528 33.7853 271.145 36.1186 273.011 38.6853C274.878 41.252 275.345 44.1686 274.411 47.4353C273.711 50.702 272.078 54.6686 269.511 59.3353ZM386.761 111.135C392.828 124.669 393.411 134.002 388.511 139.135C383.845 144.269 375.211 143.102 362.611 135.635C356.545 132.135 349.778 128.052 342.311 123.385C335.078 118.719 327.145 113.119 318.511 106.585C310.345 100.519 306.728 96.552 307.661 94.6853C308.828 92.8186 315.478 91.4186 327.611 90.4853C337.411 89.7853 345.578 89.6686 352.111 90.1353C358.878 90.3686 364.478 91.4186 368.911 93.2853C373.345 94.9186 376.961 97.252 379.761 100.285C382.561 103.319 384.895 106.935 386.761 111.135ZM182.011 154.535C180.611 159.435 179.328 163.519 178.161 166.785C176.995 170.052 175.828 172.969 174.661 175.535C173.495 177.869 172.211 179.969 170.811 181.835C169.411 183.702 167.661 185.569 165.561 187.435C159.261 193.269 154.011 195.835 149.811 195.135C145.845 194.435 142.345 190.119 139.311 182.185C136.511 174.719 135.461 168.535 136.161 163.635C137.095 158.502 139.895 153.135 144.561 147.535C147.128 144.269 149.811 139.252 152.611 132.485C155.411 125.719 157.511 118.719 158.911 111.485C160.778 101.919 162.995 96.6686 165.561 95.7353C168.128 94.802 171.745 98.0686 176.411 105.535C179.445 110.435 181.661 114.752 183.061 118.485C184.695 122.219 185.628 125.952 185.861 129.685C186.328 133.185 186.211 136.919 185.511 140.885C184.811 144.852 183.645 149.402 182.011 154.535ZM328.661 173.085C325.861 174.952 322.945 177.985 319.911 182.185C317.111 186.152 312.795 192.685 306.961 201.785C284.328 237.719 258.545 266.535 229.611 288.235C200.678 309.935 168.828 323.585 134.061 329.185C101.161 334.319 99.4112 330.002 128.811 316.235C139.078 311.335 148.411 306.435 156.811 301.535C165.445 296.869 173.261 292.085 180.261 287.185C187.495 282.519 194.145 277.735 200.211 272.835C206.511 267.702 212.578 262.335 218.411 256.735C229.378 246.235 239.411 235.502 248.511 224.535C257.611 213.335 265.311 202.719 271.611 192.685C278.145 182.652 282.928 173.669 285.961 165.735C288.995 157.802 290.045 151.735 289.111 147.535C287.711 141.935 287.011 137.502 287.011 134.235C287.011 130.969 288.061 128.869 290.161 127.935C292.261 127.002 295.411 127.469 299.611 129.335C304.045 131.202 309.761 134.585 316.761 139.485C323.528 144.152 328.545 148.119 331.811 151.385C335.311 154.419 337.411 157.102 338.111 159.435C338.811 161.769 338.228 163.985 336.361 166.085C334.728 168.185 332.161 170.519 328.661 173.085Z" fill="black"/>
</svg>
