<svg width="350" height="362" viewBox="0 0 350 362" fill="none" xmlns="http://www.w3.org/2000/svg">
<path d="M331.379 117.778C346.045 128.178 352.045 136.578 349.379 142.978C346.979 149.378 335.512 151.244 314.979 148.578C310.179 148.044 303.512 147.644 294.979 147.378C286.445 146.844 276.845 146.578 266.179 146.578C255.779 146.578 244.579 146.844 232.579 147.378C220.579 147.644 208.712 148.178 196.979 148.978C196.979 163.111 196.845 177.378 196.579 191.778C196.579 205.911 196.445 218.044 196.179 228.178C195.912 252.444 195.112 272.978 193.779 289.778C192.712 306.578 190.312 321.511 186.579 334.578C181.512 352.978 176.979 361.911 172.979 361.378C168.979 360.844 165.112 351.111 161.379 332.178C160.045 324.444 158.979 316.044 158.179 306.978C157.379 298.178 156.845 289.244 156.579 280.178C156.045 259.911 155.645 238.844 155.379 216.978C155.112 195.111 154.979 173.778 154.979 152.978C138.445 155.111 123.112 157.511 108.979 160.178C94.8452 162.578 82.7119 165.244 72.5786 168.178C66.9786 169.778 62.3119 170.978 58.5786 171.778C55.1119 172.311 51.6452 172.444 48.1786 172.178C44.9786 171.644 41.3786 170.444 37.3786 168.578C33.3786 166.711 28.4452 163.911 22.5786 160.178C8.97857 151.644 2.84524 146.178 4.17857 143.778C5.51191 141.378 14.9786 140.311 32.5786 140.578C36.8452 140.844 43.1119 140.711 51.3786 140.178C59.6452 139.644 69.2452 138.844 80.1786 137.778C91.3786 136.711 103.379 135.511 116.179 134.178C128.979 132.578 141.912 130.844 154.979 128.978V82.9778C154.979 73.3778 154.579 65.5111 153.779 59.3778C153.245 52.9778 152.445 47.6444 151.379 43.3778C150.312 38.8444 148.845 35.1111 146.979 32.1778C145.379 29.2444 143.379 26.3111 140.979 23.3778C136.445 18.0445 133.379 13.6445 131.779 10.1778C130.445 6.44445 130.712 3.77779 132.579 2.1778C134.712 0.311121 138.712 -0.355553 144.579 0.177773C150.712 0.444452 158.979 2.04446 169.379 4.97778C179.779 7.91111 187.779 10.4444 193.379 12.5778C198.979 14.7111 202.845 16.9778 204.979 19.3778C207.379 21.7778 208.179 24.5778 207.379 27.7778C206.845 30.9778 205.645 34.9778 203.779 39.7778C202.979 42.1778 202.179 44.8445 201.379 47.7778C200.579 50.4444 199.912 54.3111 199.379 59.3778C198.845 64.1778 198.312 70.5778 197.779 78.5778C197.512 86.5778 197.379 96.9778 197.379 109.778C197.379 111.911 197.379 114.044 197.379 116.178C197.379 118.311 197.245 120.578 196.979 122.978C214.845 120.311 228.845 118.044 238.979 116.178C249.379 114.311 258.045 112.578 264.979 110.978C274.579 108.578 282.579 106.978 288.979 106.178C295.379 105.378 300.979 105.378 305.779 106.178C310.579 106.711 314.845 108.044 318.579 110.178C322.579 112.044 326.845 114.578 331.379 117.778Z" fill="black"/>
</svg>
