<svg width="500" height="500" viewBox="0 0 500 500" fill="none" xmlns="http://www.w3.org/2000/svg">
<path d="M263.5 317.064C287.3 323.597 306.2 329.197 320.2 333.864C334.667 338.53 346.1 343.43 354.5 348.564C363.367 353.23 369.9 358.364 374.1 363.964C378.3 369.097 382.267 375.164 386 382.164C390.2 391.497 392.3 399.664 392.3 406.664C392.3 413.197 390.2 417.864 386 420.664C381.8 423.464 375.733 423.93 367.8 422.064C360.333 420.197 351.467 415.53 341.2 408.064C331.4 401.064 321.6 394.53 311.8 388.464C302.467 381.93 292.433 375.164 281.7 368.164C270.967 361.164 258.833 353.697 245.3 345.764C232.233 337.83 217.3 328.964 200.5 319.164C188.367 312.164 183.467 306.797 185.8 303.064C188.133 299.33 194.9 298.864 206.1 301.664C214.5 303.997 222.433 306.097 229.9 307.964C237.833 309.83 245.067 311.697 251.6 313.564C250.667 309.364 254.867 303.764 264.2 296.764C279.6 285.097 291.967 275.297 301.3 267.364C310.633 258.964 317.633 251.964 322.3 246.364C327.433 240.764 330.7 235.864 332.1 231.664C333.967 227.464 334.667 223.264 334.2 219.064C333.733 213.464 334.2 209.03 335.6 205.764C337.467 202.497 340.5 200.864 344.7 200.864C348.9 200.397 354.267 202.03 360.8 205.764C367.8 209.03 376.433 214.63 386.7 222.564C400.233 233.297 407 241.23 407 246.364C407.467 251.03 402.8 254.997 393 258.264C388.8 259.664 383.667 261.53 377.6 263.864C372 266.197 364.533 269.464 355.2 273.664C346.333 277.397 335.367 282.53 322.3 289.064C309.7 295.13 294.3 302.83 276.1 312.164C273.767 313.097 271.667 314.03 269.8 314.964C267.933 315.43 265.833 316.13 263.5 317.064ZM162 230.264C179.267 224.664 193.033 220.464 203.3 217.664C213.567 214.864 221.5 212.997 227.1 212.064C232.7 210.664 236.667 210.197 239 210.664C241.333 210.664 243.433 211.13 245.3 212.064C251.367 214.397 256.267 214.164 260 211.364C263.733 208.564 267.233 201.564 270.5 190.364C272.833 181.964 274.7 174.73 276.1 168.664C277.5 162.13 278.667 155.364 279.6 148.364C281 141.364 281.933 133.43 282.4 124.564C283.333 115.697 284.267 104.73 285.2 91.6637C286.133 81.397 284.967 74.8637 281.7 72.0637C278.433 68.797 272.6 68.3303 264.2 70.6636C237.133 77.197 216.133 81.8637 201.2 84.6637C186.267 86.997 173.433 88.397 162.7 88.8637C162.7 98.197 162.7 108.23 162.7 118.964C163.167 129.23 163.4 139.964 163.4 151.164C179.267 145.564 191.867 141.13 201.2 137.864C210.533 134.597 218 132.497 223.6 131.564C229.2 130.164 233.633 129.697 236.9 130.164C240.633 130.63 244.6 131.564 248.8 132.964C259.533 136.697 265.133 140.897 265.6 145.564C266.067 150.23 261.633 153.964 252.3 156.764C239.7 160.964 228.967 164.23 220.1 166.564C211.7 168.897 204 170.53 197 171.464C190.467 172.397 184.633 172.864 179.5 172.864C174.367 172.397 169 171.697 163.4 170.764C163.4 181.497 163.167 191.997 162.7 202.264C162.7 212.064 162.467 221.397 162 230.264ZM152.2 65.7637C177.867 63.897 199.567 60.1637 217.3 54.5636C235.033 48.497 252.533 40.097 269.8 29.3636C276.8 24.697 284.033 22.597 291.5 23.0636C299.433 23.5303 311.1 27.7303 326.5 35.6636C337.7 41.2637 346.333 46.1637 352.4 50.3637C358.467 54.5637 362.433 58.5303 364.3 62.2637C366.167 65.5303 366.167 69.0303 364.3 72.7637C362.433 76.497 359.4 80.9303 355.2 86.0637C350.067 92.597 344.933 100.997 339.8 111.264C335.133 121.53 331.867 130.397 330 137.864C327.2 149.064 324.633 158.864 322.3 167.264C320.433 175.197 318.333 182.664 316 189.664C313.667 196.664 311.1 203.43 308.3 209.964C305.5 216.497 302.233 223.73 298.5 231.664C291.5 246.597 284.5 254.53 277.5 255.464C270.5 256.397 265.367 251.964 262.1 242.164C261.633 240.764 260 239.83 257.2 239.364C254.867 238.43 250.2 238.43 243.2 239.364C236.2 239.83 226.167 241.23 213.1 243.564C200.033 245.897 182.533 249.397 160.6 254.064C160.133 265.264 159.667 277.397 159.2 290.464C159.2 303.53 159.2 316.364 159.2 328.964C159.2 341.564 159.2 353.23 159.2 363.964C159.667 374.697 159.9 383.097 159.9 389.164C174.367 384.03 188.367 379.13 201.9 374.464C215.9 369.797 226.867 366.297 234.8 363.964C249.733 359.297 258.367 358.83 260.7 362.564C263.5 366.297 258.367 372.597 245.3 381.464C229.9 392.197 217.067 401.064 206.8 408.064C197 415.064 188.6 421.364 181.6 426.964C175.067 432.564 169.7 438.164 165.5 443.764C161.3 448.897 157.1 454.964 152.9 461.964C146.367 472.697 139.833 477.597 133.3 476.664C126.767 475.73 117.9 467.097 106.7 450.764C101.567 443.764 97.8333 438.164 95.5 433.964C93.1667 429.764 92 426.03 92 422.764C92 419.497 92.9333 416.697 94.8 414.364C97.1333 412.03 100.167 409.23 103.9 405.964C108.1 402.697 111.367 398.73 113.7 394.064C116.033 389.397 117.667 381.93 118.6 371.664C120 360.93 120.7 346.23 120.7 327.564C121.167 308.897 121.167 283.697 120.7 251.964C120.233 217.897 119.767 190.597 119.3 170.064C118.833 149.53 117.9 133.43 116.5 121.764C115.567 110.097 114.4 101.464 113 95.8637C111.6 90.2636 109.733 85.597 107.4 81.8637C104.133 76.2637 102.267 71.597 101.8 67.8636C101.333 64.1303 102.5 61.5637 105.3 60.1637C108.567 58.297 113.933 57.8303 121.4 58.7637C129.333 59.697 139.6 62.0303 152.2 65.7637Z" fill="black"/>
</svg>
