<svg width="372" height="350" viewBox="0 0 372 350" fill="none" xmlns="http://www.w3.org/2000/svg">
<path d="M358.6 268.88C364.467 273.413 368.2 277.947 369.8 282.48C371.667 286.747 371.533 290.48 369.4 293.68C367.267 296.613 363.267 298.747 357.4 300.08C351.533 301.147 343.8 300.88 334.2 299.28C327.267 298.213 317.533 297.28 305 296.48C292.733 295.413 279.4 294.747 265 294.48C250.867 293.947 236.733 293.68 222.6 293.68C208.733 293.68 196.867 293.947 187 294.48C153.133 296.613 126.733 298.747 107.8 300.88C89.1333 303.28 76.7333 305.547 70.6 307.68C62.8667 310.347 56.4667 312.213 51.4 313.28C46.6 314.613 42.2 315.147 38.2 314.88C34.4667 314.613 30.8667 313.547 27.4 311.68C24.2 309.813 20.4667 307.28 16.2 304.08C4.2 295.013 -1.13333 289.28 0.2 286.88C1.53333 284.48 9.26667 283.28 23.4 283.28C25.8 283.28 28.6 283.28 31.8 283.28C35 283.013 39.6667 282.747 45.8 282.48C51.9333 281.947 59.9333 281.413 69.8 280.88C79.6667 280.08 92.4667 279.013 108.2 277.68C113.267 263.28 118.067 248.48 122.6 233.28C127.4 217.813 131.533 203.28 135 189.68C128.067 191.813 122.2 193.28 117.4 194.08C112.6 194.88 108.333 195.147 104.6 194.88C101.133 194.613 97.9333 193.947 95 192.88C92.3333 191.547 89.5333 189.68 86.6 187.28C75.4 178.747 70.0667 173.28 70.6 170.88C71.4 168.213 78.8667 166.613 93 166.08C100.733 165.547 108.733 165.013 117 164.48C125.533 163.68 134.067 162.613 142.6 161.28C145.267 150.613 147.4 141.413 149 133.68C150.867 125.947 152.2 119.28 153 113.68C153.8 107.813 154.2 102.613 154.2 98.08C154.467 93.5467 154.467 89.1467 154.2 84.88C145.667 85.9467 138.6 86.7467 133 87.28C127.667 87.5467 123 87.4133 119 86.88C115.267 86.08 111.667 84.88 108.2 83.28C105 81.68 101.4 79.5467 97.4 76.88C90.4667 72.3467 87.2667 69.1467 87.8 67.28C88.6 65.4133 93.8 64.3467 103.4 64.08C110.333 63.8133 118.2 63.28 127 62.48C136.067 61.68 145.4 60.6133 155 59.28C164.6 57.68 174.2 55.9467 183.8 54.08C193.4 51.9467 202.6 49.68 211.4 47.28C224.2 43.8133 234.333 41.1467 241.8 39.28C249.533 37.4133 255.667 36.3467 260.2 36.08C265 35.8133 269 36.2133 272.2 37.28C275.4 38.3467 279 40.08 283 42.48C294.733 49.4133 299.933 55.5467 298.6 60.88C297.267 65.9467 290.333 69.0133 277.8 70.08C264.733 71.1467 251.8 72.3467 239 73.68C226.467 74.7467 212.6 76.3467 197.4 78.48C202.467 81.9467 206.2 84.88 208.6 87.28C211.267 89.68 212.733 92.08 213 94.48C213.533 96.6133 213 99.0133 211.4 101.68C209.8 104.08 207.267 107.013 203.8 110.48C201.933 112.347 200.333 114.347 199 116.48C197.667 118.613 196.333 121.28 195 124.48C193.667 127.68 192.2 131.68 190.6 136.48C189.267 141.28 187.667 147.147 185.8 154.08C195.133 152.213 202.6 150.48 208.2 148.88C213.8 147.013 217.8 145.413 220.2 144.08C225 141.413 228.867 139.413 231.8 138.08C235 136.48 237.933 135.68 240.6 135.68C243.533 135.413 246.6 135.813 249.8 136.88C253 137.947 257.133 139.68 262.2 142.08C272.333 146.88 280.067 150.88 285.4 154.08C291 157.28 294.6 160.213 296.2 162.88C298.067 165.547 298.067 168.08 296.2 170.48C294.6 172.88 291.8 175.813 287.8 179.28C281.667 184.347 276.6 190.08 272.6 196.48C268.6 202.613 265.133 209.413 262.2 216.88C258.467 226.213 254.867 234.747 251.4 242.48C248.2 250.213 244.867 257.947 241.4 265.68C251 265.147 259.933 264.347 268.2 263.28C276.467 262.213 282.067 261.413 285 260.88C297.267 259.013 307.133 257.813 314.6 257.28C322.333 256.48 328.733 256.48 333.8 257.28C338.867 257.813 343.133 259.147 346.6 261.28C350.333 263.147 354.333 265.68 358.6 268.88ZM227 187.28C228.6 181.147 228.733 177.28 227.4 175.68C226.067 173.813 223.933 173.147 221 173.68C211.133 174.747 203 175.813 196.6 176.88C190.2 177.68 183.933 178.747 177.8 180.08C174.067 191.547 170.733 201.813 167.8 210.88C165.133 219.68 162.467 227.813 159.8 235.28C157.4 242.48 155 249.28 152.6 255.68C150.467 262.08 148.2 268.347 145.8 274.48C154.6 273.947 163.933 273.28 173.8 272.48C183.667 271.413 193.667 270.347 203.8 269.28C206.2 261.28 208.333 254.213 210.2 248.08C212.067 241.68 213.8 235.413 215.4 229.28C217.267 223.147 219.133 216.747 221 210.08C222.867 203.413 224.867 195.813 227 187.28Z" fill="black"/>
</svg>
