<svg width="500" height="500" viewBox="0 0 500 500" fill="none" xmlns="http://www.w3.org/2000/svg">
<path d="M188.053 378.9C202.386 377.567 216.886 376.233 231.553 374.9C246.219 373.567 260.553 372.067 274.553 370.4C277.886 360.4 280.719 351.567 283.053 343.9C285.386 336.233 287.553 328.567 289.553 320.9C291.886 312.9 294.053 304.4 296.053 295.4C298.386 286.067 301.053 274.9 304.053 261.9C307.053 249.567 304.386 243.733 296.053 244.4C286.386 245.067 275.719 246.233 264.053 247.9C252.386 249.567 241.553 251.233 231.553 252.9L188.053 378.9ZM216.553 130.9C207.553 131.9 199.719 132.567 193.053 132.9C186.719 133.233 180.886 133.233 175.553 132.9C170.219 132.233 165.219 131.233 160.553 129.9C155.886 128.567 150.886 126.733 145.553 124.4C136.886 120.733 132.886 117.567 133.553 114.9C134.553 111.9 139.886 110.233 149.553 109.9C171.553 109.233 193.386 107.233 215.053 103.9C237.053 100.233 257.886 95.5667 277.553 89.9C289.219 86.5667 299.386 84.0667 308.053 82.4C317.053 80.7333 324.886 79.7333 331.553 79.4C338.553 78.7333 344.719 78.9 350.053 79.9C355.719 80.5667 360.886 81.9 365.553 83.9C378.886 89.5667 384.886 95.7333 383.553 102.4C382.553 109.067 374.053 113.233 358.053 114.9C341.053 116.567 326.719 118.067 315.053 119.4C303.386 120.4 293.386 121.4 285.053 122.4C277.053 123.4 270.219 124.233 264.553 124.9C258.886 125.567 253.386 126.233 248.053 126.9C255.386 131.9 261.053 136.233 265.053 139.9C269.053 143.567 271.719 146.733 273.053 149.4C274.386 152.067 274.553 154.567 273.553 156.9C272.886 159.233 271.553 161.733 269.553 164.4C267.219 167.4 265.053 170.4 263.053 173.4C261.053 176.4 258.886 180.233 256.553 184.9C254.553 189.233 252.219 194.9 249.553 201.9C246.886 208.567 243.719 217.233 240.053 227.9C257.719 224.567 270.386 221.9 278.053 219.9C285.719 217.9 290.886 216.067 293.553 214.4C298.219 211.067 302.219 208.567 305.553 206.9C309.219 205.233 312.719 204.4 316.053 204.4C319.386 204.067 322.886 204.567 326.553 205.9C330.553 207.233 335.053 209.4 340.053 212.4C349.053 217.733 355.886 222.233 360.553 225.9C365.553 229.567 368.886 232.9 370.553 235.9C372.553 238.9 373.053 241.567 372.053 243.9C371.053 246.233 369.219 248.567 366.553 250.9C362.219 254.567 358.219 258.733 354.553 263.4C351.219 267.733 347.553 274.067 343.553 282.4C339.553 290.4 335.053 301.067 330.053 314.4C325.053 327.733 318.886 345.067 311.553 366.4C325.886 364.733 339.386 363.233 352.053 361.9C364.719 360.567 376.053 359.067 386.053 357.4C396.719 356.067 405.719 355.233 413.053 354.9C420.719 354.567 427.219 354.9 432.553 355.9C438.219 356.9 443.053 358.733 447.053 361.4C451.386 363.733 455.553 366.9 459.553 370.9C473.886 384.567 479.553 393.9 476.553 398.9C473.553 403.567 458.886 404.233 432.553 400.9C421.553 399.567 408.053 398.4 392.053 397.4C376.053 396.4 359.386 395.567 342.053 394.9C324.719 394.233 307.719 393.9 291.053 393.9C274.386 393.9 260.053 394.233 248.053 394.9C233.719 395.9 219.219 397.067 204.553 398.4C189.886 399.733 175.886 401.233 162.553 402.9C149.219 404.9 136.886 406.9 125.553 408.9C114.553 410.9 105.553 412.9 98.5526 414.9C91.2193 416.9 84.886 418.4 79.5526 419.4C74.5526 420.4 69.886 420.567 65.5526 419.9C61.5526 419.567 57.386 418.567 53.0526 416.9C49.0526 415.233 44.386 412.567 39.0526 408.9C27.0526 401.233 21.386 395.9 22.0526 392.9C22.7193 389.567 29.386 388.067 42.0526 388.4C51.7193 388.733 65.7193 388.4 84.0526 387.4C102.386 386.4 126.219 384.567 155.553 381.9L193.553 260.9C182.886 263.9 174.219 266.233 167.553 267.9C161.219 269.567 155.719 270.4 151.053 270.4C146.386 270.4 142.053 269.733 138.053 268.4C134.386 267.067 130.053 264.9 125.053 261.9C112.386 254.233 106.219 249.067 106.553 246.4C107.219 243.4 115.219 241.9 130.553 241.9C138.219 241.9 148.386 241.233 161.053 239.9C173.719 238.567 187.219 236.733 201.553 234.4C208.219 212.4 212.719 193.4 215.053 177.4C217.719 161.4 218.219 145.9 216.553 130.9Z" fill="black"/>
</svg>
