<svg width="350" height="350" viewBox="0 0 350 350" fill="none" xmlns="http://www.w3.org/2000/svg">
<path d="M268.329 161.89C273.229 171.69 276.029 179.857 276.729 186.39C277.429 192.923 276.496 197.473 273.929 200.04C271.596 202.607 267.629 203.19 262.029 201.79C256.429 200.157 249.779 196.307 242.079 190.24C232.279 182.54 221.546 174.84 209.879 167.14C198.213 159.44 185.963 152.44 173.129 146.14C173.363 160.14 173.596 177.523 173.829 198.29C174.062 218.823 174.646 241.107 175.579 265.14C176.046 274.94 175.929 282.99 175.229 289.29C174.763 295.823 173.596 302.24 171.729 308.54C167.996 322.307 163.096 329.423 157.029 329.89C151.196 330.357 144.662 323.473 137.429 309.24C135.562 305.74 134.163 302.59 133.229 299.79C132.529 296.99 132.179 293.957 132.179 290.69C132.179 287.423 132.762 283.807 133.929 279.84C135.096 275.873 136.846 270.973 139.179 265.14C139.879 263.273 140.462 260.007 140.929 255.34C141.629 250.44 142.212 242.623 142.679 231.89C143.146 221.157 143.496 206.807 143.729 188.84C144.196 170.873 144.662 147.657 145.129 119.19C145.596 97.9567 145.129 80.5733 143.729 67.04C142.329 53.2733 140.346 44.8733 137.779 41.84C133.812 37.4067 131.129 33.44 129.729 29.94C128.562 26.44 128.796 23.8733 130.429 22.24C132.296 20.3733 135.679 19.6733 140.579 20.14C145.712 20.3733 152.712 22.0067 161.579 25.04C168.113 27.3733 173.246 29.4733 176.979 31.34C180.713 33.2067 183.279 35.3067 184.679 37.64C186.079 39.9733 186.312 42.7733 185.379 46.04C184.679 49.0733 183.162 53.04 180.829 57.94C179.896 59.5733 179.079 62.0233 178.379 65.29C177.679 68.3233 176.979 72.7567 176.279 78.59C175.812 84.19 175.346 91.3067 174.879 99.94C174.412 108.34 173.829 118.84 173.129 131.44C190.863 133.073 205.446 134.94 216.879 137.04C228.546 139.14 237.879 141.473 244.879 144.04C251.879 146.373 257.013 149.057 260.279 152.09C263.779 155.123 266.463 158.39 268.329 161.89Z" fill="black"/>
</svg>
