<svg width="500" height="500" viewBox="0 0 500 500" fill="none" xmlns="http://www.w3.org/2000/svg">
<path d="M253.548 183.85C278.548 186.517 299.048 189.35 315.049 192.35C331.048 195.35 343.882 198.684 353.549 202.35C363.548 206.017 370.882 210.017 375.549 214.35C380.549 218.35 384.382 223.017 387.049 228.35C392.049 238.684 394.882 247.35 395.549 254.35C396.215 261.35 395.049 266.35 392.049 269.35C389.049 272.35 384.548 273.35 378.548 272.35C372.548 271.017 365.382 267.35 357.049 261.35C343.715 251.35 328.048 241.184 310.049 230.85C292.382 220.517 273.382 210.517 253.049 200.85C253.049 210.85 253.049 222.85 253.049 236.85C253.382 250.85 253.715 265.85 254.048 281.85C254.382 297.85 254.715 314.35 255.049 331.35C255.382 348.35 255.882 365.017 256.548 381.35C256.882 395.35 256.715 406.85 256.048 415.85C255.382 424.85 253.882 434.517 251.548 444.85C247.882 459.85 242.548 467.684 235.548 468.35C228.882 469.017 221.215 462.517 212.548 448.85C209.215 443.85 206.548 439.184 204.548 434.85C202.882 430.85 201.882 426.684 201.549 422.35C201.215 418.017 201.548 413.184 202.548 407.85C203.882 402.85 205.882 396.684 208.549 389.35C210.548 384.35 212.215 376.517 213.548 365.85C215.215 355.184 216.715 341.35 218.048 324.35C219.382 307.017 220.382 286.35 221.048 262.35C222.048 238.017 222.549 209.85 222.549 177.85C222.549 158.184 222.215 141.517 221.548 127.85C221.215 113.85 220.382 102.184 219.048 92.8504C218.048 83.5171 216.715 76.1838 215.048 70.8504C213.382 65.5171 211.548 61.3504 209.548 58.3504C189.882 31.6838 197.715 24.5171 233.048 36.8504C243.715 40.5171 251.882 43.6838 257.549 46.3504C263.549 49.0171 267.715 51.6838 270.048 54.3504C272.382 57.0171 273.048 60.0171 272.048 63.3504C271.382 66.3504 269.715 70.3504 267.049 75.3504C265.382 78.0171 263.882 81.8504 262.548 86.8504C261.215 91.8504 259.882 98.6838 258.548 107.35C257.548 115.684 256.548 126.184 255.548 138.85C254.548 151.184 253.882 166.184 253.548 183.85Z" fill="black"/>
</svg>
