<svg width="350" height="350" viewBox="0 0 350 350" fill="none" xmlns="http://www.w3.org/2000/svg">
<path d="M323.154 31.6667C328.22 37.2667 331.82 42.0667 333.953 46.0667C336.087 49.8 336.354 52.8667 334.754 55.2667C333.153 57.4 329.553 58.8667 323.953 59.6667C318.353 60.2 310.353 60.0667 299.953 59.2667C283.42 57.9333 265.553 57.4 246.354 57.6667C227.42 57.6667 205.42 58.4667 180.354 60.0667C187.82 64.3333 192.087 68.4667 193.154 72.4667C194.22 76.2 193.287 81.2667 190.353 87.6667C188.487 91.9333 187.287 96.3333 186.754 100.867C186.22 105.4 185.82 112.067 185.553 120.867C202.354 120.867 216.087 121.4 226.753 122.467C237.42 123.533 245.954 125.133 252.354 127.267C258.753 129.4 263.42 132.2 266.354 135.667C269.554 139.133 272.087 143 273.953 147.267C277.153 155.267 278.887 162.333 279.154 168.467C279.687 174.333 278.354 178.733 275.154 181.667C272.22 184.333 267.42 185 260.754 183.667C254.087 182.333 245.287 178.067 234.353 170.867C230.62 168.467 227.153 166.2 223.954 164.067C220.753 161.667 217.287 159.133 213.553 156.467C210.087 153.8 206.087 150.867 201.554 147.667C197.02 144.2 191.554 140.2 185.154 135.667C184.887 140.467 184.62 148.067 184.353 158.467C184.087 168.867 183.82 180.067 183.553 192.067C183.553 204.067 183.553 216.067 183.553 228.067C183.553 239.8 183.82 249.667 184.353 257.667C184.887 264.6 184.887 272.6 184.353 281.667C183.82 290.733 182.887 298.733 181.553 305.667C178.087 321.933 172.487 330.6 164.753 331.667C157.02 333 148.487 325.933 139.153 310.467C134.62 302.733 132.354 295.267 132.354 288.067C132.354 281.133 134.62 272.6 139.153 262.467C140.753 258.467 142.087 253.8 143.154 248.467C144.487 242.867 145.42 236.067 145.953 228.067C146.753 219.8 147.153 210.2 147.153 199.267C147.42 188.067 147.553 175 147.553 160.067C147.553 139.8 147.42 123.8 147.153 112.067C146.887 100.067 146.62 90.8667 146.353 84.4667C146.087 77.8 145.553 73.1333 144.753 70.4667C144.22 67.5333 143.553 65 142.753 62.8667C134.487 63.6667 127.153 64.4667 120.753 65.2667C114.353 65.8 108.087 66.6 101.953 67.6667C96.0868 68.4667 89.9535 69.6667 83.5535 71.2667C77.1535 72.6 69.9535 74.3333 61.9535 76.4667C56.6202 78.0667 51.9535 79.2667 47.9535 80.0667C43.9535 80.6 40.0868 80.6 36.3535 80.0667C32.8868 79.2667 29.1535 77.9333 25.1535 76.0667C21.1535 73.9333 16.3535 70.8667 10.7535 66.8667C1.68682 60.4667 -1.64651 55.8 0.753489 52.8667C3.15349 49.9333 10.7535 48.8667 23.5535 49.6667C24.6202 49.6667 26.6202 49.6667 29.5535 49.6667C32.4868 49.6667 35.6868 49.6667 39.1535 49.6667C42.6202 49.4 46.0868 49.2667 49.5535 49.2667C53.2868 49 56.4868 48.7333 59.1535 48.4667C64.7535 48.2 70.6202 47.8 76.7535 47.2667C82.8868 46.7333 89.8202 46.0667 97.5535 45.2667C105.553 44.4667 114.62 43.5333 124.753 42.4667C134.887 41.4 146.887 40.0667 160.753 38.4667C169.287 37.4 178.087 36.3333 187.154 35.2667C196.487 34.2 205.287 33.1333 213.553 32.0667C221.82 30.7333 229.287 29.5333 235.953 28.4667C242.62 27.1333 247.954 26.0667 251.954 25.2667C264.22 22.6 274.22 20.8667 281.953 20.0667C289.687 19 296.087 18.7333 301.154 19.2667C306.22 19.8 310.354 21.1333 313.553 23.2667C316.754 25.4 319.954 28.2 323.154 31.6667Z" fill="black"/>
</svg>
