<svg width="500" height="511" viewBox="0 0 500 511" fill="none" xmlns="http://www.w3.org/2000/svg">
<path d="M330.141 372.5C322.141 377.5 314.807 389.834 308.141 409.5C303.474 422.5 299.474 433.334 296.141 442C292.807 451 289.807 458.5 287.141 464.5C284.474 470.834 281.807 476 279.141 480C276.807 484 274.474 487.5 272.141 490.5C262.141 503.167 254.141 509.667 248.141 510C242.141 510.334 238.141 506.167 236.141 497.5C235.141 491.834 234.474 486.834 234.141 482.5C233.807 478.5 233.974 474.667 234.641 471C235.641 467.667 236.974 464.334 238.641 461C240.641 457.667 243.307 454 246.641 450C253.307 441.667 258.974 431.667 263.641 420C268.641 408 273.474 393.333 278.141 376C280.141 367.333 276.474 364 267.141 366C251.807 369 238.307 372.167 226.641 375.5C215.307 378.5 203.807 382.167 192.141 386.5C186.141 388.5 180.974 390 176.641 391C172.641 392 168.974 392.5 165.641 392.5C162.307 392.167 158.974 391.167 155.641 389.5C152.641 387.834 149.141 385.5 145.141 382.5C135.474 375.5 131.141 370.167 132.141 366.5C133.474 362.834 139.807 361.667 151.141 363C157.141 363.667 165.807 363.333 177.141 362C188.807 360.334 200.807 358.167 213.141 355.5C225.807 352.5 237.807 349.167 249.141 345.5C260.807 341.5 269.807 337.333 276.141 333C279.474 330.667 282.307 329 284.641 328C287.307 327 290.141 326.833 293.141 327.5C296.474 327.833 300.141 329 304.141 331C308.141 333 313.307 336 319.641 340C332.974 348.333 339.807 354.834 340.141 359.5C340.807 363.833 337.474 368.167 330.141 372.5ZM277.141 285.5C279.807 294.833 278.474 301.833 273.141 306.5C267.807 310.833 259.474 310.167 248.141 304.5C241.474 300.833 235.474 297 230.141 293C225.141 288.667 219.307 282.833 212.641 275.5C208.974 271.167 207.974 267.833 209.641 265.5C211.307 263.167 216.474 262 225.141 262C234.141 262 241.641 262.5 247.641 263.5C253.641 264.5 258.641 266 262.641 268C266.641 270 269.641 272.5 271.641 275.5C273.974 278.167 275.807 281.5 277.141 285.5Z" fill="black"/>
<path d="M375.567 89.1997C373.968 91.005 372.668 93.4121 371.668 96.421C370.668 99.2293 369.768 103.041 368.968 107.855C368.168 112.669 367.568 118.787 367.169 126.209C366.969 133.43 366.869 142.256 366.869 152.687C366.869 163.318 366.569 172.245 365.969 179.466C365.569 186.687 364.769 193.006 363.569 198.422C362.369 203.637 360.669 208.251 358.47 212.263C356.47 216.275 353.87 220.387 350.671 224.599C348.671 227.408 346.671 229.313 344.672 230.316C342.872 231.319 341.072 231.219 339.273 230.015C337.473 229.012 335.773 226.806 334.173 223.396C332.574 219.986 331.074 215.171 329.674 208.953C329.074 206.546 327.874 204.941 326.074 204.139C324.475 203.136 321.575 202.835 317.376 203.236C312.576 203.637 308.077 204.139 303.878 204.741C299.878 205.142 295.779 205.543 291.579 205.944C287.58 206.345 283.381 206.847 278.981 207.449C274.582 208.05 269.783 208.753 264.583 209.555C263.983 214.57 262.884 218.381 261.284 220.989C259.884 223.797 258.284 225.602 256.484 226.405C254.685 227.408 252.785 227.508 250.785 226.706C248.786 225.903 246.786 224.499 244.786 222.493C242.387 220.086 240.487 217.779 239.087 215.573C237.887 213.366 237.087 210.959 236.687 208.351C236.287 205.744 236.287 202.835 236.687 199.626C237.287 196.416 238.187 192.505 239.387 187.891C239.987 186.086 240.287 182.375 240.287 176.758C240.287 170.941 239.987 164.02 239.387 155.997C238.987 147.773 238.287 138.746 237.287 128.917C236.487 118.887 235.388 108.657 233.988 98.2263C233.588 94.8162 232.888 92.0079 231.888 89.8014C231.088 87.5949 229.988 85.1878 228.589 82.5801C228.389 86.3914 225.589 90.2026 220.19 94.0139C217.79 95.8192 215.29 98.0257 212.691 100.633C210.091 103.041 207.092 106.25 203.692 110.262C200.493 114.073 196.793 118.687 192.594 124.103C188.394 129.519 183.495 136.038 177.896 143.66C185.895 141.454 193.194 139.649 199.793 138.244C206.392 136.64 211.991 135.436 216.59 134.634C224.789 133.43 229.288 134.233 230.088 137.041C231.088 139.649 228.189 142.357 221.39 145.165C205.192 151.584 192.494 157.401 183.295 162.616C174.096 167.631 167.397 172.044 163.198 175.855C160.398 178.263 157.999 180.068 155.999 181.271C153.999 182.274 152 182.475 150 181.873C148.2 181.071 146.3 179.366 144.301 176.758C142.501 174.15 140.401 170.339 138.002 165.324C135.202 159.307 134.202 155.295 135.002 153.289C135.802 151.283 138.801 149.678 144.001 148.475C147 147.672 149.8 146.569 152.4 145.165C155.199 143.56 157.999 141.354 160.798 138.545C163.598 135.536 166.597 131.825 169.797 127.412C172.997 122.799 176.596 117.182 180.595 110.563C173.996 112.368 168.097 114.274 162.898 116.28C157.699 118.286 151.7 121.395 144.901 125.607C143.101 126.811 141.501 127.613 140.101 128.014C138.702 128.215 137.302 127.914 135.902 127.112C134.702 126.109 133.202 124.404 131.403 121.996C129.803 119.589 127.803 116.28 125.403 112.067C122.404 106.852 121.304 103.041 122.104 100.633C122.904 98.2263 125.303 96.7219 129.303 96.1201C135.902 95.1171 142.401 90.7041 148.8 82.881C155.199 74.8573 160.898 64.4265 165.898 51.5886C168.097 45.9721 169.797 41.1579 170.997 37.146C172.397 33.1342 173.297 29.7241 173.696 26.9158C174.296 23.9069 174.496 21.4998 174.296 19.6945C174.296 17.8892 173.996 16.2844 173.396 14.8803C171.797 11.2696 170.997 8.16046 170.997 5.55276C170.997 2.94506 171.997 1.24003 173.996 0.437656C176.196 -0.364714 179.396 -0.063824 183.595 1.34033C187.994 2.54388 193.794 5.25187 200.993 9.46431C205.392 12.072 208.691 14.4791 210.891 16.6856C213.091 18.6915 214.391 20.6975 214.791 22.7034C215.39 24.5087 215.19 26.2137 214.191 27.8185C213.191 29.4232 211.691 31.028 209.691 32.6327C204.892 36.4439 198.393 43.6653 190.194 54.2966C181.995 64.7274 172.197 79.17 160.798 97.6245C164.598 97.4239 168.797 97.3236 173.396 97.3236C178.196 97.123 183.295 96.8221 188.694 96.421C191.294 91.2056 192.994 86.8928 193.794 83.4828C194.793 79.8721 195.193 76.6626 194.993 73.8544C194.593 66.2319 195.993 62.0194 199.193 61.2171C202.592 60.2141 209.391 63.4236 219.59 70.8455C221.39 72.2496 222.889 73.5535 224.089 74.757C225.489 75.9606 226.689 77.3647 227.689 78.9695C227.489 76.5624 229.288 75.1582 233.088 74.757C237.087 74.3558 244.186 75.2585 254.385 77.465C261.584 76.6626 268.883 75.6597 276.282 74.4561C283.881 73.2526 291.079 71.9487 297.879 70.5446C304.678 69.1404 310.777 67.7363 316.176 66.3322C321.775 64.7274 326.074 63.1227 329.074 61.5179C332.474 59.9132 335.373 58.7097 337.773 57.9073C340.172 57.1049 342.472 56.804 344.672 57.0046C347.071 57.2052 349.571 57.9073 352.171 59.1108C354.77 60.1138 357.87 61.6182 361.469 63.6242C366.669 66.633 370.668 69.2407 373.468 71.4473C376.467 73.6538 378.367 75.6597 379.167 77.465C380.167 79.2703 380.267 81.0757 379.467 82.881C378.667 84.6863 377.367 86.7925 375.567 89.1997ZM213.891 189.696C198.893 197.921 187.195 204.841 178.796 210.458C170.597 215.874 164.898 220.287 161.698 223.697C159.498 226.104 157.399 227.809 155.399 228.812C153.399 230.015 151.2 230.517 148.8 230.316C146.4 230.116 143.701 229.012 140.701 227.006C137.902 225.201 134.502 222.493 130.503 218.882C122.104 211.26 118.304 206.045 119.104 203.236C120.104 200.227 125.503 198.924 135.302 199.325C137.702 199.325 141.201 199.024 145.8 198.422C150.6 197.82 154.999 196.717 158.999 195.112C163.998 193.106 169.097 191.1 174.296 189.094C179.696 187.089 184.795 185.183 189.594 183.378C194.593 181.372 199.093 179.667 203.092 178.263C207.292 176.658 210.691 175.454 213.291 174.652C218.69 172.847 222.889 172.044 225.889 172.245C229.088 172.245 230.788 172.947 230.988 174.351C231.388 175.755 230.188 177.861 227.389 180.67C224.789 183.277 220.29 186.286 213.891 189.696ZM287.98 131.324C287.98 124.504 287.88 118.687 287.68 113.872C287.68 109.058 287.58 105.046 287.38 101.837C287.18 98.4269 286.88 95.7189 286.48 93.713C286.28 91.5065 285.88 89.6008 285.28 87.9961C278.081 88.9991 270.183 89.9017 261.584 90.7041C261.984 97.7248 262.284 104.946 262.484 112.368C262.884 119.79 263.284 127.412 263.683 135.236C270.682 134.433 278.781 133.129 287.98 131.324ZM339.273 94.6156C339.273 91.8073 339.073 89.6008 338.673 87.9961C338.473 86.3914 337.873 85.1878 336.873 84.3854C336.073 83.5831 334.873 83.1819 333.273 83.1819C331.674 82.9813 329.574 82.9813 326.974 83.1819C323.575 83.5831 320.175 83.9843 316.776 84.3854C313.576 84.7866 310.077 85.1878 306.277 85.589C312.476 89.4002 316.076 92.4091 317.076 94.6156C318.276 96.6216 317.676 99.5301 315.276 103.341C314.276 105.147 313.376 107.554 312.576 110.563C311.976 113.572 311.477 118.687 311.077 125.908C314.276 124.905 316.976 124.203 319.175 123.802C321.375 123.401 323.275 123.3 324.875 123.501C326.674 123.501 328.274 123.902 329.674 124.704C331.074 125.306 332.673 126.209 334.473 127.412C337.873 129.619 339.173 132.126 338.373 134.935C337.573 137.743 334.773 139.649 329.974 140.652C327.174 141.253 323.875 141.955 320.075 142.758C316.476 143.56 313.276 144.262 310.477 144.864L309.277 185.484C314.876 183.679 318.975 182.876 321.575 183.077C324.175 183.277 326.274 184.28 327.874 186.086C332.474 191.301 335.273 190.8 336.273 184.581C337.073 178.563 337.773 172.746 338.373 167.13C338.973 161.513 339.373 155.395 339.572 148.775C339.772 141.955 339.772 134.233 339.572 125.607C339.572 116.982 339.473 106.651 339.273 94.6156ZM287.98 148.475C282.381 148.876 277.881 148.876 274.482 148.475C271.282 147.873 267.783 146.77 263.983 145.165C264.183 161.212 264.483 177.46 264.883 193.909C273.482 192.705 280.981 191.502 287.38 190.298L287.98 148.475Z" fill="black"/>
</svg>
