<svg width="500" height="500" viewBox="0 0 500 500" fill="none" xmlns="http://www.w3.org/2000/svg">
<path d="M217.629 108.75C191.962 111.417 171.462 113.917 156.129 116.25C140.795 118.583 127.962 121.25 117.629 124.25C110.962 126.25 105.295 127.583 100.629 128.25C95.9619 128.917 91.4619 129.083 87.1286 128.75C83.1286 128.083 78.9619 126.75 74.6286 124.75C70.2952 122.75 65.2952 119.917 59.6286 116.25C48.9619 109.25 44.1286 103.917 45.1286 100.25C46.1286 96.5833 51.6286 95.25 61.6286 96.25C64.6286 96.5833 67.6286 96.75 70.6286 96.75C73.6286 96.75 77.7952 96.5833 83.1286 96.25C88.4619 95.9167 95.2952 95.4167 103.629 94.75C112.295 94.0833 123.629 93.25 137.629 92.25C156.962 90.5833 177.129 88.9167 198.129 87.25C219.129 85.25 238.462 83.25 256.129 81.25C261.129 80.9167 267.962 80.0833 276.629 78.75C285.295 77.4167 294.629 76.0833 304.629 74.75C314.629 73.0833 324.629 71.4167 334.629 69.75C344.962 67.75 354.129 65.9167 362.129 64.25C373.462 61.9167 383.129 60.4167 391.129 59.75C399.129 58.75 406.129 58.75 412.129 59.75C418.129 60.4167 423.629 62.0833 428.629 64.75C433.629 67.4167 438.795 70.9167 444.129 75.25C454.129 83.9167 457.462 91.25 454.129 97.25C450.795 103.25 439.129 105.417 419.129 103.75C398.129 102.083 373.462 101.417 345.129 101.75C317.129 102.083 286.962 103.417 254.629 105.75C263.295 110.417 268.462 114.917 270.129 119.25C271.795 123.583 271.295 130.083 268.629 138.75C267.295 142.417 266.129 147.75 265.129 154.75C264.462 161.75 263.795 171.917 263.129 185.25C286.129 186.917 304.462 188.583 318.129 190.25C331.795 191.917 342.295 193.917 349.629 196.25C357.295 198.583 362.629 201.417 365.629 204.75C368.962 208.083 371.629 212.417 373.629 217.75C380.295 235.083 379.795 246.083 372.129 250.75C364.462 255.417 349.795 252.083 328.129 240.75C323.462 238.417 318.795 236.083 314.129 233.75C309.795 231.417 305.129 228.75 300.129 225.75C295.129 222.75 289.629 219.417 283.629 215.75C277.629 211.75 270.629 207.25 262.629 202.25C262.295 213.917 261.962 227.083 261.629 241.75C261.629 256.083 261.629 270.75 261.629 285.75C261.629 300.417 261.629 314.75 261.629 328.75C261.962 342.417 262.295 354.25 262.629 364.25C262.629 367.917 262.462 372.25 262.129 377.25C262.129 382.25 261.795 387.25 261.129 392.25C260.795 397.25 260.295 402.083 259.629 406.75C258.962 411.417 258.295 415.25 257.629 418.25C253.962 433.25 248.962 440.75 242.629 440.75C236.295 440.75 227.795 433.25 217.129 418.25C211.462 410.25 208.462 402.75 208.129 395.75C207.795 389.083 210.295 379.417 215.629 366.75C218.295 360.083 220.462 353.25 222.129 346.25C223.795 339.25 225.129 330.25 226.129 319.25C227.129 308.25 227.629 294.417 227.629 277.75C227.962 261.083 227.962 239.917 227.629 214.25C227.629 194.917 227.295 179.083 226.629 166.75C226.295 154.417 225.795 144.583 225.129 137.25C224.462 129.583 223.462 123.75 222.129 119.75C221.129 115.75 219.629 112.083 217.629 108.75Z" fill="black"/>
</svg>
