<svg width="500" height="500" viewBox="0 0 500 500" fill="none" xmlns="http://www.w3.org/2000/svg">
<path d="M280.444 278.933C282.044 285.067 282.311 290.133 281.244 294.133C280.178 297.867 278.044 300.4 274.844 301.733C271.644 303.067 267.778 303.333 263.244 302.533C258.711 301.467 253.911 299.2 248.844 295.733C245.644 293.333 242.044 290.267 238.044 286.533C234.044 282.533 229.911 278 225.644 272.933C223.511 270.533 221.911 268.4 220.844 266.533C219.778 264.4 219.644 262.667 220.444 261.333C221.244 260 222.978 259.067 225.644 258.533C228.578 258 232.978 257.867 238.844 258.133C246.311 258.667 252.444 259.333 257.244 260.133C262.311 260.933 266.311 262.133 269.244 263.733C272.444 265.333 274.844 267.333 276.444 269.733C278.044 272.133 279.378 275.2 280.444 278.933ZM322.044 353.733C315.111 358.267 308.978 367.6 303.644 381.733C298.578 394.8 294.578 405.067 291.644 412.533C288.711 420 286.178 425.867 284.044 430.133C281.911 434.4 279.911 437.733 278.044 440.133C276.178 442.533 274.044 445.2 271.644 448.133C262.311 458.533 254.711 463.6 248.844 463.333C242.978 463.333 238.844 458.4 236.444 448.533C235.111 443.2 234.178 438.667 233.644 434.933C233.378 431.2 233.644 427.867 234.444 424.933C235.244 422.267 236.578 419.6 238.444 416.933C240.311 414.533 242.844 411.867 246.044 408.933C248.711 406.533 251.111 403.867 253.244 400.933C255.378 398.267 257.378 394.933 259.244 390.933C261.111 386.933 262.978 382 264.844 376.133C266.978 370.267 269.244 362.933 271.644 354.133C272.978 349.067 270.044 347.2 262.844 348.533C256.444 349.6 250.711 350.667 245.644 351.733C240.578 352.8 235.644 354 230.844 355.333C226.044 356.4 221.244 357.733 216.444 359.333C211.644 360.933 206.444 362.8 200.844 364.933C196.311 366.533 192.578 367.733 189.644 368.533C186.711 369.333 184.044 369.6 181.644 369.333C179.511 369.067 177.244 368.267 174.844 366.933C172.711 365.6 170.044 363.467 166.844 360.533C157.778 352.533 153.511 347.467 154.044 345.333C154.844 343.2 160.711 341.867 171.644 341.333C176.711 341.067 184.044 340.267 193.644 338.933C203.511 337.333 213.511 335.333 223.644 332.933C234.044 330.533 243.778 327.867 252.844 324.933C261.911 321.733 268.444 318.667 272.444 315.733C275.111 313.6 277.644 312.133 280.044 311.333C282.444 310.267 285.111 310 288.044 310.533C290.978 311.067 294.444 312.4 298.444 314.533C302.444 316.4 307.378 319.2 313.244 322.933C319.644 326.933 324.311 330.533 327.244 333.733C330.178 336.667 331.778 339.333 332.044 341.733C332.578 343.867 331.778 346 329.644 348.133C327.778 350 325.244 351.867 322.044 353.733Z" fill="black"/>
<path fill-rule="evenodd" clip-rule="evenodd" d="M337.386 175.468L337.237 175.487C332.601 176.066 328.13 174.247 324.174 171.611L324.118 171.573L324.062 171.534C319.952 168.658 316.218 164.324 312.755 158.963C309.083 153.378 304.84 147.215 300.021 140.471L299.993 140.432L299.966 140.393C295.331 133.682 290.704 127.384 286.087 121.495L286.066 121.468L286.046 121.442C283.058 117.543 280.741 114.137 279.283 111.319C278.562 109.925 277.915 108.419 277.574 106.904C277.262 105.518 276.984 103.153 278.252 100.83L278.349 100.652L278.457 100.482C280.26 97.6495 283.22 97.0721 284.792 96.9599C286.507 96.8375 288.309 97.1132 289.958 97.4901C293.331 98.2608 297.698 99.8501 302.892 102.075L302.903 102.08L302.914 102.085C312.734 106.339 320.826 110.329 327.113 114.062C333.313 117.583 338.395 121.183 342.14 124.914C346.051 128.65 348.912 132.888 350.255 137.669C351.62 141.835 352.144 146.4 351.966 151.268C351.79 157.341 350.754 162.805 348.306 167.09C346.052 171.316 342.515 174.563 337.535 175.442L337.386 175.468ZM273.133 48.9086C275.068 52.0408 275.609 55.5746 274.785 59.1429C274.134 61.9621 272.901 64.8456 271.267 67.7534C270.58 69.0105 269.662 72.1519 268.941 78.0724C268.248 83.7728 267.808 91.3556 267.648 100.89C267.328 119.75 268.287 146.195 270.551 180.303C271.04 187.467 271.217 193.411 271.051 198.066C271.042 202.613 270.521 206.81 269.358 210.552C268.383 214.193 266.837 217.577 264.725 220.675C262.987 223.445 260.788 226.562 258.159 230.012L258.148 230.026L258.137 230.04C253.31 236.295 247.556 240.791 240.713 241.776C237.095 242.394 233.453 241.763 230.348 239.434C227.407 237.23 225.571 233.967 224.386 230.514C222.989 226.465 220.873 222.485 217.98 218.573C215.03 214.746 211.028 210.5 205.899 205.835C202.03 202.459 198.969 199.428 197.011 196.818C196.049 195.536 195.075 193.996 194.547 192.296C194.004 190.551 193.702 187.749 195.561 185.193L195.587 185.158L195.614 185.122C198.32 181.515 202.813 181.324 205.395 181.456C208.498 181.613 212.256 182.44 216.473 183.705L216.526 183.72L216.578 183.737C220.398 184.959 223.464 185.756 225.831 186.185C227.765 186.407 229.188 186.47 230.18 186.441C230.479 182.592 230.709 177.721 230.865 171.804L230.867 171.729L230.871 171.655C231.191 165.403 231.432 158.741 231.593 151.667M273.133 48.9086C271.374 45.8036 268.386 43.4854 265.156 41.6771C261.697 39.5814 257.12 37.6522 251.639 35.8258C244.777 33.5393 239.03 32.0221 234.57 31.4504C232.411 31.0967 230.329 30.9195 228.42 31.0352C226.539 31.1492 224.317 31.5757 222.357 32.8816L222.219 32.9739L222.086 33.0738C217.6 36.4366 218.192 41.6599 219.264 44.8736C220.36 48.1594 222.474 51.7365 225.207 55.4932C226.349 57.0623 227.217 58.48 227.852 59.7486L227.91 59.8652L227.973 59.9792C228.483 60.8965 228.958 62.0888 229.341 63.6214L229.357 63.6833L229.373 63.7449C229.727 65.0411 230.004 66.7325 230.147 68.8807L230.16 69.0783L230.187 69.2747C230.493 71.5714 230.805 74.4463 231.122 77.9166C231.277 80.5815 231.435 84.5302 231.595 89.7966C231.754 95.0664 231.835 101.077 231.835 107.833V129.452C231.835 137.02 231.754 144.424 231.593 151.664M201.02 145.871L201.002 145.925C200.157 148.46 199.072 151.459 197.758 154.909L197.74 154.955L197.722 155.001C195.761 159.9 193.929 164.076 192.226 167.493C190.668 170.938 188.967 174.003 187.095 176.629C185.388 179.088 183.441 181.253 181.236 183.075C179.291 184.809 177.109 186.318 174.72 187.617C170.209 190.325 164.78 191.831 159.579 189.232C156.668 187.776 154.709 185.132 153.335 182.581C151.914 179.944 150.726 176.666 149.698 172.918C148.837 170.146 148.237 167.551 148.025 165.218L148 164.947V164.675C148 162.226 148.307 159.831 148.941 157.509L149.006 157.27L149.09 157.037C149.958 154.651 151.219 152.377 152.793 150.214L152.819 150.178L152.846 150.143C154.423 148.041 156.389 145.652 158.719 142.99L158.735 142.973L158.75 142.955C161.354 140.027 163.563 137.573 165.373 135.6L165.38 135.592L165.387 135.584C167.163 133.661 168.576 131.883 169.663 130.253C170.745 128.631 171.707 126.851 172.542 124.902C173.399 122.904 174.297 120.377 175.226 117.283L175.235 117.253L175.244 117.224C176.432 113.408 177.746 110.105 179.281 107.638C180.568 105.57 183.261 102.076 187.777 102.076C192.342 102.076 195.008 105.631 196.263 107.721C197.749 110.197 198.99 113.5 200.09 117.3C201.262 121.156 202.077 124.688 202.463 127.851C203.004 130.998 203.119 134.089 202.741 137.091C202.532 139.979 201.951 142.891 201.037 145.817L201.02 145.871Z" fill="black"/>
</svg>
