<svg width="500" height="500" viewBox="0 0 500 500" fill="none" xmlns="http://www.w3.org/2000/svg">
<path d="M440.632 225.833C448.299 231.833 453.632 237.167 456.632 241.833C459.966 246.5 460.632 250.5 458.632 253.833C456.966 256.833 452.632 259 445.632 260.333C438.632 261.667 428.632 261.667 415.632 260.333C372.966 256.333 316.966 257.833 247.632 264.833C216.966 267.833 191.132 271 170.132 274.333C149.132 277.667 130.299 281.333 113.632 285.333C107.299 287 101.799 288.167 97.1324 288.833C92.799 289.167 88.4657 288.833 84.1324 287.833C79.799 286.833 75.299 285 70.6324 282.333C66.299 279.667 61.1324 275.833 55.1324 270.833C44.799 262.5 40.1324 256.833 41.1324 253.833C42.4657 250.5 50.299 249 64.6324 249.333C71.299 249.333 77.6324 249.333 83.6324 249.333C89.6324 249.333 95.6324 249.333 101.632 249.333C107.966 249 114.466 248.667 121.132 248.333C127.799 248 135.299 247.5 143.632 246.833C161.632 245.5 179.966 243.833 198.632 241.833C217.632 239.5 236.132 237.167 254.132 234.833C272.132 232.167 289.466 229.5 306.132 226.833C323.132 223.833 338.799 220.833 353.132 217.833C365.799 215.167 376.299 213.333 384.632 212.333C393.299 211 400.632 210.667 406.632 211.333C412.966 211.667 418.632 213.167 423.632 215.833C428.966 218.167 434.632 221.5 440.632 225.833Z" fill="black"/>
</svg>
