<svg width="350" height="350" viewBox="0 0 350 350" fill="none" xmlns="http://www.w3.org/2000/svg">
<path d="M319.36 154.884C333.227 167.418 338.827 176.484 336.16 182.084C333.493 187.418 321.893 189.151 301.36 187.284C280.827 185.418 259.627 184.751 237.76 185.284C215.893 185.551 191.493 187.151 164.56 190.084C150.16 191.418 137.893 192.751 127.76 194.084C117.893 195.151 109.093 196.351 101.36 197.684C93.8933 198.751 87.0933 199.951 80.96 201.284C75.0933 202.351 68.96 203.684 62.56 205.284C53.2267 207.684 44.6933 208.218 36.96 206.884C29.4933 205.284 21.36 200.484 12.56 192.484C8.02667 188.484 4.69333 185.151 2.56 182.484C0.426666 179.818 -0.373334 177.818 0.160001 176.484C0.693333 174.884 2.82667 173.818 6.56 173.284C10.2933 172.751 15.8933 172.484 23.36 172.484C30.2933 172.484 36.16 172.484 40.96 172.484C46.0267 172.484 50.6933 172.484 54.96 172.484C59.2267 172.218 63.4933 171.951 67.76 171.684C72.0267 171.418 77.0933 171.018 82.96 170.484C102.16 168.618 120.427 166.618 137.76 164.484C155.093 162.351 170.827 160.351 184.96 158.484C199.093 156.351 211.227 154.484 221.36 152.884C231.493 151.018 238.96 149.418 243.76 148.084C261.893 143.551 276.827 141.551 288.56 142.084C300.293 142.618 310.56 146.884 319.36 154.884Z" fill="black"/>
</svg>
