<svg width="500" height="500" viewBox="0 0 500 500" fill="none" xmlns="http://www.w3.org/2000/svg">
<path d="M151.014 137.063C174.348 135.396 199.348 132.229 226.014 127.563C253.014 122.563 278.681 116.229 303.014 108.563C311.681 105.896 319.014 103.896 325.014 102.563C331.014 101.229 336.181 100.396 340.514 100.063C345.181 99.3959 349.181 99.2292 352.514 99.5625C355.848 99.8959 359.014 100.563 362.014 101.563C374.348 105.896 380.681 110.896 381.014 116.563C381.348 121.896 374.181 126.563 359.514 130.563C357.514 131.229 353.181 132.229 346.514 133.562C339.848 134.563 332.014 135.896 323.014 137.563C314.014 138.896 304.348 140.396 294.014 142.063C284.014 143.729 274.348 145.229 265.014 146.563C247.014 149.229 232.014 151.396 220.014 153.063C208.014 154.729 198.014 155.896 190.014 156.563C182.348 157.229 176.014 157.563 171.014 157.563C166.348 157.229 162.014 156.729 158.014 156.063C157.348 175.729 154.514 197.896 149.514 222.563C144.848 247.229 138.181 272.896 129.514 299.563C124.181 315.896 117.514 331.896 109.514 347.563C101.848 362.896 93.3476 377.396 84.0143 391.063C74.681 404.396 64.681 416.229 54.0143 426.563C43.681 436.896 33.181 445.063 22.5143 451.063C9.84762 458.063 2.51429 460.563 0.514286 458.563C-1.48571 456.563 2.34762 450.563 12.0143 440.563C32.0143 420.563 49.8476 395.896 65.5143 366.563C81.181 336.896 92.681 305.896 100.014 273.563C108.014 237.896 112.681 210.063 114.014 190.063C115.348 169.729 113.848 155.896 109.514 148.563C106.181 142.896 104.181 138.229 103.514 134.563C103.181 130.896 104.514 128.563 107.514 127.563C110.514 126.229 115.514 126.396 122.514 128.063C129.514 129.396 139.014 132.396 151.014 137.063ZM289.014 67.5625C290.014 80.5625 286.848 89.3958 279.514 94.0625C272.514 98.3958 264.014 96.5625 254.014 88.5625C248.014 83.8958 241.848 78.3959 235.514 72.0625C229.181 65.7292 222.014 58.0625 214.014 49.0625C207.348 42.0625 204.848 37.3958 206.514 35.0625C208.181 32.7292 215.181 31.7292 227.514 32.0625C248.848 32.7292 264.181 36.3958 273.514 43.0625C283.181 49.3958 288.348 57.5625 289.014 67.5625Z" fill="black"/>
<path d="M429.265 317.213C447.465 324.446 447.115 329.813 428.215 333.313C412.115 336.113 399.165 338.213 389.365 339.613C379.565 340.779 371.631 341.013 365.565 340.313C359.498 339.379 354.481 337.396 350.515 334.363C346.781 331.096 342.815 326.429 338.615 320.363C329.748 307.529 318.781 292.713 305.715 275.913C292.881 258.879 278.415 240.679 262.315 221.313C244.115 254.213 224.165 281.396 202.465 302.863C180.998 324.329 156.848 339.963 130.015 349.763C112.748 356.063 103.298 358.163 101.665 356.063C100.265 353.729 106.565 347.663 120.565 337.863C141.331 323.396 160.115 306.013 176.915 285.713C193.948 265.413 210.281 240.563 225.915 211.163C229.881 203.929 232.565 197.279 233.965 191.213C235.598 185.146 235.831 180.363 234.665 176.863C231.631 166.596 232.098 160.413 236.065 158.313C240.031 155.979 249.598 159.013 264.765 167.413C271.998 171.379 277.481 174.996 281.215 178.263C284.948 181.296 287.048 184.213 287.515 187.013C288.215 189.813 287.398 192.613 285.065 195.413C282.965 198.213 279.698 201.246 275.265 204.513C288.331 217.346 299.998 228.546 310.265 238.113C320.531 247.679 329.865 256.079 338.265 263.313C346.665 270.546 354.365 276.729 361.365 281.863C368.598 286.996 375.715 291.663 382.715 295.863C389.715 299.829 396.948 303.563 404.415 307.063C411.881 310.329 420.165 313.713 429.265 317.213ZM308.515 310.563C304.315 312.196 300.348 313.713 296.615 315.113C293.115 316.279 289.731 317.329 286.465 318.263C283.198 319.196 279.698 320.129 275.965 321.063C272.465 321.763 268.615 322.463 264.415 323.163C254.381 324.796 246.098 325.963 239.565 326.663C233.265 327.363 228.015 327.596 223.815 327.363C219.615 327.129 216.231 326.663 213.665 325.963C211.098 325.029 208.648 323.863 206.315 322.463C199.548 318.496 196.398 315.696 196.865 314.063C197.331 312.196 201.998 310.679 210.865 309.513C219.965 308.346 229.531 306.596 239.565 304.263C249.598 301.929 258.348 299.129 265.815 295.863C270.248 293.996 274.098 292.596 277.365 291.663C280.865 290.496 284.131 289.913 287.165 289.913C290.198 289.913 293.231 290.379 296.265 291.313C299.298 292.013 302.681 293.179 306.415 294.813C311.781 297.146 314.698 299.946 315.165 303.213C315.631 306.246 313.415 308.696 308.515 310.563ZM344.565 385.813C341.998 387.679 339.548 389.663 337.215 391.763C335.115 393.863 333.015 396.313 330.915 399.113C328.815 401.913 326.715 405.063 324.615 408.563C322.515 412.063 320.298 416.146 317.965 420.813C327.065 427.579 331.148 433.296 330.215 437.963C329.281 442.863 323.915 445.313 314.115 445.313C301.981 445.313 287.981 445.779 272.115 446.713C256.248 447.879 239.915 449.396 223.115 451.263C220.548 457.563 217.748 462.113 214.715 464.913C211.915 467.713 208.998 468.529 205.965 467.363C202.931 466.196 200.131 463.046 197.565 457.913C194.998 452.779 192.898 445.313 191.265 435.513C188.698 420.579 185.898 407.863 182.865 397.363C179.831 386.863 177.148 380.329 174.815 377.763C171.081 373.796 168.515 370.529 167.115 367.963C165.948 365.163 166.415 363.063 168.515 361.663C170.615 360.263 174.465 359.679 180.065 359.913C185.898 359.913 194.065 360.613 204.565 362.013C219.498 360.613 231.865 359.213 241.665 357.813C251.698 356.413 259.981 355.013 266.515 353.613C273.048 352.213 278.298 350.696 282.265 349.063C286.465 347.429 290.198 345.563 293.465 343.463C295.798 342.063 298.015 341.129 300.115 340.663C302.215 339.963 304.548 339.846 307.115 340.313C309.915 340.779 313.181 341.946 316.915 343.813C320.648 345.679 325.431 348.246 331.265 351.513C338.965 355.946 344.681 359.679 348.415 362.713C352.381 365.746 354.715 368.546 355.415 371.113C356.348 373.446 355.765 375.779 353.665 378.113C351.798 380.213 348.765 382.779 344.565 385.813ZM294.165 384.763C294.865 380.329 294.748 377.296 293.815 375.663C293.115 374.029 291.131 373.329 287.865 373.563C278.298 374.263 267.915 375.313 256.715 376.713C245.515 377.879 232.448 379.396 217.515 381.263C218.681 388.729 219.731 396.779 220.665 405.413C221.598 413.813 222.648 421.863 223.815 429.563C237.815 427.696 250.415 426.063 261.615 424.663C273.048 423.263 281.098 422.096 285.765 421.163C286.931 418.829 288.331 414.396 289.965 407.863C291.598 401.096 292.998 393.396 294.165 384.763Z" fill="black"/>
</svg>
