<svg width="500" height="500" viewBox="0 0 500 500" fill="none" xmlns="http://www.w3.org/2000/svg">
<path d="M424.3 199.4C424.3 206.6 420.4 212.6 412.6 217.4C404.8 221.6 397.3 230.3 390.1 243.5C382.9 256.1 376.9 271.1 372.1 288.5C352.3 356.3 333.4 403.1 315.4 428.9C297.4 455.3 296.9 460.5 285.5 460.5C275.9 460.5 279.9 453.7 279.9 426.1C279.9 408.7 286.8 388.6 300.6 365.8C314.4 343.6 327 305.4 338.4 271.2C349.8 237 355.5 216 355.5 208.2C355.5 199.8 352.2 195.6 345.6 195.6C339 195.6 320.7 199.5 290.7 207.3C261.3 215.1 225.1 218.5 198.1 227.5C171.7 236.5 152.2 241 139.6 241C127 241 115.6 236.5 105.4 227.5C95.8 217.9 91 220.7 91 215.9C91 210.5 93.1 207.2 97.3 206C101.5 204.2 109.9 203.3 122.5 203.3C152.5 203.3 176.8 203.3 225.4 191.3C274 179.3 306.4 168.2 322.6 158C331.6 152.6 340 149.9 347.8 149.9C355.6 149.9 370.3 155.9 391.9 167.9C413.5 179.3 424.3 189.8 424.3 199.4Z" fill="black"/>
<path d="M292.063 60.7381C281.438 52.9127 265.501 49 244.252 49C228.084 49 220 52.4524 220 59.3571C220 63.0397 225.543 69.7143 236.63 79.381C247.717 89.0476 258.11 96.1825 267.811 100.786C277.974 104.929 285.365 107 289.984 107C295.066 107 299.223 105.159 302.457 101.476C306.152 97.7937 308 93.1905 308 87.6667C308 77.0794 302.688 68.1032 292.063 60.7381Z" fill="black"/>
</svg>
