<svg width="500" height="500" viewBox="0 0 500 500" fill="none" xmlns="http://www.w3.org/2000/svg">
<path d="M283.772 227.517C301.105 221.183 315.105 216.35 325.772 213.017C336.438 209.683 345.105 207.35 351.772 206.017C358.438 204.683 363.772 204.183 367.772 204.517C371.772 204.85 375.772 205.683 379.772 207.017C393.438 211.683 400.272 217.017 400.272 223.017C400.272 229.017 392.272 234.183 376.272 238.517C362.605 242.183 348.105 245.017 332.772 247.017C317.772 248.683 301.272 249.517 283.272 249.517L279.772 383.017C293.105 381.683 304.438 380.517 313.772 379.517C323.438 378.517 331.938 377.517 339.272 376.517C346.938 375.517 353.772 374.683 359.772 374.017C365.772 373.017 371.938 372.017 378.272 371.017C389.605 369.35 399.272 368.35 407.272 368.017C415.272 367.35 422.272 367.517 428.272 368.517C434.272 369.183 439.605 370.683 444.272 373.017C449.272 375.017 454.105 378.017 458.772 382.017C466.772 388.35 472.272 394.183 475.272 399.517C478.272 404.517 478.272 408.517 475.272 411.517C472.605 414.517 466.438 416.35 456.772 417.017C447.438 418.017 434.272 417.183 417.272 414.517C408.605 413.183 397.272 412.017 383.272 411.017C369.605 410.35 355.105 409.85 339.772 409.517C324.772 409.183 309.772 409.017 294.772 409.017C279.772 409.35 266.938 409.85 256.272 410.517C217.938 413.183 184.438 416.35 155.772 420.017C127.438 424.017 105.772 428.017 90.7717 432.017C83.1051 434.017 76.9384 435.517 72.2717 436.517C67.9384 437.85 63.9384 438.35 60.2717 438.017C56.9384 437.683 53.7717 436.683 50.7717 435.017C47.7717 433.35 44.2717 431.017 40.2717 428.017C26.6051 417.683 20.6051 410.683 22.2717 407.017C23.9384 403.017 34.2717 401.683 53.2717 403.017C57.9384 403.35 67.1051 403.183 80.7717 402.517C94.7717 401.517 113.772 399.85 137.772 397.517C137.438 368.183 136.772 343.517 135.772 323.517C134.772 303.517 133.272 287.017 131.272 274.017C129.605 261.017 127.605 251.017 125.272 244.017C122.938 236.683 120.105 231.017 116.772 227.017C112.772 222.017 110.272 217.85 109.272 214.517C108.272 211.183 108.938 208.85 111.272 207.517C113.938 205.85 118.438 205.35 124.772 206.017C131.438 206.683 140.272 208.85 151.272 212.517C158.605 215.183 164.438 217.683 168.772 220.017C173.105 222.017 176.105 224.35 177.772 227.017C179.438 229.683 179.938 232.85 179.272 236.517C178.938 239.85 177.772 244.183 175.772 249.517C174.772 252.183 173.938 256.35 173.272 262.017C172.605 267.683 171.938 276.017 171.272 287.017C170.938 298.017 170.772 312.183 170.772 329.517C170.772 346.85 170.772 368.35 170.772 394.017C181.438 393.017 192.605 392.017 204.272 391.017C215.938 389.683 228.605 388.35 242.272 387.017C242.605 375.017 242.772 360.517 242.772 343.517C243.105 326.517 243.438 309.683 243.772 293.017C244.105 276.35 244.272 261.35 244.272 248.017C244.605 234.35 244.772 225.183 244.772 220.517C245.105 196.517 244.938 177.017 244.272 162.017C243.605 146.683 242.605 134.35 241.272 125.017C240.272 115.35 238.772 108.017 236.772 103.017C234.772 97.6833 232.438 93.0167 229.772 89.0167C220.438 75.0167 217.605 66.35 221.272 63.0167C224.938 59.35 238.105 60.6833 260.772 67.0167C270.772 70.0167 278.605 72.85 284.272 75.5167C289.938 78.1833 293.938 81.0167 296.272 84.0167C298.605 87.0167 299.438 90.5167 298.772 94.5167C298.105 98.5167 296.605 103.517 294.272 109.517C292.938 113.183 291.772 117.517 290.772 122.517C289.772 127.517 288.772 134.517 287.772 143.517C287.105 152.183 286.438 163.35 285.772 177.017C285.105 190.35 284.438 207.183 283.772 227.517Z" fill="black"/>
</svg>
