<svg width="500" height="500" viewBox="0 0 500 500" fill="none" xmlns="http://www.w3.org/2000/svg">
<path d="M254.018 325.5C222.5 332 174.018 326.5 160.018 328.5C144.685 320.833 135.018 318.167 131.018 320.5C127.352 322.833 127.852 328.833 132.518 338.5C133.518 340.5 134.185 343 134.518 346C135.185 348.667 135.685 352.5 136.018 357.5C136.352 362.167 136.352 368.333 136.018 376C135.685 383.333 135.352 393 135.018 405C134.352 422.667 137.352 436.167 144.018 445.5C150.685 454.833 163.519 461.333 182.519 465C190.185 466.667 268.852 467.5 278.518 467.5C288.518 467.167 298.352 466.333 308.019 465C317.685 463.667 326.852 461.833 335.519 459.5C344.185 456.833 351.352 454 357.018 451C366.685 445.667 371.852 441 372.518 437C373.185 433 371.185 428.5 366.518 423.5C363.852 420.833 361.852 417 360.518 412C359.185 406.667 357.852 397.167 356.519 383.5C354.852 366.5 352.185 358.167 348.518 358.5C344.852 358.5 341.185 367.333 337.518 385C334.518 399 331.185 408.833 327.518 414.5C323.852 420.167 319.185 424 313.518 426C303.185 429.667 294.018 432.167 286.018 433.5C243.5 437 220.185 434.5 212.518 433.5C199.518 432.167 187.5 437 167.018 424.5C163.352 419.833 162.352 410.5 164.019 396.5C165.352 385.833 166.185 376.833 166.519 369.5C167.185 362.167 167.518 355.5 167.518 349.5C179.518 348.167 220.519 350.667 232.519 349C244.519 347 295.352 341.167 303.019 339.5C314.019 337.167 319.352 333.333 319.018 328C319.018 322.333 314.685 316.833 306.019 311.5C309.352 301.833 313.185 294 317.519 288C321.852 281.667 328.685 275.667 338.019 270C346.019 265 349.352 260.5 348.018 256.5C346.685 252.5 338.518 246.5 323.518 238.5C311.852 232.167 303.352 229 298.018 229C293.018 229 288.018 230.833 283.018 234.5C275.352 240.167 246.352 245 236.018 249C225.685 252.667 161.852 255.833 144.518 258.5C133.185 260.167 127.352 262.333 127.019 265C126.685 267.667 130.852 271 139.518 275C143.518 277 147.019 278.5 150.019 279.5C153.019 280.167 156.018 280.5 159.018 280.5C162.018 280.5 165.185 280.167 168.519 279.5C171.852 278.5 176.018 277 181.018 275C191.018 271.333 269.352 269 276.018 268C281.018 267.333 284.019 268.167 285.019 270.5C286.352 272.5 286.018 277.833 284.018 286.5C283.018 291.167 282.185 295.167 281.518 298.5C280.852 301.5 279.852 305.333 278.518 310C273.852 315 278.263 320.5 254.018 325.5Z" fill="black"/>
<path d="M359.688 192.833C344.888 194.033 333.188 194.633 324.588 194.633C315.988 194.433 309.088 193.233 303.888 191.033C298.688 188.633 294.488 184.933 291.288 179.933C288.088 174.733 284.388 167.533 280.188 158.333C271.559 139.842 269.555 139.988 261.888 122.233C260.088 118.233 258.388 114.633 256.788 111.433C255.388 108.233 253.588 104.933 251.388 101.533C250.988 106.133 250.788 112.533 250.788 120.733C250.788 145.235 251.988 145.724 251.988 170.233C252.188 182.233 252.188 182.133 251.988 189.933C251.788 197.533 251.388 203.433 250.788 207.633C250.188 212.033 249.388 216.033 248.388 219.633C244.988 232.633 240.588 238.833 235.188 238.233C229.988 237.833 224.288 231.933 218.088 220.533C216.688 217.933 215.588 215.633 214.788 213.633C214.188 211.633 213.988 209.633 214.188 207.633C214.388 205.633 214.988 203.533 215.988 201.333C216.988 199.133 218.388 196.433 220.188 193.233C222.988 188.633 224.888 187.233 225.888 169.033C226.888 150.833 227.188 151.333 226.788 122.533C226.788 116.333 226.588 111.133 226.188 106.933C225.988 102.533 225.688 98.8333 225.288 95.8333C224.888 92.6333 224.288 89.9333 223.488 87.7333C222.688 85.3333 221.688 83.0333 220.488 80.8333C218.488 81.6333 216.488 82.4333 214.488 83.2333C212.488 84.0333 210.388 84.9333 208.188 85.9333C208.188 93.3333 207.788 102.333 206.988 112.933C204.89 140.215 199.23 156.238 183.688 179.033C177.688 187.633 170.788 195.033 162.988 201.233C155.188 207.433 146.688 213.233 137.488 218.633C128.088 224.033 122.688 226.033 121.288 224.633C119.888 223.433 123.588 218.433 132.388 209.633C136.388 205.633 140.788 200.633 145.588 194.633C150.588 188.633 155.388 181.433 159.988 173.033C170.228 154.335 177.797 143.947 178.488 122.533C178.888 116.133 178.888 110.833 178.488 106.633C178.088 102.233 177.388 98.6333 176.388 95.8333C175.588 93.0333 174.588 90.7333 173.388 88.9333C170.588 84.7333 168.688 81.2333 167.688 78.4333C166.888 75.6333 167.388 73.6333 169.188 72.4333C170.988 71.0333 174.188 70.5333 178.788 70.9333C183.588 71.3333 190.088 72.5333 198.288 74.5333C217.688 63.9333 231.788 55.5333 240.588 49.3333C249.388 42.9333 253.588 38.0333 253.188 34.6333C252.788 30.8333 252.888 27.7333 253.488 25.3333C254.088 22.7333 255.488 21.1333 257.688 20.5333C259.888 19.7333 262.988 19.8333 266.988 20.8333C271.188 21.8333 276.688 23.9333 283.488 27.1333C290.688 30.5333 295.988 33.6333 299.388 36.4333C302.788 39.0333 304.488 41.4333 304.488 43.6333C304.688 45.8333 303.388 47.8333 300.588 49.6333C297.788 51.2333 293.788 52.7333 288.588 54.1333C285.788 54.9333 282.888 55.8333 279.888 56.8333C276.888 57.8333 273.388 59.1333 269.388 60.7333C265.588 62.1333 260.988 63.9333 255.588 66.1333C250.188 68.3333 243.588 71.0333 235.788 74.2333C243.188 75.4333 248.088 76.7333 250.488 78.1333C253.088 79.5333 254.388 81.9333 254.388 85.3333C261.188 88.9333 266.388 92.6333 269.988 96.4333C273.788 100.033 277.488 105.233 281.088 112.033C291.288 124.733 296.5 129.733 310.188 140.933C317.388 148.533 324.788 155.033 332.388 160.433C340.188 165.633 348.688 170.333 357.888 174.533C371.488 180.933 378.288 185.333 378.288 187.733C378.488 190.133 372.288 191.833 359.688 192.833Z" fill="black"/>
</svg>
