<svg width="500" height="500" viewBox="0 0 500 500" fill="none" xmlns="http://www.w3.org/2000/svg">
<g clip-path="url(#clip0_2582_3286)">
<path d="M296 107C299.667 129.667 297.5 144 289.5 150C281.5 155.667 270.5 153.167 256.5 142.5C250.5 137.833 243.5 132 235.5 125C227.833 118 219.667 109.833 211 100.5C201.667 90.8333 197.333 84.5 198 81.5C199 78.1667 206.5 76.5 220.5 76.5C246.167 76.5 264.667 79 276 84C287.667 89 294.333 96.6667 296 107ZM364 163.5C380.333 169.833 387.333 176.667 385 184C382.667 191 371 196.167 350 199.5C342.333 200.833 333.333 202.333 323 204C313 205.667 302.667 207.5 292 209.5C281.667 211.167 271.333 213 261 215C251 216.667 242.333 218.167 235 219.5C216.333 223.167 201.5 226 190.5 228C179.833 230 171.167 231.333 164.5 232C158.167 232.667 153.167 232.667 149.5 232C146.167 231.333 142.5 230.167 138.5 228.5C120.833 220.833 113 215.5 115 212.5C117 209.167 127.5 206.5 146.5 204.5C155.5 203.5 166 202 178 200C190.333 197.667 202.833 195 215.5 192C228.5 189 240.833 185.833 252.5 182.5C264.5 179.167 274.833 175.833 283.5 172.5C293.833 168.5 302.5 165.333 309.5 163C316.833 160.667 323.333 159.167 329 158.5C335 157.5 340.667 157.5 346 158.5C351.333 159.5 357.333 161.167 364 163.5ZM224.5 328.5C220.167 348.5 213.333 359.667 204 362C195 364.333 185.667 357.667 176 342C173 337.333 169.5 329.833 165.5 319.5C161.833 309.167 158 297.5 154 284.5C149.333 270.5 148.5 262.667 151.5 261C154.5 259 164.5 261.833 181.5 269.5C199.833 277.5 212.167 286.333 218.5 296C224.833 305.333 226.833 316.167 224.5 328.5ZM449 392C461.667 410 465.667 421.5 461 426.5C456.333 431.5 441 431.167 415 425.5C405.333 423.5 394 421.833 381 420.5C368 419.167 354.333 418.333 340 418C325.667 417.333 311 417.167 296 417.5C281.333 417.5 267.5 418 254.5 419C234.833 420.667 217.333 422.167 202 423.5C187 424.833 173.667 426.167 162 427.5C150.667 428.5 140.667 429.667 132 431C123.667 432.667 116.5 434.167 110.5 435.5C101.167 437.833 93.5 439.5 87.5 440.5C81.5 441.833 76.1667 442.167 71.5 441.5C67.1667 441.167 63.1667 439.833 59.5 437.5C55.8333 435.5 51.6667 432.5 47 428.5C36 418.167 31 411.667 32 409C33 406 41 404.833 56 405.5C77.3333 406.5 139.333 401 242 389C252 365.667 259.833 346 265.5 330C271.167 314 275.167 300.667 277.5 290C280.167 279 281.333 270.167 281 263.5C280.667 256.833 279.333 251.333 277 247C273 239.333 270.667 233 270 228C269.667 223 271.167 219.667 274.5 218C277.833 216.333 283.167 216.667 290.5 219C297.833 221 307.167 225.167 318.5 231.5C328.5 237.167 336 242.333 341 247C346 251.667 349 256 350 260C351 264 350.333 267.833 348 271.5C345.667 275.167 342.167 278.833 337.5 282.5C334.167 285.167 331 288.167 328 291.5C325.333 294.833 321.833 300 317.5 307C313.5 314 308.167 323.667 301.5 336C295.167 348.333 286.667 364.833 276 385.5C298 383.833 318.333 382.167 337 380.5C355.667 378.833 370.833 377 382.5 375C399.167 372 412.5 371.5 422.5 373.5C432.833 375.5 441.667 381.667 449 392Z" fill="black"/>
</g>
<defs>
<clipPath id="clip0_2582_3286">
<rect width="500" height="500" fill="white"/>
</clipPath>
</defs>
</svg>
