<?xml version="1.0" encoding="UTF-8"?>
<svg width="375px" height="305px" viewBox="0 0 375 305" version="1.1" xmlns="http://www.w3.org/2000/svg" xmlns:xlink="http://www.w3.org/1999/xlink">
    <title>d_zhong_s</title>
    <g id="d_zhong_s" stroke="none" stroke-width="1" fill="none" fill-rule="evenodd">
        <path d="M169.290094,-10 C172.564333,-10 175.69519,-8.84953843 179.930841,-6.56921046 L180.855845,-6.06328239 C181.012982,-5.97608123 181.171643,-5.88744079 181.331883,-5.79736202 C185.394652,-3.51348025 188.799836,-1.15751599 191.595979,1.35761081 C198.988344,8.07375069 201.648933,17.3352732 199.645264,27.7431656 L199.50928,28.4328963 L199.438841,28.8500861 L199.37336,29.3078883 L199.312945,29.8059528 L199.257701,30.3439296 L199.207734,30.9214686 L199.142914,31.8611905 L199.106609,32.5361037 L199.075955,33.2493539 L199.040801,34.3903454 L199.02474,35.1979068 L199.014702,36.0425801 L199.010794,36.9240153 L199.016659,38.3143308 L199.036915,39.7853915 L199.071923,41.3360159 L199.12,42.991 L199.726785,43.0359814 C204.204328,43.3919184 208.344197,44.1908748 212.140307,45.4554309 L212.848048,45.697997 L214.214193,46.1921911 C214.328921,46.2325685 214.442243,46.2718864 214.554143,46.310154 L215.208365,46.527232 C215.845289,46.7318569 216.429963,46.8993473 216.959164,47.0317235 L217.469755,47.1524697 C218.207545,47.3162563 218.818103,47.402551 219.290551,47.418172 L220.012896,47.4273744 C220.110599,47.4295752 220.209663,47.432326 220.310097,47.4356265 L220.92925,47.4620239 L221.581853,47.5016022 L222.268448,47.5543492 C222.385743,47.5642371 222.504477,47.5746732 222.624661,47.5856572 L223.363257,47.6581347 L224.137198,47.7437508 L224.947025,47.8424933 L225.793278,47.9543503 L226.6765,48.0793095 L227.59723,48.2173591 L228.556011,48.3684868 L229.553384,48.5326806 L230.589889,48.7099284 L232.219204,49.0002499 L233.939613,49.319875 L235.600349,49.6376883 L236.488746,49.8020185 L237.328263,49.9495942 C237.464066,49.9727978 237.5978,49.9953063 237.729449,50.0171211 L238.494197,50.139697 L239.208133,50.2456948 L239.870487,50.3351849 L240.480486,50.4082379 L241.037358,50.4649244 L241.306,50.488 L241.436358,50.4191274 C242.24048,50.0073656 243.074558,49.6673187 243.933051,49.4023477 L244.451033,49.2524011 L244.655,49.199 L244.739402,49.1232755 C247.351181,46.8099742 250.878542,46.0906328 254.26366,46.6910245 L254.601658,46.7554526 L254.876528,46.8144865 C256.91381,47.2742309 258.836232,48.1661162 260.98578,49.4799753 L261.449999,49.7679716 C261.794,49.9844299 262.101732,50.1616727 262.369133,50.3004536 L262.422,50.326 L262.549706,50.3124257 C265.377183,50.0315074 268.069686,50.7236508 270.587273,52.0738406 L270.945734,52.2711673 L271.272211,52.4597409 C273.25859,53.6327785 275.167744,55.238014 277.131647,57.2865879 L277.553369,57.7323578 C280.213158,60.5803532 282.942804,63.0731284 285.740661,65.2168144 L287.592929,66.6300105 L289.067537,67.7420152 L289.968967,68.410138 L290.655,68.902 L290.786099,68.9832578 C293.060048,70.4268399 294.141792,72.066974 294.940593,74.1016631 L295.047851,74.3815849 L295.147824,74.6545362 C295.478389,75.5760631 295.720936,76.5390942 295.931769,77.6394242 L295.994445,77.9761933 L296.116018,78.6877404 C296.135875,78.8106092 296.155536,78.9356349 296.175007,79.0628448 L296.289623,79.8525309 L296.400066,80.6959412 L296.506707,81.5943809 L296.609919,82.5491553 L296.710072,83.5615694 L296.759119,84.0897993 L296.804778,84.5224008 C297.252655,89.1385649 296.940125,93.3989541 295.776465,97.2771866 L295.6125,97.8036652 L295.437933,98.3253916 C294.558217,100.865208 293.421585,103.026231 291.812972,104.843529 C290.043384,106.842685 287.787587,108.286332 285.210369,108.916869 L284.840026,109.001387 L284.737,109.021 L277.177711,117.179494 C274.115524,120.409786 271.433693,124.152029 269.13076,128.429299 L268.76,129.129 L268.539213,129.576519 C263.802679,139.033722 256.099157,148.89907 245.461565,159.302471 L244.76365,159.981718 L244.114,160.607 L243.836323,160.882468 C238.820339,165.787802 233.60314,168.680539 227.917483,168.94204 L227.490176,168.956709 L227.071325,168.961456 C222.903737,168.961456 219.531099,168.158948 216.59402,165.223702 C215.36793,163.998377 214.453159,162.608168 213.415659,160.502599 L213.100293,159.848917 L212.774959,159.149011 L212.262571,158.005255 L211.900923,157.175337 L211.517735,156.283335 L211.368379,155.810667 C210.560274,153.253268 209.645262,151.543764 208.771692,150.598987 L208.640986,150.462996 L208.405462,150.227618 L208.087772,149.866643 L207.96,149.73 L207.579863,149.695617 L207.082131,149.657519 L206.502438,149.621435 L205.848029,149.588792 L205.138415,149.560977 L203.971442,149.528459 L202.682726,149.507201 L201.756678,149.499403 L200.642592,149.496788 L199.246883,149.46263 L197.496163,149.433718 L196.737,149.427 L196.683756,150.476609 L196.591542,152.514867 L196.525671,154.181829 L196.462675,155.966816 L196.364205,159.202877 L196.186798,165.575998 L196.069373,169.000353 L195.997013,170.771399 L195.899082,172.807161 L195.813388,174.301072 L195.744093,175.347099 L195.695243,176.010506 L195.644105,176.647683 L195.534408,177.846526 L195.445089,178.68271 L195.349206,179.467913 L195.281404,179.964383 L195.210334,180.440179 L195.097296,181.116846 L195.017444,181.54443 L194.933834,181.954118 L194.846326,182.346705 C194.831408,182.410755 194.816323,182.474125 194.801066,182.536833 L194.707448,182.905254 L194.609582,183.258557 L194.507328,183.597536 L194.354,184.057 L194.287862,184.629753 L194.22476,185.306194 L194.163137,186.102329 L194.103804,187.014483 L194.047289,188.043787 L193.99472,189.175321 L193.916546,191.277414 L193.862592,193.152813 L193.816352,195.199583 L193.777904,197.416961 L193.740918,200.427436 L193.635246,210.359959 L193.581295,213.350175 L193.521068,215.582857 L193.445186,217.462247 L193.38806,218.477501 L193.322317,219.383378 L193.278335,219.878984 L193.179193,220.773474 L193.104153,221.30579 L193.021381,221.793473 L192.930384,222.242162 L192.856443,222.55648 L192.77739,222.854413 L192.693018,223.13834 L192.655,223.253 L192.591812,223.715169 L192.50893,224.379802 L192.417756,225.178674 L192.253725,226.759116 L192.075875,228.639468 L191.844614,231.28885 L191.605,234.227 L191.387074,238.340066 L191.12449,243.000482 L190.899272,246.735753 L190.673397,250.234587 L190.44637,253.499806 L190.294134,255.548229 L190.14102,257.494915 L189.948168,259.78648 L189.753428,261.922025 L189.596085,263.519223 L189.437203,265.018451 L189.236213,266.75599 L189.114237,267.726342 L188.991148,268.642999 L188.825192,269.782289 L188.699266,270.575027 L188.572021,271.315244 L188.443395,272.003295 L188.313327,272.639533 L188.181755,273.22431 L188.126,273.45 L188.101529,273.570326 C188.064748,273.751492 188.028414,273.940215 187.992545,274.136443 L187.886354,274.747589 C187.868895,274.853182 187.851556,274.960639 187.834341,275.069952 L187.732552,275.748061 L187.633838,276.470423 L187.538313,277.236728 C187.522664,277.36809 187.507153,277.50127 187.491782,277.636262 L187.401253,278.467898 L187.314196,279.342702 L187.230725,280.260361 L187.150953,281.220566 L187.074992,282.223005 L187.002958,283.267369 L186.934961,284.353347 L186.870292,285.464405 L186.802557,286.528485 L186.730241,287.538601 L186.653117,288.495659 L186.570954,289.400566 L186.483525,290.254228 L186.390599,291.057552 C186.374641,291.187295 186.358444,291.314978 186.342004,291.440621 L186.240405,292.170137 C186.222972,292.287692 186.205287,292.403244 186.187344,292.516812 C185.991285,293.757741 185.756223,294.835944 185.429385,295.846954 C185.227986,296.469942 185.00823,297.059215 184.749538,297.619972 L184.547898,298.035274 L184.437,298.244 L184.419204,298.492135 C184.319252,299.690822 184.094616,300.83531 183.684731,301.9782 L183.522223,302.406812 L183.36053,302.792943 C182.884366,303.880638 182.249483,304.884099 181.47829,305.763968 L181.169,306.101 L181.157835,306.129853 C180.421643,307.742987 179.307063,309.190145 177.83732,310.345918 L177.516947,310.589078 L177.225277,310.796004 C174.864627,312.417938 172.323134,313 169.614707,313 C165.326657,313 161.958718,310.960098 159.319247,307.856775 C157.798245,306.068477 156.480168,303.861422 155.227682,301.163669 L154.907085,300.46002 L154.841634,300.30013 C150.287558,289.174888 148.789627,276.699919 150.26215,262.965668 C151.006841,256.267626 151.030863,250.922699 150.412907,247.02935 L150.348974,246.644857 C149.33646,240.826532 149.297517,234.372703 150.173703,227.306944 L150.303665,226.29304 L150.363492,225.757128 L150.421097,225.151427 L150.512089,223.987653 L150.580288,222.918584 L150.644328,221.727573 L150.704138,220.415327 L150.798418,217.829307 L150.879153,214.877972 L150.93729,212.060373 L150.998489,207.894544 L151.027043,205.055794 L151.054183,200.780815 L151.066007,196.158419 L151.060143,190.229841 L151.031368,183.546405 L150.970218,175.274249 L150.892032,167.485774 L150.851484,163.991638 L150.717,155.804 L149.839959,156.123648 L148.938846,156.461184 L148.566568,156.603466 L147.792674,156.90761 L146.728106,157.338815 L145.780866,157.73883 L145.215559,157.987525 L144.703903,158.221377 L144.541,158.298 L144.398423,158.82096 C143.808466,160.900522 143.075356,162.713103 142.086567,164.318365 L141.833978,164.715396 L141.570345,165.103995 C139.2807,168.372876 135.815209,170.583512 131.472603,170.583512 C127.768561,170.583512 124.581207,169.144953 120.361282,166.13732 L119.605555,165.590247 L118.826499,165.010439 C118.694607,164.911067 118.561664,164.810325 118.427631,164.708209 L117.610033,164.078999 C117.471481,163.971373 117.331759,163.862368 117.19083,163.751978 L116.344643,163.082684 C116.207939,162.97343 116.073384,162.865303 115.940955,162.758277 L115.171709,162.129078 C114.923677,161.923589 114.683968,161.722267 114.4524,161.524882 L113.781942,160.944307 C113.027814,160.280212 112.371206,159.661522 111.804357,159.078365 C110.848016,158.094511 110.069425,157.146195 109.411525,156.042552 C108.620477,154.71555 108.03202,153.307533 107.805075,151.796385 L107.755962,151.416436 L107.737,151.221 L107.634,151.057 L107.283738,150.524335 L106.825833,149.808312 L106.360786,149.061864 C106.28268,148.934917 106.204275,148.8067 106.125568,148.677211 L105.649714,147.885007 L105.166591,147.062219 L104.676151,146.208784 L104.178344,145.324638 C104.09476,145.174717 104.010866,145.023514 103.926663,144.871028 L103.417711,143.940696 L102.901268,142.979493 L102.377283,141.987355 L101.845707,140.96422 L101.306489,139.910023 L100.759579,138.824701 L100.204929,137.708189 L99.6424869,136.560425 L99.0722041,135.381344 L98.2019692,133.553864 L97.6118658,132.296213 L97.013747,131.007022 L96.4075628,129.686227 L95.4830548,127.645639 L94.8564889,126.245557 L94.2216831,124.813649 L93.2539155,122.605972 L92.2673275,120.326326 L91.2428479,117.930054 L90.1998665,115.460776 L89.5259252,113.847851 L88.5470676,111.478242 L87.9158565,109.931623 L87.3017268,108.411447 L86.7046724,106.917668 L86.1246873,105.450242 L85.5617654,104.009123 L85.0159005,102.594266 L84.2290719,100.521122 L83.7258231,99.1717212 L83.23961,97.8484241 L82.7704266,96.5511852 L82.0985689,94.654087 L81.671933,93.4217955 L81.2623056,92.2154038 L80.8696804,91.0348666 C80.8056594,90.8402624 80.7423466,90.6467336 80.6797418,90.4542792 L80.3126087,89.3124389 L79.9624626,88.1963398 L79.6292975,87.1059369 L79.3131073,86.0411847 L79.0138859,85.002038 L78.7316272,83.9884516 C78.6859973,83.8216481 78.641074,83.6559076 78.596857,83.4912294 L78.4170761,82.8133506 L78.3750957,82.6245565 C77.1465857,77.0997107 78.9672159,71.8066366 83.1011481,67.950707 L83.2668705,67.7978219 L83.6190984,67.4828263 C83.6801272,67.4292884 83.7423229,67.3752268 83.8056932,67.3206346 L84.200068,66.9866611 L84.6229877,66.6396302 L85.0748098,66.2792178 L85.5558919,65.9050996 L86.0665915,65.5169513 L86.8889558,64.9077132 L87.7799707,64.2650836 L88.7408427,63.587968 L89.4208295,63.1168584 L90.5008118,62.3798343 L92.0546691,61.3387621 L93.7412979,60.2285993 L95.5635585,59.0467521 L96.1486649,58.6703916 L96.8931853,58.2207894 L98.1426113,57.4799463 L99.3655874,56.7726601 C104.810088,53.6653818 109.463729,51.5775237 113.49602,50.5108184 L114.194167,50.3322128 C114.313559,50.3026557 114.434472,50.2732027 114.55691,50.2438525 L115.309873,50.0689704 L116.099653,49.8964776 L116.926469,49.7262998 L117.790539,49.5583626 L118.692081,49.3925916 L119.631314,49.2289124 L120.608457,49.0672506 L121.623727,48.9075319 L122.677343,48.7496818 L123.769524,48.5936261 L125.48058,48.3627439 L126.670127,48.2108484 L128.528257,47.985858 L129.816535,47.8376578 L131.144688,47.6908055 L133.09,47.485 L152.288,45.009 L152.473,33.001 L152.478973,30.1177874 L152.506791,26.3237722 L152.525933,24.8272481 L152.567685,22.5035694 L152.598744,21.2107485 L152.660713,19.2231909 L152.719633,17.7820516 L152.769368,16.787171 L152.823923,15.8653479 L152.883358,15.0160111 L152.947732,14.2385896 L152.993422,13.7599795 L153.017106,13.5325123 C153.442398,9.56560481 154.487295,5.80702538 156.151469,2.30480963 L156.297,2.004 L156.390302,1.78468598 C157.224507,-0.159765904 158.010434,-1.77518581 158.799335,-3.12033139 L159.014603,-3.4805324 L159.213642,-3.80135941 C159.94335,-4.95601045 160.71773,-5.9585585 161.674478,-6.86690208 C163.627556,-8.72116893 166.052117,-10 169.290094,-10 Z M152.326,77.816 L151.595711,77.8455385 C146.298975,78.0791915 140.558354,78.8520109 134.378178,80.1755082 C126.56923,81.8478103 120.802359,83.8883841 117.172751,86.1111556 L116.875233,86.2968043 L115.089,87.432 L115.277884,88.0409089 L115.517999,88.7922355 L115.781619,89.5922391 L116.068681,90.4405687 L116.543091,91.8029064 L117.069889,93.2720029 L117.695328,94.9717039 L117.855109,95.4442605 L118.112502,95.9587265 L118.359498,96.6352869 L118.538216,97.0926315 L118.758437,97.6234489 L119.019849,98.2268779 L119.216853,98.6690783 L119.664998,99.648125 L120.32573,101.046763 L120.933855,102.303048 L121.611879,103.679232 L122.55658,105.56496 L123.83083,108.065299 L124.823016,109.988702 L125.105295,111.117116 C125.140782,111.258976 125.208604,111.43972 125.321223,111.664817 C125.617089,112.256181 125.895688,112.771589 126.15016,113.208043 L126.218,113.322 L126.74911,113.275851 L127.425478,113.208136 L128.174388,113.125222 L128.973007,113.029251 L129.821099,112.920226 L130.718431,112.798148 L131.664767,112.66302 L133.175641,112.435865 L134.243461,112.268122 L135.935463,111.992057 L137.382432,111.747503 L138.535472,111.616799 L139.342526,111.51924 L140.093353,111.422746 L140.787368,111.327477 L141.423986,111.233591 L141.823,111.17 L147.270913,110.03537 L150.566167,109.328528 L151.676,109.084 L151.766011,106.902049 L151.8572,104.165136 L151.942281,101.035221 L152.021193,97.5132629 L152.082198,94.2795107 L152.149645,90.0412927 L152.326,77.816 Z M198.536,76.47 L198.458021,77.1736676 L198.38069,77.9314958 L198.305362,78.7356015 L198.196161,80.0290732 L198.125911,80.9499582 L198.057719,81.9179893 L197.959328,83.4589775 L197.865658,85.1074402 L197.776765,86.8642148 L197.640333,89.2007238 L197.458249,92.1648586 L197.230372,95.6266101 L197.093505,97.5736255 L196.956537,99.4229678 L196.819471,101.174517 L196.682308,102.828153 L196.574,104.051 L197.212403,104.234041 L197.751597,104.379751 L198.244233,104.504917 L198.688778,104.609842 L199.0837,104.694832 L199.427467,104.76019 L199.718545,104.80622 C199.850657,104.824455 199.962436,104.835555 200.053021,104.839693 L200.128391,104.841542 C203.961942,104.841542 207.850961,106.247331 212.562832,108.829648 C214.64178,109.969005 216.34749,111.069921 217.751236,112.236699 L218.227201,112.644987 L218.444,112.84 L218.463583,112.82761 C219.025373,112.433742 219.577252,111.933486 220.128621,111.308279 L220.364918,111.032629 L220.655436,110.684226 L220.976305,110.363557 C223.460128,107.881283 225.289388,105.377555 226.514208,102.85294 L226.745842,102.377787 L227.197131,101.467 C227.271117,101.319503 227.344522,101.174127 227.417398,101.030827 L227.848699,100.195578 C227.990618,99.9252257 228.130825,99.6628171 228.269726,99.4079931 L228.682918,98.6659161 C230.11823,96.1457707 231.454441,94.422226 233.162458,93.0793595 L233.34,92.943 L233.50303,92.6472248 L233.720219,92.2268776 L233.953015,91.7513968 L234.200465,91.2217575 L234.461616,90.6389353 C234.50623,90.5374205 234.551375,90.4337304 234.597032,90.3278853 L234.876947,89.6671171 L235.021208,89.3176427 L235.222177,88.8222191 L235.596183,87.8731201 C235.655413,87.7196157 235.71309,87.568464 235.769214,87.4196852 L236.08732,86.5556461 C236.13723,86.4164387 236.185586,86.2796441 236.232388,86.1452825 L236.346,85.812 L236.098951,85.7250063 C232.532979,84.4829076 229.194978,83.4245657 226.089358,82.5489582 L224.672511,82.1578032 C221.171725,81.2123351 217.981224,80.509943 215.10778,80.0490563 L214.391469,79.9369107 L212.972069,79.6960481 L211.601324,79.4543509 C211.376905,79.4139917 211.154503,79.3735926 210.93411,79.3331511 L209.635831,79.0899726 L208.385522,78.8456535 C207.976716,78.7640102 207.57586,78.6821563 207.182908,78.6000716 L206.027716,78.3531045 C205.839121,78.3118211 205.65249,78.2704748 205.467818,78.2290632 L204.383246,77.9797889 C204.206387,77.9381056 204.031475,77.8963519 203.858505,77.8545252 L202.843938,77.6026682 C202.678712,77.5605393 202.515416,77.5183322 202.354045,77.4760444 L201.408867,77.2213297 L200.953515,77.0932082 C200.676982,77.0142479 200.410501,76.9402547 200.15431,76.8712163 L199.416844,76.6789536 C199.299157,76.6493832 199.184102,76.6210485 199.071709,76.5939479 L198.536,76.47 Z" id="中" fill="#000000" fill-rule="nonzero"></path>
    </g>
</svg>