<?xml version="1.0" encoding="UTF-8"?>
<svg width="1000px" height="1000px" viewBox="0 0 1000 1000" version="1.1" xmlns="http://www.w3.org/2000/svg" xmlns:xlink="http://www.w3.org/1999/xlink">
    <title>dao_string</title>
    <g id="dao_string" stroke="none" stroke-width="1" fill="none" fill-rule="evenodd">
        <g id="至" transform="translate(0.000000, 136.000000)" fill="#000000" fill-rule="nonzero">
            <path d="M564.766839,36.2700229 C641.335636,31.4340198 681.635003,27.0816171 685.66494,23.2128146 C689.694876,19.3440122 703.463827,16.2006102 726.97179,13.7826087 C750.479754,11.3646072 763.912877,8.46300534 767.271157,5.0778032 C770.629438,1.69260107 788.092497,0 819.660334,0 C851.228171,0 877.42276,6.28680397 898.244099,18.8604119 C919.065438,31.4340198 931.826905,37.7208238 936.528497,37.7208238 C941.23009,37.7208238 952.984072,47.3928299 971.790443,66.7368421 C990.596814,85.1136537 1000,100.830664 1000,113.887872 C1000,126.94508 991.268471,141.694889 973.805412,158.1373 C952.312416,178.448513 926.789484,188.845919 897.236615,189.329519 C867.683746,189.81312 839.474189,180.382914 812.607945,161.038902 C787.085012,142.66209 753.838035,131.297483 712.867012,126.94508 C671.895989,122.592677 611.782767,122.834477 532.527346,127.670481 C447.898676,131.539283 404.912685,134.924485 403.569372,137.826087 C403.569372,137.826087 404.576857,138.551487 406.591825,140.002288 C408.606793,141.453089 412.63673,143.14569 418.681635,145.080092 C424.72654,147.014493 430.435617,149.432494 435.808866,152.334096 C459.988486,161.038902 478.794857,175.546911 492.227979,195.858124 C501.631165,209.398932 506.332758,218.345538 506.332758,222.697941 C506.332758,227.050343 502.302821,235.029748 494.242948,246.636156 C483.49645,262.111365 463.682595,280.246377 434.801382,301.04119 C405.920169,321.836003 380.061409,344.081617 357.225101,367.778032 C334.388793,391.474447 313.567453,411.060259 294.761082,426.535469 L264.536557,452.649886 L329.015544,446.846682 C372.001535,444.912281 415.659182,440.076278 459.988486,432.338673 C493.571291,425.568268 531.85569,415.170862 574.841681,401.146453 C617.827672,387.122044 639.320668,378.175439 639.320668,374.306636 C639.320668,371.405034 635.290731,360.282227 627.230858,340.938215 C619.170984,321.594203 616.820188,310.713196 620.178469,308.295195 C623.536749,305.877193 621.857609,301.28299 615.141048,294.512586 C609.767799,291.610984 607.752831,288.951182 609.096143,286.533181 C610.439455,284.115179 616.48436,281.938978 627.230858,280.004577 C691.709845,261.627765 767.606985,280.488177 854.92228,336.585812 C897.908271,363.667429 925.110344,383.495042 936.528497,396.06865 C947.946651,408.642258 952.984072,424.842868 951.64076,444.670481 C950.297448,464.498093 944.588371,481.907704 934.513529,496.899314 C924.438687,511.890923 906.6398,524.222731 881.116868,533.894737 C855.593936,543.566743 836.115909,545.984744 822.682786,541.148741 C809.249664,536.312738 793.801574,532.443936 776.338515,529.542334 C756.188831,523.73913 732.680867,498.108314 705.814623,452.649886 C696.411437,434.273074 688.015736,423.150267 680.627519,419.281465 C673.239301,415.412662 645.701401,426.535469 598.013817,452.649886 C550.326233,478.764302 517.079255,495.690313 498.272884,503.427918 L468.048359,515.034325 C385.210772,535.667938 305.283695,558.880753 228.267127,584.672769 C190.654385,597.246377 171.848014,604.983982 171.848014,607.885584 C171.848014,613.688787 162.109,619.491991 142.630973,625.295195 C123.152946,631.098398 104.682403,634 87.2193437,634 C64.3830359,634 46.2483209,627.713196 32.8151986,615.139588 C19.3820764,602.56598 12.6655153,589.992372 12.6655153,577.418764 C12.6655153,564.845156 9.97889081,557.107551 4.60564191,554.20595 C-0.767606985,551.304348 -1.4392631,545.259344 2.59067358,536.070938 C6.62061025,526.882532 8.63557858,508.263921 8.63557858,480.215103 L10.6505469,435.240275 L48.9349453,427.98627 C73.1145653,424.117468 95.9508732,413.478261 117.443869,396.06865 L167.818077,355.446224 C196.027634,332.23341 236.662829,294.270786 289.723661,241.558352 C342.784494,188.845919 372.001535,158.1373 377.374784,149.432494 C381.404721,142.66209 378.04644,139.276888 367.299942,139.276888 C361.926694,139.276888 349.165227,140.244088 329.015544,142.17849 C292.746114,145.080092 259.163308,151.850496 228.267127,162.489703 C197.370946,173.128909 180.243715,178.448513 176.885435,178.448513 C173.527154,178.448513 167.146421,181.350114 157.743235,187.153318 C138.936864,201.661327 111.398964,199.726926 75.1295337,181.350114 C29.4569181,159.1045 6.62061025,141.211289 6.62061025,127.670481 C6.62061025,117.031274 16.3596239,108.326468 35.8376511,101.556064 C55.3156784,94.7856598 90.5776243,87.5316552 141.623489,79.7940503 C258.491652,62.3844394 399.539436,47.8764302 564.766839,36.2700229 Z"></path>
        </g>
    </g>
</svg>