<?xml version="1.0" encoding="UTF-8"?>
<svg width="1000px" height="1000px" viewBox="0 0 1000 1000" version="1.1" xmlns="http://www.w3.org/2000/svg" xmlns:xlink="http://www.w3.org/1999/xlink">
    <title>ding_char</title>
    <g id="ding_char" stroke="none" stroke-width="1" fill="none" fill-rule="evenodd">
        <path d="M395,373 C395,371 400.666667,360.333333 412,341 C423.333333,321.666667 430,310 432,306 C434,302 437.833333,295.333333 443.5,286 C449.166667,276.666667 454.666667,266.666667 460,256 C465.333333,245.333333 470,237.666667 474,233 C478,228.333333 482,226 486,226 C490,226 497,231.166667 507,241.5 C517,251.833333 526.333333,262.666667 535,274 L546,288 L533,316 C523.666667,334.666667 519.666667,345.666667 521,349 C522.333333,352.333333 521.666667,356 519,360 C515.666667,363.333333 514.833333,366.5 516.5,369.5 C518.166667,372.5 520.666667,374 524,374 C528,374 540,381 560,395 C580,409 595.666667,421.333333 607,432 C629.666667,453.333333 665.333333,481.333333 714,516 C777.333333,560 810.333333,582 813,582 C814.333333,582 826.666667,589 850,603 C873.333333,617 889,626.666667 897,632 C915.666667,646 936.333333,655 959,659 C967.666667,661.666667 983.833333,666.333333 1007.5,673 C1031.16667,679.666667 1043,685.5 1043,690.5 C1043,695.5 1041,698 1037,698 C1033,698 1031,700.666667 1031,706 C1031,710.666667 1026.66667,715.833333 1018,721.5 C1009.33333,727.166667 1001.33333,730 994,730 C978,730 952.333333,738.666667 917,756 C899.666667,764 888,767.833333 882,767.5 C876,767.166667 863,761.666667 843,751 C808.333333,733.666667 782.333333,719.166667 765,707.5 C747.666667,695.833333 730.666667,682 714,666 C682.666667,634 658.333333,605 641,579 C631.666667,565.666667 621.166667,555.166667 609.5,547.5 C597.833333,539.833333 586.166667,530.333333 574.5,519 C562.833333,507.666667 546.166667,493 524.5,475 C502.833333,457 488.833333,443.666667 482.5,435 C476.166667,426.333333 472.166667,422 470.5,422 C468.833333,422 465,428.333333 459,441 C447.666667,465.666667 434,490 418,514 C410,525.333333 406,531.333333 406,532 C406,535.333333 396.5,548.333333 377.5,571 C358.5,593.666667 347.666667,605 345,605 C339,605.666667 310.666667,633 260,687 C240,707.666667 228.166667,718 224.5,718 C220.833333,718 219,719 219,721 C219,723 210.5,729.5 193.5,740.5 C176.5,751.5 165.5,757.666667 160.5,759 C155.5,760.333333 147.666667,763 137,767 L123,774 L125,762 C125,754.666667 127.833333,747.666667 133.5,741 C139.166667,734.333333 156.333333,716.333333 185,687 C229.666667,643 257,610.333333 267,589 C269,582.333333 278.666667,566 296,540 C362,438 395,382.333333 395,373 Z" id="Combined-Shape" fill="#000000" fill-rule="nonzero"></path>
    </g>
</svg>