<?xml version="1.0" encoding="UTF-8"?>
<svg width="1000px" height="1000px" viewBox="0 0 1000 1000" version="1.1" xmlns="http://www.w3.org/2000/svg" xmlns:xlink="http://www.w3.org/1999/xlink">
    <title>dingyin_char</title>
    <g id="dingyin_char" stroke="none" stroke-width="1" fill="none" fill-rule="evenodd">
        <path d="M732.802569,500.912476 C737.576531,500.912476 755.937923,508.536866 787.886746,523.785646 C819.835569,539.034426 839.115031,552.040738 845.725132,562.804583 C855.273057,580.744324 856.558354,597.114338 849.581025,611.914624 C842.603696,626.714911 828.098196,637.703002 806.064525,644.878899 C793.578778,649.363834 785.316151,651.382055 781.276645,650.933561 C777.237139,650.485068 771.545107,648.018353 764.20055,643.533418 C753.91817,634.563548 742.534107,630.078612 730.04836,630.078612 C717.562613,630.078612 700.670132,626.042171 679.370917,617.969287 C658.071702,609.896404 618.594708,605.859962 560.939936,605.859962 C552.469405,605.859962 544.4388,606.189106 536.855108,606.762057 C540.855108,608.856693 544.473053,611.203655 547.71055,613.802668 L567.740607,628.66042 C574.417293,633.763083 575.75263,639.766215 571.746619,646.669817 C563.066927,658.976238 557.05791,682.238376 553.719567,716.456229 C551.716561,742.569855 549.212804,764.406248 546.208296,781.96541 C543.203787,799.524572 541.033864,815.958147 539.698527,831.266134 C536.360184,869.085867 532.020339,904.204191 526.67899,936.621105 C525.343653,944.425177 523.340647,950.428309 520.669973,954.630502 C517.999299,958.832694 515.996293,964.235513 514.660956,970.838959 C512.65795,976.541934 509.653442,981.494519 505.64743,985.696711 C501.641419,989.898904 497.301573,992 492.627893,992 C485.951207,992 477.939184,988.548199 468.591824,981.644597 C463.250476,978.342874 460.245967,971.58935 459.578299,961.384025 C454.23695,907.655992 453.569282,839.520441 457.575293,756.977372 C460.913636,681.037749 463.250476,635.78914 464.585813,621.231544 L464.622499,620.816395 C459.065209,622.495131 454.623514,623.890369 451.322423,624.69669 C436.633309,628.284638 414.966866,636.357522 386.323093,648.915341 C354.007043,663.267133 322.792676,680.758381 292.679992,701.389083 C262.567308,722.019786 244.205916,738.165553 237.595815,749.826384 C230.985713,762.384203 224.375612,769.335853 217.765511,770.681334 C211.155409,772.026814 201.974713,769.111606 190.223422,761.93571 C175.534308,753.862826 166.72084,747.808164 163.783017,743.771722 C160.845194,739.73528 153.867865,733.232124 142.85103,724.262253 C131.834194,715.292383 125.591321,709.91046 124.122409,708.116486 C123.387954,707.219499 125.958549,703.407304 131.834194,696.679901 C137.70984,689.952498 145.238011,682.776602 154.418707,675.152212 C163.599403,667.527822 171.86203,661.921653 179.206587,658.333705 C199.771346,646.672873 235.392448,631.872586 286.069891,613.932845 C336.747334,595.993104 374.93903,584.780766 400.64498,580.295831 C413.130726,576.707882 423.963948,573.344181 433.144644,570.204726 C442.32534,567.065272 540.55879,540.379907 619.880005,535.894971 C644.851499,534.997984 661.927594,533.428257 671.10829,531.185789 C680.288987,528.943322 690.387752,524.23414 701.404588,517.058243 C717.562613,506.294398 728.028607,500.912476 732.802569,500.912476 Z M477,9 C481,9 488,14.1666667 498,24.5 C508,34.8333333 517.333333,45.6666667 526,57 L537,71 L524,99 C514.666667,117.666667 510.666667,128.666667 512,132 C513.333333,135.333333 512.666667,139 510,143 C506.666667,146.333333 505.833333,149.5 507.5,152.5 C509.166667,155.5 511.666667,157 515,157 C519,157 531,164 551,178 C571,192 586.666667,204.333333 598,215 C620.666667,236.333333 656.333333,264.333333 705,299 C768.333333,343 801.333333,365 804,365 C805.333333,365 817.666667,372 841,386 C864.333333,400 880,409.666667 888,415 C906.666667,429 927.333333,438 950,442 C958.666667,444.666667 974.833333,449.333333 998.5,456 C1022.16667,462.666667 1034,468.5 1034,473.5 C1034,478.5 1032,481 1028,481 C1024,481 1022,483.666667 1022,489 C1022,493.666667 1017.66667,498.833333 1009,504.5 C1000.33333,510.166667 992.333333,513 985,513 C969,513 943.333333,521.666667 908,539 C890.666667,547 879,550.833333 873,550.5 C867,550.166667 854,544.666667 834,534 C799.333333,516.666667 773.333333,502.166667 756,490.5 C738.666667,478.833333 721.666667,465 705,449 C673.666667,417 649.333333,388 632,362 C622.666667,348.666667 612.166667,338.166667 600.5,330.5 C588.833333,322.833333 577.166667,313.333333 565.5,302 C553.833333,290.666667 537.166667,276 515.5,258 C493.833333,240 479.833333,226.666667 473.5,218 C467.166667,209.333333 463.166667,205 461.5,205 C459.833333,205 456,211.333333 450,224 C438.666667,248.666667 425,273 409,297 C405.16,302.44 402.2416,306.6512 400.2448,309.6336 L399.7648,310.3536 C397.9216,313.1312 397,314.68 397,315 C397,318.333333 387.5,331.333333 368.5,354 C349.5,376.666667 338.666667,388 336,388 C330,388.666667 301.666667,416 251,470 C231,490.666667 219.166667,501 215.5,501 C211.833333,501 210,502 210,504 C210,506 201.5,512.5 184.5,523.5 C167.5,534.5 156.5,540.666667 151.5,542 C146.5,543.333333 138.666667,546 128,550 L114,557 L116,545 C116,537.666667 118.833333,530.666667 124.5,524 C130.166667,517.333333 147.333333,499.333333 176,470 C220.666667,426 248,393.333333 258,372 C260,365.333333 269.666667,349 287,323 C353,221 386,165.333333 386,156 C386,154 391.666667,143.333333 403,124 C414.333333,104.666667 421,93 423,89 C423.875,87.25 425.100911,84.9895833 426.677734,82.21875 L427.137804,81.4131944 C429.094546,77.9988426 431.548611,73.8611111 434.5,69 C440.166667,59.6666667 445.666667,49.6666667 451,39 C456.333333,28.3333333 461,20.6666667 465,16 C469,11.3333333 473,9 477,9 Z M528.440271,366 C537.988195,366 553.595379,369.139455 575.261822,375.418364 C596.928265,381.697273 611.066537,387.527689 617.676638,392.909612 C623.552284,396.49756 627.224562,400.309755 628.693474,404.346197 C630.162385,408.382638 630.896841,415.782782 630.896841,426.546626 C630.896841,436.413484 629.978771,443.365134 628.142632,447.401575 C626.306493,451.438017 621.348917,456.81994 613.269904,463.547342 C605.190891,470.274745 598.397176,474.311187 592.888758,475.656668 C587.380341,477.002148 577.648803,476.777902 563.694144,474.983927 C542.394929,473.189953 526.604132,474.08694 516.321752,477.674889 C460.503119,498.305591 429.288752,514.451358 422.67865,526.11219 C421.209739,527.906164 416.803005,531.494112 409.458448,536.876034 C392.565967,546.742892 372.735663,540.015489 349.967536,516.693826 C337.48179,504.136007 324.261587,492.475175 310.306929,481.71133 L287.171574,464.220083 L298.18841,450.765277 C306.267422,441.795406 321.323764,433.274029 343.357435,425.201146 C430.757663,392.909612 479.598967,376.763845 489.881347,376.763845 C498.694815,376.763845 505.48853,374.969871 510.262492,371.381922 C515.036454,367.793974 521.095714,366 528.440271,366 Z" id="Combined-Shape" fill="#000000" fill-rule="nonzero"></path>
    </g>
</svg>