<?xml version="1.0" encoding="UTF-8"?>
<svg width="375px" height="305px" viewBox="0 0 375 305" version="1.1" xmlns="http://www.w3.org/2000/svg" xmlns:xlink="http://www.w3.org/1999/xlink">
    <title>f_index_s</title>
    <g id="f_index_s" stroke="none" stroke-width="1" fill="none" fill-rule="evenodd">
        <g id="亻-copy" transform="translate(71.500000, -5.533549)" fill="#000000" fill-rule="nonzero">
            <path d="M110.323628,113.947998 C112.695033,112.931056 114.908329,113.071225 118.162051,114.123549 L118.827023,114.346103 C119.053541,114.424293 119.285038,114.506465 119.52187,114.592546 L120.248724,114.862442 L121.009714,115.155355 L121.606,115.390549 L121.872893,115.478305 C128.647471,117.74212 133.686259,121.390742 136.667639,126.495896 L136.88738,126.881514 L137.094418,127.263227 C139.787539,132.353365 141.01421,139.308776 141.01421,148.250134 L141.008126,149.952048 L140.997259,151.026916 L140.97062,152.550312 L140.931427,153.967862 L140.898241,154.854561 L140.859353,155.694922 L140.814714,156.489224 L140.764274,157.23775 L140.707985,157.940781 C140.698113,158.054177 140.687995,158.165689 140.677631,158.275323 C140.545899,159.668774 140.3708,160.820131 140.118852,161.804534 C139.856184,162.830824 139.543086,163.726631 139.061429,164.519602 L138.872676,164.812199 L138.793,164.922549 L138.703193,165.410452 L138.614031,165.94996 L138.529674,166.510087 L138.407265,167.408228 L138.325753,168.062146 L138.203697,169.125384 L138.081983,170.287006 L137.960708,171.546507 L137.83997,172.903381 L137.679989,174.863144 L137.560883,176.445259 L137.481952,177.553195 L135.379,208.055549 L135.282113,210.396659 L135.193399,212.792426 C135.179647,213.187888 135.166411,213.581436 135.153692,213.973075 L135.083579,216.300031 L135.025865,218.58136 L134.980548,220.817259 C134.960989,221.923885 134.946079,223.013548 134.935817,224.086361 L134.92149,226.209552 C134.917425,227.259946 134.918008,228.293564 134.923238,229.310516 L134.939894,231.322232 C134.947512,231.985419 134.957194,232.641232 134.968942,233.289703 L135.01038,235.213129 L135.034671,236.120785 L135.193101,246.86752 L135.296425,255.812112 L135.351159,262.402361 L135.383047,269.216026 L135.387175,272.726868 L135.379312,276.681165 L135.362075,279.760903 L135.335124,282.644801 L135.288183,285.950439 L135.241435,288.309973 L135.200377,289.964006 L135.154126,291.519364 L135.084297,293.440342 L135.005037,295.18749 L134.939335,296.384321 L134.868217,297.484268 L134.817772,298.163931 L134.782296,298.599439 L134.707226,299.421107 C134.694223,299.552682 134.680964,299.681608 134.667431,299.807943 L134.582822,300.535305 C134.509359,301.116275 134.428228,301.635269 134.33734,302.099314 C134.193176,302.835374 134.018456,303.484882 133.757771,304.129501 C133.387174,305.04591 132.931631,305.86743 132.261644,306.560077 L132.030195,306.78614 L131.942,306.863549 L131.940828,306.874256 C131.134384,310.142342 128.63686,312.62855 125.013408,314.642823 L124.64733,314.842689 L124.326178,315.012327 C120.48752,317.009658 116.47319,318.033549 112.357904,318.033549 C108.343697,318.033549 104.512418,317.172936 100.935697,315.461277 C96.5290414,313.352449 93.6099934,310.129746 93.2375953,305.800246 L93.212,305.441549 L93.1517469,305.253094 L92.9873276,304.790149 L92.8294023,304.376373 L92.6279195,303.873463 L92.3972209,303.32027 L92.1374614,302.717355 L91.8487957,302.065277 L91.5313783,301.364598 L91.094,300.421549 L91.0012202,300.255734 C86.7027839,292.424505 85.9753884,282.484015 88.4923863,270.60684 L88.6328927,269.957075 L88.8887513,268.808284 L89.1044251,267.79949 L89.3171847,266.766146 L89.5270274,265.708258 L89.8363168,264.075417 L90.1390285,262.387381 L90.3371777,261.231369 L90.5323968,260.050839 L90.7246833,258.845796 L90.9140345,257.616245 L91.1004477,256.362193 L91.3745531,254.435184 L91.6420332,252.453075 L91.8166682,251.101067 L91.9883521,249.724582 L92.1570821,248.323627 L92.404633,246.176324 L92.645523,243.973992 L92.8024113,242.475207 L93.0321799,240.181199 L93.2552638,237.832209 L93.4002683,236.235679 L93.6121912,233.795092 L93.8174055,231.299571 L93.9504838,229.605379 L94.1444975,227.01834 L94.2701004,225.263153 L94.5123192,221.679617 L94.6861093,218.92797 L94.8531403,216.121488 L95.0134034,213.26019 L95.2165442,209.359888 L95.407616,205.362209 L95.5865977,201.267194 L95.7534682,197.074886 L95.9082063,192.785328 L96.0162853,189.504363 L96.5409103,177.273538 L96.9678907,167.946774 L97.3377351,160.433429 L97.6564878,154.476966 L97.8569702,151.027368 L98.0478753,147.994383 L98.1847887,145.992793 L98.3163471,144.225135 C98.9593019,135.990247 100.720469,128.680168 103.642031,122.30198 L103.83086,121.895309 L104.200765,121.116452 L104.5623,120.382453 C106.293298,116.941029 107.813762,115.024317 110.323628,113.947998 Z M139.370834,0.31221062 L139.618875,0.247401052 L139.944366,0.171619104 L140.263458,0.109393855 C140.738919,0.0263233347 141.203728,-0.0103194762 141.707139,0.00249776148 L142.049006,0.0184032779 L142.405553,0.0491632837 C142.52721,0.0619145517 142.651853,0.0771748446 142.780025,0.0949774391 L143.175664,0.156045404 C143.243547,0.167505642 143.312448,0.179609773 143.382434,0.192361959 L143.815904,0.276685002 L144.278649,0.376761005 L144.773911,0.492789629 L145.304934,0.624970533 L145.874962,0.773503378 L146.810229,1.02739929 L148.830382,1.59816053 L149.045806,1.67654462 C152.307443,2.86332483 156.126678,5.49205323 160.858084,9.6334682 L161.785325,10.4539403 C161.941796,10.5938401 162.099239,10.7353188 162.257667,10.8783786 C167.194151,15.3359966 171.306722,19.8937421 174.585739,24.5623857 L175.048498,25.2300904 L175.196954,25.447198 L175.327384,25.6755902 C176.504748,27.737247 177.278845,29.3638514 177.691581,30.8093167 C178.506914,33.6647373 177.814211,36.1775781 176.140931,39.095633 L175.951003,39.4215668 L175.756,39.7455487 L175.739168,39.781816 C173.796496,43.7907545 170.978268,46.7538428 167.316615,48.379731 L166.934816,48.5431443 L166.224,48.8225487 L166.162092,48.9467845 C165.700778,49.8362717 165.033716,50.771017 164.106655,51.8638775 L163.693267,52.3422559 L163.247093,52.8419694 L162.767185,53.3649923 L162.252594,53.9132988 L161.70237,54.488863 L160.808148,55.4076361 L159.828416,56.3988438 L158.526975,57.7071327 L157.657839,58.5995459 L157.130462,59.1529417 L156.645084,59.6725447 L155.996434,60.3875462 C155.929689,60.4626477 155.864725,60.5362916 155.80155,60.6084678 L155.44401,61.0238355 L155.129699,61.4035057 L154.781,61.8485487 L154.686607,62.133571 L154.614647,62.3257812 L154.534853,62.5205582 L154.446702,62.7185963 L154.349672,62.9205904 L154.243241,63.1272348 L154.064824,63.4474404 L153.932605,63.6687498 L153.789157,63.8971407 L153.551788,64.2545242 L153.286216,64.6317482 L152.885201,65.1696282 L152.426736,65.7525045 L152.174654,66.0625526 L151.622178,66.723342 L150.835615,67.6327912 L150.124499,68.4338928 L148.911586,69.7711391 L147.510655,71.2877683 L144.088332,74.9341914 L140.566462,78.6528894 L137.332144,82.039959 L131.801204,87.7837844 L124.317422,95.491343 L113.736343,106.308628 L108.785879,111.347 L107.753348,112.281648 L106.458495,113.421593 L104.940245,114.730561 L103.197169,116.209792 L100.157884,118.750592 L97.8464955,120.660901 L93.9480448,123.854125 L91.0594156,126.203254 L88.3737866,128.3285 L85.1434785,130.910464 L82.660782,132.916138 L80.2685008,134.868374 L78.5337076,136.297374 L76.8499082,137.696135 L74.6842663,139.513982 L73.1196779,140.841891 L71.6062765,142.139307 L70.625808,142.987272 L69.1978469,144.233696 L67.8212273,145.449422 L66.4960071,146.634375 L65.2222442,147.788477 L64,148.911651 L63.2138132,149.643215 L62.4505683,150.360976 L61.3487484,151.411689 L60.6429251,152.094845 L59.6273181,153.093544 L58.663516,154.060933 L58.0497905,154.688427 L57.1724588,155.603461 L56.6164339,156.195981 L56.0835192,156.774471 L55.5737319,157.33891 L55.0870893,157.889274 L54.6236084,158.42554 C54.5482927,158.513742 54.4739428,158.601355 54.400559,158.68838 C46.0909399,168.666062 37.6088203,176.737932 28.9342931,182.890092 L28.1451691,183.44409 L27.6623415,183.779594 L27.1271482,184.023013 C25.0950826,184.947248 23.0250359,185.908935 20.9170544,186.908072 L19.3289563,187.664446 C16.2998573,189.114038 13.720901,190.132674 11.5168,190.720796 C7.2229226,191.866535 3.0325097,191.025642 0.821125607,186.904057 L0.685507921,186.642175 L0,185.270315 L0,183.736718 C0,182.49675 0.310315665,181.223021 0.994513477,179.78129 L1.19043044,179.383825 C1.3272853,179.115937 1.47669094,178.842091 1.63902941,178.561482 L1.89228452,178.135394 C1.93612622,178.0635 1.98078817,177.991158 2.02627634,177.918356 L2.30916762,177.475914 C2.35798451,177.401219 2.40763955,177.326038 2.45813871,177.250359 L2.7713109,176.790202 C2.82521043,176.712479 2.87996602,176.634232 2.93558364,176.555449 L3.27968149,176.076215 L3.64475463,175.583507 L4.03108961,175.076719 L4.43897298,174.555247 L4.8686913,174.018486 L5.55483612,173.183351 L6.29172141,172.310411 L6.811645,171.706439 L7.35483629,171.084152 L8.21387698,170.115056 L9.12688184,169.101346 L10.094818,168.040981 L11.8327411,166.164479 L13.3378851,164.559527 L13.7304148,164.143249 C14.0119416,163.844978 14.2962247,163.540203 14.5832565,163.228929 L15.4525899,162.275612 C16.0376326,161.627075 16.633639,160.952559 17.2405477,160.252103 L18.1590795,159.181967 L19.0939185,158.072949 C19.5654071,157.508724 20.0429935,156.929928 20.5266519,156.336579 L21.5020567,155.130479 L22.493607,153.885596 C22.6602083,153.674885 22.8274804,153.462559 22.9954223,153.24862 L24.0111044,151.945616 L25.0428165,150.603901 L26.0905126,149.223502 L27.5879064,147.233478 L28.5352535,145.986255 L29.4624444,144.777085 L30.3695421,143.605915 L31.2566096,142.472693 L32.1237097,141.377367 L32.9709056,140.319884 L33.7982601,139.300192 L34.6058361,138.318238 L35.3936968,137.373971 L36.1619049,136.467336 L36.9105235,135.598283 L37.6396155,134.766759 C37.7595071,134.631296 37.8785878,134.497394 37.9968588,134.365053 L38.696779,133.589724 L39.185,133.058549 L49.651111,119.794518 L51.2580443,117.91142 L52.3367821,116.659304 L53.3565284,115.486452 L54.3176731,114.392496 L55.5087154,113.055979 L56.3346398,112.144682 L56.8533978,111.580323 L57.346804,111.050374 L58.0396315,110.319733 L58.4701638,109.875334 L58.794,109.546549 L59.1554543,109.152719 L59.6256347,108.624078 L60.1345384,108.036069 L60.6820519,107.388819 L61.2680613,106.682453 L62.1090936,105.648893 L63.0180917,104.510763 L63.7442809,103.58872 L65.3104424,101.569181 L67.0275571,99.3165432 L68.5731414,97.2620119 L70.9110088,94.1160089 L73.4506272,90.6568529 L76.5982382,86.3221346 L79.1170304,82.8226545 L81.3571122,79.6883937 L83.475055,76.7018627 L85.4705354,73.8636736 L87.3432301,71.1744383 L89.0928154,68.6347686 L90.4036276,66.7111313 L91.6352772,64.883921 L93.0632645,62.7359857 L94.1161928,61.1268815 L95.3202544,59.2525702 L96.1936229,57.8631582 L96.7961101,56.8854931 L97.3534861,55.9631696 L98.0263604,54.8197202 L98.4782053,54.0270411 L98.7542483,53.5295703 L99.1777477,52.7517765 L99.4951811,52.1904849 L99.8370627,51.6061501 L100.203449,50.9986528 C100.266559,50.8954665 100.330691,50.79131 100.395849,50.686181 L101.009961,49.7136936 L101.450201,49.035993 C101.525633,48.9210762 101.602096,48.8051745 101.679591,48.6882853 L102.156947,47.9750804 L102.659119,47.2380569 L103.186163,46.4770954 L104.023486,45.2905086 L104.612957,44.4691803 L105.227497,43.6234966 L106.196436,42.3090434 L106.873897,41.4019489 L107.576625,40.4700814 L108.304677,39.5133215 L109.444361,38.0312476 L110.641341,36.4924949 L112.847416,33.6795629 L114.10646,32.0576348 L115.514912,30.2189386 L116.271472,29.2168632 L116.961428,28.2909846 L117.584597,27.4415814 L118.140797,26.6689317 L118.487497,26.1776912 L118.936511,25.5254485 L119.187491,25.1490843 L119.42,24.7845487 L119.435235,24.7214992 C119.658576,23.7855355 120.068271,22.8536332 120.714833,21.7939161 L121.006581,21.3315418 C121.313125,20.8605731 121.664501,20.362668 122.064684,19.8274455 L122.481284,19.2793994 L122.931306,18.7041681 L123.415634,18.0994449 L124.208382,17.1320163 L125.393696,15.7173587 L126.503247,14.4043291 L127.666136,13.0118728 L128.401394,12.1207636 L129.444149,10.8401205 L130.099156,10.0238387 L131.021289,8.85586468 L131.595719,8.11498095 L132.137826,7.40441623 L132.89027,6.395617 L133.051,6.17554866 L133.427979,5.61413886 L133.854545,4.98891578 C133.923529,4.88897378 133.991514,4.79112797 134.058583,4.69532627 L134.450673,4.1446286 C136.044154,1.94878745 137.169551,0.965397646 139.131323,0.380533487 L139.370834,0.31221062 Z" id="亻"></path>
        </g>
    </g>
</svg>