<?xml version="1.0" encoding="UTF-8"?>
<svg width="1000px" height="1000px" viewBox="0 0 1000 1000" version="1.1" xmlns="http://www.w3.org/2000/svg" xmlns:xlink="http://www.w3.org/1999/xlink">
    <title>fan_char</title>
    <g id="fan_char" stroke="none" stroke-width="1" fill="none" fill-rule="evenodd">
        <path d="M778.168582,88.7726382 C821.297438,107.156517 842.90554,126.06516 842.992888,145.498565 C843.385583,159.408784 840.055205,182.875991 833.001754,215.900186 C825.948303,248.924382 821.189178,266.715027 818.724378,269.27212 C813.909285,272.31511 808.927938,288.871995 803.78034,318.942773 C798.632741,349.013552 789.149907,378.700892 775.331836,408.004793 C763.567856,432.952596 755.738442,451.460027 751.843594,463.527085 C765.431906,466.80476 784.329593,473.777584 808.53633,484.444352 C841.368266,498.911839 864.433739,511.844896 877.732751,523.243522 C889.369387,533.76533 900.174834,541.218278 910.149093,545.602365 C924.279293,554.370539 938.825087,569.714843 953.786475,591.635277 C958.773605,599.526634 961.474967,613.117303 961.890561,632.407286 C962.306155,651.697268 960.020387,667.041572 955.033258,678.440198 C939.240681,710.005624 931.344393,730.172424 931.344393,738.940598 C931.344393,744.201502 928.01964,748.585589 921.370134,752.092859 C914.720628,755.600128 907.655528,756.038537 900.174834,753.408085 C894.356516,751.65445 878.56394,738.502189 852.797104,713.951302 C827.030269,689.400416 814.146851,674.932929 814.146851,670.548842 C814.146851,668.795207 807.497345,662.219077 794.198333,650.820451 C775.081003,637.66819 751.807733,617.939799 724.378521,591.635277 C711.66716,578.22611 699.68478,567.636606 688.43138,559.866764 C677.190094,573.1964 664.342495,585.479172 649.889103,596.716748 C629.859854,612.289577 619.75935,621.629389 619.587592,624.736181 C619.415835,627.842974 614.880214,631.084127 605.980732,634.45964 C597.081249,637.835153 592.497918,641.939303 592.23074,646.772092 C592.001729,650.914483 574.678585,664.81878 540.261307,688.484983 C505.844029,712.151187 475.460677,731.144316 449.11125,745.46437 C420.411529,760.270322 406.004415,768.708896 405.88991,770.780091 C405.775405,772.851286 393.032839,777.447882 367.662212,784.569878 C342.291584,791.691874 325.407377,797.656589 317.009589,802.464024 C308.657992,807.906879 287.306991,816.78976 252.956585,829.112668 L251.911685,829.487143 C216.949038,842.004722 194.227263,848.493783 183.74636,848.954327 C170.915162,849.900768 158.776501,848.82714 147.330376,845.733441 C135.846083,843.330141 134.938115,838.740301 144.606471,831.963921 C149.421565,828.920931 156.66329,824.011245 166.331646,817.234866 C191.563178,802.122163 226.291309,783.339873 270.516038,760.887996 C387.779722,699.107096 466.912413,633.606735 507.91411,564.386914 C519.311055,547.356809 528.224117,533.228996 534.653294,522.003475 C551.018007,499.168785 567.090951,471.104982 582.872127,437.812067 C598.653302,404.519151 606.887406,381.659107 607.574437,369.231936 C608.2233,357.495163 614.192988,333.567621 625.483501,297.449309 C636.774014,261.330998 646.296301,215.170008 654.050362,158.966341 C661.804423,102.762674 671.017326,72.704572 681.689071,68.7920362 C699.488037,62.0410105 731.647873,68.7012112 778.168582,88.7726382 Z" id="Combined-Shape" fill="#000000" fill-rule="nonzero" transform="translate(549.958116, 457.765076) rotate(29.000000) translate(-549.958116, -457.765076) "></path>
    </g>
</svg>