<?xml version="1.0" encoding="UTF-8"?>
<svg width="1000px" height="1000px" viewBox="0 0 1000 1000" version="1.1" xmlns="http://www.w3.org/2000/svg" xmlns:xlink="http://www.w3.org/1999/xlink">
    <title>fu_string</title>
    <g id="fu_string" stroke="none" stroke-width="1" fill="none" fill-rule="evenodd">
        <g id="弗" transform="translate(0.000000, -62.000000)" fill="#000000" fill-rule="nonzero">
            <path d="M464.566712,97.1026731 C466.587666,65.4878493 470.629573,44.0349332 476.692434,32.7439247 C482.755295,21.4529162 486.797202,13.1728433 488.818156,7.90370595 C490.839109,2.63456865 493.365301,0 496.396732,0 C501.449116,0 514.837933,8.2800729 536.563185,24.8402187 C558.288436,41.4003645 569.151062,51.1859052 569.151062,54.1968408 C569.151062,57.9605103 571.677254,61.7241798 576.729638,65.4878493 C581.782022,69.2515188 581.529403,74.3324727 575.97178,80.7307108 C570.414158,87.128949 567.635346,98.231774 567.635346,114.039186 L566.119631,137.750304 L611.591088,134.363001 C711.628292,126.835662 775.28833,135.115735 802.571204,159.20322 C814.696926,170.494228 820.254548,180.84432 819.244071,190.253493 C818.233595,199.662667 809.644542,210.389125 793.476913,222.432868 C780.340714,231.465674 770.488566,239.933931 763.920466,247.837637 C757.352367,255.741343 749.015933,269.102369 738.911165,287.920717 C718.701629,326.310146 692.429232,351.526731 660.093974,363.570474 C632.811101,373.356015 616.643472,370.345079 611.591088,354.537667 C610.580611,350.021264 608.054419,347.198512 604.012512,346.069411 C599.970604,344.94031 591.381551,344.752126 578.245353,345.50486 C558.035817,346.257594 546.415334,347.763062 543.383903,350.021264 C541.362949,351.526731 539.341996,360.183171 537.321042,375.990583 C535.300089,391.797995 534.289612,406.288123 534.289612,419.460966 C534.289612,432.633809 535.300089,440.725699 537.321042,443.736634 C539.341996,443.736634 555.509625,441.290249 585.823929,436.397479 C616.138233,431.504708 669.693504,428.681956 746.489741,427.929222 L858.652667,427.929222 L908.671269,442.607533 C942.017004,452.393074 965.25797,461.802248 978.394169,470.835055 C1006.68752,488.900668 1007.19276,511.482685 979.909884,538.581106 C968.794639,550.624848 961.468682,557.77582 957.932013,560.034022 C954.395344,562.292224 949.090341,571.889581 942.017004,588.826094 C934.943666,605.762606 928.880805,617.994532 923.828421,625.521871 L898.061262,662.782199 C885.935541,680.095079 879.87268,690.44517 879.87268,693.832473 C879.87268,697.219775 876.84125,700.795261 870.778389,704.558931 C864.715528,708.3226 861.684097,712.839004 861.684097,718.108141 C861.684097,727.140948 837.937892,747.27658 790.445482,778.515036 C742.953073,809.753493 712.638768,824.996355 699.50257,824.243621 C690.408279,824.243621 681.819226,820.103584 673.735411,811.823512 C663.630643,801.285237 652.515398,791.123329 640.389677,781.337789 C628.263955,771.552248 620.685379,766.659478 617.653948,766.659478 C613.612041,766.659478 611.591088,765.15401 611.591088,762.143074 C611.591088,759.132139 608.812276,757.626671 603.254654,757.626671 C597.697031,757.626671 592.139409,752.16935 586.581787,741.254708 C581.024164,730.340067 580.771545,721.30726 585.823929,714.156288 C590.876313,707.005316 591.381551,700.795261 587.339644,695.526124 C583.297737,690.256987 585.823929,687.622418 594.91822,687.622418 C600.981081,687.622418 616.643472,688.751519 641.905392,691.009721 C664.135882,693.267922 680.808749,693.079739 691.923994,690.44517 C703.039239,687.810601 715.16496,681.22418 728.301159,670.685905 C739.416404,661.653098 752.299983,648.103888 766.951897,630.038275 C781.60381,611.972661 788.929767,600.681652 788.929767,596.165249 C788.929767,593.154313 791.20334,590.143378 795.750486,587.132442 C800.297631,584.121507 806.613111,571.32503 814.696926,548.743013 C822.78074,526.160996 826.822648,510.729951 826.822648,502.449878 C826.822648,489.653402 820.001929,481.93788 806.360492,479.303311 C792.719055,476.668742 759.62594,476.480559 707.081146,478.738761 C608.054419,483.255164 555.004386,488.147934 547.931049,493.417072 C544.899618,495.675273 543.131284,530.301033 542.626045,597.29435 C542.120807,664.287667 538.836757,717.731774 532.773897,757.626671 C526.711036,797.521567 524.184844,821.985419 525.195321,831.018226 C530.247705,862.63305 528.226751,897.258809 519.13246,934.895504 C513.069599,962.746659 509.027692,981.941373 507.006738,992.479648 C504.985784,1003.01792 498.670304,1013.17983 488.060298,1022.96537 C477.450291,1032.75091 471.134811,1041.40735 469.113858,1048.93469 C467.092904,1053.45109 465.32457,1056.8384 463.808855,1059.0966 C462.293139,1061.3548 460.272186,1062.29572 457.745994,1061.91935 C455.219802,1061.54298 452.188371,1059.66115 448.651702,1056.27385 C445.115034,1052.88654 441.325746,1048.55832 437.283838,1043.28919 C430.210501,1034.25638 425.410736,1026.16449 422.884544,1019.01352 C420.358352,1011.86255 418.590017,998.501519 417.579541,978.930437 C416.569064,951.079283 419.095256,916.453524 425.158117,875.053159 C427.17907,852.471142 429.452643,810.12986 431.978835,748.029313 C434.505027,685.928767 436.020742,632.672843 436.525981,588.261543 C437.031219,543.850243 436.273362,517.504557 434.252408,509.224484 C425.158117,509.224484 413.537633,512.235419 399.390958,518.25729 C385.244283,524.279162 377.665707,529.171932 376.65523,532.935601 C374.634276,540.46294 370.592369,566.055893 364.529508,609.714459 C357.456171,669.180437 346.846164,704.182564 332.699489,714.720838 C328.657582,717.731774 326.636628,720.930893 326.636628,724.318196 C326.636628,727.705498 317.542337,742.571993 299.353754,768.917679 C281.165172,795.263366 272.07088,809.56531 272.07088,811.823512 C272.07088,814.081713 260.197778,827.066373 236.451573,850.777491 C212.705368,874.488609 200.832265,887.849635 200.832265,890.860571 C200.832265,893.871507 186.180352,904.409781 156.876524,922.475395 C127.572697,940.541009 105.342207,951.832017 90.185055,956.34842 C70.9859957,963.123026 51.7869364,970.273998 32.587877,977.801337 C13.3888177,985.328676 2.77881122,988.339611 0.757857605,986.834143 C-1.26309601,985.328676 0.757857605,980.059538 6.82071845,971.026731 C12.8835793,961.993925 18.4412017,956.34842 23.4935858,954.090219 C33.5983538,949.573815 62.9021813,920.405377 111.405068,866.584903 C159.907955,812.764429 184.159398,782.090522 184.159398,774.563183 C184.159398,770.04678 185.675113,767.035844 188.706544,765.530377 C195.779881,761.013973 204.368934,742.195626 214.473702,709.075334 C224.57847,675.955043 231.399189,645.845687 234.935858,618.747266 C238.472527,591.648846 236.704192,575.841434 229.630854,571.32503 C223.567994,571.32503 209.926557,578.476002 188.706544,592.777947 C167.486531,607.079891 148.79271,621.381835 132.625081,635.683779 C119.488882,647.727521 102.310777,661.653098 81.0907638,677.46051 C59.8707508,693.267922 46.7345523,701.171628 41.6821683,701.171628 C36.6297843,701.171628 33.5983538,699.66616 32.587877,696.655225 C26.5250162,689.88062 25.5145394,665.416768 29.5564466,623.26367 C33.5983538,581.110571 38.6507379,555.141252 44.7135987,545.355711 L65.9336117,515.999089 C83.1117174,491.15887 93.2164855,463.307716 96.2479159,432.445626 C102.310777,380.506987 108.878876,349.644897 115.952214,339.859356 C117.973167,337.601154 123.27817,338.730255 131.867223,343.246659 C140.456276,347.763062 158.897478,348.515796 187.190829,345.50486 C221.54704,340.988457 241.251338,336.660237 246.303722,332.5202 C251.356106,328.380164 254.892775,314.266403 256.913728,290.178919 C260.955635,262.327764 261.713493,247.649453 259.187301,246.143985 C256.661109,244.638518 249.335152,246.143985 237.209431,250.660389 C226.094186,254.424058 217.252514,255.553159 210.684414,254.047691 C204.116315,252.542224 197.800835,248.02582 191.737974,240.498481 C187.696067,235.229344 185.675113,231.653858 185.675113,229.772023 C185.675113,227.890188 187.696067,224.691069 191.737974,220.174666 C198.811312,214.905529 212.957987,208.695474 234.178,201.544502 C255.398013,194.39353 267.018496,189.500759 269.03945,186.866191 C271.060404,184.231622 273.839215,168.42421 277.375884,139.443955 C280.912552,110.4637 285.964936,93.3390036 292.533036,88.0698663 C299.101135,82.800729 302.385185,78.0961422 302.385185,73.9561057 C302.385185,69.8160693 308.448045,65.8642163 320.573767,62.1005468 C332.699489,58.3368773 346.846164,58.5250608 363.013793,62.6650972 C379.181422,66.8051337 388.023094,71.697904 389.538809,77.3434083 C391.054524,82.9889125 395.854289,88.4462333 403.938104,93.7153706 C418.084779,103.500911 418.590017,114.79192 405.453819,127.588396 C400.401435,133.610267 398.380481,140.384872 399.390958,147.912211 C401.411912,158.450486 416.569064,159.20322 444.862414,150.170413 C452.946229,147.912211 457.745994,144.336725 459.261709,139.443955 C460.777424,134.551185 462.545759,120.437424 464.566712,97.1026731 Z M593.402505,254.047691 C597.444412,242.756683 603.507273,231.089307 611.591088,219.045565 C619.674902,207.001823 622.201094,200.227217 619.169664,198.72175 C616.138233,197.216282 603.507273,197.216282 581.276783,198.72175 L547.931049,200.979951 L544.899618,232.594775 C542.878665,253.671324 542.626045,265.150516 544.141761,267.032351 C545.657476,268.914186 552.983433,269.855103 566.119631,269.855103 C574.203446,269.855103 580.013687,269.102369 583.550356,267.596902 C587.087025,266.091434 590.371075,261.57503 593.402505,254.047691 Z M458.503851,208.883657 L437.283838,208.883657 C417.074302,209.636391 403.180246,210.953676 395.60167,212.83551 C388.023094,214.717345 383.223329,219.045565 381.202376,225.82017 C377.160468,231.842041 375.139515,246.708536 375.139515,270.419654 C375.139515,294.130772 376.65523,306.739064 379.68666,308.244532 C380.697137,308.997266 391.812382,306.739064 413.032395,301.469927 C434.252408,296.20079 446.37813,292.813487 449.40956,291.308019 C451.430514,289.802552 453.451467,275.500608 455.472421,248.402187 L458.503851,208.883657 Z M441.830984,407.605407 C443.851938,374.485115 444.357176,357.548603 443.346699,356.795869 C442.336222,356.043135 430.715739,357.92497 408.485249,362.441373 C388.275713,366.205043 375.392134,371.47418 369.834511,378.248785 C364.276889,385.02339 361.498078,400.078068 361.498078,423.412819 C360.487601,449.758505 362.255935,464.625 366.803081,468.012303 C371.350227,471.399605 385.749521,469.705954 410.000965,462.931349 L437.283838,456.156744 L441.830984,407.605407 Z M241.756576,468.576853 C241.756576,461.049514 241.756576,454.463092 241.756576,448.817588 C241.756576,443.172084 241.503957,438.65568 240.998719,435.268378 C240.49348,431.881075 239.735623,430.187424 238.725146,430.187424 C232.662285,430.187424 225.083709,431.881075 215.989418,435.268378 C206.895126,438.65568 201.337504,441.8548 199.31655,444.865735 C196.28512,447.876671 194.769405,454.839459 194.769405,465.754101 C194.769405,476.668742 192.243213,484.760632 187.190829,490.029769 C182.138445,493.040705 179.107014,497.745292 178.096537,504.14353 C177.08606,510.541768 177.08606,515.999089 178.096537,520.515492 C179.107014,525.031896 181.633206,527.290097 185.675113,527.290097 C189.717021,527.290097 199.821789,523.902795 215.989418,517.12819 L240.240861,506.966282 L241.756576,468.576853 Z"></path>
        </g>
    </g>
</svg>