<?xml version="1.0" encoding="UTF-8"?>
<svg width="260px" height="145px" viewBox="0 0 260 145" version="1.1" xmlns="http://www.w3.org/2000/svg" xmlns:xlink="http://www.w3.org/1999/xlink">
    <title>fwdSlash_shang_s</title>
    <g id="fwdSlash_shang_s" stroke="none" stroke-width="1" fill="none" fill-rule="evenodd">
        <path d="M99.6558062,-24.9622367 C95.6315851,-23.3052045 92.0833827,-20.6670406 88.9916663,-17.1888596 L88.3726011,-16.4924112 L87.8309937,-15.7341608 C84.7833165,-11.4674128 83.2841784,-7.82079256 83.2841784,-2.98819042 L83.2913907,-2.4434486 L83.3096796,-1.95978138 C83.4512902,0.917839709 84.1681137,3.3741135 85.536949,6.35580395 L85.741,6.792 L85.8350309,7.5811754 L85.9131767,8.43056361 L85.9427037,8.81259644 L85.991,9.539 L86.0386442,10.3743041 L86.0770113,11.2204488 L86.1098751,12.1287834 L86.1526024,13.7739722 L86.1739276,14.9877161 L86.1932149,16.8022767 L86.2013906,18.8563841 L86.1592862,27.466881 L85.861,52.88 L85.7153585,57.0464115 L85.4917831,62.8329485 L85.2915923,67.4347338 L85.2788158,69.7588225 L85.2736872,71.8691861 L85.2749664,73.9489843 L85.2889222,77.0114373 L85.3173528,80.0052876 L85.344365,81.9631254 L85.3778359,83.8905483 L85.4177755,85.7875866 L85.4898361,88.5762387 L85.5459922,90.3974471 L85.6086526,92.1883762 L85.6778275,93.9490562 L85.7535271,95.6795173 L85.8357615,97.3797894 L85.9245409,99.0499027 L86.0198754,100.689887 L86.1217752,102.299774 L86.2302505,103.879591 C86.2488783,104.14039 86.2677804,104.399938 86.2869572,104.658234 L86.4053147,106.193006 C86.4255907,106.446301 86.4461418,106.698346 86.4669681,106.949142 L86.5952308,108.438936 C86.6171589,108.684738 86.6393628,108.929293 86.6618425,109.1726 L86.800033,110.617483 L86.944855,112.032463 L87.0963184,113.41757 L87.2544334,114.772835 C87.2813408,114.996227 87.3085257,115.218378 87.3359885,115.439286 L87.5041,116.749844 C87.5898242,117.397678 87.6780523,118.03435 87.76879,118.659876 L87.9536133,119.896072 C87.9849754,120.09963 88.0166168,120.30195 88.0485377,120.503034 L88.2434184,121.694704 C88.3094977,122.086984 88.3766966,122.474324 88.4450168,122.856727 C89.687843,129.813098 91.3267042,135.335117 93.5299334,139.565627 C96.5311634,145.32841 100.871771,149.243573 106.790534,150.116535 L107.982548,150.292346 L109.182207,150.179981 C115.286897,149.608195 118.988606,148.300943 122.526401,145.112156 L122.75381,144.901231 L123.029503,144.636225 L123.680246,143.993012 L124.734144,142.929103 L125.806836,141.840539 L126.312865,141.34659 C129.259733,138.46319 131.22307,136.095819 132.680583,133.348953 L132.879429,132.962076 L133.605812,131.538512 L142.224899,76.3285195 L142.224,75.118 L142.287,74.957 L145.243932,74.9700807 L148.504125,74.9692929 L152.772501,74.951052 L156.567895,74.9220317 L159.724443,74.8901342 L166.249902,74.80429 L171.916556,74.7090601 L178.857355,74.565157 L186.467876,74.3663701 L190.231612,74.2472333 L193.298972,74.1360876 L196.869873,73.9843624 L198.981332,73.8780648 L200.255494,73.8050529 L201.94901,73.6924929 L203.145646,73.5960571 L203.763843,73.5371079 L204.303592,73.4773795 L204.618383,73.4371425 L205.020819,73.3761823 L206.045554,73.1986544 L207.859538,72.8318079 L208.859869,72.6394209 L210.180182,72.3990291 L211.071327,72.2465683 L211.799,72.129 L212.510675,72.0211854 L213.294,71.912 L213.933,71.831 L214.645936,71.7528204 L214.999446,71.7197531 L215.446,71.684 L215.707386,71.667643 C221.278334,71.3195442 225.990064,70.0528011 230.080175,67.4964818 C234.370164,64.815239 237.573485,60.9085236 240.286833,55.6472955 L242.044715,52.238734 L240.924522,47.9679819 L240.628558,46.871687 L240.332229,45.8088923 L240.034935,44.7791371 L239.736077,43.7819602 L239.435058,42.8169007 L239.131277,41.8834976 C238.927703,41.2716785 238.721888,40.6806564 238.513035,40.1098167 L238.197376,39.2686169 C238.038307,38.8555086 237.877304,38.4535799 237.71403,38.0625716 L237.384355,37.2950387 C235.719839,33.5294086 233.805766,30.8385298 231.305194,28.9631009 C227.439498,26.0638292 222.607318,24.1349739 216.116798,22.587033 L214.100069,22.1117253 L212.164,21.637 L211.175,21.385 L210.288,21.148 L209.619,20.961 L209.151,20.821 L208.933615,20.7325366 L208.619818,20.6138528 L208.29665,20.5021618 C208.241936,20.4841151 208.186778,20.4663491 208.131149,20.4488584 L207.791509,20.3471752 C207.733889,20.3307644 207.675745,20.3146182 207.617049,20.2987313 L207.258042,20.2064785 C207.197034,20.1916074 207.13542,20.1769848 207.073174,20.1626055 L206.691904,20.0792056 C206.627024,20.0657779 206.561459,20.0525827 206.495181,20.0396147 L206.088752,19.9644903 L205.66394,19.8945621 L205.21946,19.8295734 L204.513044,19.7407905 L203.755133,19.6616779 L203.219104,19.6138808 L202.365712,19.5489604 L201.762008,19.5098227 L200.801068,19.4566884 L199.409676,19.3948968 L197.882971,19.3415707 L195.316678,19.2729629 L192.669291,19.2176877 L191.149437,19.1928102 L188.764808,19.163923 L186.267221,19.145106 L183.671142,19.1363088 L181.892849,19.1359858 L179.164766,19.1437768 L176.376769,19.1614537 L173.543326,19.1889663 L169.71971,19.240863 L166.088498,19.3057597 L163.412652,19.3636219 L159.927617,19.4525632 L157.389095,19.5277984 L155.738234,19.5818821 L153.331709,19.668718 L150.26906,19.7947816 L148.0948,19.8967266 L146.037035,20.0047426 L143.224163,20.1676902 L142.433,20.216 L142.462097,19.8593012 C142.502523,19.2871208 142.522395,18.7097605 142.522395,18.1210863 C142.522395,13.6116854 141.410785,8.88974397 139.265562,3.39261116 L139.082681,2.92788743 L138.72617,2.04490085 L138.352044,1.1472229 L137.961158,0.237449216 L137.554364,-0.681824533 C137.485287,-0.835684294 137.415582,-0.989831739 137.345269,-1.14421279 L136.916214,-2.0728698 L136.473386,-3.00453774 C136.398481,-3.15992244 136.323037,-3.31532445 136.247073,-3.47068968 L135.785185,-4.40200718 L135.311656,-5.32984649 L134.827341,-6.25161196 C132.053937,-11.4528375 128.802083,-16.2364821 125.770606,-18.477139 L125.23343,-18.8778993 L121.603265,-21.6483927 L120.523737,-22.4604071 L119.583034,-23.1513346 L118.936032,-23.6130288 L118.154332,-24.1534938 L117.465509,-24.6154113 C115.474424,-25.924698 114.106975,-26.5590609 111.882964,-26.8767768 C107.818037,-27.4574807 104.321972,-26.8237551 100.141301,-25.1589009 L99.6558062,-24.9622367 Z" id="上" fill="#000000" fill-rule="nonzero"></path>
    </g>
</svg>