<?xml version="1.0" encoding="UTF-8"?>
<svg width="1000px" height="1000px" viewBox="0 0 1000 1000" version="1.1" xmlns="http://www.w3.org/2000/svg" xmlns:xlink="http://www.w3.org/1999/xlink">
    <title>gun_string</title>
    <g id="gun_string" stroke="none" stroke-width="1" fill="none" fill-rule="evenodd">
        <path d="M405.100866,203.54099 C425.29432,209.83972 444.276166,217.713133 462.046405,227.161229 C479.816643,236.609325 489.509501,244.482739 491.124977,250.781469 C494.35593,257.867541 497.586882,261.410577 500.817835,261.410577 C504.048787,261.410577 509.702954,274.598544 517.780336,300.974479 C525.857717,327.350413 503.241049,350.773818 508.087478,352.348501 C515.357121,353.135842 546.858908,351.561159 602.592839,347.624453 C712.445225,339.751039 781.506835,329.909273 809.77767,318.099153 C820.278266,312.587764 844.51041,313.375105 882.474102,320.461177 C936.592557,329.121931 968.094344,338.176357 976.979463,347.624453 C992.326488,360.221914 1000,375.771905 1000,394.274426 C1000,412.776948 991.922619,428.72061 975.767856,442.105412 C965.26726,451.553508 954.766665,455.883885 944.266069,455.096544 C933.765473,454.309203 909.533329,448.797813 871.569637,438.562376 C812.604754,422.028208 724.561297,413.761124 607.439268,413.761124 C579.976172,413.761124 548.474385,416.91049 512.933907,423.20922 C477.393429,429.507951 455.5845,435.413011 447.507118,440.9244 C443.468428,444.073765 427.313665,447.616801 399.04283,451.553508 C395.971856,452.060868 392.924781,452.571907 389.901603,453.086624 C392.015874,455.045969 394.141486,457.10128 396.27934,459.252314 C426.960505,490.029788 441.493688,520.41268 439.87889,550.400989 C438.264092,562.238479 433.015998,574.667844 424.134608,587.689083 C415.253218,600.710322 405.16073,609.58844 393.857143,614.323436 C363.983377,626.950092 324.824522,655.360069 276.380577,699.553365 C257.810399,715.336686 227.129234,737.236043 184.337083,765.251436 C141.544932,793.26683 119.341457,806.090777 117.726659,803.723279 C115.304462,800.566615 118.937758,794.253287 128.626547,784.783295 C136.700537,776.891635 149.820772,759.1354 167.987252,731.514589 C186.153731,703.893779 195.23697,688.505041 195.23697,685.348377 C195.23697,682.191713 198.062867,678.245883 203.714661,673.510887 C209.366454,668.775891 212.192351,663.44902 212.192351,657.530275 C212.192351,651.61153 218.853393,640.563206 232.175478,624.385302 C242.272216,612.124155 248.542822,603.602736 250.987295,598.821045 L251.182144,598.431228 C251.833118,597.097166 252.158605,596.08124 252.158605,595.383451 C252.158605,592.226787 258.214098,581.573046 270.325084,563.422228 C295.354456,527.909757 305.043245,503.051028 299.391451,488.846039 C296.969254,484.111043 299.795151,478.192298 307.869141,471.089804 C308.955916,470.293129 309.962693,469.462944 310.889472,468.599248 C257.814423,480.642065 214.907092,494.250316 182.165142,509.423096 C160.356213,519.658533 147.634337,524.776252 143.999515,524.776252 C140.364694,524.776252 133.700854,531.074982 124.007997,543.672444 C113.507401,555.482563 103.006805,561.584459 92.5062095,561.978129 C82.0056138,562.3718 68.6779346,557.450917 52.523172,547.215479 C11.3285273,518.08385 -5.63397347,497.612976 1.63566972,485.802856 C5.67436037,479.504125 19.8097777,470.646535 44.0419216,459.230086 C68.2740655,447.813637 90.0829951,440.137059 109.46871,436.200352 C131.27764,431.476304 158.740736,423.996562 191.858,413.761124 C263.746693,392.502908 310.191636,381.8738 331.192827,381.8738 C336.039256,381.8738 352.799822,379.511776 381.474526,374.787729 C410.14923,370.063681 426.102058,367.307986 429.33301,366.520645 C432.563963,364.945962 429.33301,358.253561 419.640153,346.443441 C412.370509,336.995345 350.174673,239.758691 344.520506,231.885277 C334.019911,215.351109 339.674078,204.328331 361.483007,198.816942 C369.560389,198.0296 374.406817,197.439094 376.022294,197.045424 C377.63777,196.651753 387.330627,198.816942 405.100866,203.54099 Z M647.666161,476.860807 C667.05989,477.649881 680.797115,479.819832 688.877835,483.370662 C696.958556,486.921492 712.311924,496.193104 734.937942,511.185498 C767.260824,531.701405 796.149399,553.006385 821.603669,575.100439 C847.057938,597.194492 863.825433,608.833324 871.906154,610.016934 C879.986874,611.200544 884.633289,616.329521 885.845397,625.403864 C887.057505,634.478208 890.087775,641.777136 894.936207,647.30065 C899.784639,652.824163 903.825,661.109433 907.057288,672.15646 C910.289576,683.203487 914.329936,691.883294 919.178369,698.19588 C928.067161,708.453834 928.269179,725.221642 919.784423,748.499306 C911.299666,771.77697 899.380603,786.966632 884.027234,794.068292 C875.138442,798.013658 865.845613,799.591805 856.148749,798.802732 C846.451884,798.013658 841.603452,795.646438 841.603452,791.701072 C841.603452,788.544778 836.350984,785.388485 825.846047,782.232191 C812.916894,779.075898 794.129219,763.886236 769.483022,736.663206 C744.836824,709.440175 724.433005,681.230803 708.271564,652.03509 C700.998916,639.409916 686.251601,619.485814 664.02962,592.262784 C641.807638,565.039753 627.060324,542.748432 619.787675,525.388818 L602.818162,491.064127 C600.393946,485.540614 600.393946,481.397979 602.818162,478.636222 C605.242378,475.874466 620.191711,475.282661 647.666161,476.860807 Z" id="Combined-Shape" fill="#000000" fill-rule="nonzero"></path>
    </g>
</svg>