<svg width="345" height="345" viewBox="0 0 345 345" fill="none" xmlns="http://www.w3.org/2000/svg">
<path d="M347.518 266C360.052 271.6 366.318 276.267 366.318 280C366.318 283.467 359.385 286.133 345.518 288C323.652 290.667 306.185 292.267 293.118 292.8C280.318 293.333 270.052 292.4 262.318 290C254.585 287.333 248.318 282.933 243.518 276.8C238.985 270.667 234.185 262.133 229.118 251.2C225.918 244.267 221.518 235.467 215.918 224.8C210.318 214.133 204.318 202.933 197.918 191.2C191.518 179.2 185.119 167.467 178.719 156C172.319 144.533 166.718 134.533 161.918 126C156.318 116.4 151.518 108.667 147.518 102.8C143.785 96.9334 140.185 92.2667 136.718 88.8C133.518 85.0667 130.185 82.2667 126.718 80.4C123.252 78.5333 119.118 76.6667 114.318 74.8C109.785 73.2 106.452 71.3333 104.318 69.2C102.452 66.8 102.185 64.5333 103.518 62.4C104.852 60.2667 108.052 58.4 113.118 56.8C118.185 55.2 125.785 54.2667 135.918 54C142.052 54 147.252 54.5333 151.518 55.6C155.785 56.6667 159.518 58.4 162.718 60.8C165.918 63.2 168.718 66.4 171.118 70.4C173.518 74.4 175.918 79.2 178.318 84.8C181.518 92.8 185.918 102 191.518 112.4C197.385 122.533 203.918 133.067 211.118 144C218.318 154.933 225.918 165.6 233.918 176C242.185 186.4 250.185 195.733 257.918 204C265.118 211.467 271.518 217.867 277.118 223.2C282.985 228.533 289.118 233.467 295.518 238C301.918 242.533 309.118 246.933 317.118 251.2C325.385 255.467 335.518 260.4 347.518 266ZM127.918 176.4C126.318 177.733 124.718 179.2 123.118 180.8C121.785 182.133 120.185 184 118.318 186.4C116.452 188.533 114.185 191.333 111.518 194.8C109.118 198 106.185 202.133 102.718 207.2C94.1849 219.467 86.1849 229.867 78.7183 238.4C71.2516 246.933 63.6518 254.267 55.9184 260.4C48.1851 266.533 40.0518 271.733 31.5184 276C23.2518 280.267 14.1851 284 4.31847 287.2C-11.4149 292.533 -19.8148 294.133 -20.8815 292C-21.9481 289.867 -15.8149 283.867 -2.48158 274C5.25176 268.133 12.8518 261.333 20.3185 253.6C28.0518 245.867 35.1183 237.733 41.5183 229.2C48.185 220.667 54.0517 212.133 59.1184 203.6C64.4517 194.8 68.8517 186.533 72.3184 178.8C75.785 171.067 78.0517 164.133 79.1184 158C80.4517 151.867 80.4517 147.067 79.1184 143.6C76.7184 137.733 75.5183 132.933 75.5183 129.2C75.785 125.467 77.385 123.067 80.3184 122C83.2517 120.933 87.6516 121.467 93.5183 123.6C99.385 125.467 106.852 129.333 115.918 135.2C130.585 144.533 138.318 152.267 139.118 158.4C140.185 164.267 136.452 170.267 127.918 176.4Z" fill="black"/>
</svg>
