<?xml version="1.0" encoding="UTF-8"?>
<svg width="825px" height="1175px" viewBox="0 0 825 1175" version="1.1" xmlns="http://www.w3.org/2000/svg" xmlns:xlink="http://www.w3.org/1999/xlink">
    <title>H_cuo_m</title>
    <g id="H_cuo_m" stroke="none" stroke-width="1" fill="none" fill-rule="evenodd">
        <path d="M353.584573,308.089102 C362.246716,295.429047 374.906771,293.763251 391.564739,303.091712 C401.559519,308.422262 411.554299,315.918347 421.549079,325.579968 C431.54386,335.241589 437.540728,342.404515 439.539684,347.068746 C440.872321,354.398251 442.704698,359.728801 445.036813,363.060394 C447.368928,366.391987 448.868146,372.055696 449.534464,380.05152 L450.533942,393.044735 L499.508366,393.044735 C584.797157,393.044735 653.427982,389.046823 705.40084,381.050999 C746.712598,375.720449 780.361692,385.048911 806.348121,409.036383 C818.341857,420.363801 824.338725,431.0249 824.338725,441.01968 C824.338725,457.011329 815.843162,469.171645 798.852035,477.500628 C781.860909,485.829612 762.371087,487.328829 740.382571,481.998279 C725.057241,477.334049 709.565331,474.335615 693.906842,473.002977 C678.248353,471.67034 655.760098,469.005065 626.442075,465.007153 C603.120921,461.67556 569.638407,459.510024 525.994533,458.510546 C482.35066,457.511068 458.196607,458.343966 453.532376,461.009241 C450.200783,463.674516 447.702088,476.167991 446.036291,498.489667 C444.370494,520.811343 442.538118,898.114299 440.539162,970.743036 C437.207569,1056.03183 434.542294,1107.33837 432.543338,1124.66265 C430.544382,1141.98694 425.880151,1154.98015 418.550645,1163.6423 C402.558997,1180.30026 384.901552,1178.63447 365.57831,1158.6449 C353.584573,1147.31749 346.088488,1128.99372 343.090054,1103.67361 C340.09162,1078.3535 338.259244,1018.38482 337.592925,923.767568 C336.926606,844.475645 335.09423,473.502716 332.095796,470.504282 C329.097362,467.505848 313.772032,467.339268 286.119806,470.004543 C258.467581,472.669818 237.645122,476.001411 223.65243,479.999323 C211.658693,484.663554 195.667045,488.661466 175.677484,491.99306 C160.352155,493.992016 141.528652,498.656247 119.206976,505.985752 C96.8852997,513.315258 82.3928683,519.312126 75.7296814,523.976357 C66.4012198,529.973225 53.4080054,531.305862 36.7500383,527.974269 C20.0920711,524.642675 9.09781283,518.645807 3.76726334,509.983664 C-0.896967462,503.986796 -1.2301268,495.990972 2.76778531,485.996192 C7.43201611,476.001411 16.9270574,468.172167 31.2529091,462.508458 C45.5787609,456.844749 74.7302034,449.015504 118.707237,439.020724 L236.645644,413.034295 C253.303611,409.702702 272.793433,407.370587 295.115109,406.037949 C317.436785,404.705312 329.263941,403.705834 330.596579,403.039515 C333.261854,403.039515 334.594491,398.708444 334.594491,390.046301 C334.594491,381.384158 333.261854,374.054652 330.596579,368.057784 C328.597623,361.394597 328.764202,354.231671 331.096318,346.569007 C333.428433,338.906342 337.259766,333.409212 342.590315,330.077619 C345.25559,328.078663 346.588227,325.746548 346.588227,323.081273 C346.588227,320.415998 348.920343,315.418608 353.584573,308.089102 Z M402.558997,2.24882556 C430.544382,0.249869507 460.195563,-0.416449179 491.512541,0.249869507 C512.834739,0.916188193 527.49375,2.24882556 535.489575,4.24778162 C543.485399,6.24673768 554.812817,10.9109685 569.471828,18.240474 C609.450949,38.2300346 629.440509,57.2201172 629.440509,75.2107217 C629.440509,84.5391833 627.108394,99.0316147 622.444163,118.688016 C617.779932,138.344417 613.78202,152.503689 610.450427,161.165832 C605.786196,169.827975 603.454081,178.490118 603.454081,187.152261 C603.454081,199.145997 597.124053,217.80292 584.463998,243.123031 C580.466086,250.452536 578.46713,255.783086 578.46713,259.114679 C578.46713,262.446272 574.302638,269.442619 565.973655,280.103718 C557.644671,290.764817 553.480179,297.594583 553.480179,300.593017 C553.480179,303.591451 545.817514,313.086493 530.492185,329.078141 C505.172074,353.731932 486.848311,359.395641 475.520893,346.069268 C454.198695,320.749157 435.541772,302.092234 419.550123,290.098498 C412.886936,284.767948 406.723489,281.769514 401.05978,281.103196 C395.396071,280.436877 386.567348,281.769514 374.573612,285.101108 L340.591359,294.09641 C328.597623,296.095366 319.93548,300.759597 314.60493,308.089102 C309.9407,314.085971 303.943831,317.917303 296.614326,319.5831 C289.28482,321.248896 283.287952,320.749157 278.623721,318.083883 C273.95949,313.419652 268.9621,305.590407 263.631551,294.596149 C258.301001,283.601891 254.969408,273.107371 253.636771,263.112591 C249.638858,241.790393 243.64199,223.13347 235.646166,207.141821 C232.980891,201.811272 228.31666,188.318319 221.653474,166.662961 C214.990287,145.007604 210.326056,132.847288 207.660781,130.182013 C204.995506,127.516739 203.662869,123.185667 203.662869,117.188799 C203.662869,111.191931 201.997072,107.194019 198.665479,105.195063 C196.666523,103.196106 195.667045,96.0331806 195.667045,83.7062849 C195.667045,71.3793892 196.666523,65.2159414 198.665479,65.2159414 C201.330754,65.2159414 204.329188,61.2180293 207.660781,53.222205 C212.991331,41.8947874 233.314051,31.5668477 268.628941,22.2383861 C303.943831,12.9099245 348.587183,6.24673768 402.558997,2.24882556 Z M497.50941,51.223249 C485.515673,46.5590182 474.521415,44.5600621 464.526635,45.2263808 C436.54125,46.5590182 404.891112,49.5574523 369.576222,54.2216831 C328.930782,60.8848699 301.278557,66.0488397 286.619546,69.7135925 C271.960534,73.3783453 263.298392,77.8759964 260.633117,83.2065459 C257.967842,87.204458 257.468103,92.7015872 259.1339,99.6979334 C260.799696,106.69428 264.29787,113.190887 269.628419,119.187755 L276.624765,129.182535 L302.611194,119.187755 C329.263941,110.525612 356.249848,105.028483 383.568914,102.696367 C410.88798,100.364252 429.544904,102.196628 439.539684,108.193497 C447.535508,113.524046 451.53342,121.020131 451.53342,130.681752 C451.53342,140.343373 450.034203,146.007082 447.035769,147.672879 C444.037335,149.338675 442.871277,152.17053 443.537596,156.168442 C444.203915,162.16531 442.704698,165.996643 439.039945,167.662439 C435.375192,169.328236 424.880673,170.161134 407.556387,170.161134 C374.240453,170.827453 344.589271,175.491684 318.602842,184.153827 C307.941743,188.151739 300.279079,189.817536 295.614848,189.151217 C293.615892,187.81858 292.616414,188.151739 292.616414,190.150695 C292.616414,193.482288 295.614848,203.810228 301.611716,221.134514 C306.275947,233.794569 309.60754,241.124074 311.606496,243.123031 C313.605452,245.121987 323.100494,243.28961 340.09162,237.625901 C357.082747,231.962193 374.906771,228.963758 393.563695,228.630599 C412.220618,228.29744 424.880673,231.295874 431.54386,237.625901 C438.207047,243.955929 446.53603,247.120943 456.53081,247.120943 C463.860316,247.120943 468.857706,245.455146 471.522981,242.123552 C474.188256,238.791959 479.518805,228.13086 487.514629,210.140256 C494.844135,190.817014 501.340742,167.829019 507.004451,141.176272 C512.66816,114.523524 515.500014,93.2013262 515.500014,77.2096777 C515.500014,68.5475348 514.500536,63.0504057 512.50158,60.7182903 C510.502624,58.3861749 505.505234,55.2211611 497.50941,51.223249 Z" id="早" fill="#000000" fill-rule="nonzero"></path>
    </g>
</svg>