<?xml version="1.0" encoding="UTF-8"?>
<svg width="1000px" height="1000px" viewBox="0 0 1000 1000" version="1.1" xmlns="http://www.w3.org/2000/svg" xmlns:xlink="http://www.w3.org/1999/xlink">
    <title>H_cuo_l</title>
    <g id="H_cuo_l" stroke="none" stroke-width="1" fill="none" fill-rule="evenodd">
        <path d="M434.192781,391.389798 C443.996736,377.043716 458.325592,375.156074 477.179351,385.726871 C488.491606,391.767326 499.803861,400.261717 511.116116,411.210042 C522.428372,422.158367 529.215725,430.275229 531.478176,435.560628 C532.986476,443.866254 535.06039,449.906709 537.699916,453.681994 C540.339442,457.457279 542.036281,463.875263 542.790431,472.935946 L543.921656,487.659556 L599.351707,487.659556 C695.882951,487.659556 773.560436,483.129214 832.384163,474.068531 C879.141485,468.028076 917.226077,478.598873 946.637941,505.780922 C960.212647,518.61689 967,530.6978 967,542.023654 C967,560.14502 957.384583,573.924809 938.153749,583.363021 C918.922916,592.801232 896.864018,594.500111 871.977057,588.459655 C854.631599,583.174257 837.097603,579.7765 819.37507,578.266387 C801.652537,576.756273 776.199963,573.736045 743.017348,569.205704 C716.622085,565.430419 678.726031,562.976484 629.329183,561.843899 C579.932335,560.711313 552.594385,561.655134 547.315333,564.675362 C543.544581,567.69559 540.716517,581.852907 538.831142,607.147314 C536.945766,632.441721 534.871852,686.239527 532.609401,768.540732 C528.83865,865.188018 525.822048,923.327401 523.559597,942.958881 C521.297146,962.590361 516.018094,977.313971 507.72244,987.129712 C489.622832,1006.00613 469.637847,1004.11849 447.767487,981.466785 C434.192781,968.630817 425.70859,947.866751 422.314913,919.174588 C418.921237,890.482425 416.847323,822.527302 416.093173,715.309219 C415.339023,625.457444 413.265109,578.832679 409.871433,575.434923 C406.477756,572.037167 389.132298,571.848403 357.835059,574.86863 C326.537819,577.888858 302.970621,581.664143 287.133464,586.194484 C273.558758,591.479883 255.459149,596.010224 232.834639,599.785509 C215.489181,602.05068 194.184434,607.336078 168.920397,615.641704 C143.656361,623.947331 127.253591,630.742843 119.712087,636.028241 C109.153982,642.823754 94.4480507,644.333868 75.5942921,640.558583 C56.7405335,636.783298 44.2970528,629.987786 38.26385,620.172046 C32.9847976,613.376534 32.6077224,604.315851 37.1326245,592.989997 C42.4116769,581.664143 53.1583193,572.792224 69.3725518,566.37424 C85.5867842,559.956256 118.580862,551.084337 168.354785,539.758483 L301.839396,510.311263 C320.693154,506.535979 342.752052,503.89328 368.016088,502.383166 C393.280125,500.873052 406.666294,499.740466 408.174594,498.98541 C411.191196,498.98541 412.699496,494.07754 412.699496,484.261799 C412.699496,474.446059 411.191196,466.140433 408.174594,459.344921 C405.912143,451.794352 406.100681,443.67749 408.740207,434.994335 C411.379733,426.311181 415.716098,420.081961 421.749301,416.306676 C424.765902,414.041505 426.274203,411.398806 426.274203,408.378579 C426.274203,405.358351 428.913729,399.695424 434.192781,391.389798 Z M491.663594,2.54764417 C523.40553,0.283071575 557.036866,-0.471785958 592.557604,0.283071575 C616.741935,1.03792911 633.368664,2.54764417 642.437788,4.81221677 C651.506912,7.07678937 664.354839,12.3607921 680.981567,20.664225 C726.327189,43.309951 749,64.8233907 749,85.204544 C749,95.7725495 746.354839,112.190701 741.064516,134.458998 C735.774194,156.727295 731.239631,172.768018 727.460829,182.581166 C722.170507,192.394314 719.525346,202.207462 719.525346,212.02061 C719.525346,225.608045 712.345622,246.744056 697.986175,275.428642 C693.451613,283.732075 691.184332,289.770936 691.184332,293.545223 C691.184332,297.319511 686.460829,305.245515 677.013825,317.323235 C667.56682,329.400956 662.843318,337.138246 662.843318,340.535105 C662.843318,343.931963 654.152074,354.688683 636.769585,372.805264 C608.050691,400.734993 587.267281,407.151282 574.419355,392.054131 C550.235023,363.369545 529.073733,342.233534 510.935484,328.646098 C503.37788,322.607238 496.387097,319.210379 489.963134,318.455522 C483.539171,317.700664 473.525346,319.210379 459.921659,322.984667 L421.37788,333.175244 C407.774194,335.439816 397.949309,340.723819 391.903226,349.027252 C386.612903,355.82097 379.81106,360.1614 371.497696,362.048544 C363.184332,363.935688 356.382488,363.369545 351.092166,360.350115 C345.801843,355.066112 340.133641,346.196536 334.087558,333.741387 C328.041475,321.286238 324.262673,309.397231 322.751152,298.074368 C318.21659,273.918927 311.414747,252.782916 302.345622,234.666336 C299.322581,228.627475 294.032258,213.34161 286.474654,188.80874 C278.917051,164.275871 273.626728,150.499721 270.603687,147.480291 C267.580645,144.46086 266.069124,139.554286 266.069124,132.760569 C266.069124,125.966851 264.179724,121.437706 260.400922,119.173133 C258.133641,116.90856 257,108.793842 257,94.8289776 C257,80.8641132 258.133641,73.881681 260.400922,73.881681 C263.423963,73.881681 266.824885,69.3525358 270.603687,60.2942455 C276.64977,47.4616674 299.700461,35.7613756 339.75576,25.1933702 C379.81106,14.6253647 430.447005,7.07678937 491.663594,2.54764417 Z M598.655214,57.9090909 C585.092023,52.6450216 572.659098,50.388992 561.356439,51.1410019 C529.708993,52.6450216 493.917239,56.0290662 453.981177,61.2931354 C408.01703,68.8132344 376.74634,74.6413111 360.169107,78.7773655 C343.591873,82.9134199 333.796235,87.9894867 330.782193,94.0055659 C327.768151,98.5176252 327.203018,104.721707 329.086794,112.617811 C330.970571,120.513915 334.926501,127.846011 340.954586,134.6141 L348.866448,145.894249 L378.253361,134.6141 C408.393785,124.837972 438.910965,118.63389 469.8049,116.001855 C500.698835,113.369821 521.797132,115.437848 533.099791,122.205937 C542.141918,128.222016 546.662982,136.682127 546.662982,147.586271 C546.662982,158.490414 544.967583,164.882498 541.576785,166.762523 C538.185987,168.642548 536.867344,171.83859 537.620854,176.350649 C538.374365,183.118738 536.678966,187.442795 532.534658,189.32282 C528.39035,191.202845 516.522558,192.142857 496.931282,192.142857 C459.255751,192.894867 425.724529,198.158936 396.337616,207.935065 C384.281446,212.447124 375.616074,214.327149 370.3415,213.575139 C368.080968,212.071119 366.950702,212.447124 366.950702,214.703154 C366.950702,218.463203 370.3415,230.119357 377.123095,249.671614 C382.39767,263.959802 386.165223,272.231911 388.425754,274.487941 C390.686286,276.74397 401.423812,274.675943 420.638333,268.283859 C439.852853,261.891775 460.009262,258.50773 481.107559,258.131725 C502.205856,257.75572 516.522558,261.139765 524.057664,268.283859 C531.59277,275.427953 541.011652,279 552.314311,279 C560.602928,279 566.254258,277.119975 569.2683,273.359926 C572.282342,269.599876 578.310427,257.567718 587.352555,237.263451 C595.641171,215.455164 602.9879,189.510823 609.39274,159.430427 C615.79758,129.350031 619,105.285714 619,87.2374768 C619,77.4613482 617.869734,71.2572665 615.609202,68.6252319 C613.34867,65.9931973 607.697341,62.4211503 598.655214,57.9090909 Z" id="早" fill="#000000" fill-rule="nonzero"></path>
    </g>
</svg>