<svg width="345" height="345" viewBox="0 0 345 345" fill="none" xmlns="http://www.w3.org/2000/svg">
<path d="M254.23 115.323C249.697 116.656 244.764 117.856 239.43 118.923C234.097 119.99 227.964 121.19 221.03 122.523C214.364 123.59 206.63 124.79 197.83 126.123C189.297 127.19 179.43 128.39 168.23 129.723C157.564 131.056 148.23 131.856 140.23 132.123C132.23 132.39 125.03 132.256 118.63 131.723C112.23 130.923 106.23 129.723 100.63 128.123C95.2969 126.523 89.9635 124.39 84.6302 121.723C74.4969 116.923 69.6969 113.456 70.2302 111.323C71.0302 108.923 77.4302 107.323 89.4302 106.523C97.9635 105.99 107.03 105.19 116.63 104.123C126.497 102.79 136.364 101.323 146.23 99.7231C156.097 98.1231 165.697 96.2564 175.03 94.1231C184.63 91.9897 193.43 89.5897 201.43 86.9231C214.497 82.6564 224.63 80.3897 231.83 80.1231C239.03 79.5897 246.097 80.7897 253.03 83.7231C266.63 89.3231 273.43 95.1897 273.43 101.323C273.43 107.19 267.03 111.856 254.23 115.323ZM327.83 210.123C341.697 224.256 347.164 234.523 344.23 240.923C341.564 247.323 330.497 248.656 311.03 244.923C302.23 243.323 293.564 241.99 285.03 240.923C276.764 239.59 267.297 238.656 256.63 238.123C246.23 237.59 233.964 237.456 219.83 237.723C205.964 237.723 189.03 238.123 169.03 238.923C145.83 239.99 124.497 241.59 105.03 243.723C85.5635 245.856 68.8969 248.523 55.0302 251.723C48.0969 253.323 42.3635 254.523 37.8302 255.323C33.2969 255.856 29.2969 255.99 25.8302 255.723C22.3635 255.456 19.1635 254.523 16.2302 252.923C13.2969 251.323 10.0969 248.923 6.6302 245.723C-6.96981 232.923 -13.5031 224.79 -12.9698 221.323C-12.4365 217.59 -3.23647 216.79 14.6302 218.923C17.0302 219.19 20.8969 219.323 26.2302 219.323C31.5635 219.056 40.2302 218.656 52.2302 218.123C66.8969 217.323 84.0969 216.256 103.83 214.923C123.83 213.323 143.697 211.723 163.43 210.123C183.43 208.256 201.964 206.39 219.03 204.523C236.364 202.39 249.83 200.39 259.43 198.523C268.764 196.923 276.63 195.723 283.03 194.923C289.697 194.123 295.564 194.123 300.63 194.923C305.697 195.456 310.364 196.923 314.63 199.323C318.897 201.723 323.297 205.323 327.83 210.123Z" fill="black"/>
</svg>
