<svg width="345" height="345" viewBox="0 0 345 345" fill="none" xmlns="http://www.w3.org/2000/svg">
<path d="M225.6 269.25C227.7 271.583 229.216 274.033 230.15 276.6C231.316 278.933 231.55 281.383 230.85 283.95C230.15 286.75 228.4 289.433 225.6 292C222.8 294.567 218.716 297.017 213.35 299.35C204.95 303.083 195.5 305.883 185 307.75C174.5 309.617 133.766 310.55 122.8 310.55C111.833 310.783 71.2163 310.083 60.9497 308.45C50.683 306.817 41.583 304.25 33.6497 300.75C21.283 295.383 12.7663 287.333 8.09967 276.6C3.66634 265.867 2.61635 250 4.94968 229C6.81635 212.2 7.51636 198.433 7.04968 187.7C6.58301 176.733 5.29968 168.217 3.19968 162.15C-1.70032 181.05 -7.53366 197.85 -14.3003 212.55C-62.5006 285.5 -108 299.436 -143 307.75C-160.901 312.002 -211.001 314.5 -218.501 300.75C-223.5 291.584 -160.001 290.705 -127.5 276.6C-74.5009 246.85 -41.7299 218.165 -25.8503 148.5C-23.2974 137.3 -21.3003 132.05 -21.3003 126.8C-17.1003 103.933 -14.8837 86.2 -14.6503 73.6C-14.417 60.7667 -16.167 51.6667 -19.9003 46.3C-26.2003 37.2 -27.6003 31.0167 -24.1003 27.75C-20.6003 24.4834 -11.3837 25.8834 3.54967 31.95C11.2497 35.2167 17.3163 37.9 21.7497 40C26.4163 41.8667 29.5663 43.85 31.1997 45.95C33.0663 47.8167 33.6497 50.0334 32.9497 52.6C32.483 55.1667 30.8497 58.4334 28.0497 62.4C26.883 64.0334 25.833 65.9 24.8997 68C24.1997 70.1 23.2664 73.1334 22.0997 77.1C20.933 81.0667 19.6497 86.3167 18.2497 92.85C16.8497 99.3834 15.0997 107.9 12.9997 118.4C11.3197 126.8 10.5497 133.5 10.5497 141.85C19.4163 146.517 26.183 150.25 30.8497 153.05C35.7497 155.617 39.133 157.95 40.9997 160.05C43.0997 161.917 43.9164 163.783 43.4497 165.65C42.983 167.517 42.0497 169.85 40.6497 172.65C39.4831 174.75 38.433 177.433 37.4997 180.7C36.7997 183.733 36.0997 188.05 35.3997 193.65C34.6997 199.25 34.1163 206.367 33.6497 215C33.183 223.633 32.9497 234.483 32.9497 247.55C32.9497 251.283 33.183 254.433 33.6497 257C34.3497 259.567 35.3997 261.783 36.7997 263.65C38.433 265.283 40.5331 266.683 43.0997 267.85C45.8997 269.017 49.5164 270.183 53.9497 271.35C61.883 273.217 100.75 274.033 110.55 273.8C120.35 273.567 161.2 271.467 173.1 267.5C176.833 266.333 179.983 264.933 182.55 263.3C185.35 261.667 187.683 259.217 189.55 255.95C191.65 252.45 193.516 247.9 195.15 242.3C197.016 236.7 199 229.233 201.1 219.9C204.133 206.367 207.283 200.067 210.55 201C214.05 201.933 215.8 208.7 215.8 221.3C215.8 235.767 216.616 246.617 218.25 253.85C220.116 260.85 222.566 265.983 225.6 269.25Z" fill="black"/>
<path d="M162.36 109.884C176.227 122.418 181.827 131.484 179.16 137.084C176.493 142.418 164.893 144.151 144.36 142.284C123.827 140.418 92.6267 139.751 70.76 140.284C48.8933 140.551 34.4933 139.151 7.56001 142.084C-45.7504 147.02 -52.6396 147.334 -104.44 160.284C-113.773 162.684 -122.307 163.218 -130.04 161.884C-137.507 160.284 -145.64 155.484 -154.44 147.484C-158.973 143.484 -162.307 140.151 -164.44 137.484C-166.573 134.818 -167.373 132.818 -166.84 131.484C-166.307 129.884 -164.173 128.818 -160.44 128.284C-156.707 127.751 -151.107 127.484 -143.64 127.484C-136.707 127.484 -130.84 127.484 -126.04 127.484C-120.973 127.484 -116.307 127.484 -112.04 127.484C-107.773 127.218 -103.507 126.951 -99.24 126.684C-55.8535 123.973 -62.5524 121.815 -19.24 116.484C8.38121 113.085 16.9995 112.204 44.36 107.884C54.4933 106.018 71.96 104.418 76.76 103.084C94.8933 98.5509 119.827 96.5509 131.56 97.0842C143.293 97.6175 153.56 101.884 162.36 109.884Z" fill="black"/>
</svg>
