<svg width="345" height="345" viewBox="0 0 345 345" fill="none" xmlns="http://www.w3.org/2000/svg">
<path d="M344.788 284.109C352.254 293.176 354.388 301.042 351.188 307.709C348.254 314.109 337.321 320.109 318.388 325.709C311.188 327.842 302.921 329.309 293.588 330.109C284.521 331.176 275.454 331.709 266.388 331.709C257.321 331.709 248.654 331.309 240.388 330.509C232.121 329.976 225.321 329.042 219.988 327.709C190.921 321.309 176.654 299.442 177.188 262.109C177.188 254.909 177.454 247.709 177.988 240.509C178.788 233.309 180.121 225.309 181.988 216.509C183.854 207.709 186.254 197.709 189.188 186.509C192.388 175.042 196.388 161.576 201.188 146.109C203.321 139.442 203.988 135.442 203.188 134.109C202.654 132.776 200.521 132.642 196.788 133.709C191.454 135.042 185.454 136.642 178.788 138.509C172.121 140.376 165.188 142.376 157.988 144.509C151.054 170.642 143.054 193.176 133.988 212.109C124.921 231.042 114.521 247.309 102.788 260.909C91.3209 274.242 78.3876 285.442 63.9876 294.509C49.5876 303.309 33.5876 310.909 15.9876 317.309C-11.4791 326.909 -13.2124 322.376 10.7876 303.709C25.1876 292.509 37.5876 281.842 47.9876 271.709C58.6542 261.309 67.9876 250.509 75.9876 239.309C83.9876 228.109 90.9209 215.976 96.7876 202.909C102.654 189.842 107.854 174.909 112.388 158.109C102.521 161.042 93.5876 163.842 85.5876 166.509C77.8542 169.176 72.1209 171.442 68.3876 173.309C63.3209 175.709 59.0542 177.442 55.5876 178.509C52.1209 179.576 48.9209 179.976 45.9876 179.709C43.3209 179.442 40.5209 178.509 37.5876 176.909C34.6542 175.042 31.0542 172.509 26.7876 169.309C16.3876 161.309 11.4542 156.109 11.9876 153.709C12.7876 151.042 19.5876 149.042 32.3876 147.709C49.1876 145.842 64.7876 143.576 79.1876 140.909C93.5876 138.242 106.788 135.442 118.788 132.509C119.854 127.709 120.921 122.242 121.988 116.109C123.321 109.709 124.654 103.442 125.988 97.3091C128.921 81.0424 130.254 68.3758 129.988 59.3091C129.721 49.9757 127.721 42.2424 123.988 36.1091C116.788 24.3758 115.588 17.3091 120.388 14.9091C125.454 12.2424 138.254 15.4424 158.788 24.5091C166.521 27.9758 172.521 31.1758 176.788 34.1091C181.054 36.7757 183.854 39.4424 185.188 42.1091C186.521 44.7758 186.654 47.4424 185.588 50.1091C184.788 52.5091 183.188 55.0424 180.788 57.7091C176.254 62.5091 172.788 72.2424 170.388 86.9091C169.321 92.2424 168.254 97.5758 167.188 102.909C166.388 107.976 165.454 112.909 164.388 117.709C181.988 110.509 193.854 104.242 199.988 98.9091C202.654 96.5091 205.188 94.7758 207.588 93.7091C209.988 92.3758 212.654 91.7091 215.588 91.7091C218.521 91.4424 221.854 91.8424 225.588 92.9091C229.321 93.9758 233.988 95.7091 239.588 98.1091C249.454 102.642 257.054 106.509 262.388 109.709C267.721 112.642 270.921 115.576 271.988 118.509C273.054 121.442 272.121 124.376 269.188 127.309C266.254 130.242 261.454 133.709 254.788 137.709C250.788 140.109 246.654 143.976 242.388 149.309C238.388 154.642 234.921 161.309 231.988 169.309C228.254 179.709 225.188 188.909 222.788 196.909C220.388 204.642 218.521 212.109 217.188 219.309C215.854 226.509 214.788 233.709 213.988 240.909C213.188 247.842 212.521 255.709 211.988 264.509C211.454 271.176 212.788 276.242 215.988 279.709C219.188 283.176 224.254 285.576 231.188 286.909C238.121 288.242 246.254 289.042 255.588 289.309C264.921 289.309 275.988 288.109 288.788 285.709C292.254 284.909 295.054 283.842 297.188 282.509C299.588 281.176 301.721 278.642 303.588 274.909C305.721 271.176 307.721 265.976 309.588 259.309C311.721 252.642 314.121 243.709 316.788 232.509C321.588 212.242 325.588 202.109 328.788 202.109C332.254 201.842 334.521 212.109 335.588 232.909C336.388 248.909 337.588 260.909 339.188 268.909C340.788 276.642 342.654 281.709 344.788 284.109Z" fill="black"/>
</svg>
