<svg width="345" height="345" viewBox="0 0 345 345" fill="none" xmlns="http://www.w3.org/2000/svg">
<path d="M211.641 64.44C213.241 72.9733 213.241 80.1733 211.641 86.04C210.308 91.64 207.774 95.64 204.041 98.04C200.574 100.44 196.174 101.107 190.841 100.04C185.508 98.9733 179.641 95.64 173.241 90.04C168.708 86.3067 163.241 81.3733 156.841 75.24C150.441 69.1067 143.641 62.1733 136.441 54.44C128.974 46.7067 125.908 41.64 127.241 39.24C128.841 36.84 136.841 35.7733 151.241 36.04C171.774 36.3067 186.441 38.84 195.241 43.64C204.308 48.1733 209.774 55.1067 211.641 64.44ZM328.841 118.84C341.641 130.84 346.841 139.373 344.441 144.44C342.041 149.507 330.441 150.973 309.641 148.84C299.508 148.04 287.241 147.64 272.841 147.64C258.708 147.64 243.508 148.04 227.241 148.84C210.975 149.373 194.308 150.44 177.241 152.04C160.441 153.373 144.441 154.973 129.241 156.84C114.041 158.44 100.308 160.307 88.041 162.44C76.041 164.307 66.5745 166.307 59.6411 168.44C54.5745 170.04 50.3077 171.24 46.8411 172.04C43.3744 172.573 40.1744 172.84 37.2411 172.84C34.3078 172.573 31.3744 171.773 28.441 170.44C25.5077 168.84 22.041 166.573 18.041 163.64C8.17436 156.44 3.50769 151.773 4.04103 149.64C4.84103 147.507 11.1077 146.173 22.8411 145.64C32.9744 145.373 45.2411 144.573 59.6411 143.24C74.3078 141.64 89.7743 139.907 106.041 138.04C122.574 135.907 139.241 133.64 156.041 131.24C173.108 128.84 188.841 126.44 203.241 124.04C217.908 121.64 230.841 119.507 242.041 117.64C253.241 115.773 261.241 114.173 266.041 112.84C281.241 109.107 293.774 107.507 303.641 108.04C313.508 108.573 321.908 112.173 328.841 118.84ZM302.841 273.24C302.041 282.84 300.175 290.84 297.241 297.24C294.575 303.373 291.108 307.24 286.841 308.84C282.841 310.707 278.308 310.04 273.241 306.84C268.175 303.64 263.108 297.373 258.041 288.04C253.774 280.573 248.841 272.44 243.241 263.64C237.908 254.573 232.441 245.907 226.841 237.64C221.241 229.373 215.908 221.773 210.841 214.84C206.041 207.907 202.041 202.44 198.841 198.44C190.041 187.24 186.841 180.84 189.241 179.24C191.641 177.373 200.841 180.04 216.841 187.24C234.708 195.24 249.241 202.973 260.441 210.44C271.908 217.64 280.841 224.707 287.241 231.64C293.641 238.307 297.908 245.107 300.041 252.04C302.174 258.973 303.108 266.04 302.841 273.24ZM153.641 225.24C151.508 226.573 148.308 229.24 144.041 233.24C140.041 236.973 133.908 243.107 125.641 251.64C114.708 263.373 103.374 272.973 91.6411 280.44C79.9078 287.907 65.5078 294.44 48.4412 300.04C22.5745 308.307 9.10769 311.24 8.04103 308.84C6.97436 306.707 16.8411 298.44 37.6411 284.04C49.1078 276.307 59.1078 268.44 67.6411 260.44C76.4411 252.173 83.641 244.44 89.241 237.24C95.1076 229.773 99.2411 223.107 101.641 217.24C104.041 211.107 104.841 206.04 104.041 202.04C102.174 193.773 103.641 188.573 108.441 186.44C113.241 184.04 123.508 185.773 139.241 191.64C148.041 195.107 154.708 198.307 159.241 201.24C163.774 204.173 166.441 206.973 167.241 209.64C168.041 212.307 167.241 214.973 164.841 217.64C162.441 220.04 158.708 222.573 153.641 225.24Z" fill="black"/>
</svg>
