<svg width="345" height="345" viewBox="0 0 345 345" fill="none" xmlns="http://www.w3.org/2000/svg">
<path d="M90.0909 236.094C82.0909 251.594 74.0909 264.594 66.0909 275.094C58.5909 285.594 50.5909 294.344 42.0909 301.344C30.5909 310.844 22.8409 314.594 18.8409 312.594C15.3409 310.094 17.0909 300.844 24.0909 284.844C28.0909 275.844 31.3409 268.094 33.8409 261.594C36.3409 255.094 38.8409 247.844 41.3409 239.844C25.3409 241.344 9.09091 243.094 -7.40909 245.094C-23.9091 246.594 -40.6591 248.594 -57.6591 251.094C-57.1591 256.094 -56.9091 261.344 -56.9091 266.844C-56.4091 271.844 -55.9091 277.844 -55.4091 284.844C-54.9091 292.344 -55.6591 299.594 -57.6591 306.594C-59.6591 313.094 -62.4091 316.844 -65.9091 317.844C-71.9091 320.344 -78.9091 316.094 -86.9091 305.094C-94.4091 294.094 -99.4091 278.344 -101.909 257.844C-111.909 259.344 -120.659 260.844 -128.159 262.344C-135.659 263.844 -142.159 265.094 -147.659 266.094C-153.159 267.094 -158.409 268.094 -163.409 269.094C-167.909 270.094 -172.409 271.344 -176.909 272.844C-190.409 276.344 -202.409 277.594 -212.909 276.594C-223.409 275.594 -236.159 271.594 -251.159 264.594C-266.659 257.594 -273.909 251.094 -272.909 245.094C-271.909 239.094 -263.409 236.344 -247.409 236.844C-244.409 236.844 -240.159 236.844 -234.659 236.844C-229.159 236.844 -221.409 236.594 -211.409 236.094C-201.409 235.094 -188.159 233.844 -171.659 232.344C-155.159 230.344 -134.409 228.094 -109.409 225.594C-114.409 207.094 -120.409 191.844 -127.409 179.844C-133.909 167.344 -140.159 158.844 -146.159 154.344C-158.159 145.844 -162.409 138.344 -158.909 131.844C-155.409 124.844 -141.659 122.594 -117.659 125.094C-102.659 126.594 -90.9091 128.344 -82.4091 130.344C-73.4091 132.344 -66.9091 134.844 -62.9091 137.844C-58.4091 140.844 -55.9091 144.594 -55.4091 149.094C-54.9091 153.094 -55.4091 158.094 -56.9091 164.094C-57.9091 169.594 -58.9091 176.844 -59.9091 185.844C-60.4091 194.344 -60.4091 205.844 -59.9091 220.344C-41.9091 217.844 -23.1591 215.344 -3.65909 212.844C15.8409 209.844 34.8409 206.844 53.3409 203.844C60.3409 180.344 63.8409 162.094 63.8409 149.094C64.3409 136.094 62.5909 125.594 58.5909 117.594C54.5909 110.594 52.3409 104.594 51.8409 99.5938C51.8409 94.0938 53.8409 90.3437 57.8409 88.3437C61.8409 85.8437 68.0909 85.3437 76.5909 86.8438C85.5909 88.3438 97.0909 92.0938 111.091 98.0937C132.091 107.094 144.341 115.094 147.841 122.094C151.341 128.594 149.091 135.844 141.091 143.844C137.591 147.344 133.091 153.344 127.591 161.844C122.591 169.844 116.591 180.844 109.591 194.844C120.091 192.844 129.341 191.094 137.341 189.594C145.341 188.094 151.341 186.844 155.341 185.844C167.341 182.844 177.591 180.594 186.091 179.094C194.591 177.594 202.341 177.094 209.341 177.594C216.341 178.094 222.591 179.594 228.091 182.094C234.091 184.094 240.091 187.094 246.091 191.094C267.091 205.594 275.591 217.344 271.591 226.344C267.591 235.344 251.341 238.344 222.841 235.344C208.341 233.844 189.591 233.094 166.591 233.094C144.091 233.094 118.591 234.094 90.0909 236.094Z" fill="black"/>
</svg>
