<svg width="345" height="345" viewBox="0 0 345 345" fill="none" xmlns="http://www.w3.org/2000/svg">
<path d="M336.247 275.033C341.847 281.7 343.847 287.7 342.247 293.033C340.914 298.1 334.381 304.1 322.647 311.033C315.181 315.567 305.98 319.033 295.047 321.433C284.38 324.1 273.447 325.7 262.247 326.233C251.047 326.767 240.114 326.5 229.447 325.433C219.047 324.633 210.247 323.167 203.047 321.033C190.247 317.3 179.714 312.633 171.447 307.033C163.447 301.7 157.047 294.633 152.247 285.833C147.447 277.033 144.114 266.1 142.247 253.033C140.38 239.967 139.447 223.833 139.447 204.633C130.914 207.3 122.647 210.1 114.647 213.033C106.647 215.7 99.1803 218.233 92.247 220.633C85.5803 223.033 79.7138 225.3 74.6472 227.433C69.5805 229.567 65.7137 231.167 63.0471 232.233C56.9137 234.9 51.8471 236.9 47.8471 238.233C44.1138 239.567 40.5137 240.1 37.0471 239.833C33.8471 239.567 30.3805 238.633 26.6472 237.033C23.1805 235.167 18.6471 232.633 13.0471 229.433C4.51373 224.1 0.513725 219.833 1.04706 216.633C1.58039 213.433 7.71387 211.167 19.4472 209.833C24.5139 209.3 29.8472 208.5 35.4472 207.433C41.0472 206.1 49.3137 203.967 60.247 201.033C70.9137 198.1 83.3139 194.633 97.4472 190.633C111.581 186.367 125.581 181.967 139.447 177.433C139.714 153.967 139.714 134.5 139.447 119.033C139.181 103.567 138.514 91.0334 137.447 81.4333C136.381 71.8333 134.914 64.3667 133.047 59.0333C131.447 53.7 129.447 49.3 127.047 45.8333C122.247 39.1667 119.047 33.7 117.447 29.4333C115.847 25.1667 116.38 22.2333 119.047 20.6333C121.714 18.7667 126.647 18.5 133.847 19.8333C141.314 21.1667 151.581 24.1 164.647 28.6333C172.381 31.3 178.247 33.8333 182.247 36.2333C186.514 38.3667 189.447 40.9 191.047 43.8333C192.647 46.5 193.047 49.8333 192.247 53.8333C191.714 57.5667 190.38 62.6333 188.247 69.0333C186.647 74.1 185.18 79.1667 183.847 84.2333C182.78 89.0333 181.847 94.9 181.047 101.833C180.247 108.767 179.58 117.167 179.047 127.033C178.514 136.9 178.114 149.433 177.847 164.633C198.647 157.7 215.714 151.7 229.047 146.633C242.647 141.3 253.847 136.767 262.647 133.033C271.181 129.567 278.247 126.9 283.847 125.033C289.447 122.9 294.381 121.7 298.647 121.433C303.181 120.9 307.447 121.167 311.447 122.233C315.714 123.3 320.647 125.167 326.247 127.833C340.114 134.233 346.514 140.633 345.447 147.033C344.647 153.167 337.314 157.3 323.447 159.433C305.581 162.1 284.114 166.367 259.047 172.233C234.247 177.833 206.914 184.9 177.047 193.433C177.047 207.833 177.447 220.1 178.247 230.233C179.047 240.1 180.38 248.367 182.247 255.033C184.114 261.433 186.514 266.367 189.447 269.833C192.647 273.3 196.381 275.7 200.647 277.033C204.914 278.633 209.847 279.833 215.447 280.633C221.047 281.433 226.914 281.833 233.047 281.833C239.18 281.833 245.18 281.567 251.047 281.033C256.914 280.233 262.247 279.167 267.047 277.833C271.847 276.233 275.981 274.5 279.447 272.633C283.181 270.767 286.38 268.1 289.047 264.633C291.98 260.9 294.647 255.967 297.047 249.833C299.714 243.433 302.38 235.167 305.047 225.033C310.38 205.567 314.114 195.967 316.247 196.233C318.38 196.5 320.514 206.367 322.647 225.833C324.247 240.767 326.114 251.833 328.247 259.033C330.381 265.967 333.047 271.3 336.247 275.033Z" fill="black"/>
</svg>
