<svg width="345" height="345" viewBox="0 0 345 345" fill="none" xmlns="http://www.w3.org/2000/svg">
<path d="M255.501 92.6433C250.212 93.975 245.049 95.1735 240.013 96.2388C235.227 97.3042 229.939 98.3695 224.146 99.4349C218.354 100.5 211.68 101.699 204.124 103.03C196.569 104.362 187.502 105.96 176.925 107.824C165.088 109.689 155.014 111.154 146.703 112.219C138.644 113.284 131.593 113.817 125.548 113.817C119.756 113.817 114.593 113.284 110.06 112.219C105.778 111.154 101.623 109.556 97.5933 107.425C86.7639 101.832 81.601 97.8368 82.1047 95.4398C82.6084 93.0428 89.2823 91.3116 102.126 90.2462C108.171 89.7136 114.089 89.0477 119.882 88.2487C125.926 87.4497 132.222 86.5175 138.77 85.4522C145.57 84.1205 152.622 82.6556 159.925 81.0576C167.481 79.1933 175.666 76.9294 184.48 74.266C196.317 70.8037 205.635 68.1403 212.435 66.2759C219.487 64.4116 225.279 63.3462 229.813 63.0799C234.346 62.8136 238.25 63.2131 241.524 64.2784C245.049 65.3438 249.205 67.0749 253.99 69.472C262.553 73.7334 266.834 78.1279 266.834 82.6557C267.086 87.1834 263.308 90.5126 255.501 92.6433ZM245.679 152.769C253.738 159.427 256.886 165.153 255.123 169.947C253.612 174.742 246.812 177.272 234.724 177.538C225.909 177.804 217.346 178.204 209.035 178.737C200.976 179.003 192.917 179.802 184.858 181.134C168.488 184.063 155.644 186.327 146.326 187.925C137.007 189.257 129.704 190.056 124.415 190.322C119.378 190.589 115.6 190.189 113.082 189.124C110.563 188.058 108.045 186.46 105.526 184.33C96.2081 176.606 92.0526 171.812 93.06 169.947C94.0674 167.817 99.4821 166.618 109.304 166.352C114.089 166.352 120.259 165.819 127.815 164.754C135.622 163.689 143.555 162.357 151.614 160.759C159.673 159.161 167.481 157.43 175.036 155.565C182.591 153.701 188.636 151.97 193.169 150.372C205.761 145.844 215.961 143.713 223.768 143.98C231.576 144.246 238.879 147.176 245.679 152.769ZM331.811 243.257C343.144 257.106 347.173 266.028 343.899 270.024C340.877 274.019 330.803 274.551 313.678 271.622C303.856 270.024 294.663 268.692 286.1 267.626C277.538 266.561 268.093 266.028 257.768 266.028C247.442 265.762 235.479 265.895 221.88 266.428C208.28 266.961 191.658 267.893 172.014 269.225C160.933 270.024 149.851 271.089 138.77 272.421C127.689 273.486 117.237 274.818 107.415 276.416C97.5932 277.747 88.6527 279.212 80.5936 280.81C72.7864 282.408 66.6161 283.873 62.0829 285.205C56.7941 286.803 52.3868 287.868 48.8609 288.401C45.335 289.2 41.9351 289.2 38.6611 288.401C35.639 287.868 32.239 286.536 28.4613 284.406C24.9355 282.009 20.4022 278.679 14.8616 274.418C4.0322 266.162 -0.878783 260.835 0.128603 258.438C1.13599 255.775 9.19506 254.842 24.3059 255.641C27.8317 255.908 32.9946 255.908 39.7944 255.641C46.5943 255.375 52.6386 254.975 57.9274 254.443C82.6084 251.779 105.904 249.249 127.815 246.852C149.977 244.455 169.999 242.191 187.88 240.061C206.013 237.93 221.754 236.066 235.101 234.468C248.701 232.603 259.279 231.005 266.834 229.674C277.16 228.075 285.723 227.143 292.523 226.877C299.322 226.611 305.115 227.01 309.9 228.075C314.685 229.141 318.715 231.005 321.989 233.669C325.263 236.066 328.537 239.262 331.811 243.257Z" fill="black"/>
</svg>
