<svg width="345" height="345" viewBox="0 0 345 345" fill="none" xmlns="http://www.w3.org/2000/svg">
<path d="M325.127 213.624C331.385 222.986 333.912 229.759 332.709 233.942C331.505 237.925 326.27 239.22 317.004 237.826C307.737 236.432 298.169 235.934 288.301 236.332C278.433 236.531 267.421 237.726 255.266 239.917C248.767 240.913 243.231 241.909 238.658 242.905C234.205 243.702 230.234 244.598 226.744 245.594C223.374 246.391 220.305 247.287 217.537 248.283C214.89 249.08 212.122 250.076 209.233 251.271C205.021 253.064 201.17 253.462 197.68 252.466C194.31 251.271 190.64 247.686 186.668 241.71C184.622 238.722 183.118 236.232 182.155 234.24C181.193 232.249 180.832 230.755 181.072 229.759C181.313 228.563 182.276 227.767 183.961 227.368C185.645 226.97 188.173 226.771 191.542 226.771C194.671 226.771 197.319 226.771 199.485 226.771C201.772 226.771 203.878 226.771 205.803 226.771C207.729 226.572 209.655 226.372 211.58 226.173C213.506 225.974 215.792 225.675 218.44 225.277C227.105 223.882 235.348 222.389 243.171 220.795C250.994 219.201 258.094 217.708 264.472 216.313C270.851 214.72 276.326 213.325 280.9 212.13C285.473 210.736 288.843 209.541 291.009 208.545C299.192 205.158 305.932 203.665 311.227 204.063C316.522 204.461 321.156 207.648 325.127 213.624Z" fill="black"/>
<path fill-rule="evenodd" clip-rule="evenodd" d="M211.58 226.173C213.506 225.974 215.792 225.675 218.44 225.277C227.105 223.882 235.349 222.388 243.171 220.795C250.994 219.201 258.094 217.707 264.472 216.313C270.851 214.72 276.326 213.325 280.9 212.13C285.473 210.736 288.843 209.541 291.009 208.545C299.192 205.158 305.932 203.664 311.227 204.063C316.522 204.461 321.156 207.648 325.127 213.624C331.385 222.986 333.912 229.759 332.709 233.942C331.505 237.925 326.27 239.22 317.004 237.826C307.737 236.431 298.169 235.933 288.301 236.332C278.433 236.531 267.421 237.726 255.266 239.917C248.767 240.913 243.231 241.909 238.658 242.905C234.205 243.702 230.234 244.598 226.744 245.594C223.374 246.391 220.305 247.287 217.537 248.283C214.89 249.08 212.122 250.076 209.233 251.271C205.021 253.064 201.17 253.462 197.68 252.466C194.31 251.271 190.64 247.686 186.668 241.71C184.622 238.722 183.118 236.232 182.155 234.24C181.193 232.248 180.832 230.754 181.072 229.759C181.313 228.563 182.276 227.767 183.961 227.368C185.645 226.97 188.173 226.771 191.542 226.771H205.803L211.58 226.173ZM205.545 221.771L211.066 221.2C212.886 221.011 215.084 220.725 217.671 220.336C226.265 218.953 234.432 217.472 242.173 215.896C249.948 214.312 257 212.828 263.332 211.444C269.623 209.872 275.024 208.497 279.537 207.318C284.012 205.952 287.086 204.845 288.92 204.002L289.008 203.961L289.097 203.925C297.58 200.414 305.171 198.593 311.602 199.077C318.931 199.628 324.784 204.077 329.287 210.85C332.524 215.694 334.949 220.087 336.4 223.977C337.813 227.763 338.551 231.72 337.514 235.324L337.505 235.356L337.495 235.387C336.231 239.571 332.831 241.827 329.08 242.754C325.522 243.634 321.134 243.503 316.26 242.77C307.322 241.425 298.072 240.941 288.503 241.328L288.452 241.33L288.402 241.331C278.853 241.524 268.11 242.683 256.153 244.838L256.088 244.85L256.023 244.86C249.59 245.846 244.162 246.824 239.722 247.791L239.631 247.811L239.539 247.827C235.213 248.601 231.41 249.462 228.116 250.402L228.006 250.434L227.894 250.46C224.677 251.221 221.793 252.066 219.23 252.988L219.105 253.033L218.978 253.071C216.516 253.812 213.913 254.747 211.167 255.882C206.19 257.995 201.153 258.657 196.308 257.274L196.157 257.231L196.009 257.179C191.016 255.408 186.585 250.612 182.523 244.507C180.422 241.436 178.768 238.723 177.654 236.416C177.079 235.227 176.594 234.007 176.302 232.8C176.027 231.66 175.843 230.207 176.189 228.684C177.003 224.851 180.17 223.127 182.81 222.502C185.077 221.966 188.077 221.771 191.542 221.771H205.545Z" fill="black"/>
<path d="M258.534 125.333C269.534 133.133 274.034 139.433 272.034 144.233C270.234 149.033 261.634 150.433 246.234 148.433C242.634 148.033 237.634 147.733 231.234 147.533C224.834 147.133 217.634 146.933 209.634 146.933C201.834 146.933 193.434 147.133 184.434 147.533C175.434 147.733 166.534 148.133 157.734 148.733C157.734 159.333 157.634 170.033 157.434 180.833C157.434 191.433 157.334 200.533 157.134 208.133C156.934 226.333 156.334 241.733 155.334 254.333C154.534 266.933 152.734 278.133 149.934 287.933C146.134 301.733 142.734 308.433 139.734 308.033C136.734 307.633 133.834 300.333 131.034 286.133C130.034 280.333 129.234 274.033 128.634 267.233C128.034 260.633 127.634 253.933 127.434 247.133C127.034 231.933 126.734 216.133 126.534 199.733C126.334 183.333 126.234 167.333 126.234 151.733C113.834 153.333 102.334 155.133 91.7339 157.133C81.1339 158.933 72.0339 160.933 64.4339 163.133C60.2339 164.333 56.7339 165.233 53.9339 165.833C51.3339 166.233 48.7339 166.333 46.1339 166.133C43.7339 165.733 41.0339 164.833 38.0339 163.433C35.0339 162.033 31.3339 159.933 26.9339 157.133C16.7339 150.733 12.1339 146.633 13.1339 144.833C14.1339 143.033 21.2339 142.233 34.4339 142.433C37.6339 142.633 42.3339 142.533 48.5339 142.133C54.7339 141.733 61.9339 141.133 70.1339 140.333C78.5339 139.533 87.5339 138.633 97.1339 137.633C106.734 136.433 116.434 135.133 126.234 133.733V99.2333C126.234 92.0333 125.934 86.1333 125.334 81.5333C124.934 76.7333 124.334 72.7333 123.534 69.5333C122.734 66.1333 121.634 63.3333 120.234 61.1333C119.034 58.9333 117.534 56.7333 115.734 54.5333C112.334 50.5333 110.034 47.2333 108.834 44.6333C107.834 41.8333 108.034 39.8333 109.434 38.6333C111.034 37.2333 114.034 36.7333 118.434 37.1333C123.034 37.3333 129.234 38.5333 137.034 40.7333C144.834 42.9333 150.834 44.8333 155.034 46.4333C159.234 48.0333 162.134 49.7333 163.734 51.5333C165.534 53.3333 166.134 55.4333 165.534 57.8333C165.134 60.2333 164.234 63.2333 162.834 66.8333C162.234 68.6333 161.634 70.6333 161.034 72.8333C160.434 74.8333 159.934 77.7333 159.534 81.5333C159.134 85.1333 158.734 89.9333 158.334 95.9333C158.134 101.933 158.034 109.733 158.034 119.333C158.034 120.933 158.034 122.533 158.034 124.133C158.034 125.733 157.934 127.433 157.734 129.233C171.134 127.233 181.634 125.533 189.234 124.133C197.034 122.733 203.534 121.433 208.734 120.233C215.934 118.433 221.934 117.233 226.734 116.633C231.534 116.033 235.734 116.033 239.334 116.633C242.934 117.033 246.134 118.033 248.934 119.633C251.934 121.033 255.134 122.933 258.534 125.333Z" fill="black"/>
<path fill-rule="evenodd" clip-rule="evenodd" d="M261.418 121.249L261.426 121.255C267.096 125.275 271.499 129.182 274.228 133.002C276.938 136.797 278.583 141.417 276.683 146.075C274.779 151.024 269.804 153.042 265.037 153.818C260.034 154.633 253.484 154.414 245.637 153.398C242.234 153.022 237.402 152.729 231.078 152.531L231 152.528L230.922 152.524C224.648 152.131 217.554 151.933 209.634 151.933C201.918 151.933 193.593 152.131 184.656 152.528L184.601 152.531L184.545 152.532C177.204 152.695 169.931 152.993 162.728 153.424C162.703 162.504 162.605 171.656 162.434 180.88C162.434 191.471 162.334 200.589 162.133 208.227C161.932 226.46 161.331 241.955 160.322 254.689C159.503 267.54 157.66 279.084 154.749 289.283C152.826 296.261 150.923 301.768 148.993 305.571C148.04 307.45 146.925 309.228 145.567 310.565C144.217 311.894 141.983 313.378 139.073 312.99C136.407 312.634 134.61 310.885 133.534 309.481C132.398 307.998 131.466 306.128 130.662 304.104C129.042 300.026 127.547 294.295 126.129 287.101L126.117 287.042L126.107 286.983C125.08 281.03 124.264 274.593 123.654 267.68C123.654 267.678 123.654 267.675 123.653 267.673L128.634 267.233L123.655 267.686C123.654 267.684 123.654 267.682 123.654 267.68C123.045 260.978 122.639 254.178 122.436 247.28L122.436 247.273L122.436 247.265C122.035 232.04 121.735 216.216 121.534 199.794C121.359 185.369 121.26 171.251 121.239 157.442C122.888 157.216 124.554 156.993 126.238 156.775C126.235 155.09 126.234 153.409 126.234 151.733C124.551 151.951 122.884 152.171 121.234 152.396C121.234 154.073 121.236 155.755 121.239 157.442C111.059 158.837 101.534 160.373 92.6611 162.047L92.6162 162.055L92.5712 162.063C82.0966 163.841 73.1913 165.804 65.8244 167.936L65.816 167.939L65.8077 167.941C61.5495 169.158 57.9321 170.09 54.9817 170.722L54.8388 170.753L54.6944 170.775C51.7194 171.233 48.7356 171.348 45.7506 171.119L45.5302 171.102L45.3121 171.065C42.3372 170.57 39.1934 169.492 35.9197 167.964C32.6482 166.438 28.7495 164.215 24.2634 161.36C24.2678 161.363 24.2722 161.366 24.2766 161.369L26.9341 157.133L24.2497 161.352C24.2543 161.355 24.2588 161.357 24.2634 161.36C19.1115 158.127 15.1273 155.326 12.5072 152.991C11.2293 151.852 9.99839 150.583 9.16589 149.219C8.43862 148.027 7.16105 145.289 8.7633 142.405C10.0222 140.139 12.3681 139.273 13.4997 138.91C14.9679 138.439 16.7347 138.131 18.6492 137.915C22.5175 137.479 27.8432 137.333 34.5098 137.434L34.628 137.436L34.746 137.443C37.6213 137.623 42.0665 137.54 48.2122 137.144C54.3433 136.748 61.4867 136.153 69.6486 135.357L69.66 135.356C78.0286 134.559 86.9967 133.662 96.565 132.666C96.5479 132.668 96.5309 132.67 96.5139 132.672L97.1341 137.633L96.6161 132.66C96.599 132.662 96.582 132.664 96.565 132.666C104.715 131.647 112.938 130.555 121.234 129.391V133.733H126.234L125.527 128.784C124.094 128.988 122.663 129.191 121.234 129.391V99.2334C121.234 92.1456 120.937 86.4826 120.376 82.1801L120.361 82.0646L120.351 81.9486C119.965 77.307 119.396 73.595 118.683 70.746L118.675 70.7124L118.667 70.6786C117.955 67.6509 117.032 65.4147 116.016 63.8177L115.925 63.6756L115.845 63.5276C114.818 61.6451 113.509 59.7132 111.893 57.7346C111.903 57.7469 111.914 57.7593 111.924 57.7716L115.734 54.5334L111.864 57.6995C111.874 57.7112 111.883 57.7229 111.893 57.7346C108.415 53.6398 105.777 49.941 104.294 46.7286L104.201 46.5256L104.125 46.315C102.914 42.9244 102.345 38.1421 106.161 34.8535C106.155 34.8592 106.148 34.8648 106.142 34.8705L109.434 38.6334L106.18 34.8371C106.174 34.8425 106.167 34.848 106.161 34.8535C107.895 33.3443 110.028 32.6155 112.062 32.2764C114.093 31.9379 116.362 31.9311 118.77 32.1434C118.73 32.1416 118.691 32.1398 118.651 32.1381L118.434 37.1333L118.887 32.1539C118.848 32.1503 118.809 32.1468 118.77 32.1434C123.923 32.383 130.515 33.6996 138.391 35.9211C146.241 38.135 152.407 40.0821 156.814 41.7609C161.161 43.417 164.948 45.4338 167.372 48.1016C167.338 48.0669 167.304 48.0323 167.27 47.9978L163.734 51.5334L167.471 48.2115C167.438 48.1748 167.405 48.1381 167.372 48.1016C170.245 51.0348 171.376 54.8013 170.435 58.8387C170.446 58.7774 170.456 58.7162 170.466 58.6553L165.534 57.8333L170.385 59.046C170.402 58.9769 170.419 58.9077 170.435 58.8387C169.948 61.6433 168.946 64.8979 167.54 68.5277C167.552 68.4899 167.565 68.4521 167.577 68.4145L162.834 66.8334L167.494 68.6456C167.509 68.6063 167.525 68.567 167.54 68.5277C166.986 70.1962 166.425 72.0683 165.858 74.149L165.841 74.2097L165.823 74.2701C165.358 75.8219 164.896 78.3568 164.507 82.0568L164.505 82.0712L164.504 82.0855C164.117 85.5645 163.725 90.2545 163.329 96.1828C163.329 96.1551 163.33 96.1275 163.331 96.0999L158.334 95.9334L163.323 96.266C163.325 96.2382 163.327 96.2105 163.329 96.1828C163.133 102.094 163.034 109.805 163.034 119.333V123.377C161.417 123.624 159.75 123.876 158.034 124.133C158.034 125.733 157.934 127.433 157.734 129.233C159.484 128.972 161.184 128.716 162.835 128.465C162.967 126.975 163.034 125.531 163.034 124.133V123.377C173.555 121.772 181.981 120.385 188.328 119.216L188.34 119.214L188.351 119.212C196.082 117.824 202.481 116.544 207.566 115.372C207.551 115.375 207.536 115.379 207.521 115.383L208.734 120.233L207.61 115.361C207.595 115.365 207.58 115.368 207.566 115.372C214.851 113.552 221.049 112.305 226.114 111.672C231.193 111.037 235.853 111.002 240.021 111.679C239.976 111.674 239.931 111.669 239.886 111.664L239.334 116.633L240.156 111.701C240.111 111.694 240.066 111.687 240.021 111.679C244.091 112.147 247.853 113.293 251.231 115.188C251.17 115.159 251.109 115.131 251.049 115.102L248.934 119.633L251.415 115.292C251.354 115.257 251.292 115.222 251.231 115.188C254.502 116.731 257.899 118.765 261.418 121.249ZM258.534 125.333C269.534 133.133 274.034 139.433 272.034 144.233C270.234 149.033 261.634 150.433 246.234 148.433C242.634 148.033 237.634 147.733 231.234 147.533C224.834 147.133 217.634 146.933 209.634 146.933C201.834 146.933 193.434 147.133 184.434 147.533M157.734 148.733C157.734 159.333 157.634 170.033 157.434 180.833C157.434 191.433 157.334 200.533 157.134 208.133C156.934 226.333 156.334 241.733 155.334 254.333C154.534 266.933 152.734 278.133 149.934 287.933C146.134 301.733 142.734 308.433 139.734 308.033C136.734 307.633 133.834 300.333 131.034 286.133" fill="black"/>
</svg>
