<svg width="345" height="345" viewBox="0 0 345 345" fill="none" xmlns="http://www.w3.org/2000/svg">
<mask id="path-1-outside-1_531_709" maskUnits="userSpaceOnUse" x="-4" y="20" width="355" height="305" fill="black">
<rect fill="white" x="-4" y="20" width="355" height="305"/>
<path fill-rule="evenodd" clip-rule="evenodd" d="M261.034 132.233C263.034 127.433 258.534 121.133 247.534 113.333C244.134 110.933 240.934 109.033 237.934 107.633C235.134 106.033 231.934 105.033 228.334 104.633C224.734 104.033 220.534 104.033 215.734 104.633C210.934 105.233 204.934 106.433 197.734 108.233C192.534 109.433 186.034 110.733 178.234 112.133C170.634 113.533 160.134 115.233 146.734 117.233C146.934 115.433 147.034 113.733 147.034 112.133V107.333C147.034 97.7333 147.134 89.9333 147.334 83.9333C147.734 77.9333 148.134 73.1333 148.534 69.5334C148.934 65.7333 149.434 62.8333 150.034 60.8333C150.634 58.6333 151.234 56.6333 151.834 54.8333C153.234 51.2333 154.134 48.2333 154.534 45.8333C155.134 43.4333 154.534 41.3334 152.734 39.5334C151.134 37.7334 148.234 36.0334 144.034 34.4334C139.834 32.8333 133.834 30.9333 126.034 28.7333C118.234 26.5333 112.034 25.3333 107.434 25.1333C103.034 24.7333 100.034 25.2333 98.4339 26.6333C97.0339 27.8333 96.8339 29.8333 97.8339 32.6333C99.0339 35.2333 101.334 38.5333 104.734 42.5333C106.534 44.7333 108.034 46.9333 109.234 49.1333C110.634 51.3333 111.734 54.1334 112.534 57.5334C113.334 60.7333 113.934 64.7333 114.334 69.5334C114.934 74.1334 115.234 80.0333 115.234 87.2333V121.733C105.434 123.133 95.7339 124.433 86.1339 125.633C76.5339 126.633 67.5339 127.533 59.1339 128.333C50.9339 129.133 43.7339 129.733 37.5339 130.133C31.3339 130.533 26.6339 130.633 23.4339 130.433C10.2339 130.233 3.13393 131.033 2.13393 132.833C1.13393 134.633 5.73393 138.733 15.9339 145.133C20.3339 147.933 24.0339 150.033 27.0339 151.433C30.0339 152.833 32.7339 153.733 35.1339 154.133C37.7339 154.333 40.3339 154.233 42.9339 153.833C45.7339 153.233 49.2339 152.333 53.4339 151.133C61.0339 148.933 70.1339 146.933 80.7339 145.133C91.3339 143.133 102.834 141.333 115.234 139.733C115.234 155.333 115.334 171.333 115.534 187.733C115.734 204.133 116.034 219.933 116.434 235.133C116.634 241.933 117.034 248.633 117.634 255.233C118.234 262.033 119.034 268.333 120.034 274.133C122.834 288.333 125.734 295.633 128.734 296.033C131.734 296.433 135.134 289.733 138.934 275.933C141.734 266.133 143.534 254.933 144.334 242.333C145.334 229.733 145.934 214.333 146.134 196.133C146.334 188.533 146.434 179.433 146.434 168.833C146.634 158.033 146.734 147.333 146.734 136.733C155.534 136.133 164.434 135.733 173.434 135.533C182.434 135.133 190.834 134.933 198.634 134.933C206.634 134.933 213.834 135.133 220.234 135.533C226.634 135.733 231.634 136.033 235.234 136.433C250.634 138.433 259.234 137.033 261.034 132.233ZM283.833 195.932C286.768 195.133 289.776 194.234 292.857 193.235C297.406 191.637 299.607 189.14 299.46 185.744C299.46 182.347 296.966 179.051 291.977 175.855C289.189 174.057 286.768 172.758 284.714 171.959C282.806 171.16 280.532 170.86 277.891 171.06C275.25 171.26 271.875 172.059 267.767 173.457C263.805 174.856 258.376 176.854 251.48 179.451C246.344 181.448 241.576 183.146 237.174 184.545C232.919 185.744 228.81 186.842 224.849 187.841C221.034 188.64 217.366 189.34 213.844 189.939C210.469 190.538 207.021 191.038 203.5 191.437C196.017 192.236 192.128 193.535 191.835 195.333C191.541 197.131 194.549 200.128 200.859 204.323C203.206 205.921 205.627 207.12 208.122 207.919C210.763 208.718 213.771 209.118 217.145 209.118C220.667 209.118 224.775 208.718 229.471 207.919C234.313 207.12 240.182 206.021 247.078 204.623L262.925 201.027C267.326 200.028 271.215 199.129 274.589 198.33C277.964 197.531 281.046 196.731 283.833 195.932ZM292.637 242.458C293.664 238.862 291.83 234.567 287.135 229.573C283.173 225.377 278.918 223.18 274.369 222.98C269.821 222.78 263.878 224.379 256.542 227.775C253.901 228.973 250.379 230.272 245.978 231.67C241.576 233.069 237.027 234.367 232.332 235.566C227.637 236.765 223.015 237.764 218.466 238.563C214.064 239.362 210.469 239.761 207.682 239.761C201.959 239.961 198.804 240.86 198.218 242.458C197.631 243.857 200.052 247.453 205.481 253.246C206.948 254.845 208.415 256.043 209.882 256.842C211.35 257.642 213.551 257.941 216.485 257.741C219.566 257.542 223.822 256.942 229.251 255.943C234.679 254.745 242.163 253.047 251.7 250.849C256.395 249.85 261.091 249.251 265.786 249.051C270.628 248.652 275.617 248.352 280.752 248.152C287.795 247.952 291.757 246.054 292.637 242.458ZM344.359 305.766C346.266 302.769 343.918 296.077 337.316 285.688C335.408 282.691 333.501 280.294 331.593 278.496C329.686 276.498 327.338 275.1 324.55 274.301C321.763 273.502 318.388 273.202 314.426 273.402C310.464 273.602 305.476 274.301 299.46 275.499C295.058 276.498 288.895 277.697 280.972 279.095C273.196 280.294 264.025 281.693 253.461 283.291C243.043 284.889 231.378 286.587 218.466 288.385C205.701 290.183 192.128 292.081 177.749 294.079C174.668 294.478 171.146 294.778 167.185 294.978C163.223 295.177 160.215 295.177 158.161 294.978C149.357 294.378 144.662 295.078 144.075 297.076C143.488 298.873 146.349 302.869 152.659 309.062C155.887 312.259 158.528 314.756 160.582 316.554C162.783 318.152 164.764 319.151 166.524 319.551C168.432 320.15 170.413 320.15 172.467 319.551C174.521 319.151 177.089 318.352 180.17 317.153C182.811 316.154 186.406 315.055 190.955 313.857C195.65 312.658 200.859 311.559 206.581 310.56C212.303 309.362 218.393 308.363 224.849 307.564C231.305 306.565 237.761 305.766 244.217 305.166C255.662 304.168 265.346 303.468 273.269 303.069C281.192 302.669 288.162 302.569 294.178 302.769C300.194 302.769 305.696 303.169 310.685 303.968C315.673 304.767 321.029 305.766 326.751 306.964C336.729 309.162 342.598 308.762 344.359 305.766Z"/>
</mask>
<path fill-rule="evenodd" clip-rule="evenodd" d="M261.034 132.233C263.034 127.433 258.534 121.133 247.534 113.333C244.134 110.933 240.934 109.033 237.934 107.633C235.134 106.033 231.934 105.033 228.334 104.633C224.734 104.033 220.534 104.033 215.734 104.633C210.934 105.233 204.934 106.433 197.734 108.233C192.534 109.433 186.034 110.733 178.234 112.133C170.634 113.533 160.134 115.233 146.734 117.233C146.934 115.433 147.034 113.733 147.034 112.133V107.333C147.034 97.7333 147.134 89.9333 147.334 83.9333C147.734 77.9333 148.134 73.1333 148.534 69.5334C148.934 65.7333 149.434 62.8333 150.034 60.8333C150.634 58.6333 151.234 56.6333 151.834 54.8333C153.234 51.2333 154.134 48.2333 154.534 45.8333C155.134 43.4333 154.534 41.3334 152.734 39.5334C151.134 37.7334 148.234 36.0334 144.034 34.4334C139.834 32.8333 133.834 30.9333 126.034 28.7333C118.234 26.5333 112.034 25.3333 107.434 25.1333C103.034 24.7333 100.034 25.2333 98.4339 26.6333C97.0339 27.8333 96.8339 29.8333 97.8339 32.6333C99.0339 35.2333 101.334 38.5333 104.734 42.5333C106.534 44.7333 108.034 46.9333 109.234 49.1333C110.634 51.3333 111.734 54.1334 112.534 57.5334C113.334 60.7333 113.934 64.7333 114.334 69.5334C114.934 74.1334 115.234 80.0333 115.234 87.2333V121.733C105.434 123.133 95.7339 124.433 86.1339 125.633C76.5339 126.633 67.5339 127.533 59.1339 128.333C50.9339 129.133 43.7339 129.733 37.5339 130.133C31.3339 130.533 26.6339 130.633 23.4339 130.433C10.2339 130.233 3.13393 131.033 2.13393 132.833C1.13393 134.633 5.73393 138.733 15.9339 145.133C20.3339 147.933 24.0339 150.033 27.0339 151.433C30.0339 152.833 32.7339 153.733 35.1339 154.133C37.7339 154.333 40.3339 154.233 42.9339 153.833C45.7339 153.233 49.2339 152.333 53.4339 151.133C61.0339 148.933 70.1339 146.933 80.7339 145.133C91.3339 143.133 102.834 141.333 115.234 139.733C115.234 155.333 115.334 171.333 115.534 187.733C115.734 204.133 116.034 219.933 116.434 235.133C116.634 241.933 117.034 248.633 117.634 255.233C118.234 262.033 119.034 268.333 120.034 274.133C122.834 288.333 125.734 295.633 128.734 296.033C131.734 296.433 135.134 289.733 138.934 275.933C141.734 266.133 143.534 254.933 144.334 242.333C145.334 229.733 145.934 214.333 146.134 196.133C146.334 188.533 146.434 179.433 146.434 168.833C146.634 158.033 146.734 147.333 146.734 136.733C155.534 136.133 164.434 135.733 173.434 135.533C182.434 135.133 190.834 134.933 198.634 134.933C206.634 134.933 213.834 135.133 220.234 135.533C226.634 135.733 231.634 136.033 235.234 136.433C250.634 138.433 259.234 137.033 261.034 132.233ZM283.833 195.932C286.768 195.133 289.776 194.234 292.857 193.235C297.406 191.637 299.607 189.14 299.46 185.744C299.46 182.347 296.966 179.051 291.977 175.855C289.189 174.057 286.768 172.758 284.714 171.959C282.806 171.16 280.532 170.86 277.891 171.06C275.25 171.26 271.875 172.059 267.767 173.457C263.805 174.856 258.376 176.854 251.48 179.451C246.344 181.448 241.576 183.146 237.174 184.545C232.919 185.744 228.81 186.842 224.849 187.841C221.034 188.64 217.366 189.34 213.844 189.939C210.469 190.538 207.021 191.038 203.5 191.437C196.017 192.236 192.128 193.535 191.835 195.333C191.541 197.131 194.549 200.128 200.859 204.323C203.206 205.921 205.627 207.12 208.122 207.919C210.763 208.718 213.771 209.118 217.145 209.118C220.667 209.118 224.775 208.718 229.471 207.919C234.313 207.12 240.182 206.021 247.078 204.623L262.925 201.027C267.326 200.028 271.215 199.129 274.589 198.33C277.964 197.531 281.046 196.731 283.833 195.932ZM292.637 242.458C293.664 238.862 291.83 234.567 287.135 229.573C283.173 225.377 278.918 223.18 274.369 222.98C269.821 222.78 263.878 224.379 256.542 227.775C253.901 228.973 250.379 230.272 245.978 231.67C241.576 233.069 237.027 234.367 232.332 235.566C227.637 236.765 223.015 237.764 218.466 238.563C214.064 239.362 210.469 239.761 207.682 239.761C201.959 239.961 198.804 240.86 198.218 242.458C197.631 243.857 200.052 247.453 205.481 253.246C206.948 254.845 208.415 256.043 209.882 256.842C211.35 257.642 213.551 257.941 216.485 257.741C219.566 257.542 223.822 256.942 229.251 255.943C234.679 254.745 242.163 253.047 251.7 250.849C256.395 249.85 261.091 249.251 265.786 249.051C270.628 248.652 275.617 248.352 280.752 248.152C287.795 247.952 291.757 246.054 292.637 242.458ZM344.359 305.766C346.266 302.769 343.918 296.077 337.316 285.688C335.408 282.691 333.501 280.294 331.593 278.496C329.686 276.498 327.338 275.1 324.55 274.301C321.763 273.502 318.388 273.202 314.426 273.402C310.464 273.602 305.476 274.301 299.46 275.499C295.058 276.498 288.895 277.697 280.972 279.095C273.196 280.294 264.025 281.693 253.461 283.291C243.043 284.889 231.378 286.587 218.466 288.385C205.701 290.183 192.128 292.081 177.749 294.079C174.668 294.478 171.146 294.778 167.185 294.978C163.223 295.177 160.215 295.177 158.161 294.978C149.357 294.378 144.662 295.078 144.075 297.076C143.488 298.873 146.349 302.869 152.659 309.062C155.887 312.259 158.528 314.756 160.582 316.554C162.783 318.152 164.764 319.151 166.524 319.551C168.432 320.15 170.413 320.15 172.467 319.551C174.521 319.151 177.089 318.352 180.17 317.153C182.811 316.154 186.406 315.055 190.955 313.857C195.65 312.658 200.859 311.559 206.581 310.56C212.303 309.362 218.393 308.363 224.849 307.564C231.305 306.565 237.761 305.766 244.217 305.166C255.662 304.168 265.346 303.468 273.269 303.069C281.192 302.669 288.162 302.569 294.178 302.769C300.194 302.769 305.696 303.169 310.685 303.968C315.673 304.767 321.029 305.766 326.751 306.964C336.729 309.162 342.598 308.762 344.359 305.766Z" fill="black"/>
<path d="M247.534 113.333L250.426 109.255L250.417 109.249L247.534 113.333ZM261.034 132.233L256.419 130.31L256.384 130.393L256.352 130.478L261.034 132.233ZM237.934 107.633L235.453 111.975L235.632 112.077L235.82 112.164L237.934 107.633ZM228.334 104.633L227.512 109.565L227.646 109.588L227.782 109.603L228.334 104.633ZM215.734 104.633L216.354 109.595L215.734 104.633ZM197.734 108.233L198.858 113.105L198.903 113.095L198.947 113.084L197.734 108.233ZM178.234 112.133L177.351 107.212L177.339 107.214L177.328 107.216L178.234 112.133ZM146.734 117.233L141.765 116.681L141.047 123.137L147.472 122.179L146.734 117.233ZM147.334 83.9333L142.345 83.6007L142.339 83.6837L142.337 83.7668L147.334 83.9333ZM148.534 69.5334L153.503 70.0855L153.505 70.0711L153.506 70.0568L148.534 69.5334ZM150.034 60.8333L154.823 62.2701L154.841 62.2097L154.858 62.1489L150.034 60.8333ZM151.834 54.8333L147.174 53.0211L147.129 53.1356L147.09 53.2522L151.834 54.8333ZM154.534 45.8333L149.683 44.6207L149.635 44.8144L149.602 45.0114L154.534 45.8333ZM152.734 39.5334L148.997 42.8552L149.095 42.965L149.198 43.0689L152.734 39.5334ZM144.034 34.4334L145.814 29.7609L145.814 29.7609L144.034 34.4334ZM126.034 28.7333L124.677 33.5456L126.034 28.7333ZM107.434 25.1333L106.981 30.1128L107.099 30.1235L107.217 30.1286L107.434 25.1333ZM98.4339 26.6333L101.688 30.4296L101.707 30.413L101.726 30.3962L98.4339 26.6333ZM97.8339 32.6333L93.1252 34.315L93.2004 34.5256L93.2941 34.7286L97.8339 32.6333ZM104.734 42.5333L108.604 39.3671L108.574 39.3308L108.544 39.2951L104.734 42.5333ZM109.234 49.1333L104.844 51.5276L104.925 51.6755L105.016 51.8177L109.234 49.1333ZM112.534 57.5334L107.667 58.6786L107.675 58.7124L107.683 58.746L112.534 57.5334ZM114.334 69.5334L109.351 69.9486L109.361 70.0646L109.376 70.18L114.334 69.5334ZM115.234 121.733L115.941 126.683L120.234 126.07V121.733H115.234ZM86.1339 125.633L86.652 130.606L86.7031 130.601L86.7541 130.595L86.1339 125.633ZM59.1339 128.333L58.6599 123.356L58.6484 123.357L59.1339 128.333ZM23.4339 130.433L23.7458 125.443L23.6279 125.436L23.5097 125.434L23.4339 130.433ZM2.13393 132.833L6.50471 135.261H6.50472L2.13393 132.833ZM15.9339 145.133L18.6183 140.915L18.6049 140.906L18.5914 140.898L15.9339 145.133ZM35.1339 154.133L34.3119 159.065L34.53 159.101L34.7505 159.118L35.1339 154.133ZM42.9339 153.833L43.6942 158.775L43.8387 158.753L43.9816 158.722L42.9339 153.833ZM53.4339 151.133L54.8075 155.941L54.8159 155.938L54.8242 155.936L53.4339 151.133ZM80.7339 145.133L81.571 150.062L81.6161 150.055L81.661 150.046L80.7339 145.133ZM115.234 139.733H120.234V134.046L114.594 134.774L115.234 139.733ZM115.534 187.733L110.534 187.794L115.534 187.733ZM116.434 235.133L111.436 235.264L111.436 235.272L111.436 235.28L116.434 235.133ZM117.634 255.233L122.615 254.793L122.613 254.78L117.634 255.233ZM120.034 274.133L115.107 274.982L115.117 275.042L115.128 275.1L120.034 274.133ZM138.934 275.933L134.126 274.559L134.12 274.582L134.113 274.606L138.934 275.933ZM144.334 242.333L139.35 241.937L139.346 241.977L139.344 242.016L144.334 242.333ZM146.134 196.133L141.136 196.001L141.135 196.04L141.134 196.078L146.134 196.133ZM146.434 168.833L141.435 168.74L141.434 168.787V168.833H146.434ZM146.734 136.733L146.394 131.745L141.734 132.063V136.733H146.734ZM173.434 135.533L173.545 140.532L173.601 140.531L173.656 140.528L173.434 135.533ZM220.234 135.533L219.922 140.523L220 140.528L220.078 140.531L220.234 135.533ZM235.234 136.433L235.878 131.475L235.832 131.469L235.786 131.464L235.234 136.433ZM292.857 193.235L294.399 197.992L294.457 197.973L294.515 197.953L292.857 193.235ZM283.833 195.932L282.52 191.108L282.488 191.117L282.456 191.126L283.833 195.932ZM299.46 185.744H294.46V185.852L294.465 185.959L299.46 185.744ZM291.977 175.855L289.267 180.056L289.273 180.061L289.279 180.065L291.977 175.855ZM284.714 171.959L282.782 176.571L282.841 176.595L282.901 176.619L284.714 171.959ZM277.891 171.06L278.268 176.046H278.268L277.891 171.06ZM267.767 173.457L266.155 168.724L266.129 168.733L266.102 168.742L267.767 173.457ZM251.48 179.451L249.718 174.771L249.692 174.781L249.667 174.791L251.48 179.451ZM237.174 184.545L238.53 189.358L238.609 189.335L238.688 189.31L237.174 184.545ZM224.849 187.841L225.874 192.735L225.973 192.714L226.071 192.69L224.849 187.841ZM213.844 189.939L213.005 185.01L212.987 185.013L212.97 185.016L213.844 189.939ZM203.5 191.437L204.031 196.409L204.047 196.407L204.063 196.405L203.5 191.437ZM191.835 195.333L186.9 194.528V194.528L191.835 195.333ZM200.859 204.323L203.672 200.19L203.65 200.174L203.627 200.159L200.859 204.323ZM208.122 207.919L206.596 212.681L206.635 212.693L206.674 212.705L208.122 207.919ZM229.471 207.919L228.656 202.986L228.644 202.988L228.632 202.99L229.471 207.919ZM247.078 204.623L248.072 209.523L248.128 209.511L248.184 209.499L247.078 204.623ZM262.925 201.027L261.818 196.151V196.151L262.925 201.027ZM287.135 229.573L290.778 226.148L290.77 226.14L287.135 229.573ZM292.637 242.458L287.829 241.085L287.803 241.177L287.78 241.269L292.637 242.458ZM274.369 222.98L274.15 227.975L274.369 222.98ZM256.542 227.775L258.608 232.328L258.625 232.32L258.642 232.312L256.542 227.775ZM245.978 231.67L244.464 226.905L244.464 226.905L245.978 231.67ZM232.332 235.566L233.569 240.411H233.569L232.332 235.566ZM218.466 238.563L217.601 233.638L217.587 233.641L217.573 233.643L218.466 238.563ZM207.682 239.761V234.761H207.594L207.507 234.764L207.682 239.761ZM198.218 242.458L202.828 244.393L202.872 244.289L202.911 244.182L198.218 242.458ZM205.481 253.246L209.164 249.865L209.147 249.846L209.129 249.828L205.481 253.246ZM209.882 256.842L207.491 261.233L207.491 261.233L209.882 256.842ZM216.485 257.741L216.162 252.752L216.154 252.752L216.146 252.753L216.485 257.741ZM229.251 255.943L230.155 260.861L230.242 260.845L230.329 260.826L229.251 255.943ZM251.7 250.849L250.66 245.959L250.618 245.967L250.577 245.977L251.7 250.849ZM265.786 249.051L265.998 254.047L266.098 254.042L266.197 254.034L265.786 249.051ZM280.752 248.152L280.61 243.154L280.584 243.155L280.558 243.156L280.752 248.152ZM337.316 285.688L341.536 283.006L341.534 283.003L337.316 285.688ZM344.359 305.766L340.141 303.081L340.093 303.156L340.048 303.233L344.359 305.766ZM331.593 278.496L327.977 281.949L328.068 282.044L328.164 282.134L331.593 278.496ZM314.426 273.402L314.678 278.395L314.426 273.402ZM299.46 275.499L298.483 270.596L298.418 270.609L298.353 270.623L299.46 275.499ZM280.972 279.095L281.734 284.037L281.788 284.029L281.841 284.019L280.972 279.095ZM253.461 283.291L252.713 278.347L252.702 278.349L253.461 283.291ZM218.466 288.385L217.776 283.433L217.769 283.434L218.466 288.385ZM177.749 294.079L178.392 299.037L178.415 299.034L178.437 299.031L177.749 294.079ZM158.161 294.978L158.645 290.001L158.573 289.994L158.5 289.989L158.161 294.978ZM144.075 297.076L148.828 298.627L148.851 298.556L148.872 298.485L144.075 297.076ZM152.659 309.062L156.177 305.509L156.169 305.502L156.161 305.494L152.659 309.062ZM160.582 316.554L157.289 320.316L157.46 320.466L157.644 320.6L160.582 316.554ZM166.524 319.551L168.023 314.78L167.829 314.719L167.631 314.674L166.524 319.551ZM172.467 319.551L171.512 314.642L171.287 314.686L171.066 314.751L172.467 319.551ZM180.17 317.153L178.401 312.476L178.379 312.485L178.357 312.493L180.17 317.153ZM190.955 313.857L189.718 309.012L189.699 309.017L189.68 309.022L190.955 313.857ZM206.581 310.56L207.441 315.486L207.524 315.472L207.606 315.454L206.581 310.56ZM224.849 307.564L225.463 312.526L225.538 312.517L225.613 312.505L224.849 307.564ZM244.217 305.166L243.782 300.185L243.768 300.187L243.755 300.188L244.217 305.166ZM273.269 303.069L273.017 298.075L273.269 303.069ZM294.178 302.769L294.012 307.766L294.095 307.769H294.178V302.769ZM310.685 303.968L311.475 299.031H311.475L310.685 303.968ZM326.751 306.964L327.827 302.081L327.802 302.076L327.776 302.071L326.751 306.964ZM244.642 117.412C249.972 121.192 253.319 124.335 255.09 126.815C256.864 129.298 256.466 130.196 256.419 130.31L265.649 134.156C267.602 129.471 265.954 124.819 263.228 121.002C260.499 117.182 256.096 113.275 250.426 109.255L244.642 117.412ZM235.82 112.164C238.492 113.412 241.434 115.148 244.651 117.418L250.417 109.249C246.834 106.719 243.376 104.655 240.048 103.102L235.82 112.164ZM227.782 109.603C230.786 109.937 233.315 110.753 235.453 111.975L240.415 103.292C236.952 101.314 233.081 100.13 228.886 99.6639L227.782 109.603ZM216.354 109.595C220.82 109.036 224.515 109.066 227.512 109.565L229.156 99.7014C224.953 99.0009 220.248 99.0302 215.114 99.6719L216.354 109.595ZM198.947 113.084C206.043 111.31 211.829 110.16 216.354 109.595L215.114 99.6719C210.039 100.306 203.825 101.557 196.521 103.383L198.947 113.084ZM179.117 117.055C186.963 115.646 193.55 114.33 198.858 113.105L196.61 103.361C191.518 104.536 185.104 105.82 177.351 107.212L179.117 117.055ZM147.472 122.179C160.893 120.175 171.458 118.466 179.14 117.051L177.328 107.216C169.81 108.601 159.375 110.291 145.996 112.288L147.472 122.179ZM142.034 112.133C142.034 113.527 141.947 115.041 141.765 116.681L151.703 117.785C151.921 115.826 152.034 113.94 152.034 112.133H142.034ZM142.034 107.333V112.133H152.034V107.333H142.034ZM142.337 83.7668C142.134 89.8449 142.034 97.7064 142.034 107.333H152.034C152.034 97.7603 152.134 90.0218 152.331 84.0999L142.337 83.7668ZM143.565 68.9812C143.153 72.686 142.747 77.5683 142.345 83.6007L152.323 84.266C152.721 78.2983 153.115 73.5807 153.503 70.0855L143.565 68.9812ZM145.245 59.3966C144.51 61.8448 143.972 65.1099 143.561 69.0099L153.506 70.0568C153.896 66.3568 154.358 63.8219 154.823 62.2701L145.245 59.3966ZM147.09 53.2522C146.456 55.1553 145.83 57.2456 145.21 59.5177L154.858 62.1489C155.438 60.021 156.012 58.1113 156.577 56.4145L147.09 53.2522ZM149.602 45.0114C149.281 46.9355 148.513 49.578 147.174 53.0211L156.494 56.6456C157.955 52.8887 158.987 49.5312 159.466 46.6553L149.602 45.0114ZM149.198 43.0689C149.598 43.4682 149.696 43.7251 149.726 43.832C149.755 43.9315 149.799 44.1566 149.683 44.6207L159.385 47.046C160.426 42.8824 159.267 38.9956 156.269 35.9978L149.198 43.0689ZM142.254 39.1058C146.247 40.627 148.217 41.9776 148.997 42.8552L156.471 36.2115C154.051 33.4891 150.221 31.4397 145.814 29.7609L142.254 39.1058ZM124.677 33.5456C132.427 35.7317 138.261 37.5846 142.254 39.1058L145.814 29.7609C141.407 28.0821 135.24 26.1349 127.391 23.9211L124.677 33.5456ZM107.217 30.1286C111.246 30.3038 117.013 31.3841 124.677 33.5456L127.391 23.9211C119.455 21.6826 112.822 20.3629 107.651 20.1381L107.217 30.1286ZM101.726 30.3962C101.589 30.5169 101.748 30.3 102.706 30.1403C103.642 29.9843 105.033 29.9357 106.981 30.1128L107.887 20.1539C105.435 19.931 103.126 19.9324 101.062 20.2764C99.0199 20.6167 96.8793 21.3498 95.1414 22.8705L101.726 30.3962ZM102.543 30.9516C102.371 30.4721 102.283 30.1128 102.241 29.8613C102.199 29.6092 102.211 29.5102 102.209 29.5308C102.206 29.5618 102.185 29.7123 102.081 29.9194C101.974 30.1339 101.828 30.3096 101.688 30.4296L95.18 22.837C91.3427 26.1261 91.9122 30.9187 93.1252 34.315L102.543 30.9516ZM108.544 39.2951C105.237 35.4046 103.287 32.516 102.374 30.538L93.2941 34.7286C94.7812 37.9506 97.4312 41.6621 100.924 45.7716L108.544 39.2951ZM113.623 46.7391C112.256 44.2327 110.575 41.7763 108.604 39.3671L100.864 45.6995C102.493 47.6903 103.812 49.634 104.844 51.5276L113.623 46.7391ZM117.401 56.3882C116.513 52.6158 115.236 49.252 113.452 46.4489L105.016 51.8177C106.032 53.4146 106.954 55.6509 107.667 58.6786L117.401 56.3882ZM119.317 69.1181C118.903 64.1597 118.272 59.8717 117.385 56.3207L107.683 58.746C108.395 61.595 108.964 65.3069 109.351 69.9486L119.317 69.1181ZM120.234 87.2333C120.234 79.9211 119.931 73.7841 119.292 68.8867L109.376 70.18C109.937 74.4826 110.234 80.1456 110.234 87.2333H120.234ZM120.234 121.733V87.2333H110.234V121.733H120.234ZM86.7541 130.595C96.3838 129.391 106.113 128.087 115.941 126.683L114.527 116.784C104.755 118.18 95.0841 119.476 85.5138 120.672L86.7541 130.595ZM59.608 133.311C68.0245 132.509 77.0393 131.608 86.652 130.606L85.6159 120.66C76.0286 121.659 67.0434 122.557 58.6599 123.356L59.608 133.311ZM37.8558 135.123C44.1247 134.718 51.3813 134.113 59.6194 133.31L58.6484 123.357C50.4865 124.153 43.3432 124.748 37.212 125.144L37.8558 135.123ZM23.122 135.424C26.6467 135.644 31.6015 135.526 37.8558 135.123L37.212 125.144C31.0664 125.54 26.6212 125.623 23.7458 125.443L23.122 135.424ZM6.50472 135.261C5.74577 136.628 4.66244 136.718 5.55582 136.432C6.11264 136.253 7.13328 136.036 8.76876 135.852C12.0005 135.488 16.8249 135.334 23.3582 135.433L23.5097 125.434C16.843 125.333 11.5173 125.479 7.64909 125.915C5.73457 126.13 3.96771 126.439 2.49954 126.91C1.36792 127.273 -0.977911 128.139 -2.23686 130.405L6.50472 135.261ZM18.5914 140.898C13.5496 137.734 10.1384 135.288 8.16071 133.525C7.13866 132.615 6.76956 132.121 6.70208 132.01C6.52939 131.727 7.60697 133.277 6.50471 135.261L-2.23686 130.405C-3.83911 133.289 -2.56153 136.027 -1.83422 137.219C-1.00171 138.583 0.229195 139.852 1.50715 140.991C4.12941 143.328 8.11826 146.132 13.2765 149.368L18.5914 140.898ZM29.1484 146.902C26.4232 145.63 22.9265 143.656 18.6183 140.915L13.2496 149.351C17.7414 152.21 21.6447 154.436 24.9195 155.964L29.1484 146.902ZM35.9559 149.201C34.1308 148.897 31.8746 148.174 29.1484 146.902L24.9195 155.964C28.1932 157.492 31.337 158.569 34.3119 159.065L35.9559 149.201ZM42.1737 148.891C39.9487 149.233 37.7324 149.318 35.5174 149.148L34.7505 159.118C37.7355 159.348 40.7192 159.233 43.6942 158.775L42.1737 148.891ZM52.0603 146.325C47.9185 147.509 44.5359 148.376 41.8863 148.944L43.9816 158.722C46.932 158.09 50.5494 157.157 54.8075 155.941L52.0603 146.325ZM79.8969 140.204C69.1715 142.025 59.8768 144.063 52.0436 146.33L54.8242 155.936C62.1911 153.803 71.0964 151.841 81.571 150.062L79.8969 140.204ZM114.594 134.774C102.113 136.385 90.5157 138.199 79.8069 140.22L81.661 150.046C92.1522 148.067 103.555 146.281 115.874 144.692L114.594 134.774ZM120.534 187.672C120.334 171.291 120.234 155.312 120.234 139.733H110.234C110.234 155.354 110.334 171.375 110.534 187.794L120.534 187.672ZM121.432 235.001C121.033 219.827 120.733 204.05 120.534 187.672L110.534 187.794C110.735 204.216 111.035 220.039 111.436 235.264L121.432 235.001ZM122.613 254.78C122.023 248.285 121.629 241.687 121.432 234.986L111.436 235.28C111.639 242.179 112.045 248.981 112.654 255.686L122.613 254.78ZM124.961 273.283C123.988 267.639 123.204 261.477 122.615 254.793L112.653 255.672C113.264 262.589 114.08 269.027 115.107 274.982L124.961 273.283ZM129.395 291.077C130.561 291.232 130.87 291.918 130.472 291.398C130.132 290.955 129.602 290.039 128.956 288.412C127.676 285.191 126.321 280.171 124.939 273.166L115.128 275.1C116.547 282.295 118.042 288.025 119.662 292.104C120.466 294.127 121.398 295.998 122.534 297.48C123.61 298.885 125.407 300.634 128.073 300.989L129.395 291.077ZM134.113 274.606C132.238 281.417 130.543 286.152 129.075 289.045C128.328 290.517 127.793 291.2 127.551 291.438C127.301 291.685 127.985 290.889 129.395 291.077L128.073 300.989C130.983 301.377 133.217 299.893 134.567 298.565C135.925 297.228 137.039 295.449 137.993 293.571C139.925 289.763 141.83 284.249 143.755 277.26L134.113 274.606ZM139.344 242.016C138.562 254.339 136.808 265.174 134.126 274.559L143.742 277.307C146.66 267.092 148.506 255.527 149.324 242.65L139.344 242.016ZM141.134 196.078C140.935 214.209 140.338 229.488 139.35 241.937L149.318 242.729C150.33 229.978 150.933 214.457 151.134 196.188L141.134 196.078ZM141.434 168.833C141.434 179.405 141.334 188.459 141.136 196.001L151.132 196.264C151.334 188.607 151.434 179.461 151.434 168.833H141.434ZM141.734 136.733C141.734 147.302 141.634 157.971 141.435 168.74L151.433 168.926C151.634 158.095 151.734 147.365 151.734 136.733H141.734ZM173.323 130.534C164.248 130.736 155.272 131.14 146.394 131.745L147.074 141.722C155.796 141.127 164.62 140.73 173.545 140.532L173.323 130.534ZM198.634 129.933C190.75 129.933 182.275 130.135 173.212 130.538L173.656 140.528C182.593 140.131 190.918 139.933 198.634 139.933V129.933ZM220.546 130.543C214.02 130.135 206.714 129.933 198.634 129.933V139.933C206.554 139.933 213.648 140.131 219.922 140.523L220.546 130.543ZM235.786 131.464C231.992 131.042 226.839 130.737 220.39 130.536L220.078 140.531C226.429 140.729 231.276 141.024 234.682 141.403L235.786 131.464ZM256.352 130.478C256.349 130.487 256.342 130.509 256.298 130.558C256.248 130.615 256.12 130.739 255.849 130.901C255.271 131.246 254.21 131.659 252.431 131.948C248.844 132.532 243.41 132.453 235.878 131.475L234.59 141.392C242.458 142.413 249.024 142.634 254.037 141.818C258.831 141.038 263.836 139.001 265.716 133.989L256.352 130.478ZM291.315 188.479C288.305 189.455 285.373 190.331 282.52 191.108L285.147 200.757C288.163 199.935 291.247 199.013 294.399 197.992L291.315 188.479ZM294.465 185.959C294.483 186.397 294.395 186.601 294.168 186.858C293.831 187.24 293.005 187.883 291.2 188.518L294.515 197.953C297.257 196.989 299.807 195.584 301.67 193.47C303.645 191.229 304.583 188.486 304.455 185.528L294.465 185.959ZM289.279 180.065C293.899 183.025 294.46 185.016 294.46 185.744H304.46C304.46 179.679 300.032 175.078 294.674 171.645L289.279 180.065ZM282.901 176.619C284.527 177.251 286.635 178.359 289.267 180.056L294.687 171.653C291.742 169.754 289.009 168.265 286.526 167.299L282.901 176.619ZM278.268 176.046C280.335 175.889 281.779 176.151 282.782 176.571L286.646 167.347C283.833 166.169 280.728 165.831 277.514 166.074L278.268 176.046ZM269.378 178.191C273.306 176.853 276.228 176.2 278.268 176.046L277.514 166.074C274.271 166.319 270.444 167.264 266.155 168.724L269.378 178.191ZM253.242 184.13C260.126 181.537 265.518 179.554 269.431 178.172L266.102 168.742C262.092 170.158 256.626 172.17 249.718 174.771L253.242 184.13ZM238.688 189.31C243.207 187.874 248.077 186.139 253.293 184.11L249.667 174.791C244.612 176.757 239.944 178.419 235.66 179.78L238.688 189.31ZM226.071 192.69C230.081 191.679 234.234 190.568 238.53 189.358L235.818 179.732C231.604 180.919 227.54 182.006 223.626 182.993L226.071 192.69ZM214.683 194.868C218.272 194.257 222.003 193.546 225.874 192.735L223.824 182.947C220.065 183.735 216.459 184.422 213.005 185.01L214.683 194.868ZM204.063 196.405C207.685 195.994 211.237 195.48 214.718 194.862L212.97 185.016C209.702 185.596 206.357 186.081 202.936 186.469L204.063 196.405ZM196.77 196.138C196.558 197.437 195.779 198.041 195.704 198.096C195.633 198.149 195.829 197.995 196.555 197.753C197.984 197.276 200.403 196.796 204.031 196.409L202.969 186.466C199.113 186.877 195.846 187.447 193.387 188.268C192.169 188.675 190.87 189.233 189.754 190.06C188.634 190.889 187.259 192.33 186.9 194.528L196.77 196.138ZM203.627 200.159C200.569 198.126 198.558 196.541 197.4 195.387C197.123 195.111 196.923 194.888 196.784 194.716C196.716 194.631 196.667 194.565 196.633 194.517C196.616 194.493 196.605 194.475 196.596 194.462C196.588 194.449 196.585 194.443 196.585 194.443C196.585 194.443 196.589 194.45 196.596 194.465C196.604 194.479 196.614 194.502 196.627 194.533C196.653 194.595 196.691 194.696 196.726 194.834C196.797 195.114 196.862 195.571 196.77 196.138L186.9 194.528C186.57 196.55 187.257 198.264 187.883 199.37C188.532 200.517 189.422 201.554 190.342 202.471C192.192 204.314 194.839 206.325 198.09 208.486L203.627 200.159ZM209.647 203.157C207.647 202.517 205.656 201.54 203.672 200.19L198.045 208.456C200.756 210.302 203.608 211.723 206.596 212.681L209.647 203.157ZM217.145 204.118C214.156 204.118 211.65 203.763 209.57 203.133L206.674 212.705C209.875 213.673 213.385 214.118 217.145 214.118V204.118ZM228.632 202.99C224.124 203.757 220.307 204.118 217.145 204.118V214.118C221.026 214.118 225.427 213.679 230.31 212.848L228.632 202.99ZM246.084 199.722C239.225 201.113 233.419 202.2 228.656 202.986L230.285 212.852C235.206 212.04 241.139 210.929 248.072 209.523L246.084 199.722ZM261.818 196.151L245.971 199.747L248.184 209.499L264.031 205.903L261.818 196.151ZM273.437 193.464C270.082 194.259 266.209 195.154 261.818 196.151L264.031 205.903C268.444 204.901 272.348 203.999 275.742 203.195L273.437 193.464ZM282.456 191.126C279.755 191.9 276.751 192.68 273.437 193.464L275.742 203.195C279.178 202.381 282.336 201.563 285.211 200.739L282.456 191.126ZM283.492 232.997C287.972 237.763 288.077 240.219 287.829 241.085L297.445 243.832C299.251 237.506 295.688 231.371 290.778 226.148L283.492 232.997ZM274.15 227.975C277.077 228.104 280.18 229.491 283.499 233.006L290.77 226.14C286.166 221.264 280.759 218.256 274.589 217.985L274.15 227.975ZM258.642 232.312C265.735 229.029 270.8 227.828 274.15 227.975L274.589 217.985C268.841 217.732 262.022 219.728 254.441 223.237L258.642 232.312ZM247.491 236.436C251.985 235.008 255.714 233.641 258.608 232.328L254.476 223.222C252.087 224.306 248.773 225.536 244.464 226.905L247.491 236.436ZM233.569 240.411C238.352 239.189 242.994 237.865 247.491 236.436L244.464 226.905C240.158 228.273 235.702 229.545 231.095 230.721L233.569 240.411ZM219.331 243.487C224.011 242.665 228.756 241.639 233.569 240.411L231.095 230.721C226.517 231.89 222.019 232.862 217.601 233.638L219.331 243.487ZM207.682 244.761C210.892 244.761 214.816 244.307 219.359 243.482L217.573 233.643C213.312 234.417 210.046 234.761 207.682 234.761V244.761ZM202.911 244.182C202.591 245.053 202.047 245.461 201.915 245.55C201.802 245.625 201.898 245.535 202.394 245.394C203.397 245.108 205.147 244.853 207.856 244.758L207.507 234.764C204.493 234.87 201.805 235.164 199.653 235.777C197.863 236.287 194.714 237.494 193.524 240.735L202.911 244.182ZM209.129 249.828C206.474 246.994 204.727 244.876 203.741 243.412C203.238 242.665 203.067 242.283 203.035 242.196C202.941 241.939 203.427 242.967 202.828 244.393L193.607 240.523C192.715 242.649 193.283 244.65 193.648 245.643C194.074 246.805 194.738 247.945 195.446 248.997C196.881 251.128 199.059 253.705 201.832 256.665L209.129 249.828ZM212.274 252.451C211.41 251.981 210.364 251.172 209.164 249.865L201.797 256.628C203.532 258.517 205.421 260.106 207.491 261.233L212.274 252.451ZM216.146 252.753C213.53 252.931 212.486 252.567 212.274 252.451L207.491 261.233C210.214 262.716 213.572 262.951 216.825 262.73L216.146 252.753ZM228.346 251.026C222.985 252.012 218.953 252.571 216.162 252.752L216.809 262.731C220.18 262.512 224.658 261.872 230.155 260.861L228.346 251.026ZM250.577 245.977C241.045 248.173 233.579 249.867 228.173 251.061L230.329 260.826C235.779 259.622 243.28 257.92 252.823 255.721L250.577 245.977ZM265.573 244.056C260.594 244.267 255.622 244.903 250.66 245.959L252.74 255.74C257.169 254.797 261.587 254.234 265.998 254.047L265.573 244.056ZM280.558 243.156C275.354 243.358 270.293 243.662 265.375 244.068L266.197 254.034C270.963 253.641 275.879 253.345 280.946 253.148L280.558 243.156ZM287.78 241.269C287.764 241.336 287.755 241.634 286.845 242.07C285.763 242.588 283.806 243.063 280.61 243.154L280.894 253.15C284.741 253.041 288.286 252.467 291.166 251.088C294.218 249.626 296.63 247.177 297.494 243.647L287.78 241.269ZM333.096 288.37C336.319 293.441 338.322 297.337 339.31 300.154C340.433 303.353 339.741 303.708 340.141 303.081L348.577 308.451C350.883 304.827 349.972 300.338 348.747 296.844C347.387 292.968 344.916 288.324 341.536 283.006L333.096 288.37ZM328.164 282.134C329.685 283.568 331.34 285.611 333.098 288.373L341.534 283.003C339.477 279.772 337.317 277.02 335.023 274.858L328.164 282.134ZM323.173 279.107C325.152 279.674 326.713 280.626 327.977 281.949L335.21 275.043C332.658 272.371 329.525 270.525 325.928 269.494L323.173 279.107ZM314.678 278.395C318.278 278.214 321.069 278.504 323.173 279.107L325.928 269.494C322.456 268.499 318.498 268.19 314.174 268.408L314.678 278.395ZM300.437 280.403C306.328 279.229 311.054 278.578 314.678 278.395L314.174 268.408C309.875 268.625 304.624 269.372 298.483 270.596L300.437 280.403ZM281.841 284.019C289.793 282.616 296.048 281.401 300.566 280.375L298.353 270.623C294.068 271.596 287.998 272.778 280.103 274.172L281.841 284.019ZM254.209 288.235C264.776 286.636 273.951 285.237 281.734 284.037L280.21 274.154C272.44 275.352 263.274 276.749 252.713 278.347L254.209 288.235ZM219.156 293.337C232.085 291.537 243.774 289.835 254.219 288.233L252.702 278.349C242.312 279.943 230.671 281.637 217.776 283.433L219.156 293.337ZM178.437 299.031C192.819 297.033 206.395 295.135 219.163 293.336L217.769 283.434C205.007 285.231 191.438 287.129 177.061 289.126L178.437 299.031ZM167.436 299.971C171.495 299.767 175.151 299.458 178.392 299.037L177.106 289.12C174.184 289.499 170.797 289.789 166.933 289.984L167.436 299.971ZM157.677 299.954C160.106 300.19 163.409 300.174 167.436 299.971L166.933 289.984C163.037 290.181 160.324 290.164 158.645 290.001L157.677 299.954ZM148.872 298.485C148.491 299.781 147.595 300.256 147.559 300.274C147.536 300.285 147.854 300.135 148.773 299.998C150.581 299.729 153.528 299.674 157.821 299.966L158.5 289.989C153.99 289.682 150.187 289.677 147.3 290.107C145.872 290.32 144.355 290.681 143.012 291.368C141.656 292.06 139.952 293.371 139.278 295.666L148.872 298.485ZM156.161 305.494C153.077 302.467 151.025 300.157 149.846 298.51C149.249 297.677 149.008 297.194 148.935 297.009C148.822 296.72 149.21 297.457 148.828 298.627L139.322 295.524C138.646 297.593 139.172 299.504 139.627 300.663C140.123 301.926 140.881 303.167 141.715 304.332C143.397 306.68 145.93 309.464 149.156 312.63L156.161 305.494ZM163.875 312.791C161.932 311.09 159.373 308.674 156.177 305.509L149.14 312.615C152.4 315.843 155.124 318.421 157.289 320.316L163.875 312.791ZM167.631 314.674C166.778 314.481 165.424 313.891 163.52 312.508L157.644 320.6C160.141 322.413 162.749 323.821 165.418 324.427L167.631 314.674ZM171.066 314.751C169.89 315.094 168.921 315.063 168.023 314.78L165.026 324.321C167.942 325.237 170.935 325.206 173.867 324.35L171.066 314.751ZM178.357 312.493C175.414 313.638 173.156 314.323 171.512 314.642L173.421 324.459C175.886 323.979 178.763 323.065 181.983 321.813L178.357 312.493ZM189.68 309.022C185.059 310.24 181.275 311.389 178.401 312.476L181.939 321.83C184.347 320.919 187.753 319.871 192.229 318.692L189.68 309.022ZM205.721 305.635C199.896 306.652 194.559 307.776 189.718 309.012L192.191 318.701C196.74 317.54 201.821 316.467 207.441 315.486L205.721 305.635ZM224.234 302.602C217.656 303.416 211.428 304.437 205.556 305.667L207.606 315.454C213.178 314.287 219.13 313.31 225.463 312.526L224.234 302.602ZM243.755 300.188C237.197 300.797 230.64 301.608 224.084 302.623L225.613 312.505C231.97 311.522 238.325 310.735 244.679 310.145L243.755 300.188ZM273.017 298.075C265.012 298.479 255.263 299.183 243.782 300.185L244.652 310.148C256.06 309.152 265.679 308.458 273.521 308.062L273.017 298.075ZM294.344 297.772C288.153 297.566 281.039 297.671 273.017 298.075L273.521 308.062C281.346 307.668 288.171 307.572 294.012 307.766L294.344 297.772ZM311.475 299.031C306.181 298.183 300.41 297.769 294.178 297.769V307.769C299.977 307.769 305.21 308.155 309.894 308.905L311.475 299.031ZM327.776 302.071C321.988 300.858 316.554 299.844 311.475 299.031L309.894 308.905C314.793 309.69 320.07 310.673 325.726 311.858L327.776 302.071ZM340.048 303.233C340.452 302.544 340.725 303.159 338.297 303.324C336.061 303.477 332.639 303.141 327.827 302.081L325.676 311.847C330.841 312.985 335.343 313.549 338.976 313.301C342.417 313.067 346.504 311.984 348.67 308.299L340.048 303.233Z" fill="black" mask="url(#path-1-outside-1_531_709)"/>
</svg>
