<svg width="345" height="345" viewBox="0 0 345 345" fill="none" xmlns="http://www.w3.org/2000/svg">
<path fill-rule="evenodd" clip-rule="evenodd" d="M261.034 132.233C263.034 127.433 258.534 121.133 247.534 113.333C244.134 110.933 240.934 109.033 237.934 107.633C235.134 106.033 231.934 105.033 228.334 104.633C224.734 104.033 220.534 104.033 215.734 104.633C210.934 105.233 204.934 106.433 197.734 108.233C192.534 109.433 186.034 110.733 178.234 112.133C170.634 113.533 160.134 115.233 146.734 117.233C146.934 115.433 147.034 113.733 147.034 112.133V107.333C147.034 97.7333 147.134 89.9333 147.334 83.9333C147.734 77.9333 148.134 73.1333 148.534 69.5334C148.934 65.7333 149.434 62.8333 150.034 60.8333C150.634 58.6333 151.234 56.6333 151.834 54.8333C153.234 51.2333 154.134 48.2333 154.534 45.8333C155.134 43.4334 154.534 41.3334 152.734 39.5334C151.134 37.7334 148.234 36.0334 144.034 34.4334C139.834 32.8333 133.834 30.9333 126.034 28.7333C118.234 26.5333 112.034 25.3333 107.434 25.1333C103.034 24.7333 100.034 25.2333 98.4339 26.6333C97.0339 27.8333 96.8339 29.8333 97.8339 32.6333C99.0339 35.2333 101.334 38.5333 104.734 42.5333C106.534 44.7333 108.034 46.9333 109.234 49.1333C110.634 51.3333 111.734 54.1334 112.534 57.5334C113.334 60.7333 113.934 64.7333 114.334 69.5334C114.934 74.1334 115.234 80.0333 115.234 87.2333V121.733C105.434 123.133 95.7339 124.433 86.1339 125.633C76.5339 126.633 67.5339 127.533 59.1339 128.333C50.9339 129.133 43.7339 129.733 37.5339 130.133C31.3339 130.533 26.6339 130.633 23.4339 130.433C10.2339 130.233 3.13393 131.033 2.13393 132.833C1.13393 134.633 5.73393 138.733 15.9339 145.133C20.3339 147.933 24.0339 150.033 27.0339 151.433C30.0339 152.833 32.7339 153.733 35.1339 154.133C37.7339 154.333 40.3339 154.233 42.9339 153.833C45.7339 153.233 49.2339 152.333 53.4339 151.133C61.0339 148.933 70.1339 146.933 80.7339 145.133C91.3339 143.133 102.834 141.333 115.234 139.733C115.234 155.333 115.334 171.333 115.534 187.733C115.734 204.133 116.034 219.933 116.434 235.133C116.634 241.933 117.034 248.633 117.634 255.233C118.234 262.033 119.034 268.333 120.034 274.133C122.834 288.333 125.734 295.633 128.734 296.033C131.734 296.433 135.134 289.733 138.934 275.933C141.734 266.133 143.534 254.933 144.334 242.333C145.334 229.733 145.934 214.333 146.134 196.133C146.334 188.533 146.434 179.433 146.434 168.833C146.634 158.033 146.734 147.333 146.734 136.733C155.534 136.133 164.434 135.733 173.434 135.533C182.434 135.133 190.834 134.933 198.634 134.933C206.634 134.933 213.834 135.133 220.234 135.533C226.634 135.733 231.634 136.033 235.234 136.433C250.634 138.433 259.234 137.033 261.034 132.233ZM283.833 195.932C286.768 195.133 289.776 194.234 292.857 193.235C297.406 191.637 299.607 189.14 299.46 185.744C299.46 182.347 296.966 179.051 291.977 175.855C289.189 174.057 286.768 172.758 284.714 171.959C282.806 171.16 280.532 170.86 277.891 171.06C275.25 171.26 271.875 172.059 267.767 173.457C263.805 174.856 258.376 176.854 251.48 179.451C246.344 181.448 241.576 183.146 237.174 184.545C232.919 185.744 228.81 186.842 224.849 187.841C221.034 188.64 217.366 189.34 213.844 189.939C210.469 190.538 207.021 191.038 203.5 191.437C196.017 192.236 192.128 193.535 191.835 195.333C191.541 197.131 194.549 200.128 200.859 204.323C203.206 205.921 205.627 207.12 208.122 207.919C210.763 208.718 213.771 209.118 217.145 209.118C220.667 209.118 224.775 208.718 229.471 207.919C234.313 207.12 240.182 206.021 247.078 204.623L262.925 201.027C267.326 200.028 271.215 199.129 274.589 198.33C277.964 197.531 281.046 196.731 283.833 195.932ZM292.637 242.458C293.664 238.862 291.83 234.567 287.135 229.573C283.173 225.377 278.918 223.18 274.369 222.98C269.821 222.78 263.878 224.379 256.542 227.775C253.901 228.973 250.379 230.272 245.978 231.67C241.576 233.069 237.027 234.367 232.332 235.566C227.637 236.765 223.015 237.764 218.466 238.563C214.064 239.362 210.469 239.761 207.682 239.761C201.959 239.961 198.804 240.86 198.218 242.458C197.631 243.857 200.052 247.453 205.481 253.246C206.948 254.845 208.415 256.043 209.882 256.842C211.35 257.642 213.551 257.941 216.485 257.741C219.566 257.542 223.822 256.942 229.251 255.943C234.679 254.745 242.163 253.047 251.7 250.849C256.395 249.85 261.091 249.251 265.786 249.051C270.628 248.652 275.617 248.352 280.752 248.152C287.795 247.952 291.757 246.054 292.637 242.458ZM344.359 305.766C346.266 302.769 343.918 296.077 337.316 285.688C335.408 282.691 333.501 280.294 331.593 278.496C329.686 276.498 327.338 275.1 324.55 274.301C321.763 273.502 318.388 273.202 314.426 273.402C310.464 273.602 305.476 274.301 299.46 275.499C295.058 276.498 288.895 277.697 280.972 279.095C273.196 280.294 264.025 281.693 253.461 283.291C243.043 284.889 231.378 286.587 218.466 288.385C205.701 290.183 192.128 292.081 177.749 294.079C174.668 294.478 171.146 294.778 167.185 294.978C163.223 295.177 160.215 295.177 158.161 294.978C149.357 294.378 144.662 295.078 144.075 297.076C143.488 298.873 146.349 302.869 152.658 309.062C155.887 312.259 158.528 314.756 160.582 316.554C162.783 318.152 164.764 319.151 166.524 319.551C168.432 320.15 170.413 320.15 172.467 319.551C174.521 319.151 177.089 318.352 180.17 317.153C182.811 316.154 186.406 315.055 190.955 313.857C195.65 312.658 200.859 311.559 206.581 310.56C212.303 309.362 218.393 308.363 224.849 307.564C231.305 306.565 237.761 305.766 244.217 305.166C255.662 304.168 265.346 303.468 273.269 303.069C281.192 302.669 288.162 302.569 294.178 302.769C300.194 302.769 305.696 303.169 310.685 303.968C315.673 304.767 321.029 305.766 326.751 306.964C336.729 309.162 342.598 308.762 344.359 305.766Z" fill="black"/>
<path fill-rule="evenodd" clip-rule="evenodd" d="M250.418 109.249L250.426 109.255C256.096 113.275 260.499 117.182 263.228 121.002C265.938 124.797 267.583 129.417 265.683 134.075C263.779 139.024 258.804 141.042 254.037 141.818C249.034 142.633 242.484 142.414 234.637 141.398C231.234 141.022 226.402 140.728 220.078 140.531L220 140.528L219.922 140.524C213.648 140.131 206.554 139.933 198.634 139.933C190.918 139.933 182.593 140.131 173.656 140.528L173.601 140.531L173.545 140.532C166.204 140.695 158.931 140.992 151.728 141.424C151.703 150.504 151.605 159.655 151.434 168.879C151.434 179.47 151.334 188.589 151.133 196.227C150.932 214.46 150.331 229.955 149.322 242.689C148.503 255.54 146.66 267.084 143.749 277.283C141.826 284.261 139.923 289.768 137.993 293.571C137.04 295.449 135.925 297.228 134.567 298.565C133.217 299.893 130.983 301.377 128.073 300.989C125.407 300.634 123.61 298.885 122.534 297.48C121.398 295.998 120.466 294.127 119.662 292.104C118.042 288.025 116.547 282.295 115.129 275.1L115.117 275.042L115.107 274.983C114.08 269.029 113.264 262.593 112.654 255.679C112.654 255.677 112.654 255.675 112.653 255.672L117.634 255.233L112.655 255.686C112.654 255.684 112.654 255.682 112.654 255.679C112.045 248.977 111.639 242.177 111.436 235.28L111.436 235.272L111.436 235.265C111.035 220.039 110.735 204.216 110.534 187.794C110.359 173.368 110.26 159.251 110.239 145.441C111.888 145.215 113.554 144.993 115.238 144.774C115.235 143.089 115.234 141.409 115.234 139.733C113.551 139.95 111.884 140.171 110.234 140.396C110.234 142.073 110.236 143.755 110.239 145.441C100.059 146.837 90.534 148.372 81.6611 150.046L81.6162 150.055L81.5712 150.062C71.0965 151.841 62.1913 153.803 54.8244 155.936L54.816 155.938L54.8077 155.941C50.5495 157.157 46.9321 158.09 43.9817 158.722L43.8388 158.753L43.6944 158.775C40.7194 159.233 37.7356 159.348 34.7506 159.118L34.5302 159.101L34.3121 159.065C31.3372 158.569 28.1934 157.492 24.9197 155.964C21.6481 154.437 17.7494 152.214 13.2632 149.36C13.2677 149.363 13.2722 149.366 13.2766 149.368L15.9341 145.133L13.2497 149.351C13.2542 149.354 13.2587 149.357 13.2632 149.36C8.11151 146.127 4.1273 143.326 1.50731 140.991C0.229353 139.852 -1.00155 138.583 -1.83406 137.219C-2.56138 136.027 -3.83895 133.289 -2.2367 130.405C-0.977752 128.139 1.36808 127.273 2.4997 126.91C3.96787 126.439 5.73473 126.13 7.64925 125.915C11.5175 125.479 16.8432 125.333 23.5098 125.434L23.628 125.436L23.746 125.443C26.6214 125.623 31.0666 125.54 37.2122 125.144C43.3433 124.748 50.4867 124.153 58.6486 123.357L58.66 123.356C67.0286 122.559 75.9968 121.662 85.5649 120.666C85.5479 120.668 85.5309 120.67 85.5139 120.672L86.1341 125.633L85.6161 120.66C85.599 120.662 85.582 120.664 85.5649 120.666C93.715 119.647 101.938 118.555 110.234 117.391V121.733H115.234L114.527 116.784C113.094 116.988 111.663 117.191 110.234 117.391V87.2334C110.234 80.1456 109.937 74.4826 109.376 70.1801L109.361 70.0646L109.351 69.9486C108.965 65.307 108.396 61.595 107.683 58.7461L107.675 58.7124L107.667 58.6786C106.955 55.6509 106.032 53.4146 105.016 51.8177L104.925 51.6756L104.845 51.5276C103.818 49.645 102.509 47.7131 100.893 45.7344C100.903 45.7468 100.914 45.7592 100.924 45.7716L104.734 42.5333L100.864 45.6995C100.874 45.7112 100.883 45.7228 100.893 45.7344C97.4154 41.6397 94.7769 37.941 93.2943 34.7286L93.2006 34.5256L93.1254 34.315C91.9145 30.9245 91.3448 26.1425 95.1606 22.8539C95.1542 22.8594 95.1479 22.8649 95.1416 22.8705L98.4341 26.6334L95.1802 22.8371C95.1736 22.8427 95.1671 22.8483 95.1606 22.8539C96.8951 21.3444 99.0275 20.6155 101.062 20.2764C103.093 19.9379 105.361 19.9311 107.77 20.1434C107.73 20.1416 107.691 20.1398 107.651 20.1381L107.434 25.1334L107.887 20.1539C107.848 20.1503 107.809 20.1468 107.77 20.1434C112.923 20.383 119.515 21.6996 127.391 23.9211C135.241 26.135 141.407 28.0821 145.814 29.7609C150.161 31.417 153.948 33.4338 156.372 36.1016C156.338 36.0669 156.304 36.0323 156.27 35.9978L152.734 39.5334L156.471 36.2115C156.438 36.1748 156.405 36.1381 156.372 36.1016C159.245 39.0348 160.376 42.8013 159.435 46.8387C159.446 46.7774 159.456 46.7163 159.466 46.6553L154.534 45.8334L159.385 47.0461C159.402 46.9769 159.419 46.9078 159.435 46.8387C158.948 49.6433 157.946 52.8979 156.54 56.5277C156.552 56.4899 156.565 56.4521 156.577 56.4145L151.834 54.8334L156.494 56.6456C156.509 56.6063 156.525 56.567 156.54 56.5277C155.986 58.1962 155.425 60.0683 154.858 62.149L154.841 62.2098L154.823 62.2701C154.358 63.8219 153.896 66.3568 153.507 70.0568L153.505 70.0712L153.504 70.0855C153.117 73.5645 152.725 78.2545 152.329 84.1828C152.329 84.1552 152.33 84.1275 152.331 84.0999L147.334 83.9334L152.323 84.266C152.325 84.2382 152.327 84.2105 152.329 84.1828C152.133 90.0939 152.034 97.8049 152.034 107.333V111.377C150.417 111.624 148.75 111.876 147.034 112.133C147.034 113.733 146.934 115.433 146.734 117.233C148.484 116.972 150.184 116.716 151.835 116.465C151.967 114.975 152.034 113.531 152.034 112.133V111.377C162.555 109.772 170.981 108.385 177.328 107.216L177.34 107.214L177.351 107.212C185.082 105.824 191.481 104.544 196.566 103.372C196.551 103.375 196.536 103.379 196.521 103.383L197.734 108.233L196.61 103.361C196.595 103.365 196.581 103.368 196.566 103.372C203.851 101.552 210.049 100.305 215.114 99.672C220.193 99.0371 224.853 99.0016 229.021 99.6792C228.976 99.674 228.931 99.6689 228.886 99.6639L228.334 104.633L229.156 99.7014C229.111 99.6939 229.066 99.6865 229.021 99.6792C233.091 100.147 236.853 101.293 240.231 103.188C240.17 103.159 240.109 103.131 240.049 103.102L237.934 107.633L240.415 103.292C240.354 103.257 240.292 103.222 240.231 103.188C243.502 104.731 246.899 106.765 250.418 109.249ZM120.034 274.133C122.834 288.333 125.734 295.633 128.734 296.033C131.734 296.433 135.134 289.733 138.934 275.933C141.734 266.133 143.534 254.933 144.334 242.333C145.334 229.733 145.934 214.333 146.134 196.133C146.334 188.533 146.434 179.433 146.434 168.833C146.634 158.033 146.734 147.333 146.734 136.733C155.534 136.133 164.434 135.733 173.434 135.533C182.434 135.133 190.834 134.933 198.634 134.933C206.634 134.933 213.834 135.133 220.234 135.533C226.634 135.733 231.634 136.033 235.234 136.433C250.634 138.433 259.234 137.033 261.034 132.233C263.034 127.433 258.534 121.133 247.534 113.333M294.457 197.973L294.399 197.992C291.258 199.01 288.185 199.929 285.179 200.748C282.313 201.569 279.165 202.384 275.742 203.195C272.348 203.999 268.444 204.901 264.031 205.903L248.128 209.511L248.072 209.523C241.145 210.928 235.216 212.038 230.297 212.85C225.419 213.68 221.023 214.118 217.146 214.118C213.385 214.118 209.875 213.673 206.674 212.705L206.635 212.693L206.596 212.681C203.616 211.726 200.772 210.31 198.068 208.472C194.827 206.316 192.187 204.31 190.342 202.471C189.422 201.555 188.532 200.517 187.883 199.37C187.257 198.264 186.57 196.55 186.9 194.528C187.259 192.33 188.634 190.889 189.754 190.06C190.87 189.233 192.169 188.675 193.388 188.268C195.843 187.448 199.103 186.879 202.951 186.468C206.367 186.08 209.706 185.596 212.97 185.016L212.988 185.013L213.005 185.01C216.429 184.427 220.002 183.747 223.725 182.968C227.583 181.994 231.588 180.923 235.739 179.755C240.001 178.398 244.643 176.745 249.667 174.791L249.692 174.781L249.718 174.771C256.626 172.17 262.093 170.158 266.102 168.742L266.129 168.733L266.156 168.724C270.444 167.264 274.272 166.319 277.514 166.074C280.705 165.833 283.788 166.164 286.584 167.321C289.05 168.287 291.763 169.767 294.684 171.651C300.006 175.062 304.408 179.628 304.46 185.636C304.56 188.553 303.621 191.257 301.67 193.47C299.807 195.584 297.258 196.989 294.515 197.953L294.457 197.973ZM299.46 185.744C299.607 189.14 297.406 191.637 292.857 193.235C289.776 194.234 286.768 195.133 283.833 195.932C281.046 196.731 277.964 197.531 274.59 198.33C271.215 199.129 267.327 200.028 262.925 201.027L247.078 204.623C240.182 206.021 234.313 207.12 229.471 207.919C224.775 208.718 220.667 209.118 217.146 209.118C213.771 209.118 210.763 208.718 208.122 207.919C205.627 207.12 203.206 205.921 200.859 204.323C194.549 200.128 191.542 197.131 191.835 195.333C192.128 193.535 196.017 192.236 203.5 191.437C207.021 191.038 210.47 190.538 213.844 189.939C217.366 189.34 221.034 188.64 224.849 187.841C228.81 186.842 232.919 185.744 237.174 184.545C241.576 183.146 246.344 181.448 251.48 179.451C258.376 176.854 263.805 174.856 267.767 173.457C271.875 172.059 275.25 171.26 277.891 171.06C280.532 170.86 282.806 171.16 284.714 171.959C286.768 172.758 289.189 174.057 291.977 175.855C296.966 179.051 299.46 182.347 299.46 185.744ZM290.77 226.14L290.778 226.148C295.665 231.347 299.218 237.448 297.47 243.742C296.586 247.221 294.19 249.639 291.166 251.088C288.293 252.464 284.758 253.038 280.921 253.149C275.863 253.346 270.955 253.642 266.197 254.034L266.098 254.042L265.999 254.047C261.601 254.234 257.196 254.794 252.781 255.731C243.258 257.925 235.772 259.624 230.329 260.826L230.242 260.845L230.155 260.861C224.664 261.871 220.188 262.511 216.818 262.73C216.815 262.73 216.812 262.731 216.809 262.731L216.485 257.742L216.825 262.73C216.823 262.73 216.82 262.73 216.818 262.73C213.567 262.951 210.212 262.715 207.491 261.233C205.428 260.11 203.545 258.528 201.816 256.648C201.821 256.654 201.827 256.659 201.832 256.665L205.481 253.246L201.798 256.628C201.804 256.634 201.81 256.641 201.816 256.648C199.05 253.695 196.878 251.124 195.446 248.997C194.738 247.945 194.075 246.805 193.648 245.643C193.29 244.669 192.736 242.722 193.56 240.64C193.548 240.671 193.536 240.703 193.524 240.735L198.218 242.458L193.607 240.523C193.591 240.562 193.575 240.601 193.56 240.64C194.776 237.471 197.881 236.282 199.654 235.777C201.805 235.164 204.494 234.87 207.507 234.764L207.594 234.761H207.682C210.046 234.761 213.312 234.417 217.573 233.643L217.587 233.641L217.601 233.638C222.019 232.862 226.517 231.89 231.095 230.721C235.702 229.545 240.158 228.273 244.464 226.905C248.763 225.539 252.072 224.312 254.459 223.23C262.032 219.725 268.846 217.733 274.589 217.985C280.759 218.256 286.166 221.264 290.77 226.14ZM287.135 229.573C283.173 225.377 278.918 223.18 274.37 222.98C269.821 222.78 263.878 224.379 256.542 227.775C253.901 228.973 250.38 230.272 245.978 231.67C241.576 233.069 237.027 234.367 232.332 235.566C227.637 236.765 223.015 237.764 218.466 238.563C214.064 239.362 210.469 239.761 207.682 239.761M341.534 283.003L341.536 283.006C344.916 288.324 347.387 292.968 348.747 296.844C349.964 300.313 350.871 304.763 348.626 308.373C346.449 311.999 342.394 313.069 338.976 313.301C335.349 313.548 330.857 312.987 325.702 311.853C320.055 310.671 314.786 309.689 309.894 308.905C305.21 308.155 299.977 307.769 294.178 307.769H294.095L294.012 307.766C288.171 307.572 281.346 307.668 273.521 308.062C265.683 308.458 256.07 309.151 244.67 310.146C238.319 310.736 231.967 311.522 225.613 312.505L225.538 312.517L225.463 312.526C219.13 313.31 213.179 314.287 207.606 315.454L207.524 315.472L207.441 315.486C201.828 316.466 196.753 317.537 192.208 318.697C187.755 319.871 184.362 320.915 181.959 321.822C178.843 323.033 176.048 323.927 173.639 324.415C170.844 325.189 167.999 325.213 165.219 324.38C162.62 323.751 160.079 322.368 157.644 320.6L157.46 320.466L157.289 320.316C155.125 318.423 152.404 315.847 149.147 312.622C145.926 309.459 143.396 306.678 141.716 304.332C140.881 303.167 140.123 301.926 139.627 300.663C139.177 299.518 138.659 297.638 139.299 295.597C139.986 293.345 141.67 292.053 143.012 291.368C144.355 290.682 145.872 290.32 147.3 290.107C150.187 289.677 153.99 289.682 158.501 289.989L158.573 289.994L158.645 290.001C160.324 290.165 163.037 290.181 166.933 289.984C170.789 289.79 174.169 289.501 177.086 289.123C191.453 287.127 205.014 285.23 217.769 283.434L217.777 283.433C230.671 281.637 242.312 279.943 252.703 278.349L252.713 278.347C263.25 276.753 272.398 275.358 280.157 274.162C288.026 272.773 294.078 271.594 298.354 270.623L298.418 270.609L298.483 270.596C304.624 269.372 309.875 268.625 314.174 268.408C318.498 268.19 322.457 268.499 325.928 269.494C329.481 270.513 332.582 272.326 335.117 274.946C337.376 277.095 339.505 279.816 341.534 283.003ZM331.593 278.496C333.501 280.294 335.408 282.691 337.316 285.688C343.919 296.077 346.266 302.769 344.359 305.766C342.598 308.762 336.729 309.162 326.751 306.964C321.029 305.766 315.673 304.767 310.685 303.968C305.696 303.169 300.194 302.769 294.178 302.769C288.162 302.569 281.192 302.669 273.269 303.069C265.346 303.468 255.662 304.168 244.217 305.167C237.761 305.766 231.305 306.565 224.849 307.564C218.393 308.363 212.304 309.362 206.581 310.561C200.859 311.559 195.65 312.658 190.955 313.857C186.406 315.055 182.811 316.154 180.17 317.153C177.089 318.352 174.521 319.151 172.467 319.551C170.413 320.15 168.432 320.15 166.524 319.551C164.764 319.151 162.783 318.152 160.582 316.554C158.528 314.756 155.887 312.259 152.659 309.062C146.349 302.869 143.488 298.874 144.075 297.076C144.662 295.078 149.357 294.378 158.161 294.978C160.215 295.178 163.223 295.178 167.185 294.978C171.146 294.778 174.668 294.478 177.749 294.079C192.128 292.081 205.701 290.183 218.466 288.385C231.378 286.587 243.043 284.889 253.461 283.291C264.025 281.693 273.196 280.294 280.972 279.095C288.896 277.697 295.058 276.498 299.46 275.499C305.476 274.301 310.465 273.602 314.426 273.402C318.388 273.202 321.763 273.502 324.551 274.301C327.338 275.1 329.686 276.498 331.593 278.496Z" fill="black"/>
</svg>
