<svg width="345" height="345" viewBox="0 0 345 345" fill="none" xmlns="http://www.w3.org/2000/svg">
<path fill-rule="evenodd" clip-rule="evenodd" d="M264.034 144.233C266.034 139.433 261.534 133.133 250.534 125.333C247.134 122.933 243.934 121.033 240.934 119.633C238.134 118.033 234.934 117.033 231.334 116.633C227.734 116.033 223.534 116.033 218.734 116.633C213.934 117.233 207.934 118.433 200.734 120.233C195.534 121.433 189.034 122.733 181.234 124.133C173.634 125.533 163.134 127.233 149.734 129.233C149.934 127.433 150.034 125.733 150.034 124.133V119.333C150.034 109.733 150.134 101.933 150.334 95.9333C150.734 89.9333 151.134 85.1333 151.534 81.5334C151.934 77.7333 152.434 74.8333 153.034 72.8333C153.634 70.6333 154.234 68.6333 154.834 66.8333C156.234 63.2333 157.134 60.2333 157.534 57.8333C158.134 55.4334 157.534 53.3334 155.734 51.5334C154.134 49.7334 151.234 48.0334 147.034 46.4334C142.834 44.8333 136.834 42.9333 129.034 40.7333C121.234 38.5333 115.034 37.3333 110.434 37.1333C106.034 36.7333 103.034 37.2333 101.434 38.6333C100.034 39.8333 99.8339 41.8333 100.834 44.6333C102.034 47.2333 104.334 50.5333 107.734 54.5333C109.534 56.7333 111.034 58.9333 112.234 61.1333C113.634 63.3333 114.734 66.1334 115.534 69.5334C116.334 72.7333 116.934 76.7333 117.334 81.5334C117.934 86.1334 118.234 92.0333 118.234 99.2333V133.733C108.434 135.133 98.7339 136.433 89.1339 137.633C79.5339 138.633 70.5339 139.533 62.1339 140.333C53.9339 141.133 46.7339 141.733 40.5339 142.133C34.3339 142.533 29.6339 142.633 26.4339 142.433C13.2339 142.233 6.13393 143.033 5.13393 144.833C4.13393 146.633 8.73393 150.733 18.9339 157.133C23.3339 159.933 27.0339 162.033 30.0339 163.433C33.0339 164.833 35.7339 165.733 38.1339 166.133C40.7339 166.333 43.3339 166.233 45.9339 165.833C48.7339 165.233 52.2339 164.333 56.4339 163.133C64.0339 160.933 73.1339 158.933 83.7339 157.133C94.3339 155.133 105.834 153.333 118.234 151.733C118.234 167.333 118.334 183.333 118.534 199.733C118.734 216.133 119.034 231.933 119.434 247.133C119.634 253.933 120.034 260.633 120.634 267.233C121.234 274.033 122.034 280.333 123.034 286.133C125.834 300.333 128.734 307.633 131.734 308.033C134.734 308.433 138.134 301.733 141.934 287.933C144.734 278.133 146.534 266.933 147.334 254.333C148.334 241.733 148.934 226.333 149.134 208.133C149.334 200.533 149.434 191.433 149.434 180.833C149.634 170.033 149.734 159.333 149.734 148.733C158.534 148.133 167.434 147.733 176.434 147.533C185.434 147.133 193.834 146.933 201.634 146.933C209.634 146.933 216.834 147.133 223.234 147.533C229.634 147.733 234.634 148.033 238.234 148.433C253.634 150.433 262.234 149.033 264.034 144.233ZM288.395 203.307C291.002 202.504 293.414 201.601 295.63 200.597C301.887 197.986 305.015 194.473 305.015 190.055C305.015 185.437 301.691 181.02 295.043 176.803C291.654 174.595 288.2 173.691 284.68 174.093C281.161 174.293 276.207 176 269.82 179.213C265.909 181.221 261.607 183.028 256.915 184.634C252.352 186.24 247.659 187.646 242.836 188.851C238.013 190.055 233.19 191.16 228.367 192.164C223.674 192.967 219.242 193.569 215.071 193.971C209.205 194.573 206.076 195.778 205.685 197.585C205.425 199.191 207.771 201.801 212.724 205.416C215.332 207.423 217.939 209.03 220.546 210.234C223.283 211.439 226.216 212.343 229.345 212.945C232.473 213.347 235.993 213.447 239.903 213.246C243.814 213.045 248.376 212.443 253.591 211.439C259.065 210.435 263.889 209.532 268.06 208.729C272.362 207.725 276.142 206.821 279.401 206.018C282.79 205.014 285.788 204.11 288.395 203.307ZM339.624 287.756C341.058 282.937 338.386 275.207 331.608 264.565C329.392 260.951 327.241 258.24 325.155 256.433C323.069 254.626 320.788 253.522 318.312 253.12C315.835 252.518 312.967 252.518 309.708 253.12C306.58 253.722 302.734 254.626 298.172 255.831C293.479 257.236 286.896 258.742 278.423 260.348C270.08 261.754 261.021 263.159 251.244 264.565C241.598 265.77 231.887 266.974 222.11 268.179C212.464 269.183 204.056 269.986 196.886 270.589C191.02 270.99 186.784 271.291 184.177 271.492C181.57 271.492 179.68 271.392 178.506 271.191C169.773 269.585 165.275 270.187 165.015 272.998C164.754 275.608 167.948 281.732 174.596 291.37C176.29 293.78 177.855 295.587 179.289 296.791C180.722 297.996 182.287 298.699 183.981 298.9C185.676 299.1 187.631 299 189.847 298.598C192.063 297.996 194.866 297.092 198.255 295.888C205.034 293.478 213.181 291.47 222.697 289.864C232.212 288.258 242.641 287.053 253.982 286.25C263.758 285.648 272.036 285.346 278.814 285.346C285.723 285.146 291.719 285.246 296.803 285.648C302.017 286.049 306.645 286.752 310.686 287.756C314.857 288.559 319.094 289.563 323.395 290.768C332.911 293.579 338.321 292.575 339.624 287.756Z" fill="black"/>
<path fill-rule="evenodd" clip-rule="evenodd" d="M253.418 121.249L253.426 121.255C259.096 125.275 263.499 129.182 266.228 133.002C268.938 136.797 270.583 141.417 268.683 146.075C266.779 151.024 261.804 153.042 257.037 153.818C252.034 154.633 245.484 154.414 237.637 153.398C234.234 153.022 229.402 152.728 223.078 152.531L223 152.528L222.922 152.524C216.648 152.131 209.554 151.933 201.634 151.933C193.918 151.933 185.593 152.131 176.656 152.528L176.601 152.531L176.545 152.532C169.204 152.695 161.931 152.992 154.728 153.424C154.703 162.504 154.605 171.655 154.434 180.879C154.434 191.47 154.334 200.589 154.133 208.227C153.932 226.46 153.331 241.955 152.322 254.689C151.503 267.54 149.66 279.084 146.749 289.283C144.826 296.261 142.923 301.768 140.993 305.571C140.04 307.449 138.925 309.228 137.567 310.565C136.217 311.893 133.983 313.377 131.073 312.989C128.407 312.634 126.61 310.885 125.534 309.48C124.398 307.998 123.466 306.127 122.662 304.104C121.042 300.025 119.547 294.295 118.129 287.1L118.117 287.042L118.107 286.983C117.08 281.029 116.264 274.593 115.654 267.679C115.654 267.677 115.654 267.675 115.653 267.672L120.634 267.233L115.655 267.686C115.654 267.684 115.654 267.682 115.654 267.679C115.045 260.977 114.639 254.177 114.436 247.28L114.436 247.272L114.436 247.265C114.035 232.039 113.735 216.216 113.534 199.794C113.359 185.368 113.26 171.251 113.239 157.441C114.888 157.215 116.554 156.993 118.238 156.774C118.235 155.089 118.234 153.409 118.234 151.733C116.551 151.95 114.884 152.171 113.234 152.396C113.234 154.073 113.236 155.755 113.239 157.441C103.059 158.837 93.534 160.372 84.6611 162.046L84.6162 162.055L84.5712 162.062C74.0965 163.841 65.1913 165.803 57.8244 167.936L57.816 167.938L57.8077 167.941C53.5495 169.157 49.9321 170.09 46.9817 170.722L46.8388 170.753L46.6944 170.775C43.7194 171.233 40.7356 171.348 37.7506 171.118L37.5302 171.101L37.3121 171.065C34.3372 170.569 31.1934 169.492 27.9197 167.964C24.6481 166.437 20.7494 164.214 16.2632 161.36C16.2677 161.363 16.2722 161.366 16.2766 161.368L18.9341 157.133L16.2497 161.351C16.2542 161.354 16.2587 161.357 16.2632 161.36C11.1115 158.127 7.1273 155.326 4.50731 152.991C3.22935 151.852 1.99845 150.583 1.16594 149.219C0.438624 148.027 -0.838952 145.289 0.763299 142.405C2.02225 140.139 4.36808 139.273 5.4997 138.91C6.96787 138.439 8.73473 138.13 10.6493 137.915C14.5175 137.479 19.8432 137.333 26.5098 137.434L26.628 137.436L26.746 137.443C29.6214 137.623 34.0666 137.54 40.2122 137.144C46.3433 136.748 53.4867 136.153 61.6486 135.357L61.66 135.356C70.0286 134.559 78.9968 133.662 88.5649 132.666C88.5479 132.668 88.5309 132.67 88.5139 132.672L89.1341 137.633L88.6161 132.66C88.599 132.662 88.582 132.664 88.5649 132.666C96.715 131.647 104.938 130.555 113.234 129.391V133.733H118.234L117.527 128.784C116.094 128.988 114.663 129.191 113.234 129.391V99.2334C113.234 92.1456 112.937 86.4826 112.376 82.1801L112.361 82.0646L112.351 81.9486C111.965 77.307 111.396 73.595 110.683 70.7461L110.675 70.7124L110.667 70.6786C109.955 67.6509 109.032 65.4146 108.016 63.8177L107.925 63.6756L107.845 63.5276C106.818 61.645 105.509 59.7131 103.893 57.7344C103.903 57.7468 103.914 57.7592 103.924 57.7716L107.734 54.5333L103.864 57.6995C103.874 57.7112 103.883 57.7228 103.893 57.7344C100.415 53.6397 97.7769 49.941 96.2943 46.7286L96.2006 46.5256L96.1254 46.315C94.9145 42.9245 94.3448 38.1425 98.1606 34.8539C98.1542 34.8594 98.1479 34.8649 98.1416 34.8705L101.434 38.6334L98.1802 34.8371C98.1736 34.8427 98.1671 34.8483 98.1606 34.8539C99.8951 33.3444 102.028 32.6155 104.062 32.2764C106.093 31.9379 108.361 31.9311 110.77 32.1434C110.73 32.1416 110.691 32.1398 110.651 32.1381L110.434 37.1334L110.887 32.1539C110.848 32.1503 110.809 32.1468 110.77 32.1434C115.923 32.383 122.515 33.6996 130.391 35.9211C138.241 38.135 144.407 40.0821 148.814 41.7609L147.034 46.4334L148.814 41.7609C153.161 43.4171 156.948 45.4338 159.372 48.1016C159.338 48.0669 159.304 48.0323 159.27 47.9978L155.734 51.5334L159.471 48.2115C159.438 48.1748 159.405 48.1381 159.372 48.1016C162.245 51.0348 163.376 54.8013 162.435 58.8387C162.446 58.7774 162.456 58.7163 162.466 58.6553L157.534 57.8334L162.385 59.0461C162.402 58.9769 162.419 58.9078 162.435 58.8387C161.948 61.6433 160.946 64.8979 159.54 68.5277C159.552 68.4899 159.565 68.4521 159.577 68.4145L154.834 66.8334L159.494 68.6456C159.509 68.6063 159.525 68.567 159.54 68.5277C158.986 70.1962 158.425 72.0683 157.858 74.149L157.841 74.2098L157.823 74.2701C157.358 75.8219 156.896 78.3568 156.507 82.0568L156.505 82.0712L156.504 82.0855C156.117 85.5645 155.725 90.2545 155.329 96.1828C155.329 96.1552 155.33 96.1275 155.331 96.0999L150.334 95.9334L155.323 96.266C155.325 96.2382 155.327 96.2105 155.329 96.1828C155.133 102.094 155.034 109.805 155.034 119.333V123.377C153.417 123.624 151.75 123.876 150.034 124.133V124.133C150.034 125.733 149.934 127.433 149.734 129.233C151.484 128.972 153.184 128.716 154.835 128.465C154.967 126.975 155.034 125.531 155.034 124.133V123.377C165.555 121.772 173.981 120.385 180.328 119.216L180.34 119.214L180.351 119.212C188.082 117.824 194.481 116.544 199.566 115.372C199.551 115.375 199.536 115.379 199.521 115.383L200.734 120.233L199.61 115.361C199.595 115.365 199.581 115.368 199.566 115.372C206.851 113.552 213.049 112.305 218.114 111.672C223.193 111.037 227.853 111.002 232.021 111.679C231.976 111.674 231.931 111.669 231.886 111.664L231.334 116.633L232.156 111.701C232.111 111.694 232.066 111.687 232.021 111.679C236.091 112.147 239.853 113.293 243.231 115.188C243.17 115.159 243.109 115.131 243.049 115.102L240.934 119.633L243.415 115.292C243.354 115.257 243.292 115.222 243.231 115.188C246.502 116.731 249.899 118.765 253.418 121.249ZM123.034 286.133C125.834 300.333 128.734 307.633 131.734 308.033C134.734 308.433 138.134 301.733 141.934 287.933C144.734 278.133 146.534 266.933 147.334 254.333C148.334 241.733 148.934 226.333 149.134 208.133C149.334 200.533 149.434 191.433 149.434 180.833C149.634 170.033 149.734 159.333 149.734 148.733C158.534 148.133 167.434 147.733 176.434 147.533C185.434 147.133 193.834 146.933 201.634 146.933C209.634 146.933 216.834 147.133 223.234 147.533C229.634 147.733 234.634 148.033 238.234 148.433C253.634 150.433 262.234 149.033 264.034 144.233C266.034 139.433 261.534 133.133 250.534 125.333M269.82 179.213C276.207 176 281.161 174.293 284.68 174.093C288.2 173.691 291.654 174.595 295.043 176.803C301.691 181.02 305.016 185.437 305.016 190.055C305.016 194.473 301.887 197.986 295.63 200.597C293.414 201.601 291.002 202.504 288.395 203.307C285.788 204.11 282.79 205.014 279.401 206.018C276.142 206.821 272.362 207.725 268.06 208.729C263.889 209.532 259.066 210.435 253.591 211.439C248.377 212.443 243.814 213.046 239.904 213.246C235.993 213.447 232.473 213.347 229.345 212.945C226.216 212.343 223.283 211.439 220.546 210.234C217.939 209.03 215.332 207.423 212.725 205.416C207.771 201.801 205.425 199.191 205.685 197.585C206.077 195.778 209.205 194.573 215.071 193.971C219.242 193.569 223.674 192.967 228.367 192.164C233.19 191.16 238.013 190.055 242.836 188.851C247.66 187.646 252.352 186.24 256.915 184.634C261.608 183.028 265.909 181.221 269.82 179.213ZM227.436 187.25C232.165 186.265 236.894 185.181 241.625 184C246.3 182.832 250.843 181.471 255.254 179.918L255.275 179.911L255.296 179.904C259.789 178.366 263.865 176.65 267.536 174.765L267.555 174.755L267.573 174.746C274.005 171.511 279.678 169.407 284.253 169.11C289.03 168.599 293.577 169.887 297.746 172.597C304.798 177.075 310.016 182.794 310.016 190.055C310.016 197.464 304.574 202.266 297.626 205.182C295.215 206.27 292.626 207.236 289.867 208.086C287.239 208.895 284.223 209.804 280.821 210.812L280.71 210.845L280.597 210.873C277.313 211.682 273.512 212.59 269.196 213.598L269.101 213.62L269.005 213.638C264.821 214.444 259.99 215.349 254.514 216.353C249.155 217.384 244.361 218.024 240.16 218.24C236.019 218.452 232.193 218.352 228.708 217.904L228.553 217.885L228.399 217.855C224.927 217.186 221.633 216.176 218.532 214.811L218.49 214.792L218.449 214.773C215.476 213.4 212.57 211.602 209.725 209.417C207.166 207.546 205.036 205.764 203.531 204.09C202.774 203.248 202.033 202.277 201.497 201.195C200.972 200.132 200.459 198.58 200.75 196.784L200.771 196.655L200.799 196.527C201.562 192.999 204.639 191.388 206.528 190.66C208.704 189.822 211.466 189.315 214.56 188.997L214.576 188.995L214.592 188.994C218.6 188.608 222.881 188.028 227.436 187.25ZM298.172 255.831C302.734 254.626 306.58 253.722 309.708 253.12C312.967 252.518 315.835 252.518 318.312 253.12C320.788 253.522 323.07 254.626 325.155 256.433C327.241 258.24 329.392 260.951 331.608 264.565C338.386 275.207 341.059 282.937 339.625 287.756C338.321 292.575 332.911 293.579 323.395 290.768C319.094 289.563 314.857 288.559 310.686 287.756C306.645 286.752 302.017 286.049 296.803 285.648C291.719 285.246 285.723 285.146 278.814 285.346C272.036 285.346 263.758 285.648 253.982 286.25C242.641 287.053 232.213 288.258 222.697 289.864C213.181 291.47 205.034 293.478 198.255 295.888C194.866 297.093 192.063 297.996 189.847 298.598C187.631 299 185.676 299.1 183.981 298.9C182.287 298.699 180.723 297.996 179.289 296.791C177.855 295.587 176.291 293.78 174.596 291.37C167.948 281.732 164.754 275.608 165.015 272.998C165.276 270.187 169.773 269.585 178.507 271.191C179.68 271.392 181.57 271.492 184.177 271.492C186.784 271.291 191.021 270.99 196.887 270.589C204.056 269.986 212.464 269.183 222.11 268.179C231.887 266.974 241.598 265.77 251.244 264.565C261.021 263.159 270.081 261.754 278.423 260.348C286.896 258.742 293.479 257.236 298.172 255.831ZM250.579 259.609C260.285 258.214 269.272 256.819 277.542 255.426C285.927 253.836 292.298 252.371 296.737 251.041L296.816 251.017L296.895 250.996C301.521 249.775 305.484 248.842 308.763 248.21L308.781 248.207L308.799 248.203C312.482 247.523 316.023 247.453 319.305 248.217C322.71 248.807 325.765 250.346 328.429 252.654C331.043 254.919 333.498 258.088 335.848 261.915C339.335 267.394 341.912 272.343 343.421 276.71C344.895 280.975 345.56 285.273 344.435 289.121C343.878 291.14 342.818 292.988 341.153 294.432C339.499 295.867 337.523 296.664 335.502 297.039C331.635 297.757 326.999 297.043 322.014 295.573C317.85 294.408 313.759 293.439 309.741 292.666L309.61 292.641L309.48 292.608C305.767 291.686 301.423 291.018 296.419 290.633L296.409 290.632C291.555 290.249 285.747 290.147 278.96 290.344L278.887 290.346H278.814C272.177 290.346 264.017 290.642 254.311 291.239C243.113 292.033 232.855 293.22 223.529 294.794C214.21 296.368 206.36 298.313 199.93 300.599C196.48 301.825 193.546 302.775 191.159 303.423L190.951 303.48L190.739 303.518C188.181 303.982 185.709 304.139 183.393 303.865C180.637 303.538 178.177 302.388 176.072 300.62C174.175 299.025 172.325 296.832 170.506 294.247L170.493 294.228L170.48 294.209C167.108 289.32 164.516 285.187 162.781 281.861C161.915 280.2 161.207 278.635 160.727 277.206C160.282 275.88 159.872 274.215 160.038 272.518C160.247 270.321 161.373 268.473 163.09 267.241C164.618 266.145 166.389 265.687 167.92 265.482C170.97 265.074 174.902 265.446 179.375 266.267C180.092 266.386 181.555 266.487 183.988 266.492C186.625 266.29 190.802 265.993 196.506 265.603C203.614 265.005 211.959 264.208 221.546 263.211C231.288 262.01 240.966 260.81 250.579 259.609Z" fill="black"/>
</svg>
