<svg width="345" height="345" viewBox="0 0 345 345" fill="none" xmlns="http://www.w3.org/2000/svg">
<path d="M327.379 117.778C342.045 128.178 348.045 136.578 345.379 142.978C342.979 149.378 331.512 151.244 310.979 148.578C306.179 148.044 299.512 147.644 290.979 147.378C282.445 146.844 272.845 146.578 262.179 146.578C251.779 146.578 240.579 146.844 228.579 147.378C216.579 147.644 204.712 148.178 192.979 148.978C192.979 163.111 192.845 177.378 192.579 191.778C192.579 205.911 192.445 218.044 192.179 228.178C191.912 252.444 191.112 272.978 189.779 289.778C188.712 306.578 186.312 321.511 182.579 334.578C177.512 352.978 172.979 361.911 168.979 361.378C164.979 360.845 161.112 351.111 157.379 332.178C156.045 324.445 154.979 316.044 154.179 306.978C153.379 298.178 152.845 289.244 152.579 280.178C152.045 259.911 151.645 238.844 151.379 216.978C151.112 195.111 150.979 173.778 150.979 152.978C134.445 155.111 119.112 157.511 104.979 160.178C90.8453 162.578 78.712 165.244 68.5787 168.178C62.9787 169.778 58.312 170.978 54.5787 171.778C51.112 172.311 47.6452 172.444 44.1786 172.178C40.9786 171.644 37.3788 170.444 33.3788 168.578C29.3788 166.711 24.4454 163.911 18.5787 160.178C4.97871 151.644 -1.15476 146.178 0.178568 143.778C1.5119 141.378 10.9787 140.311 28.5787 140.578C32.8454 140.844 39.1121 140.711 47.3788 140.178C55.6454 139.644 65.2452 138.844 76.1786 137.778C87.3786 136.711 99.3785 135.511 112.179 134.178C124.979 132.578 137.912 130.844 150.979 128.978V82.9778C150.979 73.3778 150.579 65.5111 149.779 59.3778C149.245 52.9778 148.445 47.6445 147.379 43.3778C146.312 38.8445 144.845 35.1111 142.979 32.1778C141.379 29.2445 139.379 26.3111 136.979 23.3778C132.445 18.0445 129.379 13.6445 127.779 10.1778C126.445 6.44446 126.712 3.77779 128.579 2.1778C130.712 0.311121 134.712 -0.355553 140.579 0.177773C146.712 0.444452 154.979 2.04446 165.379 4.97778C175.779 7.91111 183.779 10.4444 189.379 12.5778C194.979 14.7111 198.845 16.9778 200.979 19.3778C203.379 21.7778 204.179 24.5778 203.379 27.7778C202.845 30.9778 201.645 34.9778 199.779 39.7778C198.979 42.1778 198.179 44.8445 197.379 47.7778C196.579 50.4445 195.912 54.3111 195.379 59.3778C194.845 64.1778 194.312 70.5778 193.779 78.5778C193.512 86.5778 193.379 96.9778 193.379 109.778C193.379 111.911 193.379 114.044 193.379 116.178C193.379 118.311 193.245 120.578 192.979 122.978C210.845 120.311 224.845 118.044 234.979 116.178C245.379 114.311 254.045 112.578 260.979 110.978C270.579 108.578 278.579 106.978 284.979 106.178C291.379 105.378 296.979 105.378 301.779 106.178C306.579 106.711 310.845 108.044 314.579 110.178C318.579 112.044 322.845 114.578 327.379 117.778Z" fill="black"/>
</svg>
