<svg width="345" height="345" viewBox="0 0 345 345" fill="none" xmlns="http://www.w3.org/2000/svg">
<path d="M336.613 110.52C333.146 114.253 330.079 118.253 327.413 122.52C325.013 126.52 322.746 131.32 320.613 136.92C318.479 142.52 316.479 149.187 314.613 156.92C312.746 164.387 310.746 173.587 308.613 184.52C306.479 195.187 304.479 204.253 302.613 211.72C301.013 219.187 299.413 225.587 297.813 230.92C296.213 236.253 294.613 240.787 293.013 244.52C291.679 247.987 290.213 251.053 288.613 253.72C281.679 265.453 275.413 274.387 269.813 280.52C264.213 286.387 259.279 289.853 255.013 290.92C251.013 292.253 247.546 291.32 244.613 288.12C241.946 284.92 240.079 279.987 239.013 273.32C237.679 266.12 236.346 260.52 235.012 256.52C233.946 252.253 232.479 249.053 230.613 246.92C229.013 244.52 227.013 243.053 224.613 242.52C222.213 241.72 219.146 241.187 215.413 240.92C212.479 240.653 207.279 240.787 199.813 241.32C192.346 241.853 183.946 242.653 174.613 243.72C165.546 244.52 156.346 245.587 147.012 246.92C137.679 247.987 129.813 249.053 123.413 250.12C112.213 251.987 103.279 253.053 96.6126 253.32C89.9459 253.587 83.1459 253.053 76.2126 251.72C74.8792 258.92 72.8792 263.853 70.2126 266.52C67.5459 269.187 65.2792 270.52 63.4125 270.52C61.0125 270.52 58.6126 269.453 56.2126 267.32C54.0792 265.187 52.0792 262.52 50.2126 259.32C48.6126 255.853 47.1459 251.987 45.8125 247.72C44.4792 243.187 43.6792 238.52 43.4125 233.72C41.8125 216.653 40.4792 202.92 39.4125 192.52C38.3458 182.12 37.2792 173.453 36.2126 166.52C35.1459 159.587 33.9459 153.587 32.6126 148.52C31.5459 143.453 30.2126 137.72 28.6126 131.32C26.7459 123.587 24.6126 116.787 22.2126 110.92C20.0792 105.053 17.5459 100.52 14.6126 97.32C8.47925 90.3867 6.61248 85.72 9.01248 83.32C11.6791 80.6533 20.7459 79.9867 36.2126 81.32C42.0792 81.8533 46.6125 82.52 49.8125 83.32C53.0125 84.12 55.5458 85.1867 57.4125 86.52C79.0125 84.6533 99.2792 82.7867 118.213 80.92C137.146 78.7867 154.613 76.7867 170.613 74.92C186.346 73.0533 199.279 71.4533 209.413 70.12C219.546 68.7867 227.813 67.5867 234.213 66.52C240.879 65.4533 246.213 64.3867 250.213 63.32C254.213 61.9867 258.079 60.6533 261.813 59.32C266.079 57.72 269.813 56.52 273.013 55.72C276.479 54.92 279.812 54.7867 283.012 55.32C286.479 55.8533 290.346 57.1867 294.613 59.32C299.146 61.1867 304.613 64.12 311.013 68.12C320.613 74.2533 327.946 79.1867 333.013 82.92C338.346 86.6533 341.813 89.9867 343.413 92.92C345.013 95.8533 345.013 98.6533 343.413 101.32C342.079 103.987 339.813 107.053 336.613 110.52ZM273.813 107.72C274.346 99.9867 273.546 95.1867 271.413 93.32C269.279 91.4533 264.079 90.3867 255.813 90.12C252.079 89.8533 244.879 90.12 234.213 90.92C223.813 91.4533 211.546 92.2533 197.413 93.32C203.279 95.72 207.812 97.72 211.012 99.32C214.479 100.92 216.746 102.52 217.813 104.12C218.879 105.453 219.013 107.053 218.213 108.92C217.679 110.787 216.479 113.32 214.613 116.52C211.946 121.053 210.079 126.92 209.012 134.12C208.212 141.32 208.479 147.853 209.813 153.72C211.146 160.12 216.879 162.12 227.013 159.72C233.146 158.387 238.079 157.453 241.813 156.92C245.546 156.387 248.746 156.52 251.413 157.32C254.346 157.853 256.879 159.187 259.012 161.32C261.412 163.453 264.212 166.253 267.413 169.72C268.746 160.653 269.946 151.053 271.013 140.92C272.346 130.787 273.279 119.72 273.813 107.72ZM112.613 101.32C104.079 102.12 95.8125 102.92 87.8125 103.72C79.8125 104.52 72.4792 105.32 65.8125 106.12C66.6125 111.187 67.4126 117.853 68.2126 126.12C69.2792 134.12 70.2125 142.92 71.0125 152.52C72.0792 161.853 72.8792 171.453 73.4125 181.32C74.2125 191.187 74.8792 200.387 75.4125 208.92C83.9458 200.653 91.2792 191.587 97.4125 181.72C103.546 171.853 108.079 162.12 111.012 152.52C114.212 141.587 116.213 132.387 117.013 124.92C118.079 117.187 116.613 109.32 112.613 101.32ZM264.613 183.32C260.613 185.453 253.946 187.053 244.613 188.12C229.146 189.987 216.879 190.653 207.813 190.12C198.746 189.32 191.946 187.053 187.413 183.32C183.146 179.32 180.613 173.72 179.813 166.52C179.013 159.053 179.013 149.587 179.813 138.12C180.879 125.853 181.146 116.653 180.613 110.52C180.079 104.12 178.746 99.0533 176.613 95.32C170.479 95.8533 164.213 96.3867 157.813 96.92C151.413 97.4533 145.146 97.9867 139.013 98.52C144.879 101.72 149.413 104.52 152.613 106.92C156.079 109.32 158.346 111.453 159.413 113.32C160.746 115.187 161.146 117.053 160.613 118.92C160.346 120.787 159.413 122.787 157.813 124.92C154.879 129.187 152.213 133.587 149.813 138.12C147.413 142.387 145.146 148.12 143.013 155.32C138.746 168.92 130.879 181.187 119.413 192.12C108.212 203.053 93.8126 211.587 76.2126 217.72C76.7459 220.92 77.0126 223.853 77.0126 226.52C77.0126 228.92 77.0126 231.453 77.0126 234.12C97.5459 231.987 117.413 229.587 136.613 226.92C155.813 223.987 176.213 220.653 197.813 216.92C205.279 215.587 211.279 214.787 215.813 214.52C220.346 213.987 224.079 214.12 227.013 214.92C230.213 215.72 232.879 217.187 235.012 219.32C237.146 221.187 239.546 223.987 242.213 227.72C245.946 227.72 248.746 227.32 250.613 226.52C252.746 225.72 254.346 223.72 255.413 220.52C257.279 214.653 258.879 208.787 260.213 202.92C261.813 196.787 263.279 190.253 264.613 183.32Z" fill="black"/>
</svg>
