<?xml version="1.0" encoding="UTF-8"?>
<svg width="1000px" height="1000px" viewBox="0 0 1000 1000" version="1.1" xmlns="http://www.w3.org/2000/svg" xmlns:xlink="http://www.w3.org/1999/xlink">
    <title>h_tuo_l</title>
    <g id="h_tuo_l" stroke="none" stroke-width="1" fill="none" fill-rule="evenodd">
        <g id="乇" transform="translate(6.000000, 0.000000)" fill="#000000" fill-rule="nonzero">
            <path d="M409.8847,252.320798 C422.120065,248.498307 432.252475,248.307183 440.281933,251.747424 C448.311391,255.187666 458.826157,264.170519 471.826232,278.695985 C482.532175,290.163457 489.414568,301.630929 492.473409,313.098402 C495.53225,324.565874 494.767539,333.357603 490.179278,339.473588 C487.885147,342.531581 485.973371,349.794314 484.443951,361.261786 C482.91453,372.729258 482.340998,383.623357 482.723353,393.944082 C483.105708,404.264808 484.826306,409.42517 487.885147,409.42517 C490.943988,409.42517 516.179427,403.691434 563.591463,392.223962 C611.003499,380.756489 638.533069,375.022753 646.180171,375.022753 C663.003797,375.022753 675.621516,368.906768 684.033329,356.674797 C687.856881,351.32331 696.268693,350.558812 709.268768,354.381303 C722.268842,358.203793 739.092468,360.115039 759.739645,360.115039 C785.739794,360.115039 804.666373,365.65765 816.519382,376.742874 C828.372391,387.828097 833.534185,404.455932 832.004765,426.626379 C831.240055,435.800357 829.710634,442.871965 827.416503,447.841203 C825.122373,452.810441 819.387046,460.264298 810.210522,470.202774 C806.386971,474.025265 802.181065,476.127635 797.592803,476.509884 C793.004542,476.892133 783.828018,476.318759 770.063234,474.789763 C748.651346,472.496269 708.886413,471.540646 650.768433,471.922895 C592.650453,472.305144 550.973744,474.025265 525.738305,477.083257 C479.090979,482.434745 455.767316,491.226473 455.767316,503.458444 C455.767316,508.045433 453.282008,512.441297 448.311391,516.646037 C443.340774,520.850777 440.855466,531.936001 440.855466,549.901707 C440.855466,567.867414 438.94369,581.055007 435.120139,589.464487 C429.767167,599.402963 427.473036,621.955659 428.237747,657.122575 C429.002457,692.28949 432.443653,719.811424 438.561335,739.688376 C443.914307,759.565328 452.517297,776.002039 464.370306,788.998507 C476.223316,801.994976 490.179278,810.786705 506.238193,815.373694 C520.002978,818.431687 535.297183,822.254177 552.120809,826.841166 C573.532696,833.72165 607.179948,837.544141 653.062564,838.308639 C698.945179,839.073137 742.151309,836.397393 782.680953,830.281408 C829.328279,822.636427 856.857848,817.284939 865.269661,814.226947 C879.034446,808.110961 892.03452,781.353526 904.269885,733.95464 C909.622856,710.255197 914.211118,698.405475 918.034669,698.405475 C919.56409,699.169973 921.09351,703.374713 922.622931,711.019695 C927.211192,730.896647 933.902407,751.538097 942.696575,772.944046 C951.490743,794.349995 957.99078,805.052969 962.196687,805.052969 C966.402593,805.052969 968.505547,808.110961 968.505547,814.226947 C968.505547,820.342932 970.990855,825.31217 975.961472,829.134661 C980.932088,832.957152 983.417397,837.92639 983.417397,844.042375 C983.417397,850.15836 985.711527,856.274346 990.299789,862.390331 C997.946892,876.151298 993.740985,893.92588 977.68207,915.714078 C961.623154,937.502275 939.446557,956.041356 911.152277,971.331319 C894.328651,979.740799 866.990259,986.621282 829.137101,991.972769 C791.283943,997.324256 750.945477,1000 708.121702,1000 C533.767763,1000 418.296513,945.720631 361.707954,837.161892 C336.472515,788.998507 328.825413,729.367651 338.766646,658.269322 C341.825487,636.863373 344.501973,610.105938 346.796104,577.997015 C348.325524,548.181587 347.178459,533.273872 343.354908,533.273872 C342.590197,533.273872 341.825487,533.656121 341.060777,534.42062 C334.943095,535.949616 319.266534,539.772107 294.031096,545.888092 C268.795657,552.004077 247.001415,560.795806 228.648368,572.263279 C178.177491,600.549711 148.353791,620.044414 139.177268,630.747388 C133.824296,636.863373 127.897791,641.450362 121.397754,644.508355 C114.897717,647.566348 108.971212,651.006589 103.61824,654.82908 C98.2652686,658.651571 83.9269512,652.917835 60.6032882,637.627871 C37.2796253,622.337908 25.6177938,613.16393 25.6177938,610.105938 C25.6177938,607.047945 21.4118873,604.372201 13.0000745,602.078707 C6.88239236,599.020714 3.05884105,596.344971 1.52942052,594.051476 C0,591.757982 -0.382355131,587.553242 0.382355131,581.437257 C2.67648592,573.027777 7.26474749,566.147293 14.1471398,560.795806 C27.1472143,549.328334 57.3532696,537.478612 104.765306,525.246642 C122.353642,519.895155 145.868482,511.676799 175.309828,500.591576 C204.751173,489.506353 244.324929,477.083257 294.031096,463.322291 L367.443281,441.534093 L369.737412,404.838181 C372.796253,380.37424 375.090383,353.807929 376.619804,325.139248 C378.149224,296.470567 380.443355,282.136226 383.502196,282.136226 C386.561037,282.136226 387.325748,280.224981 385.796327,276.40249 C385.031617,271.815501 387.13457,267.037388 392.105187,262.06815 C397.075803,257.098912 403.002308,253.849794 409.8847,252.320798 Z M383.502196,136.499327 C430.149522,92.1584331 464.943839,58.3293895 487.885147,35.0121956 C510.826455,11.6950016 523.826529,0.0364046744 526.88537,0.0364046744 C531.473632,-0.728093487 545.047239,10.5482544 567.606192,33.8654483 C590.165145,57.1826423 604.885817,74.5749754 611.768209,86.0424479 C614.827051,92.1584331 613.29763,100.567913 607.179948,111.270887 C601.062266,121.973861 595.709294,127.325349 591.121032,127.325349 C586.532771,127.325349 578.120958,132.294587 565.885594,142.233063 C533.003052,170.519495 497.06167,193.836689 458.061447,212.184645 C438.94369,222.123121 424.414195,229.768102 414.472962,235.119589 C403.002308,241.235575 383.311019,250.600677 355.399094,263.214897 C327.48717,275.829116 312.766497,282.136226 311.237077,282.136226 C307.413525,282.136226 303.589974,284.620845 299.766423,289.590083 C295.942871,294.559321 286.192815,299.528559 270.516255,304.497798 C254.839695,309.467036 243.942574,313.098402 237.824891,315.391896 C232.47192,317.685391 225.971882,318.449889 218.32478,317.685391 C210.677677,316.920893 206.854126,315.009647 206.854126,311.951655 C206.854126,308.893662 225.207172,289.207834 261.913265,252.894172 C298.619357,216.580509 339.149001,177.782227 383.502196,136.499327 Z"></path>
        </g>
    </g>
</svg>