<?xml version="1.0" encoding="UTF-8"?>
<svg width="800px" height="470px" viewBox="0 0 800 470" version="1.1" xmlns="http://www.w3.org/2000/svg" xmlns:xlink="http://www.w3.org/1999/xlink">
    <title>h_tuo_m</title>
    <g id="h_tuo_m" stroke="none" stroke-width="1" fill="none" fill-rule="evenodd">
        <g id="乇" transform="translate(-76.333333, -75.967460)" fill="#000000" fill-rule="nonzero">
            <path d="M196.533333,73.0174603 C202.4,71.184127 207.258333,71.0924603 211.108333,72.7424603 C214.958333,74.3924603 220,78.7007937 226.233333,85.6674603 C231.366667,91.1674603 234.666667,96.6674603 236.133333,102.16746 C237.6,107.66746 237.233333,111.884127 235.033333,114.81746 C233.933333,116.284127 233.016667,119.76746 232.283333,125.26746 C231.55,130.76746 231.275,135.99246 231.458333,140.94246 C231.641667,145.89246 232.466667,148.36746 233.933333,148.36746 C235.4,148.36746 247.5,145.61746 270.233333,140.11746 C292.966667,134.61746 306.166667,131.86746 309.833333,131.86746 C317.9,131.86746 323.95,128.934127 327.983333,123.06746 C329.816667,120.500794 333.85,120.134127 340.083333,121.96746 C346.316667,123.800794 354.383333,124.71746 364.283333,124.71746 C376.75,124.71746 385.825,127.375794 391.508333,132.69246 C397.191667,138.009127 399.666667,145.984127 398.933333,156.61746 C398.566667,161.01746 397.833333,164.409127 396.733333,166.79246 C395.633333,169.175794 392.883333,172.750794 388.483333,177.51746 C386.65,179.350794 384.633333,180.359127 382.433333,180.54246 C380.233333,180.725794 375.833333,180.450794 369.233333,179.71746 C358.966667,178.61746 339.9,178.159127 312.033333,178.34246 C284.166667,178.525794 264.183333,179.350794 252.083333,180.81746 C229.716667,183.384127 218.533333,187.600794 218.533333,193.46746 C218.533333,195.66746 217.341667,197.775794 214.958333,199.79246 C212.575,201.809127 211.383333,207.125794 211.383333,215.74246 C211.383333,224.359127 210.466667,230.684127 208.633333,234.71746 C206.066667,239.484127 204.966667,370.300794 205.333333,387.16746 C205.7,404.034127 207.35,417.234127 210.283333,426.76746 C212.85,436.300794 216.975,444.184127 222.658333,450.41746 C228.341667,456.650794 235.033333,460.86746 242.733333,463.06746 C249.333333,464.534127 256.666667,466.36746 264.733333,468.56746 C275,471.86746 291.133333,473.700794 313.133333,474.06746 C335.133333,474.434127 755.85,473.150794 775.283333,470.21746 C797.65,466.550794 810.85,463.984127 814.883333,462.51746 C821.483333,459.584127 827.716667,446.750794 833.583333,424.01746 C836.15,412.650794 838.35,406.96746 840.183333,406.96746 C840.916667,407.334127 841.65,409.350794 842.383333,413.01746 C844.583333,422.550794 847.791667,432.450794 852.008333,442.71746 C856.225,452.984127 859.341667,458.11746 861.358333,458.11746 C863.375,458.11746 864.383333,459.584127 864.383333,462.51746 C864.383333,465.450794 865.575,467.834127 867.958333,469.66746 C870.341667,471.500794 871.533333,473.884127 871.533333,476.81746 C871.533333,479.750794 872.633333,482.684127 874.833333,485.61746 C878.5,492.21746 876.483333,500.74246 868.783333,511.19246 C861.083333,521.64246 850.45,530.534127 836.883333,537.86746 C828.816667,541.900794 815.708333,545.200794 797.558333,547.76746 C779.408333,550.334127 760.05645,551.972136 739.533333,551.61746 C177.283333,541.900794 200.566667,525.584127 173.433333,473.51746 C161.333333,450.41746 157.666667,421.81746 162.433333,387.71746 C163.9,377.450794 165.183333,244.61746 166.283333,229.21746 C167.016667,214.91746 166.466667,207.76746 164.633333,207.76746 C164.266667,207.76746 163.9,207.950794 163.533333,208.31746 C160.6,209.050794 153.083333,210.884127 140.983333,213.81746 C128.883333,216.750794 118.433333,220.96746 109.633333,226.46746 C85.4333333,240.034127 71.1333333,249.384127 66.7333333,254.51746 C64.1666667,257.450794 61.325,259.650794 58.2083333,261.11746 C55.0916667,262.584127 52.25,264.234127 49.6833333,266.06746 C47.1166667,267.900794 40.2416667,265.150794 29.0583333,257.81746 C17.875,250.484127 12.2833333,246.084127 12.2833333,244.61746 C12.2833333,243.150794 10.2666667,241.86746 6.23333333,240.76746 C3.3,239.300794 1.46666667,238.01746 0.733333333,236.91746 C0,235.81746 -0.183333333,233.800794 0.183333333,230.86746 C1.28333333,226.834127 3.48333333,223.534127 6.78333333,220.96746 C13.0166667,215.46746 27.5,209.784127 50.2333333,203.91746 C58.6666667,201.350794 69.9416667,197.409127 84.0583333,192.09246 C98.175,186.775794 117.15,180.81746 140.983333,174.21746 L176.183333,163.76746 L177.283333,146.16746 C178.75,134.434127 179.85,121.69246 180.583333,107.94246 C181.316667,94.1924603 182.416667,87.3174603 183.883333,87.3174603 C185.35,87.3174603 185.716667,86.4007937 184.983333,84.5674603 C184.616667,82.3674603 185.625,80.0757937 188.008333,77.6924603 C190.391667,75.309127 193.233333,73.7507937 196.533333,73.0174603 Z M181.883333,65.4674603 C204.25,44.2007937 220.933333,27.9757937 231.933333,16.7924603 C242.933333,5.60912698 249.166667,0.0174603175 250.633333,0.0174603175 C252.833333,-0.349206349 259.341667,5.05912698 270.158333,16.2424603 C280.975,27.4257937 288.033333,35.7674603 291.333333,41.2674603 C292.8,44.2007937 292.066667,48.234127 289.133333,53.3674603 C286.2,58.5007937 283.633333,61.0674603 281.433333,61.0674603 C279.233333,61.0674603 275.2,63.4507937 269.333333,68.2174603 C253.566667,81.784127 236.333333,92.9674603 217.633333,101.76746 C208.466667,106.534127 201.5,110.200794 196.733333,112.76746 C191.233333,115.700794 181.791667,120.19246 168.408333,126.24246 C155.025,132.29246 147.966667,135.31746 147.233333,135.31746 C145.4,135.31746 143.566667,136.509127 141.733333,138.89246 C139.9,141.275794 135.225,143.659127 127.708333,146.04246 C120.191667,148.425794 114.966667,150.16746 112.033333,151.26746 C109.466667,152.36746 106.35,152.734127 102.683333,152.36746 C99.0166667,152.000794 97.1833333,151.084127 97.1833333,149.61746 C97.1833333,148.150794 105.983333,138.709127 123.583333,121.29246 C141.183333,103.875794 160.616667,85.2674603 181.883333,65.4674603 Z"></path>
        </g>
    </g>
</svg>