<svg width="345" height="345" viewBox="0 0 345 345" fill="none" xmlns="http://www.w3.org/2000/svg">
<path d="M133.078 121.05C155.57 123.174 174.014 125.431 188.41 127.82C202.805 130.21 214.351 132.865 223.049 135.786C232.046 138.706 238.644 141.892 242.842 145.344C247.341 148.53 250.79 152.247 253.189 156.496C257.687 164.726 260.237 171.63 260.836 177.205C261.436 182.781 260.387 186.764 257.687 189.153C254.988 191.543 250.94 192.34 245.541 191.543C240.143 190.481 233.695 187.56 226.198 182.781C214.201 174.816 200.106 166.718 183.911 158.487C168.016 150.256 150.922 142.291 132.628 134.591C132.628 142.556 132.628 152.115 132.628 163.266C132.928 174.418 133.228 186.366 133.528 199.11C134.149 225.531 134.559 234.258 135.777 260.664C136.077 271.816 135.927 280.976 135.327 288.145C134.727 295.314 133.378 303.014 131.278 311.244C127.979 323.192 123.181 329.432 116.883 329.963C110.885 330.494 103.987 325.316 96.1897 314.431C93.1907 310.448 90.7914 306.731 88.992 303.279C87.4925 300.093 86.5928 296.774 86.2929 293.322C85.993 289.871 86.2929 286.021 87.1926 281.773C88.3922 277.79 90.1917 272.878 92.5909 267.037C94.3903 263.054 95.8898 256.815 97.0894 248.318C101.889 221.126 102.975 211.043 103.837 183.578C104.737 164.195 105.187 141.76 105.187 116.271C105.187 93.873 105.625 88.4968 102.038 66.2659C101.138 58.8316 99.9385 52.9904 98.439 48.7422C96.9395 44.494 95.29 41.1752 93.4906 38.7856C75.7963 17.5447 82.844 11.8361 114.634 21.6601C124.231 24.5807 131.578 27.103 136.677 29.2271C142.075 31.3512 145.824 33.4753 147.923 35.5994C150.022 37.7235 150.622 40.1131 149.722 42.7682C149.123 45.1578 147.623 48.3439 145.224 52.3266C143.724 54.4507 142.375 57.504 141.175 61.4867C139.976 65.4694 138.776 70.9123 137.576 77.8156C134.835 98.0392 133.078 105.946 133.078 121.05Z" fill="black"/>
<path fill-rule="evenodd" clip-rule="evenodd" d="M103.837 183.578C104.737 164.195 105.187 141.76 105.187 116.271C105.187 113.921 105.192 111.759 105.196 109.745C105.234 92.5595 105.249 86.1647 102.038 66.2659C101.138 58.8316 99.9385 52.9904 98.439 48.7422C96.9395 44.494 95.29 41.1751 93.4906 38.7855C75.7963 17.5446 82.8441 11.8361 114.634 21.66C124.231 24.5807 131.578 27.103 136.677 29.2271C142.075 31.3512 145.824 33.4753 147.923 35.5994C150.022 37.7235 150.622 40.1131 149.722 42.7682C149.123 45.1578 147.623 48.3439 145.224 52.3266C143.724 54.4507 142.375 57.504 141.175 61.4867C139.976 65.4694 138.776 70.9123 137.576 77.8156C136.971 82.2817 136.414 86.1472 135.913 89.6221C134.145 101.882 133.078 109.282 133.078 121.05C155.57 123.174 174.015 125.431 188.41 127.82C202.805 130.21 214.352 132.865 223.049 135.786C232.046 138.706 238.644 141.892 242.842 145.344C247.341 148.53 250.79 152.247 253.189 156.496C257.687 164.726 260.237 171.63 260.836 177.205C261.436 182.781 260.387 186.764 257.687 189.153C254.988 191.543 250.94 192.34 245.541 191.543C240.143 190.481 233.695 187.56 226.198 182.781C214.202 174.816 200.106 166.718 183.911 158.487C170.356 151.468 155.928 144.641 140.628 138.008C137.987 136.863 135.321 135.724 132.628 134.591V163.266C132.928 174.418 133.228 186.366 133.528 199.11C134.141 225.193 134.549 234.032 135.731 259.659L135.777 260.664C136.077 271.816 135.927 280.976 135.327 288.145C134.727 295.314 133.378 303.013 131.278 311.244C127.979 323.192 123.181 329.432 116.883 329.963C110.885 330.494 103.987 325.316 96.1897 314.43C93.1907 310.448 90.7915 306.731 88.9921 303.279C87.4925 300.093 86.5928 296.774 86.2929 293.322C85.993 289.871 86.2929 286.021 87.1927 281.773C88.3923 277.79 90.1917 272.878 92.5909 267.037C94.3903 263.054 95.8899 256.815 97.0895 248.318C101.889 221.126 102.976 211.043 103.837 183.578ZM117.564 337.934C111.903 338.427 106.754 336.138 102.409 332.876C98.0706 329.62 93.8658 324.914 89.7416 319.167C86.573 314.952 83.9359 310.886 81.8982 306.977L81.8229 306.833L81.7536 306.686C79.8587 302.659 78.7059 298.423 78.3229 294.015C77.94 289.607 78.3425 284.949 79.3663 280.115L79.4358 279.787L79.5326 279.465C80.8346 275.143 82.7379 269.969 85.1908 263.997L85.2435 263.869L85.3005 263.743C86.6149 260.834 87.9932 255.521 89.168 247.2L89.1873 247.063L89.2112 246.928C93.9464 220.098 94.9919 210.396 95.8412 183.327L95.8431 183.267L95.8458 183.207C96.7384 163.979 97.1868 141.672 97.1868 116.271C97.1868 113.894 97.1917 111.716 97.1962 109.695C97.234 92.6904 97.2472 86.7963 94.14 67.5403L94.1148 67.3841L94.0958 67.227C93.2267 60.0455 92.1148 54.8601 90.8952 51.405C89.5848 47.6927 88.3039 45.2415 87.2005 43.7335C82.7019 38.3149 79.2107 33.2428 77.4186 28.7066C76.5063 26.3972 75.7931 23.6367 76.0547 20.726C76.3428 17.521 77.7961 14.5231 80.4704 12.3569C82.8993 10.3895 85.7555 9.57521 88.2152 9.23592C90.7317 8.88879 93.4693 8.95181 96.2736 9.24897C101.875 9.84249 108.837 11.4961 116.979 14.0116C126.61 16.9429 134.224 19.5438 139.68 21.8119C145.291 24.0251 150.31 26.6341 153.613 29.9758C155.455 31.84 156.991 34.1863 157.707 37.0371C158.401 39.8018 158.192 42.5231 157.405 45.014C156.476 48.5015 154.52 52.3982 152.076 56.4547L151.927 56.7033L151.759 56.9403C150.963 58.0686 149.917 60.2034 148.835 63.794C147.777 67.3061 146.651 72.3431 145.484 79.0395C144.86 83.6329 144.296 87.5538 143.794 91.0336C142.461 100.294 141.577 106.431 141.236 113.804C160.527 115.728 176.701 117.767 189.72 119.928C204.301 122.349 216.298 125.083 225.557 128.189C234.758 131.179 242.369 134.678 247.694 138.978C252.924 142.725 257.148 147.238 260.155 152.562L260.182 152.61L260.209 152.659C264.918 161.275 268.027 169.256 268.791 176.35C269.509 183.026 268.524 190.244 262.99 195.143C257.775 199.761 250.893 200.419 244.374 199.457L244.185 199.429L243.997 199.393C237.202 198.056 229.782 194.553 221.898 189.527L221.835 189.487L221.772 189.446C210.09 181.689 196.273 173.744 180.287 165.619L180.26 165.605L180.233 165.591C167.795 159.15 154.594 152.865 140.628 146.736V163.159C140.927 174.289 141.226 186.211 141.525 198.922C142.137 224.915 142.542 233.686 143.722 259.282L143.772 260.373L143.774 260.449C144.078 271.754 143.933 281.237 143.299 288.812C142.656 296.493 141.22 304.635 139.03 313.221L139.011 313.298L138.99 313.374C137.206 319.836 134.833 325.49 131.547 329.762C128.14 334.192 123.479 337.432 117.564 337.934Z" fill="black"/>
</svg>
