<svg width="345" height="345" viewBox="0 0 345 345" fill="none" xmlns="http://www.w3.org/2000/svg">
<path d="M345.6 266.88C351.467 271.413 355.2 275.947 356.8 280.48C358.667 284.747 358.533 288.48 356.4 291.68C354.267 294.613 350.267 296.747 344.4 298.08C338.533 299.147 330.8 298.88 321.2 297.28C314.267 296.213 304.533 295.28 292 294.48C279.733 293.413 266.4 292.747 252 292.48C237.867 291.947 223.733 291.68 209.6 291.68C195.733 291.68 183.867 291.947 174 292.48C140.133 294.613 113.733 296.747 94.8 298.88C76.1333 301.28 63.7334 303.547 57.6 305.68C49.8667 308.347 43.4666 310.213 38.4 311.28C33.6 312.613 29.2 313.147 25.2 312.88C21.4667 312.613 17.8666 311.547 14.4 309.68C11.2 307.813 7.46667 305.28 3.2 302.08C-8.8 293.013 -14.1333 287.28 -12.8 284.88C-11.4667 282.48 -3.73338 281.28 10.4 281.28C12.8 281.28 15.6 281.28 18.8 281.28C22 281.013 26.6666 280.747 32.8 280.48C38.9333 279.947 46.9333 279.413 56.8 278.88C66.6666 278.08 79.4667 277.013 95.2 275.68C100.267 261.28 105.067 246.48 109.6 231.28C114.4 215.813 118.533 201.28 122 187.68C115.067 189.813 109.2 191.28 104.4 192.08C99.6001 192.88 95.3334 193.147 91.6 192.88C88.1334 192.613 84.9334 191.947 82 190.88C79.3334 189.547 76.5334 187.68 73.6 185.28C62.4 176.747 57.0667 171.28 57.6 168.88C58.4 166.213 65.8667 164.613 80 164.08C87.7334 163.547 95.7334 163.013 104 162.48C112.533 161.68 121.067 160.613 129.6 159.28C132.267 148.613 134.4 139.413 136 131.68C137.867 123.947 139.2 117.28 140 111.68C140.8 105.813 141.2 100.613 141.2 96.08C141.467 91.5467 141.467 87.1467 141.2 82.88C132.667 83.9467 125.6 84.7467 120 85.28C114.667 85.5467 110 85.4133 106 84.88C102.267 84.08 98.6667 82.88 95.2 81.28C92 79.68 88.4 77.5467 84.3999 74.88C77.4666 70.3467 74.2666 67.1467 74.8 65.28C75.6 63.4133 80.8001 62.3467 90.4001 62.08C97.3334 61.8133 105.2 61.28 114 60.48C123.067 59.68 132.4 58.6133 142 57.28C151.6 55.68 161.2 53.9467 170.8 52.08C180.4 49.9467 189.6 47.68 198.4 45.28C211.2 41.8133 221.333 39.1467 228.8 37.28C236.533 35.4133 242.667 34.3467 247.2 34.08C252 33.8133 256 34.2133 259.2 35.28C262.4 36.3467 266 38.08 270 40.48C281.733 47.4133 286.933 53.5467 285.6 58.88C284.267 63.9467 277.333 67.0133 264.8 68.08C251.733 69.1467 238.8 70.3467 226 71.68C213.467 72.7467 199.6 74.3467 184.4 76.48C189.467 79.9467 193.2 82.88 195.6 85.28C198.267 87.68 199.733 90.08 200 92.48C200.533 94.6133 200 97.0133 198.4 99.68C196.8 102.08 194.267 105.013 190.8 108.48C188.933 110.347 187.333 112.347 186 114.48C184.667 116.613 183.333 119.28 182 122.48C180.667 125.68 179.2 129.68 177.6 134.48C176.267 139.28 174.667 145.147 172.8 152.08C182.133 150.213 189.6 148.48 195.2 146.88C200.8 145.013 204.8 143.413 207.2 142.08C212 139.413 215.867 137.413 218.8 136.08C222 134.48 224.933 133.68 227.6 133.68C230.533 133.413 233.6 133.813 236.8 134.88C240 135.947 244.133 137.68 249.2 140.08C259.333 144.88 267.067 148.88 272.4 152.08C278 155.28 281.6 158.213 283.2 160.88C285.067 163.547 285.067 166.08 283.2 168.48C281.6 170.88 278.8 173.813 274.8 177.28C268.667 182.347 263.6 188.08 259.6 194.48C255.6 200.613 252.133 207.413 249.2 214.88C245.467 224.213 241.867 232.747 238.4 240.48C235.2 248.213 231.867 255.947 228.4 263.68C238 263.147 246.933 262.347 255.2 261.28C263.467 260.213 269.067 259.413 272 258.88C284.267 257.013 294.133 255.813 301.6 255.28C309.333 254.48 315.733 254.48 320.8 255.28C325.867 255.813 330.133 257.147 333.6 259.28C337.333 261.147 341.333 263.68 345.6 266.88ZM214 185.28C215.6 179.147 215.733 175.28 214.4 173.68C213.067 171.813 210.933 171.147 208 171.68C198.133 172.747 190 173.813 183.6 174.88C177.2 175.68 170.933 176.747 164.8 178.08C161.067 189.547 157.733 199.813 154.8 208.88C152.133 217.68 149.467 225.813 146.8 233.28C144.4 240.48 142 247.28 139.6 253.68C137.467 260.08 135.2 266.347 132.8 272.48C141.6 271.947 150.933 271.28 160.8 270.48C170.667 269.413 180.667 268.347 190.8 267.28C193.2 259.28 195.333 252.213 197.2 246.08C199.067 239.68 200.8 233.413 202.4 227.28C204.267 221.147 206.133 214.747 208 208.08C209.867 201.413 211.867 193.813 214 185.28Z" fill="black"/>
</svg>
