<svg width="345" height="345" viewBox="0 0 345 345" fill="none" xmlns="http://www.w3.org/2000/svg">
<path d="M324.36 152.884C338.227 165.418 343.827 174.484 341.16 180.084C338.493 185.418 326.893 187.151 306.36 185.284C285.827 183.418 264.627 182.751 242.76 183.284C220.893 183.551 196.493 185.151 169.56 188.084C155.16 189.418 142.893 190.751 132.76 192.084C122.893 193.151 114.093 194.351 106.36 195.684C98.8933 196.751 92.0933 197.951 85.96 199.284C80.0933 200.351 73.96 201.684 67.56 203.284C58.2267 205.684 49.6933 206.218 41.96 204.884C34.4933 203.284 26.36 198.484 17.56 190.484C13.0267 186.484 9.69333 183.151 7.56 180.484C5.42667 177.818 4.62667 175.818 5.16 174.484C5.69333 172.884 7.82667 171.818 11.56 171.284C15.2933 170.751 20.8933 170.484 28.36 170.484C35.2933 170.484 41.16 170.484 45.96 170.484C51.0267 170.484 55.6933 170.484 59.96 170.484C64.2267 170.218 68.4933 169.951 72.76 169.684C77.0267 169.418 82.0933 169.018 87.96 168.484C107.16 166.618 125.427 164.618 142.76 162.484C160.093 160.351 175.827 158.351 189.96 156.484C204.093 154.351 216.227 152.484 226.36 150.884C236.493 149.018 243.96 147.418 248.76 146.084C266.893 141.551 281.827 139.551 293.56 140.084C305.293 140.618 315.56 144.884 324.36 152.884Z" fill="black"/>
</svg>
