<?xml version="1.0" encoding="UTF-8"?>
<svg width="400px" height="305px" viewBox="0 0 400 305" version="1.1" xmlns="http://www.w3.org/2000/svg" xmlns:xlink="http://www.w3.org/1999/xlink">
    <title>half_s</title>
    <g id="half_s" stroke="none" stroke-width="1" fill="none" fill-rule="evenodd">
        <path d="M229.259,190.078 L238.562796,190.078058 C239.308371,190.078058 240.04998,190.079534 240.787621,190.082484 L242.988636,190.095757 L245.165832,190.117868 L247.319199,190.148811 L249.448727,190.188577 C249.801661,190.19594 250.153602,190.20367 250.504548,190.211767 L252.598299,190.264754 L254.668185,190.326545 C255.011177,190.337577 255.353174,190.348975 255.694176,190.36074 L257.728248,190.435723 L259.73843,190.519491 C260.07147,190.534184 260.403513,190.549243 260.73456,190.564667 L262.708891,190.661598 L264.659308,190.767295 L266.5858,190.881749 L268.48836,191.004954 L270.366975,191.136902 L272.221636,191.277584 L274.052334,191.426993 C274.355453,191.452622 274.657573,191.478613 274.958694,191.504968 L276.753427,191.667454 C277.050551,191.69526 277.346675,191.72343 277.641799,191.751962 L279.400546,191.927507 L281.135289,192.111747 L282.846019,192.304676 L284.532726,192.506286 C284.811841,192.540611 285.089955,192.575297 285.367067,192.610344 L287.017719,192.824961 C287.290824,192.861452 287.562927,192.898304 287.834028,192.935518 L289.448604,193.163124 L291.039117,193.39938 C291.302197,193.439476 291.564273,193.479933 291.825347,193.520749 L293.379746,193.769966 L294.910056,194.027813 C295.1631,194.071506 295.41514,194.115559 295.666176,194.159971 L297.160335,194.430749 C298.64244,194.705835 300.088375,194.993838 301.498095,195.294723 L302.895743,195.599902 C303.819458,195.806215 304.72707,196.018248 305.618568,196.235992 L306.943726,196.566888 C308.256794,196.902065 309.533588,197.250078 310.774063,197.610892 L311.391273,197.792366 C318.792259,200.021377 324.843248,200.802397 329.783604,199.909663 C335.348124,198.904141 339.893039,195.727619 343.099688,190.778189 L343.397457,190.306306 L343.582798,189.991286 C346.237929,185.358397 346.113202,180.179026 343.34996,175.544977 L343.232418,175.348051 L343.13554,175.136176 L342.804997,174.35334 L342.104603,172.586254 L341.322206,170.600808 L340.720269,169.107181 L340.440492,168.429376 L340.034091,167.468792 L339.765142,166.850191 L339.492295,166.236519 L339.065429,165.301814 L338.804042,164.743668 C336.360486,159.580568 333.799255,155.712161 330.498331,153.078131 L317.39954,142.821799 L306.825071,143.256079 L298.063024,143.717842 L287.453912,144.307997 L281.057929,144.685789 L274.504909,145.096383 L270.511958,145.361881 L266.817994,145.620978 L263.421645,145.87383 L261.834649,145.997964 L258.882155,146.241745 L256.223854,146.479676 L253.858374,146.711914 L252.443389,146.863654 L251.157533,147.012981 L250.000399,147.15994 L249.216778,147.268635 L248.283932,147.411565 L247.668061,147.51729 C247.603612,147.528968 247.54049,147.540624 247.478692,147.552256 L246.74187,147.703257 C242.700357,148.500125 237.973139,148.645609 232.561539,148.102337 L229.719,147.817 L229.711787,108.872287 L229.731584,104.469669 L229.767861,100.814695 L229.778,100.084 L229.982745,100.082799 C230.400532,100.080795 230.8438,100.083679 231.311932,100.091646 L232.281165,100.114415 C232.448169,100.119359 232.617889,100.124882 232.790304,100.130991 L233.829028,100.173644 C238.659912,100.3994 243.259992,100.998982 247.63301,101.969134 L248.465,102.159 L249.65496,102.474993 L250.943231,102.80828 L252.203127,103.124814 L253.434883,103.424521 C253.637844,103.473065 253.839642,103.520906 254.040282,103.568041 L255.230271,103.842372 C255.4263,103.886679 255.621181,103.930276 255.814918,103.973164 L256.963669,104.221955 L258.085223,104.45363 C258.454567,104.527994 258.819418,104.599493 259.179815,104.668114 L260.247681,104.865337 C260.774972,104.959621 261.29233,105.047404 261.799886,105.128645 L262.801969,105.282394 C263.461365,105.379063 264.103494,105.464054 264.72867,105.537271 L265.653758,105.638254 C269.303568,106.006764 272.34873,105.949655 274.857128,105.446017 C281.996603,104.01255 286.901146,99.3751297 288.360166,92.4072821 L288.427623,92.0662075 C289.806164,84.6772526 287.314613,70.1608129 281.938287,64.8628162 L281.843141,64.7750346 C277.9782,60.9655581 273.007547,58.759431 267.223022,58.1621296 L266.615797,58.1047633 L265.976979,58.0548012 L265.306429,58.0122232 C265.192019,58.0057411 265.076281,57.9995658 264.959211,57.993697 L264.240801,57.9621579 L263.490309,57.9379532 L262.707595,57.9210629 L261.892519,57.9114671 L260.608921,57.9107071 L259.712329,57.9192604 L258.3058,57.9456306 L257.326816,57.9722085 L256.314631,58.0059614 L255.269105,58.0468693 L254.190097,58.0949123 L252.508502,58.1803116 L250.750787,58.2816529 L248.916479,58.3988688 L247.005108,58.5318921 L245.016199,58.6806557 L243.797,58.776 L234.585041,59.1440281 L231.265993,59.2660326 L230.397417,59.2877956 C230.256875,59.2904815 230.118454,59.2927 229.982167,59.2944562 L229.349,59.299 L229.378596,58.370241 L229.409224,57.0311521 L229.432281,55.5707488 L229.456332,52.8537303 L229.465034,50.4122225 L229.464548,48.2871888 L229.457457,46.4309175 L229.43257,43.3455543 L229.401207,40.9033355 L229.371183,39.0976666 L229.309101,36.1582795 L229.232433,33.3342914 L229.141713,30.657806 L229.05938,28.6443929 L228.992118,27.2196554 L228.92026,25.8757562 L228.8175,24.2216242 L228.763219,23.4582098 L228.707049,22.7399693 L228.649025,22.0689574 C228.639202,21.9611719 228.629303,21.8554399 228.619329,21.7518041 L228.463846,20.2595159 L228.307684,18.8718474 L228.202655,18.0031149 L228.096508,17.1782666 L227.934476,16.0209905 L227.824104,15.3012795 L227.711471,14.621794 L227.59625,13.9814887 L227.478114,13.3793183 L227.356738,12.8142373 C227.295184,12.540795 227.232293,12.2808692 227.167881,12.033872 L227.036972,11.5569413 C226.970448,11.3269208 226.902281,11.1094368 226.832285,10.9039013 L226.706368,10.5520927 C225.613164,7.64052132 223.424048,5.22724421 220.248572,2.87119756 L220.006,2.693 L218.736149,1.70326957 L217.851406,1.02365522 L216.989407,0.370876513 L216.149492,-0.255159891 L215.331002,-0.85454732 L214.533278,-1.4273791 L213.755661,-1.97374857 C213.627697,-2.06261014 213.500543,-2.150373 213.374186,-2.2370391 L212.625492,-2.74389009 C212.255815,-2.99075056 211.893059,-3.22777515 211.536854,-3.45501638 L210.83307,-3.89646988 C210.601313,-4.03928326 210.372358,-4.17776402 210.146094,-4.31192772 L209.47527,-4.70148323 C206.160422,-6.58466046 203.426487,-7.5 200.902572,-7.5 L200.567857,-7.49480797 C197.346965,-7.39444748 194.537222,-5.83967791 190.853777,-2.87794524 L190.33,-2.452 L189.941268,-2.1722713 C187.147392,-0.106788347 185.113436,2.48219846 184.044219,5.57356018 L183.969422,5.79372874 L183.818082,6.26257531 L183.664264,6.76985363 L183.507784,7.31606664 L183.348462,7.90171732 L183.103748,8.8552392 L182.936521,9.54168451 L182.765812,10.2693278 L182.502823,11.4391394 L182.230976,12.7044757 L181.949657,14.0670343 L181.558767,16.0379476 L181.458072,16.5586252 C181.057581,18.6090617 180.709482,20.5551113 180.414314,22.3984478 L180.20287,23.7617176 C180.135703,24.2097388 180.071851,24.6513665 180.011325,25.086627 L179.839729,26.3733327 C179.435718,29.5424733 179.219202,32.3549264 179.193715,34.8217253 L179.170181,38.2863102 L179.091215,43.8063328 L179.007082,48.2273379 L178.938,51.2473341 L178.85044,54.4672252 L178.781286,56.6250341 L178.727145,58.1069333 L178.647,59.996 L177.687405,60.1631263 L176.448361,60.3646418 L175.088997,60.57265 L173.61021,60.7868998 L172.558449,60.9330766 L171.588,61.063 L171.70209,61.0519291 C158.962905,62.3800067 147.986398,64.3857739 138.750336,67.0922255 C132.728194,68.8568992 128.053574,73.2742455 124.557239,79.1421233 L124.322634,79.5414741 C122.462897,82.7522983 121.020038,86.3316024 120.462,89.135 L120.398886,89.2061724 C119.018883,90.7779093 118.237755,92.8438462 117.630572,95.4684408 L117.587,95.657 L117.473953,96.0919495 C116.546378,99.797218 116.685351,102.889516 119.256359,105.793187 L119.449927,106.005733 C120.886561,107.539265 122.710354,108.530625 125.586158,109.706148 L125.883,109.826 L134.12143,113.386383 C137.564034,114.837579 141.756904,114.555885 147.672735,112.958185 L148.596587,112.702059 L149.548413,112.425505 L150.529,112.128859 C150.694872,112.077763 150.861975,112.025844 151.030325,111.973108 L151.872,111.705 L156.285787,110.511522 L158.176431,110.007965 L161.185279,109.217806 L164.013944,108.489289 L165.623501,108.081891 L168.158105,107.452624 L170.505318,106.885778 L172.662367,106.381654 L174.249226,106.023717 L175.357483,105.781825 L176.724839,105.494843 L177.964812,105.248618 L178.278,105.189 L178.139714,106.497043 L177.996668,110.698217 L177.893903,114.239496 L177.821916,117.387466 L177.78547,119.7114 L177.771742,121.375213 L177.768376,122.877315 C177.764885,123.649239 177.755856,124.400582 177.741341,125.131227 L177.70501,126.56489 C177.617778,129.376888 177.443303,131.856524 177.184827,133.996482 L177.141,134.342 L177.058994,134.850263 L176.967828,135.484001 L176.873667,136.210185 L176.703896,137.663087 L175.965999,144.694679 L175.770078,146.485799 L175.55703,148.315372 L175.403386,149.542268 L175.303331,150.293566 L175.178,151.17 L173.584022,151.453335 L171.803094,151.75512 L169.139466,152.187566 L165.553352,152.746079 L160.825282,153.455305 L154.394414,154.390602 L151.332569,154.845255 L148.32551,155.303613 L145.373187,155.765708 L143.435353,156.075864 L141.521806,156.387703 L138.69699,156.858639 L136.844093,157.174729 L135.015427,157.492535 L132.31783,157.972483 L130.549676,158.294621 L128.8057,158.618508 L126.235032,159.107637 L124.55143,159.435936 L122.07125,159.931728 L120.447923,160.264497 L118.84868,160.599071 L117.273503,160.935459 L115.722377,161.27367 L114.195288,161.613712 L112.692218,161.955596 L110.482616,162.471895 L109.039527,162.818423 L107.620403,163.166825 L105.536618,163.692961 L104.177337,164.046087 L102.841967,164.40112 L101.530491,164.758068 L100.242893,165.116941 L98.9791581,165.477748 L97.7392701,165.840498 L96.5232135,166.205201 L95.3309724,166.571865 L94.1625312,166.9405 L93.0178742,167.311115 L91.8969856,167.68372 L90.7998497,168.058323 L89.7264507,168.434935 C89.5495281,168.497871 89.3735939,168.560892 89.1986477,168.623997 L88.1608248,169.003637 L87.1466996,169.385309 C86.9796527,169.449091 86.8135925,169.512958 86.6485187,169.57691 L85.6699106,169.961646 L84.7149608,170.348436 C84.5577732,170.413072 84.4015706,170.477795 84.2463529,170.542604 L83.3268612,170.932493 L82.4309887,171.324459 L81.8816453,171.572113 C77.8182782,173.487575 75.2811625,175.196391 73.7234834,177.854778 C71.9707048,180.846129 72.0383711,184.575507 74.2995971,187.478781 L74.5354615,187.770034 C75.2530644,188.622142 76.0608212,189.281658 76.9605142,189.809955 L77.074,189.873 L77.1241414,190.101447 C77.53139,191.890498 78.1106236,193.91891 78.7628764,195.765296 C80.8159211,201.577022 83.4349764,205.909266 87.6780678,208.246878 L88.8471545,208.886203 L89.9809741,209.496541 L91.0797927,210.077951 L92.1438763,210.630496 L93.1734909,211.154236 L94.1689025,211.649232 L95.1303771,212.115544 L96.0581808,212.553235 C96.5137092,212.764934 96.9567108,212.965923 97.3873352,213.156236 L98.2321253,213.522637 C98.5082506,213.640032 98.7789193,213.752692 99.0441756,213.860628 L99.823752,214.170271 L100.653322,214.484595 L101.12328,214.595364 L101.580467,214.69883 C108.896442,216.285908 116.257631,214.592999 123.309231,209.946371 L123.541,209.791 L123.756675,209.667227 C123.816791,209.633322 123.878245,209.599187 123.941034,209.564825 L124.333774,209.35593 L124.75845,209.141634 L125.214952,208.922006 L125.703169,208.697114 C125.787175,208.659198 125.872498,208.621064 125.959136,208.582716 L126.494717,208.350057 L127.061737,208.112304 L127.660083,207.869527 L128.289646,207.621794 L128.950314,207.369172 L129.641976,207.111731 L130.737343,206.716681 L131.901823,206.311171 L133.135045,205.895431 L134.436632,205.469692 L136.277784,204.886885 L137.737439,204.438711 L138.747854,204.134786 L139.787989,203.826827 L141.403675,203.357473 L143.085608,202.879427 L144.833414,202.392918 L146.03503,202.063992 L147.891794,201.563892 L149.867041,201.041984 L151.97182,200.497943 L154.00998,199.984207 L155.331576,199.658536 L157.257952,199.19524 L158.504712,198.903169 L159.721363,198.624523 L161.489665,198.231706 L162.630604,197.986583 L163.741083,197.754853 L164.821002,197.536509 L165.870261,197.331541 L166.888759,197.13994 L167.876397,196.961698 L168.833074,196.796806 L169.758689,196.645255 C169.910365,196.621108 170.060742,196.597516 170.209818,196.57448 L171.088655,196.442924 L171.93618,196.324687 L172.752294,196.219761 L173.536896,196.128136 L174.289886,196.049804 L175.011164,195.984756 L175.283,195.962 L175.28303,196.861812 L175.342309,198.14749 L175.49124,201.160932 L175.546095,203.452606 L175.586006,206.83292 L175.622019,214.615976 L175.637037,226.798545 L175.638315,232.728676 L175.711928,240.768005 L175.825765,249.781412 L175.9388,256.495501 L176.054579,261.967593 L176.184988,266.975452 L176.255748,269.306068 L176.368907,272.586221 L176.490573,275.608376 L176.620837,278.373579 L176.712501,280.074812 L176.783801,281.276283 L176.907527,283.137305 L177.010943,284.499184 L177.1458,286.043368 L177.229716,286.885755 L177.315896,287.66521 L177.404352,288.381863 L177.464593,288.824807 L177.495096,289.035845 C178.759902,297.606596 182.967665,304.297702 189.927096,308.489654 L190.0425,308.557769 C193.797098,310.728856 196.962738,312.032236 199.886257,312.396572 C204.815684,313.010888 209.346027,310.798338 211.136547,305.945068 L211.197775,305.779108 L211.228563,305.684058 C211.22518,305.696986 211.226022,305.698697 211.231372,305.690367 L211.26122,305.636424 C211.299798,305.564662 211.345418,305.484622 211.398029,305.396763 L211.576782,305.110189 C211.610052,305.058669 211.645058,305.00531 211.681792,304.950168 L211.797173,304.77945 C212.190213,304.205801 212.70524,303.528839 213.338983,302.757123 L213.836499,302.160704 C213.923111,302.058384 214.011565,301.954617 214.101855,301.84942 L214.483893,301.408045 L214.584247,301.282112 C219.355313,295.295008 222.570154,289.918321 224.192279,284.988542 L224.29049,284.682962 C224.52191,283.945756 224.733912,283.146367 224.927145,282.283269 L225.088192,281.527833 C225.140352,281.270796 225.190995,281.008523 225.240136,280.740979 L225.383068,279.922492 C225.42922,279.644368 225.473886,279.360936 225.51708,279.072161 L225.642261,278.18977 C225.702659,277.740525 225.759781,277.279177 225.813676,276.805607 L225.917179,275.842135 L226.01217,274.845855 L226.09874,273.816556 L226.176979,272.754023 C226.18933,272.574153 226.201337,272.392889 226.213003,272.210227 L226.278916,271.097443 L226.336726,269.950891 L226.386522,268.770357 L226.428396,267.555628 L226.462439,266.306491 L226.488742,265.022732 C226.492485,264.805875 226.49591,264.587566 226.499019,264.367802 L226.518488,262.350491 L226.522,261.014 L226.706562,251.819813 L227.008642,238.518549 L227.472689,220.05662 L227.836639,206.587213 L227.925933,203.803503 L228.005,201.644 L228.013636,201.630879 C228.199249,201.281483 228.277206,201.092148 228.335851,200.881086 L228.391331,200.65605 L228.511063,200.115878 L228.562063,199.828508 C228.565445,199.806109 228.569077,199.781776 228.573113,199.75474 L228.653408,198.827305 L228.654707,198.301575 L228.662635,197.850584 L228.678481,197.353643 L228.702261,196.811001 L228.733994,196.222905 L228.79654,195.256078 L228.907929,193.810202 L229.012542,192.6093 L229.135281,191.309476 L229.259,190.078 Z" id="Path" fill="#000000" fill-rule="nonzero"></path>
    </g>
</svg>