<svg width="260" height="230" viewBox="0 0 260 230" fill="none" xmlns="http://www.w3.org/2000/svg">
<path d="M236.852 114.062C240.678 118.263 243.288 121.864 244.679 124.865C246.245 127.866 246.419 130.266 245.201 132.067C243.983 133.667 241.461 134.667 237.634 135.067C233.808 135.267 228.416 134.767 221.458 133.567C201.628 130.166 174.754 130.466 140.835 134.467C140.835 139.869 140.835 145.17 140.835 150.371C141.477 168.817 141.625 177.597 139.27 195.883C137.878 206.885 135.791 216.488 133.008 224.69C130.051 233.092 127.528 237.193 125.441 236.993C123.354 236.993 121.353 233.092 119.44 225.29C118.744 222.089 118.135 218.988 117.613 215.988C117.092 213.187 116.657 210.186 116.309 206.985C116.135 203.985 115.961 200.784 115.787 197.383C115.613 193.982 115.526 190.081 115.526 185.68V137.468C101.437 139.268 89.4349 141.169 79.5201 143.169C69.7793 144.97 61.0821 146.97 53.4286 149.171C49.254 150.371 45.7751 151.271 42.9921 151.872C40.3829 152.472 37.9478 152.672 35.6865 152.472C33.5992 152.072 31.5117 151.271 29.4244 150.071C27.3371 148.671 24.8152 146.77 21.8581 144.37C16.292 139.769 13.6828 136.768 14.0307 135.367C14.5525 133.967 18.4662 133.067 25.7719 132.667C26.9895 132.667 28.2068 132.567 29.4244 132.367C30.816 132.167 32.3814 131.967 34.1208 131.767C35.8602 131.566 37.9477 131.266 40.3829 130.866C42.8181 130.466 45.9489 129.966 49.7757 129.366C53.4285 128.766 57.9511 128.066 63.3433 127.265C68.9095 126.465 74.7367 125.665 80.8247 124.865C86.9127 123.865 93.0007 122.964 99.0887 122.164C105.177 121.364 110.656 120.664 115.526 120.064V83.0543C107.351 84.2546 100.741 85.1548 95.6969 85.7549C90.8265 86.155 86.8256 86.3551 83.6946 86.3551C80.5636 86.155 77.9545 85.7549 75.8671 85.1548C73.9538 84.5546 71.8667 83.6544 69.6054 82.4541C62.9956 78.6531 60.0384 76.1525 60.7342 74.9522C61.4299 73.7519 65.6917 72.6516 73.5192 71.6514C78.7375 70.8512 85.0863 69.8509 92.5659 68.6506C100.219 67.2503 107.873 65.7499 115.526 64.1495C115.526 47.5258 117.098 49.272 113.439 33.0417C112.395 27.4402 110.395 22.639 107.438 18.638C104.481 14.8371 102.481 11.5362 101.437 8.73553C100.567 5.73478 100.741 3.53422 101.959 2.13386C103.176 0.533466 105.612 -0.166707 109.265 0.0333411C112.917 0.0333411 117.962 1.03359 124.398 3.03409C130.312 4.83455 134.921 6.73503 138.226 8.73553C141.705 10.736 144.14 12.8366 145.531 15.0371C146.923 17.0376 147.532 19.2382 147.358 21.6388C147.184 23.8393 146.488 26.34 145.271 29.1407C144.227 31.5413 143.357 34.242 142.662 37.2427C140.922 47.2455 140.835 37.6886 140.835 47.8454C140.835 55.4473 140.835 45.0447 140.835 56.6476C146.575 55.0472 151.359 53.8469 155.185 53.0467C159.012 52.0464 162.404 51.5463 165.361 51.5463C168.318 51.3463 171.014 51.5463 173.449 52.1465C175.885 52.5466 178.494 53.3468 181.277 54.5471C186.321 56.7476 188.67 59.3483 188.322 62.349C187.974 65.1497 185.625 67.3503 181.277 68.9507C176.406 70.7512 170.753 72.5516 164.317 74.3521C158.055 75.9525 150.228 77.5529 140.835 79.1533V116.463C150.75 114.862 159.447 113.362 166.927 111.962C174.406 110.561 181.451 109.061 188.06 107.46C195.54 105.66 201.802 104.46 206.846 103.859C212.065 103.059 216.413 102.959 219.892 103.559C223.371 104.16 226.415 105.36 229.024 107.16C231.633 108.961 234.242 111.261 236.852 114.062Z" fill="black"/>
<path fill-rule="evenodd" clip-rule="evenodd" d="M240.53 110.674L240.549 110.694C244.472 115.002 247.454 119.007 249.167 122.656C251.035 126.285 252.064 130.845 249.344 134.867L249.266 134.982L249.181 135.093C246.63 138.447 242.232 139.613 238.155 140.04L238.026 140.053L237.896 140.06C233.509 140.289 227.682 139.714 220.609 138.494C202.312 135.356 177.45 135.44 145.836 138.928V150.284C146.479 168.784 146.632 177.873 144.231 196.513C142.808 207.76 140.659 217.703 137.744 226.296L137.734 226.323L137.725 226.349C136.21 230.654 134.701 234.178 133.158 236.686C132.395 237.928 131.467 239.182 130.319 240.153C129.21 241.092 127.451 242.123 125.205 241.988C123.115 241.916 121.507 240.895 120.441 239.878C119.366 238.852 118.558 237.578 117.927 236.348C116.659 233.876 115.571 230.502 114.585 226.48L114.569 226.416L114.555 226.352C113.848 223.098 113.227 219.939 112.694 216.873C112.148 213.942 111.698 210.825 111.339 207.525L111.326 207.4L111.318 207.274C111.144 204.26 110.969 201.048 110.795 197.638C110.616 194.132 110.527 190.143 110.527 185.679V143.167C98.9361 144.735 88.9351 146.37 80.5101 148.07L80.4701 148.078L80.43 148.085C70.8119 149.863 62.277 151.829 54.8113 153.976C50.594 155.188 47.0081 156.119 44.0798 156.752C41.0602 157.443 38.1045 157.704 35.247 157.452L34.9949 157.429L34.7463 157.382C32.0463 156.864 29.4387 155.846 26.933 154.405L26.7833 154.319L26.6398 154.223C24.3801 152.707 21.7292 150.704 18.7078 148.251L18.6906 148.237L18.6735 148.223C15.8201 145.864 13.5285 143.759 11.9545 141.948C11.177 141.054 10.4209 140.059 9.87795 139.002C9.40435 138.08 8.65393 136.276 9.17925 134.161L9.24755 133.886L9.34648 133.621C10.1204 131.544 11.7901 130.473 12.757 129.972C13.841 129.41 15.0647 129.038 16.2376 128.769C18.6123 128.222 21.7527 127.879 25.4995 127.674L25.6361 127.666H25.7729C26.7153 127.666 27.6615 127.589 28.6148 127.432L28.6643 127.424L28.714 127.417C30.1618 127.209 31.7751 127.003 33.5506 126.799C35.1851 126.611 37.1884 126.324 39.5733 125.932C42.0213 125.53 45.1591 125.028 48.9837 124.429C52.6677 123.823 57.2119 123.12 62.6104 122.319L62.6216 122.317L62.6329 122.316C68.1965 121.516 74.0172 120.716 80.0947 119.917C86.2088 118.914 92.3233 118.01 98.4382 117.206C102.774 116.636 106.804 116.117 110.527 115.648V88.8288C104.899 89.6291 100.151 90.2598 96.2887 90.7193L96.1982 90.7301L96.1073 90.7375C91.167 91.1434 87.0166 91.3545 83.6956 91.3545H83.5361L83.3768 91.3443C80.03 91.1304 77.036 90.6925 74.4866 89.9595L74.429 89.9429L74.3718 89.925C72.0981 89.2118 69.7241 88.1767 67.2622 86.8699L67.1874 86.8302L67.114 86.7879C63.7475 84.852 61.0366 83.096 59.2027 81.5452C58.3227 80.8011 57.3311 79.8472 56.6318 78.7026C55.9748 77.6274 54.8664 75.106 56.4094 72.4441C57.3987 70.7375 59.0256 69.9038 59.821 69.5347C60.8301 69.0664 61.9988 68.6959 63.2034 68.3849C65.6233 67.7602 68.8659 67.2063 72.8238 66.6991C78.0028 65.9047 84.301 64.9124 91.7208 63.7218C98.0003 62.5725 104.28 61.3554 110.56 60.0705C110.597 57.8131 110.66 55.9632 110.719 54.372C110.729 54.1106 110.738 53.8583 110.748 53.614C110.826 51.5239 110.883 50.0244 110.856 48.5353C110.801 45.3934 110.374 42.1785 108.562 34.1406L108.542 34.0491L108.525 33.9569C107.604 29.0146 105.88 24.9569 103.453 21.6559C100.369 17.6862 98.0431 13.9432 96.7529 10.4808L96.6878 10.306L96.6358 10.1268C95.6333 6.66794 95.2652 2.33031 98.0804 -1.02327C100.876 -4.56937 105.484 -5.16271 109.403 -4.9669C113.794 -4.94272 119.36 -3.76796 125.869 -1.74558C131.941 0.103829 136.969 2.1376 140.768 4.4282C144.545 6.60672 147.706 9.1663 149.699 12.2713C151.692 15.1768 152.601 18.4782 152.346 21.9995L152.345 22.0158L152.343 22.0321C152.113 24.9508 151.217 28.0053 149.857 31.1336C148.968 33.1787 148.197 35.5402 147.564 38.2405C147.133 40.6993 146.744 42.3355 146.321 43.4567C146.206 43.761 146.055 44.1218 145.847 44.5015C145.839 45.1941 145.836 46.2425 145.836 47.8448V50.1234C148.903 49.3319 151.64 48.682 154.043 48.1771C158.041 47.14 161.773 46.5647 165.192 46.5462C168.44 46.3403 171.541 46.5501 174.454 47.2443C177.31 47.7327 180.25 48.6578 183.258 49.9552L183.268 49.9594L183.277 49.9636C186.119 51.2032 188.688 52.7531 190.533 54.7965C192.501 56.9756 193.656 59.7609 193.289 62.9242L193.287 62.9445L193.285 62.9648C192.582 68.6187 187.909 71.8369 183.008 73.6411C177.982 75.4992 172.196 77.3398 165.665 79.1666L165.611 79.1818L165.557 79.1957C160.083 80.5946 153.503 81.9796 145.836 83.3546V110.579C153.346 109.336 160.069 108.158 166.007 107.046C173.411 105.66 180.369 104.178 186.885 102.6L186.891 102.599C194.436 100.783 200.878 99.5389 206.173 98.9039C211.654 98.0694 216.56 97.9099 220.743 98.6316C224.855 99.3409 228.595 100.788 231.865 103.044C234.826 105.087 237.704 107.64 240.511 110.653L240.53 110.674ZM206.847 103.859C201.803 104.459 195.541 105.659 188.062 107.46C181.452 109.06 174.407 110.561 166.928 111.961C160.732 113.121 153.702 114.349 145.836 115.646C144.205 115.915 142.539 116.187 140.836 116.462V79.1527C150.229 77.5522 158.057 75.9518 164.318 74.3514C170.754 72.551 176.408 70.7505 181.278 68.9501C185.626 67.3497 187.975 65.1491 188.323 62.3484C188.671 59.3477 186.322 56.747 181.278 54.5465C178.495 53.3462 175.886 52.546 173.45 52.1459C171.015 51.5457 168.319 51.3456 165.362 51.5457C162.405 51.5457 159.013 52.0458 155.186 53.0461C152.531 53.6014 149.414 54.3496 145.836 55.2904C144.259 55.7051 142.592 56.1573 140.836 56.647V47.8448C140.836 42.6241 140.859 42.6119 141.118 42.4746C141.362 42.3449 141.817 42.1033 142.663 37.2421C143.358 34.2413 144.228 31.5407 145.272 29.14C146.489 26.3393 147.185 23.8387 147.359 21.6382C147.533 19.2376 146.924 17.037 145.533 15.0365C144.141 12.8359 141.706 10.7354 138.227 8.73491C134.922 6.73441 130.313 4.83393 124.399 3.03348C117.963 1.03297 112.918 0.0327229 109.266 0.0327229C105.613 -0.167325 103.177 0.532848 101.96 2.13324C100.742 3.5336 100.568 5.73416 101.438 8.73491C102.482 11.5356 104.482 14.8364 107.439 18.6374C110.396 22.6384 112.396 27.4396 113.44 33.041C116.085 44.7738 115.997 47.1126 115.745 53.7876C115.648 56.3464 115.527 59.5423 115.527 64.1489C107.874 65.7493 100.22 67.2497 92.5669 68.65C85.0874 69.8503 78.7385 70.8506 73.5202 71.6508C65.6928 72.651 61.431 73.7513 60.7352 74.9516C60.0395 76.1519 62.9967 78.6525 69.6065 82.4535C71.8678 83.6538 73.9548 84.554 75.8682 85.1542C77.9555 85.7543 80.5647 86.1544 83.6956 86.3545C86.8266 86.3545 90.8276 86.1544 95.698 85.7543C99.6703 85.2817 104.613 84.623 110.527 83.7782C112.123 83.5502 113.79 83.3087 115.527 83.0536V120.063C110.657 120.663 105.178 121.363 99.0898 122.163C93.0018 122.964 86.9138 123.864 80.8257 124.864C74.7377 125.664 68.9106 126.465 63.3444 127.265C57.9521 128.065 53.4295 128.765 49.7767 129.365C45.95 129.965 42.8192 130.466 40.384 130.866C37.9488 131.266 35.8613 131.566 34.1218 131.766C32.3824 131.966 30.817 132.166 29.4255 132.366C28.2079 132.566 26.9905 132.666 25.7729 132.666C18.4673 133.066 14.5536 133.966 14.0318 135.367C13.6839 136.767 16.293 139.768 21.8592 144.369C24.8162 146.77 27.3381 148.67 29.4255 150.071C31.5128 151.271 33.6003 152.071 35.6876 152.471C37.9488 152.671 40.384 152.471 42.9931 151.871C45.7762 151.271 49.2551 150.371 53.4297 149.17C61.0832 146.97 69.7804 144.969 79.5212 143.169C88.2418 141.409 98.5771 139.727 110.527 138.122C112.164 137.902 113.83 137.684 115.527 137.467V185.679C115.527 190.081 115.615 193.982 115.788 197.382C115.962 200.783 116.136 203.984 116.31 206.985C116.658 210.186 117.093 213.186 117.615 215.987C118.136 218.988 118.745 222.089 119.441 225.289C121.354 233.091 123.355 236.992 125.442 236.992C127.529 237.192 130.052 233.091 133.009 224.689C135.792 216.487 137.879 206.885 139.271 195.882C141.626 177.596 141.478 168.816 140.836 150.371V134.467C174.755 130.466 201.629 130.165 221.459 133.566C228.417 134.767 233.809 135.267 237.635 135.067C241.462 134.667 243.984 133.666 245.202 132.066C246.42 130.266 246.246 127.865 244.68 124.864C243.289 121.863 240.679 118.263 236.853 114.061C234.244 111.261 231.634 108.96 229.025 107.16C226.416 105.359 223.372 104.159 219.893 103.559C216.414 102.959 212.066 103.059 206.847 103.859ZM145.881 43.4208C145.882 43.4219 145.88 43.4449 145.875 43.4856C145.878 43.4399 145.881 43.4196 145.881 43.4208Z" fill="black"/>
</svg>
