<svg width="260" height="230" viewBox="0 0 260 230" fill="none" xmlns="http://www.w3.org/2000/svg">
<path d="M261.1 184.094C270.5 188.294 275.2 191.794 275.2 194.594C275.2 197.194 270 199.194 259.6 200.594C243.2 202.594 230.1 203.794 220.3 204.194C210.7 204.594 203 203.894 197.2 202.094C191.4 200.094 186.7 196.794 183.1 192.194C179.7 187.594 176.1 181.194 172.3 172.994C169.9 167.794 166.6 161.194 162.4 153.194C158.2 145.194 153.7 136.794 148.9 127.994C144.1 118.994 139.3 110.194 134.5 101.594C129.7 92.9938 125.5 85.4938 121.9 79.0938C117.7 71.8938 114.1 66.0938 111.1 61.6938C108.3 57.2938 105.6 53.7938 103 51.1938C100.6 48.3938 98.0998 46.2938 95.4998 44.8938C92.8998 43.4938 89.8 42.0938 86.2 40.6938C82.8 39.4938 80.3 38.0938 78.7 36.4938C77.3 34.6938 77.0999 32.9938 78.0999 31.3938C79.0999 29.7938 81.4998 28.3938 85.2998 27.1938C89.0998 25.9938 94.7999 25.2938 102.4 25.0938C107 25.0938 110.9 25.4937 114.1 26.2938C117.3 27.0938 120.1 28.3938 122.5 30.1938C124.9 31.9938 127 34.3938 128.8 37.3938C130.6 40.3938 132.4 43.9938 134.2 48.1938C136.6 54.1938 139.9 61.0938 144.1 68.8938C148.5 76.4938 153.4 84.3938 158.8 92.5938C164.2 100.794 169.9 108.794 175.9 116.594C182.1 124.394 188.1 131.394 193.9 137.594C199.3 143.194 204.1 147.994 208.3 151.994C212.7 155.994 217.3 159.694 222.1 163.094C226.9 166.494 232.3 169.794 238.3 172.994C244.5 176.194 252.1 179.894 261.1 184.094ZM96.3999 116.894C95.1999 117.894 93.9998 118.994 92.7998 120.194C91.7998 121.194 90.6 122.594 89.2 124.394C87.8 125.994 86.0999 128.094 84.0999 130.694C82.2999 133.094 80.0998 136.194 77.4998 139.994C71.0998 149.194 65.0998 156.994 59.4998 163.394C53.8998 169.794 48.1999 175.294 42.3999 179.894C36.5999 184.494 30.4999 188.394 24.0999 191.594C17.8999 194.794 11.1 197.594 3.69997 199.994C-8.10003 203.994 -14.4002 205.194 -15.2002 203.594C-16.0002 201.994 -11.4001 197.494 -1.40013 190.094C4.39988 185.694 10.1 180.594 15.7 174.794C21.5 168.994 26.7999 162.894 31.5999 156.494C36.5999 150.094 40.9998 143.694 44.7998 137.294C48.7998 130.694 52.1 124.494 54.7 118.694C57.3 112.894 58.9998 107.694 59.7998 103.094C60.7998 98.4938 60.7998 94.8938 59.7998 92.2938C57.9998 87.8938 57.0999 84.2938 57.0999 81.4938C57.2999 78.6938 58.5 76.8938 60.7 76.0938C62.9 75.2938 66.1999 75.6938 70.5999 77.2938C74.9999 78.6938 80.5999 81.5938 87.3999 85.9938C98.3999 92.9938 104.2 98.7938 104.8 103.394C105.6 107.794 102.8 112.294 96.3999 116.894Z" fill="black"/>
<path fill-rule="evenodd" clip-rule="evenodd" d="M78.6994 36.4938C77.2994 34.6938 77.0993 32.9938 78.0993 31.3938C79.0993 29.7938 81.4992 28.3938 85.2992 27.1938C89.0992 25.9938 94.7993 25.2938 102.399 25.0938C106.999 25.0938 110.899 25.4937 114.099 26.2938C117.299 27.0938 120.099 28.3938 122.499 30.1938C124.899 31.9938 126.999 34.3938 128.799 37.3938C130.599 40.3938 132.399 43.9938 134.199 48.1938C136.599 54.1938 139.899 61.0938 144.099 68.8938C148.499 76.4938 153.399 84.3938 158.799 92.5938C164.199 100.794 169.899 108.794 175.899 116.594C182.099 124.394 188.099 131.394 193.899 137.594C199.299 143.194 204.099 147.994 208.299 151.994C212.699 155.994 217.299 159.694 222.099 163.094C226.899 166.494 232.299 169.794 238.299 172.994C244.499 176.194 252.099 179.894 261.099 184.094C270.499 188.294 275.199 191.794 275.199 194.594C275.199 197.194 269.999 199.194 259.599 200.594C243.199 202.594 230.099 203.794 220.299 204.194C210.699 204.594 202.999 203.894 197.199 202.094C191.399 200.094 186.699 196.794 183.099 192.194C179.699 187.594 176.099 181.194 172.299 172.994C169.899 167.794 166.599 161.194 162.399 153.194C158.199 145.194 153.699 136.794 148.899 127.994C144.099 118.994 139.299 110.194 134.499 101.594C129.699 92.9938 125.499 85.4938 121.899 79.0938C117.699 71.8938 114.099 66.0938 111.099 61.6938C108.299 57.2938 105.599 53.7938 102.999 51.1938C100.599 48.3938 98.0992 46.2938 95.4992 44.8938C92.8992 43.4938 89.7994 42.0938 86.1994 40.6938C82.7994 39.4938 80.2994 38.0938 78.6994 36.4938ZM84.1088 46.3186C80.3478 44.982 76.936 43.2157 74.4567 40.7364L74.1926 40.4723L73.9632 40.1774C72.8081 38.6922 71.8042 36.8111 71.5404 34.57C71.2644 32.2245 71.8667 30.045 73.0113 28.2138C74.2131 26.2908 75.9531 24.937 77.626 23.9611C79.3362 22.9634 81.3346 22.1537 83.4924 21.4723C88.1118 20.0135 94.4913 19.2998 102.241 19.0958L102.32 19.0938H102.399C107.313 19.0938 111.733 19.5175 115.554 20.4729C119.453 21.4475 122.998 23.0682 126.099 25.3938C129.214 27.7301 131.81 30.7502 133.944 34.3068C135.918 37.597 137.838 41.4517 139.714 45.8302L139.743 45.8975L139.77 45.9654C142.053 51.6735 145.231 58.334 149.338 65.9675C153.662 73.4327 158.485 81.2078 163.81 89.2938C169.121 97.3576 174.726 105.225 180.626 112.897C186.72 120.563 192.595 127.415 198.25 133.461C203.574 138.982 208.284 143.692 212.386 147.6C216.593 151.421 220.986 154.953 225.567 158.198C230.123 161.424 235.291 164.588 241.087 167.681C247.177 170.823 254.674 174.474 263.593 178.636C268.421 180.796 272.395 182.925 275.258 185.056C276.694 186.126 278.067 187.354 279.127 188.775C280.184 190.191 281.199 192.171 281.199 194.594C281.199 197.488 279.683 199.613 278.2 200.925C276.788 202.174 275.067 203.023 273.453 203.644C270.189 204.899 265.732 205.822 260.4 206.54L260.363 206.545L260.326 206.55C243.858 208.558 230.577 209.779 220.544 210.189C210.612 210.602 202.144 209.911 195.421 207.824L195.332 207.796L195.243 207.766C188.407 205.409 182.724 201.45 178.374 195.892L178.323 195.827L178.274 195.76C174.536 190.703 170.74 183.899 166.855 175.517L166.851 175.508C164.511 170.438 161.263 163.937 157.087 155.983C152.903 148.014 148.418 139.642 143.632 130.867L143.618 130.842L143.605 130.817C138.823 121.85 134.041 113.083 129.26 104.518C124.473 95.9405 120.284 88.4605 116.693 82.077C112.54 74.9578 109.026 69.304 106.142 65.0738L106.088 64.9952L106.037 64.915C103.383 60.7443 100.948 57.6282 98.7565 55.4364L98.5936 55.2735L98.4436 55.0985C96.4091 52.7249 94.4649 51.1514 92.6546 50.1766L95.4638 44.9594L92.6546 50.1766C90.3444 48.9327 87.5075 47.6433 84.1088 46.3186ZM57.0993 81.4938C57.2993 78.6938 58.4994 76.8938 60.6994 76.0938C62.8994 75.2938 66.1993 75.6938 70.5993 77.2938C74.9993 78.6938 80.5993 81.5938 87.3993 85.9938C98.3993 92.9938 104.199 98.7938 104.799 103.394C105.599 107.794 102.799 112.294 96.3993 116.894C95.1993 117.894 93.9992 118.994 92.7992 120.194C91.7992 121.194 90.5994 122.594 89.1994 124.394C87.7994 125.994 86.0993 128.094 84.0993 130.694C82.2993 133.094 80.0992 136.194 77.4992 139.994C71.0992 149.194 65.0992 156.994 59.4992 163.394C53.8992 169.794 48.1993 175.294 42.3993 179.894C36.5993 184.494 30.4993 188.394 24.0993 191.594C17.8993 194.794 11.0994 197.594 3.69936 199.994C-1.35898 201.708 -5.40667 202.909 -8.44367 203.594C-8.74852 203.663 -9.04319 203.727 -9.32768 203.785C-12.8204 204.503 -14.7782 204.439 -15.2008 203.594C-15.6205 202.754 -14.554 201.117 -12.0013 198.681C-11.7909 198.48 -11.5703 198.274 -11.3396 198.063C-9.03508 195.948 -5.72212 193.292 -1.40074 190.094C4.39926 185.694 10.0994 180.594 15.6994 174.794C21.4994 168.994 26.7993 162.894 31.5993 156.494C36.5993 150.094 40.9992 143.694 44.7992 137.294C48.7992 130.694 52.0994 124.494 54.6994 118.694C57.2994 112.894 58.9992 107.694 59.7992 103.094C60.7992 98.4938 60.7992 94.8938 59.7992 92.2938C57.9992 87.8938 57.0993 84.2938 57.0993 81.4938ZM54.2152 94.4903C52.3149 89.8297 51.0993 85.4123 51.0993 81.4938V81.2797L51.1145 81.0663C51.2671 78.9303 51.8337 76.7004 53.1571 74.7155C54.5257 72.6627 56.4515 71.254 58.6489 70.455C62.9408 68.8943 67.9647 69.9637 72.5365 71.614C77.6587 73.2632 83.7353 76.4777 90.6397 80.944C96.3113 84.5544 100.91 88.0193 104.242 91.3511C107.4 94.5091 110.123 98.2363 110.728 102.463C112.091 110.384 106.74 116.803 100.087 121.632C99.0867 122.473 98.0715 123.407 97.0418 124.436C96.2909 125.187 95.2632 126.37 93.9355 128.077L93.829 128.214L93.7148 128.345C92.4345 129.808 90.8266 131.79 88.8773 134.323C87.1529 136.624 85.0139 139.636 82.451 143.382L82.4379 143.401L82.4246 143.42C75.935 152.749 69.7983 160.735 64.0146 167.345C58.21 173.979 52.2505 179.739 46.1277 184.595C40.0248 189.435 33.5875 193.555 26.8172 196.943C20.3167 200.296 13.2354 203.207 5.58772 205.689C-0.361695 207.705 -5.19105 209.109 -8.75306 209.788C-10.4904 210.119 -12.288 210.35 -13.907 210.259C-14.7157 210.214 -15.8105 210.073 -16.9371 209.607C-18.1154 209.119 -19.6401 208.132 -20.5674 206.277C-21.48 204.452 -21.3697 202.674 -21.0865 201.477C-20.8125 200.318 -20.3072 199.362 -19.8809 198.678C-19.0281 197.309 -17.8152 195.971 -16.5465 194.73C-13.9496 192.189 -10.0423 189.025 -4.99893 185.292C0.521599 181.102 5.98365 176.218 11.3829 170.626L11.4195 170.588L11.4567 170.551C17.061 164.947 22.1738 159.061 26.7993 152.894L26.8347 152.846L26.8711 152.8C31.7282 146.583 35.9813 140.393 39.6401 134.231L39.6539 134.207L39.668 134.184C43.5661 127.752 46.744 121.772 49.2243 116.239C51.6881 110.743 53.1979 106.034 53.8879 102.066L53.9095 101.942L53.9361 101.819C54.8277 97.718 54.5861 95.4985 54.2152 94.4903ZM-13.232 198.278C-13.2489 198.277 -13.2448 198.277 -13.2221 198.279C-13.2256 198.279 -13.2289 198.278 -13.232 198.278ZM-9.69562 205.023C-9.69442 205.021 -9.69317 205.019 -9.69187 205.017C-9.7047 205.039 -9.70742 205.041 -9.69562 205.023Z" fill="black"/>
</svg>
