<svg width="261" height="231" viewBox="0 0 261 231" fill="none" xmlns="http://www.w3.org/2000/svg">
<path d="M200.423 75.4923C197.023 76.4923 193.323 77.3923 189.323 78.1923C185.323 78.9923 180.723 79.8923 175.523 80.8923C170.523 81.6923 164.723 82.5923 158.123 83.5923C151.723 84.3923 144.323 85.2923 135.923 86.2923C127.923 87.2923 120.923 87.8923 114.923 88.0923C108.923 88.2923 103.523 88.1923 98.7227 87.7923C93.9227 87.1923 89.4227 86.2923 85.2227 85.0923C81.2227 83.8923 77.2227 82.2923 73.2227 80.2923C65.6227 76.6923 62.0227 74.0923 62.4227 72.4923C63.0227 70.6923 67.8227 69.4923 76.8227 68.8923C83.2227 68.4923 90.0227 67.8923 97.2227 67.0923C104.623 66.0923 112.023 64.9923 119.423 63.7923C126.823 62.5923 134.023 61.1923 141.023 59.5923C148.223 57.9923 154.823 56.1923 160.823 54.1923C170.623 50.9923 178.223 49.2923 183.623 49.0923C189.023 48.6923 194.323 49.5923 199.523 51.7923C209.723 55.9923 214.823 60.3923 214.823 64.9923C214.823 69.3923 210.023 72.8923 200.423 75.4923ZM255.623 149.092C266.023 159.692 270.123 167.392 267.923 172.192C265.923 176.992 257.623 177.992 243.023 175.192C236.423 173.992 229.923 172.992 223.523 172.192C217.323 171.192 210.223 170.492 202.223 170.092C194.423 169.692 185.223 169.592 174.623 169.792C164.223 169.792 151.523 170.092 136.523 170.692C119.123 171.492 103.123 172.692 88.5226 174.292C73.9226 175.892 61.4226 177.892 51.0226 180.292C45.8226 181.492 41.5226 182.392 38.1226 182.992C34.7226 183.392 31.7226 183.492 29.1226 183.292C26.5226 183.092 24.1226 182.392 21.9226 181.192C19.7226 179.992 17.3227 178.192 14.7227 175.792C4.52265 166.192 -0.377359 160.092 0.0226415 157.492C0.422642 154.692 7.32265 154.092 20.7227 155.692C22.5227 155.892 25.4226 155.992 29.4226 155.992C33.4226 155.792 39.9226 155.492 48.9226 155.092C59.9226 154.492 72.8226 153.692 87.6227 152.692C102.623 151.492 117.523 150.292 132.323 149.092C147.323 147.692 161.223 146.292 174.023 144.892C187.023 143.292 197.123 141.792 204.323 140.392C211.323 139.192 217.223 138.292 222.023 137.692C227.023 137.092 231.423 137.092 235.223 137.692C239.023 138.092 242.523 139.192 245.723 140.992C248.923 142.792 252.223 145.492 255.623 149.092Z" fill="black"/>
<path fill-rule="evenodd" clip-rule="evenodd" d="M176.563 86.8021L176.471 86.817C171.45 87.6203 165.633 88.5229 159.021 89.5246L158.944 89.5363L158.867 89.546C152.457 90.3473 145.05 91.248 136.649 92.2482C128.533 93.2624 121.349 93.8814 115.122 94.089C108.944 94.295 103.305 94.195 98.2243 93.7716L98.1011 93.7613L97.9784 93.746C92.9048 93.1118 88.1 92.1546 83.5743 90.8615L83.5363 90.8506L83.4985 90.8393C79.1656 89.5394 74.8646 87.8177 70.5968 85.6876C66.7291 83.8533 63.5518 82.1257 61.3097 80.5064C60.21 79.7122 59.0184 78.7215 58.1 77.5161C57.2573 76.41 55.8495 74.0462 56.6018 71.0371L56.6577 70.8136L56.7305 70.595C57.5765 68.0571 59.5362 66.6821 60.7463 66.0099C62.0703 65.2743 63.5743 64.7823 65.0174 64.4215C67.9373 63.6915 71.8066 63.2134 76.4235 62.9056L76.4359 62.9048L76.4483 62.904C82.7199 62.512 89.3996 61.9236 96.4895 61.1369C103.813 60.1465 111.138 59.0575 118.462 57.8697C125.741 56.6893 132.816 55.3135 139.686 53.7432L139.703 53.7391L139.721 53.7352C146.752 52.1728 153.15 50.4254 158.925 48.5002L158.943 48.4944L158.96 48.4887C168.844 45.2614 177.047 43.3508 183.289 43.1007C189.633 42.6484 195.837 43.723 201.833 46.255C207.188 48.462 211.674 50.9012 214.917 53.6994C218.161 56.4986 220.823 60.2622 220.823 64.9923C220.823 69.7368 218.118 73.315 214.758 75.7654C211.511 78.1326 207.123 79.889 202.054 81.2667C198.478 82.3161 194.624 83.2508 190.499 84.0758C186.481 84.8794 181.866 85.7823 176.656 86.7844L176.563 86.8021ZM200.423 75.4923C197.023 76.4923 193.323 77.3923 189.323 78.1923C185.323 78.9923 180.723 79.8923 175.523 80.8923C170.523 81.6923 164.723 82.5923 158.123 83.5923C151.723 84.3923 144.323 85.2923 135.923 86.2923C127.923 87.2923 120.923 87.8923 114.923 88.0923C108.923 88.2923 103.523 88.1923 98.7226 87.7923C93.9226 87.1923 89.4226 86.2923 85.2226 85.0923C81.2226 83.8923 77.2226 82.2923 73.2226 80.2923C65.6226 76.6923 62.0226 74.0923 62.4226 72.4923C63.0226 70.6923 67.8226 69.4923 76.8226 68.8923C83.2226 68.4923 90.0226 67.8923 97.2226 67.0923C104.623 66.0923 112.023 64.9923 119.423 63.7923C126.823 62.5923 134.023 61.1923 141.023 59.5923C148.223 57.9923 154.823 56.1923 160.823 54.1923C170.623 50.9923 178.223 49.2923 183.623 49.0923C189.023 48.6923 194.323 49.5923 199.523 51.7923C209.723 55.9923 214.823 60.3923 214.823 64.9923C214.823 69.3923 210.023 72.8923 200.423 75.4923ZM222.673 178.133L222.567 178.116C216.634 177.159 209.76 176.477 201.923 176.085L201.915 176.084C194.295 175.694 185.241 175.593 174.736 175.791L174.679 175.792H174.623C164.333 175.792 151.724 176.089 136.78 176.687C119.491 177.482 103.625 178.673 89.1762 180.257C74.7301 181.84 62.4754 183.807 52.3718 186.139C47.1184 187.351 42.7073 188.276 39.1653 188.901L38.9952 188.931L38.8237 188.951C35.1503 189.383 31.7476 189.512 28.6624 189.275C25.2518 189.012 22.0245 188.082 19.0495 186.46C16.2802 184.949 13.4793 182.81 10.6529 180.201L10.6316 180.181L10.6104 180.162C5.43933 175.295 1.42894 171.147 -1.28012 167.775C-2.6259 166.099 -3.79188 164.443 -4.61295 162.855C-5.32207 161.484 -6.29897 159.195 -5.91246 156.612C-5.40413 153.15 -2.89151 151.251 -0.991879 150.366C0.853237 149.506 2.98279 149.138 4.97783 148.965C9.05549 148.61 14.6183 148.922 21.4074 149.731C22.8389 149.889 25.4002 149.99 29.2739 149.992C33.2985 149.792 39.7521 149.494 48.6254 149.1C59.5769 148.502 72.4278 147.705 87.1814 146.708C102.154 145.511 117.028 144.313 131.802 143.115C146.745 141.72 160.588 140.326 173.33 138.932C186.261 137.34 196.188 135.862 203.177 134.503L203.243 134.49L203.309 134.479C210.361 133.27 216.357 132.354 221.278 131.739L221.293 131.737L221.308 131.735C226.637 131.096 231.561 131.058 236.005 131.742C240.527 132.238 244.767 133.571 248.664 135.763C252.524 137.934 256.278 141.053 259.946 144.931C265.288 150.381 269.356 155.419 271.794 159.997C274.139 164.402 275.632 169.663 273.42 174.597C271.141 179.938 265.801 181.911 260.915 182.499C255.855 183.109 249.422 182.527 241.921 181.09C235.436 179.912 229.055 178.931 222.778 178.146L222.673 178.133ZM243.023 175.192C257.623 177.992 265.923 176.992 267.923 172.192C270.123 167.392 266.023 159.692 255.623 149.092C252.223 145.492 248.923 142.792 245.723 140.992C242.523 139.192 239.023 138.092 235.223 137.692C231.423 137.092 227.023 137.092 222.023 137.692C217.223 138.292 211.323 139.192 204.323 140.392C197.123 141.792 187.023 143.292 174.023 144.892C161.223 146.292 147.323 147.692 132.323 149.092C117.523 150.292 102.623 151.492 87.6226 152.692C72.8226 153.692 59.9226 154.492 48.9226 155.092C39.9226 155.492 33.4226 155.792 29.4226 155.992C25.4226 155.992 22.5226 155.892 20.7226 155.692C7.32261 154.092 0.422598 154.692 0.0225983 157.492C-0.377402 160.092 4.52261 166.192 14.7226 175.792C17.3226 178.192 19.7226 179.992 21.9226 181.192C24.1226 182.392 26.5226 183.092 29.1226 183.292C31.7226 183.492 34.7226 183.392 38.1226 182.992C41.5226 182.392 45.8226 181.492 51.0226 180.292C61.4226 177.892 73.9226 175.892 88.5226 174.292C103.123 172.692 119.123 171.492 136.523 170.692C151.523 170.092 164.223 169.792 174.623 169.792C185.223 169.592 194.423 169.692 202.223 170.092C210.223 170.492 217.323 171.192 223.523 172.192C229.923 172.992 236.423 173.992 243.023 175.192Z" fill="black"/>
</svg>
