<svg width="260" height="230" viewBox="0 0 260 230" fill="none" xmlns="http://www.w3.org/2000/svg">
<path d="M257.7 198.996C263.3 205.796 264.9 211.696 262.5 216.696C260.3 221.496 252.1 225.996 237.9 230.196C232.5 231.796 226.3 232.896 219.3 233.496C212.5 234.296 205.7 234.696 198.9 234.696C192.1 234.696 185.6 234.396 179.4 233.796C173.2 233.396 168.1 232.696 164.1 231.696C142.3 226.896 131.6 210.496 132 182.496C132 177.096 132.2 171.696 132.6 166.296C133.2 160.896 134.2 154.896 135.6 148.296C137 141.696 138.8 134.196 141 125.796C143.4 117.196 146.4 107.096 150 95.4959C151.6 90.4959 152.1 87.4959 151.5 86.4959C151.1 85.4959 149.5 85.3959 146.7 86.1959C142.7 87.1959 138.2 88.3959 133.2 89.7959C128.2 91.1959 123 92.6959 117.6 94.2959C112.4 113.896 106.4 130.796 99.6 144.996C92.8 159.196 85.0001 171.396 76.2001 181.596C67.6001 191.596 57.9 199.996 47.1 206.796C36.3 213.396 24.3 219.096 11.1 223.896C-9.50001 231.096 -10.7999 227.696 7.20009 213.696C18.0001 205.296 27.3 197.296 35.1 189.696C43.1 181.896 50.1 173.796 56.1 165.396C62.1 156.996 67.3001 147.896 71.7001 138.096C76.1001 128.296 80 117.096 83.4 104.496C76 106.696 69.2999 108.796 63.2999 110.796C57.4999 112.796 53.2 114.496 50.4 115.896C46.6 117.696 43.3999 118.996 40.7999 119.796C38.1999 120.596 35.8 120.896 33.6 120.696C31.6 120.496 29.4999 119.796 27.2999 118.596C25.0999 117.196 22.4001 115.296 19.2001 112.896C11.4001 106.896 7.69999 102.996 8.09999 101.196C8.69999 99.1959 13.8 97.6959 23.4 96.6959C36 95.2959 47.6999 93.5959 58.4999 91.5959C69.2999 89.5959 79.2001 87.4959 88.2001 85.2959C89.0001 81.6959 89.8 77.5959 90.6 72.9959C91.6 68.1959 92.6 63.4959 93.6 58.8959C95.8 46.6959 96.8 37.1959 96.6 30.3959C96.4 23.3959 94.9 17.5959 92.1 12.9959C86.7 4.19588 85.8 -1.10412 89.4 -2.90412C93.2 -4.90412 102.8 -2.50412 118.2 4.29588C124 6.89588 128.5 9.29588 131.7 11.4959C134.9 13.4959 137 15.4959 138 17.4959C139 19.4959 139.1 21.4959 138.3 23.4959C137.7 25.2959 136.5 27.1959 134.7 29.1959C131.3 32.7959 128.7 40.0959 126.9 51.0959C126.1 55.0959 125.3 59.0959 124.5 63.0959C123.9 66.8959 123.2 70.5959 122.4 74.1959C135.6 68.7959 144.5 64.0959 149.1 60.0959C151.1 58.2959 153 56.9959 154.8 56.1959C156.6 55.1959 158.6 54.6959 160.8 54.6959C163 54.4959 165.5 54.7959 168.3 55.5959C171.1 56.3959 174.6 57.6959 178.8 59.4959C186.2 62.8959 191.9 65.7959 195.9 68.1959C199.9 70.3959 202.3 72.5959 203.1 74.7959C203.9 76.9959 203.2 79.1959 201 81.3959C198.8 83.5959 195.2 86.1959 190.2 89.1959C187.2 90.9959 184.1 93.8959 180.9 97.8959C177.9 101.896 175.3 106.896 173.1 112.896C170.3 120.696 168 127.596 166.2 133.596C164.4 139.396 163 144.996 162 150.396C161 155.796 160.2 161.196 159.6 166.596C159 171.796 158.5 177.696 158.1 184.296C157.7 189.296 158.7 193.096 161.1 195.696C163.5 198.296 167.3 200.096 172.5 201.096C177.7 202.096 183.8 202.696 190.8 202.896C197.8 202.896 206.1 201.996 215.7 200.196C218.3 199.596 220.4 198.796 222 197.796C223.8 196.796 225.4 194.896 226.8 192.096C228.4 189.296 229.9 185.396 231.3 180.396C232.9 175.396 234.7 168.696 236.7 160.296C240.3 145.096 243.3 137.496 245.7 137.496C248.3 137.296 250 144.996 250.8 160.596C251.4 172.596 252.3 181.596 253.5 187.596C254.7 193.396 256.1 197.196 257.7 198.996Z" fill="black"/>
<path fill-rule="evenodd" clip-rule="evenodd" d="M262.256 195.094L262.328 195.182C268.437 202.6 271.827 211.066 267.927 219.248C266.003 223.399 262.023 226.494 257.583 228.931C252.955 231.47 246.903 233.789 239.601 235.949C239.6 235.949 239.599 235.949 239.598 235.95L237.896 230.196M219.296 233.496C212.496 234.296 205.696 234.696 198.896 234.696C192.096 234.696 185.596 234.396 179.396 233.796C173.196 233.396 168.096 232.696 164.096 231.696C142.296 226.896 131.596 210.496 131.996 182.496C131.996 177.096 132.196 171.696 132.596 166.296C133.196 160.896 134.196 154.896 135.596 148.296C136.996 141.696 138.796 134.196 140.996 125.796C143.396 117.196 146.396 107.096 149.996 95.4959C151.596 90.4959 152.096 87.4959 151.496 86.4959C151.096 85.4959 149.496 85.3959 146.696 86.1959C142.696 87.1959 138.196 88.3959 133.196 89.7959C128.196 91.1959 122.996 92.6959 117.596 94.2959C112.396 113.896 106.396 130.796 99.5963 144.996C92.7963 159.196 84.9964 171.396 76.1964 181.596C67.5964 191.596 57.8963 199.996 47.0963 206.796C36.2963 213.396 24.2963 219.096 11.0963 223.896C7.0114 225.324 3.68542 226.335 1.11834 226.929C0.925592 226.973 0.737113 227.016 0.552922 227.055C-6.26422 228.533 -7.22067 226.791 -2.31648 221.83C-2.18405 221.696 -2.04734 221.56 -1.90637 221.421C0.186268 219.363 3.22051 216.788 7.19637 213.696C17.9964 205.296 27.2963 197.296 35.0963 189.696C43.0963 181.896 50.0963 173.796 56.0963 165.396C62.0963 156.996 67.2964 147.896 71.6964 138.096C75.283 130.108 78.5373 121.189 81.4594 111.34C82.1221 109.107 82.7678 106.825 83.3963 104.496C81.0622 105.19 78.7977 105.874 76.6029 106.548C71.8393 108.011 67.4037 109.427 63.2962 110.796C57.4962 112.796 53.1963 114.496 50.3963 115.896C46.5963 117.696 43.3962 118.996 40.7962 119.796C38.1962 120.596 35.7963 120.896 33.5963 120.696C31.5963 120.496 29.4962 119.796 27.2962 118.596C25.0962 117.196 22.3964 115.296 19.1964 112.896C11.3964 106.896 7.69628 102.996 8.09628 101.196C8.69627 99.1959 13.7963 97.6959 23.3963 96.6959C35.9963 95.2959 47.6962 93.5959 58.4962 91.5959C69.2962 89.5959 79.1964 87.4959 88.1964 85.2959C88.9964 81.6959 89.7963 77.5959 90.5963 72.9959C91.5963 68.1959 92.5963 63.4959 93.5963 58.8959C95.7963 46.6959 96.7963 37.1959 96.5963 30.3959C96.3963 23.3959 94.8963 17.5959 92.0963 12.9959C86.6963 4.19591 85.7963 -1.10408 89.3963 -2.90408C93.1963 -4.90408 102.796 -2.50408 118.196 4.29592C123.996 6.89592 128.496 9.29592 131.696 11.4959C134.896 13.4959 136.996 15.4959 137.996 17.4959C138.996 19.4959 139.096 21.4959 138.296 23.4959C137.696 25.2959 136.496 27.1959 134.696 29.1959C131.296 32.7959 128.696 40.0959 126.896 51.0959L124.496 63.0959C124.283 64.4433 124.058 65.7781 123.82 67.1003C123.387 69.5072 122.913 71.8724 122.396 74.1959C124.78 73.2209 127.023 72.2687 129.126 71.3393C138.67 67.1215 145.327 63.3737 149.096 60.0959C151.096 58.2959 152.996 56.9959 154.796 56.1959C156.596 55.1959 158.596 54.6959 160.796 54.6959C162.996 54.4959 165.496 54.7959 168.296 55.5959C171.096 56.3959 174.596 57.6959 178.796 59.4959C186.196 62.8959 191.896 65.7959 195.896 68.1959C199.896 70.3959 202.296 72.5959 203.096 74.7959C203.896 76.9959 203.196 79.1959 200.996 81.3959C198.796 83.5959 195.196 86.1959 190.196 89.1959C187.196 90.9959 184.096 93.8959 180.896 97.8959C177.896 101.896 175.296 106.896 173.096 112.896C170.296 120.696 167.996 127.596 166.196 133.596C164.396 139.396 162.996 144.996 161.996 150.396C160.996 155.796 160.196 161.196 159.596 166.596C158.996 171.796 158.496 177.696 158.096 184.296C157.696 189.296 158.696 193.096 161.096 195.696C163.496 198.296 167.296 200.096 172.496 201.096C177.696 202.096 183.796 202.696 190.796 202.896C197.796 202.896 206.096 201.996 215.696 200.196C218.296 199.596 220.396 198.796 221.996 197.796C223.796 196.796 225.396 194.896 226.796 192.096C228.396 189.296 229.896 185.396 231.296 180.396C232.896 175.396 234.696 168.696 236.696 160.296C240.296 145.096 243.296 137.496 245.696 137.496C246.902 137.403 247.915 139.01 248.733 142.316C248.791 142.24 248.82 142.211 248.82 142.217C248.82 142.222 248.792 142.261 248.735 142.323C249.681 146.146 250.368 152.237 250.796 160.596C251.396 172.596 252.296 181.596 253.496 187.596C254.696 193.396 256.096 197.196 257.696 198.996C263.296 205.796 264.896 211.696 262.496 216.696M259.376 186.402C259.939 189.12 260.516 191.201 261.076 192.722C261.355 193.478 261.609 194.038 261.823 194.438C261.928 194.634 262.016 194.776 262.081 194.874C262.148 194.972 262.183 195.012 262.181 195.01L262.256 195.094M259.376 186.402C258.267 180.848 257.385 172.213 256.789 160.296L256.788 160.289C256.384 152.412 255.741 146.181 254.78 141.827C254.313 139.712 253.676 137.575 252.683 135.843C251.825 134.347 249.553 131.295 245.453 131.5C241.823 131.617 239.69 134.324 238.893 135.446C237.804 136.979 236.882 138.925 236.065 140.993C234.404 145.201 232.676 151.236 230.858 158.912C228.875 167.242 227.115 173.775 225.582 178.567L225.548 178.672L225.518 178.778C224.181 183.554 222.84 186.926 221.587 189.119L221.504 189.264L221.43 189.413C220.307 191.658 219.407 192.371 219.082 192.551L218.947 192.626L218.816 192.708C217.976 193.233 216.595 193.821 214.463 194.323C205.193 196.055 197.351 196.889 190.881 196.896C184.145 196.7 178.409 196.123 173.629 195.204C169.094 194.332 166.7 192.921 165.505 191.626C164.649 190.699 163.754 188.818 164.077 184.774L164.082 184.717L164.085 184.659C164.48 178.141 164.972 172.352 165.557 167.284L165.558 167.271L165.56 167.259C166.143 162.004 166.922 156.747 167.896 151.488C168.849 146.343 170.189 140.973 171.927 135.374L171.935 135.347L171.943 135.32C173.703 129.453 175.965 122.664 178.737 114.942C180.772 109.396 183.098 104.979 185.641 101.57C188.559 97.9347 191.123 95.637 193.283 94.3409C198.406 91.2672 202.511 88.3662 205.239 85.6386C208.444 82.4338 210.602 77.8789 208.735 72.7455C207.156 68.403 203.082 65.314 198.888 62.9939C194.619 60.4403 188.722 57.4534 181.301 54.0439L181.231 54.0115L181.16 53.981C176.842 52.1305 173.084 50.7238 169.945 49.8268C166.742 48.9119 163.572 48.4623 160.525 48.6977C157.565 48.7372 154.728 49.4236 152.12 50.8215C149.679 51.9447 147.349 53.6021 145.124 55.5984C142.442 57.9196 137.632 60.7883 130.401 64.1696C130.402 64.1643 130.403 64.159 130.403 64.1536L132.801 52.1691L132.818 52.0649C133.682 46.7802 134.709 42.5831 135.849 39.384C137.01 36.1225 138.161 34.2657 139.058 33.3157L139.108 33.2633L139.156 33.2097C141.253 30.8798 142.975 28.3313 143.933 25.5572C145.323 21.9501 145.07 18.2263 143.363 14.8127C141.654 11.3957 138.509 8.69334 134.988 6.47771C131.373 4.00814 126.542 1.46193 120.651 -1.17914L120.635 -1.18602L120.62 -1.19282C112.792 -4.64948 106.184 -7.10436 100.902 -8.42494C98.2614 -9.08497 95.7693 -9.50905 93.5129 -9.57641C91.3496 -9.64098 88.8834 -9.39677 86.6578 -8.24281C84.5259 -7.16126 82.8306 -5.39374 81.9319 -3.03054C81.0882 -0.81207 81.1224 1.46115 81.456 3.42538C82.1038 7.24038 84.1785 11.5634 86.9761 16.1239C89.0921 19.6041 90.4199 24.3092 90.5987 30.5673L90.5989 30.5723C90.78 36.73 89.8726 45.7129 87.7104 57.7263C86.7142 62.3105 85.7182 66.9924 84.7224 71.7722L84.7021 71.8697L84.685 71.9679C84.1589 74.9933 83.6352 77.7845 83.1146 80.3441C75.2301 82.1974 66.6609 83.9819 57.4036 85.6962C46.7716 87.6651 35.2237 89.3444 22.7542 90.7303C17.8425 91.2427 13.7484 91.9118 10.6783 92.8147C9.15599 93.2625 7.59922 93.8485 6.25047 94.6766C4.99714 95.4462 3.11398 96.923 2.34932 99.4718L2.28654 99.6811L2.23915 99.8943C1.63782 102.6 2.74279 104.858 3.37251 105.946C4.12044 107.238 5.14619 108.47 6.21857 109.601C8.39151 111.891 11.5579 114.59 15.5381 117.652L15.5671 117.674L15.5964 117.696C18.8618 120.145 21.6964 122.144 24.075 123.658L24.2456 123.766L24.4231 123.863C27.1591 125.356 30.0305 126.369 32.9993 126.666L33.0261 126.669L33.0531 126.671C36.188 126.956 39.382 126.509 42.5607 125.531C45.5416 124.613 49.0286 123.183 52.9648 121.318L53.0225 121.291L53.0796 121.262C55.5116 120.046 59.4993 118.453 65.2228 116.478C68.1536 115.502 71.258 114.499 74.5364 113.471C71.9917 121.581 69.2181 128.967 66.2228 135.638C61.9787 145.091 56.9741 153.844 51.2139 161.909C45.4368 169.996 38.6736 177.828 30.9077 185.4C23.3018 192.811 14.1785 200.664 3.51273 208.96C-1.05271 212.511 -4.62041 215.56 -7.0137 218.054C-8.18675 219.276 -9.30462 220.596 -10.0957 221.953C-10.6781 222.953 -12.1431 225.724 -10.933 228.889C-9.53083 232.556 -6.03255 233.312 -4.66576 233.48C-3.02544 233.68 -1.27282 233.491 0.290813 233.22C3.52991 232.658 7.85123 231.386 13.0759 229.56L13.1114 229.548L13.1467 229.535C26.6821 224.613 39.0489 218.745 50.225 211.916L50.2592 211.895L50.2932 211.873C61.6142 204.745 71.7649 195.95 80.7407 185.514C89.9398 174.851 98.0163 162.187 105.008 147.587C111.622 133.776 117.447 117.598 122.515 99.1013C126.744 97.8613 130.844 96.6855 134.814 95.5737C138.299 94.5979 141.53 93.7226 144.508 92.9471C144.436 93.1797 144.361 93.4197 144.282 93.6673L144.274 93.6924L144.266 93.7175C140.654 105.354 137.637 115.512 135.217 124.183L135.204 124.229L135.192 124.276C132.974 132.743 131.151 140.337 129.727 147.051C128.295 153.8 127.259 159.998 126.633 165.633L126.621 165.743L126.613 165.853C126.203 171.385 125.997 176.919 125.996 182.453C125.792 197.137 128.475 209.54 134.696 219.074C141.013 228.756 150.561 234.841 162.723 237.537C167.164 238.64 172.595 239.366 178.914 239.777C185.293 240.391 191.955 240.696 198.896 240.696C205.901 240.696 212.904 240.286 219.904 239.466M0.272739 227.995C0.273104 227.994 0.273454 227.993 0.273848 227.993C0.263999 228.011 0.262455 228.012 0.272739 227.995Z" fill="black"/>
</svg>
