<svg width="260" height="230" viewBox="0 0 260 230" fill="none" xmlns="http://www.w3.org/2000/svg">
<path d="M155.731 33.33C156.931 39.73 156.931 45.13 155.731 49.53C154.731 53.73 152.831 56.73 150.031 58.53C147.431 60.33 144.131 60.83 140.131 60.03C136.131 59.23 131.731 56.73 126.931 52.53C123.531 49.73 119.431 46.03 114.631 41.43C109.831 36.83 104.731 31.63 99.3308 25.83C93.7308 20.03 91.4308 16.23 92.4308 14.43C93.6308 12.63 99.6308 11.83 110.431 12.03C125.831 12.23 136.831 14.13 143.431 17.73C150.231 21.13 154.331 26.33 155.731 33.33ZM243.631 74.13C253.231 83.13 257.131 89.53 255.331 93.33C253.531 97.13 244.831 98.23 229.231 96.63C221.631 96.03 212.431 95.73 201.631 95.73C191.031 95.73 179.631 96.03 167.431 96.63C155.231 97.03 142.731 97.83 129.931 99.03C117.331 100.03 105.331 101.23 93.9308 102.63C82.5308 103.83 72.2308 105.23 63.0308 106.83C54.0308 108.23 46.9308 109.73 41.7308 111.33C37.9308 112.53 34.7308 113.43 32.1308 114.03C29.5308 114.43 27.1308 114.63 24.9308 114.63C22.7308 114.43 20.5308 113.83 18.3308 112.83C16.1308 111.63 13.5308 109.93 10.5308 107.73C3.13077 102.33 -0.36923 98.83 0.0307691 97.23C0.630769 95.63 5.33077 94.63 14.1308 94.23C21.7308 94.03 30.9308 93.43 41.7308 92.43C52.7308 91.23 64.3308 89.93 76.5308 88.53C88.9308 86.93 101.431 85.23 114.031 83.43C126.831 81.63 138.631 79.83 149.431 78.03C160.431 76.23 170.131 74.63 178.531 73.23C186.931 71.83 192.931 70.63 196.531 69.63C207.931 66.83 217.331 65.63 224.731 66.03C232.131 66.43 238.431 69.13 243.631 74.13ZM224.131 189.93C223.531 197.13 222.131 203.13 219.931 207.93C217.931 212.53 215.331 215.43 212.131 216.63C209.131 218.03 205.731 217.53 201.931 215.13C198.131 212.73 194.331 208.03 190.531 201.03C187.331 195.43 183.631 189.33 179.431 182.73C175.431 175.93 171.331 169.43 167.131 163.23C162.931 157.03 158.931 151.33 155.131 146.13C151.531 140.93 148.531 136.83 146.131 133.83C139.531 125.43 137.131 120.63 138.931 119.43C140.731 118.03 147.631 120.03 159.631 125.43C173.031 131.43 183.931 137.23 192.331 142.83C200.931 148.23 207.631 153.53 212.431 158.73C217.231 163.73 220.431 168.83 222.031 174.03C223.631 179.23 224.331 184.53 224.131 189.93ZM112.231 153.93C110.631 154.93 108.231 156.93 105.031 159.93C102.031 162.73 97.4308 167.33 91.2308 173.73C83.0308 182.53 74.5308 189.73 65.7308 195.33C56.9308 200.93 46.1308 205.83 33.3308 210.03C13.9308 216.23 3.83077 218.43 3.03077 216.63C2.23077 215.03 9.63077 208.83 25.2308 198.03C33.8308 192.23 41.3308 186.33 47.7308 180.33C54.3308 174.13 59.7308 168.33 63.9308 162.93C68.3308 157.33 71.4308 152.33 73.2308 147.93C75.0308 143.33 75.6308 139.53 75.0308 136.53C73.6308 130.33 74.7308 126.43 78.3308 124.83C81.9308 123.03 89.6308 124.33 101.431 128.73C108.031 131.33 113.031 133.73 116.431 135.93C119.831 138.13 121.831 140.23 122.431 142.23C123.031 144.23 122.431 146.23 120.631 148.23C118.831 150.03 116.031 151.93 112.231 153.93Z" fill="black"/>
<path fill-rule="evenodd" clip-rule="evenodd" d="M160.641 32.379L160.647 32.4086C161.924 39.2224 162.021 45.4126 160.578 50.7672C159.371 55.7737 156.924 60.0133 152.808 62.6898C148.808 65.4263 144.048 65.9122 139.152 64.933C133.962 63.8949 128.799 60.7963 123.697 56.3426C120.177 53.44 115.997 49.6629 111.173 45.04C106.302 40.3721 101.145 35.1137 95.7038 29.2701C92.833 26.2942 90.5644 23.5889 89.1301 21.2191C88.4137 20.0356 87.7593 18.7005 87.4308 17.2857C87.0991 15.857 87.0077 13.8991 88.0618 12.0019L88.16 11.8249L88.2723 11.6566C89.471 9.85844 91.3132 9.00576 92.5343 8.56479C93.9054 8.06967 95.4967 7.74726 97.1717 7.52392C100.54 7.07482 105.028 6.9295 110.511 7.03066C125.982 7.2326 138.007 9.10725 145.747 13.2975C153.779 17.338 158.916 23.7543 160.635 32.3495L160.641 32.379ZM143.433 17.7301C136.833 14.1301 125.833 12.2301 110.433 12.0301C99.6326 11.8301 93.6326 12.6301 92.4325 14.4301C91.4325 16.2301 93.7326 20.0301 99.3326 25.8301C104.733 31.6301 109.833 36.8301 114.633 41.4301C119.433 46.0301 123.533 49.7301 126.933 52.5301C131.733 56.7301 136.133 59.2301 140.133 60.0301C144.133 60.8301 147.433 60.3301 150.033 58.5301C152.833 56.7301 154.733 53.73 155.733 49.53C156.933 45.1301 156.933 39.7301 155.733 33.3301C154.333 26.3301 150.233 21.1301 143.433 17.7301ZM0.0325503 97.23C0.63255 95.63 5.33255 94.6301 14.1326 94.23C21.7326 94.0301 30.9326 93.4301 41.7326 92.4301C52.7326 91.2301 64.3326 89.9301 76.5326 88.5301C88.9326 86.9301 101.433 85.2301 114.033 83.4301C126.833 81.6301 138.633 79.8301 149.433 78.0301C160.433 76.2301 170.133 74.6301 178.533 73.23C186.933 71.83 192.933 70.6301 196.533 69.6301C207.933 66.8301 217.333 65.6301 224.733 66.0301C232.133 66.4301 238.433 69.13 243.633 74.13C253.233 83.13 257.133 89.5301 255.333 93.3301C253.533 97.1301 244.833 98.2301 229.233 96.6301C221.633 96.0301 212.433 95.73 201.633 95.73C191.033 95.73 179.633 96.0301 167.433 96.6301C155.233 97.0301 142.733 97.8301 129.933 99.0301C117.333 100.03 105.333 101.23 93.9325 102.63C82.5326 103.83 72.2326 105.23 63.0326 106.83C54.0326 108.23 46.9326 109.73 41.7326 111.33C37.9326 112.53 34.7326 113.43 32.1326 114.03C29.5326 114.43 27.1326 114.63 24.9326 114.63C22.7326 114.43 20.5326 113.83 18.3326 112.83C16.1326 111.63 13.5326 109.93 10.5326 107.73C3.13255 102.33 -0.367449 98.83 0.0325503 97.23ZM43.2206 116.104C39.3571 117.323 36.0269 118.263 33.2568 118.902L33.0761 118.944L32.8928 118.972C30.0883 119.403 27.4306 119.63 24.9326 119.63H24.7057L24.4799 119.61C21.6708 119.354 18.9266 118.592 16.2635 117.382L16.098 117.307L15.9383 117.22C13.4757 115.876 10.6817 114.039 7.58174 111.766C3.81841 109.02 0.847353 106.616 -1.17798 104.591C-2.17644 103.592 -3.12301 102.512 -3.80881 101.383C-4.37771 100.447 -5.42145 98.4305 -4.81816 96.0174L-4.74909 95.7411L-4.6491 95.4744C-3.82141 93.2673 -1.98982 92.1633 -0.950825 91.6536C0.237968 91.0704 1.60734 90.6788 2.96701 90.3895C5.71989 89.8038 9.4174 89.4392 13.9055 89.2352L13.9533 89.233L14.001 89.2318C21.4463 89.0359 30.5163 88.4466 41.231 87.4551C52.1981 86.2586 63.7635 84.9625 75.9273 83.5667C88.2931 81.971 100.759 80.2755 113.325 78.4803L113.336 78.4788C126.102 76.6837 137.859 74.89 148.611 73.0981L148.618 73.0969L148.625 73.0957C159.622 71.2963 169.317 69.6971 177.711 68.2981C186.099 66.9 191.871 65.7356 195.194 64.8125L195.267 64.7923L195.34 64.7744C206.974 61.917 216.911 60.6 225.002 61.0374C233.553 61.4995 240.989 64.6622 247.075 70.5035C251.985 75.1088 255.733 79.3138 258.027 83.0782C260.179 86.61 261.891 91.1652 259.851 95.4705C258.743 97.8101 256.775 99.2847 254.803 100.205C252.845 101.119 250.539 101.655 248.085 101.966C243.185 102.585 236.687 102.418 228.781 101.61C221.364 101.027 212.323 100.73 201.633 100.73C191.126 100.73 179.808 101.027 167.678 101.624L167.637 101.626L167.596 101.627C155.503 102.024 143.104 102.817 130.399 104.008L130.364 104.012L130.328 104.014C117.793 105.009 105.864 106.202 94.542 107.593L94.499 107.598L94.456 107.603C83.1436 108.793 72.9573 110.179 63.8893 111.756L63.8452 111.764L63.8011 111.771C54.914 113.153 48.088 114.607 43.2206 116.104ZM229.125 190.23L229.115 190.345C228.485 197.904 226.998 204.496 224.498 209.968C222.24 215.144 218.916 219.353 214.069 221.243C209.056 223.497 203.877 222.272 199.263 219.358C194.387 216.278 190.094 210.692 186.165 203.464C183.017 197.958 179.369 191.943 175.214 185.414L175.167 185.341L175.123 185.265C171.174 178.552 167.13 172.142 162.993 166.034C158.821 159.876 154.855 154.225 151.096 149.08L151.058 149.029L151.022 148.976C147.451 143.819 144.525 139.825 142.228 136.954L142.215 136.936L142.201 136.919C138.855 132.66 136.345 129.036 134.91 126.166C134.217 124.778 133.56 123.157 133.395 121.503C133.222 119.77 133.572 117.089 136.015 115.368C137.97 113.939 140.28 113.94 141.583 114.029C143.179 114.139 144.972 114.534 146.85 115.078C150.637 116.176 155.613 118.138 161.68 120.869C175.2 126.922 186.348 132.838 195.049 138.632C203.83 144.15 210.889 149.695 216.073 155.303C221.252 160.706 224.932 166.45 226.811 172.56C228.575 178.292 229.35 184.151 229.129 190.115L229.125 190.23ZM212.433 158.73C207.633 153.53 200.933 148.23 192.333 142.83C183.933 137.23 173.033 131.43 159.633 125.43C147.633 120.03 140.733 118.03 138.933 119.43C137.133 120.63 139.533 125.43 146.133 133.83C148.533 136.83 151.533 140.93 155.133 146.13C158.933 151.33 162.933 157.03 167.133 163.23C171.333 169.43 175.433 175.93 179.433 182.73C183.633 189.33 187.333 195.43 190.533 201.03C194.333 208.03 198.133 212.73 201.933 215.13C205.733 217.53 209.133 218.03 212.133 216.63C215.333 215.43 217.933 212.53 219.933 207.93C222.133 203.13 223.533 197.13 224.133 189.93C224.333 184.53 223.633 179.23 222.033 174.03C220.433 168.83 217.233 163.73 212.433 158.73ZM6.42995 212.121C9.97308 208.952 16.2406 204.255 25.2326 198.03C33.8326 192.23 41.3326 186.33 47.7326 180.33C54.3326 174.13 59.7325 168.33 63.9325 162.93C68.3325 157.33 71.4325 152.33 73.2326 147.93C75.0326 143.33 75.6326 139.53 75.0326 136.53C73.6326 130.33 74.7326 126.43 78.3326 124.83C81.9326 123.03 89.6326 124.33 101.433 128.73C108.033 131.33 113.033 133.73 116.433 135.93C119.833 138.13 121.833 140.23 122.433 142.23C123.033 144.23 122.433 146.23 120.633 148.23C118.833 150.03 116.033 151.93 112.233 153.93C110.633 154.93 108.233 156.93 105.033 159.93C102.033 162.73 97.4326 167.33 91.2326 173.73C83.0326 182.53 74.5326 189.73 65.7326 195.33C56.9326 200.93 46.1326 205.83 33.3326 210.03C21.8893 213.687 13.6818 215.953 8.71006 216.826C8.44079 216.874 8.18102 216.917 7.93074 216.956C4.96784 217.419 3.3351 217.311 3.03255 216.63C2.71935 216.004 3.66297 214.672 5.8634 212.636C6.0438 212.469 6.23265 212.297 6.42995 212.121ZM-1.49022 218.762C-0.445998 220.997 1.60508 221.725 2.52848 221.961C3.59483 222.234 4.68089 222.259 5.55967 222.227C7.37428 222.16 9.66503 221.783 12.2717 221.216C17.5608 220.063 25.1187 217.904 34.8547 214.793L34.8731 214.787L34.8914 214.781C47.9789 210.487 59.1807 205.426 68.4169 199.548C77.6121 193.697 86.4216 186.222 94.8574 177.174C101.033 170.8 105.548 166.289 108.444 163.585L108.452 163.578C111.521 160.701 113.572 159.02 114.746 158.257C118.648 156.19 121.888 154.046 124.168 151.766L124.261 151.673L124.349 151.575C126.932 148.705 128.469 144.951 127.222 140.793C126.08 136.988 122.738 134.055 119.149 131.732C115.338 129.266 109.981 126.724 103.265 124.078L103.222 124.061L103.179 124.045C97.1394 121.793 91.9318 120.249 87.6399 119.525C83.6199 118.846 79.4813 118.713 76.2022 120.306C73.0542 121.738 70.9258 124.299 69.9953 127.598C69.1321 130.658 69.3631 134.09 70.1392 137.559C70.4536 139.208 70.2073 141.928 68.5904 146.072C67.027 149.88 64.2289 154.46 60.001 159.841L59.9933 159.851L59.9858 159.86C55.987 165.002 50.778 170.609 44.3116 176.684C38.1375 182.472 30.854 188.208 22.4368 193.885L22.4116 193.902L22.3865 193.919C14.5561 199.34 8.65288 203.695 4.77145 206.947C2.85893 208.55 1.25903 210.031 0.15312 211.338C-0.381942 211.97 -1.00184 212.793 -1.43491 213.745C-1.79187 214.531 -2.54035 216.554 -1.49022 218.762Z" fill="black"/>
</svg>
