<svg width="260" height="230" viewBox="0 0 260 230" fill="none" xmlns="http://www.w3.org/2000/svg">
<path d="M250.998 192.197C255.198 197.197 256.698 201.697 255.498 205.697C254.498 209.497 249.598 213.997 240.798 219.197C235.198 222.597 228.298 225.197 220.098 226.997C212.098 228.997 203.898 230.197 195.498 230.597C187.098 230.997 178.898 230.797 170.898 229.997C163.098 229.397 156.498 228.297 151.098 226.697C141.498 223.897 133.598 220.397 127.398 216.197C121.398 212.197 116.598 206.897 112.998 200.297C109.398 193.697 106.898 185.497 105.498 175.697C104.098 165.897 103.398 153.797 103.398 139.397C96.9978 141.397 90.7978 143.497 84.7978 145.697C78.7978 147.697 73.1978 149.597 67.9978 151.397C62.9978 153.197 58.5978 154.897 54.7978 156.497C50.9978 158.097 48.0978 159.297 46.0978 160.097C41.4978 162.097 37.6978 163.597 34.6978 164.597C31.8978 165.597 29.1978 165.997 26.5978 165.797C24.1978 165.597 21.5978 164.897 18.7978 163.697C16.1978 162.297 12.7978 160.397 8.59779 157.997C2.19779 153.997 -0.802206 150.797 -0.402206 148.397C-0.00220581 145.997 4.59779 144.297 13.3978 143.297C17.1978 142.897 21.1978 142.297 25.3978 141.497C29.5978 140.497 35.7978 138.897 43.9978 136.697C51.9978 134.497 61.2978 131.897 71.8978 128.897C82.4978 125.697 92.9978 122.397 103.398 118.997C103.598 101.397 103.598 86.7969 103.398 75.1969C103.198 63.5969 102.698 54.1969 101.898 46.9969C101.098 39.7969 99.9978 34.1969 98.5978 30.1969C97.3978 26.1969 95.8978 22.8969 94.0978 20.2969C90.4978 15.2969 88.0978 11.1969 86.8978 7.99689C85.6978 4.79688 86.0978 2.59688 88.0978 1.39688C90.0978 -0.00312316 93.7978 -0.203126 99.1978 0.796873C104.798 1.79687 112.498 3.99687 122.298 7.39688C128.098 9.39687 132.498 11.2969 135.498 13.0969C138.698 14.6969 140.898 16.5969 142.098 18.7969C143.298 20.7969 143.598 23.2969 142.998 26.2969C142.598 29.0969 141.598 32.8969 139.998 37.6969C138.798 41.4969 137.698 45.2969 136.698 49.0969C135.898 52.6969 135.198 57.0969 134.598 62.2969C133.998 67.4969 133.498 73.7969 133.098 81.1969C132.698 88.5969 132.398 97.9969 132.198 109.397C147.798 104.197 160.598 99.6969 170.598 95.8969C180.798 91.8969 189.198 88.4969 195.798 85.6969C202.198 83.0969 207.498 81.0969 211.698 79.6969C215.898 78.0969 219.598 77.1969 222.798 76.9969C226.198 76.5969 229.398 76.7969 232.398 77.5969C235.598 78.3969 239.298 79.7969 243.498 81.7969C253.898 86.5969 258.698 91.3969 257.898 96.1969C257.298 100.797 251.798 103.897 241.398 105.497C227.998 107.497 211.898 110.697 193.098 115.097C174.498 119.297 153.998 124.597 131.598 130.997C131.598 141.797 131.898 150.997 132.498 158.597C133.098 165.997 134.098 172.197 135.498 177.197C136.898 181.997 138.698 185.697 140.898 188.297C143.298 190.897 146.098 192.697 149.298 193.697C152.498 194.897 156.198 195.797 160.398 196.397C164.598 196.997 168.998 197.297 173.598 197.297C178.198 197.297 182.698 197.097 187.098 196.697C191.498 196.097 195.498 195.297 199.098 194.297C202.698 193.097 205.798 191.797 208.398 190.397C211.198 188.997 213.598 186.997 215.598 184.397C217.798 181.597 219.798 177.897 221.598 173.297C223.598 168.497 225.598 162.297 227.598 154.697C231.598 140.097 234.398 132.897 235.998 133.097C237.598 133.297 239.198 140.697 240.798 155.297C241.998 166.497 243.398 174.797 244.998 180.197C246.598 185.397 248.598 189.397 250.998 192.197Z" fill="black"/>
<path fill-rule="evenodd" clip-rule="evenodd" d="M255.576 188.315L255.595 188.338C260.309 193.949 263.276 200.51 261.276 207.327C260.324 210.823 257.882 213.817 255.135 216.341C252.265 218.976 248.461 221.638 243.884 224.344C237.613 228.146 230.095 230.938 221.473 232.839C213.108 234.924 204.544 236.173 195.787 236.59C187.129 237.002 178.657 236.799 170.372 235.974C162.334 235.352 155.316 234.202 149.407 232.453C139.41 229.536 130.904 225.814 124.053 221.176C117.219 216.615 111.775 210.578 107.734 203.17C103.701 195.776 101.033 186.843 99.5615 176.545C98.3893 168.34 97.7028 158.685 97.481 147.615C93.8727 148.82 90.3346 150.059 86.8667 151.33L86.7831 151.361L86.6986 151.389C80.7306 153.378 75.1642 155.267 69.9986 157.055C65.0861 158.824 60.8001 160.481 57.1295 162.027C53.3714 163.609 50.4595 164.815 48.4124 165.635C43.7956 167.64 39.8632 169.198 36.6574 170.269C33.1947 171.498 29.6703 172.051 26.141 171.779L26.122 171.778L26.1029 171.776C22.9159 171.511 19.6808 170.602 16.4377 169.212L16.192 169.106L15.9566 168.98C13.2933 167.546 9.8444 165.618 5.62436 163.206L5.52158 163.148L5.4212 163.085C2.04836 160.977 -0.806129 158.855 -2.82603 156.7C-4.62698 154.779 -7.00091 151.513 -6.31717 147.41C-5.90907 144.962 -4.48986 143.215 -3.11578 142.088C-1.78082 140.994 -0.215281 140.243 1.2713 139.694C4.24854 138.594 8.16261 137.854 12.7237 137.335L12.7484 137.332L12.7731 137.33C16.3493 136.953 20.1389 136.388 24.1446 135.628C28.2549 134.647 34.3386 133.077 42.4286 130.907C50.3938 128.716 59.6562 126.127 70.2173 123.138C79.3693 120.374 88.4459 117.537 97.4471 114.624C97.5998 98.9715 97.5843 85.8673 97.4021 75.3003C97.2037 63.7906 96.7088 54.5976 95.9379 47.6594C95.158 40.6404 94.1199 35.5556 92.9381 32.1789L92.8932 32.0509L92.8542 31.9209C91.7883 28.3679 90.5339 25.6972 89.1968 23.7538C85.5099 18.6282 82.7578 14.0358 81.2832 10.1036C80.488 7.983 79.9275 5.46098 80.398 2.87352C80.9086 0.0648065 82.5222 -2.18767 84.8345 -3.63788C87.0734 -5.14009 89.6825 -5.66633 92.0523 -5.79443C94.5392 -5.92886 97.3161 -5.65327 100.275 -5.10636C106.336 -4.02211 114.378 -1.70284 124.263 1.72653C130.097 3.73865 134.881 5.75955 138.391 7.83444C142.113 9.72861 145.351 12.2919 147.31 15.8174C149.403 19.3773 149.669 23.4016 148.917 27.3064C148.43 30.6003 147.314 34.7272 145.709 39.5484C144.555 43.2042 143.497 46.858 142.534 50.51C141.803 53.8246 141.14 57.9694 140.562 62.9846C139.98 68.0256 139.488 74.1968 139.092 81.5207C138.801 86.9076 138.563 93.3951 138.377 100.991C150.305 96.9473 160.321 93.3839 168.441 90.2993C178.599 86.3152 186.934 82.9411 193.458 80.1733L193.5 80.1553L193.543 80.138C199.946 77.5369 205.336 75.4983 209.685 74.0444C214.135 72.3587 218.352 71.286 222.261 71.0193C226.263 70.5665 230.161 70.7966 233.901 71.7872C237.589 72.7135 241.652 74.2727 246.049 76.3644C251.497 78.8818 256.021 81.6316 259.144 84.7542C262.309 87.9197 264.62 92.1236 263.837 97.078C263.178 101.82 260.001 105.097 256.272 107.199C252.61 109.263 247.817 110.58 242.314 111.427L242.3 111.429L242.287 111.431C229.1 113.399 213.17 116.562 194.469 120.939L194.446 120.944L194.423 120.949C177.166 124.846 158.233 129.703 137.62 135.525C137.693 144.266 137.983 151.79 138.482 158.115C139.061 165.262 140.012 171.044 141.27 175.548C142.511 179.79 143.965 182.589 145.401 184.325C147.105 186.141 148.988 187.313 151.091 187.97L151.251 188.02L151.408 188.079C154.118 189.095 157.381 189.904 161.25 190.457C165.146 191.014 169.262 191.297 173.601 191.297C177.98 191.297 182.254 191.108 186.424 190.734C190.488 190.174 194.125 189.444 197.349 188.556C200.644 187.451 203.364 186.295 205.557 185.114L205.637 185.071L205.718 185.03C207.668 184.055 209.371 182.655 210.845 180.739L210.864 180.714L210.883 180.69C212.611 178.491 214.351 175.359 216.014 171.11L216.038 171.05L216.063 170.989C217.918 166.536 219.837 160.624 221.799 153.17L221.806 153.141L221.814 153.111C223.828 145.762 225.593 140.07 227.109 136.172C227.85 134.266 228.639 132.506 229.496 131.141C229.911 130.481 230.534 129.6 231.411 128.839C232.221 128.135 234.102 126.813 236.745 127.143C239.195 127.449 240.662 128.981 241.286 129.761C241.977 130.624 242.43 131.553 242.731 132.268C243.348 133.734 243.841 135.563 244.266 137.529C245.133 141.541 245.96 147.29 246.766 154.643L246.766 154.65L246.767 154.658C247.956 165.756 249.309 173.602 250.745 178.462C252.206 183.2 253.888 186.345 255.557 188.292L255.576 188.315ZM245.001 180.197C243.401 174.797 242.001 166.497 240.801 155.297C240.067 148.601 239.334 143.42 238.6 139.753C238.514 139.322 238.428 138.912 238.341 138.523C237.561 135.003 236.781 133.194 236.001 133.097C235.22 132.999 234.154 134.664 232.801 138.091C232.656 138.46 232.507 138.849 232.355 139.259C231.024 142.843 229.439 147.989 227.601 154.697C225.601 162.297 223.601 168.497 221.601 173.297C219.801 177.897 217.801 181.597 215.601 184.397C213.601 186.997 211.201 188.997 208.401 190.397C205.801 191.797 202.701 193.097 199.101 194.297C195.501 195.297 191.501 196.097 187.101 196.697C182.701 197.097 178.201 197.297 173.601 197.297C169.001 197.297 164.601 196.997 160.401 196.397C156.201 195.797 152.501 194.897 149.301 193.697C146.101 192.697 143.301 190.897 140.901 188.297C138.701 185.697 136.901 181.997 135.501 177.197C134.101 172.197 133.101 165.997 132.501 158.597C131.901 150.997 131.601 141.797 131.601 130.997C154.001 124.597 174.501 119.297 193.101 115.097C211.901 110.697 228.001 107.497 241.401 105.497C251.801 103.897 257.301 100.797 257.901 96.1968C258.701 91.3968 253.901 86.5968 243.501 81.7968C239.301 79.7968 235.601 78.3968 232.401 77.5968C229.401 76.7968 226.201 76.5968 222.801 76.9968C219.601 77.1968 215.901 78.0968 211.701 79.6968C207.501 81.0968 202.201 83.0968 195.801 85.6968C189.201 88.4968 180.801 91.8968 170.601 95.8968C161.923 99.1946 151.135 103.02 138.239 107.372C136.275 108.035 134.263 108.71 132.201 109.397C132.24 107.2 132.282 105.077 132.328 103.029C132.521 94.448 132.778 87.1707 133.101 81.1968C133.501 73.7968 134.001 67.4968 134.601 62.2968C135.201 57.0968 135.901 52.6968 136.701 49.0968C137.701 45.2968 138.801 41.4968 140.001 37.6968C141.601 32.8968 142.601 29.0968 143.001 26.2968C143.601 23.2968 143.301 20.7968 142.101 18.7968C140.901 16.5968 138.701 14.6968 135.501 13.0968C132.501 11.2968 128.101 9.39682 122.301 7.39682C112.501 3.99682 104.801 1.79682 99.2012 0.796817C93.8012 -0.203182 90.1012 -0.00317907 88.1012 1.39683C86.1012 2.59682 85.7012 4.79683 86.9012 7.99683C88.1012 11.1968 90.5012 15.2968 94.1012 20.2968C95.9012 22.8968 97.4012 26.1968 98.6012 30.1968C100.001 34.1968 101.101 39.7968 101.901 46.9968C102.701 54.1968 103.201 63.5968 103.401 75.1968C103.601 86.7968 103.601 101.397 103.401 118.997C93.0012 122.397 82.5012 125.697 71.9012 128.897C61.3012 131.897 52.0012 134.497 44.0012 136.697C35.8012 138.897 29.6012 140.497 25.4012 141.497C21.2012 142.297 17.2012 142.897 13.4012 143.297C4.60119 144.297 0.00119492 145.997 -0.398805 148.397C-0.798805 150.797 2.2012 153.997 8.6012 157.997C12.8012 160.397 16.2012 162.297 18.8012 163.697C21.6012 164.897 24.2012 165.597 26.6012 165.797C29.2012 165.997 31.9012 165.597 34.7012 164.597C37.7012 163.597 41.5012 162.097 46.1012 160.097C48.1012 159.297 51.0012 158.097 54.8012 156.497C58.6012 154.897 63.0012 153.197 68.0012 151.397C73.2012 149.597 78.8012 147.697 84.8012 145.697C88.9089 144.191 93.1102 142.731 97.4054 141.319C99.3841 140.668 101.383 140.028 103.401 139.397C103.401 141.54 103.417 143.632 103.448 145.673C103.625 157.347 104.31 167.355 105.501 175.697C106.901 185.497 109.401 193.697 113.001 200.297C116.601 206.897 121.401 212.197 127.401 216.197C133.601 220.397 141.501 223.897 151.101 226.697C156.501 228.297 163.101 229.397 170.901 229.997C178.901 230.797 187.101 230.997 195.501 230.597C203.901 230.197 212.101 228.997 220.101 226.997C228.301 225.197 235.201 222.597 240.801 219.197C249.601 213.997 254.501 209.497 255.501 205.697C256.701 201.697 255.201 197.197 251.001 192.197C248.601 189.397 246.601 185.397 245.001 180.197ZM231.626 136.825C231.625 136.823 231.629 136.831 231.638 136.849C231.63 136.834 231.626 136.826 231.626 136.825ZM239.711 137.446C239.711 137.446 239.704 137.456 239.691 137.473C239.704 137.454 239.711 137.445 239.711 137.446Z" fill="black"/>
</svg>
