<svg width="286" height="230" viewBox="0 0 286 230" fill="none" xmlns="http://www.w3.org/2000/svg">
<path d="M208.902 52.26C204.702 53.26 200.602 54.16 196.602 54.96C192.802 55.76 188.602 56.56 184.002 57.36C179.402 58.16 174.102 59.06 168.102 60.06C162.102 61.06 154.902 62.26 146.502 63.66C137.102 65.06 129.102 66.16 122.502 66.96C116.102 67.76 110.502 68.16 105.702 68.16C101.102 68.16 97.0021 67.76 93.4021 66.96C90.0021 66.16 86.7022 64.96 83.5022 63.36C74.9021 59.16 70.8022 56.16 71.2022 54.36C71.6022 52.56 76.9021 51.26 87.1021 50.46C91.9021 50.06 96.6022 49.56 101.202 48.96C106.002 48.36 111.002 47.66 116.202 46.86C121.602 45.86 127.202 44.76 133.002 43.56C139.002 42.16 145.502 40.46 152.502 38.46C161.902 35.86 169.302 33.86 174.702 32.46C180.302 31.06 184.902 30.26 188.502 30.06C192.102 29.86 195.202 30.16 197.802 30.96C200.602 31.76 203.902 33.06 207.702 34.86C214.502 38.06 217.902 41.36 217.902 44.76C218.102 48.16 215.102 50.66 208.902 52.26ZM201.102 98.66C207.502 103.66 210.002 107.96 208.602 111.56C207.402 115.16 202.002 117.06 192.402 117.26C185.402 117.46 178.602 117.76 172.002 118.16C165.602 118.36 159.202 118.96 152.802 119.96C139.802 122.16 129.602 123.86 122.202 125.06C114.802 126.06 109.002 126.66 104.802 126.86C100.802 127.06 97.8021 126.76 95.8021 125.96C93.8021 125.16 91.8021 123.96 89.8021 122.36C82.4021 116.56 79.1022 112.96 79.9022 111.56C80.7022 109.96 85.0021 109.06 92.8021 108.86C96.6021 108.86 101.502 108.46 107.502 107.66C113.702 106.86 120.002 105.86 126.402 104.66C132.802 103.46 139.002 102.16 145.002 100.76C151.002 99.36 155.802 98.06 159.402 96.86C169.402 93.46 177.502 91.86 183.702 92.06C189.902 92.26 195.702 94.46 201.102 98.66ZM269.502 164.86C278.502 175.26 281.702 181.96 279.102 184.96C276.702 187.96 268.702 188.36 255.102 186.16C247.302 184.96 240.002 183.96 233.202 183.16C226.402 182.36 218.902 181.96 210.702 181.96C202.502 181.76 193.002 181.86 182.202 182.26C171.402 182.66 158.202 183.36 142.602 184.36C133.802 184.96 125.002 185.76 116.202 186.76C107.402 187.56 99.1021 188.56 91.3021 189.76C83.5021 190.76 76.4021 191.86 70.0022 193.06C63.8022 194.26 58.9021 195.36 55.3021 196.36C51.1021 197.56 47.6021 198.36 44.8021 198.76C42.0021 199.36 39.3022 199.36 36.7022 198.76C34.3022 198.36 31.6021 197.36 28.6021 195.76C25.8021 193.96 22.2021 191.46 17.8021 188.26C9.20214 182.06 5.30213 178.06 6.10213 176.26C6.90213 174.26 13.3021 173.56 25.3021 174.16C28.1021 174.36 32.2021 174.36 37.6021 174.16C43.0021 173.96 47.8022 173.66 52.0022 173.26C71.6022 171.26 90.1021 169.36 107.502 167.56C125.102 165.76 141.002 164.06 155.202 162.46C169.602 160.86 182.102 159.46 192.702 158.26C203.502 156.86 211.902 155.66 217.902 154.66C226.102 153.46 232.902 152.76 238.302 152.56C243.702 152.36 248.302 152.66 252.102 153.46C255.902 154.26 259.102 155.66 261.702 157.66C264.302 159.46 266.902 161.86 269.502 164.86Z" fill="black"/>
<path fill-rule="evenodd" clip-rule="evenodd" d="M210.344 58.0838L210.289 58.0968C206.032 59.1102 201.871 60.024 197.805 60.8375C193.932 61.6525 189.671 62.4636 185.027 63.2713C180.41 64.0743 175.095 64.9767 169.085 65.9784L147.434 69.5869L147.383 69.5945C137.955 70.9987 129.901 72.1065 123.232 72.9151C116.667 73.7353 110.813 74.16 105.699 74.16C100.764 74.16 96.2144 73.732 92.0973 72.8171L92.061 72.809L92.0247 72.8005C88.1695 71.8934 84.4394 70.536 80.8408 68.7391C76.4601 66.5988 72.9122 64.6178 70.4309 62.8022C69.2131 61.9111 67.9533 60.8469 66.9906 59.598C66.1262 58.4765 64.6653 56.1027 65.3419 53.0584C66.0225 49.9953 68.4058 48.4557 69.5511 47.8328C70.9204 47.0881 72.5093 46.5843 74.0446 46.2077C77.1705 45.441 81.426 44.8869 86.615 44.4795C91.3207 44.0872 95.9233 43.5973 100.423 43.0104L100.439 43.0083L100.455 43.0063C105.166 42.4174 110.08 41.73 115.196 40.9437C120.501 39.9605 126.006 38.8793 131.709 37.6998C137.578 36.3289 143.957 34.6603 150.851 32.6908L150.875 32.6839L150.899 32.6771C160.311 30.0738 167.747 28.0639 173.193 26.652L173.218 26.6455L173.244 26.6391C179.021 25.1949 184.032 24.2989 188.166 24.0692C192.234 23.8432 196.06 24.1573 199.503 25.207C202.708 26.1272 206.308 27.5622 210.26 29.4342C213.949 31.1703 217.159 33.13 219.528 35.4295C221.887 37.7196 223.838 40.7889 223.898 44.5827C224.065 48.4029 222.317 51.5634 219.64 53.7943C217.157 55.8637 213.874 57.1727 210.398 58.0697L210.344 58.0838ZM217.899 44.76C217.899 41.36 214.499 38.06 207.699 34.86C203.899 33.06 200.599 31.76 197.799 30.96C195.199 30.16 192.099 29.86 188.499 30.06C184.899 30.26 180.299 31.06 174.699 32.46C169.299 33.86 161.899 35.86 152.499 38.46C145.499 40.46 138.999 42.16 132.999 43.56C127.199 44.76 121.599 45.86 116.199 46.86C110.999 47.66 105.999 48.36 101.199 48.96C96.599 49.56 91.8989 50.06 87.0989 50.46C76.8989 51.26 71.599 52.56 71.199 54.36C70.799 56.16 74.8989 59.16 83.499 63.36C86.699 64.96 89.9989 66.16 93.3989 66.96C96.9989 67.76 101.099 68.16 105.699 68.16C110.499 68.16 116.099 67.76 122.499 66.96C129.099 66.16 137.099 65.06 146.499 63.66L168.099 60.06C174.099 59.06 179.399 58.16 183.999 57.36C188.599 56.56 192.799 55.76 196.599 54.96C200.599 54.16 204.699 53.26 208.899 52.26C215.099 50.66 218.099 48.16 217.899 44.76ZM204.783 93.9239L204.793 93.9318C208.262 96.6422 211.16 99.5217 212.961 102.619C214.821 105.818 215.715 109.675 214.243 113.599C212.774 117.818 209.136 120.115 205.64 121.345C202.076 122.599 197.605 123.151 192.548 123.258C185.616 123.456 178.887 123.754 172.362 124.149L172.274 124.154L172.186 124.157C166.049 124.349 159.908 124.924 153.763 125.882C140.775 128.08 130.572 129.781 123.159 130.983L123.081 130.995L123.002 131.006C115.544 132.014 109.548 132.64 105.092 132.853C100.848 133.065 96.795 132.821 93.5706 131.531C90.9404 130.479 88.4441 128.957 86.0754 127.065C82.3177 124.119 79.3377 121.532 77.351 119.364C76.3853 118.311 75.3818 117.067 74.7011 115.706C74.1543 114.612 72.9786 111.74 74.6069 108.732C75.6586 106.737 77.3694 105.665 78.5143 105.104C79.7743 104.486 81.166 104.09 82.4948 103.812C85.17 103.252 88.6154 102.965 92.6451 102.862L92.722 102.86H92.7989C96.226 102.86 100.834 102.495 106.706 101.713L106.719 101.711L106.731 101.709C112.813 100.925 119.001 99.9426 125.293 98.7628C131.612 97.578 137.726 96.2959 143.636 94.917C149.541 93.5389 154.135 92.289 157.485 91.1735C167.75 87.6847 176.641 85.8292 183.892 86.0631C191.49 86.3082 198.49 89.0295 204.783 93.9239ZM159.399 96.86C155.799 98.06 150.999 99.36 144.999 100.76C138.999 102.16 132.799 103.46 126.399 104.66C119.999 105.86 113.699 106.86 107.499 107.66C101.499 108.46 96.5989 108.86 92.7989 108.86C84.9989 109.06 80.699 109.96 79.899 111.56C79.099 112.96 82.3989 116.56 89.7989 122.36C91.7989 123.96 93.7989 125.16 95.7989 125.96C97.7989 126.76 100.799 127.06 104.799 126.86C108.999 126.66 114.799 126.06 122.199 125.06C129.599 123.86 139.799 122.16 152.799 119.96C159.199 118.96 165.599 118.36 171.999 118.16C178.599 117.76 185.399 117.46 192.399 117.26C201.999 117.06 207.399 115.16 208.599 111.56C209.999 107.96 207.499 103.66 201.099 98.66C195.699 94.46 189.899 92.26 183.699 92.06C177.499 91.86 169.399 93.46 159.399 96.86ZM274.033 160.93L274.036 160.934C278.643 166.257 282.113 171.016 284.063 175.099C285.757 178.646 287.51 184.315 283.709 188.801C282.139 190.716 280.043 191.795 278.113 192.425C276.132 193.073 273.909 193.387 271.599 193.503C266.989 193.733 261.119 193.211 254.165 192.087C246.433 190.898 239.211 189.909 232.498 189.119C225.971 188.351 218.709 187.96 210.699 187.96H210.626L210.553 187.958C202.507 187.762 193.134 187.859 182.421 188.256C171.695 188.653 158.556 189.35 142.993 190.347C134.288 190.941 125.582 191.732 116.876 192.722L116.809 192.729L116.742 192.735C108.051 193.525 99.8753 194.511 92.2113 195.69L92.1367 195.702L92.0619 195.711C84.3616 196.699 77.3843 197.78 71.1232 198.954C65.0093 200.137 60.2986 201.199 56.9255 202.135C52.6876 203.346 48.9747 204.21 45.8476 204.671C42.3827 205.385 38.9224 205.402 35.5295 204.647C32.3458 204.089 29.0763 202.815 25.7754 201.054L25.5599 200.939L25.3544 200.807C22.4192 198.92 18.7188 196.348 14.281 193.12C9.90633 189.966 6.44616 187.176 4.12794 184.799C2.99265 183.634 1.86404 182.302 1.0886 180.851C0.41111 179.583 -0.694485 176.893 0.570986 173.927C1.76227 171.074 4.33121 169.877 5.6422 169.386C7.21949 168.794 9.03492 168.469 10.8466 168.271C14.5256 167.868 19.5029 167.863 25.5986 168.167L25.6625 168.171L25.7264 168.175C28.1949 168.352 32.0345 168.362 37.3769 168.164C42.6826 167.968 47.3567 167.674 51.4101 167.289C71.0002 165.29 89.4906 163.391 106.882 161.592L106.889 161.591C124.473 159.793 140.352 158.095 154.527 156.498L154.536 156.497C168.912 154.899 181.391 153.502 191.975 152.304C202.727 150.91 211.028 149.722 216.913 148.742L216.971 148.732L217.03 148.723C225.345 147.507 232.379 146.775 238.077 146.564C243.791 146.352 248.91 146.657 253.335 147.589C257.802 148.529 261.828 150.223 265.235 152.811C268.294 154.947 271.22 157.685 274.033 160.93ZM192.699 158.26C182.099 159.46 169.599 160.86 155.199 162.46C140.999 164.06 125.099 165.76 107.499 167.56C90.099 169.36 71.599 171.26 51.999 173.26C47.799 173.66 42.9989 173.96 37.5989 174.16C32.1989 174.36 28.0989 174.36 25.2989 174.16C13.2989 173.56 6.89893 174.26 6.09893 176.26C5.29893 178.06 9.19894 182.06 17.7989 188.26C22.1989 191.46 25.7989 193.96 28.5989 195.76C31.5989 197.36 34.299 198.36 36.699 198.76C39.299 199.36 41.9989 199.36 44.7989 198.76C47.5989 198.36 51.0989 197.56 55.2989 196.36C58.8989 195.36 63.799 194.26 69.999 193.06C76.399 191.86 83.4989 190.76 91.2989 189.76C99.0989 188.56 107.399 187.56 116.199 186.76C124.999 185.76 133.799 184.96 142.599 184.36C158.199 183.36 171.399 182.66 182.199 182.26C192.999 181.86 202.499 181.76 210.699 181.96C218.899 181.96 226.399 182.36 233.199 183.16C239.999 183.96 247.299 184.96 255.099 186.16C268.699 188.36 276.699 187.96 279.099 184.96C281.699 181.96 278.499 175.26 269.499 164.86C266.899 161.86 264.299 159.46 261.699 157.66C259.099 155.66 255.899 154.26 252.099 153.46C248.299 152.66 243.699 152.36 238.299 152.56C232.899 152.76 226.099 153.46 217.899 154.66C211.899 155.66 203.499 156.86 192.699 158.26Z" fill="black"/>
</svg>
