<svg width="260" height="230" viewBox="0 0 260 230" fill="none" xmlns="http://www.w3.org/2000/svg">
<path d="M167.047 62.8973C174.889 68.4513 178.097 72.9372 176.671 76.355C175.388 79.7728 169.257 80.7696 158.278 79.3456C155.711 79.0607 152.146 78.8471 147.584 78.7047C143.021 78.4199 137.888 78.2775 132.185 78.2775C126.624 78.2775 120.635 78.4199 114.219 78.7047C107.803 78.8471 101.458 79.132 95.184 79.5592C95.184 87.1069 95.1127 94.7257 94.9701 102.416C94.9701 109.964 94.8987 116.443 94.7562 121.855C94.6136 134.814 94.186 145.779 93.473 154.751C92.9027 163.723 91.6194 171.698 89.6232 178.676C86.9141 188.502 84.4902 193.273 82.3514 192.988C80.2126 192.703 78.1452 187.505 76.149 177.394C75.4361 173.264 74.8657 168.778 74.4379 163.937C74.0102 159.237 73.725 154.466 73.5824 149.624C73.2973 138.801 73.0835 127.551 72.9409 115.873C72.7983 104.196 72.727 92.8032 72.727 81.6953C63.8867 82.8346 55.6881 84.1163 48.1312 85.5404C40.5742 86.822 34.0866 88.2461 28.6684 89.8126C25.6741 90.6671 23.1789 91.3079 21.1827 91.7351C19.3291 92.02 17.4755 92.0912 15.6219 91.9488C13.9109 91.6639 11.9861 91.0231 9.84733 90.0262C7.70856 89.0294 5.07069 87.5341 1.93383 85.5404C-5.33797 80.9833 -8.61744 78.0639 -7.90452 76.7822C-7.1916 75.5005 -2.12982 74.9309 7.28074 75.0733C9.56209 75.2157 12.9129 75.1445 17.333 74.8597C21.7531 74.5749 26.886 74.1476 32.732 73.578C38.7205 73.0084 45.1368 72.3675 51.9809 71.6555C58.8249 70.801 65.7403 69.8754 72.727 68.8785V44.3129C72.727 39.1862 72.5132 34.9852 72.0854 31.7098C71.8002 28.2919 71.3725 25.4437 70.8021 23.1652C70.2318 20.7442 69.4475 18.7505 68.4494 17.184C67.5939 15.6175 66.5245 14.051 65.2413 12.4845C62.8174 9.63635 61.1777 7.2866 60.3222 5.43528C59.6093 3.44156 59.7518 2.01747 60.7499 1.16302C61.8905 0.166149 64.0293 -0.189878 67.1661 0.0949368C70.4456 0.237353 74.8658 1.09181 80.4266 2.6583C85.9873 4.2248 90.2649 5.57769 93.2591 6.71696C96.2534 7.85623 98.3208 9.06671 99.4615 10.3484C100.745 11.6301 101.173 13.1254 100.745 14.8343C100.46 16.5432 99.8181 18.6793 98.82 21.2427C98.3922 22.5244 97.9644 23.9485 97.5367 25.515C97.1089 26.939 96.7525 29.004 96.4673 31.7098C96.1821 34.2731 95.897 37.6909 95.6118 41.9632C95.4692 46.2355 95.3979 51.7894 95.3979 58.6251C95.3979 59.7643 95.3979 60.9036 95.3979 62.0429C95.3979 63.1821 95.3266 64.3926 95.184 65.6743C104.737 64.2502 112.223 63.0397 117.641 62.0429C123.202 61.046 127.836 60.1203 131.543 59.2659C136.676 57.9842 140.954 57.1298 144.376 56.7025C147.798 56.2753 150.792 56.2753 153.358 56.7025C155.925 56.9873 158.206 57.6994 160.202 58.8387C162.341 59.8355 164.623 61.1884 167.047 62.8973Z" fill="black"/>
<path fill-rule="evenodd" clip-rule="evenodd" d="M171.66 56.3639L171.667 56.3688C175.86 59.338 179.468 62.4584 181.839 65.7735C184.186 69.0562 186.258 73.9841 184.105 79.3045C181.857 85.0854 176.212 86.941 172.391 87.5623C168.204 88.2431 163.05 88.0279 157.323 87.2892C155.069 87.0423 151.771 86.8394 147.331 86.7009L147.207 86.697L147.083 86.6892C142.72 86.4169 137.758 86.2775 132.182 86.2775C126.756 86.2775 120.887 86.4165 114.571 86.6969L114.482 86.7008L114.394 86.7028C110.622 86.7865 106.877 86.9203 103.158 87.1042C103.126 92.2016 103.063 97.3303 102.967 102.49C102.967 110.023 102.896 116.532 102.752 122.004C102.608 135.018 102.178 146.136 101.45 155.322C100.851 164.697 99.4977 173.223 97.3226 180.839C95.9319 185.878 94.4828 190.138 92.9028 193.247C92.1313 194.766 91.0789 196.519 89.6148 197.958C88.1638 199.385 85.2787 201.449 81.2926 200.918C77.6957 200.439 75.4801 198.117 74.4106 196.723C73.2469 195.206 72.4036 193.45 71.7604 191.833C70.4536 188.547 69.3258 184.151 68.2977 178.944L68.2792 178.85L68.2628 178.755C67.5075 174.379 66.9111 169.675 66.467 164.65C66.0246 159.787 65.7303 154.857 65.5831 149.86L65.5828 149.848L65.5824 149.835C65.2962 138.972 65.0817 127.683 64.9387 115.971C64.8347 107.456 64.7685 99.0898 64.7402 90.8738C59.4203 91.6606 54.3774 92.5036 49.6099 93.402L49.5381 93.4155L49.4661 93.4278C42.1095 94.6755 35.9331 96.0391 30.8876 97.4979L30.8742 97.5018L30.8609 97.5056C27.7736 98.3866 25.0908 99.0794 22.8542 99.558L22.6258 99.6069L22.3949 99.6424C19.942 100.019 17.4751 100.115 15.0063 99.9253L14.654 99.8982L14.3055 99.8402C11.6756 99.4024 9.04134 98.4782 6.46489 97.2773C3.89085 96.0776 0.933222 94.3847 -2.34427 92.3022C-6.06118 89.9719 -9.15141 87.8226 -11.3017 85.9084C-12.3262 84.9964 -13.5866 83.7494 -14.5202 82.2213C-15.285 80.9695 -17.2451 77.1121 -14.8985 72.8934M-14.8985 72.8934C-13.9101 71.1165 -12.5316 70.0752 -11.6176 69.5148C-10.6671 68.932 -9.72973 68.5705 -8.99949 68.3364C-7.54928 67.8715 -5.9593 67.6114 -4.47093 67.4439C-1.43152 67.1019 2.58718 67.0014 7.39902 67.0742L7.58788 67.0771L7.77639 67.0889C9.53896 67.1989 12.4826 67.1555 16.8158 66.8763C21.1259 66.5985 26.1683 66.1794 31.9534 65.6157L31.9625 65.6148L31.9717 65.614C37.9099 65.0491 44.2754 64.4135 51.0686 63.707C55.5884 63.1423 60.1403 62.5464 64.7242 61.919V44.313C64.7242 39.366 64.5155 35.5446 64.15 32.7457L64.1258 32.5608L64.1103 32.375C63.8463 29.2109 63.4684 26.8241 63.0388 25.1078L63.0253 25.0538L63.0125 24.9997C62.5827 23.1753 62.0829 22.0842 61.6998 21.4828L61.5548 21.2553L61.4255 21.0185C60.8462 19.9579 60.0815 18.8194 59.0933 17.6073C56.5431 14.605 54.3639 11.6186 53.0573 8.79117L52.9071 8.46612L52.7866 8.12895C51.7339 5.18531 50.646 -0.692909 55.5146 -4.88852C57.5785 -6.67847 59.9678 -7.42255 61.893 -7.74304C63.8015 -8.06073 65.7868 -8.05209 67.7001 -7.88871C71.8559 -7.68391 76.9007 -6.64549 82.593 -5.04196C88.2323 -3.45334 92.7761 -2.02524 96.1013 -0.760076L93.2638 6.69749L96.1013 -0.760073C99.3544 0.477709 102.829 2.19789 105.276 4.85405C108.278 7.95271 109.552 12.0984 108.585 16.4306C108.166 18.7682 107.366 21.3111 106.348 23.9501C105.993 25.025 105.627 26.2466 105.251 27.6223L105.225 27.7197L105.196 27.8164C104.984 28.5226 104.689 30.0028 104.42 32.5483L104.418 32.5713L104.415 32.5943C104.152 34.9644 103.879 38.2062 103.6 42.3625C103.481 46.0109 103.412 50.6588 103.398 56.325C108.534 55.5163 112.795 54.7998 116.191 54.175L116.209 54.1717L116.227 54.1684C121.678 53.1912 126.15 52.2967 129.674 51.4862C134.943 50.1726 139.538 49.2441 143.382 48.7642C147.257 48.2804 150.985 48.2256 154.454 48.7761C157.778 49.1696 160.953 50.1164 163.863 51.7214C166.433 52.9436 169.032 54.5107 171.653 56.3589L171.66 56.3639M160.2 58.8387C158.203 57.6994 155.922 56.9874 153.356 56.7026C150.789 56.2753 147.795 56.2753 144.373 56.7026C140.951 57.1298 136.673 57.9842 131.54 59.2659C127.833 60.1204 123.199 61.046 117.638 62.0429C113.867 62.7368 109.093 63.5342 103.318 64.4352C100.797 64.8285 98.0845 65.2415 95.1812 65.6743C95.3238 64.3926 95.3951 63.1822 95.3951 62.0429V58.6251C95.3951 58.2642 95.3953 57.907 95.3957 57.5533C95.4029 51.2066 95.474 46.01 95.609 41.9632C95.8942 37.691 96.1794 34.2731 96.4645 31.7098C96.7497 29.004 97.1061 26.9391 97.5339 25.515C97.9617 23.9485 98.3894 22.5244 98.8172 21.2427C99.8153 18.6793 100.457 16.5432 100.742 14.8343C101.17 13.1254 100.742 11.6301 99.4587 10.3484C98.3181 9.06674 96.2506 7.85626 93.2564 6.71699C90.2621 5.57771 85.9846 4.22483 80.4238 2.65833C74.863 1.09184 70.4428 0.237382 67.1634 0.0949659C64.0265 -0.189848 61.8877 0.166179 60.7471 1.16305C59.749 2.0175 59.6065 3.44159 60.3194 5.43531C61.1749 7.28663 62.8146 9.63638 65.2385 12.4846C66.5218 14.0511 67.5912 15.6176 68.4467 17.1841C69.4448 18.7506 70.229 20.7443 70.7993 23.1652C71.3697 25.4438 71.7975 28.292 72.0826 31.7098C72.5104 34.9852 72.7242 39.1863 72.7242 44.313V68.8785C65.7376 69.8754 58.8222 70.8011 51.9781 71.6555C45.1341 72.3676 38.7178 73.0084 32.7292 73.578C26.8833 74.1477 21.7503 74.5749 17.3302 74.8597C12.9101 75.1445 9.55932 75.2157 7.27797 75.0733C4.80588 75.0359 2.63389 75.0477 0.762005 75.1085C0.39548 75.1204 0.0404754 75.1342 -0.303038 75.1499C-4.88356 75.3591 -7.41832 75.9032 -7.9073 76.7822C-8.45375 77.7646 -6.65459 79.7092 -2.50985 82.616C-2.21899 82.82 -1.91659 83.0287 -1.60264 83.2422C-0.553679 83.9553 0.624222 84.7214 1.93106 85.5404C5.06791 87.5341 7.70579 89.0294 9.84455 90.0263C11.9833 91.0231 13.9081 91.664 15.6191 91.9488C17.4727 92.0912 19.3263 92.02 21.1799 91.7352C23.1761 91.308 25.6713 90.6671 28.6656 89.8127C34.0838 88.2462 40.5714 86.8221 48.1284 85.5404C53.3536 84.5557 58.8857 83.6391 64.7244 82.7906C67.3299 82.412 69.9965 82.0469 72.7242 81.6954C72.7242 84.3674 72.7283 87.0559 72.7366 89.7609C72.7626 98.3008 72.8298 107.005 72.9381 115.874C73.0807 127.551 73.2945 138.801 73.5797 149.624C73.7222 154.466 74.0074 159.237 74.4351 163.937C74.8629 168.778 75.4333 173.264 76.1462 177.394C76.8755 181.088 77.6142 184.126 78.3624 186.508C78.3685 186.527 78.3745 186.547 78.3806 186.566C79.6748 190.667 80.9975 192.808 82.3486 192.988C83.7709 193.177 85.3194 191.131 86.9939 186.849C87.0008 186.831 87.0077 186.814 87.0146 186.796C87.8517 184.647 88.7203 181.941 89.6204 178.676C91.6166 171.698 92.8999 163.723 93.4703 154.751C94.1832 145.779 94.6108 134.814 94.7534 121.855C94.896 116.443 94.9673 109.964 94.9673 102.416C95.1099 94.7258 95.1812 87.1069 95.1812 79.5592C101.455 79.132 107.8 78.8472 114.216 78.7048C120.632 78.4199 126.621 78.2775 132.182 78.2775C137.885 78.2775 143.018 78.4199 147.581 78.7048C152.144 78.8472 155.708 79.0608 158.275 79.3456C169.254 80.7697 175.385 79.7728 176.668 76.355C178.094 72.9372 174.886 68.4513 167.044 62.8974C164.62 61.1884 162.338 59.8356 160.2 58.8387Z" fill="black"/>
<path d="M213.476 139.469C211.601 140.393 209.562 141.224 207.357 141.963C205.152 142.702 202.617 143.533 199.75 144.456C196.994 145.195 193.797 146.027 190.159 146.95C186.631 147.689 182.552 148.52 177.922 149.444C173.513 150.368 169.654 150.922 166.347 151.107C163.04 151.291 160.063 151.199 157.417 150.829C154.771 150.275 152.291 149.444 149.976 148.336C147.771 147.227 145.566 145.75 143.361 143.902C139.172 140.577 137.188 138.176 137.408 136.698C137.739 135.036 140.385 133.927 145.346 133.373C148.873 133.004 152.622 132.449 156.59 131.71C160.669 130.787 164.748 129.771 168.827 128.663C172.906 127.554 176.875 126.261 180.733 124.783C184.702 123.306 188.34 121.643 191.648 119.796C197.049 116.84 201.239 115.27 204.215 115.085C207.192 114.716 210.113 115.547 212.979 117.579C218.602 121.458 221.413 125.522 221.413 129.771C221.413 133.835 218.767 137.067 213.476 139.469ZM243.902 188.32C249.635 198.11 251.895 205.222 250.682 209.655C249.58 214.089 245.005 215.012 236.957 212.426C233.319 211.318 229.736 210.394 226.209 209.655C222.791 208.732 218.877 208.085 214.468 207.716C210.168 207.346 205.097 207.254 199.254 207.439C193.522 207.439 186.521 207.716 178.253 208.27C168.662 209.009 159.843 210.117 151.795 211.595C143.747 213.073 136.857 214.92 131.124 217.137C128.258 218.245 125.888 219.076 124.014 219.631C122.14 220 120.486 220.092 119.053 219.908C117.62 219.723 116.297 219.076 115.084 217.968C113.871 216.86 112.548 215.197 111.115 212.98C105.493 204.114 102.792 198.48 103.012 196.078C103.233 193.492 107.036 192.938 114.423 194.416C115.415 194.6 117.013 194.693 119.218 194.693C121.423 194.508 125.006 194.231 129.967 193.861C136.03 193.307 143.141 192.568 151.299 191.645C159.567 190.536 167.78 189.428 175.938 188.32C184.206 187.027 191.868 185.734 198.924 184.44C206.089 182.963 211.657 181.577 215.625 180.284C219.484 179.176 222.736 178.345 225.382 177.79C228.138 177.236 230.563 177.236 232.658 177.79C234.752 178.16 236.682 179.176 238.445 180.838C240.209 182.501 242.028 184.995 243.902 188.32Z" fill="black"/>
<path fill-rule="evenodd" clip-rule="evenodd" d="M137.408 136.698C137.739 135.036 140.385 133.927 145.345 133.373C148.873 133.004 152.621 132.45 156.59 131.711C160.669 130.787 164.748 129.771 168.827 128.663C172.906 127.554 176.875 126.261 180.733 124.784C184.702 123.306 188.34 121.643 191.647 119.796C197.049 116.84 201.238 115.27 204.215 115.086C207.192 114.716 210.113 115.547 212.979 117.579C218.602 121.459 221.413 125.522 221.413 129.771C221.413 133.835 218.767 137.068 213.475 139.469C211.601 140.393 209.562 141.224 207.357 141.963C205.152 142.702 202.616 143.533 199.75 144.457C196.994 145.196 193.797 146.027 190.159 146.951C186.631 147.689 182.552 148.521 177.922 149.444C173.512 150.368 169.654 150.922 166.347 151.107C163.039 151.292 160.063 151.199 157.417 150.83C154.771 150.276 152.291 149.444 149.976 148.336C147.771 147.228 145.566 145.75 143.361 143.903C139.172 140.578 137.188 138.176 137.408 136.698ZM141.465 146.228C139.32 144.523 137.6 142.949 136.418 141.519C135.824 140.799 135.293 140.03 134.925 139.222C134.562 138.424 134.271 137.393 134.441 136.256L134.452 136.184L134.466 136.113C134.93 133.778 136.877 132.525 138.481 131.853C140.193 131.136 142.425 130.681 145.012 130.392L145.023 130.391L145.033 130.39C148.455 130.031 152.105 129.493 155.984 128.772C160.002 127.861 164.021 126.86 168.04 125.768L168.827 128.663L168.041 125.768C172.025 124.685 175.898 123.423 179.66 121.982L179.673 121.977L179.686 121.972C183.528 120.542 187.025 118.941 190.184 117.177L190.196 117.171L190.207 117.164C195.624 114.201 200.273 112.351 203.936 112.097C207.742 111.65 211.364 112.761 214.698 115.121C220.62 119.21 224.413 124.056 224.413 129.771C224.413 135.489 220.564 139.535 214.759 142.181C212.764 143.162 210.612 144.036 208.31 144.808C206.092 145.551 203.545 146.386 200.67 147.312L200.599 147.335L200.527 147.354C197.755 148.098 194.544 148.932 190.897 149.858L190.836 149.874L190.774 149.887C187.238 150.627 183.154 151.46 178.523 152.384C174.02 153.326 170.011 153.907 166.514 154.102C163.056 154.295 159.88 154.203 157.002 153.801L156.901 153.787L156.802 153.766C153.933 153.165 151.223 152.259 148.68 151.042L148.654 151.029L148.628 151.016C146.196 149.794 143.809 148.188 141.465 146.228ZM225.509 212.574L225.426 212.552C222.219 211.685 218.489 211.064 214.217 210.706L214.211 210.705C210.061 210.348 205.113 210.255 199.349 210.438L199.301 210.439H199.254C193.614 210.439 186.69 210.712 178.468 211.263C168.97 211.995 160.261 213.091 152.336 214.546C144.417 216 137.717 217.804 132.206 219.935C129.301 221.058 126.847 221.921 124.864 222.508L124.731 222.547L124.594 222.574C122.498 222.987 120.508 223.12 118.669 222.883C116.542 222.609 114.663 221.648 113.06 220.183C111.579 218.829 110.095 216.928 108.596 214.61L108.589 214.598L108.582 214.587C105.743 210.111 103.592 206.373 102.167 203.402C101.456 201.918 100.897 200.566 100.528 199.371C100.177 198.231 99.918 196.99 100.024 195.814C100.151 194.356 100.833 193.069 102.004 192.155C103.074 191.32 104.372 190.933 105.598 190.755C108.022 190.401 111.228 190.719 114.989 191.47C115.681 191.596 117 191.689 119.094 191.693C121.319 191.507 124.863 191.234 129.718 190.872C135.741 190.321 142.811 189.587 150.931 188.668C159.176 187.562 167.368 186.457 175.504 185.351C183.726 184.065 191.341 182.78 198.35 181.496C205.458 180.029 210.889 178.672 214.696 177.432L214.746 177.416L214.797 177.401C218.696 176.281 222.024 175.429 224.767 174.854L224.778 174.852L224.79 174.85C227.82 174.24 230.686 174.191 233.304 174.859C236.002 175.362 238.407 176.68 240.503 178.656C242.571 180.605 244.56 183.38 246.504 186.825C249.424 191.815 251.535 196.247 252.756 200.088C253.958 203.87 254.4 207.398 253.585 210.414C253.193 211.97 252.449 213.386 251.263 214.505C250.072 215.629 248.603 216.294 247.018 216.614C243.973 217.229 240.227 216.626 236.062 215.29C232.512 214.209 229.022 213.31 225.593 212.592L225.509 212.574ZM236.957 212.427C245.005 215.013 249.58 214.089 250.682 209.656C251.895 205.222 249.635 198.11 243.902 188.32C242.028 184.995 240.209 182.501 238.445 180.839C236.681 179.176 234.752 178.16 232.658 177.791C230.563 177.237 228.138 177.237 225.382 177.791C222.736 178.345 219.484 179.176 215.625 180.284C211.656 181.578 206.089 182.963 198.923 184.441C191.868 185.734 184.206 187.027 175.938 188.32C167.78 189.428 159.567 190.537 151.299 191.645C143.141 192.569 136.03 193.308 129.967 193.862C125.006 194.231 121.423 194.508 119.218 194.693C117.013 194.693 115.415 194.601 114.422 194.416C107.036 192.938 103.233 193.492 103.012 196.078C102.792 198.48 105.493 204.114 111.115 212.981C112.548 215.197 113.871 216.86 115.084 217.968C116.297 219.077 117.619 219.723 119.053 219.908C120.486 220.093 122.139 220 124.014 219.631C125.888 219.077 128.258 218.245 131.124 217.137C136.857 214.92 143.747 213.073 151.795 211.595C159.842 210.118 168.662 209.009 178.253 208.27C186.521 207.716 193.521 207.439 199.254 207.439C205.097 207.254 210.168 207.347 214.468 207.716C218.877 208.086 222.791 208.732 226.208 209.656C229.736 210.395 233.319 211.318 236.957 212.427Z" fill="black"/>
</svg>
