<svg width="260" height="230" viewBox="0 0 260 230" fill="none" xmlns="http://www.w3.org/2000/svg">
<path d="M228.11 74.9554C237.478 81.5741 241.31 86.9199 239.607 90.993C238.074 95.066 230.75 96.254 217.634 94.5569C214.568 94.2175 210.31 93.9629 204.859 93.7932C199.409 93.4538 193.277 93.2841 186.464 93.2841C179.821 93.2841 172.667 93.4538 165.002 93.7932C157.337 93.9629 149.758 94.3023 142.263 94.8115C142.263 103.806 142.178 112.886 142.008 122.05C142.008 131.045 141.922 138.766 141.752 145.215C141.582 160.659 141.071 173.727 140.219 184.418C139.538 195.11 138.005 204.614 135.62 212.93C132.384 224.64 129.488 230.325 126.933 229.986C124.378 229.646 121.909 223.452 119.524 211.402C118.672 206.481 117.991 201.135 117.48 195.365C116.969 189.764 116.628 184.079 116.458 178.309C116.117 165.411 115.862 152.004 115.692 138.088C115.521 124.171 115.436 110.594 115.436 97.3571C104.876 98.7148 95.0815 100.242 86.054 101.939C77.0265 103.467 69.2764 105.164 62.8039 107.031C59.2269 108.049 56.2461 108.813 53.8615 109.322C51.6472 109.661 49.4329 109.746 47.2186 109.576C45.1746 109.237 42.8753 108.473 40.3203 107.285C37.7654 106.097 34.6142 104.315 30.8669 101.939C22.18 96.5085 18.2624 93.0295 19.1141 91.5021C19.9657 89.9747 26.0125 89.2959 37.2543 89.4656C39.9796 89.6353 43.9824 89.5504 49.2627 89.211C54.5429 88.8716 60.6747 88.3625 67.6582 87.6836C74.8121 87.0048 82.477 86.2411 90.6528 85.3925C98.8287 84.3743 107.09 83.2712 115.436 82.0832V52.8082C115.436 46.6986 115.181 41.6922 114.67 37.7888C114.329 33.7158 113.818 30.3216 113.137 27.6062C112.455 24.7211 111.518 22.3452 110.326 20.4784C109.304 18.6116 108.027 16.7447 106.494 14.8779C103.598 11.4837 101.639 8.68351 100.617 6.47728C99.7657 4.10134 99.9359 2.40424 101.128 1.38598C102.491 0.198002 105.046 -0.226279 108.793 0.113137C112.711 0.282855 117.991 1.30112 124.634 3.16793C131.277 5.03474 136.387 6.64698 139.964 8.00467C143.541 9.36235 146.01 10.8049 147.373 12.3323C148.906 13.8597 149.417 15.6416 148.906 17.6781C148.565 19.7147 147.799 22.2603 146.607 25.3151C146.096 26.8425 145.585 28.5396 145.074 30.4064C144.563 32.1035 144.137 34.5643 143.796 37.7888C143.455 40.8436 143.115 44.9166 142.774 50.0079C142.604 55.0993 142.519 61.718 142.519 69.8641C142.519 71.2217 142.519 72.5794 142.519 73.9371C142.519 75.2948 142.433 76.7373 142.263 78.2647C153.675 76.5676 162.618 75.1251 169.09 73.9371C175.733 72.7491 181.269 71.646 185.697 70.6277C191.829 69.1003 196.939 68.0821 201.027 67.573C205.115 67.0638 208.692 67.0638 211.758 67.573C214.824 67.9124 217.549 68.7609 219.934 70.1186C222.489 71.3066 225.214 72.9188 228.11 74.9554Z" fill="black"/>
<path fill-rule="evenodd" clip-rule="evenodd" d="M231.563 70.0476L231.574 70.055C236.461 73.508 240.396 76.9563 242.888 80.433C245.36 83.881 247.122 88.4555 245.185 93.2087C243.21 98.3041 238.144 100.177 233.927 100.861C229.424 101.592 223.657 101.383 216.923 100.515C214.092 100.204 210.034 99.9572 204.675 99.7903L204.581 99.7874L204.488 99.7816C199.188 99.4515 193.183 99.2841 186.466 99.2841C179.924 99.2841 172.859 99.4512 165.269 99.7873L165.203 99.7903L165.137 99.7917C159.46 99.9174 153.833 100.137 148.254 100.451C148.226 107.617 148.144 114.835 148.009 122.106C148.009 131.089 147.924 138.833 147.753 145.328C147.582 160.812 147.069 173.994 146.206 184.848C145.503 195.842 143.917 205.76 141.398 214.556C139.752 220.505 138.095 225.312 136.37 228.699C135.521 230.366 134.469 232.067 133.117 233.394C131.773 234.712 129.366 236.361 126.145 235.933C123.214 235.544 121.317 233.641 120.279 232.291C119.171 230.85 118.306 229.095 117.593 227.307C116.153 223.694 114.855 218.706 113.64 212.567L113.626 212.496L113.614 212.425C112.73 207.32 112.029 201.81 111.506 195.903C110.984 190.179 110.636 184.373 110.462 178.486L110.462 178.477L110.462 178.467C110.12 165.539 109.865 152.103 109.694 138.161C109.553 126.614 109.47 115.298 109.445 104.215C101.541 105.322 94.1144 106.529 87.1645 107.836L87.1107 107.846L87.0568 107.855C78.1793 109.357 70.6621 111.009 64.4685 112.796L64.4585 112.798L64.4486 112.801C60.802 113.839 57.6808 114.642 55.1162 115.189L54.9453 115.226L54.7725 115.252C52.1098 115.661 49.4366 115.764 46.762 115.559L46.4984 115.539L46.2376 115.495C43.506 115.042 40.6754 114.066 37.7925 112.726C34.9122 111.387 31.5226 109.458 27.6716 107.017C23.2663 104.262 19.7743 101.824 17.4314 99.7433C16.2986 98.7373 15.0987 97.5253 14.2547 96.1471C13.5381 94.977 12.0294 91.8911 13.8756 88.5801C14.6583 87.1764 15.7636 86.3306 16.5483 85.8506C17.3608 85.3536 18.1935 85.0271 18.9011 84.8008C20.3086 84.3507 21.942 84.0733 23.6204 83.8849C27.0243 83.5028 31.6462 83.3802 37.3468 83.4663L37.4881 83.4684L37.6291 83.4772C39.9663 83.6227 43.6645 83.5586 48.8797 83.2234C54.0776 82.8893 60.1417 82.3862 67.0797 81.7118L67.0933 81.7105C74.2095 81.0352 81.8362 80.2754 89.974 79.431C96.4082 78.6293 102.896 77.7748 109.438 76.8674V52.8082C109.438 46.8338 109.186 42.1128 108.722 38.5677L108.704 38.4286L108.692 38.2889C108.368 34.4067 107.894 31.3593 107.319 29.0664L107.309 29.0259L107.299 28.9852C106.724 26.5487 106.001 24.8505 105.271 23.708L105.162 23.5373L105.065 23.3596C104.252 21.8736 103.204 20.3282 101.892 18.7269C98.9032 15.2187 96.5373 11.9401 95.175 8.99921L95.0619 8.75511L94.9711 8.50186C93.8633 5.41129 93.1084 0.367465 97.2108 -3.15705C99.0131 -4.71819 101.169 -5.4239 103.085 -5.74214C104.995 -6.0593 107.071 -6.05949 109.196 -5.8748C113.774 -5.6581 119.522 -4.50148 126.259 -2.6083C132.961 -0.724969 138.27 0.943452 142.095 2.39518C145.854 3.82203 149.384 5.64392 151.733 8.20621C154.557 11.0934 155.709 14.8742 154.789 18.8844C154.345 21.4027 153.456 24.2547 152.254 27.3535C151.798 28.7236 151.334 30.2673 150.863 31.9905L150.843 32.0637L150.821 32.1363C150.472 33.294 150.093 35.3153 149.765 38.4192L149.763 38.4365L149.761 38.4538C149.437 41.3629 149.105 45.3035 148.769 50.3081C148.604 55.2926 148.521 61.8043 148.521 69.8641V71.2522C156.543 70.0207 163.034 68.9487 168.009 68.0357L168.022 68.0332L168.036 68.0308C174.597 66.8575 180.012 65.7776 184.303 64.7923C190.536 63.2411 195.883 62.1675 200.287 61.619C204.711 61.0681 208.837 61.0263 212.582 61.6277C216.211 62.0481 219.607 63.071 222.682 64.7793C225.561 66.1368 228.523 67.9095 231.563 70.0476ZM219.936 70.1186C217.551 68.761 214.826 67.9124 211.76 67.573C208.694 67.0639 205.117 67.0639 201.029 67.573C196.941 68.0821 191.831 69.1004 185.699 70.6278C181.271 71.646 175.735 72.7491 169.092 73.9371C163.824 74.904 156.92 76.0395 148.38 77.3436C146.427 77.6419 144.389 77.9489 142.265 78.2647C142.435 76.7373 142.52 75.2948 142.52 73.9371V69.8641C142.52 61.718 142.606 55.0993 142.776 50.008C143.117 44.9167 143.457 40.8436 143.798 37.7888C144.139 34.5643 144.564 32.1035 145.075 30.4064C145.586 28.5396 146.097 26.8425 146.608 25.3151C147.801 22.2603 148.567 19.7147 148.908 17.6782C149.419 15.6417 148.908 13.8597 147.375 12.3323C146.012 10.8049 143.542 9.36237 139.966 8.00469C136.389 6.647 131.279 5.03476 124.636 3.16795C117.993 1.30114 112.713 0.282877 108.795 0.113159C105.048 -0.226257 102.493 0.198023 101.13 1.386C99.9378 2.40426 99.7676 4.10136 100.619 6.4773C101.641 8.68354 103.6 11.4838 106.496 14.878C108.029 16.7448 109.306 18.6116 110.328 20.4784C111.52 22.3452 112.457 24.7211 113.138 27.6062C113.82 30.3216 114.331 33.7158 114.672 37.7888C115.182 41.6922 115.438 46.6986 115.438 52.8082V82.0832C107.092 83.2712 98.8306 84.3743 90.6548 85.3926C82.4789 86.2411 74.814 87.0048 67.6601 87.6836C60.6766 88.3625 54.5448 88.8716 49.2646 89.211C43.9843 89.5505 39.9815 89.6353 37.2562 89.4656C26.0144 89.2959 19.9676 89.9747 19.116 91.5021C18.6151 92.4004 19.7639 93.9738 22.5625 96.2223C22.5643 96.2238 22.5662 96.2253 22.5681 96.2269C24.5275 97.8006 27.2944 99.7047 30.8688 101.939C34.6161 104.315 37.7673 106.097 40.3222 107.285C42.8772 108.473 45.1765 109.237 47.2205 109.576C49.4348 109.746 51.6491 109.661 53.8634 109.322C56.2481 108.813 59.2288 108.049 62.8058 107.031C69.2783 105.164 77.0284 103.467 86.0559 101.939C93.3496 100.568 101.144 99.3078 109.438 98.1582C111.41 97.8849 113.41 97.6179 115.438 97.3571C115.438 99.3657 115.44 101.382 115.444 103.406C115.466 114.722 115.549 126.283 115.693 138.088C115.864 152.004 116.119 165.411 116.46 178.309C116.63 184.079 116.971 189.764 117.482 195.365C117.993 201.135 118.674 206.481 119.526 211.402C121.911 223.452 124.38 229.646 126.935 229.986C129.49 230.325 132.386 224.64 135.622 212.93C138.007 204.614 139.54 195.11 140.221 184.418C141.073 173.727 141.584 160.659 141.754 145.215C141.924 138.766 142.009 131.045 142.009 122.05C142.18 112.886 142.265 103.806 142.265 94.8115C149.76 94.3023 157.339 93.9629 165.004 93.7932C172.669 93.4538 179.823 93.2841 186.466 93.2841C193.279 93.2841 199.411 93.4538 204.861 93.7932C210.312 93.9629 214.57 94.2175 217.636 94.5569C230.752 96.254 238.076 95.066 239.609 90.993C241.312 86.92 237.48 81.5741 228.112 74.9554C225.216 72.9189 222.491 71.3066 219.936 70.1186Z" fill="black"/>
</svg>
