<svg width="260" height="230" viewBox="0 0 260 230" fill="none" xmlns="http://www.w3.org/2000/svg">
<path d="M175.047 47.8973C182.889 53.4513 186.097 57.9372 184.671 61.355C183.388 64.7728 177.257 65.7696 166.278 64.3456C163.711 64.0607 160.146 63.8471 155.584 63.7047C151.021 63.4199 145.888 63.2775 140.185 63.2775C134.624 63.2775 128.635 63.4199 122.219 63.7047C115.803 63.8471 109.458 64.132 103.184 64.5592C103.184 72.1069 103.113 79.7257 102.97 87.4158C102.97 94.9635 102.899 101.443 102.756 106.855C102.614 119.814 102.186 130.779 101.473 139.751C100.903 148.723 99.6194 156.698 97.6232 163.676C94.9141 173.502 92.4902 178.273 90.3514 177.988C88.2126 177.703 86.1452 172.505 84.149 162.394C83.4361 158.264 82.8657 153.778 82.4379 148.937C82.0102 144.237 81.725 139.466 81.5824 134.624C81.2973 123.801 81.0835 112.551 80.9409 100.873C80.7983 89.1959 80.727 77.8032 80.727 66.6953C71.8867 67.8346 63.6881 69.1163 56.1312 70.5404C48.5742 71.822 42.0866 73.2461 36.6684 74.8126C33.6741 75.6671 31.1789 76.3079 29.1827 76.7351C27.3291 77.02 25.4755 77.0912 23.6219 76.9488C21.9109 76.6639 19.9861 76.0231 17.8473 75.0262C15.7086 74.0294 13.0707 72.5341 9.93383 70.5404C2.66203 65.9833 -0.617441 63.0639 0.0954796 61.7822C0.808401 60.5005 5.87018 59.9309 15.2807 60.0733C17.5621 60.2157 20.9129 60.1445 25.333 59.8597C29.7531 59.5749 34.886 59.1476 40.732 58.578C46.7205 58.0084 53.1368 57.3675 59.9809 56.6555C66.8249 55.801 73.7403 54.8754 80.727 53.8785V29.3129C80.727 24.1862 80.5132 19.9852 80.0854 16.7098C79.8002 13.2919 79.3725 10.4437 78.8021 8.16521C78.2318 5.74425 77.4475 3.75052 76.4494 2.18403C75.5939 0.617523 74.5245 -0.948976 73.2413 -2.51547C70.8174 -5.36365 69.1777 -7.7134 68.3222 -9.56472C67.6093 -11.5584 67.7518 -12.9825 68.7499 -13.837C69.8905 -14.8339 72.0293 -15.1899 75.1661 -14.9051C78.4456 -14.7626 82.8658 -13.9082 88.4266 -12.3417C93.9873 -10.7752 98.2649 -9.42231 101.259 -8.28304C104.253 -7.14377 106.321 -5.93329 107.462 -4.65161C108.745 -3.36992 109.173 -1.87463 108.745 -0.165728C108.46 1.54318 107.818 3.67932 106.82 6.24268C106.392 7.52436 105.964 8.94845 105.537 10.515C105.109 11.939 104.752 14.004 104.467 16.7098C104.182 19.2731 103.897 22.6909 103.612 26.9632C103.469 31.2355 103.398 36.7894 103.398 43.6251C103.398 44.7643 103.398 45.9036 103.398 47.0429C103.398 48.1821 103.327 49.3926 103.184 50.6743C112.737 49.2502 120.223 48.0397 125.641 47.0429C131.202 46.046 135.836 45.1203 139.543 44.2659C144.676 42.9842 148.954 42.1298 152.376 41.7025C155.798 41.2753 158.792 41.2753 161.358 41.7025C163.925 41.9873 166.206 42.6994 168.202 43.8387C170.341 44.8355 172.623 46.1884 175.047 47.8973Z" fill="black"/>
<path fill-rule="evenodd" clip-rule="evenodd" d="M179.66 41.3639L179.667 41.3688C183.86 44.338 187.468 47.4584 189.839 50.7735C192.186 54.0562 194.258 58.9841 192.105 64.3045C189.857 70.0854 184.212 71.941 180.391 72.5623C176.204 73.2431 171.05 73.0279 165.323 72.2892C163.069 72.0423 159.771 71.8394 155.331 71.7009L155.207 71.697L155.083 71.6892C150.72 71.4169 145.758 71.2775 140.182 71.2775C134.756 71.2775 128.887 71.4165 122.571 71.6969L122.482 71.7008L122.394 71.7028C118.622 71.7865 114.877 71.9203 111.158 72.1042C111.126 77.2016 111.063 82.3303 110.967 87.4901C110.967 95.0234 110.896 101.532 110.752 107.004C110.608 120.018 110.178 131.136 109.45 140.322C108.851 149.697 107.498 158.223 105.323 165.839C103.932 170.878 102.483 175.138 100.903 178.247C100.131 179.766 99.0789 181.519 97.6148 182.958C96.1638 184.385 93.2787 186.449 89.2926 185.918C85.6957 185.439 83.4801 183.117 82.4106 181.723C81.2469 180.206 80.4036 178.45 79.7604 176.833C78.4536 173.547 77.3258 169.151 76.2977 163.944L76.2792 163.85L76.2628 163.755C75.5075 159.379 74.9111 154.675 74.467 149.65C74.0246 144.787 73.7303 139.857 73.5831 134.86L73.5828 134.848L73.5824 134.835C73.2962 123.972 73.0817 112.683 72.9387 100.971C72.8347 92.4556 72.7685 84.0898 72.7402 75.8738C67.4203 76.6606 62.3774 77.5036 57.6099 78.402L57.5381 78.4155L57.4661 78.4278C50.1095 79.6755 43.9331 81.0391 38.8876 82.4979L38.8742 82.5018L38.8609 82.5056C35.7736 83.3866 33.0908 84.0794 30.8542 84.558L30.6258 84.6069L30.3949 84.6424C27.942 85.0193 25.4751 85.115 23.0063 84.9253L22.654 84.8982L22.3055 84.8402C19.6756 84.4024 17.0413 83.4782 14.4649 82.2773C11.8908 81.0776 8.93322 79.3847 5.65573 77.3022C1.93882 74.9719 -1.15141 72.8226 -3.30169 70.9084C-4.3262 69.9964 -5.58663 68.7494 -6.52023 67.2213C-7.28497 65.9695 -9.2451 62.1121 -6.89852 57.8934M-6.89852 57.8934C-5.91011 56.1165 -4.53162 55.0752 -3.61759 54.5148C-2.6671 53.932 -1.72973 53.5705 -0.999488 53.3364C0.450725 52.8715 2.0407 52.6114 3.52907 52.4439C6.56848 52.1019 10.5872 52.0014 15.399 52.0742L15.5879 52.0771L15.7764 52.0889C17.539 52.1989 20.4826 52.1555 24.8158 51.8763C29.1259 51.5985 34.1683 51.1794 39.9534 50.6157L39.9625 50.6148L39.9717 50.614C45.9099 50.0491 52.2754 49.4135 59.0686 48.707C63.5884 48.1423 68.1403 47.5464 72.7242 46.919V29.313C72.7242 24.366 72.5155 20.5446 72.15 17.7457L72.1258 17.5608L72.1103 17.375C71.8463 14.2109 71.4684 11.8241 71.0388 10.1078L71.0253 10.0538L71.0125 9.99969C70.5827 8.1753 70.0829 7.08418 69.6998 6.48283L69.5548 6.25528L69.4255 6.01849C68.8462 4.95786 68.0815 3.81937 67.0933 2.60729C64.5431 -0.39504 62.3639 -3.38143 61.0573 -6.20883L60.9071 -6.53388L60.7866 -6.87105C59.7339 -9.81469 58.646 -15.6929 63.5146 -19.8885C65.5785 -21.6785 67.9678 -22.4225 69.893 -22.743C71.8015 -23.0607 73.7868 -23.0521 75.7001 -22.8887C79.8559 -22.6839 84.9007 -21.6455 90.593 -20.042C96.2323 -18.4533 100.776 -17.0252 104.101 -15.7601L101.264 -8.30251L104.101 -15.7601C107.354 -14.5223 110.829 -12.8021 113.276 -10.146C116.278 -7.04729 117.552 -2.90156 116.585 1.4306C116.166 3.76825 115.366 6.31108 114.348 8.9501C113.993 10.025 113.627 11.2466 113.251 12.6223L113.225 12.7197L113.196 12.8164C112.984 13.5226 112.689 15.0028 112.42 17.5483L112.418 17.5713L112.415 17.5943C112.152 19.9644 111.879 23.2062 111.6 27.3625C111.481 31.0109 111.412 35.6588 111.398 41.325C116.534 40.5163 120.795 39.7998 124.191 39.175L124.209 39.1717L124.227 39.1684C129.678 38.1912 134.15 37.2967 137.674 36.4862C142.943 35.1726 147.538 34.2441 151.382 33.7642C155.257 33.2804 158.985 33.2256 162.454 33.7761C165.778 34.1696 168.953 35.1164 171.863 36.7214C174.433 37.9436 177.032 39.5107 179.653 41.3589L179.66 41.3639M168.2 43.8387C166.203 42.6994 163.922 41.9874 161.356 41.7026C158.789 41.2753 155.795 41.2753 152.373 41.7026C148.951 42.1298 144.673 42.9842 139.54 44.2659C135.833 45.1204 131.199 46.046 125.638 47.0429C121.867 47.7368 117.093 48.5342 111.318 49.4352C108.797 49.8285 106.084 50.2415 103.181 50.6743C103.324 49.3926 103.395 48.1822 103.395 47.0429V43.6251C103.395 43.2642 103.395 42.907 103.396 42.5533C103.403 36.2066 103.474 31.01 103.609 26.9632C103.894 22.691 104.179 19.2731 104.465 16.7098C104.75 14.004 105.106 11.9391 105.534 10.515C105.962 8.94848 106.389 7.52439 106.817 6.24271C107.815 3.67935 108.457 1.54321 108.742 -0.165699C109.17 -1.8746 108.742 -3.36989 107.459 -4.65158C106.318 -5.93326 104.251 -7.14374 101.256 -8.28301C98.2621 -9.42229 93.9846 -10.7752 88.4238 -12.3417C82.863 -13.9082 78.4428 -14.7626 75.1634 -14.905C72.0265 -15.1898 69.8877 -14.8338 68.7471 -13.837C67.749 -12.9825 67.6065 -11.5584 68.3194 -9.56469C69.1749 -7.71337 70.8146 -5.36362 73.2385 -2.51544C74.5218 -0.948946 75.5912 0.617554 76.4467 2.18406C77.4448 3.75055 78.229 5.74428 78.7993 8.16524C79.3697 10.4438 79.7975 13.292 80.0826 16.7098C80.5104 19.9852 80.7242 24.1863 80.7242 29.313V53.8785C73.7376 54.8754 66.8222 55.8011 59.9781 56.6555C53.1341 57.3676 46.7178 58.0084 40.7292 58.578C34.8833 59.1477 29.7503 59.5749 25.3302 59.8597C20.9101 60.1445 17.5593 60.2157 15.278 60.0733C12.8059 60.0359 10.6339 60.0477 8.762 60.1085C8.39548 60.1204 8.04048 60.1342 7.69696 60.1499C3.11644 60.3591 0.581677 60.9032 0.0927048 61.7822C-0.453748 62.7646 1.34541 64.7092 5.49015 67.616C5.78101 67.82 6.08341 68.0287 6.39736 68.2422C7.44632 68.9553 8.62422 69.7214 9.93106 70.5404C13.0679 72.5341 15.7058 74.0294 17.8446 75.0263C19.9833 76.0231 21.9081 76.664 23.6191 76.9488C25.4727 77.0912 27.3263 77.02 29.1799 76.7352C31.1761 76.308 33.6713 75.6671 36.6656 74.8127C42.0838 73.2462 48.5714 71.8221 56.1284 70.5404C61.3536 69.5557 66.8857 68.6391 72.7244 67.7906C75.3299 67.412 77.9965 67.0469 80.7242 66.6954C80.7242 69.3674 80.7283 72.0559 80.7366 74.7609C80.7626 83.3008 80.8298 92.005 80.9381 100.874C81.0807 112.551 81.2945 123.801 81.5797 134.624C81.7222 139.466 82.0074 144.237 82.4351 148.937C82.8629 153.778 83.4333 158.264 84.1462 162.394C84.8755 166.088 85.6142 169.126 86.3624 171.508C86.3685 171.527 86.3745 171.547 86.3806 171.566C87.6748 175.667 88.9975 177.808 90.3486 177.988C91.7709 178.177 93.3194 176.131 94.9939 171.849C95.0008 171.831 95.0077 171.814 95.0146 171.796C95.8517 169.647 96.7203 166.941 97.6204 163.676C99.6166 156.698 100.9 148.723 101.47 139.751C102.183 130.779 102.611 119.814 102.753 106.855C102.896 101.443 102.967 94.9635 102.967 87.4159C103.11 79.7258 103.181 72.1069 103.181 64.5592C109.455 64.132 115.8 63.8472 122.216 63.7048C128.632 63.4199 134.621 63.2775 140.182 63.2775C145.885 63.2775 151.018 63.4199 155.581 63.7048C160.144 63.8472 163.708 64.0608 166.275 64.3456C177.254 65.7697 183.385 64.7728 184.668 61.355C186.094 57.9372 182.886 53.4513 175.044 47.8974C172.62 46.1884 170.338 44.8356 168.2 43.8387Z" fill="black"/>
<path d="M232.857 103.235C229.776 104.234 226.768 105.133 223.833 105.932C221.046 106.731 217.964 107.531 214.589 108.33C211.215 109.129 207.326 110.028 202.925 111.027C198.523 112.026 193.241 113.224 187.078 114.623C180.182 116.021 174.313 117.12 169.471 117.919C164.775 118.718 160.667 119.118 157.145 119.118C153.771 119.118 150.763 118.718 148.122 117.919C145.627 117.12 143.206 115.921 140.859 114.323C134.549 110.128 131.541 107.131 131.835 105.333C132.128 103.535 136.017 102.236 143.5 101.437C147.021 101.038 150.469 100.538 153.844 99.939C157.366 99.3396 161.034 98.6404 164.849 97.8413C168.81 96.8424 172.919 95.7436 177.174 94.5449C181.576 93.1465 186.344 91.4484 191.48 89.4506C198.376 86.8535 203.805 84.8557 207.767 83.4573C211.875 82.0588 215.25 81.2597 217.891 81.0599C220.532 80.8602 222.806 81.1598 224.714 81.959C226.768 82.7581 229.189 84.0566 231.977 85.8546C236.966 89.051 239.46 92.3474 239.46 95.7436C239.607 99.1398 237.406 101.637 232.857 103.235ZM227.135 139.573C231.83 144.567 233.664 148.862 232.637 152.458C231.757 156.054 227.795 157.952 220.752 158.152C215.617 158.352 210.628 158.652 205.786 159.051C201.091 159.251 196.395 159.85 191.7 160.849C182.163 163.047 174.679 164.745 169.251 165.943C163.822 166.942 159.566 167.542 156.485 167.741C153.551 167.941 151.35 167.642 149.882 166.842C148.415 166.043 146.948 164.845 145.481 163.246C140.052 157.453 137.631 153.857 138.218 152.458C138.804 150.86 141.959 149.961 147.682 149.761C150.469 149.761 154.064 149.362 158.466 148.563C163.015 147.764 167.637 146.765 172.332 145.566C177.027 144.367 181.576 143.069 185.978 141.67C190.379 140.272 193.901 138.973 196.542 137.775C203.878 134.379 209.821 132.78 214.369 132.98C218.918 133.18 223.173 135.377 227.135 139.573ZM277.316 195.688C283.918 206.077 286.266 212.769 284.359 215.766C282.598 218.762 276.729 219.162 266.751 216.964C261.029 215.766 255.673 214.767 250.685 213.968C245.696 213.169 240.194 212.769 234.178 212.769C228.162 212.569 221.192 212.669 213.269 213.069C205.346 213.468 195.662 214.168 184.217 215.166C177.761 215.766 171.305 216.565 164.849 217.564C158.393 218.363 152.303 219.362 146.581 220.561C140.859 221.559 135.65 222.658 130.955 223.857C126.406 225.055 122.811 226.154 120.17 227.153C117.089 228.352 114.521 229.151 112.467 229.551C110.413 230.15 108.432 230.15 106.524 229.551C104.764 229.151 102.783 228.152 100.582 226.554C98.5276 224.756 95.8865 222.259 92.6585 219.062C86.3492 212.869 83.488 208.873 84.0749 207.075C84.6618 205.078 89.3571 204.378 98.1608 204.978C100.215 205.178 103.223 205.178 107.185 204.978C111.146 204.778 114.668 204.478 117.749 204.079C132.128 202.081 145.701 200.183 158.466 198.385C171.378 196.587 183.043 194.889 193.461 193.291C204.025 191.693 213.196 190.294 220.972 189.095C228.895 187.697 235.058 186.498 239.46 185.499C245.476 184.301 250.464 183.602 254.426 183.402C258.388 183.202 261.763 183.502 264.55 184.301C267.338 185.1 269.686 186.498 271.593 188.496C273.501 190.294 275.408 192.691 277.316 195.688Z" fill="black"/>
</svg>
