<svg width="261" height="231" viewBox="0 0 261 231" fill="none" xmlns="http://www.w3.org/2000/svg">
<path d="M250.303 68.4994C247.703 71.2994 245.403 74.2994 243.403 77.4994C241.603 80.4994 239.903 84.0994 238.303 88.2994C236.703 92.4994 235.203 97.4994 233.803 103.299C232.403 108.899 230.903 115.799 229.303 123.999C227.703 131.999 226.203 138.799 224.803 144.399C223.603 149.999 222.403 154.799 221.203 158.799C220.003 162.799 218.803 166.199 217.603 168.999C216.603 171.599 215.503 173.899 214.303 175.899C209.103 184.699 204.403 191.399 200.203 195.999C196.003 200.399 192.303 202.999 189.103 203.799C186.103 204.799 183.503 204.099 181.303 201.699C179.303 199.299 177.903 195.599 177.103 190.599C176.103 185.199 175.103 180.999 174.103 177.999C173.303 174.799 172.203 172.399 170.803 170.799C169.603 168.999 168.103 167.899 166.303 167.499C164.503 166.899 162.203 166.499 159.403 166.299C157.203 166.099 153.303 166.199 147.703 166.599C142.103 166.999 135.803 167.599 128.803 168.399C122.003 168.999 115.103 169.799 108.103 170.799C101.103 171.599 95.2031 172.399 90.4031 173.199C82.0031 174.599 75.3031 175.399 70.3031 175.599C65.3031 175.799 60.2032 175.399 55.0032 174.399C54.0032 179.799 52.5031 183.499 50.5031 185.499C48.5031 187.499 46.8031 188.499 45.4031 188.499C43.6031 188.499 41.8031 187.699 40.0031 186.099C38.4031 184.499 36.9031 182.499 35.5031 180.099C34.3031 177.499 33.2031 174.599 32.2031 171.399C31.2031 167.999 30.6031 164.499 30.4031 160.899C29.2031 148.099 28.2031 137.799 27.4031 129.999C26.6031 122.199 25.8031 115.699 25.0031 110.499C24.2031 105.299 23.3031 100.799 22.3031 96.9994C21.5031 93.1994 20.5031 88.8994 19.3031 84.0994C17.9031 78.2994 16.3031 73.1994 14.5031 68.7994C12.9031 64.3994 11.0031 60.9994 8.80309 58.5994C4.20309 53.3994 2.80313 49.8994 4.60313 48.0994C6.60313 46.0994 13.4031 45.5994 25.0031 46.5994C29.4031 46.9994 32.8031 47.4994 35.2031 48.0994C37.6031 48.6994 39.5031 49.4994 40.9031 50.4994C57.1031 49.0994 72.3032 47.6994 86.5032 46.2994C100.703 44.6994 113.803 43.1994 125.803 41.7994C137.603 40.3994 147.303 39.1994 154.903 38.1994C162.503 37.1994 168.703 36.2994 173.503 35.4994C178.503 34.6994 182.503 33.8994 185.503 33.0994C188.503 32.0994 191.403 31.0994 194.203 30.0994C197.403 28.8994 200.203 27.9994 202.603 27.3994C205.203 26.7994 207.703 26.6994 210.103 27.0994C212.703 27.4994 215.603 28.4994 218.803 30.0994C222.203 31.4994 226.303 33.6994 231.103 36.6994C238.303 41.2994 243.803 44.9994 247.603 47.7994C251.603 50.5994 254.203 53.0994 255.403 55.2994C256.603 57.4994 256.603 59.5994 255.403 61.5994C254.403 63.5994 252.703 65.8994 250.303 68.4994ZM203.203 66.3994C203.603 60.5994 203.003 56.9994 201.403 55.5994C199.803 54.1994 195.903 53.3994 189.703 53.1994C186.903 52.9994 181.503 53.1994 173.503 53.7994C165.703 54.1994 156.503 54.7994 145.903 55.5994C150.303 57.3994 153.703 58.8994 156.103 60.0994C158.703 61.2994 160.403 62.4994 161.203 63.6994C162.003 64.6994 162.103 65.8994 161.503 67.2994C161.103 68.6994 160.203 70.5994 158.803 72.9994C156.803 76.3994 155.403 80.7994 154.603 86.1994C154.003 91.5994 154.203 96.4994 155.203 100.899C156.203 105.699 160.503 107.199 168.103 105.399C172.703 104.399 176.403 103.699 179.203 103.299C182.003 102.899 184.403 102.999 186.403 103.599C188.603 103.999 190.503 104.999 192.103 106.599C193.903 108.199 196.003 110.299 198.403 112.899C199.403 106.099 200.303 98.8994 201.103 91.2994C202.103 83.6994 202.803 75.3994 203.203 66.3994ZM82.3031 61.5994C75.9031 62.1994 69.7031 62.7994 63.7031 63.3994C57.7031 63.9994 52.2031 64.5994 47.2031 65.1994C47.8031 68.9994 48.4031 73.9994 49.0031 80.1994C49.8031 86.1994 50.5031 92.7994 51.1031 99.9994C51.9031 106.999 52.5031 114.199 52.9031 121.599C53.5031 128.999 54.0031 135.899 54.4031 142.299C60.8031 136.099 66.3031 129.299 70.9031 121.899C75.5031 114.499 78.9031 107.199 81.1031 99.9994C83.5031 91.7994 85.0031 84.8994 85.6031 79.2994C86.4031 73.4994 85.3031 67.5994 82.3031 61.5994ZM196.303 123.099C193.303 124.699 188.303 125.899 181.303 126.699C169.703 128.099 160.503 128.599 153.703 128.199C146.903 127.599 141.803 125.899 138.403 123.099C135.203 120.099 133.303 115.899 132.703 110.499C132.103 104.899 132.103 97.7994 132.703 89.1994C133.503 79.9994 133.703 73.0994 133.303 68.4994C132.903 63.6994 131.903 59.8994 130.303 57.0994C125.703 57.4994 121.003 57.8994 116.203 58.2994C111.403 58.6994 106.703 59.0994 102.103 59.4994C106.503 61.8994 109.903 63.9994 112.303 65.7994C114.903 67.5994 116.603 69.1994 117.403 70.5994C118.403 71.9994 118.703 73.3994 118.303 74.7994C118.103 76.1994 117.403 77.6994 116.203 79.2994C114.003 82.4994 112.003 85.7994 110.203 89.1994C108.403 92.3994 106.703 96.6994 105.103 102.099C101.903 112.299 96.0032 121.499 87.4032 129.699C79.0032 137.899 68.2032 144.299 55.0032 148.899C55.4032 151.299 55.6031 153.499 55.6031 155.499C55.6031 157.299 55.6031 159.199 55.6031 161.199C71.0031 159.599 85.9031 157.799 100.303 155.799C114.703 153.599 130.003 151.099 146.203 148.299C151.803 147.299 156.303 146.699 159.703 146.499C163.103 146.099 165.903 146.199 168.103 146.799C170.503 147.399 172.503 148.499 174.103 150.099C175.703 151.499 177.503 153.599 179.503 156.399C182.303 156.399 184.403 156.099 185.803 155.499C187.403 154.899 188.603 153.399 189.403 150.999C190.803 146.599 192.003 142.199 193.003 137.799C194.203 133.199 195.303 128.299 196.303 123.099Z" fill="black"/>
<path fill-rule="evenodd" clip-rule="evenodd" d="M253.239 71.2125L253.23 71.2212C250.809 73.8288 248.67 76.6173 246.811 79.5883C245.167 82.3334 243.57 85.7 242.037 89.7234C240.513 93.7233 239.06 98.553 237.688 104.238L237.684 104.254L237.68 104.27C236.302 109.779 234.817 116.607 233.225 124.765L233.223 124.775L233.222 124.784C231.62 132.792 230.112 139.636 228.696 145.304C227.486 150.945 226.266 155.833 225.031 159.949C223.811 164.013 222.572 167.541 221.306 170.506C220.247 173.248 219.061 175.735 217.736 177.945C212.476 186.847 207.617 193.808 203.153 198.696L203.123 198.729L203.093 198.761C198.797 203.262 194.496 206.523 190.218 207.642C188.15 208.306 185.992 208.461 183.859 207.887C181.685 207.302 179.856 206.044 178.351 204.402L178.287 204.333L178.226 204.26C175.572 201.074 174.009 196.573 173.157 191.28C172.174 185.974 171.216 181.999 170.305 179.264L170.256 179.119L170.219 178.97C169.496 176.078 168.603 174.364 167.789 173.433L167.616 173.236L167.471 173.018C166.737 171.917 166.052 171.542 165.432 171.404L165.23 171.359L165.034 171.294C163.664 170.837 161.724 170.476 159.114 170.289L159.076 170.286L159.037 170.283C157.2 170.116 153.598 170.188 147.984 170.589C142.453 170.984 136.211 171.578 129.254 172.374L129.202 172.379L129.151 172.384C122.425 172.977 115.596 173.769 108.665 174.759L108.609 174.767L108.554 174.774C101.594 175.569 95.7669 176.36 91.0569 177.145C82.5891 178.556 75.7016 179.387 70.4592 179.596C66.379 179.759 62.25 179.547 58.075 178.964C57.0314 182.852 55.5347 186.121 53.3278 188.328C51.2384 190.417 48.5257 192.499 45.3994 192.499C42.3292 192.499 39.6232 191.117 37.3419 189.089L37.254 189.011L37.1709 188.928C35.2802 187.037 33.5796 184.747 32.0442 182.115L31.9477 181.949L31.8675 181.776C30.5841 178.995 29.4245 175.93 28.3814 172.592L28.3714 172.56L28.3619 172.528C27.2807 168.852 26.6309 165.073 26.4099 161.199C25.2135 148.438 24.217 138.176 23.4202 130.408C22.6241 122.645 21.832 116.218 21.0458 111.108C20.2605 106.003 19.3859 101.646 18.431 98.0174L18.4057 97.921L18.3851 97.8234C17.5977 94.0834 16.6097 89.8334 15.4187 85.0695L15.4148 85.0538L15.411 85.038C14.047 79.3872 12.5042 74.4868 10.7971 70.3139L10.7672 70.2407L10.7402 70.1664C9.24747 66.0615 7.57572 63.1841 5.8507 61.3023L5.82679 61.2762L5.80333 61.2497C3.41033 58.5446 1.544 55.9564 0.585427 53.5599C-0.379013 51.1488 -0.777895 47.8198 1.77094 45.271L4.59937 48.0994C2.79937 49.8994 4.19932 53.3994 8.79932 58.5994C10.9993 60.9994 12.8993 64.3994 14.4993 68.7994C16.2993 73.1994 17.8993 78.2994 19.2993 84.0994C20.4993 88.8994 21.4993 93.1994 22.2993 96.9994C23.2993 100.799 24.1993 105.299 24.9993 110.499C25.7993 115.699 26.5994 122.199 27.3994 129.999C28.1994 137.799 29.1994 148.099 30.3994 160.899C30.5994 164.499 31.1993 167.999 32.1993 171.399C33.1993 174.599 34.2993 177.499 35.4993 180.099C36.8993 182.499 38.3993 184.499 39.9993 186.099C41.7993 187.699 43.5994 188.499 45.3994 188.499C46.7994 188.499 48.4993 187.499 50.4993 185.499C52.4063 183.592 53.8588 180.14 54.8566 175.142C54.9053 174.898 54.9529 174.651 54.9994 174.399C55.3305 174.463 55.6613 174.524 55.9916 174.583C60.8485 175.448 65.6177 175.787 70.2993 175.599C75.2993 175.399 81.9993 174.599 90.3993 173.199C95.1993 172.399 101.099 171.599 108.099 170.799C115.099 169.799 121.999 168.999 128.799 168.399C135.799 167.599 142.099 166.999 147.699 166.599C153.299 166.199 157.199 166.099 159.399 166.299C162.199 166.499 164.499 166.899 166.299 167.499C168.099 167.899 169.599 168.999 170.799 170.799C172.199 172.399 173.299 174.799 174.099 177.999C175.099 180.999 176.099 185.199 177.099 190.599C177.899 195.599 179.299 199.299 181.299 201.699C183.499 204.099 186.099 204.799 189.099 203.799C192.299 202.999 195.999 200.399 200.199 195.999C204.399 191.399 209.099 184.699 214.299 175.899C215.499 173.899 216.599 171.599 217.599 168.999C218.799 166.199 219.999 162.799 221.199 158.799C222.399 154.799 223.599 149.999 224.799 144.399C226.199 138.799 227.699 131.999 229.299 123.999C230.899 115.799 232.399 108.899 233.799 103.299C235.199 97.4994 236.699 92.4994 238.299 88.2994C239.899 84.0994 241.599 80.4994 243.399 77.4994C245.399 74.2994 247.699 71.2994 250.299 68.4994C252.699 65.8994 254.399 63.5994 255.399 61.5994C256.599 59.5994 256.599 57.4994 255.399 55.2994C254.199 53.0994 251.599 50.5994 247.599 47.7994C243.799 44.9994 238.299 41.2994 231.099 36.6994C226.299 33.6994 222.199 31.4994 218.799 30.0994C215.599 28.4994 212.699 27.4994 210.099 27.0994C207.699 26.6994 205.199 26.7994 202.599 27.3994C200.199 27.9994 197.399 28.8994 194.199 30.0994C191.399 31.0994 188.499 32.0994 185.499 33.0994C182.499 33.8994 178.499 34.6994 173.499 35.4994C168.699 36.2994 162.499 37.1994 154.899 38.1994C147.299 39.1994 137.599 40.3994 125.799 41.7994C113.799 43.1994 100.699 44.6994 86.4994 46.2994C72.2994 47.6994 57.0994 49.0994 40.8994 50.4994C39.4994 49.4994 37.5993 48.6994 35.1993 48.0994C32.7993 47.4994 29.3993 46.9994 24.9993 46.5994C13.3993 45.5994 6.59937 46.0994 4.59937 48.0994L1.77094 45.271C2.96337 44.0785 4.51291 43.4287 5.90625 43.0329C7.3608 42.6197 9.05337 42.3714 10.906 42.2352C14.6149 41.9625 19.4568 42.1068 25.3429 42.6142L25.3522 42.615L25.3615 42.6158C29.8339 43.0224 33.4726 43.5446 36.1695 44.2188C38.2765 44.7456 40.2162 45.4504 41.8927 46.3985C57.5678 45.0392 72.2965 43.6802 86.0792 42.3214C100.263 40.7233 113.347 39.2251 125.332 37.8268C137.121 36.428 146.802 35.2304 154.378 34.2336C161.955 33.2366 168.105 32.3433 172.842 31.5538L172.855 31.5517L172.867 31.5496C177.738 30.7704 181.55 30.0059 184.352 29.2653C187.275 28.2904 190.099 27.3162 192.825 26.3429C196.105 25.1135 199.046 24.1645 201.629 23.5188L201.665 23.51L201.7 23.5018C204.753 22.7973 207.775 22.6604 210.732 23.1497C213.814 23.6273 217.066 24.773 220.458 26.4566C224.114 27.9755 228.379 30.2821 233.219 33.3074L233.236 33.3179L233.253 33.3286C240.454 37.9295 246.028 41.6757 249.933 44.5505C254.028 47.4211 257.255 50.3485 258.911 53.384C260.703 56.6702 260.82 60.2343 258.911 63.5187C257.671 65.9535 255.719 68.5249 253.239 71.2125ZM199.205 66.173L199.209 66.1242C199.398 63.3754 199.331 61.3728 199.104 60.007C198.951 59.0897 198.764 58.6909 198.702 58.5708C198.517 58.465 197.897 58.1604 196.471 57.8678C194.83 57.5312 192.554 57.2936 189.57 57.1973L189.492 57.1948L189.414 57.1892C186.952 57.0133 181.837 57.1853 173.799 57.7882L173.751 57.7917L173.704 57.7941C169.952 57.9866 165.87 58.2257 161.459 58.5117C162.647 59.3291 163.678 60.2601 164.431 61.3385C166.175 63.6215 166.205 66.2868 165.277 68.6299C164.715 70.4723 163.641 72.6376 162.254 75.0149L162.251 75.0212L162.247 75.0275C160.595 77.8357 159.32 81.6758 158.567 86.7135C158.016 91.7276 158.221 96.1455 159.1 100.013L159.108 100.048L159.115 100.084C159.355 101.236 159.786 101.601 160.492 101.848C161.572 102.225 163.651 102.342 167.178 101.507L167.214 101.499L167.25 101.491C171.891 100.482 175.697 99.7591 178.634 99.3396C181.732 98.897 184.674 98.9501 187.334 99.7053C190.213 100.271 192.742 101.618 194.84 103.684C195.072 103.891 195.307 104.105 195.547 104.325C196.109 99.9965 196.634 95.5151 197.121 90.8807L197.127 90.829L197.134 90.7776C198.116 83.3095 198.808 75.126 199.203 66.2218L199.205 66.173ZM199.116 107.831C198.883 109.545 198.644 111.234 198.399 112.899C197.146 111.541 195.974 110.32 194.885 109.235C193.888 108.242 192.959 107.364 192.099 106.599C190.499 104.999 188.599 103.999 186.399 103.599C184.399 102.999 181.999 102.899 179.199 103.299C176.399 103.699 172.699 104.399 168.099 105.399C160.499 107.199 156.199 105.699 155.199 100.899C154.199 96.4994 153.999 91.5994 154.599 86.1994C155.399 80.7994 156.799 76.3994 158.799 72.9994C160.199 70.5994 161.099 68.6994 161.499 67.2994C162.099 65.8994 161.999 64.6994 161.199 63.6994C160.399 62.4994 158.699 61.2994 156.099 60.0994C155.431 59.7653 154.686 59.408 153.862 59.0274C151.729 58.0409 149.074 56.8983 145.899 55.5994C148.912 55.372 151.812 55.1608 154.598 54.9657C161.616 54.4745 167.916 54.0857 173.499 53.7994C181.499 53.1994 186.899 52.9994 189.699 53.1994C195.899 53.3994 199.799 54.1994 201.399 55.5994C202.999 56.9994 203.599 60.5994 203.199 66.3994C202.799 75.3994 202.099 83.6994 201.099 91.2994C200.495 97.0381 199.834 102.549 199.116 107.831ZM185.799 155.499C184.399 156.099 182.299 156.399 179.499 156.399C177.499 153.599 175.699 151.499 174.099 150.099C172.499 148.499 170.499 147.399 168.099 146.799C165.899 146.199 163.099 146.099 159.699 146.499C156.299 146.699 151.799 147.299 146.199 148.299C129.999 151.099 114.699 153.599 100.299 155.799C87.1496 157.626 73.583 159.285 59.5994 160.778C58.2698 160.92 56.9365 161.06 55.5994 161.199V155.499C55.5994 153.499 55.3994 151.299 54.9994 148.899C68.1994 144.299 78.9994 137.899 87.3994 129.699C95.9994 121.499 101.899 112.299 105.099 102.099C106.699 96.6994 108.399 92.3994 110.199 89.1994C111.999 85.7994 113.999 82.4994 116.199 79.2994C117.399 77.6994 118.099 76.1994 118.299 74.7994C118.699 73.3994 118.399 71.9994 117.399 70.5994C116.599 69.1994 114.899 67.5994 112.299 65.7994C111.145 64.9335 109.759 63.9982 108.142 62.9935C106.397 61.9096 104.383 60.7449 102.099 59.4994C104.411 59.2984 106.747 59.0974 109.109 58.8965C111.448 58.6974 113.811 58.4984 116.199 58.2994C120.999 57.8994 125.699 57.4994 130.299 57.0994C131.899 59.8994 132.899 63.6994 133.299 68.4994C133.699 73.0994 133.499 79.9994 132.699 89.1994C132.099 97.7994 132.099 104.899 132.699 110.499C133.299 115.899 135.199 120.099 138.399 123.099C141.799 125.899 146.899 127.599 153.699 128.199C160.499 128.599 169.699 128.099 181.299 126.699C185.576 126.211 189.106 125.573 191.89 124.785C193.662 124.284 195.132 123.722 196.299 123.099C195.987 124.721 195.666 126.314 195.334 127.878C194.603 131.327 193.825 134.634 192.999 137.799C191.999 142.199 190.799 146.599 189.399 150.999C188.599 153.399 187.399 154.899 185.799 155.499ZM185.596 149.759C186.959 145.473 188.127 141.191 189.099 136.913L189.113 136.851L189.129 136.79C189.769 134.335 190.381 131.79 190.965 129.152C188.273 129.784 185.187 130.281 181.766 130.672C170.077 132.082 160.61 132.613 153.464 132.192L153.406 132.189L153.348 132.184C146.154 131.549 140.136 129.711 135.857 126.187L135.757 126.105L135.664 126.018C131.614 122.221 129.403 117.054 128.724 110.941L128.723 110.933L128.722 110.926C128.088 105.003 128.1 97.6464 128.709 88.921L128.711 88.8869L128.714 88.8529C129.51 79.7032 129.683 73.0866 129.314 68.8459L129.314 68.8387L129.313 68.8316C129.054 65.7252 128.537 63.253 127.844 61.327C124.137 61.6465 120.366 61.966 116.532 62.2856C115.854 62.342 115.179 62.3985 114.506 62.4549C114.55 62.4879 114.594 62.5208 114.638 62.5537C117.246 64.3652 119.493 66.3118 120.767 68.4358C122.204 70.5222 122.878 73.0045 122.218 75.627C121.854 77.7843 120.816 79.7942 119.452 81.6293C117.355 84.6837 115.45 87.8308 113.734 91.0709L113.711 91.116L113.686 91.1604C112.088 94.0001 110.489 97.9878 108.935 103.236L108.925 103.266L108.916 103.297C105.493 114.206 99.2019 123.968 90.1766 132.578C81.964 140.59 71.668 146.895 59.3918 151.557C59.5289 152.92 59.5994 154.235 59.5994 155.499V156.755C73.3839 155.28 86.758 153.641 99.7221 151.841C114.082 149.647 129.343 147.153 145.506 144.36C151.109 143.36 155.741 142.733 159.348 142.513C162.964 142.097 166.272 142.163 169.11 142.929C172.084 143.679 174.699 145.078 176.831 147.175C178.332 148.505 179.878 150.247 181.471 152.334C182.893 152.23 183.763 152.02 184.224 151.823L184.308 151.786L184.395 151.754C184.416 151.746 184.999 151.538 185.596 149.759ZM81.6286 78.8129L81.6369 78.7528C82.2076 74.6153 81.6532 70.3334 79.8361 65.8491C74.4445 66.3593 69.1983 66.8695 64.0974 67.3795C59.7063 67.8187 55.5878 68.2574 51.7413 68.6957C52.1553 71.8473 52.5658 75.5324 52.9738 79.7423C53.7777 85.7824 54.4795 92.4048 55.0805 99.6063C55.8846 106.653 56.4876 113.895 56.8905 121.33C57.2158 125.343 57.5118 129.211 57.7786 132.934C61.3882 128.792 64.6285 124.41 67.5022 119.788C71.9423 112.645 75.1826 105.667 77.2671 98.853C79.6268 90.7874 81.0573 84.1446 81.6221 78.8733L81.6286 78.8129ZM81.0994 99.9994C78.8994 107.199 75.4993 114.499 70.8993 121.899C67.2269 127.807 62.9809 133.333 58.1612 138.476C56.9438 139.775 55.6899 141.049 54.3993 142.299C54.291 140.566 54.1753 138.796 54.0523 136.99C53.7211 132.126 53.3368 126.995 52.8993 121.599C52.4993 114.199 51.8994 106.999 51.0994 99.9994C50.4994 92.7994 49.7993 86.1994 48.9993 80.1994C48.5889 75.958 48.1784 72.2781 47.768 69.1599C47.5784 67.72 47.3889 66.3998 47.1993 65.1994C48.4913 65.0444 49.8166 64.8893 51.1754 64.7343C55.075 64.2893 59.2497 63.8444 63.6993 63.3994C69.6993 62.7994 75.8993 62.1994 82.2993 61.5994C85.2993 67.5994 86.3994 73.4994 85.5994 79.2994C84.9994 84.8994 83.4994 91.7994 81.0994 99.9994Z" fill="black"/>
</svg>
