<svg width="260" height="230" viewBox="0 0 260 230" fill="none" xmlns="http://www.w3.org/2000/svg">
<path d="M167.047 81.8973C174.889 87.4513 178.097 91.9372 176.671 95.355C175.388 98.7728 169.257 99.7696 158.278 98.3456C155.711 98.0607 152.146 97.8471 147.584 97.7047C143.021 97.4199 137.888 97.2775 132.185 97.2775C126.624 97.2775 120.635 97.4199 114.219 97.7047C107.803 97.8471 101.458 98.132 95.184 98.5592C95.184 106.107 95.1127 113.726 94.9701 121.416C94.9701 128.964 94.8987 135.443 94.7562 140.855C94.6136 153.814 94.186 164.779 93.473 173.751C92.9027 182.723 91.6194 190.698 89.6232 197.676C86.9141 207.502 84.4902 212.273 82.3514 211.988C80.2126 211.703 78.1452 206.505 76.149 196.394C75.4361 192.264 74.8657 187.778 74.4379 182.937C74.0102 178.237 73.725 173.466 73.5824 168.624C73.2973 157.801 73.0835 146.551 72.9409 134.873C72.7983 123.196 72.727 111.803 72.727 100.695C63.8867 101.835 55.6881 103.116 48.1312 104.54C40.5742 105.822 34.0866 107.246 28.6684 108.813C25.6741 109.667 23.1789 110.308 21.1827 110.735C19.3291 111.02 17.4755 111.091 15.6219 110.949C13.9109 110.664 11.9861 110.023 9.84733 109.026C7.70856 108.029 5.07069 106.534 1.93383 104.54C-5.33797 99.9833 -8.61744 97.0639 -7.90452 95.7822C-7.1916 94.5005 -2.12982 93.9309 7.28074 94.0733C9.56209 94.2157 12.9129 94.1445 17.333 93.8597C21.7531 93.5749 26.886 93.1476 32.732 92.578C38.7205 92.0084 45.1368 91.3675 51.9809 90.6555C58.8249 89.801 65.7403 88.8754 72.727 87.8785V63.3129C72.727 58.1862 72.5132 53.9852 72.0854 50.7098C71.8002 47.2919 71.3725 44.4437 70.8021 42.1652C70.2318 39.7442 69.4475 37.7505 68.4494 36.184C67.5939 34.6175 66.5245 33.051 65.2413 31.4845C62.8174 28.6364 61.1777 26.2866 60.3222 24.4353C59.6093 22.4416 59.7518 21.0175 60.7499 20.163C61.8905 19.1661 64.0293 18.8101 67.1661 19.0949C70.4456 19.2374 74.8658 20.0918 80.4266 21.6583C85.9873 23.2248 90.2649 24.5777 93.2591 25.717C96.2534 26.8562 98.3208 28.0667 99.4615 29.3484C100.745 30.6301 101.173 32.1254 100.745 33.8343C100.46 35.5432 99.8181 37.6793 98.82 40.2427C98.3922 41.5244 97.9644 42.9485 97.5367 44.515C97.1089 45.939 96.7525 48.004 96.4673 50.7098C96.1821 53.2731 95.897 56.6909 95.6118 60.9632C95.4692 65.2355 95.3979 70.7894 95.3979 77.6251C95.3979 78.7643 95.3979 79.9036 95.3979 81.0429C95.3979 82.1821 95.3266 83.3926 95.184 84.6743C104.737 83.2502 112.223 82.0397 117.641 81.0429C123.202 80.046 127.836 79.1203 131.543 78.2659C136.676 76.9842 140.954 76.1298 144.376 75.7025C147.798 75.2753 150.792 75.2753 153.358 75.7025C155.925 75.9873 158.206 76.6994 160.202 77.8387C162.341 78.8355 164.623 80.1884 167.047 81.8973Z" fill="black"/>
<path fill-rule="evenodd" clip-rule="evenodd" d="M171.66 75.3639L171.667 75.3688C175.86 78.338 179.468 81.4584 181.839 84.7735C184.186 88.0562 186.258 92.9841 184.105 98.3045C181.857 104.085 176.212 105.941 172.391 106.562C168.204 107.243 163.05 107.028 157.323 106.289C155.069 106.042 151.771 105.839 147.331 105.701L147.207 105.697L147.083 105.689C142.72 105.417 137.758 105.278 132.182 105.278C126.756 105.278 120.887 105.417 114.571 105.697L114.482 105.701L114.394 105.703C110.622 105.786 106.877 105.92 103.158 106.104C103.126 111.202 103.063 116.33 102.967 121.49C102.967 129.023 102.896 135.532 102.752 141.004C102.608 154.018 102.178 165.136 101.45 174.322C100.851 183.697 99.4977 192.223 97.3226 199.839C95.9319 204.878 94.4828 209.138 92.9028 212.247C92.1313 213.766 91.0789 215.519 89.6148 216.958C88.1638 218.385 85.2787 220.449 81.2926 219.918C77.6957 219.439 75.4801 217.117 74.4106 215.723C73.2469 214.206 72.4036 212.45 71.7604 210.833C70.4536 207.547 69.3258 203.151 68.2977 197.944L68.2792 197.85L68.2628 197.755C67.5075 193.379 66.9111 188.675 66.467 183.65C66.0246 178.787 65.7303 173.857 65.5831 168.86L65.5828 168.848L65.5824 168.835C65.2962 157.972 65.0817 146.683 64.9387 134.971C64.8347 126.456 64.7685 118.09 64.7402 109.874C59.4203 110.661 54.3774 111.504 49.6099 112.402L49.5381 112.416L49.4661 112.428C42.1095 113.675 35.9331 115.039 30.8876 116.498L30.8742 116.502L30.8609 116.506C27.7736 117.387 25.0908 118.079 22.8542 118.558L22.6258 118.607L22.3949 118.642C19.942 119.019 17.4751 119.115 15.0063 118.925L14.654 118.898L14.3055 118.84C11.6756 118.402 9.04134 117.478 6.46489 116.277C3.89085 115.078 0.933222 113.385 -2.34427 111.302C-6.06118 108.972 -9.15141 106.823 -11.3017 104.908C-12.3262 103.996 -13.5866 102.749 -14.5202 101.221C-15.285 99.9695 -17.2451 96.1121 -14.8985 91.8934M-14.8985 91.8934C-13.9101 90.1165 -12.5316 89.0752 -11.6176 88.5148C-10.6671 87.932 -9.72973 87.5705 -8.99949 87.3364C-7.54928 86.8715 -5.9593 86.6114 -4.47093 86.4439C-1.43152 86.1019 2.58718 86.0014 7.39902 86.0742L7.58788 86.0771L7.77639 86.0889C9.53896 86.1989 12.4826 86.1555 16.8158 85.8763C21.1259 85.5985 26.1683 85.1794 31.9534 84.6157L31.9625 84.6148L31.9717 84.614C37.9099 84.0491 44.2754 83.4135 51.0686 82.707C55.5884 82.1423 60.1403 81.5464 64.7242 80.919V63.313C64.7242 58.366 64.5155 54.5446 64.15 51.7457L64.1258 51.5608L64.1103 51.375C63.8463 48.2109 63.4684 45.8241 63.0388 44.1078L63.0253 44.0538L63.0125 43.9997C62.5827 42.1753 62.0829 41.0842 61.6998 40.4828L61.5548 40.2553L61.4255 40.0185C60.8462 38.9579 60.0815 37.8194 59.0933 36.6073C56.5431 33.605 54.3639 30.6186 53.0573 27.7912L52.9071 27.4661L52.7866 27.129C51.7339 24.1853 50.646 18.3071 55.5146 14.1115C57.5785 12.3215 59.9678 11.5775 61.893 11.257C63.8015 10.9393 65.7868 10.9479 67.7001 11.1113C71.8559 11.3161 76.9007 12.3545 82.593 13.958C88.2323 15.5467 92.7761 16.9748 96.1013 18.2399L93.2638 25.6975L96.1013 18.2399C99.3544 19.4777 102.829 21.1979 105.276 23.854C108.278 26.9527 109.552 31.0984 108.585 35.4306C108.166 37.7682 107.366 40.3111 106.348 42.9501C105.993 44.025 105.627 45.2466 105.251 46.6223L105.225 46.7197L105.196 46.8164C104.984 47.5226 104.689 49.0028 104.42 51.5483L104.418 51.5713L104.415 51.5943C104.152 53.9644 103.879 57.2062 103.6 61.3625C103.481 65.0109 103.412 69.6588 103.398 75.325C108.534 74.5163 112.795 73.7998 116.191 73.175L116.209 73.1717L116.227 73.1684C121.678 72.1912 126.15 71.2967 129.674 70.4862C134.943 69.1726 139.538 68.2441 143.382 67.7642C147.257 67.2804 150.985 67.2256 154.454 67.7761C157.778 68.1696 160.953 69.1164 163.863 70.7214C166.433 71.9436 169.032 73.5107 171.653 75.3589L171.66 75.3639M160.2 77.8387C158.203 76.6994 155.922 75.9874 153.356 75.7026C150.789 75.2753 147.795 75.2753 144.373 75.7026C140.951 76.1298 136.673 76.9842 131.54 78.2659C127.833 79.1204 123.199 80.046 117.638 81.0429C113.867 81.7368 109.093 82.5342 103.318 83.4352C100.797 83.8285 98.0845 84.2415 95.1812 84.6743C95.3238 83.3926 95.3951 82.1822 95.3951 81.0429V77.6251C95.3951 77.2642 95.3953 76.907 95.3957 76.5533C95.4029 70.2066 95.474 65.01 95.609 60.9632C95.8942 56.691 96.1794 53.2731 96.4645 50.7098C96.7497 48.004 97.1061 45.9391 97.5339 44.515C97.9617 42.9485 98.3894 41.5244 98.8172 40.2427C99.8153 37.6793 100.457 35.5432 100.742 33.8343C101.17 32.1254 100.742 30.6301 99.4587 29.3484C98.3181 28.0667 96.2506 26.8563 93.2564 25.717C90.2621 24.5777 85.9846 23.2248 80.4238 21.6583C74.863 20.0918 70.4428 19.2374 67.1634 19.095C64.0265 18.8102 61.8877 19.1662 60.7471 20.163C59.749 21.0175 59.6065 22.4416 60.3194 24.4353C61.1749 26.2866 62.8146 28.6364 65.2385 31.4846C66.5218 33.0511 67.5912 34.6176 68.4467 36.1841C69.4448 37.7506 70.229 39.7443 70.7993 42.1652C71.3697 44.4438 71.7975 47.292 72.0826 50.7098C72.5104 53.9852 72.7242 58.1863 72.7242 63.313V87.8785C65.7376 88.8754 58.8222 89.8011 51.9781 90.6555C45.1341 91.3676 38.7178 92.0084 32.7292 92.578C26.8833 93.1477 21.7503 93.5749 17.3302 93.8597C12.9101 94.1445 9.55932 94.2157 7.27797 94.0733C4.80588 94.0359 2.63389 94.0477 0.762005 94.1085C0.39548 94.1204 0.0404754 94.1342 -0.303038 94.1499C-4.88356 94.3591 -7.41832 94.9032 -7.9073 95.7822C-8.45375 96.7646 -6.65459 98.7092 -2.50985 101.616C-2.21899 101.82 -1.91659 102.029 -1.60264 102.242C-0.553679 102.955 0.624222 103.721 1.93106 104.54C5.06791 106.534 7.70579 108.029 9.84455 109.026C11.9833 110.023 13.9081 110.664 15.6191 110.949C17.4727 111.091 19.3263 111.02 21.1799 110.735C23.1761 110.308 25.6713 109.667 28.6656 108.813C34.0838 107.246 40.5714 105.822 48.1284 104.54C53.3536 103.556 58.8857 102.639 64.7244 101.791C67.3299 101.412 69.9965 101.047 72.7242 100.695C72.7242 103.367 72.7283 106.056 72.7366 108.761C72.7626 117.301 72.8298 126.005 72.9381 134.874C73.0807 146.551 73.2945 157.801 73.5797 168.624C73.7222 173.466 74.0074 178.237 74.4351 182.937C74.8629 187.778 75.4333 192.264 76.1462 196.394C76.8755 200.088 77.6142 203.126 78.3624 205.508C78.3685 205.527 78.3745 205.547 78.3806 205.566C79.6748 209.667 80.9975 211.808 82.3486 211.988C83.7709 212.177 85.3194 210.131 86.9939 205.849C87.0008 205.831 87.0077 205.814 87.0146 205.796C87.8517 203.647 88.7203 200.941 89.6204 197.676C91.6166 190.698 92.8999 182.723 93.4703 173.751C94.1832 164.779 94.6108 153.814 94.7534 140.855C94.896 135.443 94.9673 128.964 94.9673 121.416C95.1099 113.726 95.1812 106.107 95.1812 98.5592C101.455 98.132 107.8 97.8472 114.216 97.7048C120.632 97.4199 126.621 97.2775 132.182 97.2775C137.885 97.2775 143.018 97.4199 147.581 97.7048C152.144 97.8472 155.708 98.0608 158.275 98.3456C169.254 99.7697 175.385 98.7728 176.668 95.355C178.094 91.9372 174.886 87.4513 167.044 81.8974C164.62 80.1884 162.338 78.8356 160.2 77.8387Z" fill="black"/>
<path d="M259.127 129.624C265.385 138.986 267.912 145.759 266.709 149.942C265.505 153.925 260.27 155.22 251.004 153.826C241.737 152.432 232.169 151.934 222.301 152.332C212.433 152.531 201.421 153.726 189.266 155.917C182.767 156.913 177.231 157.909 172.658 158.905C168.205 159.702 164.234 160.598 160.744 161.594C157.374 162.391 154.305 163.287 151.537 164.283C148.89 165.08 146.122 166.076 143.233 167.271C139.021 169.064 135.17 169.462 131.68 168.466C128.31 167.271 124.64 163.686 120.668 157.71C118.622 154.722 117.118 152.232 116.155 150.24C115.193 148.249 114.832 146.755 115.072 145.759C115.313 144.563 116.276 143.767 117.961 143.368C119.645 142.97 122.173 142.771 125.542 142.771C128.671 142.771 131.319 142.771 133.485 142.771C135.772 142.771 137.878 142.771 139.803 142.771C141.729 142.572 143.655 142.372 145.58 142.173C147.506 141.974 149.792 141.675 152.44 141.277C161.105 139.882 169.348 138.389 177.171 136.795C184.994 135.201 192.094 133.708 198.472 132.313C204.851 130.72 210.326 129.325 214.9 128.13C219.473 126.736 222.843 125.541 225.009 124.545C233.192 121.158 239.932 119.665 245.227 120.063C250.522 120.461 255.156 123.648 259.127 129.624Z" fill="black"/>
<path fill-rule="evenodd" clip-rule="evenodd" d="M145.58 142.173C147.506 141.974 149.792 141.675 152.44 141.277C161.105 139.882 169.349 138.388 177.171 136.795C184.994 135.201 192.094 133.707 198.472 132.313C204.851 130.72 210.326 129.325 214.9 128.13C219.473 126.736 222.843 125.541 225.009 124.545C233.192 121.158 239.932 119.664 245.227 120.063C250.522 120.461 255.156 123.648 259.127 129.624C265.385 138.986 267.912 145.759 266.709 149.942C265.505 153.925 260.27 155.22 251.004 153.826C241.737 152.431 232.169 151.933 222.301 152.332C212.433 152.531 201.421 153.726 189.266 155.917C182.767 156.913 177.231 157.909 172.658 158.905C168.205 159.702 164.234 160.598 160.744 161.594C157.374 162.391 154.305 163.287 151.537 164.283C148.89 165.08 146.122 166.076 143.233 167.271C139.021 169.064 135.17 169.462 131.68 168.466C128.31 167.271 124.64 163.686 120.668 157.71C118.622 154.722 117.118 152.232 116.155 150.24C115.193 148.248 114.832 146.754 115.072 145.759C115.313 144.563 116.276 143.767 117.961 143.368C119.645 142.97 122.173 142.771 125.542 142.771H139.803L145.58 142.173ZM139.545 137.771L145.066 137.2C146.886 137.011 149.084 136.725 151.671 136.336C160.265 134.953 168.432 133.472 176.173 131.896C183.948 130.312 191 128.828 197.332 127.444C203.623 125.872 209.024 124.497 213.537 123.318C218.012 121.952 221.086 120.845 222.92 120.002L223.008 119.961L223.097 119.925C231.58 116.414 239.171 114.593 245.602 115.077C252.931 115.628 258.784 120.077 263.287 126.85C266.524 131.694 268.949 136.087 270.4 139.977C271.813 143.763 272.551 147.72 271.514 151.324L271.505 151.356L271.495 151.387C270.231 155.571 266.831 157.827 263.08 158.754C259.522 159.634 255.134 159.503 250.26 158.77C241.322 157.425 232.072 156.941 222.503 157.328L222.452 157.33L222.402 157.331C212.853 157.524 202.11 158.683 190.153 160.838L190.088 160.85L190.023 160.86C183.59 161.846 178.162 162.824 173.722 163.791L173.631 163.811L173.539 163.827C169.213 164.601 165.41 165.462 162.116 166.402L162.006 166.434L161.894 166.46C158.677 167.221 155.793 168.066 153.23 168.988L153.105 169.033L152.978 169.071C150.516 169.812 147.913 170.747 145.167 171.882C140.19 173.995 135.153 174.657 130.308 173.274L130.157 173.231L130.009 173.179C125.016 171.408 120.585 166.612 116.523 160.507C114.422 157.436 112.768 154.723 111.654 152.416C111.079 151.227 110.594 150.007 110.302 148.8C110.027 147.66 109.843 146.207 110.189 144.684C111.003 140.851 114.17 139.127 116.81 138.502C119.077 137.966 122.077 137.771 125.542 137.771H139.545Z" fill="black"/>
</svg>
