<svg width="261" height="231" viewBox="0 0 261 231" fill="none" xmlns="http://www.w3.org/2000/svg">
<path d="M259.997 186.301C264.397 189.701 267.197 193.101 268.397 196.501C269.797 199.701 269.697 202.501 268.097 204.901C266.497 207.101 263.497 208.701 259.097 209.701C254.697 210.501 248.897 210.301 241.697 209.101C236.497 208.301 229.197 207.601 219.797 207.001C210.597 206.201 200.597 205.701 189.797 205.501C179.197 205.101 168.597 204.901 157.997 204.901C147.597 204.901 138.697 205.101 131.297 205.501C105.897 207.101 86.0968 208.701 71.8968 210.301C57.8968 212.101 48.5969 213.801 43.9969 215.401C38.1969 217.401 33.3969 218.801 29.5969 219.601C25.9969 220.601 22.6969 221.001 19.6969 220.801C16.8969 220.601 14.1969 219.801 11.5969 218.401C9.1969 217.001 6.39688 215.101 3.19687 212.701C-5.80313 205.901 -9.80313 201.601 -8.80312 199.801C-7.80313 198.001 -2.0031 197.101 8.5969 197.101C10.3969 197.101 12.4968 197.101 14.8968 197.101C17.2968 196.901 20.7968 196.701 25.3968 196.501C29.9968 196.101 35.9968 195.701 43.3968 195.301C50.7968 194.701 60.3969 193.901 72.1969 192.901C75.9969 182.101 79.5969 171.001 82.9969 159.601C86.5969 148.001 89.6968 137.101 92.2969 126.901C87.0969 128.501 82.6969 129.601 79.0969 130.201C75.4969 130.801 72.2969 131.001 69.4969 130.801C66.8969 130.601 64.4968 130.101 62.2969 129.301C60.2968 128.301 58.1969 126.901 55.9969 125.101C47.5969 118.701 43.5969 114.601 43.9969 112.801C44.5969 110.801 50.1969 109.601 60.7969 109.201C66.5969 108.801 72.5969 108.401 78.7969 108.001C85.1969 107.401 91.5969 106.601 97.9969 105.601C99.9969 97.6006 101.597 90.7006 102.797 84.9006C104.197 79.1006 105.197 74.1006 105.797 69.9006C106.397 65.5006 106.697 61.6006 106.697 58.2006C106.897 54.8006 106.897 51.5006 106.697 48.3006C100.297 49.1006 94.9969 49.7006 90.7969 50.1006C86.7969 50.3006 83.2968 50.2006 80.2969 49.8006C77.4968 49.2006 74.7969 48.3006 72.1969 47.1006C69.7969 45.9006 67.0969 44.3006 64.0969 42.3006C58.8969 38.9006 56.4968 36.5006 56.8968 35.1006C57.4968 33.7006 61.3969 32.9006 68.5969 32.7006C73.7969 32.5006 79.6969 32.1006 86.2969 31.5006C93.0969 30.9006 100.097 30.1006 107.297 29.1006C114.497 27.9006 121.697 26.6006 128.897 25.2006C136.097 23.6006 142.997 21.9006 149.597 20.1006C159.197 17.5006 166.797 15.5006 172.397 14.1006C178.197 12.7006 182.797 11.9006 186.197 11.7006C189.797 11.5006 192.797 11.8006 195.197 12.6006C197.597 13.4006 200.297 14.7006 203.297 16.5006C212.097 21.7006 215.997 26.3006 214.997 30.3006C213.997 34.1006 208.797 36.4006 199.397 37.2006C189.597 38.0006 179.897 38.9006 170.297 39.9006C160.897 40.7006 150.497 41.9006 139.097 43.5006C142.897 46.1006 145.697 48.3006 147.497 50.1006C149.497 51.9006 150.597 53.7006 150.797 55.5006C151.197 57.1006 150.797 58.9006 149.597 60.9006C148.397 62.7006 146.497 64.9006 143.897 67.5006C142.497 68.9006 141.297 70.4006 140.297 72.0006C139.297 73.6006 138.297 75.6006 137.297 78.0006C136.297 80.4006 135.197 83.4006 133.997 87.0006C132.997 90.6006 131.797 95.0006 130.397 100.201C137.397 98.8006 142.997 97.5006 147.197 96.3006C151.397 94.9006 154.397 93.7006 156.197 92.7006C159.797 90.7006 162.697 89.2006 164.897 88.2006C167.297 87.0006 169.497 86.4006 171.497 86.4006C173.697 86.2006 175.997 86.5006 178.397 87.3006C180.797 88.1006 183.897 89.4006 187.697 91.2006C195.297 94.8006 201.097 97.8006 205.097 100.201C209.297 102.601 211.997 104.801 213.197 106.801C214.597 108.801 214.597 110.701 213.197 112.501C211.997 114.301 209.897 116.501 206.897 119.101C202.297 122.901 198.497 127.201 195.497 132.001C192.497 136.601 189.897 141.701 187.697 147.301C184.897 154.301 182.197 160.701 179.597 166.501C177.197 172.301 174.697 178.101 172.097 183.901C179.297 183.501 185.997 182.901 192.197 182.101C198.397 181.301 202.597 180.701 204.797 180.301C213.997 178.901 221.397 178.001 226.997 177.601C232.797 177.001 237.597 177.001 241.397 177.601C245.197 178.001 248.397 179.001 250.997 180.601C253.797 182.001 256.797 183.901 259.997 186.301ZM161.297 125.101C162.497 120.501 162.597 117.601 161.597 116.401C160.597 115.001 158.997 114.501 156.797 114.901C149.397 115.701 143.297 116.501 138.497 117.301C133.697 117.901 128.997 118.701 124.397 119.701C121.597 128.301 119.097 136.001 116.897 142.801C114.897 149.401 112.897 155.501 110.897 161.101C109.097 166.501 107.297 171.601 105.497 176.401C103.897 181.201 102.197 185.901 100.397 190.501C106.997 190.101 113.997 189.601 121.397 189.001C128.797 188.201 136.297 187.401 143.897 186.601C145.697 180.601 147.297 175.301 148.697 170.701C150.097 165.901 151.397 161.201 152.597 156.601C153.997 152.001 155.397 147.201 156.797 142.201C158.197 137.201 159.697 131.501 161.297 125.101Z" fill="black"/>
<path fill-rule="evenodd" clip-rule="evenodd" d="M263.029 182.322L263.058 182.344C267.778 185.992 271.375 190.059 273.053 194.663C274.9 198.995 274.979 203.596 272.261 207.674L272.204 207.759L272.144 207.842C269.492 211.488 265.066 213.472 260.209 214.576L260.102 214.601L259.995 214.62C254.79 215.566 248.353 215.276 240.91 214.038C235.929 213.273 228.811 212.586 219.482 211.991L219.425 211.987L219.367 211.982C210.298 211.193 200.413 210.698 189.708 210.5L189.66 210.499L189.612 210.497C179.075 210.099 168.538 209.901 158 209.901C147.669 209.901 138.871 210.099 131.593 210.492C106.256 212.088 86.5713 213.68 72.4989 215.265C58.4468 217.073 49.6716 218.722 45.6431 220.123L45.6304 220.128C39.8065 222.136 34.841 223.596 30.7846 224.461C26.8229 225.547 23.0011 226.032 19.3678 225.79L19.356 225.789L19.3442 225.788C15.8025 225.535 12.4194 224.52 9.22997 222.803L9.15483 222.763L9.08111 222.72C6.46026 221.191 3.49377 219.171 0.200439 216.701L0.193347 216.695L0.186274 216.69C-4.37554 213.243 -7.90648 210.258 -10.2105 207.781C-11.3387 206.568 -12.4074 205.232 -13.0988 203.826C-13.7223 202.558 -14.6248 199.991 -13.1703 197.372C-12.0659 195.384 -10.1727 194.44 -8.99472 193.972C-7.6535 193.44 -6.0925 193.087 -4.46623 192.835C-1.18724 192.326 3.21312 192.101 8.60046 192.101H14.695C17.1647 191.9 20.6366 191.704 25.0755 191.51C29.7231 191.108 35.7247 190.709 43.0632 190.312C49.758 189.769 58.2527 189.062 68.5486 188.192C71.9304 178.433 75.1506 168.426 78.209 158.172L78.217 158.145L78.2252 158.119C80.8341 149.712 83.1758 141.685 85.2515 134.036C83.3465 134.492 81.569 134.858 79.9225 135.133C76.0426 135.779 72.4348 136.023 69.1443 135.788L69.1306 135.787L69.117 135.786C66.1152 135.555 63.2638 134.971 60.5917 134L60.3215 133.901L60.0644 133.773C57.6805 132.581 55.2932 130.976 52.9026 129.026C48.6735 125.801 45.367 123.019 43.1216 120.717C42.0064 119.574 40.9886 118.385 40.2573 117.186C39.6584 116.205 38.5779 114.153 39.1196 111.716L39.159 111.538L39.2114 111.364C39.9441 108.921 41.8821 107.633 43.0947 107.008C44.4335 106.317 46.0087 105.853 47.6028 105.512C50.8143 104.823 55.1799 104.412 60.5336 104.207C66.2947 103.81 72.252 103.413 78.4056 103.016C83.5866 102.529 88.7683 101.909 93.9509 101.155C95.5688 94.5651 96.8854 88.8115 97.9041 83.8876L97.9207 83.8072L97.94 83.7274C99.3147 78.0323 100.277 73.201 100.848 69.2092C101.425 64.9762 101.7 61.3146 101.7 58.2006V58.0537L101.709 57.907C101.788 56.5613 101.834 55.2355 101.847 53.9294C97.7918 54.4099 94.2662 54.7932 91.2745 55.0781L91.1625 55.0888L91.0501 55.0944C86.8372 55.3051 83.0199 55.2075 79.6396 54.7568L79.4449 54.7308L79.2528 54.6897C76.0917 54.0123 73.0404 52.9952 70.1051 51.6404L70.0342 51.6077L69.9644 51.5728C67.3336 50.2574 64.4565 48.5464 61.3456 46.4733C58.6611 44.7171 56.4275 43.0488 54.8649 41.4862C54.0905 40.7118 53.2799 39.7672 52.7008 38.6669C52.1326 37.5873 51.5024 35.7934 52.0928 33.727L52.1798 33.4223L52.3047 33.1311C53.1483 31.1625 54.7802 30.1567 55.7731 29.6712C56.8685 29.1357 58.0948 28.7938 59.2707 28.5526C61.6415 28.0663 64.7482 27.8066 68.4345 27.7033C73.5216 27.5071 79.3235 27.1143 85.8477 26.5212L85.8609 26.52C92.5517 25.9296 99.4464 25.1424 106.545 24.1575C113.657 22.9717 120.769 21.6876 127.881 20.3053C134.986 18.7254 141.787 17.049 148.285 15.2768L148.293 15.2745C157.906 12.6711 165.542 10.6615 171.188 9.24993L171.207 9.245L171.227 9.24023C177.136 7.81407 182.07 6.935 185.907 6.70928L185.915 6.70881L185.923 6.70835C189.906 6.48706 193.587 6.7923 196.782 7.85723C199.627 8.80557 202.661 10.2868 205.858 12.2045C210.447 14.917 214.166 17.6999 216.639 20.6172C219.122 23.5458 220.9 27.3186 219.851 31.5133L219.844 31.5433L219.836 31.5731C218.799 35.5131 215.717 37.9692 212.373 39.4483C209.042 40.9216 204.763 41.7624 199.825 42.1826L199.816 42.1834L199.807 42.1841C190.044 42.9811 180.381 43.8777 170.818 44.8737L170.771 44.8786L170.724 44.8826C164.714 45.3942 158.279 46.0721 151.417 46.9175C153.56 48.9892 155.29 51.546 155.728 54.6191C156.419 57.8383 155.432 60.9002 153.888 63.4731L153.827 63.5752L153.761 63.6742C152.295 65.8726 150.132 68.3406 147.436 71.0362L143.901 67.5006C146.501 64.9006 148.4 62.7007 149.6 60.9007C150.8 58.9007 151.2 57.1007 150.8 55.5006C150.6 53.7006 149.5 51.9006 147.5 50.1006C146.783 49.3831 145.907 48.6021 144.871 47.7575C143.309 46.4832 141.386 45.0643 139.1 43.5007C141.549 43.157 143.951 42.8318 146.307 42.5251C154.922 41.4036 162.919 40.5288 170.3 39.9007C179.9 38.9007 189.601 38.0007 199.401 37.2006C208.801 36.4006 214 34.1006 215 30.3006C216 26.3007 212.1 21.7007 203.3 16.5006C200.3 14.7006 197.6 13.4006 195.2 12.6006C192.8 11.8006 189.8 11.5006 186.2 11.7007C182.8 11.9007 178.2 12.7006 172.4 14.1006C166.8 15.5006 159.2 17.5007 149.6 20.1007C143 21.9007 136.101 23.6007 128.901 25.2006C121.701 26.6006 114.5 27.9007 107.3 29.1006C100.1 30.1006 93.1004 30.9006 86.3004 31.5006C79.7004 32.1007 73.8005 32.5007 68.6005 32.7007C61.4005 32.9007 57.5004 33.7007 56.9004 35.1007C56.5004 36.5007 58.9005 38.9007 64.1005 42.3007C67.1005 44.3007 69.8004 45.9007 72.2004 47.1006C74.8004 48.3007 77.5004 49.2007 80.3004 49.8006C83.3004 50.2006 86.8004 50.3006 90.8004 50.1006C93.8594 49.8093 97.502 49.4119 101.728 48.9084C103.304 48.7206 104.962 48.518 106.7 48.3007C106.803 49.9475 106.853 51.6209 106.85 53.3207C106.847 54.9238 106.798 56.5504 106.7 58.2006C106.7 61.6007 106.4 65.5007 105.8 69.9007C105.2 74.1007 104.2 79.1007 102.8 84.9007C101.6 90.7007 100 97.6007 98.0005 105.601C91.6005 106.601 85.2004 107.401 78.8004 108.001C72.6004 108.401 66.6004 108.801 60.8004 109.201C50.2004 109.601 44.6005 110.801 44.0005 112.801C43.6005 114.601 47.6005 118.701 56.0005 125.101C58.2005 126.901 60.3004 128.301 62.3004 129.301C64.5004 130.101 66.9005 130.601 69.5005 130.801C72.3005 131.001 75.5005 130.801 79.1005 130.201C81.3335 129.828 83.8742 129.264 86.7228 128.507C88.4666 128.044 90.3258 127.508 92.3004 126.901C91.8257 128.763 91.3343 130.649 90.8263 132.558C88.5518 141.104 85.9432 150.119 83.0005 159.601C79.6005 171.001 76.0004 182.101 72.2004 192.901C60.4004 193.901 50.8004 194.701 43.4004 195.301C36.0004 195.701 30.0004 196.101 25.4004 196.501C20.8004 196.701 17.3004 196.901 14.9004 197.101H8.60046C-1.99954 197.101 -7.79956 198.001 -8.79956 199.801C-9.79956 201.601 -5.79956 205.901 3.20044 212.701C6.40044 215.101 9.20046 217.001 11.6005 218.401C14.2005 219.801 16.9004 220.601 19.7004 220.801C22.7004 221.001 26.0005 220.601 29.6005 219.601C33.4005 218.801 38.2005 217.401 44.0005 215.401C48.6005 213.801 57.9004 212.101 71.9004 210.301C86.1004 208.701 105.9 207.101 131.3 205.501C138.7 205.101 147.6 204.901 158 204.901C168.6 204.901 179.2 205.101 189.8 205.501C200.6 205.701 210.6 206.201 219.8 207.001C229.2 207.601 236.5 208.301 241.7 209.101C248.9 210.301 254.7 210.501 259.1 209.701C263.5 208.701 266.5 207.101 268.1 204.901C269.7 202.501 269.801 199.701 268.401 196.501C267.201 193.101 264.4 189.701 260 186.301C256.8 183.901 253.8 182.001 251 180.601C248.4 179.001 245.201 178.001 241.401 177.601C237.601 177.001 232.8 177.001 227 177.601C221.4 178.001 214 178.901 204.8 180.301C202.6 180.701 198.4 181.301 192.2 182.101C187.649 182.688 182.827 183.168 177.736 183.539C175.893 183.674 174.014 183.794 172.1 183.901C172.869 182.186 173.629 180.471 174.38 178.756C176.17 174.671 177.91 170.586 179.6 166.501C182.2 160.701 184.9 154.301 187.7 147.301C189.9 141.701 192.5 136.601 195.5 132.001C198.5 127.201 202.3 122.901 206.9 119.101C209.9 116.501 212 114.301 213.2 112.501C214.6 110.701 214.6 108.801 213.2 106.801C212 104.801 209.3 102.601 205.1 100.201C201.1 97.8007 195.3 94.8007 187.7 91.2007C183.9 89.4007 180.801 88.1007 178.401 87.3007C176.001 86.5007 173.7 86.2007 171.5 86.4007C169.5 86.4007 167.301 87.0006 164.901 88.2007C162.701 89.2007 159.8 90.7006 156.2 92.7006C154.4 93.7007 151.4 94.9007 147.2 96.3007C144.162 97.1688 140.39 98.0894 135.886 99.0622C134.165 99.4341 132.336 99.8135 130.4 100.201C130.914 98.2935 131.4 96.4939 131.86 94.8019C132.654 91.8807 133.367 89.2803 134 87.0006C135.2 83.4007 136.3 80.4007 137.3 78.0006C138.3 75.6007 139.3 73.6007 140.3 72.0007C141.3 70.4007 142.501 68.9007 143.901 67.5006L147.436 71.0362C146.29 72.1819 145.33 73.387 144.54 74.6507C143.728 75.9509 142.847 77.6889 141.916 79.9237C140.989 82.1477 139.945 84.9848 138.784 88.462C138.349 90.0278 137.876 91.7455 137.366 93.6152C140.628 92.8782 143.411 92.1804 145.723 91.5227C149.824 90.1521 152.416 89.0833 153.772 88.3299C157.379 86.3263 160.384 84.7657 162.749 83.6862C165.517 82.3138 168.381 81.4469 171.268 81.4024C174.175 81.1713 177.095 81.5949 179.982 82.5572C182.656 83.4486 185.961 84.8442 189.841 86.682C197.464 90.293 203.421 93.3656 207.628 95.886C211.844 98.2997 215.47 100.974 217.395 104.076C218.466 105.65 219.25 107.558 219.25 109.726C219.25 111.925 218.443 113.847 217.265 115.416C215.685 117.739 213.22 120.24 210.175 122.879L210.13 122.918L210.085 122.955C205.877 126.432 202.441 130.33 199.74 134.651L199.715 134.692L199.689 134.732C196.891 139.022 194.442 143.815 192.354 149.129L192.349 149.143L192.343 149.158C189.533 156.183 186.816 162.625 184.193 168.479C182.831 171.769 181.438 175.059 180.012 178.348C184.05 178.017 187.899 177.614 191.561 177.142C197.775 176.34 201.852 175.755 203.906 175.381L203.977 175.368L204.048 175.358C213.264 173.955 220.785 173.035 226.565 172.619C232.507 172.009 237.709 171.973 242.052 172.642C246.279 173.101 250.126 174.24 253.426 176.224C256.498 177.777 259.691 179.819 263 182.301L263.029 182.322ZM156.456 123.863L156.462 123.839C156.916 122.101 157.15 120.804 157.239 119.882C149.935 120.673 143.972 121.458 139.322 122.233L139.222 122.249L139.121 122.262C135.435 122.723 131.814 123.305 128.257 124.007C125.824 131.483 123.629 138.246 121.672 144.296C119.662 150.925 117.648 157.071 115.627 162.732C113.826 168.133 112.022 173.246 110.215 178.07C109.435 180.406 108.632 182.719 107.806 185.01C112.028 184.718 116.402 184.389 120.929 184.022C127.237 183.341 133.616 182.659 140.068 181.977C141.482 177.276 142.762 173.042 143.908 169.273C145.293 164.526 146.577 159.881 147.762 155.339L147.788 155.241L147.817 155.145C149.205 150.583 150.595 145.819 151.986 140.853C153.37 135.908 154.858 130.254 156.45 123.888L156.456 123.863ZM148.7 170.701C147.3 175.301 145.701 180.601 143.901 186.601C136.301 187.401 128.8 188.201 121.4 189.001C116.021 189.437 110.853 189.82 105.897 190.151C104.035 190.275 102.203 190.391 100.401 190.501C101.064 188.804 101.715 187.094 102.351 185.37C103.441 182.42 104.491 179.43 105.5 176.401C107.3 171.601 109.1 166.501 110.9 161.101C112.9 155.501 114.9 149.401 116.9 142.801C119.1 136.001 121.6 128.301 124.4 119.701C129 118.701 133.7 117.901 138.5 117.301C143.3 116.501 149.4 115.701 156.8 114.901C159 114.501 160.6 115.001 161.6 116.401C162.6 117.601 162.5 120.501 161.3 125.101C159.7 131.501 158.2 137.201 156.8 142.201C155.4 147.201 154 152.001 152.6 156.601C151.4 161.201 150.1 165.901 148.7 170.701Z" fill="black"/>
</svg>
