<svg width="261" height="231" viewBox="0 0 261 231" fill="none" xmlns="http://www.w3.org/2000/svg">
<path d="M225.864 101.624C234.716 110.986 238.29 117.759 236.588 121.942C234.886 125.925 227.481 127.22 214.374 125.826C201.266 124.432 187.733 123.934 173.774 124.332C159.816 124.531 144.24 125.726 127.047 127.917C117.855 128.913 110.024 129.909 103.556 130.905C97.2574 131.702 91.6399 132.598 86.7033 133.594C81.9369 134.391 77.5961 135.287 73.6809 136.283C69.9359 137.08 66.0207 138.076 61.9353 139.271C55.9773 141.064 50.53 141.462 45.5935 140.466C40.8271 139.271 35.6352 135.686 30.0177 129.71C27.1238 126.722 24.996 124.232 23.6342 122.24C22.2724 120.249 21.7617 118.755 22.1021 117.759C22.4426 116.563 23.8044 115.767 26.1876 115.368C28.5708 114.97 32.1455 114.771 36.9119 114.771C41.3378 114.771 45.0828 114.771 48.1469 114.771C51.3812 114.771 54.3602 114.771 57.0838 114.771C59.8074 114.572 62.5311 114.372 65.2547 114.173C67.9783 113.974 71.2126 113.675 74.9576 113.277C87.214 111.882 98.8745 110.389 109.939 108.795C121.004 107.201 131.047 105.708 140.069 104.313C149.091 102.72 156.837 101.325 163.305 100.13C169.774 98.7358 174.54 97.5407 177.605 96.5447C189.18 93.1585 198.713 91.6645 206.203 92.0629C213.693 92.4613 220.246 95.6483 225.864 101.624Z" fill="black"/>
<path fill-rule="evenodd" clip-rule="evenodd" d="M236.589 121.942C234.886 125.925 227.482 127.22 214.374 125.826C201.267 124.431 187.734 123.933 173.775 124.332C159.816 124.531 144.241 125.726 127.048 127.917C117.855 128.913 110.025 129.909 103.556 130.905C97.2579 131.702 91.6404 132.598 86.7038 133.594C81.9375 134.391 77.5967 135.287 73.6815 136.283C69.9365 137.08 66.0212 138.076 61.9358 139.271C55.9779 141.064 50.5306 141.462 45.594 140.466C40.8277 139.271 35.6357 135.686 30.0182 129.71C27.1244 126.722 24.9965 124.232 23.6347 122.24C22.2729 120.248 21.7622 118.754 22.1027 117.759C22.4431 116.563 23.8049 115.767 26.1881 115.368C28.5713 114.97 32.1461 114.771 36.9124 114.771H57.0843L65.2552 114.173C67.9789 113.974 71.2132 113.675 74.9582 113.277C87.2145 111.882 98.8751 110.388 109.94 108.795C121.005 107.201 131.048 105.707 140.07 104.313C149.092 102.72 156.837 101.325 163.306 100.13C169.775 98.7357 174.541 97.5406 177.605 96.5446C189.18 93.1584 198.713 91.6644 206.203 92.0628C213.693 92.4612 220.247 95.6483 225.864 101.624C234.716 110.986 238.291 117.759 236.589 121.942ZM230.23 97.5079C234.81 102.352 238.336 106.842 240.491 110.924C242.55 114.826 244.012 119.619 242.146 124.203L242.127 124.251L242.106 124.299C240.011 129.203 235.028 131.07 230.792 131.811C226.275 132.601 220.498 132.511 213.739 131.792C200.915 130.428 187.652 129.938 173.946 130.329L173.903 130.331L173.861 130.331C160.173 130.527 144.827 131.7 127.806 133.869L127.75 133.876L127.694 133.882C118.558 134.872 110.822 135.857 104.469 136.835L104.389 136.848L104.309 136.858C98.1208 137.641 92.6522 138.515 87.8904 139.476L87.7921 139.496L87.6931 139.512C83.0606 140.287 78.8864 141.15 75.1606 142.098L75.0459 142.127L74.93 142.152C71.3533 142.913 67.5912 143.869 63.6418 145.024C56.9656 147.029 50.5074 147.579 44.4074 146.348L44.2703 146.32L44.1347 146.286C37.7462 144.684 31.6014 140.147 25.6775 133.853C22.7047 130.781 20.3183 128.021 18.6816 125.627C17.8381 124.393 17.0498 123.02 16.5529 121.567C16.0836 120.194 15.676 118.16 16.3745 115.971C17.0978 113.595 18.7414 112.027 20.3494 111.086C21.9024 110.177 23.6297 109.713 25.1989 109.45C28.0888 108.967 32.0682 108.771 36.9124 108.771H56.8652L64.8176 108.189C67.451 107.996 70.6091 107.705 74.3017 107.313C86.4969 105.925 98.0909 104.439 109.085 102.856C120.107 101.269 130.109 99.7811 139.09 98.3933C148.034 96.8134 155.713 95.4311 162.128 94.2461C168.513 92.8683 173.004 91.7313 175.75 90.8385L175.835 90.811L175.92 90.786C187.8 87.3106 198.071 85.6218 206.522 86.0713C215.703 86.5596 223.663 90.5254 230.23 97.5079Z" fill="black"/>
</svg>
