<?xml version="1.0" encoding="UTF-8"?>
<svg width="825px" height="1175px" viewBox="0 0 825 1175" version="1.1" xmlns="http://www.w3.org/2000/svg" xmlns:xlink="http://www.w3.org/1999/xlink">
    <title>I_dacuo_m</title>
    <g id="I_dacuo_m" stroke="none" stroke-width="1" fill="none" fill-rule="evenodd">
        <path d="M432.543338,459.887241 L450.533942,476.044735 L499.508366,476.044735 C584.797157,476.044735 653.427982,472.046823 705.40084,464.050999 C746.712598,458.720449 780.361692,468.048911 806.348121,492.036383 C818.341857,503.363801 824.338725,514.0249 824.338725,524.01968 C824.338725,540.011329 815.843162,552.171645 798.852035,560.500628 C781.860909,568.829612 762.371087,570.328829 740.382571,564.998279 C725.057241,560.334049 709.565331,557.335615 693.906842,556.002977 C678.248353,554.67034 655.760098,552.005065 626.442075,548.007153 C603.120921,544.67556 569.638407,542.510024 525.994533,541.510546 C482.35066,540.511068 458.196607,541.343966 453.532376,544.009241 C450.200783,546.674516 447.702088,559.167991 446.036291,581.489667 C444.370494,603.811343 442.538118,911.114299 440.539162,983.743036 C437.207569,1069.03183 434.542294,1120.33837 432.543338,1137.66265 C430.544382,1154.98694 425.880151,1167.98015 418.550645,1176.6423 C402.558997,1193.30026 384.901552,1191.63447 365.57831,1171.6449 C353.584573,1160.31749 346.088488,1141.99372 343.090054,1116.67361 C340.09162,1091.3535 338.259244,1031.38482 337.592925,936.767568 C336.926606,857.475645 335.09423,556.502716 332.095796,553.504282 C329.097362,550.505848 313.772032,550.339268 286.119806,553.004543 C258.467581,555.669818 237.645122,559.001411 223.65243,562.999323 C211.658693,567.663554 195.667045,571.661466 175.677484,574.99306 C160.352155,576.992016 141.528652,581.656247 119.206976,588.985752 C96.8852997,596.315258 82.3928683,602.312126 75.7296814,606.976357 C66.4012198,612.973225 53.4080054,614.305862 36.7500383,610.974269 C20.0920711,607.642675 9.09781283,601.645807 3.76726334,592.983664 C-0.896967462,586.986796 -1.2301268,578.990972 2.76778531,568.996192 C7.43201611,559.001411 16.9270574,551.172167 31.2529091,545.508458 C45.5787609,539.844749 74.7302034,532.015504 118.707237,522.020724 L236.645644,496.034295 C253.303611,492.702702 272.793433,490.370587 295.115109,489.037949 C317.436785,487.705312 329.263941,486.705834 330.596579,486.039515 C333.261854,486.039515 320.596994,497.284577 334.594491,473.046301 C348.591988,448.808024 388.603441,448.808024 432.543338,459.887241 Z M402.558997,284.376078 C430.544382,283.226807 460.195563,282.843717 491.512541,283.226807 C512.834739,283.609897 527.49375,284.376078 535.489575,285.525348 C543.485399,286.674619 554.812817,289.35625 569.471828,293.570243 C609.450949,305.062949 629.440509,315.981019 629.440509,326.324455 C629.440509,331.687717 627.108394,340.019929 622.444163,351.32109 C617.779932,362.622251 613.78202,370.762917 610.450427,375.74309 C605.786196,380.723263 603.454081,385.703435 603.454081,390.683608 C603.454081,397.579231 597.124053,408.305757 584.463998,422.863184 C580.466086,427.077177 578.46713,430.141898 578.46713,432.057349 C578.46713,433.9728 574.302638,437.995247 565.973655,444.12469 C557.644671,450.254134 553.480179,454.180808 553.480179,455.904714 C553.480179,457.62862 545.817514,463.087655 530.492185,472.28182 C505.172074,486.456157 486.848311,489.712424 475.520893,482.05062 C454.198695,467.493192 435.541772,456.766667 419.550123,449.871043 C412.886936,446.806322 406.723489,445.082416 401.05978,444.699326 C395.396071,444.316235 386.567348,445.082416 374.573612,446.997867 L340.591359,452.169585 C328.597623,453.318855 319.93548,456.000487 314.60493,460.214479 C309.9407,463.66229 303.943831,465.865059 296.614326,466.822785 C289.28482,467.78051 283.287952,467.493192 278.623721,465.960832 C273.95949,463.2792 268.9621,458.77789 263.631551,452.456902 C258.301001,446.135914 254.969408,440.102243 253.636771,434.35589 C249.638858,422.097004 243.64199,411.370478 235.646166,402.176314 C232.980891,399.111592 228.31666,391.354016 221.653474,378.903584 C214.990287,366.453153 210.326056,359.461757 207.660781,357.929396 C204.995506,356.397035 203.662869,353.906949 203.662869,350.459137 C203.662869,347.011325 201.997072,344.712784 198.665479,343.563513 C196.666523,342.414243 195.667045,338.296023 195.667045,331.208855 C195.667045,324.121686 196.666523,320.578102 198.665479,320.578102 C201.330754,320.578102 204.329188,318.27956 207.660781,313.682478 C212.991331,307.169945 233.314051,301.232047 268.628941,295.868784 C303.943831,290.505521 348.587183,286.674619 402.558997,284.376078 Z M497.50941,312.533207 C485.515673,309.851576 474.521415,308.702305 464.526635,309.085396 C436.54125,309.851576 404.891112,311.575482 369.576222,314.257113 C328.930782,318.088015 301.278557,321.056964 286.619546,323.16396 C271.960534,325.270956 263.298392,327.856815 260.633117,330.921537 C257.967842,333.220078 257.468103,336.380572 259.1339,340.403019 C260.799696,344.425466 264.29787,348.160596 269.628419,351.608408 L276.624765,357.354761 L302.611194,351.608408 C329.263941,346.628235 356.249848,343.467741 383.568914,342.126925 C410.88798,340.786109 429.544904,341.839608 439.539684,345.287419 C447.535508,348.352141 451.53342,352.661906 451.53342,358.216713 C451.53342,363.771521 450.034203,367.027788 447.035769,367.985514 C444.037335,368.943239 442.871277,370.571372 443.537596,372.869914 C444.203915,376.317725 442.704698,378.520494 439.039945,379.478219 C435.375192,380.435945 424.880673,380.914808 407.556387,380.914808 C374.240453,381.297898 344.589271,383.979529 318.602842,388.959702 C307.941743,391.258243 300.279079,392.215969 295.614848,391.832878 C293.615892,391.066698 292.616414,391.258243 292.616414,392.407514 C292.616414,394.322965 295.614848,400.260863 301.611716,410.221208 C306.275947,417.499922 309.60754,421.713914 311.606496,422.863184 C313.605452,424.012455 323.100494,422.958957 340.09162,419.70269 C357.082747,416.446424 374.906771,414.722518 393.563695,414.530973 C412.220618,414.339428 424.880673,416.063333 431.54386,419.70269 C438.207047,423.342047 446.53603,425.161726 456.53081,425.161726 C463.860316,425.161726 468.857706,424.204 471.522981,422.288549 C474.188256,420.373098 479.518805,414.243655 487.514629,403.90022 C494.844135,392.790604 501.340742,379.573992 507.004451,364.250384 C512.66816,348.926776 515.500014,336.66789 515.500014,327.473725 C515.500014,322.493553 514.500536,319.333058 512.50158,317.992243 C510.502624,316.651427 505.505234,314.831749 497.50941,312.533207 Z" id="早" fill="#000000" fill-rule="nonzero"></path>
        <path d="M486.095309,275.139954 L486.806131,275.50212 L487.734738,275.9795 L488.661631,276.449427 L489.569595,276.902886 L490.458957,277.339895 C490.605652,277.41136 490.751586,277.48214 490.896764,277.552236 L491.758832,277.964601 C491.901019,278.031961 492.042464,278.098637 492.183175,278.16463 L493.018681,278.552388 L493.836886,278.923764 C494.106774,279.044827 494.373833,279.163162 494.638116,279.278773 L495.422695,279.617433 C496.328451,280.003005 497.200877,280.355231 498.042297,280.674232 L498.755976,280.939527 C498.991374,281.025248 499.224295,281.10826 499.454794,281.188565 L500.139076,281.421363 C502.509007,282.207755 504.617827,282.696044 506.528311,282.889477 L506.849282,282.91947 C511.894273,283.35183 517.82292,282.033132 525.303991,279.206572 L526.071811,278.912917 L526.522535,278.761361 C532.533392,276.76262 539.660532,275.169223 547.900102,274.000711 L548.503943,273.91637 L548.191523,273.943457 C556.090857,273.286485 564.356485,272.111409 572.990854,270.421833 L576.80886,269.656852 L580.634038,268.871265 L582.292408,268.521578 L583.790129,268.198215 L585.384661,267.84238 L586.330111,267.623222 L587.18546,267.417436 L587.954098,267.224096 L588.639416,267.042273 L589.100765,266.912907 L589.518584,266.789107 L589.894303,266.670483 L590.122101,266.594083 L590.430832,266.483216 L592.881411,265.532697 L594.142882,263.737501 C596.453449,260.449339 595.434661,257.168906 592.779956,254.421339 C591.296639,252.886136 589.185989,251.405132 586.368099,249.808024 L585.748751,249.461557 L585.103013,249.109254 C584.993188,249.050049 584.882261,248.990599 584.770231,248.930903 L584.084809,248.569777 L583.372865,248.202723 L582.634347,247.829701 L581.869203,247.450676 L581.077381,247.065609 L580.258827,246.674464 L579.41349,246.277201 C579.270366,246.210479 579.126124,246.143501 578.980762,246.076265 L578.095152,245.669758 L577.182627,245.25704 L576.243135,244.838075 L575.276625,244.412825 L574.283042,243.981252 L572.741795,243.321956 L571.680305,242.874412 L570.591559,242.420415 L569.475506,241.959926 L568.332094,241.492909 L567.161269,241.019325 L565.96298,240.539137 L564.113935,239.806391 L559.930459,238.175086 L556.149713,236.685304 L553.131877,235.482161 L550.759326,234.524549 L548.639847,233.657133 L546.776192,232.881252 L545.603164,232.383833 L544.371088,231.850162 L543.491836,231.458701 L542.885687,231.180747 L542.366542,230.934366 L541.934914,230.719807 L541.299536,230.387663 L540.432135,229.948215 L539.422479,229.452539 L538.511705,229.015192 L536.97268,228.290592 L535.224789,227.482962 L533.266427,226.59148 L531.095985,225.615323 L528.293615,224.368355 L523.780632,222.382507 L520.550116,220.970598 L518.715949,220.161025 L516.941668,219.369074 L515.227371,218.59482 L514.117879,218.088516 L512.503773,217.343916 L511.461166,216.85745 L510.445365,216.378957 L509.456398,215.908458 L508.494294,215.445975 L507.559082,214.991529 L506.206752,214.324978 L505.338899,213.89072 L504.49804,213.464575 L503.684205,213.046564 L502.897422,212.636709 L502.137721,212.235032 L501.405131,211.841555 L500.69968,211.456298 L500.021399,211.079283 L499.418693,210.737402 L498.943995,210.453357 L498.379707,210.109963 L497.499114,209.56404 L496.577625,208.981167 L495.940633,208.572084 L495.285546,208.146619 L494.612398,207.704789 L493.56888,207.011394 L492.850719,206.528721 L491.739835,205.774138 L490.196029,204.711043 L489.397359,204.15511 L488.165987,203.290774 L486.894672,202.389963 L485.583525,201.452733 L483.773556,200.146534 L481.89323,198.775817 L480.43697,197.705517 L478.940564,196.596313 L477.496366,195.514202 L476.104458,194.459297 L475.205611,193.771198 L473.901038,192.76189 C473.759001,192.651271 473.617937,192.541161 473.477846,192.431561 L472.243306,191.458956 L471.44951,190.825913 L470.679125,190.205196 L469.932177,189.59684 L469.208691,189.000877 L468.50869,188.417342 L467.832199,187.846268 L467.179244,187.287689 L466.549848,186.741638 L465.944036,186.208148 L465.361833,185.687254 C465.266768,185.60149 465.172687,185.516252 465.079592,185.431541 L464.532848,184.929603 L464.009774,184.440344 L463.510394,183.963798 L463.034734,183.5 L462.381988,182.85109 L461.514066,181.994889 C461.370793,181.854418 461.22821,181.715062 461.086313,181.576819 L460.243152,180.760702 L459.416362,179.971234 L458.605833,179.208357 L457.811456,178.47201 L457.033121,177.762134 L456.270718,177.078672 L455.524139,176.421562 C455.154786,176.099586 454.791327,175.78747 454.433698,175.485181 L453.726197,174.893696 L453.034136,174.328358 C452.920073,174.23631 452.806648,174.14535 452.693861,174.055475 L452.151197,173.627461 L452.245218,173.706251 C448.656236,170.713994 444.941387,167.230335 441.105899,163.256888 L440.102604,162.209227 C438.258225,160.268151 436.386355,158.215075 434.487567,156.050178 L433.449198,154.858236 L432.405511,153.644121 C431.707951,152.827322 431.006859,151.995744 430.302263,151.149397 L429.242743,149.868801 L427.714717,147.98317 L426.003517,145.851039 L424.426713,143.862768 L423.216011,142.316809 L422.099763,140.872586 L421.275116,139.791019 L420.511508,138.775524 L419.643235,137.599719 L418.871255,136.528651 L418.454502,135.936631 L418.072708,135.382797 L417.725985,134.867328 L417.414444,134.390405 L417.226349,134.09396 L416.973688,133.68168 C415.621617,131.421165 414.815548,128.751518 414.592521,125.635324 L414.576472,125.411097 L414.413207,124.41263 L414.284771,123.662062 L414.155014,122.936144 L414.023668,122.234467 L413.890467,121.556621 L413.755146,120.902199 L413.617437,120.27079 L413.477074,119.661985 L413.333791,119.075375 L413.187321,118.51055 L413.037397,117.967103 L412.883754,117.444623 C412.805958,117.188557 412.726667,116.9402 412.645732,116.699322 L412.481624,116.227471 C412.065648,115.072432 411.606058,114.100537 411.084118,113.283015 L410.996363,113.14792 L412.425089,113.257466 L414.205633,113.387266 L416.714944,113.560048 L419.379067,113.732538 L422.198262,113.904769 L425.17279,114.076776 L428.45182,114.256566 L428.601002,114.260426 C436.112796,114.45479 444.452276,115.412637 453.60785,117.146727 L455.073251,117.429094 L457.111408,117.829521 L458.571659,118.12084 L460.426862,118.497051 L462.176412,118.859056 L463.819505,119.206588 L464.981479,119.457578 L466.082778,119.700165 L467.456208,120.010345 L468.414613,120.232884 L469.311212,120.446642 L470.145665,120.651507 L470.917633,120.847366 L471.626775,121.034107 L472.272753,121.211617 L472.855227,121.379783 L472.968014,121.413772 L473.122316,121.485467 C477.269846,123.373525 481.921525,124.388003 486.94911,124.527381 C492.590761,124.683783 497.20909,123.906454 500.747621,121.728347 L501.234314,121.42107 L501.369167,121.338788 L501.557417,121.314177 C504.030982,120.957773 506.068976,119.840232 507.443703,118.328492 C508.372156,117.307503 508.917288,116.22847 509.282766,115.022759 C509.741,113.511045 509.925975,111.680347 509.925975,109.373452 C509.925975,104.973274 509.152905,101.801403 506.686839,99.3402287 L506.476415,99.1351912 L506.24639,98.9205462 L505.996453,98.6960087 L505.726296,98.4612933 L505.435609,98.216115 L504.960406,97.8281054 L504.437267,97.4149498 L504.06136,97.1250674 L503.663374,96.823296 L503.024319,96.3477231 L502.56978,96.0149815 L501.331413,95.126122 L500.516889,94.5522909 L499.345268,93.7379185 L497.739702,92.6375696 L497.323243,92.3544353 L496.406114,91.764344 L495.584827,91.2427318 L494.781194,90.7392521 L493.994766,90.2538433 C493.865103,90.1744443 493.736138,90.0957957 493.607862,90.0178962 L492.846396,89.5594779 L492.101009,89.118976 L491.37125,88.6963288 C491.2509,88.627372 491.131184,88.5591567 491.01209,88.4916814 L490.304929,88.0957004 C490.188289,88.0311802 490.072255,87.9673977 489.956815,87.9043513 L489.271238,87.5348975 L488.599488,87.1830512 C488.266995,87.0115197 487.939518,86.8465679 487.616804,86.688161 L486.977652,86.3800635 C486.872159,86.330165 486.767178,86.280991 486.662697,86.2325404 L486.041752,85.9505069 C483.58142,84.8570114 481.398893,84.178686 479.364471,83.8977413 L478.73453,83.8168312 C476.827295,83.5657913 474.542003,83.1386183 471.899223,82.5324997 L471.070459,82.3385963 L470.967424,82.3084441 C462.038136,79.7015765 454.534745,79.503225 448.974672,82.7650581 L448.904607,82.8067577 L448.642424,82.8491591 L448.416754,82.8827025 L447.927439,82.9492311 C447.755946,82.9712686 447.576099,82.9931578 447.388001,83.0148693 L446.799056,83.0794421 L446.161218,83.1427743 L445.475104,83.2046908 L444.741328,83.2650166 C444.615095,83.2749286 444.486901,83.284767 444.35676,83.2945282 L443.204883,83.3755197 C443.076068,83.3840166 442.945814,83.3924332 442.814123,83.4007693 L442.006738,83.4498198 L440.731106,83.5197597 L439.378171,83.5853145 L438.433361,83.6265692 L436.952002,83.6847597 L435.921748,83.7210816 L434.31248,83.7718383 L432.626716,83.8181013 L430.86464,83.8598455 L429.026437,83.8970458 L427.112294,83.9296773 L425.794101,83.948881 L410.923283,84.3455612 L411.139512,82.6750033 L411.324912,81.1372496 L411.61642,78.5528734 L411.959386,75.2891321 L412.397786,70.8254154 L412.667201,67.9448297 L413.236685,61.5692154 L413.938313,53.2747254 L414.168836,50.4611669 C414.190668,50.1732652 414.215022,49.8986309 414.241691,49.6373804 L414.298057,49.1327588 C414.317834,48.9705229 414.338579,48.8142697 414.360231,48.6640339 L414.427846,48.2314124 C414.451251,48.0932455 414.475501,47.9611302 414.500536,47.8351012 L414.577934,47.4753069 C414.591206,47.4183958 414.604659,47.3630148 414.618285,47.3091682 L414.702057,47.0045371 L414.767112,46.8007122 L414.796783,46.7713177 C416.472884,45.0289356 417.316505,42.8369495 417.696411,39.8071023 L417.760457,39.2469019 C417.790007,38.9620989 417.815909,38.6701771 417.838441,38.3708445 L417.879093,37.7622122 C417.8912,37.5559835 417.901892,37.3463748 417.911249,37.1332996 L417.935402,36.483588 L417.952044,35.812559 L417.961668,35.119694 L417.964767,34.4044743 L417.964767,24.2067576 L404.200304,13.5229379 L403.440273,12.9381945 L402.696843,12.3718501 L401.969507,11.823818 L401.257757,11.2940116 L400.561088,10.7823445 L399.543252,10.0486655 L398.882066,9.58196773 L398.234188,9.13310618 L397.59911,8.70199431 L396.976324,8.28854556 C396.873523,8.22110455 396.771213,8.1543959 396.669383,8.0884178 L396.064088,7.70130142 L395.469819,7.33163176 L394.88607,6.97932224 C394.114526,6.52111118 393.369683,6.10896302 392.646137,5.74195442 L392.107386,5.47514722 C389.343595,4.14022319 386.879292,3.47963185 384.399975,3.43964853 L384.159984,3.43771476 C383.599471,3.43771476 382.731782,3.29500219 381.595602,2.98272036 L381.126903,2.84870027 C380.563594,2.68164399 379.942937,2.47687944 379.268864,2.2316772 L378.976716,2.12410679 C376.741192,1.29116678 374.772754,0.702069592 372.964211,0.361741251 C370.061809,-0.184427291 367.364545,-0.184427291 364.656619,0.866566044 L364.067126,1.09535863 L363.530816,1.39271764 C359.494083,3.63089848 357.585389,7.39449349 356.534793,13.2788422 L356.417306,13.9672511 L356.307002,14.6746864 C356.289192,14.7941891 356.271664,14.914493 356.254408,15.0356025 L356.154065,15.7719586 L356.037155,16.7204803 L355.926097,17.7429767 L355.818814,18.8644904 L355.715288,20.0851785 L355.595989,21.6811355 L355.46357,23.7242307 L355.32109,26.2985974 L355.220386,28.3973224 L355.109521,31.028181 L354.963421,35.1280157 L354.844174,39.1622721 L354.759374,42.5262123 L354.70303,45.0504612 L354.640039,48.2133867 L354.57288,52.0883282 L354.556924,53.1480828 L353.475859,86.9758719 L346.961162,87.6083734 L343.916429,88.0556109 L339.725419,88.6850762 L335.206415,89.3783233 L329.639966,90.2487359 L323.644576,91.2025209 L317.219955,92.239713 L311.096029,93.2403427 L293.265117,96.7202753 L287.592945,97.8421878 C281.559234,99.043105 276.640546,100.3979 272.776409,101.962845 C270.421521,102.916556 268.540955,103.91878 267.069002,105.11577 C264.609698,107.115673 263.265229,109.694037 264.016,112.607911 C264.440511,114.255513 265.304718,116.046186 266.592782,118.095272 L266.912888,118.596841 L266.992232,118.708822 C270.700306,123.942161 275.454094,128.101861 281.240596,131.096318 C287.293704,134.228741 293.093837,135.781246 298.747433,135.430165 C305.255169,135.026042 310.395461,132.289991 313.073128,127.717293 L313.389699,127.17668 L313.511301,126.797628 L313.878138,126.659937 L314.459268,126.448636 L315.12085,126.216611 L315.861949,125.964273 L316.399729,125.784967 L317.578954,125.400306 L319.2445,124.871901 L320.727444,124.412302 L322.169995,123.972359 L323.930009,123.506789 L325.872841,122.999856 L327.764937,122.514206 L329.606004,122.049834 L330.804887,121.752069 L331.980873,121.463754 L333.133875,121.184888 L334.263806,120.915469 L335.915254,120.529045 C336.095843,120.48729 336.275461,120.445927 336.454107,120.404958 L338.035626,120.046855 L339.564356,119.709983 L340.554037,119.497192 L341.520039,119.293832 L342.462274,119.0999 L343.380657,118.915394 L344.2751,118.740312 L345.145516,118.574651 L346.4059,118.343819 L347.215869,118.201701 L348.001507,118.068997 C348.130414,118.047664 348.258304,118.026723 348.385175,118.006174 L349.134153,117.887585 L349.858584,117.778405 L350.354429,117.706951 L350.252794,118.501276 L350.116028,119.489312 L349.960644,120.538469 L349.786642,121.648546 L349.525679,123.223066 L349.308238,124.474508 L349.07218,125.786201 L348.817507,127.157944 L348.448988,129.079998 C348.416899,129.24459 348.384466,129.410284 348.351687,129.577081 L348.202461,130.378595 C344.992028,147.426996 340.057694,161.239435 333.467581,171.849064 L333.278961,172.148645 L325.744523,182.222223 L325.627245,182.404295 C325.405377,182.748737 325.170847,183.102063 324.923666,183.46424 L324.54341,184.014142 L324.144189,184.577298 L323.726015,185.153686 L323.288896,185.743281 L322.832844,186.346061 L322.357868,186.962001 L321.86398,187.591079 L321.351189,188.233272 L320.819505,188.888554 L320.26894,189.556904 L319.699502,190.238297 L319.111203,190.932711 L318.504053,191.640121 L317.878062,192.360505 L316.90377,193.465354 L316.230722,194.218068 L315.538868,194.983674 L314.828219,195.762147 L314.098786,196.553465 L313.350579,197.357603 L312.583608,198.174539 L311.797883,199.004249 L310.993416,199.84671 L309.751592,201.134256 L308.467655,202.45036 C308.322657,202.598177 308.176879,202.746521 308.030323,202.895393 L307.141637,203.79494 L305.773574,205.16792 L304.363501,206.569219 L302.911452,207.998758 L301.316374,209.55474 L300.226215,210.60994 L299.147653,211.647124 L298.080708,212.666284 L297.025399,213.667409 L295.981744,214.650493 L294.949761,215.615525 L293.929471,216.562497 L292.92089,217.4914 L291.924039,218.402225 L290.938935,219.294964 L289.483348,220.600139 L288.527695,221.447622 L287.583856,222.276987 C287.427535,222.413705 287.271707,222.549667 287.116372,222.684873 L286.190287,223.487045 L285.276063,224.271078 L284.373717,225.036961 L283.483268,225.784688 L282.604735,226.514248 L281.738137,227.225632 L280.883492,227.918833 L280.04082,228.593841 L279.210138,229.250647 L278.391466,229.889242 L277.584821,230.509618 C277.317947,230.713373 277.05308,230.914089 276.790224,231.111766 L276.007693,231.695677 C275.878277,231.791475 275.749365,231.886513 275.620957,231.98079 L274.856559,232.537329 L274.104273,233.075608 C273.855532,233.25199 273.608813,233.425327 273.364118,233.595619 L260.972036,242.369706 L256.26338,245.678161 L255.25244,246.380916 L254.53826,246.775982 L253.464867,247.372342 L251.901072,248.248722 L250.889246,248.821174 L249.901857,249.384432 L248.938795,249.938703 L247.539581,250.753724 L246.636865,251.286452 L245.758098,251.810931 L244.903171,252.32737 L244.071976,252.835981 L243.264403,253.336971 L242.480345,253.830553 C242.351623,253.912211 242.223875,253.993569 242.097101,254.074632 L241.348111,254.557494 C241.22522,254.637392 241.103297,254.717003 240.98234,254.796331 L240.268175,255.268947 C240.033973,255.42538 239.803618,255.580717 239.577091,255.734995 L238.90898,256.194685 C238.799536,256.270781 238.691045,256.346622 238.583505,256.422211 L237.949648,256.872757 L237.338493,257.317471 L236.74993,257.756562 C236.557496,257.902012 236.368809,258.04656 236.183852,258.190241 L235.640149,258.618717 C231.113466,262.239252 229,265.318769 229,268.438066 L229.004685,268.674113 C229.073187,270.394218 229.888387,271.873671 231.149751,273.073845 L231.262113,273.178266 L231.35614,273.274619 C234.607742,276.535355 239.611189,277.183128 244.845819,276.138279 C248.043479,275.500015 251.684579,274.171239 255.981069,272.155584 L256.94672,271.696356 L257.094773,271.62335 C257.416338,271.461104 257.743658,271.29774 258.076726,271.133264 L259.093175,270.636503 L260.144088,270.133091 C260.32211,270.048636 260.501567,269.963905 260.682459,269.878898 L261.785011,269.365557 L262.92195,268.845627 C263.306658,268.671222 263.697092,268.495723 264.093247,268.319135 L265.29887,267.786104 C265.706462,267.607341 266.11977,267.427491 266.538789,267.246561 L267.812972,266.700529 C268.02819,266.608985 268.244834,266.517171 268.462904,266.425088 L269.788427,265.869372 L271.148138,265.30723 L272.542007,264.738688 C273.012319,264.54811 273.488319,264.356469 273.970002,264.16377 L275.432093,263.582502 C275.678614,263.485097 275.926555,263.387427 276.175915,263.289495 L278.719539,262.296854 L279.72305,261.901455 L280.699773,261.512435 L281.64986,261.129677 L283.025377,260.567021 L284.34181,260.017793 C284.484816,259.957499 284.626738,259.897446 284.767579,259.837632 L286.006023,259.305691 L286.799456,258.958034 L287.567306,258.615817 L288.309726,258.278921 L289.026864,257.94723 C289.144289,257.892375 289.260667,257.837733 289.376001,257.7833 L290.055501,257.459195 L290.710097,257.140002 L291.33994,256.825603 C291.44286,256.773596 291.544754,256.721784 291.645626,256.670164 L292.238621,256.362736 L292.80724,256.059807 L293.351632,255.761261 L293.871949,255.466981 C293.95667,255.418283 294.040395,255.369759 294.123126,255.321404 L294.607611,255.033302 C294.765148,254.937936 294.918736,254.843233 295.068398,254.749172 L295.505636,254.468896 C295.789313,254.283304 296.05739,254.100204 296.31007,253.919439 L296.496697,253.7843 C298.118164,252.595585 300.600554,251.422093 303.963529,250.331423 L304.388489,250.195526 C309.858338,248.470634 315.509089,245.355714 321.496221,240.888339 L322.633618,240.033801 L323.24893,239.577883 L323.84158,239.14529 L324.411284,238.736141 L324.957755,238.350553 L325.48071,237.988642 L325.979861,237.650525 L326.454924,237.336321 L326.905614,237.046145 L327.331644,236.780115 L327.73273,236.538349 L328.066439,236.344851 L328.447056,236.134679 L328.577495,236.065716 L328.707642,236.049899 C330.859071,235.75669 332.616093,234.929608 334.850162,233.595637 C335.402887,233.265603 335.991937,232.893015 336.619759,232.47675 L337.260596,232.045884 C337.587567,231.82313 337.924436,231.589362 338.271507,231.344441 L338.979345,230.839685 L339.714935,230.304936 C340.089759,230.030021 340.475194,229.743765 340.871546,229.446028 C345.121535,226.253456 349.06011,222.956288 352.685778,219.554536 L364.923946,207.94551 L365.007847,207.860344 C365.330839,207.532482 365.657757,207.190874 365.988671,206.835468 L366.488046,206.292002 C366.571778,206.199698 366.655761,206.106529 366.739998,206.012496 L367.24846,205.43791 L367.763045,204.842529 L368.283805,204.226313 C368.371116,204.121872 368.458686,204.016561 368.546517,203.910379 L369.076637,203.262837 L369.613062,202.594362 L370.155843,201.904916 C370.246839,201.788258 370.338102,201.670725 370.429634,201.552315 L370.982048,200.831337 L371.540948,200.089289 L372.106387,199.326131 L372.678417,198.541825 L373.257089,197.736332 L373.842456,196.909612 L374.434569,196.061626 L375.03348,195.192335 L375.639242,194.3017 L376.251906,193.389682 L376.871525,192.456241 L377.49815,191.501338 L378.131833,190.524934 L378.772626,189.52699 L383.845912,181.570541 L386.857794,176.900904 C386.898918,176.837817 386.939092,176.776234 386.978317,176.716153 L387.000173,176.748706 C388.582798,179.08362 390.102395,181.051093 391.57758,182.664013 L391.853661,182.962284 C392.061803,183.184439 392.257409,183.398311 392.44041,183.60356 L392.789583,184.00246 L393.105021,184.37776 C393.403549,184.74106 393.65129,185.068054 393.847692,185.356023 L393.990761,185.573372 L394.100916,185.755773 C394.116559,185.783145 394.13085,185.808973 394.143798,185.833215 L394.172055,185.889638 L394.364665,186.784033 L395.135573,187.912911 L395.414983,188.311036 L395.711984,188.723403 L396.026604,189.150057 L396.358872,189.591042 L396.708817,190.046403 L397.076466,190.516184 L397.46185,191.00043 L397.864996,191.499186 L398.285934,192.012497 L398.724691,192.540406 L399.181297,193.082958 L399.899735,193.924341 L400.658494,194.798923 L401.186781,195.400496 L402.012956,196.330744 L403.177661,197.623367 L404.414736,198.976082 L405.72441,200.389244 L406.406543,201.118604 L407.825545,202.623107 L409.317719,204.188949 L410.485007,205.4038 L412.771977,207.76508 L413.248805,208.264826 L413.908021,208.967843 L414.309588,209.404694 L414.854116,210.010932 L415.178028,210.381639 L415.470207,210.724979 L415.73027,211.040431 L415.999842,211.382029 L416.046428,211.444209 L416.093233,211.609397 L416.152997,211.800097 C416.163607,211.832032 416.174546,211.86405 416.18582,211.896159 L416.257531,212.089981 L416.337575,212.286434 L416.426246,212.485956 C416.44176,212.51949 416.457645,212.55317 416.473909,212.587006 L416.576073,212.791957 L416.687601,213.001075 C416.706985,213.0363 416.726772,213.071717 416.746968,213.107335 L416.939925,213.433573 L417.155939,213.772154 L417.313248,214.005464 L417.481541,214.245358 L417.755218,214.618504 L417.952259,214.87678 L418.270439,215.279557 L418.616646,215.70209 L418.863512,215.995486 L419.397117,216.612351 L419.985849,217.272245 L420.802877,218.162972 L421.714326,219.133284 L422.308432,219.756527 L423.607565,221.102307 L425.319078,222.853036 L428.201541,225.779028 L429.385201,226.990513 L430.212492,227.844716 L431.23465,228.910739 L431.940398,229.655324 L433.000243,230.791094 L433.742949,231.604516 L434.23839,232.158755 L434.559209,232.524525 L435.004361,233.044727 L435.253433,233.345188 L435.404169,233.531907 L435.434986,233.641913 C435.894175,235.215878 436.986351,236.655806 438.854621,238.446156 L439.31798,238.882816 L439.81158,239.334421 L440.335862,239.802459 L440.891265,240.288418 L441.478228,240.793785 L442.189306,241.400321 L443.061886,242.15311 L443.956498,242.935892 L444.873097,243.74864 L445.811636,244.591325 C445.969885,244.734266 446.129046,244.878453 446.289118,245.023885 L447.260481,245.911425 L448.253668,246.828832 L449.268634,247.77608 L450.305332,248.75314 L451.254747,249.654648 C461.941322,260.191912 473.552196,268.696589 486.095309,275.139954 Z" id="Path" fill="#000000" fill-rule="nonzero"></path>
    </g>
</svg>