<?xml version="1.0" encoding="UTF-8"?>
<svg width="400px" height="240px" viewBox="0 0 400 240" version="1.1" xmlns="http://www.w3.org/2000/svg" xmlns:xlink="http://www.w3.org/1999/xlink">
    <title>j_mo_s</title>
    <g id="j_mo_s" stroke="none" stroke-width="1" fill="none" fill-rule="evenodd">
        <path d="M195.249344,-7.42410955 L194.961,-7.379 L188.877044,-6.88326023 L188.713368,-6.86263969 C184.854625,-6.37649812 181.483021,-5.20838169 178.677182,-3.26417601 C175.980952,-1.39591943 173.723485,1.3090838 171.77606,4.78586294 L171.386998,5.49648234 L171.139348,6.04820838 C170.161432,8.2855334 169.350215,11.0211322 168.69481,14.2751404 L168.511782,15.2189808 C168.452179,15.538308 168.393981,15.8623547 168.337177,16.1911384 L168.170938,17.1917174 C168.143926,17.3608548 168.11726,17.5311808 168.090939,17.7026976 L167.937145,18.7461045 C167.862309,19.2749699 167.790558,19.8145911 167.721859,20.365027 L167.588523,21.4803356 C167.566976,21.6686294 167.545766,21.8581292 167.524891,22.0488372 L167.403661,23.2075999 L167.29043,24.3954624 C167.272222,24.5958703 167.254345,24.797495 167.236798,25.0003387 L167.135462,26.2320468 L167.041984,27.4931155 L166.95631,28.7836494 L166.878381,30.1037528 L166.808142,31.4535301 C166.797073,31.6809716 166.786322,31.9096538 166.775888,32.139579 L166.717077,33.5340627 L166.665815,34.9584812 C166.657898,35.1983846 166.650292,35.4395397 166.642997,35.6819486 L166.602952,37.1514649 L166.570315,38.6511768 C166.565489,38.9036509 166.56097,39.1573875 166.556756,39.4123888 L166.535124,40.9575899 L166.520758,42.5332477 L166.513602,44.1394664 L166.512,47.199 L147.572097,49.1014793 L142.82598,49.5250024 L139.647268,49.7940118 L136.067309,50.0800298 L133.280892,50.2877652 L131.695517,50.3990663 L129.198218,50.5623629 L127.331595,50.6730391 L125.163389,50.7864672 L123.561666,50.8573015 L122.07872,50.9104622 L121.044843,50.9387471 L120.07841,50.9571112 L118.895213,50.9661797 L118.087202,50.9614296 L117.347537,50.9467882 L116.67649,50.9222643 L116.267379,50.9004291 L116.07433,50.8878667 C110.6839,50.514356 106.124607,50.6836281 102.322967,51.4591599 L101.046269,51.7318125 L100.167794,51.9084883 L99.5304682,52.0310155 L98.1322968,52.287327 L96.9760284,52.4892992 L94.8450037,52.8441872 L92.9576698,53.1442841 L90.3718264,53.5392678 L86.7976863,54.0620078 L84.8799256,54.4148591 L82.6325793,54.8388268 L81.0383149,55.1477983 L79.0329687,55.5482292 L77.6183134,55.8402278 L75.8499247,56.2189344 L75.0157609,56.4039007 L73.4464651,56.7654289 L72.3553358,57.0295127 L71.337014,57.2878203 L70.6982382,57.4569398 L70.0913069,57.623677 L69.2401676,57.8694779 L68.7119465,58.0305832 L68.2148494,58.1895652 L67.7486703,58.3464979 L67.3132036,58.5014552 C67.2431737,58.5271209 67.1744149,58.5527074 67.106923,58.5782162 C61.7562401,60.6005243 58.1628037,64.4486189 58.1628037,69.9798032 L58.1670848,70.314614 C58.283931,74.8694815 60.7856752,78.5626653 64.815427,80.7053086 L65.084,80.844 L65.1469051,80.9582507 C65.5150057,81.6043018 65.9685378,82.1998786 66.4849412,82.7742792 C67.1583275,83.5232934 67.9476624,84.2093691 68.8979472,84.9198192 C69.6384126,85.4734045 70.511948,86.065292 71.5268409,86.7033296 L72.3146445,87.1906337 C72.4504057,87.2733341 72.5884079,87.3567862 72.7286675,87.4410055 L73.5974413,87.9556485 C73.7467947,88.0429974 73.8984377,88.131144 74.0523865,88.2201037 L75.0038787,88.7637412 L75.9245532,89.2798252 L76.8102193,89.7669266 L77.6624175,90.2251696 L78.4826882,90.6546784 L79.272572,91.0555771 C79.4017726,91.1200163 79.5297713,91.1832686 79.6566001,91.2453365 L80.4037919,91.6035529 C83.4607382,93.0370772 85.8266502,93.7336309 88.0029907,93.7336309 L88.2235635,93.732071 L88.6849599,93.7195879 L89.1736762,93.6946107 L89.6900954,93.6571281 L90.2346004,93.6071286 L90.8075743,93.5446008 L91.4093999,93.4695334 C91.5121298,93.4559765 91.6160778,93.4418967 91.7212519,93.4272937 L92.3670732,93.3333954 L93.0427037,93.2269288 L93.7485264,93.1078827 L94.4849241,92.9762456 L95.2522798,92.8320061 L96.0509765,92.6751528 L97.3086237,92.4161969 L98.6389422,92.1287959 L99.5668325,91.9213733 L101.021142,91.586478 L102.55157,91.2230348 L104.159408,90.8310052 L107.166964,90.0788218 L109.213546,89.577617 L110.621296,89.2408778 L112.797942,88.7318738 L114.292377,88.389946 L115.821474,88.0459486 L117.385224,87.6998852 L119.795809,87.1769236 L122.284322,86.6493326 L124.850738,86.1171237 L126.604949,85.759758 L129.301147,85.2198784 L133.01715,84.4929054 L136.871466,83.757805 L140.864035,83.0146046 L143.949153,82.4519051 L146.688858,81.9598112 L150.859825,81.2235944 L153.25,80.81 L152.279459,82.0486396 L151.191313,83.4208481 C151.011737,83.6458153 150.833053,83.8689149 150.655262,84.0901459 L149.599242,85.3951034 L148.564711,86.6551759 C148.394083,86.8614453 148.224353,87.0658428 148.055521,87.2683675 L147.053331,88.461036 C146.8881,88.6560663 146.723771,88.8492222 146.560344,89.0405027 L145.590624,90.1656754 C144.791565,91.084555 144.015129,91.9565093 143.261466,92.7814322 L142.669188,93.4253634 L142.34503,93.8126611 L142.010947,94.1874499 L141.755902,94.4620744 L141.475126,94.7563634 L141.005951,95.2343909 L140.66132,95.5772872 L139.896109,96.320617 L138.798312,97.3563556 L137.545116,98.5086658 L136.138215,99.7755687 L134.579305,101.155086 L132.87008,102.645238 L131.012235,104.244048 L128.589031,106.30326 L121.536142,112.245051 L118.117154,115.103181 L117.247,115.822 L117.190205,115.844816 C114.944348,116.730099 113.122616,118.346001 112.157668,120.552658 L112.068,120.765 L111.852684,120.916783 L111.368284,121.269378 L110.852703,121.660619 L110.304253,122.091762 L109.919526,122.401981 L109.518939,122.730866 L109.101993,123.07879 L108.444807,123.637187 L107.506634,124.451831 L106.228769,125.587008 L105.40297,126.332681 L104.229476,127.404849 L101.965453,129.503836 L99.7979036,131.538844 L96.9853474,134.202336 L90.6925782,140.101397 L89.9669525,140.762294 L89.4489047,141.224072 L88.6204939,141.948403 L88.0340563,142.452337 L87.4203377,142.973058 L86.4487014,143.785525 L85.058102,144.927174 L83.5591486,146.135207 L81.9521834,147.409284 L80.2375486,148.749063 L78.4155867,150.154204 L76.4866398,151.624366 L74.4510503,153.159208 L71.7571185,155.168197 L68.8977608,157.27705 L66.5623568,158.982101 L64.8690085,160.205478 L63.226247,161.380796 L61.6342673,162.507977 L60.0932643,163.586939 L59.0943456,164.279419 L58.1182277,164.950409 L56.6969285,165.916548 L55.3272558,166.834202 L54.0094046,167.703288 L52.7435699,168.523728 L51.9286743,169.043622 L51.1370416,169.541836 L50.3687294,170.018346 L49.6237956,170.473128 L48.9022979,170.906158 L48.204294,171.317413 L47.2014655,171.893414 L46.562449,172.250127 L45.6483724,172.744203 L45.0687042,173.046223 L44.6238314,173.271649 L43.0236972,174.183804 L42.1275253,174.700779 L40.8787702,175.430563 L40.1095627,175.886896 L39.0500569,176.526565 C38.9385945,176.594669 38.8292135,176.661787 38.7219087,176.727923 L38.1029513,177.112978 L37.4134662,177.548484 L36.6516307,178.021072 L35.937538,178.452222 C35.8225383,178.520614 35.7095558,178.587271 35.5986044,178.652187 L34.9573813,179.020761 C34.8546103,179.078697 34.7538982,179.134883 34.6552592,179.189314 L33.7839619,179.663882 C33.6912535,179.714962 33.6006047,179.765274 33.5119342,179.814927 L33.0030025,180.105802 C31.1381265,181.197121 30.2339691,182.053905 29.3034304,183.988255 C27.9511134,186.799375 28.3490369,189.280917 29.4895986,191.651851 L30.3483574,193.43699 L31.9766217,194.565238 C34.328318,196.194762 36.5848759,196.375811 39.4029423,196.018278 C40.9634203,195.820298 42.7894344,195.39854 44.9700664,194.75829 L45.7774146,194.516149 L46.6218506,194.252933 C46.7656877,194.207306 46.9110756,194.1608 47.0580168,194.113414 L47.9583261,193.818536 L48.8960455,193.502517 L49.871304,193.165333 L50.8842304,192.806956 L51.9349538,192.427361 L53.5821901,191.818127 L55.3151948,191.161005 L56.5183953,190.696277 L57.7600375,190.210201 L59.6948609,189.441001 L61.0331713,188.901441 L62.9187698,188.168803 L64.6600522,187.503781 L65.8694608,187.049928 L66.9946713,186.634995 L68.3617396,186.142948 L69.5737526,185.721664 L70.3791617,185.452681 L70.8660482,185.295941 L71.5203398,185.094984 L71.9052828,184.983947 L72.5005656,184.821776 C72.9367561,184.702415 73.3468007,184.587092 73.7332262,184.474469 L74.475334,184.252424 C75.7808747,183.850487 76.7915199,183.472848 77.6318396,183.053523 L77.753,182.99 L78.0931065,182.861869 L78.5998402,182.679454 L79.4740563,182.377709 L80.6296656,181.99197 L82.3821386,181.422595 L84.0289135,180.897909 L85.4059457,180.464346 C86.5551027,180.10413 87.6338017,179.747513 88.645263,179.391143 L89.634431,179.03473 C93.3412412,177.667845 96.0758029,176.288155 98.0195045,174.706783 L98.5515983,174.263713 L98.761,174.097 L99.0665363,174.043873 C100.981665,173.675787 102.891078,172.759885 105.285068,171.31177 L106.155725,170.78109 L106.896005,170.342373 L107.726714,169.862761 L108.647399,169.342555 L110.014161,168.586328 L111.143033,167.972585 L112.785737,167.092739 L114.584647,166.143243 L116.035696,165.385844 C120.922724,162.846125 125.376643,160.213661 129.397847,157.484044 L134.731454,153.827358 L137.802845,151.702174 L140.174492,150.047053 L141.94907,148.798606 L144.014112,147.332383 L145.90923,145.970731 L147.303176,144.956521 L148.893171,143.782427 L150.314065,142.712158 L151.329225,141.93052 L152.019787,141.387705 L152.393417,141.089171 L153.052589,140.552122 L153.651737,140.049346 C154.221918,139.562576 154.706759,139.122137 155.120346,138.712792 C155.612373,138.225812 156.034789,137.755587 156.420225,137.231372 L156.582408,137.006189 C156.741245,136.780749 156.889898,136.554148 157.027014,136.322832 L157.117,136.164 L157.435496,135.913856 L157.839397,135.607395 C157.911246,135.553817 157.98535,135.499001 158.06169,135.442966 L158.546437,135.092268 L159.08403,134.713195 L159.673629,134.306639 L161.012379,133.398909 C163.104626,131.955125 165.18154,130.331113 167.244754,128.528043 L167.627,128.189 L167.559023,130.573722 L167.458078,133.587565 L167.334387,136.837139 L167.138936,141.70469 L167.025244,144.82666 L166.922926,147.916011 L166.831984,150.972754 L166.752419,153.996897 C166.740107,154.498204 166.728269,154.998154 166.716905,155.496746 L166.654411,158.472006 C166.635478,159.45833 166.618441,160.439224 166.603302,161.41469 L166.563578,164.324805 C166.557906,164.807111 166.552709,165.28806 166.547986,165.767653 L166.525345,168.628934 C166.52252,169.103102 166.520171,169.575914 166.518296,170.04737 L166.512741,172.859837 L166.518582,175.639773 C166.526274,177.482222 166.541563,179.302989 166.564454,181.102088 L166.60449,183.784485 C166.642604,186.006275 166.692596,188.194217 166.754472,190.348334 L166.834428,192.917041 C166.891535,194.61869 166.956249,196.298697 167.028573,197.957075 L167.142766,200.428421 L167.268377,202.867332 L167.442881,205.915444 L167.533835,207.378934 L167.674947,209.498684 L167.821732,211.528086 L167.922773,212.830957 L168.026383,214.09387 L168.13258,215.316903 L168.29677,217.076848 L168.466889,218.747503 L168.643,220.329134 L168.763768,221.334227 L168.887247,222.299949 L169.013455,223.226379 L169.142412,224.113595 C169.164135,224.258201 169.185973,224.401176 169.207927,224.542523 C169.638869,227.317073 170.123977,229.543986 170.712437,231.313342 L170.824102,231.642186 C171.764728,234.353909 172.969504,236.350045 175.339706,237.665997 L175.516,237.759 L175.537868,237.833041 C176.488726,240.897685 178.639049,243.329235 181.575569,245.050953 C184.317969,246.658855 187.297599,247.5 190.395514,247.5 C194.211058,247.5 196.543699,245.586804 198.757994,242.518171 C199.973247,240.834038 201.216532,238.596737 202.574834,235.72364 C205.160249,230.254937 207.135834,224.590479 208.497988,218.738569 L210.34698,211.052277 L210.396944,210.865191 L210.470977,210.621744 L210.567742,210.327787 L210.686948,209.984808 L210.991515,209.15775 L211.276678,208.41986 L211.766,207.201 L211.839168,207.047889 C212.263166,206.131657 212.658581,205.055214 213.033052,203.803634 L213.235278,203.103496 L213.433625,202.368081 C213.531875,201.991465 213.628774,201.601418 213.724476,201.197638 L213.914332,200.371678 C213.977117,200.090194 214.039415,199.802517 214.101274,199.508557 L214.285577,198.607738 L214.467517,197.668681 L214.647369,196.69085 L214.825408,195.673705 L215.001911,194.616707 L215.177152,193.51932 L215.351408,192.381004 L215.524953,191.201221 L215.759077,189.534282 L215.945361,188.144207 L216.223171,185.965095 L216.407343,184.449442 L216.682121,182.081174 L216.955211,179.598655 L217.136383,177.879889 L217.406879,175.20569 L217.534459,173.898231 C217.802444,171.118456 218.043639,168.399286 218.258008,165.740625 L218.463435,163.10213 C218.496182,162.665741 218.528184,162.231032 218.55944,161.798002 L218.738028,159.219975 C219.246941,151.546331 219.514172,144.416533 219.538792,137.827955 L219.54,136.724 L220.219961,137.383441 L221.154728,138.268703 L222.185883,139.223966 L222.927366,139.900287 L224.121402,140.97487 L224.686709,141.478449 L225.845677,142.501001 L226.976643,143.485214 L228.079757,144.431159 C228.261296,144.585631 228.441682,144.738511 228.620916,144.889801 L229.682535,145.778471 L230.716679,146.629043 C230.886755,146.767634 231.055692,146.904641 231.223494,147.040064 L232.216707,147.83362 C232.543253,148.091815 232.865283,148.343688 233.182821,148.589252 L234.121987,149.307028 L235.034355,149.987017 C235.334028,150.20739 235.62926,150.421476 235.920076,150.629288 L236.537,151.065 L237.756205,152.050694 L239.698055,153.645118 L242.313137,155.821596 L245.758132,158.720551 L250.689219,162.90921 L253.874232,165.624182 L255.473279,166.973073 L256.971676,168.223158 L258.372768,169.376457 L259.361745,170.179131 L260.299283,170.929352 L261.471761,171.849526 L262.294769,172.480673 L263.071046,173.062208 L263.5633,173.422757 L264.264831,173.923502 L264.708562,174.23098 L265.133616,174.517672 L265.540411,174.78383 L265.929366,175.029707 L266.300899,175.255555 L266.655429,175.461627 L266.993375,175.648176 L267.315154,175.815454 L267.621185,175.963714 L268.066756,176.170662 L268.435004,176.355612 L269.033254,176.671605 L269.752183,177.065979 L270.817399,177.667636 L271.800295,178.234686 L272.897151,178.876844 L274.751583,179.978705 L276.850792,181.243896 L278.782079,182.420534 C278.916247,182.502635 279.051488,182.585463 279.187798,182.669016 C284.601071,186.079591 290.929276,189.50696 298.109305,192.917826 L300.048095,193.829685 L301.416389,194.464158 L302.711288,195.056207 L303.935729,195.606431 L305.092648,196.115426 L305.827866,196.432147 L306.878776,196.873758 L307.546041,197.146109 L308.187647,197.401023 L309.10385,197.751086 L309.685117,197.963181 L310.243771,198.158459 L310.780682,198.337096 L311.296721,198.49927 L311.792757,198.645158 C311.873811,198.668125 311.954068,198.690421 312.033546,198.71205 L312.501211,198.833841 C312.577645,198.852814 312.653337,198.871127 312.728304,198.888784 L313.169554,198.986877 C313.313836,199.016968 313.455364,199.044464 313.594283,199.069392 L314.003361,199.136508 C314.137208,199.156333 314.268592,199.17362 314.397657,199.1884 L314.778042,199.225247 C315.027189,199.244836 315.267642,199.254512 315.500561,199.254512 C318.506031,199.254512 321.939494,198.206912 326.343781,196.209074 L326.995603,195.909999 L327.150462,195.829521 C327.491272,195.652407 327.861873,195.473405 328.261966,195.292786 L328.884188,195.020678 C328.991566,194.975135 329.100778,194.9295 329.211819,194.883777 L329.899978,194.608407 C330.018317,194.562347 330.138477,194.516206 330.260451,194.46999 L331.014044,194.191814 L331.810979,193.912021 C332.220245,193.771754 332.645679,193.630955 333.087158,193.48974 L333.991468,193.206786 C334.145739,193.159546 334.301783,193.112267 334.459596,193.064955 L335.427659,192.780712 L336.437943,192.495862 L337.490226,192.210606 C337.669093,192.163041 337.849702,192.115468 338.032046,192.06789 L339.06271,191.803527 L339.993801,191.572182 L340.890189,191.356653 L341.751454,191.156885 L342.57718,190.97282 L343.366946,190.804403 L344.120334,190.651577 C344.242845,190.627402 344.363821,190.603874 344.483256,190.580993 L345.181294,190.451449 L345.841908,190.337356 L346.464679,190.238658 L347.049189,190.155298 C347.143396,190.14268 347.235991,190.130698 347.326966,190.119352 L347.8533,190.058895 L348.340327,190.013636 C348.496071,190.001076 348.645195,189.99104 348.787628,189.983518 L349.194784,189.968487 L349.67318,189.96519 L350.281398,189.953841 L350.927558,189.931164 L351.612045,189.897182 L352.711485,189.825062 L353.493483,189.762919 L354.315161,189.689551 L355.622927,189.558504 L356.545501,189.457176 L358.006421,189.284296 L359.032306,189.15515 L360.650007,188.940652 L361.425011,188.833891 L362.925794,188.531392 L363.72363,188.363406 L364.833557,188.117825 L365.518383,187.957167 L366.161315,187.797999 L366.764247,187.639496 C366.861507,187.613088 366.957179,187.586674 367.051303,187.560236 L367.597781,187.401186 C367.685869,187.374585 367.772488,187.347925 367.857676,187.32119 L368.351957,187.15974 C368.431582,187.132635 368.509856,187.105421 368.586818,187.078079 L369.03316,186.912375 C369.105032,186.884458 369.17567,186.85638 369.245115,186.828124 L369.647776,186.656311 C369.777432,186.598235 369.902628,186.539309 370.023681,186.479396 C373.770909,184.624747 375.5,181.030412 375.5,177.048668 C375.5,172.783613 373.163927,169.438303 369.479079,166.885019 L369.098779,166.628461 C366.291905,164.785509 363.09107,163.788932 359.639142,163.635634 L359.279,163.623 L359.016665,163.558075 L358.754666,163.489089 L358.054176,163.293006 L357.204557,163.041151 L356.27388,162.754146 L354.903247,162.317377 L353.346679,161.807343 L351.140929,161.067157 L347.659764,159.871138 L344.277795,158.686675 L341.039528,157.527408 L338.680711,156.658186 L337.461593,156.195027 L336.630513,155.870168 L335.77492,155.52252 L335.239271,155.292138 L335.021682,155.193139 L334.837886,155.105072 L334.617395,154.995942 L333.396061,154.501897 L330.171036,153.261164 L323.034203,150.579686 L322.590363,150.414045 C321.049289,149.84453 319.466549,149.224558 317.842246,148.554124 L316.439811,147.967107 C314.085462,146.968149 311.646354,145.866204 309.122788,144.661258 L307.598517,143.925929 C307.08705,143.6767 306.572207,143.42335 306.053991,143.16588 L304.489224,142.381109 C303.701783,141.982543 302.906757,141.574706 302.104155,141.157597 L300.488851,140.311019 C299.94705,140.024705 299.401885,139.734271 298.853357,139.439716 L297.197689,138.543688 C296.920064,138.39229 296.641599,138.239861 296.362294,138.086402 L294.67639,137.153286 C294.393728,136.995706 294.110226,136.837096 293.825886,136.677455 L292.109781,135.707249 L290.373559,134.712315 C290.082513,134.544432 289.79063,134.375518 289.497909,134.205575 L287.731539,133.173548 C287.435471,132.999483 287.138565,132.824387 286.840824,132.648261 L285.04434,131.57914 L283.227798,130.485288 C282.92337,130.300919 282.618107,130.115519 282.312009,129.929088 L280.465407,128.79814 L278.598783,127.642459 C278.286011,127.447785 277.972406,127.25208 277.657967,127.055344 L275.761338,125.862564 L273.844723,124.64505 C273.523623,124.44007 273.20169,124.234059 272.878926,124.027018 L270.93236,122.772402 L268.965846,121.49305 L261.90419,116.857442 L261.740348,116.752901 L261.064873,116.330738 L259.998779,115.652016 L259.252853,115.169246 L258.478815,114.662269 L257.676703,114.131107 L256.420984,113.289061 L254.648797,112.081879 L253.720836,111.44214 L252.276671,110.437407 L250.769952,109.378585 L248.663916,107.882808 L247.011751,106.698055 L244.712262,105.034627 L241.729374,102.855093 L237.733688,99.9072761 L235.114976,97.9563474 L232.692888,96.1347362 L231.334198,95.1040032 L230.046545,94.1200475 L228.440343,92.8810162 L226.960824,91.7254917 L225.289919,90.3988198 L224.38274,89.6657566 L223.901,89.272 L219.376,85.353 L219.831,79.197 L219.931783,78.3269268 L220.058712,77.2999324 L220.186682,76.3437158 C220.208079,76.1902936 220.229505,76.0398574 220.250955,75.8924254 L220.37987,75.0440328 L220.448,74.621 L221.530407,74.6094499 L223.039243,74.6099005 L223.856062,74.6168559 L225.159098,74.6357126 L227.041367,74.6765995 L229.088719,74.735509 L231.300609,74.8124723 L233.676493,74.9075208 L236.215825,75.0206857 C248.890051,75.6117922 260.439955,76.6648309 270.860744,78.176143 L294.580444,81.4634383 L301.872,75.633 L301.758597,75.7199133 C306.18989,72.3935315 308.939855,68.9489913 309.526594,64.6801119 L309.571389,64.3140006 C310.015393,60.1736846 308.300824,56.3346751 305.076,52.5080379 L304.9,52.303 L305.01092,52.4409069 C302.672336,49.4701033 300.128186,47.4006377 297.088984,46.4434073 L296.72366,46.332214 L296.321599,46.217192 L295.882257,46.0981737 L295.405088,45.9749913 L294.335084,45.7154633 L293.429225,45.508639 L292.432728,45.2907469 L290.565482,44.9014611 L287.973691,44.3879704 L287.166415,44.2322922 L285.826838,44.0934854 L285.109679,44.0114594 L283.956374,43.870382 L282.710266,43.7076719 L280.904965,43.4571011 L278.935973,43.1681362 L277.35225,42.9262383 L275.098574,42.5701715 L272.054231,42.0712416 C271.232315,41.9341357 270.445426,41.8112518 269.692527,41.7027485 L268.588543,41.5507989 C266.431043,41.2685497 264.5748,41.1164394 262.991852,41.0987484 L262.617612,41.0964931 C259.898109,41.0946946 257.722994,41.4243604 255.833493,42.5594689 L255.642,42.679 L255.033606,42.7661605 L254.540116,42.8266717 L253.993129,42.8862973 L253.074215,42.9735453 L252.03975,43.0574385 L251.29715,43.1104463 L250.116447,43.1849527 L248.841551,43.254514 L247.472667,43.3191046 L245.501647,43.3974493 L243.914269,43.4503429 L242.233597,43.4981811 L239.847936,43.5540576 L237.950384,43.5900011 L234.582118,43.6384721 L215.925,43.843 L215.911908,43.2212158 L215.904124,42.4913475 L215.903691,41.7519842 L215.915789,40.5604129 L215.932373,39.7112043 L215.955785,38.8182853 L216.003735,37.3972348 L216.091688,35.3507296 L216.145987,34.2627251 L216.240375,32.5501446 L216.387383,30.0709795 L216.453233,28.8195687 L216.509375,27.6003902 L216.555691,26.4131683 L216.592063,25.2576273 L216.618373,24.1334915 L216.6345,23.0404853 L216.640327,21.9783329 C216.640434,21.8038634 216.640106,21.6306679 216.639341,21.4587408 L216.629496,20.4423524 L216.609054,19.4561286 L216.577897,18.4997939 C216.571805,18.3428802 216.565261,18.1872004 216.558264,18.0327487 L216.510811,17.1207306 L216.452347,16.2379122 L216.382753,15.384018 C216.37022,15.2440974 216.357218,15.1053704 216.343745,14.9678313 L216.257233,14.1568064 C215.980617,11.7662218 215.54974,9.7568088 214.950194,8.09507234 L214.78496,7.63710141 L214.561904,7.20433655 C212.90913,3.99769124 210.479502,0.902178638 207.309301,-2.13132891 C203.313894,-5.95446021 199.564492,-8.04032121 195.249344,-7.42410955 Z" id="Path" fill="#000000" fill-rule="nonzero"></path>
    </g>
</svg>