<?xml version="1.0" encoding="UTF-8"?>
<svg width="1000px" height="1000px" viewBox="0 0 1000 1000" version="1.1" xmlns="http://www.w3.org/2000/svg" xmlns:xlink="http://www.w3.org/1999/xlink">
    <title>ji_char</title>
    <g id="ji_char" stroke="none" stroke-width="1" fill="none" fill-rule="evenodd">
        <g id="åˆ" transform="translate(39.000000, 0.000000)" fill="#000000" fill-rule="nonzero">
            <path d="M608.821652,606.242675 C639.393888,597.629968 659.579402,595.476791 669.378196,599.783145 C679.176989,604.089498 688.387855,618.77025 697.010793,643.825399 C702.498118,659.484867 704.261901,670.837981 702.302142,677.884742 C700.342383,684.931502 693.091276,694.71867 680.54882,707.246244 C675.061496,713.510032 662.715016,718.599359 643.509381,722.514226 C624.303746,726.429093 608.4297,727.603553 595.887245,726.037606 C586.480403,723.688686 568.842575,724.863146 542.97376,729.560986 C517.104945,734.258827 266.647783,738.56518 261.944363,742.480047 C249.401907,751.875728 235.683596,753.833162 220.78943,748.352348 C213.734299,745.220454 202.955626,736.21626 188.453411,721.339766 C173.951197,706.463271 166.70009,696.676103 166.70009,691.978263 C166.70009,684.148529 186.493653,671.816698 226.080778,654.98277 C265.667904,638.148841 550.028891,621.902143 608.821652,606.242675 Z M387.589837,145.854314 C440.111371,134.892686 562.792265,133.326739 567.495686,141.156473 C570.6313,144.288367 577.686431,147.420261 588.66108,150.552154 C602.771343,152.118101 615.509774,158.969118 626.876374,171.105206 C638.242975,183.241294 643.926275,194.398665 643.926275,204.577319 C643.926275,215.538947 633.539554,231.002671 612.766112,250.968493 C591.99267,270.934315 580.822045,285.22358 579.254238,293.836287 C574.550817,307.929808 562.204337,326.525427 542.214799,349.623142 C522.22526,372.720858 502.431697,392.099449 482.83411,407.758917 C465.588234,418.720545 456.965295,425.571562 456.965295,428.311969 C456.965295,431.052376 465.980185,432.42258 484.009965,432.42258 C508.310973,432.42258 724.055464,435.162986 766.386251,440.6438 C808.717039,446.124614 840.46513,452.388401 861.630524,459.435162 C871.037366,461.784082 879.464328,466.481923 886.911411,473.528683 C894.358494,480.575444 898.082036,487.230718 898.082036,493.494505 C898.082036,497.409372 900.825698,500.345522 906.313022,502.302956 C911.800347,504.260389 916.307792,514.2433 919.835357,532.251689 C923.362923,550.260077 922.57902,564.157855 917.483647,573.945022 C912.388274,583.73219 908.664733,598.412941 906.313022,617.987276 C903.961312,637.561611 901.413626,654.39554 898.669964,668.489061 C895.926301,682.582582 891.026905,713.510032 883.971773,761.271409 C876.916642,809.032787 870.84139,838.198546 865.746017,848.768687 C860.650645,859.338828 856.1432,872.453633 852.223682,888.113101 C832.626095,957.797734 805.581425,994.98897 771.089672,999.686811 C757.763313,1001.25276 746.004761,996.946404 735.814016,986.767749 L721.703753,972.674228 L270.175349,972.674228 C204.327457,972.674228 158.077152,976.197609 131.424433,983.244369 C100.068294,990.29113 80.2747313,994.205997 72.0437447,994.98897 C63.8127582,995.771944 54.6018923,992.64005 44.4111471,985.593289 C32.6525949,976.980582 25.7934395,968.759361 23.8336808,960.929627 C21.8739221,953.099893 19.7181875,949.185026 17.3664771,949.185026 C4.82402141,949.185026 12.2711045,941.355292 39.7077262,925.695824 C64.7926376,910.819329 99.8723183,897.313038 144.946768,885.17695 C190.021218,873.040863 236.467499,864.623898 284.285612,859.926058 C307.802716,857.577138 675.453448,855.423961 681.724676,853.466527 C687.995903,851.509094 691.131517,848.181457 691.131517,843.483617 C691.131517,838.002803 693.87518,829.390095 699.362504,817.645494 C711.121056,796.505212 719.352043,778.105337 724.055464,762.445869 C727.191077,747.569375 730.914619,727.212066 735.226088,701.373944 C739.537557,675.535821 743.653051,657.527433 747.572568,647.348779 C752.275989,636.387151 756.391482,611.332002 759.919048,572.183332 C763.446613,533.034662 763.642589,511.89438 760.506975,508.762486 C755.803554,504.064646 374.434512,501.128496 321.912979,499.954036 C269.391446,498.779576 229.412368,500.149779 201.975746,504.064646 C150.238117,510.328433 111.826846,520.898574 86.741935,535.775069 C71.8477689,545.17075 56.7576269,547.323927 41.4715091,542.234599 C26.1853912,537.145272 13.8389114,525.596415 4.43206967,507.588026 C-1.05525468,497.409372 -1.44720642,491.145585 3.25621445,488.796665 C18.934284,477.052064 42.4513884,465.698949 73.8075276,454.737322 C105.163667,443.775694 298.224841,438.29488 312.335103,438.29488 C323.309752,438.29488 334.872329,433.59704 347.022832,424.201359 C359.173336,414.805678 379.750803,394.839856 408.755231,364.303893 C426.001108,346.295505 439.327467,330.83178 448.734309,317.912719 C458.141151,304.993658 469.899703,284.440606 484.009965,256.253564 C494.984614,235.113282 500.079987,222.389964 499.296083,218.08361 C498.51218,213.777257 395.428872,210.841106 378.182996,209.275159 C360.153216,206.926239 347.022832,201.053939 338.791846,191.658258 C330.560859,182.262577 326.445366,176.390277 326.445366,174.041356 C326.445366,163.079729 346.826857,153.684048 387.589837,145.854314 Z M146.316907,221.97296 C151.804231,216.492146 164.934615,199.853961 185.708057,172.058405 C206.481499,144.26285 216.86822,129.190612 216.86822,126.841691 C216.86822,124.492771 222.943472,115.488577 235.093976,99.829109 C247.24448,84.1696409 257.043273,68.3144295 264.490356,52.2634747 C271.937439,36.2125199 280.168426,23.4892021 289.183316,14.0935213 C298.198206,4.69784042 305.449313,0 310.936637,0 C316.423962,0 330.926176,12.5275745 354.443281,37.5827234 C369.337447,55.5911117 378.940264,67.7271994 383.251733,73.9909867 C387.563203,80.2547739 389.718937,89.258968 389.718937,101.003569 C390.502841,126.058718 379.528192,141.326699 356.794991,146.807513 C346.604246,149.156433 321.519334,168.730769 281.540257,205.530519 C260.374863,224.32188 245.480697,236.457968 236.857759,241.938782 C212.556751,258.381223 188.647695,275.215151 165.13059,292.440566 C147.10081,307.317061 131.030789,318.474432 116.920526,325.912679 C102.810264,333.350927 85.956339,342.942351 66.358752,354.686952 C42.0577442,369.563447 29.9072402,373.8698 29.9072402,367.606013 C30.6911437,365.257093 32.2589507,362.908173 34.6106611,360.559252 C84.7804838,292.440566 122.015899,246.245136 146.316907,221.97296 Z"></path>
        </g>
    </g>
</svg>