<?xml version="1.0" encoding="UTF-8"?>
<svg width="260px" height="145px" viewBox="0 0 260 145" version="1.1" xmlns="http://www.w3.org/2000/svg" xmlns:xlink="http://www.w3.org/1999/xlink">
    <title>ji_s</title>
    <g id="ji_s" stroke="none" stroke-width="1" fill="none" fill-rule="evenodd">
        <path d="M159.423219,86.7211821 L158.678345,87.6808215 C156.561827,90.4075834 155.264665,92.8543623 155.013266,96.0343154 L154.991915,96.3557249 C154.671119,102.3257 158.685554,106.625384 163.819535,107.777884 L163.962,107.808 L164.215931,107.871803 C168.095622,108.802081 171.530811,107.8311 176.03437,105.50228 L176.865309,105.064017 L177.721813,104.596554 L178.508446,104.153435 C178.641892,104.077045 178.776511,103.999386 178.912307,103.920455 L179.741242,103.431601 L180.598634,102.912155 L181.484684,102.362035 L182.399597,101.781159 L183.343576,101.169446 L184.316824,100.526814 L185.319544,99.8531803 L186.35194,99.148464 L187.414216,98.4125831 L188.506574,97.6454559 L189.629218,96.8470006 L190.782351,96.0171353 L192.155624,95.0172157 L193.277953,94.1178039 L194.129522,93.4468918 L194.890975,92.858472 L195.560218,92.3538354 L195.954118,92.0645948 L196.348,91.783 L196.665745,91.6581493 C196.873231,91.5726156 197.074004,91.4829536 197.274167,91.3883044 C197.757877,91.1595776 198.235307,90.9016836 198.764184,90.5941082 L199.531359,90.1352199 L200.102955,89.7803218 L200.725227,89.3849237 L201.758451,88.7134103 L202.971497,87.9083892 L204.70489,86.7371665 L206.266264,85.6676156 L208.901324,83.8411508 L211.410202,82.0832243 C221.785147,74.5748835 230.115903,67.0490222 236.395648,59.4466991 L237.196154,58.4649833 L237.786491,57.5926551 L238.469293,56.5695064 C238.580741,56.4010403 238.691014,56.2335944 238.800113,56.067155 L239.440625,55.0804865 C239.649438,54.7555498 239.853565,54.4345293 240.053014,54.1173152 L240.637337,53.1769827 C241.017543,52.557561 241.379076,51.9529262 241.722012,51.3622006 L242.222477,50.4864342 C244.492977,46.447182 245.854054,43.0679692 246.331604,40.0476982 C247.191637,34.6084223 247.191637,29.8017182 246.184391,25.5548342 L246.099649,25.1975325 L245.988929,24.8474085 C244.729869,20.8659436 242.977728,17.43598 240.651238,14.6063855 L240.469506,14.3884369 C240.098072,13.9490089 239.678697,13.4882529 239.209324,13.0035835 L238.723208,12.5108472 L238.203303,12.0015941 L237.649152,11.4752495 C237.553914,11.3860692 237.45723,11.2961529 237.359091,11.2054884 L236.752712,10.6524296 C236.648713,10.5587251 236.543239,10.4642486 236.436281,10.3689882 L235.776647,9.78792223 L235.080938,9.18746675 C234.961955,9.08574312 234.841449,8.98318765 234.719412,8.87978838 L233.968733,8.2491713 L233.180836,7.59772831 L232.355264,6.92488487 L231.045264,5.87423704 L230.123504,5.14537883 L229.197,4.42 L229.314665,4.51408282 C225.541411,1.45460141 222.278455,-0.592677616 219.090353,-1.64284227 C216.457758,-2.51002238 213.149632,-2.90985318 208.811694,-3.006393 L207.705551,-3.02430433 L206.440708,-3.03014819 L205.356095,-3.00357996 L203.386828,-2.94474135 L201.378745,-2.87130618 C200.702911,-2.84439567 200.020603,-2.81505335 199.331817,-2.78328019 L197.246018,-2.68066912 L195.121323,-2.56347872 C194.763964,-2.54273236 194.404983,-2.52137877 194.04438,-2.49941806 L191.86129,-2.36036942 C191.494195,-2.33598074 191.125477,-2.31098518 190.755135,-2.28538287 L188.513589,-2.12448891 L186.23304,-1.94903857 L183.913461,-1.75903761 L181.554826,-1.55449175 L179.157109,-1.33540675 C178.754231,-1.2976813 178.349723,-1.2593503 177.943586,-1.22041386 L175.487195,-0.979530897 L172.991655,-0.72412314 L170.456939,-0.454196329 L168.45673,-0.236872045 L166.786399,-0.0768587171 L164.831548,0.0822071613 L161.698389,0.297550931 L158.546107,0.488091851 L152.10842,0.842141949 L117.775818,2.59581759 L110.347712,3.0067711 L106.320967,3.24590855 L102.257512,3.50570778 L99.0387373,3.73087883 L96.1696921,3.95292667 L94.2356785,4.11874089 L92.4791776,4.28497131 L90.8919565,4.45254921 L89.6926435,4.59389866 L88.811,4.708 L89.115823,3.90087009 C89.8736123,1.84557388 90.3918051,0.0681154619 90.5144495,-1.13847468 L90.5573211,-1.61350684 C90.9826035,-7.00364786 89.3512011,-12.6144353 86.0267245,-18.6067284 L85.873,-18.88 L85.4531006,-19.7154368 C85.364004,-19.8907474 85.2753765,-20.0640849 85.1871911,-20.23547 L84.6631694,-21.2405179 L84.1484654,-22.199705 C81.851321,-26.4143545 79.797888,-29.2662478 77.457398,-31.1639959 C74.2500735,-33.7646026 69.9230604,-35.1415187 63.8184723,-36.1067308 C59.2950647,-36.8219384 54.9637373,-35.4430713 51.5185016,-32.4430811 C48.958311,-30.2137571 46.9919174,-27.2270477 45.365762,-23.5033045 L44.8665016,-22.3600451 L44.5521439,-20.4597649 L44.3066206,-19.0184282 C44.2657551,-18.7826184 44.2249182,-18.5490176 44.1841114,-18.3176294 L43.9396442,-16.9558809 L43.6959737,-15.647411 L43.4531741,-14.3923955 C43.4127842,-14.1876906 43.3724336,-13.9852203 43.332124,-13.7849882 L43.0907696,-12.6104841 L42.8504712,-11.4898741 L42.6113031,-10.423334 C42.5317771,-10.0768518 42.4524517,-9.73941061 42.3733394,-9.41103967 L42.229,-8.828 L41.9590461,-8.08195572 L41.1814341,-6.03771254 L39.6750699,-2.17900079 L37.4311282,3.47413384 L34.7002408,10.2569211 L32.6844293,15.1987346 L31.0840883,19.0786553 L30.0821538,21.4840782 L28.6962098,24.77253 L28.0630053,26.2553869 L27.0424963,28.6081967 L26.338137,30.1925355 L25.8625487,31.23188 L25.5,31.993 L25.2647718,32.2827637 C24.0670952,33.7863289 23.1564164,35.3797606 22.1994121,37.4181558 L21.7608816,38.3783641 L20.7591023,40.5856606 L20.7161826,40.6768681 C20.2967302,41.5605316 19.9082419,42.2905836 19.4729093,42.998019 L18.9478143,43.8562665 L18.4511542,44.6791717 L17.9825858,45.4687581 L17.5417661,46.2270496 L17.1283519,46.9560698 C17.0617143,47.0752463 16.9962043,47.1932875 16.9318147,47.3102355 L16.5588655,47.999143 L16.2124641,48.6638384 C16.1569238,48.7727157 16.1024754,48.8806685 16.0491117,48.9877389 L15.7418887,49.6199104 C14.515552,52.2126511 13.9582269,54.306616 13.9582269,56.5605519 C13.9582269,61.6036611 16.8735087,65.7009295 21.2276296,67.7407554 C25.0016289,69.5088049 28.9795441,69.3264981 32.8565341,67.8669723 C34.9952533,67.0618333 37.0113627,66.028537 38.8905433,64.7719493 L39.4364367,64.401196 L40.3118918,63.8559676 L50.3282324,57.7700954 L51.0779456,57.3067925 L52.2994311,56.5401722 L53.4688622,55.7956164 L54.537316,55.1048752 L55.0481746,54.7710732 L56.0356822,54.1183191 L56.9783742,53.4841117 C57.131808,53.3798725 57.2834143,53.2763434 57.4332132,53.1734931 L58.3104753,52.5642861 C58.4531237,52.4640257 58.5940044,52.3643813 58.7331375,52.2653218 L59.5471221,51.677732 C61.398227,50.321894 62.9145873,49.0683985 64.1508909,47.8312818 L64.274,47.705 L65.1340284,48.7453828 L65.9565239,49.7223519 L66.7537797,50.6509169 C67.5385746,51.5553954 68.2862256,52.3877872 68.9988801,53.1496506 L69.6999487,53.8880623 C69.8148757,54.0072319 69.9288505,54.1244568 70.041883,54.2397442 L70.7088499,54.9082768 C70.927456,55.1234095 71.1423724,55.33085 71.3536787,55.530656 C72.7599051,56.8603487 74.0753386,57.9240514 75.4211273,58.7547917 C77.9101546,60.2912404 80.5045102,61.1502067 83.734342,60.6859549 L84.0632044,60.6355698 C89.0748099,59.8199443 93.1245508,56.9603611 94.9531635,52.643845 L95.088,52.308 L95.5053438,52.1504275 L96.1155453,51.9316431 L96.7851952,51.7053359 C96.9017025,51.667041 97.0206457,51.6284702 97.1420041,51.589642 L97.8989718,51.3537352 C98.1608452,51.2741702 98.4322145,51.1937258 98.7129149,51.1125517 L99.5828444,50.8669899 L99.7016039,50.8385839 L99.8603488,50.8077557 L100.42673,50.7209218 L101.22496,50.6217286 L102.021808,50.5348096 L103.733612,50.3697831 L105.818937,50.1929851 L108.242388,50.0098636 L110.561922,49.8519991 L113.075162,49.6965039 L116.7172,49.4908402 L120.018116,49.3196619 L123.569203,49.1478476 L129.791085,48.8696917 L140.872138,48.4216949 L164.75934,47.5153237 L168.461971,47.3520922 L171.291254,47.2001807 L172.256,47.134 L174.765082,47.0119907 L176.592774,46.9356118 L178.301021,46.8762946 L179.889236,46.8339883 L181.356832,46.8086419 C181.513176,46.8067659 181.667275,46.8052031 181.819125,46.8039531 L182.297,46.801 L182.012257,47.5509484 L181.471058,48.9443976 L180.548075,51.2705687 L179.854652,52.9773523 L179.23719,54.46105 L178.702362,55.7099837 L178.513062,56.1412074 L178.179038,56.882373 L177.969204,57.3291828 L177.86,57.552 C175.806981,60.0524709 173.817826,63.5709727 171.591944,68.3723667 L170.791286,70.1172798 C168.869915,74.2239755 166.208394,78.596627 162.79496,83.2169577 L162.419,83.72 L162.107845,84.0906396 L161.673343,84.5939487 L161.276611,85.0390416 C161.213705,85.1083204 161.152426,85.1751347 161.092799,85.2394649 L160.784763,85.5648938 L160.55065,85.8005251 L160.370194,85.9722062 L159.423219,86.7211821 Z" id="Path" fill="#000000" fill-rule="nonzero"></path>
    </g>
</svg>