<?xml version="1.0" encoding="UTF-8"?>
<svg width="260px" height="145px" viewBox="0 0 260 145" version="1.1" xmlns="http://www.w3.org/2000/svg" xmlns:xlink="http://www.w3.org/1999/xlink">
    <title>ji_s</title>
    <g id="ji_s" stroke="none" stroke-width="1" fill="none" fill-rule="evenodd">
        <path d="M159.423219,106.721182 L158.678345,107.680821 C156.561827,110.407583 155.264665,112.854362 155.013266,116.034315 L154.991915,116.355725 C154.671119,122.3257 158.685554,126.625384 163.819535,127.777884 L163.962,127.808 L164.215931,127.871803 C168.095622,128.802081 171.530811,127.8311 176.03437,125.50228 L176.865309,125.064017 L177.721813,124.596554 L178.508446,124.153435 C178.641892,124.077045 178.776511,123.999386 178.912307,123.920455 L179.741242,123.431601 L180.598634,122.912155 L181.484684,122.362035 L182.399597,121.781159 L183.343576,121.169446 L184.316824,120.526814 L185.319544,119.85318 L186.35194,119.148464 L187.414216,118.412583 L188.506574,117.645456 L189.629218,116.847001 L190.782351,116.017135 L192.155624,115.017216 L193.277953,114.117804 L194.129522,113.446892 L194.890975,112.858472 L195.560218,112.353835 L195.954118,112.064595 L196.348,111.783 L196.665745,111.658149 C196.873231,111.572616 197.074004,111.482954 197.274167,111.388304 C197.757877,111.159578 198.235307,110.901684 198.764184,110.594108 L199.531359,110.13522 L200.102955,109.780322 L200.725227,109.384924 L201.758451,108.71341 L202.971497,107.908389 L204.70489,106.737166 L206.266264,105.667616 L208.901324,103.841151 L211.410202,102.083224 C221.785147,94.5748835 230.115903,87.0490222 236.395648,79.4466991 L237.196154,78.4649833 L237.786491,77.5926551 L238.469293,76.5695064 C238.580741,76.4010403 238.691014,76.2335944 238.800113,76.067155 L239.440625,75.0804865 C239.649438,74.7555498 239.853565,74.4345293 240.053014,74.1173152 L240.637337,73.1769827 C241.017543,72.557561 241.379076,71.9529262 241.722012,71.3622006 L242.222477,70.4864342 C244.492977,66.447182 245.854054,63.0679692 246.331604,60.0476982 C247.191637,54.6084223 247.191637,49.8017182 246.184391,45.5548342 L246.099649,45.1975325 L245.988929,44.8474085 C244.729869,40.8659436 242.977728,37.43598 240.651238,34.6063855 L240.469506,34.3884369 C240.098072,33.9490089 239.678697,33.4882529 239.209324,33.0035835 L238.723208,32.5108472 L238.203303,32.0015941 L237.649152,31.4752495 C237.553914,31.3860692 237.45723,31.2961529 237.359091,31.2054884 L236.752712,30.6524296 C236.648713,30.5587251 236.543239,30.4642486 236.436281,30.3689882 L235.776647,29.7879222 L235.080938,29.1874667 C234.961955,29.0857431 234.841449,28.9831877 234.719412,28.8797884 L233.968733,28.2491713 L233.180836,27.5977283 L232.355264,26.9248849 L231.045264,25.874237 L230.123504,25.1453788 L229.197,24.42 L229.314665,24.5140828 C225.541411,21.4546014 222.278455,19.4073224 219.090353,18.3571577 C216.457758,17.4899776 213.149632,17.0901468 208.811694,16.993607 L207.705551,16.9756957 L206.440708,16.9698518 L205.356095,16.99642 L203.386828,17.0552586 L201.378745,17.1286938 C200.702911,17.1556043 200.020603,17.1849466 199.331817,17.2167198 L197.246018,17.3193309 L195.121323,17.4365213 C194.763964,17.4572676 194.404983,17.4786212 194.04438,17.5005819 L191.86129,17.6396306 C191.494195,17.6640193 191.125477,17.6890148 190.755135,17.7146171 L188.513589,17.8755111 L186.23304,18.0509614 L183.913461,18.2409624 L181.554826,18.4455082 L179.157109,18.6645933 C178.754231,18.7023187 178.349723,18.7406497 177.943586,18.7795861 L175.487195,19.0204691 L172.991655,19.2758769 L170.456939,19.5458037 L168.45673,19.763128 L166.786399,19.9231413 L164.831548,20.0822072 L161.698389,20.2975509 L158.546107,20.4880919 L152.10842,20.8421419 L117.775818,22.5958176 L110.347712,23.0067711 L106.320967,23.2459085 L102.257512,23.5057078 L99.0387373,23.7308788 L96.1696921,23.9529267 L94.2356785,24.1187409 L92.4791776,24.2849713 L90.8919565,24.4525492 L89.6926435,24.5938987 L88.811,24.708 L89.115823,23.9008701 C89.8736123,21.8455739 90.3918051,20.0681155 90.5144495,18.8615253 L90.5573211,18.3864932 C90.9826035,12.9963521 89.3512011,7.38556473 86.0267245,1.39327156 L85.873,1.12 L85.4531006,0.284563175 C85.364004,0.109252552 85.2753765,-0.0640849227 85.1871911,-0.235470009 L84.6631694,-1.24051794 L84.1484654,-2.199705 C81.851321,-6.41435453 79.797888,-9.26624776 77.457398,-11.1639959 C74.2500735,-13.7646026 69.9230604,-15.1415187 63.8184723,-16.1067308 C59.2950647,-16.8219384 54.9637373,-15.4430713 51.5185016,-12.4430811 C48.958311,-10.2137571 46.9919174,-7.22704774 45.365762,-3.50330454 L44.8665016,-2.36004508 L44.5521439,-0.459764876 L44.3066206,0.981571793 C44.2657551,1.21738155 44.2249182,1.45098237 44.1841114,1.68237056 L43.9396442,3.04411907 L43.6959737,4.35258898 L43.4531741,5.60760445 C43.4127842,5.81230939 43.3724336,6.01477973 43.332124,6.21501182 L43.0907696,7.3895159 L42.8504712,8.51012592 L42.6113031,9.57666601 C42.5317771,9.92314818 42.4524517,10.2605894 42.3733394,10.5889603 L42.229,11.172 L41.9590461,11.9180443 L41.1814341,13.9622875 L39.6750699,17.8209992 L37.4311282,23.4741338 L34.7002408,30.2569211 L32.6844293,35.1987346 L31.0840883,39.0786553 L30.0821538,41.4840782 L28.6962098,44.77253 L28.0630053,46.2553869 L27.0424963,48.6081967 L26.338137,50.1925355 L25.8625487,51.23188 L25.5,51.993 L25.2647718,52.2827637 C24.0670952,53.7863289 23.1564164,55.3797606 22.1994121,57.4181558 L21.7608816,58.3783641 L20.7591023,60.5856606 L20.7161826,60.6768681 C20.2967302,61.5605316 19.9082419,62.2905836 19.4729093,62.998019 L18.9478143,63.8562665 L18.4511542,64.6791717 L17.9825858,65.4687581 L17.5417661,66.2270496 L17.1283519,66.9560698 C17.0617143,67.0752463 16.9962043,67.1932875 16.9318147,67.3102355 L16.5588655,67.999143 L16.2124641,68.6638384 C16.1569238,68.7727157 16.1024754,68.8806685 16.0491117,68.9877389 L15.7418887,69.6199104 C14.515552,72.2126511 13.9582269,74.306616 13.9582269,76.5605519 C13.9582269,81.6036611 16.8735087,85.7009295 21.2276296,87.7407554 C25.0016289,89.5088049 28.9795441,89.3264981 32.8565341,87.8669723 C34.9952533,87.0618333 37.0113627,86.028537 38.8905433,84.7719493 L39.4364367,84.401196 L40.3118918,83.8559676 L50.3282324,77.7700954 L51.0779456,77.3067925 L52.2994311,76.5401722 L53.4688622,75.7956164 L54.537316,75.1048752 L55.0481746,74.7710732 L56.0356822,74.1183191 L56.9783742,73.4841117 C57.131808,73.3798725 57.2834143,73.2763434 57.4332132,73.1734931 L58.3104753,72.5642861 C58.4531237,72.4640257 58.5940044,72.3643813 58.7331375,72.2653218 L59.5471221,71.677732 C61.398227,70.321894 62.9145873,69.0683985 64.1508909,67.8312818 L64.274,67.705 L65.1340284,68.7453828 L65.9565239,69.7223519 L66.7537797,70.6509169 C67.5385746,71.5553954 68.2862256,72.3877872 68.9988801,73.1496506 L69.6999487,73.8880623 C69.8148757,74.0072319 69.9288505,74.1244568 70.041883,74.2397442 L70.7088499,74.9082768 C70.927456,75.1234095 71.1423724,75.33085 71.3536787,75.530656 C72.7599051,76.8603487 74.0753386,77.9240514 75.4211273,78.7547917 C77.9101546,80.2912404 80.5045102,81.1502067 83.734342,80.6859549 L84.0632044,80.6355698 C89.0748099,79.8199443 93.1245508,76.9603611 94.9531635,72.643845 L95.088,72.308 L95.5053438,72.1504275 L96.1155453,71.9316431 L96.7851952,71.7053359 C96.9017025,71.667041 97.0206457,71.6284702 97.1420041,71.589642 L97.8989718,71.3537352 C98.1608452,71.2741702 98.4322145,71.1937258 98.7129149,71.1125517 L99.5828444,70.8669899 L99.7016039,70.8385839 L99.8603488,70.8077557 L100.42673,70.7209218 L101.22496,70.6217286 L102.021808,70.5348096 L103.733612,70.3697831 L105.818937,70.1929851 L108.242388,70.0098636 L110.561922,69.8519991 L113.075162,69.6965039 L116.7172,69.4908402 L120.018116,69.3196619 L123.569203,69.1478476 L129.791085,68.8696917 L140.872138,68.4216949 L164.75934,67.5153237 L168.461971,67.3520922 L171.291254,67.2001807 L172.256,67.134 L174.765082,67.0119907 L176.592774,66.9356118 L178.301021,66.8762946 L179.889236,66.8339883 L181.356832,66.8086419 C181.513176,66.8067659 181.667275,66.8052031 181.819125,66.8039531 L182.297,66.801 L182.012257,67.5509484 L181.471058,68.9443976 L180.548075,71.2705687 L179.854652,72.9773523 L179.23719,74.46105 L178.702362,75.7099837 L178.513062,76.1412074 L178.179038,76.882373 L177.969204,77.3291828 L177.86,77.552 C175.806981,80.0524709 173.817826,83.5709727 171.591944,88.3723667 L170.791286,90.1172798 C168.869915,94.2239755 166.208394,98.596627 162.79496,103.216958 L162.419,103.72 L162.107845,104.09064 L161.673343,104.593949 L161.276611,105.039042 C161.213705,105.10832 161.152426,105.175135 161.092799,105.239465 L160.784763,105.564894 L160.55065,105.800525 L160.370194,105.972206 L159.423219,106.721182 Z" id="Path" fill="#000000" fill-rule="nonzero"></path>
    </g>
</svg>