<?xml version="1.0" encoding="UTF-8"?>
<svg width="800px" height="470px" viewBox="0 0 800 470" version="1.1" xmlns="http://www.w3.org/2000/svg" xmlns:xlink="http://www.w3.org/1999/xlink">
    <title>ki</title>
    <g id="ki" stroke="none" stroke-width="1" fill="none" fill-rule="evenodd">
        <path d="M144.78717,-47.5971309 L146.222034,-47.6571171 L148.269512,-47.7322909 L149.66552,-47.7772522 L151.086365,-47.8180911 L153.264234,-47.8716227 L154.747237,-47.9021607 L156.255131,-47.9285804 L157.787929,-47.9508828 L159.345649,-47.9690691 L160.928305,-47.9831403 L162.535912,-47.9930976 L164.168486,-48 L166.664194,-48 L168.359253,-48 L170.079332,-47.9870262 L171.824447,-47.9743772 L174.489096,-47.9477041 C174.788302,-47.9442273 175.088552,-47.9405794 175.389847,-47.9367605 L178.129731,-47.8977735 L180.926101,-47.8495556 L182.821755,-47.8122838 L185.712384,-47.7486893 L188.659638,-47.675874 L191.663569,-47.5938415 L194.724227,-47.5025958 L196.796208,-47.4366486 L199.951529,-47.3300558 L204.247091,-47.1736167 L207.535181,-47.0455557 L210.880258,-46.9083004 L214.282375,-46.7618545 L217.741582,-46.6062219 L221.257932,-46.4414064 C224.957205,-45.7033044 229.101344,-45.1137884 233.690348,-44.6728582 L233.88469,-44.6266158 L235.861292,-44.1381887 L238.383014,-43.5059659 L240.775777,-42.8950326 L242.486404,-42.4505152 L244.656223,-41.8756841 L246.200947,-41.4576923 L247.675368,-41.0507313 L248.619495,-40.7854523 L249.532731,-40.5249258 L250.844975,-40.1429161 L252.088514,-39.7712625 L252.879606,-39.5291468 L253.640518,-39.2914838 L254.371391,-39.0582136 L255.072367,-38.8292763 L255.743588,-38.6046117 L256.385196,-38.38416 L256.997333,-38.1678612 L257.580141,-37.9556552 C257.769538,-37.8855954 257.95407,-37.8162077 258.133762,-37.7474822 L258.658337,-37.5432822 C258.743354,-37.5095766 258.827167,-37.476034 258.909778,-37.4426533 L259.15401,-37.3429951 C262.387367,-36.0103949 264.8282,-34.5158137 266.381183,-32.5700665 C268.619612,-29.7655179 268.417182,-26.5615631 265.872458,-23.9009394 L265.677214,-23.702426 L265.474462,-23.5018763 L265.245385,-23.3060357 L265.174442,-23.2022311 L265.075247,-23.0383986 L264.991975,-22.8880038 L264.897951,-22.704527 C264.881525,-22.6711839 264.864757,-22.6364572 264.847699,-22.6003444 C264.521153,-21.9090117 264.235843,-20.9861171 264.017306,-19.846853 L263.964078,-19.5575381 C263.34154,-16.0270871 262.348942,-8.24685792 260.964823,-5.37875175 L260.716498,-4.87602744 C259.782836,-3.02898478 259.20876,-1.20542257 258.98442,0.604279946 L258.935615,1.0564224 C258.855024,1.93329632 258.710903,2.60918527 258.286204,3.43353665 C258.021775,3.94679799 257.671015,4.43554192 257.241214,4.89017133 L257.019761,5.11459873 L256.979124,5.15252089 L256.858724,5.6593522 L256.743329,6.19587052 L256.583838,7.01371064 L256.418323,7.95050403 L256.290505,8.73236347 L256.159743,9.5830999 L255.808553,12.0497393 L255.722643,12.6076857 L255.6366,13.1294553 L255.506858,13.846289 L255.419627,14.2816382 L255.331579,14.684028 L255.242519,15.0543775 C255.095032,15.6379169 254.933294,16.1407343 254.72184,16.6186974 L254.614291,16.8508395 L254.496796,17.0814776 L254.416067,17.2243376 L254.732449,23.5894884 L254.982763,29.1923841 L255.1074,32.3001483 L255.243763,36.147875 L255.323664,38.8119154 L255.375597,40.886886 L255.425919,43.570487 L255.445871,45.3293625 L255.452494,46.9516563 C255.452494,52.4043393 254.762593,57.7808887 253.382129,63.0772604 C252.737432,65.5507435 252.017332,67.7099833 251.173191,69.5854313 L250.990388,69.9829804 L250.93263,70.1017844 L445.460272,70.0529243 L495.67561,70.048347 L646.79709,70.0654842 L717.755716,70.1209099 L722.169363,70.1366488 L722.692968,70.1411777 L722.90233,70.1451805 L726.015875,70.2217245 L728.232551,70.2701571 L731.029392,70.3227824 L733.007466,70.3532984 L734.882625,70.3761498 L736.075361,70.38713 L737.222066,70.3947098 L738.855557,70.3997092 L740.152142,70.3980706 L741.129149,70.3929445 L742.501121,70.3790078 L743.759522,70.3577402 L744.534624,70.3395817 L745.258145,70.3183039 L745.929643,70.2939622 C746.037199,70.289653 746.14257,70.2852185 746.245745,70.2806597 L746.83838,70.2518264 L747.331216,70.223054 L747.719258,70.1963502 L747.976241,70.1756706 L748.082446,70.1398162 C753.671646,68.2881717 760.297669,68.4358182 767.855898,70.0526838 L768.36116,70.1626456 L769.018563,70.311022 L769.18693,70.3539995 C777.850908,72.5655815 785.326577,75.9140238 791.507735,80.3605881 C795.18747,83.0076933 797.329159,87.3325713 798.656732,92.9408526 L798.832787,93.7135361 L798.999157,94.5019074 C799.026101,94.6345976 799.052658,94.7679322 799.078838,94.9019065 L799.231446,95.7133928 L799.373476,96.5297327 C799.39605,96.6649952 799.418069,96.7998463 799.439524,96.9342647 L799.561415,97.7354108 C799.580578,97.8680125 799.599158,98.0001387 799.617147,98.1317678 L799.717912,98.9154076 C799.749086,99.1745186 799.777821,99.4314704 799.804044,99.6860917 L799.875105,100.442792 C799.885668,100.567687 799.895585,100.691956 799.904846,100.815578 L799.952478,101.549376 C800.104358,104.331202 799.899873,106.748175 799.227829,108.539778 L799.13751,108.769897 L799.086319,108.887419 L799.027191,109.318238 L798.976181,109.755451 L798.89805,110.534948 L798.77805,111.973845 L798.675992,113.414697 L798.523798,115.915023 L798.352364,119.209206 L798.197606,122.591878 L797.720569,135.169393 L797.25448,150.090749 L796.554973,175.486681 L795.635104,324.877468 L795.354184,334.231864 L795.136003,340.683427 L794.9897,344.385928 L794.851765,347.295541 L794.761573,348.875221 L794.670774,350.223155 L794.577638,351.387601 L794.466414,352.553514 L794.293463,354.520011 L794.147317,356.040714 L793.958706,357.812004 L793.841306,358.808086 L793.678587,360.061215 L793.551127,360.946594 L793.463237,361.511666 L793.326583,362.322513 L793.232007,362.83916 L793.134444,363.337142 L792.982109,364.050006 L792.876299,364.503096 L792.766877,364.938936 C792.748329,365.010161 792.729623,365.080684 792.710756,365.150513 L792.595582,365.561235 L792.476351,365.955716 L792.352885,366.33436 L792.225004,366.69757 L792.092531,367.045751 C792.070059,367.102552 792.047389,367.158742 792.024516,367.214332 L791.884819,367.540726 L791.740083,367.8531 C791.715531,367.904017 791.690761,367.954366 791.66577,368.004156 L791.513142,368.296257 C791.487252,368.343845 791.461133,368.390891 791.434783,368.437404 L791.27386,368.710141 C791.191976,368.843374 791.107935,368.971956 791.021636,369.096113 L790.885826,369.285058 L790.787491,369.536005 L790.699519,369.786924 L790.597809,370.103677 L790.493283,370.456779 L790.386361,370.845218 L790.277463,371.26798 L790.111332,371.964262 L789.95633,372.668307 L789.775004,373.555812 L789.592702,374.517223 L789.348274,375.913599 L789.164052,377.046402 L789.04086,377.842177 L788.855573,379.096499 L788.59699,380.963039 L788.370648,382.718142 L788.121713,384.755488 L787.180544,392.764933 L786.896325,395.067438 L786.697284,396.580865 L786.486481,398.047976 L786.311066,399.129827 L786.188051,399.801684 L786.040088,400.511245 L785.965057,400.831033 L785.863053,401.225518 L785.757959,401.587786 L785.648855,401.922464 L785.534816,402.23418 L785.383923,402.598585 L785.257858,402.870512 C785.234157,402.919353 785.210367,402.972237 785.186506,403.029127 L785.114729,403.211777 L785.006502,403.530337 L784.934134,403.772113 L784.861719,404.037152 L784.789364,404.325235 L784.681179,404.800085 L784.53815,405.511815 L784.432262,406.103597 L784.327965,406.744251 L784.192005,407.673198 L784.092835,408.424999 L783.965031,409.499442 L783.872967,410.35834 L783.755961,411.57288 L783.646309,412.86505 L783.550275,414.076756 L783.477112,414.929232 L783.361017,416.162829 L783.237048,417.342804 L783.14989,418.099954 L783.059023,418.833705 L782.964365,419.544231 L782.865833,420.231705 L782.710586,421.220072 L782.602,421.850674 L782.489248,422.45883 L782.372245,423.044714 L782.250907,423.608499 C782.230318,423.700631 782.209546,423.791849 782.188587,423.882158 L782.060591,424.413118 L781.928053,424.922413 L781.790887,425.410214 C781.767636,425.489733 781.744189,425.568364 781.720544,425.64611 L781.576282,426.101997 L781.427185,426.536824 L781.273169,426.950765 L781.19429,427.149957 C780.542148,428.762604 780.184743,430.543133 780.137013,432.499607 L780.131502,432.954228 C780.131502,436.803192 779.029966,439.912599 775.88623,442.203888 L775.611743,442.398278 L775.524602,442.45586 L775.509952,442.591651 C775.196658,445.01976 773.825445,447.228762 771.369363,448.980747 L771.081153,449.180857 L770.934709,449.27648 L770.883201,449.39045 C770.430241,450.325993 769.643197,451.209446 768.429027,452.350387 L767.920358,452.82123 L767.380038,453.310267 L766.94299,453.698127 L766.473316,454.106135 L765.970849,454.534463 L765.155303,455.215427 L764.570135,455.695302 L763.629765,456.454393 L762.613759,457.26113 L761.894126,457.825712 L759.661737,459.557633 L758.649685,460.350754 L757.715079,461.092104 L756.59012,461.999331 L755.837819,462.618296 L755.380046,463.001447 L754.759331,463.531636 L754.258494,463.971985 L753.972601,464.230765 L753.726017,464.460486 L753.519523,464.660095 L753.437493,464.741784 L753.432742,464.750909 C750.712865,469.560854 735.82285,484.567025 734.491814,485.193967 C732.12043,486.310933 729.821542,487 726.75124,487 C723.497039,487 721.048966,486.212525 718.707222,484.97716 C717.405765,484.290588 716.123646,483.430796 714.751898,482.3666 C712.350265,480.503424 710.379038,478.521414 708.858897,476.425914 L708.797836,476.339937 L708.718652,476.264827 L708.574786,476.139208 L708.39907,475.994664 L708.076572,475.743298 L707.684456,475.451753 L707.223946,475.121467 L706.696268,474.753882 L705.890333,474.208235 L705.210697,473.759216 L704.722485,473.441727 L703.938393,472.939342 L703.381678,472.587609 L702.496535,472.035859 L701.224783,471.257354 L700.550675,470.851031 L699.843759,470.430878 L699.167437,470.035385 C699.057294,469.971534 698.948447,469.908717 698.840905,469.846938 L698.211406,469.488743 L697.613744,469.15562 L697.048415,468.847731 L696.515917,468.565242 L696.016746,468.308317 L695.5514,468.07712 L695.120375,467.871814 L694.774052,467.714384 L694.515607,467.682813 C692.587557,467.424167 691.011333,466.839617 689.17256,465.945321 L688.801122,465.762336 L688.4821,465.601859 C688.085442,465.400654 687.671317,465.180685 687.238232,464.94137 L686.574196,464.567814 C686.347987,464.438411 686.11685,464.304097 685.880601,464.164802 L685.156326,463.731895 L684.400251,463.268658 L683.611257,462.774653 C683.476953,462.689731 683.341231,462.603508 683.204066,462.515976 L682.390819,461.991387 C680.681777,460.876305 679.315507,459.899251 678.259259,459.022987 C675.992801,457.142732 674.729786,455.611335 674.729786,453.272931 C674.729786,449.805175 677.946717,447.645966 681.833981,446.684704 C683.379861,446.302432 684.903087,446.141001 686.649754,446.079298 C688.210049,446.024178 690.068949,446.055034 692.290238,446.165003 L693.341412,446.221351 C693.520974,446.23167 693.702738,446.242451 693.886734,446.25369 L695.017716,446.326609 L695.499351,446.359295 L696.0353,446.390124 C706.306331,446.947302 713.764552,446.129315 718.545484,444.207709 L718.829128,444.09109 L718.998042,444.017366 L719.070214,443.981984 L719.2849,443.867667 L719.53969,443.723742 C719.585411,443.697317 719.632739,443.669682 719.681642,443.640848 L719.993693,443.453547 L720.341989,443.238019 L720.929013,442.863015 L721.361165,442.579345 L722.066734,442.10472 L722.580743,441.75111 L723.184158,441.328877 L723.816248,440.879409 L724.817866,440.154299 L725.521081,439.637058 L726.252521,439.092835 L727.402321,438.226065 L728.203762,437.614701 L729.457963,436.647558 L730.489033,435.843584 L731.785708,434.819767 L732.699163,434.088667 L733.561583,433.389634 L734.372592,432.723169 L735.131812,432.089773 L735.838866,431.489947 L736.493379,430.924192 L737.094972,430.393009 L737.643269,429.896898 L737.979006,429.58589 L738.437638,429.149347 L738.71325,428.878515 L738.964615,428.624013 L739.191624,428.385989 L739.394163,428.164593 L739.601539,427.924029 L739.635415,427.879949 C739.672522,427.828563 739.710102,427.772458 739.748164,427.711596 L739.863804,427.514694 C739.883321,427.479484 739.902961,427.443075 739.922725,427.405462 L740.042805,427.16529 L740.165914,426.895972 L740.29211,426.597271 L740.421447,426.268947 L740.553982,425.910763 L740.68977,425.522479 L740.828868,425.103856 L740.971332,424.654657 L741.117216,424.174643 L741.342581,423.396321 L741.575959,422.547322 L741.817538,421.626841 L742.152727,420.286947 L742.414177,419.196544 L742.776547,417.627164 L743.155063,415.924024 L743.550173,414.085216 L743.857664,412.615929 L744.391964,409.992959 L744.72594,408.31337 L745.305501,405.335123 L745.914485,402.129982 L746.553766,398.694219 L747.362127,394.261632 L748.07114,390.305377 L749.119551,384.358297 L750.074958,378.855395 L750.132947,378.512419 L750.248276,377.789219 L750.362726,377.016867 L750.47628,376.19598 L750.588921,375.327175 L750.700634,374.411071 L750.811402,373.448283 L750.921209,372.439429 L751.084081,370.841124 L751.191414,369.719805 L751.3505,367.955695 L751.558955,365.453479 L751.661578,364.139443 L751.863534,361.388603 L752.012057,359.22048 L752.157997,356.964678 L752.348468,353.824152 L752.534118,350.536391 L752.670112,347.976918 L752.84701,344.443378 L753.102604,338.894005 L753.266307,335.035581 L753.424504,331.055844 L753.687709,323.814245 L753.864757,318.438127 L753.999628,314.02251 L754.220756,306.065643 L754.394757,299.030002 L754.561058,175.677961 L754.675814,169.729047 L754.790883,162.891854 L754.88585,156.222958 L754.969977,148.884421 L755.028306,141.933658 L755.061081,135.460246 L755.06899,130.258008 L755.050949,124.303785 L755.015182,120.319014 L754.97809,117.855717 L754.920977,115.355666 L754.875311,113.982768 L754.837099,113.115301 L754.795503,112.392116 L754.7659,111.992484 L754.734803,111.660476 L754.702216,111.397492 C754.69666,111.359491 754.691043,111.324425 754.685364,111.292322 L754.650466,111.121577 C754.567714,110.712307 754.46199,110.384045 754.348907,110.136729 L754.300037,110.035692 L754.261585,109.966025 L754.076537,109.907327 L753.93155,109.864509 L753.772357,109.819847 C752.925022,109.587911 751.762735,109.356526 750.305429,109.143335 L749.640678,109.049561 L749.526041,109.030533 C749.882509,109.099403 749.902347,109.133222 749.865162,109.150327 L749.834992,109.159456 L749.797607,109.167687 L749.805748,109.16845 L747.683614,109.141851 L743.489949,109.106216 L730.857529,109.039708 L672.099201,108.93226 L599.071785,108.837189 L510.919749,108.795041 L494.287168,108.792991 L427.752281,108.800901 L374.988695,108.826002 L318.710345,108.874833 L272.857329,108.937438 L248.270719,108.983547 L226.806842,109.035002 L206.760011,109.098837 L196.006064,109.144653 L188.745467,109.184697 L184.102254,109.217891 L181.323788,109.243432 L179.815332,109.260757 L178.079958,109.287176 L177.281304,109.305069 C177.063495,109.311069 176.894351,109.317106 176.77464,109.323179 L174.979091,109.417081 L173.24646,109.513337 L171.577481,109.611754 L169.452457,109.746011 L167.443635,109.883322 L165.552752,110.023234 L164.213034,110.129604 L162.941369,110.236992 L161.73849,110.345209 L160.605131,110.454064 L159.542025,110.563365 L158.549906,110.672924 L157.629507,110.782548 L156.781563,110.892048 C156.691399,110.904201 156.60259,110.916348 156.515142,110.928488 L155.764944,111.037525 L155.305969,111.109912 L154.880174,111.18199 L154.487777,111.253702 L154.128993,111.324992 L153.804042,111.395803 L153.51314,111.466079 L153.218756,111.544923 L153.054758,111.585091 C141.962367,114.301947 131.144884,113.466145 121.734761,109.103991 L121.530892,109.008143 L121.326153,108.921155 C116.557219,106.87327 113.74577,105.19467 112.38182,102.677274 L112.261798,102.446076 L112.152761,102.216867 C111.169127,100.054752 111.65796,97.9364554 113.09339,96.0433355 C113.652593,95.30583 114.345427,94.6135947 115.167818,93.9430253 L115.528191,93.6568961 L115.668474,93.550096 L116.633422,92.0939098 L117.10806,91.3896805 C118.723567,89.0158617 120.318731,86.9253901 122.186658,84.8675793 C127.891173,78.5831714 134.621866,74.2434262 143.537775,72.8898684 L145.340122,72.6249463 L147.497716,72.3142314 L149.567678,72.0247236 L151.550614,71.7564208 L152.824521,71.5893316 L154.060198,71.431665 L155.257823,71.2834204 L156.417576,71.1445972 L157.539634,71.0151945 L158.624179,70.8952117 L159.671387,70.7846482 L160.68144,70.6835032 L161.654515,70.5917761 L162.590792,70.5094662 L163.49045,70.4365727 C163.637351,70.4252085 163.782734,70.4142366 163.926602,70.403657 L164.771667,70.344887 L165.56987,70.2961359 L166.08459,70.2701582 L166.554213,70.2592698 L172.008944,70.2197993 L176.864712,70.2046973 L176.368733,69.7897819 C174.875961,68.5544078 173.32819,67.3632959 171.725337,66.2161725 L170.91932,65.6462752 L170.268992,65.1969285 L149.439383,51.4607703 L176.011928,48.6940392 L176.531986,48.6759897 C182.969763,48.4525562 188.389636,49.1877894 192.651318,51.2656095 L193.003774,51.4418773 L193.495409,51.6940308 L193.800696,51.8960941 L194.017706,51.9885807 C194.171564,52.0515223 194.350676,52.1196835 194.554314,52.1923999 L194.994076,52.3437089 C195.230091,52.4222032 195.490146,52.5048093 195.773511,52.5908627 C196.195753,52.7190905 196.656233,52.8509391 197.154408,52.9861313 L197.929874,53.1913927 L198.761477,53.4014617 L199.648811,53.6161302 L200.591468,53.8351903 L201.589042,54.0584341 C201.930675,54.1335229 202.281392,54.2092743 202.641127,54.2856537 L203.187485,54.4006895 C203.521701,54.4704799 203.848668,54.5379046 204.168308,54.6029615 L205.105168,54.7910264 L205.997595,54.964872 L206.845123,55.1244859 L207.647281,55.2698557 L208.403602,55.400969 C208.525809,55.4216325 208.646087,55.4417015 208.764426,55.4611757 L209.477161,55.5745711 L209.520778,55.5302387 C209.653423,55.3915468 209.790022,55.2457632 209.930427,55.0929725 L210.362914,54.6136628 L210.817358,54.0928163 C210.894879,54.0025753 210.973279,53.9106246 211.052539,53.8169749 L211.292878,53.5309393 L211.510755,53.2681784 C213.901318,50.3676034 215.68648,47.5005032 216.881064,44.6635402 L217.138217,44.0247078 L217.325853,43.5142296 L217.40848,43.2712643 L217.514014,42.9211503 L217.614837,42.5317678 L217.711058,42.0987856 L217.802784,41.6178724 L217.868693,41.2231273 L217.952811,40.6479127 L218.032731,40.0128561 L218.089979,39.4946867 L218.16281,38.7444844 L218.214866,38.1349815 L218.29687,37.024489 L218.373114,35.7883471 L218.430101,34.703281 L218.509157,32.9052764 L218.592078,30.5317066 L218.675271,27.42681 L218.73006,24.8036691 L218.828275,18.1790968 L218.876048,13.4111729 L219.000339,8.21465247 L219.107994,4.59084389 L219.210944,1.77903835 L219.258133,0.670403775 L219.358941,-1.38314717 L219.488915,-3.51965465 L219.59104,-4.88707146 L219.678916,-5.8923734 L219.797145,-7.04539134 L219.925424,-8.09126527 L220.035812,-8.85656463 L220.123397,-9.39176124 L220.215281,-9.89577103 L220.311633,-10.3704403 L220.412624,-10.8176152 L220.518424,-11.2391421 L220.591713,-11.5068228 L220.705906,-11.8897057 L220.825362,-12.2518639 L220.95025,-12.5951437 L221.080742,-12.9213913 L221.170933,-13.1303391 L221.26374,-13.3330847 L221.407967,-13.6267704 L221.552132,-13.8988982 L221.864567,-14.4556503 L221.942456,-14.5979907 L222.051877,-14.8166493 L222.120975,-14.9707475 L222.187868,-15.1354212 L222.285715,-15.4096013 L222.382818,-15.726452 L222.481706,-16.0972986 L222.58491,-16.5334666 L222.694959,-17.0462813 L222.854113,-17.8482363 L222.874687,-17.9626431 L222.595032,-18.0280585 L222.226025,-18.1068916 L222.021606,-18.1480923 C221.648062,-18.2219897 221.233073,-18.2968599 220.777619,-18.3723325 L220.064212,-18.4859468 L219.290841,-18.6001866 C218.889287,-18.6574167 218.465522,-18.714777 218.01996,-18.7721115 L217.099895,-18.8866994 L216.190829,-18.9932018 C216.035688,-19.0108639 215.878733,-19.0284817 215.719967,-19.0460546 L214.745645,-19.1509507 L213.727941,-19.2547505 L212.666954,-19.3574339 L211.56278,-19.4589804 L210.415517,-19.5593697 L208.614045,-19.7077396 L206.716173,-19.8533915 L204.72223,-19.9962571 L203.339725,-20.0899189 L201.914766,-20.1822915 L200.447451,-20.2733546 L199.057864,-20.3553684 L197.967524,-20.4011977 C193.548449,-20.5793898 189.2675,-20.6976207 185.12506,-20.7561871 L186.184298,-20.2603705 L186.822956,-19.9691493 C186.924871,-19.9232413 187.024516,-19.8786492 187.121884,-19.8353751 L187.678693,-19.5915644 L188.021836,-19.4456408 L188.276418,-19.3394332 L188.548667,-19.298019 C190.214116,-19.0229263 191.677354,-18.4978889 193.32626,-17.7433301 L193.710249,-17.5651361 L194.05248,-17.4025758 C194.987211,-16.954295 196.01239,-16.4111916 197.145159,-15.7671032 L197.916465,-15.3226825 L198.720778,-14.8479346 L199.007844,-14.6747075 L199.196141,-14.5894796 C202.466268,-13.0699721 204.920077,-11.4290402 206.472514,-9.46901675 L206.678615,-9.19974441 L206.865598,-8.9378768 C208.287933,-6.87444236 208.845901,-4.44604711 208.845901,-1.49197844 C208.845901,3.37788553 207.411652,7.11620183 203.272999,9.6683755 L202.993068,9.83676256 L202.85443,9.91620135 L202.78011,10.1035857 C202.0978,11.7221229 200.643342,13.0435968 198.689135,14.2432268 L198.376462,14.4316551 L198.098007,14.5939788 C196.46647,15.5310335 194.409789,16.4360281 191.854329,17.3800937 L191.29907,17.5830175 C189.697331,18.1622394 188.481867,18.7122942 187.654818,19.2031345 C187.409754,19.3485757 187.215378,19.4790776 187.068404,19.5919477 L186.895461,19.7356151 L186.861084,19.7675594 L186.68405,20.0055215 L186.488003,20.2529362 L186.272775,20.509981 L186.0382,20.7768338 L185.784109,21.0536722 L185.510336,21.3406739 L185.216714,21.6380165 L184.903076,21.9458778 L184.569254,22.2644355 L184.215082,22.5938672 L183.840392,22.9343506 L183.445017,23.2860634 L183.02879,23.6491832 L182.591543,24.0238879 L181.895898,24.608055 L181.152019,25.2192873 L180.359343,25.8581846 L179.517306,26.5253464 L178.928246,26.9861197 L178.002687,27.7017218 L177.026262,28.4471877 L175.998408,29.2231171 L174.54696,30.3061137 L172.600629,31.7396829 L170.505172,33.264536 L163.461904,38.3416382 L160.032474,40.8302824 L156.442682,43.4575994 L154.24981,45.0804062 L152.41058,46.4593445 L150.926539,47.593198 L150.279748,48.0982118 L149.441467,48.8018146 L148.468112,49.6103176 L147.468814,50.4314419 C147.300102,50.5693482 147.130308,50.7077807 146.959433,50.8467397 L145.921205,51.6868117 L144.857014,52.539526 L143.766853,53.404891 L142.650715,54.2829151 L141.508593,55.1736066 L139.746672,56.5334136 L138.539555,57.4558104 L137.306428,58.3909039 L135.407953,59.817369 L133.450912,61.2724489 L131.435281,62.756172 L130.058966,63.7612476 L127.94563,65.2927722 L126.504155,66.3297416 L124.293045,67.9091462 L122.023238,69.5173166 L119.694708,71.1542809 L117.307431,72.8200676 L114.861381,74.5147049 L113.198018,75.6605051 L110.653959,77.4032896 L109.902096,77.9152494 L107.911632,79.3553406 C103.759687,82.3712019 99.6708915,85.4288159 95.6452286,88.5281991 L93.6376581,90.0813716 L91.6406093,91.641506 L91.5243286,91.7311501 C75.3098217,104.007459 61.795605,111.669524 41.0555292,118.328393 L14.7351342,126.707188 L14.5909763,126.749438 C13.6334197,127.030077 12.7927753,127.249903 11.9899866,127.418342 C11.371789,127.54805 10.7627702,127.651165 10.1002032,127.723984 C8.73092205,127.874473 7.37190826,127.893955 5.71764382,127.621239 C1.98634136,127.00611 -1.19456932,125.025066 -1.8656988,122.148424 C-2.27793617,120.381464 -1.70011923,119.047867 -0.692756889,117.830019 C-0.216386094,117.254111 0.291493839,116.794386 0.89208404,116.347012 L1.15533441,116.155734 L1.23321851,116.101846 L1.62363661,115.784313 L2.02640796,115.466548 L2.47521807,115.120117 L3.14579707,114.613192 L4.10106118,113.90636 L5.1877443,113.117151 L6.66731014,112.059749 L8.34078364,110.880094 L10.8781131,109.113625 L14.9482747,106.315479 L19.7058114,103.078683 L21.1040399,102.132145 L36.7769157,91.4146374 L45.599575,85.3488954 L51.4609327,81.2737407 L53.8581732,79.2420073 L56.4404942,77.0332014 L59.2594287,74.6049765 L61.7891451,72.4139588 L61.0552438,72.3336188 L60.4167676,72.2040718 C54.8652904,71.0776752 55.5404302,70.7109515 53.1902054,67.4391525 L53.0885831,67.2950079 L52.8873,66.9933933 L52.6884495,66.6737301 C52.6225471,66.5641301 52.5570138,66.4514657 52.4918128,66.3356808 L52.297171,65.978908 L52.104305,65.6030742 L51.912996,65.2078419 C51.8812287,65.1403345 51.8495172,65.0720049 51.8178569,65.0028458 L51.6284727,64.5778831 L51.440098,64.1326782 L51.252514,63.6668937 L51.0655016,63.1801921 L50.7855758,62.410182 L50.5990346,61.8697113 L50.4122987,61.3071423 L50.2251491,60.7221376 L49.9431702,59.8018255 L49.6590291,58.8291347 L49.3719866,57.8029264 L49.081304,56.7220615 L48.7862421,55.5854012 L48.6977311,55.2368056 L47.0683654,49.2449972 L46.0308507,45.5181352 L45.3337763,43.1085212 L45.0844367,42.2938855 C43.8591557,38.4155705 45.5191611,34.6736802 49.4840407,31.5387161 L49.7579382,31.3259145 C50.5629654,30.7112392 51.2987038,29.5187517 51.7501487,27.6561754 L51.8430689,27.2464951 L51.9591193,26.6749663 L52.0337243,26.2511042 L52.0971844,25.8278015 L52.1458784,25.435761 C52.1533362,25.3691971 52.1604682,25.3019438 52.1672791,25.2338853 L52.2043301,24.8149409 L52.2339031,24.3710962 L52.2562255,23.8967797 L52.2715244,23.38642 L52.2800272,22.8344455 L52.2792578,21.734196 L52.2502817,20.0947987 L52.1942455,18.2187389 L52.0556191,14.5371701 L51.9630807,12.3761389 L51.8920588,10.8628965 L51.8141851,9.30695846 L51.7299843,7.72148031 L51.5929673,5.31665331 L51.4952437,3.71488072 L51.3930289,2.12961266 L51.2733963,0.382818637 L51.0928515,-2.04932569 L50.9176864,-4.1917229 L50.7381215,-6.17930425 L50.591613,-7.65126916 L50.4428226,-9.0127815 L50.3298749,-9.95839123 L50.2158772,-10.8368968 L50.1366365,-11.4028984 L50.054883,-11.948269 L49.9738174,-12.4503712 L49.8542755,-13.1191479 L49.7821783,-13.4760359 L49.5392793,-13.708875 C47.7167925,-15.4884483 46.6478675,-17.5461454 46.3486317,-19.7738477 L46.3111215,-20.0932357 L46.2850507,-20.400837 C46.0435011,-23.9050873 46.280336,-27.4112526 53.1680473,-30.0376607 C67.7194658,-35.5863781 81.2350263,-39.6737597 93.7147289,-42.2998055 C98.0514192,-42.93159 102.281455,-43.5110842 106.405101,-44.0382269 L108.866525,-44.3482298 C110.907075,-44.6013296 112.921042,-44.8413385 114.908458,-45.0682489 L117.280615,-45.3342535 C124.752102,-46.1566884 131.840388,-46.789936 138.547296,-47.233577 L140.652592,-47.367371 C142.047674,-47.4523645 143.425861,-47.5289524 144.78717,-47.5971309 Z M147,-26.5524126 L146.339055,-26.469837 L143.894107,-26.1882084 L138.952156,-25.6249889 L133.940795,-25.0618183 L128.860018,-24.4986955 L123.537667,-23.9169243 L123.364716,-23.9025105 C113.960128,-23.1187315 105.083825,-21.7136571 96.7249898,-19.6907278 L95.436977,-19.3738081 L94.2105577,-19.061848 L93.4276487,-18.8570931 L92.3060686,-18.5554832 L91.2487019,-18.2613338 L90.5799502,-18.069842 L89.9404655,-17.8823605 L89.330539,-17.6991674 L88.4717076,-17.4330259 L87.9369501,-17.261769 L87.1922368,-17.0148344 C87.1133494,-16.9880896 87.0357543,-16.9615813 86.9594574,-16.9353154 L86.3080035,-16.7056218 L85.9131351,-16.5602265 L85.5501538,-16.4213423 L85.0661067,-16.2258322 L84.7841164,-16.1044415 L84.535032,-15.9905343 L84.3191446,-15.8843887 C84.2859459,-15.86736 84.2541426,-15.8506663 84.2237407,-15.8343133 L84.0581945,-15.7403309 L83.9265731,-15.6548046 L82,-14.1687272 L82.2632974,-5.65526434 L82.5983548,8.34797351 L82.8641348,17.7724769 L83.061858,23.6561229 L83.3170979,30.3094428 L83.320878,30.6372041 L83.3151576,31.269622 L83.2980167,31.9323334 L83.2694856,32.6255255 L83.2295943,33.349386 L83.1783733,34.1041024 L83.1158528,34.8898621 L83.042063,35.7068526 L82.9570341,36.5552614 L82.8607965,37.435276 L82.6954897,38.8149691 L82.5380386,40.0366771 L82.482585,40.5403191 L82.4414203,41.0168965 L82.4137805,41.4660518 L82.3989014,41.8874277 C82.3959837,42.0232167 82.3950654,42.1543162 82.3960193,42.2806667 L82.4043699,42.6454113 L82.4231895,42.9813043 C82.427156,43.0348623 82.4315269,43.0872032 82.4362863,43.1383196 L82.4693766,43.4302648 L82.5110257,43.6924648 C82.5643118,43.9808743 82.6335124,44.2078241 82.713168,44.3707603 L82.7479304,44.4366634 C83.5377114,45.8203546 83.9625266,47.3043821 84.0638247,48.921797 L84.5475797,48.3479521 C84.6245795,48.2553199 84.6997648,48.164193 84.7731333,48.074573 L85.1915252,47.5549494 L85.4721701,47.1977343 L85.9720773,46.5818401 L86.7582539,45.6242159 L87.5880287,44.6260272 L88.7622516,43.2319595 L89.6938391,42.1390099 L90.6690967,41.0054014 L92.0374084,39.4306271 L93.4834451,37.7834526 L94.6190104,36.5005187 L96.6088979,34.2716343 L98.7204702,31.9293099 L100.953827,29.4734142 L102.352339,27.9453079 L104.780759,25.3074253 L107.331223,22.5556304 L109.705563,20.0088016 L111.925364,17.6392352 L115.007353,14.3655992 L117.410603,11.824624 L120.828457,8.22814105 C121.074085,7.97874085 121.326388,7.71718449 121.585322,7.44350956 L122.112018,6.88001276 C122.201269,6.78340733 122.291254,6.68545818 122.381971,6.5861667 L122.93504,5.97432103 L123.50559,5.33032636 C123.602134,5.22031855 123.699403,5.10897398 123.797395,4.99629405 L124.394018,4.30420126 L125.007922,3.58012664 L125.639027,2.82413705 L126.287253,2.03629937 L126.952521,1.21668045 L127.29152,0.794973923 L127.874842,0.0632779868 L128.642551,-0.910738563 L129.430103,-1.9220981 L130.648412,-3.50896718 L131.910787,-5.17937369 L133.216882,-6.93302705 L134.244685,-8.32991327 L135.342254,-9.84005281 L136.105759,-10.9044023 L136.817952,-11.9099363 L137.68747,-13.1586736 L138.279362,-14.0258825 L138.819449,-14.8333425 L139.458724,-15.8165292 L139.880225,-16.4882069 L140.241591,-17.0867792 L140.446823,-17.4408165 L140.623162,-17.7577046 C140.650128,-17.8073692 140.675877,-17.8554452 140.700404,-17.9019123 L140.83289,-18.1639263 L140.847764,-18.2738878 C141.18316,-20.6544918 142.782912,-22.7801263 146.015346,-25.6859335 L146.661465,-26.2583678 C146.772582,-26.3554898 146.885423,-26.4534932 147,-26.5524126 Z" id="Combined-Shape" fill="#000000" fill-rule="nonzero"></path>
        <path d="M559,-89.5351908 C607.666667,-86.6787079 725.345118,-78.8366854 734,-77.9052245 C742.654882,-76.9737637 755.887591,-65.9862494 765.889905,-58.5518437 C775.889905,-51.117438 775.889905,-53.9458145 775.889905,-43.2492565 C775.889905,-32.5526986 763.742834,13.3403236 744,19.0739881 C724.257166,24.8076526 710.666667,24.9909885 694,28.2555404 C692,28.6636094 690.666667,28.6636094 690,28.2555404 C689.333333,27.8474714 689.333333,27.0313334 690,25.8071265 C691.333333,22.9506435 695.833333,18.2578501 703.5,11.7287462 C711.166667,5.19964238 717,1.01693522 721,-0.819375246 C725,-2.65568571 729.5,-7.14444461 734.5,-14.285652 C739.5,-21.4268593 741,-25.813601 739,-27.4458769 C737.666667,-29.8942909 724.333333,-33.4648946 699,-38.157688 C673.666667,-42.8504814 598.666667,-46.421085 574,-48.869499 L532,-53.1542234 C294.222222,-56.1467293 170.888889,-57.3709363 162,-56.8268443 C139,-56.8268443 116.833333,-55.1945684 106.5,-53.1542234 C96.1666667,-51.1138785 34.3333333,-43.5646021 27,-40.3000502 C17,-37.0354982 -1.5,11.3206773 -4.5,16.6255741 C-7.5,21.930471 -7.5,28.2555404 -4.5,35.6007822 C-1.5,42.9460241 -2,48.65899 -6,52.7396799 C-14,62.9414047 -31.3333333,54.5736806 -40,47.6365078 C-48.6666667,40.6993349 -51,31.3137481 -53,19.4797474 C-54.3333333,12.1345055 -54.5,6.82960864 -53.5,3.56505671 C-52.5,0.300504773 -52.3333333,-4.59632313 -47,-11.125427 C-39.6666667,-20.5110138 -35.6666667,-28.8764281 -31,-36.22167 C-23,-49.2798777 -22.1666667,-58.46143 -14.5,-63.7663269 C-6.83333333,-69.0712238 -4.33333333,-78.7236722 5,-78.7236722 C11.6666667,-78.7236722 119.166667,-88.8210701 131.5,-91.0654495 C143.833333,-93.309829 547,-90.7593978 559,-89.5351908 Z" id="Path" fill="#000000" fill-rule="nonzero"></path>
    </g>
</svg>