<?xml version="1.0" encoding="UTF-8"?>
<svg width="800px" height="470px" viewBox="0 0 800 470" version="1.1" xmlns="http://www.w3.org/2000/svg" xmlns:xlink="http://www.w3.org/1999/xlink">
    <title>ki</title>
    <g id="ki" stroke="none" stroke-width="1" fill="none" fill-rule="evenodd">
        <path d="M144.78717,-57.5605064 L146.222034,-57.625946 L148.269512,-57.7079537 L149.66552,-57.7570024 L151.086365,-57.801554 L153.264234,-57.859952 L154.747237,-57.8932663 L156.255131,-57.9220877 L157.787929,-57.9464176 L159.345649,-57.9662572 L160.928305,-57.9816076 L162.535912,-57.9924701 L164.168486,-58 L166.664194,-58 L168.359253,-58 L170.079332,-57.9858468 L171.824447,-57.9720478 L174.489096,-57.94295 C174.788302,-57.939157 175.088552,-57.9351775 175.389847,-57.9310114 L178.129731,-57.8884802 L180.926101,-57.8358788 L182.821755,-57.7952187 L185.712384,-57.7258429 L188.659638,-57.646408 L191.663569,-57.556918 L194.724227,-57.4573772 L196.796208,-57.3854349 L199.951529,-57.2691518 L204.247091,-57.0984909 L207.535181,-56.9587881 L210.880258,-56.809055 L214.282375,-56.6492959 L217.741582,-56.4795149 L221.257932,-56.2997161 C233.771965,-55.5936558 247.529284,-53.3693793 262.560609,-49.6519938 L263.690348,-49.3703907 L263.88469,-49.3199445 L265.861292,-48.787115 L268.383014,-48.0974173 L270.775777,-47.4309446 L272.486404,-46.9460166 L274.656223,-46.3189281 L276.200947,-45.8629371 L277.675368,-45.4189797 L278.619495,-45.1295843 L279.532731,-44.8453736 L280.844975,-44.4286358 L282.088514,-44.0231954 L282.879606,-43.7590692 L283.640518,-43.4998005 L284.371391,-43.245324 L285.072367,-42.9955741 L285.743588,-42.7504855 L286.385196,-42.5099927 L286.997333,-42.2740304 L287.580141,-42.042533 C287.769538,-41.9661041 287.95407,-41.8904085 288.133762,-41.8154352 L288.658337,-41.5926715 C288.743354,-41.5559017 288.827167,-41.5193099 288.909778,-41.4828945 L289.15401,-41.3741765 C292.387367,-39.9204308 294.8282,-38.2899786 296.381183,-36.1673453 C298.619612,-33.1078377 298.417182,-29.6126143 295.872458,-26.7101157 L295.677214,-26.4935557 L295.474462,-26.2747741 L295.245385,-26.0611298 L295.174442,-25.9478885 L295.075247,-25.7691621 L294.991975,-25.6050951 L294.897951,-25.4049386 C294.881525,-25.3685642 294.864757,-25.3306806 294.847699,-25.2912848 C294.521153,-24.5371037 294.235843,-23.5303096 294.017306,-22.287476 L293.964078,-21.9718598 C293.34154,-18.1204586 292.348942,-14.6329359 290.964823,-11.5040928 L290.716498,-10.9556663 C289.782836,-8.94071066 289.20876,-6.95137008 288.98442,-4.97714915 L288.935615,-4.48390284 C288.855024,-3.52731311 288.710903,-2.78997971 288.286204,-1.89068729 C288.021775,-1.33076583 287.671015,-0.797590635 287.241214,-0.301631278 L287.019761,-0.0568013907 L286.979124,-0.0154317523 L286.858724,0.537475131 L286.743329,1.12276784 L286.583838,2.01495706 L286.418323,3.03691348 L286.290505,3.88985105 L286.159743,4.81792716 L285.808553,7.50880651 L285.722643,8.11747527 L285.6366,8.68667846 L285.506858,9.46867889 L285.419627,9.94360535 L285.331579,10.382576 L285.242519,10.7865937 C285.095032,11.4231821 284.933294,11.9717102 284.72184,12.4931245 L284.614291,12.7463703 L284.496796,12.9979756 L284.416067,13.1538229 L284.732449,20.0976237 L284.982763,26.2098736 L285.1074,29.6001618 L285.243763,33.7976818 L285.323664,36.7039077 L285.375597,38.967512 L285.425919,41.8950768 L285.445871,43.81385 L285.452494,45.5836251 C285.452494,51.5320065 284.762593,57.3973332 283.382129,63.1751931 C282.737432,65.8735384 282.017332,68.2290727 281.173191,70.275016 L280.990388,70.7087058 L280.93263,70.8383102 L445.460272,70.7850083 L495.67561,70.7800149 L646.79709,70.79871 L717.755716,70.8591744 L722.169363,70.8763441 L722.692968,70.8812848 L722.90233,70.8856514 L726.015875,70.969154 L728.232551,71.0219896 L731.029392,71.0793989 L733.007466,71.1126892 L734.882625,71.137618 L736.075361,71.1495964 L737.222066,71.1578653 L738.855557,71.1633192 L740.152142,71.1615315 L741.129149,71.1559395 L742.501121,71.1407357 L743.759522,71.1175348 L744.534624,71.0977255 L745.258145,71.0745133 L745.929643,71.0479587 C746.037199,71.0432578 746.14257,71.0384201 746.245745,71.033447 L746.83838,71.0019924 L747.331216,70.9706044 L747.719258,70.941473 L747.976241,70.9189133 L748.082446,70.8797994 C753.671646,68.8598237 760.297669,69.0208926 767.855898,70.7847459 L768.36116,70.9047043 L769.018563,71.0665694 L769.18693,71.113454 C777.850908,73.5260889 785.326577,77.178935 791.507735,82.0297324 C795.18747,84.9174835 797.329159,89.6355323 798.656732,95.7536573 L798.832787,96.5965849 L798.999157,97.4566263 C799.026101,97.6013792 799.052658,97.7468351 799.078838,97.8929889 L799.231446,98.7782467 L799.373476,99.6687993 C799.39605,99.8163584 799.418069,99.9634687 799.439524,100.110107 L799.561415,100.984085 C799.580578,101.128741 799.599158,101.272879 799.617147,101.416474 L799.717912,102.271354 C799.749086,102.55402 799.777821,102.834331 799.804044,103.1121 L799.875105,103.937592 C799.885668,104.07384 799.895585,104.209406 799.904846,104.344267 L799.952478,105.144774 C800.104358,108.179493 799.899873,110.816191 799.227829,112.770667 L799.13751,113.021706 L799.086319,113.149911 L799.027191,113.619897 L798.976181,114.096855 L798.89805,114.947216 L798.77805,116.516921 L798.675992,118.088761 L798.523798,120.816389 L798.352364,124.410043 L798.197606,128.10023 L797.720569,141.821156 L797.25448,158.098999 L796.554973,185.803652 L795.635104,305.139056 L795.354184,315.343851 L795.136003,322.38192 L794.9897,326.421012 L794.851765,329.595135 L794.761573,331.318423 L794.670774,332.788896 L794.577638,334.059201 L794.466414,335.331106 L794.293463,337.476376 L794.147317,339.135325 L793.958706,341.06764 L793.841306,342.154275 L793.678587,343.521326 L793.551127,344.487193 L793.463237,345.103636 L793.326583,345.988196 L793.232007,346.55181 L793.134444,347.095064 L792.982109,347.872733 L792.876299,348.367014 L792.766877,348.842476 C792.748329,348.920176 792.729623,348.99711 792.710756,349.073287 L792.595582,349.521347 L792.476351,349.95169 L792.352885,350.364756 L792.225004,350.760986 L792.092531,351.14082 C792.070059,351.202783 792.047389,351.264082 792.024516,351.324726 L791.884819,351.680792 L791.740083,352.021564 C791.715531,352.077109 791.690761,352.132035 791.66577,352.186352 L791.513142,352.505008 C791.487252,352.556922 791.461133,352.608245 791.434783,352.658986 L791.27386,352.956517 C791.191976,353.101863 791.107935,353.242134 791.021636,353.377578 L790.885826,353.5837 L790.787491,353.85746 L790.699519,354.13119 L790.597809,354.476738 L790.493283,354.861941 L790.386361,355.285693 L790.277463,355.746888 L790.111332,356.506468 L789.95633,357.274516 L789.775004,358.242704 L789.592702,359.291516 L789.348274,360.814836 L789.164052,362.050621 L789.04086,362.918739 L788.855573,364.28709 L788.59699,366.323316 L788.370648,368.237974 L788.121713,370.460532 L787.180544,379.198109 L786.896325,381.709932 L786.697284,383.360944 L786.486481,384.961428 L786.311066,386.14163 L786.188051,386.874565 L786.040088,387.64863 L785.965057,387.997491 L785.863053,388.427838 L785.757959,388.823039 L785.648855,389.188143 L785.534816,389.528197 L785.383923,389.925729 L785.257858,390.222377 C785.234157,390.275658 785.210367,390.333349 785.186506,390.395411 L785.114729,390.594666 L785.006502,390.942186 L784.934134,391.205941 L784.861719,391.495075 L784.789364,391.809347 L784.681179,392.327366 L784.53815,393.103799 L784.432262,393.749378 L784.327965,394.448274 L784.192005,395.461671 L784.092835,396.281818 L783.965031,397.453937 L783.872967,398.390917 L783.755961,399.715869 L783.646309,401.125509 L783.550275,402.44737 L783.477112,403.377344 L783.361017,404.723086 L783.237048,406.010332 L783.14989,406.836313 L783.059023,407.636769 L782.964365,408.411888 L782.865833,409.16186 L782.710586,410.240079 L782.602,410.928008 L782.489248,411.591451 L782.372245,412.230597 L782.250907,412.845635 C782.230318,412.946143 782.209546,413.045654 782.188587,413.144172 L782.060591,413.723402 L781.928053,414.278996 L781.790887,414.811143 C781.767636,414.897891 781.744189,414.98367 781.720544,415.068483 L781.576282,415.565815 L781.427185,416.040172 L781.273169,416.491743 L781.19429,416.709044 C780.542148,418.468295 780.184743,420.410691 780.137013,422.545026 L780.131502,423.040976 C780.131502,427.239845 779.029966,430.631926 775.88623,433.131514 L775.611743,433.343576 L775.524602,433.406393 L775.509952,433.554528 C775.196658,436.203374 773.825445,438.613195 771.369363,440.524451 L771.081153,440.742753 L770.934709,440.847069 L770.883201,440.9714 C770.430241,441.991993 769.643197,442.95576 768.429027,444.200423 L767.920358,444.71407 L767.380038,445.247564 L766.94299,445.670684 L766.473316,446.115784 L765.970849,446.58305 L765.155303,447.32592 L764.570135,447.849421 L763.629765,448.677519 L762.613759,449.557597 L761.894126,450.173504 L759.661737,452.062873 L758.649685,452.928096 L757.715079,453.73684 L756.59012,454.726543 L755.837819,455.401777 L755.380046,455.819761 L754.759331,456.398148 L754.258494,456.878529 L753.972601,457.160834 L753.726017,457.41144 L753.519523,457.629195 L753.437493,457.71831 L753.432742,457.728264 C750.712865,462.975478 746.696834,466.954501 741.185023,469.394845 L740.779048,469.570657 L740.518165,469.677798 L739.479391,470.122001 L737.883146,470.795493 L736.350604,471.432425 L735.363216,471.836872 L733.931966,472.413486 L733.010071,472.777976 L732.113236,473.126626 L731.240808,473.45952 L730.392137,473.776738 L729.566573,474.078362 L728.763464,474.364474 L727.98216,474.635156 L727.22201,474.890491 C727.097045,474.931772 726.972935,474.972417 726.849665,475.012428 L726.120026,475.244894 C726.000065,475.282375 725.880917,475.319224 725.76257,475.355444 L725.061977,475.565226 C724.831574,475.632645 724.604263,475.697561 724.379936,475.759988 L723.715794,475.939811 C723.278856,476.054732 722.853416,476.159748 722.438609,476.25497 L721.824264,476.390469 L721.225215,476.511358 C720.830804,476.587098 720.446157,476.653152 720.070406,476.70963 L719.790248,476.750194 L719.598538,476.775191 L719.351298,476.938798 L719.054037,477.141996 L718.8942,477.254156 L718.727246,477.373286 C717.202798,478.469934 715.82285,479.345845 714.491814,480.029782 C712.12043,481.248291 709.821542,482 706.75124,482 C703.497039,482 701.048966,481.140937 698.707222,479.793265 C697.405765,479.044278 696.123646,478.106323 694.751898,476.945381 C692.350265,474.912826 690.379038,472.750634 688.858897,470.464634 L688.797836,470.370841 L688.718652,470.288902 L688.574786,470.151863 L688.39907,469.994179 L688.076572,469.719962 L687.684456,469.401912 L687.223946,469.041601 L686.696268,468.640598 L685.890333,468.045347 L685.210697,467.555509 L684.722485,467.209156 L683.938393,466.661101 L683.381678,466.277392 L682.496535,465.675483 L681.224783,464.826204 L680.550675,464.382943 L679.843759,463.924594 L679.167437,463.493148 C679.057294,463.423492 678.948447,463.354964 678.840905,463.287569 L678.211406,462.896811 L677.613744,462.533403 L677.048415,462.197525 L676.515917,461.889355 L676.016746,461.609073 L675.5514,461.356858 L675.120375,461.132888 L674.774052,460.961146 L674.515607,460.926705 C672.587557,460.644546 671.011333,460.006855 669.17256,459.031259 L668.801122,458.83164 L668.4821,458.656573 C668.085442,458.437077 667.671317,458.197111 667.238232,457.93604 L666.574196,457.528525 C666.347987,457.387357 666.11685,457.240833 665.880601,457.088875 L665.156326,456.616613 L664.400251,456.111264 L663.611257,455.572349 C663.476953,455.479706 663.341231,455.385645 663.204066,455.290156 L662.390819,454.717877 C660.681777,453.501424 659.315507,452.435547 658.259259,451.479622 C655.992801,449.428435 654.729786,447.75782 654.729786,445.206834 C654.729786,441.423827 657.946717,439.068326 661.833981,438.019677 C663.379861,437.602653 664.903087,437.426547 666.649754,437.359234 C668.210049,437.299104 670.068949,437.332765 672.290238,437.452731 L673.341412,437.514201 C673.520974,437.525458 673.702738,437.537219 673.886734,437.549481 L675.017716,437.629028 L675.499351,437.664685 L676.0353,437.698318 C686.306331,438.306148 693.764552,437.413798 698.545484,435.3175 L698.829128,435.19028 L698.998042,435.109854 L699.070214,435.071255 L699.2849,434.946546 L699.53969,434.789536 C699.585411,434.76071 699.632739,434.730563 699.681642,434.699107 L699.993693,434.494778 L700.341989,434.259657 L700.929013,433.850562 L701.361165,433.541103 L702.066734,433.023331 L702.580743,432.637575 L703.184158,432.176957 L703.816248,431.686628 L704.817866,430.895599 L705.521081,430.331336 L706.252521,429.737638 L707.402321,428.792071 L708.203762,428.125128 L709.457963,427.070064 L710.489033,426.193 L711.785708,425.07611 L712.699163,424.278546 L713.561583,423.515965 L714.372592,422.788912 L715.131812,422.097935 L715.838866,421.443579 L716.493379,420.826391 L717.094972,420.246918 L717.643269,419.705707 L717.979006,419.366425 L718.437638,418.890197 L718.71325,418.594744 L718.964615,418.317105 L719.191624,418.057443 L719.394163,417.815919 L719.601539,417.553487 L719.635415,417.505399 C719.672522,417.449341 719.710102,417.388136 719.748164,417.321741 L719.863804,417.106938 C719.883321,417.068528 719.902961,417.02881 719.922725,416.987777 L720.042805,416.725771 L720.165914,416.43197 L720.29211,416.106114 L720.421447,415.747943 L720.553982,415.357196 L720.68977,414.933613 L720.828868,414.476934 L720.971332,413.986899 L721.117216,413.463247 L721.342581,412.614168 L721.575959,411.687987 L721.817538,410.683826 L722.152727,409.222124 L722.414177,408.032593 L722.776547,406.320542 L723.155063,404.462572 L723.550173,402.456599 L723.857664,400.853741 L724.391964,397.992319 L724.72594,396.16004 L725.305501,392.911043 L725.914485,389.414526 L726.553766,385.666421 L727.362127,380.830872 L728.07114,376.514957 L729.119551,370.027233 L730.074958,364.024067 L730.132947,363.649912 L730.248276,362.860966 L730.362726,362.0184 L730.47628,361.122887 L730.588921,360.1751 L730.700634,359.175713 L730.811402,358.125399 L730.921209,357.024831 L731.084081,355.281226 L731.191414,354.057969 L731.3505,352.133486 L731.558955,349.403795 L731.661578,347.970302 L731.863534,344.969385 L732.012057,342.60416 L732.157997,340.143285 L732.348468,336.717256 L732.534118,333.130608 L732.670112,330.338456 L732.84701,326.483685 L733.102604,320.429824 L733.266307,316.220634 L733.424504,311.879103 L733.687709,303.979176 L733.864757,298.11432 L733.999628,293.297284 L734.220756,284.617065 L734.394757,276.94182 L734.561058,186.012321 L734.675814,179.522597 L734.790883,172.063841 L734.88585,164.788682 L734.969977,156.783005 L735.028306,149.200354 L735.061081,142.13845 L735.06899,136.463281 L735.050949,129.967765 L735.015182,125.620742 L734.97809,122.933509 L734.920977,120.206181 L734.875311,118.708474 L734.837099,117.762146 L734.795503,116.973218 L734.7659,116.537255 L734.734803,116.175064 L734.702216,115.888173 C734.69666,115.846718 734.691043,115.808464 734.685364,115.773442 L734.650466,115.587175 C734.567714,115.140698 734.46199,114.782594 734.348907,114.512795 L734.300037,114.402573 L734.261585,114.326573 L734.076537,114.262539 L733.93155,114.215828 L733.772357,114.167106 C732.925022,113.914085 731.762735,113.661664 730.305429,113.429093 L729.640678,113.326794 L729.526041,113.306036 C729.882509,113.381166 729.902347,113.41806 729.865162,113.43672 L729.834992,113.446679 L729.797607,113.455658 L729.805748,113.456491 L727.683614,113.427474 L723.489949,113.388599 L710.857529,113.316045 L672.099201,113.198829 L599.071785,113.095115 L510.919749,113.049135 L494.287168,113.0469 L427.752281,113.055529 L374.988695,113.082911 L318.710345,113.136181 L272.857329,113.204478 L248.270719,113.254778 L226.806842,113.310911 L206.760011,113.380549 L196.006064,113.430531 L188.745467,113.474215 L184.102254,113.510426 L181.323788,113.538289 L179.815332,113.557189 L178.079958,113.58601 L177.281304,113.605529 C177.063495,113.612076 176.894351,113.618662 176.77464,113.625286 L174.979091,113.727725 L173.24646,113.832731 L171.577481,113.940095 L169.452457,114.086558 L167.443635,114.236351 L165.552752,114.388982 L164.213034,114.505022 L162.941369,114.622173 L161.73849,114.740228 L160.605131,114.858979 L159.542025,114.978217 L158.549906,115.097735 L157.629507,115.217325 L156.781563,115.33678 C156.691399,115.350037 156.60259,115.363288 156.515142,115.376532 L155.764944,115.495482 L155.305969,115.57445 L154.880174,115.65308 L154.487777,115.731312 L154.128993,115.809082 L153.804042,115.886331 L153.51314,115.962995 L153.218756,116.049007 L153.054758,116.092827 C141.962367,119.05667 131.144884,118.144886 121.734761,113.386172 L121.530892,113.281611 L121.326153,113.186714 C116.557219,110.952658 113.74577,109.121458 112.38182,106.375209 L112.261798,106.122992 L112.152761,105.872945 C111.169127,103.514275 111.65796,101.203406 113.09339,99.1381842 C113.652593,98.3336327 114.345427,97.5784669 115.167818,96.8469367 L115.528191,96.5347957 L115.668474,96.4182865 L116.633422,94.8297198 L117.10806,94.0614697 C118.723567,91.4718491 120.318731,89.1913347 122.186658,86.9464502 C127.891173,80.0907325 134.621866,75.3564649 143.537775,73.8798564 L145.340122,73.5908505 L147.497716,73.2518887 L149.567678,72.9360621 L151.550614,72.6433681 L152.824521,72.461089 L154.060198,72.2890891 L155.257823,72.1273677 L156.417576,71.9759242 L157.539634,71.8347576 L158.624179,71.7038673 L159.671387,71.5832526 L160.68144,71.4729126 L161.654515,71.3728467 L162.590792,71.283054 L163.49045,71.2035339 C163.637351,71.1911365 163.782734,71.1791672 163.926602,71.1676258 L164.771667,71.103513 L165.56987,71.0503301 L166.08459,71.0219907 L166.554213,71.0101125 L172.008944,70.9670538 L176.864712,70.9505788 L176.368733,70.4979439 C174.875961,69.150263 173.32819,67.8508683 171.725337,66.5994609 L170.91932,65.9777547 L170.268992,65.4875584 L149.439383,50.5026585 L176.011928,47.4844064 L176.531986,47.4647161 C182.969763,47.2209704 188.389636,48.023043 192.651318,50.2897559 L193.003774,50.4820479 L193.495409,50.7571245 L193.800696,50.9775572 L194.017706,51.0784517 C194.171564,51.1471152 194.350676,51.221473 194.554314,51.3007998 L194.994076,51.4658643 C195.230091,51.5514944 195.490146,51.6416102 195.773511,51.7354866 C196.195753,51.8753714 196.656233,52.0192063 197.154408,52.1666887 L197.929874,52.3906103 L198.761477,52.6197764 L199.648811,52.8539602 L200.591468,53.0929349 L201.589042,53.3364736 C201.930675,53.4183886 202.281392,53.5010266 202.641127,53.5843495 L203.187485,53.7098431 C203.521701,53.7859781 203.848668,53.8595323 204.168308,53.9305034 L205.105168,54.1356652 L205.997595,54.3253149 L206.845123,54.4994391 L207.647281,54.6580243 L208.403602,54.8010571 C208.525809,54.8235991 208.646087,54.8454926 208.764426,54.8667371 L209.477161,54.9904412 L209.520778,54.9420786 C209.653423,54.7907783 209.790022,54.6317417 209.930427,54.4650609 L210.362914,53.9421776 L210.817358,53.3739814 C210.894879,53.2755366 210.973279,53.1752269 211.052539,53.0730636 L211.292878,52.7610247 L211.510755,52.4743764 C213.901318,49.3101128 215.68648,46.1823671 216.881064,43.0874983 L217.138217,42.3905903 L217.325853,41.833705 L217.40848,41.568652 L217.514014,41.1867094 L217.614837,40.7619285 L217.711058,40.2895843 L217.802784,39.7649517 L217.868693,39.3343207 L217.952811,38.7068139 L218.032731,38.0140248 L218.089979,37.4487492 L218.16281,36.6303466 L218.214866,35.9654344 L218.29687,34.753988 L218.373114,33.4054695 L218.430101,32.2217611 L218.509157,30.2603015 L218.592078,27.6709526 L218.675271,24.2837928 L218.73006,21.4221845 L218.828275,14.1953783 L218.876048,8.9940068 L219.000339,3.32507542 L219.107994,-0.6281703 L219.210944,-3.69559453 L219.258133,-4.90501406 L219.358941,-7.14525146 L219.488915,-9.47598689 L219.59104,-10.9677143 L219.678916,-12.0644073 L219.797145,-13.3222451 L219.925424,-14.4631985 L220.035812,-15.2980705 L220.123397,-15.8819214 L220.215281,-16.4317502 L220.311633,-16.9495712 L220.412624,-17.4373984 L220.518424,-17.8972459 L220.591713,-18.1892612 L220.705906,-18.6069517 L220.825362,-19.0020334 L220.95025,-19.3765204 L221.080742,-19.7324269 L221.170933,-19.96037 L221.26374,-20.1815469 L221.407967,-20.5019313 L221.552132,-20.798798 L221.864567,-21.4061639 L221.942456,-21.5614444 L222.051877,-21.7999811 L222.120975,-21.9680882 L222.187868,-22.1477322 L222.285715,-22.4468378 L222.382818,-22.7924931 L222.481706,-23.197053 L222.58491,-23.6728727 L222.694959,-24.2323069 L222.854113,-25.1071668 L222.874687,-25.2319743 L222.595032,-25.3033365 L222.226025,-25.3893363 L222.021606,-25.4342825 C221.648062,-25.5148978 221.233073,-25.5965744 220.777619,-25.6789081 L220.064212,-25.802851 L219.290841,-25.9274763 C218.889287,-25.9899091 218.465522,-26.052484 218.01996,-26.1150307 L217.099895,-26.2400358 L216.190829,-26.3562201 C216.035688,-26.3754879 215.878733,-26.3947073 215.719967,-26.4138777 L214.745645,-26.5283098 L213.727941,-26.641546 L212.666954,-26.7535642 L211.56278,-26.8643422 L210.415517,-26.9738578 L208.614045,-27.1357159 L206.716173,-27.294609 L204.72223,-27.4504623 L203.339725,-27.5526388 L201.914766,-27.6534089 L200.447451,-27.7527504 L199.057864,-27.84222 L197.967524,-27.8922157 C193.548449,-28.086607 189.2675,-28.2155862 185.12506,-28.2794769 L186.184298,-27.738586 L186.822956,-27.4208902 C186.924871,-27.3708087 187.024516,-27.3221627 187.121884,-27.2749546 L187.678693,-27.0089794 L188.021836,-26.84979 L188.276418,-26.7339271 L188.548667,-26.688748 C190.214116,-26.3886469 191.677354,-25.8158788 193.32626,-24.9927238 L193.710249,-24.7983303 L194.05248,-24.6209917 C194.987211,-24.1319581 196.01239,-23.5394817 197.145159,-22.8368398 L197.916465,-22.3520173 L198.720778,-21.8341105 L199.007844,-21.6451354 L199.196141,-21.5521595 C202.466268,-19.894515 204.920077,-18.1044075 206.472514,-15.9662001 L206.678615,-15.6724484 L206.865598,-15.3867747 C208.287933,-13.1357553 208.845901,-10.4865968 208.845901,-7.26397647 C208.845901,-1.9513976 207.411652,2.12676563 203.272999,4.91095509 L202.993068,5.09465007 L202.85443,5.18131056 L202.78011,5.38572985 C202.0978,7.15140684 200.643342,8.59301473 198.689135,9.90170198 L198.376462,10.1072601 L198.098007,10.2843405 C196.46647,11.306582 194.409789,12.2938488 191.854329,13.3237386 L191.29907,13.54511 C189.697331,14.1769885 188.481867,14.7770482 187.654818,15.3125103 C187.409754,15.4711735 187.215378,15.6135392 187.068404,15.7366703 L186.895461,15.8933983 L186.861084,15.9282467 L186.68405,16.1878417 L186.488003,16.4577486 L186.272775,16.7381611 L186.0382,17.0292733 L185.784109,17.3312788 L185.510336,17.6443715 L185.216714,17.9687453 L184.903076,18.304594 L184.569254,18.6521114 L184.215082,19.0114915 L183.840392,19.3829279 L183.445017,19.7666146 L183.02879,20.1627453 L182.591543,20.5715141 L181.895898,21.2087873 L181.152019,21.8755862 L180.359343,22.572565 L179.517306,23.3003779 L178.928246,23.8030396 L178.002687,24.5836965 L177.026262,25.3969321 L175.998408,26.2434005 L174.54696,27.4248513 L172.600629,28.988745 L170.505172,30.6522211 L163.461904,36.190878 L160.032474,38.9057626 L156.442682,41.7719267 L154.24981,43.5422613 L152.41058,45.0465576 L150.926539,46.2834888 L150.279748,46.8344128 L149.441467,47.6019796 L148.468112,48.4839828 L147.468814,49.3797548 C147.300102,49.530198 147.130308,49.6812153 146.959433,49.8328069 L145.921205,50.7492491 L144.857014,51.6794829 L143.766853,52.6235175 L142.650715,53.5813619 L141.508593,54.5530254 L139.746672,56.0364512 L138.539555,57.0427022 L137.306428,58.0628042 L135.407953,59.618948 L133.450912,61.2063079 L131.435281,62.8249149 L130.058966,63.921361 L127.94563,65.5921151 L126.504155,66.7233545 L124.293045,68.4463413 L122.023238,70.200709 L119.694708,71.9864883 L117.307431,73.8037101 L114.861381,75.6524053 L113.198018,76.9023692 L110.653959,78.8035886 L109.902096,79.3620903 L107.911632,80.9330989 C103.759687,84.2231294 99.6708915,87.5587083 95.6452286,90.9398536 L93.6376581,92.6342235 L91.6406093,94.3361884 L91.5243286,94.433982 C75.3098217,107.826319 56.795605,118.184935 36.0555292,125.449156 L9.73513423,134.58966 L9.5909763,134.635751 C8.63341969,134.941902 7.79277526,135.181712 6.98998663,135.365464 C6.37178903,135.506964 5.76277015,135.619452 5.10020324,135.698891 C3.73092205,135.863062 2.37190826,135.884315 0.717643821,135.586806 C-3.01365864,134.915756 -6.19456932,132.754617 -6.8656988,129.616463 C-7.27793617,127.688869 -6.70011923,126.234037 -5.69275689,124.905475 C-5.21638609,124.277212 -4.70850616,123.775694 -4.10791596,123.287649 L-3.84466559,123.078982 L-3.76678149,123.020195 L-3.37636339,122.673796 L-2.97359204,122.327143 L-2.52478193,121.949219 L-1.85420293,121.396209 L-0.898938821,120.62512 L0.187744297,119.764164 L1.66731014,118.610636 L3.34078364,117.323739 L5.87811307,115.396682 L9.94827466,112.344159 L14.7058114,108.813108 L16.1040399,107.780521 L31.7769157,96.0886954 L40.599575,89.4715223 L46.4609327,85.0258989 L48.8581732,82.8094625 L51.4404942,80.3998561 L54.2594287,77.7508834 L56.7891451,75.3606823 L56.0552438,75.2730387 L55.4167676,75.1317147 C49.8652904,73.9029184 45.5404302,71.5028562 43.1902054,67.9336209 L43.0885831,67.7763723 L42.8873,67.4473381 L42.6884495,67.0986146 C42.6225471,66.979051 42.5570138,66.8561444 42.4918128,66.7298336 L42.297171,66.3406269 L42.104305,65.9306264 L41.912996,65.4994639 C41.8812287,65.4258195 41.8495172,65.351278 41.8178569,65.2758318 L41.6284727,64.8122361 L41.440098,64.3265581 L41.252514,63.8184295 L41.0655016,63.2874823 L40.7855758,62.4474713 L40.5990346,61.8578668 L40.4122987,61.2441552 L40.2251491,60.6059683 L39.9431702,59.6019914 L39.6590291,58.5408742 L39.3719866,57.4213742 L39.081304,56.2422489 L38.7862421,55.0022558 L38.6977311,54.6219698 L37.0683654,48.0854515 L36.0308507,44.0197838 L35.3337763,41.3911141 L35.0844367,40.5024206 C33.8591557,36.2715315 35.5191611,32.1894693 39.4840407,28.7695084 L39.7579382,28.5373613 C40.5629654,27.8668064 41.2987038,26.5659109 41.7501487,24.5340096 L41.8430689,24.0870856 L41.9591193,23.4635996 L42.0337243,23.0012046 L42.0971844,22.5394198 L42.1458784,22.1117392 C42.1533362,22.0391241 42.1604682,21.9657569 42.1672791,21.8915112 L42.2043301,21.4344809 L42.2339031,20.9502867 L42.2562255,20.4328506 L42.2715244,19.8760945 L42.2800272,19.2739406 L42.2792578,18.0736684 L42.2502817,16.2852349 L42.1942455,14.2386242 L42.0556191,10.2223674 L41.9630807,7.86487879 L41.8920588,6.21406893 L41.8141851,4.51668196 L41.7299843,2.78706943 L41.5929673,0.163621797 L41.4952437,-1.58376649 L41.3930289,-3.31314983 L41.2733963,-5.21874331 L41.0928515,-7.87199166 L40.9176864,-10.2091523 L40.7381215,-12.3774228 L40.591613,-13.9832027 L40.4428226,-15.4684889 L40.3298749,-16.5000632 L40.2158772,-17.4584329 L40.1366365,-18.0758892 L40.054883,-18.6708389 L39.9738174,-19.2185867 L39.8542755,-19.9481613 L39.7821783,-20.3374937 L39.5392793,-20.5915 C37.7167925,-22.5328527 36.6478675,-24.7776132 36.3486317,-27.2078338 L36.3111215,-27.5562571 L36.2850507,-27.8918222 C36.0435011,-31.7146407 37.3997409,-35.0715962 41.3139919,-37.444686 L41.7270109,-37.6867923 L41.8520319,-37.7542449 C41.9625131,-37.8138529 42.0771623,-37.8740934 42.1960445,-37.9349979 L42.5654553,-38.1197345 C42.629162,-38.1508664 42.6939432,-38.1821721 42.759807,-38.2136556 L43.1680473,-38.4047208 L43.6026619,-38.6002404 L44.3048901,-38.9022837 L44.8071491,-39.1097633 L45.3371491,-39.3223563 L45.8952807,-39.5402512 L46.4819342,-39.7636361 L47.4162475,-40.1094195 L48.0759143,-40.3473537 L49.1215779,-40.7158435 L50.2358087,-41.0988047 L51.4199248,-41.4968726 L52.6752438,-41.9106829 L54.0030836,-42.3408711 L55.8886247,-42.9410306 L57.9085583,-43.5729426 L60.1190069,-44.2544522 L62.3239525,-44.9253968 L64.9070205,-45.6980232 L66.3655635,-46.1265638 L68.2049745,-46.657303 L69.9252862,-47.1418236 L71.1381868,-47.4750386 L71.9102838,-47.6828732 L72.6533781,-47.8792985 L73.3676414,-48.0643468 L74.3853535,-48.3206579 L75.02829,-48.4774049 L75.642996,-48.6228879 L76.5124984,-48.820063 L77.0573791,-48.9375272 L77.4797232,-49.025018 L79.0161399,-49.3002006 L81.7462999,-49.782145 L84.4508053,-50.2504132 L87.129669,-50.7050021 C88.4626925,-50.9288762 89.7861051,-51.1476192 91.0999139,-51.3612296 L93.7147289,-51.781606 C98.0514192,-52.4708255 102.281455,-53.1030009 106.405101,-53.6780657 L108.866525,-54.0162507 C110.907075,-54.2923596 112.921042,-54.5541875 114.908458,-54.801726 L117.280615,-55.0919129 C124.752102,-55.9891147 131.840388,-56.6799302 138.547296,-57.1639022 L140.652592,-57.3098592 C142.047674,-57.4025794 143.425861,-57.4861299 144.78717,-57.5605064 Z M147,-26.5524126 L146.339055,-26.469837 L143.894107,-26.1882084 L138.952156,-25.6249889 L133.940795,-25.0618183 L128.860018,-24.4986955 L123.537667,-23.9169243 L123.364716,-23.9025105 C113.960128,-23.1187315 105.083825,-21.7136571 96.7249898,-19.6907278 L95.436977,-19.3738081 L94.2105577,-19.061848 L93.4276487,-18.8570931 L92.3060686,-18.5554832 L91.2487019,-18.2613338 L90.5799502,-18.069842 L89.9404655,-17.8823605 L89.330539,-17.6991674 L88.4717076,-17.4330259 L87.9369501,-17.261769 L87.1922368,-17.0148344 C87.1133494,-16.9880896 87.0357543,-16.9615813 86.9594574,-16.9353154 L86.3080035,-16.7056218 L85.9131351,-16.5602265 L85.5501538,-16.4213423 L85.0661067,-16.2258322 L84.7841164,-16.1044415 L84.535032,-15.9905343 L84.3191446,-15.8843887 C84.2859459,-15.86736 84.2541426,-15.8506663 84.2237407,-15.8343133 L84.0581945,-15.7403309 L83.9265731,-15.6548046 L82,-14.1687272 L82.2632974,-5.65526434 L82.5983548,8.34797351 L82.8641348,17.7724769 L83.061858,23.6561229 L83.3170979,30.3094428 L83.320878,30.6372041 L83.3151576,31.269622 L83.2980167,31.9323334 L83.2694856,32.6255255 L83.2295943,33.349386 L83.1783733,34.1041024 L83.1158528,34.8898621 L83.042063,35.7068526 L82.9570341,36.5552614 L82.8607965,37.435276 L82.6954897,38.8149691 L82.5380386,40.0366771 L82.482585,40.5403191 L82.4414203,41.0168965 L82.4137805,41.4660518 L82.3989014,41.8874277 C82.3959837,42.0232167 82.3950654,42.1543162 82.3960193,42.2806667 L82.4043699,42.6454113 L82.4231895,42.9813043 C82.427156,43.0348623 82.4315269,43.0872032 82.4362863,43.1383196 L82.4693766,43.4302648 L82.5110257,43.6924648 C82.5643118,43.9808743 82.6335124,44.2078241 82.713168,44.3707603 L82.7479304,44.4366634 C83.5377114,45.8203546 83.9625266,47.3043821 84.0638247,48.921797 L84.5475797,48.3479521 C84.6245795,48.2553199 84.6997648,48.164193 84.7731333,48.074573 L85.1915252,47.5549494 L85.4721701,47.1977343 L85.9720773,46.5818401 L86.7582539,45.6242159 L87.5880287,44.6260272 L88.7622516,43.2319595 L89.6938391,42.1390099 L90.6690967,41.0054014 L92.0374084,39.4306271 L93.4834451,37.7834526 L94.6190104,36.5005187 L96.6088979,34.2716343 L98.7204702,31.9293099 L100.953827,29.4734142 L102.352339,27.9453079 L104.780759,25.3074253 L107.331223,22.5556304 L109.705563,20.0088016 L111.925364,17.6392352 L115.007353,14.3655992 L117.410603,11.824624 L120.828457,8.22814105 C121.074085,7.97874085 121.326388,7.71718449 121.585322,7.44350956 L122.112018,6.88001276 C122.201269,6.78340733 122.291254,6.68545818 122.381971,6.5861667 L122.93504,5.97432103 L123.50559,5.33032636 C123.602134,5.22031855 123.699403,5.10897398 123.797395,4.99629405 L124.394018,4.30420126 L125.007922,3.58012664 L125.639027,2.82413705 L126.287253,2.03629937 L126.952521,1.21668045 L127.29152,0.794973923 L127.874842,0.0632779868 L128.642551,-0.910738563 L129.430103,-1.9220981 L130.648412,-3.50896718 L131.910787,-5.17937369 L133.216882,-6.93302705 L134.244685,-8.32991327 L135.342254,-9.84005281 L136.105759,-10.9044023 L136.817952,-11.9099363 L137.68747,-13.1586736 L138.279362,-14.0258825 L138.819449,-14.8333425 L139.458724,-15.8165292 L139.880225,-16.4882069 L140.241591,-17.0867792 L140.446823,-17.4408165 L140.623162,-17.7577046 C140.650128,-17.8073692 140.675877,-17.8554452 140.700404,-17.9019123 L140.83289,-18.1639263 L140.847764,-18.2738878 C141.18316,-20.6544918 142.782912,-22.7801263 146.015346,-25.6859335 L146.661465,-26.2583678 C146.772582,-26.3554898 146.885423,-26.4534932 147,-26.5524126 Z" id="Combined-Shape" fill="#000000" fill-rule="nonzero"></path>
        <path d="M559,-92.5351908 C607.666667,-89.6787079 725.345118,-81.8366854 734,-80.9052245 C742.654882,-79.9737637 739.984897,-82.2484585 757.889905,-74.4665344 C775.794914,-66.6846102 779.887591,-65.9862494 789.889905,-58.5518437 C799.889905,-51.117438 799.889905,-53.9458145 799.889905,-43.2492565 C799.889905,-32.5526986 795.084407,-29.6772327 789.889905,-21.8256345 C784.695403,-13.9740363 776.591967,-7.34003787 775.389905,-6.21699555 C774.187843,-5.09395324 780.032192,-10.6101718 770.889905,-4.07463334 C761.747619,2.4609051 773.742834,3.34032358 754,9.07398809 C734.257166,14.8076526 710.666667,14.9909885 694,18.2555404 C692,18.6636094 690.666667,18.6636094 690,18.2555404 C689.333333,17.8474714 689.333333,17.0313334 690,15.8071265 C691.333333,12.9506435 695.833333,8.25785011 703.5,1.72874624 C711.166667,-4.80035762 717,-8.98306478 721,-10.8193752 C725,-12.6556857 729.5,-17.1444446 734.5,-24.285652 C739.5,-31.4268593 741,-35.813601 739,-37.4458769 C737.666667,-39.8942909 724.333333,-43.4648946 699,-48.157688 C673.666667,-52.8504814 598.666667,-56.421085 574,-58.869499 L532,-63.1542234 C294.222222,-66.1467293 170.888889,-67.3709363 162,-66.8268443 C139,-66.8268443 116.833333,-65.1945684 106.5,-63.1542234 C96.1666667,-61.1138785 34.3333333,-53.5646021 27,-50.3000502 C17,-47.0354982 12,-42.8527911 12,-37.7519287 C12,-32.6510663 10,-28.0602901 6,-23.9796002 C2,-19.8989103 -9.9475983e-13,-15.1040997 -9.9475983e-13,-9.59516827 C-9.9475983e-13,-4.08623689 -1.5,1.32067725 -4.5,6.62557414 C-7.5,11.930471 -7.5,18.2555404 -4.5,25.6007822 C-1.5,32.9460241 -2,38.65899 -6,42.7396799 C-14,52.9414047 -26.6666667,58.0422671 -44,58.0422671 C-56,58.0422671 -66.3333333,54.5736806 -75,47.6365078 C-83.6666667,40.6993349 -89,31.3137481 -91,19.4797474 C-92.3333333,12.1345055 -92.5,6.82960864 -91.5,3.56505671 C-90.5,0.300504773 -87.3333333,-4.59632313 -82,-11.125427 C-74.6666667,-20.5110138 -68.6666667,-28.8764281 -64,-36.22167 C-56,-49.2798777 -48.1666667,-58.46143 -40.5,-63.7663269 C-32.8333333,-69.0712238 -24.3333333,-71.7236722 -15,-71.7236722 C-8.33333333,-71.7236722 119.166667,-91.8210701 131.5,-94.0654495 C143.833333,-96.309829 547,-93.7593978 559,-92.5351908 Z" id="Path" fill="#000000" fill-rule="nonzero"></path>
    </g>
</svg>