<?xml version="1.0" encoding="UTF-8"?>
<svg width="800px" height="470px" viewBox="0 0 800 470" version="1.1" xmlns="http://www.w3.org/2000/svg" xmlns:xlink="http://www.w3.org/1999/xlink">
    <title>l_da_m</title>
    <g id="l_da_m" stroke="none" stroke-width="1" fill="none" fill-rule="evenodd">
        <path d="M723.681174,70.8535319 C726.526044,70.0830622 728.881819,70.5629706 731.07571,71.6287672 L731.349127,71.7649952 L731.61057,71.9014706 C732.666522,72.4646452 733.609873,73.1445373 734.588524,73.9749086 C735.40927,74.671299 736.296483,75.5151939 737.274311,76.5226395 L737.939885,77.2186757 L738.633899,77.9642279 C738.752026,78.0926716 738.871405,78.2232226 738.992067,78.3559027 L739.357941,78.7603527 C739.555284,78.9796223 739.748095,79.1907205 739.936215,79.3935818 L740.486346,79.9773899 C741.289957,80.8158401 741.99537,81.4861703 742.588117,81.9824233 L742.882027,82.2213312 L743.062769,82.359 L743.110851,82.3747754 C745.802289,83.2712392 747.868683,85.0196933 749.77002,87.3939673 L750.028313,87.7215898 L750.274164,88.0427233 C751.799563,90.062847 753.30835,92.6623227 754.907167,95.9294714 C756.513854,99.2127007 757.630291,101.976339 758.264495,104.386317 C759.011505,107.224952 759.263803,109.83353 758.57249,112.329824 L758.46166,112.703441 L758.398769,112.889 L758.372718,113.862073 L758.327718,116.202076 L758.265654,121.765429 L758.211688,133.301334 L758.200749,141.277053 L758.166909,210.489321 L758.04198,309.793757 L757.954392,344.479672 L757.91378,354.049891 L757.882121,358.865116 L757.865948,360.446374 L757.855048,361.178431 L757.84406,361.644623 L757.80482,362.712441 L757.740029,364.219098 L757.667784,365.613527 L757.615293,366.481828 L757.559209,367.301796 C757.549556,367.434463 757.539748,367.565143 757.529784,367.693848 L757.468101,368.442475 C757.457501,368.56333 757.44674,368.682236 757.435815,368.799205 L757.368281,369.477883 C757.356691,369.587157 757.344934,369.694521 757.333005,369.799986 L757.296706,370.110702 C757.134306,371.456301 756.935448,372.572474 756.625973,373.628329 C756.535754,373.936136 756.437661,374.237549 756.327082,374.536292 L756.151275,374.98287 L756.004769,375.316 L755.946569,376.076394 L755.903768,376.714677 L755.828764,378.018029 L755.742531,379.848542 L755.677646,381.503531 L755.601761,383.808893 L755.5185,386.91987 L755.455746,389.797238 L755.399134,392.931568 L755.364785,395.365042 L755.284872,400.016362 L755.223207,402.958112 L755.117972,407.133139 L755.039233,409.758731 L754.931046,412.864015 L754.860881,414.633271 L754.761145,416.883096 L754.654288,419.008544 L754.540247,421.010052 L754.449965,422.430112 L754.323205,424.215784 L754.223313,425.474471 L754.11926,426.664306 L754.011019,427.785475 L753.898564,428.838163 L753.78187,429.822555 C753.768667,429.928144 753.755386,430.032472 753.742025,430.13554 C752.772914,437.611537 750.90248,443.942238 748.004435,449.128214 C747.314167,450.363429 746.492353,451.670766 745.53719,453.055164 L744.948075,453.89509 C744.544645,454.461259 744.119822,455.039915 743.67349,455.631375 L742.987845,456.528209 L742.269852,457.444485 L741.519422,458.380443 C740.880524,459.168673 740.207749,459.977651 739.500871,460.807993 L738.636234,461.8147 L737.738772,462.842153 L736.808397,463.890591 L735.845025,464.960251 C735.681708,465.14031 735.517013,465.321262 735.350937,465.503114 L734.337906,466.605051 L733.697297,467.294839 L733.571068,467.421068 C716.972033,484.020103 698.678266,484.545059 684.040264,468.108014 L683.743769,467.771 L682.222849,466.123722 L681.201249,465.029674 L680.195443,463.961936 L679.205508,462.920542 L678.231518,461.905527 L677.273547,460.916926 L675.866792,459.483626 L674.496504,458.109953 L673.603363,457.227353 L672.726617,456.371341 L671.866341,455.54195 L670.606971,454.347855 L669.788197,453.58517 C669.653127,453.460283 669.518754,453.336511 669.38508,453.213854 L668.591432,452.491296 L667.81463,451.795533 L667.054747,451.126599 L666.311859,450.48453 L665.58604,449.869359 C665.466497,449.769074 665.347668,449.669911 665.229555,449.571871 L664.529482,448.997114 C664.414239,448.903568 664.299715,448.811148 664.185912,448.719852 L663.511752,448.185585 C663.400838,448.098793 663.290647,448.013127 663.181181,447.928589 L662.533104,447.434891 L661.902509,446.968282 C661.695233,446.817264 661.490883,446.670768 661.289471,446.528797 L660.694065,446.116471 L660.402998,445.920503 C655.822709,442.866977 652.158501,439.107378 649.517725,434.675716 L648.889453,433.595683 C648.836177,433.505256 648.783619,433.416768 648.731799,433.330235 L648.429903,432.834632 C648.381118,432.755985 648.333111,432.679326 648.285903,432.60467 L648.012407,432.180913 L647.759056,431.806021 L647.526819,431.480769 L647.439769,431.365 L647.315867,431.284056 C644.840568,429.617602 643.003398,427.209124 642.100954,424.298856 L641.993038,423.932477 L641.898575,423.575356 C641.231376,420.906562 641.231376,418.183094 642.113167,415.537722 C643.82668,410.397183 648.405319,407.65 653.35,407.65 C657.028256,407.65 660.193903,409.065998 663.918432,411.619313 L664.318379,411.894184 L664.552719,412.006553 L664.8381,412.132046 L665.183194,412.273594 L665.68614,412.466433 C665.774884,412.499324 665.866076,412.532583 665.9597,412.5662 L666.550495,412.772105 L667.198862,412.986065 L667.904005,413.207558 L668.66513,413.436059 L669.465949,413.666682 L670.297865,413.89734 C670.440167,413.936097 670.584293,413.97501 670.730239,414.014078 L671.627747,414.250344 L672.568841,414.490288 L673.553405,414.733864 L674.581326,414.981024 L676.204251,415.358382 L677.340062,415.614295 L679.124284,416.004561 L681.004771,416.402358 L682.981134,416.807526 L683.789041,416.969769 L685.962357,417.472445 L687.382323,417.81368 L688.706934,418.144097 L689.538328,418.358924 L690.329284,418.569784 C690.457783,418.604615 690.584629,418.639295 690.70984,418.673831 L691.792986,418.980946 L692.467285,419.181921 L693.104253,419.380274 C693.207346,419.413133 693.308916,419.445897 693.408979,419.478572 L693.991404,419.673623 L694.538438,419.866893 L694.798926,419.962965 L694.981769,420.032 L695.038539,420.023364 C695.306761,419.97861 695.614989,419.917145 695.960794,419.838349 L696.507382,419.707081 L697.108516,419.549352 C697.213149,419.520833 697.31998,419.491192 697.428969,419.460419 L698.076521,419.271737 C699.932126,418.715056 701.45819,418.140017 702.640009,417.569484 C702.970855,417.409765 703.261311,417.257115 703.511531,417.114598 L703.750769,416.972 L703.887184,416.593881 L704.03393,416.159918 L704.110908,415.922098 C704.171965,415.730785 704.233619,415.531393 704.295841,415.324 L704.48418,414.677893 L704.675756,413.984245 L704.870394,413.243523 L705.067925,412.456194 L705.268175,411.622724 L705.470974,410.743581 L705.676149,409.819231 L705.883529,408.850142 L706.092942,407.836781 L706.304216,406.779613 L706.51718,405.679107 C706.612533,405.164203 706.704168,404.633095 706.792057,404.085842 L706.96283,402.969829 C707.239099,401.073989 707.473524,398.999202 707.665028,396.747645 L707.774771,395.375516 L707.874161,393.961067 C707.90556,393.482542 707.935225,392.996981 707.963148,392.504401 L708.041678,391.005625 C708.053892,390.752325 708.065668,390.497275 708.077005,390.240477 L708.139754,388.67873 C708.168487,387.887385 708.19325,387.080346 708.214014,386.257672 L708.250202,384.591495 C708.255342,384.31033 708.260036,384.027432 708.264282,383.742804 L708.287778,381.072339 L708.32182,361.781806 L708.332783,336.005566 L708.317875,276.717383 L708.269861,224.417665 L708.172902,174.693509 L708.111829,159.731295 L708.100964,158.038875 L706.940973,74.5194927 L719.574689,71.3610637 L720.991891,71.2300997 L721.580842,71.1702856 L722.352308,71.0833271 L722.985786,71.0005051 L723.388769,70.937 L723.681174,70.8535319 Z M753.755695,9.6381294 C757.315498,8.84706226 760.22335,8.84706226 763.572002,11.0794971 C764.924304,11.9810317 766.018172,13.1222317 766.832405,14.4174443 L767.030125,14.7444064 L767.121769,14.909 L767.915554,15.3728733 L768.986846,16.0102067 L770.099401,16.6828073 L771.253384,17.3907454 C771.449175,17.5116838 771.6467,17.6340975 771.845961,17.757988 L773.686288,18.9129146 L774.965537,19.727286 C775.814649,20.2707177 776.527732,20.6310124 777.081347,20.8278531 L777.261738,20.8890668 L777.454465,20.9488473 L778.440195,20.95 L779.411161,21.1441932 C783.644209,21.9908027 786.578964,24.534257 790.382213,29.098156 C793.238227,32.5253732 795.466232,36.1685668 797.029137,40.0169193 L797.283456,40.6602092 L797.550498,41.3545176 L797.711871,42.0806954 C798.859056,47.2430277 797.270737,52.4751367 793.727415,58.8868611 C790.405513,64.8979233 786.913984,68.9252009 782.144305,70.6354704 L781.774867,70.7624539 L781.534769,70.837 L781.431067,70.8817592 C777.550993,72.449288 773.263791,72.4427447 768.588535,71.2937983 L768.103504,71.1708843 L767.541292,71.0208802 L767.35753,70.9820749 L767.12799,70.9425849 L766.853618,70.90273 L766.360075,70.8429627 L765.553946,70.76498 L764.585539,70.6912928 L764.042848,70.6568595 L762.845227,70.5944118 L761.85253,70.5544518 L760.782401,70.5215843 L759.370436,70.4917171 L757.860904,70.4733954 L756.254346,70.4666366 L754.551302,70.4714581 L752.752314,70.4878775 L750.857923,70.5159122 L748.86867,70.5555797 L746.785096,70.6068976 L744.607741,70.6698832 L743.218652,70.7123786 L741.826191,70.740192 L739.185396,70.7762462 L735.670632,70.8111004 L727.489768,70.869134 L716.836669,70.9232858 L701.801245,70.9802512 L671.344031,71.0611324 L643.290105,71.1130457 L573.094735,71.1910679 L498.814008,71.2230414 L426.525114,71.2170789 L354.498499,71.17324 L284.104507,71.0780978 L255.377765,71.0140026 L227.929289,70.9250674 L212.119943,70.8474888 L205.0309,70.7973126 L200.572053,70.7535018 L197.988579,70.717184 L197.033356,70.6986114 C184.003057,70.4814397 170.43713,70.8853522 156.336128,71.9118937 L153.37651,72.1359744 L151.718895,72.2697098 L149.2908,72.4774629 L147.711024,72.6206996 L146.162468,72.7676984 L144.645182,72.9184375 L143.159212,73.0728949 L140.989084,73.3115049 C140.751885,73.3384764 140.515996,73.3656006 140.281418,73.392877 L138.889691,73.5583579 L137.529474,73.7274696 L135.548337,73.9878966 L134.267108,74.1659891 L133.01756,74.3476357 L131.79974,74.5328143 L130.613697,74.7215031 L129.459479,74.9136803 L128.337135,75.1093238 L127.246713,75.3084117 L126.188261,75.5109222 L125.161828,75.7168334 L124.167462,75.9261233 L123.205212,76.1387701 L122.275126,76.3547518 C122.122795,76.3910254 121.971806,76.4274371 121.82216,76.4639863 L121.107769,76.642 L120.278214,76.892083 C115.57898,78.2840569 111.135501,79.3482049 106.941057,80.0804837 L106.046057,80.2323195 L104.107293,80.5396513 C103.946234,80.565722 103.787009,80.5918301 103.629626,80.6179707 L102.26318,80.8539801 L101.408227,81.0118975 L100.598598,81.1699991 L99.834734,81.3280463 C99.7112615,81.3543697 99.5897142,81.3806809 99.4701012,81.4069749 L98.7757097,81.5644934 L98.1281842,81.7213613 C98.0241933,81.7474385 97.9221734,81.7734787 97.8221339,81.7994768 L97.2457338,81.9549218 L96.7173015,82.10912 C96.6332513,82.1347025 96.551218,82.1602232 96.471211,82.185677 L95.9141304,82.3672032 L95.1831931,82.5920618 L94.3382058,82.8360915 L93.1194079,83.1687218 L92.0125737,83.4574078 L90.4619374,83.8471752 L87.9741281,84.4482714 L84.6692288,85.2170132 L80.3488743,86.1900902 L76.5376466,87.029077 L75.3750421,87.2823413 L74.7611119,87.4137046 L73.5630304,87.6768845 L72.4048335,87.9405309 L71.2867371,88.2044787 L70.2089568,88.468563 L69.1717085,88.7326185 L68.1752079,88.9964802 L67.2196707,89.2599829 L66.3053126,89.5229616 L65.4323495,89.7852512 L64.600997,90.0466866 L63.8114708,90.3071027 C63.6833807,90.3504112 63.5570423,90.3936704 63.4324601,90.4368768 L62.7060781,90.6954543 C62.0008429,90.9533433 61.3591564,91.2090842 60.7819893,91.461934 L60.2263647,91.7137926 L59.9831272,91.8300893 L59.7551164,91.9432035 L59.5457692,92.05 L59.4422747,92.3466673 C58.3095026,95.4424099 56.0458325,97.9670641 52.9359088,99.3806665 L52.5994774,99.5278478 L52.278957,99.657705 C49.3127653,100.814017 46.2749052,100.832428 43.0053354,100.153838 C39.2069325,99.3654906 34.6794997,97.4889505 29.122816,94.5172526 L27.9583727,93.8867897 L26.6652888,93.169063 C16.1372385,87.1154341 8.76876769,80.7830948 4.64770861,73.760394 L4.39437161,73.3205726 L4.32104427,73.1885213 C0.756196372,66.6529668 1.21904686,59.247359 7.63761806,54.6626653 C7.78344712,54.5585017 7.93303198,54.4543632 8.08638997,54.350239 L8.55780058,54.0378977 C8.63826135,53.9858442 8.71966973,53.9337916 8.80202788,53.8817384 L9.30759135,53.5694011 L9.83605326,53.256984 L10.3875175,52.9444213 L10.9620879,52.6316469 L11.5598685,52.3185949 C11.6614385,52.2663928 11.7639799,52.2141764 11.867495,52.1619443 L12.5002854,51.8483523 L13.1565457,51.534318 L13.8363797,51.2197753 L14.5398913,50.9046583 L15.2671843,50.5889012 L16.0183627,50.2724378 L16.7935304,49.9552025 L18.001489,49.4777575 L18.8370843,49.1583035 L19.6970324,48.8378466 L20.5814373,48.516321 L21.4904029,48.1936606 L22.4240329,47.8697996 L23.3824314,47.544672 L24.8666971,47.0544615 L25.8874711,46.725879 L26.9333771,46.3957991 L28.5495859,45.8977276 L30.2229261,45.3959161 L31.9537483,44.8901422 L33.1397373,44.5506483 L34.9671421,44.0377758 L37.4946132,43.3468205 L39.4588697,42.8229715 L40.8012608,42.4709331 L43.5654387,41.7598257 L46.4361701,41.0389048 L49.4142861,40.3076429 C69.9446848,35.3200319 89.0056924,31.9593921 106.607284,30.2333278 L107.878769,30.111 L110.672342,29.7526448 L115.275666,29.1502554 L119.986575,28.5213105 L123.187613,28.0871664 L126.437462,27.6410782 L131.404625,26.9494267 L134.778241,26.4732304 L139.932921,25.7361511 L143.348868,25.2416983 L144.021417,25.1560972 L144.514831,25.1011309 L145.057569,25.0476632 L145.661018,24.9955378 L146.336568,24.9445985 L147.095606,24.8946891 L147.94952,24.8456532 L148.909699,24.7973347 L150.574125,24.7258601 L151.849788,24.6786512 L153.271574,24.6316128 L154.85087,24.5845885 L157.54006,24.5137369 L161.783223,24.4178593 L168.272114,24.2939904 L176.243678,24.1633738 L185.875854,24.0235681 L202.489524,23.807754 L226.515445,23.5246017 L256.614629,23.1929246 L337.948143,22.343994 L473.252481,20.9600912 L514.146792,20.5184006 L546.998826,20.1441862 L576.634129,19.7850571 L596.793485,19.5243213 L609.265798,19.3540957 L620.974937,19.1864363 L634.552031,18.9800629 L644.577349,18.8171983 L653.86911,18.6560296 L662.436429,18.496289 L668.391983,18.3772595 L675.713454,18.2193735 L682.335543,18.0621791 L686.848621,17.944576 L690.977268,17.8270983 L694.725327,17.7096331 L697.014495,17.631274 L700.136786,17.5135783 L702.012334,17.434961 L703.724427,17.3561819 L705.274206,17.2772074 L706.662809,17.198004 L707.891374,17.1185384 L710.690481,16.9420341 L714.043985,16.7140678 L716.609613,16.5260971 L719.070308,16.3333915 L721.425356,16.1361732 L723.674041,15.9346644 L725.815647,15.7290876 L727.351151,15.5723689 L729.303646,15.3602077 L731.147095,15.1445895 L732.457689,14.9807411 L733.706239,14.8151669 L735.273938,14.591879 L736.016001,14.4792166 L737.076608,14.309028 L738.073965,14.1374888 L738.703581,14.0224253 L739.594847,13.8488434 L740.422057,13.6741611 L740.937795,13.557141 L741.424839,13.4397013 L741.8831,13.3218697 L742.31249,13.203674 L742.734769,13.079 L744.468271,12.4567672 L745.363715,12.141968 L746.211464,11.8489266 L747.394603,11.4499277 L748.125003,11.2108151 L749.134142,10.8922099 C750.886535,10.3530119 752.416903,9.93563881 753.755695,9.6381294 Z" id="ä¸" fill="#000000" fill-rule="nonzero"></path>
    </g>
</svg>