<svg width="345" height="345" viewBox="0 0 345 345" fill="none" xmlns="http://www.w3.org/2000/svg">
<path d="M334.123 326.982C323.456 328.582 314.656 329.782 307.723 330.582C301.056 331.382 295.323 332.048 290.523 332.582C285.723 333.115 281.323 333.382 277.323 333.382C273.59 333.649 269.323 333.782 264.523 333.782C257.056 333.782 250.923 333.515 246.123 332.982C241.59 332.715 237.59 331.782 234.123 330.182C230.923 328.582 227.99 326.182 225.323 322.982C222.656 319.782 219.59 315.382 216.123 309.782C207.856 296.448 198.523 281.782 188.123 265.782C177.99 249.515 166.39 231.382 153.323 211.382C149.323 226.582 143.99 240.315 137.323 252.582C130.923 264.848 122.523 275.782 112.123 285.382C101.723 294.982 89.1897 303.248 74.5231 310.182C60.1231 317.382 43.0564 323.382 23.3231 328.182C9.18974 331.648 1.45641 331.515 0.123077 327.782C-0.94359 324.315 4.92308 319.648 17.7231 313.782C31.5897 307.648 44.5231 299.915 56.5231 290.582C68.7897 280.982 79.5897 270.048 88.9231 257.782C98.5231 245.248 106.39 231.382 112.523 216.182C118.656 200.715 122.523 184.049 124.123 166.182C117.723 167.515 111.456 168.715 105.323 169.782C99.4564 170.848 94.2564 172.048 89.7231 173.382C81.9898 175.515 75.7231 177.115 70.9231 178.182C66.1231 178.982 62.1231 179.249 58.9231 178.982C55.7231 178.715 52.9231 178.048 50.5231 176.982C48.3897 175.648 45.7231 173.782 42.5231 171.382C37.9897 167.915 34.6564 165.115 32.5231 162.982C30.3897 160.848 29.4564 159.248 29.7231 158.182C30.2564 156.848 31.9897 155.915 34.9231 155.382C37.8564 154.582 42.2564 153.915 48.1231 153.382C58.2564 152.582 70.1231 151.382 83.7231 149.782C97.3231 147.915 111.19 145.782 125.323 143.382C125.856 126.315 126.123 111.915 126.123 100.182C126.123 88.1818 125.723 78.1818 124.923 70.1818C124.123 62.1818 123.056 55.9152 121.723 51.3818C120.656 46.5818 119.19 42.7152 117.323 39.7818C112.523 32.5818 109.19 26.8485 107.323 22.5818C105.723 18.3151 105.856 15.3818 107.723 13.7818C109.856 11.9151 113.99 11.5152 120.123 12.5818C126.523 13.3818 135.59 15.3818 147.323 18.5818C155.323 20.7152 161.456 22.9818 165.723 25.3818C170.256 27.5151 173.323 29.9151 174.923 32.5818C176.523 35.2485 176.923 38.3152 176.123 41.7818C175.323 44.9818 173.856 48.9818 171.723 53.7818C171.19 54.8485 170.656 56.5818 170.123 58.9818C169.59 61.1151 168.923 65.1151 168.123 70.9818C167.59 76.8485 166.923 84.9818 166.123 95.3818C165.323 105.782 164.39 119.648 163.323 136.982C174.523 134.848 184.39 132.849 192.923 130.982C201.723 128.849 208.39 126.982 212.923 125.382C221.99 122.182 229.723 119.915 236.123 118.582C242.523 116.982 248.123 116.315 252.923 116.582C257.723 116.848 261.99 117.782 265.723 119.382C269.723 120.982 273.59 123.115 277.323 125.782C289.856 134.848 294.656 141.515 291.723 145.782C288.79 150.048 278.123 152.449 259.723 152.982C246.39 153.248 231.056 154.049 213.723 155.382C196.39 156.715 178.923 158.448 161.323 160.582C161.323 163.515 161.19 166.182 160.923 168.582C160.656 170.982 160.39 173.382 160.123 175.782C175.323 197.382 189.456 215.248 202.523 229.382C215.856 243.248 229.19 254.982 242.523 264.582C255.856 273.915 269.723 281.782 284.123 288.182C298.523 294.582 314.39 301.115 331.723 307.782C345.056 312.848 351.723 316.848 351.723 319.782C351.99 322.982 346.123 325.382 334.123 326.982Z" fill="black"/>
</svg>
