<svg width="345" height="345" viewBox="0 0 345 345" fill="none" xmlns="http://www.w3.org/2000/svg">
<path d="M171.15 123.75C170.05 123.75 169.317 123.933 168.95 124.3C168.583 129.433 167.117 133.283 164.55 135.85C162.35 138.05 159.967 139.333 157.4 139.7C154.833 140.433 151.9 139.15 148.6 135.85C145.3 132.183 142.917 127.05 141.45 120.45C139.25 109.817 137.05 100.65 134.85 92.95C133.017 84.8833 131 77.9167 128.8 72.05C126.6 66.1833 124.217 60.8667 121.65 56.1C119.45 51.3333 116.7 46.75 113.4 42.35C110.467 38.3167 108.817 34.8333 108.45 31.9C108.083 28.6 109.183 26.2166 111.75 24.75C114.317 22.9166 118.533 22.1833 124.4 22.55C130.633 22.9167 138.7 24.5667 148.6 27.5C161.433 25.6667 173.533 23.1 184.9 19.8C196.633 16.1333 205.617 11.9167 211.85 7.15001C218.083 2.38333 224.317 0 230.55 0C236.783 0 245.95 3.66666 258.05 11C266.117 15.7667 272.167 19.6167 276.2 22.55C280.6 25.4833 283.35 28.05 284.45 30.25C285.917 32.45 285.917 34.4667 284.45 36.3C283.35 38.1333 281.15 40.15 277.85 42.35C269.05 48.95 262.267 55.1833 257.5 61.05C253.1 66.9167 249.067 74.9833 245.4 85.25C254.933 88.1833 259.883 92.7667 260.25 99C260.617 105.233 255.483 109.45 244.85 111.65C241.917 112.383 239.167 112.933 236.6 113.3C234.033 113.667 231.1 114.217 227.8 114.95C224.5 115.683 220.467 116.417 215.7 117.15C210.933 117.883 205.067 118.8 198.1 119.9C210.933 125.4 218.45 129.8 220.65 133.1C223.217 136.4 223.583 140.067 221.75 144.1C219.917 148.133 218.45 152.533 217.35 157.3C216.617 161.7 215.883 167.383 215.15 174.35C222.483 170.683 228.35 167.75 232.75 165.55C237.517 163.35 241.55 161.883 244.85 161.15C248.15 160.417 251.083 160.417 253.65 161.15C256.217 161.517 258.967 162.433 261.9 163.9C268.133 166.833 270.883 170.867 270.15 176C269.783 181.133 265.933 184.8 258.6 187C249.067 189.933 241.367 191.767 235.5 192.5C229.633 192.867 222.667 192.683 214.6 191.95C213.867 200.017 213.317 210.467 212.95 223.3C212.583 236.133 212.217 250.25 211.85 265.65C225.417 260.517 236.233 256.483 244.3 253.55C252.367 250.617 258.417 248.6 262.45 247.5C266.85 246.4 269.6 246.033 270.7 246.4C272.167 246.767 272.9 247.683 272.9 249.15C272.9 252.817 269.967 256.85 264.1 261.25C258.6 265.65 249.617 270.967 237.15 277.2C220.65 285.633 206.717 292.967 195.35 299.2C183.983 305.067 174.083 310.383 165.65 315.15C157.217 319.917 149.7 324.5 143.1 328.9C136.867 333.3 130.633 337.883 124.4 342.65C119.267 346.683 113.4 347.783 106.8 345.95C100.567 344.483 90.3 338.25 76 327.25C65 318.817 60.05 312.767 61.15 309.1C62.25 305.067 70.3167 302.867 85.35 302.5C91.5833 302.133 97.8167 301.583 104.05 300.85C110.65 300.117 118.167 298.833 126.6 297C125.133 280.133 123.85 266.2 122.75 255.2C121.65 243.833 120.183 234.483 118.35 227.15C116.883 219.817 115.05 213.95 112.85 209.55C110.65 205.15 107.9 201.3 104.6 198C100.567 193.967 98 190.3 96.9 187C95.8 183.333 95.9833 180.4 97.45 178.2C98.9167 176 101.667 174.9 105.7 174.9C110.1 174.533 115.783 175.45 122.75 177.65C133.017 181.317 140.9 184.25 146.4 186.45C151.9 188.65 155.75 191.033 157.95 193.6C160.15 195.8 161.067 198.55 160.7 201.85C160.333 204.783 159.233 208.817 157.4 213.95C155.567 219.45 154.283 228.25 153.55 240.35C152.817 252.45 152.633 268.4 153 288.2C157.767 286.733 162.717 285.083 167.85 283.25C172.983 281.05 178.117 278.85 183.25 276.65C183.617 252.45 183.8 231.917 183.8 215.05C183.8 197.817 183.25 183.333 182.15 171.6C181.417 159.867 180.133 150.333 178.3 143C176.467 135.667 174.083 129.25 171.15 123.75ZM167.85 106.15C174.45 104.317 180.867 102.3 187.1 100.1C193.7 97.9 199.75 95.7 205.25 93.5C207.45 90.9333 209.283 88.7333 210.75 86.9C212.217 84.7 213.5 82.1333 214.6 79.2C215.7 75.9 216.617 71.8667 217.35 67.1C218.083 62.3333 218.817 56.1 219.55 48.4C220.283 40.7 219.367 36.1167 216.8 34.65C214.6 33.1833 208.733 33.9167 199.2 36.85C184.533 40.8833 171.7 43.45 160.7 44.55C161.8 52.25 162.9 61.4167 164 72.05C165.467 82.3167 166.75 93.6833 167.85 106.15Z" fill="black"/>
</svg>
