<svg width="345" height="345" viewBox="0 0 345 345" fill="none" xmlns="http://www.w3.org/2000/svg">
<path d="M138.757 281.73C119.857 294.63 100.807 306.03 81.6065 315.93C62.4065 325.53 43.2065 333.18 24.0065 338.88C9.60652 343.08 1.65652 343.68 0.156522 340.68C-1.04348 337.68 4.65652 332.43 17.2565 324.93C44.8565 309.03 69.3065 293.43 90.6065 278.13C112.207 262.53 132.307 246.03 150.907 228.63C169.807 210.93 187.957 191.43 205.357 170.13C222.757 148.83 241.207 124.23 260.707 96.33C261.907 94.83 262.207 93.63 261.607 92.73C261.007 91.53 259.057 91.23 255.757 91.83C245.257 93.03 236.107 93.48 228.307 93.18C220.507 92.88 211.957 91.08 202.657 87.78C196.957 94.68 190.507 101.43 183.307 108.03C176.407 114.63 168.607 120.93 159.907 126.93C167.407 130.23 173.407 133.23 177.907 135.93C182.707 138.63 186.307 141.48 188.707 144.48C191.407 147.48 193.207 150.78 194.107 154.38C195.307 157.98 195.907 162.18 195.907 166.98C196.207 175.38 194.407 181.23 190.507 184.53C186.607 187.83 179.257 186.33 168.457 180.03C163.357 177.03 158.107 171.63 152.707 163.83C147.307 156.03 142.507 148.23 138.307 140.43C132.607 143.43 126.757 146.28 120.757 148.98C115.057 151.38 108.757 153.78 101.857 156.18C83.2565 162.48 73.5065 164.28 72.6065 161.58C71.7065 158.88 78.4565 152.13 92.8565 141.33C108.157 129.93 121.807 118.38 133.807 106.68C145.807 94.98 155.857 83.88 163.957 73.38C172.057 62.58 178.057 52.83 181.957 44.13C185.857 35.43 187.357 28.53 186.457 23.43C184.057 12.33 185.557 5.73 190.957 3.63C196.357 1.53 207.907 4.67999 225.607 13.08C234.007 16.98 240.307 20.73 244.507 24.33C248.707 27.63 251.257 30.93 252.157 34.23C253.057 37.23 252.457 40.08 250.357 42.78C248.257 45.18 245.107 47.43 240.907 49.53C238.207 51.03 235.207 53.28 231.907 56.28C228.607 59.28 223.957 63.78 217.957 69.78C228.157 68.58 238.807 66.33 249.907 63.03C261.007 59.73 269.407 55.98 275.107 51.78C278.707 49.08 281.857 47.13 284.557 45.93C287.257 44.43 290.107 43.83 293.107 44.13C296.107 44.43 299.407 45.48 303.007 47.28C306.907 49.08 311.707 51.78 317.407 55.38C326.407 61.08 333.007 66.18 337.207 70.68C341.707 75.18 344.407 79.08 345.307 82.38C346.507 85.68 346.207 88.68 344.407 91.38C342.607 93.78 340.057 95.88 336.757 97.68C328.657 102.18 322.057 106.08 316.957 109.38C311.857 112.38 307.507 115.38 303.907 118.38C300.607 121.08 297.457 124.08 294.457 127.38C291.757 130.68 288.607 134.73 285.007 139.53C270.607 159.33 254.407 178.68 236.407 197.58C218.707 216.48 199.507 234.48 178.807 251.58C168.457 260.13 157.657 268.83 138.757 281.73Z" fill="black"/>
</svg>
