<svg width="345" height="345" viewBox="0 0 345 345" fill="none" xmlns="http://www.w3.org/2000/svg">
<path d="M222.296 48.4C218.562 53.7333 214.962 59.0667 211.496 64.4C206.098 73.3963 200.229 82.0404 193.896 90.4C187.229 99.2 180.162 107.867 172.696 116.4C170.796 156.808 179.588 195.33 182.296 235.6C182.029 240.667 181.762 246.133 181.496 252C181.496 257.867 181.362 263.733 181.096 269.6C181.096 275.467 180.962 281.2 180.696 286.8C180.696 305.488 187.792 329.471 176.296 344.8C172.296 350.133 168.829 354.133 165.896 356.8C163.229 359.467 160.562 360.8 157.896 360.8C155.496 361.067 152.829 360 149.896 357.6C146.962 355.467 143.496 352 139.496 347.2C133.81 334.124 141.492 316.415 144.696 303.6C145.496 300.4 146.162 296.133 146.696 290.8C147.229 285.467 147.629 278.667 147.896 270.4C148.162 264.8 148.296 258.933 148.296 252.8C148.562 246.667 148.696 240.533 148.696 234.4C148.962 228.267 149.096 222.4 149.096 216.8C149.096 210.933 148.962 205.6 148.696 200.8C148.162 189.067 146.962 179.067 145.096 170.8C143.496 162.267 141.229 155.733 138.296 151.2C127.096 160.8 115.496 169.333 103.496 176.8C91.7622 184 79.3622 190.267 66.2955 195.6C48.1622 203.067 38.4289 205.6 37.0955 203.2C36.0289 200.533 43.8956 193.333 60.6956 181.6C83.8956 165.6 105.362 146.4 125.096 124C144.829 101.6 162.296 76.6667 177.496 49.2C190.029 26.8 194.696 10.5333 191.496 0.400002C190.162 -3.86666 189.629 -7.33333 189.896 -10C190.429 -12.9333 191.896 -14.8 194.296 -15.6C196.962 -16.4 200.829 -16 205.896 -14.4C210.962 -13.0667 217.362 -10.4 225.096 -6.40001C231.762 -2.93334 236.696 0.133329 239.896 2.79999C243.362 5.19999 245.362 7.6 245.896 10C246.696 12.4 246.295 14.9333 244.695 17.6C243.095 20 240.696 22.9333 237.496 26.4C230.995 35.7998 226.495 41.2998 222.296 48.4Z" fill="black"/>
</svg>
