<svg width="345" height="345" viewBox="0 0 345 345" fill="none" xmlns="http://www.w3.org/2000/svg">
<path d="M305.2 117.331C300.133 120.531 295.2 125.465 290.4 132.131C285.867 138.531 280.4 148.265 274 161.331C279.333 164.531 282.933 167.865 284.8 171.331C286.667 174.531 286.933 177.465 285.6 180.131C284.533 182.531 281.733 184.531 277.2 186.131C272.933 187.465 267.2 188.131 260 188.131C252 187.865 241.867 188.131 229.6 188.931C217.333 189.465 204 190.398 189.6 191.731C189.333 198.398 189.067 205.065 188.8 211.731C188.8 218.398 188.533 225.331 188 232.531C187.2 248.531 186.4 261.865 185.6 272.531C184.8 283.198 183.867 292.265 182.8 299.731C182 307.198 180.933 313.731 179.6 319.331C178.267 324.931 176.667 330.665 174.8 336.531C169.467 352.265 164.8 359.731 160.8 358.931C156.8 358.398 153.6 351.198 151.2 337.331C149.867 328.531 148.8 320.265 148 312.531C147.467 304.798 147.2 295.465 147.2 284.531C147.2 266.665 147.2 250.798 147.2 236.931C147.467 223.065 147.733 209.465 148 196.131C139.733 197.198 131.467 197.998 123.2 198.531C115.2 199.065 107.2 199.598 99.2 200.131C97.6 211.331 94.5333 218.131 90 220.531C85.4667 222.665 80.5333 221.065 75.2 215.731C73.0667 213.598 71.3334 211.598 70 209.731C68.6667 207.865 67.6 205.731 66.8 203.331C66 200.665 65.3333 197.598 64.8 194.131C64.2667 190.398 63.7333 185.865 63.2 180.531C62.1333 168.798 60.8 159.198 59.2 151.731C57.6 143.998 55.4667 136.531 52.8 129.331C48.2667 118.131 44 110.665 40 106.931C30.6667 98.9314 27.8667 93.7314 31.6 91.3314C35.6 88.6648 45.3333 88.5314 60.8 90.9314C62.9333 91.4648 64.9333 91.8648 66.8 92.1314C68.6667 92.1314 70.4 92.3981 72 92.9314C77.6 92.3981 83.0667 91.8648 88.4 91.3314C94 90.5314 99.7333 89.7314 105.6 88.9314C111.467 88.1314 117.733 87.3314 124.4 86.5314C131.333 85.7314 139.2 84.6648 148 83.3314C148 72.1314 147.867 62.7981 147.6 55.3314C147.333 47.8648 146.8 41.5981 146 36.5314C145.467 31.4648 144.533 27.3314 143.2 24.1314C141.867 20.9314 140.267 18.1314 138.4 15.7314C127.2 1.33144 123.2 -7.6019 126.4 -11.0686C129.6 -14.5352 141.467 -13.3352 162 -7.46857C171.867 -4.53524 179.6 -2.00191 185.2 0.131424C190.8 1.9981 194.8 4.13144 197.2 6.53144C199.6 8.93144 200.533 11.8648 200 15.3314C199.467 18.5314 197.867 22.6648 195.2 27.7314C193.333 31.1981 191.867 36.9314 190.8 44.9314C190 52.6648 189.733 63.5981 190 77.7314C200.4 76.3981 208.933 75.1981 215.6 74.1314C222.267 73.0648 227.6 72.1314 231.6 71.3314C235.867 70.5314 239.2 69.7314 241.6 68.9314C244 68.1314 246.133 67.3314 248 66.5314C252.267 64.3981 255.867 62.9314 258.8 62.1314C261.733 61.0648 264.533 60.9314 267.2 61.7314C270.133 62.2648 273.2 63.5981 276.4 65.7314C279.867 67.8648 284.267 71.0648 289.6 75.3314C297.6 81.7314 303.6 87.0648 307.6 91.3314C311.867 95.5981 314.533 99.1981 315.6 102.131C316.667 105.065 316.267 107.731 314.4 110.131C312.533 112.265 309.467 114.665 305.2 117.331ZM249.2 103.331C250.267 96.3981 246.533 93.3314 238 94.1314C233.2 94.6648 226.667 95.3314 218.4 96.1314C210.133 96.6648 200.8 97.5981 190.4 98.9314C190.933 111.198 191.067 122.931 190.8 134.131C190.8 145.065 190.667 156.131 190.4 167.331C202.4 165.731 211.867 164.398 218.8 163.331C226 162.265 231.867 161.331 236.4 160.531C239.333 152.531 241.733 143.998 243.6 134.931C245.467 125.865 247.333 115.331 249.2 103.331ZM148.4 172.531C148.667 162.398 148.8 151.865 148.8 140.931C148.8 129.731 148.667 117.465 148.4 104.131C138.533 105.465 128.667 106.798 118.8 108.131C109.2 109.198 100.133 110.398 91.6 111.731C93.4667 120.265 95.0667 130.665 96.4 142.931C98 155.198 99.0667 166.931 99.6 178.131C108.933 177.065 117.6 176.131 125.6 175.331C133.867 174.265 141.467 173.331 148.4 172.531Z" fill="black"/>
</svg>
