<?xml version="1.0" encoding="UTF-8"?>
<svg width="825px" height="1175px" viewBox="0 0 825 1175" version="1.1" xmlns="http://www.w3.org/2000/svg" xmlns:xlink="http://www.w3.org/1999/xlink">
    <title>la</title>
    <g id="la" stroke="none" stroke-width="1" fill="none" fill-rule="evenodd">
        <path d="M400,66 C401.333333,49.3333333 402,33.8333333 402,19.5 C402,5.16666667 405,-6.83333333 411,-16.5 C417,-26.1666667 421.666667,-31 425,-31 C429.666667,-31 437.5,-25.6666667 448.5,-15 C459.5,-4.33333333 467,5 471,13 C474.333333,22.3333333 474.666667,32.6666667 472,44 C469.333333,55.3333333 469.333333,62.1666667 472,64.5 C474.666667,66.8333333 487.666667,69 511,71 C537.666667,73.6666667 554.333333,78.5 561,85.5 C567.666667,92.5 566.333333,105 557,123 L549,141 L510,139 C484.666667,138.333333 470.833333,139.833333 468.5,143.5 C466.166667,147.166667 464.166667,158.5 462.5,177.5 C460.833333,196.5 460.833333,207.333333 462.5,210 C464.166667,212.666667 469.333333,213 478,211 C486.666667,209 496.166667,209.5 506.5,212.5 C516.833333,215.5 525.333333,215.666667 532,213 C538.666667,210.333333 552.666667,212.333333 574,219 C591.333333,225.666667 602.833333,230.833333 608.5,234.5 C614.166667,238.166667 619.666667,245 625,255 C628.333333,262.333333 630,267 630,269 C630,271 628.666667,273 626,275 C621.333333,279 614.833333,289.666667 606.5,307 C598.166667,324.333333 588.666667,338.333333 578,349 C570.666667,355.666667 566.5,360.166667 565.5,362.5 C564.5,364.833333 565.333333,368.666667 568,374 C571.333333,378.666667 572.833333,382.666667 572.5,386 C572.166667,389.333333 569.666667,395 565,403 C559,415 552.166667,423.166667 544.5,427.5 C536.833333,431.833333 523.666667,434.666667 505,436 C486.333333,437.333333 475,440 471,444 C467,448 464,459.666667 462,479 L460,497 C458,640.777778 456.333333,719.111111 455,732 C453,751.333333 452,936 452,986 L451,1198 L434,1213 C423.333333,1223 416,1228 412,1228 C406,1228 399,1223 391,1213 C383,1203 378.333333,1193.33333 377,1184 C375.666667,1174 376.666667,1154.33333 380,1125 C382.666667,1109 384.5,980.333333 385.5,959 C386.5,937.666667 386.833333,769.5 386.5,754.5 C386.166667,739.5 385.740185,579.751209 382.336616,541.859315 C380.06757,516.598052 377.158823,492.978281 373.610378,471 C363.647904,471 358.444444,471 358,471 C355.333333,469.666667 350,472 342,478 C334,484 329.333333,489.333333 328,494 C325.333333,500 320.666667,503.666667 314,505 C307.333333,506.333333 301,505 295,501 C283.666667,493.666667 274.833333,482.166667 268.5,466.5 C262.166667,450.833333 254.666667,421.666667 246,379 C240.666667,357 236.333333,339.333333 233,326 C229,313.333333 227.333333,305.166667 228,301.5 C228.666667,297.833333 230.666667,291.666667 234,283 C238.666667,272.333333 243.333333,267.666667 248,269 C252.666667,270.333333 267.833333,264.833333 293.5,252.5 C319.166667,240.166667 341.333333,231.666667 360,227 C378.666667,222.333333 389,219.333333 391,218 C393,216.666667 394.666667,211.166667 396,201.5 C397.333333,191.833333 397.833333,182.666667 397.5,174 C397.166667,165.333333 396.333333,161 395,161 C391.666667,161 381.333333,165 364,173 C352,178.333333 343.833333,181.5 339.5,182.5 C335.166667,183.5 330,183 324,181 C313.333333,177 304.833333,171.666667 298.5,165 C292.166667,158.333333 289.666667,152 291,146 C293.666667,137.333333 299,130.5 307,125.5 C315,120.5 330.333333,114 353,106 L398,90 L400,66 Z M507,273 C505,271 498,269.833333 486,269.5 C474,269.166667 467,270.333333 465,273 C463,275.666667 461.333333,284.833333 460,300.5 C458.666667,316.166667 458.5,330.833333 459.5,344.5 C460.5,358.166667 462,365 464,365 C466,365 468,362.166667 470,356.5 C472,350.833333 474.333333,346 477,342 C481,338 487.333333,325.833333 496,305.5 C504.666667,285.166667 508.333333,274.333333 507,273 Z M390,327 C390,309.666667 389.666667,297.666667 389,291 C388.333333,284.333333 387.333333,281 386,281 C379.333333,281.666667 367.666667,284 351,288 C334.333333,292 324.666667,294.666667 322,296 C316.666667,299.333333 314.666667,304 316,310 C317.333333,316 316.666667,322.333333 314,329 C311.333333,335.666667 313.833333,346.5 321.5,361.5 C329.166667,376.5 333.666667,388.333333 335,397 C335.666667,399.666667 336.166667,402 336.5,404 C336.833333,406 337.333333,407.666667 338,409 C338.666667,410.333333 339,411 339,411 L362,403 C376,398.333333 384,392.666667 386,386 C388,379.333333 389.333333,359.666667 390,327 Z" id="Combined-Shape" fill="#000000" fill-rule="nonzero"></path>
    </g>
</svg>