<?xml version="1.0" encoding="UTF-8"?>
<svg width="1000px" height="1000px" viewBox="0 0 1000 1000" version="1.1" xmlns="http://www.w3.org/2000/svg" xmlns:xlink="http://www.w3.org/1999/xlink">
    <title>la_string</title>
    <g id="la_string" stroke="none" stroke-width="1" fill="none" fill-rule="evenodd">
        <path d="M468.001015,106.710671 C469.86105,88.3755042 470.791068,71.323799 470.791068,55.5555556 C470.791068,39.7873121 474.976148,26.5859919 483.346308,15.9515952 C491.716468,5.31719839 498.226592,0 502.876681,0 C509.386805,0 520.314514,5.86725339 535.659807,17.6017602 C551.0051,29.336267 561.4678,39.6039604 567.047907,48.4048405 C571.697995,58.6725339 572.163004,70.0403374 568.442933,82.5082508 C564.722862,94.9761643 564.722862,102.493583 568.442933,105.060506 C572.163004,107.627429 590.298351,110.011001 622.848972,112.211221 C660.049683,115.144848 683.300127,120.462046 692.600304,128.162816 C701.900482,135.863586 700.040447,149.614961 687.020198,169.416942 L675.859985,189.218922 L621.453946,187.018702 C586.113271,186.285295 566.815402,187.93546 563.56034,191.969197 C560.305278,196.002934 557.515225,208.470847 555.19018,229.372937 C552.865136,250.275028 552.865136,262.192886 555.19018,265.126513 C557.515225,268.060139 564.722862,268.426843 576.813093,266.226623 C588.903324,264.026403 602.156077,264.576458 616.571352,267.876788 C630.986628,271.177118 642.844354,271.360469 652.144532,268.426843 C661.444709,265.493216 680.975082,267.693436 710.735651,275.027503 C734.916113,282.361569 750.958919,288.045471 758.86407,292.079208 C766.769221,296.112945 774.441868,303.630363 781.88201,314.631463 C786.532098,322.698937 788.857143,327.832783 788.857143,330.033003 C788.857143,332.233223 786.997107,334.433443 783.277036,336.633663 C776.766912,341.034103 767.699239,352.76861 756.074017,371.837184 C744.448795,390.905757 731.196042,406.307297 716.315757,418.041804 C706.085562,425.375871 700.272951,430.326366 698.877924,432.893289 C697.482898,435.460213 698.64542,439.677301 702.365491,445.544554 C707.01558,450.678401 709.10812,455.078841 708.643111,458.745875 C708.178102,462.412908 704.690535,468.646865 698.180411,477.447745 C689.810251,490.649065 680.277569,499.633297 669.582365,504.40044 C658.887161,509.167583 640.51931,512.284562 614.478812,513.751375 C588.438315,515.218188 572.628013,518.151815 567.047907,522.552255 C561.4678,526.952695 557.28272,539.787312 554.492667,561.056106 L551.702614,580.858086 C548.91256,680.356925 546.587516,737.195942 544.72748,751.375138 C542.867445,765.554333 541.007409,837.428187 539.147374,966.9967 L515.431921,983.49835 C500.551637,994.49945 490.321441,1000 484.741335,1000 C476.371175,1000 466.605988,994.49945 455.445775,983.49835 C444.285562,972.49725 437.775438,961.862853 435.915402,951.59516 C434.055367,940.594059 435.450393,918.958563 440.100482,886.688669 C443.820553,869.086909 449.633164,792.629263 449.168155,776.127613 C448.703146,759.625963 448.108193,671.893519 443.360123,630.208267 C440.194743,602.418099 436.136965,576.433752 431.186789,552.255226 C417.288872,552.255226 410.029908,552.255226 409.409896,552.255226 C405.689825,550.788412 398.249683,553.355336 387.08947,559.955996 C375.929257,566.556656 369.419132,572.423909 367.559097,577.557756 C363.839026,584.158416 357.328901,588.192153 348.028724,589.658966 C338.728546,591.125779 329.893377,589.658966 321.523217,585.258526 C305.712916,577.191052 293.39018,564.539787 284.555011,547.30473 C275.719843,530.069674 265.257143,497.983132 253.166912,451.045105 C245.72677,426.842684 239.681654,407.407407 235.031566,392.739274 C229.451459,378.804547 227.126415,369.820315 228.056432,365.786579 C228.98645,361.752842 231.776503,354.96883 236.426592,345.434543 C242.936717,333.700037 249.446841,328.56619 255.956965,330.033003 C262.46709,331.499817 283.624994,325.449212 319.430677,311.881188 C355.236361,298.313165 386.159452,288.96223 412.199949,283.828383 C438.240447,278.694536 452.655722,275.394206 455.445775,273.927393 C458.235828,272.460579 460.560873,266.409974 462.420908,255.775578 C464.280944,245.141181 464.978457,235.056839 464.513448,225.522552 C464.048439,215.988265 462.885917,211.221122 461.025882,211.221122 C456.375793,211.221122 441.960518,215.621562 417.780056,224.422442 C401.039736,230.289696 389.647019,233.773377 383.601903,234.873487 C377.556788,235.973597 370.34915,235.423542 361.97899,233.223322 C347.098706,228.822882 335.240979,222.955629 326.405811,215.621562 C317.570642,208.287495 314.083075,201.320132 315.943111,194.719472 C319.663182,185.185185 327.103324,177.667767 338.263537,172.167217 C349.42375,166.666667 370.814159,159.515952 402.434763,150.715072 L465.210962,133.113311 L468.001015,106.710671 Z M663.480322,334.433443 C658.770505,332.233223 642.286145,330.949762 614.027243,330.583058 C585.768341,330.216355 569.283981,331.499817 564.574164,334.433443 C559.864347,337.36707 555.939499,347.451412 552.799621,364.686469 C549.659743,381.921525 549.267259,398.056472 551.622167,413.091309 C553.977076,428.126146 557.509438,435.643564 562.219255,435.643564 C566.929073,435.643564 609.317426,436.085433 614.027243,429.851476 C618.73706,423.617519 620.864885,417.491749 627.144641,413.091309 C633.189122,399.926263 640.576459,394.789908 653.598329,370.414127 C666.6202,346.038347 666.6202,335.900257 663.480322,334.433443 Z M454.050749,393.839384 C454.050749,374.77081 453.449269,361.56949 452.24631,354.235424 C451.04335,346.901357 449.238912,343.234323 446.832993,343.234323 C434.803401,343.96773 413.751614,346.534653 383.677633,350.935094 C353.603652,355.335534 336.160743,358.26916 331.348906,359.735974 C321.725232,363.403007 318.116354,368.536854 320.522273,375.137514 C322.928191,381.738174 321.725232,388.705537 316.913395,396.039604 C312.101558,403.373671 316.612655,415.291529 330.446687,431.793179 C344.280718,448.294829 352.400693,461.312798 354.806611,470.847085 C356.00957,473.780711 356.91179,476.347635 357.513269,478.547855 C358.114749,480.748075 359.016969,482.581591 360.219928,484.048405 C361.422887,485.515218 362.024367,486.248625 362.024367,486.248625 L403.52646,477.447745 C428.788604,472.313898 443.224115,466.079941 446.832993,458.745875 C450.441871,451.411808 452.847789,429.776311 454.050749,393.839384 Z" id="Combined-Shape" fill="#000000" fill-rule="nonzero"></path>
    </g>
</svg>