<svg width="660" height="660" viewBox="0 0 660 660" fill="none" xmlns="http://www.w3.org/2000/svg">
<path fill-rule="evenodd" clip-rule="evenodd" d="M244.541 215.967C265.587 199.823 285.5 182.752 301.437 161.356C304.06 158.249 307.09 153.907 310.515 148.42L317.557 153.061C339.689 168.557 361.302 184.498 383.006 200.507L386.085 202.779C392.99 207.876 399.447 213.028 405.987 218.244C410.691 221.997 415.438 225.784 420.424 229.609L420.515 229.678L420.608 229.743C424.552 232.493 428.925 234.415 433.687 235.514C436.88 236.361 440.548 236.736 444.601 236.736C447.394 236.736 450.186 236.611 452.977 236.363C460.776 235.871 470.238 234.775 481.334 233.094C481.496 233.07 481.681 233.042 481.886 233.012L482.185 232.968C484.885 232.568 490.451 231.743 495.689 230.517C498.604 229.835 501.652 228.976 504.14 227.904C505.376 227.37 506.675 226.7 507.793 225.842C508.842 225.036 510.272 223.652 510.831 221.547L510.998 220.917V219.906C510.998 216.409 508.364 214.6 506.906 213.889C505.396 213.151 503.573 212.738 501.759 212.474L493.821 210.695L493.686 210.672C488.186 209.752 481.498 208.24 473.598 206.115C465.73 203.999 457.277 201.406 448.237 198.333C439.649 195.285 430.469 191.524 420.693 187.04C410.957 182.574 402.39 178.132 394.978 173.717L363.04 152.956L363.007 152.935C359.873 150.968 353.718 147.348 344.626 142.116C336.802 137.314 330.952 132.577 326.115 128.518C325.549 128.043 324.987 127.569 324.429 127.097C320.434 123.722 316.653 120.528 313.022 118.687C310.799 117.561 308.361 116.78 305.669 116.758C302.956 116.737 300.364 117.488 297.841 118.848C293.038 121.436 288.007 126.509 281.941 133.93L281.661 134.273L281.446 134.659C279.067 138.925 271.103 149.348 261.04 160.859C251.052 172.283 239.486 184.22 230.161 191.574C202.517 213.378 188.503 221.793 177.186 228.588C172.555 231.368 168.376 233.878 163.9 236.922L163.694 237.062L163.503 237.222C162.729 237.87 161.932 238.652 161.297 239.581C160.67 240.5 159.998 241.865 159.998 243.566C159.998 245.633 160.965 247.655 162.911 248.876C164.467 249.853 166.16 250 167.283 250C173.26 250 180.116 248.383 187.037 246.02C194.024 243.634 201.406 240.372 208.534 236.83C222.789 229.746 236.349 221.382 244.25 216.175L244.399 216.076L244.541 215.967ZM169.728 244.902C169.791 244.897 169.854 244.892 169.917 244.887L169.921 244.887C169.857 244.892 169.793 244.897 169.728 244.902ZM179.533 233.019C179.533 233.019 179.533 233.019 179.533 233.019Z" fill="black"/>
<path d="M288.043 196.447L277.134 197.356L276.74 197.454C275.273 197.821 273.751 198.365 272.433 199.243C271.069 200.152 269.68 201.599 269.147 203.729L268.998 204.326V205.381C268.998 208.771 271.103 211.216 273.033 212.769C275.471 214.789 278.758 216.339 282.524 217.595C298.06 222.774 309.644 220.592 322.068 218.252C325.804 217.549 329.615 216.831 333.633 216.295C338.512 215.684 342.907 214.757 346.776 213.477C349.012 212.831 351.141 211.988 352.817 210.79C354.55 209.553 356.449 207.422 356.449 204.305C356.449 200.623 354.52 197.789 351.811 195.903C349.411 193.969 345.793 192.175 341.441 190.434C337.16 188.722 334.022 187.543 332.447 187.149L331.85 187H331.234C329.667 187 327.671 187.313 325.497 187.763C323.233 188.231 320.45 188.92 317.175 189.813L317.146 189.821L317.117 189.829C314.364 190.616 312.06 191.305 310.02 191.915C302.234 194.243 298.303 195.418 288.043 196.447Z" fill="black"/>
<path d="M372.512 302.33L372.199 302.707L371.964 303.137C370.821 305.233 369.899 305.691 369.394 305.805H368.443C367.399 305.805 365.355 305.383 362.017 303.992L362.007 303.988L361.997 303.984C359.499 302.955 357.558 302.171 356.193 301.64C355.516 301.377 354.941 301.16 354.495 301.004C354.321 300.943 354.133 300.88 353.945 300.822L349.386 298.542C347.916 297.626 346.193 297.016 344.273 297.016C342.158 297.016 340.126 297.774 338.541 299.359C336.979 300.92 336.637 302.856 336.637 304.213C336.637 306.302 337.603 308.056 338.355 309.184L338.476 309.364L345.543 318.198C347.556 321.073 349.157 323.329 350.337 324.951C351.081 325.974 351.8 326.949 352.385 327.661L356.061 335.013C358.086 339.064 359.459 342.103 360.246 344.201C360.719 345.461 361.19 346.59 361.664 347.538C362.084 348.377 362.704 349.49 363.589 350.375C365.572 352.358 368.105 353.158 370.641 353.158C373.353 353.158 376.402 352.293 379.529 351.043L379.552 351.033L379.576 351.024C385.17 348.72 390.007 345.405 394.022 341.076C398.247 336.833 401.411 332.029 403.428 326.674C405.303 321.977 406.837 316.73 408.053 310.956C408.345 309.57 408.709 307.807 409.128 305.778L409.129 305.771L409.129 305.77C411.288 295.317 414.908 277.791 417.636 268.243C418.711 264.478 419.992 261.622 421.383 259.535L421.449 259.436L421.51 259.334C422.415 257.827 423.149 256.529 423.672 255.482C423.932 254.963 424.181 254.424 424.376 253.903C424.512 253.54 424.859 252.598 424.859 251.488V250.609C424.859 246.902 423.042 243.608 420.638 240.831C417.916 237.391 413.238 234.098 407.328 230.847C401.585 227.689 397.188 225.34 394.171 223.825C391.13 221.974 387.801 221 384.264 221H383.769L383.283 221.097C381.51 221.452 378.817 222.255 375.396 223.392C372.018 224.233 368.204 225.08 363.947 225.931C359.814 226.758 354.31 227.47 347.374 228.048L347.291 228.055L238.747 240.748L225.468 239.503L215.831 237.576L214.74 237.848C211.285 238.712 207.806 240.955 207.066 245.393L206.998 245.801V247.094C206.998 249.756 208.188 252.992 209.643 256.194L209.682 256.278L209.723 256.361C211.677 260.269 212.999 263.614 213.766 266.427C216.707 277.211 217.762 288.255 217.118 297.265C216.821 301.427 216.666 304.926 216.666 307.728C216.666 310.695 216.806 313.263 217.186 315.218C217.875 319.296 219.252 323.091 221.334 326.561L221.507 326.849L221.717 327.112C223.05 328.779 224.476 330.257 226.011 331.353C227.53 332.438 229.489 333.383 231.773 333.383H232.213C234.536 333.383 236.498 332.408 238.008 331.247C239.508 330.093 240.833 328.554 242.022 326.855L242.123 326.711L242.213 326.561C244.16 323.316 245.659 320.007 246.67 316.636L246.738 316.41L246.784 316.18C247.177 314.215 247.32 311.616 247.32 308.607V303.232L245.738 264.47C286.056 257.73 326.364 253.945 367.211 252.533H370.201C373.655 252.533 375.459 252.943 376.208 253.274C377.291 253.924 377.942 254.704 378.35 255.655C378.853 256.829 379.264 258.85 379.264 262.035C379.264 269.662 378.936 278.288 377.832 285.898C376.687 293.797 374.836 299.542 372.512 302.33Z" fill="black"/>
<path d="M291.99 113.734V96.7129L260.35 98.9102C250.389 99.7891 242.771 100.229 237.498 100.229H233.982C229.002 99.9355 224.607 99.3496 220.799 98.4707C217.283 97.5918 213.914 95.834 210.691 93.1973C208.055 91.1465 206.736 89.5352 206.736 88.3633C206.736 88.0703 206.883 87.7773 207.176 87.4844C208.055 85.7266 210.252 84.7012 213.768 84.4082L223.436 83.5293C233.982 82.6504 245.262 81.625 257.273 80.4531L293.309 76.498L292.869 32.5723C292.869 24.6621 292.137 18.5098 290.672 14.1152C289.207 9.7207 288.475 6.9375 288.475 5.76562C288.475 4.59375 288.768 3.42188 289.354 2.25C290.232 1.07812 292.869 0.492188 297.264 0.492188C302.537 1.07812 308.104 2.54297 313.963 4.88672C319.822 6.9375 324.51 9.28125 328.025 11.918C331.541 14.2617 333.299 16.459 333.299 18.5098C333.299 20.5605 332.273 23.6367 330.223 27.7383C322.403 41.4227 321.61 59.1696 320.994 72.1035L348.68 68.1484L368.455 63.7539C372.264 62.875 375.779 62.4355 379.002 62.4355C380.467 62.4355 381.932 62.582 383.396 62.875C386.619 63.168 390.428 64.0469 394.822 65.5117C398.924 67.2695 402.732 69.3203 406.248 71.6641C409.178 74.3008 410.643 76.3516 410.643 77.8164V78.6953C410.057 79.5742 408.592 80.5996 406.248 81.7715C403.904 82.9434 400.389 83.8223 395.701 84.4082C391.014 84.7012 383.689 85.7266 373.729 87.4844C364.061 89.2422 355.564 90.4141 348.24 91L320.555 93.1973L320.115 112.416L371.971 108.9L401.854 106.703C413.572 105.531 421.482 104.652 425.584 104.066C429.686 103.48 434.08 102.602 438.768 101.43C443.455 100.258 446.678 99.6719 448.436 99.6719C451.365 99.6719 454.588 100.111 458.104 100.99C461.326 101.869 467.186 104.213 475.682 108.021C484.471 111.537 490.184 114.76 492.82 117.689C494.871 120.326 495.896 122.523 495.896 124.281V125.16C495.311 127.504 493.113 129.262 489.305 130.434C486.668 131.312 483.445 131.752 479.637 131.752C477.586 131.752 475.389 131.605 473.045 131.312L428.221 130.873C406.541 130.58 394.236 130.434 391.307 130.434L319.236 133.07C308.711 134.828 305.32 134.242 291.551 134.828C277.781 135.414 267.381 136 260.35 136.586C222.004 140.622 208.286 144.4 189.383 148.451C184.988 149.33 182.205 149.77 181.033 149.77C178.104 149.77 174.881 148.891 171.365 147.133C167.557 145.375 164.188 143.471 161.258 141.42C158.328 139.369 155.691 137.172 153.348 134.828C151.59 133.07 150.711 131.459 150.711 129.994V128.676C151.59 126.918 153.494 125.746 156.424 125.16L167.85 124.281C169.021 124.281 175.467 124.135 187.186 123.842C198.904 123.549 199.412 122.23 228.709 119.887C258.006 117.543 273.387 116.078 274.852 115.492L291.99 113.734ZM232.01 5.9707L238.602 7.72852C243.582 9.19336 249.295 11.3906 255.74 14.3203C262.186 17.25 267.02 20.3262 270.242 23.5488C273.465 26.4785 275.809 29.7012 277.273 33.2168C278.738 37.0254 279.471 41.2734 279.471 45.9609C279.471 51.2344 278.299 55.4824 275.955 58.7051C273.611 62.2207 270.682 63.9785 267.166 63.9785H266.727C263.211 63.9785 259.549 61.6348 255.74 56.9473C252.811 53.7246 247.977 47.2793 241.238 37.6113C234.793 27.6504 231.131 21.9375 230.252 20.4727L226.297 12.5625C225.711 11.6836 225.418 10.8047 225.418 9.92578C225.418 9.04688 225.711 8.16797 226.297 7.28906C227.176 6.11719 228.348 5.53125 229.812 5.53125C230.398 5.53125 231.131 5.67773 232.01 5.9707ZM333.967 55.9609C333.674 55.668 333.527 55.2285 333.527 54.6426C333.527 53.7637 334.113 52.7383 335.285 51.5664C351.166 38.1932 356.58 30.89 363.186 11.0742C364.357 7.55859 365.236 5.36133 365.822 4.48242C366.701 3.60352 367.58 3.01758 368.459 2.72461H369.338C370.51 2.72461 371.975 3.16406 373.732 4.04297C382.436 7.52433 396.82 16.5315 402.252 23.7734C404.01 25.5312 404.889 27.2891 404.889 29.0469C404.889 30.8047 403.863 32.5625 401.812 34.3203C400.934 34.9062 398.443 35.4922 394.342 36.0781C385.765 38.2224 339.057 63.5961 333.967 55.9609Z" fill="black"/>
</svg>
