<svg width="660" height="660" viewBox="0 0 660 660" fill="none" xmlns="http://www.w3.org/2000/svg">
<path fill-rule="evenodd" clip-rule="evenodd" d="M244.543 215.967C265.589 199.823 285.502 182.752 301.439 161.356C304.062 158.249 307.092 153.907 310.517 148.42L317.558 153.061C339.691 168.557 361.304 184.498 383.008 200.507L386.087 202.779C392.992 207.876 399.449 213.028 405.989 218.244C410.693 221.997 415.44 225.784 420.426 229.609L420.517 229.678L420.61 229.743C424.554 232.493 428.927 234.415 433.689 235.514C436.882 236.361 440.55 236.736 444.603 236.736C447.396 236.736 450.188 236.611 452.979 236.363C460.778 235.871 470.24 234.775 481.336 233.094C481.498 233.07 481.683 233.042 481.888 233.012L482.187 232.968C484.887 232.568 490.453 231.743 495.69 230.517C498.606 229.835 501.654 228.976 504.142 227.904C505.378 227.37 506.677 226.7 507.795 225.842C508.844 225.036 510.274 223.652 510.833 221.547L511 220.917V219.906C511 216.409 508.366 214.6 506.908 213.889C505.398 213.151 503.575 212.738 501.761 212.474L493.823 210.695L493.688 210.672C488.187 209.752 481.5 208.24 473.599 206.115C465.732 203.999 457.279 201.406 448.239 198.333C439.651 195.285 430.471 191.524 420.695 187.04C410.959 182.574 402.392 178.132 394.98 173.717L363.042 152.956L363.009 152.935C359.875 150.968 353.72 147.348 344.628 142.116C336.804 137.314 330.954 132.577 326.117 128.518C325.551 128.043 324.989 127.569 324.431 127.097C320.436 123.722 316.655 120.528 313.024 118.687C310.801 117.561 308.363 116.78 305.671 116.758C302.958 116.737 300.366 117.488 297.843 118.848C293.04 121.436 288.009 126.509 281.943 133.93L281.663 134.273L281.448 134.659C279.069 138.925 271.105 149.348 261.041 160.859C251.054 172.283 239.488 184.22 230.163 191.574C202.519 213.378 188.505 221.793 177.188 228.588C172.557 231.368 168.378 233.878 163.902 236.922L163.696 237.062L163.505 237.222C162.73 237.87 161.934 238.652 161.299 239.581C160.672 240.5 160 241.865 160 243.566C160 245.633 160.967 247.655 162.913 248.876C164.469 249.853 166.162 250 167.285 250C173.262 250 180.118 248.383 187.039 246.02C194.026 243.634 201.408 240.372 208.536 236.83C222.791 229.746 236.351 221.382 244.252 216.175L244.401 216.076L244.543 215.967ZM169.73 244.902C169.793 244.897 169.856 244.892 169.919 244.887L169.923 244.887C169.859 244.892 169.795 244.897 169.73 244.902ZM179.535 233.019C179.535 233.019 179.535 233.019 179.535 233.019Z" fill="black"/>
<path d="M288.045 196.447L277.136 197.356L276.742 197.454C275.275 197.821 273.753 198.365 272.435 199.243C271.071 200.152 269.682 201.599 269.149 203.729L269 204.326V205.381C269 208.771 271.105 211.216 273.035 212.769C275.473 214.789 278.76 216.339 282.526 217.595C298.062 222.774 309.646 220.592 322.07 218.252C325.806 217.549 329.617 216.831 333.635 216.295C338.514 215.684 342.909 214.757 346.778 213.477C349.014 212.831 351.142 211.988 352.819 210.79C354.552 209.553 356.451 207.422 356.451 204.305C356.451 200.623 354.522 197.789 351.813 195.903C349.413 193.969 345.795 192.175 341.443 190.434C337.162 188.722 334.024 187.543 332.449 187.149L331.852 187H331.236C329.669 187 327.673 187.313 325.499 187.763C323.235 188.231 320.452 188.92 317.177 189.813L317.148 189.821L317.119 189.829C314.366 190.616 312.062 191.305 310.022 191.915C302.236 194.243 298.305 195.418 288.045 196.447Z" fill="black"/>
<path d="M372.514 302.33L372.201 302.707L371.966 303.137C370.822 305.233 369.901 305.691 369.396 305.805H368.445C367.401 305.805 365.357 305.383 362.019 303.992L362.009 303.988L361.999 303.984C359.501 302.955 357.56 302.171 356.195 301.64C355.518 301.377 354.943 301.16 354.496 301.004C354.323 300.943 354.134 300.88 353.947 300.822L349.388 298.542C347.918 297.626 346.194 297.016 344.275 297.016C342.16 297.016 340.128 297.774 338.543 299.359C336.981 300.92 336.639 302.856 336.639 304.213C336.639 306.302 337.605 308.056 338.357 309.184L338.478 309.364L345.545 318.198C347.558 321.073 349.159 323.329 350.339 324.951C351.083 325.974 351.802 326.949 352.387 327.661L356.063 335.013C358.088 339.064 359.461 342.103 360.248 344.201C360.72 345.461 361.192 346.59 361.666 347.538C362.086 348.377 362.706 349.49 363.591 350.375C365.574 352.358 368.106 353.158 370.643 353.158C373.355 353.158 376.404 352.293 379.531 351.043L379.554 351.033L379.578 351.024C385.172 348.72 390.009 345.405 394.024 341.076C398.249 336.833 401.413 332.029 403.43 326.674C405.305 321.977 406.839 316.73 408.055 310.956C408.347 309.57 408.711 307.807 409.13 305.778L409.131 305.771L409.131 305.77C411.29 295.317 414.909 277.791 417.638 268.243C418.713 264.478 419.994 261.622 421.385 259.535L421.451 259.436L421.512 259.334C422.416 257.827 423.151 256.529 423.674 255.482C423.934 254.963 424.183 254.424 424.378 253.903C424.514 253.54 424.861 252.598 424.861 251.488V250.609C424.861 246.902 423.044 243.608 420.64 240.831C417.918 237.391 413.24 234.098 407.33 230.847C401.587 227.689 397.19 225.34 394.173 223.825C391.132 221.974 387.803 221 384.266 221H383.771L383.285 221.097C381.512 221.452 378.819 222.255 375.398 223.392C372.02 224.233 368.206 225.08 363.949 225.931C359.816 226.758 354.312 227.47 347.376 228.048L347.293 228.055L238.749 240.748L225.47 239.503L215.833 237.576L214.742 237.848C211.287 238.712 207.808 240.955 207.068 245.393L207 245.801V247.094C207 249.756 208.19 252.992 209.645 256.194L209.684 256.278L209.725 256.361C211.679 260.269 213.001 263.614 213.768 266.427C216.709 277.211 217.764 288.255 217.12 297.265C216.823 301.427 216.668 304.926 216.668 307.728C216.668 310.695 216.808 313.263 217.188 315.218C217.877 319.296 219.254 323.091 221.336 326.561L221.509 326.849L221.719 327.112C223.052 328.779 224.478 330.257 226.013 331.353C227.532 332.438 229.491 333.383 231.775 333.383H232.215C234.538 333.383 236.5 332.408 238.01 331.247C239.51 330.093 240.835 328.554 242.024 326.855L242.125 326.711L242.215 326.561C244.162 323.316 245.661 320.007 246.672 316.636L246.74 316.41L246.786 316.18C247.179 314.215 247.322 311.616 247.322 308.607V303.232L245.74 264.47C286.058 257.73 326.366 253.945 367.213 252.533H370.203C373.657 252.533 375.461 252.943 376.21 253.274C377.293 253.924 377.944 254.704 378.352 255.655C378.855 256.829 379.266 258.85 379.266 262.035C379.266 269.662 378.938 278.288 377.834 285.898C376.688 293.797 374.838 299.542 372.514 302.33Z" fill="black"/>
<path d="M291.992 113.734V96.7129L260.352 98.9102C250.391 99.7891 242.773 100.229 237.5 100.229H233.984C229.004 99.9355 224.609 99.3496 220.801 98.4707C217.285 97.5918 213.916 95.834 210.693 93.1973C208.057 91.1465 206.738 89.5352 206.738 88.3633C206.738 88.0703 206.885 87.7773 207.178 87.4844C208.057 85.7266 210.254 84.7012 213.77 84.4082L223.438 83.5293C233.984 82.6504 245.264 81.625 257.275 80.4531L293.311 76.498L292.871 32.5723C292.871 24.6621 292.139 18.5098 290.674 14.1152C289.209 9.7207 288.477 6.9375 288.477 5.76562C288.477 4.59375 288.77 3.42188 289.355 2.25C290.234 1.07812 292.871 0.492188 297.266 0.492188C302.539 1.07812 308.105 2.54297 313.965 4.88672C319.824 6.9375 324.512 9.28125 328.027 11.918C331.543 14.2617 333.301 16.459 333.301 18.5098C333.301 20.5605 332.275 23.6367 330.225 27.7383C322.405 41.4227 321.612 59.1696 320.996 72.1035L348.682 68.1484L368.457 63.7539C372.266 62.875 375.781 62.4355 379.004 62.4355C380.469 62.4355 381.934 62.582 383.398 62.875C386.621 63.168 390.43 64.0469 394.824 65.5117C398.926 67.2695 402.734 69.3203 406.25 71.6641C409.18 74.3008 410.645 76.3516 410.645 77.8164V78.6953C410.059 79.5742 408.594 80.5996 406.25 81.7715C403.906 82.9434 400.391 83.8223 395.703 84.4082C391.016 84.7012 383.691 85.7266 373.73 87.4844C364.062 89.2422 355.566 90.4141 348.242 91L320.557 93.1973L320.117 112.416L371.973 108.9L401.855 106.703C413.574 105.531 421.484 104.652 425.586 104.066C429.688 103.48 434.082 102.602 438.77 101.43C443.457 100.258 446.68 99.6719 448.438 99.6719C451.367 99.6719 454.59 100.111 458.105 100.99C461.328 101.869 467.188 104.213 475.684 108.021C484.473 111.537 490.186 114.76 492.822 117.689C494.873 120.326 495.898 122.523 495.898 124.281V125.16C495.312 127.504 493.115 129.262 489.307 130.434C486.67 131.312 483.447 131.752 479.639 131.752C477.588 131.752 475.391 131.605 473.047 131.312L428.223 130.873C406.543 130.58 394.238 130.434 391.309 130.434L319.238 133.07C308.713 134.828 305.322 134.242 291.553 134.828C277.783 135.414 267.383 136 260.352 136.586C222.006 140.622 208.288 144.4 189.385 148.451C184.99 149.33 182.207 149.77 181.035 149.77C178.105 149.77 174.883 148.891 171.367 147.133C167.559 145.375 164.189 143.471 161.26 141.42C158.33 139.369 155.693 137.172 153.35 134.828C151.592 133.07 150.713 131.459 150.713 129.994V128.676C151.592 126.918 153.496 125.746 156.426 125.16L167.852 124.281C169.023 124.281 175.469 124.135 187.188 123.842C198.906 123.549 199.414 122.23 228.711 119.887C258.008 117.543 273.389 116.078 274.854 115.492L291.992 113.734ZM232.012 5.9707L238.604 7.72852C243.584 9.19336 249.297 11.3906 255.742 14.3203C262.188 17.25 267.021 20.3262 270.244 23.5488C273.467 26.4785 275.811 29.7012 277.275 33.2168C278.74 37.0254 279.473 41.2734 279.473 45.9609C279.473 51.2344 278.301 55.4824 275.957 58.7051C273.613 62.2207 270.684 63.9785 267.168 63.9785H266.729C263.213 63.9785 259.551 61.6348 255.742 56.9473C252.812 53.7246 247.979 47.2793 241.24 37.6113C234.795 27.6504 231.133 21.9375 230.254 20.4727L226.299 12.5625C225.713 11.6836 225.42 10.8047 225.42 9.92578C225.42 9.04688 225.713 8.16797 226.299 7.28906C227.178 6.11719 228.35 5.53125 229.814 5.53125C230.4 5.53125 231.133 5.67773 232.012 5.9707ZM333.969 55.9609C333.676 55.668 333.529 55.2285 333.529 54.6426C333.529 53.7637 334.115 52.7383 335.287 51.5664C351.168 38.1932 356.582 30.89 363.188 11.0742C364.359 7.55859 365.238 5.36133 365.824 4.48242C366.703 3.60352 367.582 3.01758 368.461 2.72461H369.34C370.512 2.72461 371.977 3.16406 373.734 4.04297C382.438 7.52433 396.822 16.5315 402.254 23.7734C404.012 25.5312 404.891 27.2891 404.891 29.0469C404.891 30.8047 403.865 32.5625 401.814 34.3203C400.936 34.9062 398.445 35.4922 394.344 36.0781C385.767 38.2224 339.059 63.5961 333.969 55.9609Z" fill="black"/>
</svg>
