<svg width="660" height="660" viewBox="0 0 660 660" fill="none" xmlns="http://www.w3.org/2000/svg">
<path d="M98.9288 128.656L140.753 132.336C250.599 123.886 379.236 100.297 489.22 92.2832C500.841 90.0697 508.312 88.6862 511.632 88.1328L530.724 81.4922C540.131 78.1719 546.495 76.5117 549.816 76.5117C552.583 75.9583 555.073 75.6816 557.286 75.6816C560.607 76.235 565.587 78.1719 572.228 81.4922C578.315 84.8125 586.892 89.793 597.96 96.4336C608.474 102.521 616.222 108.608 621.202 114.695C625.629 120.229 627.843 124.933 627.843 128.807V129.637C627.843 131.85 626.736 134.894 624.523 138.768C622.309 143.195 620.095 147.898 617.882 152.879C616.775 157.859 615.668 163.117 614.562 168.65C613.455 174.738 612.901 184.422 612.901 197.703L610.411 269.92C609.858 285.968 609.304 313.361 608.751 352.098C608.198 389.728 607.368 419.334 606.261 440.916C605.154 461.945 602.94 486.294 599.62 513.963C596.3 541.632 589.659 567.365 579.698 591.16C569.737 614.402 558.67 633.771 546.495 649.266C533.767 664.76 523.253 674.445 514.952 678.318C508.865 681.085 503.885 682.469 500.011 682.469H497.521C493.094 681.915 488.943 678.318 485.069 671.678C480.642 665.59 468.468 649.819 448.546 624.363L420.323 587.01L412.022 577.879C409.809 576.219 408.702 574.559 408.702 572.898C408.702 572.345 408.979 571.792 409.532 571.238C410.086 570.685 411.192 570.408 412.853 570.408C415.066 570.408 417.833 570.962 421.153 572.068L432.774 576.219L455.187 586.18C469.021 591.714 480.366 594.48 489.22 594.48H493.37C498.351 593.374 504.715 590.607 512.462 586.18C520.209 580.646 526.85 570.685 532.384 556.297C538.471 541.909 543.175 524.201 546.495 503.172C549.816 482.143 552.859 459.178 555.626 434.275C558.393 409.373 560.053 379.214 560.607 343.797V256.639C560.607 208.494 559.5 185.014 557.286 166.199C555.073 150.704 551.476 140.743 546.495 136.316C541.515 132.443 534.597 129.952 525.743 128.846H521.593C514.952 128.846 505.821 129.676 494.2 131.336L453.526 136.316L230.48 156.277C189.955 159.861 140.753 171 107.55 174.238C97.5732 174.238 90.919 168.043 82.9993 162C75.4994 156.277 54.999 117 98.9288 128.656Z" fill="black"/>
<path d="M230.172 140.926C222 137 218.427 133.034 214 127.5C208.609 121.846 204 111.5 201.518 100.617L190.727 66.584C182.426 68.7975 175.232 70.4577 169.145 71.5645H164.164C160.29 71.5645 156.97 71.0111 154.203 69.9043C150.329 68.7975 145.349 66.584 139.262 63.2637C132.621 59.9434 127.641 56.623 124.32 53.3027C122.107 51.0892 121 49.1523 121 47.4922C121 46.3854 121.277 45.5553 121.83 45.002C123.49 42.7884 127.087 41.6816 132.621 41.6816L150.053 40.0215C153.926 39.4681 171.358 36.7012 202.348 31.7207L277.559 17.1191C262.064 -0.589193 251.55 -14.7005 246.016 -25.2148L236.055 -42.6465L228.584 -54.2676L221.113 -67.5488C218.9 -70.3158 217.793 -72.5293 217.793 -74.1895C217.793 -75.2962 218.346 -76.403 219.453 -77.5098C221.113 -79.1699 222.773 -80 224.434 -80C225.54 -80 226.647 -79.7233 227.754 -79.1699L243.525 -75.8496C247.953 -74.7428 255.977 -72.2526 267.598 -68.3789C278.665 -64.5052 286.966 -60.9082 292.5 -57.5879C297.481 -54.2676 302.184 -50.1172 306.611 -45.1367C310.485 -40.1562 313.529 -34.6224 315.742 -28.5352C316.296 -25.2148 316.572 -21.8945 316.572 -18.5742C316.572 -11.9336 315.189 -5.56966 312.422 0.517578L307.441 12.9688L365.547 3.00781C386.576 -0.865885 401.517 -3.90951 410.371 -6.12305C418.672 -8.33659 424.759 -9.44336 428.633 -9.44336C433.06 -9.44336 438.04 -8.33659 443.574 -6.12305C449.108 -3.90951 454.365 -1.14258 459.346 2.17773C464.326 4.94466 469.583 8.54167 475.117 12.9688C479.544 16.8424 481.758 19.8861 481.758 22.0996V23.7598C481.758 25.9733 480.928 27.6335 479.268 28.7402C478.161 29.2936 475.117 29.847 470.137 30.4004L458.516 31.2305L412.031 33.7207L329.023 40.3613C337.878 43.6816 343.412 46.1719 345.625 47.832L360.566 56.9629C367.207 61.9434 371.634 65.8171 373.848 68.584C375.508 71.3509 376.338 73.8411 376.338 76.0547V77.7148C376.338 80.4818 375.508 83.2487 373.848 86.0156C372.741 88.7826 369.697 92.9329 364.717 98.4668C357.487 106.5 340.5 117 331.441 128.475C317.5 151 244.767 147.938 230.172 140.926ZM202.348 64.0938C211.755 69.0742 219.503 73.5013 225.59 77.375C251.5 96 255 121 252.584 129.305L249.264 138.436C265.312 136.222 274.996 134.839 278.316 134.285L313.18 129.305C317 117 314.082 98.4668 314.082 89.3359V81.0352C314.082 75.5013 313.805 70.2441 313.252 65.2637C312.699 59.7298 312.422 55.8561 312.422 53.6426V51.9824L317.402 42.0215C302.461 43.1283 291.947 44.235 285.859 45.3418L202.348 64.0938Z" fill="black"/>
<path d="M639.109 -69.4238C514.461 -62.5641 369.396 -67.801 245.701 -42.0312C233.527 -39.8177 222.459 -37.0508 212.498 -33.7305C203.644 -31.5169 197.003 -30.4102 192.576 -30.4102H189.256C182.615 -30.4102 176.528 -31.7936 170.994 -34.5605C164.354 -37.3275 157.16 -41.4779 149.412 -47.0117C141.665 -51.9922 135.854 -56.9727 131.98 -61.9531C128.66 -65.2734 127 -68.3171 127 -71.084C127 -71.6374 127.277 -72.4674 127.83 -73.5742C128.937 -76.8945 132.257 -78.8314 137.791 -79.3848L160.203 -80.2148L201.707 -83.5352L273.094 -90.1758C409.5 -106.777 606 -111.5 715.643 -130.02L743.865 -134.17C751.059 -134.723 756.593 -135 760.467 -135C782.549 -135 790.428 -121.467 805.232 -108.777C810.049 -105.337 817.684 -100.514 817.684 -93.8359C817.684 -91.069 816.577 -87.7487 814.363 -83.875C811.3 -79.2801 806.096 -78.8945 801.082 -78.8945L786.199 -78.5547L743.865 -81.875C724.5 -81.875 707.005 -74.9933 688.084 -73.5742C695.278 -70.8073 701.365 -67.7637 706.346 -64.4434C711.88 -61.6764 714.923 -58.6328 715.477 -55.3125V-51.9922C715.477 -49.2253 715.2 -45.9049 714.646 -42.0312C712.433 -32.0703 710.773 -22.1094 709.666 -12.1484C708.559 -1.08073 707.729 18.2878 707.176 45.957V109.043L710.496 291.777V311.699C710.496 324.98 710.219 339.645 709.666 355.693C708.559 379.489 707.176 398.027 705.516 411.309C703.855 424.036 701.365 434.551 698.045 442.852C694.171 451.706 689.191 460.007 683.104 467.754C676.463 475.501 670.099 481.589 664.012 486.016C659.031 488.783 654.327 490.166 649.9 490.166H648.24C644.92 489.613 641.6 488.229 638.279 486.016C635.512 483.249 630.809 476.331 624.168 465.264C616.974 454.749 609.78 445.065 602.586 436.211C595.392 427.357 589.028 419.886 583.494 413.799L561.912 391.387C560.252 389.727 559.422 388.066 559.422 386.406C559.422 385.299 559.699 384.469 560.252 383.916C561.359 382.809 563.296 382.256 566.062 382.256C567.169 382.256 568.829 382.533 571.043 383.086L591.795 388.896L611.717 394.707C617.804 396.921 623.615 398.581 629.148 399.688C631.915 400.241 634.129 400.518 635.789 400.518C638.003 400.518 639.663 400.241 640.77 399.688C644.643 398.581 647.687 394.707 649.9 388.066C652.114 381.426 653.774 368.698 654.881 349.883C655.988 331.068 657.094 313.913 658.201 298.418C658.755 282.923 659.308 263.001 659.861 238.652L660.691 79.1602C660.691 75.8398 660.138 60.6217 659.031 33.5059C658.478 6.38997 657.094 -12.4251 654.881 -22.9395C653.774 -33.4538 651.007 -43.138 646.58 -51.9922L639.109 -69.4238Z" fill="black"/>
</svg>
