<svg width="660" height="660" viewBox="0 0 660 660" fill="none" xmlns="http://www.w3.org/2000/svg">
<path d="M544.109 122.576C419.461 129.436 274.396 124.199 150.701 149.969C138.527 152.182 127.459 154.949 117.498 158.27C108.644 160.483 102.003 161.59 97.5762 161.59H94.2559C87.6152 161.59 81.528 160.206 75.9941 157.439C69.3535 154.673 62.1595 150.522 54.4121 144.988C46.6647 140.008 40.8542 135.027 36.9805 130.047C33.6602 126.727 32 123.683 32 120.916C32 120.363 32.2767 119.533 32.8301 118.426C33.9368 115.105 37.2572 113.169 42.791 112.615L65.2031 111.785L106.707 108.465L178.094 101.824C314.5 85.2227 511 80.5 620.643 61.9805L648.865 57.8301C656.059 57.2767 661.593 57 665.467 57C687.549 57 695.428 70.5333 710.232 83.2227C715.049 86.6631 722.684 91.486 722.684 98.1641C722.684 100.931 721.577 104.251 719.363 108.125C716.3 112.72 711.096 113.105 706.082 113.105L691.199 113.445L648.865 110.125C629.5 110.125 612.005 117.007 593.084 118.426C600.278 121.193 606.365 124.236 611.346 127.557C616.88 130.324 619.923 133.367 620.477 136.688V140.008C620.477 142.775 620.2 146.095 619.646 149.969C617.433 159.93 615.773 169.891 614.666 179.852C613.559 190.919 612.729 210.288 612.176 237.957V301.043L615.496 483.777V503.699C615.496 516.98 615.219 531.645 614.666 547.693C613.559 571.489 612.176 590.027 610.516 603.309C608.855 616.036 606.365 626.551 603.045 634.852C599.171 643.706 594.191 652.007 588.104 659.754C581.463 667.501 575.099 673.589 569.012 678.016C564.031 680.783 559.327 682.166 554.9 682.166H553.24C549.92 681.613 546.6 680.229 543.279 678.016C540.512 675.249 535.809 668.331 529.168 657.264C521.974 646.749 514.78 637.065 507.586 628.211C500.392 619.357 494.028 611.886 488.494 605.799L466.912 583.387C465.252 581.727 464.422 580.066 464.422 578.406C464.422 577.299 464.699 576.469 465.252 575.916C466.359 574.809 468.296 574.256 471.062 574.256C472.169 574.256 473.829 574.533 476.043 575.086L496.795 580.896L516.717 586.707C522.804 588.921 528.615 590.581 534.148 591.688C536.915 592.241 539.129 592.518 540.789 592.518C543.003 592.518 544.663 592.241 545.77 591.688C549.643 590.581 552.687 586.707 554.9 580.066C557.114 573.426 558.774 560.698 559.881 541.883C560.988 523.068 562.094 505.913 563.201 490.418C563.755 474.923 564.308 455.001 564.861 430.652L565.691 271.16C565.691 267.84 565.138 252.622 564.031 225.506C563.478 198.39 562.094 179.575 559.881 169.061C558.774 158.546 556.007 148.862 551.58 140.008L544.109 122.576Z" fill="black"/>
</svg>
