<svg width="660" height="660" viewBox="0 0 660 660" fill="none" xmlns="http://www.w3.org/2000/svg">
<path d="M92.127 85.1387C82.7194 82.9251 74.972 80.9883 68.8848 79.3281C62.2441 77.668 55.8802 73.7943 49.793 67.707C44.8125 62.7266 42.3223 59.1296 42.3223 56.916C42.3223 56.3626 42.599 55.8092 43.1523 55.2559C44.8125 52.4889 47.8561 50.8288 52.2832 50.2754L83.8262 47.7852C96.0007 47.2318 117.583 45.0182 148.572 41.1445C179.562 37.2708 208.338 34.2272 234.9 32.0137L356.209 22.0527L421.785 15.4121C454.435 10.985 477.677 7.38802 491.512 4.62109C505.346 1.85417 515.031 0.19401 520.564 -0.359375C529.419 -0.359375 536.613 1.02409 542.146 3.79102C547.68 6.00456 556.535 10.7083 568.709 17.9023C580.883 25.0964 588.631 30.6302 591.951 34.5039C595.271 37.8242 596.932 41.1445 596.932 44.4648V46.125C595.825 49.9987 591.951 52.2122 585.311 52.7656L550.447 55.2559C541.593 55.2559 524.715 55.8092 499.812 56.916C474.91 58.0228 450.561 59.4062 426.766 61.0664C402.97 62.7266 381.388 64.11 362.02 65.2168C342.651 66.877 284.428 69.6439 247.352 73.5176C210.275 76.8379 190.076 78.7747 186.756 79.3281L152.723 82.6484L161.854 93.4395C164.067 96.7598 165.174 99.5267 165.174 101.74C165.174 103.4 164.067 106.167 161.854 110.041C159.64 114.468 157.426 120.555 155.213 128.303L149.402 147.395C147.742 154.589 145.805 167.593 143.592 186.408C123.96 353.277 132.152 569.22 26.5508 710.021C12.7161 727.73 -1.94857 743.778 -17.4434 758.166C-34.0449 772.554 -47.0495 781.962 -56.457 786.389L-75.5488 797.18C-79.4225 799.393 -82.1895 800.5 -83.8496 800.5C-85.5098 800.5 -86.6165 799.947 -87.1699 798.84C-87.7233 798.286 -88 797.456 -88 796.35C-88 794.136 -86.6165 791.646 -83.8496 788.879L-65.5879 769.787C-55.627 758.719 -46.2194 747.652 -37.3652 736.584C-28.5111 725.516 -17.9967 710.575 -5.82227 691.76C80.5664 550.396 77.581 353.055 92.127 193.049C94.3405 169.807 95.724 152.652 96.2773 141.584V127.473C96.2773 118.618 96.0007 111.701 95.4473 106.721L92.127 85.1387Z" fill="black"/>
</svg>
