<svg width="660" height="660" viewBox="0 0 660 660" fill="none" xmlns="http://www.w3.org/2000/svg">
<path fill-rule="evenodd" clip-rule="evenodd" d="M212.621 174.388C219.007 169.79 227.392 162.432 237.709 152.455C248.036 142.76 255.838 134.687 261 128.284C266.015 122.062 271.966 114.245 278.847 104.851L278.908 104.767L278.966 104.681C285.381 95.1174 289.978 88.0614 292.716 83.5645C295.284 79.8462 298.263 74.6349 301.644 68.0153L308.172 73.2796C330.306 92.2423 351.919 111.75 373.622 131.34L376.705 134.122C383.61 140.361 390.077 146.673 396.622 153.062C401.326 157.654 406.071 162.285 411.048 166.957L411.134 167.038L411.224 167.115C415.154 170.469 419.57 172.861 424.441 174.238C427.728 175.303 431.487 175.769 435.603 175.769C438.425 175.769 441.245 175.616 444.063 175.309C451.902 174.703 461.392 173.357 472.499 171.298C472.733 171.255 473.015 171.204 473.339 171.145L473.344 171.144C476.041 170.656 481.649 169.639 486.928 168.127C489.868 167.285 492.962 166.219 495.495 164.883C496.762 164.215 498.069 163.386 499.174 162.347C500.263 161.323 501.446 159.821 501.886 157.791L502 157.267V156.292C502 153.184 500.028 151.18 498.279 150.136C496.71 149.198 494.813 148.671 492.955 148.337L485.027 146.163L484.866 146.13C479.407 145.012 472.75 143.172 464.864 140.576C457.017 137.993 448.581 134.828 439.553 131.073C430.987 127.352 421.823 122.758 412.057 117.277C402.333 111.819 393.775 106.388 386.367 100.989L354.43 75.5841L354.396 75.5582C351.261 73.1507 345.106 68.7202 336.013 62.3181L314.868 46.4557L316.772 42.6946C318.041 41.0255 319.628 39.1964 321.557 37.2055C324.032 35.2951 326.037 33.6222 327.139 32.353L327.224 32.2555L327.303 32.1536C329.09 29.8664 330.077 27.1871 330.077 24.25C330.077 21.9554 328.968 19.991 328.041 18.6564C327.014 17.1776 325.611 15.6389 323.97 14.0629L323.864 13.9615L323.753 13.8664C320.281 10.9036 317.166 8.36042 314.414 6.24684C311.697 4.16057 307.692 1.93198 302.653 -0.449769L302.541 -0.502531L302.427 -0.549719C299.864 -1.60972 297.599 -2.4453 295.664 -3.02318C293.818 -3.57463 291.926 -4 290.235 -4H289.961L289.69 -3.97017C286.556 -3.62632 283.274 -2.68359 280.946 -0.299899L279.624 1.05372L278.952 14.4739V14.5237C278.948 14.5585 278.934 14.6737 278.893 14.8911C278.827 15.2479 278.715 15.7469 278.542 16.4098L278.497 16.5813L275.672 31.7715C274.562 35.0372 271.511 41.9466 266.307 52.795L266.286 52.8394L266.265 52.8841C260.961 64.5239 256.46 73.5871 252.756 80.1311L252.733 80.1704L252.712 80.21C249.049 86.9619 243.666 95.2465 236.5 105.096L236.442 105.175L236.388 105.256C229.642 115.331 222.137 125.274 213.872 135.085L213.797 135.174L213.726 135.266C206.224 145.062 198.752 153.664 191.316 161.089C187.504 164.895 184.583 167.838 182.561 169.908C181.553 170.94 180.751 171.774 180.167 172.397C179.877 172.707 179.621 172.987 179.411 173.226L179.403 173.234C179.331 173.316 179.207 173.458 179.066 173.633L174.136 178.681C172.787 180.063 171 182.317 171 185.245C171 187.006 171.641 189.079 173.526 190.527C175.16 191.782 177.023 192 178.285 192C179.553 192 180.891 191.703 182.057 191.377C183.31 191.027 184.755 190.529 186.36 189.913L186.725 189.773L193.757 185.722C200.084 182.672 206.372 178.887 212.621 174.388ZM471.587 166.382C471.644 166.372 471.702 166.361 471.763 166.35L471.759 166.35C471.699 166.361 471.642 166.372 471.587 166.382ZM471.927 166.32C471.947 166.316 471.966 166.312 471.986 166.309L472.465 166.222C472.277 166.256 472.101 166.288 471.94 166.317L471.927 166.32Z" fill="black"/>
<path d="M278.044 135.447L267.136 136.356L266.742 136.454C265.275 136.821 263.753 137.365 262.435 138.243C261.071 139.152 259.682 140.599 259.149 142.729L259 143.326V144.381C259 147.771 261.105 150.215 263.034 151.769C265.472 153.788 268.76 155.339 272.526 156.595C276.6 157.953 281.468 158.733 287.014 159.041L287.152 159.049H289.488C294.58 159.049 301.927 158.265 311.354 156.792L311.379 156.788L311.404 156.784C321.935 155.028 329.327 153.87 333.635 153.295C338.514 152.684 342.909 151.757 346.778 150.477C349.014 149.831 351.143 148.988 352.819 147.79C354.552 146.553 356.451 144.422 356.451 141.305C356.451 137.623 354.522 134.789 351.813 132.903C349.413 130.969 345.795 129.175 341.443 127.434C337.162 125.722 334.024 124.543 332.449 124.149L331.852 124H331.236C329.669 124 327.673 124.313 325.499 124.763C323.235 125.231 320.452 125.92 317.177 126.813L317.148 126.821L317.119 126.829C311.306 128.49 307.346 129.658 305.35 130.309L292.443 132.89L292.424 132.894C285.425 134.352 280.689 135.179 278.044 135.447Z" fill="black"/>
<path d="M354.496 291.004C354.323 290.943 354.134 290.88 353.947 290.822L349.388 288.542C347.918 287.626 346.194 287.016 344.275 287.016C342.16 287.016 340.128 287.774 338.543 289.359C336.981 290.92 336.639 292.856 336.639 294.213C336.639 296.302 337.605 298.056 338.357 299.184L338.478 299.364L345.545 308.198C347.558 311.073 349.159 313.329 350.339 314.952C351.083 315.975 351.802 316.95 352.387 317.661L356.063 325.013C358.088 329.064 359.461 332.103 360.248 334.201C360.72 335.461 361.192 336.59 361.666 337.538C362.086 338.377 362.706 339.49 363.591 340.375C365.574 342.358 368.106 343.158 370.643 343.158C373.355 343.158 376.404 342.293 379.531 341.043L379.554 341.033L379.578 341.024C385.172 338.72 390.009 335.405 394.024 331.077C398.249 326.833 401.413 322.03 403.43 316.675C405.305 311.978 406.839 306.73 408.055 300.956L408.085 300.812L408.107 300.667C409.003 294.693 410.036 285.825 411.207 274.117C412.676 262.357 413.707 250.878 414.3 239.683C415.469 228.899 416.602 221.868 417.638 218.243C418.713 214.478 419.994 211.622 421.385 209.535L421.451 209.436L421.512 209.334C422.416 207.827 423.151 206.529 423.674 205.482C423.934 204.964 424.183 204.424 424.378 203.903C424.514 203.54 424.861 202.598 424.861 201.488V200.609C424.861 196.902 423.044 193.608 420.64 190.831C417.918 187.392 413.24 184.098 407.33 180.847C401.587 177.689 397.19 175.34 394.173 173.825C391.132 171.975 387.803 171 384.266 171H383.771L383.285 171.097C381.512 171.452 378.819 172.255 375.398 173.393C372.02 174.233 368.206 175.08 363.949 175.931C359.816 176.758 354.312 177.471 347.376 178.049L347.293 178.055L238.749 190.748L225.47 189.503L215.833 187.576L214.742 187.849C211.287 188.712 207.808 190.955 207.068 195.393L207 195.801V197.094C207 199.756 208.19 202.992 209.645 206.194L209.684 206.278L209.725 206.361C211.679 210.269 213.001 213.615 213.768 216.427L213.822 216.626L213.893 216.82C214.273 217.865 214.734 219.988 215.167 223.519C215.587 226.95 215.946 231.402 216.235 236.907L216.239 236.968L216.243 237.028C217.113 248.34 217.693 256.455 217.986 261.401V268.285C217.986 274.879 217.7 281.166 217.13 287.147L217.124 287.206L217.12 287.265C216.823 291.427 216.668 294.927 216.668 297.729C216.668 300.695 216.808 303.263 217.188 305.218C217.877 309.296 219.254 313.091 221.336 316.561L221.509 316.849L221.719 317.112C223.052 318.779 224.478 320.257 226.013 321.353C227.532 322.438 229.491 323.383 231.775 323.383H232.215C234.538 323.383 236.5 322.409 238.01 321.247C239.51 320.093 240.835 318.554 242.024 316.856L242.125 316.712L242.215 316.561C244.162 313.316 245.661 310.007 246.672 306.636L246.74 306.411L246.786 306.18C247.179 304.215 247.322 301.616 247.322 298.607V293.271L246.439 258.369L245.564 246.567V214.5C285.941 207.742 326.307 203.947 367.213 202.533H370.203C373.657 202.533 375.461 202.943 376.21 203.274C377.293 203.924 377.944 204.705 378.352 205.655C378.852 206.823 379.262 208.831 379.266 211.99C378.856 234.015 377.474 255.456 375.336 277.445C374.475 285.467 373.238 290.534 371.922 293.216C370.799 295.245 369.894 295.693 369.396 295.805H368.445C367.401 295.805 365.357 295.383 362.019 293.992L362.009 293.988L361.999 293.984C359.501 292.955 357.56 292.171 356.195 291.64C355.518 291.377 354.943 291.161 354.496 291.004Z" fill="black"/>
</svg>
