<svg width="660" height="660" viewBox="0 0 660 660" fill="none" xmlns="http://www.w3.org/2000/svg">
<path d="M92.127 85.1367C82.7194 82.9232 74.972 80.9863 68.8848 79.3262C62.2441 77.666 55.8802 73.7923 49.793 67.7051C44.8125 62.7246 42.3223 59.1276 42.3223 56.9141C42.3223 56.3607 42.599 55.8073 43.1523 55.2539C44.8125 52.487 47.8561 50.8268 52.2832 50.2734L83.8262 47.7832C96.0007 47.2298 117.583 45.0163 148.572 41.1426C179.562 37.2689 208.338 34.2253 234.9 32.0117L356.209 22.0508L421.785 15.4102C454.435 10.9831 477.677 7.38607 491.512 4.61914C505.346 1.85221 515.031 0.192057 520.564 -0.361328C529.419 -0.361328 536.613 1.02214 542.146 3.78906C547.68 6.0026 556.535 10.7064 568.709 17.9004C580.883 25.0944 588.631 30.6283 591.951 34.502C595.271 37.8223 596.932 41.1426 596.932 44.4629V46.123C595.825 49.9967 591.951 52.2103 585.311 52.7637L550.447 55.2539C541.593 55.2539 524.715 55.8073 499.812 56.9141C474.91 58.0208 450.561 59.4043 426.766 61.0645C402.97 62.7246 381.388 64.1081 362.02 65.2148C342.651 66.875 284.428 69.6419 247.352 73.5156C210.275 76.8359 190.076 78.7728 186.756 79.3262L152.723 82.6465L161.854 93.4375C164.067 96.7578 165.174 99.5247 165.174 101.738C165.174 103.398 164.067 106.165 161.854 110.039C159.64 114.466 157.426 120.553 155.213 128.301L149.402 147.393C147.742 154.587 145.805 167.591 143.592 186.406C123.96 353.275 132.152 569.218 26.5508 710.02C12.7161 727.728 -1.94857 743.776 -17.4434 758.164C-34.0449 772.552 -47.0495 781.96 -56.457 786.387L-75.5488 797.178C-79.4225 799.391 -82.1895 800.498 -83.8496 800.498C-85.5098 800.498 -86.6165 799.945 -87.1699 798.838C-87.7233 798.285 -88 797.454 -88 796.348C-88 794.134 -86.6165 791.644 -83.8496 788.877L-65.5879 769.785C-55.627 758.717 -46.2194 747.65 -37.3652 736.582C-28.5111 725.514 -17.9967 710.573 -5.82227 691.758C80.5664 550.394 77.581 353.053 92.127 193.047C94.3405 169.805 95.724 152.65 96.2773 141.582V127.471C96.2773 118.617 96.0007 111.699 95.4473 106.719L92.127 85.1367Z" fill="black"/>
</svg>
