<svg width="660" height="660" viewBox="0 0 660 660" fill="none" xmlns="http://www.w3.org/2000/svg">
<mask id="path-1-outside-1_64_193" maskUnits="userSpaceOnUse" x="140" y="-5" width="379" height="362" fill="black">
<rect fill="white" x="140" y="-5" width="379" height="362"/>
<path d="M301.363 126.575L257.549 133.005L242.676 135.817C236.245 137.157 231.422 138.228 228.206 139.032C224.722 139.836 222.444 140.237 221.373 140.237H220.167C217.219 140.237 213.333 139.434 208.51 137.826C203.686 135.951 200.203 134.344 198.059 133.005C195.915 131.397 194.173 129.79 192.833 128.183C191.761 126.575 191.225 125.37 191.225 124.566C191.225 124.03 191.359 123.629 191.627 123.361C191.895 122.289 193.235 121.619 195.647 121.352L204.49 120.95C206.366 120.682 210.52 120.28 216.951 119.744C223.382 119.209 227.268 118.807 228.608 118.539L268.804 113.717L305.784 108.895V55.8539C305.784 39.7808 305.114 29.6012 303.775 25.3151C302.435 21.0289 300.961 17.4125 299.353 14.4658C297.745 11.519 296.539 9.10807 295.735 7.23288C295.467 6.42922 295.333 5.62557 295.333 4.82192C295.333 4.01826 295.601 3.08067 296.137 2.00913C297.209 0.937595 299.621 0.267884 303.373 0C307.66 0 311.68 0.669711 315.431 2.00913C319.719 3.08067 323.873 4.55403 327.892 6.42922C331.912 8.30441 334.725 10.1796 336.333 12.0548C337.941 13.93 338.745 15.6712 338.745 17.2785C338.745 18.8858 337.807 21.6986 335.931 25.7169C334.056 29.7352 332.582 34.691 331.51 40.5845C330.706 46.4779 329.902 55.7199 329.098 68.3105L327.49 106.082L382.559 98.4475L400.245 95.6347C405.337 94.831 409.222 94.2953 411.902 94.0274C415.654 94.0274 419.405 94.6971 423.157 96.0365C426.641 97.1081 430.124 98.7154 433.608 100.858C437.359 103.002 439.771 104.877 440.843 106.484C441.915 108.627 442.451 110.368 442.451 111.708C442.451 112.779 442.049 113.851 441.245 114.922C440.441 116.262 438.565 116.932 435.618 116.932C432.67 116.932 426.909 117.199 418.333 117.735L386.176 119.342L366.078 120.548C359.647 120.816 354.154 121.218 349.598 121.753L327.49 124.164V133.808L355.225 163.543C365.141 174.527 373.448 183.099 380.147 189.26C386.846 195.689 395.69 203.056 406.676 211.361C417.663 219.665 426.641 225.96 433.608 230.247C440.575 234.533 448.212 238.685 456.52 242.703C464.827 246.721 473 250.338 481.039 253.553L498.725 260.384L509.578 264.804C512.258 266.143 513.732 267.75 514 269.626V270.027C514 271.903 511.856 273.108 507.569 273.644L494.706 274.849C494.438 275.117 487.337 276.055 473.402 277.662C462.147 279.269 452.366 280.073 444.059 280.073H438.431C430.392 279.537 424.229 278.198 419.941 276.055C416.19 273.912 411.366 269.626 405.471 263.196C399.575 256.499 393.278 248.731 386.578 239.89L362.863 206.137C353.484 192.743 347.856 184.438 345.98 181.224L328.294 153.9L326.284 253.553V264.804C326.284 275.787 326.552 285.699 327.088 294.539C327.624 301.504 327.892 307.263 327.892 311.817C327.892 314.764 327.758 317.175 327.49 319.05C326.954 324.14 325.882 328.694 324.275 332.712C322.399 336.998 319.987 341.419 317.039 345.973C314.627 349.991 312.35 352 310.206 352H309.804C308.196 352 305.784 349.857 302.569 345.571C299.621 341.553 297.209 336.061 295.333 329.096C293.725 322.131 292.922 316.505 292.922 312.219C292.922 309.54 293.725 304.451 295.333 296.95C297.209 289.449 298.549 283.556 299.353 279.269C300.157 274.983 300.961 267.616 301.765 257.169C302.837 246.721 303.641 237.747 304.176 230.247L306.186 172.384L289.304 192.877C284.212 199.574 279.657 205.199 275.637 209.753C271.618 214.307 265.722 220.335 257.951 227.836C250.18 235.068 242.275 241.9 234.235 248.329C225.928 255.026 218.023 260.651 210.52 265.205C203.284 270.027 196.183 274.18 189.216 277.662C182.248 280.877 174.477 284.091 165.902 287.306L153.039 292.128C150.627 293.199 148.752 293.735 147.412 293.735C146.876 293.735 146.474 293.601 146.206 293.333C145.402 292.53 145 291.592 145 290.521C145 289.449 146.876 287.574 150.627 284.895L162.284 277.26C169.788 272.17 179.167 265.339 190.422 256.767L221.373 230.648C231.02 222.076 240.935 212.164 251.118 200.913C261.301 189.394 269.608 179.215 276.039 170.374C282.471 161.534 287.562 154.167 291.314 148.274C295.065 142.381 297.343 138.094 298.147 135.416L301.363 126.575Z"/>
</mask>
<path d="M301.363 126.575L257.549 133.005L242.676 135.817C236.245 137.157 231.422 138.228 228.206 139.032C224.722 139.836 222.444 140.237 221.373 140.237H220.167C217.219 140.237 213.333 139.434 208.51 137.826C203.686 135.951 200.203 134.344 198.059 133.005C195.915 131.397 194.173 129.79 192.833 128.183C191.761 126.575 191.225 125.37 191.225 124.566C191.225 124.03 191.359 123.629 191.627 123.361C191.895 122.289 193.235 121.619 195.647 121.352L204.49 120.95C206.366 120.682 210.52 120.28 216.951 119.744C223.382 119.209 227.268 118.807 228.608 118.539L268.804 113.717L305.784 108.895V55.8539C305.784 39.7808 305.114 29.6012 303.775 25.3151C302.435 21.0289 300.961 17.4125 299.353 14.4658C297.745 11.519 296.539 9.10807 295.735 7.23288C295.467 6.42922 295.333 5.62557 295.333 4.82192C295.333 4.01826 295.601 3.08067 296.137 2.00913C297.209 0.937595 299.621 0.267884 303.373 0C307.66 0 311.68 0.669711 315.431 2.00913C319.719 3.08067 323.873 4.55403 327.892 6.42922C331.912 8.30441 334.725 10.1796 336.333 12.0548C337.941 13.93 338.745 15.6712 338.745 17.2785C338.745 18.8858 337.807 21.6986 335.931 25.7169C334.056 29.7352 332.582 34.691 331.51 40.5845C330.706 46.4779 329.902 55.7199 329.098 68.3105L327.49 106.082L382.559 98.4475L400.245 95.6347C405.337 94.831 409.222 94.2953 411.902 94.0274C415.654 94.0274 419.405 94.6971 423.157 96.0365C426.641 97.1081 430.124 98.7154 433.608 100.858C437.359 103.002 439.771 104.877 440.843 106.484C441.915 108.627 442.451 110.368 442.451 111.708C442.451 112.779 442.049 113.851 441.245 114.922C440.441 116.262 438.565 116.932 435.618 116.932C432.67 116.932 426.909 117.199 418.333 117.735L386.176 119.342L366.078 120.548C359.647 120.816 354.154 121.218 349.598 121.753L327.49 124.164V133.808L355.225 163.543C365.141 174.527 373.448 183.099 380.147 189.26C386.846 195.689 395.69 203.056 406.676 211.361C417.663 219.665 426.641 225.96 433.608 230.247C440.575 234.533 448.212 238.685 456.52 242.703C464.827 246.721 473 250.338 481.039 253.553L498.725 260.384L509.578 264.804C512.258 266.143 513.732 267.75 514 269.626V270.027C514 271.903 511.856 273.108 507.569 273.644L494.706 274.849C494.438 275.117 487.337 276.055 473.402 277.662C462.147 279.269 452.366 280.073 444.059 280.073H438.431C430.392 279.537 424.229 278.198 419.941 276.055C416.19 273.912 411.366 269.626 405.471 263.196C399.575 256.499 393.278 248.731 386.578 239.89L362.863 206.137C353.484 192.743 347.856 184.438 345.98 181.224L328.294 153.9L326.284 253.553V264.804C326.284 275.787 326.552 285.699 327.088 294.539C327.624 301.504 327.892 307.263 327.892 311.817C327.892 314.764 327.758 317.175 327.49 319.05C326.954 324.14 325.882 328.694 324.275 332.712C322.399 336.998 319.987 341.419 317.039 345.973C314.627 349.991 312.35 352 310.206 352H309.804C308.196 352 305.784 349.857 302.569 345.571C299.621 341.553 297.209 336.061 295.333 329.096C293.725 322.131 292.922 316.505 292.922 312.219C292.922 309.54 293.725 304.451 295.333 296.95C297.209 289.449 298.549 283.556 299.353 279.269C300.157 274.983 300.961 267.616 301.765 257.169C302.837 246.721 303.641 237.747 304.176 230.247L306.186 172.384L289.304 192.877C284.212 199.574 279.657 205.199 275.637 209.753C271.618 214.307 265.722 220.335 257.951 227.836C250.18 235.068 242.275 241.9 234.235 248.329C225.928 255.026 218.023 260.651 210.52 265.205C203.284 270.027 196.183 274.18 189.216 277.662C182.248 280.877 174.477 284.091 165.902 287.306L153.039 292.128C150.627 293.199 148.752 293.735 147.412 293.735C146.876 293.735 146.474 293.601 146.206 293.333C145.402 292.53 145 291.592 145 290.521C145 289.449 146.876 287.574 150.627 284.895L162.284 277.26C169.788 272.17 179.167 265.339 190.422 256.767L221.373 230.648C231.02 222.076 240.935 212.164 251.118 200.913C261.301 189.394 269.608 179.215 276.039 170.374C282.471 161.534 287.562 154.167 291.314 148.274C295.065 142.381 297.343 138.094 298.147 135.416L301.363 126.575Z" fill="black"/>
<path d="M301.363 126.575L257.549 133.005L242.676 135.817C236.245 137.157 231.422 138.228 228.206 139.032C224.722 139.836 222.444 140.237 221.373 140.237H220.167C217.219 140.237 213.333 139.434 208.51 137.826C203.686 135.951 200.203 134.344 198.059 133.005C195.915 131.397 194.173 129.79 192.833 128.183C191.761 126.575 191.225 125.37 191.225 124.566C191.225 124.03 191.359 123.629 191.627 123.361C191.895 122.289 193.235 121.619 195.647 121.352L204.49 120.95C206.366 120.682 210.52 120.28 216.951 119.744C223.382 119.209 227.268 118.807 228.608 118.539L268.804 113.717L305.784 108.895V55.8539C305.784 39.7808 305.114 29.6012 303.775 25.3151C302.435 21.0289 300.961 17.4125 299.353 14.4658C297.745 11.519 296.539 9.10807 295.735 7.23288C295.467 6.42922 295.333 5.62557 295.333 4.82192C295.333 4.01826 295.601 3.08067 296.137 2.00913C297.209 0.937595 299.621 0.267884 303.373 0C307.66 0 311.68 0.669711 315.431 2.00913C319.719 3.08067 323.873 4.55403 327.892 6.42922C331.912 8.30441 334.725 10.1796 336.333 12.0548C337.941 13.93 338.745 15.6712 338.745 17.2785C338.745 18.8858 337.807 21.6986 335.931 25.7169C334.056 29.7352 332.582 34.691 331.51 40.5845C330.706 46.4779 329.902 55.7199 329.098 68.3105L327.49 106.082L382.559 98.4475L400.245 95.6347C405.337 94.831 409.222 94.2953 411.902 94.0274C415.654 94.0274 419.405 94.6971 423.157 96.0365C426.641 97.1081 430.124 98.7154 433.608 100.858C437.359 103.002 439.771 104.877 440.843 106.484C441.915 108.627 442.451 110.368 442.451 111.708C442.451 112.779 442.049 113.851 441.245 114.922C440.441 116.262 438.565 116.932 435.618 116.932C432.67 116.932 426.909 117.199 418.333 117.735L386.176 119.342L366.078 120.548C359.647 120.816 354.154 121.218 349.598 121.753L327.49 124.164V133.808L355.225 163.543C365.141 174.527 373.448 183.099 380.147 189.26C386.846 195.689 395.69 203.056 406.676 211.361C417.663 219.665 426.641 225.96 433.608 230.247C440.575 234.533 448.212 238.685 456.52 242.703C464.827 246.721 473 250.338 481.039 253.553L498.725 260.384L509.578 264.804C512.258 266.143 513.732 267.75 514 269.626V270.027C514 271.903 511.856 273.108 507.569 273.644L494.706 274.849C494.438 275.117 487.337 276.055 473.402 277.662C462.147 279.269 452.366 280.073 444.059 280.073H438.431C430.392 279.537 424.229 278.198 419.941 276.055C416.19 273.912 411.366 269.626 405.471 263.196C399.575 256.499 393.278 248.731 386.578 239.89L362.863 206.137C353.484 192.743 347.856 184.438 345.98 181.224L328.294 153.9L326.284 253.553V264.804C326.284 275.787 326.552 285.699 327.088 294.539C327.624 301.504 327.892 307.263 327.892 311.817C327.892 314.764 327.758 317.175 327.49 319.05C326.954 324.14 325.882 328.694 324.275 332.712C322.399 336.998 319.987 341.419 317.039 345.973C314.627 349.991 312.35 352 310.206 352H309.804C308.196 352 305.784 349.857 302.569 345.571C299.621 341.553 297.209 336.061 295.333 329.096C293.725 322.131 292.922 316.505 292.922 312.219C292.922 309.54 293.725 304.451 295.333 296.95C297.209 289.449 298.549 283.556 299.353 279.269C300.157 274.983 300.961 267.616 301.765 257.169C302.837 246.721 303.641 237.747 304.176 230.247L306.186 172.384L289.304 192.877C284.212 199.574 279.657 205.199 275.637 209.753C271.618 214.307 265.722 220.335 257.951 227.836C250.18 235.068 242.275 241.9 234.235 248.329C225.928 255.026 218.023 260.651 210.52 265.205C203.284 270.027 196.183 274.18 189.216 277.662C182.248 280.877 174.477 284.091 165.902 287.306L153.039 292.128C150.627 293.199 148.752 293.735 147.412 293.735C146.876 293.735 146.474 293.601 146.206 293.333C145.402 292.53 145 291.592 145 290.521C145 289.449 146.876 287.574 150.627 284.895L162.284 277.26C169.788 272.17 179.167 265.339 190.422 256.767L221.373 230.648C231.02 222.076 240.935 212.164 251.118 200.913C261.301 189.394 269.608 179.215 276.039 170.374C282.471 161.534 287.562 154.167 291.314 148.274C295.065 142.381 297.343 138.094 298.147 135.416L301.363 126.575Z" stroke="black" stroke-width="10" mask="url(#path-1-outside-1_64_193)"/>
</svg>
