<svg width="660" height="660" viewBox="0 0 660 660" fill="none" xmlns="http://www.w3.org/2000/svg">
<path d="M301.363 126.575L257.549 133.005L242.676 135.817C236.245 137.157 231.422 138.228 228.206 139.032C224.722 139.836 222.444 140.237 221.373 140.237H220.167C217.219 140.237 213.333 139.434 208.51 137.826C203.686 135.951 200.203 134.344 198.059 133.005C195.915 131.397 194.173 129.79 192.833 128.183C191.761 126.575 191.225 125.37 191.225 124.566C191.225 124.03 191.359 123.629 191.627 123.361C191.895 122.289 193.235 121.619 195.647 121.352L204.49 120.95C206.366 120.682 210.52 120.28 216.951 119.744C223.382 119.209 227.268 118.807 228.608 118.539L268.804 113.717L305.784 108.895V55.8539C305.784 39.7808 305.114 29.6012 303.775 25.3151C302.435 21.0289 300.961 17.4125 299.353 14.4658C297.745 11.519 296.539 9.10807 295.735 7.23288C295.467 6.42922 295.333 5.62557 295.333 4.82192C295.333 4.01826 295.601 3.08067 296.137 2.00913C297.209 0.937595 299.621 0.267884 303.373 0C307.66 0 311.68 0.669711 315.431 2.00913C319.719 3.08067 323.873 4.55403 327.892 6.42922C331.912 8.30441 334.726 10.1796 336.333 12.0548C337.941 13.93 338.745 15.6712 338.745 17.2785C338.745 18.8858 337.807 21.6986 335.931 25.7169C334.056 29.7352 332.582 34.691 331.51 40.5845C330.706 46.4779 329.902 55.7199 329.098 68.3105L327.49 106.082L382.559 98.4475L400.245 95.6347C405.337 94.831 409.222 94.2953 411.902 94.0274C415.654 94.0274 419.405 94.6971 423.157 96.0365C426.641 97.1081 430.124 98.7154 433.608 100.858C437.359 103.002 439.771 104.877 440.843 106.484C441.915 108.627 442.451 110.368 442.451 111.708C442.451 112.779 442.049 113.851 441.245 114.922C440.441 116.262 438.565 116.932 435.618 116.932C432.67 116.932 426.909 117.199 418.333 117.735L386.176 119.342L366.078 120.548C359.647 120.816 354.154 121.218 349.598 121.753L327.49 124.164V133.808L355.225 163.543C365.141 174.527 373.448 183.099 380.147 189.26C386.846 195.689 395.69 203.056 406.676 211.361C417.663 219.665 426.641 225.96 433.608 230.247C440.575 234.533 448.212 238.685 456.52 242.703C464.827 246.721 473 250.338 481.039 253.553L498.725 260.384L509.578 264.804C512.258 266.143 513.732 267.75 514 269.626V270.027C514 271.903 511.856 273.108 507.569 273.644L494.706 274.849C494.438 275.117 487.337 276.055 473.402 277.662C462.147 279.269 452.366 280.073 444.059 280.073H438.431C430.392 279.537 424.229 278.198 419.941 276.055C416.19 273.912 411.366 269.626 405.471 263.196C399.575 256.499 393.278 248.731 386.578 239.89L362.863 206.137C353.484 192.743 347.856 184.438 345.98 181.224L328.294 153.9L326.284 253.553V264.804C326.284 275.787 326.552 285.699 327.088 294.539C327.624 301.504 327.892 307.263 327.892 311.817C327.892 314.764 327.758 317.175 327.49 319.05C326.954 324.14 325.882 328.694 324.275 332.712C322.399 336.998 319.987 341.419 317.039 345.973C314.627 349.991 312.35 352 310.206 352H309.804C308.196 352 305.784 349.857 302.569 345.571C299.621 341.553 297.209 336.061 295.333 329.096C293.726 322.131 292.922 316.505 292.922 312.219C292.922 309.54 293.726 304.451 295.333 296.95C297.209 289.449 298.549 283.556 299.353 279.269C300.157 274.983 300.961 267.616 301.765 257.169C302.837 246.721 303.641 237.747 304.176 230.247L306.186 172.384L289.304 192.877C284.212 199.574 279.657 205.199 275.637 209.753C271.618 214.307 265.722 220.335 257.951 227.836C250.18 235.068 242.275 241.9 234.235 248.329C225.928 255.026 218.023 260.651 210.52 265.205C203.284 270.027 196.183 274.18 189.216 277.662C182.248 280.877 174.477 284.091 165.902 287.306L153.039 292.128C150.627 293.199 148.752 293.735 147.412 293.735C146.876 293.735 146.474 293.601 146.206 293.333C145.402 292.53 145 291.592 145 290.521C145 289.449 146.876 287.574 150.627 284.895L162.284 277.26C169.788 272.17 179.167 265.339 190.422 256.767L221.373 230.648C231.02 222.076 240.935 212.164 251.118 200.913C261.301 189.394 269.608 179.215 276.039 170.374C282.471 161.534 287.562 154.167 291.314 148.274C295.065 142.381 297.343 138.094 298.147 135.416L301.363 126.575Z" fill="black"/>
<path d="M290.333 4.82227C290.333 2.95518 290.938 1.2256 291.665 -0.227539L292.028 -0.953125L292.603 -1.52734C294.024 -2.94804 295.857 -3.68231 297.412 -4.11426C299.056 -4.57061 300.957 -4.84021 303.017 -4.9873L303.194 -5H303.372C308.099 -5 312.609 -4.27144 316.868 -2.7832C321.387 -1.63881 325.768 -0.0785773 330.006 1.89844C334.237 3.8724 337.824 6.11179 340.129 8.7998C342.114 11.1155 343.745 13.981 343.745 17.2783C343.745 18.8963 343.306 20.6128 342.785 22.1748C342.234 23.8281 341.445 25.7253 340.462 27.832C338.829 31.3298 337.467 35.8104 336.449 41.3672C335.677 47.0695 334.887 56.1065 334.091 68.5703L332.74 100.307L381.82 93.502L399.46 90.6963H399.466C404.583 89.8886 408.58 89.3341 411.404 89.0518L411.652 89.0273H411.902C416.221 89.0274 420.5 89.7939 424.719 91.2861C428.592 92.4868 432.401 94.2547 436.146 96.5498C439.793 98.6379 443.024 100.909 444.832 103.461L445.003 103.71L445.176 103.969L445.315 104.247C446.502 106.619 447.451 109.2 447.451 111.708C447.451 114.021 446.597 116.054 445.381 117.735C443.06 121.321 438.74 121.932 435.617 121.932C432.85 121.932 427.243 122.188 418.646 122.726L418.614 122.728L418.583 122.729L386.432 124.335L366.378 125.539L366.332 125.542L366.286 125.544C359.935 125.809 354.574 126.202 350.182 126.719L350.161 126.722L350.14 126.724L332.49 128.648V131.838L358.882 160.133L358.937 160.193C368.186 170.44 375.964 178.502 382.286 184.424L383.531 185.58L383.571 185.616L383.609 185.652C390.117 191.898 398.794 199.135 409.691 207.372C420.624 215.636 429.457 221.823 436.228 225.988C443.035 230.176 450.523 234.248 458.697 238.202C466.899 242.169 474.959 245.736 482.876 248.902L500.527 255.72L500.569 255.735L500.611 255.753L511.643 260.245L511.813 260.331C515.083 261.965 518.339 264.643 518.95 268.918L519 269.271V270.027C519 273.338 516.925 275.526 514.843 276.696C512.93 277.772 510.563 278.309 508.188 278.605L508.112 278.615L508.035 278.622L495.726 279.774C495.587 279.811 495.461 279.842 495.36 279.864C494.979 279.948 494.52 280.03 494.031 280.11C493.032 280.274 491.622 280.474 489.833 280.71C486.256 281.182 480.994 281.819 474.063 282.618C462.672 284.243 452.659 285.073 444.059 285.073H438.265L438.099 285.062C429.787 284.508 422.858 283.102 417.706 280.527L417.582 280.465L417.461 280.396C413.004 277.85 407.75 273.08 401.785 266.575L401.751 266.538L401.718 266.5C395.725 259.692 389.35 251.825 382.594 242.91L382.539 242.839L382.487 242.765L358.771 209.012L358.767 209.005C349.545 195.836 343.799 187.373 341.732 183.862L332.964 170.314L331.284 253.604V264.804C331.284 275.706 331.55 285.511 332.078 294.229C332.616 301.229 332.893 307.103 332.893 311.817C332.893 314.802 332.759 317.409 332.463 319.574L332.348 320.594C331.739 325.665 330.611 330.337 328.917 334.569L328.887 334.644L328.855 334.717C326.863 339.269 324.326 343.91 321.269 348.638C319.94 350.837 318.479 352.788 316.829 354.243C315.155 355.72 312.919 357 310.206 357H309.804C307.025 357 304.804 355.317 303.468 354.13C301.902 352.739 300.265 350.831 298.569 348.571L298.553 348.55L298.537 348.528C295.099 343.842 292.476 337.714 290.505 330.396L290.481 330.309L290.462 330.221C288.817 323.097 287.922 317.051 287.922 312.219C287.922 308.928 288.852 303.331 290.444 295.901L290.462 295.819L290.482 295.736C292.349 288.271 293.662 282.489 294.438 278.348C295.187 274.356 295.975 267.232 296.779 256.785L296.784 256.722L296.791 256.658C297.855 246.284 298.651 237.393 299.183 229.977L300.678 186.933L293.216 195.991C288.103 202.713 283.492 208.41 279.386 213.062C275.235 217.765 269.229 223.9 261.424 231.434L261.357 231.496C253.502 238.807 245.507 245.715 237.372 252.221L237.373 252.222C228.961 259.003 220.904 264.744 213.203 269.425C205.845 274.324 198.595 278.564 191.451 282.135L191.381 282.17L191.311 282.202C184.213 285.477 176.326 288.738 167.657 291.987L154.902 296.769C152.402 297.867 149.793 298.735 147.412 298.735C146.106 298.735 144.207 298.405 142.671 296.869C140.992 295.191 140 293.005 140 290.521C140 288.876 140.679 287.595 141.134 286.881C141.637 286.09 142.263 285.383 142.872 284.774C144.096 283.551 145.76 282.227 147.722 280.826L147.804 280.768L147.888 280.712L159.507 273.102C166.883 268.097 176.145 261.353 187.312 252.849L218.112 226.855C227.584 218.435 237.35 208.673 247.41 197.558C257.509 186.132 265.695 176.094 271.996 167.433C278.396 158.635 283.421 151.361 287.096 145.589C290.86 139.675 292.777 135.917 293.358 133.979L293.399 133.841L293.8 132.738L258.375 137.936L243.633 140.725C237.248 142.055 232.524 143.106 229.418 143.883L229.33 143.904C225.986 144.676 223.122 145.237 221.372 145.237H220.167C216.43 145.237 211.949 144.243 206.929 142.57L206.812 142.531L206.698 142.486C201.819 140.59 197.97 138.845 195.409 137.245L195.229 137.133L195.06 137.005C192.687 135.226 190.639 133.359 188.993 131.384L188.821 131.179L188.674 130.957C188.046 130.016 187.481 129.055 187.059 128.104C186.691 127.277 186.28 126.13 186.23 124.828L186.226 124.566L186.229 124.314C186.261 123.348 186.483 122.119 187.197 120.958C187.987 119.259 189.375 118.193 190.598 117.582C192.02 116.871 193.62 116.546 195.095 116.382L195.257 116.364L195.42 116.356L204.05 115.964C206.194 115.674 210.408 115.272 216.536 114.762C223.105 114.214 226.639 113.833 227.628 113.636L227.818 113.598L268.157 108.759L300.784 104.504V55.8535C300.784 47.8725 300.618 41.4301 300.293 36.4932C299.96 31.4281 299.479 28.3329 299.002 26.8066C297.729 22.7359 296.372 19.4416 294.964 16.8604C293.322 13.8513 292.032 11.2851 291.14 9.20312L291.058 9.01172L290.992 8.81445C290.563 7.5287 290.333 6.19188 290.333 4.82227ZM295.34 5.12305C295.369 5.82619 295.501 6.52928 295.735 7.23242C296.539 9.10759 297.745 11.5191 299.353 14.4658C300.96 17.4125 302.435 21.0293 303.774 25.3154C305.114 29.6017 305.784 39.781 305.784 55.8535V108.895L268.804 113.717L228.607 118.539L227.986 118.646C226.257 118.909 222.579 119.275 216.951 119.744L212.555 120.121C208.585 120.473 205.897 120.749 204.49 120.95L195.647 121.352L195.207 121.406C193.072 121.704 191.879 122.356 191.628 123.36C191.36 123.628 191.226 124.031 191.226 124.566C191.226 125.37 191.761 126.576 192.833 128.183C194.173 129.79 195.915 131.398 198.059 133.005C200.202 134.344 203.686 135.951 208.51 137.826C213.032 139.333 216.729 140.133 219.603 140.228L220.167 140.237H221.372C222.31 140.237 224.172 139.93 226.956 139.314L228.206 139.032C231.422 138.229 236.245 137.157 242.677 135.817L257.549 133.005L301.362 126.575L298.147 135.415L297.979 135.937C297.053 138.636 294.831 142.749 291.313 148.274L290.595 149.396C286.921 155.094 282.068 162.086 276.039 170.374C269.608 179.214 261.3 189.394 251.117 200.913C240.934 212.164 231.019 222.076 221.372 230.648L190.422 256.768C179.167 265.34 169.787 272.171 162.284 277.261L150.628 284.895L149.946 285.388C146.649 287.805 145 289.516 145 290.521C145 291.592 145.402 292.529 146.206 293.333C146.44 293.567 146.777 293.699 147.217 293.729L147.412 293.735C148.752 293.735 150.628 293.199 153.039 292.128L165.902 287.306C173.941 284.292 181.274 281.278 187.899 278.265L189.216 277.662C196.183 274.18 203.284 270.027 210.52 265.205C218.023 260.651 225.928 255.026 234.235 248.329C241.772 242.302 249.191 235.921 256.492 229.188L257.951 227.836C265.237 220.804 270.873 215.067 274.861 210.625L275.638 209.754C279.657 205.2 284.212 199.574 289.304 192.877L306.187 172.384L304.177 230.246C303.641 237.747 302.837 246.721 301.765 257.169L301.463 260.942C300.759 269.41 300.056 275.519 299.353 279.27L299.026 280.952C298.206 285.054 296.974 290.387 295.333 296.95L294.769 299.649C293.538 305.685 292.922 309.875 292.922 312.219L292.931 313.038C293.025 317.213 293.826 322.566 295.333 329.096C297.209 336.06 299.621 341.552 302.568 345.57C305.683 349.722 308.044 351.864 309.65 351.994L309.804 352H310.206L310.407 351.994C312.492 351.873 314.703 349.865 317.039 345.973C319.987 341.419 322.399 336.998 324.274 332.712C325.882 328.694 326.954 324.139 327.49 319.05C327.725 317.409 327.856 315.358 327.886 312.897L327.893 311.817C327.893 307.263 327.624 301.504 327.088 294.539C326.619 286.804 326.355 278.248 326.297 268.872L326.284 264.804V253.553L328.294 153.899L345.98 181.224C347.856 184.438 353.483 192.743 362.862 206.137L386.578 239.891C393.277 248.731 399.575 256.499 405.471 263.196C411.366 269.625 416.19 273.912 419.941 276.055C423.961 278.064 429.629 279.366 436.946 279.963L438.432 280.073H444.059L445.634 280.063C453.594 279.969 462.851 279.169 473.402 277.662C487.336 276.055 494.437 275.118 494.706 274.85L507.568 273.644C511.856 273.108 514 271.903 514 270.027V269.626C513.749 267.868 512.438 266.345 510.066 265.058L509.578 264.804L498.726 260.384L481.039 253.553C473 250.338 464.827 246.721 456.52 242.703C448.212 238.685 440.575 234.532 433.607 230.246C427.076 226.228 418.777 220.444 408.713 212.895L406.677 211.36C396.377 203.575 387.961 196.614 381.429 190.477L380.147 189.261C373.867 183.484 366.172 175.589 357.065 165.574L355.226 163.543L327.49 133.809V124.164L349.598 121.754C354.153 121.218 359.647 120.816 366.078 120.548L386.177 119.343L418.333 117.735C425.836 117.267 431.185 117.003 434.38 116.944L435.617 116.932C438.565 116.932 440.441 116.262 441.245 114.923C441.999 113.918 442.399 112.913 442.446 111.908L442.451 111.708C442.451 110.536 442.04 109.056 441.22 107.269L440.843 106.484C439.771 104.877 437.359 103.001 433.607 100.858C430.124 98.7155 426.641 97.1076 423.157 96.0361C419.406 94.6968 415.654 94.0274 411.902 94.0273C409.223 94.2952 405.337 94.8311 400.245 95.6348L382.559 98.4473L327.49 106.082L329.098 68.3105C329.902 55.7203 330.706 46.4784 331.51 40.585C332.515 35.06 333.873 30.3584 335.584 26.4814L335.932 25.7168C337.69 21.9495 338.625 19.2418 338.734 17.5938L338.745 17.2783C338.745 15.6711 337.941 13.9298 336.333 12.0547C334.826 10.2968 332.259 8.53912 328.632 6.78125L327.893 6.42969C323.873 4.55452 319.719 3.08032 315.432 2.00879C311.68 0.669367 307.66 0 303.372 0C299.621 0.267875 297.21 0.937525 296.138 2.00879L295.949 2.4043C295.539 3.31278 295.333 4.11895 295.333 4.82227L295.34 5.12305Z" fill="black"/>
<path d="M57.4316 667.256C55.7715 632.946 54.9414 636.423 54.9414 597.686C54.9414 545.667 56.3249 519.222 59.0918 458.35C61.3053 403.011 62.4121 402.337 62.4121 376.328C62.4121 358.62 61.8587 347.275 60.752 342.295C57.4316 330.12 51.6211 319.606 43.3203 310.752C41.1068 307.985 40 305.495 40 303.281C40 300.514 41.1068 297.747 43.3203 294.98C46.0872 291.66 50.791 290 57.4316 290C60.1986 290 63.5189 290.277 67.3926 290.83C88.9746 295.811 97.3431 305.771 114.498 320.713C121.139 326.247 124.459 333.164 124.459 341.465C124.459 345.339 123.906 349.212 122.799 353.086C119.479 361.94 115.328 377.988 110.348 401.23C101.493 446.608 100.853 465.544 96.4258 538.037C93.6589 581.755 93.2754 593.812 93.2754 634.209C93.2754 677.68 95.498 710 114.498 742C122.799 752.514 138.5 763.904 179 774.5C201 780.256 338.031 781.574 361.826 782.127C393.369 782.127 520.485 778.807 543.174 772.166C555.348 768.292 563.926 762.205 568.906 753.904C574.44 740.623 578.867 721.255 582.188 695.799C585.508 667.576 588.551 644.611 591.318 626.902C592.979 615.281 595.745 609.471 599.619 609.471C600.726 609.471 601.556 609.747 602.109 610.301C605.43 612.514 608.197 618.048 610.41 626.902C617.051 671.727 614.225 711.294 631.934 745.604C636.914 755.564 639.404 764.419 639.404 772.166C639.404 779.913 636.637 786.831 631.104 792.918C621.143 802.879 617.327 811.733 589.658 819.48C570.29 823.908 442.897 826.121 407.48 826.121H385.068C357.952 825.568 183 828.5 160.361 819.99C140.439 815.01 123.838 808.369 110.557 800.068C93.9551 789.554 82.334 777.103 75.6934 762.715C71.8197 755.521 68.2227 745.56 64.9023 732.832C61.582 717.891 59.0918 696.032 57.4316 667.256Z" fill="black"/>
</svg>
