<svg width="660" height="660" viewBox="0 0 660 660" fill="none" xmlns="http://www.w3.org/2000/svg">
<path d="M117.5 66.6543L339.947 50.8828L422.203 40.9219C448.765 36.4948 465.09 33.4512 471.177 31.791C477.265 30.1309 484.458 27.9173 492.759 25.1504C500.507 22.3835 506.594 21 511.021 21C515.448 21 520.705 22.1068 526.792 24.3203C532.88 26.5339 539.797 30.1309 547.544 35.1113L561.656 45.0723C569.956 51.1595 576.044 56.14 579.917 60.0137C583.791 63.8874 585.728 67.4844 585.728 70.8047C585.175 73.5716 582.408 76.8919 577.427 80.7656L565.806 90.7266C548.371 105.256 536.894 140.436 524.302 159.545L537.583 171.996C539.797 174.21 540.904 176.423 540.904 178.637C540.904 180.85 539.797 183.064 537.583 185.277C535.923 186.384 533.156 186.938 529.283 186.938H509.361C500.507 186.938 486.396 187.491 467.027 188.598L343.267 196.898C311.724 199.112 223.502 201.602 198.6 204.369C180.891 206.583 167.887 207.689 159.586 207.689C155.712 207.689 152.945 207.413 151.285 206.859L117.5 205.199C117.5 176.977 117.5 84.5 117.5 66.6543ZM142.174 176.977L320.855 167.016C342.437 164.802 385.403 162.035 409.752 158.715C434.654 155.395 447.382 153.458 447.935 152.904L469.517 151.244C478.261 130.372 489.013 109.884 492.759 87.4063C493.313 84.6393 493.589 82.1491 493.589 79.9356C493.589 77.1686 493.036 74.6784 491.929 72.4649C490.269 69.1445 484.459 66.6543 474.498 64.9941H466.197C460.663 64.9941 453.746 65.2708 445.445 65.8242L382.281 70.8047L157.096 90.7266C154.882 96.8138 153.499 100.688 152.945 102.348C146.794 126.952 148.365 152.261 142.174 176.977Z" fill="black"/>
<path d="M79.902 75.9008C89.5469 47.8125 104.516 56.8779 139.955 67.4355L150.108 77.2715C152.638 80.3568 154.013 83.0009 154.232 85.2036C154.396 86.8556 153.568 89.7183 151.748 93.7918C149.983 98.4159 148.381 104.692 146.944 112.62L143.048 132.193C142.107 139.516 141.465 152.648 141.121 171.59C140.778 190.531 139.606 212.336 137.606 237.003C135.607 261.67 132.863 287.246 129.376 313.729C125.888 340.212 121.19 365.704 115.281 390.203C109.427 415.253 101.7 441.045 92.0999 467.579C81.8949 493.617 71.0591 516.103 59.5926 535.037C47.5753 554.026 34.5681 571.444 20.5707 587.293C5.47206 603.251 -6.53933 613.898 -15.4634 619.232L-33.3956 631.857C-37.0316 634.443 -39.6756 635.817 -41.3276 635.981C-42.9797 636.145 -44.1357 635.704 -44.7957 634.657C-45.4011 634.161 -45.7585 633.363 -45.8678 632.261C-46.0865 630.059 -44.9559 627.444 -42.4759 624.417L-26.1899 603.614C-17.3713 591.617 -9.10338 579.674 -1.38611 567.785C6.33116 555.897 15.3177 539.989 25.5735 520.063C35.72 499.036 44.1871 477.898 50.9748 456.648C58.3132 435.343 64.8002 411.064 70.4358 383.812C76.0714 356.559 80.2464 331.398 82.9606 308.328C86.2256 285.203 88.3599 264.693 89.3636 246.798C90.3672 228.903 90.7675 207.731 90.5644 183.283C90.4706 159.936 90.1522 142.728 89.6093 131.66L88.215 117.618C87.3402 108.807 86.3813 101.951 85.3386 97.0492L79.902 75.9008Z" fill="black"/>
</svg>
