<svg width="660" height="660" viewBox="0 0 660 660" fill="none" xmlns="http://www.w3.org/2000/svg">
<path d="M114.541 336.574L365.891 300.012C379.858 257.582 383.002 244.004 386.604 230.729V228.238C386.05 223.811 384.113 220.491 380.793 218.277C378.026 217.171 374.706 216.617 370.832 216.617C363.085 216.617 350.91 218.001 334.309 220.768L299.445 226.578C292.805 227.685 226.839 242.665 187.549 251.52L128.613 263.141C109.798 267.568 97.0703 269.781 90.4297 269.781C83.7891 269.781 78.2552 268.674 73.8281 266.461C70.5078 264.801 65.5273 262.034 58.8867 258.16C52.2461 253.733 47.819 249.583 45.6055 245.709C44.4987 243.495 43.9453 241.835 43.9453 240.729C43.9453 239.068 44.4987 237.685 45.6055 236.578L57.2266 235.748L78.8086 233.258C92.0898 232.151 109.245 230.214 130.273 227.447C151.302 224.68 170.117 221.637 186.719 218.316C203.32 215.549 266.796 201.122 291.145 195.035C315.493 189.501 331.542 185.351 339.289 182.584L372.492 170.133C387.434 163.492 398.501 160.172 405.695 160.172C410.122 160.725 416.486 162.385 424.787 165.152C432.535 167.366 441.112 170.686 450.52 175.113C459.927 179.54 467.951 185.351 474.592 192.545C480.679 198.632 483.723 204.166 483.723 209.146V209.977C482.616 213.297 478.742 218.277 472.102 224.918C450.497 246.522 425.632 284.5 414.035 311.633L428.977 323.254C432.85 326.574 434.787 329.341 434.787 331.555C434.787 332.108 434.51 332.661 433.957 333.215C432.85 335.428 431.19 337.089 428.977 338.195C426.763 338.749 421.783 339.302 414.035 339.855L377.512 343.176L311.105 347.326L189.248 364.797L123.672 371.438C106.513 411.474 80.689 501.058 101.26 542.199C106.794 552.16 116.201 561.291 129.482 569.592C143.317 577.893 161.025 584.257 182.607 588.684C204.189 593.111 227.985 596.431 253.994 598.645C271.149 600.305 288.857 601.135 307.119 601.135C315.973 601.135 325.104 600.858 334.512 600.305C360.521 599.198 389.297 596.984 420.84 593.664C451.829 590.344 474.242 585.917 488.076 580.383C501.911 575.956 513.255 570.422 522.109 563.781C531.517 557.141 538.711 550.223 543.691 543.029C548.118 535.282 551.992 524.214 555.312 509.826L561.953 480.773L573.574 432.629C574.681 425.988 575.788 421.838 576.895 420.178C577.448 418.518 578.831 417.411 581.045 416.857H582.705C583.812 416.857 584.919 417.134 586.025 417.688C587.686 418.794 589.069 423.221 590.176 430.969L596.816 472.473C599.03 489.074 601.243 501.802 603.457 510.656C605.671 519.51 608.991 528.918 613.418 538.879C616.738 549.393 620.059 557.971 623.379 564.611C626.699 571.805 628.359 576.786 628.359 579.553C628.359 585.087 625.039 591.174 618.398 597.814C611.758 604.455 600.967 611.096 586.025 617.736C571.084 624.93 548.672 631.848 518.789 638.488C489.46 645.129 460.684 649.833 432.461 652.6C403.685 655.367 367.715 656.75 324.551 656.75C314.036 657.303 303.799 657.58 293.838 657.58C274.469 657.58 256.761 656.75 240.713 655.09C216.917 652.876 193.122 648.726 169.326 642.639C145.531 636.551 127.822 630.188 116.201 623.547C104.58 616.906 94.0658 609.159 84.6582 600.305C75.2507 590.897 67.7799 581.49 62.2461 572.082C57.2656 563.228 53.3919 552.714 50.625 540.539C41.4447 500.146 60.5859 420.356 60.5859 381.398C60.5859 367.564 58.3724 355.113 53.9453 344.045C51.1784 335.744 49.7949 329.657 49.7949 325.783V322.463C50.3483 319.696 51.1784 317.759 52.2852 316.652C53.9453 315.546 56.1589 314.992 58.9258 314.992H61.416C66.3965 314.992 74.4206 317.759 85.4883 323.293L114.541 336.574Z" fill="black"/>
<path d="M271.17 188.455L289.999 183.652C299.083 181.774 317.635 174.163 345.654 160.82C373.618 148.027 394.068 138.102 407.003 131.046C420.986 124.649 429.738 120.514 433.261 118.639C436.784 116.765 440.225 115.717 443.583 115.494C446.942 115.272 449.502 114.692 451.264 113.755C452.97 113.368 454.511 111.853 455.886 109.209C455.996 108.108 455.912 106.153 455.635 103.345C455.357 100.537 450.894 95.0883 442.244 86.9995C433.593 78.9107 424.531 72.1712 415.057 66.781L395.971 57.3774C390.628 55.1782 386.856 53.9693 384.653 53.7504C381.845 54.0275 379.533 54.9101 377.716 56.3979C375.9 57.8858 373.811 62.1271 371.447 69.1217C369.69 75.6204 366.803 82.285 362.788 89.1155C358.772 95.946 353.05 103.163 345.622 110.767L312.356 143.331C297.608 157.437 286.684 166.639 279.584 170.939L266.209 179.62C263.787 181.604 262.494 183.422 262.33 185.074L262.166 186.726C262.607 187.882 263.929 188.57 266.132 188.788C267.233 188.898 268.913 188.787 271.17 188.455Z" fill="black"/>
<path d="M367.304 2.85186C348.887 -7.3126 335.531 -12.5635 327.237 -12.9009C323.92 -13.0358 321.364 -11.4782 319.57 -8.22814C317.777 -4.97804 316.801 -1.41775 316.644 2.45275C316.329 10.1937 299.821 21.153 267.122 35.3305C222.055 53.9896 170.986 70.4661 113.912 84.7599C80.3991 91.7044 58.8528 97.1971 49.2731 101.238C52.4107 105.797 57.0206 108.199 63.1028 108.447C138.13 102.083 204.745 91.5007 262.947 76.6989C307.168 65.2054 347.451 55.2133 383.796 46.7224C399.413 44.0346 407.267 41.5848 407.357 39.3731C407.739 29.9734 394.388 17.7996 367.304 2.85186Z" fill="black"/>
<path d="M78.9402 138.046L67.3641 139.022C65.6842 139.092 64.0958 139.406 62.5988 139.965C61.1018 140.524 60.0372 141.48 59.405 142.832C58.7727 144.184 58.7309 145.594 59.2796 147.063C59.4624 147.553 59.9863 148.194 60.851 148.987L72.3252 161.439C75.2852 164.797 84.6145 173.029 100.313 186.135C115.513 199.428 128.044 207.859 137.906 211.428C145.407 214.764 151.901 215.407 157.39 213.357C162.879 211.307 166.34 206.109 167.771 197.763C168.887 190.093 168.073 182.586 165.33 175.242C161.905 167.594 157.756 161.054 152.884 155.62C147.513 150.373 141.758 146.385 135.622 143.656C129.984 140.74 121.601 138.85 110.475 137.984C99.3479 137.119 88.8364 137.139 78.9402 138.046Z" fill="black"/>
<path d="M165.286 103.658C160.473 105.038 157.794 105.776 157.25 105.873C156.795 106.477 156.703 107.54 156.974 109.061C157.335 111.09 158.421 114.036 160.233 117.899C162.406 123.79 168.933 133.616 179.813 147.375L198.852 173.808C204.655 181.147 211.186 186.263 218.446 189.156C224.617 192.243 230.153 193.35 235.057 192.477L237.508 192.041C242.776 190.057 246.048 186.335 247.325 180.876C248.511 174.91 248.337 167.616 246.802 158.995C245.268 150.373 242.279 143.057 237.837 137.047C233.849 130.432 228.952 125.025 223.146 120.826C217.884 116.531 212.849 113.503 208.039 111.744C203.229 109.984 196.104 107.851 186.665 105.346C177.316 103.348 170.19 102.785 165.286 103.658Z" fill="black"/>
</svg>
