<svg width="660" height="660" viewBox="0 0 660 660" fill="none" xmlns="http://www.w3.org/2000/svg">
<path d="M114.539 336.57L365.889 300.008C379.856 257.578 383 244 386.602 230.725V228.234C386.048 223.807 384.111 220.487 380.791 218.273C378.024 217.167 374.704 216.613 370.83 216.613C363.083 216.613 350.908 217.997 334.307 220.764L299.443 226.574C292.803 227.681 226.837 242.661 187.547 251.516L128.611 263.137C109.796 267.564 97.0684 269.777 90.4277 269.777C83.7871 269.777 78.2533 268.671 73.8262 266.457C70.5059 264.797 65.5254 262.03 58.8848 258.156C52.2441 253.729 47.8171 249.579 45.6035 245.705C44.4967 243.492 43.9434 241.831 43.9434 240.725C43.9434 239.064 44.4967 237.681 45.6035 236.574L57.2246 235.744L78.8066 233.254C92.0879 232.147 109.243 230.21 130.271 227.443C151.3 224.676 170.115 221.633 186.717 218.312C203.318 215.546 266.794 201.118 291.143 195.031C315.492 189.497 331.54 185.347 339.287 182.58L372.49 170.129C387.432 163.488 398.499 160.168 405.693 160.168C410.12 160.721 416.484 162.382 424.785 165.148C432.533 167.362 441.11 170.682 450.518 175.109C459.925 179.536 467.949 185.347 474.59 192.541C480.677 198.628 483.721 204.162 483.721 209.143V209.973C482.614 213.293 478.74 218.273 472.1 224.914C450.495 246.518 425.63 284.496 414.033 311.629L428.975 323.25C432.848 326.57 434.785 329.337 434.785 331.551C434.785 332.104 434.508 332.658 433.955 333.211C432.848 335.424 431.188 337.085 428.975 338.191C426.761 338.745 421.781 339.298 414.033 339.852L377.51 343.172L311.104 347.322L189.246 364.793L123.67 371.434C106.511 411.47 80.6871 501.054 101.258 542.195C106.792 552.156 116.199 561.287 129.48 569.588C143.315 577.889 161.023 584.253 182.605 588.68C204.188 593.107 227.983 596.427 253.992 598.641C271.147 600.301 288.855 601.131 307.117 601.131C315.971 601.131 325.102 600.854 334.51 600.301C360.519 599.194 389.295 596.98 420.838 593.66C451.827 590.34 474.24 585.913 488.074 580.379C501.909 575.952 513.253 570.418 522.107 563.777C531.515 557.137 538.709 550.219 543.689 543.025C548.117 535.278 551.99 524.21 555.311 509.822L561.951 480.77L573.572 432.625C574.679 425.984 575.786 421.834 576.893 420.174C577.446 418.514 578.829 417.407 581.043 416.854H582.703C583.81 416.854 584.917 417.13 586.023 417.684C587.684 418.79 589.067 423.217 590.174 430.965L596.814 472.469C599.028 489.07 601.242 501.798 603.455 510.652C605.669 519.507 608.989 528.914 613.416 538.875C616.736 549.389 620.057 557.967 623.377 564.607C626.697 571.801 628.357 576.782 628.357 579.549C628.357 585.083 625.037 591.17 618.396 597.811C611.756 604.451 600.965 611.092 586.023 617.732C571.082 624.926 548.67 631.844 518.787 638.484C489.458 645.125 460.682 649.829 432.459 652.596C403.683 655.363 367.713 656.746 324.549 656.746C314.035 657.299 303.797 657.576 293.836 657.576C274.467 657.576 256.759 656.746 240.711 655.086C216.915 652.872 193.12 648.722 169.324 642.635C145.529 636.548 127.82 630.184 116.199 623.543C104.578 616.902 94.0638 609.155 84.6562 600.301C75.2487 590.893 67.778 581.486 62.2441 572.078C57.2637 563.224 53.39 552.71 50.623 540.535C41.4428 500.142 60.584 420.352 60.584 381.395C60.584 367.56 58.3704 355.109 53.9434 344.041C51.1764 335.74 49.793 329.653 49.793 325.779V322.459C50.3464 319.692 51.1764 317.755 52.2832 316.648C53.9434 315.542 56.1569 314.988 58.9238 314.988H61.4141C66.3945 314.988 74.4186 317.755 85.4863 323.289L114.539 336.57Z" fill="black"/>
<path d="M271.168 188.455L289.997 183.652C299.081 181.774 317.633 174.163 345.652 160.82C373.616 148.027 394.066 138.102 407.002 131.046C420.984 124.649 429.736 120.514 433.259 118.639C436.782 116.765 440.223 115.717 443.581 115.494C446.94 115.272 449.5 114.692 451.262 113.755C452.969 113.368 454.509 111.853 455.884 109.209C455.994 108.108 455.91 106.153 455.633 103.345C455.356 100.537 450.892 95.0883 442.242 86.9995C433.591 78.9107 424.529 72.1712 415.055 66.781L395.969 57.3774C390.626 55.1782 386.854 53.9693 384.651 53.7504C381.843 54.0275 379.531 54.9101 377.715 56.3979C375.898 57.8858 373.809 62.1271 371.445 69.1217C369.688 75.6204 366.801 82.285 362.786 89.1155C358.77 95.946 353.048 103.163 345.62 110.767L312.355 143.331C297.606 157.437 286.682 166.639 279.582 170.939L266.207 179.62C263.785 181.604 262.492 183.422 262.328 185.074L262.164 186.726C262.605 187.882 263.927 188.57 266.13 188.788C267.231 188.898 268.911 188.787 271.168 188.455Z" fill="black"/>
<path d="M367.302 2.85186C348.885 -7.3126 335.529 -12.5635 327.235 -12.9009C323.918 -13.0358 321.362 -11.4782 319.568 -8.22814C317.775 -4.97804 316.799 -1.41775 316.642 2.45275C316.327 10.1937 299.82 21.153 267.12 35.3305C222.054 53.9896 170.984 70.4661 113.91 84.7599C80.3972 91.7044 58.8508 97.1971 49.2711 101.238C52.4087 105.797 57.0187 108.199 63.1009 108.447C138.129 102.083 204.743 91.5007 262.945 76.6989C307.166 65.2054 347.449 55.2133 383.794 46.7224C399.411 44.0346 407.265 41.5848 407.355 39.3731C407.737 29.9734 394.386 17.7996 367.302 2.85186Z" fill="black"/>
<path d="M78.9382 138.046L67.3621 139.022C65.6823 139.092 64.0938 139.406 62.5969 139.965C61.0999 140.524 60.0353 141.48 59.403 142.832C58.7708 144.184 58.729 145.594 59.2776 147.063C59.4605 147.553 59.9843 148.194 60.8491 148.987L72.3233 161.439C75.2832 164.797 84.6126 173.029 100.311 186.135C115.511 199.428 128.042 207.859 137.904 211.428C145.405 214.764 151.899 215.407 157.388 213.357C162.877 211.307 166.338 206.109 167.769 197.763C168.885 190.093 168.071 182.586 165.328 175.242C161.903 167.594 157.754 161.054 152.882 155.62C147.511 150.373 141.756 146.385 135.62 143.656C129.982 140.74 121.6 138.85 110.473 137.984C99.346 137.119 88.8345 137.139 78.9382 138.046Z" fill="black"/>
<path d="M165.287 103.658C160.474 105.038 157.795 105.776 157.25 105.873C156.796 106.477 156.704 107.54 156.975 109.061C157.336 111.09 158.422 114.036 160.234 117.899C162.407 123.79 168.934 133.616 179.814 147.375L198.853 173.808C204.656 181.147 211.187 186.263 218.447 189.156C224.617 192.243 230.154 193.35 235.058 192.477L237.509 192.041C242.777 190.057 246.049 186.335 247.326 180.876C248.512 174.91 248.338 167.616 246.803 158.995C245.269 150.373 242.28 143.057 237.838 137.047C233.85 130.432 228.953 125.025 223.147 120.826C217.885 116.531 212.85 113.503 208.04 111.744C203.23 109.984 196.105 107.851 186.666 105.346C177.317 103.348 170.191 102.785 165.287 103.658Z" fill="black"/>
</svg>
