<svg width="660" height="660" viewBox="0 0 660 660" fill="none" xmlns="http://www.w3.org/2000/svg">
<path d="M56.2441 229.566C57.8936 200.288 58.3945 190.921 58.3945 161.578C58.3945 153.831 58.1178 147.743 57.5645 143.316C57.5645 134.462 56.4577 127.268 54.2441 121.734L50.0938 110.943C38.4727 114.817 27.9583 117.861 18.5508 120.074C9.14323 123.395 1.67253 125.608 -3.86133 126.715L-17.1426 129.205C-19.3561 129.758 -21.293 130.035 -22.9531 130.035C-26.2734 130.035 -28.2103 128.928 -28.7637 126.715V124.225C-28.7637 121.458 -26.8268 119.244 -22.9531 117.584L-5.52148 109.283C-1.0944 107.623 8.86654 102.366 24.3613 93.5117L67.5254 67.7793L105.709 42.877C117.33 34.0228 127.844 25.1686 137.252 16.3145L156.344 -1.11719C162.984 -6.65104 167.135 -10.5247 168.795 -12.7383L178.756 -26.0195C180.969 -28.2331 183.183 -29.8932 185.396 -31H187.057C190.377 -31 195.081 -28.7865 201.168 -24.3594C205.042 -21.5924 210.576 -17.1654 217.77 -11.0781C224.964 -4.4375 230.497 2.20312 234.371 8.84375C237.138 14.3776 238.521 18.8047 238.521 22.125C238.521 23.2318 238.245 24.3385 237.691 25.4453C236.031 28.2122 234.094 29.8724 231.881 30.4258C229.667 31.5326 225.794 32.6393 220.26 33.7461C215.279 34.8529 209.192 37.0664 201.998 40.3867L178.756 50.3477L128.951 76.0801C124.524 78.847 114.286 83.5508 98.2383 90.1914L79.1465 98.4922L105.709 113.434C113.456 117.861 118.99 122.011 122.311 125.885C125.631 129.758 127.291 133.632 127.291 137.506C127.291 141.38 125.354 147.19 121.48 154.938C109.473 182.384 107.665 190.121 104.389 219.605C131.44 212.944 131.601 203.441 159.705 203.441C177.46 203.441 195.887 209.912 208.432 220.664C211.752 223.984 213.412 226.751 213.412 228.965C213.412 231.732 212.305 233.945 210.092 235.605C207.878 237.266 195.111 240.372 191.791 240.926C146 248.558 143.766 246.903 101.068 254.469L94.0879 470.68C93.5345 475.107 93.2578 479.257 93.2578 483.131C93.2578 493.645 94.3646 503.053 96.5781 511.354C99.3451 522.975 104.602 533.212 112.35 542.066C120.65 551.474 133.655 559.221 151.363 565.309C274.159 601.692 395.859 587.84 500.025 566.139C513.307 563.372 524.928 558.945 534.889 552.857C544.85 546.77 552.597 539.299 558.131 530.445C563.665 521.591 568.092 507.757 571.412 488.941L583.033 432.496C584.14 426.409 586.077 423.365 588.844 423.365H589.674C592.441 423.365 594.101 426.132 594.654 431.666L597.975 459.059L600.465 485.621C601.018 493.368 602.402 501.393 604.615 509.693C606.829 517.994 609.596 524.911 612.916 530.445C622.689 546.733 632.44 557.705 617.896 573.57C612.916 580.211 605.169 586.575 594.654 592.662C583.587 598.749 571.965 604.007 559.791 608.434C546.51 612.861 531.015 616.734 513.307 620.055C383.978 635.731 300.705 647.523 162.154 616.734C138.359 611.201 118.437 603.73 102.389 594.322C86.8939 584.361 75.2728 583.017 67.5254 570.289C59.778 557.008 54.5208 542.62 51.7539 527.125C48.987 513.844 47.6035 500.286 47.6035 486.451V478.98L54.584 265.26C33.4676 270.817 18.4689 286.39 -3.32617 277.672L-20.7578 271.031C-26.8451 268.818 -32.3789 265.774 -37.3594 261.9C-41.7865 259.133 -44 256.367 -44 253.6V252.77C-42.8932 249.449 -39.2962 247.236 -33.209 246.129L56.2441 229.566Z" fill="black"/>
</svg>
