<svg width="660" height="660" viewBox="0 0 660 660" fill="none" xmlns="http://www.w3.org/2000/svg">
<path d="M57.4316 437.256C55.7715 402.946 54.9414 406.423 54.9414 367.686C54.9414 315.667 56.3249 289.222 59.0918 228.35C61.3053 173.011 62.4121 172.337 62.4121 146.328C62.4121 128.62 61.8587 117.275 60.752 112.295C57.4316 100.12 51.6211 89.6061 43.3203 80.752C41.1068 77.985 40 75.4948 40 73.2812C40 70.5143 41.1068 67.7474 43.3203 64.9805C46.0872 61.6602 50.791 60 57.4316 60C60.1986 60 63.5189 60.2767 67.3926 60.8301C88.9746 65.8105 97.3431 75.7715 114.498 90.7129C121.139 96.2467 124.459 103.164 124.459 111.465C124.459 115.339 123.906 119.212 122.799 123.086C119.479 131.94 115.328 147.988 110.348 171.23C101.493 216.608 100.853 235.544 96.4258 308.037C93.6589 351.755 93.2754 363.812 93.2754 404.209C93.2754 447.68 95.498 480 114.498 512C122.799 522.514 138.5 533.904 179 544.5C201 550.256 338.031 551.574 361.826 552.127C393.369 552.127 520.485 548.807 543.174 542.166C555.348 538.292 563.926 532.205 568.906 523.904C574.44 510.623 578.867 491.255 582.188 465.799C585.508 437.576 588.551 414.611 591.318 396.902C592.979 385.281 595.745 379.471 599.619 379.471C600.726 379.471 601.556 379.747 602.109 380.301C605.43 382.514 608.197 388.048 610.41 396.902C617.051 441.727 614.225 481.294 631.934 515.604C636.914 525.564 639.404 534.419 639.404 542.166C639.404 549.913 636.637 556.831 631.104 562.918C621.143 572.879 617.327 581.733 589.658 589.48C570.29 593.908 442.897 596.121 407.48 596.121H385.068C357.952 595.568 183 598.5 160.361 589.99C140.439 585.01 123.838 578.369 110.557 570.068C93.9551 559.554 82.334 547.103 75.6934 532.715C71.8197 525.521 68.2227 515.56 64.9023 502.832C61.582 487.891 59.0918 466.032 57.4316 437.256Z" fill="black"/>
</svg>
