<svg width="660" height="660" viewBox="0 0 660 660" fill="none" xmlns="http://www.w3.org/2000/svg">
<path d="M158.93 129.656L200.754 126.336C310.6 117.886 379.237 100.297 489.221 92.2832C500.842 90.0697 508.313 88.6862 511.633 88.1328L530.725 81.4922C540.132 78.1719 546.496 76.5117 549.816 76.5117C552.583 75.9583 555.074 75.6816 557.287 75.6816C560.607 76.235 565.588 78.1719 572.229 81.4922C578.316 84.8125 586.893 89.793 597.961 96.4336C608.475 102.521 616.223 108.608 621.203 114.695C625.63 120.229 627.844 124.933 627.844 128.807V129.637C627.844 131.85 626.737 134.894 624.523 138.768C622.31 143.195 620.096 147.898 617.883 152.879C616.776 157.859 615.669 163.117 614.563 168.65C613.456 174.738 612.902 184.422 612.902 197.703L610.412 269.92C609.859 285.968 609.305 313.361 608.752 352.098C608.199 389.728 607.369 419.334 606.262 440.916C605.155 461.945 602.941 486.294 599.621 513.963C596.301 541.632 589.66 567.365 579.699 591.16C569.738 614.402 558.671 633.771 546.496 649.266C533.768 664.76 523.254 674.445 514.953 678.318C508.866 681.085 503.885 682.469 500.012 682.469H497.522C493.094 681.915 488.944 678.318 485.07 671.678C480.643 665.59 468.469 649.819 448.547 624.363L420.324 587.01L412.023 577.879C409.81 576.219 408.703 574.559 408.703 572.898C408.703 572.345 408.98 571.792 409.533 571.238C410.087 570.685 411.193 570.408 412.853 570.408C415.067 570.408 417.834 570.962 421.154 572.068L432.775 576.219L455.187 586.18C469.022 591.714 480.367 594.48 489.221 594.48H493.371C498.352 593.374 504.716 590.607 512.463 586.18C520.21 580.646 526.851 570.685 532.385 556.297C538.472 541.909 543.176 524.201 546.496 503.172C549.816 482.143 552.86 459.178 555.627 434.275C558.394 409.373 560.054 379.214 560.607 343.797V256.639C560.607 208.494 559.501 185.014 557.287 166.199C555.074 150.704 551.477 140.743 546.496 136.316C541.516 132.443 534.598 129.952 525.744 128.846H521.594C514.953 128.846 505.822 129.676 494.201 131.336L453.527 136.316L290.48 150.277C249.956 153.861 208.257 161.238 167.551 161.238C157.574 161.238 147.193 158.477 137.328 157.088L101.145 183.611C70.0293 212.316 53.0002 209.816 53 189.422C79.616 160.677 105.465 132.328 128.537 100.604C138.167 85.721 144.836 79.1 149.963 56.8828C151.07 51.349 151.623 46.6452 151.623 42.7715V38.6211C151.623 34.194 152.176 31.1504 153.283 29.4902C154.39 27.8301 156.88 27 160.754 27H162.414C164.628 27 167.671 27.5534 171.545 28.6602C176.525 29.7669 182.059 31.9805 188.147 35.3008C194.234 37.5143 200.598 40.8346 207.238 45.2617C213.879 49.6888 218.859 54.6693 222.18 60.2031C224.393 64.0768 225.5 67.1204 225.5 69.334C225.5 71.5475 224.947 73.2077 223.84 74.3145C223.286 75.4212 220.796 77.3581 216.369 80.125C212.495 83.4453 207.792 88.4258 202.258 95.0664L158.93 129.656Z" fill="black"/>
<path d="M71.9609 -15.5156C85.7956 -14.4089 97.4167 -11.3652 106.824 -6.38477C109.591 -4.72461 111.528 -2.51107 112.635 0.255859C165.206 -10.8118 179.477 -11.1999 215.447 -28.9082C242.01 -41.6361 258.058 -48 263.592 -48C275.766 -48 290.431 -41.6361 307.586 -28.9082C322.527 -17.2871 329.998 -8.15625 329.998 -1.51562C329.998 1.80469 328.061 8.9987 324.188 20.0664C319.661 33 311.736 92.5 311.736 101.346C308.969 121.268 303.989 131.229 296.795 131.229C287.941 131.229 279.917 126.801 272.723 117.947C264.422 105.773 260.271 98.0254 260.271 94.7051C260.271 84 266.912 65 266.912 49.1191C266.912 20.3431 259.441 5.95508 244.5 5.95508C236.199 5.95508 211.574 10.6589 170.623 20.0664C152.072 24.3281 130.343 23.2214 117.615 24.3281V56.6328C117.615 80.9818 115.402 97.86 110.975 107.268C108.761 116.122 104.611 120.549 98.5234 120.549C90.2227 120.549 82.1986 113.078 74.4512 98.1367C70.5775 87.6224 68.6406 79.3216 68.6406 73.2344C68.6406 56.6328 74.4512 26.5 68.6406 6.06641C64.2135 -2.23438 62 -6.93815 62 -8.04492C62 -13.0254 65.3203 -15.5156 71.9609 -15.5156Z" fill="black"/>
</svg>
