<svg width="660" height="660" viewBox="0 0 660 660" fill="none" xmlns="http://www.w3.org/2000/svg">
<path fill-rule="evenodd" clip-rule="evenodd" d="M493.301 342.81C495.913 338.786 497.546 334.003 498.594 330.759C504.046 316.388 506.688 299.188 506.688 279.297V269.857L506.677 269.694C500.494 175.002 497.414 110.724 497.41 76.7166C497.732 62.4388 499.798 51.8869 503.249 44.6779C505.643 39.8825 507.176 35.3218 507.176 31.25C507.176 27.1413 505.773 23.4462 502.904 20.5135C500.178 17.4365 495.991 14.132 490.652 10.6004C485.179 6.97988 478.231 2.94895 469.847 -1.48925L469.727 -1.55301L469.603 -1.61011C464.73 -3.85933 459.622 -5 454.324 -5C451.299 -5 448.288 -4.62128 445.299 -3.87415C394.133 8.91729 350.117 15.4012 326.089 18.9408C320.596 19.75 316.147 20.4053 312.897 20.9469C287.383 25.1992 248.264 28.6914 217.516 31.4363C211.593 31.965 205.981 32.466 200.837 32.9393C193.265 27.7725 185.589 23.9912 177.81 21.6753C174.64 20.2887 171.118 20.6882 168.44 22.0106C165.577 23.4248 162.742 26.4186 162.742 30.7617C162.742 33.4832 163.763 36.5601 165.126 39.6283L165.141 39.6607L165.156 39.6929C168.872 47.746 171.149 55.5424 172.055 63.0957L172.06 63.1357L172.065 63.1756C172.999 70.0193 173.484 79.2073 173.484 90.8203C173.484 132.1 172.345 163.968 170.092 186.507C167.856 208.22 162.906 229.626 155.231 250.733L155.194 250.833L155.162 250.936C153.102 257.458 152 263.513 152 269.043C152 271.557 152.179 273.951 152.556 276.213L152.597 276.457L152.661 276.695C155.919 288.748 159.374 297.761 163.291 302.853L163.489 303.111L163.718 303.34C166.356 305.978 169.682 308.223 173.602 308.223C177.383 308.223 180.282 305.946 182.325 303.494L182.345 303.47L182.365 303.446C187.25 297.434 190.742 289.148 193.115 278.985C197.413 261.128 200.061 243.257 201.055 225.375L201.056 225.345L203.987 157.949L203.987 157.941C206.115 112.641 208.235 81.7598 210.329 65.0983C225.614 61.5945 241.389 60.1115 257.524 58.862C259.715 58.6924 261.913 58.527 264.118 58.3611C276.884 57.4009 289.861 56.4248 302.686 54.5153C301.581 61.3865 300.657 67.9024 299.915 74.0616C295.737 96.1874 290.309 114.785 283.685 129.93C278.305 141.952 271.835 152.831 264.285 162.584L264.239 162.643L264.195 162.704C256.733 172.963 244.897 185.01 228.479 198.86C226.359 200.492 224.59 201.923 223.198 203.141C221.858 204.314 220.626 205.495 219.805 206.59L218.805 207.923V210.078C218.805 211.624 219.333 213.263 220.609 214.558C221.77 215.736 223.15 216.224 224.154 216.441C226.057 216.851 228.146 216.606 229.813 216.3C233.358 215.648 237.805 214.14 241.942 212.552C246.156 210.934 250.349 209.115 253.481 207.705C255.052 206.997 256.367 206.388 257.296 205.951C258.078 205.585 258.937 205.174 258.766 205.255L258.783 205.246L258.8 205.238C267.51 201.057 277.816 193.741 289.654 183.55C299.786 175.101 307.974 165.74 314.147 155.451L314.17 155.413L314.192 155.374C319.201 146.675 322.344 140.152 325.564 130.966C328.727 134.647 332.466 139.217 336.666 144.37L337.482 145.371C344.255 153.68 352.028 163.217 360.056 172.283C368.388 181.694 377.137 190.761 385.484 197.511C389.66 200.888 393.848 203.778 397.93 205.841C401.98 207.887 406.213 209.266 410.398 209.266C415.851 209.266 419.799 206.565 422.221 202.665C424.451 199.074 425.342 194.597 425.656 190.485C426.289 182.192 424.724 173.042 423.584 168.704C421.394 160.313 416.487 152.609 410.862 147.695C402.91 140.114 391.274 132.422 374.39 122.681C358.378 113.246 345.347 106.225 335.365 101.695C340.403 83.4543 344.82 66.777 347.141 47.8535C356.08 46.2311 365.229 44.1974 374.334 42.1737C379.751 40.9696 385.153 39.7689 390.484 38.6606C406.221 35.3893 421.71 32.832 436.746 32.832C440.969 32.832 445.333 34.0089 449.897 36.5714C449.999 36.6328 450.472 36.9753 451.136 38.1442C451.801 39.3145 452.501 41.0399 453.168 43.4487C454.503 48.2712 455.531 55.1753 456.172 64.3149L456.173 64.3259L456.174 64.3369C459.419 107.824 461.043 152.947 461.043 199.707C461.043 221.769 460.719 244.157 460.071 266.872C459.743 272.44 459.388 278.071 458.5 282.925C457.567 288.027 456.229 291.105 454.775 292.495C454.718 292.55 454.268 292.902 452.944 293.211C451.676 293.507 449.99 293.676 447.908 293.694C443.745 293.729 438.69 293.157 433.633 292.376C429.995 291.815 426.526 291.174 423.478 290.611L423.475 290.61C422.287 290.391 421.164 290.183 420.119 289.997C418.331 289.678 416.665 289.401 415.41 289.277C414.839 289.221 414.024 289.16 413.23 289.24C412.89 289.274 412.044 289.375 411.138 289.838C410.081 290.379 408.309 291.834 408.309 294.434C408.309 295.878 408.911 296.936 409.09 297.246C409.359 297.712 409.661 298.105 409.894 298.388C410.372 298.967 410.965 299.568 411.563 300.139C412.785 301.305 414.467 302.759 416.41 304.378C419.863 307.255 424.414 310.879 429.272 314.748L429.274 314.749L429.306 314.775C429.929 315.271 430.557 315.771 431.189 316.274C442.54 325.318 454.717 335.124 459.92 340.785L460.037 340.913L460.163 341.032C466.558 347.09 473.148 351.191 479.715 351.191C486.329 351.191 490.667 346.87 493.301 342.81ZM421.84 295.393L421.824 295.39C421.802 295.386 421.78 295.382 421.758 295.378C421.785 295.383 421.812 295.388 421.84 295.393Z" fill="black"/>
</svg>
