<svg width="660" height="660" viewBox="0 0 660 660" fill="none" xmlns="http://www.w3.org/2000/svg">
<path d="M48.9288 128.654L90.7531 132.334C200.599 123.884 379.236 100.295 489.22 92.2813C500.841 90.0677 508.312 88.6842 511.632 88.1309L530.724 81.4902C540.131 78.1699 546.495 76.5098 549.816 76.5098C552.583 75.9564 555.073 75.6797 557.286 75.6797C560.607 76.2331 565.587 78.1699 572.228 81.4902C578.315 84.8105 586.892 89.791 597.96 96.4316C608.474 102.519 616.222 108.606 621.202 114.693C625.629 120.227 627.843 124.931 627.843 128.805V129.635C627.843 131.848 626.736 134.892 624.523 138.766C622.309 143.193 620.095 147.896 617.882 152.877C616.775 157.857 615.668 163.115 614.562 168.648C613.455 174.736 612.901 184.42 612.901 197.701L610.411 269.918C609.858 285.966 609.304 313.359 608.751 352.096C608.198 389.726 607.368 419.332 606.261 440.914C605.154 461.943 602.94 486.292 599.62 513.961C596.3 541.63 589.659 567.363 579.698 591.158C569.737 614.4 558.67 633.769 546.495 649.264C533.767 664.758 523.253 674.443 514.952 678.316C508.865 681.083 503.885 682.467 500.011 682.467H497.521C493.094 681.913 488.943 678.316 485.069 671.676C480.642 665.589 468.468 649.817 448.546 624.361L420.323 587.008L412.022 577.877C409.809 576.217 408.702 574.557 408.702 572.897C408.702 572.343 408.979 571.79 409.532 571.236C410.086 570.683 411.192 570.406 412.853 570.406C415.066 570.406 417.833 570.96 421.153 572.066L432.774 576.217L455.187 586.178C469.021 591.712 480.366 594.479 489.22 594.479H493.37C498.351 593.372 504.715 590.605 512.462 586.178C520.209 580.644 526.85 570.683 532.384 556.295C538.471 541.907 543.175 524.199 546.495 503.17C549.816 482.141 552.859 459.176 555.626 434.273C558.393 409.371 560.053 379.212 560.607 343.795V256.637C560.607 208.492 559.5 185.012 557.286 166.197C555.073 150.702 551.476 140.742 546.495 136.314C541.515 132.441 534.597 129.951 525.743 128.844H521.593C514.952 128.844 505.821 129.674 494.2 131.334L453.526 136.314L180.48 156.275C139.955 159.859 90.7531 170.998 57.5499 174.236C47.5732 174.236 40.919 168.041 32.9993 161.998C25.4994 156.275 4.99899 116.998 48.9288 128.654Z" fill="black"/>
<path d="M180.172 130.926C172 127 168.427 123.034 164 117.5C158.609 111.846 154 101.5 151.518 90.6172L140.727 56.584C132.426 58.7975 125.232 60.4577 119.145 61.5645H114.164C110.29 61.5645 106.97 61.0111 104.203 59.9043C100.329 58.7975 95.349 56.584 89.2617 53.2637C82.6211 49.9434 77.6406 46.623 74.3203 43.3027C72.1068 41.0892 71 39.1523 71 37.4922C71 36.3854 71.2767 35.5553 71.8301 35.002C73.4902 32.7884 77.0872 31.6816 82.6211 31.6816L100.053 30.0215C103.926 29.4681 121.358 26.7012 152.348 21.7207L227.559 7.11914C212.064 -10.5892 201.55 -24.7005 196.016 -35.2148L186.055 -52.6465L178.584 -64.2676L171.113 -77.5488C168.9 -80.3158 167.793 -82.5293 167.793 -84.1895C167.793 -85.2962 168.346 -86.403 169.453 -87.5098C171.113 -89.1699 172.773 -90 174.434 -90C175.54 -90 176.647 -89.7233 177.754 -89.1699L193.525 -85.8496C197.953 -84.7428 205.977 -82.2526 217.598 -78.3789C228.665 -74.5052 236.966 -70.9082 242.5 -67.5879C247.481 -64.2676 252.184 -60.1172 256.611 -55.1367C260.485 -50.1562 263.529 -44.6224 265.742 -38.5352C266.296 -35.2148 266.572 -31.8945 266.572 -28.5742C266.572 -21.9336 265.189 -15.5697 262.422 -9.48242L257.441 2.96875L315.547 -6.99219C336.576 -10.8659 351.517 -13.9095 360.371 -16.123C368.672 -18.3366 374.759 -19.4434 378.633 -19.4434C383.06 -19.4434 388.04 -18.3366 393.574 -16.123C399.108 -13.9095 404.365 -11.1426 409.346 -7.82227C414.326 -5.05534 419.583 -1.45833 425.117 2.96875C429.544 6.84245 431.758 9.88607 431.758 12.0996V13.7598C431.758 15.9733 430.928 17.6335 429.268 18.7402C428.161 19.2936 425.117 19.847 420.137 20.4004L408.516 21.2305L362.031 23.7207L279.023 30.3613C287.878 33.6816 293.412 36.1719 295.625 37.832L310.566 46.9629C317.207 51.9434 321.634 55.8171 323.848 58.584C325.508 61.3509 326.338 63.8411 326.338 66.0547V67.7148C326.338 70.4818 325.508 73.2487 323.848 76.0156C322.741 78.7826 319.697 82.9329 314.717 88.4668C307.487 96.5 290.5 107 281.441 118.475C267.5 141 194.767 137.938 180.172 130.926ZM152.348 54.0938C161.755 59.0742 169.503 63.5013 175.59 67.375C201.5 86 205 111 202.584 119.305L199.264 128.436C215.312 126.222 224.996 124.839 228.316 124.285L263.18 119.305C267 107 264.082 88.4668 264.082 79.3359V71.0352C264.082 65.5013 263.805 60.2441 263.252 55.2637C262.699 49.7298 262.422 45.8561 262.422 43.6426V41.9824L267.402 32.0215C252.461 33.1283 241.947 34.235 235.859 35.3418L152.348 54.0938Z" fill="black"/>
</svg>
