<svg width="660" height="660" viewBox="0 0 660 660" fill="none" xmlns="http://www.w3.org/2000/svg">
<path d="M48.9298 128.656L90.7541 132.336C200.6 123.886 379.237 100.297 489.221 92.2832C500.842 90.0697 508.313 88.6862 511.633 88.1328L530.725 81.4922C540.132 78.1719 546.496 76.5117 549.817 76.5117C552.584 75.9583 555.074 75.6816 557.287 75.6816C560.608 76.235 565.588 78.1719 572.229 81.4922C578.316 84.8125 586.893 89.793 597.961 96.4336C608.475 102.521 616.223 108.608 621.203 114.695C625.63 120.229 627.844 124.933 627.844 128.807V129.637C627.844 131.85 626.737 134.894 624.524 138.768C622.31 143.195 620.096 147.898 617.883 152.879C616.776 157.859 615.669 163.117 614.563 168.65C613.456 174.738 612.902 184.422 612.902 197.703L610.412 269.92C609.859 285.968 609.305 313.361 608.752 352.098C608.199 389.728 607.369 419.334 606.262 440.916C605.155 461.945 602.941 486.294 599.621 513.963C596.301 541.632 589.66 567.365 579.699 591.16C569.738 614.402 558.671 633.771 546.496 649.266C533.768 664.76 523.254 674.445 514.953 678.318C508.866 681.085 503.886 682.469 500.012 682.469H497.522C493.095 681.915 488.944 678.318 485.07 671.678C480.643 665.59 468.469 649.819 448.547 624.363L420.324 587.01L412.023 577.879C409.81 576.219 408.703 574.559 408.703 572.898C408.703 572.345 408.98 571.792 409.533 571.238C410.087 570.685 411.193 570.408 412.854 570.408C415.067 570.408 417.834 570.962 421.154 572.068L432.775 576.219L455.188 586.18C469.022 591.714 480.367 594.48 489.221 594.48H493.371C498.352 593.374 504.716 590.607 512.463 586.18C520.21 580.646 526.851 570.685 532.385 556.297C538.472 541.909 543.176 524.201 546.496 503.172C549.817 482.143 552.86 459.178 555.627 434.275C558.394 409.373 560.054 379.214 560.607 343.797V256.639C560.607 208.494 559.501 185.014 557.287 166.199C555.074 150.704 551.477 140.743 546.496 136.316C541.516 132.443 534.598 129.952 525.744 128.846H521.594C514.953 128.846 505.822 129.676 494.201 131.336L453.527 136.316L180.481 156.277C139.956 159.861 90.7541 171 57.5509 174.238C47.5742 174.238 40.9199 168.043 33.0002 162C25.5004 156.277 4.99997 117 48.9298 128.656Z" fill="black"/>
<path d="M180.172 130.926C172 127 168.427 123.034 164 117.5C158.609 111.846 154 101.5 151.518 90.6172L140.727 56.584C132.426 58.7975 125.232 60.4577 119.145 61.5645H114.164C110.29 61.5645 106.97 61.0111 104.203 59.9043C100.329 58.7975 95.349 56.584 89.2617 53.2637C82.6211 49.9434 77.6406 46.623 74.3203 43.3027C72.1068 41.0892 71 39.1523 71 37.4922C71 36.3854 71.2767 35.5553 71.8301 35.002C73.4902 32.7884 77.0872 31.6816 82.6211 31.6816L100.053 30.0215C103.926 29.4681 121.358 26.7012 152.348 21.7207L227.559 7.11914C212.064 -10.5892 201.55 -24.7005 196.016 -35.2148L186.055 -52.6465L178.584 -64.2676L171.113 -77.5488C168.9 -80.3158 167.793 -82.5293 167.793 -84.1895C167.793 -85.2962 168.346 -86.403 169.453 -87.5098C171.113 -89.1699 172.773 -90 174.434 -90C175.54 -90 176.647 -89.7233 177.754 -89.1699L193.525 -85.8496C197.953 -84.7428 205.977 -82.2526 217.598 -78.3789C228.665 -74.5052 236.966 -70.9082 242.5 -67.5879C247.481 -64.2676 252.184 -60.1172 256.611 -55.1367C260.485 -50.1562 263.529 -44.6224 265.742 -38.5352C266.296 -35.2148 266.572 -31.8945 266.572 -28.5742C266.572 -21.9336 265.189 -15.5697 262.422 -9.48242L257.441 2.96875L315.547 -6.99219C336.576 -10.8659 351.517 -13.9095 360.371 -16.123C368.672 -18.3366 374.759 -19.4434 378.633 -19.4434C383.06 -19.4434 388.04 -18.3366 393.574 -16.123C399.108 -13.9095 404.365 -11.1426 409.346 -7.82227C414.326 -5.05534 419.583 -1.45833 425.117 2.96875C429.544 6.84245 431.758 9.88607 431.758 12.0996V13.7598C431.758 15.9733 430.928 17.6335 429.268 18.7402C428.161 19.2936 425.117 19.847 420.137 20.4004L408.516 21.2305L362.031 23.7207L279.023 30.3613C287.878 33.6816 293.412 36.1719 295.625 37.832L310.566 46.9629C317.207 51.9434 321.634 55.8171 323.848 58.584C325.508 61.3509 326.338 63.8411 326.338 66.0547V67.7148C326.338 70.4818 325.508 73.2487 323.848 76.0156C322.741 78.7826 319.697 82.9329 314.717 88.4668C307.487 96.5 290.5 107 281.441 118.475C267.5 141 194.767 137.938 180.172 130.926ZM152.348 54.0938C161.755 59.0742 169.503 63.5013 175.59 67.375C201.5 86 205 111 202.584 119.305L199.264 128.436C215.312 126.222 224.996 124.839 228.316 124.285L263.18 119.305C267 107 264.082 88.4668 264.082 79.3359V71.0352C264.082 65.5013 263.805 60.2441 263.252 55.2637C262.699 49.7298 262.422 45.8561 262.422 43.6426V41.9824L267.402 32.0215C252.461 33.1283 241.947 34.235 235.859 35.3418L152.348 54.0938Z" fill="black"/>
</svg>
