<svg width="215" height="215" viewBox="0 0 215 215" fill="none" xmlns="http://www.w3.org/2000/svg">
<path d="M80.5181 204.451C81.3156 119.196 85.5859 129.475 80.8009 84.1265C76.0159 38.7781 71.1149 3.40637 53.57 -21.9887C47.19 -30.1514 44 -37.8607 44 -45.1164C44 -52.3721 51.1775 -56 65.5325 -56C80.685 -56 88.0944 -51.9186 112.817 -43.7559C138.337 -36.5002 151.097 -23.8026 151.097 -5.66328C151.097 20.8098 146.963 17.0123 145.78 43.9176C167.877 31.8913 200.519 24.2667 225.131 24.2667C237.891 24.2667 247.86 27.4411 255.038 33.7898C263.013 39.2316 267 45.5804 267 52.8361C267 66.4406 245.866 79.5917 203.599 92.2893C172.273 101.7 169.04 99.545 144.584 99.545L129.564 194.928C120.792 228.183 89.5567 225.16 80.5181 204.451Z" fill="black"/>
</svg>
