<svg width="215" height="215" viewBox="0 0 215 215" fill="none" xmlns="http://www.w3.org/2000/svg">
<path d="M79.7382 64.8292C62.2306 79.2192 43.4727 92.1494 27.2157 101.743C10.9587 111.336 1.16282 114.673 -2.17194 111.753C-5.08986 108.416 -0.296141 100.7 12.2092 88.604C34.9054 66.6509 56.659 32.0813 67.2328 2.26392C71.8181 -10.6662 73.2771 -19.8425 71.6097 -25.2648C67.4413 -38.6121 67.8581 -46.7456 72.8602 -49.6653C77.8624 -53.0021 89.9509 -50.0824 109.126 -40.9061C120.381 -35.4838 128.926 -30.8957 134.762 -27.1418C141.014 -23.3879 144.975 -20.0511 146.642 -17.1313C148.309 -14.2116 148.101 -11.2919 146.017 -8.3722C143.932 -5.4525 140.389 -2.11568 135.387 1.63823C133.72 2.88955 132.052 4.34941 130.385 6.01782L123.507 12.9C121.006 15.4026 117.671 19.1565 113.503 24.1617C109.334 28.7499 103.915 35.0064 97.2457 42.9314C111.418 42.0971 125.8 40.0116 140.389 36.6748C155.396 32.9209 168.943 27.4986 181.032 20.4078C186.451 17.4881 191.036 15.1941 194.788 13.5257C198.956 11.8573 202.708 11.023 206.042 11.023C209.794 11.023 213.546 12.0658 217.297 14.1513C221.049 15.8197 225.843 18.3223 231.678 21.6591C252.104 34.1722 262.525 43.1399 262.942 48.5622C263.776 53.5674 255.647 58.9897 238.556 64.8292C231.053 67.3318 206.042 88.604 189.583 111.753C175.201 129.188 153.52 154.84 127.884 185.497C110.387 206.42 101.623 216 79.7382 216C86 192 93.0254 164.749 106.625 148.667C111.627 142.827 126.216 117.175 130.385 111.753C134.97 105.914 156.438 74.4225 162.274 67.3318C165.608 62.7437 166.65 60.0325 165.4 59.1983C164.566 58.3641 160.606 58.7812 153.52 60.4496C143.516 62.5351 134.97 64.2035 127.884 65.4549C121.214 66.7061 115.17 67.5403 109.751 67.9574C104.332 68.3745 99.3299 68.3745 94.7446 67.9574C90.1593 67.1232 85.1572 66.0805 79.7382 64.8292Z" fill="black"/>
<path fill-rule="evenodd" clip-rule="evenodd" d="M106.623 148.667C109.446 145.371 115.324 135.762 120.659 127.042C124.775 120.314 128.567 114.115 130.383 111.753C132.351 109.246 137.432 102.011 143.051 94.008C150.52 83.3709 158.941 71.3782 162.272 67.3318C165.606 62.7437 166.648 60.0325 165.398 59.1983C164.564 58.3641 160.604 58.7812 153.518 60.4496C143.513 62.5351 134.968 64.2035 127.882 65.4548C121.212 66.7061 115.168 67.5403 109.749 67.9574C104.33 68.3745 99.3278 68.3745 94.7425 67.9574C90.1572 67.1232 85.1551 66.0805 79.7361 64.8292C62.2285 79.2192 43.4706 92.1494 27.2136 101.743C10.9566 111.336 1.16073 114.673 -2.17403 111.753C-5.09195 108.416 -0.298233 100.7 12.2071 88.604C34.9033 66.6508 56.6569 32.0813 67.2307 2.2639C71.816 -10.6663 73.275 -19.8425 71.6076 -25.2648C67.4392 -38.6121 67.856 -46.7456 72.8582 -49.6653C77.8603 -53.0021 89.9488 -50.0824 109.124 -40.9061C120.379 -35.4838 128.924 -30.8957 134.76 -27.1418C141.012 -23.3879 144.972 -20.0511 146.64 -17.1313C148.307 -14.2116 148.099 -11.2919 146.015 -8.37221C143.93 -5.45251 140.387 -2.1157 135.385 1.63822C133.718 2.88954 132.05 4.3494 130.383 6.01781L123.505 12.9C121.004 15.4026 117.669 19.1565 113.501 24.1617C110.314 27.6692 106.396 32.1518 101.748 37.6094C100.316 39.2908 98.8145 41.0648 97.2436 42.9313C99.5636 42.7948 101.889 42.6247 104.22 42.4211C116.13 41.3808 128.186 39.4654 140.387 36.6748C155.394 32.9209 168.941 27.4986 181.03 20.4078C186.449 17.4881 191.034 15.1941 194.785 13.5257C198.954 11.8573 202.706 11.023 206.04 11.023C209.792 11.023 213.544 12.0658 217.295 14.1513C221.047 15.8197 225.84 18.3223 231.676 21.6591C252.102 34.1722 262.523 43.1399 262.94 48.5622C263.773 53.5674 255.645 58.9897 238.554 64.8292C231.051 67.3318 206.04 88.604 189.581 111.753C180.643 122.588 168.887 136.596 155.113 153.007C146.724 163.004 137.586 173.892 127.882 185.497C111.846 204.673 103.145 214.321 84.956 215.799C83.299 215.933 81.5633 216 79.7361 216L79.9025 215.362C80.2802 213.914 80.6609 212.455 81.0459 210.987C86.9993 188.29 93.9622 163.638 106.623 148.667ZM267.905 47.9563C268.722 53.6127 264.362 57.7952 260.243 60.5423C255.635 63.6165 248.842 66.5979 240.171 69.5606L240.154 69.5665L240.136 69.5723C239.087 69.9224 236.676 71.2779 233.027 73.9798C229.543 76.5591 225.338 80.056 220.815 84.2251C211.757 92.5746 201.639 103.423 193.655 114.651L193.552 114.797L193.438 114.935C184.488 125.784 172.707 139.822 158.921 156.249C150.533 166.243 141.403 177.121 131.717 188.704C123.075 199.04 116.086 207.222 108.333 212.683C100.26 218.369 91.5556 221 79.7361 221H73.2642L75.0885 214.008C78.1538 202.257 81.481 189.503 85.7212 177.677C90.0369 165.639 95.4363 154.152 102.805 145.438L102.815 145.426L102.825 145.414C104.997 142.879 109.632 135.468 114.552 127.441C115.166 126.44 115.783 125.43 116.398 124.424C120.46 117.783 124.424 111.3 126.419 108.706L126.434 108.685L126.45 108.665C128.328 106.274 133.309 99.1804 138.957 91.1382C139.879 89.8242 140.82 88.4848 141.768 87.1365C148.14 78.0697 154.859 68.5656 158.08 64.5612C157.064 64.7683 155.927 65.0191 154.664 65.3165L154.601 65.3313L154.538 65.3444C144.515 67.4339 135.925 69.1115 128.777 70.3741C121.982 71.6482 115.763 72.5093 110.133 72.9427C104.483 73.3775 99.1975 73.3833 94.2896 72.9369L94.0672 72.9166L93.8476 72.8767C89.861 72.1514 85.5803 71.2743 81.0074 70.2469C63.8494 84.1778 45.6433 96.6729 29.7547 106.049C21.5302 110.902 14.6699 114.339 9.28615 116.173C6.60507 117.087 4.03312 117.693 1.69724 117.767C-0.610253 117.841 -3.30965 117.404 -5.4677 115.515L-5.7185 115.295L-5.93792 115.044C-7.90981 112.79 -8.25951 110.029 -7.84606 107.593C-7.45656 105.298 -6.36867 103.005 -5.01434 100.825C-2.28474 96.4309 2.39975 91.134 8.73092 85.0101C30.8446 63.6204 52.1894 29.7193 62.5183 0.59277C64.7522 -5.70665 66.1612 -10.92 66.826 -15.101C67.502 -19.3528 67.3393 -22.1269 66.8309 -23.7872C64.6807 -30.6751 63.5477 -36.7002 63.8005 -41.6313C64.0546 -46.59 65.802 -51.2671 70.212 -53.9092C72.4877 -55.3819 75.1643 -55.9286 77.8165 -55.9933C80.5375 -56.0597 83.5777 -55.6287 86.85 -54.8384C93.3895 -53.2589 101.568 -50.0652 111.282 -45.4163L111.294 -45.4106C122.572 -39.9771 131.31 -35.2991 137.4 -31.3887C143.684 -27.6093 148.63 -23.7286 150.982 -19.6109C152.232 -17.4223 152.906 -14.985 152.721 -12.3958C152.538 -9.83101 151.54 -7.50724 150.084 -5.46721C147.56 -1.93132 143.542 1.76826 138.386 5.63734C136.931 6.72958 135.441 8.02985 133.919 9.55226L127.042 16.4344C124.701 18.7762 121.48 22.3934 117.343 27.3615L117.274 27.4443L117.201 27.524C114.851 30.1105 112.087 33.2475 108.906 36.9388C118.896 35.8557 129.002 34.1477 139.223 31.812C153.795 28.1623 166.875 22.9135 178.5 16.095L178.578 16.0491L178.658 16.0061C184.139 13.0528 188.845 10.6952 192.754 8.95706L192.84 8.91873L192.928 8.88367C197.494 7.0558 201.89 6.02304 206.04 6.02304C210.687 6.02304 215.2 7.30324 219.525 9.67135C223.463 11.435 228.353 13.9996 234.158 17.3186L234.224 17.3561L234.288 17.3956C244.589 23.7057 252.563 29.2386 258.073 33.9798C260.823 36.3469 263.094 38.6301 264.745 40.8226C266.293 42.8775 267.639 45.2992 267.905 47.9563ZM160.945 59.8957C160.949 59.8781 160.952 59.8689 160.952 59.8688C160.953 59.8687 160.951 59.8774 160.945 59.8957Z" fill="black"/>
</svg>
