<svg width="115" height="470" viewBox="0 0 115 470" fill="none" xmlns="http://www.w3.org/2000/svg">
<path d="M114.099 69.7156C114.775 83.3105 112.24 93.3067 106.496 99.7043C101.09 105.702 93.9936 105.902 85.2081 100.304C82.167 98.7046 79.2948 96.9053 76.5916 94.9061C73.8883 92.9068 70.8472 90.3078 67.4682 87.1091C64.0891 83.9103 60.3722 79.9118 56.3173 75.1136C52.2625 70.3154 47.1939 64.3177 41.1117 57.1204C30.2987 43.9254 25.737 34.7289 27.4265 29.5309C29.1161 23.933 40.4358 21.9337 61.3859 23.5331C78.9569 25.1325 91.9662 29.131 100.414 35.5286C108.861 41.5263 113.423 52.922 114.099 69.7156ZM100.583 163.48C102.61 174.676 102.948 184.072 101.596 191.669C100.245 199.267 97.7106 204.665 93.9936 207.863C90.2767 210.662 85.546 211.262 79.8017 209.663C74.0573 208.063 67.8061 203.865 61.048 197.067C52.2625 187.871 45.5044 180.474 40.7738 174.876C36.381 169.278 32.3262 163.28 28.6092 156.883C24.5544 150.085 21.6822 144.687 19.9927 140.689C18.3031 136.69 17.9652 133.691 18.9789 131.692C20.3306 129.693 23.2027 128.693 27.5955 128.693C32.3261 128.293 38.7463 128.293 46.856 128.693C64.7649 129.493 77.6053 132.692 85.3771 138.29C93.4868 143.488 98.5553 151.885 100.583 163.48ZM106.496 259.644C102.779 271.639 98.8932 285.034 94.8384 299.828C90.7835 314.623 86.8977 329.817 83.1807 345.411C79.8017 360.605 76.7605 375.4 74.0573 389.794C71.692 403.789 70.1714 416.184 69.4956 426.98C68.8198 438.176 67.2992 446.973 64.9339 453.37C62.5686 460.168 59.1895 463.367 54.7968 462.967C50.7419 462.967 45.5044 459.168 39.0842 451.571C32.6641 443.974 25.0612 431.778 16.2757 414.985C10.5313 403.789 6.30754 394.593 3.60431 387.395C0.901077 379.798 -0.281587 373.601 0.0563175 368.802C0.732124 364.004 2.75955 360.406 6.13859 358.006C9.85553 355.607 14.9241 353.608 21.3443 352.009C29.454 350.009 38.4084 339.613 48.2076 320.821C57.331 302.827 65.2718 287.033 72.0299 273.438C79.1259 259.844 84.8702 248.448 89.263 239.251C96.6969 223.657 102.441 213.861 106.496 209.863C110.551 205.864 113.085 205.664 114.099 209.263C115.451 212.861 115.282 219.459 113.592 229.055C112.24 238.252 109.875 248.448 106.496 259.644Z" fill="black"/>
</svg>
