<?xml version="1.0" encoding="UTF-8"?>
<svg width="800px" height="470px" viewBox="0 0 800 470" version="1.1" xmlns="http://www.w3.org/2000/svg" xmlns:xlink="http://www.w3.org/1999/xlink">
    <title>lo</title>
    <g id="lo" stroke="none" stroke-width="1" fill="none" fill-rule="evenodd">
        <path d="M723.681174,70.8535319 C726.526044,70.0830622 728.881819,70.5629706 731.07571,71.6287672 L731.349127,71.7649952 L731.61057,71.9014706 C732.666522,72.4646452 733.609873,73.1445373 734.588524,73.9749086 C735.40927,74.671299 736.296483,75.5151939 737.274311,76.5226395 L737.939885,77.2186757 L738.633899,77.9642279 C738.752026,78.0926716 738.871405,78.2232226 738.992067,78.3559027 L739.357941,78.7603527 C739.555284,78.9796223 739.748095,79.1907205 739.936215,79.3935818 L740.486346,79.9773899 C741.289957,80.8158401 741.99537,81.4861703 742.588117,81.9824233 L742.882027,82.2213312 L743.062769,82.359 L743.110851,82.3747754 C745.802289,83.2712392 747.868683,85.0196933 749.77002,87.3939673 L750.028313,87.7215898 L750.274164,88.0427233 C751.799563,90.062847 753.30835,92.6623227 754.907167,95.9294714 C756.513854,99.2127007 757.630291,101.976339 758.264495,104.386317 C759.011505,107.224952 759.263803,109.83353 758.57249,112.329824 L758.46166,112.703441 L758.398769,112.889 L758.372718,113.862073 L758.327718,116.202076 L758.265654,121.765429 L758.211688,133.301334 L758.200749,141.277053 L758.166909,210.489321 L758.04198,309.793757 L757.954392,344.479672 L757.91378,354.049891 L757.882121,358.865116 L757.865948,360.446374 L757.855048,361.178431 L757.84406,361.644623 L757.80482,362.712441 L757.740029,364.219098 L757.667784,365.613527 L757.615293,366.481828 L757.559209,367.301796 C757.549556,367.434463 757.539748,367.565143 757.529784,367.693848 L757.468101,368.442475 C757.457501,368.56333 757.44674,368.682236 757.435815,368.799205 L757.368281,369.477883 C757.356691,369.587157 757.344934,369.694521 757.333005,369.799986 L757.296706,370.110702 C757.134306,371.456301 756.935448,372.572474 756.625973,373.628329 C756.535754,373.936136 756.437661,374.237549 756.327082,374.536292 L756.151275,374.98287 L756.004769,375.316 L755.946569,376.076394 L755.903768,376.714677 L755.828764,378.018029 L755.742531,379.848542 L755.677646,381.503531 L755.601761,383.808893 L755.5185,386.91987 L755.455746,389.797238 L755.399134,392.931568 L755.364785,395.365042 L755.284872,400.016362 L755.223207,402.958112 L755.117972,407.133139 L755.039233,409.758731 L754.931046,412.864015 L754.860881,414.633271 L754.761145,416.883096 L754.654288,419.008544 L754.540247,421.010052 L754.449965,422.430112 L754.323205,424.215784 L754.223313,425.474471 L754.11926,426.664306 L754.011019,427.785475 L753.898564,428.838163 L753.78187,429.822555 C753.768667,429.928144 753.755386,430.032472 753.742025,430.13554 C752.772914,437.611537 750.90248,443.942238 748.004435,449.128214 C747.314167,450.363429 746.492353,451.670766 745.53719,453.055164 L744.948075,453.89509 C744.544645,454.461259 744.119822,455.039915 743.67349,455.631375 L742.987845,456.528209 L742.269852,457.444485 L741.519422,458.380443 C740.880524,459.168673 740.207749,459.977651 739.500871,460.807993 L738.636234,461.8147 L737.738772,462.842153 L736.808397,463.890591 L735.845025,464.960251 C735.681708,465.14031 735.517013,465.321262 735.350937,465.503114 L734.337906,466.605051 L733.697297,467.294839 L733.571068,467.421068 C716.972033,484.020103 698.678266,484.545059 684.040264,468.108014 L683.743769,467.771 L682.222849,466.123722 L681.201249,465.029674 L680.195443,463.961936 L679.205508,462.920542 L678.231518,461.905527 L677.273547,460.916926 L675.866792,459.483626 L674.496504,458.109953 L673.603363,457.227353 L672.726617,456.371341 L671.866341,455.54195 L670.606971,454.347855 L669.788197,453.58517 C669.653127,453.460283 669.518754,453.336511 669.38508,453.213854 L668.591432,452.491296 L667.81463,451.795533 L667.054747,451.126599 L666.311859,450.48453 L665.58604,449.869359 C665.466497,449.769074 665.347668,449.669911 665.229555,449.571871 L664.529482,448.997114 C664.414239,448.903568 664.299715,448.811148 664.185912,448.719852 L663.511752,448.185585 C663.400838,448.098793 663.290647,448.013127 663.181181,447.928589 L662.533104,447.434891 L661.902509,446.968282 C661.695233,446.817264 661.490883,446.670768 661.289471,446.528797 L660.694065,446.116471 L660.402998,445.920503 C655.822709,442.866977 652.158501,439.107378 649.517725,434.675716 L648.889453,433.595683 C648.836177,433.505256 648.783619,433.416768 648.731799,433.330235 L648.429903,432.834632 C648.381118,432.755985 648.333111,432.679326 648.285903,432.60467 L648.012407,432.180913 L647.759056,431.806021 L647.526819,431.480769 L647.439769,431.365 L647.315867,431.284056 C644.840568,429.617602 643.003398,427.209124 642.100954,424.298856 L641.993038,423.932477 L641.898575,423.575356 C641.231376,420.906562 641.231376,418.183094 642.113167,415.537722 C643.82668,410.397183 648.405319,407.65 653.35,407.65 C657.028256,407.65 660.193903,409.065998 663.918432,411.619313 L664.318379,411.894184 L664.552719,412.006553 L664.8381,412.132046 L665.183194,412.273594 L665.68614,412.466433 C665.774884,412.499324 665.866076,412.532583 665.9597,412.5662 L666.550495,412.772105 L667.198862,412.986065 L667.904005,413.207558 L668.66513,413.436059 L669.465949,413.666682 L670.297865,413.89734 C670.440167,413.936097 670.584293,413.97501 670.730239,414.014078 L671.627747,414.250344 L672.568841,414.490288 L673.553405,414.733864 L674.581326,414.981024 L676.204251,415.358382 L677.340062,415.614295 L679.124284,416.004561 L681.004771,416.402358 L682.981134,416.807526 L683.789041,416.969769 L685.962357,417.472445 L687.382323,417.81368 L688.706934,418.144097 L689.538328,418.358924 L690.329284,418.569784 C690.457783,418.604615 690.584629,418.639295 690.70984,418.673831 L691.792986,418.980946 L692.467285,419.181921 L693.104253,419.380274 C693.207346,419.413133 693.308916,419.445897 693.408979,419.478572 L693.991404,419.673623 L694.538438,419.866893 L694.798926,419.962965 L694.981769,420.032 L695.038539,420.023364 C695.306761,419.97861 695.614989,419.917145 695.960794,419.838349 L696.507382,419.707081 L697.108516,419.549352 C697.213149,419.520833 697.31998,419.491192 697.428969,419.460419 L698.076521,419.271737 C699.932126,418.715056 701.45819,418.140017 702.640009,417.569484 C702.970855,417.409765 703.261311,417.257115 703.511531,417.114598 L703.750769,416.972 L703.887184,416.593881 L704.03393,416.159918 L704.110908,415.922098 C704.171965,415.730785 704.233619,415.531393 704.295841,415.324 L704.48418,414.677893 L704.675756,413.984245 L704.870394,413.243523 L705.067925,412.456194 L705.268175,411.622724 L705.470974,410.743581 L705.676149,409.819231 L705.883529,408.850142 L706.092942,407.836781 L706.304216,406.779613 L706.51718,405.679107 C706.612533,405.164203 706.704168,404.633095 706.792057,404.085842 L706.96283,402.969829 C707.239099,401.073989 707.473524,398.999202 707.665028,396.747645 L707.774771,395.375516 L707.874161,393.961067 C707.90556,393.482542 707.935225,392.996981 707.963148,392.504401 L708.041678,391.005625 C708.053892,390.752325 708.065668,390.497275 708.077005,390.240477 L708.139754,388.67873 C708.168487,387.887385 708.19325,387.080346 708.214014,386.257672 L708.250202,384.591495 C708.255342,384.31033 708.260036,384.027432 708.264282,383.742804 L708.287778,381.072339 L708.32182,361.781806 L708.332783,336.005566 L708.317875,276.717383 L708.269861,224.417665 L708.172902,174.693509 L708.111829,159.731295 L708.100964,158.038875 L706.940973,74.5194927 L719.574689,71.3610637 L720.991891,71.2300997 L721.580842,71.1702856 L722.352308,71.0833271 L722.985786,71.0005051 L723.388769,70.937 L723.681174,70.8535319 Z M753.755695,45.8963606 C757.315498,45.4205939 760.22335,45.4205939 763.572002,46.7632336 C764.924304,47.3054381 766.018172,47.9917831 766.832405,48.7707549 L767.030125,48.9673978 L767.121769,49.0663883 L767.915554,49.3453728 L768.986846,49.7286804 L770.099401,50.1331985 L771.253384,50.5589694 C771.449175,50.6317047 771.6467,50.7053272 771.845961,50.7798379 L773.686288,51.4744384 L774.965537,51.9642208 C775.814649,52.2910537 776.527732,52.5077435 777.081347,52.6261282 L777.261738,52.6629436 L777.454465,52.698897 L778.440195,52.6995903 L779.411161,52.8163828 C783.644209,53.3255539 786.578964,54.8552482 790.382213,57.6000863 C793.238227,59.6612968 795.466232,61.8524006 797.029137,64.1668919 L797.283456,64.5537818 L797.550498,64.9713555 L797.711871,65.4080962 C798.859056,68.5128464 797.270737,71.6595619 793.727415,75.5157264 C790.405513,79.1309231 786.913984,81.5530242 782.144305,82.5816212 L781.774867,82.6579921 L781.534769,82.702826 L781.431067,82.7297452 C777.550993,83.6724945 773.263791,83.6685593 768.588535,82.9775554 L768.103504,82.903632 L767.541292,82.8134159 L767.35753,82.7900775 L767.12799,82.7663272 L766.853618,82.7423575 L766.360075,82.7064121 L765.553946,82.6595114 L764.585539,82.6151942 L764.042848,82.5944851 L762.845227,82.5569276 L761.85253,82.5328947 L760.782401,82.5131274 L759.370436,82.4951646 L757.860904,82.4841454 L756.254346,82.4800805 L754.551302,82.4829803 L752.752314,82.4928553 L750.857923,82.5097161 L748.86867,82.5335731 L746.785096,82.5644369 L744.607741,82.6023179 L743.218652,82.6278757 L741.826191,82.6446033 L739.185396,82.6662871 L735.670632,82.6872493 L727.489768,82.7221521 L716.836669,82.7547203 L701.801245,82.7889806 L671.344031,82.8376246 L643.290105,82.8688465 L573.094735,82.9157709 L498.814008,82.9350005 L426.525114,82.9314145 L354.498499,82.9050487 L284.104507,82.847828 L255.377765,82.8092796 L227.929289,82.7557918 L212.119943,82.7091342 L205.0309,82.678957 L200.572053,82.6526081 L197.988579,82.6307657 L197.033356,82.6195957 C184.003057,82.4889835 170.43713,82.7319061 156.336128,83.3492928 L153.37651,83.4840602 L151.718895,83.5644919 L149.2908,83.6894396 L147.711024,83.7755856 L146.162468,83.8639942 L144.645182,83.9546523 L143.159212,84.0475466 L140.989084,84.1910524 C140.751885,84.2072737 140.515996,84.2235869 140.281418,84.2399916 L138.889691,84.3395157 L137.529474,84.4412235 L135.548337,84.5978506 L134.267108,84.7049597 L133.01756,84.8142063 L131.79974,84.9255771 L130.613697,85.0390591 L129.459479,85.154639 L128.337135,85.2723037 L127.246713,85.39204 L126.188261,85.5138346 L125.161828,85.6376746 L124.167462,85.7635465 L123.205212,85.8914374 L122.275126,86.0213339 C122.122795,86.0431497 121.971806,86.0650486 121.82216,86.0870302 L121.107769,86.1940919 L120.278214,86.3444978 C115.57898,87.1816642 111.135501,87.8216683 106.941057,88.2620783 L106.046057,88.3533959 L104.107293,88.5382327 C103.946234,88.5539122 103.787009,88.5696142 103.629626,88.5853358 L102.26318,88.7272775 L101.408227,88.8222528 L100.598598,88.9173389 L99.834734,89.0123923 C99.7112615,89.0282238 99.5897142,89.044048 99.4701012,89.0598618 L98.7757097,89.1545972 L98.1281842,89.2489413 C98.0241933,89.2646248 97.9221734,89.280286 97.8221339,89.2959219 L97.2457338,89.3894102 L96.7173015,89.4821487 C96.6332513,89.4975346 96.551218,89.5128834 96.471211,89.5281919 L95.9141304,89.6373661 L95.1831931,89.7726015 L94.3382058,89.9193667 L93.1194079,90.1194186 L92.0125737,90.2930412 L90.4619374,90.5274567 L87.9741281,90.8889703 L84.6692288,91.35131 L80.3488743,91.9365418 L76.5376466,92.4411286 L75.3750421,92.5934477 L74.7611119,92.6724528 L73.5630304,92.8307355 L72.4048335,92.9892987 L71.2867371,93.1480433 L70.2089568,93.3068699 L69.1717085,93.4656792 L68.1752079,93.6243719 L67.2196707,93.7828488 L66.3053126,93.9410105 L65.4323495,94.0987577 L64.600997,94.2559912 L63.8114708,94.4126116 C63.6833807,94.4386584 63.5570423,94.4646756 63.4324601,94.4906609 L62.7060781,94.6461756 C62.0008429,94.8012762 61.3591564,94.9550849 60.7819893,95.1071548 L60.2263647,95.2586286 L59.9831272,95.3285722 L59.7551164,95.3966019 L59.5457692,95.4608318 L59.4422747,95.6392547 C58.3095026,97.5011083 56.0458325,99.0194958 52.9359088,99.8696701 L52.5994774,99.9581884 L52.278957,100.036288 C49.3127653,100.731721 46.2749052,100.742794 43.0053354,100.334674 C39.2069325,99.8605429 34.6794997,98.7319468 29.122816,96.9446966 L27.9583727,96.5655211 L26.6652888,96.1338631 C16.1372385,92.4930658 8.76876769,88.6846454 4.64770861,84.4610251 L4.39437161,84.1965059 L4.32104427,84.1170871 C0.756196372,80.1864483 1.21904686,75.7325385 7.63761806,72.975194 C7.78344712,72.9125475 7.93303198,72.8499161 8.08638997,72.7872933 L8.55780058,72.5994438 C8.63826135,72.5681376 8.71966973,72.5368319 8.80202788,72.5055258 L9.30759135,72.3176787 L9.83605326,72.1297836 L10.3875175,71.9418009 L10.9620879,71.7536909 L11.5598685,71.565414 C11.6614385,71.5340184 11.7639799,71.5026142 11.867495,71.4712005 L12.5002854,71.2825988 L13.1565457,71.093731 L13.8363797,70.9045575 L14.5398913,70.7150387 L15.2671843,70.5251347 L16.0183627,70.3348061 L16.7935304,70.1440132 L18.001489,69.8568664 L18.8370843,69.6647391 L19.6970324,69.4720086 L20.5814373,69.2786354 L21.4904029,69.0845797 L22.4240329,68.889802 L23.3824314,68.6942625 L24.8666971,68.3994382 L25.8874711,68.2018208 L26.9333771,68.0033028 L28.5495859,67.7037507 L30.2229261,67.4019493 L31.9537483,67.0977647 L33.1397373,66.893585 L34.9671421,66.5851312 L37.4946132,66.1695741 L39.4588697,65.8545188 L40.8012608,65.6427945 L43.5654387,65.2151175 L46.4361701,64.7815384 L49.4142861,64.34174 C69.9446848,61.3420714 89.0056924,59.3209021 106.607284,58.2828058 L107.878769,58.2092349 L110.672342,57.9937116 L115.275666,57.6314201 L119.986575,57.2531576 L123.187613,56.9920529 L126.437462,56.7237648 L131.404625,56.3077891 L134.778241,56.0213932 L139.932921,55.5780961 L143.348868,55.2807204 L144.021417,55.2292378 L144.514831,55.1961797 L145.057569,55.164023 L145.661018,55.1326735 L146.336568,55.1020374 L147.095606,55.0720207 L147.94952,55.0425294 L148.909699,55.0134695 L150.574125,54.9704829 L151.849788,54.9420904 L153.271574,54.9138003 L154.85087,54.8855188 L157.54006,54.842907 L161.783223,54.7852439 L168.272114,54.7107461 L176.243678,54.6321902 L185.875854,54.5481077 L202.489524,54.4183119 L226.515445,54.2480174 L256.614629,54.0485388 L337.948143,53.5379717 L473.252481,52.7056594 L514.146792,52.4400161 L546.998826,52.2149546 L576.634129,51.9989658 L596.793485,51.842153 L609.265798,51.7397752 L620.974937,51.6389409 L634.552031,51.514823 L644.577349,51.4168723 L653.86911,51.3199416 L662.436429,51.2238698 L668.391983,51.1522826 L675.713454,51.0573262 L682.335543,50.9627857 L686.848621,50.8920564 L690.977268,50.8214025 L694.725327,50.7507561 L697.014495,50.703629 L700.136786,50.632844 L702.012334,50.5855617 L703.724427,50.5381821 L705.274206,50.4906849 L706.662809,50.4430501 L707.891374,50.3952576 L710.690481,50.2891037 L714.043985,50.1519993 L716.609613,50.0389492 L719.070308,49.9230514 L721.425356,49.8044396 L723.674041,49.6832474 L725.815647,49.5596086 L727.351151,49.4653543 L729.303646,49.3377554 L731.147095,49.2080775 L732.457689,49.1095351 L733.706239,49.0099549 L735.273938,48.8756642 L736.016001,48.8079063 L737.076608,48.7055508 L738.073965,48.602383 L738.703581,48.5331811 L739.594847,48.4287848 L740.422057,48.3237266 L740.937795,48.253348 L741.424839,48.1827169 L741.8831,48.1118502 L742.31249,48.0407645 L742.734769,47.9657825 L744.468271,47.5915569 L745.363715,47.402229 L746.211464,47.2259869 L747.394603,46.9860194 L748.125003,46.8422114 L749.134142,46.6505946 C750.886535,46.3263081 752.416903,46.0752899 753.755695,45.8963606 Z" id="ä¸" fill="#000000" fill-rule="nonzero"></path>
        <path d="M154.808031,-59.1810315 C159.445765,-61.4547421 165.064558,-61.596849 171.66441,-59.6073522 C178.264263,-57.6178554 184.596553,-53.9230756 190.661282,-48.5230127 C196.369262,-42.8387361 199.758376,-38.2202613 200.828622,-34.6675883 C201.898868,-31.1149154 203.147489,-28.6280444 204.574484,-27.2069752 C206.001479,-25.7859061 205.823104,-24.3648369 204.039361,-22.9437677 C201.542119,-20.6700571 202.79074,-19.3910948 207.785223,-19.106881 C210.995962,-18.8226671 217.417439,-18.6805602 227.049656,-18.6805602 C238.465616,-18.6805602 245.868153,-18.3963464 249.257266,-17.8279187 C252.64638,-17.2594911 255.946306,-16.1226357 259.157045,-14.4173527 C263.43803,-12.1436421 266.91633,-8.80412951 269.591946,-4.3988151 C272.267562,0.006499318 272.713498,3.34601186 270.929754,5.61972253 C269.502759,7.32500553 266.29202,8.60396778 261.297537,9.45660928 C257.016552,10.0250369 254.519311,10.806625 253.805813,11.8013734 C253.092316,12.7961218 253.984187,14.0040306 256.481429,15.4250998 C258.97867,17.1303828 260.138104,20.114628 259.959729,24.3778355 C259.781355,28.641043 258.443547,31.4831814 255.946306,32.9042505 C253.449064,35.1779612 249.257266,37.8779926 243.370912,41.0043448 C237.484557,44.1306969 232.044139,47.2570491 227.049656,50.3834013 L212.601331,60.6150993 C211.174336,61.4677408 210.10409,62.2493288 209.390592,62.9598634 C208.677095,63.670398 208.231159,64.2388256 208.052784,64.6651464 C207.87441,65.0914671 138.405756,72.9073476 137.684091,71.9125991 C136.962425,70.9178507 136.962425,70.9178507 136.078721,70.4204765 C135.195017,69.9231023 133.046357,68.2888728 130.192367,64.0256653 C127.338377,59.7624578 125.197884,56.7782125 123.770889,55.0729295 C121.987145,53.0834327 120.381776,48.7491717 118.954781,42.0701466 C117.527786,35.3911216 117.349411,31.1989675 118.419658,29.4936845 C122.700643,23.2409802 129.12212,21.1093764 137.684091,23.0988733 C147.316307,25.0883701 155.16478,28.5699896 161.229509,33.5437316 C167.294238,38.5174737 170.326603,43.7043762 170.326603,49.104439 C169.969854,52.7992189 170.683351,54.9308226 172.467095,55.4992503 C174.607588,56.9203194 182.545248,49.6728667 196.280075,33.756892 C210.014902,17.8409174 216.882316,7.89343319 216.882316,3.91443953 C216.882316,3.06179803 210.817587,2.20915653 198.688129,1.35651503 C186.558671,0.503873526 173.180593,1.21440811 158.553893,3.48811878 C143.927194,5.76182944 134.116603,8.74607469 129.12212,12.4408545 C123.057392,16.4198482 117.616973,17.8409174 112.800865,16.704062 C107.984756,15.5672067 105.576702,12.4408545 105.576702,7.32500553 C105.576702,4.19865336 105.130766,1.71178232 104.238894,-0.135607599 C103.347022,-1.98299752 104.952392,-3.47512014 109.055003,-4.61197547 C113.157613,-5.74883081 117.349411,-7.16989997 121.630396,-8.87518297 C125.911382,-10.580466 130.192367,-11.4331075 134.473352,-11.4331075 C138.754337,-11.4331075 144.819066,-12.285749 152.667539,-13.991032 C158.732268,-15.1278873 162.299755,-16.3357961 163.370002,-17.6147583 C164.440248,-18.8937206 163.370002,-20.812164 160.159263,-23.3700885 C156.235026,-26.7806545 153.648598,-33.2465192 152.399977,-42.7676826 C151.151357,-52.288846 151.954041,-57.7599623 154.808031,-59.1810315 Z" id="Path" fill="#000000" fill-rule="nonzero"></path>
        <path d="M558.598133,-59.8653219 C559.044947,-59.3329756 559.406372,-58.6591096 559.675403,-57.8943009 L559.740731,-57.7012334 L559.771012,-57.6040427 L560.033286,-57.3301306 L560.387252,-56.9537923 L560.754851,-56.5566291 L561.136139,-56.1385994 C561.20083,-56.0671867 561.266095,-55.9949027 561.331933,-55.9217468 L561.939995,-55.2397753 L562.362672,-54.7588981 C562.643227,-54.4380076 562.878837,-54.2252576 563.061757,-54.1090253 L563.12136,-54.0728793 L563.185039,-54.0375796 L563.510734,-54.0368989 L563.831551,-53.92223 C565.230193,-53.4223164 566.199865,-51.9204348 567.456497,-49.2255029 C568.400153,-47.201769 569.136309,-45.0505034 569.652708,-42.7780937 L569.736738,-42.3982382 L569.824971,-41.9882567 L569.87829,-41.5594568 C570.257332,-38.5111566 569.732535,-35.4216541 568.561786,-31.6356016 C567.464196,-28.0861358 566.31056,-25.7080729 564.734609,-24.6981777 L564.612543,-24.6231953 L564.533213,-24.5791767 L564.498948,-24.5527468 C563.216933,-23.6271384 561.800398,-23.6310021 560.255646,-24.3094423 L560.095387,-24.3820217 L559.909626,-24.4705974 L559.848909,-24.4935115 L559.773067,-24.5168299 L559.682412,-24.5403638 L559.51934,-24.5756557 L559.252987,-24.6217037 L558.933016,-24.6652151 L558.753705,-24.6855477 L558.357999,-24.7224223 L558.030002,-24.7460182 L557.67642,-24.7654262 L557.209893,-24.7830624 L556.711128,-24.7938811 L556.180305,-24.7978722 L555.617602,-24.7950251 L555.023199,-24.7853296 L554.397273,-24.7687754 L553.740003,-24.7453522 L553.051569,-24.7150496 L552.332149,-24.6778573 L551.87318,-24.6527642 L551.413097,-24.6363407 L550.540552,-24.6150511 L549.379238,-24.5944701 L546.676198,-24.5602019 L543.156306,-24.5282259 L538.18845,-24.4945884 L528.125079,-24.4468289 L518.855779,-24.4161747 L495.662519,-24.3701035 L478,-24.357 L478,14.4407537 L477.943835,17.3357768 L477.866759,20.7597157 L477.816772,22.7105274 L477.745718,25.191223 L477.669589,27.5347773 L477.588343,29.7416745 L477.524024,31.3074572 L477.433717,33.2763689 L477.362552,34.6642183 L477.288421,35.976151 L477.211307,37.2123709 L477.131192,38.3730825 L477.048055,39.4584897 C477.04492,39.497298 476.604664,40.5983587 475.724476,42.3737821 L475.521636,42.7792636 C473.700908,46.3869092 470.247618,52.3893198 465.141688,58.0155553 C454.384205,72.3634263 445.02873,78.7284986 420.623453,62.120908 C414.338123,56.6792163 409.70539,52.4735761 406.725254,49.5039874 L406.300934,49.0782371 C404.238319,46.9936041 403.060497,45.5707476 402.767468,44.8096677 L402.31987,43.6188059 C402.281914,43.5190991 402.244471,43.4215305 402.207553,43.326118 L401.992474,42.7796571 C401.957718,42.6929398 401.923516,42.6084141 401.889885,42.5260978 L401.695038,42.0588554 L401.514544,41.6454932 L401.349092,41.2868656 L401.287076,41.1592163 L401.198805,41.0699666 C399.435335,39.2325056 398.126486,36.5768767 397.48356,33.3679659 L397.406678,32.9639895 L397.33938,32.5702226 C396.864049,29.6275642 396.864049,26.624623 397.492261,23.7077907 C398.713014,18.0397448 401.974959,15.0106539 405.497684,15.0106539 C408.118172,15.0106539 410.373464,16.5719569 413.02692,19.3872859 L413.311853,19.6903635 L413.478803,19.8142632 L413.682116,19.9526338 L413.92797,20.1087071 L414.286282,20.3213345 C414.349506,20.3576008 414.414473,20.3942733 414.481174,20.43134 L414.902072,20.6583739 L415.363986,20.8942903 L415.866349,21.1385118 L416.408595,21.390461 L416.97912,21.6447499 L417.571799,21.8990774 C417.673179,21.9418113 417.775858,21.9847175 417.879834,22.0277949 L418.519243,22.2883051 L419.189704,22.5528718 L419.891134,22.8214429 L420.623453,23.093966 L421.779668,23.5100466 L422.58885,23.7922214 L423.859979,24.2225346 L425.199688,24.6611523 L426.607702,25.1078983 L427.183277,25.28679 L428.731606,25.8410486 L429.743228,26.2173007 L430.686917,26.5816233 L431.279224,26.8184955 L431.842722,27.050993 C431.934269,27.0893987 432.024637,27.1276375 432.113841,27.1657172 L432.885503,27.5043474 L433.365892,27.725946 L433.819685,27.9446535 C433.893131,27.9808844 433.965493,28.0170104 434.036781,28.053039 L434.451716,28.2681053 L434.841437,28.4812077 L435.027016,28.5871384 L435.157278,28.6632577 L435.197723,28.653736 C435.388811,28.6043891 435.608401,28.5366166 435.854762,28.4497352 L436.244166,28.3049961 L436.67243,28.1310814 C436.746974,28.0996358 436.823082,28.0669532 436.900729,28.033023 L437.362063,27.824979 C438.684046,27.2111724 439.771255,26.5771252 440.613215,25.9480453 C440.848919,25.7719368 441.055847,25.6036221 441.234111,25.4464805 L441.40455,25.2892497 L441.501736,24.872329 L441.606282,24.3938344 L441.661123,24.1316102 C441.704622,23.9206653 441.748546,23.7008121 441.792874,23.4721365 L441.927052,22.7597283 L442.063536,21.9949004 L442.202201,21.1781676 L442.342927,20.3100448 L442.485591,19.391047 L442.63007,18.4216888 L442.776243,17.4024852 L442.923986,16.3339511 L443.073177,15.2166014 L443.073,-24.36 L423.436113,-24.3806306 L400.177227,-24.436811 L390.685621,-24.4746586 L381.616367,-24.5271738 L376.3928,-24.5729831 L374.050508,-24.6026116 L372.57726,-24.6284814 L371.723654,-24.6499267 L371.408039,-24.6608936 C367.102696,-24.7891311 362.620377,-24.5506252 357.961264,-23.9444638 L356.983376,-23.8121466 L356.435683,-23.7331773 L355.633416,-23.6105014 L355.111442,-23.5259218 L354.599784,-23.4391206 L354.098457,-23.3501108 L353.607478,-23.2589054 L352.890445,-23.1180089 C352.812072,-23.1020825 352.734132,-23.0860659 352.656625,-23.0699595 L352.196784,-22.9722449 L351.747355,-22.8723863 L351.092767,-22.718607 L350.669437,-22.6134453 L350.256573,-22.5061851 L349.854193,-22.3968391 L349.462312,-22.2854205 L349.080947,-22.171942 L348.710113,-22.0564167 L348.349827,-21.9388574 L348.000104,-21.8192772 L347.66096,-21.6976889 L347.332411,-21.5741056 L347.014474,-21.44854 L346.707164,-21.3210052 C346.656833,-21.299586 346.606944,-21.2780853 346.5575,-21.2565034 L346.321458,-21.1513883 L346.047364,-21.003717 C344.49469,-20.1817719 343.02652,-19.5534042 341.640633,-19.1210016 L341.344916,-19.0313443 L340.704329,-18.8498682 C340.651113,-18.8344738 340.598504,-18.8190573 340.546503,-18.8036215 L340.095015,-18.6642606 L339.81253,-18.5710121 L339.545021,-18.4776549 L339.292632,-18.3843297 C339.251836,-18.3687861 339.211675,-18.3532496 339.172154,-18.3377232 L338.94272,-18.2447103 L338.728771,-18.1520815 C338.694411,-18.1366833 338.660703,-18.1213068 338.627649,-18.1059552 L338.4372,-18.0141667 L338.262601,-17.9231144 C338.23483,-17.9080081 338.207725,-17.8929385 338.18129,-17.8779083 L337.997225,-17.7707191 L337.755716,-17.6379425 L337.476524,-17.4938457 L337.07382,-17.2974312 L336.708111,-17.1269653 L336.195765,-16.8968119 L335.373768,-16.5418713 L334.281796,-16.0879377 L332.854307,-15.5133466 L331.595039,-15.0179341 L331.210903,-14.8683844 L331.008054,-14.7908157 L330.612196,-14.6354109 L330.229516,-14.4797307 L329.860085,-14.3238724 L329.503976,-14.1679335 L329.161259,-14.0120117 L328.832005,-13.8562043 L328.516286,-13.7006088 L328.214172,-13.5453228 L327.925737,-13.3904437 L327.651049,-13.236069 L327.390182,-13.0822962 C327.34786,-13.0567229 327.306116,-13.0311789 327.264953,-13.0056659 L327.024949,-12.8529788 C326.791932,-12.7006982 326.579912,-12.549686 326.389211,-12.400381 L326.205627,-12.2516613 L326.125258,-12.1829894 L326.049921,-12.1161967 L325.980751,-12.0531345 L325.946555,-11.8779558 C325.572276,-10.049954 324.824337,-8.55917354 323.796786,-7.72445699 L323.685626,-7.63754805 L323.579723,-7.56086878 C322.599663,-6.87807931 321.595923,-6.86720765 320.515625,-7.26790752 C319.260594,-7.73341817 317.764684,-8.84149433 315.9287,-10.5962491 L315.543956,-10.9685305 L315.116708,-11.3923402 C311.638134,-14.9669412 309.203517,-18.7061176 307.841877,-22.8529448 L307.758172,-23.1126545 L307.733944,-23.1906293 C306.556082,-27.049802 306.709013,-31.4227316 308.829773,-34.1299426 C308.877957,-34.19145 308.927381,-34.2529427 308.978052,-34.3144269 L309.133811,-34.4988609 C309.160396,-34.5295979 309.187294,-34.5603344 309.214506,-34.5910713 L309.381549,-34.775503 L309.556158,-34.9599818 L309.738368,-35.1445467 L309.928212,-35.3292365 L310.125724,-35.5140902 L310.227367,-35.6065907 L310.227367,-35.6065907 L310.436448,-35.7917633 L310.653283,-35.9771971 L310.877907,-36.1629311 L311.110354,-36.3490042 L311.350659,-36.5354553 L311.598856,-36.7223234 L311.854979,-36.9096474 L312.254101,-37.1915733 L312.53019,-37.3802074 L312.814326,-37.5694337 L313.106542,-37.759291 L313.406873,-37.9498184 L313.715354,-38.1410547 L314.032019,-38.333039 L314.522435,-38.6225029 L314.859709,-38.8165272 L315.205287,-39.0114357 L315.739299,-39.3055415 L316.292187,-39.6018556 L316.864068,-39.9005095 L317.255931,-40.1009769 L317.859724,-40.4038224 L318.694826,-40.8118239 L319.343836,-41.121151 L319.787376,-41.3290258 L320.700688,-41.7489268 L321.649207,-42.1746226 L322.633207,-42.6064247 C329.416658,-45.5515539 335.714607,-47.5359746 341.530351,-48.5551964 L341.950463,-48.6274297 L342.873487,-48.8390344 L344.394472,-49.1947387 L345.951004,-49.5661238 L347.008659,-49.8224811 L348.082442,-50.0858912 L349.723643,-50.4943038 L350.83832,-50.7754924 L352.541478,-51.2107296 L353.670142,-51.5026985 L353.892359,-51.553245 L354.055388,-51.585702 L354.234714,-51.6172741 L354.4341,-51.6480536 L354.657308,-51.6781326 L354.908102,-51.7076036 L355.190244,-51.7365587 L355.507497,-51.7650903 L356.05744,-51.8072953 L356.478931,-51.8351716 L356.948704,-51.8629473 L357.470519,-51.8907146 L358.359055,-51.9325517 L359.761039,-51.9891663 L361.905034,-52.0623096 L364.538919,-52.1394372 L367.721487,-52.2219909 L373.210812,-52.3494268 L381.149219,-52.5166251 L391.094294,-52.7124768 L417.967709,-53.2137609 L462.673629,-54.0309402 L476.185523,-54.2917536 L487.040167,-54.5127231 L496.831971,-54.7247849 L503.492825,-54.8787465 L507.613803,-54.9792628 L511.482621,-55.0782638 L515.96863,-55.200125 L519.281097,-55.2962948 L522.351189,-55.3914631 L525.181917,-55.4857882 L527.149693,-55.5560738 L529.568781,-55.6493037 L531.756786,-55.7421253 L533.247952,-55.8115686 L534.612099,-55.8809379 L535.850496,-55.9502998 L536.60686,-55.99657 L537.638496,-56.066068 L538.258196,-56.1124906 L538.823889,-56.1590088 L539.335952,-56.2056424 L539.79476,-56.2524111 L540.200691,-56.2993347 L541.125544,-56.4035585 L542.233576,-56.5381701 L543.081285,-56.6491647 L543.894323,-56.7629553 L544.672455,-56.8794105 L545.415443,-56.9983992 L546.123052,-57.1197901 L546.630397,-57.2123307 L547.275522,-57.3376096 L547.884616,-57.4649297 L548.317649,-57.5616804 L548.730183,-57.6594501 L549.248166,-57.7912991 L549.493351,-57.857825 L549.843787,-57.9583195 L550.173324,-58.0596115 L550.381355,-58.1275553 L550.675838,-58.2300534 L550.949157,-58.3332014 L551.119562,-58.4023005 L551.280486,-58.4716473 L551.4319,-58.5412256 L551.573775,-58.6110189 L551.7133,-58.6846375 L552.286067,-59.052059 L552.581931,-59.2379445 L552.862036,-59.4109822 L553.252957,-59.6465867 L553.494288,-59.78778 L553.827718,-59.9759129 C554.406726,-60.2943033 554.912375,-60.5407575 555.354726,-60.7164335 C556.53092,-61.18355 557.491704,-61.18355 558.598133,-59.8653219 Z" id="Combined-Shape" fill="#000000" fill-rule="nonzero"></path>
    </g>
</svg>