<?xml version="1.0" encoding="UTF-8"?>
<svg width="645px" height="350px" viewBox="0 0 645 350" version="1.1" xmlns="http://www.w3.org/2000/svg" xmlns:xlink="http://www.w3.org/1999/xlink">
    <title>lo</title>
    <g id="lo" stroke="none" stroke-width="1" fill="none" fill-rule="evenodd">
        <path d="M748.135466,-243.087857 C749.384167,-242.190755 750.394234,-241.055166 751.146087,-239.766322 L751.32866,-239.440967 L751.413284,-239.277183 L752.146256,-238.81559 L753.135475,-238.181391 L754.162797,-237.512097 L755.228373,-236.80764 C755.409165,-236.687296 755.591557,-236.565484 755.775553,-236.442203 L757.474891,-235.292955 L758.656136,-234.482587 C759.440197,-233.941828 760.098651,-233.583304 760.609852,-233.387432 L760.776424,-233.326519 L760.954386,-233.267032 L761.864599,-233.265885 L762.761179,-233.072647 C766.66993,-232.2302 769.379852,-229.699251 772.891732,-225.157792 C775.528945,-221.747425 777.586262,-218.122145 779.029431,-214.292714 L779.264267,-213.652587 L779.510851,-212.961692 L779.659861,-212.239085 C780.719159,-207.102134 779.252522,-201.89575 775.980657,-195.515551 C772.913247,-189.534044 769.689206,-185.526567 765.284935,-183.824707 L764.943799,-183.698348 L764.722096,-183.624168 L764.626338,-183.579629 C761.043519,-182.019807 757.084762,-182.026318 752.76768,-183.169616 L752.319808,-183.291925 L751.800666,-183.441192 L751.630982,-183.479806 L751.419027,-183.519102 L751.165676,-183.558761 L750.709943,-183.618235 L749.965572,-183.695834 L749.071355,-183.769159 L748.57024,-183.803423 L747.46437,-183.865564 L746.547724,-183.905327 L745.559578,-183.938033 L744.255785,-183.967753 L742.861898,-183.985985 L741.378419,-183.992711 L739.805847,-183.987913 L738.14468,-183.971574 L736.39542,-183.943677 L734.558564,-183.904205 L732.634614,-183.853139 L730.624067,-183.790463 L729.341397,-183.748177 L728.055613,-183.7205 L725.617131,-183.684623 L722.371635,-183.64994 L716.465154,-183.605 L716.708119,-183.525208 C717.237497,-183.342263 717.752825,-183.112289 718.258818,-182.845674 L718.511059,-182.709361 L718.752253,-182.5728 C719.726421,-182.009274 720.596709,-181.328958 721.499564,-180.498069 C722.256742,-179.801244 723.07524,-178.956823 723.977335,-177.948749 L724.591361,-177.252278 L725.231622,-176.506261 C725.340601,-176.377737 725.450733,-176.247105 725.56205,-176.114342 L725.899588,-175.70964 C726.081646,-175.490233 726.259524,-175.279003 726.433074,-175.076016 L726.940597,-174.491843 C727.681968,-173.65287 728.332746,-172.982122 728.879585,-172.485559 L729.150732,-172.246502 L729.317475,-172.108748 L729.361833,-172.092962 C731.844818,-171.195939 733.75117,-169.446395 735.505247,-167.07064 L735.743535,-166.742813 L735.970345,-166.421479 C737.377601,-164.400095 738.769532,-161.798998 740.24452,-158.529811 C741.726769,-155.244534 742.756737,-152.479172 743.341822,-150.067691 C744.030975,-147.227285 744.263734,-144.61708 743.625963,-142.119229 L743.523716,-141.745379 L743.465697,-141.559704 L743.441663,-140.586024 L743.400149,-138.244562 L743.342892,-132.677738 L743.293104,-121.134638 L743.283013,-113.153944 L743.251794,-43.8985038 L743.136541,155.530252 L743.055737,190.237803 L743.01827,199.813992 L742.989063,204.632221 L742.974142,206.214464 L742.964087,206.946978 L742.95395,207.413461 L742.917749,208.481945 L742.857976,209.989542 L742.791326,211.384841 L742.742901,212.253683 L742.69116,213.074162 C742.682255,213.206913 742.673207,213.337674 742.664015,213.466459 L742.607109,214.215553 C742.59733,214.336484 742.587402,214.455463 742.577323,214.572505 L742.51502,215.251607 C742.504328,215.360949 742.493481,215.46838 742.482477,215.573911 L742.448989,215.88482 C742.299167,217.231259 742.11571,218.348128 741.830204,219.404642 C741.746972,219.712641 741.656477,220.014242 741.554463,220.313171 L741.392272,220.760028 L741.257113,221.093366 L741.20342,221.854234 L741.163934,222.492915 L741.094739,223.79708 L741.015185,225.628735 L740.955326,227.284756 L740.885318,229.591556 L740.808506,232.704473 L740.750611,235.583637 L740.698385,238.719921 L740.666696,241.154913 L740.592972,245.809135 L740.536083,248.75272 L740.438998,252.930351 L740.366357,255.557581 L740.26655,258.664802 L740.201819,260.435161 L740.109808,262.68639 L740.011226,264.813163 L739.906018,266.81592 L739.822728,268.236866 L739.705786,270.023651 L739.613631,271.283123 L739.517637,272.473701 L739.417779,273.595569 L739.314034,274.648914 L739.206378,275.633919 C739.194198,275.739575 739.181945,275.843968 739.169619,275.9471 C738.275566,283.42776 736.549998,289.76241 733.876407,294.951621 C733.239601,296.187606 732.481436,297.495759 731.600251,298.881021 L731.056764,299.721471 C730.684579,300.287992 730.292659,300.86701 729.880895,301.458839 L729.248354,302.356232 L728.585969,303.27308 L727.89366,304.209621 C727.304246,304.998343 726.683577,305.807825 726.031448,306.638686 L725.233777,307.64602 L724.405823,308.674115 L723.547507,309.723207 L722.658748,310.793534 C722.50808,310.973705 722.35614,311.15477 722.202927,311.336735 L721.268355,312.43936 L720.677362,313.129578 L720.560909,313.255885 C705.247476,329.865274 688.370567,330.390558 674.866283,313.94326 L674.592752,313.606036 L673.189628,311.957731 L672.247151,310.863 L671.319246,309.794596 L670.405981,308.752552 L669.507426,307.736904 L668.623651,306.747687 C659.847037,284.261801 655.181214,272.048164 654.62618,270.106776 L654.526623,269.740167 L654.439476,269.382824 C654.380723,269.127926 654.327579,268.872529 654.280215,268.616749 C652.271386,286.134816 649.327477,302.595751 645.450385,318 C639.857279,340.666667 630.90831,359 618.603476,373 C606.298643,387 595.112431,391.333333 585.044841,386 C578.333114,383.333333 530.008599,339.770932 525.534114,333.104265 C508.195485,303.104265 515.606351,280.666667 521.758767,280 C527.351873,280 539.656706,288.666667 558.673267,306 C565.944304,312 587.561738,304 592.595534,300 C595.392087,297.333333 599.027606,267 603.50209,249 C606.857954,237 608.815541,191 609.374852,171 C609.934162,151 610.493473,140.833333 609.374852,118.5 C608.25623,96.1666667 604.900367,78.3333333 599.307261,65 C595.392087,53.6666667 403.828207,47.3333333 360.201981,46 C320.490929,44.6666667 288.88988,48.5 272.949528,51 C257.009176,53.5 159.030194,46 67.4028837,93 C61.2504672,102.333333 49.2252894,243.666667 51.4625317,247 C55.9370165,253 57.1954654,260.333333 55.2378783,269 C53.2802912,277.666667 49.5049447,285.333333 43.9118387,292 C36.6408009,300 31.3273503,304 27.9714867,304 C24.0563125,304 19.861483,298.5 15.3869983,287.5 C10.9125135,276.5 8.11596052,265 6.99733933,253 C5.31940754,241 3.36182045,230.833333 1.12457807,222.5 C-1.11266432,214.166667 -0.413526074,202.166667 3.2219928,186.5 C6.85751168,170.833333 8.67527112,157.5 8.67527112,146.5 C8.67527112,135.5 9.79389231,122.666667 12.0311347,108 C17.0649301,72.6666667 31.3273503,86.6666667 33.0052821,80 C34.6832138,74 41.5347687,66.5 53.5599465,57.5 C65.5851243,48.5 77.4704745,41 89.215997,35 C100.402209,30.3333333 225.408127,26.3333333 229.323301,23 C232.679165,19.6666667 234.357097,17.3333333 234.357097,16 C234.357097,14.6666667 232.679165,11.3333333 229.323301,6 C225.408127,-2 220.374332,-12.3333333 214.221915,-25 C210.866052,-33.6666667 208.908465,-40 208.349154,-44 C207.789843,-48 208.349154,-52.3333333 210.027086,-57 C211.196553,-61.1818182 212.390474,-64.6641322 213.608846,-67.4469421 L213.617154,-67.467 L212.670877,-67.25625 C207.706296,-66.16875 202.770031,-65.25 197.86208,-64.5 C186.955524,-62.8333333 180.383624,-61.1666667 178.146382,-59.5 C175.909139,-57.8333333 171.015172,-55.5 163.464479,-52.5 C155.913786,-49.5 121.516184,-21.8333333 110.609627,-21.5 C99.7030707,-21.1666667 90.6142735,-17.6666667 83.3432357,-11 C76.6315086,-5 70.3392644,-1 64.4665031,1 C58.5937418,3 50.6235658,2.33333333 40.5559751,-1 C29.9290738,-3.66666667 14.2683771,-53 28.8104526,-61 C41.6745963,-69 69.7799538,-79.1666667 113.126525,-91.5 C156.473096,-103.833333 190.17156,-111.666667 214.221915,-115 C229.882612,-116.333333 240.229858,-117.666667 245.263653,-119 L253.653312,-121 C234.636752,-151.666667 226.247093,-170.333333 228.484335,-177 L230.463154,-183.685 L228.267248,-183.707256 L225.881696,-183.743395 L224.999653,-183.761876 C212.967612,-183.97798 200.440978,-183.576054 187.420262,-182.554559 L184.687382,-182.33158 L183.156758,-182.198503 L180.914679,-181.991771 L179.455931,-181.849239 L178.026011,-181.702962 L176.624965,-181.552965 L175.252836,-181.399267 L173.248963,-181.16183 C173.029936,-181.134991 172.812119,-181.108 172.595512,-181.080858 L171.310405,-180.91619 L170.054395,-180.74791 L168.225034,-180.488764 L167.041961,-180.311547 L165.888142,-180.130793 L164.763619,-179.946525 L163.66844,-179.758764 L162.602647,-179.567532 L161.566286,-179.37285 L160.559402,-179.174741 L159.582039,-178.973226 L158.634242,-178.768328 L157.716055,-178.560067 L156.827523,-178.348466 L155.968692,-178.133546 C155.82803,-178.097451 155.688609,-178.061218 155.550427,-178.024848 L154.890766,-177.84771 L154.124763,-177.598857 C149.785541,-176.213727 145.682479,-175.154811 141.809374,-174.426132 L140.98294,-174.275043 L139.192705,-173.969222 C139.043986,-173.94328 138.896959,-173.9173 138.751633,-173.891288 L137.489871,-173.656439 L136.700417,-173.499298 L135.952814,-173.341974 L135.24747,-173.184704 C135.133457,-173.15851 135.021221,-173.132328 134.910772,-173.106163 L134.269578,-172.949419 L133.67166,-172.793323 C133.575636,-172.767374 133.481432,-172.741462 133.389056,-172.715591 L132.856814,-172.560911 L132.368866,-172.40747 C132.291254,-172.382014 132.215506,-172.356619 132.141628,-172.33129 L131.627226,-172.150656 L130.952286,-171.926903 L130.172034,-171.684073 L129.046609,-171.353078 L128.02457,-171.065812 L126.592728,-170.677961 L124.295511,-170.07982 L121.243802,-169.314858 L117.254432,-168.346565 L113.735185,-167.511704 L112.661648,-167.259685 L112.094752,-167.128967 L110.988456,-166.867081 L109.918989,-166.604731 L108.88655,-166.342081 L107.89134,-166.079295 L106.933555,-165.816538 L106.013397,-165.553974 L105.131064,-165.291767 L104.286756,-165.030081 L103.480671,-164.769081 L102.713009,-164.508931 L101.983968,-164.249795 C101.865691,-164.2067 101.749032,-164.163653 101.633994,-164.120659 L100.96326,-163.863353 C100.312054,-163.606732 99.7195272,-163.352249 99.1865772,-163.100642 L98.6735192,-162.850022 L98.4489163,-162.734297 L98.2383735,-162.621739 L98.0450645,-162.515467 L97.9494988,-162.220259 C96.903509,-159.139737 94.8132599,-156.627496 91.9415891,-155.220844 L91.6309319,-155.074387 L91.3349668,-154.945168 C88.5960166,-153.794541 85.7908886,-153.77622 82.7718024,-154.451474 C79.2643971,-155.235945 75.0838134,-157.103259 69.9528302,-160.060346 L68.8775956,-160.687709 L67.6835755,-161.401907 C57.9620849,-167.425771 51.1581166,-173.726976 47.3527741,-180.715148 L47.1188454,-181.152807 L47.0511357,-181.284209 C43.7593927,-187.787629 44.186784,-195.156825 50.113625,-199.718977 C50.248282,-199.822629 50.3864071,-199.926255 50.5280162,-200.029868 L50.9633118,-200.340673 C51.0376084,-200.392471 51.1127801,-200.444267 51.1888287,-200.496065 L51.6556607,-200.806866 L52.1436369,-201.117747 L52.6528531,-201.428773 L53.1834054,-201.74001 L53.7353897,-202.051522 C53.8291784,-202.103468 53.923864,-202.155428 54.0194487,-202.207403 L54.6037608,-202.519453 L55.2097446,-202.831943 L55.8374961,-203.144939 L56.4871113,-203.458507 L57.158686,-203.772712 L57.8523163,-204.087619 L58.5680979,-204.403295 L59.6835141,-204.878392 L60.455094,-205.196275 L61.2491611,-205.515157 L62.0658112,-205.835102 L62.9051404,-206.156175 L63.7672446,-206.478444 L64.6522196,-206.801973 L66.0227749,-207.289773 L66.9653469,-207.61674 L67.9311254,-207.945197 L69.4235156,-208.44082 L70.9686603,-208.940164 L72.5668833,-209.443451 L73.6620131,-209.781276 L75.3494193,-210.291627 L77.6832595,-210.979185 L79.4970333,-211.500458 L80.7365831,-211.850766 L83.2889958,-212.558377 L85.9397989,-213.275753 L88.6897598,-214.003419 C107.647314,-218.966507 125.248047,-222.310624 141.501171,-224.028201 L142.675247,-224.149928 L145.254803,-224.506521 L149.505464,-225.105949 L153.855467,-225.731801 L156.811272,-226.163811 L159.812148,-226.607706 L164.398774,-227.295956 L167.513936,-227.769811 L172.273713,-228.503267 L175.427962,-228.995288 L176.048988,-229.080468 L176.504601,-229.135165 L177.005759,-229.188369 L177.562978,-229.240238 L178.186773,-229.290927 L178.887661,-229.340591 L179.676156,-229.389386 L180.562775,-229.437467 L182.099689,-229.50859 L183.277622,-229.555567 L184.590484,-229.602374 L186.04879,-229.649167 L188.531959,-229.71967 L192.450052,-229.815077 L198.441825,-229.938337 L205.802683,-230.068311 L214.696933,-230.207429 L230.037821,-230.422182 L252.223103,-230.703942 L280.016372,-231.033989 L355.118882,-231.878745 L480.057481,-233.255844 L517.818856,-233.695363 L548.154078,-234.067737 L575.519005,-234.4251 L594.133941,-234.684554 L605.650744,-234.853943 L616.462839,-235.020778 L628.999785,-235.226137 L638.257058,-235.3882 L646.836972,-235.548577 L654.747944,-235.707532 L660.24724,-235.825976 L667.007809,-235.983086 L673.122576,-236.139507 L677.289905,-236.256532 L681.102254,-236.373432 L684.563172,-236.49032 L686.676966,-236.568294 L689.560056,-236.685411 L691.291917,-236.763642 L692.872846,-236.842033 L694.303896,-236.92062 L695.586117,-236.999434 L696.720561,-237.078508 L699.305227,-237.254145 L702.401818,-237.48099 L704.770891,-237.668037 L707.043071,-237.859795 L709.217698,-238.056044 L711.29411,-238.256562 L713.271646,-238.461128 L714.689514,-238.617076 L716.492428,-238.828194 L718.194649,-239.042752 L719.404837,-239.205795 L720.557735,-239.370555 L722.005332,-239.592745 L722.690545,-239.704853 L723.669899,-239.874205 L724.590847,-240.044901 L725.172228,-240.159399 L725.995214,-240.332127 L726.759051,-240.505951 L727.235278,-240.622395 L727.685009,-240.739258 L728.108163,-240.85651 L728.504656,-240.974124 L728.894585,-241.098185 L730.495282,-241.717359 L731.322126,-242.03061 L732.104928,-242.322211 L733.197427,-242.719248 L733.87187,-242.957185 L734.803698,-243.274224 C736.421839,-243.81077 737.834965,-244.226091 739.071192,-244.522138 C742.358276,-245.309316 745.043356,-245.309316 748.135466,-243.087857 Z M711.281154,-183.574 L704.980552,-183.538307 L691.097,-183.481621 L662.97313,-183.401138 L637.068431,-183.34948 L572.250766,-183.271841 L503.660726,-183.240025 L436.909923,-183.245958 L370.401306,-183.289581 L305.400236,-183.384256 L294.351179,-183.410722 C305.425129,-178.131116 313.252804,-170.994208 317.834203,-162 C322.588343,-152.666667 335.172832,-132.666667 338.808351,-132 C342.44387,-131.333333 354.608875,-132.666667 375.303367,-136 C379.777852,-136.666667 383.413371,-137.333333 386.209924,-138 C411.938211,-142 440.882534,-144.833333 473.042894,-146.5 C505.203253,-148.166667 527.99516,-151.333333 541.418614,-156 C550.367584,-159.333333 556.659828,-161.166667 560.295347,-161.5 C563.930866,-161.833333 568.545178,-160.666667 574.138284,-158 C581.409322,-154.666667 637.060726,-82.3333333 635.382794,-75 C633.704863,-67.6666667 630.628654,-62.6666667 626.15417,-60 C620.561064,-57.3333333 617.764511,-54.6666667 617.764511,-52 C617.764511,-49.3333333 614.268819,-48 607.277437,-48 C600.286054,-48 593.015017,-52.1666667 585.464324,-60.5 C577.913631,-68.8333333 563.511383,-75.3333333 542.25758,-80 C518.207224,-86 486.046865,-88.6666667 445.776502,-88 L422.285457,-88 L435.708911,-77 C449.691676,-67 455.005127,-64.3333333 451.649263,-49 C451.112325,-46.44 439.106388,-36.0464 426.765401,-25.56064 L425.221838,-24.25 C412.357694,-13.3333333 399.633378,-2.66666667 399.633378,-1 C399.633378,4.33333333 553.723447,8.66666667 576.655182,12 C606.857954,17.3333333 630.348999,25.3333333 647.128317,36 C656.077286,41.3333333 661.670392,45.5 663.907635,48.5 C666.144877,51.5 668.38212,57 670.619362,65 C673.415915,77.6666667 674.394708,87.3333333 673.555743,94 C672.716777,100.666667 669.780396,108.333333 664.746601,117 C655.797631,132.333333 658.314529,195.5 657.195908,228.5 C656.830332,239.284711 656.166072,249.731209 655.203127,259.839492 C657.085565,255.663037 660.908691,253.447534 665.003984,253.447534 C666.700671,253.447534 673.183471,256.071675 679.378386,258.624454 L680.184368,258.956798 C686.076819,261.387778 691.50403,263.64624 692.025472,263.373206 C692.330694,263.213387 692.598653,263.060642 692.829494,262.918036 L693.050203,262.775349 L693.176052,262.396994 L693.311433,261.962761 L693.382449,261.724793 C693.438777,261.53336 693.495656,261.333844 693.553059,261.126321 L693.726811,260.479811 L693.903549,259.785731 L694.083113,259.044547 L694.265344,258.256726 L694.450085,257.422737 L694.637177,256.543045 L694.826462,255.618119 L695.01778,254.648425 L695.210974,253.634432 L695.405885,252.576605 L695.602354,251.475412 C695.690322,250.960186 695.77486,250.428747 695.855942,249.881153 L696.013489,248.764444 C696.26836,246.867421 696.484629,244.79134 696.661301,242.538379 L696.762545,241.165394 L696.854237,239.750062 C696.883204,239.271239 696.910572,238.785375 696.936331,238.292489 L697.008779,236.792777 C697.020047,236.53932 697.030912,236.284111 697.041371,236.027152 L697.09926,234.464431 C697.125767,233.672592 697.148612,232.86505 697.167768,232.041863 L697.201154,230.374646 C697.205895,230.093306 697.210225,229.810232 697.214143,229.525426 L697.235819,226.853295 L697.267224,207.55073 L697.277339,181.758412 L697.263585,122.433247 L697.21929,-29.9614715 L697.129841,-79.7166431 L697.073498,-94.6881906 L697.063474,-96.3816656 L695.993325,-179.953145 L707.648555,-183.113544 L708.955994,-183.24459 L709.499331,-183.304441 L710.211047,-183.391454 L710.795462,-183.474328 L711.167233,-183.537872 L711.281154,-183.574 Z M330.838175,-78 C321.329894,-71.3333333 314.338512,-67.8333333 309.864027,-67.5 C305.389543,-67.1666667 300.915058,-69.3333333 296.440573,-74 C287.597872,-80.82 268.112722,-80.7208 237.985121,-73.7024 L237.942154,-73.693 L238.428813,-73.5496341 C256.730623,-68.0781885 271.593391,-57.5616438 283.017119,-42 C286.372982,-36.6666667 288.610225,-32.1666667 289.728846,-28.5 C290.847467,-24.8333333 290.567812,-18.6666667 288.88988,-10 L287.211948,10 L301.474368,7 C308.186095,6.33333333 313.779201,3.83333333 318.253686,-0.5 C322.728171,-4.83333333 331.677141,-17 345.100595,-37 C348.680183,-42.0666667 350.648956,-43.4533333 352.402954,-44.488 L352.664617,-44.640976 C352.794818,-44.71656 352.924204,-44.7911 353.053362,-44.866 L353.311552,-45.016696 C355.592646,-46.3594333 357.925587,-48.1066667 363.557845,-58 L380.337162,-85 L363.557845,-86 C352.371633,-87.3333333 341.465076,-84.6666667 330.838175,-78 Z M236.873994,-74 C227.925025,-76.6666667 221.912436,-77 218.836228,-75 C217.102365,-73.8727273 215.412923,-71.4747107 213.767903,-67.8059504 L213.617154,-67.467 L214.326786,-67.625 C219.297659,-68.75 224.296847,-70.04375 229.32435,-71.50625 L231.001233,-72 C233.04831,-72.52 235.051089,-73.0112 237.009571,-73.4736 L237.942154,-73.693 L237.65345,-73.7778195 L237.65345,-73.7778195 Z M716.442237,-183.612713 C714.92869,-184.085821 713.296036,-184.167482 711.436992,-183.621392 L711.436992,-183.621392 L711.281154,-183.574 L714.817511,-183.592192 L716.465154,-183.605 Z" id="Combined-Shape" fill="#000000" fill-rule="nonzero"></path>
    </g>
</svg>