<?xml version="1.0" encoding="UTF-8"?>
<svg width="730px" height="730px" viewBox="0 0 730 730" version="1.1" xmlns="http://www.w3.org/2000/svg" xmlns:xlink="http://www.w3.org/1999/xlink">
    <title>lo_full</title>
    <g id="lo_full" stroke="none" stroke-width="1" fill="none" fill-rule="evenodd">
        <path d="M748.135466,-47.3725019 C749.384167,-46.608944 750.394234,-45.6424007 751.146087,-44.5454159 L751.32866,-44.2684941 L751.413284,-44.129091 L752.146256,-43.7362119 L753.135475,-43.1964202 L754.162797,-42.6267587 L755.228373,-42.027168 C755.409165,-41.9247388 755.591557,-41.8210601 755.775553,-41.7161307 L757.474891,-40.7379615 L758.656136,-40.0482268 C759.440197,-39.5879654 760.098651,-39.2828125 760.609852,-39.1160976 L760.776424,-39.0642525 L760.954386,-39.0136212 L761.864599,-39.0126449 L762.761179,-38.8481722 C766.66993,-38.1311334 769.379852,-35.9769459 772.891732,-32.1115356 C775.528945,-29.208842 777.586262,-26.1232264 779.029431,-22.8638507 L779.264267,-22.3190141 L779.510851,-21.7309672 L779.659861,-21.1159284 C780.719159,-16.743673 779.252522,-12.3123199 775.980657,-6.88188744 C772.913247,-1.79079722 769.689206,1.62011957 765.284935,3.06863832 L764.943799,3.17618747 L764.722096,3.23932456 L764.626338,3.27723355 C761.043519,4.60485752 757.084762,4.59931568 752.76768,3.62621146 L752.319808,3.52210903 L751.800666,3.39506254 L751.630982,3.36219625 L751.419027,3.32875006 L751.165676,3.29499477 L750.709943,3.24437469 L749.965572,3.17832694 L749.071355,3.11591736 L748.57024,3.08675389 L747.46437,3.03386364 L746.547724,3.00001936 L745.559578,2.97218209 L744.255785,2.94688602 L742.861898,2.93136837 L741.378419,2.92564395 L739.805847,2.92972757 L738.14468,2.94363403 L736.39542,2.96737813 L734.558564,3.00097469 L732.634614,3.0444385 L730.624067,3.09778438 L729.341397,3.13377606 L728.055613,3.15733265 L725.617131,3.18786887 L722.371635,3.21738879 L716.462,3.255 L716.563391,3.28208575 C717.143724,3.44393303 717.706825,3.65437483 718.258818,3.90193106 L718.511059,4.01795226 L718.752253,4.13418416 C719.726421,4.61382267 720.596709,5.19286586 721.499564,5.90006762 C722.256742,6.49316191 723.07524,7.21188122 723.977335,8.06989165 L724.591361,8.66268429 L725.231622,9.29764821 C725.340601,9.40703979 725.450733,9.51822601 725.56205,9.63122559 L725.899588,9.97568323 C726.081646,10.1624284 726.259524,10.3422143 726.433074,10.514985 L726.940597,11.0121964 C727.681968,11.7262787 728.332746,12.2971783 728.879585,12.7198217 L729.150732,12.9232923 L729.317475,13.0405405 L729.361833,13.053976 C731.844818,13.8174667 733.75117,15.3065712 735.505247,17.3286675 L735.743535,17.6076935 L735.970345,17.881193 C737.377601,19.6016703 738.769532,21.8155639 740.24452,24.5980939 C741.726769,27.3943194 742.756737,29.7480256 743.341822,31.8005294 C744.030975,34.2181074 744.263734,36.4397529 743.625963,38.5657702 L743.523716,38.8839681 L743.465697,39.0420032 L743.441663,39.8707393 L743.400149,41.8636481 L743.342892,46.6017854 L743.293104,56.4265606 L743.283013,63.2192353 L743.251794,122.165196 L743.136541,511.906659 L743.055737,541.447587 L743.01827,549.598249 L742.989063,553.699228 L742.974142,555.045936 L742.964087,555.669407 L742.95395,556.066448 L742.917749,556.975876 L742.857976,558.25905 L742.791326,559.446642 L742.742901,560.186147 L742.69116,560.884488 C742.682255,560.997477 742.673207,561.108773 742.664015,561.218387 L742.607109,561.85597 C742.59733,561.958898 742.587402,562.060167 742.577323,562.159786 L742.51502,562.737795 C742.504328,562.830861 742.493481,562.922299 742.482477,563.01212 L742.448989,563.276747 C742.299167,564.422753 742.11571,565.373363 741.830204,566.272603 C741.746972,566.534752 741.656477,566.791456 741.554463,567.045886 L741.392272,567.426224 L741.257113,567.70994 L741.20342,568.357544 L741.163934,568.90115 L741.094739,570.011175 L741.015185,571.570167 L740.955326,572.97967 L740.885318,574.943076 L740.808506,577.592599 L740.750611,580.043165 L740.698385,582.712577 L740.666696,584.785093 L740.592972,588.746479 L740.536083,591.251877 L740.438998,594.807619 L740.366357,597.043755 L740.26655,599.68843 L740.201819,601.195251 L740.109808,603.111358 L740.011226,604.921536 L739.906018,606.62616 L739.822728,607.835581 L739.705786,609.356383 L739.613631,610.428368 L739.517637,611.441714 L739.417779,612.396579 L739.314034,613.293121 L739.206378,614.131497 C739.194198,614.221424 739.181945,614.310278 739.169619,614.398057 C738.275566,620.765134 736.549998,626.156798 733.876407,630.573534 C733.239601,631.625528 732.481436,632.738947 731.600251,633.917997 L731.056764,634.633336 C730.684579,635.115524 730.292659,635.608348 729.880895,636.112077 L729.248354,636.875882 L728.585969,637.656247 L727.89366,638.453373 C727.304246,639.124684 726.683577,639.813666 726.031448,640.520843 L725.233777,641.378224 L724.405823,642.253274 L723.547507,643.146197 L722.658748,644.057194 C722.50808,644.210544 722.35614,644.364655 722.202927,644.519533 L721.268355,645.458019 L720.677362,646.04549 L720.560909,646.152995 C705.247476,660.289883 688.370567,660.736972 674.866283,646.738046 L674.592752,646.451022 L673.189628,645.048086 L672.247151,644.116319 L671.319246,643.206959 L670.405981,642.320036 L669.507426,641.455579 L668.623651,640.613618 C662.369422,626.975422 658.202657,617.776984 656.123355,613.018302 C654.270004,633.669497 650.763275,652.726017 645.604231,670.188581 C640.011125,689.499013 631.062156,705.117745 618.757323,717.044776 C606.45249,728.971808 595.266278,732.663508 585.198687,728.119877 C581.977058,727.029405 569.167842,717.91172 556.222545,708.09608 L554.604358,706.86602 C541.124952,696.594062 527.925202,685.89614 525.68796,683.05637 C508.349331,657.498445 515.760197,638.383164 521.912613,637.81521 C527.505719,637.81521 539.810553,645.19861 558.827113,659.965411 C566.098151,665.076996 587.715585,658.261549 592.74938,654.853826 C594.455277,653.468019 596.473354,643.311782 598.803609,632.120001 L599.033822,631.016103 C599.149431,630.462757 599.265796,629.90752 599.382915,629.351311 L599.73654,627.680692 L599.73654,627.680692 L599.974806,626.566434 C600.094442,626.009544 600.214834,625.453216 600.335981,624.898371 L600.579281,623.790929 C601.556508,619.371248 602.58206,615.085695 603.655937,611.405354 C607.0118,601.182184 608.969387,321.993367 609.528698,304.95475 C610.088008,287.916134 610.647319,279.254837 609.528698,260.228382 C608.410077,241.201927 605.054213,226.009161 599.461107,214.650083 C595.545933,204.994867 403.982054,199.599305 360.355827,198.463397 C320.644775,197.32749 289.043726,200.593224 273.103374,202.723051 C257.163022,204.852878 159.18404,198.463397 67.5567299,238.504146 C61.4043133,246.4555 49.3791355,636.861723 51.6163779,639.701493 C56.0908627,644.813077 57.3493115,651.06057 55.3917244,658.443971 C53.4341373,665.827371 49.6587908,672.358841 44.0656848,678.03838 C36.7946471,684.853826 31.4811964,688.261549 28.1253328,688.261549 C24.2101587,688.261549 20.0153292,683.57593 15.5408444,674.204691 C11.0663597,664.833452 8.26980668,655.036247 7.15118548,644.813077 C5.47325369,634.589908 3.51566661,625.928611 1.27842422,618.829187 C-0.958818165,611.729764 -0.25967992,601.506594 3.37583896,588.159678 C7.01135783,574.812762 8.82911727,293.453684 8.82911727,284.082445 C8.82911727,274.711206 9.94773846,263.778094 12.1849808,251.283108 C17.2187762,221.181553 31.4811964,233.108584 33.1591282,227.429045 C34.83706,222.31746 41.6886148,215.927979 53.7137926,208.260602 C65.7389705,200.593224 77.6243206,194.203743 89.3698432,189.092158 C100.556055,185.116481 225.561973,181.708758 229.477148,178.868988 C232.833011,176.029219 234.510943,174.04138 234.510943,172.905473 C234.510943,171.769565 232.833011,168.929795 229.477148,164.386164 C225.561973,157.570718 220.528178,148.767433 214.375761,137.976309 C211.019898,130.592908 209.062311,125.197347 208.503,121.789623 C207.94369,118.3819 208.503,114.6902 210.180932,110.714523 C211.322382,107.237254 212.487127,104.327703 213.675167,101.985869 L213.772,101.796 L212.640863,102.011155 C207.738264,102.922686 202.863285,103.693982 198.015927,104.325041 C187.10937,105.744926 180.53747,107.164811 178.300228,108.584696 C176.062986,110.00458 171.169018,111.992419 163.618325,114.548211 C156.067632,117.104004 121.67003,140.67409 110.763473,140.958067 C99.8569168,141.242044 90.7681196,144.223802 83.4970819,149.90334 C76.7853547,155.014925 70.4931105,158.422649 64.6203493,160.12651 C58.747588,161.830372 50.777412,161.262418 40.7098213,158.422649 C30.0829199,156.150833 14.4222232,114.122246 28.9642987,107.306799 C41.8284425,100.491353 69.9337999,91.8300561 113.280371,81.3229093 C156.626942,70.8157625 190.325406,64.1423044 214.375761,61.3025349 C230.036458,60.1666272 240.383704,59.0307194 245.4175,57.8948117 L253.807158,56.19095 C234.790598,30.0650715 226.400939,14.1623628 228.638182,8.48282398 L230.478,3.188 L228.267248,3.16860545 L225.881696,3.13784597 L224.999653,3.12211585 C212.967612,2.93818155 200.440978,3.28027662 187.420262,4.14970956 L184.687382,4.33949547 L183.156758,4.45276318 L180.914679,4.62872036 L179.455931,4.75003516 L178.026011,4.87453633 L176.624965,5.00220531 L175.252836,5.13302354 L173.248963,5.33511515 C173.029936,5.35795879 172.812119,5.38093171 172.595512,5.40403354 L171.310405,5.5441882 L170.054395,5.68741788 L168.225034,5.9079875 L167.041961,6.05882358 L165.888142,6.21266975 L164.763619,6.36950744 L163.66844,6.5293181 L162.602647,6.69208318 L161.566286,6.85778413 L160.559402,7.02640238 L159.582039,7.19791937 L158.634242,7.37231657 L157.716055,7.54957539 L156.827523,7.7296773 L155.968692,7.91260374 C155.82803,7.94332583 155.688609,7.97416483 155.550427,8.00512036 L154.890766,8.15588965 L154.124763,8.36769831 C149.785541,9.54663546 145.682479,10.4479194 141.809374,11.0681255 L140.98294,11.1967233 L139.192705,11.4570191 C139.043986,11.4790997 138.896959,11.5012121 138.751633,11.523352 L137.489871,11.7232409 L136.700417,11.8569897 L135.952814,11.9908943 L135.24747,12.124753 C135.133457,12.1470477 135.021221,12.169332 134.910772,12.1916019 L134.269578,12.3250127 L133.67166,12.4578725 C133.575636,12.4799587 133.481432,12.5020135 133.389056,12.5240327 L132.856814,12.6556874 L132.368866,12.7862861 C132.291254,12.8079533 132.215506,12.8295681 132.141628,12.8511263 L131.627226,13.0048706 L130.952286,13.1953154 L130.172034,13.4019971 L129.046609,13.6837195 L128.02457,13.9282231 L126.592728,14.258338 L124.295511,14.7674385 L121.243802,15.4185271 L117.254432,16.2426781 L113.735185,16.9532609 L112.661648,17.167764 L112.094752,17.2790226 L110.988456,17.5019237 L109.918989,17.7252199 L108.88655,17.9487715 L107.89134,18.1724386 L106.933555,18.3960813 L106.013397,18.6195599 L105.131064,18.8427345 L104.286756,19.0654652 L103.480671,19.2876123 L102.713009,19.5090359 L101.983968,19.7295962 C101.865691,19.7662766 101.749032,19.8029151 101.633994,19.8395089 L100.96326,20.058512 C100.312054,20.276932 99.7195272,20.4935326 99.1865772,20.7076847 L98.6735192,20.9209972 L98.4489163,21.0194951 L98.2383735,21.1152976 L98.0450645,21.2057492 L97.9494988,21.4570127 C96.903509,24.0789627 94.8132599,26.2172274 91.9415891,27.4144829 L91.6309319,27.5391386 L91.3349668,27.6491217 C88.5960166,28.6284642 85.7908886,28.6440577 82.7718024,28.0693235 C79.2643971,27.4016296 75.0838134,25.8122875 69.9528302,23.2953975 L68.8775956,22.7614247 L67.6835755,22.1535436 C57.9620849,17.0264014 51.1581166,11.6632044 47.3527741,5.71530335 L47.1188454,5.34279504 L47.0511357,5.23095377 C43.7593927,-0.304357 44.186784,-6.57656249 50.113625,-10.4595849 C50.248282,-10.5478066 50.3864071,-10.6360071 50.5280162,-10.7241955 L50.9633118,-10.988734 C51.0376084,-11.0328209 51.1127801,-11.076907 51.1888287,-11.1209937 L51.6556607,-11.3855289 L52.1436369,-11.6501316 L52.6528531,-11.9148577 L53.1834054,-12.1797631 L53.7353897,-12.4449035 C53.8291784,-12.4891163 53.923864,-12.5333412 54.0194487,-12.5775793 L54.6037608,-12.8431771 L55.2097446,-13.1091496 L55.8374961,-13.3755527 L56.4871113,-13.6424421 L57.158686,-13.9098737 L57.8523163,-14.1779034 L58.5680979,-14.446587 L59.6835141,-14.8509607 L60.455094,-15.1215234 L61.2491611,-15.3929355 L62.0658112,-15.6652528 L62.9051404,-15.9385311 L63.7672446,-16.2128263 L64.6522196,-16.4881943 L66.0227749,-16.9033798 L66.9653469,-17.1816739 L67.9311254,-17.4612362 L69.4235156,-17.8830796 L70.9686603,-18.3080906 L72.5668833,-18.7364576 L73.6620131,-19.0239931 L75.3494193,-19.4583723 L77.6832595,-20.0435793 L79.4970333,-20.4872551 L80.7365831,-20.7854152 L83.2889958,-21.3876901 L85.9397989,-21.9982766 L88.6897598,-22.6176215 C107.647314,-26.841896 125.248047,-29.6882017 141.501171,-31.1500979 L142.675247,-31.2537038 L145.254803,-31.557214 L149.505464,-32.0674098 L153.855467,-32.600097 L156.811272,-32.9677968 L159.812148,-33.3456128 L164.398774,-33.9314094 L167.513936,-34.3347256 L172.273713,-34.9589974 L175.427962,-35.377776 L176.048988,-35.4502761 L176.504601,-35.4968301 L177.005759,-35.5421147 L177.562978,-35.5862625 L178.186773,-35.6294057 L178.887661,-35.6716766 L179.676156,-35.7132077 L180.562775,-35.7541313 L182.099689,-35.814667 L183.277622,-35.8546507 L184.590484,-35.89449 L186.04879,-35.9343174 L188.531959,-35.9943254 L192.450052,-36.0755293 L198.441825,-36.1804405 L205.802683,-36.2910667 L214.696933,-36.4094756 L230.037821,-36.5922602 L252.223103,-36.8320769 L280.016372,-37.1129921 L355.118882,-37.8319968 L480.057481,-39.0040981 L517.818856,-39.3781895 L548.154078,-39.6951317 L575.519005,-39.9992974 L594.133941,-40.2201285 L605.650744,-40.3643016 L616.462839,-40.5063013 L628.999785,-40.68109 L638.257058,-40.8190287 L646.836972,-40.9555311 L654.747944,-41.090824 L660.24724,-41.1916364 L667.007809,-41.3253585 L673.122576,-41.4584949 L677.289905,-41.5580993 L681.102254,-41.6575974 L684.563172,-41.757085 L686.676966,-41.8234515 L689.560056,-41.9231343 L691.291917,-41.9897195 L692.872846,-42.0564418 L694.303896,-42.1233295 L695.586117,-42.190411 L696.720561,-42.2577147 L699.305227,-42.4072057 L702.401818,-42.6002825 L704.770891,-42.7594849 L707.043071,-42.9226977 L709.217698,-43.0897324 L711.29411,-43.2604009 L713.271646,-43.434515 L714.689514,-43.5672484 L716.492428,-43.7469391 L718.194649,-43.9295576 L719.404837,-44.0683297 L720.557735,-44.2085633 L722.005332,-44.3976777 L722.690545,-44.4930976 L723.669899,-44.6372394 L724.590847,-44.7825251 L725.172228,-44.8799786 L725.995214,-45.0269943 L726.759051,-45.1749422 L727.235278,-45.2740527 L727.685009,-45.3735187 L728.108163,-45.4733166 L728.504656,-45.5734228 L728.894585,-45.6790159 L730.495282,-46.2060181 L731.322126,-46.4726385 L732.104928,-46.7208309 L733.197427,-47.0587644 L733.87187,-47.2612817 L734.803698,-47.5311254 C736.421839,-47.9878011 737.834965,-48.3412967 739.071192,-48.5932733 C742.358276,-49.2632704 745.043356,-49.2632704 748.135466,-47.3725019 Z M711.279,3.283 L704.980552,3.31240458 L691.097,3.36065164 L662.97313,3.42915431 L637.068431,3.47312246 L572.250766,3.53920363 L503.660726,3.56628371 L436.909923,3.56123368 L370.401306,3.5241042 L305.400236,3.44352321 L295.474355,3.42257972 C306.036923,7.87845745 313.541487,13.8248596 317.988049,21.2617863 C322.742189,29.2131406 335.326678,46.2517571 338.962197,46.819711 C342.597716,47.3876649 354.762721,46.2517571 375.457213,43.4119877 C379.931698,42.8440338 383.567217,42.2760799 386.36377,41.708126 C412.092057,38.3004027 441.036381,35.8865988 473.19674,34.466714 C505.357099,33.0468293 528.149006,30.3490484 541.57246,26.3733712 C550.52143,23.5336018 556.813674,21.9717287 560.449193,21.6877517 C564.084712,21.4037748 568.699024,22.3976941 574.29213,24.6695096 C581.563168,27.509279 637.214572,89.1322751 635.536641,95.3797678 C633.858709,101.627261 630.7825,105.886915 626.308016,108.15873 C620.71491,110.430546 617.918357,112.702361 617.918357,114.974177 C617.918357,117.245992 614.422666,118.3819 607.431283,118.3819 C600.439901,118.3819 593.168863,114.832188 585.61817,107.732765 C578.067477,100.633341 563.665229,95.0957909 542.411426,91.1201137 C518.361071,86.0085288 486.200711,83.7367133 445.930348,84.3046671 L422.439303,84.3046671 L435.862758,93.6759062 C449.845523,102.195214 455.158973,104.46703 451.80311,117.529969 C451.243799,119.801785 438.239828,129.315012 425.375684,138.615257 L423.833463,139.729787 C411.513954,148.630215 399.787224,157.059559 399.787224,158.422649 C399.787224,162.96628 553.877293,166.65798 576.809028,169.497749 C607.0118,174.04138 630.502845,180.856827 647.282163,189.944089 C656.231133,194.48772 661.824239,198.037432 664.061481,200.593224 C666.298723,203.149017 668.535966,207.834636 670.773208,214.650083 C673.569761,225.441207 674.548555,233.676538 673.709589,239.356077 C672.870623,245.035616 669.934242,251.567085 664.900447,258.950486 C655.951477,272.013425 658.468375,565.827055 657.349754,593.940772 C657.293764,595.347938 657.230768,596.748345 657.160766,598.141993 C659.207428,596.239489 662.034141,595.247814 665.003984,595.247814 C666.436742,595.247814 671.282412,596.840497 676.485626,598.644356 L677.309712,598.93073 C677.447406,598.978684 677.585237,599.026734 677.723148,599.074855 L678.96502,599.509172 C685.308118,601.731825 691.468214,603.944285 692.025472,603.695933 C692.330694,603.559906 692.598653,603.429898 692.829494,603.308521 L693.050203,603.187075 L693.176052,602.865042 L693.311433,602.49545 L693.382449,602.292906 C693.438777,602.12997 693.495656,601.960154 693.553059,601.783524 L693.726811,601.233254 L693.903549,600.642496 L694.083113,600.011646 L694.265344,599.341101 L694.450085,598.631261 L694.637177,597.882522 L694.826462,597.095282 L695.01778,596.269938 L695.210974,595.406889 L695.405885,594.506532 L695.602354,593.569265 C695.690322,593.130737 695.77486,592.678408 695.855942,592.21233 L696.013489,591.261856 C696.26836,589.647227 696.484629,587.880195 696.661301,585.962613 L696.762545,584.794013 L696.854237,583.58937 C696.883204,583.181825 696.910572,582.768288 696.936331,582.348773 L697.008779,581.072311 C697.020047,580.856584 697.030912,580.639366 697.041371,580.420659 L697.09926,579.090566 C697.125767,578.416602 697.148612,577.729272 697.167768,577.028626 L697.201154,575.609594 C697.205895,575.370134 697.210225,575.129199 697.214143,574.88679 L697.235819,572.612437 L697.267224,556.183283 L697.277339,534.230452 L697.263585,483.736529 L697.21929,134.027539 L697.129841,91.6790043 L697.073498,78.936146 L697.063474,77.4947645 L695.993325,6.36387313 L707.648555,3.67393624 L708.955994,3.56239825 L709.499331,3.51145639 L710.211047,3.43739649 L710.795462,3.36685951 L711.167233,3.3127742 L711.279,3.283 Z M330.992021,92.8239754 C321.483741,98.5035142 314.492358,101.485272 310.017873,101.769249 C305.543389,102.053226 301.068904,100.207376 296.594419,96.2316986 C287.751719,90.4215304 268.266568,90.506042 238.138967,96.4852333 L238.096,96.493 L238.721098,96.650737 C256.959433,101.321901 271.776055,110.269484 283.170965,123.493485 C286.526828,128.037116 288.764071,131.870805 289.882692,134.994551 C291.001313,138.118297 290.721658,143.371871 289.043726,150.755271 L287.365794,167.793888 L301.628214,165.238095 C308.339942,164.670141 313.933048,162.540314 318.407532,158.848614 C322.882017,155.156914 331.830987,144.791756 345.254441,127.753139 C348.834029,123.43669 350.802802,122.255345 352.5568,121.373881 L352.818464,121.243556 C352.948664,121.179164 353.07805,121.115661 353.207208,121.051851 L353.465399,120.923469 C355.746493,119.779549 358.079433,118.291027 363.711691,109.862592 L380.491009,86.8604596 L363.711691,86.0085288 C352.525479,84.872621 341.618922,87.1444365 330.992021,92.8239754 Z M237.027841,96.2316986 C228.078871,93.9598831 222.066282,93.6759062 218.990074,95.3797678 C217.232241,96.3534031 215.520065,98.4397642 213.853548,101.638851 L213.772,101.796 L214.480632,101.662758 C219.390136,100.716168 224.327261,99.6293425 229.292005,98.4022817 L231.155079,97.9355603 C233.202156,97.4925563 235.204936,97.0740878 237.163417,96.680155 L238.096,96.493 L237.876899,96.4381813 L237.876899,96.4381813 Z M716.27176,3.20526481 C714.806142,2.84193927 713.226446,2.79428789 711.436992,3.24168695 L711.436992,3.24168695 L711.279,3.283 L714.817511,3.26654056 L716.462,3.255 Z" id="Combined-Shape" fill="#000000" fill-rule="nonzero"></path>
    </g>
</svg>