<?xml version="1.0" encoding="UTF-8"?>
<svg width="800px" height="470px" viewBox="0 0 800 470" version="1.1" xmlns="http://www.w3.org/2000/svg" xmlns:xlink="http://www.w3.org/1999/xlink">
    <title>lun_m</title>
    <g id="lun_m" stroke="none" stroke-width="1" fill="none" fill-rule="evenodd">
        <g id="合同" transform="translate(-69.000000, -125.000000)" fill="#000000" fill-rule="nonzero">
            <path d="M389.289978,109.092784 C405.958904,107.030928 429.2954,106 459.299466,106 C485.30299,106 501.305159,107.159794 507.305972,109.479381 C513.306785,111.798969 517.307327,118.371134 519.307598,129.195876 C521.30787,137.443299 518.97422,144.14433 512.30665,149.298969 L503.30543,156.257732 L427.295129,158.57732 C387.956464,158.57732 362.119629,159.479381 349.784624,161.283505 C337.449619,163.087629 326.281439,167.597938 316.280083,174.814433 C310.946027,178.938144 304.945214,181 298.277644,181 C292.943588,181 286.776085,178.938144 279.775136,174.814433 C272.774187,170.690722 267.60682,166.309278 264.273035,161.670103 C260.93925,157.030928 261.272629,153.680412 265.273171,151.618557 C267.273442,150.587629 267.60682,147.494845 266.273306,142.340206 C265.606549,138.731959 266.273306,136.154639 268.273577,134.608247 C270.273849,133.061856 276.60804,130.742268 287.276153,127.649485 C318.613733,118.371134 352.618342,112.185567 389.289978,109.092784 Z M383.137737,1.09446869 C387.139176,0 393.80824,-0.273617172 403.14493,0.273617172 C412.48162,0.820851516 424.152482,3.83064041 438.157517,9.30298384 C450.828739,14.5017101 457.497803,18.4691591 458.164709,21.2053308 C458.831616,23.9415025 453.829818,27.4985258 443.159315,31.8764005 C432.488812,35.9806581 427.153561,38.8536384 427.153561,40.4953414 C427.153561,42.1370445 425.319568,43.9839604 421.651583,46.0360892 C417.983598,48.088218 416.149605,50.0035382 416.149605,51.7820498 C416.149605,53.5605614 414.148886,55.1338601 410.147447,56.501946 C405.479102,57.8700318 403.811836,58.8960962 405.145649,59.5801392 C406.479462,60.2641821 412.48162,61.4270551 423.152122,63.0687581 C467.834852,69.9091874 524.855351,85.3685576 594.213619,109.446869 C600.215776,111.362189 613.887358,115.329638 635.228363,121.349216 C656.569369,127.368793 668.740411,131.062625 671.74149,132.430711 C674.742569,133.798797 682.411993,135.645713 694.749761,137.971459 C707.08753,140.297205 716.257493,142.417738 722.259651,144.333058 C743.600656,150.079019 767.942741,155.004128 795.285904,159.108385 C813.292377,161.57094 832.29921,164.854346 852.306403,168.958604 L905.325463,179.629673 C940.671503,186.74372 947.340567,191.942446 925.332655,195.225852 C917.996685,196.320321 914.3287,197.277981 914.3287,198.098832 C914.3287,199.193301 909.326901,200.629791 899.323305,202.408303 C889.319709,204.186814 882.317191,204.802453 878.315753,204.255219 C872.313595,203.434367 859.475647,203.913197 839.801907,205.691709 C820.128168,207.470221 807.623673,209.317136 802.288421,211.232457 C798.286983,212.87416 791.784645,214.652671 782.781408,216.567992 C773.778172,218.483312 767.609287,219.440972 764.274755,219.440972 C761.60713,219.440972 752.27044,217.799269 736.264686,214.515863 C688.247424,205.212879 638.896349,190.984786 588.211461,171.831584 C537.526573,152.678382 494.844562,131.883477 460.165429,109.446869 C452.829458,104.795377 441.492049,99.2546291 426.153201,92.8246255 C410.814354,86.394622 399.476945,82.2219601 392.140974,80.3066399 C384.805003,78.9385541 379.303025,78.5965326 375.63504,79.2805755 C371.967055,79.9646185 367.79889,82.2219601 363.130545,86.0526005 C357.795293,90.1568581 353.627128,92.6194127 350.626049,93.4402642 C347.624971,94.2611157 343.790259,96.4500531 339.121914,100.007076 C334.453569,103.5641 325.450332,109.036443 312.112204,116.424107 L253.090986,148.02689 C227.748542,162.254983 206.74099,172.652435 190.068329,179.219248 C161.391353,190.984786 145.385599,196.867555 142.051067,196.867555 C140.717254,196.867555 135.54873,198.577662 126.545493,201.997877 C117.542256,205.418092 109.372653,207.949051 102.036682,209.590754 C94.7007114,211.232457 82.1962161,214.31065 64.523196,218.825333 C46.8501759,223.340017 37.1800328,225.597358 35.5127668,225.597358 C33.8455007,225.597358 29.6773356,226.691827 23.0082714,228.880764 C20.3406458,229.701616 17.0061137,230.385659 13.0046752,230.932893 C9.00323665,231.480127 5.83543116,231.822149 3.5012587,231.958957 C1.16708623,232.095766 0,231.890553 0,231.343319 C0,229.154381 6.50233758,224.502889 19.5070127,217.388843 C32.5116879,210.274797 48.3507153,202.613516 67.024095,194.405001 C75.0269721,191.121595 84.6971151,186.812124 96.0345242,181.476589 C107.371933,176.141054 122.877508,169.232221 142.551247,160.750088 C162.224986,152.267956 177.397107,145.427527 188.06761,140.228801 C196.070487,136.671777 206.907716,130.857412 220.579298,122.785706 C234.250879,114.713999 241.08667,110.404529 241.08667,109.857294 C241.08667,109.583677 246.755375,105.205803 258.092784,96.7236702 L279.100336,81.948343 C291.771558,73.1925935 302.775514,64.0264182 312.112204,54.4498172 C314.112923,53.0817313 316.113642,51.6452412 318.114362,50.1403467 C320.115081,48.6354523 323.11616,45.9676849 327.117598,42.1370445 C349.792416,19.9740535 368.465796,6.29319495 383.137737,1.09446869 Z" id="合"></path>
            <path d="M62,224.226554 C76,214.888858 87.6666667,217.223282 97,231.229827 C105.666667,243.235437 107,271.415272 101,315.769331 C97.6666667,338.780084 95.6666667,363.291538 95,389.303693 C94.3333333,415.315849 93.1666667,428.988904 91.5,430.322861 C89.8333333,431.656818 88.8333333,442.745333 88.5,463.588406 C88.1666667,484.431479 86.6666667,495.519994 84,496.85395 C81.3333333,498.187907 79.3333333,501.856288 78,507.859093 C74.6666667,516.863301 67.5,522.199127 56.5,523.866573 C45.5,525.534019 32.3333333,523.199595 17,516.863301 L0,508.359327 L2,488.349977 C4,474.676921 7,464.505501 11,457.835718 C15,451.165934 18.6666667,439.994047 22,424.320056 L30,377.798317 C32.6666667,362.124326 35.5,337.196011 38.5,303.013371 C41.5,268.830731 44.6666667,249.738476 48,245.736606 C51.3333333,241.734736 53,238.2331 53,235.231697 C53,232.230295 56,228.561914 62,224.226554 Z M616,168.200374 C630,167.533396 654.166667,167.283279 688.5,167.450023 C722.833333,167.616768 744.666667,168.200374 754,169.200842 C766,170.868287 782.333333,172.368989 803,173.702945 C868.333333,177.704815 846.333333,184.708088 877,194.712763 C897.666667,201.382546 910.666667,206.551628 916,210.220009 C922,213.88839 925.166667,218.723983 925.5,224.726788 C925.833333,230.729593 922.666667,236.565654 916,242.23497 C911.333333,246.903818 908.666667,255.157675 908,266.99654 C907.333333,278.835406 907,327.774942 907,413.815147 C906.333333,464.83899 905.5,496.603834 904.5,509.109677 C903.5,521.615521 901.333333,529.2024 898,531.870313 C892.666667,535.872183 890,540.040798 890,544.376157 C890,551.37943 881.333333,560.13352 864,570.638429 C846.666667,581.143338 846,595.4 830,595.4 C814,595.4 804.666667,594.899766 802,593.899299 C798,592.565342 793.666667,589.980801 789,586.145676 C784.333333,582.31055 782,579.225775 782,576.891351 C782,573.889949 769,525.367274 773,526.367742 C785,529.702634 799.666667,529.702634 817,526.367742 C825.666667,525.033785 833,520.865171 839,513.861898 C845,505.858158 847.833333,473.759825 847.5,417.5669 C847.166667,361.373975 844,316.269565 838,282.25367 C832,250.23871 829,259.89587 829,251.225152 C829,244.555369 828.166667,240.470126 826.5,238.969425 C824.833333,237.468724 819.666667,235.551161 811,233.216737 C799.666667,229.881845 784.333333,227.297304 765,225.463114 C745.666667,223.628923 734.333333,222.128222 731,220.96101 C727.666667,219.793798 705.333333,218.543213 664,217.209257 C598.666667,215.8753 217.666667,219.210192 181,227.213932 C161.666667,231.549291 146.5,233.633598 135.5,233.466854 C124.5,233.300109 119,200.882313 119,196.213464 C119,191.544616 135,186.542278 167,181.206452 C199,175.870625 568.666667,171.535266 616,168.200374 Z" id="同"></path>
        </g>
    </g>
</svg>