<?xml version="1.0" encoding="UTF-8"?>
<svg width="400px" height="240px" viewBox="0 0 400 240" version="1.1" xmlns="http://www.w3.org/2000/svg" xmlns:xlink="http://www.w3.org/1999/xlink">
    <title>lun_s</title>
    <g id="lun_s" stroke="none" stroke-width="1" fill="none" fill-rule="evenodd">
        <g id="合同" transform="translate(-108.000000, 0.000000)" fill="#000000" fill-rule="nonzero">
            <path d="M277.649249,109.092784 C289.537854,107.030928 306.1819,106 327.581389,106 C346.127612,106 357.540673,107.159794 361.820571,109.479381 C366.100468,111.798969 368.953733,118.371134 370.380366,129.195876 C371.806999,137.443299 370.142594,144.14433 365.387152,149.298969 L358.967305,156.257732 L304.755268,158.57732 C276.69816,158.57732 258.270823,159.479381 249.473255,161.283505 C240.675688,163.087629 232.710323,167.597938 225.57716,174.814433 C221.772806,178.938144 217.492909,181 212.737467,181 C208.933113,181 204.534329,178.938144 199.541115,174.814433 C194.547901,170.690722 190.862434,166.309278 188.484713,161.670103 C186.106992,157.030928 186.344764,153.680412 189.198029,151.618557 C190.624662,150.587629 190.862434,147.494845 189.911345,142.340206 C189.435801,138.731959 189.911345,136.154639 191.337978,134.608247 C192.764611,133.061856 197.28228,130.742268 204.890987,127.649485 C227.241564,118.371134 251.494318,112.185567 277.649249,109.092784 Z M273.26135,1.09446869 C276.115254,0 280.871762,-0.273617172 287.530872,0.273617172 C294.189983,0.820851516 302.51387,3.83064041 312.502536,9.30298384 C321.5399,14.5017101 326.296407,18.4691591 326.772058,21.2053308 C327.247709,23.9415025 323.680328,27.4985258 316.069917,31.8764005 C308.459505,35.9806581 304.654299,38.8536384 304.654299,40.4953414 C304.654299,42.1370445 303.346259,43.9839604 300.73018,46.0360892 C298.114101,48.088218 296.806062,50.0035382 296.806062,51.7820498 C296.806062,53.5605614 295.379109,55.1338601 292.525205,56.501946 C289.19565,57.8700318 288.006523,58.8960962 288.957824,59.5801392 C289.909126,60.2641821 294.189983,61.4270551 301.800394,63.0687581 C333.668994,69.9091874 374.337132,85.3685576 423.804809,109.446869 C428.085666,111.362189 437.836506,115.329638 453.05733,121.349216 C468.278153,127.368793 476.958779,131.062625 479.099208,132.430711 C481.239636,133.798797 486.709619,135.645713 495.509158,137.971459 C504.308697,140.297205 510.848894,142.417738 515.129751,144.333058 C530.350575,150.079019 547.711827,155.004128 567.213507,159.108385 C580.056077,161.57094 593.612123,164.854346 607.881645,168.958604 L645.695879,179.629673 C670.905368,186.74372 675.661876,191.942446 659.965401,195.225852 C654.733243,196.320321 652.117164,197.277981 652.117164,198.098832 C652.117164,199.193301 648.549784,200.629791 641.415023,202.408303 C634.280261,204.186814 629.285929,204.802453 626.432024,204.255219 C622.151168,203.434367 612.994891,203.913197 598.963194,205.691709 C584.931497,207.470221 576.013046,209.317136 572.20784,211.232457 C569.353935,212.87416 564.716341,214.652671 558.295056,216.567992 C551.873771,218.483312 547.474001,219.440972 545.095748,219.440972 C543.193145,219.440972 536.534034,217.799269 525.118417,214.515863 C490.871563,205.212879 455.673409,190.984786 419.523952,171.831584 C383.374496,152.678382 352.932849,131.883477 328.19901,109.446869 C322.966852,104.795377 314.88079,99.2546291 303.940823,92.8246255 C293.000856,86.394622 284.914793,82.2219601 279.682635,80.3066399 C274.450477,78.9385541 270.526358,78.5965326 267.910279,79.2805755 C265.2942,79.9646185 262.321383,82.2219601 258.991828,86.0526005 C255.186622,90.1568581 252.213805,92.6194127 250.073376,93.4402642 C247.932948,94.2611157 245.197956,96.4500531 241.868401,100.007076 C238.538846,103.5641 232.117561,109.036443 222.604546,116.424107 L180.509456,148.02689 C162.434728,162.254983 147.451729,172.652435 135.560461,179.219248 C115.107479,190.984786 103.691861,196.867555 101.313608,196.867555 C100.362306,196.867555 96.6760128,198.577662 90.2547279,201.997877 C83.8334429,205.418092 78.0067213,207.949051 72.7745632,209.590754 C67.542405,211.232457 58.6239537,214.31065 46.0192091,218.825333 C33.4144645,223.340017 26.5175287,225.597358 25.3284019,225.597358 C24.139275,225.597358 21.1664579,226.691827 16.4099505,228.880764 C14.5073476,229.701616 12.1290939,230.385659 9.27518942,230.932893 C6.42128499,231.480127 4.16194397,231.822149 2.49716638,231.958957 C0.832388795,232.095766 0,231.890553 0,231.343319 C0,229.154381 4.63759471,224.502889 13.9127841,217.388843 C23.1879736,210.274797 34.4846786,202.613516 47.8028993,194.405001 C53.5107082,191.121595 60.4076439,186.812124 68.4937065,181.476589 C76.5797691,176.141054 87.6386488,169.232221 101.670346,160.750088 C115.702042,152.267956 126.523097,145.427527 134.133509,140.228801 C139.841317,136.671777 147.570642,130.857412 157.321482,122.785706 C167.072322,114.713999 171.947742,110.404529 171.947742,109.857294 C171.947742,109.583677 175.990774,105.205803 184.076836,96.7236702 L199.059835,81.948343 C208.097199,73.1925935 215.945436,64.0264182 222.604546,54.4498172 C224.031498,53.0817313 225.458451,51.6452412 226.885403,50.1403467 C228.312355,48.6354523 230.452783,45.9676849 233.306688,42.1370445 C249.478813,19.9740535 262.797034,6.29319495 273.26135,1.09446869 Z" id="合"></path>
            <path d="M44.212801,223.826554 C54.1963367,214.488858 62.5159498,216.823282 69.1716403,230.829827 C75.3519243,242.835437 76.3027372,271.015272 72.024079,315.369331 C69.6470467,338.380084 68.3479111,371.345333 68.1102079,392.188406 C67.8725046,413.031479 66.8028401,424.119994 64.9012142,425.45395 C62.9995884,426.787907 61.573369,430.456288 60.6225561,436.459093 C58.2455238,445.463301 53.1349043,450.799127 45.2906977,452.466573 C37.446491,454.134019 28.0572134,451.799595 17.1228648,445.463301 L5,436.959327 L6.42621939,416.949977 C7.85243877,403.276921 9.99176785,393.105501 12.8442066,386.435718 C15.6966454,379.765934 18.3113809,368.594047 20.6884133,352.920056 C23.7730672,342.170692 26.0285038,325.401797 27.4547232,302.613371 C29.5940523,268.430731 31.852233,249.338476 34.2292653,245.336606 C36.6062976,241.334736 37.7948137,237.8331 37.7948137,234.831697 C37.7948137,231.830295 39.9341428,228.161914 44.212801,223.826554 Z M439.275571,167.800374 C449.259107,167.133396 466.492591,166.883279 490.976024,167.050023 C515.459457,167.216768 531.029018,167.800374 537.684709,168.800842 C546.242025,170.468287 557.889483,171.968989 572.627084,173.302945 C619.216917,177.304815 603.528504,184.308088 625.397201,194.312763 C640.134801,200.982546 649.405227,206.151628 653.208479,209.820009 C657.487137,213.48839 659.745318,218.323983 659.983021,224.326788 C660.220724,230.329593 657.962544,236.165654 653.208479,241.83497 C649.880634,246.503818 647.979008,254.757675 647.503602,266.59654 C647.028195,278.435406 645.720827,375.203834 645.007718,387.709677 C644.294608,400.215521 642.749537,407.8024 640.372505,410.470313 C636.569253,414.472183 634.667627,418.640798 634.667627,422.976157 C634.667627,429.97943 628.487343,438.73352 616.126775,449.238429 C603.766207,459.743338 603.290801,474 591.881045,474 C580.47129,474 573.8156,473.499766 571.913974,472.499299 C569.061535,471.165342 565.971393,468.580801 562.643548,464.745676 C559.315703,460.91055 557.65178,457.825775 557.65178,455.491351 C557.65178,452.489949 548.381354,403.967274 551.233793,404.967742 C559.791109,408.302634 570.250051,408.302634 582.610619,404.967742 C588.790903,403.633785 594.020375,399.465171 598.299033,392.461898 C602.577691,384.458158 601.864581,315.869565 597.585923,281.85367 C593.307265,249.83871 591.167936,259.49587 591.167936,250.825152 C591.167936,244.155369 590.573678,240.070126 589.385162,238.569425 C588.196645,237.068724 584.512245,235.151161 578.331961,232.816737 C570.250051,229.481845 559.315703,226.897304 545.528915,225.063114 C531.742128,223.228923 523.660218,221.728222 521.283186,220.56101 C518.906154,219.393798 502.980037,218.143213 473.504836,216.809257 C426.915003,215.4753 155.22021,218.810192 129.072854,226.813932 C115.286067,231.149291 104.47057,233.233598 96.6263634,233.066854 C88.7821568,232.900109 84.8600535,200.482313 84.8600535,195.813464 C84.8600535,191.144616 96.2698086,186.142278 119.089319,180.806452 C141.908829,175.470625 405.521712,171.135266 439.275571,167.800374 Z" id="同"></path>
        </g>
    </g>
</svg>