<svg width="350" height="350" viewBox="0 0 350 350" fill="none" xmlns="http://www.w3.org/2000/svg">
<path d="M189.629 208.5C186.434 208.5 183.1 208.842 179.642 209.49L179.296 209.555L166.332 213.474L166.303 213.483C163.641 214.315 158.467 215.427 150.449 216.796L150.358 216.811L150.268 216.829C142.485 218.386 136.313 219.543 131.724 220.307C127.197 221.062 118.758 222.215 106.3 223.773L93.9828 224.946L93.8752 224.96C90.814 225.355 88.3541 225.712 86.5462 226.031C85.6514 226.188 84.8231 226.353 84.1218 226.529C83.7736 226.616 83.3722 226.726 82.9678 226.866C82.6681 226.97 81.9188 227.237 81.1405 227.756L80.605 228.113L80.1499 228.568C79.39 229.328 78.6313 230.273 78.0534 231.429C77.179 233.178 77.0742 234.981 77.0742 236.094C77.0742 238.692 78.2497 240.717 79.2688 242.014C80.2854 243.308 81.5636 244.416 82.8557 245.366C85.537 247.482 88.8491 249.122 92.5437 250.426C96.6626 251.88 101.452 252.63 106.752 252.842L106.882 252.848H108.477C111.508 252.848 116.407 252.533 122.979 251.955C130.674 251.587 136.171 251.201 138.805 250.717L192.304 243.701L192.375 243.69C197.669 242.876 203.139 241.76 208.784 240.349C211.764 239.604 214.494 238.684 216.705 237.472C218.633 236.414 221.193 234.573 222.335 231.471C222.794 230.403 223.082 229.197 223.082 227.891C223.082 226.855 222.945 225.624 222.471 224.363C221.717 221.741 219.981 219.82 218.399 218.503C216.45 216.878 213.327 215.295 209.847 213.748L209.788 213.722L209.729 213.697C205.981 212.119 202.937 210.899 200.639 210.063L200.557 210.033L200.473 210.005C197.252 208.931 193.573 208.5 189.629 208.5Z" fill="black"/>
<path fill-rule="evenodd" clip-rule="evenodd" d="M251.152 288.07C249.938 288.07 248.092 288.291 246.079 288.572C243.947 288.87 241.156 289.306 237.726 289.877L221.801 291.324L213.611 292.202L85.3354 303.331L50.7592 306.554L51.3477 313.027L50.7443 306.555L50.7517 306.555C44.3277 307.139 39.5304 307.521 36.3175 307.71L36.2653 307.714L24.7194 308.579C23.0692 308.596 21.2122 308.78 19.4755 309.431C17.6449 310.118 15.3914 311.572 14.2967 314.315C13.8084 315.411 13.5 316.656 13.5 318.008C13.5 320.364 14.3565 322.396 15.2775 323.942C16.3857 325.839 18.2551 327.4 19.7073 328.513C21.4216 329.827 23.6328 331.301 26.2613 332.919C31.3809 336.069 34.387 337.95 35.4374 338.651L35.7741 338.875L36.1361 339.056C37.8647 339.92 39.9953 340.639 42.3132 341.271L42.3799 341.289L42.447 341.306C44.5696 341.837 46.7626 342.086 49.0039 342.086H50.7617C53.2955 342.086 57.1271 341.254 61.4845 340.118L61.5193 340.109L61.554 340.099C65.6913 338.971 70.1348 337.93 74.888 336.979L74.9135 336.974L74.939 336.969C79.4753 336.024 85.9968 334.871 94.5564 333.509C103.055 332.157 110.948 331.099 118.239 330.331L118.346 330.32L118.453 330.305C125.154 329.375 138.351 328.408 158.307 327.43C178.179 326.456 192.469 325.673 201.137 325.083C209.167 324.702 215.913 324.512 221.395 324.508L243.952 325.68H244.121C245.59 325.68 250.57 325.775 259.204 325.971C266.981 326.152 272.318 326.251 275.148 326.264C276.109 326.434 277.125 326.559 278.105 326.559C280.057 326.559 283.009 326.198 285.362 324.034C288.56 321.277 289 317.138 289 314.492V314.199C289 310.866 287.192 308.218 285.764 306.542C284.184 304.688 282.059 302.861 279.625 301.062L279.572 301.023L279.519 300.985C274.824 297.66 271.293 295.235 268.997 293.774L268.813 293.656L268.62 293.551C266.168 292.214 263.459 291.025 260.521 289.968C257.502 288.732 254.366 288.07 251.152 288.07ZM259.355 319.473L259.208 325.971L259.204 325.971L259.355 319.473ZM221.562 318.008V324.508L221.395 324.508L221.225 324.499L221.562 318.008ZM200.762 318.594L201.071 325.086L201.137 325.083L201.204 325.079L200.762 318.594ZM20.8789 320.645L15.3052 323.989L15.2775 323.942C15.2633 323.918 15.2493 323.894 15.2353 323.869L20.8789 320.645ZM20.293 316.836L14.4792 313.929C14.4159 314.056 14.355 314.184 14.2967 314.315C14.2364 314.466 14.1796 314.621 14.1265 314.78L20.293 316.836ZM24.9805 315.078V308.578C24.8941 308.578 24.807 308.579 24.7194 308.579L24.4943 308.596L24.9805 315.078ZM214.238 298.672L213.546 292.209L213.611 292.202L213.676 292.196L214.238 298.672ZM238.555 296.328L237.966 289.855L237.726 289.877L237.486 289.917L238.555 296.328Z" fill="black"/>
<path d="M235.562 31.0938C232.74 31.0938 228.587 31.5769 223.506 32.3587L223.213 32.4038L222.924 32.4705C218.13 33.5769 213.806 34.2904 209.936 34.6422L209.757 34.6585L209.579 34.6827C205.399 35.2527 200.729 35.8253 195.565 36.4001C190.083 36.8114 179.359 37.8969 163.531 39.6341L125.959 43.4499L89.2577 48.1477L89.2459 48.1492C78.2913 49.5185 71.3619 50.4087 69.0716 50.7731L50.2177 52.2234L50.0575 52.2423C48.4248 52.4344 47.1473 52.5733 46.2054 52.663C45.352 52.7443 44.9584 52.7664 44.8614 52.7718C44.8389 52.7731 44.8324 52.7734 44.8398 52.7734H44.4408L38.0163 53.4159L37.8491 53.4398C36.1501 53.6825 34.2742 54.082 32.5513 54.8358C31.054 55.4908 28.4407 56.9554 27.0443 60.02C26.7279 60.6663 26 62.292 26 64.2891C26 66.9962 26.9777 69.2867 27.9735 70.9655C29.171 73.0439 30.704 74.9435 32.4447 76.6842L32.662 76.9014L32.8952 77.1014C34.6395 78.5965 37.1134 80.374 40.1093 82.3712L40.2677 82.4768L40.4309 82.5748C43.4868 84.4083 46.3073 85.9788 48.8793 87.2648C52.0237 88.837 55.4097 89.5742 58.9023 89.5742H60.0742C63.1782 89.5742 67.1228 88.4034 70.9201 87.0743C74.5153 85.816 79.637 84.3186 86.383 82.5839C93.1214 80.8511 99.2454 79.4167 104.761 78.2755C110.076 77.176 118.279 75.9409 129.52 74.5833C140.748 73.4225 153.839 72.2589 168.801 71.093C183.661 69.9351 197.612 69.3594 210.66 69.3594C216.57 69.3594 224.757 69.5506 235.266 69.9398C240.595 70.1372 245.096 70.2383 248.746 70.2383C252.261 70.2383 255.204 70.1553 257.388 69.9426C260.189 69.908 263.01 69.535 265.618 68.557L266.011 68.4096L266.386 68.2218C270.179 66.3254 272.653 63.0189 273.548 58.9933L273.738 58.136V57.2578C273.738 55.9785 273.478 54.5783 273.29 53.6381C272.806 51.2178 271.464 49.3747 270.667 48.3784C269.749 47.2309 268.63 46.0999 267.441 45.0116C264.299 41.9293 259.454 39.073 253.787 36.3312C247.591 33.1383 241.428 31.0938 235.562 31.0938Z" fill="black"/>
</svg>
