<svg width="350" height="350" viewBox="0 0 350 350" fill="none" xmlns="http://www.w3.org/2000/svg">
<path d="M73.6548 8.17747C75.0251 10.918 76.2583 13.6517 77.3559 16.3788C78.1382 19.0228 78.805 21.9666 79.3473 25.2204L79.3802 25.4174L79.4286 25.6111C80.2438 28.872 80.7844 32.1211 81.0544 35.3605C81.3308 38.6776 81.4756 42.9055 81.4766 48.0774L80.6935 85.7516L72.8167 86.3142L72.6972 86.3286C51.6016 88.8601 30.8923 89.8187 9.71867 90.7988C4.16347 91.0559 -1.42369 91.3146 -7.05817 91.6035C-10.3513 91.7535 -13.1113 91.9833 -15.2671 92.315C-16.3447 92.4808 -17.3684 92.6864 -18.2797 92.9544C-19.1033 93.1966 -20.2369 93.6015 -21.2422 94.3555C-23.324 95.9168 -25 98.2955 -25 101.432C-25 104.027 -23.4894 106.165 -22.4523 107.441C-21.236 108.938 -19.572 110.536 -17.5979 112.211C-13.2776 116.177 -8.17404 119.124 -2.3626 121.077C3.23022 123.241 8.65694 124.538 13.8936 124.874C17.1617 125.17 19.9411 125.328 22.1875 125.328H22.803L23.4002 125.179C28.0131 124.026 32.2559 122.82 36.3273 121.663C45.9396 118.932 54.5976 116.472 64.9191 115.612C70.0098 115.187 75.0169 114.92 79.9408 114.809C79.8618 116.377 79.7651 118.21 79.6563 120.275L79.6561 120.277C79.455 124.091 79.2123 128.694 78.9622 133.875C78.3794 145.945 77.7712 160.909 77.6153 175.503C77.46 190.049 77.7506 204.421 79.0069 215.235C79.6292 220.591 80.5231 225.41 81.8683 229.013C82.5358 230.801 83.4367 232.631 84.7348 234.091C86.1009 235.629 88.1615 237.006 90.8711 237.006C96.1893 237.006 100.45 234.343 103.67 230.585C106.812 226.919 109.206 221.967 111.094 216.497C114.882 205.526 117.121 191.013 118.501 176.359C119.889 161.626 120.438 146.403 120.724 133.864C120.829 129.24 120.898 125.034 120.959 121.358L120.959 121.356C121.02 117.687 121.071 114.546 121.141 112.045L177.526 111.234L216.602 110.355C222.6 110.353 227.639 109.909 231.484 108.861L231.544 108.844L231.605 108.826C234.743 107.885 238.58 106.138 240.084 102.378L240.441 101.484V99.6426C240.441 97.3378 239.616 95.0528 238.595 93.012L238.42 92.6611L238.192 92.3419C236.055 89.3502 231.99 86.4089 226.99 83.4677L214.161 75.9473L214.081 75.9043C209.889 73.6469 205.706 72.1127 201.547 71.4196L201.516 71.4145L201.485 71.4097C197.472 70.7923 193.698 70.4727 190.178 70.4727H189.866L189.558 70.5113C187.081 70.8208 183.315 71.4256 178.322 72.3065L178.29 72.3122L178.258 72.3183C175.418 72.8579 172.203 73.4859 168.742 74.1621L168.739 74.1627C154.196 77.0036 135.294 80.6961 121.504 82.2626L122.238 53.9065V53.8418C122.238 48.931 122.384 45.1643 122.653 42.4741L122.657 42.433L122.66 42.3918C122.93 39.1514 123.622 34.6761 124.778 28.8946L124.802 28.7757L124.82 28.6558C125.673 22.9677 126.751 19.1901 127.863 16.9665C129.347 13.9977 130.588 10.8777 130.588 8.13867C130.588 7.29055 130.454 6.21608 129.972 5.14824C129.606 3.42476 128.715 1.97664 127.757 0.844019C126.523 -0.614527 124.892 -1.89798 123.093 -3.05093C119.846 -5.31241 116.412 -7.10999 112.795 -8.42553L112.731 -8.44862L112.667 -8.46998C108.885 -9.73075 104.554 -10.8075 99.7027 -11.7171C94.9544 -12.6074 90.4877 -13.3522 86.3048 -13.9497L85.953 -14H85.5977C83.3921 -14 81.391 -13.8835 79.6543 -13.6092C77.9871 -13.346 76.2013 -12.8846 74.6756 -11.9691L74.3872 -11.7961L74.1246 -11.586C72.1844 -10.0338 70.0508 -7.57903 70.0508 -4.16602V0.529949L70.5786 1.58568C71.1174 2.66328 72.1069 4.7804 73.5751 8.01042L73.6134 8.09468L73.6548 8.17747Z" fill="black"/>
<path fill-rule="evenodd" clip-rule="evenodd" d="M250.803 297.848C255.194 297.479 260.3 297.051 266.589 296.484C275.726 295.91 283.406 295.624 289.651 295.619L315.259 297.377H315.431C317.109 297.377 322.775 297.52 332.572 297.815C341.467 298.088 347.543 298.237 350.726 298.255C351.806 298.511 352.933 298.696 354.011 298.696C356.382 298.696 359.203 298.019 361.155 295.611C362.42 294.182 363.081 292.452 363.45 290.89C363.847 289.211 364 287.329 364 285.342V284.903C364 282.057 362.799 279.369 361.291 277.028C359.738 274.618 357.541 272.089 354.845 269.455L354.807 269.418L354.768 269.382C349.443 264.395 345.478 260.797 342.929 258.652L342.786 258.532L342.634 258.423C339.952 256.489 336.956 254.747 333.666 253.185C330.414 251.42 326.979 250.444 323.413 250.444C322.099 250.444 320.06 250.763 317.767 251.186C315.35 251.632 312.179 252.288 308.274 253.146L290.17 255.322L280.805 256.649L165.17 273.351L125.99 278.18L125.977 278.181C118.684 279.058 113.229 279.633 109.57 279.918L109.517 279.922L96.3901 281.223C94.5354 281.247 92.5498 281.522 90.7747 282.402C88.7977 283.382 87.2318 285.056 86.5648 287.342C86.2015 288.38 86 289.479 86 290.619C86 292.704 86.5808 294.729 87.4286 296.607C88.272 298.528 89.8908 300.424 91.5981 302.155C93.4394 304.021 95.8661 306.164 98.82 308.567C104.616 313.283 108.073 316.142 109.312 317.234L109.572 317.463L109.861 317.654C111.663 318.845 113.965 319.883 116.576 320.824L116.64 320.847L116.703 320.868C119.017 321.633 121.434 322 123.926 322H125.922C127.462 322 129.264 321.646 131.069 321.184C132.968 320.699 135.243 319.992 137.862 319.089L137.895 319.077L137.928 319.065C142.655 317.361 147.725 315.791 153.142 314.359L153.167 314.353L153.191 314.346C158.366 312.921 165.787 311.187 175.509 309.142C185.171 307.11 194.147 305.519 202.441 304.365L202.549 304.35L202.655 304.33C227.15 299.833 233.331 299.314 250.795 297.848L250.803 297.848ZM250.455 292.859L250.408 292.863Z" fill="black"/>
<path d="M215.743 199.863L276.49 189.33L276.561 189.316C282.54 188.1 288.718 186.434 295.094 184.327C298.452 183.217 301.397 181.885 303.693 180.22C305.906 178.616 307.865 176.44 308.627 173.552C308.975 172.534 309.167 171.46 309.167 170.346C309.167 169.254 309.052 168.07 308.693 166.908C308.198 164.4 306.876 162.227 305.209 160.39C303.318 158.307 300.058 156.075 296.057 153.724L296.007 153.695L295.956 153.666C291.712 151.304 288.285 149.489 285.713 148.252L285.639 148.217L285.563 148.183C282.077 146.647 278.012 146 273.569 146C269.995 146 266.262 146.506 262.389 147.466L262.055 147.549L247.408 153.403L247.381 153.414C244.269 154.7 238.326 156.381 229.232 158.434L229.143 158.454L229.054 158.477C220.214 160.815 213.195 162.554 207.971 163.705C202.808 164.842 193.206 166.576 179.059 168.915L165.077 170.675L164.969 170.694C161.499 171.286 158.723 171.819 156.692 172.292C155.685 172.527 154.773 172.768 154.014 173.019C153.636 173.144 153.221 173.295 152.817 173.481C152.483 173.633 151.828 173.953 151.196 174.51L150.818 174.843L150.515 175.244C149.831 176.147 149.245 177.149 148.828 178.251C148.28 179.7 148.172 181.313 148.172 182.658C148.172 186.548 150.696 189.833 153.28 192.336C156.024 195.21 159.555 197.568 163.696 199.5C168.206 201.604 173.533 202.723 179.515 203.04L179.647 203.047H181.442C184.848 203.047 190.385 202.579 197.853 201.709C206.657 201.153 212.847 200.572 215.743 199.863Z" fill="black"/>
</svg>
