<svg width="350" height="350" viewBox="0 0 350 350" fill="none" xmlns="http://www.w3.org/2000/svg">
<path fill-rule="evenodd" clip-rule="evenodd" d="M31.2187 330.206C33.2732 332.314 36.1441 335.076 39.1618 336.498C42.0449 337.929 45.0952 338.852 48.2148 338.852C49.7204 338.852 52.2304 338.402 54.9579 337.856L54.9982 337.848L55.0384 337.839C57.6405 337.282 61.7235 336.52 67.3449 335.551L74.8239 334.4C77.9177 334.015 83.896 333.34 92.8027 332.372L92.8085 332.371L114.988 330.036C118.398 329.753 122.506 329.468 128.127 329.181C127.95 337.544 127.624 344.907 127.312 351.345C127.257 352.478 127.202 353.586 127.149 354.669L127.149 354.673C126.828 361.186 126.551 366.796 126.542 371.367C126.533 376.487 126.823 381.355 128.354 385.053C129.186 387.064 130.508 389.05 132.615 390.477C134.731 391.911 137.088 392.41 139.328 392.41H139.621C143.872 392.41 148.471 391.799 152.212 388.692C155.927 385.606 157.652 381.015 158.603 375.889C159.565 370.705 159.917 363.895 160.002 355.208C160.076 347.736 159.951 338.591 159.776 327.5L201.838 325.961C203.922 325.964 212.033 326.061 226.259 326.253L226.27 326.254L255.829 326.543C259.586 326.991 264.321 327.182 268.893 325.675C270.142 325.286 271.994 324.583 273.651 323.304C275.431 321.93 277.457 319.473 277.457 315.859C277.457 314.636 277.183 312.734 276.791 311.034C276.44 309.513 275.707 306.793 274.142 304.781L274.01 304.611L273.866 304.451C271.095 301.372 266.11 298.816 260.324 296.495C254.762 294.004 250.488 292.265 247.84 291.543L247.779 291.527L247.717 291.511C245.005 290.833 242.36 290.453 239.816 290.453C237.8 290.453 234.964 291.042 231.916 291.804C228.959 292.543 226.234 293.086 223.734 293.443C221.152 293.812 216.028 294.384 208.243 295.163L188.434 296.619L188.4 296.622L160.306 298.526L160.531 258.644C166.91 258.059 174.26 257.282 181.698 256.496L181.699 256.496L181.702 256.495C183.053 256.352 184.408 256.209 185.76 256.067C196.881 254.896 207.837 253.778 216.034 253.266L216.22 253.254L216.404 253.231C219.753 252.812 222.899 252.124 225.375 250.886C226.31 250.418 227.224 249.905 228.036 249.336C228.772 248.821 229.814 247.996 230.613 246.797L231.621 245.285V243.469C231.621 241.27 230.885 239.035 230.181 237.435C229.484 235.852 228.335 233.788 226.705 232.321L226.382 232.03L226.02 231.789C223.354 230.012 220.49 228.473 217.438 227.165L217.208 227.067L216.972 226.988C213.894 225.962 210.987 225.252 208.312 224.977C203.987 224.184 199.758 224.845 196.438 225.595L161.672 230.133L161.795 228.786L161.795 228.785C162.034 226.156 162.272 223.543 162.593 220.961C163.324 215.1 164.397 210.326 166.217 207.141L166.3 206.996L166.374 206.847C167.765 204.066 169.059 200.908 169.059 198.012C169.059 195.536 167.988 193.544 166.865 192.14C165.787 190.792 164.416 189.668 163.009 188.718C160.069 186.541 156.427 184.773 152.274 183.31C148 181.611 143.802 180.493 139.698 180.037L139.367 180H139.035C137.368 180 135.705 180.105 134.218 180.436C132.984 180.71 130.59 181.401 128.962 183.572L128.637 184.005L128.395 184.489C126.926 187.426 127.107 190.295 127.529 192.354C127.828 193.811 128.402 195.428 128.745 196.398C128.829 196.634 128.899 196.832 128.949 196.979C129.627 199.014 130.105 202.37 130.105 207.387V207.414L130.348 234.431L99.8646 236.662L99.7924 236.669C91.8089 237.448 84.3177 238.129 77.3181 238.712L77.2957 238.714L70.8468 239.3C69.8608 239.384 68.0543 239.647 66.2997 240.354C65.4187 240.709 64.1671 241.326 63.0545 242.406C61.8438 243.581 60.6836 245.448 60.6836 247.914C60.6836 248.897 60.8997 249.836 61.0442 250.388C61.2259 251.082 61.4835 251.856 61.8183 252.647C62.412 254.048 63.5502 256.221 65.5684 257.819C68.2875 260.034 71.301 261.648 74.6034 262.473L74.6563 262.486L74.7094 262.499C78.9036 263.467 83.1031 263.824 87.1914 263.824C90.9505 263.824 96.1934 263.517 102.822 262.934L129.52 261.752V300.412L122.646 301.117L122.295 301.257C121.997 301.305 121.541 301.368 120.897 301.447C119.571 301.608 117.648 301.81 115.102 302.052C110.021 302.536 102.611 303.168 92.8536 303.949C73.3174 305.512 59.7953 306.378 52.1665 306.568C44.2887 306.765 40.1087 306.859 39.4258 306.859H39.1954L30.9872 307.491L30.6319 307.562C27.8307 308.122 24.4063 309.56 22.6334 313.106L22 314.373V315.789C22 317.291 22.2433 318.845 22.9116 320.391C23.5718 321.918 24.5158 323.134 25.5152 324.133C26.2013 324.819 27.0176 325.705 28.0174 326.792L28.0854 326.866C29.033 327.897 30.1106 329.069 31.2187 330.206ZM155.726 229.265C155.757 228.929 155.788 228.59 155.819 228.25L155.82 228.236C155.789 228.581 155.758 228.924 155.726 229.265ZM122.587 301.205C122.587 301.205 122.568 301.209 122.526 301.217C122.564 301.208 122.586 301.204 122.587 301.205Z" fill="black"/>
<path d="M129.133 -27.803C130.015 -26.0396 130.809 -24.2827 131.516 -22.5324C132.005 -20.8635 132.428 -18.9935 132.775 -16.9124L132.808 -16.7154L132.856 -16.5217C133.379 -14.4327 133.724 -12.3555 133.896 -10.2879C134.075 -8.13903 134.171 -5.37057 134.172 -1.94923L133.651 34.9491L129.907 35.2166L129.787 35.2309C111.468 37.4292 103.186 38.3564 84.838 40.0765L84.8305 40.0772L84.8231 40.0779C72.692 41.2519 64.6195 41.8125 60.4023 41.8125H60.2742L48.7495 42.4036L48.7347 42.4043C46.5157 42.5054 44.6102 42.6621 43.0893 42.896C42.3291 43.013 41.5678 43.1637 40.8641 43.3707C40.248 43.5519 39.267 43.8896 38.3594 44.5703C36.6682 45.8387 35.1875 47.8756 35.1875 50.6211C35.1875 52.9728 36.5394 54.7926 37.2591 55.6784C38.1568 56.7832 39.344 57.9169 40.6858 59.0572C43.7358 61.8508 47.3248 63.9179 51.3788 65.2858C55.2152 66.767 58.9815 67.6731 62.6543 67.9114C64.8494 68.1097 66.75 68.2188 68.3125 68.2188H68.928L69.5252 68.0695C71.2139 67.6473 74.0503 66.8348 77.9524 65.6641C94.9895 60.553 105.065 59.7173 122.584 58.2643C123.354 58.2004 124.139 58.1353 124.939 58.0687C127.743 57.835 130.507 57.6735 133.232 57.5839L132.414 126.767V138.223C132.414 141.331 132.618 144.695 133.015 148.306C133.216 151.847 133.523 154.807 133.976 157.074L135.126 162.822C135.331 164.107 135.857 165.71 137.174 167.027C138.647 168.499 140.49 169.004 142.102 169.004H142.395C145.105 169.004 147.928 167.917 149.612 165.112L149.71 164.947L152.14 160.088C153.988 156.392 155.393 152.97 156.284 149.85L156.296 149.808L156.308 149.765C157.16 146.57 158.169 141.274 159.34 134.054C160.493 127.136 161.148 121.918 161.164 118.708L163.889 55.5823L193.665 54.5718L226.488 55.1572L252.608 54.5703C256.654 54.5675 260.179 54.2705 262.948 53.5152L263.009 53.4986L263.07 53.4805C265.231 52.832 268.482 51.4763 269.791 48.2046L270.148 47.3106V45.7617C270.148 43.8476 269.469 42.0508 268.742 40.596L268.566 40.2451L268.338 39.9258C266.69 37.6178 263.699 35.5066 260.359 33.5419L251.778 28.5117L251.699 28.4687C248.776 26.8949 245.813 25.8002 242.826 25.3024L242.795 25.2973L242.764 25.2925C240.021 24.8704 237.419 24.6484 234.973 24.6484H234.661L234.352 24.687C232.657 24.8989 230.111 25.3084 226.78 25.8964L226.753 25.901L226.727 25.906C223.679 26.4774 219.053 27.2492 212.814 28.224C208.155 28.952 198.542 29.4516 192.99 29.7402C191.439 29.8208 190.204 29.8849 189.484 29.933L189.413 29.9377L164.184 32.3435L164.68 1.93527V1.89453C164.68 -1.35615 164.776 -3.80448 164.948 -5.5181L164.952 -5.55922L164.955 -5.6004C165.128 -7.66895 165.575 -10.5817 166.34 -14.41L166.364 -14.529L166.382 -14.6489C166.942 -18.3839 167.63 -20.6966 168.253 -21.9436C169.25 -23.9359 170.246 -26.3235 170.246 -28.5742C170.246 -29.2586 170.144 -30.161 169.761 -31.0864C169.423 -32.5035 168.689 -33.6579 167.964 -34.5139C167.001 -35.6522 165.775 -36.6063 164.509 -37.4198C162.239 -38.998 159.83 -40.2585 157.287 -41.1833L157.223 -41.2064L157.159 -41.2278C154.549 -42.0979 151.585 -42.8329 148.296 -43.4495C145.111 -44.0469 142.109 -44.5475 139.293 -44.9497L138.941 -45H138.586C137.064 -45 135.637 -44.9201 134.364 -44.7191C133.16 -44.5291 131.729 -44.1775 130.447 -43.4086L130.159 -43.2355L129.896 -43.0254C128.444 -41.8639 126.555 -39.7997 126.555 -36.7773V-33.2533L127.083 -32.1975C127.426 -31.5106 128.074 -30.1258 129.054 -27.97L129.092 -27.8858L129.133 -27.803Z" fill="black"/>
</svg>
