<svg width="350" height="350" viewBox="0 0 350 350" fill="none" xmlns="http://www.w3.org/2000/svg">
<path fill-rule="evenodd" clip-rule="evenodd" d="M31.2187 330.206C33.2732 332.314 36.1441 335.076 39.1618 336.498C42.0449 337.929 45.0952 338.852 48.2148 338.852C49.7204 338.852 52.2304 338.402 54.9579 337.856L54.9982 337.848L55.0384 337.839C57.6405 337.282 61.7235 336.52 67.3449 335.551L74.8239 334.4C77.9177 334.015 83.896 333.34 92.8027 332.372L92.8085 332.371L114.988 330.036C118.398 329.753 122.506 329.468 128.127 329.181C127.95 337.544 127.624 344.907 127.312 351.345C127.257 352.478 127.202 353.586 127.149 354.669L127.149 354.673C126.828 361.186 126.551 366.796 126.542 371.367C126.533 376.487 126.823 381.355 128.354 385.053C129.186 387.064 130.508 389.05 132.615 390.477C134.731 391.911 137.088 392.41 139.328 392.41H139.621C143.872 392.41 148.471 391.799 152.212 388.692C155.927 385.606 157.652 381.015 158.603 375.889C159.565 370.705 159.917 363.895 160.002 355.208C160.076 347.736 159.951 338.591 159.776 327.5L201.838 325.961C203.922 325.964 212.033 326.061 226.259 326.253L226.27 326.254L255.829 326.543C259.586 326.991 264.321 327.182 268.893 325.675C270.142 325.286 271.994 324.583 273.651 323.304C275.431 321.93 277.457 319.473 277.457 315.859C277.457 314.636 277.183 312.734 276.791 311.034C276.44 309.513 275.707 306.793 274.142 304.781L274.01 304.611L273.866 304.451C271.095 301.372 266.11 298.816 260.324 296.495C254.762 294.004 250.488 292.265 247.84 291.543L247.779 291.527L247.717 291.511C245.005 290.833 242.36 290.453 239.816 290.453C237.8 290.453 234.964 291.042 231.916 291.804C228.959 292.543 226.234 293.086 223.734 293.443C221.152 293.812 216.028 294.384 208.243 295.163L188.434 296.619L188.4 296.622L160.306 298.526L160.531 258.644C166.91 258.059 174.26 257.282 181.698 256.496L181.699 256.496L181.702 256.495C183.053 256.352 184.408 256.209 185.76 256.067C196.881 254.896 207.837 253.778 216.034 253.266L216.22 253.254L216.404 253.231C219.753 252.812 222.899 252.124 225.375 250.886C226.31 250.418 227.224 249.905 228.036 249.336C228.772 248.821 229.814 247.996 230.613 246.797L231.621 245.285V243.469C231.621 241.27 230.885 239.035 230.181 237.435C229.484 235.852 228.335 233.788 226.705 232.321L226.382 232.03L226.02 231.789C223.354 230.012 220.49 228.473 217.438 227.165L217.208 227.067L216.972 226.988C213.894 225.962 210.987 225.252 208.312 224.977C203.987 224.184 199.758 224.845 196.438 225.595L161.672 230.133L161.795 228.786L161.795 228.785C162.034 226.156 162.272 223.543 162.593 220.961C163.324 215.1 164.397 210.326 166.217 207.141L166.3 206.996L166.374 206.847C167.765 204.066 169.059 200.908 169.059 198.012C169.059 195.536 167.988 193.544 166.865 192.14C165.787 190.792 164.416 189.668 163.009 188.718C160.069 186.541 156.427 184.773 152.274 183.31C148 181.611 143.802 180.493 139.698 180.037L139.367 180H139.035C137.368 180 135.705 180.105 134.218 180.436C132.984 180.71 130.59 181.401 128.962 183.572L128.637 184.005L128.395 184.489C126.926 187.426 127.107 190.295 127.529 192.354C127.828 193.811 128.402 195.428 128.745 196.398C128.829 196.634 128.899 196.832 128.949 196.979C129.627 199.014 130.105 202.37 130.105 207.387V207.414L130.348 234.431L99.8646 236.662L99.7924 236.669C91.8089 237.448 84.3177 238.129 77.3181 238.712L77.2957 238.714L70.8468 239.3C69.8608 239.384 68.0543 239.647 66.2997 240.354C65.4187 240.709 64.1671 241.326 63.0545 242.406C61.8438 243.581 60.6836 245.448 60.6836 247.914C60.6836 248.897 60.8997 249.836 61.0442 250.388C61.2259 251.082 61.4835 251.856 61.8183 252.647C62.412 254.048 63.5502 256.221 65.5684 257.819C68.2875 260.034 71.301 261.648 74.6034 262.473L74.6563 262.486L74.7094 262.499C78.9036 263.467 83.1031 263.824 87.1914 263.824C90.9505 263.824 96.1934 263.517 102.822 262.934L129.52 261.752V300.412L122.646 301.117L122.295 301.257C121.997 301.305 121.541 301.368 120.897 301.447C119.571 301.608 117.648 301.81 115.102 302.052C110.021 302.536 102.611 303.168 92.8536 303.949C73.3174 305.512 59.7953 306.378 52.1665 306.568C44.2887 306.765 40.1087 306.859 39.4258 306.859H39.1954L30.9872 307.491L30.6319 307.562C27.8307 308.122 24.4063 309.56 22.6334 313.106L22 314.373V315.789C22 317.291 22.2433 318.845 22.9116 320.391C23.5718 321.918 24.5158 323.134 25.5152 324.133C26.2013 324.819 27.0176 325.705 28.0174 326.792L28.0854 326.866C29.033 327.897 30.1106 329.069 31.2187 330.206ZM155.726 229.265C155.757 228.929 155.788 228.59 155.819 228.25L155.82 228.236C155.789 228.581 155.758 228.924 155.726 229.265ZM122.587 301.205C122.587 301.205 122.568 301.209 122.526 301.217C122.564 301.208 122.586 301.204 122.587 301.205Z" fill="black"/>
<path d="M82.0514 -33.3558C82.914 -31.6307 83.6904 -29.9133 84.3823 -28.2036C84.8535 -26.5905 85.2632 -24.7758 85.6012 -22.748L85.6406 -22.5116L85.6987 -22.2792C86.2082 -20.2411 86.5444 -18.2172 86.7121 -16.2049C86.888 -14.0948 86.9836 -11.3586 86.9844 -7.9562L86.4768 28.0171L83.8113 28.2075C77.7856 28.5507 71.4365 29.2455 65.2499 29.9226C63.9621 30.0636 62.6811 30.2038 61.4118 30.3398C53.9161 31.1434 46.7542 31.8125 40.2148 31.8125H40.0611L28.5166 32.4046L28.4991 32.4054C26.2657 32.5073 24.3208 32.666 22.7498 32.9077C21.9645 33.0285 21.1559 33.1873 20.3944 33.4113C19.7381 33.6043 18.622 33.9828 17.5719 34.7703C15.6987 36.1752 14 38.4827 14 41.6211C14 44.3455 15.5588 46.4023 16.2955 47.3089C17.2449 48.4774 18.4786 49.6523 19.8366 50.8072C22.9883 53.6903 26.6893 55.8193 30.8513 57.2265C34.7527 58.7308 38.608 59.6616 42.3893 59.9085C44.5944 60.1074 46.5237 60.2188 48.125 60.2188H48.8636L49.5802 60.0396C51.2942 59.6111 54.151 58.7923 58.0522 57.622C59.9186 57.062 61.5191 56.5699 62.9324 56.1353C67.2714 54.801 69.8456 54.0094 72.9283 53.4667C76.0279 52.9209 79.6593 52.6387 86.0069 52.5407L85.2266 100.748V112.223C85.2266 115.366 85.4327 118.758 85.831 122.388C86.0324 125.936 86.3421 128.941 86.8079 131.27L87.9538 137C88.1826 138.41 88.7724 140.226 90.2798 141.734C91.9783 143.432 94.0971 144.004 95.9141 144.004H96.207C99.1866 144.004 102.379 142.797 104.282 139.626L104.4 139.428L106.847 134.535C108.713 130.803 110.145 127.322 111.058 124.125L111.073 124.074L111.086 124.023C111.953 120.775 112.968 115.435 114.139 108.216C115.282 101.359 115.95 96.0965 115.976 92.7899L118.551 50.7274L178.363 50.5703H178.37C182.471 50.57 186.116 50.273 189.024 49.48L189.097 49.4601L189.169 49.4384C191.373 48.7773 195.04 47.3067 196.532 43.576L196.961 42.5032V40.7617C196.961 38.621 196.204 36.6602 195.449 35.1488L195.238 34.7277L194.964 34.3446C193.181 31.8483 190.023 29.647 186.679 27.68L178.081 22.6399L177.985 22.5883C174.986 20.9731 171.919 19.8353 168.803 19.316L168.766 19.3098L168.729 19.3041C165.944 18.8758 163.291 18.6484 160.785 18.6484H160.412L160.041 18.6948C158.319 18.91 155.753 19.3232 152.418 19.9116C148.796 20.5509 145.217 21.2523 141.698 21.9422C133.777 23.4948 126.156 24.9887 119.009 25.5825L119.492 -4.05659V-4.10547C119.492 -7.34223 119.589 -9.75288 119.755 -11.4186L119.76 -11.4679L119.764 -11.5174C119.932 -13.5309 120.371 -16.4012 121.133 -20.2139L121.162 -20.3566L121.184 -20.5006C121.739 -24.2013 122.407 -26.3906 122.96 -27.4964C123.96 -29.4966 125.059 -32.0687 125.059 -34.5742C125.059 -35.3311 124.948 -36.344 124.528 -37.3948C124.135 -38.972 123.318 -40.2407 122.54 -41.1598C121.494 -42.3969 120.184 -43.4101 118.878 -44.2512C116.544 -45.8717 114.064 -47.1695 111.441 -48.1231L111.365 -48.1508L111.288 -48.1765C108.624 -49.0644 105.615 -49.8096 102.293 -50.4324C99.0952 -51.032 96.079 -51.5351 93.247 -51.9397L92.8248 -52H92.3984C90.8455 -52 89.3622 -51.9187 88.0203 -51.7069C86.7618 -51.5081 85.1853 -51.1302 83.7451 -50.2661L83.399 -50.0584L83.0839 -49.8063C81.5369 -48.5687 79.3672 -46.248 79.3672 -42.7773V-39.0172L80.0006 -37.7503C80.3347 -37.0822 80.9752 -35.7135 81.9558 -33.5562L82.0017 -33.4551L82.0514 -33.3558Z" fill="black"/>
<path fill-rule="evenodd" clip-rule="evenodd" d="M136.541 86.6797L130.257 87.308L130.132 87.3259C128.516 87.5568 126.84 87.9236 125.353 88.5743C124.038 89.1497 121.947 90.3538 120.85 92.7864C120.577 93.3445 120 94.6377 120 96.1953C120 98.4237 120.808 100.362 121.7 101.862C122.794 103.763 124.212 105.53 125.859 107.176L126.022 107.339L126.197 107.489C127.847 108.903 130.239 110.627 133.219 112.613L133.337 112.693L133.46 112.766C136.484 114.581 139.259 116.125 141.774 117.382C144.62 118.805 147.697 119.48 150.902 119.48H152.074C154.793 119.48 158.435 118.431 162.259 117.093C165.932 115.807 171.116 114.294 177.885 112.553C189.206 109.642 194.309 108.394 199.439 107.802C204.16 107.258 208.943 107.26 218.65 107.265C219.604 107.265 220.606 107.266 221.66 107.266C227.606 107.266 235.822 107.458 246.34 107.847C251.655 108.044 256.13 108.145 259.746 108.145C263.3 108.145 266.193 108.059 268.279 107.85C270.958 107.824 273.563 107.473 275.915 106.591L276.21 106.48L276.492 106.339C279.727 104.722 281.827 101.924 282.595 98.4657L282.738 97.8227V97.1641C282.738 96.1069 282.519 94.8859 282.329 93.9366C281.941 91.9993 280.849 90.4644 280.105 89.5341C279.269 88.4888 278.222 87.4273 277.065 86.3695C274.167 83.5164 269.553 80.7638 263.893 78.0268C257.831 74.9005 251.988 73 246.562 73C243.909 73 239.891 73.4601 234.81 74.2416L234.59 74.2755L234.374 74.3255C229.508 75.4483 225.094 76.1787 221.117 76.5403L220.983 76.5525L220.849 76.5706C211.404 77.8586 204.402 78.5889 198.037 79.2528C186.994 80.4044 177.865 81.3566 161.215 84.6743L142.411 86.1207L142.291 86.1348C140.652 86.3277 139.358 86.4685 138.395 86.5602C137.913 86.6061 137.536 86.6377 137.251 86.6573C136.984 86.6757 136.863 86.679 136.842 86.6796L136.841 86.6796C136.839 86.6797 136.84 86.6797 136.84 86.6797H136.541Z" fill="black"/>
</svg>
