<svg width="350" height="350" viewBox="0 0 350 350" fill="none" xmlns="http://www.w3.org/2000/svg">
<path d="M255.404 309.202C254.553 310.585 254.049 312.211 253.706 313.692L253.703 313.705L252.592 318.427C252.159 319.749 251.478 322 250.563 325.108C249.57 328.484 248.387 332.728 247.013 337.828C245.731 342.589 244.286 345.794 242.868 347.78C241.808 349.265 239.333 351.209 234.429 353.207C229.914 355.047 224.679 356.023 218.633 356.023H216.582C210.58 356.023 204.136 355.296 197.237 353.804L197.17 353.79L197.103 353.777C189.155 352.263 184.175 350.303 181.466 348.307C178.415 346.059 176.169 343.399 174.626 340.314L174.601 340.263L174.574 340.212C172.982 337.188 171.879 333.557 171.359 329.228L171.358 329.214L171.356 329.201C171.195 327.911 171.105 326.386 171.105 324.609C171.105 319.698 171.899 313.697 173.594 306.541L173.609 306.477L173.623 306.412C175.745 296.38 177.747 288.388 179.621 282.378C181.742 276.21 184.156 269.55 186.863 262.396C189.59 255.187 191.656 250.237 193.083 247.382C194.419 244.711 195.823 242.723 197.233 241.289L203.49 235.657L203.873 235.082C204.714 233.82 205.439 232.631 205.974 231.561L206.555 230.4V229.102C206.555 224.977 203.837 222.04 201.315 220.149C198.773 217.88 195.772 215.916 192.382 214.221C188.973 212.517 185.596 211.201 182.257 210.311L182.089 210.266L181.918 210.232C179.702 209.788 177.574 209.539 175.566 209.539H173.498L172.908 209.67C170.541 210.196 167.566 211.384 164.197 212.967C161.104 214.342 158.667 215.491 157.021 216.382C155.63 216.806 154.077 217.365 152.382 218.038L142.611 220.912L134.817 223.386C135.623 221.141 136.436 218.907 137.297 216.698C139.568 210.871 142.028 205.616 145.103 201.515L145.329 201.214L145.511 200.886C145.988 200.027 146.345 199.405 146.591 198.994C146.627 198.935 146.658 198.884 146.685 198.84L147.961 197.563V195.285C147.961 194.225 147.799 192.977 147.593 191.744C147.094 188.75 145.127 186.456 143.291 184.822C141.311 182.873 138.883 181.176 136.127 179.679C133.344 177.977 130.372 176.499 127.218 175.237L127.068 175.177L126.915 175.126C123.949 174.137 121.543 173.4 119.771 172.957L119.644 172.925L119.516 172.9C118.394 172.675 117.206 172.5 116.094 172.5C115.242 172.5 114.27 172.567 113.295 172.811C112.481 173.014 111.371 173.414 110.341 174.261C108.981 175.266 108.026 176.563 107.366 177.884L107.191 178.234L107.067 178.604C106.643 179.877 106.492 181.171 106.492 182.395V182.688C106.492 183.578 106.669 184.843 106.849 186.014C107.055 187.355 107.358 189.12 107.753 191.289L107.768 191.373L107.786 191.457C108.93 196.794 109.422 200.647 109.422 203.195C109.422 208.133 108.125 213.226 106.298 218.881C105.833 220.32 105.323 221.822 104.798 223.368C103.686 226.644 102.507 230.115 101.553 233.586L96.2185 235.3L96.1917 235.309C96.1968 235.307 96.1682 235.317 96.0916 235.34C96.0154 235.362 95.9123 235.392 95.7783 235.429C95.5095 235.503 95.1518 235.599 94.6976 235.717C93.7904 235.952 92.5527 236.263 90.9754 236.652C87.8239 237.427 83.3735 238.497 77.6169 239.863L77.5741 239.874L77.5315 239.884C71.7855 241.345 67.346 242.431 64.1912 243.148C62.6099 243.507 61.3926 243.764 60.5147 243.929C59.9623 244.032 59.655 244.077 59.5243 244.096C59.4716 244.104 59.4476 244.107 59.4477 244.109C59.4477 244.109 59.449 244.109 59.4513 244.109H58.7805L58.0398 244.321C57.2072 244.559 53.7502 245.099 46.8964 245.905L46.8419 245.911L38.069 247.121L37.8499 247.17C35.8412 247.616 33.1392 248.516 31.3259 250.743C30.0058 252.264 29.7344 254.023 29.7344 255.176C29.7344 257.751 31.1495 259.658 32.1634 260.749C33.6414 262.727 35.8588 264.332 38.1311 265.674C40.5441 267.331 43.4679 268.752 46.7798 269.994C49.9821 271.194 53.12 272.102 55.7422 272.102C58.7081 272.102 62.3441 270.9 66.0796 269.327L66.1296 269.306L66.1791 269.284C69.3511 267.874 73.655 266.396 79.1775 264.872L79.2704 264.847L94.7753 259.979L90.0746 274.823C87.409 282.432 84.4632 289.747 81.2387 296.769C77.8618 303.703 73.6181 310.971 68.4869 318.576C63.2881 326.084 58.4088 332.585 53.8488 338.095L53.8197 338.13L53.7912 338.166C49.2617 343.828 44.1483 349.417 38.443 354.932C32.7548 360.431 27.9315 364.598 23.9494 367.511L19.2306 370.46L19.0437 370.6C18.0742 371.327 17.0858 372.182 16.2912 373.176C15.5577 374.092 14.5 375.735 14.5 377.93C14.5 379.271 14.842 380.498 15.3736 381.561L15.5954 382.005L15.893 382.402C17.5176 384.568 19.929 385.773 22.6367 385.773C23.8451 385.773 25.0175 385.57 26.1338 385.198L26.3387 385.13L34.1147 381.84L34.1355 381.831C40.2454 379.301 47.2082 375.385 54.9844 370.201L55.012 370.183L55.0394 370.164C62.666 364.946 69.4434 359.492 75.3498 353.793C81.5701 347.981 87.3876 340.814 92.8296 332.362C98.489 324.264 103.607 315.114 108.199 304.938C112.898 294.951 116.302 287.058 118.344 281.342L118.373 281.259L118.4 281.175C120.181 275.635 121.958 269.71 123.732 263.403L127.618 249.559L155.334 240.765L155.411 240.738C157.882 239.873 159.668 239.399 160.882 239.171C160.818 239.639 160.726 240.075 160.61 240.481L160.585 240.569L160.563 240.658C160.229 241.991 158.937 246.166 156.565 253.479C154.185 260.819 151.814 269.02 149.451 278.075C147.096 286.714 145.393 294.096 144.375 300.18C142.764 308.259 141.941 315.919 141.941 323.145C141.941 325.809 142.043 328.39 142.25 330.884C142.867 339.886 144.624 347.717 147.728 354.176C150.58 360.513 154.712 366.237 160.039 371.35C165.771 376.853 174.369 381.277 185.253 384.905L185.309 384.924L185.366 384.942C194.209 387.679 204.249 388.996 215.41 388.996C218.625 388.996 221.929 388.896 225.323 388.698C232.019 388.491 238.8 387.78 245.663 386.569L245.756 386.552L245.848 386.533C252.512 385.119 258.633 383.39 264.195 381.329L264.313 381.286L264.428 381.237C269.901 378.922 274.471 376.011 277.735 372.309C280.572 369.443 283.312 365.764 283.312 361.523V360.334L283.182 359.744C282.472 356.553 280.31 353.55 277.853 350.871C276.222 348.901 274.963 347.002 274.032 345.178C273.321 343.397 272.459 340.078 271.527 334.882C270.753 329.252 270.422 325.733 270.422 324.023V323.701L269.243 313.682C269.19 312.207 268.813 310.533 267.743 309.004C266.544 307.292 264.864 306.317 263.21 305.844L262.47 305.633H261.406C258.137 305.633 256.233 307.854 255.404 309.202Z" fill="black"/>
<path d="M82.0514 -33.3558C82.914 -31.6307 83.6904 -29.9133 84.3823 -28.2036C84.8535 -26.5905 85.2632 -24.7758 85.6012 -22.748L85.6406 -22.5116L85.6987 -22.2792C86.2082 -20.2411 86.5444 -18.2172 86.7121 -16.2049C86.888 -14.0948 86.9836 -11.3586 86.9844 -7.9562L86.4768 28.0171L83.8113 28.2075C77.7856 28.5507 71.4365 29.2455 65.2499 29.9226C63.9621 30.0636 62.6811 30.2038 61.4118 30.3398C53.9161 31.1434 46.7542 31.8125 40.2148 31.8125H40.0611L28.5166 32.4046L28.4991 32.4054C26.2657 32.5073 24.3208 32.666 22.7498 32.9077C21.9645 33.0285 21.1559 33.1873 20.3944 33.4113C19.7381 33.6043 18.622 33.9828 17.5719 34.7703C15.6987 36.1752 14 38.4827 14 41.6211C14 44.3455 15.5588 46.4023 16.2955 47.3089C17.2449 48.4774 18.4786 49.6523 19.8366 50.8072C22.9883 53.6903 26.6893 55.8193 30.8513 57.2265C34.7527 58.7308 38.608 59.6616 42.3893 59.9085C44.5944 60.1074 46.5237 60.2188 48.125 60.2188H48.8636L49.5802 60.0396C51.2942 59.6111 54.151 58.7923 58.0522 57.622C59.9186 57.062 61.5191 56.5699 62.9324 56.1353C67.2714 54.801 69.8456 54.0094 72.9283 53.4667C76.0279 52.9209 79.6593 52.6387 86.0069 52.5407L85.2266 100.748V112.223C85.2266 115.366 85.4327 118.758 85.831 122.388C86.0324 125.936 86.3421 128.941 86.8079 131.27L87.9538 137C88.1826 138.41 88.7724 140.226 90.2798 141.734C91.9783 143.432 94.0971 144.004 95.9141 144.004H96.207C99.1866 144.004 102.379 142.797 104.282 139.626L104.4 139.428L106.847 134.535C108.713 130.803 110.145 127.322 111.058 124.125L111.073 124.074L111.086 124.023C111.953 120.775 112.968 115.435 114.139 108.216C115.282 101.359 115.95 96.0965 115.976 92.7899L118.551 50.7274L178.363 50.5703H178.37C182.471 50.57 186.116 50.273 189.024 49.48L189.097 49.4601L189.169 49.4384C191.373 48.7773 195.04 47.3067 196.532 43.576L196.961 42.5032V40.7617C196.961 38.621 196.204 36.6602 195.449 35.1488L195.238 34.7277L194.964 34.3446C193.181 31.8483 190.023 29.647 186.679 27.68L178.081 22.6399L177.985 22.5883C174.986 20.9731 171.919 19.8353 168.803 19.316L168.766 19.3098L168.729 19.3041C165.944 18.8758 163.291 18.6484 160.785 18.6484H160.412L160.041 18.6948C158.319 18.91 155.753 19.3232 152.418 19.9116C148.796 20.5509 145.217 21.2523 141.698 21.9422C133.777 23.4948 126.156 24.9887 119.009 25.5825L119.492 -4.05659V-4.10547C119.492 -7.34223 119.589 -9.75288 119.755 -11.4186L119.76 -11.4679L119.764 -11.5174C119.932 -13.5309 120.371 -16.4012 121.133 -20.2139L121.162 -20.3566L121.184 -20.5006C121.739 -24.2013 122.407 -26.3906 122.96 -27.4964C123.96 -29.4966 125.059 -32.0687 125.059 -34.5742C125.059 -35.3311 124.948 -36.344 124.528 -37.3948C124.135 -38.972 123.318 -40.2407 122.54 -41.1598C121.494 -42.3969 120.184 -43.4101 118.878 -44.2512C116.544 -45.8717 114.064 -47.1695 111.441 -48.1231L111.365 -48.1508L111.288 -48.1765C108.624 -49.0644 105.615 -49.8096 102.293 -50.4324C99.0952 -51.032 96.079 -51.5351 93.247 -51.9397L92.8248 -52H92.3984C90.8455 -52 89.3622 -51.9187 88.0203 -51.7069C86.7618 -51.5081 85.1853 -51.1302 83.7451 -50.2661L83.399 -50.0584L83.0839 -49.8063C81.5369 -48.5687 79.3672 -46.248 79.3672 -42.7773V-39.0172L80.0006 -37.7503C80.3347 -37.0822 80.9752 -35.7135 81.9558 -33.5562L82.0017 -33.4551L82.0514 -33.3558Z" fill="black"/>
<path fill-rule="evenodd" clip-rule="evenodd" d="M136.541 86.6797L130.257 87.308L130.132 87.3259C128.516 87.5568 126.84 87.9236 125.353 88.5743C124.038 89.1497 121.947 90.3538 120.85 92.7864C120.577 93.3445 120 94.6377 120 96.1953C120 98.4237 120.808 100.362 121.7 101.862C122.794 103.763 124.212 105.53 125.859 107.176L126.022 107.339L126.197 107.489C127.847 108.903 130.239 110.627 133.219 112.613L133.337 112.693L133.46 112.766C136.484 114.581 139.259 116.125 141.774 117.382C144.62 118.805 147.697 119.48 150.902 119.48H152.074C154.793 119.48 158.435 118.431 162.259 117.093C165.932 115.807 171.116 114.294 177.885 112.553C189.206 109.642 194.309 108.394 199.439 107.802C204.16 107.258 208.943 107.26 218.65 107.265C219.604 107.265 220.606 107.266 221.66 107.266C227.606 107.266 235.822 107.458 246.34 107.847C251.655 108.044 256.13 108.145 259.746 108.145C263.3 108.145 266.193 108.059 268.279 107.85C270.958 107.824 273.563 107.473 275.915 106.591L276.21 106.48L276.492 106.339C279.727 104.722 281.827 101.924 282.595 98.4657L282.738 97.8227V97.1641C282.738 96.1069 282.519 94.8859 282.329 93.9366C281.941 91.9993 280.849 90.4644 280.105 89.5341C279.269 88.4888 278.222 87.4273 277.065 86.3695C274.167 83.5164 269.553 80.7638 263.893 78.0268C257.831 74.9005 251.988 73 246.562 73C243.909 73 239.891 73.4601 234.81 74.2416L234.59 74.2755L234.374 74.3255C229.508 75.4483 225.094 76.1787 221.117 76.5403L220.983 76.5525L220.849 76.5706C211.404 77.8586 204.402 78.5889 198.037 79.2528C186.994 80.4044 177.865 81.3566 161.215 84.6743L142.411 86.1207L142.291 86.1348C140.652 86.3277 139.358 86.4685 138.395 86.5602C137.913 86.6061 137.536 86.6377 137.251 86.6573C136.984 86.6757 136.863 86.679 136.842 86.6796L136.841 86.6796C136.839 86.6797 136.84 86.6797 136.84 86.6797H136.541Z" fill="black"/>
</svg>
