<svg width="350" height="350" viewBox="0 0 350 350" fill="none" xmlns="http://www.w3.org/2000/svg">
<path d="M73.6548 8.17747C75.0251 10.918 76.2583 13.6517 77.3559 16.3788C78.1382 19.0228 78.805 21.9666 79.3473 25.2204L79.3802 25.4174L79.4286 25.6111C80.2438 28.872 80.7844 32.1211 81.0544 35.3605C81.3308 38.6776 81.4756 42.9055 81.4766 48.0774L80.6935 85.7516L72.8167 86.3142L72.6972 86.3286C51.6016 88.8601 30.8923 89.8187 9.71867 90.7988C4.16347 91.0559 -1.42369 91.3146 -7.05817 91.6035C-10.3513 91.7535 -13.1113 91.9833 -15.2671 92.315C-16.3447 92.4808 -17.3684 92.6864 -18.2797 92.9544C-19.1033 93.1966 -20.2369 93.6015 -21.2422 94.3555C-23.324 95.9168 -25 98.2955 -25 101.432C-25 104.027 -23.4894 106.165 -22.4523 107.441C-21.236 108.938 -19.572 110.536 -17.5979 112.211C-13.2776 116.177 -8.17404 119.124 -2.3626 121.077C3.23022 123.241 8.65694 124.538 13.8936 124.874C17.1617 125.17 19.9411 125.328 22.1875 125.328H22.803L23.4002 125.179C28.0131 124.026 32.2559 122.82 36.3273 121.663C45.9396 118.932 54.5976 116.472 64.9191 115.612C70.0098 115.187 75.0169 114.92 79.9408 114.809C79.8618 116.377 79.7651 118.21 79.6563 120.275L79.6561 120.277C79.455 124.091 79.2123 128.694 78.9622 133.875C78.3794 145.945 77.7712 160.909 77.6153 175.503C77.46 190.049 77.7506 204.421 79.0069 215.235C79.6292 220.591 80.5231 225.41 81.8683 229.013C82.5358 230.801 83.4367 232.631 84.7348 234.091C86.1009 235.629 88.1615 237.006 90.8711 237.006C96.1893 237.006 100.45 234.343 103.67 230.585C106.812 226.919 109.206 221.967 111.094 216.497C114.882 205.526 117.121 191.013 118.501 176.359C119.889 161.626 120.438 146.403 120.724 133.864C120.829 129.24 120.898 125.034 120.959 121.358L120.959 121.356C121.02 117.687 121.071 114.546 121.141 112.045L177.526 111.234L216.602 110.355C222.6 110.353 227.639 109.909 231.484 108.861L231.544 108.844L231.605 108.826C234.743 107.885 238.58 106.138 240.084 102.378L240.441 101.484V99.6426C240.441 97.3378 239.616 95.0528 238.595 93.012L238.42 92.6611L238.192 92.3419C236.055 89.3502 231.99 86.4089 226.99 83.4677L214.161 75.9473L214.081 75.9043C209.889 73.6469 205.706 72.1127 201.547 71.4196L201.516 71.4145L201.485 71.4097C197.472 70.7923 193.698 70.4727 190.178 70.4727H189.866L189.558 70.5113C187.081 70.8208 183.315 71.4256 178.322 72.3065L178.29 72.3122L178.258 72.3183C175.418 72.8579 172.203 73.4859 168.742 74.1621L168.739 74.1627C154.196 77.0036 135.294 80.6961 121.504 82.2626L122.238 53.9065V53.8418C122.238 48.931 122.384 45.1643 122.653 42.4741L122.657 42.433L122.66 42.3918C122.93 39.1514 123.622 34.6761 124.778 28.8946L124.802 28.7757L124.82 28.6558C125.673 22.9677 126.751 19.1901 127.863 16.9665C129.347 13.9977 130.588 10.8777 130.588 8.13867C130.588 7.29055 130.454 6.21608 129.972 5.14824C129.606 3.42476 128.715 1.97664 127.757 0.844019C126.523 -0.614527 124.892 -1.89798 123.093 -3.05093C119.846 -5.31241 116.412 -7.10999 112.795 -8.42553L112.731 -8.44862L112.667 -8.46998C108.885 -9.73075 104.554 -10.8075 99.7027 -11.7171C94.9544 -12.6074 90.4877 -13.3522 86.3048 -13.9497L85.953 -14H85.5977C83.3921 -14 81.391 -13.8835 79.6543 -13.6092C77.9871 -13.346 76.2013 -12.8846 74.6756 -11.9691L74.3872 -11.7961L74.1246 -11.586C72.1844 -10.0338 70.0508 -7.57903 70.0508 -4.16602V0.529949L70.5786 1.58568C71.1174 2.66328 72.1069 4.7804 73.5751 8.01042L73.6134 8.09468L73.6548 8.17747Z" fill="black"/>
<path d="M207.413 303.958L207.369 303.964L180.872 307.938L180.823 307.947C172.432 309.377 163.136 310.386 152.923 310.964L152.853 310.968L152.782 310.974C147.59 311.415 143.524 311.784 140.598 312.082C138.22 312.323 136.248 312.547 135.109 312.772L123.077 314.061L123.057 314.063C121.417 314.228 119.842 314.497 118.473 314.953C117.248 315.361 115.359 316.184 114.133 318.023C113.462 319.029 113.237 320.059 113.141 320.635C113.031 321.295 113 321.959 113 322.557C113 323.789 113.135 325.102 113.361 326.459L113.371 326.516L113.382 326.573C113.776 328.641 114.84 330.519 116.036 332.134C117.268 333.797 118.882 335.503 120.782 337.244L120.817 337.276L120.853 337.308C124.385 340.424 128.307 343.362 132.606 346.125L132.745 346.215L132.891 346.296C136.91 348.517 140.92 350 144.697 350H145.578C147.307 350 149.027 349.814 150.733 349.449C152.439 349.083 156.954 347.651 163.809 345.367C170.533 343.351 177.843 341.331 185.741 339.307C193.788 337.586 203.02 335.999 213.449 334.55C216.428 334.137 219.266 333.74 221.987 333.36C251.861 329.189 267.581 326.994 300.263 325.356H314.499C319.292 325.945 324.9 326.38 331.303 326.672C337.776 326.966 341.988 327.253 344.112 327.518L344.42 327.557H347.372C350.9 327.557 355.254 326.789 357.693 323.13C359.218 320.843 360 318.265 360 315.516V314.398L359.977 314.162C359.637 310.591 357.471 306.984 354.82 303.62C352.177 300.265 349.416 297.191 346.536 294.405C343.571 291.242 340.364 288.517 336.913 286.252L336.77 286.158L336.621 286.074C333.129 284.11 329.647 282.778 326.235 282.385L325.95 282.352H325.662C323.566 282.352 320.642 282.965 317.342 283.838L317.304 283.848L317.267 283.859C314.307 284.691 309.466 285.834 302.66 287.293L284.519 290.804L284.509 290.806C282.883 291.124 281.306 291.433 279.773 291.733C251.146 297.339 237.931 299.927 207.413 303.958Z" fill="black"/>
<path d="M279.42 137.279C277.319 138.025 274.895 139.098 272.181 140.453C267.396 142.657 261.714 144.758 255.107 146.744C248.311 148.491 243.641 149.633 241.027 150.193L240.908 150.218L212.67 157.719C211.748 157.942 207.502 158.63 199.397 159.816L199.243 159.839L182.544 163.354L170.143 165.045C166.068 165.07 162.392 165.54 159.346 166.683C156.524 167.741 152.907 169.905 152.332 174.224L152.288 174.553V175.325C152.288 177.857 153.11 180.184 154.426 182.241C156.263 185.728 159.362 188.228 163.087 189.974C167.077 191.844 172.329 192.774 178.455 193.081L178.579 193.087H181.345C183.508 193.087 186.106 192.927 189.098 192.63C193.451 192.332 198.565 191.888 204.432 191.302L204.555 191.289L204.677 191.271C210.656 190.374 217.977 189.038 226.62 187.27L226.647 187.265L262.84 180.26C267.42 179.625 272.687 178.398 278.604 176.627C284.432 175.17 288.949 173.991 292.129 173.097L292.333 173.04L301.558 169.58C303.112 169.246 304.633 168.779 305.95 168.082C307.253 167.392 308.903 166.178 309.739 164.125C310.227 163.125 310.795 161.789 310.974 160.366C311.259 159.189 311.324 157.941 311.324 156.842V156.428L311.256 156.02C310.943 154.141 310.109 152.017 309.078 149.852L308.998 149.683L308.905 149.521C307.06 146.292 303.867 143.827 300.156 141.862L300.138 141.852L292.226 137.744L291.944 137.639C290.122 136.955 288.278 136.435 286.416 136.086L285.959 136H285.494C283.556 136 281.445 136.559 279.42 137.279Z" fill="black"/>
<path d="M239.736 254.742L275.192 248.094L284.399 245.505C287.171 245.188 289.666 244.71 291.804 244.016C293.885 243.342 295.94 242.365 297.558 240.859C299.488 239.349 301.643 236.941 301.643 233.539C301.643 232.145 301.217 230.852 300.845 229.922C300.448 228.93 299.911 227.868 299.286 226.768C297.487 223.271 293.869 220.076 289.484 217.087C287.211 215.537 285.11 214.278 283.216 213.39C281.421 212.549 279.354 211.817 277.28 211.817C274.432 211.817 271.328 212.644 268.14 213.914L261.195 216.519C258.145 217.591 253.494 218.855 247.127 220.303L247.115 220.305L226.355 225.13C219.005 226.58 211.268 228.031 203.142 229.482C195.039 230.64 189.32 231.525 186.069 232.132L174.657 233.934L174.334 234.031C173.214 234.367 172.131 234.756 171.187 235.228C170.469 235.588 169.297 236.248 168.386 237.399C167.281 238.688 166.875 240.201 166.687 241.14C166.45 242.324 166.37 243.641 166.37 244.981V245.219L166.392 245.455C166.653 248.192 168.219 250.281 169.832 251.754C171.465 253.245 173.589 254.521 175.964 255.654L176.093 255.716L176.224 255.77C180.657 257.583 184.917 259.106 189.003 260.332L189.446 260.465L189.907 260.514C192.833 260.828 195.847 260.983 198.947 260.983H203.688L204.024 260.937C206.31 260.625 211.513 259.722 219.483 258.264L219.504 258.261L239.736 254.742Z" fill="black"/>
</svg>
