<svg width="350" height="350" viewBox="0 0 350 350" fill="none" xmlns="http://www.w3.org/2000/svg">
<path d="M255.404 309.202C254.553 310.585 254.049 312.211 253.706 313.692L253.703 313.705L252.592 318.427C252.159 319.749 251.478 322 250.563 325.108C249.57 328.484 248.387 332.728 247.013 337.828C245.731 342.589 244.286 345.794 242.868 347.78C241.808 349.265 239.333 351.209 234.429 353.207C229.914 355.047 224.679 356.023 218.633 356.023H216.582C210.58 356.023 204.136 355.296 197.237 353.804L197.17 353.79L197.103 353.777C189.155 352.263 184.175 350.303 181.466 348.307C178.415 346.059 176.169 343.399 174.626 340.314L174.601 340.263L174.574 340.212C172.982 337.188 171.879 333.557 171.359 329.228L171.358 329.214L171.356 329.201C171.195 327.911 171.105 326.386 171.105 324.609C171.105 319.698 171.899 313.697 173.594 306.541L173.609 306.477L173.623 306.412C175.745 296.38 177.747 288.388 179.621 282.378C181.742 276.21 184.156 269.55 186.863 262.396C189.59 255.187 191.656 250.237 193.083 247.382C194.419 244.711 195.823 242.723 197.233 241.289L203.49 235.657L203.873 235.082C204.714 233.82 205.439 232.631 205.974 231.561L206.555 230.4V229.102C206.555 224.977 203.837 222.04 201.315 220.149C198.773 217.88 195.772 215.916 192.382 214.221C188.973 212.517 185.596 211.201 182.257 210.311L182.089 210.266L181.918 210.232C179.702 209.788 177.574 209.539 175.566 209.539H173.498L172.908 209.67C170.541 210.196 167.566 211.384 164.197 212.967C161.104 214.342 158.667 215.491 157.021 216.382C155.63 216.806 154.077 217.365 152.382 218.038L142.611 220.912L134.817 223.386C135.623 221.141 136.436 218.907 137.297 216.698C139.568 210.871 142.028 205.616 145.103 201.515L145.329 201.214L145.511 200.886C145.988 200.027 146.345 199.405 146.591 198.994C146.627 198.935 146.658 198.884 146.685 198.84L147.961 197.563V195.285C147.961 194.225 147.799 192.977 147.593 191.744C147.094 188.75 145.127 186.456 143.291 184.822C141.311 182.873 138.883 181.176 136.127 179.679C133.344 177.977 130.372 176.499 127.218 175.237L127.068 175.177L126.915 175.126C123.949 174.137 121.543 173.4 119.771 172.957L119.644 172.925L119.516 172.9C118.394 172.675 117.206 172.5 116.094 172.5C115.242 172.5 114.27 172.567 113.295 172.811C112.481 173.014 111.371 173.414 110.341 174.261C108.981 175.266 108.026 176.563 107.366 177.884L107.191 178.234L107.067 178.604C106.643 179.877 106.492 181.171 106.492 182.395V182.688C106.492 183.578 106.669 184.843 106.849 186.014C107.055 187.355 107.358 189.12 107.753 191.289L107.768 191.373L107.786 191.457C108.93 196.794 109.422 200.647 109.422 203.195C109.422 208.133 108.125 213.226 106.298 218.881C105.833 220.32 105.323 221.822 104.798 223.368C103.686 226.644 102.507 230.115 101.553 233.586L96.2185 235.3L96.1917 235.309C96.1968 235.307 96.1682 235.317 96.0916 235.34C96.0154 235.362 95.9123 235.392 95.7783 235.429C95.5095 235.503 95.1518 235.599 94.6976 235.717C93.7904 235.952 92.5527 236.263 90.9754 236.652C87.8239 237.427 83.3735 238.497 77.6169 239.863L77.5741 239.874L77.5315 239.884C71.7855 241.345 67.346 242.431 64.1912 243.148C62.6099 243.507 61.3926 243.764 60.5147 243.929C59.9623 244.032 59.655 244.077 59.5243 244.096C59.4716 244.104 59.4476 244.107 59.4477 244.109C59.4477 244.109 59.449 244.109 59.4513 244.109H58.7805L58.0398 244.321C57.2072 244.559 53.7502 245.099 46.8964 245.905L46.8419 245.911L38.069 247.121L37.8499 247.17C35.8412 247.616 33.1392 248.516 31.3259 250.743C30.0058 252.264 29.7344 254.023 29.7344 255.176C29.7344 257.751 31.1495 259.658 32.1634 260.749C33.6414 262.727 35.8588 264.332 38.1311 265.674C40.5441 267.331 43.4679 268.752 46.7798 269.994C49.9821 271.194 53.12 272.102 55.7422 272.102C58.7081 272.102 62.3441 270.9 66.0796 269.327L66.1296 269.306L66.1791 269.284C69.3511 267.874 73.655 266.396 79.1775 264.872L79.2704 264.847L94.7753 259.979L90.0746 274.823C87.409 282.432 84.4632 289.747 81.2387 296.769C77.8618 303.703 73.6181 310.971 68.4869 318.576C63.2881 326.084 58.4088 332.585 53.8488 338.095L53.8197 338.13L53.7912 338.166C49.2617 343.828 44.1483 349.417 38.443 354.932C32.7548 360.431 27.9315 364.598 23.9494 367.511L19.2306 370.46L19.0437 370.6C18.0742 371.327 17.0858 372.182 16.2912 373.176C15.5577 374.092 14.5 375.735 14.5 377.93C14.5 379.271 14.842 380.498 15.3736 381.561L15.5954 382.005L15.893 382.402C17.5176 384.568 19.929 385.773 22.6367 385.773C23.8451 385.773 25.0175 385.57 26.1338 385.198L26.3387 385.13L34.1147 381.84L34.1355 381.831C40.2454 379.301 47.2082 375.385 54.9844 370.201L55.012 370.183L55.0394 370.164C62.666 364.946 69.4434 359.492 75.3498 353.793C81.5701 347.981 87.3876 340.814 92.8296 332.362C98.489 324.264 103.607 315.114 108.199 304.938C112.898 294.951 116.302 287.058 118.344 281.342L118.373 281.259L118.4 281.175C120.181 275.635 121.958 269.71 123.732 263.403L127.618 249.559L155.334 240.765L155.411 240.738C157.882 239.873 159.668 239.399 160.882 239.171C160.818 239.639 160.726 240.075 160.61 240.481L160.585 240.569L160.563 240.658C160.229 241.991 158.937 246.166 156.565 253.479C154.185 260.819 151.814 269.02 149.451 278.075C147.096 286.714 145.393 294.096 144.375 300.18C142.764 308.259 141.941 315.919 141.941 323.145C141.941 325.809 142.043 328.39 142.25 330.884C142.867 339.886 144.624 347.717 147.728 354.176C150.58 360.513 154.712 366.237 160.039 371.35C165.771 376.853 174.369 381.277 185.253 384.905L185.309 384.924L185.366 384.942C194.209 387.679 204.249 388.996 215.41 388.996C218.625 388.996 221.929 388.896 225.323 388.698C232.019 388.491 238.8 387.78 245.663 386.569L245.756 386.552L245.848 386.533C252.512 385.119 258.633 383.39 264.195 381.329L264.313 381.286L264.428 381.237C269.901 378.922 274.471 376.011 277.735 372.309C280.572 369.443 283.312 365.764 283.312 361.523V360.334L283.182 359.744C282.472 356.553 280.31 353.55 277.853 350.871C276.222 348.901 274.963 347.002 274.032 345.178C273.321 343.397 272.459 340.078 271.527 334.882C270.753 329.252 270.422 325.733 270.422 324.023V323.701L269.243 313.682C269.19 312.207 268.813 310.533 267.743 309.004C266.544 307.292 264.864 306.317 263.21 305.844L262.47 305.633H261.406C258.137 305.633 256.233 307.854 255.404 309.202Z" fill="black"/>
<path d="M149.041 -35.5489C146.153 -36.5805 143.089 -37.5008 139.856 -38.3144C136.482 -39.3568 133.26 -40 130.324 -40C128.675 -40 126.938 -39.8613 125.335 -39.39C123.821 -38.9445 121.674 -37.9722 120.284 -35.7608C119.405 -34.4079 118.758 -32.7197 118.758 -30.7773C118.758 -29.5839 119.016 -28.4915 119.287 -27.6351C119.9 -25.3275 121.071 -22.994 122.507 -20.7118C123.401 -19.0426 124.191 -17.0747 124.848 -14.7735L124.865 -14.7153L124.883 -14.6574C125.471 -12.7454 125.789 -10.6113 125.789 -8.21875V-7.82051L125.842 -7.42577C126.184 -4.86072 126.374 -1.44514 126.375 2.89289C125.998 55.7955 125.22 69.912 118.869 114.858C117.972 118.167 117 122.078 117 126.324C117 128.974 117.357 132.006 117.982 135.34L117.988 135.376L117.995 135.411C118.85 139.683 120.054 143.575 121.664 147.026L121.732 147.171L121.807 147.312C123.404 150.305 124.914 152.825 126.334 154.734C127.335 156.171 128.449 157.541 129.691 158.617C130.85 159.622 132.883 161.035 135.598 161.035H136.485L137.067 160.919C139.653 160.401 141.701 158.849 143.198 157.384C145.123 155.683 146.565 153.588 147.6 151.253C148.941 149.317 149.995 147.118 150.819 144.743C151.854 142.626 152.703 140.478 153.356 138.302L153.437 138.032L154.781 131.313V128.082C154.781 125.771 154.677 122.908 154.478 119.527C153.165 97.2083 153.359 86.6168 153.796 62.7652L153.796 62.7571C153.866 58.942 153.943 54.7876 154.02 50.1918C156.197 51.8577 159.038 54.1103 162.576 56.9848L162.584 56.9917L180.687 71.5907C185.875 76.0364 189.689 79.1689 191.952 80.7877C193.83 82.3935 197.006 84.726 201.26 87.6865C205.507 90.772 209.273 93.1531 212.263 94.2609C214.915 95.3091 217.694 95.8281 220.559 95.8281C221.872 95.8281 223.198 95.7414 224.445 95.4919C225.567 95.2676 226.993 94.8413 228.314 93.9221C230.521 92.4693 231.43 90.2479 231.833 88.7973C232.283 87.1777 232.418 85.3979 232.418 83.6758V83.476L232.405 83.2767C232.167 79.7063 231.344 76.0404 230.025 72.3039L230.006 72.2488L229.985 72.194C228.582 68.4531 226.523 64.8315 223.894 61.3258L223.838 61.2508L223.779 61.1776C221.041 57.7551 217.515 54.4842 213.319 51.3367L213.24 51.2777L213.16 51.2213C208.863 48.2141 203.542 45.3104 197.286 42.4829C190.909 39.4951 184.525 36.8022 178.134 34.4055L178.106 34.3949L178.078 34.3847C171.611 32.033 166.328 30.2359 162.269 29.0167L154.609 26.5877C154.85 21.7651 155.417 16.1131 156 10.3014L156 10.3005C156.276 7.54319 156.557 4.75001 156.807 1.99243C156.99 -0.0119362 157.266 -2.23088 157.641 -4.66969C157.977 -6.85305 158.46 -8.64337 159.04 -10.092L159.139 -10.3402L159.216 -10.5962C159.694 -12.1904 160.341 -13.9131 161.174 -15.7681C162.224 -17.6796 162.984 -19.8815 162.984 -22.2812V-22.8672C162.984 -25.4898 161.515 -27.3891 160.861 -28.1731C160.004 -29.2015 158.922 -30.1728 157.803 -31.068L157.73 -31.1266L157.655 -31.1828C155.425 -32.8549 152.469 -34.2645 149.13 -35.5164L149.086 -35.533L149.041 -35.5489Z" fill="black"/>
</svg>
