<svg width="350" height="350" viewBox="0 0 350 350" fill="none" xmlns="http://www.w3.org/2000/svg">
<path fill-rule="evenodd" clip-rule="evenodd" d="M235.801 191.891C234.015 191.891 231.73 192.444 229.696 192.999L229.617 193.02L229.538 193.044C228.066 193.486 225.92 193.917 222.983 194.285L222.638 194.328L222.3 194.407C219.342 195.103 215.844 195.649 211.775 196.019L211.486 196.045L211.201 196.097C207.124 196.838 201.644 197.598 194.709 198.37L175.914 200.131L175.815 200.144C169.554 200.927 165.383 201.398 163.191 201.581L163.171 201.583L59.7437 210.828L55.7799 209.341L49.1369 208.392C47.3416 208.016 45.8391 207.72 44.6538 207.514C43.6132 207.333 42.3108 207.125 41.2695 207.125H40.8076L40.3503 207.19C38.7918 207.413 37.1479 207.746 35.7061 208.322C34.7513 208.704 31.4968 210.095 30.5691 213.806L30.375 214.583V215.676C30.375 217.306 30.8274 218.793 31.2283 219.862C31.6651 221.027 32.2553 222.245 32.9265 223.476L33.0314 223.668L37.202 230.222C38.1231 231.769 39.1254 233.831 40.1877 236.479C41.1335 239.022 42.016 242.621 42.7553 247.426L42.7703 247.524L42.7884 247.621C43.7038 252.564 44.362 258.339 44.7411 264.972L44.7462 265.062L50.0078 327.032C50.05 328.839 50.4314 331.569 50.9658 334.778L52.3966 343.935C52.8564 348.537 54.0321 352.894 56.5206 356.315L56.6294 356.465L56.7466 356.608C57.8103 357.908 59.0095 359.167 60.3505 360.151C61.6239 361.085 63.6302 362.215 66.1719 362.215H66.9268L67.3841 362.15C71.5622 361.553 74.1699 358.629 75.6625 355.942L75.8029 355.689L75.9202 355.425C76.7453 353.569 77.4223 351.893 77.9047 350.446L77.9359 350.353L78.0166 350.084C78.8686 350.171 79.7141 350.203 80.5273 350.203C82.0141 350.203 83.6284 350.083 85.3379 349.872C89.5179 349.472 95.4925 348.785 103.226 347.819C110.986 347.043 117.169 346.464 121.79 346.079L143.098 344.328C152.772 343.747 160.446 343.262 166.113 342.871C171.966 342.675 177.635 342.382 183.118 341.992L196.076 341.537L198.684 345.449C200.067 347.708 201.693 350.77 203.565 354.701L203.592 354.757L203.62 354.813C205.561 358.695 207.714 362.341 210.184 364.459L210.482 364.714L210.809 364.932C212.416 366.003 214.284 366.947 216.362 367.362L216.993 367.488H218.516C221.676 367.488 224.604 366.322 227.133 364.804L227.315 364.695L227.489 364.575C230.983 362.156 234.068 358.566 236.856 354.277L236.895 354.217L236.933 354.156C239.744 349.615 242.007 344.761 243.725 339.606C245.352 334.724 246.864 329.377 248.265 323.575C249.669 317.954 250.612 312.799 251.047 308.139L258.061 259.623L259.247 250.435L259.253 250.378C259.418 248.891 259.763 246.696 260.318 243.721C261.063 240.732 261.649 238.113 262.063 235.887C262.515 234.295 263.085 232.917 263.748 231.723L263.889 231.47L264.006 231.206C264.597 229.876 265.225 228.761 265.87 227.831C266.72 226.798 267.815 225.36 268.45 223.779C268.867 222.853 269.149 221.876 269.353 221.061L269.547 220.285V219.484C269.547 217.621 268.937 216.004 268.424 214.905C267.867 213.711 267.13 212.517 266.321 211.362L266.227 211.228L266.127 211.099C264.636 209.183 263.04 207.367 261.338 205.654C259.374 203.467 256.396 201.184 252.883 198.842C249.288 196.445 246.094 194.57 243.488 193.527C241.017 192.539 238.422 191.891 235.801 191.891ZM139.762 229.738C139.762 228.635 139.603 227.581 139.32 226.585L139.489 226.567C141.243 226.539 144.44 226.324 148.946 225.949L149.027 227.049V234.365C148.634 238.03 148.348 242.642 148.156 248.151L146.72 268.838C146.51 270.18 146.391 271.508 146.391 272.805C146.391 275.393 146.777 277.921 147.579 280.355C148.687 283.912 150.673 287.12 153.286 289.993C156.077 293.261 159.499 295.773 163.469 297.51L163.629 297.58L163.792 297.641C167.467 299.019 171.931 300.082 177.059 300.903C182.232 301.73 187.168 302.156 191.855 302.156C195.612 302.156 199.368 301.948 203.12 301.531L203.327 301.508L203.532 301.471C206.913 300.875 209.941 300.271 212.605 299.657C214.213 299.31 215.863 298.83 217.321 298.101C217.954 297.785 218.782 297.307 219.592 296.604C218.92 300.544 218.123 304.27 217.207 307.785L217.173 307.914L217.144 308.045C216.257 312.128 215.377 315.763 214.507 318.959C213.041 318.298 211.536 317.685 209.992 317.121C207.716 316.218 205.44 315.56 203.209 315.281L202.807 315.23H200.645C199.024 315.23 197.407 315.342 195.796 315.565C193.448 315.78 186.348 316.461 174.53 317.604L174.491 317.608L158.457 319.357C155.57 319.567 148.895 320.157 138.522 321.118L138.511 321.118L117.214 323.161C111.129 323.555 104.202 324.141 96.4388 324.916C90.8868 325.209 85.0217 325.61 78.8447 326.118L71.1344 233.851L105.261 230.652L105.749 234.917L105.823 235.25C106.093 236.466 106.254 237.937 106.254 239.699C106.254 242.291 105.929 245.254 105.221 248.614L105.207 248.684L105.193 248.755C104.074 254.723 102.585 260.491 100.728 266.062C98.8629 271.657 97.0182 275.677 95.285 278.356C93.2896 281.439 91.0098 284.639 88.4388 287.955L82.8405 294.113C81.5084 295.473 79.5938 297.898 79.5938 301.223C79.5938 302.405 79.8478 304.196 81.0525 305.839C81.5389 306.574 82.2162 307.329 83.1474 307.949C84.4768 308.836 85.9329 309.188 87.2656 309.188C88.7997 309.188 90.1074 308.727 90.8515 308.43C91.6461 308.112 92.4435 307.708 93.2095 307.279L100.969 303.543L101.012 303.521C105.193 301.431 109.444 297.719 113.745 293.008L113.755 292.997C117.971 288.359 121.501 283.457 124.307 278.285C127.112 273.271 129.177 268.816 130.167 265.104L130.18 265.055L130.193 265.006C130.992 261.807 132.08 257.159 133.45 251.092C134.819 245.027 135.832 241.118 136.498 239.118C137.123 237.246 137.589 235.912 137.911 235.052C138.226 234.552 138.527 234.036 138.783 233.524L138.791 233.507C139.022 233.045 139.762 231.567 139.762 229.738ZM182.535 223.586C182.535 223.513 182.534 223.441 182.533 223.368L221.102 221.277L221.284 221.257C222.869 221.081 224.184 221.004 225.254 221.004C225.79 221.004 226.199 221.023 226.496 221.05C226.76 221.074 226.884 221.1 226.901 221.103C226.903 221.104 226.902 221.103 226.901 221.103L226.983 221.124L227.067 221.142C227.15 221.161 227.225 221.179 227.291 221.197C227.365 221.469 227.451 221.839 227.537 222.324C227.503 223.947 227.323 227.483 226.97 233.141L226.962 233.263L226.672 244.857C226.469 246.844 225.997 250.993 225.248 257.363L222.053 282.34C221.984 282.708 221.914 283.086 221.843 283.474C221.082 282.163 220.311 280.919 219.529 279.746L219.172 279.21L218.717 278.755C217.268 277.306 215.654 276.03 213.855 275.078C211.604 273.679 209.05 273.031 206.565 272.782L206.242 272.75H205.918C204.485 272.75 201.933 273.002 198.713 273.38L198.527 273.402L198.343 273.435C195.384 273.957 192.004 274.321 188.183 274.508H181.012C179.345 274.348 177.918 273.999 176.691 273.508L176.423 273.4L176.145 273.317C175.557 273.141 175.452 272.969 175.401 272.886L175.395 272.875C175.134 272.458 174.668 271.365 174.336 269.152C174.369 267.098 174.629 263.537 175.172 258.284L176.345 248.313L176.351 248.256C176.727 244.496 177.176 241.72 177.654 239.811L177.691 239.661L177.721 239.509C178.096 237.634 178.57 235.452 179.146 232.958C179.396 231.876 179.641 231.053 179.864 230.447C179.974 230.149 180.07 229.926 180.147 229.768C180.184 229.69 180.215 229.632 180.237 229.593C180.26 229.553 180.272 229.535 180.272 229.535C180.733 228.843 181.19 228.103 181.556 227.372L181.564 227.355C181.796 226.893 182.535 225.415 182.535 223.586Z" fill="black"/>
<path d="M82.0514 -33.3558C82.914 -31.6307 83.6904 -29.9133 84.3823 -28.2036C84.8535 -26.5905 85.2632 -24.7758 85.6012 -22.748L85.6406 -22.5116L85.6987 -22.2792C86.2082 -20.2411 86.5444 -18.2172 86.7121 -16.2049C86.888 -14.0948 86.9836 -11.3586 86.9844 -7.9562L86.4768 28.0171L83.8113 28.2075C77.7856 28.5507 71.4365 29.2455 65.2499 29.9226C63.9621 30.0636 62.6811 30.2038 61.4118 30.3398C53.9161 31.1434 46.7542 31.8125 40.2148 31.8125H40.0611L28.5166 32.4046L28.4991 32.4054C26.2657 32.5073 24.3208 32.666 22.7498 32.9077C21.9645 33.0285 21.1559 33.1873 20.3944 33.4113C19.7381 33.6043 18.622 33.9828 17.5719 34.7703C15.6987 36.1752 14 38.4827 14 41.6211C14 44.3455 15.5588 46.4023 16.2955 47.3089C17.2449 48.4774 18.4786 49.6523 19.8366 50.8072C22.9883 53.6903 26.6893 55.8193 30.8513 57.2265C34.7527 58.7308 38.608 59.6616 42.3893 59.9085C44.5944 60.1074 46.5237 60.2188 48.125 60.2188H48.8636L49.5802 60.0396C51.2942 59.6111 54.151 58.7923 58.0522 57.622C59.9186 57.062 61.5191 56.5699 62.9324 56.1353C67.2714 54.801 69.8456 54.0094 72.9283 53.4667C76.0279 52.9209 79.6593 52.6387 86.0069 52.5407L85.2266 100.748V112.223C85.2266 115.366 85.4327 118.758 85.831 122.388C86.0324 125.936 86.3421 128.941 86.8079 131.27L87.9538 137C88.1826 138.41 88.7724 140.226 90.2798 141.734C91.9783 143.432 94.0971 144.004 95.9141 144.004H96.207C99.1866 144.004 102.379 142.797 104.282 139.626L104.4 139.428L106.847 134.535C108.713 130.803 110.145 127.322 111.058 124.125L111.073 124.074L111.086 124.023C111.953 120.775 112.968 115.435 114.139 108.216C115.282 101.359 115.95 96.0965 115.976 92.7899L118.551 50.7274L178.363 50.5703H178.37C182.471 50.57 186.116 50.273 189.024 49.48L189.097 49.4601L189.169 49.4384C191.373 48.7773 195.04 47.3067 196.532 43.576L196.961 42.5032V40.7617C196.961 38.621 196.204 36.6602 195.449 35.1488L195.238 34.7277L194.964 34.3446C193.181 31.8483 190.023 29.647 186.679 27.68L178.081 22.6399L177.985 22.5883C174.986 20.9731 171.919 19.8353 168.803 19.316L168.766 19.3098L168.729 19.3041C165.944 18.8758 163.291 18.6484 160.785 18.6484H160.412L160.041 18.6948C158.319 18.91 155.753 19.3232 152.418 19.9116C148.796 20.5509 145.217 21.2523 141.698 21.9422C133.777 23.4948 126.156 24.9887 119.009 25.5825L119.492 -4.05659V-4.10547C119.492 -7.34223 119.589 -9.75288 119.755 -11.4186L119.76 -11.4679L119.764 -11.5174C119.932 -13.5309 120.371 -16.4012 121.133 -20.2139L121.162 -20.3566L121.184 -20.5006C121.739 -24.2013 122.407 -26.3906 122.96 -27.4964C123.96 -29.4966 125.059 -32.0687 125.059 -34.5742C125.059 -35.3311 124.948 -36.344 124.528 -37.3948C124.135 -38.972 123.318 -40.2407 122.54 -41.1598C121.494 -42.3969 120.184 -43.4101 118.878 -44.2512C116.544 -45.8717 114.064 -47.1695 111.441 -48.1231L111.365 -48.1508L111.288 -48.1765C108.624 -49.0644 105.615 -49.8096 102.293 -50.4324C99.0952 -51.032 96.079 -51.5351 93.247 -51.9397L92.8248 -52H92.3984C90.8455 -52 89.3622 -51.9187 88.0203 -51.7069C86.7618 -51.5081 85.1853 -51.1302 83.7451 -50.2661L83.399 -50.0584L83.0839 -49.8063C81.5369 -48.5687 79.3672 -46.248 79.3672 -42.7773V-39.0172L80.0006 -37.7503C80.3347 -37.0822 80.9752 -35.7135 81.9558 -33.5562L82.0017 -33.4551L82.0514 -33.3558Z" fill="black"/>
<path d="M242.464 118.037L166.273 129.198L145.719 132.433L145.707 132.435C141.909 133.018 139.139 133.39 137.331 133.569L137.251 133.577L130.52 134.43C129.145 134.479 127.439 134.778 125.835 135.793C123.943 136.991 122.805 138.797 122.352 140.726C122.123 141.573 122 142.456 122 143.362C122 144.999 122.356 146.564 122.856 147.981C123.424 149.627 124.475 151.161 125.428 152.395C126.481 153.758 127.833 155.277 129.422 156.929C132.473 160.099 134.233 161.959 134.831 162.633L135.117 162.955L135.446 163.233C136.715 164.304 138.234 165.156 139.767 165.862L139.855 165.902L139.943 165.94C141.637 166.655 143.42 167 145.237 167H146.281C147.744 167 149.179 166.593 150.191 166.262C151.35 165.883 152.667 165.357 154.097 164.727L154.143 164.707L154.188 164.686C156.533 163.606 159.063 162.605 161.781 161.687L161.817 161.675L161.853 161.662C164.426 160.757 168.202 159.627 173.257 158.269C178.226 156.935 182.814 155.897 187.028 155.148L187.188 155.12L187.348 155.083C191.031 154.219 198.612 153.265 210.499 152.281C222.264 151.307 230.786 150.52 236.007 149.922C240.611 149.554 244.442 149.372 247.528 149.362L260.929 150.537H261.192C261.974 150.537 264.842 150.628 270.015 150.827C274.213 150.992 277.273 151.091 279.114 151.118C279.779 151.285 280.559 151.419 281.388 151.419C283.771 151.419 286.468 150.444 288.133 147.852C289.075 146.472 289.477 144.975 289.682 143.866C289.917 142.596 290 141.221 290 139.834V139.54C290 137.263 289.248 135.152 288.356 133.383C287.438 131.565 286.17 129.713 284.678 127.851L284.639 127.802L284.599 127.754C281.81 124.418 279.689 121.959 278.294 120.459L278.136 120.29L277.966 120.134C276.413 118.703 274.69 117.421 272.816 116.278C270.68 114.818 268.17 113.844 265.371 113.844C264.142 113.844 262.618 114.184 261.514 114.444C260.222 114.749 258.579 115.182 256.614 115.732L247.319 117.159L242.464 118.037Z" fill="black"/>
<path d="M199.531 95.2019L231.256 88.1767L231.361 88.1494C234.694 87.2836 238.104 86.1066 241.588 84.6361C245.202 83.1105 249.461 80.3985 250.495 75.4892C250.71 74.6669 250.826 73.8117 250.826 72.9349C250.826 72.1464 250.764 71.234 250.545 70.2907C250.224 68.3094 249.393 66.5538 248.324 65.0495C247.048 63.2551 244.999 61.5132 242.856 59.9046L242.794 59.8582L242.731 59.8135C240.488 58.2189 238.619 56.952 237.171 56.0628L237.073 56.0031L236.974 55.9472C234.448 54.5256 231.621 54 228.808 54C226.461 54 224.104 54.424 221.774 55.1617L221.3 55.3118L213.334 59.3781L213.298 59.397C212.039 60.0612 209.263 61.0965 204.512 62.4661L204.382 62.5035L204.254 62.5467C199.652 64.1008 196.048 65.2397 193.406 65.9833C190.853 66.7017 185.975 67.8309 178.613 69.386L171.282 70.5649L171.12 70.6001C169.269 71.0034 167.706 71.3836 166.505 71.7413C165.915 71.9171 165.289 72.1238 164.71 72.368L164.676 72.3824C164.342 72.5221 163.034 73.0683 161.992 74.2415L161.609 74.6727L161.315 75.1689C160.859 75.9383 160.474 76.7824 160.202 77.6987C159.834 78.9413 159.781 80.2315 159.781 81.1662C159.781 84.3544 161.404 87.0325 162.958 88.9649C164.656 91.2228 166.831 93.0647 169.326 94.5517C172.297 96.3224 175.706 97.1985 179.306 97.4417L179.507 97.4553H180.58C182.663 97.4553 185.774 97.107 189.62 96.5378C192.016 96.3432 194.029 96.1434 195.63 95.9355C196.971 95.7613 198.384 95.5398 199.531 95.2019Z" fill="black"/>
</svg>
