<svg width="350" height="350" viewBox="0 0 350 350" fill="none" xmlns="http://www.w3.org/2000/svg">
<path d="M118.906 181.625C116.62 181.625 113.739 182.086 111.496 184.134C109.52 185.751 108.426 188.061 108.426 190.641C108.426 193.019 109.473 195.499 110.471 197.495L110.525 197.602L110.583 197.706C111.204 198.825 111.711 200.258 112.016 202.092L112.023 202.132L112.03 202.171C112.361 203.991 112.736 207.527 113.127 213.005C113.518 218.482 113.699 222.111 113.699 224.039V264.595L63.7106 274.001L63.6999 274.003C60.0045 274.684 57.1631 275.189 55.1603 275.523C54.1548 275.691 53.3902 275.81 52.8483 275.886C52.5456 275.928 52.3733 275.948 52.297 275.957C52.2797 275.959 52.2673 275.96 52.2595 275.961H52.0373L42.9088 277.178L33.2265 278.388L32.9043 278.469C31.899 278.72 30.8472 279.058 29.8743 279.545C29.0413 279.961 27.8991 280.667 26.9908 281.857C26.2445 282.779 25.9121 283.739 25.7531 284.375C25.5581 285.155 25.5156 285.883 25.5156 286.441C25.5156 287.664 25.804 288.785 26.0908 289.646L26.3238 290.344L26.7323 290.957C28.3145 293.33 30.9093 295.02 33.4644 296.305L41.6703 300.701L41.7395 300.736C43.1039 301.418 44.8229 302.165 46.8441 302.974L47.1906 303.112L47.5528 303.203C49.5893 303.712 51.7003 303.953 53.8672 303.953H55.918C59.1581 303.953 63.5587 302.938 68.6683 301.366C73.5723 299.857 80.1715 298.132 88.5114 296.193L88.569 296.18L102.369 292.656L102.382 292.653C104.999 291.999 108.636 291.157 113.307 290.127L112.527 304.16V307.242C112.527 311.95 112.833 317.784 113.426 324.704L113.433 324.787L113.443 324.87C114.453 333.558 116.086 341.285 118.392 347.995L118.427 348.094L118.465 348.193C121.048 354.866 124.608 360.438 129.289 364.651L129.457 364.801L129.636 364.937C134.106 368.343 138.908 371.12 144.037 373.257L144.222 373.334L144.413 373.397C149.44 375.073 155.109 376.405 161.39 377.418L161.464 377.43L161.539 377.44C167.685 378.26 174.476 378.66 181.895 378.66H185.996C192.039 378.66 198.081 378.358 204.121 377.754L204.136 377.753L204.15 377.751C211.628 376.964 217.803 376.169 222.642 375.363C227.437 374.564 232.886 373.473 238.981 372.098C244.922 370.944 250.024 369.444 253.247 367.165C256.159 365.273 258.879 362.257 258.879 357.926C258.879 355.874 258.104 354.085 257.333 352.753C256.526 351.358 255.438 349.982 254.211 348.643C251.456 345.638 247.958 343.28 243.894 341.474C239.833 339.669 235.75 338.656 231.699 338.656H230.929L230.188 338.868C228.687 339.297 225.838 340.215 221.757 341.575C217.868 342.871 213.178 344.189 207.662 345.523C201.888 346.677 197.22 347.532 193.634 348.099L193.496 348.12L193.359 348.149C190.007 348.855 185.519 349.417 179.816 349.798C176.008 349.988 172.405 350.082 169.004 350.082H163.824C158.275 349.892 154.527 349.248 152.239 348.402C149.931 347.471 148.164 346.3 146.819 344.955C145.67 343.806 144.334 341.878 142.926 338.885C141.821 336.537 140.89 332.315 140.511 325.682C140.124 318.727 139.934 312.584 139.934 307.242C139.934 302.63 140.3 295.181 141.054 284.805L170.936 280.463L170.967 280.458L196.072 276.955C202.605 276.188 210.705 275.416 220.387 274.641L246.097 272.888C253.3 272.499 258.312 272.204 261.095 272.006C264.129 271.789 267.154 271.219 269.584 269.83L270.005 269.59L270.376 269.28C271.955 267.964 273.458 266.288 274.306 264.168L274.699 263.184V261.539C274.699 259.028 273.476 257.055 272.419 255.772C271.322 254.44 269.893 253.229 268.348 252.122C265.094 249.683 262.043 247.675 259.209 246.15L259.06 246.069L258.906 245.998C256.239 244.768 253.299 243.551 250.092 242.348C247.082 241.146 244.439 240.246 242.267 239.764L241.678 239.633H241.074C237.835 239.633 234.298 240.093 230.506 240.936C226.914 241.734 221.19 243.116 213.373 245.07L213.327 245.082L213.282 245.094C205.341 247.224 199.035 248.751 194.323 249.694L142.168 259.506L144.025 232.576L144.028 232.531C144.213 229.001 144.586 225.259 145.152 221.301L145.168 221.186L145.18 221.071C145.558 217.288 146.014 214.459 146.508 212.482C146.988 210.559 147.721 208.592 148.728 206.577C149.726 204.581 150.773 202.101 150.773 199.723V199.43C150.773 196.922 149.902 194.653 148.396 192.771L148.206 192.533L147.991 192.318C146.586 190.913 144.621 189.486 142.367 188.051L142.21 187.952L142.048 187.863C139.655 186.558 137.278 185.524 134.921 184.81C132.829 184.121 130.073 183.499 126.79 182.914C123.732 182.156 120.974 181.625 118.906 181.625Z" fill="black"/>
<path d="M235.562 31.0938C232.74 31.0938 228.587 31.5769 223.506 32.3587L223.213 32.4038L222.924 32.4705C218.13 33.5769 213.806 34.2904 209.936 34.6422L209.757 34.6585L209.579 34.6827C205.399 35.2527 200.729 35.8253 195.565 36.4001C190.083 36.8114 179.359 37.8969 163.531 39.6341L125.959 43.4499L89.2577 48.1477L89.2459 48.1492C78.2913 49.5185 71.3619 50.4087 69.0716 50.7731L50.2177 52.2234L50.0575 52.2423C48.4248 52.4344 47.1473 52.5733 46.2054 52.663C45.352 52.7443 44.9584 52.7664 44.8614 52.7718C44.8389 52.7731 44.8324 52.7734 44.8398 52.7734H44.4408L38.0163 53.4159L37.8491 53.4398C36.1501 53.6825 34.2742 54.082 32.5513 54.8358C31.054 55.4908 28.4407 56.9554 27.0443 60.02C26.7279 60.6663 26 62.292 26 64.2891C26 66.9962 26.9777 69.2867 27.9735 70.9655C29.171 73.0439 30.704 74.9435 32.4447 76.6842L32.662 76.9014L32.8952 77.1014C34.6395 78.5965 37.1134 80.374 40.1093 82.3712L40.2677 82.4768L40.4309 82.5748C43.4868 84.4083 46.3073 85.9788 48.8793 87.2648C52.0237 88.837 55.4097 89.5742 58.9023 89.5742H60.0742C63.1782 89.5742 67.1228 88.4034 70.9201 87.0743C74.5153 85.816 79.637 84.3186 86.383 82.5839C93.1214 80.8511 99.2454 79.4167 104.761 78.2755C110.076 77.176 118.279 75.9409 129.52 74.5833C140.748 73.4225 153.839 72.2589 168.801 71.093C183.661 69.9351 197.612 69.3594 210.66 69.3594C216.57 69.3594 224.757 69.5506 235.266 69.9398C240.595 70.1372 245.096 70.2383 248.746 70.2383C252.261 70.2383 255.204 70.1553 257.388 69.9426C260.189 69.908 263.01 69.535 265.618 68.557L266.011 68.4096L266.386 68.2218C270.179 66.3254 272.653 63.0189 273.548 58.9933L273.738 58.136V57.2578C273.738 55.9785 273.478 54.5783 273.29 53.6381C272.806 51.2178 271.464 49.3747 270.667 48.3784C269.749 47.2309 268.63 46.0999 267.441 45.0116C264.299 41.9293 259.454 39.073 253.787 36.3312C247.591 33.1383 241.428 31.0938 235.562 31.0938Z" fill="black"/>
</svg>
