<svg width="350" height="350" viewBox="0 0 350 350" fill="none" xmlns="http://www.w3.org/2000/svg">
<path d="M82.0514 -33.3558C82.914 -31.6307 83.6904 -29.9133 84.3823 -28.2036C84.8535 -26.5905 85.2632 -24.7758 85.6012 -22.748L85.6406 -22.5116L85.6987 -22.2792C86.2082 -20.2411 86.5444 -18.2172 86.7121 -16.2049C86.888 -14.0948 86.9836 -11.3586 86.9844 -7.9562L86.4768 28.0171L83.8113 28.2075C77.7856 28.5507 71.4365 29.2455 65.2499 29.9226C63.9621 30.0636 62.6811 30.2038 61.4118 30.3398C53.9161 31.1434 46.7542 31.8125 40.2148 31.8125H40.0611L28.5166 32.4046L28.4991 32.4054C26.2657 32.5073 24.3208 32.666 22.7498 32.9077C21.9645 33.0285 21.1559 33.1873 20.3944 33.4113C19.7381 33.6043 18.622 33.9828 17.5719 34.7703C15.6987 36.1752 14 38.4827 14 41.6211C14 44.3455 15.5588 46.4023 16.2955 47.3089C17.2449 48.4774 18.4786 49.6523 19.8366 50.8072C22.9883 53.6903 26.6893 55.8193 30.8513 57.2265C34.7527 58.7308 38.608 59.6616 42.3893 59.9085C44.5944 60.1074 46.5237 60.2188 48.125 60.2188H48.8636L49.5802 60.0396C51.2942 59.6111 54.151 58.7923 58.0522 57.622C59.9186 57.062 61.5191 56.5699 62.9324 56.1353C67.2714 54.801 69.8456 54.0094 72.9283 53.4667C76.0279 52.9209 79.6593 52.6387 86.0069 52.5407L85.2266 100.748V112.223C85.2266 115.366 85.4327 118.758 85.831 122.388C86.0324 125.936 86.3421 128.941 86.8079 131.27L87.9538 137C88.1826 138.41 88.7724 140.226 90.2798 141.734C91.9783 143.432 94.0971 144.004 95.9141 144.004H96.207C99.1866 144.004 102.379 142.797 104.282 139.626L104.4 139.428L106.847 134.535C108.713 130.803 110.145 127.322 111.058 124.125L111.073 124.074L111.086 124.023C111.953 120.775 112.968 115.435 114.139 108.216C115.282 101.359 115.95 96.0965 115.976 92.7899L118.551 50.7274L178.363 50.5703H178.37C182.471 50.57 186.116 50.273 189.024 49.48L189.097 49.4601L189.169 49.4384C191.373 48.7773 195.04 47.3067 196.532 43.576L196.961 42.5032V40.7617C196.961 38.621 196.204 36.6602 195.449 35.1488L195.238 34.7277L194.964 34.3446C193.181 31.8483 190.023 29.647 186.679 27.68L178.081 22.6399L177.985 22.5883C174.986 20.9731 171.919 19.8353 168.803 19.316L168.766 19.3098L168.729 19.3041C165.944 18.8758 163.291 18.6484 160.785 18.6484H160.412L160.041 18.6948C158.319 18.91 155.753 19.3232 152.418 19.9116C148.796 20.5509 145.217 21.2523 141.698 21.9422C133.777 23.4948 126.156 24.9887 119.009 25.5825L119.492 -4.05659V-4.10547C119.492 -7.34223 119.589 -9.75288 119.755 -11.4186L119.76 -11.4679L119.764 -11.5174C119.932 -13.5309 120.371 -16.4012 121.133 -20.2139L121.162 -20.3566L121.184 -20.5006C121.739 -24.2013 122.407 -26.3906 122.96 -27.4964C123.96 -29.4966 125.059 -32.0687 125.059 -34.5742C125.059 -35.3311 124.948 -36.344 124.528 -37.3948C124.135 -38.972 123.318 -40.2407 122.54 -41.1598C121.494 -42.3969 120.184 -43.4101 118.878 -44.2512C116.544 -45.8717 114.064 -47.1695 111.441 -48.1231L111.365 -48.1508L111.288 -48.1765C108.624 -49.0644 105.615 -49.8096 102.293 -50.4324C99.0952 -51.032 96.079 -51.5351 93.247 -51.9397L92.8248 -52H92.3984C90.8455 -52 89.3622 -51.9187 88.0203 -51.7069C86.7618 -51.5081 85.1853 -51.1302 83.7451 -50.2661L83.399 -50.0584L83.0839 -49.8063C81.5369 -48.5687 79.3672 -46.248 79.3672 -42.7773V-39.0172L80.0006 -37.7503C80.3347 -37.0822 80.9752 -35.7135 81.9558 -33.5562L82.0017 -33.4551L82.0514 -33.3558Z" fill="black"/>
<path d="M242.464 118.037L166.273 129.198L145.719 132.433L145.707 132.435C141.909 133.018 139.139 133.39 137.331 133.569L137.251 133.577L130.52 134.43C129.145 134.479 127.439 134.778 125.835 135.793C123.943 136.991 122.805 138.797 122.352 140.726C122.123 141.573 122 142.456 122 143.362C122 144.999 122.356 146.564 122.856 147.981C123.424 149.627 124.475 151.161 125.428 152.395C126.481 153.758 127.833 155.277 129.422 156.929C132.473 160.099 134.233 161.959 134.831 162.633L135.117 162.955L135.446 163.233C136.715 164.304 138.234 165.156 139.767 165.862L139.855 165.902L139.943 165.94C141.637 166.655 143.42 167 145.237 167H146.281C147.744 167 149.179 166.593 150.191 166.262C151.35 165.883 152.667 165.357 154.097 164.727L154.143 164.707L154.188 164.686C156.533 163.606 159.063 162.605 161.781 161.687L161.817 161.675L161.853 161.662C164.426 160.757 168.202 159.627 173.257 158.269C178.226 156.935 182.814 155.897 187.028 155.148L187.188 155.12L187.348 155.083C191.031 154.219 198.612 153.265 210.499 152.281C222.264 151.307 230.786 150.52 236.007 149.922C240.611 149.554 244.442 149.372 247.528 149.362L260.929 150.537H261.192C261.974 150.537 264.842 150.628 270.015 150.827C274.213 150.992 277.273 151.091 279.114 151.118C279.779 151.285 280.559 151.419 281.388 151.419C283.771 151.419 286.468 150.444 288.133 147.852C289.075 146.472 289.477 144.975 289.682 143.866C289.917 142.596 290 141.221 290 139.834V139.54C290 137.263 289.248 135.152 288.356 133.383C287.438 131.565 286.17 129.713 284.678 127.851L284.639 127.802L284.599 127.754C281.81 124.418 279.689 121.959 278.294 120.459L278.136 120.29L277.966 120.134C276.413 118.703 274.69 117.421 272.816 116.278C270.68 114.818 268.17 113.844 265.371 113.844C264.142 113.844 262.618 114.184 261.514 114.444C260.222 114.749 258.579 115.182 256.614 115.732L247.319 117.159L242.464 118.037Z" fill="black"/>
<path d="M199.531 95.2019L231.256 88.1767L231.361 88.1494C234.694 87.2836 238.104 86.1066 241.588 84.6361C245.202 83.1105 249.461 80.3985 250.495 75.4892C250.71 74.6669 250.826 73.8117 250.826 72.9349C250.826 72.1464 250.764 71.234 250.545 70.2907C250.224 68.3094 249.393 66.5538 248.324 65.0495C247.048 63.2551 244.999 61.5132 242.856 59.9046L242.794 59.8582L242.731 59.8135C240.488 58.2189 238.619 56.952 237.171 56.0628L237.073 56.0031L236.974 55.9472C234.448 54.5256 231.621 54 228.808 54C226.461 54 224.104 54.424 221.774 55.1617L221.3 55.3118L213.334 59.3781L213.298 59.397C212.039 60.0612 209.263 61.0965 204.512 62.4661L204.382 62.5035L204.254 62.5467C199.652 64.1008 196.048 65.2397 193.406 65.9833C190.853 66.7017 185.975 67.8309 178.613 69.386L171.282 70.5649L171.12 70.6001C169.269 71.0034 167.706 71.3836 166.505 71.7413C165.915 71.9171 165.289 72.1238 164.71 72.368L164.676 72.3824C164.342 72.5221 163.034 73.0683 161.992 74.2415L161.609 74.6727L161.315 75.1689C160.859 75.9383 160.474 76.7824 160.202 77.6987C159.834 78.9413 159.781 80.2315 159.781 81.1662C159.781 84.3544 161.404 87.0325 162.958 88.9649C164.656 91.2228 166.831 93.0647 169.326 94.5517C172.297 96.3224 175.706 97.1985 179.306 97.4417L179.507 97.4553H180.58C182.663 97.4553 185.774 97.107 189.62 96.5378C192.016 96.3432 194.029 96.1434 195.63 95.9355C196.971 95.7613 198.384 95.5398 199.531 95.2019Z" fill="black"/>
</svg>
