<svg width="350" height="350" viewBox="0 0 350 350" fill="none" xmlns="http://www.w3.org/2000/svg">
<path fill-rule="evenodd" clip-rule="evenodd" d="M31.2187 330.206C33.2732 332.314 36.1441 335.076 39.1618 336.498C42.0449 337.929 45.0952 338.852 48.2148 338.852C49.7204 338.852 52.2304 338.402 54.9579 337.856L54.9982 337.848L55.0384 337.839C57.6405 337.282 61.7235 336.52 67.3449 335.551L74.8239 334.4C77.9177 334.015 83.896 333.34 92.8027 332.372L92.8085 332.371L114.988 330.036C118.398 329.753 122.506 329.468 128.127 329.181C127.95 337.544 127.624 344.907 127.312 351.345C127.257 352.478 127.202 353.586 127.149 354.669L127.149 354.673C126.828 361.186 126.551 366.796 126.542 371.367C126.533 376.487 126.823 381.355 128.354 385.053C129.186 387.064 130.508 389.05 132.615 390.477C134.731 391.911 137.088 392.41 139.328 392.41H139.621C143.872 392.41 148.471 391.799 152.212 388.692C155.927 385.606 157.652 381.015 158.603 375.889C159.565 370.705 159.917 363.895 160.002 355.208C160.076 347.736 159.951 338.591 159.776 327.5L201.838 325.961C203.922 325.964 212.033 326.061 226.259 326.253L226.27 326.254L255.829 326.543C259.586 326.991 264.321 327.182 268.893 325.675C270.142 325.286 271.994 324.583 273.651 323.304C275.431 321.93 277.457 319.473 277.457 315.859C277.457 314.636 277.183 312.734 276.791 311.034C276.44 309.513 275.707 306.793 274.142 304.781L274.01 304.611L273.866 304.451C271.095 301.372 266.11 298.816 260.324 296.495C254.762 294.004 250.488 292.265 247.84 291.543L247.779 291.527L247.717 291.511C245.005 290.833 242.36 290.453 239.816 290.453C237.8 290.453 234.964 291.042 231.916 291.804C228.959 292.543 226.234 293.086 223.734 293.443C221.152 293.812 216.028 294.384 208.243 295.163L188.434 296.619L188.4 296.622L160.306 298.526L160.531 258.644C166.91 258.059 174.26 257.282 181.698 256.496L181.699 256.496L181.702 256.495C183.053 256.352 184.408 256.209 185.76 256.067C196.881 254.896 207.837 253.778 216.034 253.266L216.22 253.254L216.404 253.231C219.753 252.812 222.899 252.124 225.375 250.886C226.31 250.418 227.224 249.905 228.036 249.336C228.772 248.821 229.814 247.996 230.613 246.797L231.621 245.285V243.469C231.621 241.27 230.885 239.035 230.181 237.435C229.484 235.852 228.335 233.788 226.705 232.321L226.382 232.03L226.02 231.789C223.354 230.012 220.49 228.473 217.438 227.165L217.208 227.067L216.972 226.988C213.894 225.962 210.987 225.252 208.312 224.977C203.987 224.184 199.758 224.845 196.438 225.595L161.672 230.133L161.795 228.786L161.795 228.785C162.034 226.156 162.272 223.543 162.593 220.961C163.324 215.1 164.397 210.326 166.217 207.141L166.3 206.996L166.374 206.847C167.765 204.066 169.059 200.908 169.059 198.012C169.059 195.536 167.988 193.544 166.865 192.14C165.787 190.792 164.416 189.668 163.009 188.718C160.069 186.541 156.427 184.773 152.274 183.31C148 181.611 143.802 180.493 139.698 180.037L139.367 180H139.035C137.368 180 135.705 180.105 134.218 180.436C132.984 180.71 130.59 181.401 128.962 183.572L128.637 184.005L128.395 184.489C126.926 187.426 127.107 190.295 127.529 192.354C127.828 193.811 128.402 195.428 128.745 196.398C128.829 196.634 128.899 196.832 128.949 196.979C129.627 199.014 130.105 202.37 130.105 207.387V207.414L130.348 234.431L99.8646 236.662L99.7924 236.669C91.8089 237.448 84.3177 238.129 77.3181 238.712L77.2957 238.714L70.8468 239.3C69.8608 239.384 68.0543 239.647 66.2997 240.354C65.4187 240.709 64.1671 241.326 63.0545 242.406C61.8438 243.581 60.6836 245.448 60.6836 247.914C60.6836 248.897 60.8997 249.836 61.0442 250.388C61.2259 251.082 61.4835 251.856 61.8183 252.647C62.412 254.048 63.5502 256.221 65.5684 257.819C68.2875 260.034 71.301 261.648 74.6034 262.473L74.6563 262.486L74.7094 262.499C78.9036 263.467 83.1031 263.824 87.1914 263.824C90.9505 263.824 96.1934 263.517 102.822 262.934L129.52 261.752V300.412L122.646 301.117L122.295 301.257C121.997 301.305 121.541 301.368 120.897 301.447C119.571 301.608 117.648 301.81 115.102 302.052C110.021 302.536 102.611 303.168 92.8536 303.949C73.3174 305.512 59.7953 306.378 52.1665 306.568C44.2887 306.765 40.1087 306.859 39.4258 306.859H39.1954L30.9872 307.491L30.6319 307.562C27.8307 308.122 24.4063 309.56 22.6334 313.106L22 314.373V315.789C22 317.291 22.2433 318.845 22.9116 320.391C23.5718 321.918 24.5158 323.134 25.5152 324.133C26.2013 324.819 27.0176 325.705 28.0174 326.792L28.0854 326.866C29.033 327.897 30.1106 329.069 31.2187 330.206ZM155.726 229.265C155.757 228.929 155.788 228.59 155.819 228.25L155.82 228.236C155.789 228.581 155.758 228.924 155.726 229.265ZM122.587 301.205C122.587 301.205 122.568 301.209 122.526 301.217C122.564 301.208 122.586 301.204 122.587 301.205Z" fill="black"/>
<path d="M149.041 -35.5489C146.153 -36.5805 143.089 -37.5008 139.856 -38.3144C136.482 -39.3568 133.26 -40 130.324 -40C128.675 -40 126.938 -39.8613 125.335 -39.39C123.821 -38.9445 121.674 -37.9722 120.284 -35.7608C119.405 -34.4079 118.758 -32.7197 118.758 -30.7773C118.758 -29.5839 119.016 -28.4915 119.287 -27.6351C119.9 -25.3275 121.071 -22.994 122.507 -20.7118C123.401 -19.0426 124.191 -17.0747 124.848 -14.7735L124.865 -14.7153L124.883 -14.6574C125.471 -12.7454 125.789 -10.6113 125.789 -8.21875V-7.82051L125.842 -7.42577C126.184 -4.86072 126.374 -1.44514 126.375 2.89289C125.998 55.7955 125.22 69.912 118.869 114.858C117.972 118.167 117 122.078 117 126.324C117 128.974 117.357 132.006 117.982 135.34L117.988 135.376L117.995 135.411C118.85 139.683 120.054 143.575 121.664 147.026L121.732 147.171L121.807 147.312C123.404 150.305 124.914 152.825 126.334 154.734C127.335 156.171 128.449 157.541 129.691 158.617C130.85 159.622 132.883 161.035 135.598 161.035H136.485L137.067 160.919C139.653 160.401 141.701 158.849 143.198 157.384C145.123 155.683 146.565 153.588 147.6 151.253C148.941 149.317 149.995 147.118 150.819 144.743C151.854 142.626 152.703 140.478 153.356 138.302L153.437 138.032L154.781 131.313V128.082C154.781 125.771 154.677 122.908 154.478 119.527C153.165 97.2083 153.359 86.6168 153.796 62.7652L153.796 62.7571C153.866 58.942 153.943 54.7876 154.02 50.1918C156.197 51.8577 159.038 54.1103 162.576 56.9848L162.584 56.9917L180.687 71.5907C185.875 76.0364 189.689 79.1689 191.952 80.7877C193.83 82.3935 197.006 84.726 201.26 87.6865C205.507 90.772 209.273 93.1531 212.263 94.2609C214.915 95.3091 217.694 95.8281 220.559 95.8281C221.872 95.8281 223.198 95.7414 224.445 95.4919C225.567 95.2676 226.993 94.8413 228.314 93.9221C230.521 92.4693 231.43 90.2479 231.833 88.7973C232.283 87.1777 232.418 85.3979 232.418 83.6758V83.476L232.405 83.2767C232.167 79.7063 231.344 76.0404 230.025 72.3039L230.006 72.2488L229.985 72.194C228.582 68.4531 226.523 64.8315 223.894 61.3258L223.838 61.2508L223.779 61.1776C221.041 57.7551 217.515 54.4842 213.319 51.3367L213.24 51.2777L213.16 51.2213C208.863 48.2141 203.542 45.3104 197.286 42.4829C190.909 39.4951 184.525 36.8022 178.134 34.4055L178.106 34.3949L178.078 34.3847C171.611 32.033 166.328 30.2359 162.269 29.0167L154.609 26.5877C154.85 21.7651 155.417 16.1131 156 10.3014L156 10.3005C156.276 7.54319 156.557 4.75001 156.807 1.99243C156.99 -0.0119362 157.266 -2.23088 157.641 -4.66969C157.977 -6.85305 158.46 -8.64337 159.04 -10.092L159.139 -10.3402L159.216 -10.5962C159.694 -12.1904 160.341 -13.9131 161.174 -15.7681C162.224 -17.6796 162.984 -19.8815 162.984 -22.2812V-22.8672C162.984 -25.4898 161.515 -27.3891 160.861 -28.1731C160.004 -29.2015 158.922 -30.1728 157.803 -31.068L157.73 -31.1266L157.655 -31.1828C155.425 -32.8549 152.469 -34.2645 149.13 -35.5164L149.086 -35.533L149.041 -35.5489Z" fill="black"/>
</svg>
