<svg width="350" height="350" viewBox="0 0 350 350" fill="none" xmlns="http://www.w3.org/2000/svg">
<path d="M133.297 177.039C132.184 177.039 130.381 177.144 128.632 178.018L127.689 178.49L126.943 179.236C124.667 181.512 123.867 184.397 123.867 187.055C123.867 189.462 124.617 191.937 125.498 194.142L125.504 194.156L129.867 205.21C131.721 210.147 134.347 216.09 137.704 223L137.72 223.034L137.737 223.067C140.287 228.166 142.545 232.343 144.47 235.31L102.557 240.377L66.369 245.63L58.9881 246.197L41.589 247.44L40.6485 247.816C39.4373 248.301 38.2081 248.885 37.1132 249.615C36.104 250.288 34.6543 251.446 33.7331 253.288L33.0469 254.661V256.781C33.0469 259.358 34.1956 261.69 35.0752 263.229L35.1862 263.423L35.3104 263.609C36.5504 265.469 38.384 267.017 40.1478 268.285C42.016 269.628 44.3257 271.018 46.9961 272.457L47.0121 272.465L53.5284 276.02L53.6322 276.072C57.4874 277.999 61.5058 279.102 65.6211 279.102H66.083L66.5403 279.036C68.5672 278.747 71.5328 277.873 75.0008 276.717L75.1523 276.667L75.3012 276.609C78.3275 275.432 83.9671 273.859 92.5499 271.909L92.6181 271.893L92.6859 271.876C101.147 269.761 106.656 268.431 109.32 267.855L126.696 264.959C134.423 263.801 141.04 262.939 146.563 262.368L146.575 262.367L146.587 262.365C151.847 261.802 168.227 260.738 196.019 259.172C223.601 258.007 242.054 257.428 251.506 257.422L264.103 258.008H276.377L276.779 257.958C279.199 257.655 281.658 256.84 283.77 255.176C286.704 252.921 287.453 249.63 287.453 247.113V245.434L287.259 244.658C286.436 241.366 284.357 238.74 282.049 236.689C279.772 234.665 276.66 232.638 272.977 230.591C269.22 228.504 265.438 226.716 261.629 225.235L261.575 225.214L261.521 225.194C257.446 223.693 253.509 222.742 249.898 222.742C248.664 222.742 247.199 222.969 245.858 223.217C244.389 223.489 242.587 223.883 240.483 224.384C236.855 225.247 230.891 226.095 222.357 226.87L222.311 226.875L177.7 231.571C178.235 228.987 178.469 226.237 178.469 223.383V223.235L178.462 223.088C178.228 217.945 176.957 212.742 174.791 207.513C172.731 202.067 169.706 197.356 165.657 193.523C162.112 189.991 158.053 186.935 153.514 184.341L153.411 184.282L153.305 184.226C148.985 181.963 144.471 179.913 139.767 178.072L139.299 177.889L138.808 177.78C136.906 177.357 134.989 177.039 133.297 177.039Z" fill="black"/>
<path d="M109.859 277.488C108.605 277.488 107.442 277.754 106.405 278.182C104.387 278.836 101.708 280.19 100.237 283.132C99.2682 285.07 98.9044 287.491 98.7041 289.494L98.6719 289.816V290.141C98.6719 291.039 98.4542 292.629 97.7501 295.093L97.7343 295.149L97.7195 295.204C97.0078 297.873 96.1145 300.556 95.0352 303.254L95.009 303.32L94.9842 303.386C94.053 305.869 92.2007 309.403 89.199 314.1C85.9831 318.823 81.2049 325.325 74.8201 333.644L74.8131 333.653L74.8063 333.662C68.5763 341.839 63.965 347.467 60.8955 350.717L60.8354 350.78L60.777 350.846C57.5487 354.454 53.9221 358.272 49.8921 362.302L44.6186 367.576C43.1289 369.065 41.543 371.402 41.543 374.516C41.543 376.029 41.9294 377.409 42.5222 378.594L42.9939 379.538L43.7397 380.284C45.0342 381.578 47.1759 383.066 50.0938 383.066C51.4675 383.066 52.7037 382.743 53.6141 382.44L54.1977 382.245L61.9406 377.909C64.4463 376.628 68.798 373.719 74.5988 369.603C80.6328 365.514 85.5441 361.918 89.2632 358.831C93.2998 355.838 97.9843 351.635 103.279 346.343C108.615 341.203 112.889 336.736 116.025 332.974L124.625 322.653L131.448 315.831C133.185 314.093 134.711 312.83 136.024 311.955C137.063 311.262 138.056 310.526 138.914 309.745C139.57 309.149 140.393 308.31 141.063 307.226C142.338 305.488 143.312 303.281 143.312 300.688C143.312 298.842 142.851 296.949 141.766 295.233C140.231 292.647 137.739 290.568 135.194 288.867L126.858 283.096L125.977 282.802C125.083 282.504 122.406 281.442 117.633 279.453C115.207 278.442 112.419 277.488 109.859 277.488Z" fill="black"/>
<path d="M180.758 283.055C179.407 283.055 177.822 283.328 176.288 284.204C174.712 285.105 173.597 286.412 172.893 287.82L172.885 287.837C172.654 288.298 171.914 289.777 171.914 291.605C171.914 294.519 173.324 296.82 174.51 298.303L176.914 301.308L182.036 307.334L182.119 307.423C183.801 309.258 186.163 312.598 189.228 317.771L189.265 317.833L200.476 335.829L212.281 353.832L212.328 353.899C217.615 361.536 221.748 367.194 224.666 370.738C227.444 374.11 230.057 376.893 232.472 378.858C235.193 381.339 238.872 383.945 243.16 383.945H244.683L245.314 383.819C250.479 382.786 253.357 378.474 254.975 374.777L255.065 374.571L255.141 374.358C256.448 370.698 256.984 366.482 256.984 361.918V359.618L256.965 359.369C256.515 353.513 254.958 347.499 252.426 341.358C250.016 335.036 246.543 329.102 242.064 323.556L241.978 323.45L241.887 323.347C237.343 318.183 232.297 313.345 226.758 308.832L226.701 308.786L226.643 308.74C221.307 304.59 216.774 301.261 213.074 298.795L213.037 298.77L213 298.746C209.488 296.474 205.243 294.051 200.303 291.478C195.643 288.763 191.86 286.748 189.117 285.605L185.559 284.123L185.516 284.106C184.283 283.613 182.585 283.055 180.758 283.055Z" fill="black"/>
<path d="M82.0514 -33.3558C82.914 -31.6307 83.6904 -29.9133 84.3823 -28.2036C84.8535 -26.5905 85.2632 -24.7758 85.6012 -22.748L85.6406 -22.5116L85.6987 -22.2792C86.2082 -20.2411 86.5444 -18.2172 86.7121 -16.2049C86.888 -14.0948 86.9836 -11.3586 86.9844 -7.9562L86.4768 28.0171L83.8113 28.2075C77.7856 28.5507 71.4365 29.2455 65.2499 29.9226C63.9621 30.0636 62.6811 30.2038 61.4118 30.3398C53.9161 31.1434 46.7542 31.8125 40.2148 31.8125H40.0611L28.5166 32.4046L28.4991 32.4054C26.2657 32.5073 24.3208 32.666 22.7498 32.9077C21.9645 33.0285 21.1559 33.1873 20.3944 33.4113C19.7381 33.6043 18.622 33.9828 17.5719 34.7703C15.6987 36.1752 14 38.4827 14 41.6211C14 44.3455 15.5588 46.4023 16.2955 47.3089C17.2449 48.4774 18.4786 49.6523 19.8366 50.8072C22.9883 53.6903 26.6893 55.8193 30.8513 57.2265C34.7527 58.7308 38.608 59.6616 42.3893 59.9085C44.5944 60.1074 46.5237 60.2188 48.125 60.2188H48.8636L49.5802 60.0396C51.2942 59.6111 54.151 58.7923 58.0522 57.622C59.9186 57.062 61.5191 56.5699 62.9324 56.1353C67.2714 54.801 69.8456 54.0094 72.9283 53.4667C76.0279 52.9209 79.6593 52.6387 86.0069 52.5407L85.2266 100.748V112.223C85.2266 115.366 85.4327 118.758 85.831 122.388C86.0324 125.936 86.3421 128.941 86.8079 131.27L87.9538 137C88.1826 138.41 88.7724 140.226 90.2798 141.734C91.9783 143.432 94.0971 144.004 95.9141 144.004H96.207C99.1866 144.004 102.379 142.797 104.282 139.626L104.4 139.428L106.847 134.535C108.713 130.803 110.145 127.322 111.058 124.125L111.073 124.074L111.086 124.023C111.953 120.775 112.968 115.435 114.139 108.216C115.282 101.359 115.95 96.0965 115.976 92.7899L118.551 50.7274L178.363 50.5703H178.37C182.471 50.57 186.116 50.273 189.024 49.48L189.097 49.4601L189.169 49.4384C191.373 48.7773 195.04 47.3067 196.532 43.576L196.961 42.5032V40.7617C196.961 38.621 196.204 36.6602 195.449 35.1488L195.238 34.7277L194.964 34.3446C193.181 31.8483 190.023 29.647 186.679 27.68L178.081 22.6399L177.985 22.5883C174.986 20.9731 171.919 19.8353 168.803 19.316L168.766 19.3098L168.729 19.3041C165.944 18.8758 163.291 18.6484 160.785 18.6484H160.412L160.041 18.6948C158.319 18.91 155.753 19.3232 152.418 19.9116C148.796 20.5509 145.217 21.2523 141.698 21.9422C133.777 23.4948 126.156 24.9887 119.009 25.5825L119.492 -4.05659V-4.10547C119.492 -7.34223 119.589 -9.75288 119.755 -11.4186L119.76 -11.4679L119.764 -11.5174C119.932 -13.5309 120.371 -16.4012 121.133 -20.2139L121.162 -20.3566L121.184 -20.5006C121.739 -24.2013 122.407 -26.3906 122.96 -27.4964C123.96 -29.4966 125.059 -32.0687 125.059 -34.5742C125.059 -35.3311 124.948 -36.344 124.528 -37.3948C124.135 -38.972 123.318 -40.2407 122.54 -41.1598C121.494 -42.3969 120.184 -43.4101 118.878 -44.2512C116.544 -45.8717 114.064 -47.1695 111.441 -48.1231L111.365 -48.1508L111.288 -48.1765C108.624 -49.0644 105.615 -49.8096 102.293 -50.4324C99.0952 -51.032 96.079 -51.5351 93.247 -51.9397L92.8248 -52H92.3984C90.8455 -52 89.3622 -51.9187 88.0203 -51.7069C86.7618 -51.5081 85.1853 -51.1302 83.7451 -50.2661L83.399 -50.0584L83.0839 -49.8063C81.5369 -48.5687 79.3672 -46.248 79.3672 -42.7773V-39.0172L80.0006 -37.7503C80.3347 -37.0822 80.9752 -35.7135 81.9558 -33.5562L82.0017 -33.4551L82.0514 -33.3558Z" fill="black"/>
<path fill-rule="evenodd" clip-rule="evenodd" d="M136.541 86.6797L130.257 87.308L130.132 87.3259C128.516 87.5568 126.84 87.9236 125.353 88.5743C124.038 89.1497 121.947 90.3538 120.85 92.7864C120.577 93.3445 120 94.6377 120 96.1953C120 98.4237 120.808 100.362 121.7 101.862C122.794 103.763 124.212 105.53 125.859 107.176L126.022 107.339L126.197 107.489C127.847 108.903 130.239 110.627 133.219 112.613L133.337 112.693L133.46 112.766C136.484 114.581 139.259 116.125 141.774 117.382C144.62 118.805 147.697 119.48 150.902 119.48H152.074C154.793 119.48 158.435 118.431 162.259 117.093C165.932 115.807 171.116 114.294 177.885 112.553C189.206 109.642 194.309 108.394 199.439 107.802C204.16 107.258 208.943 107.26 218.65 107.265C219.604 107.265 220.606 107.266 221.66 107.266C227.606 107.266 235.822 107.458 246.34 107.847C251.655 108.044 256.13 108.145 259.746 108.145C263.3 108.145 266.193 108.059 268.279 107.85C270.958 107.824 273.563 107.473 275.915 106.591L276.21 106.48L276.492 106.339C279.727 104.722 281.827 101.924 282.595 98.4657L282.738 97.8227V97.1641C282.738 96.1069 282.519 94.8859 282.329 93.9366C281.941 91.9993 280.849 90.4644 280.105 89.5341C279.269 88.4888 278.222 87.4273 277.065 86.3695C274.167 83.5164 269.553 80.7638 263.893 78.0268C257.831 74.9005 251.988 73 246.562 73C243.909 73 239.891 73.4601 234.81 74.2416L234.59 74.2755L234.374 74.3255C229.508 75.4483 225.094 76.1787 221.117 76.5403L220.983 76.5525L220.849 76.5706C211.404 77.8586 204.402 78.5889 198.037 79.2528C186.994 80.4044 177.865 81.3566 161.215 84.6743L142.411 86.1207L142.291 86.1348C140.652 86.3277 139.358 86.4685 138.395 86.5602C137.913 86.6061 137.536 86.6377 137.251 86.6573C136.984 86.6757 136.863 86.679 136.842 86.6796L136.841 86.6796C136.839 86.6797 136.84 86.6797 136.84 86.6797H136.541Z" fill="black"/>
</svg>
