<svg width="350" height="350" viewBox="0 0 350 350" fill="none" xmlns="http://www.w3.org/2000/svg">
<path d="M162.598 -20.5C160.408 -20.5 158.435 -20.3841 156.732 -20.1153C155.093 -19.8565 153.379 -19.4082 151.933 -18.5404L151.673 -18.3846L151.437 -18.1956C149.544 -16.6814 147.551 -14.3549 147.551 -11.166V-6.58809L148.026 -5.63793C148.569 -4.5509 149.562 -2.42576 151.03 0.80352L151.065 0.879358L151.102 0.953867C152.482 3.71341 153.724 6.46684 154.829 9.21419C155.62 11.8865 156.294 14.8581 156.841 18.1382L156.87 18.3155L156.914 18.4898C157.735 21.7762 158.28 25.0519 158.553 28.319C158.831 31.6612 158.976 35.9138 158.977 41.107V41.1289L158.137 129.221L149.864 129.812L105.892 135.089C98.8172 135.679 85.932 136.851 67.2557 138.602L67.2423 138.603C49.0588 140.363 36.813 141.219 30.3223 141.219H30.207L12.9793 142.102L12.9665 142.103C9.68027 142.253 6.93969 142.481 4.80891 142.809C3.74388 142.973 2.74378 143.175 1.86135 143.434C1.05786 143.67 -0.00814629 144.055 -0.942188 144.755C-2.93298 146.249 -4.5 148.492 -4.5 151.432C-4.5 153.841 -3.09288 155.86 -2.06429 157.126C-0.874049 158.591 0.766484 160.168 2.7332 161.836C7.00246 165.758 12.0498 168.673 17.8073 170.607C23.3679 172.759 28.75 174.044 33.932 174.376C37.1955 174.671 39.9606 174.828 42.1875 174.828H42.7415L43.2789 174.694C45.7363 174.079 49.9296 172.879 55.7853 171.123C61.3257 169.461 68.5342 168.035 77.4802 166.881L77.6344 166.861L77.7868 166.831C86.4383 165.1 97.4599 163.358 110.879 161.608C124.629 159.852 134.949 158.691 141.878 158.113C147.216 157.669 152.463 157.396 157.62 157.295L156.34 309.176V326.334C156.34 330.889 156.641 335.851 157.233 341.209C157.53 346.504 157.982 350.81 158.624 354.023L160.361 362.705C160.602 364.261 161.203 366.02 162.602 367.419C164.132 368.949 166.069 369.506 167.871 369.506H168.311C171.571 369.506 174.697 368.235 176.564 365.124L176.653 364.976L180.246 357.79C182.963 352.354 184.989 347.4 186.26 342.951L186.271 342.913L186.282 342.874C187.517 338.241 189.011 330.428 190.768 319.594C192.512 309.129 193.455 301.49 193.465 296.961L197.73 154.5L260.158 152.857L294.426 153.736L333.596 152.855C339.581 152.853 344.57 152.41 348.352 151.379L348.407 151.364L348.461 151.347C351.578 150.412 355.207 148.723 356.62 145.193L356.941 144.388V142.643C356.941 140.451 356.154 138.248 355.148 136.236L354.99 135.92L354.785 135.632C352.715 132.735 348.735 129.839 343.737 126.899L330.916 119.383L330.844 119.345C326.69 117.108 322.559 115.595 318.464 114.913L318.437 114.908L318.409 114.904C314.416 114.29 310.669 113.973 307.178 113.973H306.898L306.62 114.007C304.156 114.315 300.4 114.918 295.409 115.799L295.386 115.803L295.362 115.808C290.744 116.673 283.768 117.837 274.403 119.3C265.045 120.762 258.327 121.614 254.144 121.893L254.132 121.894L197.91 125.938L198.738 46.8654V46.8418C198.738 41.924 198.884 38.1385 199.155 35.4243L199.159 35.3873L199.162 35.3503C199.435 32.0823 200.13 27.5858 201.288 21.7966L201.309 21.6895L201.325 21.5816C202.181 15.8764 203.268 12.0371 204.416 9.74293C205.898 6.77797 207.088 3.75024 207.088 1.13867C207.088 0.325432 206.957 -0.692429 206.494 -1.69461C206.157 -3.33714 205.309 -4.72905 204.375 -5.83301C203.183 -7.24148 201.594 -8.49546 199.815 -9.6352C196.6 -11.8755 193.202 -13.6545 189.624 -14.9556L189.567 -14.9764L189.509 -14.9956C185.753 -16.2475 181.445 -17.3191 176.611 -18.2257C171.868 -19.1148 167.409 -19.8584 163.234 -20.4548L162.917 -20.5H162.598Z" fill="black"/>
</svg>
