<svg width="350" height="350" viewBox="0 0 350 350" fill="none" xmlns="http://www.w3.org/2000/svg">
<path fill-rule="evenodd" clip-rule="evenodd" d="M235.801 191.891C234.015 191.891 231.73 192.444 229.696 192.999L229.617 193.02L229.538 193.044C228.066 193.486 225.92 193.917 222.983 194.285L222.638 194.328L222.3 194.407C219.342 195.103 215.844 195.649 211.775 196.019L211.486 196.045L211.201 196.097C207.124 196.838 201.644 197.598 194.709 198.37L175.914 200.131L175.815 200.144C169.554 200.927 165.383 201.398 163.191 201.581L163.171 201.583L59.7437 210.828L55.7799 209.341L49.1369 208.392C47.3416 208.016 45.8391 207.72 44.6538 207.514C43.6132 207.333 42.3108 207.125 41.2695 207.125H40.8076L40.3503 207.19C38.7918 207.413 37.1479 207.746 35.7061 208.322C34.7513 208.704 31.4968 210.095 30.5691 213.806L30.375 214.583V215.676C30.375 217.306 30.8274 218.793 31.2283 219.862C31.6651 221.027 32.2553 222.245 32.9265 223.476L33.0314 223.668L37.202 230.222C38.1231 231.769 39.1254 233.831 40.1877 236.479C41.1335 239.022 42.016 242.621 42.7553 247.426L42.7703 247.524L42.7884 247.621C43.7038 252.564 44.362 258.339 44.7411 264.972L44.7462 265.062L50.0078 327.032C50.05 328.839 50.4314 331.569 50.9658 334.778L52.3966 343.935C52.8564 348.537 54.0321 352.894 56.5206 356.315L56.6294 356.465L56.7466 356.608C57.8103 357.908 59.0095 359.167 60.3505 360.151C61.6239 361.085 63.6302 362.215 66.1719 362.215H66.9268L67.3841 362.15C71.5622 361.553 74.1699 358.629 75.6625 355.942L75.8029 355.689L75.9202 355.425C76.7453 353.569 77.4223 351.893 77.9047 350.446L77.9359 350.353L78.0166 350.084C78.8686 350.171 79.7141 350.203 80.5273 350.203C82.0141 350.203 83.6284 350.083 85.3379 349.872C89.5179 349.472 95.4925 348.785 103.226 347.819C110.986 347.043 117.169 346.464 121.79 346.079L143.098 344.328C152.772 343.747 160.446 343.262 166.113 342.871C171.966 342.675 177.635 342.382 183.118 341.992L196.076 341.537L198.684 345.449C200.067 347.708 201.693 350.77 203.565 354.701L203.592 354.757L203.62 354.813C205.561 358.695 207.714 362.341 210.184 364.459L210.482 364.714L210.809 364.932C212.416 366.003 214.284 366.947 216.362 367.362L216.993 367.488H218.516C221.676 367.488 224.604 366.322 227.133 364.804L227.315 364.695L227.489 364.575C230.983 362.156 234.068 358.566 236.856 354.277L236.895 354.217L236.933 354.156C239.744 349.615 242.007 344.761 243.725 339.606C245.352 334.724 246.864 329.377 248.265 323.575C249.669 317.954 250.612 312.799 251.047 308.139L258.061 259.623L259.247 250.435L259.253 250.378C259.418 248.891 259.763 246.696 260.318 243.721C261.063 240.732 261.649 238.113 262.063 235.887C262.515 234.295 263.085 232.917 263.748 231.723L263.889 231.47L264.006 231.206C264.597 229.876 265.225 228.761 265.87 227.831C266.72 226.798 267.815 225.36 268.45 223.779C268.867 222.853 269.149 221.876 269.353 221.061L269.547 220.285V219.484C269.547 217.621 268.937 216.004 268.424 214.905C267.867 213.711 267.13 212.517 266.321 211.362L266.227 211.228L266.127 211.099C264.636 209.183 263.04 207.367 261.338 205.654C259.374 203.467 256.396 201.184 252.883 198.842C249.288 196.445 246.094 194.57 243.488 193.527C241.017 192.539 238.422 191.891 235.801 191.891ZM139.762 229.738C139.762 228.635 139.603 227.581 139.32 226.585L139.489 226.567C141.243 226.539 144.44 226.324 148.946 225.949L149.027 227.049V234.365C148.634 238.03 148.348 242.642 148.156 248.151L146.72 268.838C146.51 270.18 146.391 271.508 146.391 272.805C146.391 275.393 146.777 277.921 147.579 280.355C148.687 283.912 150.673 287.12 153.286 289.993C156.077 293.261 159.499 295.773 163.469 297.51L163.629 297.58L163.792 297.641C167.467 299.019 171.931 300.082 177.059 300.903C182.232 301.73 187.168 302.156 191.855 302.156C195.612 302.156 199.368 301.948 203.12 301.531L203.327 301.508L203.532 301.471C206.913 300.875 209.941 300.271 212.605 299.657C214.213 299.31 215.863 298.83 217.321 298.101C217.954 297.785 218.782 297.307 219.592 296.604C218.92 300.544 218.123 304.27 217.207 307.785L217.173 307.914L217.144 308.045C216.257 312.128 215.377 315.763 214.507 318.959C213.041 318.298 211.536 317.685 209.992 317.121C207.716 316.218 205.44 315.56 203.209 315.281L202.807 315.23H200.645C199.024 315.23 197.407 315.342 195.796 315.565C193.448 315.78 186.348 316.461 174.53 317.604L174.491 317.608L158.457 319.357C155.57 319.567 148.895 320.157 138.522 321.118L138.511 321.118L117.214 323.161C111.129 323.555 104.202 324.141 96.4388 324.916C90.8868 325.209 85.0217 325.61 78.8447 326.118L71.1344 233.851L105.261 230.652L105.749 234.917L105.823 235.25C106.093 236.466 106.254 237.937 106.254 239.699C106.254 242.291 105.929 245.254 105.221 248.614L105.207 248.684L105.193 248.755C104.074 254.723 102.585 260.491 100.728 266.062C98.8629 271.657 97.0182 275.677 95.285 278.356C93.2896 281.439 91.0098 284.639 88.4388 287.955L82.8405 294.113C81.5084 295.473 79.5938 297.898 79.5938 301.223C79.5938 302.405 79.8478 304.196 81.0525 305.839C81.5389 306.574 82.2162 307.329 83.1474 307.949C84.4768 308.836 85.9329 309.188 87.2656 309.188C88.7997 309.188 90.1074 308.727 90.8515 308.43C91.6461 308.112 92.4435 307.708 93.2095 307.279L100.969 303.543L101.012 303.521C105.193 301.431 109.444 297.719 113.745 293.008L113.755 292.997C117.971 288.359 121.501 283.457 124.307 278.285C127.112 273.271 129.177 268.816 130.167 265.104L130.18 265.055L130.193 265.006C130.992 261.807 132.08 257.159 133.45 251.092C134.819 245.027 135.832 241.118 136.498 239.118C137.123 237.246 137.589 235.912 137.911 235.052C138.226 234.552 138.527 234.036 138.783 233.524L138.791 233.507C139.022 233.045 139.762 231.567 139.762 229.738ZM182.535 223.586C182.535 223.513 182.534 223.441 182.533 223.368L221.102 221.277L221.284 221.257C222.869 221.081 224.184 221.004 225.254 221.004C225.79 221.004 226.199 221.023 226.496 221.05C226.76 221.074 226.884 221.1 226.901 221.103C226.903 221.104 226.902 221.103 226.901 221.103L226.983 221.124L227.067 221.142C227.15 221.161 227.225 221.179 227.291 221.197C227.365 221.469 227.451 221.839 227.537 222.324C227.503 223.947 227.323 227.483 226.97 233.141L226.962 233.263L226.672 244.857C226.469 246.844 225.997 250.993 225.248 257.363L222.053 282.34C221.984 282.708 221.914 283.086 221.843 283.474C221.082 282.163 220.311 280.919 219.529 279.746L219.172 279.21L218.717 278.755C217.268 277.306 215.654 276.03 213.855 275.078C211.604 273.679 209.05 273.031 206.565 272.782L206.242 272.75H205.918C204.485 272.75 201.933 273.002 198.713 273.38L198.527 273.402L198.343 273.435C195.384 273.957 192.004 274.321 188.183 274.508H181.012C179.345 274.348 177.918 273.999 176.691 273.508L176.423 273.4L176.145 273.317C175.557 273.141 175.452 272.969 175.401 272.886L175.395 272.875C175.134 272.458 174.668 271.365 174.336 269.152C174.369 267.098 174.629 263.537 175.172 258.284L176.345 248.313L176.351 248.256C176.727 244.496 177.176 241.72 177.654 239.811L177.691 239.661L177.721 239.509C178.096 237.634 178.57 235.452 179.146 232.958C179.396 231.876 179.641 231.053 179.864 230.447C179.974 230.149 180.07 229.926 180.147 229.768C180.184 229.69 180.215 229.632 180.237 229.593C180.26 229.553 180.272 229.535 180.272 229.535C180.733 228.843 181.19 228.103 181.556 227.372L181.564 227.355C181.796 226.893 182.535 225.415 182.535 223.586Z" fill="black"/>
<path d="M235.562 31.0938C232.74 31.0938 228.587 31.5769 223.506 32.3587L223.213 32.4038L222.924 32.4705C218.13 33.5769 213.806 34.2904 209.936 34.6422L209.757 34.6585L209.579 34.6827C205.399 35.2527 200.729 35.8253 195.565 36.4001C190.083 36.8114 179.359 37.8969 163.531 39.6341L125.959 43.4499L89.2577 48.1477L89.2459 48.1492C78.2913 49.5185 71.3619 50.4087 69.0716 50.7731L50.2177 52.2234L50.0575 52.2423C48.4248 52.4344 47.1473 52.5733 46.2054 52.663C45.352 52.7443 44.9584 52.7664 44.8614 52.7718C44.8389 52.7731 44.8324 52.7734 44.8398 52.7734H44.4408L38.0163 53.4159L37.8491 53.4398C36.1501 53.6825 34.2742 54.082 32.5513 54.8358C31.054 55.4908 28.4407 56.9554 27.0443 60.02C26.7279 60.6663 26 62.292 26 64.2891C26 66.9962 26.9777 69.2867 27.9735 70.9655C29.171 73.0439 30.704 74.9435 32.4447 76.6842L32.662 76.9014L32.8952 77.1014C34.6395 78.5965 37.1134 80.374 40.1093 82.3712L40.2677 82.4768L40.4309 82.5748C43.4868 84.4083 46.3073 85.9788 48.8793 87.2648C52.0237 88.837 55.4097 89.5742 58.9023 89.5742H60.0742C63.1782 89.5742 67.1228 88.4034 70.9201 87.0743C74.5153 85.816 79.637 84.3186 86.383 82.5839C93.1214 80.8511 99.2454 79.4167 104.761 78.2755C110.076 77.176 118.279 75.9409 129.52 74.5833C140.748 73.4225 153.839 72.2589 168.801 71.093C183.661 69.9351 197.612 69.3594 210.66 69.3594C216.57 69.3594 224.757 69.5506 235.266 69.9398C240.595 70.1372 245.096 70.2383 248.746 70.2383C252.261 70.2383 255.204 70.1553 257.388 69.9426C260.189 69.908 263.01 69.535 265.618 68.557L266.011 68.4096L266.386 68.2218C270.179 66.3254 272.653 63.0189 273.548 58.9933L273.738 58.136V57.2578C273.738 55.9785 273.478 54.5783 273.29 53.6381C272.806 51.2178 271.464 49.3747 270.667 48.3784C269.749 47.2309 268.63 46.0999 267.441 45.0116C264.299 41.9293 259.454 39.073 253.787 36.3312C247.591 33.1383 241.428 31.0938 235.562 31.0938Z" fill="black"/>
</svg>
