<svg width="350" height="350" viewBox="0 0 350 350" fill="none" xmlns="http://www.w3.org/2000/svg">
<path d="M235.562 251.094C232.74 251.094 228.587 251.577 223.506 252.359L223.213 252.404L222.924 252.47C218.13 253.577 213.806 254.29 209.936 254.642L209.757 254.658L209.579 254.683C205.399 255.253 200.729 255.825 195.565 256.4C190.083 256.811 179.359 257.897 163.531 259.634L125.959 263.45L89.2577 268.148L89.2459 268.149C78.2913 269.519 71.3619 270.409 69.0716 270.773L50.2177 272.223L50.0575 272.242C48.4248 272.434 47.1473 272.573 46.2054 272.663C45.352 272.744 44.9584 272.766 44.8614 272.772C44.8389 272.773 44.8324 272.773 44.8398 272.773H44.4408L38.0163 273.416L37.8491 273.44C36.1501 273.682 34.2742 274.082 32.5513 274.836C31.054 275.491 28.4407 276.955 27.0443 280.02C26.7279 280.666 26 282.292 26 284.289C26 286.996 26.9777 289.287 27.9735 290.966C29.171 293.044 30.704 294.943 32.4447 296.684L32.662 296.901L32.8952 297.101C34.6395 298.596 37.1134 300.374 40.1093 302.371L40.2677 302.477L40.4309 302.575C43.4868 304.408 46.3073 305.979 48.8793 307.265C52.0237 308.837 55.4097 309.574 58.9023 309.574H60.0742C63.1782 309.574 67.1228 308.403 70.9201 307.074C74.5153 305.816 79.637 304.319 86.383 302.584C93.1214 300.851 99.2454 299.417 104.761 298.275C110.076 297.176 118.279 295.941 129.52 294.583C140.748 293.423 153.839 292.259 168.801 291.093C183.661 289.935 197.612 289.359 210.66 289.359C216.57 289.359 224.757 289.551 235.266 289.94C240.595 290.137 245.096 290.238 248.746 290.238C252.261 290.238 255.204 290.155 257.388 289.943C260.189 289.908 263.01 289.535 265.618 288.557L266.011 288.41L266.386 288.222C270.179 286.325 272.653 283.019 273.548 278.993L273.738 278.136V277.258C273.738 275.978 273.478 274.578 273.29 273.638C272.806 271.218 271.464 269.375 270.667 268.378C269.749 267.231 268.63 266.1 267.441 265.012C264.299 261.929 259.454 259.073 253.787 256.331C247.591 253.138 241.428 251.094 235.562 251.094Z" fill="black"/>
<path d="M235.562 31.0938C232.74 31.0938 228.587 31.5769 223.506 32.3587L223.213 32.4038L222.924 32.4705C218.13 33.5769 213.806 34.2904 209.936 34.6422L209.757 34.6585L209.579 34.6827C205.399 35.2527 200.729 35.8253 195.565 36.4001C190.083 36.8114 179.359 37.8969 163.531 39.6341L125.959 43.4499L89.2577 48.1477L89.2459 48.1492C78.2913 49.5185 71.3619 50.4087 69.0716 50.7731L50.2177 52.2234L50.0575 52.2423C48.4248 52.4344 47.1473 52.5733 46.2054 52.663C45.352 52.7443 44.9584 52.7664 44.8614 52.7718C44.8389 52.7731 44.8324 52.7734 44.8398 52.7734H44.4408L38.0163 53.4159L37.8491 53.4398C36.1501 53.6825 34.2742 54.082 32.5513 54.8358C31.054 55.4908 28.4407 56.9554 27.0443 60.02C26.7279 60.6663 26 62.292 26 64.2891C26 66.9962 26.9777 69.2867 27.9735 70.9655C29.171 73.0439 30.704 74.9435 32.4447 76.6842L32.662 76.9014L32.8952 77.1014C34.6395 78.5965 37.1134 80.374 40.1093 82.3712L40.2677 82.4768L40.4309 82.5748C43.4868 84.4083 46.3073 85.9788 48.8793 87.2648C52.0237 88.837 55.4097 89.5742 58.9023 89.5742H60.0742C63.1782 89.5742 67.1228 88.4034 70.9201 87.0743C74.5153 85.816 79.637 84.3186 86.383 82.5839C93.1214 80.8511 99.2454 79.4167 104.761 78.2755C110.076 77.176 118.279 75.9409 129.52 74.5833C140.748 73.4225 153.839 72.2589 168.801 71.093C183.661 69.9351 197.612 69.3594 210.66 69.3594C216.57 69.3594 224.757 69.5506 235.266 69.9398C240.595 70.1372 245.096 70.2383 248.746 70.2383C252.261 70.2383 255.204 70.1553 257.388 69.9426C260.189 69.908 263.01 69.535 265.618 68.557L266.011 68.4096L266.386 68.2218C270.179 66.3254 272.653 63.0189 273.548 58.9933L273.738 58.136V57.2578C273.738 55.9785 273.478 54.5783 273.29 53.6381C272.806 51.2178 271.464 49.3747 270.667 48.3784C269.749 47.2309 268.63 46.0999 267.441 45.0116C264.299 41.9293 259.454 39.073 253.787 36.3312C247.591 33.1383 241.428 31.0938 235.562 31.0938Z" fill="black"/>
</svg>
