<svg width="350" height="350" viewBox="0 0 350 350" fill="none" xmlns="http://www.w3.org/2000/svg">
<path d="M118.906 181.625C116.62 181.625 113.739 182.086 111.496 184.134C109.52 185.751 108.426 188.061 108.426 190.641C108.426 193.019 109.473 195.499 110.471 197.495L110.525 197.602L110.583 197.706C111.204 198.825 111.711 200.258 112.016 202.092L112.023 202.132L112.03 202.171C112.361 203.991 112.736 207.527 113.127 213.005C113.518 218.482 113.699 222.111 113.699 224.039V264.595L63.7106 274.001L63.6999 274.003C60.0045 274.684 57.1631 275.189 55.1603 275.523C54.1548 275.691 53.3902 275.81 52.8483 275.886C52.5456 275.928 52.3733 275.948 52.297 275.957C52.2797 275.959 52.2673 275.96 52.2595 275.961H52.0373L42.9088 277.178L33.2265 278.388L32.9043 278.469C31.899 278.72 30.8472 279.058 29.8743 279.545C29.0413 279.961 27.8991 280.667 26.9908 281.857C26.2445 282.779 25.9121 283.739 25.7531 284.375C25.5581 285.155 25.5156 285.883 25.5156 286.441C25.5156 287.664 25.804 288.785 26.0908 289.646L26.3238 290.344L26.7323 290.957C28.3145 293.33 30.9093 295.02 33.4644 296.305L41.6703 300.701L41.7395 300.736C43.1039 301.418 44.8229 302.165 46.8441 302.974L47.1906 303.112L47.5528 303.203C49.5893 303.712 51.7003 303.953 53.8672 303.953H55.918C59.1581 303.953 63.5587 302.938 68.6683 301.366C73.5723 299.857 80.1715 298.132 88.5114 296.193L88.569 296.18L102.369 292.656L102.382 292.653C104.999 291.999 108.636 291.157 113.307 290.127L112.527 304.16V307.242C112.527 311.95 112.833 317.784 113.426 324.704L113.433 324.787L113.443 324.87C114.453 333.558 116.086 341.285 118.392 347.995L118.427 348.094L118.465 348.193C121.048 354.866 124.608 360.438 129.289 364.651L129.457 364.801L129.636 364.937C134.106 368.343 138.908 371.12 144.037 373.257L144.222 373.334L144.413 373.397C149.44 375.073 155.109 376.405 161.39 377.418L161.464 377.43L161.539 377.44C167.685 378.26 174.476 378.66 181.895 378.66H185.996C192.039 378.66 198.081 378.358 204.121 377.754L204.136 377.753L204.15 377.751C211.628 376.964 217.803 376.169 222.642 375.363C227.437 374.564 232.886 373.473 238.981 372.098C244.922 370.944 250.024 369.444 253.247 367.165C256.159 365.273 258.879 362.257 258.879 357.926C258.879 355.874 258.104 354.085 257.333 352.753C256.526 351.358 255.438 349.982 254.211 348.643C251.456 345.638 247.958 343.28 243.894 341.474C239.833 339.669 235.75 338.656 231.699 338.656H230.929L230.188 338.868C228.687 339.297 225.838 340.215 221.757 341.575C217.868 342.871 213.178 344.189 207.662 345.523C201.888 346.677 197.22 347.532 193.634 348.099L193.496 348.12L193.359 348.149C190.007 348.855 185.519 349.417 179.816 349.798C176.008 349.988 172.405 350.082 169.004 350.082H163.824C158.275 349.892 154.527 349.248 152.239 348.402C149.931 347.471 148.164 346.3 146.819 344.955C145.67 343.806 144.334 341.878 142.926 338.885C141.821 336.537 140.89 332.315 140.511 325.682C140.124 318.727 139.934 312.584 139.934 307.242C139.934 302.63 140.3 295.181 141.054 284.805L170.936 280.463L170.967 280.458L196.072 276.955C202.605 276.188 210.705 275.416 220.387 274.641L246.097 272.888C253.3 272.499 258.312 272.204 261.095 272.006C264.129 271.789 267.154 271.219 269.584 269.83L270.005 269.59L270.376 269.28C271.955 267.964 273.458 266.288 274.306 264.168L274.699 263.184V261.539C274.699 259.028 273.476 257.055 272.419 255.772C271.322 254.44 269.893 253.229 268.348 252.122C265.094 249.683 262.043 247.675 259.209 246.15L259.06 246.069L258.906 245.998C256.239 244.768 253.299 243.551 250.092 242.348C247.082 241.146 244.439 240.246 242.267 239.764L241.678 239.633H241.074C237.835 239.633 234.298 240.093 230.506 240.936C226.914 241.734 221.19 243.116 213.373 245.07L213.327 245.082L213.282 245.094C205.341 247.224 199.035 248.751 194.323 249.694L142.168 259.506L144.025 232.576L144.028 232.531C144.213 229.001 144.586 225.259 145.152 221.301L145.168 221.186L145.18 221.071C145.558 217.288 146.014 214.459 146.508 212.482C146.988 210.559 147.721 208.592 148.728 206.577C149.726 204.581 150.773 202.101 150.773 199.723V199.43C150.773 196.922 149.902 194.653 148.396 192.771L148.206 192.533L147.991 192.318C146.586 190.913 144.621 189.486 142.367 188.051L142.21 187.952L142.048 187.863C139.655 186.558 137.278 185.524 134.921 184.81C132.829 184.121 130.073 183.499 126.79 182.914C123.732 182.156 120.974 181.625 118.906 181.625Z" fill="black"/>
<path d="M129.133 -27.803C130.015 -26.0396 130.809 -24.2827 131.516 -22.5324C132.005 -20.8635 132.428 -18.9935 132.775 -16.9124L132.808 -16.7154L132.856 -16.5217C133.379 -14.4327 133.724 -12.3555 133.896 -10.2879C134.075 -8.13903 134.171 -5.37057 134.172 -1.94923L133.651 34.9491L129.907 35.2166L129.787 35.2309C111.468 37.4292 103.186 38.3564 84.838 40.0765L84.8305 40.0772L84.8231 40.0779C72.692 41.2519 64.6195 41.8125 60.4023 41.8125H60.2742L48.7495 42.4036L48.7347 42.4043C46.5157 42.5054 44.6102 42.6621 43.0893 42.896C42.3291 43.013 41.5678 43.1637 40.8641 43.3707C40.248 43.5519 39.267 43.8896 38.3594 44.5703C36.6682 45.8387 35.1875 47.8756 35.1875 50.6211C35.1875 52.9728 36.5394 54.7926 37.2591 55.6784C38.1568 56.7832 39.344 57.9169 40.6858 59.0572C43.7358 61.8508 47.3248 63.9179 51.3788 65.2858C55.2152 66.767 58.9815 67.6731 62.6543 67.9114C64.8494 68.1097 66.75 68.2188 68.3125 68.2188H68.928L69.5252 68.0695C71.2139 67.6473 74.0503 66.8348 77.9524 65.6641C94.9895 60.553 105.065 59.7173 122.584 58.2643C123.354 58.2004 124.139 58.1353 124.939 58.0687C127.743 57.835 130.507 57.6735 133.232 57.5839L132.414 126.767V138.223C132.414 141.331 132.618 144.695 133.015 148.306C133.216 151.847 133.523 154.807 133.976 157.074L135.126 162.822C135.331 164.107 135.857 165.71 137.174 167.027C138.647 168.499 140.49 169.004 142.102 169.004H142.395C145.105 169.004 147.928 167.917 149.612 165.112L149.71 164.947L152.14 160.088C153.988 156.392 155.393 152.97 156.284 149.85L156.296 149.808L156.308 149.765C157.16 146.57 158.169 141.274 159.34 134.054C160.493 127.136 161.148 121.918 161.164 118.708L163.889 55.5823L193.665 54.5718L226.488 55.1572L252.608 54.5703C256.654 54.5675 260.179 54.2705 262.948 53.5152L263.009 53.4986L263.07 53.4805C265.231 52.832 268.482 51.4763 269.791 48.2046L270.148 47.3106V45.7617C270.148 43.8476 269.469 42.0508 268.742 40.596L268.566 40.2451L268.338 39.9258C266.69 37.6178 263.699 35.5066 260.359 33.5419L251.778 28.5117L251.699 28.4687C248.776 26.8949 245.813 25.8002 242.826 25.3024L242.795 25.2973L242.764 25.2925C240.021 24.8704 237.419 24.6484 234.973 24.6484H234.661L234.352 24.687C232.657 24.8989 230.111 25.3084 226.78 25.8964L226.753 25.901L226.727 25.906C223.679 26.4774 219.053 27.2492 212.814 28.224C208.155 28.952 198.542 29.4516 192.99 29.7402C191.439 29.8208 190.204 29.8849 189.484 29.933L189.413 29.9377L164.184 32.3435L164.68 1.93527V1.89453C164.68 -1.35615 164.776 -3.80448 164.948 -5.5181L164.952 -5.55922L164.955 -5.6004C165.128 -7.66895 165.575 -10.5817 166.34 -14.41L166.364 -14.529L166.382 -14.6489C166.942 -18.3839 167.63 -20.6966 168.253 -21.9436C169.25 -23.9359 170.246 -26.3235 170.246 -28.5742C170.246 -29.2586 170.144 -30.161 169.761 -31.0864C169.423 -32.5035 168.689 -33.6579 167.964 -34.5139C167.001 -35.6522 165.775 -36.6063 164.509 -37.4198C162.239 -38.998 159.83 -40.2585 157.287 -41.1833L157.223 -41.2064L157.159 -41.2278C154.549 -42.0979 151.585 -42.8329 148.296 -43.4495C145.111 -44.0469 142.109 -44.5475 139.293 -44.9497L138.941 -45H138.586C137.064 -45 135.637 -44.9201 134.364 -44.7191C133.16 -44.5291 131.729 -44.1775 130.447 -43.4086L130.159 -43.2355L129.896 -43.0254C128.444 -41.8639 126.555 -39.7997 126.555 -36.7773V-33.2533L127.083 -32.1975C127.426 -31.5106 128.074 -30.1258 129.054 -27.97L129.092 -27.8858L129.133 -27.803Z" fill="black"/>
</svg>
