<svg width="350" height="350" viewBox="0 0 350 350" fill="none" xmlns="http://www.w3.org/2000/svg">
<path d="M189.629 208.5C186.434 208.5 183.1 208.842 179.642 209.49L179.296 209.555L166.332 213.474L166.303 213.483C163.641 214.315 158.467 215.427 150.449 216.796L150.358 216.811L150.268 216.829C142.485 218.386 136.313 219.543 131.724 220.307C127.197 221.062 118.758 222.215 106.3 223.773L93.9828 224.946L93.8752 224.96C90.814 225.355 88.3541 225.712 86.5462 226.031C85.6514 226.188 84.8231 226.353 84.1218 226.529C83.7736 226.616 83.3722 226.726 82.9678 226.866C82.6681 226.97 81.9188 227.237 81.1405 227.756L80.605 228.113L80.1499 228.568C79.39 229.328 78.6313 230.273 78.0534 231.429C77.179 233.178 77.0742 234.981 77.0742 236.094C77.0742 238.692 78.2497 240.717 79.2688 242.014C80.2854 243.308 81.5636 244.416 82.8557 245.366C85.537 247.482 88.8491 249.122 92.5437 250.426C96.6626 251.88 101.452 252.63 106.752 252.842L106.882 252.848H108.477C111.508 252.848 116.407 252.533 122.979 251.955C130.674 251.587 136.171 251.201 138.805 250.717L192.304 243.701L192.375 243.69C197.669 242.876 203.139 241.76 208.784 240.349C211.764 239.604 214.494 238.684 216.705 237.472C218.633 236.414 221.193 234.573 222.335 231.471C222.794 230.403 223.082 229.197 223.082 227.891C223.082 226.855 222.945 225.624 222.471 224.363C221.717 221.741 219.981 219.82 218.399 218.503C216.45 216.878 213.327 215.295 209.847 213.748L209.788 213.722L209.729 213.697C205.981 212.119 202.937 210.899 200.639 210.063L200.557 210.033L200.473 210.005C197.252 208.931 193.573 208.5 189.629 208.5Z" fill="black"/>
<path fill-rule="evenodd" clip-rule="evenodd" d="M251.152 288.07C249.938 288.07 248.092 288.291 246.079 288.572C243.947 288.87 241.156 289.306 237.726 289.877L221.801 291.324L213.611 292.202L85.3354 303.331L50.7592 306.554L51.3477 313.027L50.7443 306.555L50.7517 306.555C44.3277 307.139 39.5304 307.521 36.3175 307.71L36.2653 307.714L24.7194 308.579C23.0692 308.596 21.2122 308.78 19.4755 309.431C17.6449 310.118 15.3914 311.572 14.2967 314.315C13.8084 315.411 13.5 316.656 13.5 318.008C13.5 320.364 14.3565 322.396 15.2775 323.942C16.3857 325.839 18.2551 327.4 19.7073 328.513C21.4216 329.827 23.6328 331.301 26.2613 332.919C31.3809 336.069 34.387 337.95 35.4374 338.651L35.7741 338.875L36.1361 339.056C37.8647 339.92 39.9953 340.639 42.3132 341.271L42.3799 341.289L42.447 341.306C44.5696 341.837 46.7626 342.086 49.0039 342.086H50.7617C53.2955 342.086 57.1271 341.254 61.4845 340.118L61.5193 340.109L61.554 340.099C65.6913 338.971 70.1348 337.93 74.888 336.979L74.9135 336.974L74.939 336.969C79.4753 336.024 85.9968 334.871 94.5564 333.509C103.055 332.157 110.948 331.099 118.239 330.331L118.346 330.32L118.453 330.305C125.154 329.375 138.351 328.408 158.307 327.43C178.179 326.456 192.469 325.673 201.137 325.083C209.167 324.702 215.913 324.512 221.395 324.508L243.952 325.68H244.121C245.59 325.68 250.57 325.775 259.204 325.971C266.981 326.152 272.318 326.251 275.148 326.264C276.109 326.434 277.125 326.559 278.105 326.559C280.057 326.559 283.009 326.198 285.362 324.034C288.56 321.277 289 317.138 289 314.492V314.199C289 310.866 287.192 308.218 285.764 306.542C284.184 304.688 282.059 302.861 279.625 301.062L279.572 301.023L279.519 300.985C274.824 297.66 271.293 295.235 268.997 293.774L268.813 293.656L268.62 293.551C266.168 292.214 263.459 291.025 260.521 289.968C257.502 288.732 254.366 288.07 251.152 288.07ZM259.355 319.473L259.208 325.971L259.204 325.971L259.355 319.473ZM221.562 318.008V324.508L221.395 324.508L221.225 324.499L221.562 318.008ZM200.762 318.594L201.071 325.086L201.137 325.083L201.204 325.079L200.762 318.594ZM20.8789 320.645L15.3052 323.989L15.2775 323.942C15.2633 323.918 15.2493 323.894 15.2353 323.869L20.8789 320.645ZM20.293 316.836L14.4792 313.929C14.4159 314.056 14.355 314.184 14.2967 314.315C14.2364 314.466 14.1796 314.621 14.1265 314.78L20.293 316.836ZM24.9805 315.078V308.578C24.8941 308.578 24.807 308.579 24.7194 308.579L24.4943 308.596L24.9805 315.078ZM214.238 298.672L213.546 292.209L213.611 292.202L213.676 292.196L214.238 298.672ZM238.555 296.328L237.966 289.855L237.726 289.877L237.486 289.917L238.555 296.328Z" fill="black"/>
<path d="M149.041 -35.5489C146.153 -36.5805 143.089 -37.5008 139.856 -38.3144C136.482 -39.3568 133.26 -40 130.324 -40C128.675 -40 126.938 -39.8613 125.335 -39.39C123.821 -38.9445 121.674 -37.9722 120.284 -35.7608C119.405 -34.4079 118.758 -32.7197 118.758 -30.7773C118.758 -29.5839 119.016 -28.4915 119.287 -27.6351C119.9 -25.3275 121.071 -22.994 122.507 -20.7118C123.401 -19.0426 124.191 -17.0747 124.848 -14.7735L124.865 -14.7153L124.883 -14.6574C125.471 -12.7454 125.789 -10.6113 125.789 -8.21875V-7.82051L125.842 -7.42577C126.184 -4.86072 126.374 -1.44514 126.375 2.89289C125.998 55.7955 125.22 69.912 118.869 114.858C117.972 118.167 117 122.078 117 126.324C117 128.974 117.357 132.006 117.982 135.34L117.988 135.376L117.995 135.411C118.85 139.683 120.054 143.575 121.664 147.026L121.732 147.171L121.807 147.312C123.404 150.305 124.914 152.825 126.334 154.734C127.335 156.171 128.449 157.541 129.691 158.617C130.85 159.622 132.883 161.035 135.598 161.035H136.485L137.067 160.919C139.653 160.401 141.701 158.849 143.198 157.384C145.123 155.683 146.565 153.588 147.6 151.253C148.941 149.317 149.995 147.118 150.819 144.743C151.854 142.626 152.703 140.478 153.356 138.302L153.437 138.032L154.781 131.313V128.082C154.781 125.771 154.677 122.908 154.478 119.527C153.165 97.2083 153.359 86.6168 153.796 62.7652L153.796 62.7571C153.866 58.942 153.943 54.7876 154.02 50.1918C156.197 51.8577 159.038 54.1103 162.576 56.9848L162.584 56.9917L180.687 71.5907C185.875 76.0364 189.689 79.1689 191.952 80.7877C193.83 82.3935 197.006 84.726 201.26 87.6865C205.507 90.772 209.273 93.1531 212.263 94.2609C214.915 95.3091 217.694 95.8281 220.559 95.8281C221.872 95.8281 223.198 95.7414 224.445 95.4919C225.567 95.2676 226.993 94.8413 228.314 93.9221C230.521 92.4693 231.43 90.2479 231.833 88.7973C232.283 87.1777 232.418 85.3979 232.418 83.6758V83.476L232.405 83.2767C232.167 79.7063 231.344 76.0404 230.025 72.3039L230.006 72.2488L229.985 72.194C228.582 68.4531 226.523 64.8315 223.894 61.3258L223.838 61.2508L223.779 61.1776C221.041 57.7551 217.515 54.4842 213.319 51.3367L213.24 51.2777L213.16 51.2213C208.863 48.2141 203.542 45.3104 197.286 42.4829C190.909 39.4951 184.525 36.8022 178.134 34.4055L178.106 34.3949L178.078 34.3847C171.611 32.033 166.328 30.2359 162.269 29.0167L154.609 26.5877C154.85 21.7651 155.417 16.1131 156 10.3014L156 10.3005C156.276 7.54319 156.557 4.75001 156.807 1.99243C156.99 -0.0119362 157.266 -2.23088 157.641 -4.66969C157.977 -6.85305 158.46 -8.64337 159.04 -10.092L159.139 -10.3402L159.216 -10.5962C159.694 -12.1904 160.341 -13.9131 161.174 -15.7681C162.224 -17.6796 162.984 -19.8815 162.984 -22.2812V-22.8672C162.984 -25.4898 161.515 -27.3891 160.861 -28.1731C160.004 -29.2015 158.922 -30.1728 157.803 -31.068L157.73 -31.1266L157.655 -31.1828C155.425 -32.8549 152.469 -34.2645 149.13 -35.5164L149.086 -35.533L149.041 -35.5489Z" fill="black"/>
</svg>
