<svg width="350" height="350" viewBox="0 0 350 350" fill="none" xmlns="http://www.w3.org/2000/svg">
<path d="M133.297 177.039C132.184 177.039 130.381 177.144 128.632 178.018L127.689 178.49L126.943 179.236C124.667 181.512 123.867 184.397 123.867 187.055C123.867 189.462 124.617 191.937 125.498 194.142L125.504 194.156L129.867 205.21C131.721 210.147 134.347 216.09 137.704 223L137.72 223.034L137.737 223.067C140.287 228.166 142.545 232.343 144.47 235.31L102.557 240.377L66.369 245.63L58.9881 246.197L41.589 247.44L40.6485 247.816C39.4373 248.301 38.2081 248.885 37.1132 249.615C36.104 250.288 34.6543 251.446 33.7331 253.288L33.0469 254.661V256.781C33.0469 259.358 34.1956 261.69 35.0752 263.229L35.1862 263.423L35.3104 263.609C36.5504 265.469 38.384 267.017 40.1478 268.285C42.016 269.628 44.3257 271.018 46.9961 272.457L47.0121 272.465L53.5284 276.02L53.6322 276.072C57.4874 277.999 61.5058 279.102 65.6211 279.102H66.083L66.5403 279.036C68.5672 278.747 71.5328 277.873 75.0008 276.717L75.1523 276.667L75.3012 276.609C78.3275 275.432 83.9671 273.859 92.5499 271.909L92.6181 271.893L92.6859 271.876C101.147 269.761 106.656 268.431 109.32 267.855L126.696 264.959C134.423 263.801 141.04 262.939 146.563 262.368L146.575 262.367L146.587 262.365C151.847 261.802 168.227 260.738 196.019 259.172C223.601 258.007 242.054 257.428 251.506 257.422L264.103 258.008H276.377L276.779 257.958C279.199 257.655 281.658 256.84 283.77 255.176C286.704 252.921 287.453 249.63 287.453 247.113V245.434L287.259 244.658C286.436 241.366 284.357 238.74 282.049 236.689C279.772 234.665 276.66 232.638 272.977 230.591C269.22 228.504 265.438 226.716 261.629 225.235L261.575 225.214L261.521 225.194C257.446 223.693 253.509 222.742 249.898 222.742C248.664 222.742 247.199 222.969 245.858 223.217C244.389 223.489 242.587 223.883 240.483 224.384C236.855 225.247 230.891 226.095 222.357 226.87L222.311 226.875L177.7 231.571C178.235 228.987 178.469 226.237 178.469 223.383V223.235L178.462 223.088C178.228 217.945 176.957 212.742 174.791 207.513C172.731 202.067 169.706 197.356 165.657 193.523C162.112 189.991 158.053 186.935 153.514 184.341L153.411 184.282L153.305 184.226C148.985 181.963 144.471 179.913 139.767 178.072L139.299 177.889L138.808 177.78C136.906 177.357 134.989 177.039 133.297 177.039Z" fill="black"/>
<path d="M109.859 277.488C108.605 277.488 107.442 277.754 106.405 278.182C104.387 278.836 101.708 280.19 100.237 283.132C99.2682 285.07 98.9044 287.491 98.7041 289.494L98.6719 289.816V290.141C98.6719 291.039 98.4542 292.629 97.7501 295.093L97.7343 295.149L97.7195 295.204C97.0078 297.873 96.1145 300.556 95.0352 303.254L95.009 303.32L94.9842 303.386C94.053 305.869 92.2007 309.403 89.199 314.1C85.9831 318.823 81.2049 325.325 74.8201 333.644L74.8131 333.653L74.8063 333.662C68.5763 341.839 63.965 347.467 60.8955 350.717L60.8354 350.78L60.777 350.846C57.5487 354.454 53.9221 358.272 49.8921 362.302L44.6186 367.576C43.1289 369.065 41.543 371.402 41.543 374.516C41.543 376.029 41.9294 377.409 42.5222 378.594L42.9939 379.538L43.7397 380.284C45.0342 381.578 47.1759 383.066 50.0938 383.066C51.4675 383.066 52.7037 382.743 53.6141 382.44L54.1977 382.245L61.9406 377.909C64.4463 376.628 68.798 373.719 74.5988 369.603C80.6328 365.514 85.5441 361.918 89.2632 358.831C93.2998 355.838 97.9843 351.635 103.279 346.343C108.615 341.203 112.889 336.736 116.025 332.974L124.625 322.653L131.448 315.831C133.185 314.093 134.711 312.83 136.024 311.955C137.063 311.262 138.056 310.526 138.914 309.745C139.57 309.149 140.393 308.31 141.063 307.226C142.338 305.488 143.312 303.281 143.312 300.688C143.312 298.842 142.851 296.949 141.766 295.233C140.231 292.647 137.739 290.568 135.194 288.867L126.858 283.096L125.977 282.802C125.083 282.504 122.406 281.442 117.633 279.453C115.207 278.442 112.419 277.488 109.859 277.488Z" fill="black"/>
<path d="M180.758 283.055C179.407 283.055 177.822 283.328 176.288 284.204C174.712 285.105 173.597 286.412 172.893 287.82L172.885 287.837C172.654 288.298 171.914 289.777 171.914 291.605C171.914 294.519 173.324 296.82 174.51 298.303L176.914 301.308L182.036 307.334L182.119 307.423C183.801 309.258 186.163 312.598 189.228 317.771L189.265 317.833L200.476 335.829L212.281 353.832L212.328 353.899C217.615 361.536 221.748 367.194 224.666 370.738C227.444 374.11 230.057 376.893 232.472 378.858C235.193 381.339 238.872 383.945 243.16 383.945H244.683L245.314 383.819C250.479 382.786 253.357 378.474 254.975 374.777L255.065 374.571L255.141 374.358C256.448 370.698 256.984 366.482 256.984 361.918V359.618L256.965 359.369C256.515 353.513 254.958 347.499 252.426 341.358C250.016 335.036 246.543 329.102 242.064 323.556L241.978 323.45L241.887 323.347C237.343 318.183 232.297 313.345 226.758 308.832L226.701 308.786L226.643 308.74C221.307 304.59 216.774 301.261 213.074 298.795L213.037 298.77L213 298.746C209.488 296.474 205.243 294.051 200.303 291.478C195.643 288.763 191.86 286.748 189.117 285.605L185.559 284.123L185.516 284.106C184.283 283.613 182.585 283.055 180.758 283.055Z" fill="black"/>
<path d="M129.133 -27.803C130.015 -26.0396 130.809 -24.2827 131.516 -22.5324C132.005 -20.8635 132.428 -18.9935 132.775 -16.9124L132.808 -16.7154L132.856 -16.5217C133.379 -14.4327 133.724 -12.3555 133.896 -10.2879C134.075 -8.13903 134.171 -5.37057 134.172 -1.94923L133.651 34.9491L129.907 35.2166L129.787 35.2309C111.468 37.4292 103.186 38.3564 84.838 40.0765L84.8305 40.0772L84.8231 40.0779C72.692 41.2519 64.6195 41.8125 60.4023 41.8125H60.2742L48.7495 42.4036L48.7347 42.4043C46.5157 42.5054 44.6102 42.6621 43.0893 42.896C42.3291 43.013 41.5678 43.1637 40.8641 43.3707C40.248 43.5519 39.267 43.8896 38.3594 44.5703C36.6682 45.8387 35.1875 47.8756 35.1875 50.6211C35.1875 52.9728 36.5394 54.7926 37.2591 55.6784C38.1568 56.7832 39.344 57.9169 40.6858 59.0572C43.7358 61.8508 47.3248 63.9179 51.3788 65.2858C55.2152 66.767 58.9815 67.6731 62.6543 67.9114C64.8494 68.1097 66.75 68.2188 68.3125 68.2188H68.928L69.5252 68.0695C71.2139 67.6473 74.0503 66.8348 77.9524 65.6641C94.9895 60.553 105.065 59.7173 122.584 58.2643C123.354 58.2004 124.139 58.1353 124.939 58.0687C127.743 57.835 130.507 57.6735 133.232 57.5839L132.414 126.767V138.223C132.414 141.331 132.618 144.695 133.015 148.306C133.216 151.847 133.523 154.807 133.976 157.074L135.126 162.822C135.331 164.107 135.857 165.71 137.174 167.027C138.647 168.499 140.49 169.004 142.102 169.004H142.395C145.105 169.004 147.928 167.917 149.612 165.112L149.71 164.947L152.14 160.088C153.988 156.392 155.393 152.97 156.284 149.85L156.296 149.808L156.308 149.765C157.16 146.57 158.169 141.274 159.34 134.054C160.493 127.136 161.148 121.918 161.164 118.708L163.889 55.5823L193.665 54.5718L226.488 55.1572L252.608 54.5703C256.654 54.5675 260.179 54.2705 262.948 53.5152L263.009 53.4986L263.07 53.4805C265.231 52.832 268.482 51.4763 269.791 48.2046L270.148 47.3106V45.7617C270.148 43.8476 269.469 42.0508 268.742 40.596L268.566 40.2451L268.338 39.9258C266.69 37.6178 263.699 35.5066 260.359 33.5419L251.778 28.5117L251.699 28.4687C248.776 26.8949 245.813 25.8002 242.826 25.3024L242.795 25.2973L242.764 25.2925C240.021 24.8704 237.419 24.6484 234.973 24.6484H234.661L234.352 24.687C232.657 24.8989 230.111 25.3084 226.78 25.8964L226.753 25.901L226.727 25.906C223.679 26.4774 219.053 27.2492 212.814 28.224C208.155 28.952 198.542 29.4516 192.99 29.7402C191.439 29.8208 190.204 29.8849 189.484 29.933L189.413 29.9377L164.184 32.3435L164.68 1.93527V1.89453C164.68 -1.35615 164.776 -3.80448 164.948 -5.5181L164.952 -5.55922L164.955 -5.6004C165.128 -7.66895 165.575 -10.5817 166.34 -14.41L166.364 -14.529L166.382 -14.6489C166.942 -18.3839 167.63 -20.6966 168.253 -21.9436C169.25 -23.9359 170.246 -26.3235 170.246 -28.5742C170.246 -29.2586 170.144 -30.161 169.761 -31.0864C169.423 -32.5035 168.689 -33.6579 167.964 -34.5139C167.001 -35.6522 165.775 -36.6063 164.509 -37.4198C162.239 -38.998 159.83 -40.2585 157.287 -41.1833L157.223 -41.2064L157.159 -41.2278C154.549 -42.0979 151.585 -42.8329 148.296 -43.4495C145.111 -44.0469 142.109 -44.5475 139.293 -44.9497L138.941 -45H138.586C137.064 -45 135.637 -44.9201 134.364 -44.7191C133.16 -44.5291 131.729 -44.1775 130.447 -43.4086L130.159 -43.2355L129.896 -43.0254C128.444 -41.8639 126.555 -39.7997 126.555 -36.7773V-33.2533L127.083 -32.1975C127.426 -31.5106 128.074 -30.1258 129.054 -27.97L129.092 -27.8858L129.133 -27.803Z" fill="black"/>
</svg>
