<svg width="350" height="350" viewBox="0 0 350 350" fill="none" xmlns="http://www.w3.org/2000/svg">
<path d="M133.297 177.039C132.184 177.039 130.381 177.144 128.632 178.018L127.689 178.49L126.943 179.236C124.667 181.512 123.867 184.397 123.867 187.055C123.867 189.462 124.617 191.937 125.498 194.142L125.504 194.156L129.867 205.21C131.721 210.147 134.347 216.09 137.704 223L137.72 223.034L137.737 223.067C140.287 228.166 142.545 232.343 144.47 235.31L102.557 240.377L66.369 245.63L58.9881 246.197L41.589 247.44L40.6485 247.816C39.4373 248.301 38.2081 248.885 37.1132 249.615C36.104 250.288 34.6543 251.446 33.7331 253.288L33.0469 254.661V256.781C33.0469 259.358 34.1956 261.69 35.0752 263.229L35.1862 263.423L35.3104 263.609C36.5504 265.469 38.384 267.017 40.1478 268.285C42.016 269.628 44.3257 271.018 46.9961 272.457L47.0121 272.465L53.5284 276.02L53.6322 276.072C57.4874 277.999 61.5058 279.102 65.6211 279.102H66.083L66.5403 279.036C68.5672 278.747 71.5328 277.873 75.0008 276.717L75.1523 276.667L75.3012 276.609C78.3275 275.432 83.9671 273.859 92.5499 271.909L92.6181 271.893L92.6859 271.876C101.147 269.761 106.656 268.431 109.32 267.855L126.696 264.959C134.423 263.801 141.04 262.939 146.563 262.368L146.575 262.367L146.587 262.365C151.847 261.802 168.227 260.738 196.019 259.172C223.601 258.007 242.054 257.428 251.506 257.422L264.103 258.008H276.377L276.779 257.958C279.199 257.655 281.658 256.84 283.77 255.176C286.704 252.921 287.453 249.63 287.453 247.113V245.434L287.259 244.658C286.436 241.366 284.357 238.74 282.049 236.689C279.772 234.665 276.66 232.638 272.977 230.591C269.22 228.504 265.438 226.716 261.629 225.235L261.575 225.214L261.521 225.194C257.446 223.693 253.509 222.742 249.898 222.742C248.664 222.742 247.199 222.969 245.858 223.217C244.389 223.489 242.587 223.883 240.483 224.384C236.855 225.247 230.891 226.095 222.357 226.87L222.311 226.875L177.7 231.571C178.235 228.987 178.469 226.237 178.469 223.383V223.235L178.462 223.088C178.228 217.945 176.957 212.742 174.791 207.513C172.731 202.067 169.706 197.356 165.657 193.523C162.112 189.991 158.053 186.935 153.514 184.341L153.411 184.282L153.305 184.226C148.985 181.963 144.471 179.913 139.767 178.072L139.299 177.889L138.808 177.78C136.906 177.357 134.989 177.039 133.297 177.039Z" fill="black"/>
<path d="M109.859 277.488C108.605 277.488 107.442 277.754 106.405 278.182C104.387 278.836 101.708 280.19 100.237 283.132C99.2682 285.07 98.9044 287.491 98.7041 289.494L98.6719 289.816V290.141C98.6719 291.039 98.4542 292.629 97.7501 295.093L97.7343 295.149L97.7195 295.204C97.0078 297.873 96.1145 300.556 95.0352 303.254L95.009 303.32L94.9842 303.386C94.053 305.869 92.2007 309.403 89.199 314.1C85.9831 318.823 81.2049 325.325 74.8201 333.644L74.8131 333.653L74.8063 333.662C68.5763 341.839 63.965 347.467 60.8955 350.717L60.8354 350.78L60.777 350.846C57.5487 354.454 53.9221 358.272 49.8921 362.302L44.6186 367.576C43.1289 369.065 41.543 371.402 41.543 374.516C41.543 376.029 41.9294 377.409 42.5222 378.594L42.9939 379.538L43.7397 380.284C45.0342 381.578 47.1759 383.066 50.0938 383.066C51.4675 383.066 52.7037 382.743 53.6141 382.44L54.1977 382.245L61.9406 377.909C64.4463 376.628 68.798 373.719 74.5988 369.603C80.6328 365.514 85.5441 361.918 89.2632 358.831C93.2998 355.838 97.9843 351.635 103.279 346.343C108.615 341.203 112.889 336.736 116.025 332.974L124.625 322.653L131.448 315.831C133.185 314.093 134.711 312.83 136.024 311.955C137.063 311.262 138.056 310.526 138.914 309.745C139.57 309.149 140.393 308.31 141.063 307.226C142.338 305.488 143.312 303.281 143.312 300.688C143.312 298.842 142.851 296.949 141.766 295.233C140.231 292.647 137.739 290.568 135.194 288.867L126.858 283.096L125.977 282.802C125.083 282.504 122.406 281.442 117.633 279.453C115.207 278.442 112.419 277.488 109.859 277.488Z" fill="black"/>
<path d="M180.758 283.055C179.407 283.055 177.822 283.328 176.288 284.204C174.712 285.105 173.597 286.412 172.893 287.82L172.885 287.837C172.654 288.298 171.914 289.777 171.914 291.605C171.914 294.519 173.324 296.82 174.51 298.303L176.914 301.308L182.036 307.334L182.119 307.423C183.801 309.258 186.163 312.598 189.228 317.771L189.265 317.833L200.476 335.829L212.281 353.832L212.328 353.899C217.615 361.536 221.748 367.194 224.666 370.738C227.444 374.11 230.057 376.893 232.472 378.858C235.193 381.339 238.872 383.945 243.16 383.945H244.683L245.314 383.819C250.479 382.786 253.357 378.474 254.975 374.777L255.065 374.571L255.141 374.358C256.448 370.698 256.984 366.482 256.984 361.918V359.618L256.965 359.369C256.515 353.513 254.958 347.499 252.426 341.358C250.016 335.036 246.543 329.102 242.064 323.556L241.978 323.45L241.887 323.347C237.343 318.183 232.297 313.345 226.758 308.832L226.701 308.786L226.643 308.74C221.307 304.59 216.774 301.261 213.074 298.795L213.037 298.77L213 298.746C209.488 296.474 205.243 294.051 200.303 291.478C195.643 288.763 191.86 286.748 189.117 285.605L185.559 284.123L185.516 284.106C184.283 283.613 182.585 283.055 180.758 283.055Z" fill="black"/>
<path d="M149.041 -35.5489C146.153 -36.5805 143.089 -37.5008 139.856 -38.3144C136.482 -39.3568 133.26 -40 130.324 -40C128.675 -40 126.938 -39.8613 125.335 -39.39C123.821 -38.9445 121.674 -37.9722 120.284 -35.7608C119.405 -34.4079 118.758 -32.7197 118.758 -30.7773C118.758 -29.5839 119.016 -28.4915 119.287 -27.6351C119.9 -25.3275 121.071 -22.994 122.507 -20.7118C123.401 -19.0426 124.191 -17.0747 124.848 -14.7735L124.865 -14.7153L124.883 -14.6574C125.471 -12.7454 125.789 -10.6113 125.789 -8.21875V-7.82051L125.842 -7.42577C126.184 -4.86072 126.374 -1.44514 126.375 2.89289C125.998 55.7955 125.22 69.912 118.869 114.858C117.972 118.167 117 122.078 117 126.324C117 128.974 117.357 132.006 117.982 135.34L117.988 135.376L117.995 135.411C118.85 139.683 120.054 143.575 121.664 147.026L121.732 147.171L121.807 147.312C123.404 150.305 124.914 152.825 126.334 154.734C127.335 156.171 128.449 157.541 129.691 158.617C130.85 159.622 132.883 161.035 135.598 161.035H136.485L137.067 160.919C139.653 160.401 141.701 158.849 143.198 157.384C145.123 155.683 146.565 153.588 147.6 151.253C148.941 149.317 149.995 147.118 150.819 144.743C151.854 142.626 152.703 140.478 153.356 138.302L153.437 138.032L154.781 131.313V128.082C154.781 125.771 154.677 122.908 154.478 119.527C153.165 97.2083 153.359 86.6168 153.796 62.7652L153.796 62.7571C153.866 58.942 153.943 54.7876 154.02 50.1918C156.197 51.8577 159.038 54.1103 162.576 56.9848L162.584 56.9917L180.687 71.5907C185.875 76.0364 189.689 79.1689 191.952 80.7877C193.83 82.3935 197.006 84.726 201.26 87.6865C205.507 90.772 209.273 93.1531 212.263 94.2609C214.915 95.3091 217.694 95.8281 220.559 95.8281C221.872 95.8281 223.198 95.7414 224.445 95.4919C225.567 95.2676 226.993 94.8413 228.314 93.9221C230.521 92.4693 231.43 90.2479 231.833 88.7973C232.283 87.1777 232.418 85.3979 232.418 83.6758V83.476L232.405 83.2767C232.167 79.7063 231.344 76.0404 230.025 72.3039L230.006 72.2488L229.985 72.194C228.582 68.4531 226.523 64.8315 223.894 61.3258L223.838 61.2508L223.779 61.1776C221.041 57.7551 217.515 54.4842 213.319 51.3367L213.24 51.2777L213.16 51.2213C208.863 48.2141 203.542 45.3104 197.286 42.4829C190.909 39.4951 184.525 36.8022 178.134 34.4055L178.106 34.3949L178.078 34.3847C171.611 32.033 166.328 30.2359 162.269 29.0167L154.609 26.5877C154.85 21.7651 155.417 16.1131 156 10.3014L156 10.3005C156.276 7.54319 156.557 4.75001 156.807 1.99243C156.99 -0.0119362 157.266 -2.23088 157.641 -4.66969C157.977 -6.85305 158.46 -8.64337 159.04 -10.092L159.139 -10.3402L159.216 -10.5962C159.694 -12.1904 160.341 -13.9131 161.174 -15.7681C162.224 -17.6796 162.984 -19.8815 162.984 -22.2812V-22.8672C162.984 -25.4898 161.515 -27.3891 160.861 -28.1731C160.004 -29.2015 158.922 -30.1728 157.803 -31.068L157.73 -31.1266L157.655 -31.1828C155.425 -32.8549 152.469 -34.2645 149.13 -35.5164L149.086 -35.533L149.041 -35.5489Z" fill="black"/>
</svg>
