<svg width="350" height="350" viewBox="0 0 350 350" fill="none" xmlns="http://www.w3.org/2000/svg">
<path d="M199.176 199.727C195.675 199.727 190.921 201.002 185.756 202.72C181.022 204.173 175.381 205.565 168.802 206.883C162.019 208.046 157.361 208.805 154.756 209.177L154.632 209.195L126.429 214.189C125.518 214.335 121.288 214.793 113.194 215.582L113.036 215.598L96.3614 217.938L83.984 219.063C79.9283 219.08 76.2383 219.39 73.138 220.165C71.6225 220.544 69.8833 221.115 68.3163 222.079C66.7889 223.019 64.4668 224.951 63.7941 228.314L63.6484 229.043V230.078C63.6484 233.5 65.2745 236.142 66.9496 237.938C69.5134 241.087 73.2711 242.865 76.8215 243.975C80.9082 245.252 86.1934 245.867 92.2853 246.07L92.4102 246.074H95.1719C97.3325 246.074 99.9267 245.968 102.915 245.77C107.263 245.572 112.37 245.276 118.229 244.886L118.353 244.877L118.477 244.865C124.45 244.268 131.763 243.378 140.396 242.201L140.424 242.197L176.561 237.534C181.139 237.111 186.405 236.293 192.324 235.113C198.141 234.143 202.653 233.358 205.831 232.762L206.051 232.721L215.253 230.42C216.796 230.198 218.36 229.882 219.763 229.387C220.731 229.045 223.377 228.054 225.054 225.449C225.431 224.922 225.829 224.304 226.172 223.618C226.394 223.175 226.727 222.443 226.95 221.502C227.415 220.032 227.477 218.662 227.477 217.773V216.85L227.253 215.954C226.693 213.718 225.381 211.675 224.322 210.191L224.129 209.922L223.913 209.67C221.399 206.736 217.56 204.934 213.977 203.67L213.955 203.662L206.004 200.91L205.682 200.829C203.834 200.367 201.975 200.018 200.106 199.784L199.643 199.727H199.176Z" fill="black"/>
<path fill-rule="evenodd" clip-rule="evenodd" d="M190.973 258.828C188.129 258.828 185.008 259.379 181.775 260.238L174.85 261.969C171.829 262.677 167.201 263.516 160.845 264.479L160.833 264.481L140.105 267.692C132.768 268.657 125.044 269.623 116.931 270.589C108.843 271.36 103.132 271.949 99.8816 272.353L88.475 273.554L88.1346 273.622C87.0133 273.846 85.8934 274.113 84.89 274.447L84.8877 274.448C84.3235 274.636 82.8153 275.139 81.4171 276.277C79.5052 277.76 78.6422 279.701 78.247 281.019C77.8106 282.473 77.7109 283.911 77.7109 285.078V285.611L77.7863 286.139C78.3932 290.387 81.6904 292.652 83.1424 293.535C85.0117 294.673 87.3002 295.571 89.6752 296.327L89.8246 296.374L89.9758 296.415C94.4198 297.627 98.6897 298.645 102.783 299.464L103.247 299.557L103.72 299.59C106.643 299.799 109.654 299.902 112.75 299.902H117.485L117.824 299.872C120.109 299.664 125.307 299.062 133.265 298.092L133.287 298.089L153.491 295.747L188.907 291.32L198.095 289.597C200.858 289.387 203.36 289.068 205.522 288.6C207.512 288.17 209.744 287.507 211.687 286.324C212.743 285.769 213.959 285.003 215.026 283.936C216.234 282.728 217.809 280.542 217.809 277.461C217.809 275.038 216.745 273.171 216.3 272.43C215.74 271.497 215.057 270.608 214.378 269.806C213.038 268.101 211.293 266.771 209.677 265.732C207.903 264.592 205.796 263.496 203.451 262.43C199.185 260.491 194.722 258.828 190.973 258.828ZM90.8783 280.681C90.8783 280.681 90.8852 280.686 90.8975 280.695C90.8842 280.686 90.8783 280.681 90.8783 280.681Z" fill="black"/>
<path d="M249.273 307.09C247.176 307.09 244.246 307.499 240.939 308.083L240.899 308.09L240.86 308.097C237.913 308.65 233.086 309.409 226.29 310.381L208.167 312.719C203.844 313.283 197.352 313.954 188.627 314.73C179.962 315.322 169.668 316.205 157.757 317.376L111.169 321.478L84.7073 324.124L84.6571 324.13C76.283 325.082 67.0017 325.753 56.8031 326.138L56.7326 326.141L56.6621 326.145C51.4766 326.438 47.4159 326.684 44.4937 326.882C42.1324 327.042 40.1607 327.191 39.0089 327.342L26.9972 328.2L26.979 328.201C25.3456 328.311 23.7559 328.49 22.3535 328.802C21.371 329.02 18.8639 329.608 16.9194 331.552C15.5177 332.954 14.9637 334.529 14.7269 335.476C14.4787 336.468 14.4297 337.372 14.4297 338.027C14.4297 339.407 14.6537 340.726 14.9466 341.897L14.9769 342.018L15.0112 342.139C15.8009 344.903 17.6972 346.857 18.9632 347.997C20.4181 349.306 22.2144 350.555 24.1712 351.751L24.225 351.784L24.2794 351.816C27.9119 353.953 31.9118 355.948 36.2604 357.812L36.4394 357.888L36.6221 357.956C40.7525 359.477 44.8144 360.469 48.5898 360.469H49.4688C51.1944 360.469 52.916 360.345 54.631 360.1C56.3521 359.855 60.8822 358.896 67.7164 357.378C74.4229 356.038 81.7148 354.694 89.5948 353.348C97.6235 352.203 106.838 351.147 117.25 350.183C127.726 349.213 138.795 348.339 150.456 347.562L150.508 347.558L150.56 347.554C162.598 346.583 172.455 345.907 180.153 345.521L223.91 344.062H238.125C242.913 344.454 248.513 344.744 254.906 344.938C261.371 345.134 265.576 345.325 267.694 345.501L268.004 345.527H270.953C272.849 345.527 274.776 345.385 276.572 344.957C278.29 344.548 280.551 343.723 282.409 341.866C284.522 339.753 286.07 336.853 286.07 333.34V332.221L285.995 331.693C285.632 329.156 284.363 327.148 283.319 325.806C282.202 324.37 280.805 323.018 279.313 321.755C276.577 319.44 273.728 317.324 270.767 315.411C267.646 313.197 264.313 311.317 260.776 309.769L260.591 309.689L260.403 309.618C256.809 308.271 253.271 307.375 249.849 307.112L249.561 307.09H249.273Z" fill="black"/>
<path d="M149.041 -35.5489C146.153 -36.5805 143.089 -37.5008 139.856 -38.3144C136.482 -39.3568 133.26 -40 130.324 -40C128.675 -40 126.938 -39.8613 125.335 -39.39C123.821 -38.9445 121.674 -37.9722 120.284 -35.7608C119.405 -34.4079 118.758 -32.7197 118.758 -30.7773C118.758 -29.5839 119.016 -28.4915 119.287 -27.6351C119.9 -25.3275 121.071 -22.994 122.507 -20.7118C123.401 -19.0426 124.191 -17.0747 124.848 -14.7735L124.865 -14.7153L124.883 -14.6574C125.471 -12.7454 125.789 -10.6113 125.789 -8.21875V-7.82051L125.842 -7.42577C126.184 -4.86072 126.374 -1.44514 126.375 2.89289C125.998 55.7955 125.22 69.912 118.869 114.858C117.972 118.167 117 122.078 117 126.324C117 128.974 117.357 132.006 117.982 135.34L117.988 135.376L117.995 135.411C118.85 139.683 120.054 143.575 121.664 147.026L121.732 147.171L121.807 147.312C123.404 150.305 124.914 152.825 126.334 154.734C127.335 156.171 128.449 157.541 129.691 158.617C130.85 159.622 132.883 161.035 135.598 161.035H136.485L137.067 160.919C139.653 160.401 141.701 158.849 143.198 157.384C145.123 155.683 146.565 153.588 147.6 151.253C148.941 149.317 149.995 147.118 150.819 144.743C151.854 142.626 152.703 140.478 153.356 138.302L153.437 138.032L154.781 131.313V128.082C154.781 125.771 154.677 122.908 154.478 119.527C153.165 97.2083 153.359 86.6168 153.796 62.7652L153.796 62.7571C153.866 58.942 153.943 54.7876 154.02 50.1918C156.197 51.8577 159.038 54.1103 162.576 56.9848L162.584 56.9917L180.687 71.5907C185.875 76.0364 189.689 79.1689 191.952 80.7877C193.83 82.3935 197.006 84.726 201.26 87.6865C205.507 90.772 209.273 93.1531 212.263 94.2609C214.915 95.3091 217.694 95.8281 220.559 95.8281C221.872 95.8281 223.198 95.7414 224.445 95.4919C225.567 95.2676 226.993 94.8413 228.314 93.9221C230.521 92.4693 231.43 90.2479 231.833 88.7973C232.283 87.1777 232.418 85.3979 232.418 83.6758V83.476L232.405 83.2767C232.167 79.7063 231.344 76.0404 230.025 72.3039L230.006 72.2488L229.985 72.194C228.582 68.4531 226.523 64.8315 223.894 61.3258L223.838 61.2508L223.779 61.1776C221.041 57.7551 217.515 54.4842 213.319 51.3367L213.24 51.2777L213.16 51.2213C208.863 48.2141 203.542 45.3104 197.286 42.4829C190.909 39.4951 184.525 36.8022 178.134 34.4055L178.106 34.3949L178.078 34.3847C171.611 32.033 166.328 30.2359 162.269 29.0167L154.609 26.5877C154.85 21.7651 155.417 16.1131 156 10.3014L156 10.3005C156.276 7.54319 156.557 4.75001 156.807 1.99243C156.99 -0.0119362 157.266 -2.23088 157.641 -4.66969C157.977 -6.85305 158.46 -8.64337 159.04 -10.092L159.139 -10.3402L159.216 -10.5962C159.694 -12.1904 160.341 -13.9131 161.174 -15.7681C162.224 -17.6796 162.984 -19.8815 162.984 -22.2812V-22.8672C162.984 -25.4898 161.515 -27.3891 160.861 -28.1731C160.004 -29.2015 158.922 -30.1728 157.803 -31.068L157.73 -31.1266L157.655 -31.1828C155.425 -32.8549 152.469 -34.2645 149.13 -35.5164L149.086 -35.533L149.041 -35.5489Z" fill="black"/>
</svg>
