<svg width="350" height="350" viewBox="0 0 350 350" fill="none" xmlns="http://www.w3.org/2000/svg">
<path d="M303.344 137.328C299.658 137.328 293.867 137.978 286.248 139.15L286.046 139.181L285.847 139.227C278.425 140.94 271.644 142.065 265.492 142.624L265.369 142.635L265.247 142.652C258.883 143.52 251.784 144.39 243.949 145.261C235.894 145.861 219.872 147.48 195.979 150.103L195.957 150.105L139.68 155.821L84.6928 162.859L84.685 162.86C67.2001 165.045 56.9281 166.374 54.3589 166.809L25.9558 168.993L25.8457 169.006C20.7306 169.608 18.0326 169.848 17.2598 169.848H16.9855L7.80786 170.765L7.69289 170.782C5.41395 171.107 3.25148 171.6 1.43222 172.396C-0.222005 173.12 -2.43692 174.468 -3.55768 177C-3.89733 177.694 -4.5 179.055 -4.5 180.621C-4.5 183.123 -3.58542 185.413 -2.42861 187.354C-0.969838 189.895 0.957108 192.311 3.26326 194.618L3.41262 194.767L3.57299 194.904C5.883 196.884 9.32946 199.376 13.7695 202.336L13.8784 202.409L13.9906 202.476C18.4718 205.165 22.5533 207.435 26.2259 209.271C29.9745 211.145 34.048 212.049 38.3535 212.049H40.1113C43.5148 212.049 48.4484 210.688 54.2329 208.664C59.8784 206.688 67.7636 204.389 77.9557 201.768C88.1426 199.149 97.4309 196.972 105.825 195.236C114.081 193.528 126.624 191.647 143.556 189.603C160.479 187.853 180.191 186.1 202.697 184.347C225.132 182.598 246.229 181.727 265.99 181.727C274.973 181.727 287.346 182.017 303.14 182.602C311.088 182.896 317.753 183.045 323.119 183.045C328.53 183.045 332.779 182.91 335.727 182.604C339.539 182.58 343.069 182.09 346.144 180.937L346.414 180.836L346.673 180.706C350.55 178.768 353.044 175.463 353.976 171.267L354.107 170.678V170.074C354.107 168.877 353.849 167.359 353.561 165.919C353.149 163.859 351.949 162.096 350.925 160.816C349.815 159.428 348.371 157.957 346.687 156.421C342.772 152.547 336.26 148.6 327.776 144.5C318.916 139.926 310.712 137.328 303.344 137.328Z" fill="black"/>
</svg>
