<svg width="350" height="350" viewBox="0 0 350 350" fill="none" xmlns="http://www.w3.org/2000/svg">
<path d="M303.344 137.332C299.658 137.332 293.867 137.982 286.248 139.154L286.046 139.185L285.847 139.231C278.425 140.943 271.644 142.069 265.492 142.628L265.369 142.639L265.247 142.656C258.883 143.524 251.784 144.394 243.949 145.265C235.894 145.865 219.872 147.484 195.979 150.107L195.957 150.109L139.68 155.824L84.6928 162.863L84.685 162.864C67.2001 165.049 56.9281 166.378 54.3589 166.813L25.9558 168.997L25.8457 169.01C20.7306 169.612 18.0326 169.852 17.2598 169.852H16.9855L7.80786 170.769L7.69289 170.786C5.41395 171.111 3.25148 171.604 1.43222 172.4C-0.222005 173.124 -2.43692 174.472 -3.55768 177.004C-3.89733 177.698 -4.5 179.059 -4.5 180.625C-4.5 183.127 -3.58542 185.417 -2.42861 187.358C-0.969838 189.899 0.957108 192.315 3.26326 194.622L3.41262 194.771L3.57299 194.908C5.883 196.888 9.32946 199.38 13.7695 202.34L13.8784 202.413L13.9906 202.48C18.4718 205.169 22.5533 207.439 26.2259 209.275C29.9745 211.149 34.048 212.053 38.3535 212.053H40.1113C43.5148 212.053 48.4484 210.692 54.2329 208.668C59.8784 206.692 67.7636 204.393 77.9557 201.772C88.1426 199.153 97.4309 196.976 105.825 195.239C114.081 193.531 126.624 191.651 143.556 189.607C160.479 187.856 180.191 186.104 202.697 184.351C225.132 182.602 246.229 181.73 265.99 181.73C274.973 181.73 287.346 182.021 303.14 182.606C311.088 182.9 317.753 183.049 323.119 183.049C328.53 183.049 332.779 182.914 335.727 182.608C339.539 182.584 343.069 182.094 346.144 180.941L346.414 180.839L346.673 180.71C350.55 178.772 353.044 175.467 353.976 171.271L354.107 170.682V170.078C354.107 168.881 353.849 167.363 353.561 165.923C353.149 163.863 351.949 162.1 350.925 160.82C349.815 159.432 348.371 157.961 346.687 156.425C342.772 152.551 336.26 148.604 327.776 144.504C318.916 139.93 310.712 137.332 303.344 137.332Z" fill="black"/>
</svg>
