<svg width="350" height="350" viewBox="0 0 350 350" fill="none" xmlns="http://www.w3.org/2000/svg">
<path d="M189.629 208.5C186.434 208.5 183.1 208.842 179.642 209.49L179.296 209.555L166.332 213.474L166.303 213.483C163.641 214.315 158.467 215.427 150.449 216.796L150.358 216.811L150.268 216.829C142.485 218.386 136.313 219.543 131.724 220.307C127.197 221.062 118.758 222.215 106.3 223.773L93.9828 224.946L93.8752 224.96C90.814 225.355 88.3541 225.712 86.5462 226.031C85.6514 226.188 84.8231 226.353 84.1218 226.529C83.7736 226.616 83.3722 226.726 82.9678 226.866C82.6681 226.97 81.9188 227.237 81.1405 227.756L80.605 228.113L80.1499 228.568C79.39 229.328 78.6313 230.273 78.0534 231.429C77.179 233.178 77.0742 234.981 77.0742 236.094C77.0742 238.692 78.2497 240.717 79.2688 242.014C80.2854 243.308 81.5636 244.416 82.8557 245.366C85.537 247.482 88.8491 249.122 92.5437 250.426C96.6626 251.88 101.452 252.63 106.752 252.842L106.882 252.848H108.477C111.508 252.848 116.407 252.533 122.979 251.955C130.674 251.587 136.171 251.201 138.805 250.717L192.304 243.701L192.375 243.69C197.669 242.876 203.139 241.76 208.784 240.349C211.764 239.604 214.494 238.684 216.705 237.472C218.633 236.414 221.193 234.573 222.335 231.471C222.794 230.403 223.082 229.197 223.082 227.891C223.082 226.855 222.945 225.624 222.471 224.363C221.717 221.741 219.981 219.82 218.399 218.503C216.45 216.878 213.327 215.295 209.847 213.748L209.788 213.722L209.729 213.697C205.981 212.119 202.937 210.899 200.639 210.063L200.557 210.033L200.473 210.005C197.252 208.931 193.573 208.5 189.629 208.5Z" fill="black"/>
<path fill-rule="evenodd" clip-rule="evenodd" d="M251.152 288.07C249.938 288.07 248.092 288.291 246.079 288.572C243.947 288.87 241.156 289.306 237.726 289.877L221.801 291.324L213.611 292.202L85.3354 303.331L50.7592 306.554L51.3477 313.027L50.7443 306.555L50.7517 306.555C44.3277 307.139 39.5304 307.521 36.3175 307.71L36.2653 307.714L24.7194 308.579C23.0692 308.596 21.2122 308.78 19.4755 309.431C17.6449 310.118 15.3914 311.572 14.2967 314.315C13.8084 315.411 13.5 316.656 13.5 318.008C13.5 320.364 14.3565 322.396 15.2775 323.942C16.3857 325.839 18.2551 327.4 19.7073 328.513C21.4216 329.827 23.6328 331.301 26.2613 332.919C31.3809 336.069 34.387 337.95 35.4374 338.651L35.7741 338.875L36.1361 339.056C37.8647 339.92 39.9953 340.639 42.3132 341.271L42.3799 341.289L42.447 341.306C44.5696 341.837 46.7626 342.086 49.0039 342.086H50.7617C53.2955 342.086 57.1271 341.254 61.4845 340.118L61.5193 340.109L61.554 340.099C65.6913 338.971 70.1348 337.93 74.888 336.979L74.9135 336.974L74.939 336.969C79.4753 336.024 85.9968 334.871 94.5564 333.509C103.055 332.157 110.948 331.099 118.239 330.331L118.346 330.32L118.453 330.305C125.154 329.375 138.351 328.408 158.307 327.43C178.179 326.456 192.469 325.673 201.137 325.083C209.167 324.702 215.913 324.512 221.395 324.508L243.952 325.68H244.121C245.59 325.68 250.57 325.775 259.204 325.971C266.981 326.152 272.318 326.251 275.148 326.264C276.109 326.434 277.125 326.559 278.105 326.559C280.057 326.559 283.009 326.198 285.362 324.034C288.56 321.277 289 317.138 289 314.492V314.199C289 310.866 287.192 308.218 285.764 306.542C284.184 304.688 282.059 302.861 279.625 301.062L279.572 301.023L279.519 300.985C274.824 297.66 271.293 295.235 268.997 293.774L268.813 293.656L268.62 293.551C266.168 292.214 263.459 291.025 260.521 289.968C257.502 288.732 254.366 288.07 251.152 288.07ZM259.355 319.473L259.208 325.971L259.204 325.971L259.355 319.473ZM221.562 318.008V324.508L221.395 324.508L221.225 324.499L221.562 318.008ZM200.762 318.594L201.071 325.086L201.137 325.083L201.204 325.079L200.762 318.594ZM20.8789 320.645L15.3052 323.989L15.2775 323.942C15.2633 323.918 15.2493 323.894 15.2353 323.869L20.8789 320.645ZM20.293 316.836L14.4792 313.929C14.4159 314.056 14.355 314.184 14.2967 314.315C14.2364 314.466 14.1796 314.621 14.1265 314.78L20.293 316.836ZM24.9805 315.078V308.578C24.8941 308.578 24.807 308.579 24.7194 308.579L24.4943 308.596L24.9805 315.078ZM214.238 298.672L213.546 292.209L213.611 292.202L213.676 292.196L214.238 298.672ZM238.555 296.328L237.966 289.855L237.726 289.877L237.486 289.917L238.555 296.328Z" fill="black"/>
<path d="M129.133 -27.803C130.015 -26.0396 130.809 -24.2827 131.516 -22.5324C132.005 -20.8635 132.428 -18.9935 132.775 -16.9124L132.808 -16.7154L132.856 -16.5217C133.379 -14.4327 133.724 -12.3555 133.896 -10.2879C134.075 -8.13903 134.171 -5.37057 134.172 -1.94923L133.651 34.9491L129.907 35.2166L129.787 35.2309C111.468 37.4292 103.186 38.3564 84.838 40.0765L84.8305 40.0772L84.8231 40.0779C72.692 41.2519 64.6195 41.8125 60.4023 41.8125H60.2742L48.7495 42.4036L48.7347 42.4043C46.5157 42.5054 44.6102 42.6621 43.0893 42.896C42.3291 43.013 41.5678 43.1637 40.8641 43.3707C40.248 43.5519 39.267 43.8896 38.3594 44.5703C36.6682 45.8387 35.1875 47.8756 35.1875 50.6211C35.1875 52.9728 36.5394 54.7926 37.2591 55.6784C38.1568 56.7832 39.344 57.9169 40.6858 59.0572C43.7358 61.8508 47.3248 63.9179 51.3788 65.2858C55.2152 66.767 58.9815 67.6731 62.6543 67.9114C64.8494 68.1097 66.75 68.2188 68.3125 68.2188H68.928L69.5252 68.0695C71.2139 67.6473 74.0503 66.8348 77.9524 65.6641C94.9895 60.553 105.065 59.7173 122.584 58.2643C123.354 58.2004 124.139 58.1353 124.939 58.0687C127.743 57.835 130.507 57.6735 133.232 57.5839L132.414 126.767V138.223C132.414 141.331 132.618 144.695 133.015 148.306C133.216 151.847 133.523 154.807 133.976 157.074L135.126 162.822C135.331 164.107 135.857 165.71 137.174 167.027C138.647 168.499 140.49 169.004 142.102 169.004H142.395C145.105 169.004 147.928 167.917 149.612 165.112L149.71 164.947L152.14 160.088C153.988 156.392 155.393 152.97 156.284 149.85L156.296 149.808L156.308 149.765C157.16 146.57 158.169 141.274 159.34 134.054C160.493 127.136 161.148 121.918 161.164 118.708L163.889 55.5823L193.665 54.5718L226.488 55.1572L252.608 54.5703C256.654 54.5675 260.179 54.2705 262.948 53.5152L263.009 53.4986L263.07 53.4805C265.231 52.832 268.482 51.4763 269.791 48.2046L270.148 47.3106V45.7617C270.148 43.8476 269.469 42.0508 268.742 40.596L268.566 40.2451L268.338 39.9258C266.69 37.6178 263.699 35.5066 260.359 33.5419L251.778 28.5117L251.699 28.4687C248.776 26.8949 245.813 25.8002 242.826 25.3024L242.795 25.2973L242.764 25.2925C240.021 24.8704 237.419 24.6484 234.973 24.6484H234.661L234.352 24.687C232.657 24.8989 230.111 25.3084 226.78 25.8964L226.753 25.901L226.727 25.906C223.679 26.4774 219.053 27.2492 212.814 28.224C208.155 28.952 198.542 29.4516 192.99 29.7402C191.439 29.8208 190.204 29.8849 189.484 29.933L189.413 29.9377L164.184 32.3435L164.68 1.93527V1.89453C164.68 -1.35615 164.776 -3.80448 164.948 -5.5181L164.952 -5.55922L164.955 -5.6004C165.128 -7.66895 165.575 -10.5817 166.34 -14.41L166.364 -14.529L166.382 -14.6489C166.942 -18.3839 167.63 -20.6966 168.253 -21.9436C169.25 -23.9359 170.246 -26.3235 170.246 -28.5742C170.246 -29.2586 170.144 -30.161 169.761 -31.0864C169.423 -32.5035 168.689 -33.6579 167.964 -34.5139C167.001 -35.6522 165.775 -36.6063 164.509 -37.4198C162.239 -38.998 159.83 -40.2585 157.287 -41.1833L157.223 -41.2064L157.159 -41.2278C154.549 -42.0979 151.585 -42.8329 148.296 -43.4495C145.111 -44.0469 142.109 -44.5475 139.293 -44.9497L138.941 -45H138.586C137.064 -45 135.637 -44.9201 134.364 -44.7191C133.16 -44.5291 131.729 -44.1775 130.447 -43.4086L130.159 -43.2355L129.896 -43.0254C128.444 -41.8639 126.555 -39.7997 126.555 -36.7773V-33.2533L127.083 -32.1975C127.426 -31.5106 128.074 -30.1258 129.054 -27.97L129.092 -27.8858L129.133 -27.803Z" fill="black"/>
</svg>
