<svg width="350" height="350" viewBox="0 0 350 350" fill="none" xmlns="http://www.w3.org/2000/svg">
<path d="M133.297 177.039C132.184 177.039 130.381 177.144 128.632 178.018L127.689 178.49L126.943 179.236C124.667 181.512 123.867 184.397 123.867 187.055C123.867 189.462 124.617 191.937 125.498 194.142L125.504 194.156L129.867 205.21C131.721 210.147 134.347 216.09 137.704 223L137.72 223.034L137.737 223.067C140.287 228.166 142.545 232.343 144.47 235.31L102.557 240.377L66.369 245.63L58.9881 246.197L41.589 247.44L40.6485 247.816C39.4373 248.301 38.2081 248.885 37.1132 249.615C36.104 250.288 34.6543 251.446 33.7331 253.288L33.0469 254.661V256.781C33.0469 259.358 34.1956 261.69 35.0752 263.229L35.1862 263.423L35.3104 263.609C36.5504 265.469 38.384 267.017 40.1478 268.285C42.016 269.628 44.3257 271.018 46.9961 272.457L47.0121 272.465L53.5284 276.02L53.6322 276.072C57.4874 277.999 61.5058 279.102 65.6211 279.102H66.083L66.5403 279.036C68.5672 278.747 71.5328 277.873 75.0008 276.717L75.1523 276.667L75.3012 276.609C78.3275 275.432 83.9671 273.859 92.5499 271.909L92.6181 271.893L92.6859 271.876C101.147 269.761 106.656 268.431 109.32 267.855L126.696 264.959C134.423 263.801 141.04 262.939 146.563 262.368L146.575 262.367L146.587 262.365C151.847 261.802 168.227 260.738 196.019 259.172C223.601 258.007 242.054 257.428 251.506 257.422L264.103 258.008H276.377L276.779 257.958C279.199 257.655 281.658 256.84 283.77 255.176C286.704 252.921 287.453 249.63 287.453 247.113V245.434L287.259 244.658C286.436 241.366 284.357 238.74 282.049 236.689C279.772 234.665 276.66 232.638 272.977 230.591C269.22 228.504 265.438 226.716 261.629 225.235L261.575 225.214L261.521 225.194C257.446 223.693 253.509 222.742 249.898 222.742C248.664 222.742 247.199 222.969 245.858 223.217C244.389 223.489 242.587 223.883 240.483 224.384C236.855 225.247 230.891 226.095 222.357 226.87L222.311 226.875L177.7 231.571C178.235 228.987 178.469 226.237 178.469 223.383V223.235L178.462 223.088C178.228 217.945 176.957 212.742 174.791 207.513C172.731 202.067 169.706 197.356 165.657 193.523C162.112 189.991 158.053 186.935 153.514 184.341L153.411 184.282L153.305 184.226C148.985 181.963 144.471 179.913 139.767 178.072L139.299 177.889L138.808 177.78C136.906 177.357 134.989 177.039 133.297 177.039Z" fill="black"/>
<path d="M109.859 277.488C108.605 277.488 107.442 277.754 106.405 278.182C104.387 278.836 101.708 280.19 100.237 283.132C99.2682 285.07 98.9044 287.491 98.7041 289.494L98.6719 289.816V290.141C98.6719 291.039 98.4542 292.629 97.7501 295.093L97.7343 295.149L97.7195 295.204C97.0078 297.873 96.1145 300.556 95.0352 303.254L95.009 303.32L94.9842 303.386C94.053 305.869 92.2007 309.403 89.199 314.1C85.9831 318.823 81.2049 325.325 74.8201 333.644L74.8131 333.653L74.8063 333.662C68.5763 341.839 63.965 347.467 60.8955 350.717L60.8354 350.78L60.777 350.846C57.5487 354.454 53.9221 358.272 49.8921 362.302L44.6186 367.576C43.1289 369.065 41.543 371.402 41.543 374.516C41.543 376.029 41.9294 377.409 42.5222 378.594L42.9939 379.538L43.7397 380.284C45.0342 381.578 47.1759 383.066 50.0938 383.066C51.4675 383.066 52.7037 382.743 53.6141 382.44L54.1977 382.245L61.9406 377.909C64.4463 376.628 68.798 373.719 74.5988 369.603C80.6328 365.514 85.5441 361.918 89.2632 358.831C93.2998 355.838 97.9843 351.635 103.279 346.343C108.615 341.203 112.889 336.736 116.025 332.974L124.625 322.653L131.448 315.831C133.185 314.093 134.711 312.83 136.024 311.955C137.063 311.262 138.056 310.526 138.914 309.745C139.57 309.149 140.393 308.31 141.063 307.226C142.338 305.488 143.312 303.281 143.312 300.688C143.312 298.842 142.851 296.949 141.766 295.233C140.231 292.647 137.739 290.568 135.194 288.867L126.858 283.096L125.977 282.802C125.083 282.504 122.406 281.442 117.633 279.453C115.207 278.442 112.419 277.488 109.859 277.488Z" fill="black"/>
<path d="M180.758 283.055C179.407 283.055 177.822 283.328 176.288 284.204C174.712 285.105 173.597 286.412 172.893 287.82L172.885 287.837C172.654 288.298 171.914 289.777 171.914 291.605C171.914 294.519 173.324 296.82 174.51 298.303L176.914 301.308L182.036 307.334L182.119 307.423C183.801 309.258 186.163 312.598 189.228 317.771L189.265 317.833L200.476 335.829L212.281 353.832L212.328 353.899C217.615 361.536 221.748 367.194 224.666 370.738C227.444 374.11 230.057 376.893 232.472 378.858C235.193 381.339 238.872 383.945 243.16 383.945H244.683L245.314 383.819C250.479 382.786 253.357 378.474 254.975 374.777L255.065 374.571L255.141 374.358C256.448 370.698 256.984 366.482 256.984 361.918V359.618L256.965 359.369C256.515 353.513 254.958 347.499 252.426 341.358C250.016 335.036 246.543 329.102 242.064 323.556L241.978 323.45L241.887 323.347C237.343 318.183 232.297 313.345 226.758 308.832L226.701 308.786L226.643 308.74C221.307 304.59 216.774 301.261 213.074 298.795L213.037 298.77L213 298.746C209.488 296.474 205.243 294.051 200.303 291.478C195.643 288.763 191.86 286.748 189.117 285.605L185.559 284.123L185.516 284.106C184.283 283.613 182.585 283.055 180.758 283.055Z" fill="black"/>
<path d="M235.562 31.0938C232.74 31.0938 228.587 31.5769 223.506 32.3587L223.213 32.4038L222.924 32.4705C218.13 33.5769 213.806 34.2904 209.936 34.6422L209.757 34.6585L209.579 34.6827C205.399 35.2527 200.729 35.8253 195.565 36.4001C190.083 36.8114 179.359 37.8969 163.531 39.6341L125.959 43.4499L89.2577 48.1477L89.2459 48.1492C78.2913 49.5185 71.3619 50.4087 69.0716 50.7731L50.2177 52.2234L50.0575 52.2423C48.4248 52.4344 47.1473 52.5733 46.2054 52.663C45.352 52.7443 44.9584 52.7664 44.8614 52.7718C44.8389 52.7731 44.8324 52.7734 44.8398 52.7734H44.4408L38.0163 53.4159L37.8491 53.4398C36.1501 53.6825 34.2742 54.082 32.5513 54.8358C31.054 55.4908 28.4407 56.9554 27.0443 60.02C26.7279 60.6663 26 62.292 26 64.2891C26 66.9962 26.9777 69.2867 27.9735 70.9655C29.171 73.0439 30.704 74.9435 32.4447 76.6842L32.662 76.9014L32.8952 77.1014C34.6395 78.5965 37.1134 80.374 40.1093 82.3712L40.2677 82.4768L40.4309 82.5748C43.4868 84.4083 46.3073 85.9788 48.8793 87.2648C52.0237 88.837 55.4097 89.5742 58.9023 89.5742H60.0742C63.1782 89.5742 67.1228 88.4034 70.9201 87.0743C74.5153 85.816 79.637 84.3186 86.383 82.5839C93.1214 80.8511 99.2454 79.4167 104.761 78.2755C110.076 77.176 118.279 75.9409 129.52 74.5833C140.748 73.4225 153.839 72.2589 168.801 71.093C183.661 69.9351 197.612 69.3594 210.66 69.3594C216.57 69.3594 224.757 69.5506 235.266 69.9398C240.595 70.1372 245.096 70.2383 248.746 70.2383C252.261 70.2383 255.204 70.1553 257.388 69.9426C260.189 69.908 263.01 69.535 265.618 68.557L266.011 68.4096L266.386 68.2218C270.179 66.3254 272.653 63.0189 273.548 58.9933L273.738 58.136V57.2578C273.738 55.9785 273.478 54.5783 273.29 53.6381C272.806 51.2178 271.464 49.3747 270.667 48.3784C269.749 47.2309 268.63 46.0999 267.441 45.0116C264.299 41.9293 259.454 39.073 253.787 36.3312C247.591 33.1383 241.428 31.0938 235.562 31.0938Z" fill="black"/>
</svg>
