<svg width="350" height="350" viewBox="0 0 350 350" fill="none" xmlns="http://www.w3.org/2000/svg">
<path d="M73.6548 8.17747C75.0251 10.918 76.2583 13.6517 77.3559 16.3788C78.1382 19.0228 78.805 21.9666 79.3473 25.2204L79.3802 25.4174L79.4286 25.6111C80.2438 28.872 80.7844 32.1211 81.0544 35.3605C81.3308 38.6776 81.4756 42.9055 81.4766 48.0774L80.6935 85.7516L72.8167 86.3142L72.6972 86.3286C51.6016 88.8601 30.8923 89.8187 9.71867 90.7988C4.16347 91.0559 -1.42369 91.3146 -7.05817 91.6035C-10.3513 91.7535 -13.1113 91.9833 -15.2671 92.315C-16.3447 92.4808 -17.3684 92.6864 -18.2797 92.9544C-19.1033 93.1966 -20.2369 93.6015 -21.2422 94.3555C-23.324 95.9168 -25 98.2955 -25 101.432C-25 104.027 -23.4894 106.165 -22.4523 107.441C-21.236 108.938 -19.572 110.536 -17.5979 112.211C-13.2776 116.177 -8.17404 119.124 -2.3626 121.077C3.23022 123.241 8.65694 124.538 13.8936 124.874C17.1617 125.17 19.9411 125.328 22.1875 125.328H22.803L23.4002 125.179C28.0131 124.026 32.2559 122.82 36.3273 121.663C45.9396 118.932 54.5976 116.472 64.9191 115.612C70.0098 115.187 75.0169 114.92 79.9408 114.809C79.8618 116.377 79.7651 118.21 79.6563 120.275L79.6561 120.277C79.455 124.091 79.2123 128.694 78.9622 133.875C78.3794 145.945 77.7712 160.909 77.6153 175.503C77.46 190.049 77.7506 204.421 79.0069 215.235C79.6292 220.591 80.5231 225.41 81.8683 229.013C82.5358 230.801 83.4367 232.631 84.7348 234.091C86.1009 235.629 88.1615 237.006 90.8711 237.006C96.1893 237.006 100.45 234.343 103.67 230.585C106.812 226.919 109.206 221.967 111.094 216.497C114.882 205.526 117.121 191.013 118.501 176.359C119.889 161.626 120.438 146.403 120.724 133.864C120.829 129.24 120.898 125.034 120.959 121.358L120.959 121.356C121.02 117.687 121.071 114.546 121.141 112.045L177.526 111.234L216.602 110.355C222.6 110.353 227.639 109.909 231.484 108.861L231.544 108.844L231.605 108.826C234.743 107.885 238.58 106.138 240.084 102.378L240.441 101.484V99.6426C240.441 97.3378 239.616 95.0528 238.595 93.012L238.42 92.6611L238.192 92.3419C236.055 89.3502 231.99 86.4089 226.99 83.4677L214.161 75.9473L214.081 75.9043C209.889 73.6469 205.706 72.1127 201.547 71.4196L201.516 71.4145L201.485 71.4097C197.472 70.7923 193.698 70.4727 190.178 70.4727H189.866L189.558 70.5113C187.081 70.8208 183.315 71.4256 178.322 72.3065L178.29 72.3122L178.258 72.3183C175.418 72.8579 172.203 73.4859 168.742 74.1621L168.739 74.1627C154.196 77.0036 135.294 80.6961 121.504 82.2626L122.238 53.9065V53.8418C122.238 48.931 122.384 45.1643 122.653 42.4741L122.657 42.433L122.66 42.3918C122.93 39.1514 123.622 34.6761 124.778 28.8946L124.802 28.7757L124.82 28.6558C125.673 22.9677 126.751 19.1901 127.863 16.9665C129.347 13.9977 130.588 10.8777 130.588 8.13867C130.588 7.29055 130.454 6.21608 129.972 5.14824C129.606 3.42476 128.715 1.97664 127.757 0.844019C126.523 -0.614527 124.892 -1.89798 123.093 -3.05093C119.846 -5.31241 116.412 -7.10999 112.795 -8.42553L112.731 -8.44862L112.667 -8.46998C108.885 -9.73075 104.554 -10.8075 99.7027 -11.7171C94.9544 -12.6074 90.4877 -13.3522 86.3048 -13.9497L85.953 -14H85.5977C83.3921 -14 81.391 -13.8835 79.6543 -13.6092C77.9871 -13.346 76.2013 -12.8846 74.6756 -11.9691L74.3872 -11.7961L74.1246 -11.586C72.1844 -10.0338 70.0508 -7.57903 70.0508 -4.16602V0.529949L70.5786 1.58568C71.1174 2.66328 72.1069 4.7804 73.5751 8.01042L73.6134 8.09468L73.6548 8.17747Z" fill="black"/>
<path d="M139.01 231.52L129.868 232.434L129.764 232.449C127.505 232.771 125.393 233.256 123.633 234.026C122.024 234.73 119.941 236.012 118.895 238.384C118.565 239.059 118 240.338 118 241.793C118 244.175 118.872 246.376 120.003 248.274C121.436 250.77 123.334 253.153 125.617 255.436L125.753 255.572L125.898 255.697C128.185 257.656 131.611 260.135 136.047 263.092L136.146 263.158L136.248 263.219C140.721 265.903 144.791 268.166 148.449 269.996C152.124 271.833 156.12 272.721 160.354 272.721H162.111C165.418 272.721 170.276 271.391 176.068 269.364C220.841 253.693 249.796 252.398 283.99 252.398C292.982 252.398 305.362 252.689 321.159 253.274C329.103 253.568 335.762 253.717 341.119 253.717C346.542 253.717 350.779 253.581 353.699 253.277C357.484 253.254 360.959 252.769 363.969 251.641L364.214 251.548L364.449 251.431C368.187 249.562 370.587 246.385 371.488 242.331L371.607 241.795V241.246C371.607 240.105 371.359 238.631 371.071 237.189C370.683 235.249 369.545 233.563 368.534 232.3C367.445 230.939 366.019 229.485 364.342 227.955C360.489 224.14 354.036 220.219 345.552 216.119C336.726 211.561 328.601 209 321.344 209C317.7 209 311.943 209.644 304.324 210.816L304.14 210.844L303.96 210.886C296.52 212.603 289.716 213.732 283.538 214.294L283.426 214.304L283.315 214.319C274.02 215.587 265.193 216.82 256.658 218.013C219.747 223.17 188.303 227.563 148.105 230.655L148.004 230.663L147.904 230.675C142.801 231.275 140.069 231.52 139.26 231.52H139.01Z" fill="black"/>
</svg>
