<svg width="350" height="350" viewBox="0 0 350 350" fill="none" xmlns="http://www.w3.org/2000/svg">
<path d="M133.297 177.039C132.184 177.039 130.381 177.144 128.632 178.018L127.689 178.49L126.943 179.236C124.667 181.512 123.867 184.397 123.867 187.055C123.867 189.462 124.617 191.937 125.498 194.142L125.504 194.156L129.867 205.21C131.721 210.147 134.347 216.09 137.704 223L137.72 223.034L137.737 223.067C140.287 228.166 142.545 232.343 144.47 235.31L102.557 240.377L66.369 245.63L58.9881 246.197L41.589 247.44L40.6485 247.816C39.4373 248.301 38.2081 248.885 37.1132 249.615C36.104 250.288 34.6543 251.446 33.7331 253.288L33.0469 254.661V256.781C33.0469 259.358 34.1956 261.69 35.0752 263.229L35.1862 263.423L35.3104 263.609C36.5504 265.469 38.384 267.017 40.1478 268.285C42.016 269.628 44.3257 271.018 46.9961 272.457L47.0121 272.465L53.5284 276.02L53.6322 276.072C57.4874 277.999 61.5058 279.102 65.6211 279.102H66.083L66.5403 279.036C68.5672 278.747 71.5328 277.873 75.0008 276.717L75.1523 276.667L75.3012 276.609C78.3275 275.432 83.9671 273.859 92.5499 271.909L92.6181 271.893L92.6859 271.876C101.147 269.761 106.656 268.431 109.32 267.855L126.696 264.959C134.423 263.801 141.04 262.939 146.563 262.368L146.575 262.367L146.587 262.365C151.847 261.802 168.227 260.738 196.019 259.172C223.601 258.007 242.054 257.428 251.506 257.422L264.103 258.008H276.377L276.779 257.958C279.199 257.655 281.658 256.84 283.77 255.176C286.704 252.921 287.453 249.63 287.453 247.113V245.434L287.259 244.658C286.436 241.366 284.357 238.74 282.049 236.689C279.772 234.665 276.66 232.638 272.977 230.591C269.22 228.504 265.438 226.716 261.629 225.235L261.575 225.214L261.521 225.194C257.446 223.693 253.509 222.742 249.898 222.742C248.664 222.742 247.199 222.969 245.858 223.217C244.389 223.489 242.587 223.883 240.483 224.384C236.855 225.247 230.891 226.095 222.357 226.87L222.311 226.875L177.7 231.571C178.235 228.987 178.469 226.237 178.469 223.383V223.235L178.462 223.088C178.228 217.945 176.957 212.742 174.791 207.513C172.731 202.067 169.706 197.356 165.657 193.523C162.112 189.991 158.053 186.935 153.514 184.341L153.411 184.282L153.305 184.226C148.985 181.963 144.471 179.913 139.767 178.072L139.299 177.889L138.808 177.78C136.906 177.357 134.989 177.039 133.297 177.039Z" fill="black"/>
<path d="M109.859 277.488C108.605 277.488 107.442 277.754 106.405 278.182C104.387 278.836 101.708 280.19 100.237 283.132C99.2682 285.07 98.9044 287.491 98.7041 289.494L98.6719 289.816V290.141C98.6719 291.039 98.4542 292.629 97.7501 295.093L97.7343 295.149L97.7195 295.204C97.0078 297.873 96.1145 300.556 95.0352 303.254L95.009 303.32L94.9842 303.386C94.053 305.869 92.2007 309.403 89.199 314.1C85.9831 318.823 81.2049 325.325 74.8201 333.644L74.8131 333.653L74.8063 333.662C68.5763 341.839 63.965 347.467 60.8955 350.717L60.8354 350.78L60.777 350.846C57.5487 354.454 53.9221 358.272 49.8921 362.302L44.6186 367.576C43.1289 369.065 41.543 371.402 41.543 374.516C41.543 376.029 41.9294 377.409 42.5222 378.594L42.9939 379.538L43.7397 380.284C45.0342 381.578 47.1759 383.066 50.0938 383.066C51.4675 383.066 52.7037 382.743 53.6141 382.44L54.1977 382.245L61.9406 377.909C64.4463 376.628 68.798 373.719 74.5988 369.603C80.6328 365.514 85.5441 361.918 89.2632 358.831C93.2998 355.838 97.9843 351.635 103.279 346.343C108.615 341.203 112.889 336.736 116.025 332.974L124.625 322.653L131.448 315.831C133.185 314.093 134.711 312.83 136.024 311.955C137.063 311.262 138.056 310.526 138.914 309.745C139.57 309.149 140.393 308.31 141.063 307.226C142.338 305.488 143.312 303.281 143.312 300.688C143.312 298.842 142.851 296.949 141.766 295.233C140.231 292.647 137.739 290.568 135.194 288.867L126.858 283.096L125.977 282.802C125.083 282.504 122.406 281.442 117.633 279.453C115.207 278.442 112.419 277.488 109.859 277.488Z" fill="black"/>
<path d="M180.758 283.055C179.407 283.055 177.822 283.328 176.288 284.204C174.712 285.105 173.597 286.412 172.893 287.82L172.885 287.837C172.654 288.298 171.914 289.777 171.914 291.605C171.914 294.519 173.324 296.82 174.51 298.303L176.914 301.308L182.036 307.334L182.119 307.423C183.801 309.258 186.163 312.598 189.228 317.771L189.265 317.833L200.476 335.829L212.281 353.832L212.328 353.899C217.615 361.536 221.748 367.194 224.666 370.738C227.444 374.11 230.057 376.893 232.472 378.858C235.193 381.339 238.872 383.945 243.16 383.945H244.683L245.314 383.819C250.479 382.786 253.357 378.474 254.975 374.777L255.065 374.571L255.141 374.358C256.448 370.698 256.984 366.482 256.984 361.918V359.618L256.965 359.369C256.515 353.513 254.958 347.499 252.426 341.358C250.016 335.036 246.543 329.102 242.064 323.556L241.978 323.45L241.887 323.347C237.343 318.183 232.297 313.345 226.758 308.832L226.701 308.786L226.643 308.74C221.307 304.59 216.774 301.261 213.074 298.795L213.037 298.77L213 298.746C209.488 296.474 205.243 294.051 200.303 291.478C195.643 288.763 191.86 286.748 189.117 285.605L185.559 284.123L185.516 284.106C184.283 283.613 182.585 283.055 180.758 283.055Z" fill="black"/>
<path d="M189.629 -11.5C186.434 -11.5 183.1 -11.1581 179.642 -10.5098L179.296 -10.4449L166.332 -6.52563L166.303 -6.51662C163.641 -5.68467 158.467 -4.57306 150.449 -3.20416L150.358 -3.18868L150.268 -3.17065C142.485 -1.61405 136.313 -0.4575 131.724 0.30719C127.197 1.06182 118.758 2.21503 106.3 3.77272L93.9828 4.94581L93.8752 4.95969C90.814 5.35468 88.3541 5.71151 86.5462 6.03055C85.6514 6.18845 84.8231 6.35322 84.1218 6.52855C83.7736 6.61558 83.3722 6.726 82.9678 6.86601C82.6681 6.96975 81.9188 7.2369 81.1405 7.75574L80.605 8.11275L80.1499 8.56787C79.39 9.32779 78.6313 10.2732 78.0534 11.429C77.179 13.1779 77.0742 14.9805 77.0742 16.0938C77.0742 18.6925 78.2497 20.7168 79.2688 22.0139C80.2854 23.3078 81.5636 24.416 82.8557 25.3658C85.537 27.4815 88.8491 29.1223 92.5437 30.4263C96.6626 31.8801 101.452 32.6305 106.752 32.8425L106.882 32.8477H108.477C111.508 32.8477 116.407 32.5335 122.979 31.9551C130.674 31.5873 136.171 31.201 138.805 30.7173L192.304 23.701L192.375 23.69C197.669 22.8756 203.139 21.76 208.784 20.3489C211.764 19.6038 214.494 18.6841 216.705 17.4717C218.633 16.4141 221.193 14.5732 222.335 11.471C222.794 10.4031 223.082 9.19673 223.082 7.89062C223.082 6.85494 222.945 5.62391 222.471 4.36319C221.717 1.74142 219.981 -0.179537 218.399 -1.49734C216.45 -3.12171 213.327 -4.70542 209.847 -6.25227L209.788 -6.27828L209.729 -6.30313C205.981 -7.8812 202.937 -9.10117 200.639 -9.93678L200.557 -9.96679L200.473 -9.99457C197.252 -11.0685 193.573 -11.5 189.629 -11.5Z" fill="black"/>
<path fill-rule="evenodd" clip-rule="evenodd" d="M251.152 68.0703C249.938 68.0703 248.092 68.2912 246.079 68.5721C243.947 68.8697 241.156 69.3063 237.726 69.8767L221.801 71.3244L213.611 72.2019L85.3354 83.3308L50.7592 86.554L51.3477 93.0273L50.7443 86.5554L50.7517 86.5547C44.3277 87.1387 39.5304 87.5214 36.3175 87.7104L36.2653 87.7135L24.7194 88.5794C23.0692 88.5963 21.2122 88.7802 19.4755 89.4314C17.6449 90.1179 15.3914 91.5723 14.2967 94.3151C13.8084 95.4105 13.5 96.6557 13.5 98.0078C13.5 100.364 14.3565 102.396 15.2775 103.942C16.3857 105.839 18.2551 107.4 19.7073 108.513C21.4216 109.827 23.6328 111.301 26.2613 112.919C31.3809 116.069 34.387 117.95 35.4374 118.651L35.7741 118.875L36.1361 119.056C37.8647 119.92 39.9953 120.639 42.3132 121.271L42.3799 121.289L42.447 121.306C44.5696 121.837 46.7626 122.086 49.0039 122.086H50.7617C53.2955 122.086 57.1271 121.254 61.4845 120.118L61.5193 120.109L61.554 120.099C65.6913 118.971 70.1348 117.93 74.888 116.979L74.9135 116.974L74.939 116.969C79.4753 116.024 85.9968 114.871 94.5564 113.509C103.055 112.157 110.948 111.099 118.239 110.331L118.346 110.32L118.453 110.305C125.154 109.375 138.351 108.408 158.307 107.43C178.179 106.456 192.469 105.673 201.137 105.083C209.167 104.702 215.913 104.512 221.395 104.508L243.952 105.68H244.121C245.59 105.68 250.57 105.775 259.204 105.971C266.981 106.152 272.318 106.251 275.148 106.264C276.109 106.434 277.125 106.559 278.105 106.559C280.057 106.559 283.009 106.198 285.362 104.034C288.56 101.277 289 97.1376 289 94.4922V94.1992C289 90.8658 287.192 88.2182 285.764 86.5418C284.184 84.6879 282.059 82.861 279.625 81.0619L279.572 81.0229L279.519 80.9849C274.824 77.6597 271.293 75.2348 268.997 73.774L268.813 73.6564L268.62 73.5515C266.168 72.2137 263.459 71.0248 260.521 69.9682C257.502 68.7323 254.366 68.0703 251.152 68.0703ZM259.355 99.4727L259.208 105.971L259.204 105.971L259.355 99.4727ZM221.562 98.0078V104.508L221.395 104.508L221.225 104.499L221.562 98.0078ZM200.762 98.5938L201.071 105.086L201.137 105.083L201.204 105.079L200.762 98.5938ZM20.8789 100.645L15.3052 103.989L15.2775 103.942C15.2633 103.918 15.2493 103.894 15.2353 103.869L20.8789 100.645ZM20.293 96.8359L14.4792 93.929C14.4159 94.0556 14.355 94.1843 14.2967 94.3151C14.2364 94.4663 14.1796 94.6214 14.1265 94.7805L20.293 96.8359ZM24.9805 95.0781V88.5781C24.8941 88.5781 24.807 88.5786 24.7194 88.5794L24.4943 88.5963L24.9805 95.0781ZM214.238 78.6719L213.546 72.2089L213.611 72.2019L213.676 72.1962L214.238 78.6719ZM238.555 76.3281L237.966 69.8548L237.726 69.8767L237.486 69.9166L238.555 76.3281Z" fill="black"/>
</svg>
