<svg width="350" height="350" viewBox="0 0 350 350" fill="none" xmlns="http://www.w3.org/2000/svg">
<path d="M76.877 249.207L269.357 232.508L281.662 231.189L305.832 228.992C316.379 227.234 322.678 226.355 324.729 226.355C328.244 226.355 331.76 227.088 335.275 228.553C339.377 230.018 343.039 231.629 346.262 233.387C349.484 235.438 354.611 238.953 361.643 243.934C368.381 248.914 371.75 252.869 371.75 255.799V256.238C371.75 259.754 371.018 262.098 369.553 263.27C368.674 264.148 367.209 264.588 365.158 264.588C364.279 264.588 363.107 264.441 361.643 264.148C357.834 264.148 349.631 264.002 337.033 263.709C324.143 263.416 316.525 263.27 314.182 263.27L280.344 261.512C271.848 261.512 261.447 261.805 249.143 262.391C236.252 263.27 214.865 264.441 184.982 265.906C155.1 267.371 134.885 268.836 124.338 270.301C113.205 271.473 101.193 273.084 88.3027 275.135C75.4121 277.186 65.4512 278.943 58.4199 280.408C51.0957 281.873 44.2109 283.484 37.7656 285.242C31.0273 287 26.4863 287.879 24.1426 287.879H21.5059C18.8691 287.879 16.3789 287.586 14.0352 287C10.8125 286.121 8.32227 285.242 6.56445 284.363C4.80664 283.191 0.119141 280.262 -7.49805 275.574C-15.1152 270.887 -19.5098 267.518 -20.6816 265.467C-21.5605 264.002 -22 262.684 -22 261.512C-22 260.926 -21.8535 260.34 -21.5605 259.754C-20.9746 257.996 -18.6309 257.117 -14.5293 257.117L3.04883 255.799C8.0293 255.506 15.3535 254.92 25.0215 254.041L76.877 249.207ZM235.08 95.3984L154.66 105.945C151.73 106.531 144.113 107.117 131.809 107.703C121.848 108.582 114.816 109.021 110.715 109.021H108.518C101.193 108.729 95.041 107.703 90.0605 105.945C85.0801 104.188 81.125 102.137 78.1953 99.793C74.9727 97.4492 73.3613 95.3984 73.3613 93.6406C73.3613 92.4688 73.5078 91.5898 73.8008 91.0039C74.0938 90.418 74.5332 89.832 75.1191 89.2461C75.998 88.6602 80.9785 87.7812 90.0605 86.6094L108.518 84.8516C127.268 82.5078 140.158 80.75 147.189 79.5781C154.221 78.4062 163.596 76.6484 175.314 74.3047C187.326 72.2539 195.676 70.4961 200.363 69.0312L219.26 63.3184C223.947 62.4395 228.342 62 232.443 62C237.717 62 242.111 62.5859 245.627 63.7578C248.85 64.9297 253.244 66.6875 258.811 69.0312C264.084 71.375 267.6 73.2793 269.357 74.7441C271.115 76.209 272.141 77.6738 272.434 79.1387C272.727 79.7246 272.873 80.457 272.873 81.3359C272.873 81.9219 272.727 82.5078 272.434 83.0938C271.555 86.0234 267.014 88.5137 258.811 90.5645C250.607 92.6152 242.697 94.2266 235.08 95.3984Z" fill="black" stroke="black" stroke-width="9"/>
<path d="M268.972 228.526L76.5184 245.223L24.6593 250.057L24.6543 250.058C14.9996 250.936 7.72819 251.517 2.81394 251.806L2.78179 251.808L-14.684 253.118C-16.8916 253.128 -18.9926 253.365 -20.7678 254.031C-22.5714 254.707 -24.4032 255.987 -25.253 258.203C-25.7216 259.216 -26 260.328 -26 261.512C-26 263.655 -25.2125 265.682 -24.1308 267.493C-23.1 269.271 -21.1245 271.032 -18.9406 272.706C-16.5898 274.508 -13.4581 276.603 -9.59444 278.981C-1.95175 283.684 2.66261 286.569 4.34565 287.691L4.55286 287.83L4.7756 287.941C6.87605 288.991 9.65574 289.952 12.9827 290.859L13.0237 290.87L13.065 290.881C15.7535 291.553 18.5716 291.879 21.5059 291.879H24.1426C27.084 291.879 32.12 290.849 38.7753 289.113L38.7967 289.107L38.8181 289.101C45.1652 287.37 51.9599 285.779 59.2044 284.331L59.2201 284.327L59.2357 284.324C66.174 282.879 76.0616 281.133 88.9312 279.085C101.763 277.044 113.704 275.442 124.757 274.279L124.823 274.272L124.888 274.263C135.232 272.826 155.274 271.367 185.178 269.901C215.031 268.438 236.438 267.266 249.374 266.384C261.572 265.804 271.857 265.514 280.24 265.512L314.078 267.27H314.182C316.468 267.27 324.025 267.414 336.94 267.708C349.12 267.991 357.241 268.139 361.254 268.148C362.676 268.418 364.003 268.588 365.158 268.588C367.549 268.588 370.24 268.116 372.218 266.256C375.059 263.856 375.75 259.913 375.75 256.238V255.799C375.75 252.884 374.14 250.239 372.268 248.041C370.303 245.734 367.505 243.293 364.02 240.717L363.988 240.693L363.955 240.669C356.919 235.686 351.722 232.12 348.409 230.012L348.295 229.94L348.177 229.875C344.767 228.015 340.941 226.334 336.716 224.82C332.785 223.196 328.781 222.355 324.729 222.355C323.377 222.355 321.01 222.621 317.914 223.053C314.743 223.495 310.542 224.153 305.322 225.022L281.268 227.209L268.972 228.526Z" fill="black"/>
<path d="M155.305 109.895L235.644 99.3587L235.688 99.3519C243.438 98.1596 251.469 96.5228 259.781 94.445C264.034 93.3818 267.592 92.1463 270.292 90.6659C272.787 89.2977 275.183 87.3714 276.156 84.5777C276.607 83.5833 276.873 82.4935 276.873 81.3359C276.873 80.2061 276.712 79.0054 276.241 77.8571C275.589 75.3575 273.894 73.3174 271.918 71.6713C269.682 69.8078 265.687 67.7101 260.435 65.376L260.399 65.36L260.363 65.3447C254.774 62.9914 250.309 61.204 246.994 59.9986L246.943 59.9802L246.892 59.9631C242.836 58.6111 237.98 58 232.443 58C228.058 58 223.415 58.4696 218.523 59.3869L218.31 59.4268L199.188 65.2078L199.17 65.2133C194.767 66.5892 186.659 68.3099 174.641 70.3617L174.585 70.3713L174.53 70.3824C162.829 72.7225 153.502 74.4709 146.532 75.6325C139.599 76.788 126.804 78.5343 108.08 80.8752L89.6149 82.6337L89.5487 82.6423C84.9868 83.2309 81.3997 83.7528 78.8185 84.2083C77.5336 84.4351 76.4407 84.6553 75.5772 84.8711C75.147 84.9787 74.7218 85.0979 74.3326 85.2327C74.0077 85.3451 73.4441 85.5554 72.9003 85.9179L72.5708 86.1376L72.2907 86.4177C71.4775 87.2309 70.7515 88.1582 70.2231 89.2151C69.5122 90.6368 69.3613 92.2645 69.3613 93.6406C69.3613 95.7582 70.3223 97.5654 71.4246 98.9684C72.5288 100.374 74.0303 101.703 75.7691 102.974C79.1497 105.661 83.5219 107.879 88.7293 109.717C94.2012 111.649 100.777 112.715 108.358 113.018L108.438 113.021H110.715C115 113.021 122.162 112.569 132.08 111.695C144.051 111.124 151.938 110.541 155.305 109.895Z" fill="black"/>
</svg>
