<svg width="350" height="350" viewBox="0 0 350 350" fill="none" xmlns="http://www.w3.org/2000/svg">
<path d="M199.176 199.727C195.675 199.727 190.921 201.002 185.756 202.72C181.022 204.173 175.381 205.565 168.802 206.883C162.019 208.046 157.361 208.805 154.756 209.177L154.632 209.195L126.429 214.189C125.518 214.335 121.288 214.793 113.194 215.582L113.036 215.598L96.3614 217.938L83.984 219.063C79.9283 219.08 76.2383 219.39 73.138 220.165C71.6225 220.544 69.8833 221.115 68.3163 222.079C66.7889 223.019 64.4668 224.951 63.7941 228.314L63.6484 229.043V230.078C63.6484 233.5 65.2745 236.142 66.9496 237.938C69.5134 241.087 73.2711 242.865 76.8215 243.975C80.9082 245.252 86.1934 245.867 92.2853 246.07L92.4102 246.074H95.1719C97.3325 246.074 99.9267 245.968 102.915 245.77C107.263 245.572 112.37 245.276 118.229 244.886L118.353 244.877L118.477 244.865C124.45 244.268 131.763 243.378 140.396 242.201L140.424 242.197L176.561 237.534C181.139 237.111 186.405 236.293 192.324 235.113C198.141 234.143 202.653 233.358 205.831 232.762L206.051 232.721L215.253 230.42C216.796 230.198 218.36 229.882 219.763 229.387C220.731 229.045 223.377 228.054 225.054 225.449C225.431 224.922 225.829 224.304 226.172 223.618C226.394 223.175 226.727 222.443 226.95 221.502C227.415 220.032 227.477 218.662 227.477 217.773V216.85L227.253 215.954C226.693 213.718 225.381 211.675 224.322 210.191L224.129 209.922L223.913 209.67C221.399 206.736 217.56 204.934 213.977 203.67L213.955 203.662L206.004 200.91L205.682 200.829C203.834 200.367 201.975 200.018 200.106 199.784L199.643 199.727H199.176Z" fill="black"/>
<path fill-rule="evenodd" clip-rule="evenodd" d="M190.973 258.828C188.129 258.828 185.008 259.379 181.775 260.238L174.85 261.969C171.829 262.677 167.201 263.516 160.845 264.479L160.833 264.481L140.105 267.692C132.768 268.657 125.044 269.623 116.931 270.589C108.843 271.36 103.132 271.949 99.8816 272.353L88.475 273.554L88.1346 273.622C87.0133 273.846 85.8934 274.113 84.89 274.447L84.8877 274.448C84.3235 274.636 82.8153 275.139 81.4171 276.277C79.5052 277.76 78.6422 279.701 78.247 281.019C77.8106 282.473 77.7109 283.911 77.7109 285.078V285.611L77.7863 286.139C78.3932 290.387 81.6904 292.652 83.1424 293.535C85.0117 294.673 87.3002 295.571 89.6752 296.327L89.8246 296.374L89.9758 296.415C94.4198 297.627 98.6897 298.645 102.783 299.464L103.247 299.557L103.72 299.59C106.643 299.799 109.654 299.902 112.75 299.902H117.485L117.824 299.872C120.109 299.664 125.307 299.062 133.265 298.092L133.287 298.089L153.491 295.747L188.907 291.32L198.095 289.597C200.858 289.387 203.36 289.068 205.522 288.6C207.512 288.17 209.744 287.507 211.687 286.324C212.743 285.769 213.959 285.003 215.026 283.936C216.234 282.728 217.809 280.542 217.809 277.461C217.809 275.038 216.745 273.171 216.3 272.43C215.74 271.497 215.057 270.608 214.378 269.806C213.038 268.101 211.293 266.771 209.677 265.732C207.903 264.592 205.796 263.496 203.451 262.43C199.185 260.491 194.722 258.828 190.973 258.828ZM90.8783 280.681C90.8783 280.681 90.8852 280.686 90.8975 280.695C90.8842 280.686 90.8783 280.681 90.8783 280.681Z" fill="black"/>
<path d="M249.273 307.09C247.176 307.09 244.246 307.499 240.939 308.083L240.899 308.09L240.86 308.097C237.913 308.65 233.086 309.409 226.29 310.381L208.167 312.719C203.844 313.283 197.352 313.954 188.627 314.73C179.962 315.322 169.668 316.205 157.757 317.376L111.169 321.478L84.7073 324.124L84.6571 324.13C76.283 325.082 67.0017 325.753 56.8031 326.138L56.7326 326.141L56.6621 326.145C51.4766 326.438 47.4159 326.684 44.4937 326.882C42.1324 327.042 40.1607 327.191 39.0089 327.342L26.9972 328.2L26.979 328.201C25.3456 328.311 23.7559 328.49 22.3535 328.802C21.371 329.02 18.8639 329.608 16.9194 331.552C15.5177 332.954 14.9637 334.529 14.7269 335.476C14.4787 336.468 14.4297 337.372 14.4297 338.027C14.4297 339.407 14.6537 340.726 14.9466 341.897L14.9769 342.018L15.0112 342.139C15.8009 344.903 17.6972 346.857 18.9632 347.997C20.4181 349.306 22.2144 350.555 24.1712 351.751L24.225 351.784L24.2794 351.816C27.9119 353.953 31.9118 355.948 36.2604 357.812L36.4394 357.888L36.6221 357.956C40.7525 359.477 44.8144 360.469 48.5898 360.469H49.4688C51.1944 360.469 52.916 360.345 54.631 360.1C56.3521 359.855 60.8822 358.896 67.7164 357.378C74.4229 356.038 81.7148 354.694 89.5948 353.348C97.6235 352.203 106.838 351.147 117.25 350.183C127.726 349.213 138.795 348.339 150.456 347.562L150.508 347.558L150.56 347.554C162.598 346.583 172.455 345.907 180.153 345.521L223.91 344.062H238.125C242.913 344.454 248.513 344.744 254.906 344.938C261.371 345.134 265.576 345.325 267.694 345.501L268.004 345.527H270.953C272.849 345.527 274.776 345.385 276.572 344.957C278.29 344.548 280.551 343.723 282.409 341.866C284.522 339.753 286.07 336.853 286.07 333.34V332.221L285.995 331.693C285.632 329.156 284.363 327.148 283.319 325.806C282.202 324.37 280.805 323.018 279.313 321.755C276.577 319.44 273.728 317.324 270.767 315.411C267.646 313.197 264.313 311.317 260.776 309.769L260.591 309.689L260.403 309.618C256.809 308.271 253.271 307.375 249.849 307.112L249.561 307.09H249.273Z" fill="black"/>
<path d="M189.629 -11.5C186.434 -11.5 183.1 -11.1581 179.642 -10.5098L179.296 -10.4449L166.332 -6.52563L166.303 -6.51662C163.641 -5.68467 158.467 -4.57306 150.449 -3.20416L150.358 -3.18868L150.268 -3.17065C142.485 -1.61405 136.313 -0.4575 131.724 0.30719C127.197 1.06182 118.758 2.21503 106.3 3.77272L93.9828 4.94581L93.8752 4.95969C90.814 5.35468 88.3541 5.71151 86.5462 6.03055C85.6514 6.18845 84.8231 6.35322 84.1218 6.52855C83.7736 6.61558 83.3722 6.726 82.9678 6.86601C82.6681 6.96975 81.9188 7.2369 81.1405 7.75574L80.605 8.11275L80.1499 8.56787C79.39 9.32779 78.6313 10.2732 78.0534 11.429C77.179 13.1779 77.0742 14.9805 77.0742 16.0938C77.0742 18.6925 78.2497 20.7168 79.2688 22.0139C80.2854 23.3078 81.5636 24.416 82.8557 25.3658C85.537 27.4815 88.8491 29.1223 92.5437 30.4263C96.6626 31.8801 101.452 32.6305 106.752 32.8425L106.882 32.8477H108.477C111.508 32.8477 116.407 32.5335 122.979 31.9551C130.674 31.5873 136.171 31.201 138.805 30.7173L192.304 23.701L192.375 23.69C197.669 22.8756 203.139 21.76 208.784 20.3489C211.764 19.6038 214.494 18.6841 216.705 17.4717C218.633 16.4141 221.193 14.5732 222.335 11.471C222.794 10.4031 223.082 9.19673 223.082 7.89062C223.082 6.85494 222.945 5.62391 222.471 4.36319C221.717 1.74142 219.981 -0.179537 218.399 -1.49734C216.45 -3.12171 213.327 -4.70542 209.847 -6.25227L209.788 -6.27828L209.729 -6.30313C205.981 -7.8812 202.937 -9.10117 200.639 -9.93678L200.557 -9.96679L200.473 -9.99457C197.252 -11.0685 193.573 -11.5 189.629 -11.5Z" fill="black"/>
<path fill-rule="evenodd" clip-rule="evenodd" d="M251.152 68.0703C249.938 68.0703 248.092 68.2912 246.079 68.5721C243.947 68.8697 241.156 69.3063 237.726 69.8767L221.801 71.3244L213.611 72.2019L85.3354 83.3308L50.7592 86.554L51.3477 93.0273L50.7443 86.5554L50.7517 86.5547C44.3277 87.1387 39.5304 87.5214 36.3175 87.7104L36.2653 87.7135L24.7194 88.5794C23.0692 88.5963 21.2122 88.7802 19.4755 89.4314C17.6449 90.1179 15.3914 91.5723 14.2967 94.3151C13.8084 95.4105 13.5 96.6557 13.5 98.0078C13.5 100.364 14.3565 102.396 15.2775 103.942C16.3857 105.839 18.2551 107.4 19.7073 108.513C21.4216 109.827 23.6328 111.301 26.2613 112.919C31.3809 116.069 34.387 117.95 35.4374 118.651L35.7741 118.875L36.1361 119.056C37.8647 119.92 39.9953 120.639 42.3132 121.271L42.3799 121.289L42.447 121.306C44.5696 121.837 46.7626 122.086 49.0039 122.086H50.7617C53.2955 122.086 57.1271 121.254 61.4845 120.118L61.5193 120.109L61.554 120.099C65.6913 118.971 70.1348 117.93 74.888 116.979L74.9135 116.974L74.939 116.969C79.4753 116.024 85.9968 114.871 94.5564 113.509C103.055 112.157 110.948 111.099 118.239 110.331L118.346 110.32L118.453 110.305C125.154 109.375 138.351 108.408 158.307 107.43C178.179 106.456 192.469 105.673 201.137 105.083C209.167 104.702 215.913 104.512 221.395 104.508L243.952 105.68H244.121C245.59 105.68 250.57 105.775 259.204 105.971C266.981 106.152 272.318 106.251 275.148 106.264C276.109 106.434 277.125 106.559 278.105 106.559C280.057 106.559 283.009 106.198 285.362 104.034C288.56 101.277 289 97.1376 289 94.4922V94.1992C289 90.8658 287.192 88.2182 285.764 86.5418C284.184 84.6879 282.059 82.861 279.625 81.0619L279.572 81.0229L279.519 80.9849C274.824 77.6597 271.293 75.2348 268.997 73.774L268.813 73.6564L268.62 73.5515C266.168 72.2137 263.459 71.0248 260.521 69.9682C257.502 68.7323 254.366 68.0703 251.152 68.0703ZM259.355 99.4727L259.208 105.971L259.204 105.971L259.355 99.4727ZM221.562 98.0078V104.508L221.395 104.508L221.225 104.499L221.562 98.0078ZM200.762 98.5938L201.071 105.086L201.137 105.083L201.204 105.079L200.762 98.5938ZM20.8789 100.645L15.3052 103.989L15.2775 103.942C15.2633 103.918 15.2493 103.894 15.2353 103.869L20.8789 100.645ZM20.293 96.8359L14.4792 93.929C14.4159 94.0556 14.355 94.1843 14.2967 94.3151C14.2364 94.4663 14.1796 94.6214 14.1265 94.7805L20.293 96.8359ZM24.9805 95.0781V88.5781C24.8941 88.5781 24.807 88.5786 24.7194 88.5794L24.4943 88.5963L24.9805 95.0781ZM214.238 78.6719L213.546 72.2089L213.611 72.2019L213.676 72.1962L214.238 78.6719ZM238.555 76.3281L237.966 69.8548L237.726 69.8767L237.486 69.9166L238.555 76.3281Z" fill="black"/>
</svg>
