<svg width="350" height="350" viewBox="0 0 350 350" fill="none" xmlns="http://www.w3.org/2000/svg">
<path d="M189.629 208.5C186.434 208.5 183.1 208.842 179.642 209.49L179.296 209.555L166.332 213.474L166.303 213.483C163.641 214.315 158.467 215.427 150.449 216.796L150.358 216.811L150.268 216.829C142.485 218.386 136.313 219.543 131.724 220.307C127.197 221.062 118.758 222.215 106.3 223.773L93.9828 224.946L93.8752 224.96C90.814 225.355 88.3541 225.712 86.5462 226.031C85.6514 226.188 84.8231 226.353 84.1218 226.529C83.7736 226.616 83.3722 226.726 82.9678 226.866C82.6681 226.97 81.9188 227.237 81.1405 227.756L80.605 228.113L80.1499 228.568C79.39 229.328 78.6313 230.273 78.0534 231.429C77.179 233.178 77.0742 234.981 77.0742 236.094C77.0742 238.692 78.2497 240.717 79.2688 242.014C80.2854 243.308 81.5636 244.416 82.8557 245.366C85.537 247.482 88.8491 249.122 92.5437 250.426C96.6626 251.88 101.452 252.63 106.752 252.842L106.882 252.848H108.477C111.508 252.848 116.407 252.533 122.979 251.955C130.674 251.587 136.171 251.201 138.805 250.717L192.304 243.701L192.375 243.69C197.669 242.876 203.139 241.76 208.784 240.349C211.764 239.604 214.494 238.684 216.705 237.472C218.633 236.414 221.193 234.573 222.335 231.471C222.794 230.403 223.082 229.197 223.082 227.891C223.082 226.855 222.945 225.624 222.471 224.363C221.717 221.741 219.981 219.82 218.399 218.503C216.45 216.878 213.327 215.295 209.847 213.748L209.788 213.722L209.729 213.697C205.981 212.119 202.937 210.899 200.639 210.063L200.557 210.033L200.473 210.005C197.252 208.931 193.573 208.5 189.629 208.5Z" fill="black"/>
<path fill-rule="evenodd" clip-rule="evenodd" d="M251.152 288.07C249.938 288.07 248.092 288.291 246.079 288.572C243.947 288.87 241.156 289.306 237.726 289.877L221.801 291.324L213.611 292.202L85.3354 303.331L50.7592 306.554L51.3477 313.027L50.7443 306.555L50.7517 306.555C44.3277 307.139 39.5304 307.521 36.3175 307.71L36.2653 307.714L24.7194 308.579C23.0692 308.596 21.2122 308.78 19.4755 309.431C17.6449 310.118 15.3914 311.572 14.2967 314.315C13.8084 315.411 13.5 316.656 13.5 318.008C13.5 320.364 14.3565 322.396 15.2775 323.942C16.3857 325.839 18.2551 327.4 19.7073 328.513C21.4216 329.827 23.6328 331.301 26.2613 332.919C31.3809 336.069 34.387 337.95 35.4374 338.651L35.7741 338.875L36.1361 339.056C37.8647 339.92 39.9953 340.639 42.3132 341.271L42.3799 341.289L42.447 341.306C44.5696 341.837 46.7626 342.086 49.0039 342.086H50.7617C53.2955 342.086 57.1271 341.254 61.4845 340.118L61.5193 340.109L61.554 340.099C65.6913 338.971 70.1348 337.93 74.888 336.979L74.9135 336.974L74.939 336.969C79.4753 336.024 85.9968 334.871 94.5564 333.509C103.055 332.157 110.948 331.099 118.239 330.331L118.346 330.32L118.453 330.305C125.154 329.375 138.351 328.408 158.307 327.43C178.179 326.456 192.469 325.673 201.137 325.083C209.167 324.702 215.913 324.512 221.395 324.508L243.952 325.68H244.121C245.59 325.68 250.57 325.775 259.204 325.971C266.981 326.152 272.318 326.251 275.148 326.264C276.109 326.434 277.125 326.559 278.105 326.559C280.057 326.559 283.009 326.198 285.362 324.034C288.56 321.277 289 317.138 289 314.492V314.199C289 310.866 287.192 308.218 285.764 306.542C284.184 304.688 282.059 302.861 279.625 301.062L279.572 301.023L279.519 300.985C274.824 297.66 271.293 295.235 268.997 293.774L268.813 293.656L268.62 293.551C266.168 292.214 263.459 291.025 260.521 289.968C257.502 288.732 254.366 288.07 251.152 288.07ZM259.355 319.473L259.208 325.971L259.204 325.971L259.355 319.473ZM221.562 318.008V324.508L221.395 324.508L221.225 324.499L221.562 318.008ZM200.762 318.594L201.071 325.086L201.137 325.083L201.204 325.079L200.762 318.594ZM20.8789 320.645L15.3052 323.989L15.2775 323.942C15.2633 323.918 15.2493 323.894 15.2353 323.869L20.8789 320.645ZM20.293 316.836L14.4792 313.929C14.4159 314.056 14.355 314.184 14.2967 314.315C14.2364 314.466 14.1796 314.621 14.1265 314.78L20.293 316.836ZM24.9805 315.078V308.578C24.8941 308.578 24.807 308.579 24.7194 308.579L24.4943 308.596L24.9805 315.078ZM214.238 298.672L213.546 292.209L213.611 292.202L213.676 292.196L214.238 298.672ZM238.555 296.328L237.966 289.855L237.726 289.877L237.486 289.917L238.555 296.328Z" fill="black"/>
<path d="M189.629 -11.5C186.434 -11.5 183.1 -11.1581 179.642 -10.5098L179.296 -10.4449L166.332 -6.52563L166.303 -6.51662C163.641 -5.68467 158.467 -4.57306 150.449 -3.20416L150.358 -3.18868L150.268 -3.17065C142.485 -1.61405 136.313 -0.4575 131.724 0.30719C127.197 1.06182 118.758 2.21503 106.3 3.77272L93.9828 4.94581L93.8752 4.95969C90.814 5.35468 88.3541 5.71151 86.5462 6.03055C85.6514 6.18845 84.8231 6.35322 84.1218 6.52855C83.7736 6.61558 83.3722 6.726 82.9678 6.86601C82.6681 6.96975 81.9188 7.2369 81.1405 7.75574L80.605 8.11275L80.1499 8.56787C79.39 9.32779 78.6313 10.2732 78.0534 11.429C77.179 13.1779 77.0742 14.9805 77.0742 16.0938C77.0742 18.6925 78.2497 20.7168 79.2688 22.0139C80.2854 23.3078 81.5636 24.416 82.8557 25.3658C85.537 27.4815 88.8491 29.1223 92.5437 30.4263C96.6626 31.8801 101.452 32.6305 106.752 32.8425L106.882 32.8477H108.477C111.508 32.8477 116.407 32.5335 122.979 31.9551C130.674 31.5873 136.171 31.201 138.805 30.7173L192.304 23.701L192.375 23.69C197.669 22.8756 203.139 21.76 208.784 20.3489C211.764 19.6038 214.494 18.6841 216.705 17.4717C218.633 16.4141 221.193 14.5732 222.335 11.471C222.794 10.4031 223.082 9.19673 223.082 7.89062C223.082 6.85494 222.945 5.62391 222.471 4.36319C221.717 1.74142 219.981 -0.179537 218.399 -1.49734C216.45 -3.12171 213.327 -4.70542 209.847 -6.25227L209.788 -6.27828L209.729 -6.30313C205.981 -7.8812 202.937 -9.10117 200.639 -9.93678L200.557 -9.96679L200.473 -9.99457C197.252 -11.0685 193.573 -11.5 189.629 -11.5Z" fill="black"/>
<path fill-rule="evenodd" clip-rule="evenodd" d="M251.152 68.0703C249.938 68.0703 248.092 68.2912 246.079 68.5721C243.947 68.8697 241.156 69.3063 237.726 69.8767L221.801 71.3244L213.611 72.2019L85.3354 83.3308L50.7592 86.554L51.3477 93.0273L50.7443 86.5554L50.7517 86.5547C44.3277 87.1387 39.5304 87.5214 36.3175 87.7104L36.2653 87.7135L24.7194 88.5794C23.0692 88.5963 21.2122 88.7802 19.4755 89.4314C17.6449 90.1179 15.3914 91.5723 14.2967 94.3151C13.8084 95.4105 13.5 96.6557 13.5 98.0078C13.5 100.364 14.3565 102.396 15.2775 103.942C16.3857 105.839 18.2551 107.4 19.7073 108.513C21.4216 109.827 23.6328 111.301 26.2613 112.919C31.3809 116.069 34.387 117.95 35.4374 118.651L35.7741 118.875L36.1361 119.056C37.8647 119.92 39.9953 120.639 42.3132 121.271L42.3799 121.289L42.447 121.306C44.5696 121.837 46.7626 122.086 49.0039 122.086H50.7617C53.2955 122.086 57.1271 121.254 61.4845 120.118L61.5193 120.109L61.554 120.099C65.6913 118.971 70.1348 117.93 74.888 116.979L74.9135 116.974L74.939 116.969C79.4753 116.024 85.9968 114.871 94.5564 113.509C103.055 112.157 110.948 111.099 118.239 110.331L118.346 110.32L118.453 110.305C125.154 109.375 138.351 108.408 158.307 107.43C178.179 106.456 192.469 105.673 201.137 105.083C209.167 104.702 215.913 104.512 221.395 104.508L243.952 105.68H244.121C245.59 105.68 250.57 105.775 259.204 105.971C266.981 106.152 272.318 106.251 275.148 106.264C276.109 106.434 277.125 106.559 278.105 106.559C280.057 106.559 283.009 106.198 285.362 104.034C288.56 101.277 289 97.1376 289 94.4922V94.1992C289 90.8658 287.192 88.2182 285.764 86.5418C284.184 84.6879 282.059 82.861 279.625 81.0619L279.572 81.0229L279.519 80.9849C274.824 77.6597 271.293 75.2348 268.997 73.774L268.813 73.6564L268.62 73.5515C266.168 72.2137 263.459 71.0248 260.521 69.9682C257.502 68.7323 254.366 68.0703 251.152 68.0703ZM259.355 99.4727L259.208 105.971L259.204 105.971L259.355 99.4727ZM221.562 98.0078V104.508L221.395 104.508L221.225 104.499L221.562 98.0078ZM200.762 98.5938L201.071 105.086L201.137 105.083L201.204 105.079L200.762 98.5938ZM20.8789 100.645L15.3052 103.989L15.2775 103.942C15.2633 103.918 15.2493 103.894 15.2353 103.869L20.8789 100.645ZM20.293 96.8359L14.4792 93.929C14.4159 94.0556 14.355 94.1843 14.2967 94.3151C14.2364 94.4663 14.1796 94.6214 14.1265 94.7805L20.293 96.8359ZM24.9805 95.0781V88.5781C24.8941 88.5781 24.807 88.5786 24.7194 88.5794L24.4943 88.5963L24.9805 95.0781ZM214.238 78.6719L213.546 72.2089L213.611 72.2019L213.676 72.1962L214.238 78.6719ZM238.555 76.3281L237.966 69.8548L237.726 69.8767L237.486 69.9166L238.555 76.3281Z" fill="black"/>
</svg>
