<svg width="350" height="350" viewBox="0 0 350 350" fill="none" xmlns="http://www.w3.org/2000/svg">
<path fill-rule="evenodd" clip-rule="evenodd" d="M31.2187 330.206C33.2732 332.314 36.1441 335.076 39.1618 336.498C42.0449 337.929 45.0952 338.852 48.2148 338.852C49.7204 338.852 52.2304 338.402 54.9579 337.856L54.9982 337.848L55.0384 337.839C57.6405 337.282 61.7235 336.52 67.3449 335.551L74.8239 334.4C77.9177 334.015 83.896 333.34 92.8027 332.372L92.8085 332.371L114.988 330.036C118.398 329.753 122.506 329.468 128.127 329.181C127.95 337.544 127.624 344.907 127.312 351.345C127.257 352.478 127.202 353.586 127.149 354.669L127.149 354.673C126.828 361.186 126.551 366.796 126.542 371.367C126.533 376.487 126.823 381.355 128.354 385.053C129.186 387.064 130.508 389.05 132.615 390.477C134.731 391.911 137.088 392.41 139.328 392.41H139.621C143.872 392.41 148.471 391.799 152.212 388.692C155.927 385.606 157.652 381.015 158.603 375.889C159.565 370.705 159.917 363.895 160.002 355.208C160.076 347.736 159.951 338.591 159.776 327.5L201.838 325.961C203.922 325.964 212.033 326.061 226.259 326.253L226.27 326.254L255.829 326.543C259.586 326.991 264.321 327.182 268.893 325.675C270.142 325.286 271.994 324.583 273.651 323.304C275.431 321.93 277.457 319.473 277.457 315.859C277.457 314.636 277.183 312.734 276.791 311.034C276.44 309.513 275.707 306.793 274.142 304.781L274.01 304.611L273.866 304.451C271.095 301.372 266.11 298.816 260.324 296.495C254.762 294.004 250.488 292.265 247.84 291.543L247.779 291.527L247.717 291.511C245.005 290.833 242.36 290.453 239.816 290.453C237.8 290.453 234.964 291.042 231.916 291.804C228.959 292.543 226.234 293.086 223.734 293.443C221.152 293.812 216.028 294.384 208.243 295.163L188.434 296.619L188.4 296.622L160.306 298.526L160.531 258.644C166.91 258.059 174.26 257.282 181.698 256.496L181.699 256.496L181.702 256.495C183.053 256.352 184.408 256.209 185.76 256.067C196.881 254.896 207.837 253.778 216.034 253.266L216.22 253.254L216.404 253.231C219.753 252.812 222.899 252.124 225.375 250.886C226.31 250.418 227.224 249.905 228.036 249.336C228.772 248.821 229.814 247.996 230.613 246.797L231.621 245.285V243.469C231.621 241.27 230.885 239.035 230.181 237.435C229.484 235.852 228.335 233.788 226.705 232.321L226.382 232.03L226.02 231.789C223.354 230.012 220.49 228.473 217.438 227.165L217.208 227.067L216.972 226.988C213.894 225.962 210.987 225.252 208.312 224.977C203.987 224.184 199.758 224.845 196.438 225.595L161.672 230.133L161.795 228.786L161.795 228.785C162.034 226.156 162.272 223.543 162.593 220.961C163.324 215.1 164.397 210.326 166.217 207.141L166.3 206.996L166.374 206.847C167.765 204.066 169.059 200.908 169.059 198.012C169.059 195.536 167.988 193.544 166.865 192.14C165.787 190.792 164.416 189.668 163.009 188.718C160.069 186.541 156.427 184.773 152.274 183.31C148 181.611 143.802 180.493 139.698 180.037L139.367 180H139.035C137.368 180 135.705 180.105 134.218 180.436C132.984 180.71 130.59 181.401 128.962 183.572L128.637 184.005L128.395 184.489C126.926 187.426 127.107 190.295 127.529 192.354C127.828 193.811 128.402 195.428 128.745 196.398C128.829 196.634 128.899 196.832 128.949 196.979C129.627 199.014 130.105 202.37 130.105 207.387V207.414L130.348 234.431L99.8646 236.662L99.7924 236.669C91.8089 237.448 84.3177 238.129 77.3181 238.712L77.2957 238.714L70.8468 239.3C69.8608 239.384 68.0543 239.647 66.2997 240.354C65.4187 240.709 64.1671 241.326 63.0545 242.406C61.8438 243.581 60.6836 245.448 60.6836 247.914C60.6836 248.897 60.8997 249.836 61.0442 250.388C61.2259 251.082 61.4835 251.856 61.8183 252.647C62.412 254.048 63.5502 256.221 65.5684 257.819C68.2875 260.034 71.301 261.648 74.6034 262.473L74.6563 262.486L74.7094 262.499C78.9036 263.467 83.1031 263.824 87.1914 263.824C90.9505 263.824 96.1934 263.517 102.822 262.934L129.52 261.752V300.412L122.646 301.117L122.295 301.257C121.997 301.305 121.541 301.368 120.897 301.447C119.571 301.608 117.648 301.81 115.102 302.052C110.021 302.536 102.611 303.168 92.8536 303.949C73.3174 305.512 59.7953 306.378 52.1665 306.568C44.2887 306.765 40.1087 306.859 39.4258 306.859H39.1954L30.9872 307.491L30.6319 307.562C27.8307 308.122 24.4063 309.56 22.6334 313.106L22 314.373V315.789C22 317.291 22.2433 318.845 22.9116 320.391C23.5718 321.918 24.5158 323.134 25.5152 324.133C26.2013 324.819 27.0176 325.705 28.0174 326.792L28.0854 326.866C29.033 327.897 30.1106 329.069 31.2187 330.206ZM155.726 229.265C155.757 228.929 155.788 228.59 155.819 228.25L155.82 228.236C155.789 228.581 155.758 228.924 155.726 229.265ZM122.587 301.205C122.587 301.205 122.568 301.209 122.526 301.217C122.564 301.208 122.586 301.204 122.587 301.205Z" fill="black"/>
<path d="M189.629 -11.5C186.434 -11.5 183.1 -11.1581 179.642 -10.5098L179.296 -10.4449L166.332 -6.52563L166.303 -6.51662C163.641 -5.68467 158.467 -4.57306 150.449 -3.20416L150.358 -3.18868L150.268 -3.17065C142.485 -1.61405 136.313 -0.4575 131.724 0.30719C127.197 1.06182 118.758 2.21503 106.3 3.77272L93.9828 4.94581L93.8752 4.95969C90.814 5.35468 88.3541 5.71151 86.5462 6.03055C85.6514 6.18845 84.8231 6.35322 84.1218 6.52855C83.7736 6.61558 83.3722 6.726 82.9678 6.86601C82.6681 6.96975 81.9188 7.2369 81.1405 7.75574L80.605 8.11275L80.1499 8.56787C79.39 9.32779 78.6313 10.2732 78.0534 11.429C77.179 13.1779 77.0742 14.9805 77.0742 16.0938C77.0742 18.6925 78.2497 20.7168 79.2688 22.0139C80.2854 23.3078 81.5636 24.416 82.8557 25.3658C85.537 27.4815 88.8491 29.1223 92.5437 30.4263C96.6626 31.8801 101.452 32.6305 106.752 32.8425L106.882 32.8477H108.477C111.508 32.8477 116.407 32.5335 122.979 31.9551C130.674 31.5873 136.171 31.201 138.805 30.7173L192.304 23.701L192.375 23.69C197.669 22.8756 203.139 21.76 208.784 20.3489C211.764 19.6038 214.494 18.6841 216.705 17.4717C218.633 16.4141 221.193 14.5732 222.335 11.471C222.794 10.4031 223.082 9.19673 223.082 7.89062C223.082 6.85494 222.945 5.62391 222.471 4.36319C221.717 1.74142 219.981 -0.179537 218.399 -1.49734C216.45 -3.12171 213.327 -4.70542 209.847 -6.25227L209.788 -6.27828L209.729 -6.30313C205.981 -7.8812 202.937 -9.10117 200.639 -9.93678L200.557 -9.96679L200.473 -9.99457C197.252 -11.0685 193.573 -11.5 189.629 -11.5Z" fill="black"/>
<path fill-rule="evenodd" clip-rule="evenodd" d="M251.152 68.0703C249.938 68.0703 248.092 68.2912 246.079 68.5721C243.947 68.8697 241.156 69.3063 237.726 69.8767L221.801 71.3244L213.611 72.2019L85.3354 83.3308L50.7592 86.554L51.3477 93.0273L50.7443 86.5554L50.7517 86.5547C44.3277 87.1387 39.5304 87.5214 36.3175 87.7104L36.2653 87.7135L24.7194 88.5794C23.0692 88.5963 21.2122 88.7802 19.4755 89.4314C17.6449 90.1179 15.3914 91.5723 14.2967 94.3151C13.8084 95.4105 13.5 96.6557 13.5 98.0078C13.5 100.364 14.3565 102.396 15.2775 103.942C16.3857 105.839 18.2551 107.4 19.7073 108.513C21.4216 109.827 23.6328 111.301 26.2613 112.919C31.3809 116.069 34.387 117.95 35.4374 118.651L35.7741 118.875L36.1361 119.056C37.8647 119.92 39.9953 120.639 42.3132 121.271L42.3799 121.289L42.447 121.306C44.5696 121.837 46.7626 122.086 49.0039 122.086H50.7617C53.2955 122.086 57.1271 121.254 61.4845 120.118L61.5193 120.109L61.554 120.099C65.6913 118.971 70.1348 117.93 74.888 116.979L74.9135 116.974L74.939 116.969C79.4753 116.024 85.9968 114.871 94.5564 113.509C103.055 112.157 110.948 111.099 118.239 110.331L118.346 110.32L118.453 110.305C125.154 109.375 138.351 108.408 158.307 107.43C178.179 106.456 192.469 105.673 201.137 105.083C209.167 104.702 215.913 104.512 221.395 104.508L243.952 105.68H244.121C245.59 105.68 250.57 105.775 259.204 105.971C266.981 106.152 272.318 106.251 275.148 106.264C276.109 106.434 277.125 106.559 278.105 106.559C280.057 106.559 283.009 106.198 285.362 104.034C288.56 101.277 289 97.1376 289 94.4922V94.1992C289 90.8658 287.192 88.2182 285.764 86.5418C284.184 84.6879 282.059 82.861 279.625 81.0619L279.572 81.0229L279.519 80.9849C274.824 77.6597 271.293 75.2348 268.997 73.774L268.813 73.6564L268.62 73.5515C266.168 72.2137 263.459 71.0248 260.521 69.9682C257.502 68.7323 254.366 68.0703 251.152 68.0703ZM259.355 99.4727L259.208 105.971L259.204 105.971L259.355 99.4727ZM221.562 98.0078V104.508L221.395 104.508L221.225 104.499L221.562 98.0078ZM200.762 98.5938L201.071 105.086L201.137 105.083L201.204 105.079L200.762 98.5938ZM20.8789 100.645L15.3052 103.989L15.2775 103.942C15.2633 103.918 15.2493 103.894 15.2353 103.869L20.8789 100.645ZM20.293 96.8359L14.4792 93.929C14.4159 94.0556 14.355 94.1843 14.2967 94.3151C14.2364 94.4663 14.1796 94.6214 14.1265 94.7805L20.293 96.8359ZM24.9805 95.0781V88.5781C24.8941 88.5781 24.807 88.5786 24.7194 88.5794L24.4943 88.5963L24.9805 95.0781ZM214.238 78.6719L213.546 72.2089L213.611 72.2019L213.676 72.1962L214.238 78.6719ZM238.555 76.3281L237.966 69.8548L237.726 69.8767L237.486 69.9166L238.555 76.3281Z" fill="black"/>
</svg>
