<svg width="350" height="350" viewBox="0 0 350 350" fill="none" xmlns="http://www.w3.org/2000/svg">
<path d="M76.877 249.207L269.357 232.508L281.662 231.189L305.832 228.992C316.379 227.234 322.678 226.355 324.729 226.355C328.244 226.355 331.76 227.088 335.275 228.553C339.377 230.018 343.039 231.629 346.262 233.387C349.484 235.438 354.611 238.953 361.643 243.934C368.381 248.914 371.75 252.869 371.75 255.799V256.238C371.75 259.754 371.018 262.098 369.553 263.27C368.674 264.148 367.209 264.588 365.158 264.588C364.279 264.588 363.107 264.441 361.643 264.148C357.834 264.148 349.631 264.002 337.033 263.709C324.143 263.416 316.525 263.27 314.182 263.27L280.344 261.512C271.848 261.512 261.447 261.805 249.143 262.391C236.252 263.27 214.865 264.441 184.982 265.906C155.1 267.371 134.885 268.836 124.338 270.301C113.205 271.473 101.193 273.084 88.3027 275.135C75.4121 277.186 65.4512 278.943 58.4199 280.408C51.0957 281.873 44.2109 283.484 37.7656 285.242C31.0273 287 26.4863 287.879 24.1426 287.879H21.5059C18.8691 287.879 16.3789 287.586 14.0352 287C10.8125 286.121 8.32227 285.242 6.56445 284.363C4.80664 283.191 0.119141 280.262 -7.49805 275.574C-15.1152 270.887 -19.5098 267.518 -20.6816 265.467C-21.5605 264.002 -22 262.684 -22 261.512C-22 260.926 -21.8535 260.34 -21.5605 259.754C-20.9746 257.996 -18.6309 257.117 -14.5293 257.117L3.04883 255.799C8.0293 255.506 15.3535 254.92 25.0215 254.041L76.877 249.207ZM235.08 95.3984L154.66 105.945C151.73 106.531 144.113 107.117 131.809 107.703C121.848 108.582 114.816 109.021 110.715 109.021H108.518C101.193 108.729 95.041 107.703 90.0605 105.945C85.0801 104.188 81.125 102.137 78.1953 99.793C74.9727 97.4492 73.3613 95.3984 73.3613 93.6406C73.3613 92.4688 73.5078 91.5898 73.8008 91.0039C74.0938 90.418 74.5332 89.832 75.1191 89.2461C75.998 88.6602 80.9785 87.7812 90.0605 86.6094L108.518 84.8516C127.268 82.5078 140.158 80.75 147.189 79.5781C154.221 78.4062 163.596 76.6484 175.314 74.3047C187.326 72.2539 195.676 70.4961 200.363 69.0312L219.26 63.3184C223.947 62.4395 228.342 62 232.443 62C237.717 62 242.111 62.5859 245.627 63.7578C248.85 64.9297 253.244 66.6875 258.811 69.0312C264.084 71.375 267.6 73.2793 269.357 74.7441C271.115 76.209 272.141 77.6738 272.434 79.1387C272.727 79.7246 272.873 80.457 272.873 81.3359C272.873 81.9219 272.727 82.5078 272.434 83.0938C271.555 86.0234 267.014 88.5137 258.811 90.5645C250.607 92.6152 242.697 94.2266 235.08 95.3984Z" fill="black"/>
<path d="M367.25 255.799C367.25 255.966 367.271 255.283 365.798 253.554C364.432 251.95 362.217 249.955 358.989 247.568C352.087 242.68 347.098 239.261 343.976 237.268C341.023 235.667 337.625 234.171 333.762 232.791L333.652 232.751L333.545 232.707C330.532 231.451 327.602 230.855 324.729 230.855C324.07 230.855 322.297 231.024 319.088 231.472C315.995 231.903 311.829 232.555 306.572 233.431L306.406 233.459L306.239 233.474L282.125 235.665L269.837 236.982L269.792 236.987L269.746 236.991L77.2656 253.69L77.2646 253.689L25.4395 258.521L25.4287 258.522C15.7757 259.4 8.40829 259.99 3.35547 260.288L-14.3604 261.617H-14.5293C-15.9576 261.617 -16.879 261.746 -17.4238 261.882C-17.3421 262.15 -17.1738 262.567 -16.8232 263.151L-16.7979 263.192L-16.7744 263.234C-16.7659 263.247 -16.5969 263.505 -16.0596 264.028C-15.5313 264.543 -14.7804 265.185 -13.7686 265.961C-11.744 267.513 -8.88605 269.437 -5.13965 271.742C2.08555 276.188 6.75502 279.103 8.77539 280.432C10.1474 281.091 12.2371 281.843 15.1738 282.646C17.1167 283.127 19.2223 283.379 21.5059 283.379H24.1426C25.8139 283.379 29.7983 282.67 36.6299 280.888C43.1716 279.105 50.1415 277.474 57.5371 275.995C64.6708 274.51 74.7026 272.742 87.5957 270.69C100.537 268.632 112.615 267.01 123.827 265.829C134.63 264.338 155.002 262.871 184.762 261.412C214.643 259.947 235.993 258.777 248.837 257.901L248.883 257.897L248.929 257.896C261.276 257.308 271.753 257.012 280.344 257.012H280.461L280.577 257.018L314.317 258.77C316.87 258.775 324.507 258.923 337.136 259.21H337.138C349.748 259.503 357.896 259.648 361.643 259.648H362.088L362.525 259.735C363.871 260.004 364.71 260.088 365.158 260.088C365.885 260.088 366.304 260.008 366.502 259.948C366.506 259.947 366.51 259.946 366.514 259.944L366.547 259.911L366.691 259.795C366.726 259.742 366.81 259.596 366.905 259.291C367.091 258.697 367.25 257.72 367.25 256.238V255.799ZM232.443 66.5C228.726 66.5 224.689 66.8917 220.32 67.6982L201.666 73.3389L201.665 73.3379C196.664 74.896 188.087 76.6868 176.161 78.7246C164.439 81.0688 155.022 82.8345 147.93 84.0166C140.796 85.2056 127.819 86.9735 109.076 89.3164L109.01 89.3252L108.944 89.3311L90.5723 91.0801C86.0864 91.6595 82.6725 92.1597 80.2959 92.5791C79.254 92.763 78.4598 92.9239 77.8857 93.0586C77.8782 93.1442 77.8692 93.2477 77.8652 93.3711C77.91 93.4466 77.986 93.561 78.1084 93.7168C78.5606 94.2924 79.4092 95.1114 80.8418 96.1533L80.9258 96.2148L81.0068 96.2793C83.418 98.2081 86.8756 100.049 91.5586 101.702C95.9686 103.259 101.618 104.236 108.614 104.521H110.715C114.597 104.521 121.45 104.1 131.413 103.221L131.504 103.213L131.595 103.208C144.033 102.616 151.255 102.037 153.777 101.532L153.926 101.503L234.456 90.9414C241.905 89.7933 249.659 88.2141 257.719 86.1992C261.65 85.2164 264.417 84.1933 266.205 83.2129C267.761 82.3597 268.102 81.8028 268.137 81.7539L268.235 81.4287L268.366 81.165C268.363 81.1113 268.358 81.0718 268.354 81.0449L268.14 80.6123L268.021 80.0215C268.012 79.9775 267.844 79.3407 266.477 78.2012C265.26 77.1873 262.296 75.5065 257.022 73.1611C251.54 70.8531 247.259 69.1424 244.153 68.0107C241.251 67.0518 237.392 66.5 232.443 66.5ZM376.25 256.238C376.25 259.933 375.563 264.068 372.559 266.62C370.444 268.608 367.598 269.088 365.158 269.088C363.971 269.088 362.624 268.915 361.203 268.646C357.166 268.636 349.056 268.49 336.929 268.208C324.01 267.914 316.46 267.77 314.182 267.77H314.064L313.948 267.764L280.231 266.012C271.853 266.014 261.568 266.304 249.364 266.885C236.418 267.766 215.022 268.939 185.203 270.4C155.297 271.866 135.276 273.325 124.957 274.758L124.883 274.769L124.809 274.776C113.766 275.939 101.834 277.539 89.0098 279.579C76.1429 281.626 66.2645 283.37 59.3379 284.813L59.3027 284.821C52.0682 286.268 45.2841 287.856 38.9492 289.584L38.9258 289.59L38.9014 289.597C32.2565 291.33 27.1587 292.379 24.1426 292.379H21.5059C18.5345 292.379 15.6749 292.048 12.9434 291.365L12.8975 291.354L12.8516 291.342C9.51158 290.431 6.69504 289.46 4.55176 288.389L4.30176 288.263L4.06836 288.107C2.39466 286.992 -2.21057 284.111 -9.85645 279.406C-13.7269 277.024 -16.8752 274.919 -19.2451 273.103C-21.414 271.44 -23.4469 269.639 -24.5381 267.781L-24.54 267.782C-25.6582 265.919 -26.5 263.79 -26.5 261.512C-26.5 260.262 -26.2068 259.091 -25.7207 258.029C-24.805 255.636 -22.8335 254.271 -20.9434 253.562C-19.1031 252.872 -16.9533 252.633 -14.7354 252.619L2.71191 251.312L2.74805 251.309L2.78418 251.307C7.69112 251.018 14.9584 250.437 24.6143 249.56L76.459 244.727L76.4736 244.726L76.4883 244.724L268.922 228.028L281.219 226.711L281.255 226.708L305.264 224.524C310.474 223.657 314.673 223 317.845 222.558C320.934 222.127 323.336 221.855 324.729 221.855C328.843 221.855 332.904 222.707 336.882 224.348C340.861 225.773 344.493 227.349 347.763 229.084L348.417 229.437L348.55 229.509L348.678 229.59C351.587 231.441 355.936 234.407 361.691 238.459L364.244 240.262L364.281 240.288L364.317 240.314C367.816 242.901 370.648 245.369 372.648 247.717C374.544 249.942 376.25 252.702 376.25 255.799V256.238ZM277.373 81.3359C277.373 82.5593 277.092 83.707 276.624 84.751C275.589 87.7138 273.063 89.7164 270.532 91.1045C267.779 92.6142 264.174 93.8618 259.902 94.9297C251.578 97.0108 243.531 98.6509 235.765 99.8457L235.715 99.8535L235.665 99.8604L155.352 110.393C151.914 111.044 144.003 111.626 132.104 112.193C122.196 113.066 115.021 113.521 110.715 113.521H108.428L108.338 113.518C100.725 113.213 94.0959 112.141 88.5625 110.188C83.3322 108.342 78.9126 106.105 75.4775 103.38C73.7173 102.093 72.1749 100.733 71.0312 99.2773C69.8919 97.8273 68.8613 95.913 68.8613 93.6406C68.8613 92.2389 69.0123 90.5175 69.7754 88.9912C70.3332 87.8755 71.0959 86.9061 71.9375 86.0645L72.252 85.749L72.623 85.502C73.221 85.1033 73.8333 84.876 74.1689 84.7598C74.5771 84.6185 75.0179 84.4953 75.4561 84.3857C76.3359 84.1658 77.4417 83.9434 78.7314 83.7158C81.3239 83.2583 84.9201 82.7354 89.4844 82.1465L89.5596 82.1367L89.6338 82.1299L108.026 80.3779C126.746 78.0376 139.529 76.293 146.449 75.1396C153.412 73.9792 162.733 72.2312 174.432 69.8916L174.494 69.8799L174.557 69.8691C186.575 67.8172 194.654 66.1011 199.021 64.7363L199.041 64.7295L199.061 64.7236L218.19 58.9404L218.431 58.8955C223.349 57.9734 228.023 57.5 232.443 57.5C237.665 57.5 242.31 58.0402 246.268 59.2402L247.05 59.4883L247.107 59.5078L247.165 59.5283C250.491 60.7378 254.965 62.5293 260.557 64.8838L260.598 64.9014L260.638 64.9189C265.887 67.2519 269.942 69.3738 272.238 71.2871C274.246 72.9598 276.02 75.0722 276.715 77.6963C277.207 78.9115 277.373 80.1696 277.373 81.3359Z" fill="black"/>
<path d="M268.972 228.526L76.5184 245.223L24.6593 250.057L24.6543 250.058C14.9996 250.936 7.72819 251.517 2.81394 251.806L2.78179 251.808L-14.684 253.118C-16.8916 253.128 -18.9926 253.365 -20.7678 254.031C-22.5714 254.707 -24.4032 255.987 -25.253 258.203C-25.7216 259.216 -26 260.328 -26 261.512C-26 263.655 -25.2125 265.682 -24.1308 267.493C-23.1 269.271 -21.1245 271.032 -18.9406 272.706C-16.5898 274.508 -13.4581 276.603 -9.59444 278.981C-1.95175 283.684 2.66261 286.569 4.34565 287.691L4.55286 287.83L4.7756 287.941C6.87605 288.991 9.65574 289.952 12.9827 290.859L13.0237 290.87L13.065 290.881C15.7535 291.553 18.5716 291.879 21.5059 291.879H24.1426C27.084 291.879 32.12 290.849 38.7753 289.113L38.7967 289.107L38.8181 289.101C45.1652 287.37 51.9599 285.779 59.2044 284.331L59.2201 284.327L59.2357 284.324C66.174 282.879 76.0616 281.133 88.9312 279.085C101.763 277.044 113.704 275.442 124.757 274.279L124.823 274.272L124.888 274.263C135.232 272.826 155.274 271.367 185.178 269.901C215.031 268.438 236.438 267.266 249.374 266.384C261.572 265.804 271.857 265.514 280.24 265.512L314.078 267.27H314.182C316.468 267.27 324.025 267.414 336.94 267.708C349.12 267.991 357.241 268.139 361.254 268.148C362.676 268.418 364.003 268.588 365.158 268.588C367.549 268.588 370.24 268.116 372.218 266.256C375.059 263.856 375.75 259.913 375.75 256.238V255.799C375.75 252.884 374.14 250.239 372.268 248.041C370.303 245.734 367.505 243.293 364.02 240.717L363.988 240.693L363.955 240.669C356.919 235.686 351.722 232.12 348.409 230.012L348.295 229.94L348.177 229.875C344.767 228.015 340.941 226.334 336.716 224.82C332.785 223.196 328.781 222.355 324.729 222.355C323.377 222.355 321.01 222.621 317.914 223.053C314.743 223.495 310.542 224.153 305.322 225.022L281.268 227.209L268.972 228.526Z" fill="black"/>
<path d="M155.305 109.895L235.644 99.3587L235.688 99.3519C243.438 98.1596 251.469 96.5228 259.781 94.445C264.034 93.3818 267.592 92.1463 270.292 90.6659C272.787 89.2977 275.183 87.3714 276.156 84.5777C276.607 83.5833 276.873 82.4935 276.873 81.3359C276.873 80.2061 276.712 79.0054 276.241 77.8571C275.589 75.3575 273.894 73.3174 271.918 71.6713C269.682 69.8078 265.687 67.7101 260.435 65.376L260.399 65.36L260.363 65.3447C254.774 62.9914 250.309 61.204 246.994 59.9986L246.943 59.9802L246.892 59.9631C242.836 58.6111 237.98 58 232.443 58C228.058 58 223.415 58.4696 218.523 59.3869L218.31 59.4268L199.188 65.2078L199.17 65.2133C194.767 66.5892 186.659 68.3099 174.641 70.3617L174.585 70.3713L174.53 70.3824C162.829 72.7225 153.502 74.4709 146.532 75.6325C139.599 76.788 126.804 78.5343 108.08 80.8752L89.6149 82.6337L89.5487 82.6423C84.9868 83.2309 81.3997 83.7528 78.8185 84.2083C77.5336 84.4351 76.4407 84.6553 75.5772 84.8711C75.147 84.9787 74.7218 85.0979 74.3326 85.2327C74.0077 85.3451 73.4441 85.5554 72.9003 85.9179L72.5708 86.1376L72.2907 86.4177C71.4775 87.2309 70.7515 88.1582 70.2231 89.2151C69.5122 90.6368 69.3613 92.2645 69.3613 93.6406C69.3613 95.7582 70.3223 97.5654 71.4246 98.9684C72.5288 100.374 74.0303 101.703 75.7691 102.974C79.1497 105.661 83.5219 107.879 88.7293 109.717C94.2012 111.649 100.777 112.715 108.358 113.018L108.438 113.021H110.715C115 113.021 122.162 112.569 132.08 111.695C144.051 111.124 151.938 110.541 155.305 109.895Z" fill="black"/>
</svg>
