<svg width="350" height="350" viewBox="0 0 350 350" fill="none" xmlns="http://www.w3.org/2000/svg">
<path d="M133.297 177.039C132.184 177.039 130.381 177.144 128.632 178.018L127.689 178.49L126.943 179.236C124.667 181.512 123.867 184.397 123.867 187.055C123.867 189.462 124.617 191.937 125.498 194.142L125.504 194.156L129.867 205.21C131.721 210.147 134.347 216.09 137.704 223L137.72 223.034L137.737 223.067C140.287 228.166 142.545 232.343 144.47 235.31L102.557 240.377L66.369 245.63L58.9881 246.197L41.589 247.44L40.6485 247.816C39.4373 248.301 38.2081 248.885 37.1132 249.615C36.104 250.288 34.6543 251.446 33.7331 253.288L33.0469 254.661V256.781C33.0469 259.358 34.1956 261.69 35.0752 263.229L35.1862 263.423L35.3104 263.609C36.5504 265.469 38.384 267.017 40.1478 268.285C42.016 269.628 44.3257 271.018 46.9961 272.457L47.0121 272.465L53.5284 276.02L53.6322 276.072C57.4874 277.999 61.5058 279.102 65.6211 279.102H66.083L66.5403 279.036C68.5672 278.747 71.5328 277.873 75.0008 276.717L75.1523 276.667L75.3012 276.609C78.3275 275.432 83.9671 273.859 92.5499 271.909L92.6181 271.893L92.6859 271.876C101.147 269.761 106.656 268.431 109.32 267.855L126.696 264.959C134.423 263.801 141.04 262.939 146.563 262.368L146.575 262.367L146.587 262.365C151.847 261.802 168.227 260.738 196.019 259.172C223.601 258.007 242.054 257.428 251.506 257.422L264.103 258.008H276.377L276.779 257.958C279.199 257.655 281.658 256.84 283.77 255.176C286.704 252.921 287.453 249.63 287.453 247.113V245.434L287.259 244.658C286.436 241.366 284.357 238.74 282.049 236.689C279.772 234.665 276.66 232.638 272.977 230.591C269.22 228.504 265.438 226.716 261.629 225.235L261.575 225.214L261.521 225.194C257.446 223.693 253.509 222.742 249.898 222.742C248.664 222.742 247.199 222.969 245.858 223.217C244.389 223.489 242.587 223.883 240.483 224.384C236.855 225.247 230.891 226.095 222.357 226.87L222.311 226.875L177.7 231.571C178.235 228.987 178.469 226.237 178.469 223.383V223.235L178.462 223.088C178.228 217.945 176.957 212.742 174.791 207.513C172.731 202.067 169.706 197.356 165.657 193.523C162.112 189.991 158.053 186.935 153.514 184.341L153.411 184.282L153.305 184.226C148.985 181.963 144.471 179.913 139.767 178.072L139.299 177.889L138.808 177.78C136.906 177.357 134.989 177.039 133.297 177.039Z" fill="black"/>
<path d="M109.859 277.488C108.605 277.488 107.442 277.754 106.405 278.182C104.387 278.836 101.708 280.19 100.237 283.132C99.2682 285.07 98.9044 287.491 98.7041 289.494L98.6719 289.816V290.141C98.6719 291.039 98.4542 292.629 97.7501 295.093L97.7343 295.149L97.7195 295.204C97.0078 297.873 96.1145 300.556 95.0352 303.254L95.009 303.32L94.9842 303.386C94.053 305.869 92.2007 309.403 89.199 314.1C85.9831 318.823 81.2049 325.325 74.8201 333.644L74.8131 333.653L74.8063 333.662C68.5763 341.839 63.965 347.467 60.8955 350.717L60.8354 350.78L60.777 350.846C57.5487 354.454 53.9221 358.272 49.8921 362.302L44.6186 367.576C43.1289 369.065 41.543 371.402 41.543 374.516C41.543 376.029 41.9294 377.409 42.5222 378.594L42.9939 379.538L43.7397 380.284C45.0342 381.578 47.1759 383.066 50.0938 383.066C51.4675 383.066 52.7037 382.743 53.6141 382.44L54.1977 382.245L61.9406 377.909C64.4463 376.628 68.798 373.719 74.5988 369.603C80.6328 365.514 85.5441 361.918 89.2632 358.831C93.2998 355.838 97.9843 351.635 103.279 346.343C108.615 341.203 112.889 336.736 116.025 332.974L124.625 322.653L131.448 315.831C133.185 314.093 134.711 312.83 136.024 311.955C137.063 311.262 138.056 310.526 138.914 309.745C139.57 309.149 140.393 308.31 141.063 307.226C142.338 305.488 143.312 303.281 143.312 300.688C143.312 298.842 142.851 296.949 141.766 295.233C140.231 292.647 137.739 290.568 135.194 288.867L126.858 283.096L125.977 282.802C125.083 282.504 122.406 281.442 117.633 279.453C115.207 278.442 112.419 277.488 109.859 277.488Z" fill="black"/>
<path d="M180.758 283.055C179.407 283.055 177.822 283.328 176.288 284.204C174.712 285.105 173.597 286.412 172.893 287.82L172.885 287.837C172.654 288.298 171.914 289.777 171.914 291.605C171.914 294.519 173.324 296.82 174.51 298.303L176.914 301.308L182.036 307.334L182.119 307.423C183.801 309.258 186.163 312.598 189.228 317.771L189.265 317.833L200.476 335.829L212.281 353.832L212.328 353.899C217.615 361.536 221.748 367.194 224.666 370.738C227.444 374.11 230.057 376.893 232.472 378.858C235.193 381.339 238.872 383.945 243.16 383.945H244.683L245.314 383.819C250.479 382.786 253.357 378.474 254.975 374.777L255.065 374.571L255.141 374.358C256.448 370.698 256.984 366.482 256.984 361.918V359.618L256.965 359.369C256.515 353.513 254.958 347.499 252.426 341.358C250.016 335.036 246.543 329.102 242.064 323.556L241.978 323.45L241.887 323.347C237.343 318.183 232.297 313.345 226.758 308.832L226.701 308.786L226.643 308.74C221.307 304.59 216.774 301.261 213.074 298.795L213.037 298.77L213 298.746C209.488 296.474 205.243 294.051 200.303 291.478C195.643 288.763 191.86 286.748 189.117 285.605L185.559 284.123L185.516 284.106C184.283 283.613 182.585 283.055 180.758 283.055Z" fill="black"/>
<path d="M199.176 -20.2734C195.675 -20.2734 190.921 -18.9985 185.756 -17.2802C181.022 -15.8272 175.381 -14.4352 168.802 -13.1168C162.019 -11.9543 157.361 -11.1953 154.756 -10.8231L154.632 -10.8054L126.429 -5.81119C125.518 -5.66456 121.288 -5.20735 113.194 -4.41768L113.036 -4.40232L96.3614 -2.06201L83.984 -0.93679C79.9283 -0.920166 76.2383 -0.609749 73.138 0.165337C71.6225 0.544222 69.8833 1.1151 68.3163 2.07936C66.7889 3.01934 64.4668 4.9507 63.7941 8.31429L63.6484 9.04251V10.0781C63.6484 13.5001 65.2745 16.1423 66.9496 17.938C69.5134 21.0868 73.2711 22.8655 76.8215 23.975C80.9082 25.2521 86.1934 25.867 92.2853 26.0701L92.4102 26.0742H95.1719C97.3325 26.0742 99.9267 25.968 102.915 25.7699C107.263 25.5716 112.37 25.2763 118.229 24.8857L118.353 24.8775L118.477 24.8651C124.45 24.2678 131.763 23.3776 140.396 22.2006L140.424 22.1968L176.561 17.5342C181.139 17.1111 186.405 16.2933 192.324 15.1126C198.141 14.1426 202.653 13.3582 205.831 12.7622L206.051 12.7209L215.253 10.4204C216.796 10.1984 218.36 9.8819 219.763 9.38688C220.731 9.04525 223.377 8.05351 225.054 5.44902C225.431 4.9218 225.829 4.30353 226.172 3.61777C226.394 3.17471 226.727 2.44302 226.95 1.50194C227.415 0.0323334 227.477 -1.33768 227.477 -2.22656V-3.14985L227.253 -4.04558C226.693 -6.28239 225.381 -8.32506 224.322 -9.80851L224.129 -10.0784L223.913 -10.3302C221.399 -13.2635 217.56 -15.0656 213.977 -16.3302L213.955 -16.3378L206.004 -19.0903L205.682 -19.1706C203.834 -19.6327 201.975 -19.982 200.106 -20.2155L199.643 -20.2734H199.176Z" fill="black"/>
<path fill-rule="evenodd" clip-rule="evenodd" d="M190.973 38.8281C188.129 38.8281 185.008 39.3789 181.775 40.2376L174.85 41.9688C171.829 42.6769 167.201 43.5162 160.845 44.4792L160.833 44.481L140.105 47.6925C132.768 48.6574 125.044 49.623 116.931 50.589C108.843 51.3597 103.132 51.949 99.8816 52.3534L88.475 53.5541L88.1346 53.6222C87.0133 53.8465 85.8934 54.1129 84.89 54.4474L84.8877 54.4482C84.3235 54.6362 82.8153 55.139 81.4171 56.2768C79.5052 57.7597 78.6422 59.7011 78.247 61.0187C77.8106 62.4734 77.7109 63.9115 77.7109 65.0781V65.6111L77.7863 66.1388C78.3932 70.3867 81.6904 72.6516 83.1424 73.5354C85.0117 74.6732 87.3002 75.5709 89.6752 76.3266L89.8246 76.3742L89.9758 76.4154C94.4198 77.6274 98.6897 78.6451 102.783 79.4637L103.247 79.5566L103.72 79.5903C106.643 79.7992 109.654 79.9023 112.75 79.9023H117.485L117.824 79.8715C120.109 79.6638 125.307 79.0625 133.265 78.0921L133.287 78.0894L153.491 75.747L188.907 71.32L198.095 69.5972C200.858 69.3866 203.36 69.0676 205.522 68.6001C207.512 68.1698 209.744 67.5069 211.687 66.3243C212.743 65.7687 213.959 65.0026 215.026 63.9361C216.234 62.728 217.809 60.5422 217.809 57.4609C217.809 55.0377 216.745 53.1714 216.3 52.4303C215.74 51.4972 215.057 50.6083 214.378 49.8062C213.038 48.1009 211.293 46.7714 209.677 45.7322C207.903 44.5918 205.796 43.4959 203.451 42.4301C199.185 40.491 194.722 38.8281 190.973 38.8281ZM90.8783 60.6815C90.8783 60.6815 90.8852 60.6858 90.8975 60.6947C90.8842 60.686 90.8783 60.6815 90.8783 60.6815Z" fill="black"/>
<path d="M249.273 87.0898C247.176 87.0898 244.246 87.4992 240.939 88.0829L240.899 88.0898L240.86 88.0972C237.913 88.6497 233.086 89.4095 226.29 90.3807L208.167 92.7192C203.844 93.2831 197.352 93.9536 188.627 94.7297C179.962 95.3216 169.668 96.2048 157.757 97.376L111.169 101.478L84.7073 104.124L84.6571 104.13C76.283 105.082 67.0017 105.753 56.8031 106.138L56.7326 106.141L56.6621 106.145C51.4766 106.438 47.4159 106.684 44.4937 106.882C42.1324 107.042 40.1607 107.191 39.0089 107.342L26.9972 108.2L26.979 108.201C25.3456 108.311 23.7559 108.49 22.3535 108.802C21.371 109.02 18.8639 109.608 16.9194 111.552C15.5177 112.954 14.9637 114.529 14.7269 115.476C14.4787 116.468 14.4297 117.372 14.4297 118.027C14.4297 119.407 14.6537 120.726 14.9466 121.897L14.9769 122.018L15.0112 122.139C15.8009 124.903 17.6972 126.857 18.9632 127.997C20.4181 129.306 22.2144 130.555 24.1712 131.751L24.225 131.784L24.2794 131.816C27.9119 133.953 31.9118 135.948 36.2604 137.812L36.4394 137.888L36.6221 137.956C40.7525 139.477 44.8144 140.469 48.5898 140.469H49.4688C51.1944 140.469 52.916 140.345 54.631 140.1C56.3521 139.855 60.8822 138.896 67.7164 137.378C74.4229 136.038 81.7148 134.694 89.5948 133.348C97.6235 132.203 106.838 131.147 117.25 130.183C127.726 129.213 138.795 128.339 150.456 127.562L150.508 127.558L150.56 127.554C162.598 126.583 172.455 125.907 180.153 125.521L223.91 124.062H238.125C242.913 124.454 248.513 124.744 254.906 124.938C261.371 125.134 265.576 125.325 267.694 125.501L268.004 125.527H270.953C272.849 125.527 274.776 125.385 276.572 124.957C278.29 124.548 280.551 123.723 282.409 121.866C284.522 119.753 286.07 116.853 286.07 113.34V112.221L285.995 111.693C285.632 109.156 284.363 107.148 283.319 105.806C282.202 104.37 280.805 103.018 279.313 101.755C276.577 99.4397 273.728 97.3237 270.767 95.4105C267.646 93.1973 264.313 91.3169 260.776 89.7694L260.591 89.6888L260.403 89.6182C256.809 88.2705 253.271 87.3752 249.849 87.1119L249.561 87.0898H249.273Z" fill="black"/>
</svg>
