<svg width="350" height="350" viewBox="0 0 350 350" fill="none" xmlns="http://www.w3.org/2000/svg">
<path fill-rule="evenodd" clip-rule="evenodd" d="M31.2187 330.206C33.2732 332.314 36.1441 335.076 39.1618 336.498C42.0449 337.929 45.0952 338.852 48.2148 338.852C49.7204 338.852 52.2304 338.402 54.9579 337.856L54.9982 337.848L55.0384 337.839C57.6405 337.282 61.7235 336.52 67.3449 335.551L74.8239 334.4C77.9177 334.015 83.896 333.34 92.8027 332.372L92.8085 332.371L114.988 330.036C118.398 329.753 122.506 329.468 128.127 329.181C127.95 337.544 127.624 344.907 127.312 351.345C127.257 352.478 127.202 353.586 127.149 354.669L127.149 354.673C126.828 361.186 126.551 366.796 126.542 371.367C126.533 376.487 126.823 381.355 128.354 385.053C129.186 387.064 130.508 389.05 132.615 390.477C134.731 391.911 137.088 392.41 139.328 392.41H139.621C143.872 392.41 148.471 391.799 152.212 388.692C155.927 385.606 157.652 381.015 158.603 375.889C159.565 370.705 159.917 363.895 160.002 355.208C160.076 347.736 159.951 338.591 159.776 327.5L201.838 325.961C203.922 325.964 212.033 326.061 226.259 326.253L226.27 326.254L255.829 326.543C259.586 326.991 264.321 327.182 268.893 325.675C270.142 325.286 271.994 324.583 273.651 323.304C275.431 321.93 277.457 319.473 277.457 315.859C277.457 314.636 277.183 312.734 276.791 311.034C276.44 309.513 275.707 306.793 274.142 304.781L274.01 304.611L273.866 304.451C271.095 301.372 266.11 298.816 260.324 296.495C254.762 294.004 250.488 292.265 247.84 291.543L247.779 291.527L247.717 291.511C245.005 290.833 242.36 290.453 239.816 290.453C237.8 290.453 234.964 291.042 231.916 291.804C228.959 292.543 226.234 293.086 223.734 293.443C221.152 293.812 216.028 294.384 208.243 295.163L188.434 296.619L188.4 296.622L160.306 298.526L160.531 258.644C166.91 258.059 174.26 257.282 181.698 256.496L181.699 256.496L181.702 256.495C183.053 256.352 184.408 256.209 185.76 256.067C196.881 254.896 207.837 253.778 216.034 253.266L216.22 253.254L216.404 253.231C219.753 252.812 222.899 252.124 225.375 250.886C226.31 250.418 227.224 249.905 228.036 249.336C228.772 248.821 229.814 247.996 230.613 246.797L231.621 245.285V243.469C231.621 241.27 230.885 239.035 230.181 237.435C229.484 235.852 228.335 233.788 226.705 232.321L226.382 232.03L226.02 231.789C223.354 230.012 220.49 228.473 217.438 227.165L217.208 227.067L216.972 226.988C213.894 225.962 210.987 225.252 208.312 224.977C203.987 224.184 199.758 224.845 196.438 225.595L161.672 230.133L161.795 228.786L161.795 228.785C162.034 226.156 162.272 223.543 162.593 220.961C163.324 215.1 164.397 210.326 166.217 207.141L166.3 206.996L166.374 206.847C167.765 204.066 169.059 200.908 169.059 198.012C169.059 195.536 167.988 193.544 166.865 192.14C165.787 190.792 164.416 189.668 163.009 188.718C160.069 186.541 156.427 184.773 152.274 183.31C148 181.611 143.802 180.493 139.698 180.037L139.367 180H139.035C137.368 180 135.705 180.105 134.218 180.436C132.984 180.71 130.59 181.401 128.962 183.572L128.637 184.005L128.395 184.489C126.926 187.426 127.107 190.295 127.529 192.354C127.828 193.811 128.402 195.428 128.745 196.398C128.829 196.634 128.899 196.832 128.949 196.979C129.627 199.014 130.105 202.37 130.105 207.387V207.414L130.348 234.431L99.8646 236.662L99.7924 236.669C91.8089 237.448 84.3177 238.129 77.3181 238.712L77.2957 238.714L70.8468 239.3C69.8608 239.384 68.0543 239.647 66.2997 240.354C65.4187 240.709 64.1671 241.326 63.0545 242.406C61.8438 243.581 60.6836 245.448 60.6836 247.914C60.6836 248.897 60.8997 249.836 61.0442 250.388C61.2259 251.082 61.4835 251.856 61.8183 252.647C62.412 254.048 63.5502 256.221 65.5684 257.819C68.2875 260.034 71.301 261.648 74.6034 262.473L74.6563 262.486L74.7094 262.499C78.9036 263.467 83.1031 263.824 87.1914 263.824C90.9505 263.824 96.1934 263.517 102.822 262.934L129.52 261.752V300.412L122.646 301.117L122.295 301.257C121.997 301.305 121.541 301.368 120.897 301.447C119.571 301.608 117.648 301.81 115.102 302.052C110.021 302.536 102.611 303.168 92.8536 303.949C73.3174 305.512 59.7953 306.378 52.1665 306.568C44.2887 306.765 40.1087 306.859 39.4258 306.859H39.1954L30.9872 307.491L30.6319 307.562C27.8307 308.122 24.4063 309.56 22.6334 313.106L22 314.373V315.789C22 317.291 22.2433 318.845 22.9116 320.391C23.5718 321.918 24.5158 323.134 25.5152 324.133C26.2013 324.819 27.0176 325.705 28.0174 326.792L28.0854 326.866C29.033 327.897 30.1106 329.069 31.2187 330.206ZM155.726 229.265C155.757 228.929 155.788 228.59 155.819 228.25L155.82 228.236C155.789 228.581 155.758 228.924 155.726 229.265ZM122.587 301.205C122.587 301.205 122.568 301.209 122.526 301.217C122.564 301.208 122.586 301.204 122.587 301.205Z" fill="black"/>
<path d="M199.176 -20.2734C195.675 -20.2734 190.921 -18.9985 185.756 -17.2802C181.022 -15.8272 175.381 -14.4352 168.802 -13.1168C162.019 -11.9543 157.361 -11.1953 154.756 -10.8231L154.632 -10.8054L126.429 -5.81119C125.518 -5.66456 121.288 -5.20735 113.194 -4.41768L113.036 -4.40232L96.3614 -2.06201L83.984 -0.93679C79.9283 -0.920166 76.2383 -0.609749 73.138 0.165337C71.6225 0.544222 69.8833 1.1151 68.3163 2.07936C66.7889 3.01934 64.4668 4.9507 63.7941 8.31429L63.6484 9.04251V10.0781C63.6484 13.5001 65.2745 16.1423 66.9496 17.938C69.5134 21.0868 73.2711 22.8655 76.8215 23.975C80.9082 25.2521 86.1934 25.867 92.2853 26.0701L92.4102 26.0742H95.1719C97.3325 26.0742 99.9267 25.968 102.915 25.7699C107.263 25.5716 112.37 25.2763 118.229 24.8857L118.353 24.8775L118.477 24.8651C124.45 24.2678 131.763 23.3776 140.396 22.2006L140.424 22.1968L176.561 17.5342C181.139 17.1111 186.405 16.2933 192.324 15.1126C198.141 14.1426 202.653 13.3582 205.831 12.7622L206.051 12.7209L215.253 10.4204C216.796 10.1984 218.36 9.8819 219.763 9.38688C220.731 9.04525 223.377 8.05351 225.054 5.44902C225.431 4.9218 225.829 4.30353 226.172 3.61777C226.394 3.17471 226.727 2.44302 226.95 1.50194C227.415 0.0323334 227.477 -1.33768 227.477 -2.22656V-3.14985L227.253 -4.04558C226.693 -6.28239 225.381 -8.32506 224.322 -9.80851L224.129 -10.0784L223.913 -10.3302C221.399 -13.2635 217.56 -15.0656 213.977 -16.3302L213.955 -16.3378L206.004 -19.0903L205.682 -19.1706C203.834 -19.6327 201.975 -19.982 200.106 -20.2155L199.643 -20.2734H199.176Z" fill="black"/>
<path fill-rule="evenodd" clip-rule="evenodd" d="M190.973 38.8281C188.129 38.8281 185.008 39.3789 181.775 40.2376L174.85 41.9688C171.829 42.6769 167.201 43.5162 160.845 44.4792L160.833 44.481L140.105 47.6925C132.768 48.6574 125.044 49.623 116.931 50.589C108.843 51.3597 103.132 51.949 99.8816 52.3534L88.475 53.5541L88.1346 53.6222C87.0133 53.8465 85.8934 54.1129 84.89 54.4474L84.8877 54.4482C84.3235 54.6362 82.8153 55.139 81.4171 56.2768C79.5052 57.7597 78.6422 59.7011 78.247 61.0187C77.8106 62.4734 77.7109 63.9115 77.7109 65.0781V65.6111L77.7863 66.1388C78.3932 70.3867 81.6904 72.6516 83.1424 73.5354C85.0117 74.6732 87.3002 75.5709 89.6752 76.3266L89.8246 76.3742L89.9758 76.4154C94.4198 77.6274 98.6897 78.6451 102.783 79.4637L103.247 79.5566L103.72 79.5903C106.643 79.7992 109.654 79.9023 112.75 79.9023H117.485L117.824 79.8715C120.109 79.6638 125.307 79.0625 133.265 78.0921L133.287 78.0894L153.491 75.747L188.907 71.32L198.095 69.5972C200.858 69.3866 203.36 69.0676 205.522 68.6001C207.512 68.1698 209.744 67.5069 211.687 66.3243C212.743 65.7687 213.959 65.0026 215.026 63.9361C216.234 62.728 217.809 60.5422 217.809 57.4609C217.809 55.0377 216.745 53.1714 216.3 52.4303C215.74 51.4972 215.057 50.6083 214.378 49.8062C213.038 48.1009 211.293 46.7714 209.677 45.7322C207.903 44.5918 205.796 43.4959 203.451 42.4301C199.185 40.491 194.722 38.8281 190.973 38.8281ZM90.8783 60.6815C90.8783 60.6815 90.8852 60.6858 90.8975 60.6947C90.8842 60.686 90.8783 60.6815 90.8783 60.6815Z" fill="black"/>
<path d="M249.273 87.0898C247.176 87.0898 244.246 87.4992 240.939 88.0829L240.899 88.0898L240.86 88.0972C237.913 88.6497 233.086 89.4095 226.29 90.3807L208.167 92.7192C203.844 93.2831 197.352 93.9536 188.627 94.7297C179.962 95.3216 169.668 96.2048 157.757 97.376L111.169 101.478L84.7073 104.124L84.6571 104.13C76.283 105.082 67.0017 105.753 56.8031 106.138L56.7326 106.141L56.6621 106.145C51.4766 106.438 47.4159 106.684 44.4937 106.882C42.1324 107.042 40.1607 107.191 39.0089 107.342L26.9972 108.2L26.979 108.201C25.3456 108.311 23.7559 108.49 22.3535 108.802C21.371 109.02 18.8639 109.608 16.9194 111.552C15.5177 112.954 14.9637 114.529 14.7269 115.476C14.4787 116.468 14.4297 117.372 14.4297 118.027C14.4297 119.407 14.6537 120.726 14.9466 121.897L14.9769 122.018L15.0112 122.139C15.8009 124.903 17.6972 126.857 18.9632 127.997C20.4181 129.306 22.2144 130.555 24.1712 131.751L24.225 131.784L24.2794 131.816C27.9119 133.953 31.9118 135.948 36.2604 137.812L36.4394 137.888L36.6221 137.956C40.7525 139.477 44.8144 140.469 48.5898 140.469H49.4688C51.1944 140.469 52.916 140.345 54.631 140.1C56.3521 139.855 60.8822 138.896 67.7164 137.378C74.4229 136.038 81.7148 134.694 89.5948 133.348C97.6235 132.203 106.838 131.147 117.25 130.183C127.726 129.213 138.795 128.339 150.456 127.562L150.508 127.558L150.56 127.554C162.598 126.583 172.455 125.907 180.153 125.521L223.91 124.062H238.125C242.913 124.454 248.513 124.744 254.906 124.938C261.371 125.134 265.576 125.325 267.694 125.501L268.004 125.527H270.953C272.849 125.527 274.776 125.385 276.572 124.957C278.29 124.548 280.551 123.723 282.409 121.866C284.522 119.753 286.07 116.853 286.07 113.34V112.221L285.995 111.693C285.632 109.156 284.363 107.148 283.319 105.806C282.202 104.37 280.805 103.018 279.313 101.755C276.577 99.4397 273.728 97.3237 270.767 95.4105C267.646 93.1973 264.313 91.3169 260.776 89.7694L260.591 89.6888L260.403 89.6182C256.809 88.2705 253.271 87.3752 249.849 87.1119L249.561 87.0898H249.273Z" fill="black"/>
</svg>
