<svg width="350" height="350" viewBox="0 0 350 350" fill="none" xmlns="http://www.w3.org/2000/svg">
<path d="M248.869 29.5C244.472 29.5 237.999 31.1634 230.187 33.7643C222.869 36.0128 214.208 38.1469 204.176 40.1555C193.967 41.9053 186.901 43.0579 182.911 43.6278L182.803 43.6432L140.546 51.1263C139.015 51.3767 132.445 52.0819 120.357 53.2612L120.221 53.2745L95.1931 56.7871L76.3047 58.5043C70.3234 58.5188 65.1431 58.9717 60.9645 60.0163C58.9089 60.5303 56.8295 61.2415 55.0694 62.3246C53.3436 63.3866 51.0992 65.3388 50.4544 68.5631L50.3281 69.1943V70.2773C50.3281 73.8897 52.0731 76.7995 54.1144 78.9454C57.0945 82.6792 61.7265 85.0176 66.7546 86.5889C72.2755 88.3142 79.7011 89.2182 88.6917 89.5179L88.7999 89.5215H92.8633C95.9734 89.5215 99.7682 89.3675 104.213 89.0722C110.703 88.7766 118.345 88.3352 127.134 87.7493L127.241 87.7421L127.348 87.7314C136.236 86.8426 147.15 85.5145 160.076 83.7522L160.099 83.749L214.425 76.7394C221.115 76.1251 228.897 74.9213 237.736 73.1561C246.488 71.697 253.243 70.5224 257.977 69.6348L258.168 69.599L272.074 66.1226C274.318 65.8089 276.409 65.3823 278.169 64.7613C279.502 64.2905 282.155 63.2165 283.748 60.6748C284.24 59.9956 284.721 59.2501 285.115 58.4626C285.38 57.9333 285.734 57.1354 285.947 56.1511C286.473 54.5824 286.57 53.0147 286.57 51.8203V51.0201L286.376 50.2438C285.768 47.8105 284.26 45.3598 282.723 43.2083L282.556 42.9744L282.369 42.7562C279.447 39.348 274.698 36.9822 269.49 35.144L269.471 35.1375L257.755 31.0821L257.477 31.0124C254.885 30.3645 252.284 29.8763 249.675 29.5502L249.274 29.5H248.869Z" fill="black"/>
<path d="M236.564 148.152C232.862 148.152 228.609 148.878 223.953 150.116L213.499 152.73C208.779 153.838 201.676 155.122 192.085 156.575L192.074 156.577L160.936 161.401C149.877 162.856 138.235 164.311 126.009 165.767C113.805 166.93 105.267 167.811 100.47 168.409L83.534 170.192L83.2389 170.251C81.6486 170.569 80.1833 170.924 78.9426 171.337C78.1175 171.612 76.535 172.171 75.1673 173.31C73.3327 174.724 72.4552 176.621 72.0256 178.053C71.5546 179.623 71.4219 181.271 71.4219 182.777V183.239L71.4872 183.697C72.075 187.811 75.3191 190.207 77.2888 191.406C79.6201 192.825 82.6394 194.036 86.0585 195.124L86.188 195.165L86.319 195.201C92.8918 196.993 99.19 198.494 105.212 199.698L105.614 199.778L106.023 199.808C110.289 200.112 114.692 200.264 119.23 200.264H126.117L126.411 200.237C129.752 199.933 137.473 199.041 149.442 197.581L149.461 197.579L179.774 194.065L232.733 187.445L246.631 184.839C250.751 184.533 254.359 184.072 257.384 183.418C260.228 182.803 263.027 181.923 265.29 180.513C266.668 179.799 268.1 178.892 269.286 177.706C270.58 176.411 272.068 174.269 272.068 171.352C272.068 169.066 271.054 167.201 270.483 166.25C269.809 165.127 268.938 163.987 267.989 162.869C266.448 160.885 264.309 159.205 262.052 157.754C259.649 156.209 256.709 154.672 253.317 153.129C246.898 150.212 241.051 148.152 236.564 148.152Z" fill="black"/>
<path d="M324.016 250.545C321.332 250.545 317.308 251.085 312.339 251.962L312.305 251.968L312.271 251.975C307.738 252.825 300.401 253.978 290.181 255.438L262.979 258.948L262.97 258.949C256.378 259.809 246.546 260.823 233.418 261.99C220.465 262.874 205.05 264.196 187.182 265.954L117.304 272.107L77.671 276.07L77.6274 276.075C64.9271 277.518 50.884 278.533 35.4893 279.114L35.4281 279.116L35.367 279.12C27.5949 279.56 21.5244 279.927 17.1673 280.223C13.3565 280.481 10.5241 280.703 9.09693 280.901L-9.08276 282.2L-9.09536 282.201C-11.4392 282.357 -13.5605 282.605 -15.3339 283C-16.742 283.312 -19.2859 283.976 -21.1567 285.847C-22.4334 287.124 -22.9599 288.581 -23.1961 289.526C-23.442 290.51 -23.5 291.448 -23.5 292.201C-23.5 293.768 -23.244 295.344 -22.8665 296.854L-22.8402 296.959L-22.8105 297.063C-22.0023 299.891 -19.9879 302.08 -18.2721 303.624C-16.3927 305.316 -13.97 307.017 -11.1609 308.734L-11.1142 308.762L-11.0671 308.79C-5.8161 311.879 0.000810623 314.783 6.36726 317.512L6.52234 317.578L6.68065 317.636C12.6107 319.821 18.1101 321.113 22.9902 321.113H24.3086C26.6701 321.113 29.028 320.945 31.3802 320.608C33.7383 320.272 40.3246 318.884 50.6995 316.579C60.8413 314.551 71.8616 312.521 83.7629 310.489C95.9161 308.754 109.839 307.159 125.543 305.705C141.302 304.246 157.945 302.931 175.473 301.763L175.518 301.76L175.564 301.756C193.665 300.297 208.516 299.278 220.135 298.696L285.892 296.504H307.487C314.607 297.091 322.986 297.528 332.608 297.819C342.293 298.113 348.72 298.402 352.04 298.679L352.31 298.701H356.535C359.168 298.701 361.657 298.5 363.863 297.975C366.002 297.466 368.441 296.519 370.36 294.6C372.809 292.15 374.461 288.957 374.461 285.17V283.829L374.396 283.372C374.02 280.74 372.672 278.505 371.334 276.785C369.933 274.984 368.104 273.193 366.007 271.419C362.028 268.052 357.889 264.981 353.591 262.209C349.154 259.054 344.41 256.373 339.365 254.166L339.205 254.096L339.042 254.035C333.948 252.125 329.088 250.916 324.514 250.564L324.265 250.545H324.016Z" fill="black"/>
</svg>
