<svg width="350" height="350" viewBox="0 0 350 350" fill="none" xmlns="http://www.w3.org/2000/svg">
<path d="M255.404 309.202C254.553 310.585 254.049 312.211 253.706 313.692L253.703 313.705L252.592 318.427C252.159 319.749 251.478 322 250.563 325.108C249.57 328.484 248.387 332.728 247.013 337.828C245.731 342.589 244.286 345.794 242.868 347.78C241.808 349.265 239.333 351.209 234.429 353.207C229.914 355.047 224.679 356.023 218.633 356.023H216.582C210.58 356.023 204.136 355.296 197.237 353.804L197.17 353.79L197.103 353.777C189.155 352.263 184.175 350.303 181.466 348.307C178.415 346.059 176.169 343.399 174.626 340.314L174.601 340.263L174.574 340.212C172.982 337.188 171.879 333.557 171.359 329.228L171.358 329.214L171.356 329.201C171.195 327.911 171.105 326.386 171.105 324.609C171.105 319.698 171.899 313.697 173.594 306.541L173.609 306.477L173.623 306.412C175.745 296.38 177.747 288.388 179.621 282.378C181.742 276.21 184.156 269.55 186.863 262.396C189.59 255.187 191.656 250.237 193.083 247.382C194.419 244.711 195.823 242.723 197.233 241.289L203.49 235.657L203.873 235.082C204.714 233.82 205.439 232.631 205.974 231.561L206.555 230.4V229.102C206.555 224.977 203.837 222.04 201.315 220.149C198.773 217.88 195.772 215.916 192.382 214.221C188.973 212.517 185.596 211.201 182.257 210.311L182.089 210.266L181.918 210.232C179.702 209.788 177.574 209.539 175.566 209.539H173.498L172.908 209.67C170.541 210.196 167.566 211.384 164.197 212.967C161.104 214.342 158.667 215.491 157.021 216.382C155.63 216.806 154.077 217.365 152.382 218.038L142.611 220.912L134.817 223.386C135.623 221.141 136.436 218.907 137.297 216.698C139.568 210.871 142.028 205.616 145.103 201.515L145.329 201.214L145.511 200.886C145.988 200.027 146.345 199.405 146.591 198.994C146.627 198.935 146.658 198.884 146.685 198.84L147.961 197.563V195.285C147.961 194.225 147.799 192.977 147.593 191.744C147.094 188.75 145.127 186.456 143.291 184.822C141.311 182.873 138.883 181.176 136.127 179.679C133.344 177.977 130.372 176.499 127.218 175.237L127.068 175.177L126.915 175.126C123.949 174.137 121.543 173.4 119.771 172.957L119.644 172.925L119.516 172.9C118.394 172.675 117.206 172.5 116.094 172.5C115.242 172.5 114.27 172.567 113.295 172.811C112.481 173.014 111.371 173.414 110.341 174.261C108.981 175.266 108.026 176.563 107.366 177.884L107.191 178.234L107.067 178.604C106.643 179.877 106.492 181.171 106.492 182.395V182.688C106.492 183.578 106.669 184.843 106.849 186.014C107.055 187.355 107.358 189.12 107.753 191.289L107.768 191.373L107.786 191.457C108.93 196.794 109.422 200.647 109.422 203.195C109.422 208.133 108.125 213.226 106.298 218.881C105.833 220.32 105.323 221.822 104.798 223.368C103.686 226.644 102.507 230.115 101.553 233.586L96.2185 235.3L96.1917 235.309C96.1968 235.307 96.1682 235.317 96.0916 235.34C96.0154 235.362 95.9123 235.392 95.7783 235.429C95.5095 235.503 95.1518 235.599 94.6976 235.717C93.7904 235.952 92.5527 236.263 90.9754 236.652C87.8239 237.427 83.3735 238.497 77.6169 239.863L77.5741 239.874L77.5315 239.884C71.7855 241.345 67.346 242.431 64.1912 243.148C62.6099 243.507 61.3926 243.764 60.5147 243.929C59.9623 244.032 59.655 244.077 59.5243 244.096C59.4716 244.104 59.4476 244.107 59.4477 244.109C59.4477 244.109 59.449 244.109 59.4513 244.109H58.7805L58.0398 244.321C57.2072 244.559 53.7502 245.099 46.8964 245.905L46.8419 245.911L38.069 247.121L37.8499 247.17C35.8412 247.616 33.1392 248.516 31.3259 250.743C30.0058 252.264 29.7344 254.023 29.7344 255.176C29.7344 257.751 31.1495 259.658 32.1634 260.749C33.6414 262.727 35.8588 264.332 38.1311 265.674C40.5441 267.331 43.4679 268.752 46.7798 269.994C49.9821 271.194 53.12 272.102 55.7422 272.102C58.7081 272.102 62.3441 270.9 66.0796 269.327L66.1296 269.306L66.1791 269.284C69.3511 267.874 73.655 266.396 79.1775 264.872L79.2704 264.847L94.7753 259.979L90.0746 274.823C87.409 282.432 84.4632 289.747 81.2387 296.769C77.8618 303.703 73.6181 310.971 68.4869 318.576C63.2881 326.084 58.4088 332.585 53.8488 338.095L53.8197 338.13L53.7912 338.166C49.2617 343.828 44.1483 349.417 38.443 354.932C32.7548 360.431 27.9315 364.598 23.9494 367.511L19.2306 370.46L19.0437 370.6C18.0742 371.327 17.0858 372.182 16.2912 373.176C15.5577 374.092 14.5 375.735 14.5 377.93C14.5 379.271 14.842 380.498 15.3736 381.561L15.5954 382.005L15.893 382.402C17.5176 384.568 19.929 385.773 22.6367 385.773C23.8451 385.773 25.0175 385.57 26.1338 385.198L26.3387 385.13L34.1147 381.84L34.1355 381.831C40.2454 379.301 47.2082 375.385 54.9844 370.201L55.012 370.183L55.0394 370.164C62.666 364.946 69.4434 359.492 75.3498 353.793C81.5701 347.981 87.3876 340.814 92.8296 332.362C98.489 324.264 103.607 315.114 108.199 304.938C112.898 294.951 116.302 287.058 118.344 281.342L118.373 281.259L118.4 281.175C120.181 275.635 121.958 269.71 123.732 263.403L127.618 249.559L155.334 240.765L155.411 240.738C157.882 239.873 159.668 239.399 160.882 239.171C160.818 239.639 160.726 240.075 160.61 240.481L160.585 240.569L160.563 240.658C160.229 241.991 158.937 246.166 156.565 253.479C154.185 260.819 151.814 269.02 149.451 278.075C147.096 286.714 145.393 294.096 144.375 300.18C142.764 308.259 141.941 315.919 141.941 323.145C141.941 325.809 142.043 328.39 142.25 330.884C142.867 339.886 144.624 347.717 147.728 354.176C150.58 360.513 154.712 366.237 160.039 371.35C165.771 376.853 174.369 381.277 185.253 384.905L185.309 384.924L185.366 384.942C194.209 387.679 204.249 388.996 215.41 388.996C218.625 388.996 221.929 388.896 225.323 388.698C232.019 388.491 238.8 387.78 245.663 386.569L245.756 386.552L245.848 386.533C252.512 385.119 258.633 383.39 264.195 381.329L264.313 381.286L264.428 381.237C269.901 378.922 274.471 376.011 277.735 372.309C280.572 369.443 283.312 365.764 283.312 361.523V360.334L283.182 359.744C282.472 356.553 280.31 353.55 277.853 350.871C276.222 348.901 274.963 347.002 274.032 345.178C273.321 343.397 272.459 340.078 271.527 334.882C270.753 329.252 270.422 325.733 270.422 324.023V323.701L269.243 313.682C269.19 312.207 268.813 310.533 267.743 309.004C266.544 307.292 264.864 306.317 263.21 305.844L262.47 305.633H261.406C258.137 305.633 256.233 307.854 255.404 309.202Z" fill="black"/>
<path d="M199.176 -20.2734C195.675 -20.2734 190.921 -18.9985 185.756 -17.2802C181.022 -15.8272 175.381 -14.4352 168.802 -13.1168C162.019 -11.9543 157.361 -11.1953 154.756 -10.8231L154.632 -10.8054L126.429 -5.81119C125.518 -5.66456 121.288 -5.20735 113.194 -4.41768L113.036 -4.40232L96.3614 -2.06201L83.984 -0.93679C79.9283 -0.920166 76.2383 -0.609749 73.138 0.165337C71.6225 0.544222 69.8833 1.1151 68.3163 2.07936C66.7889 3.01934 64.4668 4.9507 63.7941 8.31429L63.6484 9.04251V10.0781C63.6484 13.5001 65.2745 16.1423 66.9496 17.938C69.5134 21.0868 73.2711 22.8655 76.8215 23.975C80.9082 25.2521 86.1934 25.867 92.2853 26.0701L92.4102 26.0742H95.1719C97.3325 26.0742 99.9267 25.968 102.915 25.7699C107.263 25.5716 112.37 25.2763 118.229 24.8857L118.353 24.8775L118.477 24.8651C124.45 24.2678 131.763 23.3776 140.396 22.2006L140.424 22.1968L176.561 17.5342C181.139 17.1111 186.405 16.2933 192.324 15.1126C198.141 14.1426 202.653 13.3582 205.831 12.7622L206.051 12.7209L215.253 10.4204C216.796 10.1984 218.36 9.8819 219.763 9.38688C220.731 9.04525 223.377 8.05351 225.054 5.44902C225.431 4.9218 225.829 4.30353 226.172 3.61777C226.394 3.17471 226.727 2.44302 226.95 1.50194C227.415 0.0323334 227.477 -1.33768 227.477 -2.22656V-3.14985L227.253 -4.04558C226.693 -6.28239 225.381 -8.32506 224.322 -9.80851L224.129 -10.0784L223.913 -10.3302C221.399 -13.2635 217.56 -15.0656 213.977 -16.3302L213.955 -16.3378L206.004 -19.0903L205.682 -19.1706C203.834 -19.6327 201.975 -19.982 200.106 -20.2155L199.643 -20.2734H199.176Z" fill="black"/>
<path fill-rule="evenodd" clip-rule="evenodd" d="M190.973 38.8281C188.129 38.8281 185.008 39.3789 181.775 40.2376L174.85 41.9688C171.829 42.6769 167.201 43.5162 160.845 44.4792L160.833 44.481L140.105 47.6925C132.768 48.6574 125.044 49.623 116.931 50.589C108.843 51.3597 103.132 51.949 99.8816 52.3534L88.475 53.5541L88.1346 53.6222C87.0133 53.8465 85.8934 54.1129 84.89 54.4474L84.8877 54.4482C84.3235 54.6362 82.8153 55.139 81.4171 56.2768C79.5052 57.7597 78.6422 59.7011 78.247 61.0187C77.8106 62.4734 77.7109 63.9115 77.7109 65.0781V65.6111L77.7863 66.1388C78.3932 70.3867 81.6904 72.6516 83.1424 73.5354C85.0117 74.6732 87.3002 75.5709 89.6752 76.3266L89.8246 76.3742L89.9758 76.4154C94.4198 77.6274 98.6897 78.6451 102.783 79.4637L103.247 79.5566L103.72 79.5903C106.643 79.7992 109.654 79.9023 112.75 79.9023H117.485L117.824 79.8715C120.109 79.6638 125.307 79.0625 133.265 78.0921L133.287 78.0894L153.491 75.747L188.907 71.32L198.095 69.5972C200.858 69.3866 203.36 69.0676 205.522 68.6001C207.512 68.1698 209.744 67.5069 211.687 66.3243C212.743 65.7687 213.959 65.0026 215.026 63.9361C216.234 62.728 217.809 60.5422 217.809 57.4609C217.809 55.0377 216.745 53.1714 216.3 52.4303C215.74 51.4972 215.057 50.6083 214.378 49.8062C213.038 48.1009 211.293 46.7714 209.677 45.7322C207.903 44.5918 205.796 43.4959 203.451 42.4301C199.185 40.491 194.722 38.8281 190.973 38.8281ZM90.8783 60.6815C90.8783 60.6815 90.8852 60.6858 90.8975 60.6947C90.8842 60.686 90.8783 60.6815 90.8783 60.6815Z" fill="black"/>
<path d="M249.273 87.0898C247.176 87.0898 244.246 87.4992 240.939 88.0829L240.899 88.0898L240.86 88.0972C237.913 88.6497 233.086 89.4095 226.29 90.3807L208.167 92.7192C203.844 93.2831 197.352 93.9536 188.627 94.7297C179.962 95.3216 169.668 96.2048 157.757 97.376L111.169 101.478L84.7073 104.124L84.6571 104.13C76.283 105.082 67.0017 105.753 56.8031 106.138L56.7326 106.141L56.6621 106.145C51.4766 106.438 47.4159 106.684 44.4937 106.882C42.1324 107.042 40.1607 107.191 39.0089 107.342L26.9972 108.2L26.979 108.201C25.3456 108.311 23.7559 108.49 22.3535 108.802C21.371 109.02 18.8639 109.608 16.9194 111.552C15.5177 112.954 14.9637 114.529 14.7269 115.476C14.4787 116.468 14.4297 117.372 14.4297 118.027C14.4297 119.407 14.6537 120.726 14.9466 121.897L14.9769 122.018L15.0112 122.139C15.8009 124.903 17.6972 126.857 18.9632 127.997C20.4181 129.306 22.2144 130.555 24.1712 131.751L24.225 131.784L24.2794 131.816C27.9119 133.953 31.9118 135.948 36.2604 137.812L36.4394 137.888L36.6221 137.956C40.7525 139.477 44.8144 140.469 48.5898 140.469H49.4688C51.1944 140.469 52.916 140.345 54.631 140.1C56.3521 139.855 60.8822 138.896 67.7164 137.378C74.4229 136.038 81.7148 134.694 89.5948 133.348C97.6235 132.203 106.838 131.147 117.25 130.183C127.726 129.213 138.795 128.339 150.456 127.562L150.508 127.558L150.56 127.554C162.598 126.583 172.455 125.907 180.153 125.521L223.91 124.062H238.125C242.913 124.454 248.513 124.744 254.906 124.938C261.371 125.134 265.576 125.325 267.694 125.501L268.004 125.527H270.953C272.849 125.527 274.776 125.385 276.572 124.957C278.29 124.548 280.551 123.723 282.409 121.866C284.522 119.753 286.07 116.853 286.07 113.34V112.221L285.995 111.693C285.632 109.156 284.363 107.148 283.319 105.806C282.202 104.37 280.805 103.018 279.313 101.755C276.577 99.4397 273.728 97.3237 270.767 95.4105C267.646 93.1973 264.313 91.3169 260.776 89.7694L260.591 89.6888L260.403 89.6182C256.809 88.2705 253.271 87.3752 249.849 87.1119L249.561 87.0898H249.273Z" fill="black"/>
</svg>
