<svg width="350" height="350" viewBox="0 0 350 350" fill="none" xmlns="http://www.w3.org/2000/svg">
<path d="M120.391 183.047H120.159L119.928 183.063C116.884 183.281 114.052 183.734 111.597 184.552C110.42 184.944 109.177 185.463 108.039 186.187C106.935 186.889 105.526 188.042 104.616 189.863L103.93 191.235V193.355C103.93 196.214 105.14 198.79 107.317 200.596C109.011 202.171 111.031 203.133 113.039 203.707L113.336 203.792L121.393 205.284C124.233 205.961 126.481 206.757 128.219 207.613C129.768 208.472 131.556 209.771 133.577 211.624C135.755 213.621 137.333 215.304 138.404 216.682L138.52 216.83L138.643 216.972C139.453 217.897 140.72 219.838 142.409 223.215C144.271 226.939 148.082 233.749 153.733 243.492C159.338 253.156 165.934 265.183 173.527 279.589C181.138 294.031 186.58 304.03 189.799 309.462L189.808 309.477L203.006 331.474L203.011 331.482C205.921 336.299 208.618 340.312 211.099 343.439C213.484 346.448 216.039 349.118 218.755 350.716C222.394 352.856 225.935 354.49 229.347 355.465L229.557 355.525L229.771 355.571C233.224 356.31 238.206 356.594 244.316 356.594H258.181L288.374 355.714C290.126 355.698 292.387 355.293 294.373 353.705C296.504 352 297.391 349.682 297.641 347.677L297.691 347.276V346.285C297.691 340.687 293.001 337.98 290.36 336.847L281.485 332.553C281.46 332.54 281.403 332.51 281.307 332.459C281.232 332.419 281.132 332.366 281.004 332.297C280.675 332.121 280.221 331.876 279.639 331.561C278.475 330.931 276.822 330.031 274.675 328.86L274.573 328.805L257.477 320.257C255.075 319.056 251.22 316.775 245.781 313.278L245.737 313.251L245.693 313.223C240.29 309.869 234.648 305.831 228.768 301.089L228.729 301.057L228.689 301.026C222.81 296.433 217.267 291.081 212.066 284.951L212.029 284.908L211.992 284.866C206.489 278.604 202.225 273.122 199.131 268.402L180.122 237.11L166.376 215.176C162.465 208.53 159.019 203.234 156.06 199.416C153.109 195.352 149.63 191.97 145.601 189.363C141.641 186.801 137.387 185.018 132.863 184.065L132.676 184.026L132.488 183.998C128.301 183.37 124.266 183.047 120.391 183.047Z" fill="black"/>
<path d="M19.3326 342.471L19.3193 342.481L17.152 344.029L17.0137 344.139C16.2624 344.74 15.4033 345.532 14.6863 346.535C13.9832 347.52 13.1094 349.145 13.1094 351.266C13.1094 352.658 13.4619 354.896 15.3061 356.741C16.9954 358.43 19.1734 359.23 21.3672 359.23C22.58 359.23 23.6856 358.979 24.5544 358.711L28.2093 357.867L28.3154 357.839C30.6432 357.218 33.4067 355.852 36.3003 354.205C39.3141 352.491 42.9559 350.186 47.1951 347.328C55.5414 342.016 61.163 338.315 63.8006 336.354C66.6906 334.392 71.4219 330.235 77.673 324.363C84.0997 318.325 88.9796 313.552 92.245 310.088C95.8836 306.437 100.175 301.194 105.083 294.521C110.182 287.854 113.335 283.88 114.702 282.342L114.783 282.25L118.883 277.272C120.127 275.879 121.241 274.759 122.227 273.883C122.836 273.499 123.357 273.164 123.776 272.885L123.828 272.851C124.135 272.647 124.959 272.101 125.573 271.487L126.319 270.741L126.79 269.798C127.816 267.746 128.062 265.531 128.062 263.668V261.372L127.974 260.842C127.156 255.933 123.339 251.978 119.438 248.898L119.375 248.848L119.31 248.8C115.305 245.796 111.689 243.447 108.558 241.989C105.632 240.538 102.51 239.59 99.2969 239.59C98.2771 239.59 97.2021 239.651 96.1566 239.841C95.1768 240.019 93.7931 240.384 92.4687 241.267L91.0324 242.225L90.2604 243.769C89.2596 245.771 88.9136 248.374 88.722 250.482C88.5457 252.421 88.2807 254.469 87.9234 256.628C87.6228 258.079 86.8922 260.497 85.5805 264.058L85.5275 264.201L85.4814 264.347C84.4347 267.662 83.0268 271.016 81.2402 274.41C79.474 277.766 76.922 281.797 73.5141 286.53L73.4631 286.601L73.414 286.673C70.2639 291.306 66.3227 296.381 61.5612 301.904L61.5257 301.945L61.4909 301.987C56.7038 307.732 52.2469 312.658 48.1187 316.787C43.9211 320.984 38.8301 325.789 32.8321 331.206C27.0419 336.417 22.5636 340.136 19.3326 342.471Z" fill="black"/>
<path d="M199.176 -20.2734C195.675 -20.2734 190.921 -18.9985 185.756 -17.2802C181.022 -15.8272 175.381 -14.4352 168.802 -13.1168C162.019 -11.9543 157.361 -11.1953 154.756 -10.8231L154.632 -10.8054L126.429 -5.81119C125.518 -5.66456 121.288 -5.20735 113.194 -4.41768L113.036 -4.40232L96.3614 -2.06201L83.984 -0.93679C79.9283 -0.920166 76.2383 -0.609749 73.138 0.165337C71.6225 0.544222 69.8833 1.1151 68.3163 2.07936C66.7889 3.01934 64.4668 4.9507 63.7941 8.31429L63.6484 9.04251V10.0781C63.6484 13.5001 65.2745 16.1423 66.9496 17.938C69.5134 21.0868 73.2711 22.8655 76.8215 23.975C80.9082 25.2521 86.1934 25.867 92.2853 26.0701L92.4102 26.0742H95.1719C97.3325 26.0742 99.9267 25.968 102.915 25.7699C107.263 25.5716 112.37 25.2763 118.229 24.8857L118.353 24.8775L118.477 24.8651C124.45 24.2678 131.763 23.3776 140.396 22.2006L140.424 22.1968L176.561 17.5342C181.139 17.1111 186.405 16.2933 192.324 15.1126C198.141 14.1426 202.653 13.3582 205.831 12.7622L206.051 12.7209L215.253 10.4204C216.796 10.1984 218.36 9.8819 219.763 9.38688C220.731 9.04525 223.377 8.05351 225.054 5.44902C225.431 4.9218 225.829 4.30353 226.172 3.61777C226.394 3.17471 226.727 2.44302 226.95 1.50194C227.415 0.0323334 227.477 -1.33768 227.477 -2.22656V-3.14985L227.253 -4.04558C226.693 -6.28239 225.381 -8.32506 224.322 -9.80851L224.129 -10.0784L223.913 -10.3302C221.399 -13.2635 217.56 -15.0656 213.977 -16.3302L213.955 -16.3378L206.004 -19.0903L205.682 -19.1706C203.834 -19.6327 201.975 -19.982 200.106 -20.2155L199.643 -20.2734H199.176Z" fill="black"/>
<path fill-rule="evenodd" clip-rule="evenodd" d="M190.973 38.8281C188.129 38.8281 185.008 39.3789 181.775 40.2376L174.85 41.9688C171.829 42.6769 167.201 43.5162 160.845 44.4792L160.833 44.481L140.105 47.6925C132.768 48.6574 125.044 49.623 116.931 50.589C108.843 51.3597 103.132 51.949 99.8816 52.3534L88.475 53.5541L88.1346 53.6222C87.0133 53.8465 85.8934 54.1129 84.89 54.4474L84.8877 54.4482C84.3235 54.6362 82.8153 55.139 81.4171 56.2768C79.5052 57.7597 78.6422 59.7011 78.247 61.0187C77.8106 62.4734 77.7109 63.9115 77.7109 65.0781V65.6111L77.7863 66.1388C78.3932 70.3867 81.6904 72.6516 83.1424 73.5354C85.0117 74.6732 87.3002 75.5709 89.6752 76.3266L89.8246 76.3742L89.9758 76.4154C94.4198 77.6274 98.6897 78.6451 102.783 79.4637L103.247 79.5566L103.72 79.5903C106.643 79.7992 109.654 79.9023 112.75 79.9023H117.485L117.824 79.8715C120.109 79.6638 125.307 79.0625 133.265 78.0921L133.287 78.0894L153.491 75.747L188.907 71.32L198.095 69.5972C200.858 69.3866 203.36 69.0676 205.522 68.6001C207.512 68.1698 209.744 67.5069 211.687 66.3243C212.743 65.7687 213.959 65.0026 215.026 63.9361C216.234 62.728 217.809 60.5422 217.809 57.4609C217.809 55.0377 216.745 53.1714 216.3 52.4303C215.74 51.4972 215.057 50.6083 214.378 49.8062C213.038 48.1009 211.293 46.7714 209.677 45.7322C207.903 44.5918 205.796 43.4959 203.451 42.4301C199.185 40.491 194.722 38.8281 190.973 38.8281ZM90.8783 60.6815C90.8783 60.6815 90.8852 60.6858 90.8975 60.6947C90.8842 60.686 90.8783 60.6815 90.8783 60.6815Z" fill="black"/>
<path d="M249.273 87.0898C247.176 87.0898 244.246 87.4992 240.939 88.0829L240.899 88.0898L240.86 88.0972C237.913 88.6497 233.086 89.4095 226.29 90.3807L208.167 92.7192C203.844 93.2831 197.352 93.9536 188.627 94.7297C179.962 95.3216 169.668 96.2048 157.757 97.376L111.169 101.478L84.7073 104.124L84.6571 104.13C76.283 105.082 67.0017 105.753 56.8031 106.138L56.7326 106.141L56.6621 106.145C51.4766 106.438 47.4159 106.684 44.4937 106.882C42.1324 107.042 40.1607 107.191 39.0089 107.342L26.9972 108.2L26.979 108.201C25.3456 108.311 23.7559 108.49 22.3535 108.802C21.371 109.02 18.8639 109.608 16.9194 111.552C15.5177 112.954 14.9637 114.529 14.7269 115.476C14.4787 116.468 14.4297 117.372 14.4297 118.027C14.4297 119.407 14.6537 120.726 14.9466 121.897L14.9769 122.018L15.0112 122.139C15.8009 124.903 17.6972 126.857 18.9632 127.997C20.4181 129.306 22.2144 130.555 24.1712 131.751L24.225 131.784L24.2794 131.816C27.9119 133.953 31.9118 135.948 36.2604 137.812L36.4394 137.888L36.6221 137.956C40.7525 139.477 44.8144 140.469 48.5898 140.469H49.4688C51.1944 140.469 52.916 140.345 54.631 140.1C56.3521 139.855 60.8822 138.896 67.7164 137.378C74.4229 136.038 81.7148 134.694 89.5948 133.348C97.6235 132.203 106.838 131.147 117.25 130.183C127.726 129.213 138.795 128.339 150.456 127.562L150.508 127.558L150.56 127.554C162.598 126.583 172.455 125.907 180.153 125.521L223.91 124.062H238.125C242.913 124.454 248.513 124.744 254.906 124.938C261.371 125.134 265.576 125.325 267.694 125.501L268.004 125.527H270.953C272.849 125.527 274.776 125.385 276.572 124.957C278.29 124.548 280.551 123.723 282.409 121.866C284.522 119.753 286.07 116.853 286.07 113.34V112.221L285.995 111.693C285.632 109.156 284.363 107.148 283.319 105.806C282.202 104.37 280.805 103.018 279.313 101.755C276.577 99.4397 273.728 97.3237 270.767 95.4105C267.646 93.1973 264.313 91.3169 260.776 89.7694L260.591 89.6888L260.403 89.6182C256.809 88.2705 253.271 87.3752 249.849 87.1119L249.561 87.0898H249.273Z" fill="black"/>
</svg>
