<svg width="350" height="350" viewBox="0 0 350 350" fill="none" xmlns="http://www.w3.org/2000/svg">
<path d="M199.176 199.727C195.675 199.727 190.921 201.002 185.756 202.72C181.022 204.173 175.381 205.565 168.802 206.883C162.019 208.046 157.361 208.805 154.756 209.177L154.632 209.195L126.429 214.189C125.518 214.335 121.288 214.793 113.194 215.582L113.036 215.598L96.3614 217.938L83.984 219.063C79.9283 219.08 76.2383 219.39 73.138 220.165C71.6225 220.544 69.8833 221.115 68.3163 222.079C66.7889 223.019 64.4668 224.951 63.7941 228.314L63.6484 229.043V230.078C63.6484 233.5 65.2745 236.142 66.9496 237.938C69.5134 241.087 73.2711 242.865 76.8215 243.975C80.9082 245.252 86.1934 245.867 92.2853 246.07L92.4102 246.074H95.1719C97.3325 246.074 99.9267 245.968 102.915 245.77C107.263 245.572 112.37 245.276 118.229 244.886L118.353 244.877L118.477 244.865C124.45 244.268 131.763 243.378 140.396 242.201L140.424 242.197L176.561 237.534C181.139 237.111 186.405 236.293 192.324 235.113C198.141 234.143 202.653 233.358 205.831 232.762L206.051 232.721L215.253 230.42C216.796 230.198 218.36 229.882 219.763 229.387C220.731 229.045 223.377 228.054 225.054 225.449C225.431 224.922 225.829 224.304 226.172 223.618C226.394 223.175 226.727 222.443 226.95 221.502C227.415 220.032 227.477 218.662 227.477 217.773V216.85L227.253 215.954C226.693 213.718 225.381 211.675 224.322 210.191L224.129 209.922L223.913 209.67C221.399 206.736 217.56 204.934 213.977 203.67L213.955 203.662L206.004 200.91L205.682 200.829C203.834 200.367 201.975 200.018 200.106 199.784L199.643 199.727H199.176Z" fill="black"/>
<path fill-rule="evenodd" clip-rule="evenodd" d="M190.973 258.828C188.129 258.828 185.008 259.379 181.775 260.238L174.85 261.969C171.829 262.677 167.201 263.516 160.845 264.479L160.833 264.481L140.105 267.692C132.768 268.657 125.044 269.623 116.931 270.589C108.843 271.36 103.132 271.949 99.8816 272.353L88.475 273.554L88.1346 273.622C87.0133 273.846 85.8934 274.113 84.89 274.447L84.8877 274.448C84.3235 274.636 82.8153 275.139 81.4171 276.277C79.5052 277.76 78.6422 279.701 78.247 281.019C77.8106 282.473 77.7109 283.911 77.7109 285.078V285.611L77.7863 286.139C78.3932 290.387 81.6904 292.652 83.1424 293.535C85.0117 294.673 87.3002 295.571 89.6752 296.327L89.8246 296.374L89.9758 296.415C94.4198 297.627 98.6897 298.645 102.783 299.464L103.247 299.557L103.72 299.59C106.643 299.799 109.654 299.902 112.75 299.902H117.485L117.824 299.872C120.109 299.664 125.307 299.062 133.265 298.092L133.287 298.089L153.491 295.747L188.907 291.32L198.095 289.597C200.858 289.387 203.36 289.068 205.522 288.6C207.512 288.17 209.744 287.507 211.687 286.324C212.743 285.769 213.959 285.003 215.026 283.936C216.234 282.728 217.809 280.542 217.809 277.461C217.809 275.038 216.745 273.171 216.3 272.43C215.74 271.497 215.057 270.608 214.378 269.806C213.038 268.101 211.293 266.771 209.677 265.732C207.903 264.592 205.796 263.496 203.451 262.43C199.185 260.491 194.722 258.828 190.973 258.828ZM90.8783 280.681C90.8783 280.681 90.8852 280.686 90.8975 280.695C90.8842 280.686 90.8783 280.681 90.8783 280.681Z" fill="black"/>
<path d="M249.273 307.09C247.176 307.09 244.246 307.499 240.939 308.083L240.899 308.09L240.86 308.097C237.913 308.65 233.086 309.409 226.29 310.381L208.167 312.719C203.844 313.283 197.352 313.954 188.627 314.73C179.962 315.322 169.668 316.205 157.757 317.376L111.169 321.478L84.7073 324.124L84.6571 324.13C76.283 325.082 67.0017 325.753 56.8031 326.138L56.7326 326.141L56.6621 326.145C51.4766 326.438 47.4159 326.684 44.4937 326.882C42.1324 327.042 40.1607 327.191 39.0089 327.342L26.9972 328.2L26.979 328.201C25.3456 328.311 23.7559 328.49 22.3535 328.802C21.371 329.02 18.8639 329.608 16.9194 331.552C15.5177 332.954 14.9637 334.529 14.7269 335.476C14.4787 336.468 14.4297 337.372 14.4297 338.027C14.4297 339.407 14.6537 340.726 14.9466 341.897L14.9769 342.018L15.0112 342.139C15.8009 344.903 17.6972 346.857 18.9632 347.997C20.4181 349.306 22.2144 350.555 24.1712 351.751L24.225 351.784L24.2794 351.816C27.9119 353.953 31.9118 355.948 36.2604 357.812L36.4394 357.888L36.6221 357.956C40.7525 359.477 44.8144 360.469 48.5898 360.469H49.4688C51.1944 360.469 52.916 360.345 54.631 360.1C56.3521 359.855 60.8822 358.896 67.7164 357.378C74.4229 356.038 81.7148 354.694 89.5948 353.348C97.6235 352.203 106.838 351.147 117.25 350.183C127.726 349.213 138.795 348.339 150.456 347.562L150.508 347.558L150.56 347.554C162.598 346.583 172.455 345.907 180.153 345.521L223.91 344.062H238.125C242.913 344.454 248.513 344.744 254.906 344.938C261.371 345.134 265.576 345.325 267.694 345.501L268.004 345.527H270.953C272.849 345.527 274.776 345.385 276.572 344.957C278.29 344.548 280.551 343.723 282.409 341.866C284.522 339.753 286.07 336.853 286.07 333.34V332.221L285.995 331.693C285.632 329.156 284.363 327.148 283.319 325.806C282.202 324.37 280.805 323.018 279.313 321.755C276.577 319.44 273.728 317.324 270.767 315.411C267.646 313.197 264.313 311.317 260.776 309.769L260.591 309.689L260.403 309.618C256.809 308.271 253.271 307.375 249.849 307.112L249.561 307.09H249.273Z" fill="black"/>
<path d="M199.176 -20.2734C195.675 -20.2734 190.921 -18.9985 185.756 -17.2802C181.022 -15.8272 175.381 -14.4352 168.802 -13.1168C162.019 -11.9543 157.361 -11.1953 154.756 -10.8231L154.632 -10.8054L126.429 -5.81119C125.518 -5.66456 121.288 -5.20735 113.194 -4.41768L113.036 -4.40232L96.3614 -2.06201L83.984 -0.93679C79.9283 -0.920166 76.2383 -0.609749 73.138 0.165337C71.6225 0.544222 69.8833 1.1151 68.3163 2.07936C66.7889 3.01934 64.4668 4.9507 63.7941 8.31429L63.6484 9.04251V10.0781C63.6484 13.5001 65.2745 16.1423 66.9496 17.938C69.5134 21.0868 73.2711 22.8655 76.8215 23.975C80.9082 25.2521 86.1934 25.867 92.2853 26.0701L92.4102 26.0742H95.1719C97.3325 26.0742 99.9267 25.968 102.915 25.7699C107.263 25.5716 112.37 25.2763 118.229 24.8857L118.353 24.8775L118.477 24.8651C124.45 24.2678 131.763 23.3776 140.396 22.2006L140.424 22.1968L176.561 17.5342C181.139 17.1111 186.405 16.2933 192.324 15.1126C198.141 14.1426 202.653 13.3582 205.831 12.7622L206.051 12.7209L215.253 10.4204C216.796 10.1984 218.36 9.8819 219.763 9.38688C220.731 9.04525 223.377 8.05351 225.054 5.44902C225.431 4.9218 225.829 4.30353 226.172 3.61777C226.394 3.17471 226.727 2.44302 226.95 1.50194C227.415 0.0323334 227.477 -1.33768 227.477 -2.22656V-3.14985L227.253 -4.04558C226.693 -6.28239 225.381 -8.32506 224.322 -9.80851L224.129 -10.0784L223.913 -10.3302C221.399 -13.2635 217.56 -15.0656 213.977 -16.3302L213.955 -16.3378L206.004 -19.0903L205.682 -19.1706C203.834 -19.6327 201.975 -19.982 200.106 -20.2155L199.643 -20.2734H199.176Z" fill="black"/>
<path fill-rule="evenodd" clip-rule="evenodd" d="M190.973 38.8281C188.129 38.8281 185.008 39.3789 181.775 40.2376L174.85 41.9688C171.829 42.6769 167.201 43.5162 160.845 44.4792L160.833 44.481L140.105 47.6925C132.768 48.6574 125.044 49.623 116.931 50.589C108.843 51.3597 103.132 51.949 99.8816 52.3534L88.475 53.5541L88.1346 53.6222C87.0133 53.8465 85.8934 54.1129 84.89 54.4474L84.8877 54.4482C84.3235 54.6362 82.8153 55.139 81.4171 56.2768C79.5052 57.7597 78.6422 59.7011 78.247 61.0187C77.8106 62.4734 77.7109 63.9115 77.7109 65.0781V65.6111L77.7863 66.1388C78.3932 70.3867 81.6904 72.6516 83.1424 73.5354C85.0117 74.6732 87.3002 75.5709 89.6752 76.3266L89.8246 76.3742L89.9758 76.4154C94.4198 77.6274 98.6897 78.6451 102.783 79.4637L103.247 79.5566L103.72 79.5903C106.643 79.7992 109.654 79.9023 112.75 79.9023H117.485L117.824 79.8715C120.109 79.6638 125.307 79.0625 133.265 78.0921L133.287 78.0894L153.491 75.747L188.907 71.32L198.095 69.5972C200.858 69.3866 203.36 69.0676 205.522 68.6001C207.512 68.1698 209.744 67.5069 211.687 66.3243C212.743 65.7687 213.959 65.0026 215.026 63.9361C216.234 62.728 217.809 60.5422 217.809 57.4609C217.809 55.0377 216.745 53.1714 216.3 52.4303C215.74 51.4972 215.057 50.6083 214.378 49.8062C213.038 48.1009 211.293 46.7714 209.677 45.7322C207.903 44.5918 205.796 43.4959 203.451 42.4301C199.185 40.491 194.722 38.8281 190.973 38.8281ZM90.8783 60.6815C90.8783 60.6815 90.8852 60.6858 90.8975 60.6947C90.8842 60.686 90.8783 60.6815 90.8783 60.6815Z" fill="black"/>
<path d="M249.273 87.0898C247.176 87.0898 244.246 87.4992 240.939 88.0829L240.899 88.0898L240.86 88.0972C237.913 88.6497 233.086 89.4095 226.29 90.3807L208.167 92.7192C203.844 93.2831 197.352 93.9536 188.627 94.7297C179.962 95.3216 169.668 96.2048 157.757 97.376L111.169 101.478L84.7073 104.124L84.6571 104.13C76.283 105.082 67.0017 105.753 56.8031 106.138L56.7326 106.141L56.6621 106.145C51.4766 106.438 47.4159 106.684 44.4937 106.882C42.1324 107.042 40.1607 107.191 39.0089 107.342L26.9972 108.2L26.979 108.201C25.3456 108.311 23.7559 108.49 22.3535 108.802C21.371 109.02 18.8639 109.608 16.9194 111.552C15.5177 112.954 14.9637 114.529 14.7269 115.476C14.4787 116.468 14.4297 117.372 14.4297 118.027C14.4297 119.407 14.6537 120.726 14.9466 121.897L14.9769 122.018L15.0112 122.139C15.8009 124.903 17.6972 126.857 18.9632 127.997C20.4181 129.306 22.2144 130.555 24.1712 131.751L24.225 131.784L24.2794 131.816C27.9119 133.953 31.9118 135.948 36.2604 137.812L36.4394 137.888L36.6221 137.956C40.7525 139.477 44.8144 140.469 48.5898 140.469H49.4688C51.1944 140.469 52.916 140.345 54.631 140.1C56.3521 139.855 60.8822 138.896 67.7164 137.378C74.4229 136.038 81.7148 134.694 89.5948 133.348C97.6235 132.203 106.838 131.147 117.25 130.183C127.726 129.213 138.795 128.339 150.456 127.562L150.508 127.558L150.56 127.554C162.598 126.583 172.455 125.907 180.153 125.521L223.91 124.062H238.125C242.913 124.454 248.513 124.744 254.906 124.938C261.371 125.134 265.576 125.325 267.694 125.501L268.004 125.527H270.953C272.849 125.527 274.776 125.385 276.572 124.957C278.29 124.548 280.551 123.723 282.409 121.866C284.522 119.753 286.07 116.853 286.07 113.34V112.221L285.995 111.693C285.632 109.156 284.363 107.148 283.319 105.806C282.202 104.37 280.805 103.018 279.313 101.755C276.577 99.4397 273.728 97.3237 270.767 95.4105C267.646 93.1973 264.313 91.3169 260.776 89.7694L260.591 89.6888L260.403 89.6182C256.809 88.2705 253.271 87.3752 249.849 87.1119L249.561 87.0898H249.273Z" fill="black"/>
</svg>
