<svg width="350" height="350" viewBox="0 0 350 350" fill="none" xmlns="http://www.w3.org/2000/svg">
<path d="M255.404 309.202C254.553 310.585 254.049 312.211 253.706 313.692L253.703 313.705L252.592 318.427C252.159 319.749 251.478 322 250.563 325.108C249.57 328.484 248.387 332.728 247.013 337.828C245.731 342.589 244.286 345.794 242.868 347.78C241.808 349.265 239.333 351.209 234.429 353.207C229.914 355.047 224.679 356.023 218.633 356.023H216.582C210.58 356.023 204.136 355.296 197.237 353.804L197.17 353.79L197.103 353.777C189.155 352.263 184.175 350.303 181.466 348.307C178.415 346.059 176.169 343.399 174.626 340.314L174.601 340.263L174.574 340.212C172.982 337.188 171.879 333.557 171.359 329.228L171.358 329.214L171.356 329.201C171.195 327.911 171.105 326.386 171.105 324.609C171.105 319.698 171.899 313.697 173.594 306.541L173.609 306.477L173.623 306.412C175.745 296.38 177.747 288.388 179.621 282.378C181.742 276.21 184.156 269.55 186.863 262.396C189.59 255.187 191.656 250.237 193.083 247.382C194.419 244.711 195.823 242.723 197.233 241.289L203.49 235.657L203.873 235.082C204.714 233.82 205.439 232.631 205.974 231.561L206.555 230.4V229.102C206.555 224.977 203.837 222.04 201.315 220.149C198.773 217.88 195.772 215.916 192.382 214.221C188.973 212.517 185.596 211.201 182.257 210.311L182.089 210.266L181.918 210.232C179.702 209.788 177.574 209.539 175.566 209.539H173.498L172.908 209.67C170.541 210.196 167.566 211.384 164.197 212.967C161.104 214.342 158.667 215.491 157.021 216.382C155.63 216.806 154.077 217.365 152.382 218.038L142.611 220.912L134.817 223.386C135.623 221.141 136.436 218.907 137.297 216.698C139.568 210.871 142.028 205.616 145.103 201.515L145.329 201.214L145.511 200.886C145.988 200.027 146.345 199.405 146.591 198.994C146.627 198.935 146.658 198.884 146.685 198.84L147.961 197.563V195.285C147.961 194.225 147.799 192.977 147.593 191.744C147.094 188.75 145.127 186.456 143.291 184.822C141.311 182.873 138.883 181.176 136.127 179.679C133.344 177.977 130.372 176.499 127.218 175.237L127.068 175.177L126.915 175.126C123.949 174.137 121.543 173.4 119.771 172.957L119.644 172.925L119.516 172.9C118.394 172.675 117.206 172.5 116.094 172.5C115.242 172.5 114.27 172.567 113.295 172.811C112.481 173.014 111.371 173.414 110.341 174.261C108.981 175.266 108.026 176.563 107.366 177.884L107.191 178.234L107.067 178.604C106.643 179.877 106.492 181.171 106.492 182.395V182.688C106.492 183.578 106.669 184.843 106.849 186.014C107.055 187.355 107.358 189.12 107.753 191.289L107.768 191.373L107.786 191.457C108.93 196.794 109.422 200.647 109.422 203.195C109.422 208.133 108.125 213.226 106.298 218.881C105.833 220.32 105.323 221.822 104.798 223.368C103.686 226.644 102.507 230.115 101.553 233.586L96.2185 235.3L96.1917 235.309C96.1968 235.307 96.1682 235.317 96.0916 235.34C96.0154 235.362 95.9123 235.392 95.7783 235.429C95.5095 235.503 95.1518 235.599 94.6976 235.717C93.7904 235.952 92.5527 236.263 90.9754 236.652C87.8239 237.427 83.3735 238.497 77.6169 239.863L77.5741 239.874L77.5315 239.884C71.7855 241.345 67.346 242.431 64.1912 243.148C62.6099 243.507 61.3926 243.764 60.5147 243.929C59.9623 244.032 59.655 244.077 59.5243 244.096C59.4716 244.104 59.4476 244.107 59.4477 244.109C59.4477 244.109 59.449 244.109 59.4513 244.109H58.7805L58.0398 244.321C57.2072 244.559 53.7502 245.099 46.8964 245.905L46.8419 245.911L38.069 247.121L37.8499 247.17C35.8412 247.616 33.1392 248.516 31.3259 250.743C30.0058 252.264 29.7344 254.023 29.7344 255.176C29.7344 257.751 31.1495 259.658 32.1634 260.749C33.6414 262.727 35.8588 264.332 38.1311 265.674C40.5441 267.331 43.4679 268.752 46.7798 269.994C49.9821 271.194 53.12 272.102 55.7422 272.102C58.7081 272.102 62.3441 270.9 66.0796 269.327L66.1296 269.306L66.1791 269.284C69.3511 267.874 73.655 266.396 79.1775 264.872L79.2704 264.847L94.7753 259.979L90.0746 274.823C87.409 282.432 84.4632 289.747 81.2387 296.769C77.8618 303.703 73.6181 310.971 68.4869 318.576C63.2881 326.084 58.4088 332.585 53.8488 338.095L53.8197 338.13L53.7912 338.166C49.2617 343.828 44.1483 349.417 38.443 354.932C32.7548 360.431 27.9315 364.598 23.9494 367.511L19.2306 370.46L19.0437 370.6C18.0742 371.327 17.0858 372.182 16.2912 373.176C15.5577 374.092 14.5 375.735 14.5 377.93C14.5 379.271 14.842 380.498 15.3736 381.561L15.5954 382.005L15.893 382.402C17.5176 384.568 19.929 385.773 22.6367 385.773C23.8451 385.773 25.0175 385.57 26.1338 385.198L26.3387 385.13L34.1147 381.84L34.1355 381.831C40.2454 379.301 47.2082 375.385 54.9844 370.201L55.012 370.183L55.0394 370.164C62.666 364.946 69.4434 359.492 75.3498 353.793C81.5701 347.981 87.3876 340.814 92.8296 332.362C98.489 324.264 103.607 315.114 108.199 304.938C112.898 294.951 116.302 287.058 118.344 281.342L118.373 281.259L118.4 281.175C120.181 275.635 121.958 269.71 123.732 263.403L127.618 249.559L155.334 240.765L155.411 240.738C157.882 239.873 159.668 239.399 160.882 239.171C160.818 239.639 160.726 240.075 160.61 240.481L160.585 240.569L160.563 240.658C160.229 241.991 158.937 246.166 156.565 253.479C154.185 260.819 151.814 269.02 149.451 278.075C147.096 286.714 145.393 294.096 144.375 300.18C142.764 308.259 141.941 315.919 141.941 323.145C141.941 325.809 142.043 328.39 142.25 330.884C142.867 339.886 144.624 347.717 147.728 354.176C150.58 360.513 154.712 366.237 160.039 371.35C165.771 376.853 174.369 381.277 185.253 384.905L185.309 384.924L185.366 384.942C194.209 387.679 204.249 388.996 215.41 388.996C218.625 388.996 221.929 388.896 225.323 388.698C232.019 388.491 238.8 387.78 245.663 386.569L245.756 386.552L245.848 386.533C252.512 385.119 258.633 383.39 264.195 381.329L264.313 381.286L264.428 381.237C269.901 378.922 274.471 376.011 277.735 372.309C280.572 369.443 283.312 365.764 283.312 361.523V360.334L283.182 359.744C282.472 356.553 280.31 353.55 277.853 350.871C276.222 348.901 274.963 347.002 274.032 345.178C273.321 343.397 272.459 340.078 271.527 334.882C270.753 329.252 270.422 325.733 270.422 324.023V323.701L269.243 313.682C269.19 312.207 268.813 310.533 267.743 309.004C266.544 307.292 264.864 306.317 263.21 305.844L262.47 305.633H261.406C258.137 305.633 256.233 307.854 255.404 309.202Z" fill="black"/>
<path fill-rule="evenodd" clip-rule="evenodd" d="M235.801 -28.1094C234.015 -28.1094 231.73 -27.5561 229.696 -27.0014L229.617 -26.9799L229.538 -26.9563C228.066 -26.5145 225.92 -26.0825 222.983 -25.7154L222.638 -25.6724L222.3 -25.5928C219.342 -24.8967 215.844 -24.351 211.775 -23.9811L211.486 -23.9549L211.201 -23.903C207.124 -23.1617 201.644 -22.4018 194.709 -21.6305L175.914 -19.8685L175.815 -19.8561C169.554 -19.0735 165.383 -18.6016 163.191 -18.419L163.171 -18.4173L59.7437 -9.17241L55.7799 -10.6588L49.1369 -11.6078C47.3416 -11.9843 45.8391 -12.2798 44.6538 -12.4859C43.6132 -12.6669 42.3108 -12.875 41.2695 -12.875H40.8076L40.3503 -12.8097C38.7918 -12.587 37.1479 -12.2544 35.7061 -11.6777C34.7513 -11.2958 31.4968 -9.9046 30.5691 -6.19367L30.375 -5.41737V-4.32422C30.375 -2.69363 30.8274 -1.20668 31.2283 -0.137619C31.6651 1.02701 32.2553 2.24526 32.9265 3.47582L33.0314 3.66815L37.202 10.2219C38.1231 11.7685 39.1254 13.8307 40.1877 16.4789C41.1335 19.0217 42.016 22.6206 42.7553 27.4259L42.7703 27.5237L42.7884 27.6211C43.7038 32.5644 44.362 38.3386 44.7411 44.9724L44.7462 45.062L50.0078 107.032C50.05 108.839 50.4314 111.569 50.9658 114.778L52.3966 123.935C52.8564 128.537 54.0321 132.894 56.5206 136.315L56.6294 136.465L56.7466 136.608C57.8103 137.908 59.0095 139.167 60.3505 140.151C61.6239 141.085 63.6302 142.215 66.1719 142.215H66.9268L67.3841 142.15C71.5622 141.553 74.1699 138.629 75.6625 135.942L75.8029 135.689L75.9202 135.425C76.7453 133.569 77.4223 131.893 77.9047 130.446L77.9359 130.353L78.0166 130.084C78.8686 130.171 79.7141 130.203 80.5273 130.203C82.0141 130.203 83.6284 130.083 85.3379 129.872C89.5179 129.472 95.4925 128.785 103.226 127.819C110.986 127.043 117.169 126.464 121.79 126.079L143.098 124.328C152.772 123.747 160.446 123.262 166.113 122.871C171.966 122.675 177.635 122.382 183.118 121.992L196.076 121.537L198.684 125.449C200.067 127.708 201.693 130.77 203.565 134.701L203.592 134.757L203.62 134.813C205.561 138.695 207.714 142.341 210.184 144.459L210.482 144.714L210.809 144.932C212.416 146.003 214.284 146.947 216.362 147.362L216.993 147.488H218.516C221.676 147.488 224.604 146.322 227.133 144.804L227.315 144.695L227.489 144.575C230.983 142.156 234.068 138.566 236.856 134.277L236.895 134.217L236.933 134.156C239.744 129.615 242.007 124.761 243.725 119.606C245.352 114.724 246.864 109.377 248.265 103.575C249.669 97.9542 250.612 92.7989 251.047 88.1386L258.061 39.6232L259.247 30.435L259.253 30.378C259.418 28.8908 259.763 26.6956 260.318 23.7215C261.063 20.7323 261.649 18.1131 262.063 15.8874C262.515 14.2953 263.085 12.9166 263.748 11.7231L263.889 11.4704L264.006 11.2063C264.597 9.8763 265.225 8.76054 265.87 7.83057C266.72 6.79819 267.815 5.36002 268.45 3.77913C268.867 2.85288 269.149 1.87645 269.353 1.06086L269.547 0.284561V-0.515625C269.547 -2.37918 268.937 -3.99632 268.424 -5.09544C267.867 -6.28922 267.13 -7.48264 266.321 -8.63766L266.227 -8.77166L266.127 -8.90077C264.636 -10.8171 263.04 -12.6327 261.338 -14.346C259.374 -16.5333 256.396 -18.8162 252.883 -21.1583C249.288 -23.5548 246.094 -25.4303 243.488 -26.4726C241.017 -27.461 238.422 -28.1094 235.801 -28.1094ZM139.762 9.73828C139.762 8.63538 139.603 7.58131 139.32 6.58475L139.489 6.56718C141.243 6.53923 144.44 6.32448 148.946 5.9488L149.027 7.04898V14.3652C148.634 18.0303 148.348 22.6416 148.156 28.1505L146.72 48.8382C146.51 50.18 146.391 51.5078 146.391 52.8047C146.391 55.3932 146.777 57.9215 147.579 60.3553C148.687 63.9123 150.673 67.12 153.286 69.9932C156.077 73.2613 159.499 75.7727 163.469 77.5097L163.629 77.5796L163.792 77.6408C167.467 79.0189 171.931 80.0823 177.059 80.9027C182.232 81.7304 187.168 82.1562 191.855 82.1562C195.612 82.1562 199.368 81.9475 203.12 81.5306L203.327 81.5076L203.532 81.4714C206.913 80.8747 209.941 80.2707 212.605 79.657C214.213 79.3099 215.863 78.83 217.321 78.1009C217.954 77.7846 218.782 77.3065 219.592 76.6037C218.92 80.5443 218.123 84.2704 217.207 87.785L217.173 87.9144L217.144 88.045C216.257 92.1281 215.377 95.7632 214.507 98.9591C213.041 98.2976 211.536 97.6852 209.992 97.1212C207.716 96.218 205.44 95.5595 203.209 95.2807L202.807 95.2305H200.645C199.024 95.2305 197.407 95.3423 195.796 95.5646C193.448 95.7796 186.348 96.4607 174.53 97.6044L174.491 97.6083L158.457 99.3574C155.57 99.5668 148.895 100.157 138.522 101.118L138.511 101.118L117.214 103.161C111.129 103.555 104.202 104.141 96.4388 104.916C90.8868 105.209 85.0217 105.61 78.8447 106.118L71.1344 13.8515L105.261 10.6521L105.749 14.9169L105.823 15.2499C106.093 16.4661 106.254 17.9371 106.254 19.6992C106.254 22.2909 105.929 25.2537 105.221 28.6141L105.207 28.6845L105.193 28.7552C104.074 34.7232 102.585 40.491 100.728 46.0617C98.8629 51.6572 97.0182 55.677 95.285 58.3556C93.2896 61.4394 91.0098 64.639 88.4388 67.9547L82.8405 74.1129C81.5084 75.4726 79.5938 77.8976 79.5938 81.2227C79.5938 82.4047 79.8478 84.1961 81.0525 85.8386C81.5389 86.5741 82.2162 87.3286 83.1474 87.9493C84.4768 88.8356 85.9329 89.1875 87.2656 89.1875C88.7997 89.1875 90.1074 88.7273 90.8515 88.4296C91.6461 88.1118 92.4435 87.7084 93.2095 87.2785L100.969 83.5425L101.012 83.5208C105.193 81.4306 109.444 77.7186 113.745 73.0078L113.755 72.9974C117.971 68.3593 121.501 63.4566 124.307 58.2846C127.112 53.2715 129.177 48.8162 130.167 45.1045L130.18 45.0554L130.193 45.0062C130.992 41.8074 132.08 37.1594 133.45 31.0919C134.819 25.027 135.832 21.1181 136.498 19.118C137.123 17.2459 137.589 15.9116 137.911 15.0523C138.226 14.5516 138.527 14.036 138.783 13.5241L138.791 13.5071C139.022 13.0454 139.762 11.567 139.762 9.73828ZM182.535 3.58594C182.535 3.51337 182.534 3.44087 182.533 3.36847L221.102 1.2774L221.284 1.25712C222.869 1.08106 224.184 1.00391 225.254 1.00391C225.79 1.00391 226.199 1.02337 226.496 1.05046C226.76 1.07438 226.884 1.09958 226.901 1.10304C226.903 1.10353 226.902 1.10348 226.901 1.10304L226.983 1.12354L227.067 1.14209C227.15 1.16075 227.225 1.17922 227.291 1.19696C227.365 1.4689 227.451 1.83873 227.537 2.32352C227.503 3.94708 227.323 7.48345 226.97 13.1414L226.962 13.2628L226.672 24.8568C226.469 26.8443 225.997 30.9935 225.248 37.3632L222.053 62.3404C221.984 62.7083 221.914 63.0862 221.843 63.4742C221.082 62.1626 220.311 60.9189 219.529 59.746L219.172 59.2105L218.717 58.7554C217.268 57.3057 215.654 56.0301 213.855 55.0776C211.604 53.6794 209.05 53.0308 206.565 52.7823L206.242 52.75H205.918C204.485 52.75 201.933 53.0017 198.713 53.3805L198.527 53.4023L198.343 53.4348C195.384 53.957 192.004 54.3206 188.183 54.5078H181.012C179.345 54.3479 177.918 53.9986 176.691 53.5079L176.423 53.4003L176.145 53.3171C175.557 53.1407 175.452 52.9686 175.401 52.886L175.395 52.8753C175.134 52.4578 174.668 51.3651 174.336 49.1517C174.369 47.0979 174.629 43.5369 175.172 38.2838L176.345 28.3125L176.351 28.2561C176.727 24.4957 177.176 21.7204 177.654 19.8109L177.691 19.6608L177.721 19.5091C178.096 17.634 178.57 15.4524 179.146 12.9577C179.396 11.8763 179.641 11.0526 179.864 10.4473C179.974 10.1486 180.07 9.92619 180.147 9.76791C180.184 9.68993 180.215 9.6324 180.237 9.59277C180.26 9.55301 180.272 9.53506 180.272 9.53524C180.733 8.84285 181.19 8.10349 181.556 7.37173L181.564 7.35476C181.796 6.89295 182.535 5.41458 182.535 3.58594Z" fill="black"/>
</svg>
