<svg width="350" height="350" viewBox="0 0 350 350" fill="none" xmlns="http://www.w3.org/2000/svg">
<path fill-rule="evenodd" clip-rule="evenodd" d="M303.389 48.5C301.521 48.5 298.756 49.1196 295.613 49.9769L295.558 49.9918L295.504 50.0081C292.907 50.7873 289.37 51.4807 284.813 52.0504L284.574 52.0802L284.34 52.1352C279.61 53.2482 274.113 54.0992 267.825 54.6708L267.625 54.689L267.427 54.7249C261.135 55.8691 252.766 57.0262 242.285 58.1912L214.13 60.8308L214.061 60.8394C204.679 62.0122 198.32 62.7333 194.91 63.0175L194.896 63.0186L38.5793 76.9911L32.0491 74.5422L22.4814 73.1754C19.7413 72.5996 17.4977 72.1583 15.7686 71.8576C14.1412 71.5745 12.6282 71.3516 11.5918 71.3516H11.272L10.9554 71.3968C8.77218 71.7087 6.7862 72.1361 5.19642 72.7721C3.94383 73.2731 1.35551 74.5123 0.634359 77.3969L0.5 77.9343V78.9277C0.5 80.451 0.931526 81.9931 1.4457 83.3642C1.98468 84.8015 2.74825 86.3943 3.68619 88.1138L3.75882 88.247L9.95999 97.9917C11.5425 100.637 13.1829 104.036 14.8659 108.238C16.4664 112.521 17.8663 118.325 19.0094 125.755L19.0198 125.822L19.0323 125.89C20.4548 133.571 21.4626 142.459 22.0405 152.573L22.0441 152.635L29.9448 245.688C29.9752 247.912 30.4803 251.709 31.3191 256.744L31.3229 256.767L33.4925 270.654C34.1255 277.144 35.7253 282.689 38.7142 286.799L38.7896 286.903L38.8707 287.002C40.317 288.77 41.7979 290.292 43.3179 291.407C44.7911 292.487 46.7125 293.486 48.9453 293.486H49.7046L50.0212 293.441C54.018 292.87 56.7698 290.057 58.5919 286.777L58.6891 286.602L58.7704 286.419C59.9726 283.714 60.9145 281.372 61.564 279.423L61.5856 279.358L63.065 274.427L63.0846 274.431C65.2345 275.2 67.7836 275.469 70.4785 275.469C72.4559 275.469 74.6783 275.306 77.1226 275.003C83.3298 274.41 92.2777 273.383 103.941 271.925C115.62 270.757 124.947 269.883 131.931 269.301L131.936 269.301L163.961 266.669C178.546 265.793 190.091 265.063 198.589 264.477C207.374 264.183 215.873 263.744 224.087 263.158L246.545 262.37L252.138 270.759C254.356 274.372 256.901 279.173 259.775 285.208L259.794 285.247L259.813 285.286C262.734 291.128 265.566 295.703 268.38 298.116L268.586 298.293L268.812 298.443C270.872 299.816 273.033 300.864 275.26 301.309L275.697 301.396H277.461C280.911 301.396 284.358 300.116 287.686 298.118L287.812 298.043L287.933 297.96C292.403 294.865 296.589 290.093 300.57 283.968L300.597 283.926L300.623 283.884C304.62 277.428 307.843 270.518 310.294 263.163C312.683 255.997 314.913 248.115 316.987 239.523C319.063 231.216 320.426 223.703 321.043 217.004L331.578 144.137L333.345 130.441L333.349 130.401C333.621 127.954 334.175 124.463 335.033 119.878C336.18 115.285 337.06 111.338 337.663 108.056C338.45 105.219 339.476 102.69 340.721 100.449L340.818 100.274L340.899 100.091C341.94 97.7506 343.082 95.7198 344.312 93.9768C345.632 92.3832 346.904 90.6578 347.532 89.0233C347.984 88.0473 348.333 86.8957 348.623 85.732L348.758 85.1946V84.6406C348.758 82.9561 348.198 81.3436 347.567 79.9911C346.905 78.573 345.98 77.0566 344.868 75.4682L344.803 75.3755L344.734 75.2861C342.599 72.5412 340.312 69.9447 337.873 67.4976C335.402 64.713 331.362 61.5534 326.1 58.0448C320.771 54.4927 316.352 51.9323 312.97 50.5797C309.682 49.2644 306.466 48.5 303.389 48.5ZM281.034 82.0819C283.551 81.8022 285.723 81.6699 287.568 81.6699C289.468 81.6699 290.659 81.8119 291.311 81.975L291.368 81.9894L291.426 82.0022C293.49 82.4609 294.299 83.1194 294.601 83.4967L294.757 83.6913L294.914 83.8487C294.914 83.8487 294.916 83.8525 294.921 83.8598C294.96 83.9173 295.155 84.2076 295.41 84.9298C295.703 85.7611 295.995 86.93 296.25 88.4973C296.224 90.8895 295.942 96.4836 295.382 105.454L295.377 105.538L294.939 123.031C294.64 125.987 293.919 132.33 292.77 142.101L292.767 142.123L287.955 179.741C287.074 184.447 286.051 190.296 284.887 197.28L284.883 197.307L284.879 197.335C283.728 204.816 282.293 211.842 280.577 218.417L280.554 218.506L280.534 218.597C279.094 225.224 277.659 231.108 276.232 236.255C275.498 238.448 274.865 240.036 274.345 241.106C273.899 240.918 273.341 240.643 272.662 240.255L272.554 240.193L272.442 240.137C269.372 238.602 266.159 237.224 262.806 236.002C259.655 234.747 256.658 233.896 253.849 233.545L253.571 233.51H250.654C248.427 233.51 246.203 233.666 243.982 233.978C240.613 234.285 229.94 235.309 211.988 237.046L211.961 237.049L187.847 239.68C183.638 239.982 173.652 240.864 157.954 242.318L157.947 242.319L125.929 245.389C116.826 245.977 106.43 246.856 94.7455 248.024C84.8908 248.544 74.362 249.291 63.1604 250.265L50.7245 101.449L112.211 95.6849L113.495 106.919L113.547 107.15C114.049 109.412 114.318 112.008 114.318 114.963C114.318 119.281 113.778 124.093 112.657 129.417L112.647 129.465L112.638 129.514C110.916 138.694 108.623 147.578 105.76 156.167C102.891 164.773 99.9579 171.263 97.0227 175.8C93.9064 180.616 90.3564 185.591 86.368 190.726L77.7632 200.192C76.0755 201.899 74.3281 204.291 74.3281 207.248C74.3281 208.356 74.5701 209.843 75.566 211.154C75.9744 211.802 76.5417 212.45 77.3207 212.97C78.3595 213.662 79.5055 213.945 80.5859 213.945C81.8846 213.945 83.1055 213.548 84.015 213.184C84.9683 212.803 85.9962 212.284 87.0715 211.675L98.8281 206.015L98.8582 206C104.276 203.29 110.138 198.275 116.429 191.386L116.435 191.379C122.509 184.697 127.556 177.675 131.549 170.308C135.699 162.894 138.549 156.655 139.866 151.718L139.875 151.684L139.883 151.65C141.068 146.911 142.688 139.986 144.741 130.895C146.793 121.806 148.362 115.709 149.455 112.431C150.513 109.254 151.304 107.005 151.839 105.619C152.36 104.818 152.814 104.054 153.166 103.352C153.476 102.731 154.08 101.461 154.08 100.021C154.08 97.6138 153.348 95.3582 152.12 93.3117L151.965 93.0522L151.776 92.8158C151.234 92.1391 150.66 91.5028 150.053 90.9101L158.614 90.0184C161.531 89.9927 168.043 89.5245 177.949 88.6515L178.479 95.7933V107.245C177.891 112.626 177.456 119.528 177.166 127.913L174.988 159.266C174.686 161.138 174.523 162.928 174.523 164.621C174.523 167.99 175.027 171.239 176.056 174.344C177.455 178.86 180.014 183.053 183.556 186.932C187.224 191.246 191.723 194.562 196.995 196.869L197.106 196.917L197.219 196.96C202.287 198.86 208.612 200.385 216.105 201.584C223.63 202.788 230.755 203.398 237.471 203.398C242.911 203.398 248.351 203.096 253.788 202.492L253.931 202.476L254.073 202.451C259.095 201.565 263.558 200.673 267.453 199.775C269.667 199.299 271.678 198.691 273.321 197.87C274.722 197.169 276.417 196.034 277.395 194.166C278.551 192.498 279.324 190.54 279.324 188.352C279.324 187.085 279.022 185.835 278.654 184.731L278.513 184.309L278.292 183.922C277.075 181.791 275.849 179.798 274.613 177.945L274.366 177.574L274.051 177.259C272.109 175.317 270.047 173.722 267.851 172.585C265.333 170.979 262.296 170.14 259.012 169.811L258.789 169.789H258.564C256.784 169.789 253.282 170.121 248.371 170.699L248.242 170.714L248.114 170.736C243.385 171.571 238.048 172.138 232.09 172.426H220.964C217.916 172.156 215.196 171.519 212.775 170.55L212.589 170.476L212.397 170.418C210.394 169.817 209.15 168.825 208.328 167.51C207.371 165.979 206.487 163.42 205.937 159.489C205.961 156.185 206.376 150.491 207.227 142.263L208.985 127.315L208.989 127.276C209.565 121.517 210.271 117.072 211.075 113.857L211.101 113.753L211.122 113.648C211.697 110.772 212.419 107.448 213.291 103.67C214.133 100.019 215.013 97.8757 215.727 96.8047C216.362 95.8521 216.915 94.9459 217.326 94.1238C217.636 93.5026 218.24 92.2327 218.24 90.793C218.24 88.919 217.812 87.1457 216.939 85.5641L280.908 82.0959L281.034 82.0819Z" fill="black"/>
</svg>
