<svg width="350" height="350" viewBox="0 0 350 350" fill="none" xmlns="http://www.w3.org/2000/svg">
<path d="M133.297 177.039C132.184 177.039 130.381 177.144 128.632 178.018L127.689 178.49L126.943 179.236C124.667 181.512 123.867 184.397 123.867 187.055C123.867 189.462 124.617 191.937 125.498 194.142L125.504 194.156L129.867 205.21C131.721 210.147 134.347 216.09 137.704 223L137.72 223.034L137.737 223.067C140.287 228.166 142.545 232.343 144.47 235.31L102.557 240.377L66.369 245.63L58.9881 246.197L41.589 247.44L40.6485 247.816C39.4373 248.301 38.2081 248.885 37.1132 249.615C36.104 250.288 34.6543 251.446 33.7331 253.288L33.0469 254.661V256.781C33.0469 259.358 34.1956 261.69 35.0752 263.229L35.1862 263.423L35.3104 263.609C36.5504 265.469 38.384 267.017 40.1478 268.285C42.016 269.628 44.3257 271.018 46.9961 272.457L47.0121 272.465L53.5284 276.02L53.6322 276.072C57.4874 277.999 61.5058 279.102 65.6211 279.102H66.083L66.5403 279.036C68.5672 278.747 71.5328 277.873 75.0008 276.717L75.1523 276.667L75.3012 276.609C78.3275 275.432 83.9671 273.859 92.5499 271.909L92.6181 271.893L92.6859 271.876C101.147 269.761 106.656 268.431 109.32 267.855L126.696 264.959C134.423 263.801 141.04 262.939 146.563 262.368L146.575 262.367L146.587 262.365C151.847 261.802 168.227 260.738 196.019 259.172C223.601 258.007 242.054 257.428 251.506 257.422L264.103 258.008H276.377L276.779 257.958C279.199 257.655 281.658 256.84 283.77 255.176C286.704 252.921 287.453 249.63 287.453 247.113V245.434L287.259 244.658C286.436 241.366 284.357 238.74 282.049 236.689C279.772 234.665 276.66 232.638 272.977 230.591C269.22 228.504 265.438 226.716 261.629 225.235L261.575 225.214L261.521 225.194C257.446 223.693 253.509 222.742 249.898 222.742C248.664 222.742 247.199 222.969 245.858 223.217C244.389 223.489 242.587 223.883 240.483 224.384C236.855 225.247 230.891 226.095 222.357 226.87L222.311 226.875L177.7 231.571C178.235 228.987 178.469 226.237 178.469 223.383V223.235L178.462 223.088C178.228 217.945 176.957 212.742 174.791 207.513C172.731 202.067 169.706 197.356 165.657 193.523C162.112 189.991 158.053 186.935 153.514 184.341L153.411 184.282L153.305 184.226C148.985 181.963 144.471 179.913 139.767 178.072L139.299 177.889L138.808 177.78C136.906 177.357 134.989 177.039 133.297 177.039Z" fill="black"/>
<path d="M109.859 277.488C108.605 277.488 107.442 277.754 106.405 278.182C104.387 278.836 101.708 280.19 100.237 283.132C99.2682 285.07 98.9044 287.491 98.7041 289.494L98.6719 289.816V290.141C98.6719 291.039 98.4542 292.629 97.7501 295.093L97.7343 295.149L97.7195 295.204C97.0078 297.873 96.1145 300.556 95.0352 303.254L95.009 303.32L94.9842 303.386C94.053 305.869 92.2007 309.403 89.199 314.1C85.9831 318.823 81.2049 325.325 74.8201 333.644L74.8131 333.653L74.8063 333.662C68.5763 341.839 63.965 347.467 60.8955 350.717L60.8354 350.78L60.777 350.846C57.5487 354.454 53.9221 358.272 49.8921 362.302L44.6186 367.576C43.1289 369.065 41.543 371.402 41.543 374.516C41.543 376.029 41.9294 377.409 42.5222 378.594L42.9939 379.538L43.7397 380.284C45.0342 381.578 47.1759 383.066 50.0938 383.066C51.4675 383.066 52.7037 382.743 53.6141 382.44L54.1977 382.245L61.9406 377.909C64.4463 376.628 68.798 373.719 74.5988 369.603C80.6328 365.514 85.5441 361.918 89.2632 358.831C93.2998 355.838 97.9843 351.635 103.279 346.343C108.615 341.203 112.889 336.736 116.025 332.974L124.625 322.653L131.448 315.831C133.185 314.093 134.711 312.83 136.024 311.955C137.063 311.262 138.056 310.526 138.914 309.745C139.57 309.149 140.393 308.31 141.063 307.226C142.338 305.488 143.312 303.281 143.312 300.688C143.312 298.842 142.851 296.949 141.766 295.233C140.231 292.647 137.739 290.568 135.194 288.867L126.858 283.096L125.977 282.802C125.083 282.504 122.406 281.442 117.633 279.453C115.207 278.442 112.419 277.488 109.859 277.488Z" fill="black"/>
<path d="M180.758 283.055C179.407 283.055 177.822 283.328 176.288 284.204C174.712 285.105 173.597 286.412 172.893 287.82L172.885 287.837C172.654 288.298 171.914 289.777 171.914 291.605C171.914 294.519 173.324 296.82 174.51 298.303L176.914 301.308L182.036 307.334L182.119 307.423C183.801 309.258 186.163 312.598 189.228 317.771L189.265 317.833L200.476 335.829L212.281 353.832L212.328 353.899C217.615 361.536 221.748 367.194 224.666 370.738C227.444 374.11 230.057 376.893 232.472 378.858C235.193 381.339 238.872 383.945 243.16 383.945H244.683L245.314 383.819C250.479 382.786 253.357 378.474 254.975 374.777L255.065 374.571L255.141 374.358C256.448 370.698 256.984 366.482 256.984 361.918V359.618L256.965 359.369C256.515 353.513 254.958 347.499 252.426 341.358C250.016 335.036 246.543 329.102 242.064 323.556L241.978 323.45L241.887 323.347C237.343 318.183 232.297 313.345 226.758 308.832L226.701 308.786L226.643 308.74C221.307 304.59 216.774 301.261 213.074 298.795L213.037 298.77L213 298.746C209.488 296.474 205.243 294.051 200.303 291.478C195.643 288.763 191.86 286.748 189.117 285.605L185.559 284.123L185.516 284.106C184.283 283.613 182.585 283.055 180.758 283.055Z" fill="black"/>
<path fill-rule="evenodd" clip-rule="evenodd" d="M235.801 -28.1094C234.015 -28.1094 231.73 -27.5561 229.696 -27.0014L229.617 -26.9799L229.538 -26.9563C228.066 -26.5145 225.92 -26.0825 222.983 -25.7154L222.638 -25.6724L222.3 -25.5928C219.342 -24.8967 215.844 -24.351 211.775 -23.9811L211.486 -23.9549L211.201 -23.903C207.124 -23.1617 201.644 -22.4018 194.709 -21.6305L175.914 -19.8685L175.815 -19.8561C169.554 -19.0735 165.383 -18.6016 163.191 -18.419L163.171 -18.4173L59.7437 -9.17241L55.7799 -10.6588L49.1369 -11.6078C47.3416 -11.9843 45.8391 -12.2798 44.6538 -12.4859C43.6132 -12.6669 42.3108 -12.875 41.2695 -12.875H40.8076L40.3503 -12.8097C38.7918 -12.587 37.1479 -12.2544 35.7061 -11.6777C34.7513 -11.2958 31.4968 -9.9046 30.5691 -6.19367L30.375 -5.41737V-4.32422C30.375 -2.69363 30.8274 -1.20668 31.2283 -0.137619C31.6651 1.02701 32.2553 2.24526 32.9265 3.47582L33.0314 3.66815L37.202 10.2219C38.1231 11.7685 39.1254 13.8307 40.1877 16.4789C41.1335 19.0217 42.016 22.6206 42.7553 27.4259L42.7703 27.5237L42.7884 27.6211C43.7038 32.5644 44.362 38.3386 44.7411 44.9724L44.7462 45.062L50.0078 107.032C50.05 108.839 50.4314 111.569 50.9658 114.778L52.3966 123.935C52.8564 128.537 54.0321 132.894 56.5206 136.315L56.6294 136.465L56.7466 136.608C57.8103 137.908 59.0095 139.167 60.3505 140.151C61.6239 141.085 63.6302 142.215 66.1719 142.215H66.9268L67.3841 142.15C71.5622 141.553 74.1699 138.629 75.6625 135.942L75.8029 135.689L75.9202 135.425C76.7453 133.569 77.4223 131.893 77.9047 130.446L77.9359 130.353L78.0166 130.084C78.8686 130.171 79.7141 130.203 80.5273 130.203C82.0141 130.203 83.6284 130.083 85.3379 129.872C89.5179 129.472 95.4925 128.785 103.226 127.819C110.986 127.043 117.169 126.464 121.79 126.079L143.098 124.328C152.772 123.747 160.446 123.262 166.113 122.871C171.966 122.675 177.635 122.382 183.118 121.992L196.076 121.537L198.684 125.449C200.067 127.708 201.693 130.77 203.565 134.701L203.592 134.757L203.62 134.813C205.561 138.695 207.714 142.341 210.184 144.459L210.482 144.714L210.809 144.932C212.416 146.003 214.284 146.947 216.362 147.362L216.993 147.488H218.516C221.676 147.488 224.604 146.322 227.133 144.804L227.315 144.695L227.489 144.575C230.983 142.156 234.068 138.566 236.856 134.277L236.895 134.217L236.933 134.156C239.744 129.615 242.007 124.761 243.725 119.606C245.352 114.724 246.864 109.377 248.265 103.575C249.669 97.9542 250.612 92.7989 251.047 88.1386L258.061 39.6232L259.247 30.435L259.253 30.378C259.418 28.8908 259.763 26.6956 260.318 23.7215C261.063 20.7323 261.649 18.1131 262.063 15.8874C262.515 14.2953 263.085 12.9166 263.748 11.7231L263.889 11.4704L264.006 11.2063C264.597 9.8763 265.225 8.76054 265.87 7.83057C266.72 6.79819 267.815 5.36002 268.45 3.77913C268.867 2.85288 269.149 1.87645 269.353 1.06086L269.547 0.284561V-0.515625C269.547 -2.37918 268.937 -3.99632 268.424 -5.09544C267.867 -6.28922 267.13 -7.48264 266.321 -8.63766L266.227 -8.77166L266.127 -8.90077C264.636 -10.8171 263.04 -12.6327 261.338 -14.346C259.374 -16.5333 256.396 -18.8162 252.883 -21.1583C249.288 -23.5548 246.094 -25.4303 243.488 -26.4726C241.017 -27.461 238.422 -28.1094 235.801 -28.1094ZM139.762 9.73828C139.762 8.63538 139.603 7.58131 139.32 6.58475L139.489 6.56718C141.243 6.53923 144.44 6.32448 148.946 5.9488L149.027 7.04898V14.3652C148.634 18.0303 148.348 22.6416 148.156 28.1505L146.72 48.8382C146.51 50.18 146.391 51.5078 146.391 52.8047C146.391 55.3932 146.777 57.9215 147.579 60.3553C148.687 63.9123 150.673 67.12 153.286 69.9932C156.077 73.2613 159.499 75.7727 163.469 77.5097L163.629 77.5796L163.792 77.6408C167.467 79.0189 171.931 80.0823 177.059 80.9027C182.232 81.7304 187.168 82.1562 191.855 82.1562C195.612 82.1562 199.368 81.9475 203.12 81.5306L203.327 81.5076L203.532 81.4714C206.913 80.8747 209.941 80.2707 212.605 79.657C214.213 79.3099 215.863 78.83 217.321 78.1009C217.954 77.7846 218.782 77.3065 219.592 76.6037C218.92 80.5443 218.123 84.2704 217.207 87.785L217.173 87.9144L217.144 88.045C216.257 92.1281 215.377 95.7632 214.507 98.9591C213.041 98.2976 211.536 97.6852 209.992 97.1212C207.716 96.218 205.44 95.5595 203.209 95.2807L202.807 95.2305H200.645C199.024 95.2305 197.407 95.3423 195.796 95.5646C193.448 95.7796 186.348 96.4607 174.53 97.6044L174.491 97.6083L158.457 99.3574C155.57 99.5668 148.895 100.157 138.522 101.118L138.511 101.118L117.214 103.161C111.129 103.555 104.202 104.141 96.4388 104.916C90.8868 105.209 85.0217 105.61 78.8447 106.118L71.1344 13.8515L105.261 10.6521L105.749 14.9169L105.823 15.2499C106.093 16.4661 106.254 17.9371 106.254 19.6992C106.254 22.2909 105.929 25.2537 105.221 28.6141L105.207 28.6845L105.193 28.7552C104.074 34.7232 102.585 40.491 100.728 46.0617C98.8629 51.6572 97.0182 55.677 95.285 58.3556C93.2896 61.4394 91.0098 64.639 88.4388 67.9547L82.8405 74.1129C81.5084 75.4726 79.5938 77.8976 79.5938 81.2227C79.5938 82.4047 79.8478 84.1961 81.0525 85.8386C81.5389 86.5741 82.2162 87.3286 83.1474 87.9493C84.4768 88.8356 85.9329 89.1875 87.2656 89.1875C88.7997 89.1875 90.1074 88.7273 90.8515 88.4296C91.6461 88.1118 92.4435 87.7084 93.2095 87.2785L100.969 83.5425L101.012 83.5208C105.193 81.4306 109.444 77.7186 113.745 73.0078L113.755 72.9974C117.971 68.3593 121.501 63.4566 124.307 58.2846C127.112 53.2715 129.177 48.8162 130.167 45.1045L130.18 45.0554L130.193 45.0062C130.992 41.8074 132.08 37.1594 133.45 31.0919C134.819 25.027 135.832 21.1181 136.498 19.118C137.123 17.2459 137.589 15.9116 137.911 15.0523C138.226 14.5516 138.527 14.036 138.783 13.5241L138.791 13.5071C139.022 13.0454 139.762 11.567 139.762 9.73828ZM182.535 3.58594C182.535 3.51337 182.534 3.44087 182.533 3.36847L221.102 1.2774L221.284 1.25712C222.869 1.08106 224.184 1.00391 225.254 1.00391C225.79 1.00391 226.199 1.02337 226.496 1.05046C226.76 1.07438 226.884 1.09958 226.901 1.10304C226.903 1.10353 226.902 1.10348 226.901 1.10304L226.983 1.12354L227.067 1.14209C227.15 1.16075 227.225 1.17922 227.291 1.19696C227.365 1.4689 227.451 1.83873 227.537 2.32352C227.503 3.94708 227.323 7.48345 226.97 13.1414L226.962 13.2628L226.672 24.8568C226.469 26.8443 225.997 30.9935 225.248 37.3632L222.053 62.3404C221.984 62.7083 221.914 63.0862 221.843 63.4742C221.082 62.1626 220.311 60.9189 219.529 59.746L219.172 59.2105L218.717 58.7554C217.268 57.3057 215.654 56.0301 213.855 55.0776C211.604 53.6794 209.05 53.0308 206.565 52.7823L206.242 52.75H205.918C204.485 52.75 201.933 53.0017 198.713 53.3805L198.527 53.4023L198.343 53.4348C195.384 53.957 192.004 54.3206 188.183 54.5078H181.012C179.345 54.3479 177.918 53.9986 176.691 53.5079L176.423 53.4003L176.145 53.3171C175.557 53.1407 175.452 52.9686 175.401 52.886L175.395 52.8753C175.134 52.4578 174.668 51.3651 174.336 49.1517C174.369 47.0979 174.629 43.5369 175.172 38.2838L176.345 28.3125L176.351 28.2561C176.727 24.4957 177.176 21.7204 177.654 19.8109L177.691 19.6608L177.721 19.5091C178.096 17.634 178.57 15.4524 179.146 12.9577C179.396 11.8763 179.641 11.0526 179.864 10.4473C179.974 10.1486 180.07 9.92619 180.147 9.76791C180.184 9.68993 180.215 9.6324 180.237 9.59277C180.26 9.55301 180.272 9.53506 180.272 9.53524C180.733 8.84285 181.19 8.10349 181.556 7.37173L181.564 7.35476C181.796 6.89295 182.535 5.41458 182.535 3.58594Z" fill="black"/>
</svg>
