<svg width="350" height="350" viewBox="0 0 350 350" fill="none" xmlns="http://www.w3.org/2000/svg">
<path d="M199.176 199.727C195.675 199.727 190.921 201.002 185.756 202.72C181.022 204.173 175.381 205.565 168.802 206.883C162.019 208.046 157.361 208.805 154.756 209.177L154.632 209.195L126.429 214.189C125.518 214.335 121.288 214.793 113.194 215.582L113.036 215.598L96.3614 217.938L83.984 219.063C79.9283 219.08 76.2383 219.39 73.138 220.165C71.6225 220.544 69.8833 221.115 68.3163 222.079C66.7889 223.019 64.4668 224.951 63.7941 228.314L63.6484 229.043V230.078C63.6484 233.5 65.2745 236.142 66.9496 237.938C69.5134 241.087 73.2711 242.865 76.8215 243.975C80.9082 245.252 86.1934 245.867 92.2853 246.07L92.4102 246.074H95.1719C97.3325 246.074 99.9267 245.968 102.915 245.77C107.263 245.572 112.37 245.276 118.229 244.886L118.353 244.877L118.477 244.865C124.45 244.268 131.763 243.378 140.396 242.201L140.424 242.197L176.561 237.534C181.139 237.111 186.405 236.293 192.324 235.113C198.141 234.143 202.653 233.358 205.831 232.762L206.051 232.721L215.253 230.42C216.796 230.198 218.36 229.882 219.763 229.387C220.731 229.045 223.377 228.054 225.054 225.449C225.431 224.922 225.829 224.304 226.172 223.618C226.394 223.175 226.727 222.443 226.95 221.502C227.415 220.032 227.477 218.662 227.477 217.773V216.85L227.253 215.954C226.693 213.718 225.381 211.675 224.322 210.191L224.129 209.922L223.913 209.67C221.399 206.736 217.56 204.934 213.977 203.67L213.955 203.662L206.004 200.91L205.682 200.829C203.834 200.367 201.975 200.018 200.106 199.784L199.643 199.727H199.176Z" fill="black"/>
<path fill-rule="evenodd" clip-rule="evenodd" d="M190.973 258.828C188.129 258.828 185.008 259.379 181.775 260.238L174.85 261.969C171.829 262.677 167.201 263.516 160.845 264.479L160.833 264.481L140.105 267.692C132.768 268.657 125.044 269.623 116.931 270.589C108.843 271.36 103.132 271.949 99.8816 272.353L88.475 273.554L88.1346 273.622C87.0133 273.846 85.8934 274.113 84.89 274.447L84.8877 274.448C84.3235 274.636 82.8153 275.139 81.4171 276.277C79.5052 277.76 78.6422 279.701 78.247 281.019C77.8106 282.473 77.7109 283.911 77.7109 285.078V285.611L77.7863 286.139C78.3932 290.387 81.6904 292.652 83.1424 293.535C85.0117 294.673 87.3002 295.571 89.6752 296.327L89.8246 296.374L89.9758 296.415C94.4198 297.627 98.6897 298.645 102.783 299.464L103.247 299.557L103.72 299.59C106.643 299.799 109.654 299.902 112.75 299.902H117.485L117.824 299.872C120.109 299.664 125.307 299.062 133.265 298.092L133.287 298.089L153.491 295.747L188.907 291.32L198.095 289.597C200.858 289.387 203.36 289.068 205.522 288.6C207.512 288.17 209.744 287.507 211.687 286.324C212.743 285.769 213.959 285.003 215.026 283.936C216.234 282.728 217.809 280.542 217.809 277.461C217.809 275.038 216.745 273.171 216.3 272.43C215.74 271.497 215.057 270.608 214.378 269.806C213.038 268.101 211.293 266.771 209.677 265.732C207.903 264.592 205.796 263.496 203.451 262.43C199.185 260.491 194.722 258.828 190.973 258.828ZM90.8783 280.681C90.8783 280.681 90.8852 280.686 90.8975 280.695C90.8842 280.686 90.8783 280.681 90.8783 280.681Z" fill="black"/>
<path d="M249.273 307.09C247.176 307.09 244.246 307.499 240.939 308.083L240.899 308.09L240.86 308.097C237.913 308.65 233.086 309.409 226.29 310.381L208.167 312.719C203.844 313.283 197.352 313.954 188.627 314.73C179.962 315.322 169.668 316.205 157.757 317.376L111.169 321.478L84.7073 324.124L84.6571 324.13C76.283 325.082 67.0017 325.753 56.8031 326.138L56.7326 326.141L56.6621 326.145C51.4766 326.438 47.4159 326.684 44.4937 326.882C42.1324 327.042 40.1607 327.191 39.0089 327.342L26.9972 328.2L26.979 328.201C25.3456 328.311 23.7559 328.49 22.3535 328.802C21.371 329.02 18.8639 329.608 16.9194 331.552C15.5177 332.954 14.9637 334.529 14.7269 335.476C14.4787 336.468 14.4297 337.372 14.4297 338.027C14.4297 339.407 14.6537 340.726 14.9466 341.897L14.9769 342.018L15.0112 342.139C15.8009 344.903 17.6972 346.857 18.9632 347.997C20.4181 349.306 22.2144 350.555 24.1712 351.751L24.225 351.784L24.2794 351.816C27.9119 353.953 31.9118 355.948 36.2604 357.812L36.4394 357.888L36.6221 357.956C40.7525 359.477 44.8144 360.469 48.5898 360.469H49.4688C51.1944 360.469 52.916 360.345 54.631 360.1C56.3521 359.855 60.8822 358.896 67.7164 357.378C74.4229 356.038 81.7148 354.694 89.5948 353.348C97.6235 352.203 106.838 351.147 117.25 350.183C127.726 349.213 138.795 348.339 150.456 347.562L150.508 347.558L150.56 347.554C162.598 346.583 172.455 345.907 180.153 345.521L223.91 344.062H238.125C242.913 344.454 248.513 344.744 254.906 344.938C261.371 345.134 265.576 345.325 267.694 345.501L268.004 345.527H270.953C272.849 345.527 274.776 345.385 276.572 344.957C278.29 344.548 280.551 343.723 282.409 341.866C284.522 339.753 286.07 336.853 286.07 333.34V332.221L285.995 331.693C285.632 329.156 284.363 327.148 283.319 325.806C282.202 324.37 280.805 323.018 279.313 321.755C276.577 319.44 273.728 317.324 270.767 315.411C267.646 313.197 264.313 311.317 260.776 309.769L260.591 309.689L260.403 309.618C256.809 308.271 253.271 307.375 249.849 307.112L249.561 307.09H249.273Z" fill="black"/>
<path fill-rule="evenodd" clip-rule="evenodd" d="M235.801 -28.1094C234.015 -28.1094 231.73 -27.5561 229.696 -27.0014L229.617 -26.9799L229.538 -26.9563C228.066 -26.5145 225.92 -26.0825 222.983 -25.7154L222.638 -25.6724L222.3 -25.5928C219.342 -24.8967 215.844 -24.351 211.775 -23.9811L211.486 -23.9549L211.201 -23.903C207.124 -23.1617 201.644 -22.4018 194.709 -21.6305L175.914 -19.8685L175.815 -19.8561C169.554 -19.0735 165.383 -18.6016 163.191 -18.419L163.171 -18.4173L59.7437 -9.17241L55.7799 -10.6588L49.1369 -11.6078C47.3416 -11.9843 45.8391 -12.2798 44.6538 -12.4859C43.6132 -12.6669 42.3108 -12.875 41.2695 -12.875H40.8076L40.3503 -12.8097C38.7918 -12.587 37.1479 -12.2544 35.7061 -11.6777C34.7513 -11.2958 31.4968 -9.9046 30.5691 -6.19367L30.375 -5.41737V-4.32422C30.375 -2.69363 30.8274 -1.20668 31.2283 -0.137619C31.6651 1.02701 32.2553 2.24526 32.9265 3.47582L33.0314 3.66815L37.202 10.2219C38.1231 11.7685 39.1254 13.8307 40.1877 16.4789C41.1335 19.0217 42.016 22.6206 42.7553 27.4259L42.7703 27.5237L42.7884 27.6211C43.7038 32.5644 44.362 38.3386 44.7411 44.9724L44.7462 45.062L50.0078 107.032C50.05 108.839 50.4314 111.569 50.9658 114.778L52.3966 123.935C52.8564 128.537 54.0321 132.894 56.5206 136.315L56.6294 136.465L56.7466 136.608C57.8103 137.908 59.0095 139.167 60.3505 140.151C61.6239 141.085 63.6302 142.215 66.1719 142.215H66.9268L67.3841 142.15C71.5622 141.553 74.1699 138.629 75.6625 135.942L75.8029 135.689L75.9202 135.425C76.7453 133.569 77.4223 131.893 77.9047 130.446L77.9359 130.353L78.0166 130.084C78.8686 130.171 79.7141 130.203 80.5273 130.203C82.0141 130.203 83.6284 130.083 85.3379 129.872C89.5179 129.472 95.4925 128.785 103.226 127.819C110.986 127.043 117.169 126.464 121.79 126.079L143.098 124.328C152.772 123.747 160.446 123.262 166.113 122.871C171.966 122.675 177.635 122.382 183.118 121.992L196.076 121.537L198.684 125.449C200.067 127.708 201.693 130.77 203.565 134.701L203.592 134.757L203.62 134.813C205.561 138.695 207.714 142.341 210.184 144.459L210.482 144.714L210.809 144.932C212.416 146.003 214.284 146.947 216.362 147.362L216.993 147.488H218.516C221.676 147.488 224.604 146.322 227.133 144.804L227.315 144.695L227.489 144.575C230.983 142.156 234.068 138.566 236.856 134.277L236.895 134.217L236.933 134.156C239.744 129.615 242.007 124.761 243.725 119.606C245.352 114.724 246.864 109.377 248.265 103.575C249.669 97.9542 250.612 92.7989 251.047 88.1386L258.061 39.6232L259.247 30.435L259.253 30.378C259.418 28.8908 259.763 26.6956 260.318 23.7215C261.063 20.7323 261.649 18.1131 262.063 15.8874C262.515 14.2953 263.085 12.9166 263.748 11.7231L263.889 11.4704L264.006 11.2063C264.597 9.8763 265.225 8.76054 265.87 7.83057C266.72 6.79819 267.815 5.36002 268.45 3.77913C268.867 2.85288 269.149 1.87645 269.353 1.06086L269.547 0.284561V-0.515625C269.547 -2.37918 268.937 -3.99632 268.424 -5.09544C267.867 -6.28922 267.13 -7.48264 266.321 -8.63766L266.227 -8.77166L266.127 -8.90077C264.636 -10.8171 263.04 -12.6327 261.338 -14.346C259.374 -16.5333 256.396 -18.8162 252.883 -21.1583C249.288 -23.5548 246.094 -25.4303 243.488 -26.4726C241.017 -27.461 238.422 -28.1094 235.801 -28.1094ZM139.762 9.73828C139.762 8.63538 139.603 7.58131 139.32 6.58475L139.489 6.56718C141.243 6.53923 144.44 6.32448 148.946 5.9488L149.027 7.04898V14.3652C148.634 18.0303 148.348 22.6416 148.156 28.1505L146.72 48.8382C146.51 50.18 146.391 51.5078 146.391 52.8047C146.391 55.3932 146.777 57.9215 147.579 60.3553C148.687 63.9123 150.673 67.12 153.286 69.9932C156.077 73.2613 159.499 75.7727 163.469 77.5097L163.629 77.5796L163.792 77.6408C167.467 79.0189 171.931 80.0823 177.059 80.9027C182.232 81.7304 187.168 82.1562 191.855 82.1562C195.612 82.1562 199.368 81.9475 203.12 81.5306L203.327 81.5076L203.532 81.4714C206.913 80.8747 209.941 80.2707 212.605 79.657C214.213 79.3099 215.863 78.83 217.321 78.1009C217.954 77.7846 218.782 77.3065 219.592 76.6037C218.92 80.5443 218.123 84.2704 217.207 87.785L217.173 87.9144L217.144 88.045C216.257 92.1281 215.377 95.7632 214.507 98.9591C213.041 98.2976 211.536 97.6852 209.992 97.1212C207.716 96.218 205.44 95.5595 203.209 95.2807L202.807 95.2305H200.645C199.024 95.2305 197.407 95.3423 195.796 95.5646C193.448 95.7796 186.348 96.4607 174.53 97.6044L174.491 97.6083L158.457 99.3574C155.57 99.5668 148.895 100.157 138.522 101.118L138.511 101.118L117.214 103.161C111.129 103.555 104.202 104.141 96.4388 104.916C90.8868 105.209 85.0217 105.61 78.8447 106.118L71.1344 13.8515L105.261 10.6521L105.749 14.9169L105.823 15.2499C106.093 16.4661 106.254 17.9371 106.254 19.6992C106.254 22.2909 105.929 25.2537 105.221 28.6141L105.207 28.6845L105.193 28.7552C104.074 34.7232 102.585 40.491 100.728 46.0617C98.8629 51.6572 97.0182 55.677 95.285 58.3556C93.2896 61.4394 91.0098 64.639 88.4388 67.9547L82.8405 74.1129C81.5084 75.4726 79.5938 77.8976 79.5938 81.2227C79.5938 82.4047 79.8478 84.1961 81.0525 85.8386C81.5389 86.5741 82.2162 87.3286 83.1474 87.9493C84.4768 88.8356 85.9329 89.1875 87.2656 89.1875C88.7997 89.1875 90.1074 88.7273 90.8515 88.4296C91.6461 88.1118 92.4435 87.7084 93.2095 87.2785L100.969 83.5425L101.012 83.5208C105.193 81.4306 109.444 77.7186 113.745 73.0078L113.755 72.9974C117.971 68.3593 121.501 63.4566 124.307 58.2846C127.112 53.2715 129.177 48.8162 130.167 45.1045L130.18 45.0554L130.193 45.0062C130.992 41.8074 132.08 37.1594 133.45 31.0919C134.819 25.027 135.832 21.1181 136.498 19.118C137.123 17.2459 137.589 15.9116 137.911 15.0523C138.226 14.5516 138.527 14.036 138.783 13.5241L138.791 13.5071C139.022 13.0454 139.762 11.567 139.762 9.73828ZM182.535 3.58594C182.535 3.51337 182.534 3.44087 182.533 3.36847L221.102 1.2774L221.284 1.25712C222.869 1.08106 224.184 1.00391 225.254 1.00391C225.79 1.00391 226.199 1.02337 226.496 1.05046C226.76 1.07438 226.884 1.09958 226.901 1.10304C226.903 1.10353 226.902 1.10348 226.901 1.10304L226.983 1.12354L227.067 1.14209C227.15 1.16075 227.225 1.17922 227.291 1.19696C227.365 1.4689 227.451 1.83873 227.537 2.32352C227.503 3.94708 227.323 7.48345 226.97 13.1414L226.962 13.2628L226.672 24.8568C226.469 26.8443 225.997 30.9935 225.248 37.3632L222.053 62.3404C221.984 62.7083 221.914 63.0862 221.843 63.4742C221.082 62.1626 220.311 60.9189 219.529 59.746L219.172 59.2105L218.717 58.7554C217.268 57.3057 215.654 56.0301 213.855 55.0776C211.604 53.6794 209.05 53.0308 206.565 52.7823L206.242 52.75H205.918C204.485 52.75 201.933 53.0017 198.713 53.3805L198.527 53.4023L198.343 53.4348C195.384 53.957 192.004 54.3206 188.183 54.5078H181.012C179.345 54.3479 177.918 53.9986 176.691 53.5079L176.423 53.4003L176.145 53.3171C175.557 53.1407 175.452 52.9686 175.401 52.886L175.395 52.8753C175.134 52.4578 174.668 51.3651 174.336 49.1517C174.369 47.0979 174.629 43.5369 175.172 38.2838L176.345 28.3125L176.351 28.2561C176.727 24.4957 177.176 21.7204 177.654 19.8109L177.691 19.6608L177.721 19.5091C178.096 17.634 178.57 15.4524 179.146 12.9577C179.396 11.8763 179.641 11.0526 179.864 10.4473C179.974 10.1486 180.07 9.92619 180.147 9.76791C180.184 9.68993 180.215 9.6324 180.237 9.59277C180.26 9.55301 180.272 9.53506 180.272 9.53524C180.733 8.84285 181.19 8.10349 181.556 7.37173L181.564 7.35476C181.796 6.89295 182.535 5.41458 182.535 3.58594Z" fill="black"/>
</svg>
