<svg width="350" height="350" viewBox="0 0 350 350" fill="none" xmlns="http://www.w3.org/2000/svg">
<path d="M189.629 208.5C186.434 208.5 183.1 208.842 179.642 209.49L179.296 209.555L166.332 213.474L166.303 213.483C163.641 214.315 158.467 215.427 150.449 216.796L150.358 216.811L150.268 216.829C142.485 218.386 136.313 219.543 131.724 220.307C127.197 221.062 118.758 222.215 106.3 223.773L93.9828 224.946L93.8752 224.96C90.814 225.355 88.3541 225.712 86.5462 226.031C85.6514 226.188 84.8231 226.353 84.1218 226.529C83.7736 226.616 83.3722 226.726 82.9678 226.866C82.6681 226.97 81.9188 227.237 81.1405 227.756L80.605 228.113L80.1499 228.568C79.39 229.328 78.6313 230.273 78.0534 231.429C77.179 233.178 77.0742 234.981 77.0742 236.094C77.0742 238.692 78.2497 240.717 79.2688 242.014C80.2854 243.308 81.5636 244.416 82.8557 245.366C85.537 247.482 88.8491 249.122 92.5437 250.426C96.6626 251.88 101.452 252.63 106.752 252.842L106.882 252.848H108.477C111.508 252.848 116.407 252.533 122.979 251.955C130.674 251.587 136.171 251.201 138.805 250.717L192.304 243.701L192.375 243.69C197.669 242.876 203.139 241.76 208.784 240.349C211.764 239.604 214.494 238.684 216.705 237.472C218.633 236.414 221.193 234.573 222.335 231.471C222.794 230.403 223.082 229.197 223.082 227.891C223.082 226.855 222.945 225.624 222.471 224.363C221.717 221.741 219.981 219.82 218.399 218.503C216.45 216.878 213.327 215.295 209.847 213.748L209.788 213.722L209.729 213.697C205.981 212.119 202.937 210.899 200.639 210.063L200.557 210.033L200.473 210.005C197.252 208.931 193.573 208.5 189.629 208.5Z" fill="black"/>
<path fill-rule="evenodd" clip-rule="evenodd" d="M251.152 288.07C249.938 288.07 248.092 288.291 246.079 288.572C243.947 288.87 241.156 289.306 237.726 289.877L221.801 291.324L213.611 292.202L85.3354 303.331L50.7592 306.554L51.3477 313.027L50.7443 306.555L50.7517 306.555C44.3277 307.139 39.5304 307.521 36.3175 307.71L36.2653 307.714L24.7194 308.579C23.0692 308.596 21.2122 308.78 19.4755 309.431C17.6449 310.118 15.3914 311.572 14.2967 314.315C13.8084 315.411 13.5 316.656 13.5 318.008C13.5 320.364 14.3565 322.396 15.2775 323.942C16.3857 325.839 18.2551 327.4 19.7073 328.513C21.4216 329.827 23.6328 331.301 26.2613 332.919C31.3809 336.069 34.387 337.95 35.4374 338.651L35.7741 338.875L36.1361 339.056C37.8647 339.92 39.9953 340.639 42.3132 341.271L42.3799 341.289L42.447 341.306C44.5696 341.837 46.7626 342.086 49.0039 342.086H50.7617C53.2955 342.086 57.1271 341.254 61.4845 340.118L61.5193 340.109L61.554 340.099C65.6913 338.971 70.1348 337.93 74.888 336.979L74.9135 336.974L74.939 336.969C79.4753 336.024 85.9968 334.871 94.5564 333.509C103.055 332.157 110.948 331.099 118.239 330.331L118.346 330.32L118.453 330.305C125.154 329.375 138.351 328.408 158.307 327.43C178.179 326.456 192.469 325.673 201.137 325.083C209.167 324.702 215.913 324.512 221.395 324.508L243.952 325.68H244.121C245.59 325.68 250.57 325.775 259.204 325.971C266.981 326.152 272.318 326.251 275.148 326.264C276.109 326.434 277.125 326.559 278.105 326.559C280.057 326.559 283.009 326.198 285.362 324.034C288.56 321.277 289 317.138 289 314.492V314.199C289 310.866 287.192 308.218 285.764 306.542C284.184 304.688 282.059 302.861 279.625 301.062L279.572 301.023L279.519 300.985C274.824 297.66 271.293 295.235 268.997 293.774L268.813 293.656L268.62 293.551C266.168 292.214 263.459 291.025 260.521 289.968C257.502 288.732 254.366 288.07 251.152 288.07ZM259.355 319.473L259.208 325.971L259.204 325.971L259.355 319.473ZM221.562 318.008V324.508L221.395 324.508L221.225 324.499L221.562 318.008ZM200.762 318.594L201.071 325.086L201.137 325.083L201.204 325.079L200.762 318.594ZM20.8789 320.645L15.3052 323.989L15.2775 323.942C15.2633 323.918 15.2493 323.894 15.2353 323.869L20.8789 320.645ZM20.293 316.836L14.4792 313.929C14.4159 314.056 14.355 314.184 14.2967 314.315C14.2364 314.466 14.1796 314.621 14.1265 314.78L20.293 316.836ZM24.9805 315.078V308.578C24.8941 308.578 24.807 308.579 24.7194 308.579L24.4943 308.596L24.9805 315.078ZM214.238 298.672L213.546 292.209L213.611 292.202L213.676 292.196L214.238 298.672ZM238.555 296.328L237.966 289.855L237.726 289.877L237.486 289.917L238.555 296.328Z" fill="black"/>
<path fill-rule="evenodd" clip-rule="evenodd" d="M235.801 -28.1094C234.015 -28.1094 231.73 -27.5561 229.696 -27.0014L229.617 -26.9799L229.538 -26.9563C228.066 -26.5145 225.92 -26.0825 222.983 -25.7154L222.638 -25.6724L222.3 -25.5928C219.342 -24.8967 215.844 -24.351 211.775 -23.9811L211.486 -23.9549L211.201 -23.903C207.124 -23.1617 201.644 -22.4018 194.709 -21.6305L175.914 -19.8685L175.815 -19.8561C169.554 -19.0735 165.383 -18.6016 163.191 -18.419L163.171 -18.4173L59.7437 -9.17241L55.7799 -10.6588L49.1369 -11.6078C47.3416 -11.9843 45.8391 -12.2798 44.6538 -12.4859C43.6132 -12.6669 42.3108 -12.875 41.2695 -12.875H40.8076L40.3503 -12.8097C38.7918 -12.587 37.1479 -12.2544 35.7061 -11.6777C34.7513 -11.2958 31.4968 -9.9046 30.5691 -6.19367L30.375 -5.41737V-4.32422C30.375 -2.69363 30.8274 -1.20668 31.2283 -0.137619C31.6651 1.02701 32.2553 2.24526 32.9265 3.47582L33.0314 3.66815L37.202 10.2219C38.1231 11.7685 39.1254 13.8307 40.1877 16.4789C41.1335 19.0217 42.016 22.6206 42.7553 27.4259L42.7703 27.5237L42.7884 27.6211C43.7038 32.5644 44.362 38.3386 44.7411 44.9724L44.7462 45.062L50.0078 107.032C50.05 108.839 50.4314 111.569 50.9658 114.778L52.3966 123.935C52.8564 128.537 54.0321 132.894 56.5206 136.315L56.6294 136.465L56.7466 136.608C57.8103 137.908 59.0095 139.167 60.3505 140.151C61.6239 141.085 63.6302 142.215 66.1719 142.215H66.9268L67.3841 142.15C71.5622 141.553 74.1699 138.629 75.6625 135.942L75.8029 135.689L75.9202 135.425C76.7453 133.569 77.4223 131.893 77.9047 130.446L77.9359 130.353L78.0166 130.084C78.8686 130.171 79.7141 130.203 80.5273 130.203C82.0141 130.203 83.6284 130.083 85.3379 129.872C89.5179 129.472 95.4925 128.785 103.226 127.819C110.986 127.043 117.169 126.464 121.79 126.079L143.098 124.328C152.772 123.747 160.446 123.262 166.113 122.871C171.966 122.675 177.635 122.382 183.118 121.992L196.076 121.537L198.684 125.449C200.067 127.708 201.693 130.77 203.565 134.701L203.592 134.757L203.62 134.813C205.561 138.695 207.714 142.341 210.184 144.459L210.482 144.714L210.809 144.932C212.416 146.003 214.284 146.947 216.362 147.362L216.993 147.488H218.516C221.676 147.488 224.604 146.322 227.133 144.804L227.315 144.695L227.489 144.575C230.983 142.156 234.068 138.566 236.856 134.277L236.895 134.217L236.933 134.156C239.744 129.615 242.007 124.761 243.725 119.606C245.352 114.724 246.864 109.377 248.265 103.575C249.669 97.9542 250.612 92.7989 251.047 88.1386L258.061 39.6232L259.247 30.435L259.253 30.378C259.418 28.8908 259.763 26.6956 260.318 23.7215C261.063 20.7323 261.649 18.1131 262.063 15.8874C262.515 14.2953 263.085 12.9166 263.748 11.7231L263.889 11.4704L264.006 11.2063C264.597 9.8763 265.225 8.76054 265.87 7.83057C266.72 6.79819 267.815 5.36002 268.45 3.77913C268.867 2.85288 269.149 1.87645 269.353 1.06086L269.547 0.284561V-0.515625C269.547 -2.37918 268.937 -3.99632 268.424 -5.09544C267.867 -6.28922 267.13 -7.48264 266.321 -8.63766L266.227 -8.77166L266.127 -8.90077C264.636 -10.8171 263.04 -12.6327 261.338 -14.346C259.374 -16.5333 256.396 -18.8162 252.883 -21.1583C249.288 -23.5548 246.094 -25.4303 243.488 -26.4726C241.017 -27.461 238.422 -28.1094 235.801 -28.1094ZM139.762 9.73828C139.762 8.63538 139.603 7.58131 139.32 6.58475L139.489 6.56718C141.243 6.53923 144.44 6.32448 148.946 5.9488L149.027 7.04898V14.3652C148.634 18.0303 148.348 22.6416 148.156 28.1505L146.72 48.8382C146.51 50.18 146.391 51.5078 146.391 52.8047C146.391 55.3932 146.777 57.9215 147.579 60.3553C148.687 63.9123 150.673 67.12 153.286 69.9932C156.077 73.2613 159.499 75.7727 163.469 77.5097L163.629 77.5796L163.792 77.6408C167.467 79.0189 171.931 80.0823 177.059 80.9027C182.232 81.7304 187.168 82.1562 191.855 82.1562C195.612 82.1562 199.368 81.9475 203.12 81.5306L203.327 81.5076L203.532 81.4714C206.913 80.8747 209.941 80.2707 212.605 79.657C214.213 79.3099 215.863 78.83 217.321 78.1009C217.954 77.7846 218.782 77.3065 219.592 76.6037C218.92 80.5443 218.123 84.2704 217.207 87.785L217.173 87.9144L217.144 88.045C216.257 92.1281 215.377 95.7632 214.507 98.9591C213.041 98.2976 211.536 97.6852 209.992 97.1212C207.716 96.218 205.44 95.5595 203.209 95.2807L202.807 95.2305H200.645C199.024 95.2305 197.407 95.3423 195.796 95.5646C193.448 95.7796 186.348 96.4607 174.53 97.6044L174.491 97.6083L158.457 99.3574C155.57 99.5668 148.895 100.157 138.522 101.118L138.511 101.118L117.214 103.161C111.129 103.555 104.202 104.141 96.4388 104.916C90.8868 105.209 85.0217 105.61 78.8447 106.118L71.1344 13.8515L105.261 10.6521L105.749 14.9169L105.823 15.2499C106.093 16.4661 106.254 17.9371 106.254 19.6992C106.254 22.2909 105.929 25.2537 105.221 28.6141L105.207 28.6845L105.193 28.7552C104.074 34.7232 102.585 40.491 100.728 46.0617C98.8629 51.6572 97.0182 55.677 95.285 58.3556C93.2896 61.4394 91.0098 64.639 88.4388 67.9547L82.8405 74.1129C81.5084 75.4726 79.5938 77.8976 79.5938 81.2227C79.5938 82.4047 79.8478 84.1961 81.0525 85.8386C81.5389 86.5741 82.2162 87.3286 83.1474 87.9493C84.4768 88.8356 85.9329 89.1875 87.2656 89.1875C88.7997 89.1875 90.1074 88.7273 90.8515 88.4296C91.6461 88.1118 92.4435 87.7084 93.2095 87.2785L100.969 83.5425L101.012 83.5208C105.193 81.4306 109.444 77.7186 113.745 73.0078L113.755 72.9974C117.971 68.3593 121.501 63.4566 124.307 58.2846C127.112 53.2715 129.177 48.8162 130.167 45.1045L130.18 45.0554L130.193 45.0062C130.992 41.8074 132.08 37.1594 133.45 31.0919C134.819 25.027 135.832 21.1181 136.498 19.118C137.123 17.2459 137.589 15.9116 137.911 15.0523C138.226 14.5516 138.527 14.036 138.783 13.5241L138.791 13.5071C139.022 13.0454 139.762 11.567 139.762 9.73828ZM182.535 3.58594C182.535 3.51337 182.534 3.44087 182.533 3.36847L221.102 1.2774L221.284 1.25712C222.869 1.08106 224.184 1.00391 225.254 1.00391C225.79 1.00391 226.199 1.02337 226.496 1.05046C226.76 1.07438 226.884 1.09958 226.901 1.10304C226.903 1.10353 226.902 1.10348 226.901 1.10304L226.983 1.12354L227.067 1.14209C227.15 1.16075 227.225 1.17922 227.291 1.19696C227.365 1.4689 227.451 1.83873 227.537 2.32352C227.503 3.94708 227.323 7.48345 226.97 13.1414L226.962 13.2628L226.672 24.8568C226.469 26.8443 225.997 30.9935 225.248 37.3632L222.053 62.3404C221.984 62.7083 221.914 63.0862 221.843 63.4742C221.082 62.1626 220.311 60.9189 219.529 59.746L219.172 59.2105L218.717 58.7554C217.268 57.3057 215.654 56.0301 213.855 55.0776C211.604 53.6794 209.05 53.0308 206.565 52.7823L206.242 52.75H205.918C204.485 52.75 201.933 53.0017 198.713 53.3805L198.527 53.4023L198.343 53.4348C195.384 53.957 192.004 54.3206 188.183 54.5078H181.012C179.345 54.3479 177.918 53.9986 176.691 53.5079L176.423 53.4003L176.145 53.3171C175.557 53.1407 175.452 52.9686 175.401 52.886L175.395 52.8753C175.134 52.4578 174.668 51.3651 174.336 49.1517C174.369 47.0979 174.629 43.5369 175.172 38.2838L176.345 28.3125L176.351 28.2561C176.727 24.4957 177.176 21.7204 177.654 19.8109L177.691 19.6608L177.721 19.5091C178.096 17.634 178.57 15.4524 179.146 12.9577C179.396 11.8763 179.641 11.0526 179.864 10.4473C179.974 10.1486 180.07 9.92619 180.147 9.76791C180.184 9.68993 180.215 9.6324 180.237 9.59277C180.26 9.55301 180.272 9.53506 180.272 9.53524C180.733 8.84285 181.19 8.10349 181.556 7.37173L181.564 7.35476C181.796 6.89295 182.535 5.41458 182.535 3.58594Z" fill="black"/>
</svg>
