<svg width="350" height="350" viewBox="0 0 350 350" fill="none" xmlns="http://www.w3.org/2000/svg">
<path fill-rule="evenodd" clip-rule="evenodd" d="M31.2187 330.206C33.2732 332.314 36.1441 335.076 39.1618 336.498C42.0449 337.929 45.0952 338.852 48.2148 338.852C49.7204 338.852 52.2304 338.402 54.9579 337.856L54.9982 337.848L55.0384 337.839C57.6405 337.282 61.7235 336.52 67.3449 335.551L74.8239 334.4C77.9177 334.015 83.896 333.34 92.8027 332.372L92.8085 332.371L114.988 330.036C118.398 329.753 122.506 329.468 128.127 329.181C127.95 337.544 127.624 344.907 127.312 351.345C127.257 352.478 127.202 353.586 127.149 354.669L127.149 354.673C126.828 361.186 126.551 366.796 126.542 371.367C126.533 376.487 126.823 381.355 128.354 385.053C129.186 387.064 130.508 389.05 132.615 390.477C134.731 391.911 137.088 392.41 139.328 392.41H139.621C143.872 392.41 148.471 391.799 152.212 388.692C155.927 385.606 157.652 381.015 158.603 375.889C159.565 370.705 159.917 363.895 160.002 355.208C160.076 347.736 159.951 338.591 159.776 327.5L201.838 325.961C203.922 325.964 212.033 326.061 226.259 326.253L226.27 326.254L255.829 326.543C259.586 326.991 264.321 327.182 268.893 325.675C270.142 325.286 271.994 324.583 273.651 323.304C275.431 321.93 277.457 319.473 277.457 315.859C277.457 314.636 277.183 312.734 276.791 311.034C276.44 309.513 275.707 306.793 274.142 304.781L274.01 304.611L273.866 304.451C271.095 301.372 266.11 298.816 260.324 296.495C254.762 294.004 250.488 292.265 247.84 291.543L247.779 291.527L247.717 291.511C245.005 290.833 242.36 290.453 239.816 290.453C237.8 290.453 234.964 291.042 231.916 291.804C228.959 292.543 226.234 293.086 223.734 293.443C221.152 293.812 216.028 294.384 208.243 295.163L188.434 296.619L188.4 296.622L160.306 298.526L160.531 258.644C166.91 258.059 174.26 257.282 181.698 256.496L181.699 256.496L181.702 256.495C183.053 256.352 184.408 256.209 185.76 256.067C196.881 254.896 207.837 253.778 216.034 253.266L216.22 253.254L216.404 253.231C219.753 252.812 222.899 252.124 225.375 250.886C226.31 250.418 227.224 249.905 228.036 249.336C228.772 248.821 229.814 247.996 230.613 246.797L231.621 245.285V243.469C231.621 241.27 230.885 239.035 230.181 237.435C229.484 235.852 228.335 233.788 226.705 232.321L226.382 232.03L226.02 231.789C223.354 230.012 220.49 228.473 217.438 227.165L217.208 227.067L216.972 226.988C213.894 225.962 210.987 225.252 208.312 224.977C203.987 224.184 199.758 224.845 196.438 225.595L161.672 230.133L161.795 228.786L161.795 228.785C162.034 226.156 162.272 223.543 162.593 220.961C163.324 215.1 164.397 210.326 166.217 207.141L166.3 206.996L166.374 206.847C167.765 204.066 169.059 200.908 169.059 198.012C169.059 195.536 167.988 193.544 166.865 192.14C165.787 190.792 164.416 189.668 163.009 188.718C160.069 186.541 156.427 184.773 152.274 183.31C148 181.611 143.802 180.493 139.698 180.037L139.367 180H139.035C137.368 180 135.705 180.105 134.218 180.436C132.984 180.71 130.59 181.401 128.962 183.572L128.637 184.005L128.395 184.489C126.926 187.426 127.107 190.295 127.529 192.354C127.828 193.811 128.402 195.428 128.745 196.398C128.829 196.634 128.899 196.832 128.949 196.979C129.627 199.014 130.105 202.37 130.105 207.387V207.414L130.348 234.431L99.8646 236.662L99.7924 236.669C91.8089 237.448 84.3177 238.129 77.3181 238.712L77.2957 238.714L70.8468 239.3C69.8608 239.384 68.0543 239.647 66.2997 240.354C65.4187 240.709 64.1671 241.326 63.0545 242.406C61.8438 243.581 60.6836 245.448 60.6836 247.914C60.6836 248.897 60.8997 249.836 61.0442 250.388C61.2259 251.082 61.4835 251.856 61.8183 252.647C62.412 254.048 63.5502 256.221 65.5684 257.819C68.2875 260.034 71.301 261.648 74.6034 262.473L74.6563 262.486L74.7094 262.499C78.9036 263.467 83.1031 263.824 87.1914 263.824C90.9505 263.824 96.1934 263.517 102.822 262.934L129.52 261.752V300.412L122.646 301.117L122.295 301.257C121.997 301.305 121.541 301.368 120.897 301.447C119.571 301.608 117.648 301.81 115.102 302.052C110.021 302.536 102.611 303.168 92.8536 303.949C73.3174 305.512 59.7953 306.378 52.1665 306.568C44.2887 306.765 40.1087 306.859 39.4258 306.859H39.1954L30.9872 307.491L30.6319 307.562C27.8307 308.122 24.4063 309.56 22.6334 313.106L22 314.373V315.789C22 317.291 22.2433 318.845 22.9116 320.391C23.5718 321.918 24.5158 323.134 25.5152 324.133C26.2013 324.819 27.0176 325.705 28.0174 326.792L28.0854 326.866C29.033 327.897 30.1106 329.069 31.2187 330.206ZM155.726 229.265C155.757 228.929 155.788 228.59 155.819 228.25L155.82 228.236C155.789 228.581 155.758 228.924 155.726 229.265ZM122.587 301.205C122.587 301.205 122.568 301.209 122.526 301.217C122.564 301.208 122.586 301.204 122.587 301.205Z" fill="black"/>
<path fill-rule="evenodd" clip-rule="evenodd" d="M235.801 -28.1094C234.015 -28.1094 231.73 -27.5561 229.696 -27.0014L229.617 -26.9799L229.538 -26.9563C228.066 -26.5145 225.92 -26.0825 222.983 -25.7154L222.638 -25.6724L222.3 -25.5928C219.342 -24.8967 215.844 -24.351 211.775 -23.9811L211.486 -23.9549L211.201 -23.903C207.124 -23.1617 201.644 -22.4018 194.709 -21.6305L175.914 -19.8685L175.815 -19.8561C169.554 -19.0735 165.383 -18.6016 163.191 -18.419L163.171 -18.4173L59.7437 -9.17241L55.7799 -10.6588L49.1369 -11.6078C47.3416 -11.9843 45.8391 -12.2798 44.6538 -12.4859C43.6132 -12.6669 42.3108 -12.875 41.2695 -12.875H40.8076L40.3503 -12.8097C38.7918 -12.587 37.1479 -12.2544 35.7061 -11.6777C34.7513 -11.2958 31.4968 -9.9046 30.5691 -6.19367L30.375 -5.41737V-4.32422C30.375 -2.69363 30.8274 -1.20668 31.2283 -0.137619C31.6651 1.02701 32.2553 2.24526 32.9265 3.47582L33.0314 3.66815L37.202 10.2219C38.1231 11.7685 39.1254 13.8307 40.1877 16.4789C41.1335 19.0217 42.016 22.6206 42.7553 27.4259L42.7703 27.5237L42.7884 27.6211C43.7038 32.5644 44.362 38.3386 44.7411 44.9724L44.7462 45.062L50.0078 107.032C50.05 108.839 50.4314 111.569 50.9658 114.778L52.3966 123.935C52.8564 128.537 54.0321 132.894 56.5206 136.315L56.6294 136.465L56.7466 136.608C57.8103 137.908 59.0095 139.167 60.3505 140.151C61.6239 141.085 63.6302 142.215 66.1719 142.215H66.9268L67.3841 142.15C71.5622 141.553 74.1699 138.629 75.6625 135.942L75.8029 135.689L75.9202 135.425C76.7453 133.569 77.4223 131.893 77.9047 130.446L77.9359 130.353L78.0166 130.084C78.8686 130.171 79.7141 130.203 80.5273 130.203C82.0141 130.203 83.6284 130.083 85.3379 129.872C89.5179 129.472 95.4925 128.785 103.226 127.819C110.986 127.043 117.169 126.464 121.79 126.079L143.098 124.328C152.772 123.747 160.446 123.262 166.113 122.871C171.966 122.675 177.635 122.382 183.118 121.992L196.076 121.537L198.684 125.449C200.067 127.708 201.693 130.77 203.565 134.701L203.592 134.757L203.62 134.813C205.561 138.695 207.714 142.341 210.184 144.459L210.482 144.714L210.809 144.932C212.416 146.003 214.284 146.947 216.362 147.362L216.993 147.488H218.516C221.676 147.488 224.604 146.322 227.133 144.804L227.315 144.695L227.489 144.575C230.983 142.156 234.068 138.566 236.856 134.277L236.895 134.217L236.933 134.156C239.744 129.615 242.007 124.761 243.725 119.606C245.352 114.724 246.864 109.377 248.265 103.575C249.669 97.9542 250.612 92.7989 251.047 88.1386L258.061 39.6232L259.247 30.435L259.253 30.378C259.418 28.8908 259.763 26.6956 260.318 23.7215C261.063 20.7323 261.649 18.1131 262.063 15.8874C262.515 14.2953 263.085 12.9166 263.748 11.7231L263.889 11.4704L264.006 11.2063C264.597 9.8763 265.225 8.76054 265.87 7.83057C266.72 6.79819 267.815 5.36002 268.45 3.77913C268.867 2.85288 269.149 1.87645 269.353 1.06086L269.547 0.284561V-0.515625C269.547 -2.37918 268.937 -3.99632 268.424 -5.09544C267.867 -6.28922 267.13 -7.48264 266.321 -8.63766L266.227 -8.77166L266.127 -8.90077C264.636 -10.8171 263.04 -12.6327 261.338 -14.346C259.374 -16.5333 256.396 -18.8162 252.883 -21.1583C249.288 -23.5548 246.094 -25.4303 243.488 -26.4726C241.017 -27.461 238.422 -28.1094 235.801 -28.1094ZM139.762 9.73828C139.762 8.63538 139.603 7.58131 139.32 6.58475L139.489 6.56718C141.243 6.53923 144.44 6.32448 148.946 5.9488L149.027 7.04898V14.3652C148.634 18.0303 148.348 22.6416 148.156 28.1505L146.72 48.8382C146.51 50.18 146.391 51.5078 146.391 52.8047C146.391 55.3932 146.777 57.9215 147.579 60.3553C148.687 63.9123 150.673 67.12 153.286 69.9932C156.077 73.2613 159.499 75.7727 163.469 77.5097L163.629 77.5796L163.792 77.6408C167.467 79.0189 171.931 80.0823 177.059 80.9027C182.232 81.7304 187.168 82.1562 191.855 82.1562C195.612 82.1562 199.368 81.9475 203.12 81.5306L203.327 81.5076L203.532 81.4714C206.913 80.8747 209.941 80.2707 212.605 79.657C214.213 79.3099 215.863 78.83 217.321 78.1009C217.954 77.7846 218.782 77.3065 219.592 76.6037C218.92 80.5443 218.123 84.2704 217.207 87.785L217.173 87.9144L217.144 88.045C216.257 92.1281 215.377 95.7632 214.507 98.9591C213.041 98.2976 211.536 97.6852 209.992 97.1212C207.716 96.218 205.44 95.5595 203.209 95.2807L202.807 95.2305H200.645C199.024 95.2305 197.407 95.3423 195.796 95.5646C193.448 95.7796 186.348 96.4607 174.53 97.6044L174.491 97.6083L158.457 99.3574C155.57 99.5668 148.895 100.157 138.522 101.118L138.511 101.118L117.214 103.161C111.129 103.555 104.202 104.141 96.4388 104.916C90.8868 105.209 85.0217 105.61 78.8447 106.118L71.1344 13.8515L105.261 10.6521L105.749 14.9169L105.823 15.2499C106.093 16.4661 106.254 17.9371 106.254 19.6992C106.254 22.2909 105.929 25.2537 105.221 28.6141L105.207 28.6845L105.193 28.7552C104.074 34.7232 102.585 40.491 100.728 46.0617C98.8629 51.6572 97.0182 55.677 95.285 58.3556C93.2896 61.4394 91.0098 64.639 88.4388 67.9547L82.8405 74.1129C81.5084 75.4726 79.5938 77.8976 79.5938 81.2227C79.5938 82.4047 79.8478 84.1961 81.0525 85.8386C81.5389 86.5741 82.2162 87.3286 83.1474 87.9493C84.4768 88.8356 85.9329 89.1875 87.2656 89.1875C88.7997 89.1875 90.1074 88.7273 90.8515 88.4296C91.6461 88.1118 92.4435 87.7084 93.2095 87.2785L100.969 83.5425L101.012 83.5208C105.193 81.4306 109.444 77.7186 113.745 73.0078L113.755 72.9974C117.971 68.3593 121.501 63.4566 124.307 58.2846C127.112 53.2715 129.177 48.8162 130.167 45.1045L130.18 45.0554L130.193 45.0062C130.992 41.8074 132.08 37.1594 133.45 31.0919C134.819 25.027 135.832 21.1181 136.498 19.118C137.123 17.2459 137.589 15.9116 137.911 15.0523C138.226 14.5516 138.527 14.036 138.783 13.5241L138.791 13.5071C139.022 13.0454 139.762 11.567 139.762 9.73828ZM182.535 3.58594C182.535 3.51337 182.534 3.44087 182.533 3.36847L221.102 1.2774L221.284 1.25712C222.869 1.08106 224.184 1.00391 225.254 1.00391C225.79 1.00391 226.199 1.02337 226.496 1.05046C226.76 1.07438 226.884 1.09958 226.901 1.10304C226.903 1.10353 226.902 1.10348 226.901 1.10304L226.983 1.12354L227.067 1.14209C227.15 1.16075 227.225 1.17922 227.291 1.19696C227.365 1.4689 227.451 1.83873 227.537 2.32352C227.503 3.94708 227.323 7.48345 226.97 13.1414L226.962 13.2628L226.672 24.8568C226.469 26.8443 225.997 30.9935 225.248 37.3632L222.053 62.3404C221.984 62.7083 221.914 63.0862 221.843 63.4742C221.082 62.1626 220.311 60.9189 219.529 59.746L219.172 59.2105L218.717 58.7554C217.268 57.3057 215.654 56.0301 213.855 55.0776C211.604 53.6794 209.05 53.0308 206.565 52.7823L206.242 52.75H205.918C204.485 52.75 201.933 53.0017 198.713 53.3805L198.527 53.4023L198.343 53.4348C195.384 53.957 192.004 54.3206 188.183 54.5078H181.012C179.345 54.3479 177.918 53.9986 176.691 53.5079L176.423 53.4003L176.145 53.3171C175.557 53.1407 175.452 52.9686 175.401 52.886L175.395 52.8753C175.134 52.4578 174.668 51.3651 174.336 49.1517C174.369 47.0979 174.629 43.5369 175.172 38.2838L176.345 28.3125L176.351 28.2561C176.727 24.4957 177.176 21.7204 177.654 19.8109L177.691 19.6608L177.721 19.5091C178.096 17.634 178.57 15.4524 179.146 12.9577C179.396 11.8763 179.641 11.0526 179.864 10.4473C179.974 10.1486 180.07 9.92619 180.147 9.76791C180.184 9.68993 180.215 9.6324 180.237 9.59277C180.26 9.55301 180.272 9.53506 180.272 9.53524C180.733 8.84285 181.19 8.10349 181.556 7.37173L181.564 7.35476C181.796 6.89295 182.535 5.41458 182.535 3.58594Z" fill="black"/>
</svg>
