<svg width="350" height="350" viewBox="0 0 350 350" fill="none" xmlns="http://www.w3.org/2000/svg">
<path fill-rule="evenodd" clip-rule="evenodd" d="M254.098 24.5C250.622 24.5 245.507 25.339 239.038 26.8092C232.685 28.253 227.273 29.2463 222.778 29.8082L222.642 29.8252L222.507 29.8505C217.925 30.7096 213.782 31.4247 210.074 31.9974C206.098 32.3104 197.88 33.1939 185.514 34.6316C172.894 35.806 160.563 37.1273 148.524 38.5956L148.51 38.5972L99.322 44.7458L44.0548 50.8866C41.9843 51.0505 39.9799 51.3948 38.3113 52.1099C36.633 52.8293 34.4748 54.3154 33.9136 57.1214L33.8262 57.5583V58.8828C33.8262 61.9621 35.3861 64.504 37.3415 66.4593L37.5676 66.6855L37.8234 66.8773C40.4887 68.8763 44.2857 71.0685 49.0579 73.4546C53.7398 75.7956 57.6036 77.4475 60.4522 78.1713C62.9674 78.8813 65.7157 79.2031 68.6484 79.2031H71.8391L82.841 76.4527C88.2338 75.3209 95.4003 74.1725 104.381 73.0138L134.351 69.1215L135.433 73.0169C135.636 74.4421 135.777 77.4982 135.779 82.5007C135.492 88.174 134.923 94.4387 134.068 101.3C132.912 108.225 131.322 116.61 129.293 126.465L122.136 156.685L86.6058 160.319L86.564 160.324C76.9526 161.489 69.6939 162.049 64.6934 162.049H59.8594C57.7965 162.049 55.698 162.229 53.9593 162.898C53.0565 163.245 51.9797 163.826 51.1029 164.838C50.1499 165.937 49.6465 167.306 49.6465 168.746V169.186C49.6465 170.117 49.9033 170.904 50.046 171.303C50.2205 171.792 50.4428 172.28 50.6709 172.736C51.1293 173.653 51.7635 174.742 52.5278 175.965L52.6291 176.127L52.7438 176.28C54.7747 178.988 57.1759 181.245 59.949 183.007C62.6814 185.027 65.6563 186.44 68.8587 187.172C71.3106 187.859 73.8842 188.188 76.5586 188.188H79.1953C79.7776 188.188 80.4407 188.079 80.814 188.016C81.3223 187.932 81.9617 187.811 82.7146 187.661C84.1938 187.365 86.2242 186.93 88.7915 186.36L104.009 184.186L115.233 182.544L109.122 204.95L109.113 204.984C105.917 217.48 102.136 230.424 97.7686 243.816L97.7548 243.858L97.7418 243.901C93.9106 256.489 89.5628 269.857 84.6974 284.007L57.7716 285.987L57.7602 285.988L16.9503 289.093L16.5805 289.185C15.8936 289.357 14.1828 289.568 11.0858 289.715C8.11056 289.857 4.16158 289.93 -0.785156 289.93H-0.913624L-16.3104 290.81C-17.941 290.83 -19.6024 291.2 -21.118 292.109C-22.5167 292.948 -23.5678 294.113 -24.3201 295.436C-25.2674 296.727 -25.5 298.178 -25.5 299.264C-25.5 301.088 -24.7383 302.65 -24.0274 303.767C-23.3104 304.894 -22.3576 306.011 -21.2769 307.107C-18.3677 310.655 -13.7134 314.01 -7.78778 317.269L-7.74769 317.291L-7.70717 317.312C-1.54029 320.543 3.17408 322.833 6.33265 324.096C9.85128 325.504 13.649 326.176 17.6719 326.176C19.3241 326.176 21.5687 325.837 24.1574 325.319C26.8361 324.784 30.1851 323.992 34.1821 322.956C41.7978 320.981 53.5619 318.961 69.6073 316.917L111.273 312.531L111.292 312.53C123.203 311.368 144.79 309.908 176.127 308.151L176.149 308.15L176.172 308.148C207.202 306.099 231.14 304.933 248.023 304.642L248.024 304.642C264.7 304.349 280.494 304.203 295.406 304.203C310.561 304.203 322.855 304.641 332.332 305.501C338.246 306.092 343.095 306.4 346.822 306.4C349.06 306.4 351.104 306.28 352.757 305.926L365.009 305.081C366.999 305.059 369.025 304.642 370.824 303.536C372.661 302.405 373.927 300.759 374.684 298.859C375.189 297.78 375.492 296.585 375.492 295.309C375.492 291.733 373.266 288.615 370.802 286.119C367.381 282.072 362.772 278.846 357.184 276.338C351.745 273.328 346.275 270.9 340.775 269.067C335.387 267.271 330.746 266.021 326.908 265.382L326.54 265.32H323.092C319.638 265.32 315.064 265.632 309.437 266.224L309.317 266.237L309.197 266.256C302.054 267.399 291.211 268.559 276.59 269.729L276.572 269.731L246.734 272.363L231.526 273.276L246.072 230.785L246.092 230.721C249.872 218.508 253.038 209.308 255.593 203.049C258.461 196.741 260.745 191.889 262.451 188.468C264.319 185.287 266.595 182.211 269.293 179.244L269.435 179.087L269.563 178.917C272.157 175.458 274.135 172.516 274.975 170.417L275.297 169.613V168.746C275.297 164.786 272.659 161.184 269.66 158.169C266.351 154.55 262.159 151.364 257.183 148.564L257.172 148.558L257.162 148.553C251.786 145.566 246.677 143.01 241.839 140.893L241.803 140.877L241.766 140.862C237.926 139.262 234.24 138.318 230.807 138.318C229.611 138.318 228.438 138.491 227.297 138.818C226.835 138.878 226.417 138.972 226.104 139.047C225.504 139.191 224.817 139.39 224.068 139.626C222.566 140.1 220.614 140.791 218.24 141.681C214.025 143.262 207.679 144.673 199.011 145.829L198.938 145.838L177.818 149.358L160.694 151.849L165.873 134.694V134.672C165.897 134.599 165.924 134.519 165.954 134.429C165.982 134.348 166.012 134.259 166.044 134.163C166.308 133.389 166.712 132.241 167.259 130.709C168.351 127.649 169.995 123.122 172.191 117.118L172.208 117.073L172.223 117.026C176.337 104.979 179.438 97.3129 181.54 93.635L181.568 93.5857L181.595 93.5358C183.689 89.6465 185.209 85.8644 185.209 82.6133V81.7344C185.209 78.8454 184.058 76.0101 182.439 73.376C180.965 70.4989 178.845 67.9163 176.202 65.6036C175.971 65.4019 175.737 65.1955 175.5 64.9843L186.837 63.8034C197.609 62.9307 213.054 61.9105 233.189 60.7429L269.212 59.8643L269.276 59.861C274.928 59.5635 280.299 59.1164 285.385 58.518L285.401 58.5161L285.418 58.5141C288 58.1912 290.4 57.6282 292.365 56.6455C294.366 55.6451 296.34 53.9764 297.096 51.33L297.27 50.724V50.0938C297.27 48.4882 296.702 47.0176 296.135 45.884C295.547 44.7071 294.744 43.4763 293.804 42.2158C291.475 38.7784 287.739 35.9074 283.122 33.4327C278.477 30.6571 273.641 28.6155 268.622 27.334C263.621 25.4847 258.769 24.5 254.098 24.5ZM192.386 173.661C195.178 173.367 199.209 172.927 204.472 172.342C207.279 172.062 209.754 171.928 211.91 171.928C214.616 171.928 216.605 172.169 217.991 172.542C219.404 172.922 219.843 173.344 219.919 173.432L220.032 173.564L220.154 173.686C221.351 174.883 221.912 176.225 221.912 177.975V179.293C221.912 181.807 220.785 187.658 218.117 197.44L211.988 219.767C210.267 225.208 207.818 232.126 204.626 240.539L191.151 276.065L119.824 280.717L126.982 258.904L126.986 258.89C136.862 228.101 142.587 210.051 144.123 204.848C145.808 200.056 148.482 191.399 152.129 178.963L187.708 174.111C188.114 174.088 188.628 174.04 189.101 173.995C189.892 173.92 190.989 173.808 192.386 173.661Z" fill="black"/>
</svg>
