<svg width="350" height="350" viewBox="0 0 350 350" fill="none" xmlns="http://www.w3.org/2000/svg">
<path d="M199.176 199.727C195.675 199.727 190.921 201.002 185.756 202.72C181.022 204.173 175.381 205.565 168.802 206.883C162.019 208.046 157.361 208.805 154.756 209.177L154.632 209.195L126.429 214.189C125.518 214.335 121.288 214.793 113.194 215.582L113.036 215.598L96.3614 217.938L83.984 219.063C79.9283 219.08 76.2383 219.39 73.138 220.165C71.6225 220.544 69.8833 221.115 68.3163 222.079C66.7889 223.019 64.4668 224.951 63.7941 228.314L63.6484 229.043V230.078C63.6484 233.5 65.2745 236.142 66.9496 237.938C69.5134 241.087 73.2711 242.865 76.8215 243.975C80.9082 245.252 86.1934 245.867 92.2853 246.07L92.4102 246.074H95.1719C97.3325 246.074 99.9267 245.968 102.915 245.77C107.263 245.572 112.37 245.276 118.229 244.886L118.353 244.877L118.477 244.865C124.45 244.268 131.763 243.378 140.396 242.201L140.424 242.197L176.561 237.534C181.139 237.111 186.405 236.293 192.324 235.113C198.141 234.143 202.653 233.358 205.831 232.762L206.051 232.721L215.253 230.42C216.796 230.198 218.36 229.882 219.763 229.387C220.731 229.045 223.377 228.054 225.054 225.449C225.431 224.922 225.829 224.304 226.172 223.618C226.394 223.175 226.727 222.443 226.95 221.502C227.415 220.032 227.477 218.662 227.477 217.773V216.85L227.253 215.954C226.693 213.718 225.381 211.675 224.322 210.191L224.129 209.922L223.913 209.67C221.399 206.736 217.56 204.934 213.977 203.67L213.955 203.662L206.004 200.91L205.682 200.829C203.834 200.367 201.975 200.018 200.106 199.784L199.643 199.727H199.176Z" fill="black"/>
<path fill-rule="evenodd" clip-rule="evenodd" d="M190.973 258.828C188.129 258.828 185.008 259.379 181.775 260.238L174.85 261.969C171.829 262.677 167.201 263.516 160.845 264.479L160.833 264.481L140.105 267.692C132.768 268.657 125.044 269.623 116.931 270.589C108.843 271.36 103.132 271.949 99.8816 272.353L88.475 273.554L88.1346 273.622C87.0133 273.846 85.8934 274.113 84.89 274.447L84.8877 274.448C84.3235 274.636 82.8153 275.139 81.4171 276.277C79.5052 277.76 78.6422 279.701 78.247 281.019C77.8106 282.473 77.7109 283.911 77.7109 285.078V285.611L77.7863 286.139C78.3932 290.387 81.6904 292.652 83.1424 293.535C85.0117 294.673 87.3002 295.571 89.6752 296.327L89.8246 296.374L89.9758 296.415C94.4198 297.627 98.6897 298.645 102.783 299.464L103.247 299.557L103.72 299.59C106.643 299.799 109.654 299.902 112.75 299.902H117.485L117.824 299.872C120.109 299.664 125.307 299.062 133.265 298.092L133.287 298.089L153.491 295.747L188.907 291.32L198.095 289.597C200.858 289.387 203.36 289.068 205.522 288.6C207.512 288.17 209.744 287.507 211.687 286.324C212.743 285.769 213.959 285.003 215.026 283.936C216.234 282.728 217.809 280.542 217.809 277.461C217.809 275.038 216.745 273.171 216.3 272.43C215.74 271.497 215.057 270.608 214.378 269.806C213.038 268.101 211.293 266.771 209.677 265.732C207.903 264.592 205.796 263.496 203.451 262.43C199.185 260.491 194.722 258.828 190.973 258.828ZM90.8783 280.681C90.8783 280.681 90.8852 280.686 90.8975 280.695C90.8842 280.686 90.8783 280.681 90.8783 280.681Z" fill="black"/>
<path d="M249.273 307.09C247.176 307.09 244.246 307.499 240.939 308.083L240.899 308.09L240.86 308.097C237.913 308.65 233.086 309.409 226.29 310.381L208.167 312.719C203.844 313.283 197.352 313.954 188.627 314.73C179.962 315.322 169.668 316.205 157.757 317.376L111.169 321.478L84.7073 324.124L84.6571 324.13C76.283 325.082 67.0017 325.753 56.8031 326.138L56.7326 326.141L56.6621 326.145C51.4766 326.438 47.4159 326.684 44.4937 326.882C42.1324 327.042 40.1607 327.191 39.0089 327.342L26.9972 328.2L26.979 328.201C25.3456 328.311 23.7559 328.49 22.3535 328.802C21.371 329.02 18.8639 329.608 16.9194 331.552C15.5177 332.954 14.9637 334.529 14.7269 335.476C14.4787 336.468 14.4297 337.372 14.4297 338.027C14.4297 339.407 14.6537 340.726 14.9466 341.897L14.9769 342.018L15.0112 342.139C15.8009 344.903 17.6972 346.857 18.9632 347.997C20.4181 349.306 22.2144 350.555 24.1712 351.751L24.225 351.784L24.2794 351.816C27.9119 353.953 31.9118 355.948 36.2604 357.812L36.4394 357.888L36.6221 357.956C40.7525 359.477 44.8144 360.469 48.5898 360.469H49.4688C51.1944 360.469 52.916 360.345 54.631 360.1C56.3521 359.855 60.8822 358.896 67.7164 357.378C74.4229 356.038 81.7148 354.694 89.5948 353.348C97.6235 352.203 106.838 351.147 117.25 350.183C127.726 349.213 138.795 348.339 150.456 347.562L150.508 347.558L150.56 347.554C162.598 346.583 172.455 345.907 180.153 345.521L223.91 344.062H238.125C242.913 344.454 248.513 344.744 254.906 344.938C261.371 345.134 265.576 345.325 267.694 345.501L268.004 345.527H270.953C272.849 345.527 274.776 345.385 276.572 344.957C278.29 344.548 280.551 343.723 282.409 341.866C284.522 339.753 286.07 336.853 286.07 333.34V332.221L285.995 331.693C285.632 329.156 284.363 327.148 283.319 325.806C282.202 324.37 280.805 323.018 279.313 321.755C276.577 319.44 273.728 317.324 270.767 315.411C267.646 313.197 264.313 311.317 260.776 309.769L260.591 309.689L260.403 309.618C256.809 308.271 253.271 307.375 249.849 307.112L249.561 307.09H249.273Z" fill="black"/>
<path fill-rule="evenodd" clip-rule="evenodd" d="M33.2088 131.664L22.9292 132.251C21.57 132.275 20.1196 132.591 18.7674 133.402C17.5408 134.138 16.6293 135.142 15.983 136.242C15.0773 137.526 14.875 138.923 14.875 139.887C14.875 141.654 15.6074 143.08 16.1694 143.963C16.7335 144.849 17.4481 145.684 18.2029 146.456C20.3862 149.087 23.729 151.448 27.7193 153.643L27.7638 153.667L27.8089 153.691C31.9266 155.848 35.1465 157.416 37.354 158.299C39.9615 159.342 42.7489 159.828 45.6562 159.828C46.9712 159.828 48.6351 159.566 50.3722 159.218C52.2091 158.851 54.4817 158.313 57.165 157.617C62.1115 156.335 69.8444 155.001 80.5109 153.643L108.251 150.722L108.27 150.721C116.166 149.951 130.517 148.98 151.405 147.809L151.43 147.807L151.454 147.806C172.131 146.44 188.052 145.665 199.258 145.472L199.26 145.472C210.367 145.277 220.884 145.18 230.812 145.18C240.88 145.18 249.007 145.471 255.239 146.036C259.207 146.432 262.511 146.645 265.09 146.645C266.56 146.645 268.034 146.571 269.319 146.314L277.297 145.764C278.865 145.739 280.572 145.402 282.139 144.438C283.754 143.444 284.853 142.008 285.501 140.411C285.933 139.468 286.203 138.402 286.203 137.25C286.203 134.079 284.274 131.528 282.554 129.773C280.06 126.844 276.765 124.561 272.894 122.813C269.193 120.771 265.458 119.114 261.691 117.858C258.048 116.644 254.844 115.776 252.142 115.326L251.734 115.258H249.27C246.865 115.258 243.735 115.473 239.957 115.871L239.823 115.885L239.691 115.907C235.009 116.656 227.844 117.425 218.109 118.203L218.089 118.205L198.216 119.958L191.084 120.386L199.825 94.854L199.847 94.7831C202.354 86.6821 204.44 80.6263 206.108 76.5354C207.991 72.3936 209.486 69.2165 210.601 66.9777C211.766 65.0041 213.188 63.0837 214.883 61.2188L215.042 61.0442L215.184 60.8555C216.894 58.5744 218.376 56.4132 219.049 54.732L219.406 53.8379V52.875C219.406 49.3973 217.139 46.5028 215.096 44.4429C212.723 41.8552 209.758 39.6164 206.311 37.6773L206.299 37.6708L206.288 37.6644C202.658 35.6477 199.195 33.9143 195.903 32.4739L195.862 32.4562L195.822 32.4393C193.117 31.3125 190.389 30.5898 187.746 30.5898C186.804 30.5898 185.884 30.7193 184.995 30.9613C184.637 31.0149 184.338 31.0842 184.144 31.1307C183.681 31.2419 183.174 31.3895 182.652 31.5544C181.601 31.886 180.262 32.3605 178.666 32.959C176.066 33.9342 172.009 34.8509 166.285 35.6142L166.204 35.6249L152.112 37.9736L143.828 39.1786L146.409 30.6284C146.425 30.5789 146.444 30.5246 146.464 30.4649C146.635 29.9628 146.9 29.2087 147.264 28.1895C147.99 26.1574 149.083 23.1446 150.547 19.1437L150.566 19.0928L150.583 19.0415C153.331 10.9944 155.345 6.05684 156.638 3.79319L156.669 3.73848L156.699 3.683C158.115 1.05423 159.348 -1.84597 159.348 -4.54688V-5.13281C159.348 -7.54996 158.403 -9.78731 157.245 -11.6866C156.684 -12.7697 156.006 -13.7872 155.23 -14.7424L158.617 -15.0952C165.769 -15.6742 176.028 -16.3521 189.417 -17.1285L213.427 -17.7141L213.497 -17.7178C217.304 -17.9182 220.927 -18.2196 224.365 -18.6241L224.383 -18.6262L224.401 -18.6285C226.23 -18.857 228.082 -19.2709 229.679 -20.0699C231.317 -20.8884 233.152 -22.3683 233.862 -24.853L234.055 -25.5263V-26.2266C234.055 -27.7501 233.522 -29.0585 233.087 -29.9275C232.63 -30.8418 232.031 -31.7541 231.374 -32.6386C229.573 -35.2778 226.795 -37.3618 223.609 -39.0746C220.399 -40.9875 217.045 -42.4091 213.552 -43.3116C210.076 -44.5866 206.638 -45.2891 203.273 -45.2891C200.713 -45.2891 197.113 -44.6824 192.79 -43.6999C188.596 -42.7467 185.056 -42.0987 182.145 -41.7348L181.994 -41.7159L181.844 -41.6878C178.836 -41.1238 176.12 -40.6547 173.692 -40.2786C170.971 -40.0615 165.487 -39.4708 157.343 -38.524C148.919 -37.7398 140.688 -36.8577 132.649 -35.8773L132.641 -35.8764L99.8552 -31.7781L63.0549 -27.6892C61.5947 -27.5718 60.0214 -27.3179 58.6281 -26.7207C57.2189 -26.1168 55.0813 -24.726 54.5229 -21.9337L54.4258 -21.4482V-20.3672C54.4258 -17.5968 55.8335 -15.4235 57.3551 -13.902L57.6064 -13.6507L57.8906 -13.4375C59.8103 -11.9977 62.4668 -10.4733 65.6858 -8.8638C68.809 -7.30219 71.5384 -6.119 73.6582 -5.57636C75.5402 -5.04807 77.5522 -4.82031 79.6406 -4.82031H82.014L89.5501 -6.70435C93.0689 -7.44117 97.7768 -8.19638 103.718 -8.96298L121.98 -11.3347L122.2 -10.5413C122.303 -9.71449 122.392 -7.85937 122.394 -4.67209C122.206 -0.972137 121.834 3.12405 121.274 7.62244C120.511 12.1916 119.46 17.7324 118.118 24.2555L113.681 42.9893L91.3901 45.269L91.3437 45.2746C84.9612 46.0482 80.2163 46.4102 77.0039 46.4102H73.7812C72.3355 46.4102 70.6386 46.5294 69.1299 47.1096C68.3384 47.4141 67.3007 47.9575 66.4322 48.9595C65.4791 50.0592 64.9727 51.438 64.9727 52.875V53.168C64.9727 54.1374 65.2376 54.9225 65.3555 55.2525C65.5087 55.6815 65.6947 56.0853 65.8667 56.4294C66.2133 57.1226 66.6738 57.9098 67.1975 58.7477L67.3101 58.9277L67.4375 59.0977C68.9134 61.0656 70.6699 62.7267 72.7089 64.0323C74.7056 65.4975 76.9039 66.5457 79.288 67.0976C81.1 67.6003 82.983 67.8359 84.9141 67.8359H86.6719C87.2348 67.8359 87.8207 67.738 88.057 67.6985L88.0798 67.6947C88.4492 67.6331 88.8993 67.5481 89.4103 67.4459C90.4021 67.2475 91.7464 66.9597 93.428 66.5867L103.501 65.1478L107.963 64.4947L104.689 76.4999L104.679 76.5382C102.56 84.8232 100.052 93.4107 97.1526 102.301L97.1373 102.348L97.1229 102.396C94.6893 110.392 91.9409 118.866 88.8766 127.818L72.2427 129.041L44.8545 131.125L44.4434 131.227C44.4408 131.228 44.4199 131.233 44.3775 131.241C44.3312 131.25 44.2671 131.262 44.1828 131.275C44.012 131.301 43.785 131.331 43.4938 131.361C42.9081 131.422 42.1399 131.477 41.1704 131.523C39.2318 131.616 36.6344 131.664 33.3516 131.664H33.2088ZM120.437 113.582C126.985 93.1675 130.806 81.1206 131.861 77.558C132.946 74.4657 134.614 69.0838 136.848 61.4928L159.213 58.4431C159.518 58.4237 159.846 58.3924 160.093 58.3689L160.132 58.3652C160.669 58.314 161.408 58.2387 162.342 58.1405C164.207 57.9442 166.895 57.651 170.399 57.2616C172.216 57.0807 173.794 56.9961 175.148 56.9961C176.853 56.9961 177.988 57.1499 178.683 57.3369C178.914 57.3992 179.058 57.4546 179.137 57.4893L179.23 57.5824C179.649 58.0013 179.816 58.3852 179.816 59.0273V59.9062C179.816 61.2672 179.149 64.9056 177.356 71.4813L173.282 86.3221C172.151 89.8948 170.536 94.4557 168.423 100.028L159.895 122.509L116.581 125.334L120.432 113.598L120.437 113.582Z" fill="black"/>
</svg>
