<svg width="350" height="350" viewBox="0 0 350 350" fill="none" xmlns="http://www.w3.org/2000/svg">
<path d="M118.906 181.625C116.62 181.625 113.739 182.086 111.496 184.134C109.52 185.751 108.426 188.061 108.426 190.641C108.426 193.019 109.473 195.499 110.471 197.495L110.525 197.602L110.583 197.706C111.204 198.825 111.711 200.258 112.016 202.092L112.023 202.132L112.03 202.171C112.361 203.991 112.736 207.527 113.127 213.005C113.518 218.482 113.699 222.111 113.699 224.039V264.595L63.7106 274.001L63.6999 274.003C60.0045 274.684 57.1631 275.189 55.1603 275.523C54.1548 275.691 53.3902 275.81 52.8483 275.886C52.5456 275.928 52.3733 275.948 52.297 275.957C52.2797 275.959 52.2673 275.96 52.2595 275.961H52.0373L42.9088 277.178L33.2265 278.388L32.9043 278.469C31.899 278.72 30.8472 279.058 29.8743 279.545C29.0413 279.961 27.8991 280.667 26.9908 281.857C26.2445 282.779 25.9121 283.739 25.7531 284.375C25.5581 285.155 25.5156 285.883 25.5156 286.441C25.5156 287.664 25.804 288.785 26.0908 289.646L26.3238 290.344L26.7323 290.957C28.3145 293.33 30.9093 295.02 33.4644 296.305L41.6703 300.701L41.7395 300.736C43.1039 301.418 44.8229 302.165 46.8441 302.974L47.1906 303.112L47.5528 303.203C49.5893 303.712 51.7003 303.953 53.8672 303.953H55.918C59.1581 303.953 63.5587 302.938 68.6683 301.366C73.5723 299.857 80.1715 298.132 88.5114 296.193L88.569 296.18L102.369 292.656L102.382 292.653C104.999 291.999 108.636 291.157 113.307 290.127L112.527 304.16V307.242C112.527 311.95 112.833 317.784 113.426 324.704L113.433 324.787L113.443 324.87C114.453 333.558 116.086 341.285 118.392 347.995L118.427 348.094L118.465 348.193C121.048 354.866 124.608 360.438 129.289 364.651L129.457 364.801L129.636 364.937C134.106 368.343 138.908 371.12 144.037 373.257L144.222 373.334L144.413 373.397C149.44 375.073 155.109 376.405 161.39 377.418L161.464 377.43L161.539 377.44C167.685 378.26 174.476 378.66 181.895 378.66H185.996C192.039 378.66 198.081 378.358 204.121 377.754L204.136 377.753L204.15 377.751C211.628 376.964 217.803 376.169 222.642 375.363C227.437 374.564 232.886 373.473 238.981 372.098C244.922 370.944 250.024 369.444 253.247 367.165C256.159 365.273 258.879 362.257 258.879 357.926C258.879 355.874 258.104 354.085 257.333 352.753C256.526 351.358 255.438 349.982 254.211 348.643C251.456 345.638 247.958 343.28 243.894 341.474C239.833 339.669 235.75 338.656 231.699 338.656H230.929L230.188 338.868C228.687 339.297 225.838 340.215 221.757 341.575C217.868 342.871 213.178 344.189 207.662 345.523C201.888 346.677 197.22 347.532 193.634 348.099L193.496 348.12L193.359 348.149C190.007 348.855 185.519 349.417 179.816 349.798C176.008 349.988 172.405 350.082 169.004 350.082H163.824C158.275 349.892 154.527 349.248 152.239 348.402C149.931 347.471 148.164 346.3 146.819 344.955C145.67 343.806 144.334 341.878 142.926 338.885C141.821 336.537 140.89 332.315 140.511 325.682C140.124 318.727 139.934 312.584 139.934 307.242C139.934 302.63 140.3 295.181 141.054 284.805L170.936 280.463L170.967 280.458L196.072 276.955C202.605 276.188 210.705 275.416 220.387 274.641L246.097 272.888C253.3 272.499 258.312 272.204 261.095 272.006C264.129 271.789 267.154 271.219 269.584 269.83L270.005 269.59L270.376 269.28C271.955 267.964 273.458 266.288 274.306 264.168L274.699 263.184V261.539C274.699 259.028 273.476 257.055 272.419 255.772C271.322 254.44 269.893 253.229 268.348 252.122C265.094 249.683 262.043 247.675 259.209 246.15L259.06 246.069L258.906 245.998C256.239 244.768 253.299 243.551 250.092 242.348C247.082 241.146 244.439 240.246 242.267 239.764L241.678 239.633H241.074C237.835 239.633 234.298 240.093 230.506 240.936C226.914 241.734 221.19 243.116 213.373 245.07L213.327 245.082L213.282 245.094C205.341 247.224 199.035 248.751 194.323 249.694L142.168 259.506L144.025 232.576L144.028 232.531C144.213 229.001 144.586 225.259 145.152 221.301L145.168 221.186L145.18 221.071C145.558 217.288 146.014 214.459 146.508 212.482C146.988 210.559 147.721 208.592 148.728 206.577C149.726 204.581 150.773 202.101 150.773 199.723V199.43C150.773 196.922 149.902 194.653 148.396 192.771L148.206 192.533L147.991 192.318C146.586 190.913 144.621 189.486 142.367 188.051L142.21 187.952L142.048 187.863C139.655 186.558 137.278 185.524 134.921 184.81C132.829 184.121 130.073 183.499 126.79 182.914C123.732 182.156 120.974 181.625 118.906 181.625Z" fill="black"/>
<path fill-rule="evenodd" clip-rule="evenodd" d="M33.2088 131.664L22.9292 132.251C21.57 132.275 20.1196 132.591 18.7674 133.402C17.5408 134.138 16.6293 135.142 15.983 136.242C15.0773 137.526 14.875 138.923 14.875 139.887C14.875 141.654 15.6074 143.08 16.1694 143.963C16.7335 144.849 17.4481 145.684 18.2029 146.456C20.3862 149.087 23.729 151.448 27.7193 153.643L27.7638 153.667L27.8089 153.691C31.9266 155.848 35.1465 157.416 37.354 158.299C39.9615 159.342 42.7489 159.828 45.6562 159.828C46.9712 159.828 48.6351 159.566 50.3722 159.218C52.2091 158.851 54.4817 158.313 57.165 157.617C62.1115 156.335 69.8444 155.001 80.5109 153.643L108.251 150.722L108.27 150.721C116.166 149.951 130.517 148.98 151.405 147.809L151.43 147.807L151.454 147.806C172.131 146.44 188.052 145.665 199.258 145.472L199.26 145.472C210.367 145.277 220.884 145.18 230.812 145.18C240.88 145.18 249.007 145.471 255.239 146.036C259.207 146.432 262.511 146.645 265.09 146.645C266.56 146.645 268.034 146.571 269.319 146.314L277.297 145.764C278.865 145.739 280.572 145.402 282.139 144.438C283.754 143.444 284.853 142.008 285.501 140.411C285.933 139.468 286.203 138.402 286.203 137.25C286.203 134.079 284.274 131.528 282.554 129.773C280.06 126.844 276.765 124.561 272.894 122.813C269.193 120.771 265.458 119.114 261.691 117.858C258.048 116.644 254.844 115.776 252.142 115.326L251.734 115.258H249.27C246.865 115.258 243.735 115.473 239.957 115.871L239.823 115.885L239.691 115.907C235.009 116.656 227.844 117.425 218.109 118.203L218.089 118.205L198.216 119.958L191.084 120.386L199.825 94.854L199.847 94.7831C202.354 86.6821 204.44 80.6263 206.108 76.5354C207.991 72.3936 209.486 69.2165 210.601 66.9777C211.766 65.0041 213.188 63.0837 214.883 61.2188L215.042 61.0442L215.184 60.8555C216.894 58.5744 218.376 56.4132 219.049 54.732L219.406 53.8379V52.875C219.406 49.3973 217.139 46.5028 215.096 44.4429C212.723 41.8552 209.758 39.6164 206.311 37.6773L206.299 37.6708L206.288 37.6644C202.658 35.6477 199.195 33.9143 195.903 32.4739L195.862 32.4562L195.822 32.4393C193.117 31.3125 190.389 30.5898 187.746 30.5898C186.804 30.5898 185.884 30.7193 184.995 30.9613C184.637 31.0149 184.338 31.0842 184.144 31.1307C183.681 31.2419 183.174 31.3895 182.652 31.5544C181.601 31.886 180.262 32.3605 178.666 32.959C176.066 33.9342 172.009 34.8509 166.285 35.6142L166.204 35.6249L152.112 37.9736L143.828 39.1786L146.409 30.6284C146.425 30.5789 146.444 30.5246 146.464 30.4649C146.635 29.9628 146.9 29.2087 147.264 28.1895C147.99 26.1574 149.083 23.1446 150.547 19.1437L150.566 19.0928L150.583 19.0415C153.331 10.9944 155.345 6.05684 156.638 3.79319L156.669 3.73848L156.699 3.683C158.115 1.05423 159.348 -1.84597 159.348 -4.54688V-5.13281C159.348 -7.54996 158.403 -9.78731 157.245 -11.6866C156.684 -12.7697 156.006 -13.7872 155.23 -14.7424L158.617 -15.0952C165.769 -15.6742 176.028 -16.3521 189.417 -17.1285L213.427 -17.7141L213.497 -17.7178C217.304 -17.9182 220.927 -18.2196 224.365 -18.6241L224.383 -18.6262L224.401 -18.6285C226.23 -18.857 228.082 -19.2709 229.679 -20.0699C231.317 -20.8884 233.152 -22.3683 233.862 -24.853L234.055 -25.5263V-26.2266C234.055 -27.7501 233.522 -29.0585 233.087 -29.9275C232.63 -30.8418 232.031 -31.7541 231.374 -32.6386C229.573 -35.2778 226.795 -37.3618 223.609 -39.0746C220.399 -40.9875 217.045 -42.4091 213.552 -43.3116C210.076 -44.5866 206.638 -45.2891 203.273 -45.2891C200.713 -45.2891 197.113 -44.6824 192.79 -43.6999C188.596 -42.7467 185.056 -42.0987 182.145 -41.7348L181.994 -41.7159L181.844 -41.6878C178.836 -41.1238 176.12 -40.6547 173.692 -40.2786C170.971 -40.0615 165.487 -39.4708 157.343 -38.524C148.919 -37.7398 140.688 -36.8577 132.649 -35.8773L132.641 -35.8764L99.8552 -31.7781L63.0549 -27.6892C61.5947 -27.5718 60.0214 -27.3179 58.6281 -26.7207C57.2189 -26.1168 55.0813 -24.726 54.5229 -21.9337L54.4258 -21.4482V-20.3672C54.4258 -17.5968 55.8335 -15.4235 57.3551 -13.902L57.6064 -13.6507L57.8906 -13.4375C59.8103 -11.9977 62.4668 -10.4733 65.6858 -8.8638C68.809 -7.30219 71.5384 -6.119 73.6582 -5.57636C75.5402 -5.04807 77.5522 -4.82031 79.6406 -4.82031H82.014L89.5501 -6.70435C93.0689 -7.44117 97.7768 -8.19638 103.718 -8.96298L121.98 -11.3347L122.2 -10.5413C122.303 -9.71449 122.392 -7.85937 122.394 -4.67209C122.206 -0.972137 121.834 3.12405 121.274 7.62244C120.511 12.1916 119.46 17.7324 118.118 24.2555L113.681 42.9893L91.3901 45.269L91.3437 45.2746C84.9612 46.0482 80.2163 46.4102 77.0039 46.4102H73.7812C72.3355 46.4102 70.6386 46.5294 69.1299 47.1096C68.3384 47.4141 67.3007 47.9575 66.4322 48.9595C65.4791 50.0592 64.9727 51.438 64.9727 52.875V53.168C64.9727 54.1374 65.2376 54.9225 65.3555 55.2525C65.5087 55.6815 65.6947 56.0853 65.8667 56.4294C66.2133 57.1226 66.6738 57.9098 67.1975 58.7477L67.3101 58.9277L67.4375 59.0977C68.9134 61.0656 70.6699 62.7267 72.7089 64.0323C74.7056 65.4975 76.9039 66.5457 79.288 67.0976C81.1 67.6003 82.983 67.8359 84.9141 67.8359H86.6719C87.2348 67.8359 87.8207 67.738 88.057 67.6985L88.0798 67.6947C88.4492 67.6331 88.8993 67.5481 89.4103 67.4459C90.4021 67.2475 91.7464 66.9597 93.428 66.5867L103.501 65.1478L107.963 64.4947L104.689 76.4999L104.679 76.5382C102.56 84.8232 100.052 93.4107 97.1526 102.301L97.1373 102.348L97.1229 102.396C94.6893 110.392 91.9409 118.866 88.8766 127.818L72.2427 129.041L44.8545 131.125L44.4434 131.227C44.4408 131.228 44.4199 131.233 44.3775 131.241C44.3312 131.25 44.2671 131.262 44.1828 131.275C44.012 131.301 43.785 131.331 43.4938 131.361C42.9081 131.422 42.1399 131.477 41.1704 131.523C39.2318 131.616 36.6344 131.664 33.3516 131.664H33.2088ZM120.437 113.582C126.985 93.1675 130.806 81.1206 131.861 77.558C132.946 74.4657 134.614 69.0838 136.848 61.4928L159.213 58.4431C159.518 58.4237 159.846 58.3924 160.093 58.3689L160.132 58.3652C160.669 58.314 161.408 58.2387 162.342 58.1405C164.207 57.9442 166.895 57.651 170.399 57.2616C172.216 57.0807 173.794 56.9961 175.148 56.9961C176.853 56.9961 177.988 57.1499 178.683 57.3369C178.914 57.3992 179.058 57.4546 179.137 57.4893L179.23 57.5824C179.649 58.0013 179.816 58.3852 179.816 59.0273V59.9062C179.816 61.2672 179.149 64.9056 177.356 71.4813L173.282 86.3221C172.151 89.8948 170.536 94.4557 168.423 100.028L159.895 122.509L116.581 125.334L120.432 113.598L120.437 113.582Z" fill="black"/>
</svg>
