<svg width="350" height="350" viewBox="0 0 350 350" fill="none" xmlns="http://www.w3.org/2000/svg">
<path d="M120.391 183.047H120.159L119.928 183.063C116.884 183.281 114.052 183.734 111.597 184.552C110.42 184.944 109.177 185.463 108.039 186.187C106.935 186.889 105.526 188.042 104.616 189.863L103.93 191.235V193.355C103.93 196.214 105.14 198.79 107.317 200.596C109.011 202.171 111.031 203.133 113.039 203.707L113.336 203.792L121.393 205.284C124.233 205.961 126.481 206.757 128.219 207.613C129.768 208.472 131.556 209.771 133.577 211.624C135.755 213.621 137.333 215.304 138.404 216.682L138.52 216.83L138.643 216.972C139.453 217.897 140.72 219.838 142.409 223.215C144.271 226.939 148.082 233.749 153.733 243.492C159.338 253.156 165.934 265.183 173.527 279.589C181.138 294.031 186.58 304.03 189.799 309.462L189.808 309.477L203.006 331.474L203.011 331.482C205.921 336.299 208.618 340.312 211.099 343.439C213.484 346.448 216.039 349.118 218.755 350.716C222.394 352.856 225.935 354.49 229.347 355.465L229.557 355.525L229.771 355.571C233.224 356.31 238.206 356.594 244.316 356.594H258.181L288.374 355.714C290.126 355.698 292.387 355.293 294.373 353.705C296.504 352 297.391 349.682 297.641 347.677L297.691 347.276V346.285C297.691 340.687 293.001 337.98 290.36 336.847L281.485 332.553C281.46 332.54 281.403 332.51 281.307 332.459C281.232 332.419 281.132 332.366 281.004 332.297C280.675 332.121 280.221 331.876 279.639 331.561C278.475 330.931 276.822 330.031 274.675 328.86L274.573 328.805L257.477 320.257C255.075 319.056 251.22 316.775 245.781 313.278L245.737 313.251L245.693 313.223C240.29 309.869 234.648 305.831 228.768 301.089L228.729 301.057L228.689 301.026C222.81 296.433 217.267 291.081 212.066 284.951L212.029 284.908L211.992 284.866C206.489 278.604 202.225 273.122 199.131 268.402L180.122 237.11L166.376 215.176C162.465 208.53 159.019 203.234 156.06 199.416C153.109 195.352 149.63 191.97 145.601 189.363C141.641 186.801 137.387 185.018 132.863 184.065L132.676 184.026L132.488 183.998C128.301 183.37 124.266 183.047 120.391 183.047Z" fill="black"/>
<path d="M19.3326 342.471L19.3193 342.481L17.152 344.029L17.0137 344.139C16.2624 344.74 15.4033 345.532 14.6863 346.535C13.9832 347.52 13.1094 349.145 13.1094 351.266C13.1094 352.658 13.4619 354.896 15.3061 356.741C16.9954 358.43 19.1734 359.23 21.3672 359.23C22.58 359.23 23.6856 358.979 24.5544 358.711L28.2093 357.867L28.3154 357.839C30.6432 357.218 33.4067 355.852 36.3003 354.205C39.3141 352.491 42.9559 350.186 47.1951 347.328C55.5414 342.016 61.163 338.315 63.8006 336.354C66.6906 334.392 71.4219 330.235 77.673 324.363C84.0997 318.325 88.9796 313.552 92.245 310.088C95.8836 306.437 100.175 301.194 105.083 294.521C110.182 287.854 113.335 283.88 114.702 282.342L114.783 282.25L118.883 277.272C120.127 275.879 121.241 274.759 122.227 273.883C122.836 273.499 123.357 273.164 123.776 272.885L123.828 272.851C124.135 272.647 124.959 272.101 125.573 271.487L126.319 270.741L126.79 269.798C127.816 267.746 128.062 265.531 128.062 263.668V261.372L127.974 260.842C127.156 255.933 123.339 251.978 119.438 248.898L119.375 248.848L119.31 248.8C115.305 245.796 111.689 243.447 108.558 241.989C105.632 240.538 102.51 239.59 99.2969 239.59C98.2771 239.59 97.2021 239.651 96.1566 239.841C95.1768 240.019 93.7931 240.384 92.4687 241.267L91.0324 242.225L90.2604 243.769C89.2596 245.771 88.9136 248.374 88.722 250.482C88.5457 252.421 88.2807 254.469 87.9234 256.628C87.6228 258.079 86.8922 260.497 85.5805 264.058L85.5275 264.201L85.4814 264.347C84.4347 267.662 83.0268 271.016 81.2402 274.41C79.474 277.766 76.922 281.797 73.5141 286.53L73.4631 286.601L73.414 286.673C70.2639 291.306 66.3227 296.381 61.5612 301.904L61.5257 301.945L61.4909 301.987C56.7038 307.732 52.2469 312.658 48.1187 316.787C43.9211 320.984 38.8301 325.789 32.8321 331.206C27.0419 336.417 22.5636 340.136 19.3326 342.471Z" fill="black"/>
<path fill-rule="evenodd" clip-rule="evenodd" d="M33.2088 131.664L22.9292 132.251C21.57 132.275 20.1196 132.591 18.7674 133.402C17.5408 134.138 16.6293 135.142 15.983 136.242C15.0773 137.526 14.875 138.923 14.875 139.887C14.875 141.654 15.6074 143.08 16.1694 143.963C16.7335 144.849 17.4481 145.684 18.2029 146.456C20.3862 149.087 23.729 151.448 27.7193 153.643L27.7638 153.667L27.8089 153.691C31.9266 155.848 35.1465 157.416 37.354 158.299C39.9615 159.342 42.7489 159.828 45.6562 159.828C46.9712 159.828 48.6351 159.566 50.3722 159.218C52.2091 158.851 54.4817 158.313 57.165 157.617C62.1115 156.335 69.8444 155.001 80.5109 153.643L108.251 150.722L108.27 150.721C116.166 149.951 130.517 148.98 151.405 147.809L151.43 147.807L151.454 147.806C172.131 146.44 188.052 145.665 199.258 145.472L199.26 145.472C210.367 145.277 220.884 145.18 230.812 145.18C240.88 145.18 249.007 145.471 255.239 146.036C259.207 146.432 262.511 146.645 265.09 146.645C266.56 146.645 268.034 146.571 269.319 146.314L277.297 145.764C278.865 145.739 280.572 145.402 282.139 144.438C283.754 143.444 284.853 142.008 285.501 140.411C285.933 139.468 286.203 138.402 286.203 137.25C286.203 134.079 284.274 131.528 282.554 129.773C280.06 126.844 276.765 124.561 272.894 122.813C269.193 120.771 265.458 119.114 261.691 117.858C258.048 116.644 254.844 115.776 252.142 115.326L251.734 115.258H249.27C246.865 115.258 243.735 115.473 239.957 115.871L239.823 115.885L239.691 115.907C235.009 116.656 227.844 117.425 218.109 118.203L218.089 118.205L198.216 119.958L191.084 120.386L199.825 94.854L199.847 94.7831C202.354 86.6821 204.44 80.6263 206.108 76.5354C207.991 72.3936 209.486 69.2165 210.601 66.9777C211.766 65.0041 213.188 63.0837 214.883 61.2188L215.042 61.0442L215.184 60.8555C216.894 58.5744 218.376 56.4132 219.049 54.732L219.406 53.8379V52.875C219.406 49.3973 217.139 46.5028 215.096 44.4429C212.723 41.8552 209.758 39.6164 206.311 37.6773L206.299 37.6708L206.288 37.6644C202.658 35.6477 199.195 33.9143 195.903 32.4739L195.862 32.4562L195.822 32.4393C193.117 31.3125 190.389 30.5898 187.746 30.5898C186.804 30.5898 185.884 30.7193 184.995 30.9613C184.637 31.0149 184.338 31.0842 184.144 31.1307C183.681 31.2419 183.174 31.3895 182.652 31.5544C181.601 31.886 180.262 32.3605 178.666 32.959C176.066 33.9342 172.009 34.8509 166.285 35.6142L166.204 35.6249L152.112 37.9736L143.828 39.1786L146.409 30.6284C146.425 30.5789 146.444 30.5246 146.464 30.4649C146.635 29.9628 146.9 29.2087 147.264 28.1895C147.99 26.1574 149.083 23.1446 150.547 19.1437L150.566 19.0928L150.583 19.0415C153.331 10.9944 155.345 6.05684 156.638 3.79319L156.669 3.73848L156.699 3.683C158.115 1.05423 159.348 -1.84597 159.348 -4.54688V-5.13281C159.348 -7.54996 158.403 -9.78731 157.245 -11.6866C156.684 -12.7697 156.006 -13.7872 155.23 -14.7424L158.617 -15.0952C165.769 -15.6742 176.028 -16.3521 189.417 -17.1285L213.427 -17.7141L213.497 -17.7178C217.304 -17.9182 220.927 -18.2196 224.365 -18.6241L224.383 -18.6262L224.401 -18.6285C226.23 -18.857 228.082 -19.2709 229.679 -20.0699C231.317 -20.8884 233.152 -22.3683 233.862 -24.853L234.055 -25.5263V-26.2266C234.055 -27.7501 233.522 -29.0585 233.087 -29.9275C232.63 -30.8418 232.031 -31.7541 231.374 -32.6386C229.573 -35.2778 226.795 -37.3618 223.609 -39.0746C220.399 -40.9875 217.045 -42.4091 213.552 -43.3116C210.076 -44.5866 206.638 -45.2891 203.273 -45.2891C200.713 -45.2891 197.113 -44.6824 192.79 -43.6999C188.596 -42.7467 185.056 -42.0987 182.145 -41.7348L181.994 -41.7159L181.844 -41.6878C178.836 -41.1238 176.12 -40.6547 173.692 -40.2786C170.971 -40.0615 165.487 -39.4708 157.343 -38.524C148.919 -37.7398 140.688 -36.8577 132.649 -35.8773L132.641 -35.8764L99.8552 -31.7781L63.0549 -27.6892C61.5947 -27.5718 60.0214 -27.3179 58.6281 -26.7207C57.2189 -26.1168 55.0813 -24.726 54.5229 -21.9337L54.4258 -21.4482V-20.3672C54.4258 -17.5968 55.8335 -15.4235 57.3551 -13.902L57.6064 -13.6507L57.8906 -13.4375C59.8103 -11.9977 62.4668 -10.4733 65.6858 -8.8638C68.809 -7.30219 71.5384 -6.119 73.6582 -5.57636C75.5402 -5.04807 77.5522 -4.82031 79.6406 -4.82031H82.014L89.5501 -6.70435C93.0689 -7.44117 97.7768 -8.19638 103.718 -8.96298L121.98 -11.3347L122.2 -10.5413C122.303 -9.71449 122.392 -7.85937 122.394 -4.67209C122.206 -0.972137 121.834 3.12405 121.274 7.62244C120.511 12.1916 119.46 17.7324 118.118 24.2555L113.681 42.9893L91.3901 45.269L91.3437 45.2746C84.9612 46.0482 80.2163 46.4102 77.0039 46.4102H73.7812C72.3355 46.4102 70.6386 46.5294 69.1299 47.1096C68.3384 47.4141 67.3007 47.9575 66.4322 48.9595C65.4791 50.0592 64.9727 51.438 64.9727 52.875V53.168C64.9727 54.1374 65.2376 54.9225 65.3555 55.2525C65.5087 55.6815 65.6947 56.0853 65.8667 56.4294C66.2133 57.1226 66.6738 57.9098 67.1975 58.7477L67.3101 58.9277L67.4375 59.0977C68.9134 61.0656 70.6699 62.7267 72.7089 64.0323C74.7056 65.4975 76.9039 66.5457 79.288 67.0976C81.1 67.6003 82.983 67.8359 84.9141 67.8359H86.6719C87.2348 67.8359 87.8207 67.738 88.057 67.6985L88.0798 67.6947C88.4492 67.6331 88.8993 67.5481 89.4103 67.4459C90.4021 67.2475 91.7464 66.9597 93.428 66.5867L103.501 65.1478L107.963 64.4947L104.689 76.4999L104.679 76.5382C102.56 84.8232 100.052 93.4107 97.1526 102.301L97.1373 102.348L97.1229 102.396C94.6893 110.392 91.9409 118.866 88.8766 127.818L72.2427 129.041L44.8545 131.125L44.4434 131.227C44.4408 131.228 44.4199 131.233 44.3775 131.241C44.3312 131.25 44.2671 131.262 44.1828 131.275C44.012 131.301 43.785 131.331 43.4938 131.361C42.9081 131.422 42.1399 131.477 41.1704 131.523C39.2318 131.616 36.6344 131.664 33.3516 131.664H33.2088ZM120.437 113.582C126.985 93.1675 130.806 81.1206 131.861 77.558C132.946 74.4657 134.614 69.0838 136.848 61.4928L159.213 58.4431C159.518 58.4237 159.846 58.3924 160.093 58.3689L160.132 58.3652C160.669 58.314 161.408 58.2387 162.342 58.1405C164.207 57.9442 166.895 57.651 170.399 57.2616C172.216 57.0807 173.794 56.9961 175.148 56.9961C176.853 56.9961 177.988 57.1499 178.683 57.3369C178.914 57.3992 179.058 57.4546 179.137 57.4893L179.23 57.5824C179.649 58.0013 179.816 58.3852 179.816 59.0273V59.9062C179.816 61.2672 179.149 64.9056 177.356 71.4813L173.282 86.3221C172.151 89.8948 170.536 94.4557 168.423 100.028L159.895 122.509L116.581 125.334L120.432 113.598L120.437 113.582Z" fill="black"/>
</svg>
