<svg width="350" height="350" viewBox="0 0 350 350" fill="none" xmlns="http://www.w3.org/2000/svg">
<path fill-rule="evenodd" clip-rule="evenodd" d="M31.2187 330.206C33.2732 332.314 36.1441 335.076 39.1618 336.498C42.0449 337.929 45.0952 338.852 48.2148 338.852C49.7204 338.852 52.2304 338.402 54.9579 337.856L54.9982 337.848L55.0384 337.839C57.6405 337.282 61.7235 336.52 67.3449 335.551L74.8239 334.4C77.9177 334.015 83.896 333.34 92.8027 332.372L92.8085 332.371L114.988 330.036C118.398 329.753 122.506 329.468 128.127 329.181C127.95 337.544 127.624 344.907 127.312 351.345C127.257 352.478 127.202 353.586 127.149 354.669L127.149 354.673C126.828 361.186 126.551 366.796 126.542 371.367C126.533 376.487 126.823 381.355 128.354 385.053C129.186 387.064 130.508 389.05 132.615 390.477C134.731 391.911 137.088 392.41 139.328 392.41H139.621C143.872 392.41 148.471 391.799 152.212 388.692C155.927 385.606 157.652 381.015 158.603 375.889C159.565 370.705 159.917 363.895 160.002 355.208C160.076 347.736 159.951 338.591 159.776 327.5L201.838 325.961C203.922 325.964 212.033 326.061 226.259 326.253L226.27 326.254L255.829 326.543C259.586 326.991 264.321 327.182 268.893 325.675C270.142 325.286 271.994 324.583 273.651 323.304C275.431 321.93 277.457 319.473 277.457 315.859C277.457 314.636 277.183 312.734 276.791 311.034C276.44 309.513 275.707 306.793 274.142 304.781L274.01 304.611L273.866 304.451C271.095 301.372 266.11 298.816 260.324 296.495C254.762 294.004 250.488 292.265 247.84 291.543L247.779 291.527L247.717 291.511C245.005 290.833 242.36 290.453 239.816 290.453C237.8 290.453 234.964 291.042 231.916 291.804C228.959 292.543 226.234 293.086 223.734 293.443C221.152 293.812 216.028 294.384 208.243 295.163L188.434 296.619L188.4 296.622L160.306 298.526L160.531 258.644C166.91 258.059 174.26 257.282 181.698 256.496L181.699 256.496L181.702 256.495C183.053 256.352 184.408 256.209 185.76 256.067C196.881 254.896 207.837 253.778 216.034 253.266L216.22 253.254L216.404 253.231C219.753 252.812 222.899 252.124 225.375 250.886C226.31 250.418 227.224 249.905 228.036 249.336C228.772 248.821 229.814 247.996 230.613 246.797L231.621 245.285V243.469C231.621 241.27 230.885 239.035 230.181 237.435C229.484 235.852 228.335 233.788 226.705 232.321L226.382 232.03L226.02 231.789C223.354 230.012 220.49 228.473 217.438 227.165L217.208 227.067L216.972 226.988C213.894 225.962 210.987 225.252 208.312 224.977C203.987 224.184 199.758 224.845 196.438 225.595L161.672 230.133L161.795 228.786L161.795 228.785C162.034 226.156 162.272 223.543 162.593 220.961C163.324 215.1 164.397 210.326 166.217 207.141L166.3 206.996L166.374 206.847C167.765 204.066 169.059 200.908 169.059 198.012C169.059 195.536 167.988 193.544 166.865 192.14C165.787 190.792 164.416 189.668 163.009 188.718C160.069 186.541 156.427 184.773 152.274 183.31C148 181.611 143.802 180.493 139.698 180.037L139.367 180H139.035C137.368 180 135.705 180.105 134.218 180.436C132.984 180.71 130.59 181.401 128.962 183.572L128.637 184.005L128.395 184.489C126.926 187.426 127.107 190.295 127.529 192.354C127.828 193.811 128.402 195.428 128.745 196.398C128.829 196.634 128.899 196.832 128.949 196.979C129.627 199.014 130.105 202.37 130.105 207.387V207.414L130.348 234.431L99.8646 236.662L99.7924 236.669C91.8089 237.448 84.3177 238.129 77.3181 238.712L77.2957 238.714L70.8468 239.3C69.8608 239.384 68.0543 239.647 66.2997 240.354C65.4187 240.709 64.1671 241.326 63.0545 242.406C61.8438 243.581 60.6836 245.448 60.6836 247.914C60.6836 248.897 60.8997 249.836 61.0442 250.388C61.2259 251.082 61.4835 251.856 61.8183 252.647C62.412 254.048 63.5502 256.221 65.5684 257.819C68.2875 260.034 71.301 261.648 74.6034 262.473L74.6563 262.486L74.7094 262.499C78.9036 263.467 83.1031 263.824 87.1914 263.824C90.9505 263.824 96.1934 263.517 102.822 262.934L129.52 261.752V300.412L122.646 301.117L122.295 301.257C121.997 301.305 121.541 301.368 120.897 301.447C119.571 301.608 117.648 301.81 115.102 302.052C110.021 302.536 102.611 303.168 92.8536 303.949C73.3174 305.512 59.7953 306.378 52.1665 306.568C44.2887 306.765 40.1087 306.859 39.4258 306.859H39.1954L30.9872 307.491L30.6319 307.562C27.8307 308.122 24.4063 309.56 22.6334 313.106L22 314.373V315.789C22 317.291 22.2433 318.845 22.9116 320.391C23.5718 321.918 24.5158 323.134 25.5152 324.133C26.2013 324.819 27.0176 325.705 28.0174 326.792L28.0854 326.866C29.033 327.897 30.1106 329.069 31.2187 330.206ZM155.726 229.265C155.757 228.929 155.788 228.59 155.819 228.25L155.82 228.236C155.789 228.581 155.758 228.924 155.726 229.265ZM122.587 301.205C122.587 301.205 122.568 301.209 122.526 301.217C122.564 301.208 122.586 301.204 122.587 301.205Z" fill="black"/>
<path fill-rule="evenodd" clip-rule="evenodd" d="M33.2088 131.664L22.9292 132.251C21.57 132.275 20.1196 132.591 18.7674 133.402C17.5408 134.138 16.6293 135.142 15.983 136.242C15.0773 137.526 14.875 138.923 14.875 139.887C14.875 141.654 15.6074 143.08 16.1694 143.963C16.7335 144.849 17.4481 145.684 18.2029 146.456C20.3862 149.087 23.729 151.448 27.7193 153.643L27.7638 153.667L27.8089 153.691C31.9266 155.848 35.1465 157.416 37.354 158.299C39.9615 159.342 42.7489 159.828 45.6562 159.828C46.9712 159.828 48.6351 159.566 50.3722 159.218C52.2091 158.851 54.4817 158.313 57.165 157.617C62.1115 156.335 69.8444 155.001 80.5109 153.643L108.251 150.722L108.27 150.721C116.166 149.951 130.517 148.98 151.405 147.809L151.43 147.807L151.454 147.806C172.131 146.44 188.052 145.665 199.258 145.472L199.26 145.472C210.367 145.277 220.884 145.18 230.812 145.18C240.88 145.18 249.007 145.471 255.239 146.036C259.207 146.432 262.511 146.645 265.09 146.645C266.56 146.645 268.034 146.571 269.319 146.314L277.297 145.764C278.865 145.739 280.572 145.402 282.139 144.438C283.754 143.444 284.853 142.008 285.501 140.411C285.933 139.468 286.203 138.402 286.203 137.25C286.203 134.079 284.274 131.528 282.554 129.773C280.06 126.844 276.765 124.561 272.894 122.813C269.193 120.771 265.458 119.114 261.691 117.858C258.048 116.644 254.844 115.776 252.142 115.326L251.734 115.258H249.27C246.865 115.258 243.735 115.473 239.957 115.871L239.823 115.885L239.691 115.907C235.009 116.656 227.844 117.425 218.109 118.203L218.089 118.205L198.216 119.958L191.084 120.386L199.825 94.854L199.847 94.7831C202.354 86.6821 204.44 80.6263 206.108 76.5354C207.991 72.3936 209.486 69.2165 210.601 66.9777C211.766 65.0041 213.188 63.0837 214.883 61.2188L215.042 61.0442L215.184 60.8555C216.894 58.5744 218.376 56.4132 219.049 54.732L219.406 53.8379V52.875C219.406 49.3973 217.139 46.5028 215.096 44.4429C212.723 41.8552 209.758 39.6164 206.311 37.6773L206.299 37.6708L206.288 37.6644C202.658 35.6477 199.195 33.9143 195.903 32.4739L195.862 32.4562L195.822 32.4393C193.117 31.3125 190.389 30.5898 187.746 30.5898C186.804 30.5898 185.884 30.7193 184.995 30.9613C184.637 31.0149 184.338 31.0842 184.144 31.1307C183.681 31.2419 183.174 31.3895 182.652 31.5544C181.601 31.886 180.262 32.3605 178.666 32.959C176.066 33.9342 172.009 34.8509 166.285 35.6142L166.204 35.6249L152.112 37.9736L143.828 39.1786L146.409 30.6284C146.425 30.5789 146.444 30.5246 146.464 30.4649C146.635 29.9628 146.9 29.2087 147.264 28.1895C147.99 26.1574 149.083 23.1446 150.547 19.1437L150.566 19.0928L150.583 19.0415C153.331 10.9944 155.345 6.05684 156.638 3.79319L156.669 3.73848L156.699 3.683C158.115 1.05423 159.348 -1.84597 159.348 -4.54688V-5.13281C159.348 -7.54996 158.403 -9.78731 157.245 -11.6866C156.684 -12.7697 156.006 -13.7872 155.23 -14.7424L158.617 -15.0952C165.769 -15.6742 176.028 -16.3521 189.417 -17.1285L213.427 -17.7141L213.497 -17.7178C217.304 -17.9182 220.927 -18.2196 224.365 -18.6241L224.383 -18.6262L224.401 -18.6285C226.23 -18.857 228.082 -19.2709 229.679 -20.0699C231.317 -20.8884 233.152 -22.3683 233.862 -24.853L234.055 -25.5263V-26.2266C234.055 -27.7501 233.522 -29.0585 233.087 -29.9275C232.63 -30.8418 232.031 -31.7541 231.374 -32.6386C229.573 -35.2778 226.795 -37.3618 223.609 -39.0746C220.399 -40.9875 217.045 -42.4091 213.552 -43.3116C210.076 -44.5866 206.638 -45.2891 203.273 -45.2891C200.713 -45.2891 197.113 -44.6824 192.79 -43.6999C188.596 -42.7467 185.056 -42.0987 182.145 -41.7348L181.994 -41.7159L181.844 -41.6878C178.836 -41.1238 176.12 -40.6547 173.692 -40.2786C170.971 -40.0615 165.487 -39.4708 157.343 -38.524C148.919 -37.7398 140.688 -36.8577 132.649 -35.8773L132.641 -35.8764L99.8552 -31.7781L63.0549 -27.6892C61.5947 -27.5718 60.0214 -27.3179 58.6281 -26.7207C57.2189 -26.1168 55.0813 -24.726 54.5229 -21.9337L54.4258 -21.4482V-20.3672C54.4258 -17.5968 55.8335 -15.4235 57.3551 -13.902L57.6064 -13.6507L57.8906 -13.4375C59.8103 -11.9977 62.4668 -10.4733 65.6858 -8.8638C68.809 -7.30219 71.5384 -6.119 73.6582 -5.57636C75.5402 -5.04807 77.5522 -4.82031 79.6406 -4.82031H82.014L89.5501 -6.70435C93.0689 -7.44117 97.7768 -8.19638 103.718 -8.96298L121.98 -11.3347L122.2 -10.5413C122.303 -9.71449 122.392 -7.85937 122.394 -4.67209C122.206 -0.972137 121.834 3.12405 121.274 7.62244C120.511 12.1916 119.46 17.7324 118.118 24.2555L113.681 42.9893L91.3901 45.269L91.3437 45.2746C84.9612 46.0482 80.2163 46.4102 77.0039 46.4102H73.7812C72.3355 46.4102 70.6386 46.5294 69.1299 47.1096C68.3384 47.4141 67.3007 47.9575 66.4322 48.9595C65.4791 50.0592 64.9727 51.438 64.9727 52.875V53.168C64.9727 54.1374 65.2376 54.9225 65.3555 55.2525C65.5087 55.6815 65.6947 56.0853 65.8667 56.4294C66.2133 57.1226 66.6738 57.9098 67.1975 58.7477L67.3101 58.9277L67.4375 59.0977C68.9134 61.0656 70.6699 62.7267 72.7089 64.0323C74.7056 65.4975 76.9039 66.5457 79.288 67.0976C81.1 67.6003 82.983 67.8359 84.9141 67.8359H86.6719C87.2348 67.8359 87.8207 67.738 88.057 67.6985L88.0798 67.6947C88.4492 67.6331 88.8993 67.5481 89.4103 67.4459C90.4021 67.2475 91.7464 66.9597 93.428 66.5867L103.501 65.1478L107.963 64.4947L104.689 76.4999L104.679 76.5382C102.56 84.8232 100.052 93.4107 97.1526 102.301L97.1373 102.348L97.1229 102.396C94.6893 110.392 91.9409 118.866 88.8766 127.818L72.2427 129.041L44.8545 131.125L44.4434 131.227C44.4408 131.228 44.4199 131.233 44.3775 131.241C44.3312 131.25 44.2671 131.262 44.1828 131.275C44.012 131.301 43.785 131.331 43.4938 131.361C42.9081 131.422 42.1399 131.477 41.1704 131.523C39.2318 131.616 36.6344 131.664 33.3516 131.664H33.2088ZM120.437 113.582C126.985 93.1675 130.806 81.1206 131.861 77.558C132.946 74.4657 134.614 69.0838 136.848 61.4928L159.213 58.4431C159.518 58.4237 159.846 58.3924 160.093 58.3689L160.132 58.3652C160.669 58.314 161.408 58.2387 162.342 58.1405C164.207 57.9442 166.895 57.651 170.399 57.2616C172.216 57.0807 173.794 56.9961 175.148 56.9961C176.853 56.9961 177.988 57.1499 178.683 57.3369C178.914 57.3992 179.058 57.4546 179.137 57.4893L179.23 57.5824C179.649 58.0013 179.816 58.3852 179.816 59.0273V59.9062C179.816 61.2672 179.149 64.9056 177.356 71.4813L173.282 86.3221C172.151 89.8948 170.536 94.4557 168.423 100.028L159.895 122.509L116.581 125.334L120.432 113.598L120.437 113.582Z" fill="black"/>
</svg>
