<svg width="350" height="350" viewBox="0 0 350 350" fill="none" xmlns="http://www.w3.org/2000/svg">
<path d="M199.176 199.727C195.675 199.727 190.921 201.002 185.756 202.72C181.022 204.173 175.381 205.565 168.802 206.883C162.019 208.046 157.361 208.805 154.756 209.177L154.632 209.195L126.429 214.189C125.518 214.335 121.288 214.793 113.194 215.582L113.036 215.598L96.3614 217.938L83.984 219.063C79.9283 219.08 76.2383 219.39 73.138 220.165C71.6225 220.544 69.8833 221.115 68.3163 222.079C66.7889 223.019 64.4668 224.951 63.7941 228.314L63.6484 229.043V230.078C63.6484 233.5 65.2745 236.142 66.9496 237.938C69.5134 241.087 73.2711 242.865 76.8215 243.975C80.9082 245.252 86.1934 245.867 92.2853 246.07L92.4102 246.074H95.1719C97.3325 246.074 99.9267 245.968 102.915 245.77C107.263 245.572 112.37 245.276 118.229 244.886L118.353 244.877L118.477 244.865C124.45 244.268 131.763 243.378 140.396 242.201L140.424 242.197L176.561 237.534C181.139 237.111 186.405 236.293 192.324 235.113C198.141 234.143 202.653 233.358 205.831 232.762L206.051 232.721L215.253 230.42C216.796 230.198 218.36 229.882 219.763 229.387C220.731 229.045 223.377 228.054 225.054 225.449C225.431 224.922 225.829 224.304 226.172 223.618C226.394 223.175 226.727 222.443 226.95 221.502C227.415 220.032 227.477 218.662 227.477 217.773V216.85L227.253 215.954C226.693 213.718 225.381 211.675 224.322 210.191L224.129 209.922L223.913 209.67C221.399 206.736 217.56 204.934 213.977 203.67L213.955 203.662L206.004 200.91L205.682 200.829C203.834 200.367 201.975 200.018 200.106 199.784L199.643 199.727H199.176Z" fill="black"/>
<path fill-rule="evenodd" clip-rule="evenodd" d="M190.973 258.828C188.129 258.828 185.008 259.379 181.775 260.238L174.85 261.969C171.829 262.677 167.201 263.516 160.845 264.479L160.833 264.481L140.105 267.692C132.768 268.657 125.044 269.623 116.931 270.589C108.843 271.36 103.132 271.949 99.8816 272.353L88.475 273.554L88.1346 273.622C87.0133 273.846 85.8934 274.113 84.89 274.447L84.8877 274.448C84.3235 274.636 82.8153 275.139 81.4171 276.277C79.5052 277.76 78.6422 279.701 78.247 281.019C77.8106 282.473 77.7109 283.911 77.7109 285.078V285.611L77.7863 286.139C78.3932 290.387 81.6904 292.652 83.1424 293.535C85.0117 294.673 87.3002 295.571 89.6752 296.327L89.8246 296.374L89.9758 296.415C94.4198 297.627 98.6897 298.645 102.783 299.464L103.247 299.557L103.72 299.59C106.643 299.799 109.654 299.902 112.75 299.902H117.485L117.824 299.872C120.109 299.664 125.307 299.062 133.265 298.092L133.287 298.089L153.491 295.747L188.907 291.32L198.095 289.597C200.858 289.387 203.36 289.068 205.522 288.6C207.512 288.17 209.744 287.507 211.687 286.324C212.743 285.769 213.959 285.003 215.026 283.936C216.234 282.728 217.809 280.542 217.809 277.461C217.809 275.038 216.745 273.171 216.3 272.43C215.74 271.497 215.057 270.608 214.378 269.806C213.038 268.101 211.293 266.771 209.677 265.732C207.903 264.592 205.796 263.496 203.451 262.43C199.185 260.491 194.722 258.828 190.973 258.828ZM90.8783 280.681C90.8783 280.681 90.8852 280.686 90.8975 280.695C90.8842 280.686 90.8783 280.681 90.8783 280.681Z" fill="black"/>
<path d="M249.273 307.09C247.176 307.09 244.246 307.499 240.939 308.083L240.899 308.09L240.86 308.097C237.913 308.65 233.086 309.409 226.29 310.381L208.167 312.719C203.844 313.283 197.352 313.954 188.627 314.73C179.962 315.322 169.668 316.205 157.757 317.376L111.169 321.478L84.7073 324.124L84.6571 324.13C76.283 325.082 67.0017 325.753 56.8031 326.138L56.7326 326.141L56.6621 326.145C51.4766 326.438 47.4159 326.684 44.4937 326.882C42.1324 327.042 40.1607 327.191 39.0089 327.342L26.9972 328.2L26.979 328.201C25.3456 328.311 23.7559 328.49 22.3535 328.802C21.371 329.02 18.8639 329.608 16.9194 331.552C15.5177 332.954 14.9637 334.529 14.7269 335.476C14.4787 336.468 14.4297 337.372 14.4297 338.027C14.4297 339.407 14.6537 340.726 14.9466 341.897L14.9769 342.018L15.0112 342.139C15.8009 344.903 17.6972 346.857 18.9632 347.997C20.4181 349.306 22.2144 350.555 24.1712 351.751L24.225 351.784L24.2794 351.816C27.9119 353.953 31.9118 355.948 36.2604 357.812L36.4394 357.888L36.6221 357.956C40.7525 359.477 44.8144 360.469 48.5898 360.469H49.4688C51.1944 360.469 52.916 360.345 54.631 360.1C56.3521 359.855 60.8822 358.896 67.7164 357.378C74.4229 356.038 81.7148 354.694 89.5948 353.348C97.6235 352.203 106.838 351.147 117.25 350.183C127.726 349.213 138.795 348.339 150.456 347.562L150.508 347.558L150.56 347.554C162.598 346.583 172.455 345.907 180.153 345.521L223.91 344.062H238.125C242.913 344.454 248.513 344.744 254.906 344.938C261.371 345.134 265.576 345.325 267.694 345.501L268.004 345.527H270.953C272.849 345.527 274.776 345.385 276.572 344.957C278.29 344.548 280.551 343.723 282.409 341.866C284.522 339.753 286.07 336.853 286.07 333.34V332.221L285.995 331.693C285.632 329.156 284.363 327.148 283.319 325.806C282.202 324.37 280.805 323.018 279.313 321.755C276.577 319.44 273.728 317.324 270.767 315.411C267.646 313.197 264.313 311.317 260.776 309.769L260.591 309.689L260.403 309.618C256.809 308.271 253.271 307.375 249.849 307.112L249.561 307.09H249.273Z" fill="black"/>
<path d="M133.297 -42.9609C132.184 -42.9609 130.381 -42.8562 128.632 -41.9817L127.689 -41.51L126.943 -40.7642C124.667 -38.4881 123.867 -35.6026 123.867 -32.9453C123.867 -30.5375 124.617 -28.0634 125.498 -25.858L125.504 -25.8438L129.867 -14.7896C131.721 -9.85303 134.347 -3.91041 137.704 3.00003L137.72 3.03363L137.737 3.06704C140.287 8.1662 142.545 12.3435 144.47 15.3102L102.557 20.3766L66.369 25.6297L58.9881 26.1975L41.589 27.4403L40.6485 27.8165C39.4373 28.3009 38.2081 28.8851 37.1132 29.6151C36.104 30.2879 34.6543 31.446 33.7331 33.2884L33.0469 34.6609V36.7812C33.0469 39.3582 34.1956 41.6896 35.0752 43.2288L35.1862 43.4232L35.3104 43.6095C36.5504 45.4694 38.384 47.0172 40.1478 48.2849C42.016 49.6277 44.3257 51.0182 46.9961 52.4566L47.0121 52.4652L53.5284 56.0197L53.6322 56.0716C57.4874 57.9992 61.5058 59.1016 65.6211 59.1016H66.083L66.5403 59.0362C68.5672 58.7467 71.5328 57.8732 75.0008 56.7172L75.1523 56.6667L75.3012 56.6088C78.3275 55.4319 83.9671 53.8593 92.5499 51.9087L92.6181 51.8932L92.6859 51.8762C101.147 49.7609 106.656 48.4314 109.32 47.8553L126.696 44.9593C134.423 43.8009 141.04 42.9392 146.563 42.3678L146.575 42.3666L146.587 42.3654C151.847 41.8018 168.227 40.7379 196.019 39.172C223.601 38.0068 242.054 37.428 251.506 37.4219L264.103 38.0078H276.377L276.779 37.9576C279.199 37.6551 281.658 36.8398 283.77 35.1755C286.704 32.9208 287.453 29.6296 287.453 27.1133V25.4342L287.259 24.6579C286.436 21.3662 284.357 18.7401 282.049 16.6887C279.772 14.6646 276.66 12.6376 272.977 10.5914C269.22 8.50428 265.438 6.7159 261.629 5.23494L261.575 5.21385L261.521 5.19374C257.446 3.69259 253.509 2.74219 249.898 2.74219C248.664 2.74219 247.199 2.96875 245.858 3.21706C244.389 3.48909 242.587 3.88267 240.483 4.38379C236.855 5.24749 230.891 6.09459 222.357 6.87045L222.311 6.87463L177.7 11.5705C178.235 8.98734 178.469 6.23673 178.469 3.38281V3.23516L178.462 3.08766C178.228 -2.05547 176.957 -7.25843 174.791 -12.4869C172.731 -17.9332 169.706 -22.6441 165.657 -26.477C162.112 -30.0087 158.053 -33.0652 153.514 -35.6592L153.411 -35.7183L153.305 -35.7735C148.985 -38.0366 144.471 -40.0874 139.767 -41.9281L139.299 -42.1112L138.808 -42.2202C136.906 -42.643 134.989 -42.9609 133.297 -42.9609Z" fill="black"/>
<path d="M109.859 57.4883C108.605 57.4883 107.442 57.7539 106.405 58.1824C104.387 58.8357 101.708 60.1901 100.237 63.1322C99.2682 65.0699 98.9044 67.4907 98.7041 69.4939L98.6719 69.8164V70.1406C98.6719 71.0395 98.4542 72.6288 97.7501 75.0932L97.7343 75.1485L97.7195 75.2041C97.0078 77.8728 96.1145 80.5558 95.0352 83.2539L95.009 83.3195L94.9842 83.3857C94.053 85.8689 92.2007 89.4026 89.199 94.0997C85.9831 98.8234 81.2049 105.325 74.8201 113.644L74.8131 113.653L74.8063 113.662C68.5763 121.839 63.965 127.467 60.8955 130.717L60.8354 130.78L60.777 130.846C57.5487 134.454 53.9221 138.272 49.8921 142.302L44.6186 147.576C43.1289 149.065 41.543 151.402 41.543 154.516C41.543 156.029 41.9294 157.409 42.5222 158.594L42.9939 159.538L43.7397 160.284C45.0342 161.578 47.1759 163.066 50.0938 163.066C51.4675 163.066 52.7037 162.743 53.6141 162.44L54.1977 162.245L61.9406 157.909C64.4463 156.628 68.798 153.719 74.5988 149.603C80.6328 145.514 85.5441 141.918 89.2632 138.831C93.2998 135.838 97.9843 131.635 103.279 126.343C108.615 121.203 112.889 116.736 116.025 112.974L124.625 102.653L131.448 95.8306C133.185 94.0935 134.711 92.8302 136.024 91.9552C137.063 91.2624 138.056 90.5257 138.914 89.7451C139.57 89.1493 140.393 88.3097 141.063 87.2258C142.338 85.488 143.312 83.2813 143.312 80.6875C143.312 78.8416 142.851 76.9492 141.766 75.2331C140.231 72.6475 137.739 70.5685 135.194 68.8669L126.858 63.0959L125.977 62.8023C125.083 62.5042 122.406 61.4421 117.633 59.4531C115.207 58.4423 112.419 57.4883 109.859 57.4883Z" fill="black"/>
<path d="M180.758 63.0547C179.407 63.0547 177.822 63.3276 176.288 64.2041C174.712 65.1048 173.597 66.4117 172.893 67.8197L172.885 67.8366C172.654 68.2984 171.914 69.7768 171.914 71.6055C171.914 74.5189 173.324 76.8196 174.51 78.3027L176.914 81.3079L182.036 87.3337L182.119 87.4235C183.801 89.2585 186.163 92.5978 189.228 97.7708L189.265 97.8327L200.476 115.829L212.281 133.832L212.328 133.899C217.615 141.536 221.748 147.194 224.666 150.738C227.444 154.11 230.057 156.893 232.472 158.858C235.193 161.339 238.872 163.945 243.16 163.945H244.683L245.314 163.819C250.479 162.786 253.357 158.474 254.975 154.777L255.065 154.571L255.141 154.358C256.448 150.698 256.984 146.482 256.984 141.918V139.618L256.965 139.369C256.515 133.513 254.958 127.499 252.426 121.358C250.016 115.036 246.543 109.102 242.064 103.556L241.978 103.45L241.887 103.347C237.343 98.1825 232.297 93.3452 226.758 88.8321L226.701 88.7855L226.643 88.7403C221.307 84.5903 216.774 81.2615 213.074 78.7948L213.037 78.7701L213 78.7459C209.488 76.4737 205.243 74.0509 200.303 71.4779C195.643 68.7631 191.86 66.7482 189.117 65.6055L185.559 64.1228L185.516 64.1055C184.283 63.6126 182.585 63.0547 180.758 63.0547Z" fill="black"/>
</svg>
