<svg width="350" height="350" viewBox="0 0 350 350" fill="none" xmlns="http://www.w3.org/2000/svg">
<path d="M118.906 181.625C116.62 181.625 113.739 182.086 111.496 184.134C109.52 185.751 108.426 188.061 108.426 190.641C108.426 193.019 109.473 195.499 110.471 197.495L110.525 197.602L110.583 197.706C111.204 198.825 111.711 200.258 112.016 202.092L112.023 202.132L112.03 202.171C112.361 203.991 112.736 207.527 113.127 213.005C113.518 218.482 113.699 222.111 113.699 224.039V264.595L63.7106 274.001L63.6999 274.003C60.0045 274.684 57.1631 275.189 55.1603 275.523C54.1548 275.691 53.3902 275.81 52.8483 275.886C52.5456 275.928 52.3733 275.948 52.297 275.957C52.2797 275.959 52.2673 275.96 52.2595 275.961H52.0373L42.9088 277.178L33.2265 278.388L32.9043 278.469C31.899 278.72 30.8472 279.058 29.8743 279.545C29.0413 279.961 27.8991 280.667 26.9908 281.857C26.2445 282.779 25.9121 283.739 25.7531 284.375C25.5581 285.155 25.5156 285.883 25.5156 286.441C25.5156 287.664 25.804 288.785 26.0908 289.646L26.3238 290.344L26.7323 290.957C28.3145 293.33 30.9093 295.02 33.4644 296.305L41.6703 300.701L41.7395 300.736C43.1039 301.418 44.8229 302.165 46.8441 302.974L47.1906 303.112L47.5528 303.203C49.5893 303.712 51.7003 303.953 53.8672 303.953H55.918C59.1581 303.953 63.5587 302.938 68.6683 301.366C73.5723 299.857 80.1715 298.132 88.5114 296.193L88.569 296.18L102.369 292.656L102.382 292.653C104.999 291.999 108.636 291.157 113.307 290.127L112.527 304.16V307.242C112.527 311.95 112.833 317.784 113.426 324.704L113.433 324.787L113.443 324.87C114.453 333.558 116.086 341.285 118.392 347.995L118.427 348.094L118.465 348.193C121.048 354.866 124.608 360.438 129.289 364.651L129.457 364.801L129.636 364.937C134.106 368.343 138.908 371.12 144.037 373.257L144.222 373.334L144.413 373.397C149.44 375.073 155.109 376.405 161.39 377.418L161.464 377.43L161.539 377.44C167.685 378.26 174.476 378.66 181.895 378.66H185.996C192.039 378.66 198.081 378.358 204.121 377.754L204.136 377.753L204.15 377.751C211.628 376.964 217.803 376.169 222.642 375.363C227.437 374.564 232.886 373.473 238.981 372.098C244.922 370.944 250.024 369.444 253.247 367.165C256.159 365.273 258.879 362.257 258.879 357.926C258.879 355.874 258.104 354.085 257.333 352.753C256.526 351.358 255.438 349.982 254.211 348.643C251.456 345.638 247.958 343.28 243.894 341.474C239.833 339.669 235.75 338.656 231.699 338.656H230.929L230.188 338.868C228.687 339.297 225.838 340.215 221.757 341.575C217.868 342.871 213.178 344.189 207.662 345.523C201.888 346.677 197.22 347.532 193.634 348.099L193.496 348.12L193.359 348.149C190.007 348.855 185.519 349.417 179.816 349.798C176.008 349.988 172.405 350.082 169.004 350.082H163.824C158.275 349.892 154.527 349.248 152.239 348.402C149.931 347.471 148.164 346.3 146.819 344.955C145.67 343.806 144.334 341.878 142.926 338.885C141.821 336.537 140.89 332.315 140.511 325.682C140.124 318.727 139.934 312.584 139.934 307.242C139.934 302.63 140.3 295.181 141.054 284.805L170.936 280.463L170.967 280.458L196.072 276.955C202.605 276.188 210.705 275.416 220.387 274.641L246.097 272.888C253.3 272.499 258.312 272.204 261.095 272.006C264.129 271.789 267.154 271.219 269.584 269.83L270.005 269.59L270.376 269.28C271.955 267.964 273.458 266.288 274.306 264.168L274.699 263.184V261.539C274.699 259.028 273.476 257.055 272.419 255.772C271.322 254.44 269.893 253.229 268.348 252.122C265.094 249.683 262.043 247.675 259.209 246.15L259.06 246.069L258.906 245.998C256.239 244.768 253.299 243.551 250.092 242.348C247.082 241.146 244.439 240.246 242.267 239.764L241.678 239.633H241.074C237.835 239.633 234.298 240.093 230.506 240.936C226.914 241.734 221.19 243.116 213.373 245.07L213.327 245.082L213.282 245.094C205.341 247.224 199.035 248.751 194.323 249.694L142.168 259.506L144.025 232.576L144.028 232.531C144.213 229.001 144.586 225.259 145.152 221.301L145.168 221.186L145.18 221.071C145.558 217.288 146.014 214.459 146.508 212.482C146.988 210.559 147.721 208.592 148.728 206.577C149.726 204.581 150.773 202.101 150.773 199.723V199.43C150.773 196.922 149.902 194.653 148.396 192.771L148.206 192.533L147.991 192.318C146.586 190.913 144.621 189.486 142.367 188.051L142.21 187.952L142.048 187.863C139.655 186.558 137.278 185.524 134.921 184.81C132.829 184.121 130.073 183.499 126.79 182.914C123.732 182.156 120.974 181.625 118.906 181.625Z" fill="black"/>
<path d="M133.297 -42.9609C132.184 -42.9609 130.381 -42.8562 128.632 -41.9817L127.689 -41.51L126.943 -40.7642C124.667 -38.4881 123.867 -35.6026 123.867 -32.9453C123.867 -30.5375 124.617 -28.0634 125.498 -25.858L125.504 -25.8438L129.867 -14.7896C131.721 -9.85303 134.347 -3.91041 137.704 3.00003L137.72 3.03363L137.737 3.06704C140.287 8.1662 142.545 12.3435 144.47 15.3102L102.557 20.3766L66.369 25.6297L58.9881 26.1975L41.589 27.4403L40.6485 27.8165C39.4373 28.3009 38.2081 28.8851 37.1132 29.6151C36.104 30.2879 34.6543 31.446 33.7331 33.2884L33.0469 34.6609V36.7812C33.0469 39.3582 34.1956 41.6896 35.0752 43.2288L35.1862 43.4232L35.3104 43.6095C36.5504 45.4694 38.384 47.0172 40.1478 48.2849C42.016 49.6277 44.3257 51.0182 46.9961 52.4566L47.0121 52.4652L53.5284 56.0197L53.6322 56.0716C57.4874 57.9992 61.5058 59.1016 65.6211 59.1016H66.083L66.5403 59.0362C68.5672 58.7467 71.5328 57.8732 75.0008 56.7172L75.1523 56.6667L75.3012 56.6088C78.3275 55.4319 83.9671 53.8593 92.5499 51.9087L92.6181 51.8932L92.6859 51.8762C101.147 49.7609 106.656 48.4314 109.32 47.8553L126.696 44.9593C134.423 43.8009 141.04 42.9392 146.563 42.3678L146.575 42.3666L146.587 42.3654C151.847 41.8018 168.227 40.7379 196.019 39.172C223.601 38.0068 242.054 37.428 251.506 37.4219L264.103 38.0078H276.377L276.779 37.9576C279.199 37.6551 281.658 36.8398 283.77 35.1755C286.704 32.9208 287.453 29.6296 287.453 27.1133V25.4342L287.259 24.6579C286.436 21.3662 284.357 18.7401 282.049 16.6887C279.772 14.6646 276.66 12.6376 272.977 10.5914C269.22 8.50428 265.438 6.7159 261.629 5.23494L261.575 5.21385L261.521 5.19374C257.446 3.69259 253.509 2.74219 249.898 2.74219C248.664 2.74219 247.199 2.96875 245.858 3.21706C244.389 3.48909 242.587 3.88267 240.483 4.38379C236.855 5.24749 230.891 6.09459 222.357 6.87045L222.311 6.87463L177.7 11.5705C178.235 8.98734 178.469 6.23673 178.469 3.38281V3.23516L178.462 3.08766C178.228 -2.05547 176.957 -7.25843 174.791 -12.4869C172.731 -17.9332 169.706 -22.6441 165.657 -26.477C162.112 -30.0087 158.053 -33.0652 153.514 -35.6592L153.411 -35.7183L153.305 -35.7735C148.985 -38.0366 144.471 -40.0874 139.767 -41.9281L139.299 -42.1112L138.808 -42.2202C136.906 -42.643 134.989 -42.9609 133.297 -42.9609Z" fill="black"/>
<path d="M109.859 57.4883C108.605 57.4883 107.442 57.7539 106.405 58.1824C104.387 58.8357 101.708 60.1901 100.237 63.1322C99.2682 65.0699 98.9044 67.4907 98.7041 69.4939L98.6719 69.8164V70.1406C98.6719 71.0395 98.4542 72.6288 97.7501 75.0932L97.7343 75.1485L97.7195 75.2041C97.0078 77.8728 96.1145 80.5558 95.0352 83.2539L95.009 83.3195L94.9842 83.3857C94.053 85.8689 92.2007 89.4026 89.199 94.0997C85.9831 98.8234 81.2049 105.325 74.8201 113.644L74.8131 113.653L74.8063 113.662C68.5763 121.839 63.965 127.467 60.8955 130.717L60.8354 130.78L60.777 130.846C57.5487 134.454 53.9221 138.272 49.8921 142.302L44.6186 147.576C43.1289 149.065 41.543 151.402 41.543 154.516C41.543 156.029 41.9294 157.409 42.5222 158.594L42.9939 159.538L43.7397 160.284C45.0342 161.578 47.1759 163.066 50.0938 163.066C51.4675 163.066 52.7037 162.743 53.6141 162.44L54.1977 162.245L61.9406 157.909C64.4463 156.628 68.798 153.719 74.5988 149.603C80.6328 145.514 85.5441 141.918 89.2632 138.831C93.2998 135.838 97.9843 131.635 103.279 126.343C108.615 121.203 112.889 116.736 116.025 112.974L124.625 102.653L131.448 95.8306C133.185 94.0935 134.711 92.8302 136.024 91.9552C137.063 91.2624 138.056 90.5257 138.914 89.7451C139.57 89.1493 140.393 88.3097 141.063 87.2258C142.338 85.488 143.312 83.2813 143.312 80.6875C143.312 78.8416 142.851 76.9492 141.766 75.2331C140.231 72.6475 137.739 70.5685 135.194 68.8669L126.858 63.0959L125.977 62.8023C125.083 62.5042 122.406 61.4421 117.633 59.4531C115.207 58.4423 112.419 57.4883 109.859 57.4883Z" fill="black"/>
<path d="M180.758 63.0547C179.407 63.0547 177.822 63.3276 176.288 64.2041C174.712 65.1048 173.597 66.4117 172.893 67.8197L172.885 67.8366C172.654 68.2984 171.914 69.7768 171.914 71.6055C171.914 74.5189 173.324 76.8196 174.51 78.3027L176.914 81.3079L182.036 87.3337L182.119 87.4235C183.801 89.2585 186.163 92.5978 189.228 97.7708L189.265 97.8327L200.476 115.829L212.281 133.832L212.328 133.899C217.615 141.536 221.748 147.194 224.666 150.738C227.444 154.11 230.057 156.893 232.472 158.858C235.193 161.339 238.872 163.945 243.16 163.945H244.683L245.314 163.819C250.479 162.786 253.357 158.474 254.975 154.777L255.065 154.571L255.141 154.358C256.448 150.698 256.984 146.482 256.984 141.918V139.618L256.965 139.369C256.515 133.513 254.958 127.499 252.426 121.358C250.016 115.036 246.543 109.102 242.064 103.556L241.978 103.45L241.887 103.347C237.343 98.1825 232.297 93.3452 226.758 88.8321L226.701 88.7855L226.643 88.7403C221.307 84.5903 216.774 81.2615 213.074 78.7948L213.037 78.7701L213 78.7459C209.488 76.4737 205.243 74.0509 200.303 71.4779C195.643 68.7631 191.86 66.7482 189.117 65.6055L185.559 64.1228L185.516 64.1055C184.283 63.6126 182.585 63.0547 180.758 63.0547Z" fill="black"/>
</svg>
