<svg width="350" height="350" viewBox="0 0 350 350" fill="none" xmlns="http://www.w3.org/2000/svg">
<path fill-rule="evenodd" clip-rule="evenodd" d="M31.2187 330.206C33.2732 332.314 36.1441 335.076 39.1618 336.498C42.0449 337.929 45.0952 338.852 48.2148 338.852C49.7204 338.852 52.2304 338.402 54.9579 337.856L54.9982 337.848L55.0384 337.839C57.6405 337.282 61.7235 336.52 67.3449 335.551L74.8239 334.4C77.9177 334.015 83.896 333.34 92.8027 332.372L92.8085 332.371L114.988 330.036C118.398 329.753 122.506 329.468 128.127 329.181C127.95 337.544 127.624 344.907 127.312 351.345C127.257 352.478 127.202 353.586 127.149 354.669L127.149 354.673C126.828 361.186 126.551 366.796 126.542 371.367C126.533 376.487 126.823 381.355 128.354 385.053C129.186 387.064 130.508 389.05 132.615 390.477C134.731 391.911 137.088 392.41 139.328 392.41H139.621C143.872 392.41 148.471 391.799 152.212 388.692C155.927 385.606 157.652 381.015 158.603 375.889C159.565 370.705 159.917 363.895 160.002 355.208C160.076 347.736 159.951 338.591 159.776 327.5L201.838 325.961C203.922 325.964 212.033 326.061 226.259 326.253L226.27 326.254L255.829 326.543C259.586 326.991 264.321 327.182 268.893 325.675C270.142 325.286 271.994 324.583 273.651 323.304C275.431 321.93 277.457 319.473 277.457 315.859C277.457 314.636 277.183 312.734 276.791 311.034C276.44 309.513 275.707 306.793 274.142 304.781L274.01 304.611L273.866 304.451C271.095 301.372 266.11 298.816 260.324 296.495C254.762 294.004 250.488 292.265 247.84 291.543L247.779 291.527L247.717 291.511C245.005 290.833 242.36 290.453 239.816 290.453C237.8 290.453 234.964 291.042 231.916 291.804C228.959 292.543 226.234 293.086 223.734 293.443C221.152 293.812 216.028 294.384 208.243 295.163L188.434 296.619L188.4 296.622L160.306 298.526L160.531 258.644C166.91 258.059 174.26 257.282 181.698 256.496L181.699 256.496L181.702 256.495C183.053 256.352 184.408 256.209 185.76 256.067C196.881 254.896 207.837 253.778 216.034 253.266L216.22 253.254L216.404 253.231C219.753 252.812 222.899 252.124 225.375 250.886C226.31 250.418 227.224 249.905 228.036 249.336C228.772 248.821 229.814 247.996 230.613 246.797L231.621 245.285V243.469C231.621 241.27 230.885 239.035 230.181 237.435C229.484 235.852 228.335 233.788 226.705 232.321L226.382 232.03L226.02 231.789C223.354 230.012 220.49 228.473 217.438 227.165L217.208 227.067L216.972 226.988C213.894 225.962 210.987 225.252 208.312 224.977C203.987 224.184 199.758 224.845 196.438 225.595L161.672 230.133L161.795 228.786L161.795 228.785C162.034 226.156 162.272 223.543 162.593 220.961C163.324 215.1 164.397 210.326 166.217 207.141L166.3 206.996L166.374 206.847C167.765 204.066 169.059 200.908 169.059 198.012C169.059 195.536 167.988 193.544 166.865 192.14C165.787 190.792 164.416 189.668 163.009 188.718C160.069 186.541 156.427 184.773 152.274 183.31C148 181.611 143.802 180.493 139.698 180.037L139.367 180H139.035C137.368 180 135.705 180.105 134.218 180.436C132.984 180.71 130.59 181.401 128.962 183.572L128.637 184.005L128.395 184.489C126.926 187.426 127.107 190.295 127.529 192.354C127.828 193.811 128.402 195.428 128.745 196.398C128.829 196.634 128.899 196.832 128.949 196.979C129.627 199.014 130.105 202.37 130.105 207.387V207.414L130.348 234.431L99.8646 236.662L99.7924 236.669C91.8089 237.448 84.3177 238.129 77.3181 238.712L77.2957 238.714L70.8468 239.3C69.8608 239.384 68.0543 239.647 66.2997 240.354C65.4187 240.709 64.1671 241.326 63.0545 242.406C61.8438 243.581 60.6836 245.448 60.6836 247.914C60.6836 248.897 60.8997 249.836 61.0442 250.388C61.2259 251.082 61.4835 251.856 61.8183 252.647C62.412 254.048 63.5502 256.221 65.5684 257.819C68.2875 260.034 71.301 261.648 74.6034 262.473L74.6563 262.486L74.7094 262.499C78.9036 263.467 83.1031 263.824 87.1914 263.824C90.9505 263.824 96.1934 263.517 102.822 262.934L129.52 261.752V300.412L122.646 301.117L122.295 301.257C121.997 301.305 121.541 301.368 120.897 301.447C119.571 301.608 117.648 301.81 115.102 302.052C110.021 302.536 102.611 303.168 92.8536 303.949C73.3174 305.512 59.7953 306.378 52.1665 306.568C44.2887 306.765 40.1087 306.859 39.4258 306.859H39.1954L30.9872 307.491L30.6319 307.562C27.8307 308.122 24.4063 309.56 22.6334 313.106L22 314.373V315.789C22 317.291 22.2433 318.845 22.9116 320.391C23.5718 321.918 24.5158 323.134 25.5152 324.133C26.2013 324.819 27.0176 325.705 28.0174 326.792L28.0854 326.866C29.033 327.897 30.1106 329.069 31.2187 330.206ZM155.726 229.265C155.757 228.929 155.788 228.59 155.819 228.25L155.82 228.236C155.789 228.581 155.758 228.924 155.726 229.265ZM122.587 301.205C122.587 301.205 122.568 301.209 122.526 301.217C122.564 301.208 122.586 301.204 122.587 301.205Z" fill="black"/>
<path d="M133.297 -42.9609C132.184 -42.9609 130.381 -42.8562 128.632 -41.9817L127.689 -41.51L126.943 -40.7642C124.667 -38.4881 123.867 -35.6026 123.867 -32.9453C123.867 -30.5375 124.617 -28.0634 125.498 -25.858L125.504 -25.8438L129.867 -14.7896C131.721 -9.85303 134.347 -3.91041 137.704 3.00003L137.72 3.03363L137.737 3.06704C140.287 8.1662 142.545 12.3435 144.47 15.3102L102.557 20.3766L66.369 25.6297L58.9881 26.1975L41.589 27.4403L40.6485 27.8165C39.4373 28.3009 38.2081 28.8851 37.1132 29.6151C36.104 30.2879 34.6543 31.446 33.7331 33.2884L33.0469 34.6609V36.7812C33.0469 39.3582 34.1956 41.6896 35.0752 43.2288L35.1862 43.4232L35.3104 43.6095C36.5504 45.4694 38.384 47.0172 40.1478 48.2849C42.016 49.6277 44.3257 51.0182 46.9961 52.4566L47.0121 52.4652L53.5284 56.0197L53.6322 56.0716C57.4874 57.9992 61.5058 59.1016 65.6211 59.1016H66.083L66.5403 59.0362C68.5672 58.7467 71.5328 57.8732 75.0008 56.7172L75.1523 56.6667L75.3012 56.6088C78.3275 55.4319 83.9671 53.8593 92.5499 51.9087L92.6181 51.8932L92.6859 51.8762C101.147 49.7609 106.656 48.4314 109.32 47.8553L126.696 44.9593C134.423 43.8009 141.04 42.9392 146.563 42.3678L146.575 42.3666L146.587 42.3654C151.847 41.8018 168.227 40.7379 196.019 39.172C223.601 38.0068 242.054 37.428 251.506 37.4219L264.103 38.0078H276.377L276.779 37.9576C279.199 37.6551 281.658 36.8398 283.77 35.1755C286.704 32.9208 287.453 29.6296 287.453 27.1133V25.4342L287.259 24.6579C286.436 21.3662 284.357 18.7401 282.049 16.6887C279.772 14.6646 276.66 12.6376 272.977 10.5914C269.22 8.50428 265.438 6.7159 261.629 5.23494L261.575 5.21385L261.521 5.19374C257.446 3.69259 253.509 2.74219 249.898 2.74219C248.664 2.74219 247.199 2.96875 245.858 3.21706C244.389 3.48909 242.587 3.88267 240.483 4.38379C236.855 5.24749 230.891 6.09459 222.357 6.87045L222.311 6.87463L177.7 11.5705C178.235 8.98734 178.469 6.23673 178.469 3.38281V3.23516L178.462 3.08766C178.228 -2.05547 176.957 -7.25843 174.791 -12.4869C172.731 -17.9332 169.706 -22.6441 165.657 -26.477C162.112 -30.0087 158.053 -33.0652 153.514 -35.6592L153.411 -35.7183L153.305 -35.7735C148.985 -38.0366 144.471 -40.0874 139.767 -41.9281L139.299 -42.1112L138.808 -42.2202C136.906 -42.643 134.989 -42.9609 133.297 -42.9609Z" fill="black"/>
<path d="M109.859 57.4883C108.605 57.4883 107.442 57.7539 106.405 58.1824C104.387 58.8357 101.708 60.1901 100.237 63.1322C99.2682 65.0699 98.9044 67.4907 98.7041 69.4939L98.6719 69.8164V70.1406C98.6719 71.0395 98.4542 72.6288 97.7501 75.0932L97.7343 75.1485L97.7195 75.2041C97.0078 77.8728 96.1145 80.5558 95.0352 83.2539L95.009 83.3195L94.9842 83.3857C94.053 85.8689 92.2007 89.4026 89.199 94.0997C85.9831 98.8234 81.2049 105.325 74.8201 113.644L74.8131 113.653L74.8063 113.662C68.5763 121.839 63.965 127.467 60.8955 130.717L60.8354 130.78L60.777 130.846C57.5487 134.454 53.9221 138.272 49.8921 142.302L44.6186 147.576C43.1289 149.065 41.543 151.402 41.543 154.516C41.543 156.029 41.9294 157.409 42.5222 158.594L42.9939 159.538L43.7397 160.284C45.0342 161.578 47.1759 163.066 50.0938 163.066C51.4675 163.066 52.7037 162.743 53.6141 162.44L54.1977 162.245L61.9406 157.909C64.4463 156.628 68.798 153.719 74.5988 149.603C80.6328 145.514 85.5441 141.918 89.2632 138.831C93.2998 135.838 97.9843 131.635 103.279 126.343C108.615 121.203 112.889 116.736 116.025 112.974L124.625 102.653L131.448 95.8306C133.185 94.0935 134.711 92.8302 136.024 91.9552C137.063 91.2624 138.056 90.5257 138.914 89.7451C139.57 89.1493 140.393 88.3097 141.063 87.2258C142.338 85.488 143.312 83.2813 143.312 80.6875C143.312 78.8416 142.851 76.9492 141.766 75.2331C140.231 72.6475 137.739 70.5685 135.194 68.8669L126.858 63.0959L125.977 62.8023C125.083 62.5042 122.406 61.4421 117.633 59.4531C115.207 58.4423 112.419 57.4883 109.859 57.4883Z" fill="black"/>
<path d="M180.758 63.0547C179.407 63.0547 177.822 63.3276 176.288 64.2041C174.712 65.1048 173.597 66.4117 172.893 67.8197L172.885 67.8366C172.654 68.2984 171.914 69.7768 171.914 71.6055C171.914 74.5189 173.324 76.8196 174.51 78.3027L176.914 81.3079L182.036 87.3337L182.119 87.4235C183.801 89.2585 186.163 92.5978 189.228 97.7708L189.265 97.8327L200.476 115.829L212.281 133.832L212.328 133.899C217.615 141.536 221.748 147.194 224.666 150.738C227.444 154.11 230.057 156.893 232.472 158.858C235.193 161.339 238.872 163.945 243.16 163.945H244.683L245.314 163.819C250.479 162.786 253.357 158.474 254.975 154.777L255.065 154.571L255.141 154.358C256.448 150.698 256.984 146.482 256.984 141.918V139.618L256.965 139.369C256.515 133.513 254.958 127.499 252.426 121.358C250.016 115.036 246.543 109.102 242.064 103.556L241.978 103.45L241.887 103.347C237.343 98.1825 232.297 93.3452 226.758 88.8321L226.701 88.7855L226.643 88.7403C221.307 84.5903 216.774 81.2615 213.074 78.7948L213.037 78.7701L213 78.7459C209.488 76.4737 205.243 74.0509 200.303 71.4779C195.643 68.7631 191.86 66.7482 189.117 65.6055L185.559 64.1228L185.516 64.1055C184.283 63.6126 182.585 63.0547 180.758 63.0547Z" fill="black"/>
</svg>
