<svg width="350" height="350" viewBox="0 0 350 350" fill="none" xmlns="http://www.w3.org/2000/svg">
<path d="M134.625 17.5C133.223 17.5 131.502 17.6514 129.976 18.4145L129.323 18.7411L128.806 19.2575C126.6 21.4642 125.73 24.3295 125.73 27.2734C125.73 29.8877 126.566 32.863 127.806 35.9663L127.81 35.9759L134.38 52.6203C137.084 59.8244 140.953 68.5924 145.958 78.8977L145.969 78.921L145.981 78.9441C151.189 89.3602 155.328 96.6633 158.325 100.358C159.206 101.531 160.088 102.674 160.971 103.786L89.2075 112.461L34.8123 120.357L23.5622 121.222L23.5377 121.224L-1.74669 123.03L-2.39782 123.291C-4.02508 123.942 -5.50704 124.661 -6.73834 125.482C-7.91029 126.264 -9.22942 127.381 -10.0249 128.972L-10.5 129.922V131.863C-10.5 134.278 -9.38922 136.76 -8.14928 138.93L-8.07239 139.064L-7.98641 139.193C-6.65472 141.191 -4.51769 143.071 -2.03456 144.856C0.520822 146.692 3.77601 148.661 7.67487 150.76L7.68686 150.767L17.404 156.067L17.4758 156.103C22.6688 158.7 27.896 160.094 33.1113 160.094H33.4311L33.7477 160.049C36.2552 159.69 40.2802 158.533 45.5207 156.787L45.6256 156.752L45.7287 156.712C50.6633 154.793 59.458 152.363 72.341 149.435L72.3882 149.424L72.4352 149.413C85.2347 146.213 93.6221 144.188 97.6747 143.316L123.903 138.945C135.562 137.196 145.586 135.89 153.985 135.021L153.993 135.02L154.001 135.019C162.06 134.156 186.808 132.552 228.45 130.206C269.946 128.452 297.786 127.578 312.06 127.574L330.956 128.453H348.919L349.197 128.418C352.131 128.052 354.859 127.094 357.111 125.311C359.778 123.275 360.609 120.204 360.609 117.361V115.489L360.475 114.952C359.59 111.411 357.283 108.331 354.265 105.648C351.269 102.985 346.985 100.162 341.596 97.1679C336.155 94.1454 330.697 91.5664 325.221 89.4368L325.183 89.4222L325.146 89.4083C319.327 87.2648 314.078 86.0547 309.527 86.0547C308.199 86.0547 306.416 86.3101 304.423 86.6792C302.341 87.0648 299.733 87.633 296.62 88.3743C290.796 89.761 281.54 91.0574 268.69 92.2255L268.658 92.2284L193.846 100.103C196.121 94.9893 197.133 88.7981 197.133 81.7656V81.6634L197.128 81.5613C196.809 74.5295 195.061 67.2993 191.984 59.8947C189.139 52.339 184.993 45.9215 179.507 40.743C174.529 35.7739 168.801 31.4495 162.346 27.7609L162.274 27.72L162.201 27.6817C155.897 24.3797 149.302 21.3824 142.417 18.6883L142.093 18.5615L141.754 18.4861C139.017 17.8779 136.586 17.5 134.625 17.5Z" fill="black"/>
<path d="M99.4688 183.174C98.2684 183.174 97.14 183.442 96.1119 183.894C93.6849 184.644 91.0832 186.033 89.7309 188.738C88.7447 190.71 88.2563 193.49 87.9598 196.455L87.9375 196.678V196.902C87.9375 198.944 87.4713 201.859 86.3528 205.774L86.3419 205.812L86.3316 205.85C85.2079 210.064 83.8007 214.288 82.107 218.522L82.0888 218.568L82.0717 218.613C80.4809 222.855 77.4638 228.535 72.8608 235.732C67.9528 242.946 60.7011 252.81 51.0746 265.354L51.0699 265.36L51.0651 265.367C41.704 277.653 34.6466 286.282 29.8398 291.371L29.7982 291.415L29.7577 291.46C24.8409 296.956 19.3329 302.754 13.2301 308.857L5.31997 316.767C3.65761 318.43 2.24414 320.679 2.24414 323.465C2.24414 324.828 2.59056 326.099 3.15867 327.235L3.48525 327.888L4.00161 328.405C5.37101 329.774 7.327 331.041 9.82031 331.041C11.0869 331.041 12.3371 330.738 13.4406 330.371L13.8447 330.236L25.1154 323.924C28.4364 322.244 34.6879 318.096 43.5851 311.783C52.6511 305.64 59.9168 300.31 65.3328 295.806C71.1268 291.524 77.9985 285.379 85.9214 277.458C93.8744 269.798 100.147 263.235 104.684 257.791L117.736 242.128L128.139 231.725C130.919 228.945 133.474 226.808 135.803 225.256C137.232 224.303 138.491 223.359 139.52 222.424C140.381 221.642 141.266 220.7 141.911 219.599C143.399 217.633 144.398 215.32 144.398 212.723C144.398 210.816 143.922 208.95 142.853 207.287C141.151 204.383 138.156 201.762 134.517 199.332L122.595 191.079L121.986 190.875C120.42 190.354 116.201 188.672 109.11 185.717C105.537 184.229 102.188 183.174 99.4688 183.174Z" fill="black"/>
<path d="M205.816 191.523C204.487 191.523 203.054 191.791 201.716 192.556C200.349 193.337 199.36 194.479 198.715 195.769C198.405 196.39 197.801 197.66 197.801 199.1C197.801 201.748 199.092 204.05 200.545 205.866L204.102 210.313L211.671 219.217L211.728 219.279C214.628 222.442 218.393 227.83 223.039 235.671L223.064 235.714L239.818 262.607L257.455 289.505L257.488 289.552C265.407 300.991 271.503 309.325 275.731 314.46C279.858 319.472 283.561 323.372 286.816 325.999C290.73 329.589 295.014 332.359 299.42 332.359H301.184L301.621 332.272C306.774 331.241 310.108 326.836 312.332 321.753L312.394 321.61L312.447 321.463C314.141 316.72 314.906 311.041 314.906 304.568V301.319L314.893 301.147C314.266 292.991 312.083 284.489 308.438 275.663C305.034 266.712 300.106 258.265 293.692 250.325L293.632 250.251L293.57 250.18C286.953 242.661 279.595 235.604 271.501 229.009L271.461 228.977L271.421 228.946C263.468 222.76 256.78 217.853 251.379 214.252L251.353 214.235L251.327 214.218C246.214 210.909 239.962 207.339 232.599 203.507C225.589 199.421 220.129 196.526 216.336 194.946L211.033 192.736L211.003 192.724C209.361 192.067 207.555 191.523 205.816 191.523Z" fill="black"/>
</svg>
