<svg width="350" height="350" viewBox="0 0 350 350" fill="none" xmlns="http://www.w3.org/2000/svg">
<path d="M133.297 177.039C132.184 177.039 130.381 177.144 128.632 178.018L127.689 178.49L126.943 179.236C124.667 181.512 123.867 184.397 123.867 187.055C123.867 189.462 124.617 191.937 125.498 194.142L125.504 194.156L129.867 205.21C131.721 210.147 134.347 216.09 137.704 223L137.72 223.034L137.737 223.067C140.287 228.166 142.545 232.343 144.47 235.31L102.557 240.377L66.369 245.63L58.9881 246.197L41.589 247.44L40.6485 247.816C39.4373 248.301 38.2081 248.885 37.1132 249.615C36.104 250.288 34.6543 251.446 33.7331 253.288L33.0469 254.661V256.781C33.0469 259.358 34.1956 261.69 35.0752 263.229L35.1862 263.423L35.3104 263.609C36.5504 265.469 38.384 267.017 40.1478 268.285C42.016 269.628 44.3257 271.018 46.9961 272.457L47.0121 272.465L53.5284 276.02L53.6322 276.072C57.4874 277.999 61.5058 279.102 65.6211 279.102H66.083L66.5403 279.036C68.5672 278.747 71.5328 277.873 75.0008 276.717L75.1523 276.667L75.3012 276.609C78.3275 275.432 83.9671 273.859 92.5499 271.909L92.6181 271.893L92.6859 271.876C101.147 269.761 106.656 268.431 109.32 267.855L126.696 264.959C134.423 263.801 141.04 262.939 146.563 262.368L146.575 262.367L146.587 262.365C151.847 261.802 168.227 260.738 196.019 259.172C223.601 258.007 242.054 257.428 251.506 257.422L264.103 258.008H276.377L276.779 257.958C279.199 257.655 281.658 256.84 283.77 255.176C286.704 252.921 287.453 249.63 287.453 247.113V245.434L287.259 244.658C286.436 241.366 284.357 238.74 282.049 236.689C279.772 234.665 276.66 232.638 272.977 230.591C269.22 228.504 265.438 226.716 261.629 225.235L261.575 225.214L261.521 225.194C257.446 223.693 253.509 222.742 249.898 222.742C248.664 222.742 247.199 222.969 245.858 223.217C244.389 223.489 242.587 223.883 240.483 224.384C236.855 225.247 230.891 226.095 222.357 226.87L222.311 226.875L177.7 231.571C178.235 228.987 178.469 226.237 178.469 223.383V223.235L178.462 223.088C178.228 217.945 176.957 212.742 174.791 207.513C172.731 202.067 169.706 197.356 165.657 193.523C162.112 189.991 158.053 186.935 153.514 184.341L153.411 184.282L153.305 184.226C148.985 181.963 144.471 179.913 139.767 178.072L139.299 177.889L138.808 177.78C136.906 177.357 134.989 177.039 133.297 177.039Z" fill="black"/>
<path d="M109.859 277.488C108.605 277.488 107.442 277.754 106.405 278.182C104.387 278.836 101.708 280.19 100.237 283.132C99.2682 285.07 98.9044 287.491 98.7041 289.494L98.6719 289.816V290.141C98.6719 291.039 98.4542 292.629 97.7501 295.093L97.7343 295.149L97.7195 295.204C97.0078 297.873 96.1145 300.556 95.0352 303.254L95.009 303.32L94.9842 303.386C94.053 305.869 92.2007 309.403 89.199 314.1C85.9831 318.823 81.2049 325.325 74.8201 333.644L74.8131 333.653L74.8063 333.662C68.5763 341.839 63.965 347.467 60.8955 350.717L60.8354 350.78L60.777 350.846C57.5487 354.454 53.9221 358.272 49.8921 362.302L44.6186 367.576C43.1289 369.065 41.543 371.402 41.543 374.516C41.543 376.029 41.9294 377.409 42.5222 378.594L42.9939 379.538L43.7397 380.284C45.0342 381.578 47.1759 383.066 50.0938 383.066C51.4675 383.066 52.7037 382.743 53.6141 382.44L54.1977 382.245L61.9406 377.909C64.4463 376.628 68.798 373.719 74.5988 369.603C80.6328 365.514 85.5441 361.918 89.2632 358.831C93.2998 355.838 97.9843 351.635 103.279 346.343C108.615 341.203 112.889 336.736 116.025 332.974L124.625 322.653L131.448 315.831C133.185 314.093 134.711 312.83 136.024 311.955C137.063 311.262 138.056 310.526 138.914 309.745C139.57 309.149 140.393 308.31 141.063 307.226C142.338 305.488 143.312 303.281 143.312 300.688C143.312 298.842 142.851 296.949 141.766 295.233C140.231 292.647 137.739 290.568 135.194 288.867L126.858 283.096L125.977 282.802C125.083 282.504 122.406 281.442 117.633 279.453C115.207 278.442 112.419 277.488 109.859 277.488Z" fill="black"/>
<path d="M180.758 283.055C179.407 283.055 177.822 283.328 176.288 284.204C174.712 285.105 173.597 286.412 172.893 287.82L172.885 287.837C172.654 288.298 171.914 289.777 171.914 291.605C171.914 294.519 173.324 296.82 174.51 298.303L176.914 301.308L182.036 307.334L182.119 307.423C183.801 309.258 186.163 312.598 189.228 317.771L189.265 317.833L200.476 335.829L212.281 353.832L212.328 353.899C217.615 361.536 221.748 367.194 224.666 370.738C227.444 374.11 230.057 376.893 232.472 378.858C235.193 381.339 238.872 383.945 243.16 383.945H244.683L245.314 383.819C250.479 382.786 253.357 378.474 254.975 374.777L255.065 374.571L255.141 374.358C256.448 370.698 256.984 366.482 256.984 361.918V359.618L256.965 359.369C256.515 353.513 254.958 347.499 252.426 341.358C250.016 335.036 246.543 329.102 242.064 323.556L241.978 323.45L241.887 323.347C237.343 318.183 232.297 313.345 226.758 308.832L226.701 308.786L226.643 308.74C221.307 304.59 216.774 301.261 213.074 298.795L213.037 298.77L213 298.746C209.488 296.474 205.243 294.051 200.303 291.478C195.643 288.763 191.86 286.748 189.117 285.605L185.559 284.123L185.516 284.106C184.283 283.613 182.585 283.055 180.758 283.055Z" fill="black"/>
<path d="M133.297 -42.9609C132.184 -42.9609 130.381 -42.8562 128.632 -41.9817L127.689 -41.51L126.943 -40.7642C124.667 -38.4881 123.867 -35.6026 123.867 -32.9453C123.867 -30.5375 124.617 -28.0634 125.498 -25.858L125.504 -25.8438L129.867 -14.7896C131.721 -9.85303 134.347 -3.91041 137.704 3.00003L137.72 3.03363L137.737 3.06704C140.287 8.1662 142.545 12.3435 144.47 15.3102L102.557 20.3766L66.369 25.6297L58.9881 26.1975L41.589 27.4403L40.6485 27.8165C39.4373 28.3009 38.2081 28.8851 37.1132 29.6151C36.104 30.2879 34.6543 31.446 33.7331 33.2884L33.0469 34.6609V36.7812C33.0469 39.3582 34.1956 41.6896 35.0752 43.2288L35.1862 43.4232L35.3104 43.6095C36.5504 45.4694 38.384 47.0172 40.1478 48.2849C42.016 49.6277 44.3257 51.0182 46.9961 52.4566L47.0121 52.4652L53.5284 56.0197L53.6322 56.0716C57.4874 57.9992 61.5058 59.1016 65.6211 59.1016H66.083L66.5403 59.0362C68.5672 58.7467 71.5328 57.8732 75.0008 56.7172L75.1523 56.6667L75.3012 56.6088C78.3275 55.4319 83.9671 53.8593 92.5499 51.9087L92.6181 51.8932L92.6859 51.8762C101.147 49.7609 106.656 48.4314 109.32 47.8553L126.696 44.9593C134.423 43.8009 141.04 42.9392 146.563 42.3678L146.575 42.3666L146.587 42.3654C151.847 41.8018 168.227 40.7379 196.019 39.172C223.601 38.0068 242.054 37.428 251.506 37.4219L264.103 38.0078H276.377L276.779 37.9576C279.199 37.6551 281.658 36.8398 283.77 35.1755C286.704 32.9208 287.453 29.6296 287.453 27.1133V25.4342L287.259 24.6579C286.436 21.3662 284.357 18.7401 282.049 16.6887C279.772 14.6646 276.66 12.6376 272.977 10.5914C269.22 8.50428 265.438 6.7159 261.629 5.23494L261.575 5.21385L261.521 5.19374C257.446 3.69259 253.509 2.74219 249.898 2.74219C248.664 2.74219 247.199 2.96875 245.858 3.21706C244.389 3.48909 242.587 3.88267 240.483 4.38379C236.855 5.24749 230.891 6.09459 222.357 6.87045L222.311 6.87463L177.7 11.5705C178.235 8.98734 178.469 6.23673 178.469 3.38281V3.23516L178.462 3.08766C178.228 -2.05547 176.957 -7.25843 174.791 -12.4869C172.731 -17.9332 169.706 -22.6441 165.657 -26.477C162.112 -30.0087 158.053 -33.0652 153.514 -35.6592L153.411 -35.7183L153.305 -35.7735C148.985 -38.0366 144.471 -40.0874 139.767 -41.9281L139.299 -42.1112L138.808 -42.2202C136.906 -42.643 134.989 -42.9609 133.297 -42.9609Z" fill="black"/>
<path d="M109.859 57.4883C108.605 57.4883 107.442 57.7539 106.405 58.1824C104.387 58.8357 101.708 60.1901 100.237 63.1322C99.2682 65.0699 98.9044 67.4907 98.7041 69.4939L98.6719 69.8164V70.1406C98.6719 71.0395 98.4542 72.6288 97.7501 75.0932L97.7343 75.1485L97.7195 75.2041C97.0078 77.8728 96.1145 80.5558 95.0352 83.2539L95.009 83.3195L94.9842 83.3857C94.053 85.8689 92.2007 89.4026 89.199 94.0997C85.9831 98.8234 81.2049 105.325 74.8201 113.644L74.8131 113.653L74.8063 113.662C68.5763 121.839 63.965 127.467 60.8955 130.717L60.8354 130.78L60.777 130.846C57.5487 134.454 53.9221 138.272 49.8921 142.302L44.6186 147.576C43.1289 149.065 41.543 151.402 41.543 154.516C41.543 156.029 41.9294 157.409 42.5222 158.594L42.9939 159.538L43.7397 160.284C45.0342 161.578 47.1759 163.066 50.0938 163.066C51.4675 163.066 52.7037 162.743 53.6141 162.44L54.1977 162.245L61.9406 157.909C64.4463 156.628 68.798 153.719 74.5988 149.603C80.6328 145.514 85.5441 141.918 89.2632 138.831C93.2998 135.838 97.9843 131.635 103.279 126.343C108.615 121.203 112.889 116.736 116.025 112.974L124.625 102.653L131.448 95.8306C133.185 94.0935 134.711 92.8302 136.024 91.9552C137.063 91.2624 138.056 90.5257 138.914 89.7451C139.57 89.1493 140.393 88.3097 141.063 87.2258C142.338 85.488 143.312 83.2813 143.312 80.6875C143.312 78.8416 142.851 76.9492 141.766 75.2331C140.231 72.6475 137.739 70.5685 135.194 68.8669L126.858 63.0959L125.977 62.8023C125.083 62.5042 122.406 61.4421 117.633 59.4531C115.207 58.4423 112.419 57.4883 109.859 57.4883Z" fill="black"/>
<path d="M180.758 63.0547C179.407 63.0547 177.822 63.3276 176.288 64.2041C174.712 65.1048 173.597 66.4117 172.893 67.8197L172.885 67.8366C172.654 68.2984 171.914 69.7768 171.914 71.6055C171.914 74.5189 173.324 76.8196 174.51 78.3027L176.914 81.3079L182.036 87.3337L182.119 87.4235C183.801 89.2585 186.163 92.5978 189.228 97.7708L189.265 97.8327L200.476 115.829L212.281 133.832L212.328 133.899C217.615 141.536 221.748 147.194 224.666 150.738C227.444 154.11 230.057 156.893 232.472 158.858C235.193 161.339 238.872 163.945 243.16 163.945H244.683L245.314 163.819C250.479 162.786 253.357 158.474 254.975 154.777L255.065 154.571L255.141 154.358C256.448 150.698 256.984 146.482 256.984 141.918V139.618L256.965 139.369C256.515 133.513 254.958 127.499 252.426 121.358C250.016 115.036 246.543 109.102 242.064 103.556L241.978 103.45L241.887 103.347C237.343 98.1825 232.297 93.3452 226.758 88.8321L226.701 88.7855L226.643 88.7403C221.307 84.5903 216.774 81.2615 213.074 78.7948L213.037 78.7701L213 78.7459C209.488 76.4737 205.243 74.0509 200.303 71.4779C195.643 68.7631 191.86 66.7482 189.117 65.6055L185.559 64.1228L185.516 64.1055C184.283 63.6126 182.585 63.0547 180.758 63.0547Z" fill="black"/>
</svg>
