<svg width="350" height="350" viewBox="0 0 350 350" fill="none" xmlns="http://www.w3.org/2000/svg">
<path fill-rule="evenodd" clip-rule="evenodd" d="M235.801 191.891C234.015 191.891 231.73 192.444 229.696 192.999L229.617 193.02L229.538 193.044C228.066 193.486 225.92 193.917 222.983 194.285L222.638 194.328L222.3 194.407C219.342 195.103 215.844 195.649 211.775 196.019L211.486 196.045L211.201 196.097C207.124 196.838 201.644 197.598 194.709 198.37L175.914 200.131L175.815 200.144C169.554 200.927 165.383 201.398 163.191 201.581L163.171 201.583L59.7437 210.828L55.7799 209.341L49.1369 208.392C47.3416 208.016 45.8391 207.72 44.6538 207.514C43.6132 207.333 42.3108 207.125 41.2695 207.125H40.8076L40.3503 207.19C38.7918 207.413 37.1479 207.746 35.7061 208.322C34.7513 208.704 31.4968 210.095 30.5691 213.806L30.375 214.583V215.676C30.375 217.306 30.8274 218.793 31.2283 219.862C31.6651 221.027 32.2553 222.245 32.9265 223.476L33.0314 223.668L37.202 230.222C38.1231 231.769 39.1254 233.831 40.1877 236.479C41.1335 239.022 42.016 242.621 42.7553 247.426L42.7703 247.524L42.7884 247.621C43.7038 252.564 44.362 258.339 44.7411 264.972L44.7462 265.062L50.0078 327.032C50.05 328.839 50.4314 331.569 50.9658 334.778L52.3966 343.935C52.8564 348.537 54.0321 352.894 56.5206 356.315L56.6294 356.465L56.7466 356.608C57.8103 357.908 59.0095 359.167 60.3505 360.151C61.6239 361.085 63.6302 362.215 66.1719 362.215H66.9268L67.3841 362.15C71.5622 361.553 74.1699 358.629 75.6625 355.942L75.8029 355.689L75.9202 355.425C76.7453 353.569 77.4223 351.893 77.9047 350.446L77.9359 350.353L78.0166 350.084C78.8686 350.171 79.7141 350.203 80.5273 350.203C82.0141 350.203 83.6284 350.083 85.3379 349.872C89.5179 349.472 95.4925 348.785 103.226 347.819C110.986 347.043 117.169 346.464 121.79 346.079L143.098 344.328C152.772 343.747 160.446 343.262 166.113 342.871C171.966 342.675 177.635 342.382 183.118 341.992L196.076 341.537L198.684 345.449C200.067 347.708 201.693 350.77 203.565 354.701L203.592 354.757L203.62 354.813C205.561 358.695 207.714 362.341 210.184 364.459L210.482 364.714L210.809 364.932C212.416 366.003 214.284 366.947 216.362 367.362L216.993 367.488H218.516C221.676 367.488 224.604 366.322 227.133 364.804L227.315 364.695L227.489 364.575C230.983 362.156 234.068 358.566 236.856 354.277L236.895 354.217L236.933 354.156C239.744 349.615 242.007 344.761 243.725 339.606C245.352 334.724 246.864 329.377 248.265 323.575C249.669 317.954 250.612 312.799 251.047 308.139L258.061 259.623L259.247 250.435L259.253 250.378C259.418 248.891 259.763 246.696 260.318 243.721C261.063 240.732 261.649 238.113 262.063 235.887C262.515 234.295 263.085 232.917 263.748 231.723L263.889 231.47L264.006 231.206C264.597 229.876 265.225 228.761 265.87 227.831C266.72 226.798 267.815 225.36 268.45 223.779C268.867 222.853 269.149 221.876 269.353 221.061L269.547 220.285V219.484C269.547 217.621 268.937 216.004 268.424 214.905C267.867 213.711 267.13 212.517 266.321 211.362L266.227 211.228L266.127 211.099C264.636 209.183 263.04 207.367 261.338 205.654C259.374 203.467 256.396 201.184 252.883 198.842C249.288 196.445 246.094 194.57 243.488 193.527C241.017 192.539 238.422 191.891 235.801 191.891ZM139.762 229.738C139.762 228.635 139.603 227.581 139.32 226.585L139.489 226.567C141.243 226.539 144.44 226.324 148.946 225.949L149.027 227.049V234.365C148.634 238.03 148.348 242.642 148.156 248.151L146.72 268.838C146.51 270.18 146.391 271.508 146.391 272.805C146.391 275.393 146.777 277.921 147.579 280.355C148.687 283.912 150.673 287.12 153.286 289.993C156.077 293.261 159.499 295.773 163.469 297.51L163.629 297.58L163.792 297.641C167.467 299.019 171.931 300.082 177.059 300.903C182.232 301.73 187.168 302.156 191.855 302.156C195.612 302.156 199.368 301.948 203.12 301.531L203.327 301.508L203.532 301.471C206.913 300.875 209.941 300.271 212.605 299.657C214.213 299.31 215.863 298.83 217.321 298.101C217.954 297.785 218.782 297.307 219.592 296.604C218.92 300.544 218.123 304.27 217.207 307.785L217.173 307.914L217.144 308.045C216.257 312.128 215.377 315.763 214.507 318.959C213.041 318.298 211.536 317.685 209.992 317.121C207.716 316.218 205.44 315.56 203.209 315.281L202.807 315.23H200.645C199.024 315.23 197.407 315.342 195.796 315.565C193.448 315.78 186.348 316.461 174.53 317.604L174.491 317.608L158.457 319.357C155.57 319.567 148.895 320.157 138.522 321.118L138.511 321.118L117.214 323.161C111.129 323.555 104.202 324.141 96.4388 324.916C90.8868 325.209 85.0217 325.61 78.8447 326.118L71.1344 233.851L105.261 230.652L105.749 234.917L105.823 235.25C106.093 236.466 106.254 237.937 106.254 239.699C106.254 242.291 105.929 245.254 105.221 248.614L105.207 248.684L105.193 248.755C104.074 254.723 102.585 260.491 100.728 266.062C98.8629 271.657 97.0182 275.677 95.285 278.356C93.2896 281.439 91.0098 284.639 88.4388 287.955L82.8405 294.113C81.5084 295.473 79.5938 297.898 79.5938 301.223C79.5938 302.405 79.8478 304.196 81.0525 305.839C81.5389 306.574 82.2162 307.329 83.1474 307.949C84.4768 308.836 85.9329 309.188 87.2656 309.188C88.7997 309.188 90.1074 308.727 90.8515 308.43C91.6461 308.112 92.4435 307.708 93.2095 307.279L100.969 303.543L101.012 303.521C105.193 301.431 109.444 297.719 113.745 293.008L113.755 292.997C117.971 288.359 121.501 283.457 124.307 278.285C127.112 273.271 129.177 268.816 130.167 265.104L130.18 265.055L130.193 265.006C130.992 261.807 132.08 257.159 133.45 251.092C134.819 245.027 135.832 241.118 136.498 239.118C137.123 237.246 137.589 235.912 137.911 235.052C138.226 234.552 138.527 234.036 138.783 233.524L138.791 233.507C139.022 233.045 139.762 231.567 139.762 229.738ZM182.535 223.586C182.535 223.513 182.534 223.441 182.533 223.368L221.102 221.277L221.284 221.257C222.869 221.081 224.184 221.004 225.254 221.004C225.79 221.004 226.199 221.023 226.496 221.05C226.76 221.074 226.884 221.1 226.901 221.103C226.903 221.104 226.902 221.103 226.901 221.103L226.983 221.124L227.067 221.142C227.15 221.161 227.225 221.179 227.291 221.197C227.365 221.469 227.451 221.839 227.537 222.324C227.503 223.947 227.323 227.483 226.97 233.141L226.962 233.263L226.672 244.857C226.469 246.844 225.997 250.993 225.248 257.363L222.053 282.34C221.984 282.708 221.914 283.086 221.843 283.474C221.082 282.163 220.311 280.919 219.529 279.746L219.172 279.21L218.717 278.755C217.268 277.306 215.654 276.03 213.855 275.078C211.604 273.679 209.05 273.031 206.565 272.782L206.242 272.75H205.918C204.485 272.75 201.933 273.002 198.713 273.38L198.527 273.402L198.343 273.435C195.384 273.957 192.004 274.321 188.183 274.508H181.012C179.345 274.348 177.918 273.999 176.691 273.508L176.423 273.4L176.145 273.317C175.557 273.141 175.452 272.969 175.401 272.886L175.395 272.875C175.134 272.458 174.668 271.365 174.336 269.152C174.369 267.098 174.629 263.537 175.172 258.284L176.345 248.313L176.351 248.256C176.727 244.496 177.176 241.72 177.654 239.811L177.691 239.661L177.721 239.509C178.096 237.634 178.57 235.452 179.146 232.958C179.396 231.876 179.641 231.053 179.864 230.447C179.974 230.149 180.07 229.926 180.147 229.768C180.184 229.69 180.215 229.632 180.237 229.593C180.26 229.553 180.272 229.535 180.272 229.535C180.733 228.843 181.19 228.103 181.556 227.372L181.564 227.355C181.796 226.893 182.535 225.415 182.535 223.586Z" fill="black"/>
<path d="M118.906 -38.375C116.62 -38.375 113.739 -37.9135 111.496 -35.8665C109.52 -34.2488 108.426 -31.9385 108.426 -29.3594C108.426 -26.9813 109.473 -24.5014 110.471 -22.5052L110.525 -22.3983L110.583 -22.2938C111.204 -21.175 111.711 -19.7421 112.016 -17.9083L112.023 -17.8684L112.03 -17.8286C112.361 -16.0086 112.736 -12.4731 113.127 -6.99486C113.518 -1.51755 113.699 2.11074 113.699 4.03906V44.5947L63.7106 54.0012L63.6999 54.0032C60.0045 54.6838 57.1631 55.1893 55.1603 55.5231C54.1548 55.6907 53.3902 55.81 52.8483 55.8859C52.5456 55.9283 52.3733 55.9479 52.297 55.9566C52.2797 55.9585 52.2673 55.96 52.2595 55.9609H52.0373L42.9088 57.1781L33.2265 58.3884L32.9043 58.4689C31.899 58.7202 30.8472 59.0581 29.8743 59.5445C29.0413 59.961 27.8991 60.6667 26.9908 61.8567C26.2445 62.7787 25.9121 63.7391 25.7531 64.375C25.5581 65.155 25.5156 65.883 25.5156 66.4414C25.5156 67.6639 25.804 68.785 26.0908 69.6455L26.3238 70.3443L26.7323 70.9571C28.3145 73.3303 30.9093 75.0204 33.4644 76.3051L41.6703 80.7011L41.7395 80.7358C43.1039 81.4179 44.8229 82.1654 46.8441 82.9738L47.1906 83.1124L47.5528 83.203C49.5893 83.7121 51.7003 83.9531 53.8672 83.9531H55.918C59.1581 83.9531 63.5587 82.9383 68.6683 81.3662C73.5723 79.8572 80.1715 78.1325 88.5114 76.193L88.569 76.1796L102.369 72.6561L102.382 72.6528C104.999 71.9987 108.636 71.1574 113.307 70.1267L112.527 84.1598V87.2422C112.527 91.9498 112.833 97.784 113.426 104.704L113.433 104.787L113.443 104.87C114.453 113.558 116.086 121.285 118.392 127.995L118.427 128.094L118.465 128.193C121.048 134.866 124.608 140.438 129.289 144.651L129.457 144.801L129.636 144.937C134.106 148.343 138.908 151.12 144.037 153.257L144.222 153.334L144.413 153.397C149.44 155.073 155.109 156.405 161.39 157.418L161.464 157.43L161.539 157.44C167.685 158.26 174.476 158.66 181.895 158.66H185.996C192.039 158.66 198.081 158.358 204.121 157.754L204.136 157.753L204.15 157.751C211.628 156.964 217.803 156.169 222.642 155.363C227.437 154.564 232.886 153.473 238.981 152.098C244.922 150.944 250.024 149.444 253.247 147.165C256.159 145.273 258.879 142.257 258.879 137.926C258.879 135.874 258.104 134.085 257.333 132.753C256.526 131.358 255.438 129.982 254.211 128.643C251.456 125.638 247.958 123.28 243.894 121.474C239.833 119.669 235.75 118.656 231.699 118.656H230.929L230.188 118.868C228.687 119.297 225.838 120.215 221.757 121.575C217.868 122.871 213.178 124.189 207.662 125.523C201.888 126.677 197.22 127.532 193.634 128.099L193.496 128.12L193.359 128.149C190.007 128.855 185.519 129.417 179.816 129.798C176.008 129.988 172.405 130.082 169.004 130.082H163.824C158.275 129.892 154.527 129.248 152.239 128.402C149.931 127.471 148.164 126.3 146.819 124.955C145.67 123.806 144.334 121.878 142.926 118.885C141.821 116.537 140.89 112.315 140.511 105.682C140.124 98.7273 139.934 92.5839 139.934 87.2422C139.934 82.6301 140.3 75.1815 141.054 64.8048L170.936 60.4629L170.967 60.4585L196.072 56.9554C202.605 56.188 210.705 55.4162 220.387 54.6413L246.097 52.8883C253.3 52.4989 258.312 52.2043 261.095 52.0056C264.129 51.7889 267.154 51.2187 269.584 49.83L270.005 49.5898L270.376 49.2799C271.955 47.9643 273.458 46.2883 274.306 44.1676L274.699 43.1842V41.5391C274.699 39.0283 273.476 37.0547 272.419 35.7722C271.322 34.44 269.893 33.2291 268.348 32.1215C265.094 29.6834 262.043 27.6755 259.209 26.1496L259.06 26.0693L258.906 25.9984C256.239 24.7675 253.299 23.5513 250.092 22.3476C247.082 21.1455 244.439 20.2464 242.267 19.7638L241.678 19.6328H241.074C237.835 19.6328 234.298 20.093 230.506 20.9357C226.914 21.7338 221.19 23.1163 213.373 25.0705L213.327 25.0819L213.282 25.0941C205.341 27.2245 199.035 28.7509 194.323 29.6945L142.168 39.5058L144.025 12.576L144.028 12.5313C144.213 9.00119 144.586 5.25882 145.152 1.30125L145.168 1.18628L145.18 1.07071C145.558 -2.7122 146.014 -5.54131 146.508 -7.51762C146.988 -9.4408 147.721 -11.4083 148.728 -13.4231C149.726 -15.4194 150.773 -17.8992 150.773 -20.2773V-20.5703C150.773 -23.0782 149.902 -25.3473 148.396 -27.2288L148.206 -27.4667L147.991 -27.6821C146.586 -29.087 144.621 -30.5142 142.367 -31.9487L142.21 -32.0483L142.048 -32.137C139.655 -33.4419 137.278 -34.4755 134.921 -35.1895C132.829 -35.8795 130.073 -36.5015 126.79 -37.0858C123.732 -37.8442 120.974 -38.375 118.906 -38.375Z" fill="black"/>
</svg>
