<svg width="350" height="350" viewBox="0 0 350 350" fill="none" xmlns="http://www.w3.org/2000/svg">
<path fill-rule="evenodd" clip-rule="evenodd" d="M31.2187 330.206C33.2732 332.314 36.1441 335.076 39.1618 336.498C42.0449 337.929 45.0952 338.852 48.2148 338.852C49.7204 338.852 52.2304 338.402 54.9579 337.856L54.9982 337.848L55.0384 337.839C57.6405 337.282 61.7235 336.52 67.3449 335.551L74.8239 334.4C77.9177 334.015 83.896 333.34 92.8027 332.372L92.8085 332.371L114.988 330.036C118.398 329.753 122.506 329.468 128.127 329.181C127.95 337.544 127.624 344.907 127.312 351.345C127.257 352.478 127.202 353.586 127.149 354.669L127.149 354.673C126.828 361.186 126.551 366.796 126.542 371.367C126.533 376.487 126.823 381.355 128.354 385.053C129.186 387.064 130.508 389.05 132.615 390.477C134.731 391.911 137.088 392.41 139.328 392.41H139.621C143.872 392.41 148.471 391.799 152.212 388.692C155.927 385.606 157.652 381.015 158.603 375.889C159.565 370.705 159.917 363.895 160.002 355.208C160.076 347.736 159.951 338.591 159.776 327.5L201.838 325.961C203.922 325.964 212.033 326.061 226.259 326.253L226.27 326.254L255.829 326.543C259.586 326.991 264.321 327.182 268.893 325.675C270.142 325.286 271.994 324.583 273.651 323.304C275.431 321.93 277.457 319.473 277.457 315.859C277.457 314.636 277.183 312.734 276.791 311.034C276.44 309.513 275.707 306.793 274.142 304.781L274.01 304.611L273.866 304.451C271.095 301.372 266.11 298.816 260.324 296.495C254.762 294.004 250.488 292.265 247.84 291.543L247.779 291.527L247.717 291.511C245.005 290.833 242.36 290.453 239.816 290.453C237.8 290.453 234.964 291.042 231.916 291.804C228.959 292.543 226.234 293.086 223.734 293.443C221.152 293.812 216.028 294.384 208.243 295.163L188.434 296.619L188.4 296.622L160.306 298.526L160.531 258.644C166.91 258.059 174.26 257.282 181.698 256.496L181.699 256.496L181.702 256.495C183.053 256.352 184.408 256.209 185.76 256.067C196.881 254.896 207.837 253.778 216.034 253.266L216.22 253.254L216.404 253.231C219.753 252.812 222.899 252.124 225.375 250.886C226.31 250.418 227.224 249.905 228.036 249.336C228.772 248.821 229.814 247.996 230.613 246.797L231.621 245.285V243.469C231.621 241.27 230.885 239.035 230.181 237.435C229.484 235.852 228.335 233.788 226.705 232.321L226.382 232.03L226.02 231.789C223.354 230.012 220.49 228.473 217.438 227.165L217.208 227.067L216.972 226.988C213.894 225.962 210.987 225.252 208.312 224.977C203.987 224.184 199.758 224.845 196.438 225.595L161.672 230.133L161.795 228.786L161.795 228.785C162.034 226.156 162.272 223.543 162.593 220.961C163.324 215.1 164.397 210.326 166.217 207.141L166.3 206.996L166.374 206.847C167.765 204.066 169.059 200.908 169.059 198.012C169.059 195.536 167.988 193.544 166.865 192.14C165.787 190.792 164.416 189.668 163.009 188.718C160.069 186.541 156.427 184.773 152.274 183.31C148 181.611 143.802 180.493 139.698 180.037L139.367 180H139.035C137.368 180 135.705 180.105 134.218 180.436C132.984 180.71 130.59 181.401 128.962 183.572L128.637 184.005L128.395 184.489C126.926 187.426 127.107 190.295 127.529 192.354C127.828 193.811 128.402 195.428 128.745 196.398C128.829 196.634 128.899 196.832 128.949 196.979C129.627 199.014 130.105 202.37 130.105 207.387V207.414L130.348 234.431L99.8646 236.662L99.7924 236.669C91.8089 237.448 84.3177 238.129 77.3181 238.712L77.2957 238.714L70.8468 239.3C69.8608 239.384 68.0543 239.647 66.2997 240.354C65.4187 240.709 64.1671 241.326 63.0545 242.406C61.8438 243.581 60.6836 245.448 60.6836 247.914C60.6836 248.897 60.8997 249.836 61.0442 250.388C61.2259 251.082 61.4835 251.856 61.8183 252.647C62.412 254.048 63.5502 256.221 65.5684 257.819C68.2875 260.034 71.301 261.648 74.6034 262.473L74.6563 262.486L74.7094 262.499C78.9036 263.467 83.1031 263.824 87.1914 263.824C90.9505 263.824 96.1934 263.517 102.822 262.934L129.52 261.752V300.412L122.646 301.117L122.295 301.257C121.997 301.305 121.541 301.368 120.897 301.447C119.571 301.608 117.648 301.81 115.102 302.052C110.021 302.536 102.611 303.168 92.8536 303.949C73.3174 305.512 59.7953 306.378 52.1665 306.568C44.2887 306.765 40.1087 306.859 39.4258 306.859H39.1954L30.9872 307.491L30.6319 307.562C27.8307 308.122 24.4063 309.56 22.6334 313.106L22 314.373V315.789C22 317.291 22.2433 318.845 22.9116 320.391C23.5718 321.918 24.5158 323.134 25.5152 324.133C26.2013 324.819 27.0176 325.705 28.0174 326.792L28.0854 326.866C29.033 327.897 30.1106 329.069 31.2187 330.206ZM155.726 229.265C155.757 228.929 155.788 228.59 155.819 228.25L155.82 228.236C155.789 228.581 155.758 228.924 155.726 229.265ZM122.587 301.205C122.587 301.205 122.568 301.209 122.526 301.217C122.564 301.208 122.586 301.204 122.587 301.205Z" fill="black"/>
<path d="M118.906 -38.375C116.62 -38.375 113.739 -37.9135 111.496 -35.8665C109.52 -34.2488 108.426 -31.9385 108.426 -29.3594C108.426 -26.9813 109.473 -24.5014 110.471 -22.5052L110.525 -22.3983L110.583 -22.2938C111.204 -21.175 111.711 -19.7421 112.016 -17.9083L112.023 -17.8684L112.03 -17.8286C112.361 -16.0086 112.736 -12.4731 113.127 -6.99486C113.518 -1.51755 113.699 2.11074 113.699 4.03906V44.5947L63.7106 54.0012L63.6999 54.0032C60.0045 54.6838 57.1631 55.1893 55.1603 55.5231C54.1548 55.6907 53.3902 55.81 52.8483 55.8859C52.5456 55.9283 52.3733 55.9479 52.297 55.9566C52.2797 55.9585 52.2673 55.96 52.2595 55.9609H52.0373L42.9088 57.1781L33.2265 58.3884L32.9043 58.4689C31.899 58.7202 30.8472 59.0581 29.8743 59.5445C29.0413 59.961 27.8991 60.6667 26.9908 61.8567C26.2445 62.7787 25.9121 63.7391 25.7531 64.375C25.5581 65.155 25.5156 65.883 25.5156 66.4414C25.5156 67.6639 25.804 68.785 26.0908 69.6455L26.3238 70.3443L26.7323 70.9571C28.3145 73.3303 30.9093 75.0204 33.4644 76.3051L41.6703 80.7011L41.7395 80.7358C43.1039 81.4179 44.8229 82.1654 46.8441 82.9738L47.1906 83.1124L47.5528 83.203C49.5893 83.7121 51.7003 83.9531 53.8672 83.9531H55.918C59.1581 83.9531 63.5587 82.9383 68.6683 81.3662C73.5723 79.8572 80.1715 78.1325 88.5114 76.193L88.569 76.1796L102.369 72.6561L102.382 72.6528C104.999 71.9987 108.636 71.1574 113.307 70.1267L112.527 84.1598V87.2422C112.527 91.9498 112.833 97.784 113.426 104.704L113.433 104.787L113.443 104.87C114.453 113.558 116.086 121.285 118.392 127.995L118.427 128.094L118.465 128.193C121.048 134.866 124.608 140.438 129.289 144.651L129.457 144.801L129.636 144.937C134.106 148.343 138.908 151.12 144.037 153.257L144.222 153.334L144.413 153.397C149.44 155.073 155.109 156.405 161.39 157.418L161.464 157.43L161.539 157.44C167.685 158.26 174.476 158.66 181.895 158.66H185.996C192.039 158.66 198.081 158.358 204.121 157.754L204.136 157.753L204.15 157.751C211.628 156.964 217.803 156.169 222.642 155.363C227.437 154.564 232.886 153.473 238.981 152.098C244.922 150.944 250.024 149.444 253.247 147.165C256.159 145.273 258.879 142.257 258.879 137.926C258.879 135.874 258.104 134.085 257.333 132.753C256.526 131.358 255.438 129.982 254.211 128.643C251.456 125.638 247.958 123.28 243.894 121.474C239.833 119.669 235.75 118.656 231.699 118.656H230.929L230.188 118.868C228.687 119.297 225.838 120.215 221.757 121.575C217.868 122.871 213.178 124.189 207.662 125.523C201.888 126.677 197.22 127.532 193.634 128.099L193.496 128.12L193.359 128.149C190.007 128.855 185.519 129.417 179.816 129.798C176.008 129.988 172.405 130.082 169.004 130.082H163.824C158.275 129.892 154.527 129.248 152.239 128.402C149.931 127.471 148.164 126.3 146.819 124.955C145.67 123.806 144.334 121.878 142.926 118.885C141.821 116.537 140.89 112.315 140.511 105.682C140.124 98.7273 139.934 92.5839 139.934 87.2422C139.934 82.6301 140.3 75.1815 141.054 64.8048L170.936 60.4629L170.967 60.4585L196.072 56.9554C202.605 56.188 210.705 55.4162 220.387 54.6413L246.097 52.8883C253.3 52.4989 258.312 52.2043 261.095 52.0056C264.129 51.7889 267.154 51.2187 269.584 49.83L270.005 49.5898L270.376 49.2799C271.955 47.9643 273.458 46.2883 274.306 44.1676L274.699 43.1842V41.5391C274.699 39.0283 273.476 37.0547 272.419 35.7722C271.322 34.44 269.893 33.2291 268.348 32.1215C265.094 29.6834 262.043 27.6755 259.209 26.1496L259.06 26.0693L258.906 25.9984C256.239 24.7675 253.299 23.5513 250.092 22.3476C247.082 21.1455 244.439 20.2464 242.267 19.7638L241.678 19.6328H241.074C237.835 19.6328 234.298 20.093 230.506 20.9357C226.914 21.7338 221.19 23.1163 213.373 25.0705L213.327 25.0819L213.282 25.0941C205.341 27.2245 199.035 28.7509 194.323 29.6945L142.168 39.5058L144.025 12.576L144.028 12.5313C144.213 9.00119 144.586 5.25882 145.152 1.30125L145.168 1.18628L145.18 1.07071C145.558 -2.7122 146.014 -5.54131 146.508 -7.51762C146.988 -9.4408 147.721 -11.4083 148.728 -13.4231C149.726 -15.4194 150.773 -17.8992 150.773 -20.2773V-20.5703C150.773 -23.0782 149.902 -25.3473 148.396 -27.2288L148.206 -27.4667L147.991 -27.6821C146.586 -29.087 144.621 -30.5142 142.367 -31.9487L142.21 -32.0483L142.048 -32.137C139.655 -33.4419 137.278 -34.4755 134.921 -35.1895C132.829 -35.8795 130.073 -36.5015 126.79 -37.0858C123.732 -37.8442 120.974 -38.375 118.906 -38.375Z" fill="black"/>
</svg>
