<svg width="350" height="350" viewBox="0 0 350 350" fill="none" xmlns="http://www.w3.org/2000/svg">
<path d="M118.906 181.625C116.62 181.625 113.739 182.086 111.496 184.134C109.52 185.751 108.426 188.061 108.426 190.641C108.426 193.019 109.473 195.499 110.471 197.495L110.525 197.602L110.583 197.706C111.204 198.825 111.711 200.258 112.016 202.092L112.023 202.132L112.03 202.171C112.361 203.991 112.736 207.527 113.127 213.005C113.518 218.482 113.699 222.111 113.699 224.039V264.595L63.7106 274.001L63.6999 274.003C60.0045 274.684 57.1631 275.189 55.1603 275.523C54.1548 275.691 53.3902 275.81 52.8483 275.886C52.5456 275.928 52.3733 275.948 52.297 275.957C52.2797 275.959 52.2673 275.96 52.2595 275.961H52.0373L42.9088 277.178L33.2265 278.388L32.9043 278.469C31.899 278.72 30.8472 279.058 29.8743 279.545C29.0413 279.961 27.8991 280.667 26.9908 281.857C26.2445 282.779 25.9121 283.739 25.7531 284.375C25.5581 285.155 25.5156 285.883 25.5156 286.441C25.5156 287.664 25.804 288.785 26.0908 289.646L26.3238 290.344L26.7323 290.957C28.3145 293.33 30.9093 295.02 33.4644 296.305L41.6703 300.701L41.7395 300.736C43.1039 301.418 44.8229 302.165 46.8441 302.974L47.1906 303.112L47.5528 303.203C49.5893 303.712 51.7003 303.953 53.8672 303.953H55.918C59.1581 303.953 63.5587 302.938 68.6683 301.366C73.5723 299.857 80.1715 298.132 88.5114 296.193L88.569 296.18L102.369 292.656L102.382 292.653C104.999 291.999 108.636 291.157 113.307 290.127L112.527 304.16V307.242C112.527 311.95 112.833 317.784 113.426 324.704L113.433 324.787L113.443 324.87C114.453 333.558 116.086 341.285 118.392 347.995L118.427 348.094L118.465 348.193C121.048 354.866 124.608 360.438 129.289 364.651L129.457 364.801L129.636 364.937C134.106 368.343 138.908 371.12 144.037 373.257L144.222 373.334L144.413 373.397C149.44 375.073 155.109 376.405 161.39 377.418L161.464 377.43L161.539 377.44C167.685 378.26 174.476 378.66 181.895 378.66H185.996C192.039 378.66 198.081 378.358 204.121 377.754L204.136 377.753L204.15 377.751C211.628 376.964 217.803 376.169 222.642 375.363C227.437 374.564 232.886 373.473 238.981 372.098C244.922 370.944 250.024 369.444 253.247 367.165C256.159 365.273 258.879 362.257 258.879 357.926C258.879 355.874 258.104 354.085 257.333 352.753C256.526 351.358 255.438 349.982 254.211 348.643C251.456 345.638 247.958 343.28 243.894 341.474C239.833 339.669 235.75 338.656 231.699 338.656H230.929L230.188 338.868C228.687 339.297 225.838 340.215 221.757 341.575C217.868 342.871 213.178 344.189 207.662 345.523C201.888 346.677 197.22 347.532 193.634 348.099L193.496 348.12L193.359 348.149C190.007 348.855 185.519 349.417 179.816 349.798C176.008 349.988 172.405 350.082 169.004 350.082H163.824C158.275 349.892 154.527 349.248 152.239 348.402C149.931 347.471 148.164 346.3 146.819 344.955C145.67 343.806 144.334 341.878 142.926 338.885C141.821 336.537 140.89 332.315 140.511 325.682C140.124 318.727 139.934 312.584 139.934 307.242C139.934 302.63 140.3 295.181 141.054 284.805L170.936 280.463L170.967 280.458L196.072 276.955C202.605 276.188 210.705 275.416 220.387 274.641L246.097 272.888C253.3 272.499 258.312 272.204 261.095 272.006C264.129 271.789 267.154 271.219 269.584 269.83L270.005 269.59L270.376 269.28C271.955 267.964 273.458 266.288 274.306 264.168L274.699 263.184V261.539C274.699 259.028 273.476 257.055 272.419 255.772C271.322 254.44 269.893 253.229 268.348 252.122C265.094 249.683 262.043 247.675 259.209 246.15L259.06 246.069L258.906 245.998C256.239 244.768 253.299 243.551 250.092 242.348C247.082 241.146 244.439 240.246 242.267 239.764L241.678 239.633H241.074C237.835 239.633 234.298 240.093 230.506 240.936C226.914 241.734 221.19 243.116 213.373 245.07L213.327 245.082L213.282 245.094C205.341 247.224 199.035 248.751 194.323 249.694L142.168 259.506L144.025 232.576L144.028 232.531C144.213 229.001 144.586 225.259 145.152 221.301L145.168 221.186L145.18 221.071C145.558 217.288 146.014 214.459 146.508 212.482C146.988 210.559 147.721 208.592 148.728 206.577C149.726 204.581 150.773 202.101 150.773 199.723V199.43C150.773 196.922 149.902 194.653 148.396 192.771L148.206 192.533L147.991 192.318C146.586 190.913 144.621 189.486 142.367 188.051L142.21 187.952L142.048 187.863C139.655 186.558 137.278 185.524 134.921 184.81C132.829 184.121 130.073 183.499 126.79 182.914C123.732 182.156 120.974 181.625 118.906 181.625Z" fill="black"/>
<path d="M118.906 -38.375C116.62 -38.375 113.739 -37.9135 111.496 -35.8665C109.52 -34.2488 108.426 -31.9385 108.426 -29.3594C108.426 -26.9813 109.473 -24.5014 110.471 -22.5052L110.525 -22.3983L110.583 -22.2938C111.204 -21.175 111.711 -19.7421 112.016 -17.9083L112.023 -17.8684L112.03 -17.8286C112.361 -16.0086 112.736 -12.4731 113.127 -6.99486C113.518 -1.51755 113.699 2.11074 113.699 4.03906V44.5947L63.7106 54.0012L63.6999 54.0032C60.0045 54.6838 57.1631 55.1893 55.1603 55.5231C54.1548 55.6907 53.3902 55.81 52.8483 55.8859C52.5456 55.9283 52.3733 55.9479 52.297 55.9566C52.2797 55.9585 52.2673 55.96 52.2595 55.9609H52.0373L42.9088 57.1781L33.2265 58.3884L32.9043 58.4689C31.899 58.7202 30.8472 59.0581 29.8743 59.5445C29.0413 59.961 27.8991 60.6667 26.9908 61.8567C26.2445 62.7787 25.9121 63.7391 25.7531 64.375C25.5581 65.155 25.5156 65.883 25.5156 66.4414C25.5156 67.6639 25.804 68.785 26.0908 69.6455L26.3238 70.3443L26.7323 70.9571C28.3145 73.3303 30.9093 75.0204 33.4644 76.3051L41.6703 80.7011L41.7395 80.7358C43.1039 81.4179 44.8229 82.1654 46.8441 82.9738L47.1906 83.1124L47.5528 83.203C49.5893 83.7121 51.7003 83.9531 53.8672 83.9531H55.918C59.1581 83.9531 63.5587 82.9383 68.6683 81.3662C73.5723 79.8572 80.1715 78.1325 88.5114 76.193L88.569 76.1796L102.369 72.6561L102.382 72.6528C104.999 71.9987 108.636 71.1574 113.307 70.1267L112.527 84.1598V87.2422C112.527 91.9498 112.833 97.784 113.426 104.704L113.433 104.787L113.443 104.87C114.453 113.558 116.086 121.285 118.392 127.995L118.427 128.094L118.465 128.193C121.048 134.866 124.608 140.438 129.289 144.651L129.457 144.801L129.636 144.937C134.106 148.343 138.908 151.12 144.037 153.257L144.222 153.334L144.413 153.397C149.44 155.073 155.109 156.405 161.39 157.418L161.464 157.43L161.539 157.44C167.685 158.26 174.476 158.66 181.895 158.66H185.996C192.039 158.66 198.081 158.358 204.121 157.754L204.136 157.753L204.15 157.751C211.628 156.964 217.803 156.169 222.642 155.363C227.437 154.564 232.886 153.473 238.981 152.098C244.922 150.944 250.024 149.444 253.247 147.165C256.159 145.273 258.879 142.257 258.879 137.926C258.879 135.874 258.104 134.085 257.333 132.753C256.526 131.358 255.438 129.982 254.211 128.643C251.456 125.638 247.958 123.28 243.894 121.474C239.833 119.669 235.75 118.656 231.699 118.656H230.929L230.188 118.868C228.687 119.297 225.838 120.215 221.757 121.575C217.868 122.871 213.178 124.189 207.662 125.523C201.888 126.677 197.22 127.532 193.634 128.099L193.496 128.12L193.359 128.149C190.007 128.855 185.519 129.417 179.816 129.798C176.008 129.988 172.405 130.082 169.004 130.082H163.824C158.275 129.892 154.527 129.248 152.239 128.402C149.931 127.471 148.164 126.3 146.819 124.955C145.67 123.806 144.334 121.878 142.926 118.885C141.821 116.537 140.89 112.315 140.511 105.682C140.124 98.7273 139.934 92.5839 139.934 87.2422C139.934 82.6301 140.3 75.1815 141.054 64.8048L170.936 60.4629L170.967 60.4585L196.072 56.9554C202.605 56.188 210.705 55.4162 220.387 54.6413L246.097 52.8883C253.3 52.4989 258.312 52.2043 261.095 52.0056C264.129 51.7889 267.154 51.2187 269.584 49.83L270.005 49.5898L270.376 49.2799C271.955 47.9643 273.458 46.2883 274.306 44.1676L274.699 43.1842V41.5391C274.699 39.0283 273.476 37.0547 272.419 35.7722C271.322 34.44 269.893 33.2291 268.348 32.1215C265.094 29.6834 262.043 27.6755 259.209 26.1496L259.06 26.0693L258.906 25.9984C256.239 24.7675 253.299 23.5513 250.092 22.3476C247.082 21.1455 244.439 20.2464 242.267 19.7638L241.678 19.6328H241.074C237.835 19.6328 234.298 20.093 230.506 20.9357C226.914 21.7338 221.19 23.1163 213.373 25.0705L213.327 25.0819L213.282 25.0941C205.341 27.2245 199.035 28.7509 194.323 29.6945L142.168 39.5058L144.025 12.576L144.028 12.5313C144.213 9.00119 144.586 5.25882 145.152 1.30125L145.168 1.18628L145.18 1.07071C145.558 -2.7122 146.014 -5.54131 146.508 -7.51762C146.988 -9.4408 147.721 -11.4083 148.728 -13.4231C149.726 -15.4194 150.773 -17.8992 150.773 -20.2773V-20.5703C150.773 -23.0782 149.902 -25.3473 148.396 -27.2288L148.206 -27.4667L147.991 -27.6821C146.586 -29.087 144.621 -30.5142 142.367 -31.9487L142.21 -32.0483L142.048 -32.137C139.655 -33.4419 137.278 -34.4755 134.921 -35.1895C132.829 -35.8795 130.073 -36.5015 126.79 -37.0858C123.732 -37.8442 120.974 -38.375 118.906 -38.375Z" fill="black"/>
</svg>
