<svg width="350" height="350" viewBox="0 0 350 350" fill="none" xmlns="http://www.w3.org/2000/svg">
<path d="M-2.88875 188.391C-1.13181 191.026 1.96666 193.16 5.63039 194.997L17.9362 201.59L17.9865 201.615C19.8843 202.564 22.3419 203.636 25.3211 204.827L25.5731 204.928L25.8365 204.994C28.525 205.666 31.3431 205.992 34.2773 205.992H37.3535C41.521 205.992 47.589 204.65 55.2291 202.3C62.7197 199.995 72.726 197.382 85.2811 194.462L85.3229 194.453L105.999 189.174L106.009 189.171C110.963 187.933 118.283 186.262 127.991 184.156L126.518 210.67V215.176C126.518 222.071 126.966 230.691 127.851 241.006L127.856 241.066L127.863 241.126C129.352 253.934 131.747 265.214 135.084 274.923L135.109 274.996L135.137 275.067C138.827 284.599 143.831 292.349 150.254 298.129L150.375 298.239L150.506 298.338C156.926 303.23 163.815 307.211 171.167 310.274L171.302 310.331L171.44 310.377C178.718 312.803 186.991 314.753 196.238 316.244L196.292 316.253L196.346 316.26C205.344 317.46 215.339 318.053 226.318 318.053H232.471C241.393 318.053 250.315 317.607 259.236 316.715L259.246 316.714L259.257 316.712C270.43 315.536 279.6 314.355 286.742 313.164C293.851 311.979 301.964 310.356 311.075 308.3C320.059 306.558 326.946 304.413 330.961 301.541C334.725 299.117 337.545 295.718 337.545 291.201C337.545 289.181 336.774 287.257 335.798 285.572C334.796 283.84 333.382 282.028 331.66 280.149C327.996 276.152 323.264 272.928 317.591 270.407C311.922 267.887 306.386 266.547 301.025 266.547H300.465L299.927 266.701C297.778 267.315 293.594 268.661 287.456 270.707C281.459 272.706 274.274 274.721 265.886 276.748C257.159 278.492 250.066 279.794 244.591 280.658L244.49 280.674L244.391 280.695C239.086 281.812 232.125 282.673 223.449 283.253C217.661 283.542 212.173 283.686 206.982 283.686H199.139C190.571 283.396 184.376 282.398 180.302 280.879C176.358 279.296 173.187 277.237 170.7 274.75C168.505 272.556 166.251 269.192 164.02 264.449C162.009 260.176 160.577 253.18 159.999 243.073C159.417 232.582 159.127 223.286 159.127 215.176C159.127 207.597 159.768 195.167 161.07 177.804L209.293 170.798L209.315 170.794L247.044 165.53C256.926 164.368 269.155 163.203 283.742 162.036L283.766 162.034L322.335 159.404L322.363 159.403C333.185 158.818 340.679 158.377 344.816 158.082C349.135 157.773 352.921 156.981 355.744 155.368L356.05 155.193L356.32 154.967C358.374 153.256 360.071 151.282 360.989 148.986L361.275 148.27V146.621C361.275 144.267 360.121 142.247 358.825 140.673C357.497 139.06 355.664 137.482 353.486 135.923C348.705 132.339 344.298 129.445 340.275 127.279L340.167 127.221L340.055 127.169C336.154 125.368 331.827 123.578 327.08 121.797C322.628 120.018 318.894 118.76 315.956 118.107L315.527 118.012H315.088C310.619 118.012 305.632 118.648 300.158 119.865C294.829 121.049 286.289 123.111 274.567 126.041L274.534 126.05L274.501 126.059C262.538 129.268 252.971 131.586 245.771 133.026L162.11 148.765L165.272 102.919L165.274 102.886C165.56 97.4511 166.133 91.711 166.997 85.6633L167.009 85.5797L167.017 85.4957C167.594 79.726 168.303 75.2537 169.115 72.0053C169.917 68.7955 171.129 65.5536 172.767 62.2771C174.248 59.3161 175.387 56.3806 175.387 53.8965V53.457C175.387 50.7275 174.451 48.2472 172.752 46.1243L172.614 45.9513L172.457 45.7946C170.681 44.0182 168.045 42.0747 164.745 39.975L164.631 39.9026L164.513 39.838C161.114 37.9839 157.8 36.5529 154.576 35.5806C151.692 34.6247 147.724 33.7198 142.777 32.8431C138.146 31.6902 134.402 31 131.836 31C128.837 31 125.749 31.6274 123.502 33.7286C121.464 35.3544 120.365 37.643 120.365 40.2734C120.365 42.7576 121.504 45.693 122.985 48.6541L123.024 48.7318L123.066 48.8078C124.273 50.9798 125.169 53.6066 125.693 56.7513L125.698 56.7804L125.703 56.8093C126.246 59.7931 126.82 65.3074 127.407 73.5174C127.993 81.7268 128.275 87.3085 128.275 90.3711V154.729L49.8125 169.494L49.8022 169.496C44.2483 170.519 39.9565 171.282 36.9156 171.789C35.3921 172.043 34.204 172.229 33.3382 172.35C32.5712 172.458 32.2093 172.491 32.1081 172.501C32.0929 172.502 32.0836 172.503 32.0796 172.503C32.0765 172.504 32.0763 172.503 32.0796 172.503L31.8146 172.504L18.4003 174.293L18.3678 174.297L4.09817 176.08L3.86384 176.139C2.52901 176.473 1.27354 176.888 0.188684 177.431C-0.7764 177.913 -1.87669 178.629 -2.69755 179.727C-3.32408 180.484 -3.62007 181.303 -3.77071 181.906C-3.95025 182.624 -4 183.342 -4 183.975C-4 185.166 -3.7148 186.358 -3.35528 187.437L-3.18589 187.945L-2.88875 188.391Z" fill="black"/>
</svg>
