<svg width="350" height="350" viewBox="0 0 350 350" fill="none" xmlns="http://www.w3.org/2000/svg">
<path d="M199.176 199.727C195.675 199.727 190.921 201.002 185.756 202.72C181.022 204.173 175.381 205.565 168.802 206.883C162.019 208.046 157.361 208.805 154.756 209.177L154.632 209.195L126.429 214.189C125.518 214.335 121.288 214.793 113.194 215.582L113.036 215.598L96.3614 217.938L83.984 219.063C79.9283 219.08 76.2383 219.39 73.138 220.165C71.6225 220.544 69.8833 221.115 68.3163 222.079C66.7889 223.019 64.4668 224.951 63.7941 228.314L63.6484 229.043V230.078C63.6484 233.5 65.2745 236.142 66.9496 237.938C69.5134 241.087 73.2711 242.865 76.8215 243.975C80.9082 245.252 86.1934 245.867 92.2853 246.07L92.4102 246.074H95.1719C97.3325 246.074 99.9267 245.968 102.915 245.77C107.263 245.572 112.37 245.276 118.229 244.886L118.353 244.877L118.477 244.865C124.45 244.268 131.763 243.378 140.396 242.201L140.424 242.197L176.561 237.534C181.139 237.111 186.405 236.293 192.324 235.113C198.141 234.143 202.653 233.358 205.831 232.762L206.051 232.721L215.253 230.42C216.796 230.198 218.36 229.882 219.763 229.387C220.731 229.045 223.377 228.054 225.054 225.449C225.431 224.922 225.829 224.304 226.172 223.618C226.394 223.175 226.727 222.443 226.95 221.502C227.415 220.032 227.477 218.662 227.477 217.773V216.85L227.253 215.954C226.693 213.718 225.381 211.675 224.322 210.191L224.129 209.922L223.913 209.67C221.399 206.736 217.56 204.934 213.977 203.67L213.955 203.662L206.004 200.91L205.682 200.829C203.834 200.367 201.975 200.018 200.106 199.784L199.643 199.727H199.176Z" fill="black"/>
<path fill-rule="evenodd" clip-rule="evenodd" d="M190.973 258.828C188.129 258.828 185.008 259.379 181.775 260.238L174.85 261.969C171.829 262.677 167.201 263.516 160.845 264.479L160.833 264.481L140.105 267.692C132.768 268.657 125.044 269.623 116.931 270.589C108.843 271.36 103.132 271.949 99.8816 272.353L88.475 273.554L88.1346 273.622C87.0133 273.846 85.8934 274.113 84.89 274.447L84.8877 274.448C84.3235 274.636 82.8153 275.139 81.4171 276.277C79.5052 277.76 78.6422 279.701 78.247 281.019C77.8106 282.473 77.7109 283.911 77.7109 285.078V285.611L77.7863 286.139C78.3932 290.387 81.6904 292.652 83.1424 293.535C85.0117 294.673 87.3002 295.571 89.6752 296.327L89.8246 296.374L89.9758 296.415C94.4198 297.627 98.6897 298.645 102.783 299.464L103.247 299.557L103.72 299.59C106.643 299.799 109.654 299.902 112.75 299.902H117.485L117.824 299.872C120.109 299.664 125.307 299.062 133.265 298.092L133.287 298.089L153.491 295.747L188.907 291.32L198.095 289.597C200.858 289.387 203.36 289.068 205.522 288.6C207.512 288.17 209.744 287.507 211.687 286.324C212.743 285.769 213.959 285.003 215.026 283.936C216.234 282.728 217.809 280.542 217.809 277.461C217.809 275.038 216.745 273.171 216.3 272.43C215.74 271.497 215.057 270.608 214.378 269.806C213.038 268.101 211.293 266.771 209.677 265.732C207.903 264.592 205.796 263.496 203.451 262.43C199.185 260.491 194.722 258.828 190.973 258.828ZM90.8783 280.681C90.8783 280.681 90.8852 280.686 90.8975 280.695C90.8842 280.686 90.8783 280.681 90.8783 280.681Z" fill="black"/>
<path d="M249.273 307.09C247.176 307.09 244.246 307.499 240.939 308.083L240.899 308.09L240.86 308.097C237.913 308.65 233.086 309.409 226.29 310.381L208.167 312.719C203.844 313.283 197.352 313.954 188.627 314.73C179.962 315.322 169.668 316.205 157.757 317.376L111.169 321.478L84.7073 324.124L84.6571 324.13C76.283 325.082 67.0017 325.753 56.8031 326.138L56.7326 326.141L56.6621 326.145C51.4766 326.438 47.4159 326.684 44.4937 326.882C42.1324 327.042 40.1607 327.191 39.0089 327.342L26.9972 328.2L26.979 328.201C25.3456 328.311 23.7559 328.49 22.3535 328.802C21.371 329.02 18.8639 329.608 16.9194 331.552C15.5177 332.954 14.9637 334.529 14.7269 335.476C14.4787 336.468 14.4297 337.372 14.4297 338.027C14.4297 339.407 14.6537 340.726 14.9466 341.897L14.9769 342.018L15.0112 342.139C15.8009 344.903 17.6972 346.857 18.9632 347.997C20.4181 349.306 22.2144 350.555 24.1712 351.751L24.225 351.784L24.2794 351.816C27.9119 353.953 31.9118 355.948 36.2604 357.812L36.4394 357.888L36.6221 357.956C40.7525 359.477 44.8144 360.469 48.5898 360.469H49.4688C51.1944 360.469 52.916 360.345 54.631 360.1C56.3521 359.855 60.8822 358.896 67.7164 357.378C74.4229 356.038 81.7148 354.694 89.5948 353.348C97.6235 352.203 106.838 351.147 117.25 350.183C127.726 349.213 138.795 348.339 150.456 347.562L150.508 347.558L150.56 347.554C162.598 346.583 172.455 345.907 180.153 345.521L223.91 344.062H238.125C242.913 344.454 248.513 344.744 254.906 344.938C261.371 345.134 265.576 345.325 267.694 345.501L268.004 345.527H270.953C272.849 345.527 274.776 345.385 276.572 344.957C278.29 344.548 280.551 343.723 282.409 341.866C284.522 339.753 286.07 336.853 286.07 333.34V332.221L285.995 331.693C285.632 329.156 284.363 327.148 283.319 325.806C282.202 324.37 280.805 323.018 279.313 321.755C276.577 319.44 273.728 317.324 270.767 315.411C267.646 313.197 264.313 311.317 260.776 309.769L260.591 309.689L260.403 309.618C256.809 308.271 253.271 307.375 249.849 307.112L249.561 307.09H249.273Z" fill="black"/>
<path d="M118.906 -38.375C116.62 -38.375 113.739 -37.9135 111.496 -35.8665C109.52 -34.2488 108.426 -31.9385 108.426 -29.3594C108.426 -26.9813 109.473 -24.5014 110.471 -22.5052L110.525 -22.3983L110.583 -22.2938C111.204 -21.175 111.711 -19.7421 112.016 -17.9083L112.023 -17.8684L112.03 -17.8286C112.361 -16.0086 112.736 -12.4731 113.127 -6.99486C113.518 -1.51755 113.699 2.11074 113.699 4.03906V44.5947L63.7106 54.0012L63.6999 54.0032C60.0045 54.6838 57.1631 55.1893 55.1603 55.5231C54.1548 55.6907 53.3902 55.81 52.8483 55.8859C52.5456 55.9283 52.3733 55.9479 52.297 55.9566C52.2797 55.9585 52.2673 55.96 52.2595 55.9609H52.0373L42.9088 57.1781L33.2265 58.3884L32.9043 58.4689C31.899 58.7202 30.8472 59.0581 29.8743 59.5445C29.0413 59.961 27.8991 60.6667 26.9908 61.8567C26.2445 62.7787 25.9121 63.7391 25.7531 64.375C25.5581 65.155 25.5156 65.883 25.5156 66.4414C25.5156 67.6639 25.804 68.785 26.0908 69.6455L26.3238 70.3443L26.7323 70.9571C28.3145 73.3303 30.9093 75.0204 33.4644 76.3051L41.6703 80.7011L41.7395 80.7358C43.1039 81.4179 44.8229 82.1654 46.8441 82.9738L47.1906 83.1124L47.5528 83.203C49.5893 83.7121 51.7003 83.9531 53.8672 83.9531H55.918C59.1581 83.9531 63.5587 82.9383 68.6683 81.3662C73.5723 79.8572 80.1715 78.1325 88.5114 76.193L88.569 76.1796L102.369 72.6561L102.382 72.6528C104.999 71.9987 108.636 71.1574 113.307 70.1267L112.527 84.1598V87.2422C112.527 91.9498 112.833 97.784 113.426 104.704L113.433 104.787L113.443 104.87C114.453 113.558 116.086 121.285 118.392 127.995L118.427 128.094L118.465 128.193C121.048 134.866 124.608 140.438 129.289 144.651L129.457 144.801L129.636 144.937C134.106 148.343 138.908 151.12 144.037 153.257L144.222 153.334L144.413 153.397C149.44 155.073 155.109 156.405 161.39 157.418L161.464 157.43L161.539 157.44C167.685 158.26 174.476 158.66 181.895 158.66H185.996C192.039 158.66 198.081 158.358 204.121 157.754L204.136 157.753L204.15 157.751C211.628 156.964 217.803 156.169 222.642 155.363C227.437 154.564 232.886 153.473 238.981 152.098C244.922 150.944 250.024 149.444 253.247 147.165C256.159 145.273 258.879 142.257 258.879 137.926C258.879 135.874 258.104 134.085 257.333 132.753C256.526 131.358 255.438 129.982 254.211 128.643C251.456 125.638 247.958 123.28 243.894 121.474C239.833 119.669 235.75 118.656 231.699 118.656H230.929L230.188 118.868C228.687 119.297 225.838 120.215 221.757 121.575C217.868 122.871 213.178 124.189 207.662 125.523C201.888 126.677 197.22 127.532 193.634 128.099L193.496 128.12L193.359 128.149C190.007 128.855 185.519 129.417 179.816 129.798C176.008 129.988 172.405 130.082 169.004 130.082H163.824C158.275 129.892 154.527 129.248 152.239 128.402C149.931 127.471 148.164 126.3 146.819 124.955C145.67 123.806 144.334 121.878 142.926 118.885C141.821 116.537 140.89 112.315 140.511 105.682C140.124 98.7273 139.934 92.5839 139.934 87.2422C139.934 82.6301 140.3 75.1815 141.054 64.8048L170.936 60.4629L170.967 60.4585L196.072 56.9554C202.605 56.188 210.705 55.4162 220.387 54.6413L246.097 52.8883C253.3 52.4989 258.312 52.2043 261.095 52.0056C264.129 51.7889 267.154 51.2187 269.584 49.83L270.005 49.5898L270.376 49.2799C271.955 47.9643 273.458 46.2883 274.306 44.1676L274.699 43.1842V41.5391C274.699 39.0283 273.476 37.0547 272.419 35.7722C271.322 34.44 269.893 33.2291 268.348 32.1215C265.094 29.6834 262.043 27.6755 259.209 26.1496L259.06 26.0693L258.906 25.9984C256.239 24.7675 253.299 23.5513 250.092 22.3476C247.082 21.1455 244.439 20.2464 242.267 19.7638L241.678 19.6328H241.074C237.835 19.6328 234.298 20.093 230.506 20.9357C226.914 21.7338 221.19 23.1163 213.373 25.0705L213.327 25.0819L213.282 25.0941C205.341 27.2245 199.035 28.7509 194.323 29.6945L142.168 39.5058L144.025 12.576L144.028 12.5313C144.213 9.00119 144.586 5.25882 145.152 1.30125L145.168 1.18628L145.18 1.07071C145.558 -2.7122 146.014 -5.54131 146.508 -7.51762C146.988 -9.4408 147.721 -11.4083 148.728 -13.4231C149.726 -15.4194 150.773 -17.8992 150.773 -20.2773V-20.5703C150.773 -23.0782 149.902 -25.3473 148.396 -27.2288L148.206 -27.4667L147.991 -27.6821C146.586 -29.087 144.621 -30.5142 142.367 -31.9487L142.21 -32.0483L142.048 -32.137C139.655 -33.4419 137.278 -34.4755 134.921 -35.1895C132.829 -35.8795 130.073 -36.5015 126.79 -37.0858C123.732 -37.8442 120.974 -38.375 118.906 -38.375Z" fill="black"/>
</svg>
