<svg width="350" height="350" viewBox="0 0 350 350" fill="none" xmlns="http://www.w3.org/2000/svg">
<path d="M120.391 183.047H120.159L119.928 183.063C116.884 183.281 114.052 183.734 111.597 184.552C110.42 184.944 109.177 185.463 108.039 186.187C106.935 186.889 105.526 188.042 104.616 189.863L103.93 191.235V193.355C103.93 196.214 105.14 198.79 107.317 200.596C109.011 202.171 111.031 203.133 113.039 203.707L113.336 203.792L121.393 205.284C124.233 205.961 126.481 206.757 128.219 207.613C129.768 208.472 131.556 209.771 133.577 211.624C135.755 213.621 137.333 215.304 138.404 216.682L138.52 216.83L138.643 216.972C139.453 217.897 140.72 219.838 142.409 223.215C144.271 226.939 148.082 233.749 153.733 243.492C159.338 253.156 165.934 265.183 173.527 279.589C181.138 294.031 186.58 304.03 189.799 309.462L189.808 309.477L203.006 331.474L203.011 331.482C205.921 336.299 208.618 340.312 211.099 343.439C213.484 346.448 216.039 349.118 218.755 350.716C222.394 352.856 225.935 354.49 229.347 355.465L229.557 355.525L229.771 355.571C233.224 356.31 238.206 356.594 244.316 356.594H258.181L288.374 355.714C290.126 355.698 292.387 355.293 294.373 353.705C296.504 352 297.391 349.682 297.641 347.677L297.691 347.276V346.285C297.691 340.687 293.001 337.98 290.36 336.847L281.485 332.553C281.46 332.54 281.403 332.51 281.307 332.459C281.232 332.419 281.132 332.366 281.004 332.297C280.675 332.121 280.221 331.876 279.639 331.561C278.475 330.931 276.822 330.031 274.675 328.86L274.573 328.805L257.477 320.257C255.075 319.056 251.22 316.775 245.781 313.278L245.737 313.251L245.693 313.223C240.29 309.869 234.648 305.831 228.768 301.089L228.729 301.057L228.689 301.026C222.81 296.433 217.267 291.081 212.066 284.951L212.029 284.908L211.992 284.866C206.489 278.604 202.225 273.122 199.131 268.402L180.122 237.11L166.376 215.176C162.465 208.53 159.019 203.234 156.06 199.416C153.109 195.352 149.63 191.97 145.601 189.363C141.641 186.801 137.387 185.018 132.863 184.065L132.676 184.026L132.488 183.998C128.301 183.37 124.266 183.047 120.391 183.047Z" fill="black"/>
<path d="M19.3326 342.471L19.3193 342.481L17.152 344.029L17.0137 344.139C16.2624 344.74 15.4033 345.532 14.6863 346.535C13.9832 347.52 13.1094 349.145 13.1094 351.266C13.1094 352.658 13.4619 354.896 15.3061 356.741C16.9954 358.43 19.1734 359.23 21.3672 359.23C22.58 359.23 23.6856 358.979 24.5544 358.711L28.2093 357.867L28.3154 357.839C30.6432 357.218 33.4067 355.852 36.3003 354.205C39.3141 352.491 42.9559 350.186 47.1951 347.328C55.5414 342.016 61.163 338.315 63.8006 336.354C66.6906 334.392 71.4219 330.235 77.673 324.363C84.0997 318.325 88.9796 313.552 92.245 310.088C95.8836 306.437 100.175 301.194 105.083 294.521C110.182 287.854 113.335 283.88 114.702 282.342L114.783 282.25L118.883 277.272C120.127 275.879 121.241 274.759 122.227 273.883C122.836 273.499 123.357 273.164 123.776 272.885L123.828 272.851C124.135 272.647 124.959 272.101 125.573 271.487L126.319 270.741L126.79 269.798C127.816 267.746 128.062 265.531 128.062 263.668V261.372L127.974 260.842C127.156 255.933 123.339 251.978 119.438 248.898L119.375 248.848L119.31 248.8C115.305 245.796 111.689 243.447 108.558 241.989C105.632 240.538 102.51 239.59 99.2969 239.59C98.2771 239.59 97.2021 239.651 96.1566 239.841C95.1768 240.019 93.7931 240.384 92.4687 241.267L91.0324 242.225L90.2604 243.769C89.2596 245.771 88.9136 248.374 88.722 250.482C88.5457 252.421 88.2807 254.469 87.9234 256.628C87.6228 258.079 86.8922 260.497 85.5805 264.058L85.5275 264.201L85.4814 264.347C84.4347 267.662 83.0268 271.016 81.2402 274.41C79.474 277.766 76.922 281.797 73.5141 286.53L73.4631 286.601L73.414 286.673C70.2639 291.306 66.3227 296.381 61.5612 301.904L61.5257 301.945L61.4909 301.987C56.7038 307.732 52.2469 312.658 48.1187 316.787C43.9211 320.984 38.8301 325.789 32.8321 331.206C27.0419 336.417 22.5636 340.136 19.3326 342.471Z" fill="black"/>
<path d="M118.906 -38.375C116.62 -38.375 113.739 -37.9135 111.496 -35.8665C109.52 -34.2488 108.426 -31.9385 108.426 -29.3594C108.426 -26.9813 109.473 -24.5014 110.471 -22.5052L110.525 -22.3983L110.583 -22.2938C111.204 -21.175 111.711 -19.7421 112.016 -17.9083L112.023 -17.8684L112.03 -17.8286C112.361 -16.0086 112.736 -12.4731 113.127 -6.99486C113.518 -1.51755 113.699 2.11074 113.699 4.03906V44.5947L63.7106 54.0012L63.6999 54.0032C60.0045 54.6838 57.1631 55.1893 55.1603 55.5231C54.1548 55.6907 53.3902 55.81 52.8483 55.8859C52.5456 55.9283 52.3733 55.9479 52.297 55.9566C52.2797 55.9585 52.2673 55.96 52.2595 55.9609H52.0373L42.9088 57.1781L33.2265 58.3884L32.9043 58.4689C31.899 58.7202 30.8472 59.0581 29.8743 59.5445C29.0413 59.961 27.8991 60.6667 26.9908 61.8567C26.2445 62.7787 25.9121 63.7391 25.7531 64.375C25.5581 65.155 25.5156 65.883 25.5156 66.4414C25.5156 67.6639 25.804 68.785 26.0908 69.6455L26.3238 70.3443L26.7323 70.9571C28.3145 73.3303 30.9093 75.0204 33.4644 76.3051L41.6703 80.7011L41.7395 80.7358C43.1039 81.4179 44.8229 82.1654 46.8441 82.9738L47.1906 83.1124L47.5528 83.203C49.5893 83.7121 51.7003 83.9531 53.8672 83.9531H55.918C59.1581 83.9531 63.5587 82.9383 68.6683 81.3662C73.5723 79.8572 80.1715 78.1325 88.5114 76.193L88.569 76.1796L102.369 72.6561L102.382 72.6528C104.999 71.9987 108.636 71.1574 113.307 70.1267L112.527 84.1598V87.2422C112.527 91.9498 112.833 97.784 113.426 104.704L113.433 104.787L113.443 104.87C114.453 113.558 116.086 121.285 118.392 127.995L118.427 128.094L118.465 128.193C121.048 134.866 124.608 140.438 129.289 144.651L129.457 144.801L129.636 144.937C134.106 148.343 138.908 151.12 144.037 153.257L144.222 153.334L144.413 153.397C149.44 155.073 155.109 156.405 161.39 157.418L161.464 157.43L161.539 157.44C167.685 158.26 174.476 158.66 181.895 158.66H185.996C192.039 158.66 198.081 158.358 204.121 157.754L204.136 157.753L204.15 157.751C211.628 156.964 217.803 156.169 222.642 155.363C227.437 154.564 232.886 153.473 238.981 152.098C244.922 150.944 250.024 149.444 253.247 147.165C256.159 145.273 258.879 142.257 258.879 137.926C258.879 135.874 258.104 134.085 257.333 132.753C256.526 131.358 255.438 129.982 254.211 128.643C251.456 125.638 247.958 123.28 243.894 121.474C239.833 119.669 235.75 118.656 231.699 118.656H230.929L230.188 118.868C228.687 119.297 225.838 120.215 221.757 121.575C217.868 122.871 213.178 124.189 207.662 125.523C201.888 126.677 197.22 127.532 193.634 128.099L193.496 128.12L193.359 128.149C190.007 128.855 185.519 129.417 179.816 129.798C176.008 129.988 172.405 130.082 169.004 130.082H163.824C158.275 129.892 154.527 129.248 152.239 128.402C149.931 127.471 148.164 126.3 146.819 124.955C145.67 123.806 144.334 121.878 142.926 118.885C141.821 116.537 140.89 112.315 140.511 105.682C140.124 98.7273 139.934 92.5839 139.934 87.2422C139.934 82.6301 140.3 75.1815 141.054 64.8048L170.936 60.4629L170.967 60.4585L196.072 56.9554C202.605 56.188 210.705 55.4162 220.387 54.6413L246.097 52.8883C253.3 52.4989 258.312 52.2043 261.095 52.0056C264.129 51.7889 267.154 51.2187 269.584 49.83L270.005 49.5898L270.376 49.2799C271.955 47.9643 273.458 46.2883 274.306 44.1676L274.699 43.1842V41.5391C274.699 39.0283 273.476 37.0547 272.419 35.7722C271.322 34.44 269.893 33.2291 268.348 32.1215C265.094 29.6834 262.043 27.6755 259.209 26.1496L259.06 26.0693L258.906 25.9984C256.239 24.7675 253.299 23.5513 250.092 22.3476C247.082 21.1455 244.439 20.2464 242.267 19.7638L241.678 19.6328H241.074C237.835 19.6328 234.298 20.093 230.506 20.9357C226.914 21.7338 221.19 23.1163 213.373 25.0705L213.327 25.0819L213.282 25.0941C205.341 27.2245 199.035 28.7509 194.323 29.6945L142.168 39.5058L144.025 12.576L144.028 12.5313C144.213 9.00119 144.586 5.25882 145.152 1.30125L145.168 1.18628L145.18 1.07071C145.558 -2.7122 146.014 -5.54131 146.508 -7.51762C146.988 -9.4408 147.721 -11.4083 148.728 -13.4231C149.726 -15.4194 150.773 -17.8992 150.773 -20.2773V-20.5703C150.773 -23.0782 149.902 -25.3473 148.396 -27.2288L148.206 -27.4667L147.991 -27.6821C146.586 -29.087 144.621 -30.5142 142.367 -31.9487L142.21 -32.0483L142.048 -32.137C139.655 -33.4419 137.278 -34.4755 134.921 -35.1895C132.829 -35.8795 130.073 -36.5015 126.79 -37.0858C123.732 -37.8442 120.974 -38.375 118.906 -38.375Z" fill="black"/>
</svg>
