<svg width="350" height="350" viewBox="0 0 350 350" fill="none" xmlns="http://www.w3.org/2000/svg">
<path d="M132.172 48.5H132.011L131.851 48.5114C127.535 48.8197 123.761 49.4488 120.641 50.4887C119.117 50.9969 117.684 51.6121 116.462 52.3896C115.265 53.1519 113.993 54.2459 113.206 55.8215L112.73 56.7717V58.7129C112.73 61.4827 113.888 63.9053 116.025 65.6244C117.837 67.3498 120.107 68.4837 122.586 69.1921L122.792 69.251L134.761 71.4673C139.414 72.5687 143.256 73.9095 146.347 75.446C149.152 76.9853 152.204 79.2247 155.498 82.2449C158.9 85.363 161.49 88.1058 163.337 90.4795L163.416 90.5822L163.502 90.6801C165.167 92.583 167.306 95.9773 169.895 101.155C172.604 106.573 178.24 116.651 186.727 131.283C195.182 145.861 205.112 163.968 216.521 185.616C222.471 196.905 226.756 208.311 231.157 220.026C231.628 221.28 232.1 222.537 232.576 223.799C237.466 236.758 242.698 250.025 250.589 263.177L250.596 263.188C254.898 270.309 258.816 276.124 262.347 280.577C265.813 284.946 269.16 288.334 272.381 290.228C277.582 293.288 282.478 295.523 287.049 296.829L287.194 296.87L287.342 296.902C291.941 297.888 298.94 298.32 308.061 298.32H328.832L354.108 297.001C356.008 296.982 358.107 296.544 359.866 295.137C361.735 293.641 362.586 291.563 362.838 289.544L362.873 289.266V288.107C362.873 283.092 358.619 280.281 354.953 278.732C329.593 266.44 303.906 246.545 281.779 224.7C275.56 218.561 269.013 209.682 262.731 200.317C258.912 194.624 255.345 188.993 252.032 183.763L252.031 183.761L252.029 183.759C249.857 180.33 247.795 177.074 245.843 174.087L217.3 127.102L196.663 94.1696C190.801 84.2075 185.734 76.4388 181.476 70.9545C177.383 65.3019 172.607 60.6724 167.136 57.1321C161.712 53.6227 155.927 51.2053 149.798 49.9149L149.669 49.8877L149.539 49.8681C143.485 48.9601 137.694 48.5 132.172 48.5Z" fill="black"/>
<path d="M120.531 133.314C119.194 133.314 117.918 133.396 116.76 133.607C115.648 133.809 114.355 134.18 113.201 134.949L112.207 135.612L111.672 136.681C110.664 138.698 110.188 141.683 109.897 144.878C109.618 147.956 109.197 151.189 108.634 154.579C108.111 157.155 106.897 161.113 104.883 166.581L104.846 166.681L104.814 166.782C103.143 172.074 100.906 177.393 98.0921 182.74C95.2918 188.061 91.3165 194.322 86.1176 201.543L86.0823 201.592L86.0484 201.641C81.1857 208.792 75.1444 216.565 67.9042 224.964L67.8796 224.993L67.8555 225.022C60.5975 233.731 53.8048 241.243 47.4762 247.572C41.0997 253.948 33.3948 261.218 24.352 269.386C15.6109 277.253 8.72477 282.982 3.64868 286.649L3.63873 286.657L0.481901 288.911L0.386138 288.988C-0.52834 289.72 -1.41893 290.563 -2.11248 291.534C-2.79644 292.492 -3.5 293.874 -3.5 295.578C-3.5 296.858 -3.17705 298.644 -1.74253 300.078C-0.25751 301.563 1.64469 302.275 3.63672 302.275C4.82074 302.275 5.99047 302.011 7.03941 301.676L12.6329 300.385L12.7064 300.366C15.501 299.62 19.1495 297.866 23.4402 295.424C27.8143 292.936 33.1752 289.545 39.5013 285.28C52.2108 277.192 60.521 271.71 64.2466 268.929C68.1478 266.303 74.9755 260.345 84.501 251.397C94.155 242.328 101.398 235.237 106.184 230.157C111.386 224.946 117.67 217.293 125.01 207.311C132.642 197.332 137.507 191.189 139.715 188.704L139.771 188.641L145.923 181.171C148.049 178.784 149.999 176.83 151.776 175.283C152.827 174.625 153.686 174.074 154.338 173.639C154.869 173.285 155.702 172.728 156.233 172.198L156.749 171.681L157.076 171.028C158.102 168.976 158.43 166.576 158.43 164.182V161.172L158.368 160.805C157.487 155.514 153.188 150.646 147.49 146.148L147.446 146.113L147.401 146.08C141.476 141.636 136.369 138.352 132.149 136.395C128.233 134.446 124.336 133.314 120.531 133.314Z" fill="black"/>
</svg>
