<svg width="350" height="350" viewBox="0 0 350 350" fill="none" xmlns="http://www.w3.org/2000/svg">
<path d="M235.562 251.094C232.74 251.094 228.587 251.577 223.506 252.359L223.213 252.404L222.924 252.47C218.13 253.577 213.806 254.29 209.936 254.642L209.757 254.658L209.579 254.683C205.399 255.253 200.729 255.825 195.565 256.4C190.083 256.811 179.359 257.897 163.531 259.634L125.959 263.45L89.2577 268.148L89.2459 268.149C78.2913 269.519 71.3619 270.409 69.0716 270.773L50.2177 272.223L50.0575 272.242C48.4248 272.434 47.1473 272.573 46.2054 272.663C45.352 272.744 44.9584 272.766 44.8614 272.772C44.8389 272.773 44.8324 272.773 44.8398 272.773H44.4408L38.0163 273.416L37.8491 273.44C36.1501 273.682 34.2742 274.082 32.5513 274.836C31.054 275.491 28.4407 276.955 27.0443 280.02C26.7279 280.666 26 282.292 26 284.289C26 286.996 26.9777 289.287 27.9735 290.966C29.171 293.044 30.704 294.943 32.4447 296.684L32.662 296.901L32.8952 297.101C34.6395 298.596 37.1134 300.374 40.1093 302.371L40.2677 302.477L40.4309 302.575C43.4868 304.408 46.3073 305.979 48.8793 307.265C52.0237 308.837 55.4097 309.574 58.9023 309.574H60.0742C63.1782 309.574 67.1228 308.403 70.9201 307.074C74.5153 305.816 79.637 304.319 86.383 302.584C93.1214 300.851 99.2454 299.417 104.761 298.275C110.076 297.176 118.279 295.941 129.52 294.583C140.748 293.423 153.839 292.259 168.801 291.093C183.661 289.935 197.612 289.359 210.66 289.359C216.57 289.359 224.757 289.551 235.266 289.94C240.595 290.137 245.096 290.238 248.746 290.238C252.261 290.238 255.204 290.155 257.388 289.943C260.189 289.908 263.01 289.535 265.618 288.557L266.011 288.41L266.386 288.222C270.179 286.325 272.653 283.019 273.548 278.993L273.738 278.136V277.258C273.738 275.978 273.478 274.578 273.29 273.638C272.806 271.218 271.464 269.375 270.667 268.378C269.749 267.231 268.63 266.1 267.441 265.012C264.299 261.929 259.454 259.073 253.787 256.331C247.591 253.138 241.428 251.094 235.562 251.094Z" fill="black"/>
<path d="M120.391 -36.9531H120.159L119.928 -36.9366C116.884 -36.7192 114.052 -36.2662 111.597 -35.4477C110.42 -35.0555 109.177 -34.5371 108.039 -33.8129C106.935 -33.1105 105.526 -31.9575 104.616 -30.1374L103.93 -28.7649V-26.6445C103.93 -23.7864 105.14 -21.2097 107.317 -19.4045C109.011 -17.8287 111.031 -16.8667 113.039 -16.2931L113.336 -16.208L121.393 -14.716C124.233 -14.0388 126.481 -13.2426 128.219 -12.3867C129.768 -11.528 131.556 -10.2287 133.577 -8.37647C135.755 -6.37911 137.333 -4.69588 138.404 -3.31798L138.52 -3.16969L138.643 -3.02831C139.453 -2.10255 140.72 -0.161942 142.409 3.21548C144.271 6.93921 148.082 13.7494 153.733 23.4916C159.338 33.156 165.934 45.1827 173.527 59.5891C181.138 74.0312 186.58 84.0303 189.799 89.4622L189.808 89.4774L203.006 111.474L203.011 111.482C205.921 116.299 208.618 120.312 211.099 123.439C213.484 126.448 216.039 129.118 218.755 130.716C222.394 132.856 225.935 134.49 229.347 135.465L229.557 135.525L229.771 135.571C233.224 136.31 238.206 136.594 244.316 136.594H258.181L288.374 135.714C290.126 135.698 292.387 135.293 294.373 133.705C296.504 132 297.391 129.682 297.641 127.677L297.691 127.276V126.285C297.691 120.687 293.001 117.98 290.36 116.847L281.485 112.553C281.46 112.54 281.403 112.51 281.307 112.459C281.232 112.419 281.132 112.366 281.004 112.297C280.675 112.121 280.221 111.876 279.639 111.561C278.475 110.931 276.822 110.031 274.675 108.86L274.573 108.805L257.477 100.257C255.075 99.0555 251.22 96.7754 245.781 93.2784L245.737 93.2506L245.693 93.2234C240.29 89.8695 234.648 85.8309 228.768 81.0888L228.729 81.0572L228.689 81.0263C222.81 76.433 217.267 71.0809 212.066 64.9509L212.029 64.9079L211.992 64.8655C206.489 58.604 202.225 53.1221 199.131 48.4024L180.122 17.1101L166.376 -4.82393C162.465 -11.4696 159.019 -16.766 156.06 -20.5841C153.109 -24.6478 149.63 -28.0303 145.601 -30.6369C141.641 -33.1995 137.387 -34.9824 132.863 -35.9348L132.676 -35.974L132.488 -36.0023C128.301 -36.6304 124.266 -36.9531 120.391 -36.9531Z" fill="black"/>
<path d="M19.3326 122.471L19.3193 122.481L17.152 124.029L17.0137 124.139C16.2624 124.74 15.4033 125.532 14.6863 126.535C13.9832 127.52 13.1094 129.145 13.1094 131.266C13.1094 132.658 13.4619 134.896 15.3061 136.741C16.9954 138.43 19.1734 139.23 21.3672 139.23C22.58 139.23 23.6856 138.979 24.5544 138.711L28.2093 137.867L28.3154 137.839C30.6432 137.218 33.4067 135.852 36.3003 134.205C39.3141 132.491 42.9559 130.186 47.1951 127.328C55.5414 122.016 61.163 118.315 63.8006 116.354C66.6906 114.392 71.4219 110.235 77.673 104.363C84.0997 98.3253 88.9796 93.5518 92.245 90.0879C95.8836 86.4371 100.175 81.1937 105.083 74.5211C110.182 67.8541 113.335 63.8798 114.702 62.3418L114.783 62.2502L118.883 57.2721C120.127 55.8786 121.241 54.7592 122.227 53.8831C122.836 53.4994 123.357 53.1644 123.776 52.8849L123.828 52.8505C124.135 52.6471 124.959 52.1005 125.573 51.4868L126.319 50.741L126.79 49.7975C127.816 47.7455 128.062 45.5307 128.062 43.668V41.3722L127.974 40.8416C127.156 35.9328 123.339 31.9784 119.438 28.8983L119.375 28.8483L119.31 28.8C115.305 25.7961 111.689 23.4466 108.558 21.9887C105.632 20.5381 102.51 19.5898 99.2969 19.5898C98.2771 19.5898 97.2021 19.6511 96.1566 19.8412C95.1768 20.0193 93.7931 20.3845 92.4687 21.2675L91.0324 22.225L90.2604 23.7689C89.2596 25.7707 88.9136 28.374 88.722 30.4818C88.5457 32.421 88.2807 34.4692 87.9234 36.6284C87.6228 38.0792 86.8922 40.4972 85.5805 44.0576L85.5275 44.2013L85.4814 44.3473C84.4347 47.6618 83.0268 51.0156 81.2402 54.4101C79.474 57.7661 76.922 61.797 73.5141 66.5301L73.4631 66.601L73.414 66.6731C70.2639 71.3057 66.3227 76.381 61.5612 81.9043L61.5257 81.9455L61.4909 81.9872C56.7038 87.7318 52.2469 92.6584 48.1187 96.7866C43.9211 100.984 38.8301 105.789 32.8321 111.206C27.0419 116.417 22.5636 120.136 19.3326 122.471Z" fill="black"/>
</svg>
