<svg width="350" height="350" viewBox="0 0 350 350" fill="none" xmlns="http://www.w3.org/2000/svg">
<path d="M255.404 309.202C254.553 310.585 254.049 312.211 253.706 313.692L253.703 313.705L252.592 318.427C252.159 319.749 251.478 322 250.563 325.108C249.57 328.484 248.387 332.728 247.013 337.828C245.731 342.589 244.286 345.794 242.868 347.78C241.808 349.265 239.333 351.209 234.429 353.207C229.914 355.047 224.679 356.023 218.633 356.023H216.582C210.58 356.023 204.136 355.296 197.237 353.804L197.17 353.79L197.103 353.777C189.155 352.263 184.175 350.303 181.466 348.307C178.415 346.059 176.169 343.399 174.626 340.314L174.601 340.263L174.574 340.212C172.982 337.188 171.879 333.557 171.359 329.228L171.358 329.214L171.356 329.201C171.195 327.911 171.105 326.386 171.105 324.609C171.105 319.698 171.899 313.697 173.594 306.541L173.609 306.477L173.623 306.412C175.745 296.38 177.747 288.388 179.621 282.378C181.742 276.21 184.156 269.55 186.863 262.396C189.59 255.187 191.656 250.237 193.083 247.382C194.419 244.711 195.823 242.723 197.233 241.289L203.49 235.657L203.873 235.082C204.714 233.82 205.439 232.631 205.974 231.561L206.555 230.4V229.102C206.555 224.977 203.837 222.04 201.315 220.149C198.773 217.88 195.772 215.916 192.382 214.221C188.973 212.517 185.596 211.201 182.257 210.311L182.089 210.266L181.918 210.232C179.702 209.788 177.574 209.539 175.566 209.539H173.498L172.908 209.67C170.541 210.196 167.566 211.384 164.197 212.967C161.104 214.342 158.667 215.491 157.021 216.382C155.63 216.806 154.077 217.365 152.382 218.038L142.611 220.912L134.817 223.386C135.623 221.141 136.436 218.907 137.297 216.698C139.568 210.871 142.028 205.616 145.103 201.515L145.329 201.214L145.511 200.886C145.988 200.027 146.345 199.405 146.591 198.994C146.627 198.935 146.658 198.884 146.685 198.84L147.961 197.563V195.285C147.961 194.225 147.799 192.977 147.593 191.744C147.094 188.75 145.127 186.456 143.291 184.822C141.311 182.873 138.883 181.176 136.127 179.679C133.344 177.977 130.372 176.499 127.218 175.237L127.068 175.177L126.915 175.126C123.949 174.137 121.543 173.4 119.771 172.957L119.644 172.925L119.516 172.9C118.394 172.675 117.206 172.5 116.094 172.5C115.242 172.5 114.27 172.567 113.295 172.811C112.481 173.014 111.371 173.414 110.341 174.261C108.981 175.266 108.026 176.563 107.366 177.884L107.191 178.234L107.067 178.604C106.643 179.877 106.492 181.171 106.492 182.395V182.688C106.492 183.578 106.669 184.843 106.849 186.014C107.055 187.355 107.358 189.12 107.753 191.289L107.768 191.373L107.786 191.457C108.93 196.794 109.422 200.647 109.422 203.195C109.422 208.133 108.125 213.226 106.298 218.881C105.833 220.32 105.323 221.822 104.798 223.368C103.686 226.644 102.507 230.115 101.553 233.586L96.2185 235.3L96.1917 235.309C96.1968 235.307 96.1682 235.317 96.0916 235.34C96.0154 235.362 95.9123 235.392 95.7783 235.429C95.5095 235.503 95.1518 235.599 94.6976 235.717C93.7904 235.952 92.5527 236.263 90.9754 236.652C87.8239 237.427 83.3735 238.497 77.6169 239.863L77.5741 239.874L77.5315 239.884C71.7855 241.345 67.346 242.431 64.1912 243.148C62.6099 243.507 61.3926 243.764 60.5147 243.929C59.9623 244.032 59.655 244.077 59.5243 244.096C59.4716 244.104 59.4476 244.107 59.4477 244.109C59.4477 244.109 59.449 244.109 59.4513 244.109H58.7805L58.0398 244.321C57.2072 244.559 53.7502 245.099 46.8964 245.905L46.8419 245.911L38.069 247.121L37.8499 247.17C35.8412 247.616 33.1392 248.516 31.3259 250.743C30.0058 252.264 29.7344 254.023 29.7344 255.176C29.7344 257.751 31.1495 259.658 32.1634 260.749C33.6414 262.727 35.8588 264.332 38.1311 265.674C40.5441 267.331 43.4679 268.752 46.7798 269.994C49.9821 271.194 53.12 272.102 55.7422 272.102C58.7081 272.102 62.3441 270.9 66.0796 269.327L66.1296 269.306L66.1791 269.284C69.3511 267.874 73.655 266.396 79.1775 264.872L79.2704 264.847L94.7753 259.979L90.0746 274.823C87.409 282.432 84.4632 289.747 81.2387 296.769C77.8618 303.703 73.6181 310.971 68.4869 318.576C63.2881 326.084 58.4088 332.585 53.8488 338.095L53.8197 338.13L53.7912 338.166C49.2617 343.828 44.1483 349.417 38.443 354.932C32.7548 360.431 27.9315 364.598 23.9494 367.511L19.2306 370.46L19.0437 370.6C18.0742 371.327 17.0858 372.182 16.2912 373.176C15.5577 374.092 14.5 375.735 14.5 377.93C14.5 379.271 14.842 380.498 15.3736 381.561L15.5954 382.005L15.893 382.402C17.5176 384.568 19.929 385.773 22.6367 385.773C23.8451 385.773 25.0175 385.57 26.1338 385.198L26.3387 385.13L34.1147 381.84L34.1355 381.831C40.2454 379.301 47.2082 375.385 54.9844 370.201L55.012 370.183L55.0394 370.164C62.666 364.946 69.4434 359.492 75.3498 353.793C81.5701 347.981 87.3876 340.814 92.8296 332.362C98.489 324.264 103.607 315.114 108.199 304.938C112.898 294.951 116.302 287.058 118.344 281.342L118.373 281.259L118.4 281.175C120.181 275.635 121.958 269.71 123.732 263.403L127.618 249.559L155.334 240.765L155.411 240.738C157.882 239.873 159.668 239.399 160.882 239.171C160.818 239.639 160.726 240.075 160.61 240.481L160.585 240.569L160.563 240.658C160.229 241.991 158.937 246.166 156.565 253.479C154.185 260.819 151.814 269.02 149.451 278.075C147.096 286.714 145.393 294.096 144.375 300.18C142.764 308.259 141.941 315.919 141.941 323.145C141.941 325.809 142.043 328.39 142.25 330.884C142.867 339.886 144.624 347.717 147.728 354.176C150.58 360.513 154.712 366.237 160.039 371.35C165.771 376.853 174.369 381.277 185.253 384.905L185.309 384.924L185.366 384.942C194.209 387.679 204.249 388.996 215.41 388.996C218.625 388.996 221.929 388.896 225.323 388.698C232.019 388.491 238.8 387.78 245.663 386.569L245.756 386.552L245.848 386.533C252.512 385.119 258.633 383.39 264.195 381.329L264.313 381.286L264.428 381.237C269.901 378.922 274.471 376.011 277.735 372.309C280.572 369.443 283.312 365.764 283.312 361.523V360.334L283.182 359.744C282.472 356.553 280.31 353.55 277.853 350.871C276.222 348.901 274.963 347.002 274.032 345.178C273.321 343.397 272.459 340.078 271.527 334.882C270.753 329.252 270.422 325.733 270.422 324.023V323.701L269.243 313.682C269.19 312.207 268.813 310.533 267.743 309.004C266.544 307.292 264.864 306.317 263.21 305.844L262.47 305.633H261.406C258.137 305.633 256.233 307.854 255.404 309.202Z" fill="black"/>
<path d="M120.391 -36.9531H120.159L119.928 -36.9366C116.884 -36.7192 114.052 -36.2662 111.597 -35.4477C110.42 -35.0555 109.177 -34.5371 108.039 -33.8129C106.935 -33.1105 105.526 -31.9575 104.616 -30.1374L103.93 -28.7649V-26.6445C103.93 -23.7864 105.14 -21.2097 107.317 -19.4045C109.011 -17.8287 111.031 -16.8667 113.039 -16.2931L113.336 -16.208L121.393 -14.716C124.233 -14.0388 126.481 -13.2426 128.219 -12.3867C129.768 -11.528 131.556 -10.2287 133.577 -8.37647C135.755 -6.37911 137.333 -4.69588 138.404 -3.31798L138.52 -3.16969L138.643 -3.02831C139.453 -2.10255 140.72 -0.161942 142.409 3.21548C144.271 6.93921 148.082 13.7494 153.733 23.4916C159.338 33.156 165.934 45.1827 173.527 59.5891C181.138 74.0312 186.58 84.0303 189.799 89.4622L189.808 89.4774L203.006 111.474L203.011 111.482C205.921 116.299 208.618 120.312 211.099 123.439C213.484 126.448 216.039 129.118 218.755 130.716C222.394 132.856 225.935 134.49 229.347 135.465L229.557 135.525L229.771 135.571C233.224 136.31 238.206 136.594 244.316 136.594H258.181L288.374 135.714C290.126 135.698 292.387 135.293 294.373 133.705C296.504 132 297.391 129.682 297.641 127.677L297.691 127.276V126.285C297.691 120.687 293.001 117.98 290.36 116.847L281.485 112.553C281.46 112.54 281.403 112.51 281.307 112.459C281.232 112.419 281.132 112.366 281.004 112.297C280.675 112.121 280.221 111.876 279.639 111.561C278.475 110.931 276.822 110.031 274.675 108.86L274.573 108.805L257.477 100.257C255.075 99.0555 251.22 96.7754 245.781 93.2784L245.737 93.2506L245.693 93.2234C240.29 89.8695 234.648 85.8309 228.768 81.0888L228.729 81.0572L228.689 81.0263C222.81 76.433 217.267 71.0809 212.066 64.9509L212.029 64.9079L211.992 64.8655C206.489 58.604 202.225 53.1221 199.131 48.4024L180.122 17.1101L166.376 -4.82393C162.465 -11.4696 159.019 -16.766 156.06 -20.5841C153.109 -24.6478 149.63 -28.0303 145.601 -30.6369C141.641 -33.1995 137.387 -34.9824 132.863 -35.9348L132.676 -35.974L132.488 -36.0023C128.301 -36.6304 124.266 -36.9531 120.391 -36.9531Z" fill="black"/>
<path d="M19.3326 122.471L19.3193 122.481L17.152 124.029L17.0137 124.139C16.2624 124.74 15.4033 125.532 14.6863 126.535C13.9832 127.52 13.1094 129.145 13.1094 131.266C13.1094 132.658 13.4619 134.896 15.3061 136.741C16.9954 138.43 19.1734 139.23 21.3672 139.23C22.58 139.23 23.6856 138.979 24.5544 138.711L28.2093 137.867L28.3154 137.839C30.6432 137.218 33.4067 135.852 36.3003 134.205C39.3141 132.491 42.9559 130.186 47.1951 127.328C55.5414 122.016 61.163 118.315 63.8006 116.354C66.6906 114.392 71.4219 110.235 77.673 104.363C84.0997 98.3253 88.9796 93.5518 92.245 90.0879C95.8836 86.4371 100.175 81.1937 105.083 74.5211C110.182 67.8541 113.335 63.8798 114.702 62.3418L114.783 62.2502L118.883 57.2721C120.127 55.8786 121.241 54.7592 122.227 53.8831C122.836 53.4994 123.357 53.1644 123.776 52.8849L123.828 52.8505C124.135 52.6471 124.959 52.1005 125.573 51.4868L126.319 50.741L126.79 49.7975C127.816 47.7455 128.062 45.5307 128.062 43.668V41.3722L127.974 40.8416C127.156 35.9328 123.339 31.9784 119.438 28.8983L119.375 28.8483L119.31 28.8C115.305 25.7961 111.689 23.4466 108.558 21.9887C105.632 20.5381 102.51 19.5898 99.2969 19.5898C98.2771 19.5898 97.2021 19.6511 96.1566 19.8412C95.1768 20.0193 93.7931 20.3845 92.4687 21.2675L91.0324 22.225L90.2604 23.7689C89.2596 25.7707 88.9136 28.374 88.722 30.4818C88.5457 32.421 88.2807 34.4692 87.9234 36.6284C87.6228 38.0792 86.8922 40.4972 85.5805 44.0576L85.5275 44.2013L85.4814 44.3473C84.4347 47.6618 83.0268 51.0156 81.2402 54.4101C79.474 57.7661 76.922 61.797 73.5141 66.5301L73.4631 66.601L73.414 66.6731C70.2639 71.3057 66.3227 76.381 61.5612 81.9043L61.5257 81.9455L61.4909 81.9872C56.7038 87.7318 52.2469 92.6584 48.1187 96.7866C43.9211 100.984 38.8301 105.789 32.8321 111.206C27.0419 116.417 22.5636 120.136 19.3326 122.471Z" fill="black"/>
</svg>
