<svg width="350" height="350" viewBox="0 0 350 350" fill="none" xmlns="http://www.w3.org/2000/svg">
<path d="M118.906 181.625C116.62 181.625 113.739 182.086 111.496 184.134C109.52 185.751 108.426 188.061 108.426 190.641C108.426 193.019 109.473 195.499 110.471 197.495L110.525 197.602L110.583 197.706C111.204 198.825 111.711 200.258 112.016 202.092L112.023 202.132L112.03 202.171C112.361 203.991 112.736 207.527 113.127 213.005C113.518 218.482 113.699 222.111 113.699 224.039V264.595L63.7106 274.001L63.6999 274.003C60.0045 274.684 57.1631 275.189 55.1603 275.523C54.1548 275.691 53.3902 275.81 52.8483 275.886C52.5456 275.928 52.3733 275.948 52.297 275.957C52.2797 275.959 52.2673 275.96 52.2595 275.961H52.0373L42.9088 277.178L33.2265 278.388L32.9043 278.469C31.899 278.72 30.8472 279.058 29.8743 279.545C29.0413 279.961 27.8991 280.667 26.9908 281.857C26.2445 282.779 25.9121 283.739 25.7531 284.375C25.5581 285.155 25.5156 285.883 25.5156 286.441C25.5156 287.664 25.804 288.785 26.0908 289.646L26.3238 290.344L26.7323 290.957C28.3145 293.33 30.9093 295.02 33.4644 296.305L41.6703 300.701L41.7395 300.736C43.1039 301.418 44.8229 302.165 46.8441 302.974L47.1906 303.112L47.5528 303.203C49.5893 303.712 51.7003 303.953 53.8672 303.953H55.918C59.1581 303.953 63.5587 302.938 68.6683 301.366C73.5723 299.857 80.1715 298.132 88.5114 296.193L88.569 296.18L102.369 292.656L102.382 292.653C104.999 291.999 108.636 291.157 113.307 290.127L112.527 304.16V307.242C112.527 311.95 112.833 317.784 113.426 324.704L113.433 324.787L113.443 324.87C114.453 333.558 116.086 341.285 118.392 347.995L118.427 348.094L118.465 348.193C121.048 354.866 124.608 360.438 129.289 364.651L129.457 364.801L129.636 364.937C134.106 368.343 138.908 371.12 144.037 373.257L144.222 373.334L144.413 373.397C149.44 375.073 155.109 376.405 161.39 377.418L161.464 377.43L161.539 377.44C167.685 378.26 174.476 378.66 181.895 378.66H185.996C192.039 378.66 198.081 378.358 204.121 377.754L204.136 377.753L204.15 377.751C211.628 376.964 217.803 376.169 222.642 375.363C227.437 374.564 232.886 373.473 238.981 372.098C244.922 370.944 250.024 369.444 253.247 367.165C256.159 365.273 258.879 362.257 258.879 357.926C258.879 355.874 258.104 354.085 257.333 352.753C256.526 351.358 255.438 349.982 254.211 348.643C251.456 345.638 247.958 343.28 243.894 341.474C239.833 339.669 235.75 338.656 231.699 338.656H230.929L230.188 338.868C228.687 339.297 225.838 340.215 221.757 341.575C217.868 342.871 213.178 344.189 207.662 345.523C201.888 346.677 197.22 347.532 193.634 348.099L193.496 348.12L193.359 348.149C190.007 348.855 185.519 349.417 179.816 349.798C176.008 349.988 172.405 350.082 169.004 350.082H163.824C158.275 349.892 154.527 349.248 152.239 348.402C149.931 347.471 148.164 346.3 146.819 344.955C145.67 343.806 144.334 341.878 142.926 338.885C141.821 336.537 140.89 332.315 140.511 325.682C140.124 318.727 139.934 312.584 139.934 307.242C139.934 302.63 140.3 295.181 141.054 284.805L170.936 280.463L170.967 280.458L196.072 276.955C202.605 276.188 210.705 275.416 220.387 274.641L246.097 272.888C253.3 272.499 258.312 272.204 261.095 272.006C264.129 271.789 267.154 271.219 269.584 269.83L270.005 269.59L270.376 269.28C271.955 267.964 273.458 266.288 274.306 264.168L274.699 263.184V261.539C274.699 259.028 273.476 257.055 272.419 255.772C271.322 254.44 269.893 253.229 268.348 252.122C265.094 249.683 262.043 247.675 259.209 246.15L259.06 246.069L258.906 245.998C256.239 244.768 253.299 243.551 250.092 242.348C247.082 241.146 244.439 240.246 242.267 239.764L241.678 239.633H241.074C237.835 239.633 234.298 240.093 230.506 240.936C226.914 241.734 221.19 243.116 213.373 245.07L213.327 245.082L213.282 245.094C205.341 247.224 199.035 248.751 194.323 249.694L142.168 259.506L144.025 232.576L144.028 232.531C144.213 229.001 144.586 225.259 145.152 221.301L145.168 221.186L145.18 221.071C145.558 217.288 146.014 214.459 146.508 212.482C146.988 210.559 147.721 208.592 148.728 206.577C149.726 204.581 150.773 202.101 150.773 199.723V199.43C150.773 196.922 149.902 194.653 148.396 192.771L148.206 192.533L147.991 192.318C146.586 190.913 144.621 189.486 142.367 188.051L142.21 187.952L142.048 187.863C139.655 186.558 137.278 185.524 134.921 184.81C132.829 184.121 130.073 183.499 126.79 182.914C123.732 182.156 120.974 181.625 118.906 181.625Z" fill="black"/>
<path d="M120.391 -36.9531H120.159L119.928 -36.9366C116.884 -36.7192 114.052 -36.2662 111.597 -35.4477C110.42 -35.0555 109.177 -34.5371 108.039 -33.8129C106.935 -33.1105 105.526 -31.9575 104.616 -30.1374L103.93 -28.7649V-26.6445C103.93 -23.7864 105.14 -21.2097 107.317 -19.4045C109.011 -17.8287 111.031 -16.8667 113.039 -16.2931L113.336 -16.208L121.393 -14.716C124.233 -14.0388 126.481 -13.2426 128.219 -12.3867C129.768 -11.528 131.556 -10.2287 133.577 -8.37647C135.755 -6.37911 137.333 -4.69588 138.404 -3.31798L138.52 -3.16969L138.643 -3.02831C139.453 -2.10255 140.72 -0.161942 142.409 3.21548C144.271 6.93921 148.082 13.7494 153.733 23.4916C159.338 33.156 165.934 45.1827 173.527 59.5891C181.138 74.0312 186.58 84.0303 189.799 89.4622L189.808 89.4774L203.006 111.474L203.011 111.482C205.921 116.299 208.618 120.312 211.099 123.439C213.484 126.448 216.039 129.118 218.755 130.716C222.394 132.856 225.935 134.49 229.347 135.465L229.557 135.525L229.771 135.571C233.224 136.31 238.206 136.594 244.316 136.594H258.181L288.374 135.714C290.126 135.698 292.387 135.293 294.373 133.705C296.504 132 297.391 129.682 297.641 127.677L297.691 127.276V126.285C297.691 120.687 293.001 117.98 290.36 116.847L281.485 112.553C281.46 112.54 281.403 112.51 281.307 112.459C281.232 112.419 281.132 112.366 281.004 112.297C280.675 112.121 280.221 111.876 279.639 111.561C278.475 110.931 276.822 110.031 274.675 108.86L274.573 108.805L257.477 100.257C255.075 99.0555 251.22 96.7754 245.781 93.2784L245.737 93.2506L245.693 93.2234C240.29 89.8695 234.648 85.8309 228.768 81.0888L228.729 81.0572L228.689 81.0263C222.81 76.433 217.267 71.0809 212.066 64.9509L212.029 64.9079L211.992 64.8655C206.489 58.604 202.225 53.1221 199.131 48.4024L180.122 17.1101L166.376 -4.82393C162.465 -11.4696 159.019 -16.766 156.06 -20.5841C153.109 -24.6478 149.63 -28.0303 145.601 -30.6369C141.641 -33.1995 137.387 -34.9824 132.863 -35.9348L132.676 -35.974L132.488 -36.0023C128.301 -36.6304 124.266 -36.9531 120.391 -36.9531Z" fill="black"/>
<path d="M19.3326 122.471L19.3193 122.481L17.152 124.029L17.0137 124.139C16.2624 124.74 15.4033 125.532 14.6863 126.535C13.9832 127.52 13.1094 129.145 13.1094 131.266C13.1094 132.658 13.4619 134.896 15.3061 136.741C16.9954 138.43 19.1734 139.23 21.3672 139.23C22.58 139.23 23.6856 138.979 24.5544 138.711L28.2093 137.867L28.3154 137.839C30.6432 137.218 33.4067 135.852 36.3003 134.205C39.3141 132.491 42.9559 130.186 47.1951 127.328C55.5414 122.016 61.163 118.315 63.8006 116.354C66.6906 114.392 71.4219 110.235 77.673 104.363C84.0997 98.3253 88.9796 93.5518 92.245 90.0879C95.8836 86.4371 100.175 81.1937 105.083 74.5211C110.182 67.8541 113.335 63.8798 114.702 62.3418L114.783 62.2502L118.883 57.2721C120.127 55.8786 121.241 54.7592 122.227 53.8831C122.836 53.4994 123.357 53.1644 123.776 52.8849L123.828 52.8505C124.135 52.6471 124.959 52.1005 125.573 51.4868L126.319 50.741L126.79 49.7975C127.816 47.7455 128.062 45.5307 128.062 43.668V41.3722L127.974 40.8416C127.156 35.9328 123.339 31.9784 119.438 28.8983L119.375 28.8483L119.31 28.8C115.305 25.7961 111.689 23.4466 108.558 21.9887C105.632 20.5381 102.51 19.5898 99.2969 19.5898C98.2771 19.5898 97.2021 19.6511 96.1566 19.8412C95.1768 20.0193 93.7931 20.3845 92.4687 21.2675L91.0324 22.225L90.2604 23.7689C89.2596 25.7707 88.9136 28.374 88.722 30.4818C88.5457 32.421 88.2807 34.4692 87.9234 36.6284C87.6228 38.0792 86.8922 40.4972 85.5805 44.0576L85.5275 44.2013L85.4814 44.3473C84.4347 47.6618 83.0268 51.0156 81.2402 54.4101C79.474 57.7661 76.922 61.797 73.5141 66.5301L73.4631 66.601L73.414 66.6731C70.2639 71.3057 66.3227 76.381 61.5612 81.9043L61.5257 81.9455L61.4909 81.9872C56.7038 87.7318 52.2469 92.6584 48.1187 96.7866C43.9211 100.984 38.8301 105.789 32.8321 111.206C27.0419 116.417 22.5636 120.136 19.3326 122.471Z" fill="black"/>
</svg>
