<svg width="350" height="350" viewBox="0 0 350 350" fill="none" xmlns="http://www.w3.org/2000/svg">
<path d="M189.629 208.5C186.434 208.5 183.1 208.842 179.642 209.49L179.296 209.555L166.332 213.474L166.303 213.483C163.641 214.315 158.467 215.427 150.449 216.796L150.358 216.811L150.268 216.829C142.485 218.386 136.313 219.543 131.724 220.307C127.197 221.062 118.758 222.215 106.3 223.773L93.9828 224.946L93.8752 224.96C90.814 225.355 88.3541 225.712 86.5462 226.031C85.6514 226.188 84.8231 226.353 84.1218 226.529C83.7736 226.616 83.3722 226.726 82.9678 226.866C82.6681 226.97 81.9188 227.237 81.1405 227.756L80.605 228.113L80.1499 228.568C79.39 229.328 78.6313 230.273 78.0534 231.429C77.179 233.178 77.0742 234.981 77.0742 236.094C77.0742 238.692 78.2497 240.717 79.2688 242.014C80.2854 243.308 81.5636 244.416 82.8557 245.366C85.537 247.482 88.8491 249.122 92.5437 250.426C96.6626 251.88 101.452 252.63 106.752 252.842L106.882 252.848H108.477C111.508 252.848 116.407 252.533 122.979 251.955C130.674 251.587 136.171 251.201 138.805 250.717L192.304 243.701L192.375 243.69C197.669 242.876 203.139 241.76 208.784 240.349C211.764 239.604 214.494 238.684 216.705 237.472C218.633 236.414 221.193 234.573 222.335 231.471C222.794 230.403 223.082 229.197 223.082 227.891C223.082 226.855 222.945 225.624 222.471 224.363C221.717 221.741 219.981 219.82 218.399 218.503C216.45 216.878 213.327 215.295 209.847 213.748L209.788 213.722L209.729 213.697C205.981 212.119 202.937 210.899 200.639 210.063L200.557 210.033L200.473 210.005C197.252 208.931 193.573 208.5 189.629 208.5Z" fill="black"/>
<path fill-rule="evenodd" clip-rule="evenodd" d="M251.152 288.07C249.938 288.07 248.092 288.291 246.079 288.572C243.947 288.87 241.156 289.306 237.726 289.877L221.801 291.324L213.611 292.202L85.3354 303.331L50.7592 306.554L51.3477 313.027L50.7443 306.555L50.7517 306.555C44.3277 307.139 39.5304 307.521 36.3175 307.71L36.2653 307.714L24.7194 308.579C23.0692 308.596 21.2122 308.78 19.4755 309.431C17.6449 310.118 15.3914 311.572 14.2967 314.315C13.8084 315.411 13.5 316.656 13.5 318.008C13.5 320.364 14.3565 322.396 15.2775 323.942C16.3857 325.839 18.2551 327.4 19.7073 328.513C21.4216 329.827 23.6328 331.301 26.2613 332.919C31.3809 336.069 34.387 337.95 35.4374 338.651L35.7741 338.875L36.1361 339.056C37.8647 339.92 39.9953 340.639 42.3132 341.271L42.3799 341.289L42.447 341.306C44.5696 341.837 46.7626 342.086 49.0039 342.086H50.7617C53.2955 342.086 57.1271 341.254 61.4845 340.118L61.5193 340.109L61.554 340.099C65.6913 338.971 70.1348 337.93 74.888 336.979L74.9135 336.974L74.939 336.969C79.4753 336.024 85.9968 334.871 94.5564 333.509C103.055 332.157 110.948 331.099 118.239 330.331L118.346 330.32L118.453 330.305C125.154 329.375 138.351 328.408 158.307 327.43C178.179 326.456 192.469 325.673 201.137 325.083C209.167 324.702 215.913 324.512 221.395 324.508L243.952 325.68H244.121C245.59 325.68 250.57 325.775 259.204 325.971C266.981 326.152 272.318 326.251 275.148 326.264C276.109 326.434 277.125 326.559 278.105 326.559C280.057 326.559 283.009 326.198 285.362 324.034C288.56 321.277 289 317.138 289 314.492V314.199C289 310.866 287.192 308.218 285.764 306.542C284.184 304.688 282.059 302.861 279.625 301.062L279.572 301.023L279.519 300.985C274.824 297.66 271.293 295.235 268.997 293.774L268.813 293.656L268.62 293.551C266.168 292.214 263.459 291.025 260.521 289.968C257.502 288.732 254.366 288.07 251.152 288.07ZM259.355 319.473L259.208 325.971L259.204 325.971L259.355 319.473ZM221.562 318.008V324.508L221.395 324.508L221.225 324.499L221.562 318.008ZM200.762 318.594L201.071 325.086L201.137 325.083L201.204 325.079L200.762 318.594ZM20.8789 320.645L15.3052 323.989L15.2775 323.942C15.2633 323.918 15.2493 323.894 15.2353 323.869L20.8789 320.645ZM20.293 316.836L14.4792 313.929C14.4159 314.056 14.355 314.184 14.2967 314.315C14.2364 314.466 14.1796 314.621 14.1265 314.78L20.293 316.836ZM24.9805 315.078V308.578C24.8941 308.578 24.807 308.579 24.7194 308.579L24.4943 308.596L24.9805 315.078ZM214.238 298.672L213.546 292.209L213.611 292.202L213.676 292.196L214.238 298.672ZM238.555 296.328L237.966 289.855L237.726 289.877L237.486 289.917L238.555 296.328Z" fill="black"/>
<path d="M120.391 -36.9531H120.159L119.928 -36.9366C116.884 -36.7192 114.052 -36.2662 111.597 -35.4477C110.42 -35.0555 109.177 -34.5371 108.039 -33.8129C106.935 -33.1105 105.526 -31.9575 104.616 -30.1374L103.93 -28.7649V-26.6445C103.93 -23.7864 105.14 -21.2097 107.317 -19.4045C109.011 -17.8287 111.031 -16.8667 113.039 -16.2931L113.336 -16.208L121.393 -14.716C124.233 -14.0388 126.481 -13.2426 128.219 -12.3867C129.768 -11.528 131.556 -10.2287 133.577 -8.37647C135.755 -6.37911 137.333 -4.69588 138.404 -3.31798L138.52 -3.16969L138.643 -3.02831C139.453 -2.10255 140.72 -0.161942 142.409 3.21548C144.271 6.93921 148.082 13.7494 153.733 23.4916C159.338 33.156 165.934 45.1827 173.527 59.5891C181.138 74.0312 186.58 84.0303 189.799 89.4622L189.808 89.4774L203.006 111.474L203.011 111.482C205.921 116.299 208.618 120.312 211.099 123.439C213.484 126.448 216.039 129.118 218.755 130.716C222.394 132.856 225.935 134.49 229.347 135.465L229.557 135.525L229.771 135.571C233.224 136.31 238.206 136.594 244.316 136.594H258.181L288.374 135.714C290.126 135.698 292.387 135.293 294.373 133.705C296.504 132 297.391 129.682 297.641 127.677L297.691 127.276V126.285C297.691 120.687 293.001 117.98 290.36 116.847L281.485 112.553C281.46 112.54 281.403 112.51 281.307 112.459C281.232 112.419 281.132 112.366 281.004 112.297C280.675 112.121 280.221 111.876 279.639 111.561C278.475 110.931 276.822 110.031 274.675 108.86L274.573 108.805L257.477 100.257C255.075 99.0555 251.22 96.7754 245.781 93.2784L245.737 93.2506L245.693 93.2234C240.29 89.8695 234.648 85.8309 228.768 81.0888L228.729 81.0572L228.689 81.0263C222.81 76.433 217.267 71.0809 212.066 64.9509L212.029 64.9079L211.992 64.8655C206.489 58.604 202.225 53.1221 199.131 48.4024L180.122 17.1101L166.376 -4.82393C162.465 -11.4696 159.019 -16.766 156.06 -20.5841C153.109 -24.6478 149.63 -28.0303 145.601 -30.6369C141.641 -33.1995 137.387 -34.9824 132.863 -35.9348L132.676 -35.974L132.488 -36.0023C128.301 -36.6304 124.266 -36.9531 120.391 -36.9531Z" fill="black"/>
<path d="M19.3326 122.471L19.3193 122.481L17.152 124.029L17.0137 124.139C16.2624 124.74 15.4033 125.532 14.6863 126.535C13.9832 127.52 13.1094 129.145 13.1094 131.266C13.1094 132.658 13.4619 134.896 15.3061 136.741C16.9954 138.43 19.1734 139.23 21.3672 139.23C22.58 139.23 23.6856 138.979 24.5544 138.711L28.2093 137.867L28.3154 137.839C30.6432 137.218 33.4067 135.852 36.3003 134.205C39.3141 132.491 42.9559 130.186 47.1951 127.328C55.5414 122.016 61.163 118.315 63.8006 116.354C66.6906 114.392 71.4219 110.235 77.673 104.363C84.0997 98.3253 88.9796 93.5518 92.245 90.0879C95.8836 86.4371 100.175 81.1937 105.083 74.5211C110.182 67.8541 113.335 63.8798 114.702 62.3418L114.783 62.2502L118.883 57.2721C120.127 55.8786 121.241 54.7592 122.227 53.8831C122.836 53.4994 123.357 53.1644 123.776 52.8849L123.828 52.8505C124.135 52.6471 124.959 52.1005 125.573 51.4868L126.319 50.741L126.79 49.7975C127.816 47.7455 128.062 45.5307 128.062 43.668V41.3722L127.974 40.8416C127.156 35.9328 123.339 31.9784 119.438 28.8983L119.375 28.8483L119.31 28.8C115.305 25.7961 111.689 23.4466 108.558 21.9887C105.632 20.5381 102.51 19.5898 99.2969 19.5898C98.2771 19.5898 97.2021 19.6511 96.1566 19.8412C95.1768 20.0193 93.7931 20.3845 92.4687 21.2675L91.0324 22.225L90.2604 23.7689C89.2596 25.7707 88.9136 28.374 88.722 30.4818C88.5457 32.421 88.2807 34.4692 87.9234 36.6284C87.6228 38.0792 86.8922 40.4972 85.5805 44.0576L85.5275 44.2013L85.4814 44.3473C84.4347 47.6618 83.0268 51.0156 81.2402 54.4101C79.474 57.7661 76.922 61.797 73.5141 66.5301L73.4631 66.601L73.414 66.6731C70.2639 71.3057 66.3227 76.381 61.5612 81.9043L61.5257 81.9455L61.4909 81.9872C56.7038 87.7318 52.2469 92.6584 48.1187 96.7866C43.9211 100.984 38.8301 105.789 32.8321 111.206C27.0419 116.417 22.5636 120.136 19.3326 122.471Z" fill="black"/>
</svg>
