<svg width="350" height="350" viewBox="0 0 350 350" fill="none" xmlns="http://www.w3.org/2000/svg">
<path fill-rule="evenodd" clip-rule="evenodd" d="M31.2187 330.206C33.2732 332.314 36.1441 335.076 39.1618 336.498C42.0449 337.929 45.0952 338.852 48.2148 338.852C49.7204 338.852 52.2304 338.402 54.9579 337.856L54.9982 337.848L55.0384 337.839C57.6405 337.282 61.7235 336.52 67.3449 335.551L74.8239 334.4C77.9177 334.015 83.896 333.34 92.8027 332.372L92.8085 332.371L114.988 330.036C118.398 329.753 122.506 329.468 128.127 329.181C127.95 337.544 127.624 344.907 127.312 351.345C127.257 352.478 127.202 353.586 127.149 354.669L127.149 354.673C126.828 361.186 126.551 366.796 126.542 371.367C126.533 376.487 126.823 381.355 128.354 385.053C129.186 387.064 130.508 389.05 132.615 390.477C134.731 391.911 137.088 392.41 139.328 392.41H139.621C143.872 392.41 148.471 391.799 152.212 388.692C155.927 385.606 157.652 381.015 158.603 375.889C159.565 370.705 159.917 363.895 160.002 355.208C160.076 347.736 159.951 338.591 159.776 327.5L201.838 325.961C203.922 325.964 212.033 326.061 226.259 326.253L226.27 326.254L255.829 326.543C259.586 326.991 264.321 327.182 268.893 325.675C270.142 325.286 271.994 324.583 273.651 323.304C275.431 321.93 277.457 319.473 277.457 315.859C277.457 314.636 277.183 312.734 276.791 311.034C276.44 309.513 275.707 306.793 274.142 304.781L274.01 304.611L273.866 304.451C271.095 301.372 266.11 298.816 260.324 296.495C254.762 294.004 250.488 292.265 247.84 291.543L247.779 291.527L247.717 291.511C245.005 290.833 242.36 290.453 239.816 290.453C237.8 290.453 234.964 291.042 231.916 291.804C228.959 292.543 226.234 293.086 223.734 293.443C221.152 293.812 216.028 294.384 208.243 295.163L188.434 296.619L188.4 296.622L160.306 298.526L160.531 258.644C166.91 258.059 174.26 257.282 181.698 256.496L181.699 256.496L181.702 256.495C183.053 256.352 184.408 256.209 185.76 256.067C196.881 254.896 207.837 253.778 216.034 253.266L216.22 253.254L216.404 253.231C219.753 252.812 222.899 252.124 225.375 250.886C226.31 250.418 227.224 249.905 228.036 249.336C228.772 248.821 229.814 247.996 230.613 246.797L231.621 245.285V243.469C231.621 241.27 230.885 239.035 230.181 237.435C229.484 235.852 228.335 233.788 226.705 232.321L226.382 232.03L226.02 231.789C223.354 230.012 220.49 228.473 217.438 227.165L217.208 227.067L216.972 226.988C213.894 225.962 210.987 225.252 208.312 224.977C203.987 224.184 199.758 224.845 196.438 225.595L161.672 230.133L161.795 228.786L161.795 228.785C162.034 226.156 162.272 223.543 162.593 220.961C163.324 215.1 164.397 210.326 166.217 207.141L166.3 206.996L166.374 206.847C167.765 204.066 169.059 200.908 169.059 198.012C169.059 195.536 167.988 193.544 166.865 192.14C165.787 190.792 164.416 189.668 163.009 188.718C160.069 186.541 156.427 184.773 152.274 183.31C148 181.611 143.802 180.493 139.698 180.037L139.367 180H139.035C137.368 180 135.705 180.105 134.218 180.436C132.984 180.71 130.59 181.401 128.962 183.572L128.637 184.005L128.395 184.489C126.926 187.426 127.107 190.295 127.529 192.354C127.828 193.811 128.402 195.428 128.745 196.398C128.829 196.634 128.899 196.832 128.949 196.979C129.627 199.014 130.105 202.37 130.105 207.387V207.414L130.348 234.431L99.8646 236.662L99.7924 236.669C91.8089 237.448 84.3177 238.129 77.3181 238.712L77.2957 238.714L70.8468 239.3C69.8608 239.384 68.0543 239.647 66.2997 240.354C65.4187 240.709 64.1671 241.326 63.0545 242.406C61.8438 243.581 60.6836 245.448 60.6836 247.914C60.6836 248.897 60.8997 249.836 61.0442 250.388C61.2259 251.082 61.4835 251.856 61.8183 252.647C62.412 254.048 63.5502 256.221 65.5684 257.819C68.2875 260.034 71.301 261.648 74.6034 262.473L74.6563 262.486L74.7094 262.499C78.9036 263.467 83.1031 263.824 87.1914 263.824C90.9505 263.824 96.1934 263.517 102.822 262.934L129.52 261.752V300.412L122.646 301.117L122.295 301.257C121.997 301.305 121.541 301.368 120.897 301.447C119.571 301.608 117.648 301.81 115.102 302.052C110.021 302.536 102.611 303.168 92.8536 303.949C73.3174 305.512 59.7953 306.378 52.1665 306.568C44.2887 306.765 40.1087 306.859 39.4258 306.859H39.1954L30.9872 307.491L30.6319 307.562C27.8307 308.122 24.4063 309.56 22.6334 313.106L22 314.373V315.789C22 317.291 22.2433 318.845 22.9116 320.391C23.5718 321.918 24.5158 323.134 25.5152 324.133C26.2013 324.819 27.0176 325.705 28.0174 326.792L28.0854 326.866C29.033 327.897 30.1106 329.069 31.2187 330.206ZM155.726 229.265C155.757 228.929 155.788 228.59 155.819 228.25L155.82 228.236C155.789 228.581 155.758 228.924 155.726 229.265ZM122.587 301.205C122.587 301.205 122.568 301.209 122.526 301.217C122.564 301.208 122.586 301.204 122.587 301.205Z" fill="black"/>
<path d="M120.391 -36.9531H120.159L119.928 -36.9366C116.884 -36.7192 114.052 -36.2662 111.597 -35.4477C110.42 -35.0555 109.177 -34.5371 108.039 -33.8129C106.935 -33.1105 105.526 -31.9575 104.616 -30.1374L103.93 -28.7649V-26.6445C103.93 -23.7864 105.14 -21.2097 107.317 -19.4045C109.011 -17.8287 111.031 -16.8667 113.039 -16.2931L113.336 -16.208L121.393 -14.716C124.233 -14.0388 126.481 -13.2426 128.219 -12.3867C129.768 -11.528 131.556 -10.2287 133.577 -8.37647C135.755 -6.37911 137.333 -4.69588 138.404 -3.31798L138.52 -3.16969L138.643 -3.02831C139.453 -2.10255 140.72 -0.161942 142.409 3.21548C144.271 6.93921 148.082 13.7494 153.733 23.4916C159.338 33.156 165.934 45.1827 173.527 59.5891C181.138 74.0312 186.58 84.0303 189.799 89.4622L189.808 89.4774L203.006 111.474L203.011 111.482C205.921 116.299 208.618 120.312 211.099 123.439C213.484 126.448 216.039 129.118 218.755 130.716C222.394 132.856 225.935 134.49 229.347 135.465L229.557 135.525L229.771 135.571C233.224 136.31 238.206 136.594 244.316 136.594H258.181L288.374 135.714C290.126 135.698 292.387 135.293 294.373 133.705C296.504 132 297.391 129.682 297.641 127.677L297.691 127.276V126.285C297.691 120.687 293.001 117.98 290.36 116.847L281.485 112.553C281.46 112.54 281.403 112.51 281.307 112.459C281.232 112.419 281.132 112.366 281.004 112.297C280.675 112.121 280.221 111.876 279.639 111.561C278.475 110.931 276.822 110.031 274.675 108.86L274.573 108.805L257.477 100.257C255.075 99.0555 251.22 96.7754 245.781 93.2784L245.737 93.2506L245.693 93.2234C240.29 89.8695 234.648 85.8309 228.768 81.0888L228.729 81.0572L228.689 81.0263C222.81 76.433 217.267 71.0809 212.066 64.9509L212.029 64.9079L211.992 64.8655C206.489 58.604 202.225 53.1221 199.131 48.4024L180.122 17.1101L166.376 -4.82393C162.465 -11.4696 159.019 -16.766 156.06 -20.5841C153.109 -24.6478 149.63 -28.0303 145.601 -30.6369C141.641 -33.1995 137.387 -34.9824 132.863 -35.9348L132.676 -35.974L132.488 -36.0023C128.301 -36.6304 124.266 -36.9531 120.391 -36.9531Z" fill="black"/>
<path d="M19.3326 122.471L19.3193 122.481L17.152 124.029L17.0137 124.139C16.2624 124.74 15.4033 125.532 14.6863 126.535C13.9832 127.52 13.1094 129.145 13.1094 131.266C13.1094 132.658 13.4619 134.896 15.3061 136.741C16.9954 138.43 19.1734 139.23 21.3672 139.23C22.58 139.23 23.6856 138.979 24.5544 138.711L28.2093 137.867L28.3154 137.839C30.6432 137.218 33.4067 135.852 36.3003 134.205C39.3141 132.491 42.9559 130.186 47.1951 127.328C55.5414 122.016 61.163 118.315 63.8006 116.354C66.6906 114.392 71.4219 110.235 77.673 104.363C84.0997 98.3253 88.9796 93.5518 92.245 90.0879C95.8836 86.4371 100.175 81.1937 105.083 74.5211C110.182 67.8541 113.335 63.8798 114.702 62.3418L114.783 62.2502L118.883 57.2721C120.127 55.8786 121.241 54.7592 122.227 53.8831C122.836 53.4994 123.357 53.1644 123.776 52.8849L123.828 52.8505C124.135 52.6471 124.959 52.1005 125.573 51.4868L126.319 50.741L126.79 49.7975C127.816 47.7455 128.062 45.5307 128.062 43.668V41.3722L127.974 40.8416C127.156 35.9328 123.339 31.9784 119.438 28.8983L119.375 28.8483L119.31 28.8C115.305 25.7961 111.689 23.4466 108.558 21.9887C105.632 20.5381 102.51 19.5898 99.2969 19.5898C98.2771 19.5898 97.2021 19.6511 96.1566 19.8412C95.1768 20.0193 93.7931 20.3845 92.4687 21.2675L91.0324 22.225L90.2604 23.7689C89.2596 25.7707 88.9136 28.374 88.722 30.4818C88.5457 32.421 88.2807 34.4692 87.9234 36.6284C87.6228 38.0792 86.8922 40.4972 85.5805 44.0576L85.5275 44.2013L85.4814 44.3473C84.4347 47.6618 83.0268 51.0156 81.2402 54.4101C79.474 57.7661 76.922 61.797 73.5141 66.5301L73.4631 66.601L73.414 66.6731C70.2639 71.3057 66.3227 76.381 61.5612 81.9043L61.5257 81.9455L61.4909 81.9872C56.7038 87.7318 52.2469 92.6584 48.1187 96.7866C43.9211 100.984 38.8301 105.789 32.8321 111.206C27.0419 116.417 22.5636 120.136 19.3326 122.471Z" fill="black"/>
</svg>
