<svg width="350" height="350" viewBox="0 0 350 350" fill="none" xmlns="http://www.w3.org/2000/svg">
<path d="M126.141 -4.5C125.045 -4.5 123.916 -4.41199 122.852 -4.14591C121.934 -3.91654 120.814 -3.4923 119.823 -2.65282C118.311 -1.55899 117.203 -0.096559 116.403 1.50316L116.26 1.78921L116.159 2.0926C115.678 3.53339 115.488 5.05835 115.488 6.5918V7.03125C115.488 8.02619 115.7 9.62731 115.98 11.4509C116.282 13.4137 116.73 16.0227 117.319 19.262L117.331 19.3312L117.346 19.3999C119.081 27.495 119.883 33.5777 119.883 37.793C119.883 47.8903 119.451 56.9287 118.598 64.9207C117.438 73.0368 115.986 81.8893 114.243 91.4802L114.229 91.5551L114.218 91.6304C112.755 101.574 111.467 108.532 110.367 112.659L110.292 112.938L110.254 113.224C109.759 116.94 108.809 121.964 107.38 128.337L97.4945 131.514L97.4715 131.522C95.962 132.025 86.7424 134.303 69.2911 138.444L69.2561 138.452L69.2213 138.461C60.5916 140.655 53.8964 142.292 49.1179 143.378C46.7255 143.922 44.8473 144.32 43.4632 144.579C42.7702 144.709 42.2322 144.798 41.8332 144.854C41.5255 144.897 41.3702 144.909 41.3252 144.913C41.3157 144.913 41.3111 144.914 41.3111 144.914C41.3111 144.914 41.3131 144.914 41.3171 144.914H40.6959L40.0899 145.087C38.4765 145.548 32.9181 146.389 22.7828 147.582L22.7382 147.587L9.7676 149.376L9.58827 149.416C6.76822 150.042 3.74931 151.171 1.85539 153.533C0.635788 154.917 0.351562 156.563 0.351562 157.764C0.351562 160.33 1.83846 162.36 3.12983 163.717C4.89972 166.166 7.80285 168.342 11.215 170.347C14.5247 172.638 18.6497 174.665 23.4864 176.479C28.2371 178.261 32.4025 179.402 35.6133 179.402C39.2384 179.402 44.0777 177.886 49.6642 175.534L49.7051 175.517L49.7456 175.499C54.7379 173.28 61.3887 171.005 69.7689 168.693L69.845 168.672L99.8938 159.239C97.4128 168.823 94.9444 179.457 92.5662 189.702L92.5656 189.705C91.9823 192.217 91.4044 194.707 90.8331 197.152C87.2139 212.64 83.9163 226.061 81.1379 233.011C63.1203 278.082 39.792 307.691 10.027 329.374L2.96854 333.785L2.81563 333.9C1.48968 334.894 0.281517 335.96 -0.635003 337.106C-1.50147 338.189 -2.5 339.832 -2.5 341.895C-2.5 343.258 -2.15358 344.529 -1.58547 345.665L-1.40401 346.028L-1.16055 346.352C0.568204 348.657 3.07383 349.91 5.95508 349.91C7.34329 349.91 8.70203 349.677 10.0148 349.24L10.1824 349.184L21.7382 344.295L21.7536 344.288C42.6885 335.625 59.6503 326.326 74.6007 310.806C89.5101 295.329 102.134 273.963 114.987 241.617L115.009 241.56L115.03 241.504C119.975 228.011 124.268 211.443 128.41 194.446C129.388 190.432 130.358 186.393 131.327 182.36L131.328 182.357L131.328 182.355C134.282 170.054 137.227 157.795 140.371 146.375L183.815 132.59L183.877 132.568C189.487 130.604 193.213 129.796 195.368 129.747C196.193 129.833 196.879 129.929 197.439 130.028L197.227 130.666V131.396C197.227 133.363 196.981 135.141 196.521 136.752L196.5 136.824L196.482 136.897C195.943 139.053 193.953 145.465 190.415 156.375C186.869 167.308 183.331 179.545 179.8 193.079C176.275 206.006 173.75 216.973 172.251 225.946C169.868 237.883 168.662 249.144 168.662 259.717C168.662 263.628 168.812 267.404 169.114 271.043C170.019 284.266 172.588 295.533 176.992 304.681C181.057 313.729 186.968 321.941 194.655 329.32C202.674 337.019 214.97 343.435 231.065 348.8C232.377 349.238 234.378 349.55 236.468 349.807C238.699 350.081 241.475 350.34 244.595 350.577C250.844 351.052 258.618 351.453 266.468 351.72C274.317 351.987 282.287 352.122 288.924 352.059C295.372 351.998 301.054 351.754 303.994 351.131C313.841 349.042 322.844 346.495 330.991 343.478L331.087 343.442L331.181 343.402C341.659 338.969 350.219 329.251 350.219 316.406V316.271L350.211 316.135C349.806 309.435 347.599 303.206 345.406 297.206C345.279 296.859 345.152 296.513 345.025 296.166C342.912 290.401 340.794 284.62 339.586 277.909C338.419 269.439 337.883 263.897 337.883 261.035V260.771L336.121 245.8C336.08 244.075 335.663 242.258 334.543 240.657C333.329 238.923 331.604 237.892 329.785 237.372L329.179 237.199H328.109C325.102 237.199 323.244 239.233 322.299 240.769C321.336 242.335 320.69 244.316 320.21 246.394L320.209 246.4L318.501 253.657C317.879 255.545 316.854 258.921 315.443 263.72C313.964 268.746 312.197 275.081 310.141 282.717C308.223 289.84 305.993 295.021 303.591 298.51C302.833 299.181 301.48 300.049 299.381 301C297.108 302.03 294.23 303.038 290.867 303.963C284.142 305.811 275.765 307.245 266.998 307.902C258.228 308.56 249.212 308.43 241.191 307.225C233.092 306.007 226.418 303.754 221.974 300.479C216.948 296.775 213.179 292.335 210.585 287.148L210.565 287.106L210.543 287.064C207.909 282.06 206.14 276.16 205.316 269.288L205.314 269.277L205.313 269.266C205.048 267.145 204.908 264.699 204.908 261.914C204.908 254.167 206.157 244.863 208.742 233.947L208.755 233.895L208.766 233.841C211.967 218.709 215.003 206.577 217.868 197.398C221.069 188.09 224.708 178.047 228.787 167.266C232.883 156.441 236.038 148.862 238.271 144.395C240.43 140.078 242.777 136.722 245.258 134.22L254.376 126.013L254.69 125.543C255.911 123.712 256.903 122.073 257.607 120.665L258.082 119.715V118.652C258.082 114.187 255.092 110.719 251.596 108.129C248.05 104.94 243.796 102.136 238.895 99.686C233.975 97.2261 229.149 95.3507 224.419 94.0894L224.282 94.0528L224.142 94.0249C220.997 93.3958 218.057 93.0586 215.35 93.0586H212.658L212.176 93.1657C209.039 93.8629 204.873 95.5008 199.854 97.8607C194.96 100.037 191.294 101.777 188.987 103.051C186.903 103.671 184.5 104.529 181.797 105.606L167.012 109.954L146.618 116.429L158.235 60.6658L158.239 60.6481C158.806 57.8139 159.518 54.6773 160.378 51.235C161.239 48.0795 162.246 44.6265 163.401 40.8742L163.448 40.7199L163.484 40.5626C164.267 37.1716 165.377 34.7264 166.655 33.0223L166.839 32.7764L166.988 32.5077C167.712 31.2054 168.27 30.2304 168.671 29.5613C168.855 29.2556 168.988 29.0421 169.079 28.9038L170.191 27.7917V25.9277C170.191 24.6606 169.992 23.0401 169.691 21.2329C169.147 17.9706 166.925 15.2281 164.373 12.9722C161.684 10.3092 158.298 7.92215 154.317 5.76779C150.308 3.31023 146.012 1.16838 141.435 -0.66252L141.312 -0.711632L141.187 -0.75345C136.763 -2.22818 133.262 -3.2975 130.748 -3.92619L130.644 -3.95216L130.539 -3.97316C128.955 -4.28998 127.451 -4.5 126.141 -4.5Z" fill="black"/>
</svg>
