<svg width="350" height="350" viewBox="0 0 350 350" fill="none" xmlns="http://www.w3.org/2000/svg">
<path d="M255.404 89.2024C254.553 90.5852 254.049 92.2108 253.706 93.6919L253.703 93.7047L252.592 98.427C252.159 99.7486 251.478 102 250.563 105.108C249.57 108.484 248.387 112.728 247.013 117.828C245.731 122.589 244.286 125.794 242.868 127.78C241.808 129.265 239.333 131.209 234.429 133.207C229.914 135.047 224.679 136.023 218.633 136.023H216.582C210.58 136.023 204.136 135.296 197.237 133.804L197.17 133.79L197.103 133.777C189.155 132.263 184.175 130.303 181.466 128.307C178.415 126.059 176.169 123.399 174.626 120.314L174.601 120.263L174.574 120.212C172.982 117.188 171.879 113.557 171.359 109.228L171.358 109.214L171.356 109.201C171.195 107.911 171.105 106.386 171.105 104.609C171.105 99.6979 171.899 93.6972 173.594 86.541L173.609 86.4765L173.623 86.4117C175.745 76.3804 177.747 68.3883 179.621 62.3783C181.742 56.21 184.156 49.5497 186.863 42.3956C189.59 35.1868 191.656 30.2369 193.083 27.3815C194.419 24.7112 195.823 22.7231 197.233 21.2887L203.49 15.6571L203.873 15.0821C204.714 13.8201 205.439 12.6311 205.974 11.5612L206.555 10.3999V9.10156C206.555 4.97695 203.837 2.04013 201.315 0.149364C198.773 -2.12011 195.772 -4.08354 192.382 -5.77872C188.973 -7.48324 185.596 -8.79884 182.257 -9.68929L182.089 -9.73409L181.918 -9.76819C179.702 -10.2115 177.574 -10.4609 175.566 -10.4609H173.498L172.908 -10.33C170.541 -9.80379 167.566 -8.6164 164.197 -7.03325C161.104 -5.65779 158.667 -4.50876 157.021 -3.61813C155.63 -3.19351 154.077 -2.63478 152.382 -1.96206L142.611 0.91193L134.817 3.38602C135.623 1.14056 136.436 -1.09328 137.297 -3.30183C139.568 -9.1286 142.028 -14.3844 145.103 -18.4852L145.329 -18.7857L145.511 -19.1141C145.988 -19.9733 146.345 -20.5953 146.591 -21.0062C146.627 -21.0651 146.658 -21.1162 146.685 -21.1604L147.961 -22.4367V-24.7148C147.961 -25.7753 147.799 -27.0234 147.593 -28.2558C147.094 -31.2501 145.127 -33.5444 143.291 -35.178C141.311 -37.1267 138.883 -38.8243 136.127 -40.3213C133.344 -42.0228 130.372 -43.5015 127.218 -44.7629L127.068 -44.8229L126.915 -44.874C123.949 -45.8627 121.543 -46.5999 119.771 -47.0428L119.644 -47.0746L119.516 -47.1002C118.394 -47.3247 117.206 -47.5 116.094 -47.5C115.242 -47.5 114.27 -47.4331 113.295 -47.1893C112.481 -46.9859 111.371 -46.586 110.341 -45.7389C108.981 -44.7336 108.026 -43.4367 107.366 -42.1159L107.191 -41.7663L107.067 -41.3955C106.643 -40.1228 106.492 -38.8286 106.492 -37.6055V-37.3125C106.492 -36.422 106.669 -35.1568 106.849 -33.986C107.055 -32.6449 107.358 -30.8802 107.753 -28.7114L107.768 -28.6269L107.786 -28.5429C108.93 -23.2062 109.422 -19.3525 109.422 -16.8047C109.422 -11.8672 108.125 -6.77428 106.298 -1.11866C105.833 0.319698 105.323 1.82203 104.798 3.36785C103.686 6.64351 102.507 10.1145 101.553 13.5856L96.2185 15.3002L96.1917 15.3091C96.1968 15.3075 96.1682 15.3169 96.0916 15.3395C96.0154 15.362 95.9123 15.3915 95.7783 15.4287C95.5095 15.5032 95.1518 15.5987 94.6976 15.7167C93.7904 15.9523 92.5527 16.2634 90.9754 16.6516C87.8239 17.4274 83.3735 18.4975 77.6169 19.8634L77.5741 19.8736L77.5315 19.8844C71.7855 21.3453 67.346 22.4305 64.1912 23.1475C62.6099 23.5069 61.3926 23.7643 60.5147 23.9289C59.9623 24.0325 59.655 24.077 59.5243 24.096C59.4716 24.1036 59.4476 24.1071 59.4477 24.1086C59.4477 24.109 59.449 24.1092 59.4513 24.1094H58.7805L58.0398 24.321C57.2072 24.5589 53.7502 25.0985 46.8964 25.9049L46.8419 25.9113L38.069 27.1213L37.8499 27.17C35.8412 27.6164 33.1392 28.5162 31.3259 30.7429C30.0058 32.2635 29.7344 34.0231 29.7344 35.1758C29.7344 37.7505 31.1495 39.6581 32.1634 40.7492C33.6414 42.7271 35.8588 44.3319 38.1311 45.6736C40.5441 47.331 43.4679 48.7516 46.7798 49.9936C49.9821 51.1944 53.12 52.1016 55.7422 52.1016C58.7081 52.1016 62.3441 50.8997 66.0796 49.3268L66.1296 49.3058L66.1791 49.2838C69.3511 47.874 73.655 46.3957 79.1775 44.8723L79.2704 44.8466L94.7753 39.9788L90.0746 54.8231C87.409 62.4316 84.4632 69.7465 81.2387 76.7694C77.8618 83.7032 73.6181 90.9715 68.4869 98.5755C63.2881 106.084 58.4088 112.585 53.8488 118.095L53.8197 118.13L53.7912 118.166C49.2617 123.828 44.1483 129.417 38.443 134.932C32.7548 140.431 27.9315 144.598 23.9494 147.511L19.2306 150.46L19.0437 150.6C18.0742 151.327 17.0858 152.182 16.2912 153.176C15.5577 154.092 14.5 155.735 14.5 157.93C14.5 159.271 14.842 160.498 15.3736 161.561L15.5954 162.005L15.893 162.402C17.5176 164.568 19.929 165.773 22.6367 165.773C23.8451 165.773 25.0175 165.57 26.1338 165.198L26.3387 165.13L34.1147 161.84L34.1355 161.831C40.2454 159.301 47.2082 155.385 54.9844 150.201L55.012 150.183L55.0394 150.164C62.666 144.946 69.4434 139.492 75.3498 133.793C81.5701 127.981 87.3876 120.814 92.8296 112.362C98.489 104.264 103.607 95.1145 108.199 84.9385C112.898 74.9508 116.302 67.0579 118.344 61.342L118.373 61.2591L118.4 61.1752C120.181 55.6346 121.958 49.71 123.732 43.4032L127.618 29.5594L155.334 20.7648L155.411 20.7381C157.882 19.8732 159.668 19.3988 160.882 19.1713C160.818 19.6394 160.726 20.0749 160.61 20.4812L160.585 20.5693L160.563 20.6582C160.229 21.9914 158.937 26.1658 156.565 33.479C154.185 40.8191 151.814 49.0202 149.451 58.0751C147.096 66.7144 145.393 74.0955 144.375 80.1799C142.764 88.2589 141.941 95.9186 141.941 103.145C141.941 105.809 142.043 108.39 142.25 110.884C142.867 119.886 144.624 127.717 147.728 134.176C150.58 140.513 154.712 146.237 160.039 151.35C165.771 156.853 174.369 161.277 185.253 164.905L185.309 164.924L185.366 164.942C194.209 167.679 204.249 168.996 215.41 168.996C218.625 168.996 221.929 168.896 225.323 168.698C232.019 168.491 238.8 167.78 245.663 166.569L245.756 166.552L245.848 166.533C252.512 165.119 258.633 163.39 264.195 161.329L264.313 161.286L264.428 161.237C269.901 158.922 274.471 156.011 277.735 152.309C280.572 149.443 283.312 145.764 283.312 141.523V140.334L283.182 139.744C282.472 136.553 280.31 133.55 277.853 130.871C276.222 128.901 274.963 127.002 274.032 125.178C273.321 123.397 272.459 120.078 271.527 114.882C270.753 109.252 270.422 105.733 270.422 104.023V103.701L269.243 93.6816C269.19 92.2072 268.813 90.5325 267.743 89.0042C266.544 87.2919 264.864 86.3169 263.21 85.8444L262.47 85.6328H261.406C258.137 85.6328 256.233 87.8544 255.404 89.2024Z" fill="black"/>
</svg>
