<svg width="350" height="350" viewBox="0 0 350 350" fill="none" xmlns="http://www.w3.org/2000/svg">
<path d="M189.629 208.5C186.434 208.5 183.1 208.842 179.642 209.49L179.296 209.555L166.332 213.474L166.303 213.483C163.641 214.315 158.467 215.427 150.449 216.796L150.358 216.811L150.268 216.829C142.485 218.386 136.313 219.543 131.724 220.307C127.197 221.062 118.758 222.215 106.3 223.773L93.9828 224.946L93.8752 224.96C90.814 225.355 88.3541 225.712 86.5462 226.031C85.6514 226.188 84.8231 226.353 84.1218 226.529C83.7736 226.616 83.3722 226.726 82.9678 226.866C82.6681 226.97 81.9188 227.237 81.1405 227.756L80.605 228.113L80.1499 228.568C79.39 229.328 78.6313 230.273 78.0534 231.429C77.179 233.178 77.0742 234.981 77.0742 236.094C77.0742 238.692 78.2497 240.717 79.2688 242.014C80.2854 243.308 81.5636 244.416 82.8557 245.366C85.537 247.482 88.8491 249.122 92.5437 250.426C96.6626 251.88 101.452 252.63 106.752 252.842L106.882 252.848H108.477C111.508 252.848 116.407 252.533 122.979 251.955C130.674 251.587 136.171 251.201 138.805 250.717L192.304 243.701L192.375 243.69C197.669 242.876 203.139 241.76 208.784 240.349C211.764 239.604 214.494 238.684 216.705 237.472C218.633 236.414 221.193 234.573 222.335 231.471C222.794 230.403 223.082 229.197 223.082 227.891C223.082 226.855 222.945 225.624 222.471 224.363C221.717 221.741 219.981 219.82 218.399 218.503C216.45 216.878 213.327 215.295 209.847 213.748L209.788 213.722L209.729 213.697C205.981 212.119 202.937 210.899 200.639 210.063L200.557 210.033L200.473 210.005C197.252 208.931 193.573 208.5 189.629 208.5Z" fill="black"/>
<path fill-rule="evenodd" clip-rule="evenodd" d="M251.152 288.07C249.938 288.07 248.092 288.291 246.079 288.572C243.947 288.87 241.156 289.306 237.726 289.877L221.801 291.324L213.611 292.202L85.3354 303.331L50.7592 306.554L51.3477 313.027L50.7443 306.555L50.7517 306.555C44.3277 307.139 39.5304 307.521 36.3175 307.71L36.2653 307.714L24.7194 308.579C23.0692 308.596 21.2122 308.78 19.4755 309.431C17.6449 310.118 15.3914 311.572 14.2967 314.315C13.8084 315.411 13.5 316.656 13.5 318.008C13.5 320.364 14.3565 322.396 15.2775 323.942C16.3857 325.839 18.2551 327.4 19.7073 328.513C21.4216 329.827 23.6328 331.301 26.2613 332.919C31.3809 336.069 34.387 337.95 35.4374 338.651L35.7741 338.875L36.1361 339.056C37.8647 339.92 39.9953 340.639 42.3132 341.271L42.3799 341.289L42.447 341.306C44.5696 341.837 46.7626 342.086 49.0039 342.086H50.7617C53.2955 342.086 57.1271 341.254 61.4845 340.118L61.5193 340.109L61.554 340.099C65.6913 338.971 70.1348 337.93 74.888 336.979L74.9135 336.974L74.939 336.969C79.4753 336.024 85.9968 334.871 94.5564 333.509C103.055 332.157 110.948 331.099 118.239 330.331L118.346 330.32L118.453 330.305C125.154 329.375 138.351 328.408 158.307 327.43C178.179 326.456 192.469 325.673 201.137 325.083C209.167 324.702 215.913 324.512 221.395 324.508L243.952 325.68H244.121C245.59 325.68 250.57 325.775 259.204 325.971C266.981 326.152 272.318 326.251 275.148 326.264C276.109 326.434 277.125 326.559 278.105 326.559C280.057 326.559 283.009 326.198 285.362 324.034C288.56 321.277 289 317.138 289 314.492V314.199C289 310.866 287.192 308.218 285.764 306.542C284.184 304.688 282.059 302.861 279.625 301.062L279.572 301.023L279.519 300.985C274.824 297.66 271.293 295.235 268.997 293.774L268.813 293.656L268.62 293.551C266.168 292.214 263.459 291.025 260.521 289.968C257.502 288.732 254.366 288.07 251.152 288.07ZM259.355 319.473L259.208 325.971L259.204 325.971L259.355 319.473ZM221.562 318.008V324.508L221.395 324.508L221.225 324.499L221.562 318.008ZM200.762 318.594L201.071 325.086L201.137 325.083L201.204 325.079L200.762 318.594ZM20.8789 320.645L15.3052 323.989L15.2775 323.942C15.2633 323.918 15.2493 323.894 15.2353 323.869L20.8789 320.645ZM20.293 316.836L14.4792 313.929C14.4159 314.056 14.355 314.184 14.2967 314.315C14.2364 314.466 14.1796 314.621 14.1265 314.78L20.293 316.836ZM24.9805 315.078V308.578C24.8941 308.578 24.807 308.579 24.7194 308.579L24.4943 308.596L24.9805 315.078ZM214.238 298.672L213.546 292.209L213.611 292.202L213.676 292.196L214.238 298.672ZM238.555 296.328L237.966 289.855L237.726 289.877L237.486 289.917L238.555 296.328Z" fill="black"/>
<path d="M255.404 89.2024C254.553 90.5852 254.049 92.2108 253.706 93.6919L253.703 93.7047L252.592 98.427C252.159 99.7486 251.478 102 250.563 105.108C249.57 108.484 248.387 112.728 247.013 117.828C245.731 122.589 244.286 125.794 242.868 127.78C241.808 129.265 239.333 131.209 234.429 133.207C229.914 135.047 224.679 136.023 218.633 136.023H216.582C210.58 136.023 204.136 135.296 197.237 133.804L197.17 133.79L197.103 133.777C189.155 132.263 184.175 130.303 181.466 128.307C178.415 126.059 176.169 123.399 174.626 120.314L174.601 120.263L174.574 120.212C172.982 117.188 171.879 113.557 171.359 109.228L171.358 109.214L171.356 109.201C171.195 107.911 171.105 106.386 171.105 104.609C171.105 99.6979 171.899 93.6972 173.594 86.541L173.609 86.4765L173.623 86.4117C175.745 76.3804 177.747 68.3883 179.621 62.3783C181.742 56.21 184.156 49.5497 186.863 42.3956C189.59 35.1868 191.656 30.2369 193.083 27.3815C194.419 24.7112 195.823 22.7231 197.233 21.2887L203.49 15.6571L203.873 15.0821C204.714 13.8201 205.439 12.6311 205.974 11.5612L206.555 10.3999V9.10156C206.555 4.97695 203.837 2.04013 201.315 0.149364C198.773 -2.12011 195.772 -4.08354 192.382 -5.77872C188.973 -7.48324 185.596 -8.79884 182.257 -9.68929L182.089 -9.73409L181.918 -9.76819C179.702 -10.2115 177.574 -10.4609 175.566 -10.4609H173.498L172.908 -10.33C170.541 -9.80379 167.566 -8.6164 164.197 -7.03325C161.104 -5.65779 158.667 -4.50876 157.021 -3.61813C155.63 -3.19351 154.077 -2.63478 152.382 -1.96206L142.611 0.91193L134.817 3.38602C135.623 1.14056 136.436 -1.09328 137.297 -3.30183C139.568 -9.1286 142.028 -14.3844 145.103 -18.4852L145.329 -18.7857L145.511 -19.1141C145.988 -19.9733 146.345 -20.5953 146.591 -21.0062C146.627 -21.0651 146.658 -21.1162 146.685 -21.1604L147.961 -22.4367V-24.7148C147.961 -25.7753 147.799 -27.0234 147.593 -28.2558C147.094 -31.2501 145.127 -33.5444 143.291 -35.178C141.311 -37.1267 138.883 -38.8243 136.127 -40.3213C133.344 -42.0228 130.372 -43.5015 127.218 -44.7629L127.068 -44.8229L126.915 -44.874C123.949 -45.8627 121.543 -46.5999 119.771 -47.0428L119.644 -47.0746L119.516 -47.1002C118.394 -47.3247 117.206 -47.5 116.094 -47.5C115.242 -47.5 114.27 -47.4331 113.295 -47.1893C112.481 -46.9859 111.371 -46.586 110.341 -45.7389C108.981 -44.7336 108.026 -43.4367 107.366 -42.1159L107.191 -41.7663L107.067 -41.3955C106.643 -40.1228 106.492 -38.8286 106.492 -37.6055V-37.3125C106.492 -36.422 106.669 -35.1568 106.849 -33.986C107.055 -32.6449 107.358 -30.8802 107.753 -28.7114L107.768 -28.6269L107.786 -28.5429C108.93 -23.2062 109.422 -19.3525 109.422 -16.8047C109.422 -11.8672 108.125 -6.77428 106.298 -1.11866C105.833 0.319698 105.323 1.82203 104.798 3.36785C103.686 6.64351 102.507 10.1145 101.553 13.5856L96.2185 15.3002L96.1917 15.3091C96.1968 15.3075 96.1682 15.3169 96.0916 15.3395C96.0154 15.362 95.9123 15.3915 95.7783 15.4287C95.5095 15.5032 95.1518 15.5987 94.6976 15.7167C93.7904 15.9523 92.5527 16.2634 90.9754 16.6516C87.8239 17.4274 83.3735 18.4975 77.6169 19.8634L77.5741 19.8736L77.5315 19.8844C71.7855 21.3453 67.346 22.4305 64.1912 23.1475C62.6099 23.5069 61.3926 23.7643 60.5147 23.9289C59.9623 24.0325 59.655 24.077 59.5243 24.096C59.4716 24.1036 59.4476 24.1071 59.4477 24.1086C59.4477 24.109 59.449 24.1092 59.4513 24.1094H58.7805L58.0398 24.321C57.2072 24.5589 53.7502 25.0985 46.8964 25.9049L46.8419 25.9113L38.069 27.1213L37.8499 27.17C35.8412 27.6164 33.1392 28.5162 31.3259 30.7429C30.0058 32.2635 29.7344 34.0231 29.7344 35.1758C29.7344 37.7505 31.1495 39.6581 32.1634 40.7492C33.6414 42.7271 35.8588 44.3319 38.1311 45.6736C40.5441 47.331 43.4679 48.7516 46.7798 49.9936C49.9821 51.1944 53.12 52.1016 55.7422 52.1016C58.7081 52.1016 62.3441 50.8997 66.0796 49.3268L66.1296 49.3058L66.1791 49.2838C69.3511 47.874 73.655 46.3957 79.1775 44.8723L79.2704 44.8466L94.7753 39.9788L90.0746 54.8231C87.409 62.4316 84.4632 69.7465 81.2387 76.7694C77.8618 83.7032 73.6181 90.9715 68.4869 98.5755C63.2881 106.084 58.4088 112.585 53.8488 118.095L53.8197 118.13L53.7912 118.166C49.2617 123.828 44.1483 129.417 38.443 134.932C32.7548 140.431 27.9315 144.598 23.9494 147.511L19.2306 150.46L19.0437 150.6C18.0742 151.327 17.0858 152.182 16.2912 153.176C15.5577 154.092 14.5 155.735 14.5 157.93C14.5 159.271 14.842 160.498 15.3736 161.561L15.5954 162.005L15.893 162.402C17.5176 164.568 19.929 165.773 22.6367 165.773C23.8451 165.773 25.0175 165.57 26.1338 165.198L26.3387 165.13L34.1147 161.84L34.1355 161.831C40.2454 159.301 47.2082 155.385 54.9844 150.201L55.012 150.183L55.0394 150.164C62.666 144.946 69.4434 139.492 75.3498 133.793C81.5701 127.981 87.3876 120.814 92.8296 112.362C98.489 104.264 103.607 95.1145 108.199 84.9385C112.898 74.9508 116.302 67.0579 118.344 61.342L118.373 61.2591L118.4 61.1752C120.181 55.6346 121.958 49.71 123.732 43.4032L127.618 29.5594L155.334 20.7648L155.411 20.7381C157.882 19.8732 159.668 19.3988 160.882 19.1713C160.818 19.6394 160.726 20.0749 160.61 20.4812L160.585 20.5693L160.563 20.6582C160.229 21.9914 158.937 26.1658 156.565 33.479C154.185 40.8191 151.814 49.0202 149.451 58.0751C147.096 66.7144 145.393 74.0955 144.375 80.1799C142.764 88.2589 141.941 95.9186 141.941 103.145C141.941 105.809 142.043 108.39 142.25 110.884C142.867 119.886 144.624 127.717 147.728 134.176C150.58 140.513 154.712 146.237 160.039 151.35C165.771 156.853 174.369 161.277 185.253 164.905L185.309 164.924L185.366 164.942C194.209 167.679 204.249 168.996 215.41 168.996C218.625 168.996 221.929 168.896 225.323 168.698C232.019 168.491 238.8 167.78 245.663 166.569L245.756 166.552L245.848 166.533C252.512 165.119 258.633 163.39 264.195 161.329L264.313 161.286L264.428 161.237C269.901 158.922 274.471 156.011 277.735 152.309C280.572 149.443 283.312 145.764 283.312 141.523V140.334L283.182 139.744C282.472 136.553 280.31 133.55 277.853 130.871C276.222 128.901 274.963 127.002 274.032 125.178C273.321 123.397 272.459 120.078 271.527 114.882C270.753 109.252 270.422 105.733 270.422 104.023V103.701L269.243 93.6816C269.19 92.2072 268.813 90.5325 267.743 89.0042C266.544 87.2919 264.864 86.3169 263.21 85.8444L262.47 85.6328H261.406C258.137 85.6328 256.233 87.8544 255.404 89.2024Z" fill="black"/>
</svg>
