<svg width="350" height="350" viewBox="0 0 350 350" fill="none" xmlns="http://www.w3.org/2000/svg">
<path fill-rule="evenodd" clip-rule="evenodd" d="M31.2187 330.206C33.2732 332.314 36.1441 335.076 39.1618 336.498C42.0449 337.929 45.0952 338.852 48.2148 338.852C49.7204 338.852 52.2304 338.402 54.9579 337.856L54.9982 337.848L55.0384 337.839C57.6405 337.282 61.7235 336.52 67.3449 335.551L74.8239 334.4C77.9177 334.015 83.896 333.34 92.8027 332.372L92.8085 332.371L114.988 330.036C118.398 329.753 122.506 329.468 128.127 329.181C127.95 337.544 127.624 344.907 127.312 351.345C127.257 352.478 127.202 353.586 127.149 354.669L127.149 354.673C126.828 361.186 126.551 366.796 126.542 371.367C126.533 376.487 126.823 381.355 128.354 385.053C129.186 387.064 130.508 389.05 132.615 390.477C134.731 391.911 137.088 392.41 139.328 392.41H139.621C143.872 392.41 148.471 391.799 152.212 388.692C155.927 385.606 157.652 381.015 158.603 375.889C159.565 370.705 159.917 363.895 160.002 355.208C160.076 347.736 159.951 338.591 159.776 327.5L201.838 325.961C203.922 325.964 212.033 326.061 226.259 326.253L226.27 326.254L255.829 326.543C259.586 326.991 264.321 327.182 268.893 325.675C270.142 325.286 271.994 324.583 273.651 323.304C275.431 321.93 277.457 319.473 277.457 315.859C277.457 314.636 277.183 312.734 276.791 311.034C276.44 309.513 275.707 306.793 274.142 304.781L274.01 304.611L273.866 304.451C271.095 301.372 266.11 298.816 260.324 296.495C254.762 294.004 250.488 292.265 247.84 291.543L247.779 291.527L247.717 291.511C245.005 290.833 242.36 290.453 239.816 290.453C237.8 290.453 234.964 291.042 231.916 291.804C228.959 292.543 226.234 293.086 223.734 293.443C221.152 293.812 216.028 294.384 208.243 295.163L188.434 296.619L188.4 296.622L160.306 298.526L160.531 258.644C166.91 258.059 174.26 257.282 181.698 256.496L181.699 256.496L181.702 256.495C183.053 256.352 184.408 256.209 185.76 256.067C196.881 254.896 207.837 253.778 216.034 253.266L216.22 253.254L216.404 253.231C219.753 252.812 222.899 252.124 225.375 250.886C226.31 250.418 227.224 249.905 228.036 249.336C228.772 248.821 229.814 247.996 230.613 246.797L231.621 245.285V243.469C231.621 241.27 230.885 239.035 230.181 237.435C229.484 235.852 228.335 233.788 226.705 232.321L226.382 232.03L226.02 231.789C223.354 230.012 220.49 228.473 217.438 227.165L217.208 227.067L216.972 226.988C213.894 225.962 210.987 225.252 208.312 224.977C203.987 224.184 199.758 224.845 196.438 225.595L161.672 230.133L161.795 228.786L161.795 228.785C162.034 226.156 162.272 223.543 162.593 220.961C163.324 215.1 164.397 210.326 166.217 207.141L166.3 206.996L166.374 206.847C167.765 204.066 169.059 200.908 169.059 198.012C169.059 195.536 167.988 193.544 166.865 192.14C165.787 190.792 164.416 189.668 163.009 188.718C160.069 186.541 156.427 184.773 152.274 183.31C148 181.611 143.802 180.493 139.698 180.037L139.367 180H139.035C137.368 180 135.705 180.105 134.218 180.436C132.984 180.71 130.59 181.401 128.962 183.572L128.637 184.005L128.395 184.489C126.926 187.426 127.107 190.295 127.529 192.354C127.828 193.811 128.402 195.428 128.745 196.398C128.829 196.634 128.899 196.832 128.949 196.979C129.627 199.014 130.105 202.37 130.105 207.387V207.414L130.348 234.431L99.8646 236.662L99.7924 236.669C91.8089 237.448 84.3177 238.129 77.3181 238.712L77.2957 238.714L70.8468 239.3C69.8608 239.384 68.0543 239.647 66.2997 240.354C65.4187 240.709 64.1671 241.326 63.0545 242.406C61.8438 243.581 60.6836 245.448 60.6836 247.914C60.6836 248.897 60.8997 249.836 61.0442 250.388C61.2259 251.082 61.4835 251.856 61.8183 252.647C62.412 254.048 63.5502 256.221 65.5684 257.819C68.2875 260.034 71.301 261.648 74.6034 262.473L74.6563 262.486L74.7094 262.499C78.9036 263.467 83.1031 263.824 87.1914 263.824C90.9505 263.824 96.1934 263.517 102.822 262.934L129.52 261.752V300.412L122.646 301.117L122.295 301.257C121.997 301.305 121.541 301.368 120.897 301.447C119.571 301.608 117.648 301.81 115.102 302.052C110.021 302.536 102.611 303.168 92.8536 303.949C73.3174 305.512 59.7953 306.378 52.1665 306.568C44.2887 306.765 40.1087 306.859 39.4258 306.859H39.1954L30.9872 307.491L30.6319 307.562C27.8307 308.122 24.4063 309.56 22.6334 313.106L22 314.373V315.789C22 317.291 22.2433 318.845 22.9116 320.391C23.5718 321.918 24.5158 323.134 25.5152 324.133C26.2013 324.819 27.0176 325.705 28.0174 326.792L28.0854 326.866C29.033 327.897 30.1106 329.069 31.2187 330.206ZM155.726 229.265C155.757 228.929 155.788 228.59 155.819 228.25L155.82 228.236C155.789 228.581 155.758 228.924 155.726 229.265ZM122.587 301.205C122.587 301.205 122.568 301.209 122.526 301.217C122.564 301.208 122.586 301.204 122.587 301.205Z" fill="black"/>
<path d="M255.404 89.2024C254.553 90.5852 254.049 92.2108 253.706 93.6919L253.703 93.7047L252.592 98.427C252.159 99.7486 251.478 102 250.563 105.108C249.57 108.484 248.387 112.728 247.013 117.828C245.731 122.589 244.286 125.794 242.868 127.78C241.808 129.265 239.333 131.209 234.429 133.207C229.914 135.047 224.679 136.023 218.633 136.023H216.582C210.58 136.023 204.136 135.296 197.237 133.804L197.17 133.79L197.103 133.777C189.155 132.263 184.175 130.303 181.466 128.307C178.415 126.059 176.169 123.399 174.626 120.314L174.601 120.263L174.574 120.212C172.982 117.188 171.879 113.557 171.359 109.228L171.358 109.214L171.356 109.201C171.195 107.911 171.105 106.386 171.105 104.609C171.105 99.6979 171.899 93.6972 173.594 86.541L173.609 86.4765L173.623 86.4117C175.745 76.3804 177.747 68.3883 179.621 62.3783C181.742 56.21 184.156 49.5497 186.863 42.3956C189.59 35.1868 191.656 30.2369 193.083 27.3815C194.419 24.7112 195.823 22.7231 197.233 21.2887L203.49 15.6571L203.873 15.0821C204.714 13.8201 205.439 12.6311 205.974 11.5612L206.555 10.3999V9.10156C206.555 4.97695 203.837 2.04013 201.315 0.149364C198.773 -2.12011 195.772 -4.08354 192.382 -5.77872C188.973 -7.48324 185.596 -8.79884 182.257 -9.68929L182.089 -9.73409L181.918 -9.76819C179.702 -10.2115 177.574 -10.4609 175.566 -10.4609H173.498L172.908 -10.33C170.541 -9.80379 167.566 -8.6164 164.197 -7.03325C161.104 -5.65779 158.667 -4.50876 157.021 -3.61813C155.63 -3.19351 154.077 -2.63478 152.382 -1.96206L142.611 0.91193L134.817 3.38602C135.623 1.14056 136.436 -1.09328 137.297 -3.30183C139.568 -9.1286 142.028 -14.3844 145.103 -18.4852L145.329 -18.7857L145.511 -19.1141C145.988 -19.9733 146.345 -20.5953 146.591 -21.0062C146.627 -21.0651 146.658 -21.1162 146.685 -21.1604L147.961 -22.4367V-24.7148C147.961 -25.7753 147.799 -27.0234 147.593 -28.2558C147.094 -31.2501 145.127 -33.5444 143.291 -35.178C141.311 -37.1267 138.883 -38.8243 136.127 -40.3213C133.344 -42.0228 130.372 -43.5015 127.218 -44.7629L127.068 -44.8229L126.915 -44.874C123.949 -45.8627 121.543 -46.5999 119.771 -47.0428L119.644 -47.0746L119.516 -47.1002C118.394 -47.3247 117.206 -47.5 116.094 -47.5C115.242 -47.5 114.27 -47.4331 113.295 -47.1893C112.481 -46.9859 111.371 -46.586 110.341 -45.7389C108.981 -44.7336 108.026 -43.4367 107.366 -42.1159L107.191 -41.7663L107.067 -41.3955C106.643 -40.1228 106.492 -38.8286 106.492 -37.6055V-37.3125C106.492 -36.422 106.669 -35.1568 106.849 -33.986C107.055 -32.6449 107.358 -30.8802 107.753 -28.7114L107.768 -28.6269L107.786 -28.5429C108.93 -23.2062 109.422 -19.3525 109.422 -16.8047C109.422 -11.8672 108.125 -6.77428 106.298 -1.11866C105.833 0.319698 105.323 1.82203 104.798 3.36785C103.686 6.64351 102.507 10.1145 101.553 13.5856L96.2185 15.3002L96.1917 15.3091C96.1968 15.3075 96.1682 15.3169 96.0916 15.3395C96.0154 15.362 95.9123 15.3915 95.7783 15.4287C95.5095 15.5032 95.1518 15.5987 94.6976 15.7167C93.7904 15.9523 92.5527 16.2634 90.9754 16.6516C87.8239 17.4274 83.3735 18.4975 77.6169 19.8634L77.5741 19.8736L77.5315 19.8844C71.7855 21.3453 67.346 22.4305 64.1912 23.1475C62.6099 23.5069 61.3926 23.7643 60.5147 23.9289C59.9623 24.0325 59.655 24.077 59.5243 24.096C59.4716 24.1036 59.4476 24.1071 59.4477 24.1086C59.4477 24.109 59.449 24.1092 59.4513 24.1094H58.7805L58.0398 24.321C57.2072 24.5589 53.7502 25.0985 46.8964 25.9049L46.8419 25.9113L38.069 27.1213L37.8499 27.17C35.8412 27.6164 33.1392 28.5162 31.3259 30.7429C30.0058 32.2635 29.7344 34.0231 29.7344 35.1758C29.7344 37.7505 31.1495 39.6581 32.1634 40.7492C33.6414 42.7271 35.8588 44.3319 38.1311 45.6736C40.5441 47.331 43.4679 48.7516 46.7798 49.9936C49.9821 51.1944 53.12 52.1016 55.7422 52.1016C58.7081 52.1016 62.3441 50.8997 66.0796 49.3268L66.1296 49.3058L66.1791 49.2838C69.3511 47.874 73.655 46.3957 79.1775 44.8723L79.2704 44.8466L94.7753 39.9788L90.0746 54.8231C87.409 62.4316 84.4632 69.7465 81.2387 76.7694C77.8618 83.7032 73.6181 90.9715 68.4869 98.5755C63.2881 106.084 58.4088 112.585 53.8488 118.095L53.8197 118.13L53.7912 118.166C49.2617 123.828 44.1483 129.417 38.443 134.932C32.7548 140.431 27.9315 144.598 23.9494 147.511L19.2306 150.46L19.0437 150.6C18.0742 151.327 17.0858 152.182 16.2912 153.176C15.5577 154.092 14.5 155.735 14.5 157.93C14.5 159.271 14.842 160.498 15.3736 161.561L15.5954 162.005L15.893 162.402C17.5176 164.568 19.929 165.773 22.6367 165.773C23.8451 165.773 25.0175 165.57 26.1338 165.198L26.3387 165.13L34.1147 161.84L34.1355 161.831C40.2454 159.301 47.2082 155.385 54.9844 150.201L55.012 150.183L55.0394 150.164C62.666 144.946 69.4434 139.492 75.3498 133.793C81.5701 127.981 87.3876 120.814 92.8296 112.362C98.489 104.264 103.607 95.1145 108.199 84.9385C112.898 74.9508 116.302 67.0579 118.344 61.342L118.373 61.2591L118.4 61.1752C120.181 55.6346 121.958 49.71 123.732 43.4032L127.618 29.5594L155.334 20.7648L155.411 20.7381C157.882 19.8732 159.668 19.3988 160.882 19.1713C160.818 19.6394 160.726 20.0749 160.61 20.4812L160.585 20.5693L160.563 20.6582C160.229 21.9914 158.937 26.1658 156.565 33.479C154.185 40.8191 151.814 49.0202 149.451 58.0751C147.096 66.7144 145.393 74.0955 144.375 80.1799C142.764 88.2589 141.941 95.9186 141.941 103.145C141.941 105.809 142.043 108.39 142.25 110.884C142.867 119.886 144.624 127.717 147.728 134.176C150.58 140.513 154.712 146.237 160.039 151.35C165.771 156.853 174.369 161.277 185.253 164.905L185.309 164.924L185.366 164.942C194.209 167.679 204.249 168.996 215.41 168.996C218.625 168.996 221.929 168.896 225.323 168.698C232.019 168.491 238.8 167.78 245.663 166.569L245.756 166.552L245.848 166.533C252.512 165.119 258.633 163.39 264.195 161.329L264.313 161.286L264.428 161.237C269.901 158.922 274.471 156.011 277.735 152.309C280.572 149.443 283.312 145.764 283.312 141.523V140.334L283.182 139.744C282.472 136.553 280.31 133.55 277.853 130.871C276.222 128.901 274.963 127.002 274.032 125.178C273.321 123.397 272.459 120.078 271.527 114.882C270.753 109.252 270.422 105.733 270.422 104.023V103.701L269.243 93.6816C269.19 92.2072 268.813 90.5325 267.743 89.0042C266.544 87.2919 264.864 86.3169 263.21 85.8444L262.47 85.6328H261.406C258.137 85.6328 256.233 87.8544 255.404 89.2024Z" fill="black"/>
</svg>
