<svg width="350" height="350" viewBox="0 0 350 350" fill="none" xmlns="http://www.w3.org/2000/svg">
<path d="M255.404 309.202C254.553 310.585 254.049 312.211 253.706 313.692L253.703 313.705L252.592 318.427C252.159 319.749 251.478 322 250.563 325.108C249.57 328.484 248.387 332.728 247.013 337.828C245.731 342.589 244.286 345.794 242.868 347.78C241.808 349.265 239.333 351.209 234.429 353.207C229.914 355.047 224.679 356.023 218.633 356.023H216.582C210.58 356.023 204.136 355.296 197.237 353.804L197.17 353.79L197.103 353.777C189.155 352.263 184.175 350.303 181.466 348.307C178.415 346.059 176.169 343.399 174.626 340.314L174.601 340.263L174.574 340.212C172.982 337.188 171.879 333.557 171.359 329.228L171.358 329.214L171.356 329.201C171.195 327.911 171.105 326.386 171.105 324.609C171.105 319.698 171.899 313.697 173.594 306.541L173.609 306.477L173.623 306.412C175.745 296.38 177.747 288.388 179.621 282.378C181.742 276.21 184.156 269.55 186.863 262.396C189.59 255.187 191.656 250.237 193.083 247.382C194.419 244.711 195.823 242.723 197.233 241.289L203.49 235.657L203.873 235.082C204.714 233.82 205.439 232.631 205.974 231.561L206.555 230.4V229.102C206.555 224.977 203.837 222.04 201.315 220.149C198.773 217.88 195.772 215.916 192.382 214.221C188.973 212.517 185.596 211.201 182.257 210.311L182.089 210.266L181.918 210.232C179.702 209.788 177.574 209.539 175.566 209.539H173.498L172.908 209.67C170.541 210.196 167.566 211.384 164.197 212.967C161.104 214.342 158.667 215.491 157.021 216.382C155.63 216.806 154.077 217.365 152.382 218.038L142.611 220.912L134.817 223.386C135.623 221.141 136.436 218.907 137.297 216.698C139.568 210.871 142.028 205.616 145.103 201.515L145.329 201.214L145.511 200.886C145.988 200.027 146.345 199.405 146.591 198.994C146.627 198.935 146.658 198.884 146.685 198.84L147.961 197.563V195.285C147.961 194.225 147.799 192.977 147.593 191.744C147.094 188.75 145.127 186.456 143.291 184.822C141.311 182.873 138.883 181.176 136.127 179.679C133.344 177.977 130.372 176.499 127.218 175.237L127.068 175.177L126.915 175.126C123.949 174.137 121.543 173.4 119.771 172.957L119.644 172.925L119.516 172.9C118.394 172.675 117.206 172.5 116.094 172.5C115.242 172.5 114.27 172.567 113.295 172.811C112.481 173.014 111.371 173.414 110.341 174.261C108.981 175.266 108.026 176.563 107.366 177.884L107.191 178.234L107.067 178.604C106.643 179.877 106.492 181.171 106.492 182.395V182.688C106.492 183.578 106.669 184.843 106.849 186.014C107.055 187.355 107.358 189.12 107.753 191.289L107.768 191.373L107.786 191.457C108.93 196.794 109.422 200.647 109.422 203.195C109.422 208.133 108.125 213.226 106.298 218.881C105.833 220.32 105.323 221.822 104.798 223.368C103.686 226.644 102.507 230.115 101.553 233.586L96.2185 235.3L96.1917 235.309C96.1968 235.307 96.1682 235.317 96.0916 235.34C96.0154 235.362 95.9123 235.392 95.7783 235.429C95.5095 235.503 95.1518 235.599 94.6976 235.717C93.7904 235.952 92.5527 236.263 90.9754 236.652C87.8239 237.427 83.3735 238.497 77.6169 239.863L77.5741 239.874L77.5315 239.884C71.7855 241.345 67.346 242.431 64.1912 243.148C62.6099 243.507 61.3926 243.764 60.5147 243.929C59.9623 244.032 59.655 244.077 59.5243 244.096C59.4716 244.104 59.4476 244.107 59.4477 244.109C59.4477 244.109 59.449 244.109 59.4513 244.109H58.7805L58.0398 244.321C57.2072 244.559 53.7502 245.099 46.8964 245.905L46.8419 245.911L38.069 247.121L37.8499 247.17C35.8412 247.616 33.1392 248.516 31.3259 250.743C30.0058 252.264 29.7344 254.023 29.7344 255.176C29.7344 257.751 31.1495 259.658 32.1634 260.749C33.6414 262.727 35.8588 264.332 38.1311 265.674C40.5441 267.331 43.4679 268.752 46.7798 269.994C49.9821 271.194 53.12 272.102 55.7422 272.102C58.7081 272.102 62.3441 270.9 66.0796 269.327L66.1296 269.306L66.1791 269.284C69.3511 267.874 73.655 266.396 79.1775 264.872L79.2704 264.847L94.7753 259.979L90.0746 274.823C87.409 282.432 84.4632 289.747 81.2387 296.769C77.8618 303.703 73.6181 310.971 68.4869 318.576C63.2881 326.084 58.4088 332.585 53.8488 338.095L53.8197 338.13L53.7912 338.166C49.2617 343.828 44.1483 349.417 38.443 354.932C32.7548 360.431 27.9315 364.598 23.9494 367.511L19.2306 370.46L19.0437 370.6C18.0742 371.327 17.0858 372.182 16.2912 373.176C15.5577 374.092 14.5 375.735 14.5 377.93C14.5 379.271 14.842 380.498 15.3736 381.561L15.5954 382.005L15.893 382.402C17.5176 384.568 19.929 385.773 22.6367 385.773C23.8451 385.773 25.0175 385.57 26.1338 385.198L26.3387 385.13L34.1147 381.84L34.1355 381.831C40.2454 379.301 47.2082 375.385 54.9844 370.201L55.012 370.183L55.0394 370.164C62.666 364.946 69.4434 359.492 75.3498 353.793C81.5701 347.981 87.3876 340.814 92.8296 332.362C98.489 324.264 103.607 315.114 108.199 304.938C112.898 294.951 116.302 287.058 118.344 281.342L118.373 281.259L118.4 281.175C120.181 275.635 121.958 269.71 123.732 263.403L127.618 249.559L155.334 240.765L155.411 240.738C157.882 239.873 159.668 239.399 160.882 239.171C160.818 239.639 160.726 240.075 160.61 240.481L160.585 240.569L160.563 240.658C160.229 241.991 158.937 246.166 156.565 253.479C154.185 260.819 151.814 269.02 149.451 278.075C147.096 286.714 145.393 294.096 144.375 300.18C142.764 308.259 141.941 315.919 141.941 323.145C141.941 325.809 142.043 328.39 142.25 330.884C142.867 339.886 144.624 347.717 147.728 354.176C150.58 360.513 154.712 366.237 160.039 371.35C165.771 376.853 174.369 381.277 185.253 384.905L185.309 384.924L185.366 384.942C194.209 387.679 204.249 388.996 215.41 388.996C218.625 388.996 221.929 388.896 225.323 388.698C232.019 388.491 238.8 387.78 245.663 386.569L245.756 386.552L245.848 386.533C252.512 385.119 258.633 383.39 264.195 381.329L264.313 381.286L264.428 381.237C269.901 378.922 274.471 376.011 277.735 372.309C280.572 369.443 283.312 365.764 283.312 361.523V360.334L283.182 359.744C282.472 356.553 280.31 353.55 277.853 350.871C276.222 348.901 274.963 347.002 274.032 345.178C273.321 343.397 272.459 340.078 271.527 334.882C270.753 329.252 270.422 325.733 270.422 324.023V323.701L269.243 313.682C269.19 312.207 268.813 310.533 267.743 309.004C266.544 307.292 264.864 306.317 263.21 305.844L262.47 305.633H261.406C258.137 305.633 256.233 307.854 255.404 309.202Z" fill="black"/>
<path d="M255.404 89.2024C254.553 90.5852 254.049 92.2108 253.706 93.6919L253.703 93.7047L252.592 98.427C252.159 99.7486 251.478 102 250.563 105.108C249.57 108.484 248.387 112.728 247.013 117.828C245.731 122.589 244.286 125.794 242.868 127.78C241.808 129.265 239.333 131.209 234.429 133.207C229.914 135.047 224.679 136.023 218.633 136.023H216.582C210.58 136.023 204.136 135.296 197.237 133.804L197.17 133.79L197.103 133.777C189.155 132.263 184.175 130.303 181.466 128.307C178.415 126.059 176.169 123.399 174.626 120.314L174.601 120.263L174.574 120.212C172.982 117.188 171.879 113.557 171.359 109.228L171.358 109.214L171.356 109.201C171.195 107.911 171.105 106.386 171.105 104.609C171.105 99.6979 171.899 93.6972 173.594 86.541L173.609 86.4765L173.623 86.4117C175.745 76.3804 177.747 68.3883 179.621 62.3783C181.742 56.21 184.156 49.5497 186.863 42.3956C189.59 35.1868 191.656 30.2369 193.083 27.3815C194.419 24.7112 195.823 22.7231 197.233 21.2887L203.49 15.6571L203.873 15.0821C204.714 13.8201 205.439 12.6311 205.974 11.5612L206.555 10.3999V9.10156C206.555 4.97695 203.837 2.04013 201.315 0.149364C198.773 -2.12011 195.772 -4.08354 192.382 -5.77872C188.973 -7.48324 185.596 -8.79884 182.257 -9.68929L182.089 -9.73409L181.918 -9.76819C179.702 -10.2115 177.574 -10.4609 175.566 -10.4609H173.498L172.908 -10.33C170.541 -9.80379 167.566 -8.6164 164.197 -7.03325C161.104 -5.65779 158.667 -4.50876 157.021 -3.61813C155.63 -3.19351 154.077 -2.63478 152.382 -1.96206L142.611 0.91193L134.817 3.38602C135.623 1.14056 136.436 -1.09328 137.297 -3.30183C139.568 -9.1286 142.028 -14.3844 145.103 -18.4852L145.329 -18.7857L145.511 -19.1141C145.988 -19.9733 146.345 -20.5953 146.591 -21.0062C146.627 -21.0651 146.658 -21.1162 146.685 -21.1604L147.961 -22.4367V-24.7148C147.961 -25.7753 147.799 -27.0234 147.593 -28.2558C147.094 -31.2501 145.127 -33.5444 143.291 -35.178C141.311 -37.1267 138.883 -38.8243 136.127 -40.3213C133.344 -42.0228 130.372 -43.5015 127.218 -44.7629L127.068 -44.8229L126.915 -44.874C123.949 -45.8627 121.543 -46.5999 119.771 -47.0428L119.644 -47.0746L119.516 -47.1002C118.394 -47.3247 117.206 -47.5 116.094 -47.5C115.242 -47.5 114.27 -47.4331 113.295 -47.1893C112.481 -46.9859 111.371 -46.586 110.341 -45.7389C108.981 -44.7336 108.026 -43.4367 107.366 -42.1159L107.191 -41.7663L107.067 -41.3955C106.643 -40.1228 106.492 -38.8286 106.492 -37.6055V-37.3125C106.492 -36.422 106.669 -35.1568 106.849 -33.986C107.055 -32.6449 107.358 -30.8802 107.753 -28.7114L107.768 -28.6269L107.786 -28.5429C108.93 -23.2062 109.422 -19.3525 109.422 -16.8047C109.422 -11.8672 108.125 -6.77428 106.298 -1.11866C105.833 0.319698 105.323 1.82203 104.798 3.36785C103.686 6.64351 102.507 10.1145 101.553 13.5856L96.2185 15.3002L96.1917 15.3091C96.1968 15.3075 96.1682 15.3169 96.0916 15.3395C96.0154 15.362 95.9123 15.3915 95.7783 15.4287C95.5095 15.5032 95.1518 15.5987 94.6976 15.7167C93.7904 15.9523 92.5527 16.2634 90.9754 16.6516C87.8239 17.4274 83.3735 18.4975 77.6169 19.8634L77.5741 19.8736L77.5315 19.8844C71.7855 21.3453 67.346 22.4305 64.1912 23.1475C62.6099 23.5069 61.3926 23.7643 60.5147 23.9289C59.9623 24.0325 59.655 24.077 59.5243 24.096C59.4716 24.1036 59.4476 24.1071 59.4477 24.1086C59.4477 24.109 59.449 24.1092 59.4513 24.1094H58.7805L58.0398 24.321C57.2072 24.5589 53.7502 25.0985 46.8964 25.9049L46.8419 25.9113L38.069 27.1213L37.8499 27.17C35.8412 27.6164 33.1392 28.5162 31.3259 30.7429C30.0058 32.2635 29.7344 34.0231 29.7344 35.1758C29.7344 37.7505 31.1495 39.6581 32.1634 40.7492C33.6414 42.7271 35.8588 44.3319 38.1311 45.6736C40.5441 47.331 43.4679 48.7516 46.7798 49.9936C49.9821 51.1944 53.12 52.1016 55.7422 52.1016C58.7081 52.1016 62.3441 50.8997 66.0796 49.3268L66.1296 49.3058L66.1791 49.2838C69.3511 47.874 73.655 46.3957 79.1775 44.8723L79.2704 44.8466L94.7753 39.9788L90.0746 54.8231C87.409 62.4316 84.4632 69.7465 81.2387 76.7694C77.8618 83.7032 73.6181 90.9715 68.4869 98.5755C63.2881 106.084 58.4088 112.585 53.8488 118.095L53.8197 118.13L53.7912 118.166C49.2617 123.828 44.1483 129.417 38.443 134.932C32.7548 140.431 27.9315 144.598 23.9494 147.511L19.2306 150.46L19.0437 150.6C18.0742 151.327 17.0858 152.182 16.2912 153.176C15.5577 154.092 14.5 155.735 14.5 157.93C14.5 159.271 14.842 160.498 15.3736 161.561L15.5954 162.005L15.893 162.402C17.5176 164.568 19.929 165.773 22.6367 165.773C23.8451 165.773 25.0175 165.57 26.1338 165.198L26.3387 165.13L34.1147 161.84L34.1355 161.831C40.2454 159.301 47.2082 155.385 54.9844 150.201L55.012 150.183L55.0394 150.164C62.666 144.946 69.4434 139.492 75.3498 133.793C81.5701 127.981 87.3876 120.814 92.8296 112.362C98.489 104.264 103.607 95.1145 108.199 84.9385C112.898 74.9508 116.302 67.0579 118.344 61.342L118.373 61.2591L118.4 61.1752C120.181 55.6346 121.958 49.71 123.732 43.4032L127.618 29.5594L155.334 20.7648L155.411 20.7381C157.882 19.8732 159.668 19.3988 160.882 19.1713C160.818 19.6394 160.726 20.0749 160.61 20.4812L160.585 20.5693L160.563 20.6582C160.229 21.9914 158.937 26.1658 156.565 33.479C154.185 40.8191 151.814 49.0202 149.451 58.0751C147.096 66.7144 145.393 74.0955 144.375 80.1799C142.764 88.2589 141.941 95.9186 141.941 103.145C141.941 105.809 142.043 108.39 142.25 110.884C142.867 119.886 144.624 127.717 147.728 134.176C150.58 140.513 154.712 146.237 160.039 151.35C165.771 156.853 174.369 161.277 185.253 164.905L185.309 164.924L185.366 164.942C194.209 167.679 204.249 168.996 215.41 168.996C218.625 168.996 221.929 168.896 225.323 168.698C232.019 168.491 238.8 167.78 245.663 166.569L245.756 166.552L245.848 166.533C252.512 165.119 258.633 163.39 264.195 161.329L264.313 161.286L264.428 161.237C269.901 158.922 274.471 156.011 277.735 152.309C280.572 149.443 283.312 145.764 283.312 141.523V140.334L283.182 139.744C282.472 136.553 280.31 133.55 277.853 130.871C276.222 128.901 274.963 127.002 274.032 125.178C273.321 123.397 272.459 120.078 271.527 114.882C270.753 109.252 270.422 105.733 270.422 104.023V103.701L269.243 93.6816C269.19 92.2072 268.813 90.5325 267.743 89.0042C266.544 87.2919 264.864 86.3169 263.21 85.8444L262.47 85.6328H261.406C258.137 85.6328 256.233 87.8544 255.404 89.2024Z" fill="black"/>
</svg>
