<svg width="350" height="350" viewBox="0 0 350 350" fill="none" xmlns="http://www.w3.org/2000/svg">
<path d="M81.2543 164.456C71.3799 167.225 63.9741 169.163 59.0369 170.271L37.4928 176.085C24.4765 179.407 14.1533 182.453 6.52305 185.221C-1.10716 187.99 -6.26878 189.374 -8.9618 189.374H-11.6548C-14.7967 189.374 -17.7141 188.82 -20.4071 187.713L-35.892 176.915C-43.0733 171.932 -47.1129 167.779 -48.0105 164.456C-48.9082 162.795 -49.357 161.134 -49.357 159.473C-49.357 158.365 -49.1326 157.258 -48.6838 156.151C-48.235 154.489 -45.7664 153.659 -41.278 153.659H-36.5652C-32.9745 153.659 -28.7106 153.382 -23.7734 152.828C-16.592 152.275 -11.6548 151.721 -8.9618 151.167L81.2543 134.555V104.654C81.2543 95.7945 81.0299 88.5961 80.581 83.0588C79.6834 74.1992 77.6636 65.8933 74.5217 58.1412C71.3799 50.389 69.5845 45.1286 69.1357 42.36C68.6869 41.2525 68.4625 40.1451 68.4625 39.0376C68.4625 37.3765 68.9113 35.9922 69.809 34.8847C70.7066 33.7773 72.502 33.2235 75.195 33.2235H78.5613C83.0496 33.2235 90.0066 34.8847 99.4321 38.2071C108.858 41.5294 115.59 45.1286 119.63 49.0047C123.669 52.8808 125.689 55.9263 125.689 58.1412V59.8024C125.689 62.0173 125.24 64.7859 124.343 68.1082C122.547 73.0918 121.425 77.7984 120.976 82.2282C120.079 87.2118 118.957 94.6871 117.61 104.654C116.712 115.175 116.263 124.588 116.263 132.894L113.57 241.701L137.808 235.056C138.705 234.503 139.603 234.226 140.501 234.226C142.745 234.226 144.316 235.333 145.213 237.548C145.662 238.656 145.887 239.486 145.887 240.04C145.887 242.255 144.54 244.193 141.847 245.854L49.6113 300.673L24.7009 315.624C14.8265 321.161 6.74747 326.144 0.463763 330.574C-5.81994 335.004 -10.5327 338.049 -13.6746 339.711C-16.8164 341.925 -20.1827 344.694 -23.7734 348.016C-28.2617 350.785 -31.4036 352.169 -33.1989 352.169C-34.0966 352.723 -34.9943 353 -35.892 353C-38.1361 353 -40.3803 352.169 -42.6245 350.508C-46.2152 348.293 -50.928 344.417 -56.7628 338.88L-70.9012 325.591C-74.043 322.268 -76.5116 318.392 -78.307 313.962C-80.1023 310.64 -81 308.148 -81 306.487C-81 305.38 -80.7756 304.549 -80.3267 303.995C-79.4291 301.78 -77.6337 300.673 -74.9407 300.673C-71.7989 299.565 -67.0861 299.012 -60.8024 299.012C-54.0698 299.012 -48.9082 298.458 -45.3175 297.351C-41.278 296.243 -33.1989 293.475 -21.0804 289.045L3.83003 280.739C4.27887 280.739 10.787 278.524 23.3544 274.094L83.9473 252.499L81.2543 164.456ZM225.331 120.435L308.141 93.8565L324.972 88.8729C332.154 86.1043 337.091 84.72 339.784 84.72C343.375 84.72 348.761 86.1043 355.942 88.8729C362.226 91.6416 367.612 94.6871 372.1 98.0094C376.588 102.439 378.833 106.038 378.833 108.807C378.833 111.576 377.711 114.344 375.466 117.113C373.222 118.774 369.183 120.712 363.348 122.927L346.516 127.911L303.428 135.386L279.191 141.2C272.458 142.861 265.95 143.692 259.667 143.692H254.954C248.67 143.692 242.611 143.138 236.776 142.031L223.984 139.539L222.638 171.101V196.019C223.535 203.771 226.004 211.8 230.043 220.106C234.083 228.412 239.918 234.226 247.548 237.548C255.178 241.424 265.277 243.639 277.845 244.193H317.567C333.276 243.639 345.619 241.701 354.596 238.379C364.47 234.503 371.202 229.796 374.793 224.259C378.833 218.722 382.423 210.969 385.565 201.002C388.258 191.035 390.054 183.006 390.951 176.915L394.991 153.659C395.44 150.89 397.011 149.229 399.704 148.675H400.377C402.172 148.675 403.519 150.336 404.416 153.659L407.109 171.101C408.905 182.729 410.7 191.589 412.495 197.68C414.291 203.771 416.535 209.862 419.228 215.953L425.96 229.242C428.653 233.672 430 237.548 430 240.871C430 243.639 429.551 246.408 428.653 249.176C426.858 253.606 423.043 258.59 417.208 264.127C410.924 269.664 401.723 274.925 389.605 279.908C377.935 284.892 364.694 288.768 349.883 291.536C337.764 293.751 324.075 294.859 308.814 294.859H299.389C274.254 294.305 254.954 290.706 241.489 284.061C227.126 277.416 216.578 268.834 209.846 258.313C202.664 247.792 197.952 235.333 195.708 220.936C193.912 206.54 193.014 190.758 193.014 173.593V86.3812C193.014 79.7365 192.566 70.3231 191.668 58.1412C191.219 45.9592 190.77 37.6533 190.321 33.2235L184.935 14.12C184.487 10.7976 184.262 8.30588 184.262 6.64471C184.262 4.4298 184.487 3.04549 184.935 2.49176C186.282 0.830588 189.424 0 194.361 0C199.747 1.10745 206.255 3.59922 213.885 7.47529C221.516 11.3514 227.799 15.2275 232.736 19.1035C237.225 22.9796 239.693 26.5788 240.142 29.9012C240.591 31.0086 240.816 32.3929 240.816 34.0541C240.816 35.1616 240.591 36.5459 240.142 38.2071L236.103 46.5129C234.307 50.9427 232.736 58.1412 231.39 68.1082L225.331 120.435Z" fill="black"/>
</svg>
