<svg width="350" height="350" viewBox="0 0 350 350" fill="none" xmlns="http://www.w3.org/2000/svg">
<path d="M1.18738 219.196C4.37966 221.43 7.99128 223.467 11.9971 225.32C15.9572 227.29 19.9289 228.449 23.8301 228.449C25.6055 228.449 28.9342 227.879 33.1603 227.034L33.1938 227.027L33.2273 227.02C37.2185 226.165 43.4205 225.009 51.8812 223.55L63.192 221.81C67.8527 221.229 76.8687 220.211 90.2769 218.753L90.2883 218.752L123.616 215.244C129.612 214.745 138.137 214.243 149.218 213.738L147.15 297.946V314.707C147.15 325.4 148.025 333.964 150.044 340.019C150.988 342.85 152.078 345.361 153.407 347.303C154.67 349.149 156.716 351.297 159.793 351.737L160.145 351.787H160.939C164.303 351.787 166.559 349.401 167.743 347.879C169.124 346.103 170.408 343.72 171.637 340.962C174.586 334.709 176.855 325.352 178.622 313.293C179.644 307.307 180.415 302.647 180.931 299.326C181.19 297.662 181.389 296.31 181.524 295.284C181.631 294.48 181.737 293.605 181.757 292.938L186.746 211.581L254.194 209.113C257.238 209.116 269.465 209.262 290.95 209.552L290.959 209.552L335.511 209.989C337.926 210.281 340.235 210.432 342.434 210.432C346.572 210.432 350.344 209.961 353.627 208.875C357.967 207.53 362.315 204.967 363.544 200.053L363.693 199.455V197.961C363.693 194.46 361.768 191.133 359.564 188.299L359.454 188.158L359.334 188.024C355.85 184.154 349.153 180.592 340.431 177.097C332.023 173.33 325.856 170.839 322.216 169.846L322.165 169.832L322.113 169.819C318.29 168.864 314.654 168.352 311.232 168.352C308.77 168.352 304.975 169.103 300.352 170.259C295.804 171.396 291.58 172.238 287.674 172.796C283.7 173.364 275.914 174.231 264.218 175.401L234.429 177.592L234.401 177.594L187.946 180.743L188.322 121.498L211.436 119.664C218.967 119.061 227.631 117.863 237.406 116.086C247.337 114.334 254.423 113.352 258.81 113.078L258.965 113.068L259.118 113.049C263.992 112.44 268.176 111.476 271.281 109.923C272.581 109.273 273.766 108.601 274.769 107.899C275.707 107.242 276.803 106.343 277.6 105.148L278.439 103.889V101.496C278.439 99.2078 277.358 97.2812 276.409 95.9532C275.383 94.5155 273.992 93.069 272.39 91.6273L272.12 91.3847L271.818 91.1835C268.035 88.6612 263.955 86.4671 259.589 84.5957L259.398 84.5138L259.2 84.448C254.691 82.9449 250.575 81.9614 246.909 81.6001C245.215 81.2781 243.51 81.1152 241.799 81.1152C238.134 81.1152 234.243 81.6133 230.148 82.557L230.128 82.5616L210.579 86.9055L189.367 89.9359C190.121 82.2321 190.714 77.1949 191.323 72.1516C191.386 71.6314 191.449 71.111 191.512 70.5875L191.512 70.5859C192.221 64.7326 192.976 58.4903 194.04 47.8569L194.052 47.7332L194.058 47.6091C194.321 42.3483 195.49 38.173 197.361 34.8987L197.43 34.7782L197.492 34.654C199.562 30.5133 201.096 26.5144 201.096 23.1895C201.096 20.671 200.008 18.5383 198.682 16.8799C197.389 15.2639 195.658 13.8232 193.711 12.5146C189.694 9.52613 184.574 7.01211 178.515 4.88336C172.35 2.42613 166.377 0.842957 160.613 0.202456L160.337 0.171875H160.061C157.695 0.171875 155.528 0.324728 153.702 0.730393C152.088 1.08913 149.703 1.86019 148.15 3.92969L147.88 4.29037L147.678 4.69362C146.787 6.47693 146.271 8.40962 146.271 10.4453C146.271 11.7496 146.623 13.3054 146.985 14.6841C147.39 16.2224 147.977 18.1301 148.725 20.3761C149.942 24.0247 150.666 29.5556 150.666 37.252V37.2694L151.074 95.6999L119.555 99.1594C107.574 100.328 96.3288 101.35 85.8172 102.226L85.7985 102.228L76.1288 103.107C72.4492 103.416 68.0904 104.564 65.8441 108.302C65.1688 109.176 64.5332 110.432 64.5332 112.043C64.5332 114.388 65.7696 116.218 66.6522 117.297C67.635 118.498 68.9302 119.663 70.3699 120.786C74.0652 123.799 78.0711 125.923 82.383 127.001L82.4271 127.012L82.4714 127.022C86.6157 127.979 91.2979 128.594 96.4857 128.9L96.6324 128.908H100.295C105.783 128.908 113.559 128.454 123.54 127.575L149.787 125.752V182.901L136.442 184.269L136.052 184.425C135.998 184.436 135.921 184.45 135.817 184.469C135.766 184.478 135.708 184.487 135.643 184.498C135.121 184.583 134.361 184.688 133.336 184.813C131.295 185.061 128.371 185.368 124.54 185.732C116.888 186.461 105.748 187.411 91.1071 188.582C61.8062 190.926 41.4232 192.234 29.8575 192.523C18.0843 192.817 11.7364 192.961 10.6465 192.961H10.4545L-1.46382 193.878L-1.75988 193.937C-5.39633 194.664 -9.09633 196.383 -10.9643 200.119L-11.4922 201.175V203.674C-11.4922 207.134 -9.47338 209.961 -7.391 212.043C-4.82584 214.609 -1.96239 216.991 1.18738 219.196Z" fill="black"/>
</svg>
