<svg width="350" height="350" viewBox="0 0 350 350" fill="none" xmlns="http://www.w3.org/2000/svg">
<path fill-rule="evenodd" clip-rule="evenodd" d="M91.4896 268.483C103.693 253.071 119.444 231.501 124.947 213.899L124.961 213.854L126.066 210.54L96.2153 214.667L80.4138 217.907L67.0427 219.527C64.2616 220.055 61.9626 220.46 60.1641 220.737C58.4391 221.002 56.873 221.199 55.7671 221.199C52.0496 221.199 47.7971 219.938 43.2569 217.953C38.5649 215.901 34.3799 213.374 30.7451 210.346L30.6838 210.295L30.6242 210.242C29.2519 209.023 28.0251 207.748 27.1071 206.423C26.2322 205.16 25.3082 203.379 25.3082 201.253C25.3082 200.235 25.5083 198.86 26.3202 197.575C28.2096 193.514 32.7943 192.495 35.9548 192.231L36.0488 192.224L44.9727 191.818C68.2204 190.196 81.9156 189.001 86.466 188.243L86.5716 188.225L132.048 182.636C133.169 172.671 134.866 159.483 136.336 148.061C136.679 145.391 137.01 142.818 137.319 140.405L114.358 142.317L114.342 142.319C107.327 142.858 101.642 143.264 97.2981 143.535L97.1423 143.545H96.9863C92.855 143.545 88.8401 143.102 84.9515 142.205L84.7201 142.152L84.4948 142.077C81.1498 140.962 78.165 139.829 75.5591 138.671L75.4553 138.625L75.3537 138.574C72.6485 137.222 70.3177 135.39 68.6587 132.953C67.6188 131.543 66.5274 129.575 66.5274 127.235C66.5274 126.152 66.7539 124.664 67.7027 123.312C68.1869 122.49 68.7983 121.903 69.2978 121.51C70.0119 120.949 70.775 120.567 71.4235 120.297C72.7159 119.758 74.2656 119.379 75.8868 119.084L76.084 119.048L76.2835 119.028C79.0326 118.753 83.7922 118.346 90.5261 117.808C97.1084 117.281 102.971 116.496 108.129 115.465L108.265 115.438L138.024 111.188L137.652 57.7407L136.865 46.3402C136.338 42.3943 135.68 37.7947 134.892 32.5383C133.9 27.3331 133.147 23.5611 132.63 21.1845L127.761 10.6387L127.645 10.0597C127.328 8.47356 127.144 6.92515 127.144 5.4433C127.144 4.11198 127.362 2.61539 128.076 1.18677L128.162 1.01498L128.261 0.850311C129.463 -1.1523 131.356 -2.25188 133.016 -2.87402C134.701 -3.50567 136.629 -3.8314 138.63 -3.98529L138.822 -4H139.014C142.8 -4 149.127 -2.56083 157.36 -0.172272C165.883 2.22437 172.177 4.39503 175.531 6.40649L175.681 6.49692L175.825 6.59772C178.657 8.57907 181.708 11.3552 182.336 15.1233L182.404 15.5316V16.7535C182.404 18.8736 181.811 21.4828 180.981 24.2498L180.889 24.5538L180.761 24.8439C178.725 29.4215 177.554 33.2722 177.1 36.4458L177.076 36.6172L177.04 36.7865C176.326 40.1144 175.798 45.4135 175.531 52.8823L175.531 52.8975L173.373 104.479L190.364 100.966L203.197 97.3578L203.267 97.3401C205.557 96.7679 208.228 96.2075 211.263 95.6558C214.316 95.1011 216.957 94.7673 219.027 94.7673H219.339L219.647 94.8059C222.349 95.1435 225.72 96.0973 229.599 97.4821C233.526 98.8838 236.897 100.336 239.64 101.859C242.372 103.376 244.744 105.167 246.572 107.308C248.357 109.164 249.486 111.543 249.486 114.309C249.486 115.728 248.943 116.963 248.631 117.603C247.151 121.003 243.686 122.61 240.879 123.478C237.597 124.749 232.351 125.86 225.556 126.909L205.354 130.947L172.358 136.078C172.189 136.628 171.95 137.24 171.595 137.822C171.328 138.259 170.946 138.749 170.439 139.19C170.383 139.713 170.326 140.353 170.267 141.136C170.129 142.978 169.977 145.091 169.813 147.389C169.13 156.927 168.22 169.644 167.068 179.366L204.765 174.872L204.835 174.865C210.602 174.341 217.478 173.418 225.48 172.085C233.486 170.752 240.08 169.43 245.295 168.127C250.648 166.789 254.974 165.958 257.822 165.958C261.104 165.958 265.39 166.998 270.313 168.638L270.355 168.652L270.396 168.667C275.054 170.31 278.973 171.845 282.116 173.273C285.477 174.8 288.886 176.889 292.342 179.48C294.129 180.82 295.707 182.22 296.883 183.688C298.003 185.088 299.192 187.091 299.192 189.539V190.503L298.834 191.397C297.712 194.201 295.434 196.146 293.035 197.516C290.245 199.11 287.072 199.784 283.732 199.79L261.213 200.192C249.432 200.728 238.994 201.263 229.895 201.798L192.344 205.026L175.339 206.24C183.279 213.865 191.079 221.607 198.843 229.313C199.39 229.856 199.937 230.399 200.484 230.942C211.475 241.85 222.415 252.67 233.71 263.093C244.356 272.669 253.988 280.308 262.615 286.057C271.341 291.872 282.113 298.256 294.956 305.21C307.863 312.198 317.376 316.943 323.594 319.532L343.15 327.677L353.002 332.602C354.315 333.258 355.653 334.08 356.727 335.154C357.81 336.237 359 337.972 359 340.306C359 342.47 358.489 345.746 355.56 347.698C353.893 348.809 351.871 349.365 349.972 349.681L349.905 349.692L335.244 351.727L335.198 351.733C321.952 353.322 313.169 354.177 309.249 354.192L289.038 355H281.26C276.648 355 273.019 354.868 270.538 354.557L270.283 354.526L270.034 354.468C265.933 353.522 261.93 351.81 258.031 349.412C253.748 346.777 247.744 340.632 240.27 331.827L240.263 331.819L220.453 308.38C214.691 301.523 208.944 294 203.213 285.815C197.037 276.996 190.367 268.219 183.596 259.31C181.324 256.32 179.04 253.315 176.76 250.288C169.762 240.999 162.833 231.553 156.56 221.923C149.987 237.49 142.027 252.455 132.689 266.703L132.656 266.752L132.622 266.801C127.109 274.792 121.046 282.369 114.435 289.532C108.036 296.757 100.565 303.801 92.0421 310.672L92.012 310.696L91.9815 310.72C83.1963 317.58 74.7579 323.257 66.668 327.719L66.6093 327.751L66.5498 327.782C58.5366 331.925 50.3736 335.385 42.0618 338.159C33.9565 341.128 27.0848 343.332 21.4866 344.735L11.1118 347.639L4.37282 348.537H2.42466C1.0114 348.537 -0.448357 348.17 -1.76237 347.294C-3.04519 346.439 -3.90555 345.29 -4.47175 344.158L-5 343.102V341.113C-5 336.955 -1.80582 334.93 0.459879 334.082L6.3377 331.144L6.87001 331.011C6.84308 331.018 6.82842 331.021 6.82842 331.021C6.8264 331.015 7.18319 330.884 8.05633 330.393C8.98069 329.873 10.2119 329.108 11.7753 328.066L11.9525 327.948L28.323 318.948L28.3426 318.938C35.1068 315.297 42.7334 310.441 51.2333 304.334C59.7444 298.219 67.2905 292.262 73.8826 286.463C80.4204 280.713 86.2866 274.718 91.4896 268.483ZM74.1113 37.7151C73.1363 37.4007 71.9887 37.1311 70.792 37.1311C67.9543 37.1311 65.4611 38.3777 63.7584 40.6479L63.6752 40.7589L63.5982 40.8744C62.6571 42.2859 62 43.9931 62 45.9231C62 47.7171 62.5678 49.3186 63.4037 50.6691L66.785 57.4317L66.8838 57.5963C67.6985 58.9541 70.9243 63.9838 76.4535 72.5289L76.5002 72.601L76.5494 72.6716C82.2826 80.8974 86.5928 86.6776 89.3721 89.7577C92.9356 94.1117 97.3495 97.5645 102.645 97.5645H103.024C108.049 97.5645 111.98 94.9263 114.712 90.8717C117.486 87.0124 118.642 82.2478 118.642 77.0173C118.642 72.449 117.927 68.1633 116.413 64.2256L116.388 64.1613L116.361 64.0975C114.792 60.3301 112.332 56.9891 109.129 54.0576C105.761 50.7205 101.024 47.7949 95.2341 45.1632C89.53 42.5705 84.3736 40.5792 79.7869 39.2302L79.7259 39.2123L74.1113 37.7151ZM197.252 80.7018L190.442 82.4939C189.775 82.7892 188.746 83.1549 187.587 83.1549C184.974 83.1549 183.003 81.8006 181.764 80.1234C180.577 78.6905 180.312 77.0382 180.312 75.8798C180.312 73.0243 182.086 70.8969 183.293 69.6898L183.444 69.5386L190.921 63.2428L191.033 63.1581C192.668 61.9319 196.053 58.7037 201.413 53.0882L201.454 53.0461L201.495 53.0051C206.817 47.6829 210.147 44.0929 211.701 42.095L211.79 41.9809L211.885 41.8721C213.516 40.0087 215.693 37.2344 218.442 33.4863C221.046 29.9352 222.629 26.9916 223.418 24.6236C223.94 23.0594 224.417 21.7253 224.846 20.6506C225.236 19.6765 225.712 18.5901 226.277 17.7433L226.551 17.3313L226.901 16.9812C228.03 15.8528 229.429 14.824 231.131 14.2566L231.901 14H233.47C235.538 14 237.55 14.7117 239.304 15.5694C243.277 17.1698 247.012 19.0409 250.501 21.188C254.05 23.3724 257.674 26.0638 261.373 29.234L261.443 29.2939L261.51 29.3563C264.75 32.3471 267.335 35.0225 269.117 37.3423C271.059 39.3698 272.599 41.9933 272.599 45.1647C272.599 48.7767 270.48 51.5559 268.198 53.5114L267.969 53.7079L267.718 53.8753C266.509 54.6815 264.969 55.0912 263.909 55.3406C262.693 55.6267 261.2 55.8914 259.477 56.1425C256.971 56.7975 253.624 58.1216 249.358 60.2544L249.256 60.3052L249.152 60.3513C244.52 62.4101 238.388 64.9644 230.777 68.0086C223.22 71.0313 216.639 73.5637 211.042 75.6013C205.69 77.8908 201.095 79.604 197.303 80.6874L197.252 80.7018Z" fill="black"/>
</svg>
