<svg width="350" height="350" viewBox="0 0 350 350" fill="none" xmlns="http://www.w3.org/2000/svg">
<path fill-rule="evenodd" clip-rule="evenodd" d="M92.5413 214.967C113.587 198.823 133.5 181.752 149.437 160.356C152.06 157.249 155.09 152.907 158.515 147.42L165.557 152.061C187.689 167.557 209.302 183.498 231.006 199.507L234.085 201.779C240.99 206.876 247.447 212.028 253.987 217.244C258.691 220.997 263.438 224.784 268.424 228.609L268.515 228.678L268.608 228.743C272.552 231.493 276.925 233.415 281.687 234.514C284.88 235.361 288.548 235.736 292.601 235.736C295.394 235.736 298.186 235.611 300.977 235.363C308.776 234.871 318.238 233.775 329.334 232.094C329.496 232.07 329.681 232.042 329.886 232.012L330.185 231.968C332.885 231.568 338.451 230.743 343.689 229.517C346.604 228.835 349.652 227.976 352.14 226.904C353.376 226.37 354.675 225.7 355.793 224.842C356.842 224.036 358.272 222.652 358.831 220.547L358.998 219.917V218.906C358.998 215.409 356.364 213.6 354.906 212.889C353.396 212.151 351.573 211.738 349.759 211.474L341.821 209.695L341.686 209.672C336.186 208.752 329.498 207.24 321.598 205.115C313.73 202.999 305.277 200.406 296.237 197.333C287.649 194.285 278.469 190.524 268.693 186.04C258.957 181.574 250.39 177.132 242.978 172.717L211.04 151.956L211.007 151.935C207.873 149.968 201.718 146.348 192.626 141.116C184.802 136.314 178.952 131.577 174.115 127.518C173.549 127.043 172.987 126.569 172.429 126.097C168.434 122.722 164.653 119.528 161.022 117.687C158.799 116.561 156.361 115.78 153.669 115.758C150.956 115.737 148.364 116.488 145.841 117.848C141.038 120.436 136.007 125.509 129.941 132.93L129.661 133.273L129.446 133.659C127.067 137.925 119.103 148.348 109.04 159.859C99.052 171.283 87.486 183.22 78.1614 190.574C50.5173 212.378 36.503 220.793 25.1862 227.588C20.5554 230.368 16.3762 232.878 11.8997 235.922L11.6937 236.062L11.5027 236.222C10.7285 236.87 9.93202 237.652 9.29725 238.581C8.66966 239.5 7.99805 240.865 7.99805 242.566C7.99805 244.633 8.96546 246.655 10.9112 247.876C12.467 248.853 14.1598 249 15.2827 249C21.2603 249 28.1156 247.383 35.0366 245.02C42.0245 242.634 49.406 239.372 56.5339 235.83C70.7891 228.746 84.3488 220.382 92.2496 215.175L92.3992 215.076L92.5413 214.967ZM17.7284 243.902C17.7913 243.897 17.8543 243.892 17.9174 243.887L17.9214 243.887C17.8569 243.892 17.7926 243.897 17.7284 243.902ZM27.5334 232.019C27.5334 232.019 27.5334 232.019 27.5334 232.019Z" fill="black"/>
<path d="M136.043 195.447L125.134 196.356L124.74 196.454C123.273 196.821 121.751 197.365 120.433 198.243C119.069 199.152 117.68 200.599 117.147 202.729L116.998 203.326V204.381C116.998 207.771 119.103 210.216 121.033 211.769C123.471 213.789 126.758 215.339 130.524 216.595C146.06 221.774 157.644 219.592 170.068 217.252C173.804 216.549 177.615 215.831 181.633 215.295C186.512 214.684 190.907 213.757 194.776 212.477C197.012 211.831 199.141 210.988 200.817 209.79C202.55 208.553 204.449 206.422 204.449 203.305C204.449 199.623 202.52 196.789 199.811 194.903C197.411 192.969 193.793 191.175 189.441 189.434C185.16 187.722 182.022 186.543 180.447 186.149L179.85 186H179.234C177.667 186 175.671 186.313 173.497 186.763C171.233 187.231 168.45 187.92 165.175 188.813L165.146 188.821L165.117 188.829C162.364 189.616 160.06 190.305 158.02 190.915C150.234 193.243 146.303 194.418 136.043 195.447Z" fill="black"/>
<path d="M220.512 301.33L220.199 301.707L219.964 302.137C218.821 304.233 217.899 304.691 217.394 304.805H216.443C215.399 304.805 213.355 304.383 210.017 302.992L210.007 302.988L209.997 302.984C207.499 301.955 205.558 301.171 204.193 300.64C203.516 300.377 202.941 300.16 202.495 300.004C202.321 299.943 202.133 299.88 201.945 299.822L197.386 297.542C195.916 296.626 194.193 296.016 192.273 296.016C190.158 296.016 188.126 296.774 186.541 298.359C184.979 299.92 184.637 301.856 184.637 303.213C184.637 305.302 185.603 307.056 186.355 308.184L186.476 308.364L193.543 317.198C195.556 320.073 197.157 322.329 198.337 323.951C199.081 324.974 199.8 325.949 200.385 326.661L204.061 334.013C206.086 338.064 207.459 341.103 208.246 343.201C208.719 344.461 209.19 345.59 209.664 346.538C210.084 347.377 210.704 348.49 211.589 349.375C213.572 351.358 216.105 352.158 218.641 352.158C221.353 352.158 224.402 351.293 227.529 350.043L227.552 350.033L227.576 350.024C233.17 347.72 238.007 344.405 242.022 340.076C246.247 335.833 249.411 331.029 251.428 325.674C253.303 320.977 254.837 315.73 256.053 309.956C256.345 308.57 256.709 306.807 257.128 304.778L257.129 304.771L257.129 304.77C259.288 294.317 262.908 276.791 265.636 267.243C266.711 263.478 267.992 260.622 269.383 258.535L269.449 258.436L269.51 258.334C270.415 256.827 271.149 255.529 271.672 254.482C271.932 253.963 272.181 253.424 272.376 252.903C272.512 252.54 272.859 251.598 272.859 250.488V249.609C272.859 245.902 271.042 242.608 268.638 239.831C265.916 236.391 261.238 233.098 255.328 229.847C249.585 226.689 245.188 224.34 242.171 222.825C239.13 220.974 235.801 220 232.264 220H231.769L231.283 220.097C229.51 220.452 226.817 221.255 223.396 222.392C220.018 223.233 216.204 224.08 211.947 224.931C207.814 225.758 202.31 226.47 195.374 227.048L195.291 227.055L86.747 239.748L73.4677 238.503L63.8312 236.576L62.7404 236.848C59.2847 237.712 55.8057 239.955 55.0661 244.393L54.998 244.801V246.094C54.998 248.756 56.188 251.992 57.6435 255.194L57.6818 255.278L57.7232 255.361C59.677 259.269 60.999 262.614 61.766 265.427C64.7072 276.211 65.7617 287.255 65.1182 296.265C64.8209 300.427 64.666 303.926 64.666 306.728C64.666 309.695 64.8057 312.263 65.1862 314.218C65.875 318.296 67.252 322.091 69.3336 325.561L69.5067 325.849L69.7168 326.112C71.0505 327.779 72.4762 329.257 74.0108 330.353C75.5305 331.438 77.4888 332.383 79.7734 332.383H80.2129C82.5365 332.383 84.4984 331.408 86.008 330.247C87.5081 329.093 88.8329 327.554 90.0219 325.855L90.1228 325.711L90.2132 325.561C92.1603 322.316 93.6587 319.007 94.67 315.636L94.7376 315.41L94.7838 315.18C95.1767 313.215 95.3203 310.616 95.3203 307.607V302.232L93.7378 263.47C134.056 256.73 174.364 252.945 215.211 251.533H218.201C221.655 251.533 223.459 251.943 224.208 252.274C225.291 252.924 225.942 253.704 226.35 254.655C226.853 255.829 227.264 257.85 227.264 261.035C227.264 268.662 226.936 277.288 225.832 284.898C224.687 292.797 222.836 298.542 220.512 301.33Z" fill="black"/>
<path d="M139.99 112.734V95.7129L108.35 97.9102C98.3887 98.7891 90.7715 99.2285 85.498 99.2285H81.9824C77.002 98.9355 72.6074 98.3496 68.7988 97.4707C65.2832 96.5918 61.9141 94.834 58.6914 92.1973C56.0547 90.1465 54.7363 88.5352 54.7363 87.3633C54.7363 87.0703 54.8828 86.7773 55.1758 86.4844C56.0547 84.7266 58.252 83.7012 61.7676 83.4082L71.4355 82.5293C81.9824 81.6504 93.2617 80.625 105.273 79.4531L141.309 75.498L140.869 31.5723C140.869 23.6621 140.137 17.5098 138.672 13.1152C137.207 8.7207 136.475 5.9375 136.475 4.76562C136.475 3.59375 136.768 2.42188 137.354 1.25C138.232 0.078125 140.869 -0.507812 145.264 -0.507812C150.537 0.078125 156.104 1.54297 161.963 3.88672C167.822 5.9375 172.51 8.28125 176.025 10.918C179.541 13.2617 181.299 15.459 181.299 17.5098C181.299 19.5605 180.273 22.6367 178.223 26.7383C170.403 40.4227 169.61 58.1696 168.994 71.1035L196.68 67.1484L216.455 62.7539C220.264 61.875 223.779 61.4355 227.002 61.4355C228.467 61.4355 229.932 61.582 231.396 61.875C234.619 62.168 238.428 63.0469 242.822 64.5117C246.924 66.2695 250.732 68.3203 254.248 70.6641C257.178 73.3008 258.643 75.3516 258.643 76.8164V77.6953C258.057 78.5742 256.592 79.5996 254.248 80.7715C251.904 81.9434 248.389 82.8223 243.701 83.4082C239.014 83.7012 231.689 84.7266 221.729 86.4844C212.061 88.2422 203.564 89.4141 196.24 90L168.555 92.1973L168.115 111.416L219.971 107.9L249.854 105.703C261.572 104.531 269.482 103.652 273.584 103.066C277.686 102.48 282.08 101.602 286.768 100.43C291.455 99.2578 294.678 98.6719 296.436 98.6719C299.365 98.6719 302.588 99.1113 306.104 99.9902C309.326 100.869 315.186 103.213 323.682 107.021C332.471 110.537 338.184 113.76 340.82 116.689C342.871 119.326 343.896 121.523 343.896 123.281V124.16C343.311 126.504 341.113 128.262 337.305 129.434C334.668 130.312 331.445 130.752 327.637 130.752C325.586 130.752 323.389 130.605 321.045 130.312L276.221 129.873C254.541 129.58 242.236 129.434 239.307 129.434L167.236 132.07C156.711 133.828 153.32 133.242 139.551 133.828C125.781 134.414 115.381 135 108.35 135.586C70.004 139.622 56.2865 143.4 37.3828 147.451C32.9883 148.33 30.2051 148.77 29.0332 148.77C26.1035 148.77 22.8809 147.891 19.3652 146.133C15.5566 144.375 12.1875 142.471 9.25781 140.42C6.32812 138.369 3.69141 136.172 1.34766 133.828C-0.410156 132.07 -1.28906 130.459 -1.28906 128.994V127.676C-0.410156 125.918 1.49414 124.746 4.42383 124.16L15.8496 123.281C17.0215 123.281 23.4668 123.135 35.1855 122.842C46.9043 122.549 47.4121 121.23 76.709 118.887C106.006 116.543 121.387 115.078 122.852 114.492L139.99 112.734ZM80.0098 4.9707L86.6016 6.72852C91.582 8.19336 97.2949 10.3906 103.74 13.3203C110.186 16.25 115.02 19.3262 118.242 22.5488C121.465 25.4785 123.809 28.7012 125.273 32.2168C126.738 36.0254 127.471 40.2734 127.471 44.9609C127.471 50.2344 126.299 54.4824 123.955 57.7051C121.611 61.2207 118.682 62.9785 115.166 62.9785H114.727C111.211 62.9785 107.549 60.6348 103.74 55.9473C100.811 52.7246 95.9766 46.2793 89.2383 36.6113C82.793 26.6504 79.1309 20.9375 78.252 19.4727L74.2969 11.5625C73.7109 10.6836 73.418 9.80469 73.418 8.92578C73.418 8.04688 73.7109 7.16797 74.2969 6.28906C75.1758 5.11719 76.3477 4.53125 77.8125 4.53125C78.3984 4.53125 79.1309 4.67773 80.0098 4.9707ZM181.967 54.9609C181.674 54.668 181.527 54.2285 181.527 53.6426C181.527 52.7637 182.113 51.7383 183.285 50.5664C199.166 37.1932 204.58 29.89 211.186 10.0742C212.357 6.55859 213.236 4.36133 213.822 3.48242C214.701 2.60352 215.58 2.01758 216.459 1.72461H217.338C218.51 1.72461 219.975 2.16406 221.732 3.04297C230.436 6.52433 244.82 15.5315 250.252 22.7734C252.01 24.5312 252.889 26.2891 252.889 28.0469C252.889 29.8047 251.863 31.5625 249.812 33.3203C248.934 33.9062 246.443 34.4922 242.342 35.0781C233.765 37.2224 187.057 62.5961 181.967 54.9609Z" fill="black"/>
</svg>
