<svg width="350" height="350" viewBox="0 0 350 350" fill="none" xmlns="http://www.w3.org/2000/svg">
<path d="M1.18542 219.192C4.37771 221.426 7.98932 223.463 11.9952 225.316C15.9552 227.286 19.927 228.445 23.8281 228.445C25.6036 228.445 28.9323 227.875 33.1583 227.03L33.1919 227.023L33.2254 227.016C37.2166 226.161 43.4185 225.005 51.8793 223.546L63.1901 221.806C67.8507 221.225 76.8667 220.207 90.2749 218.749L90.2864 218.748L123.614 215.24C129.61 214.741 138.135 214.239 149.216 213.734L147.148 297.943V314.703C147.148 325.396 148.023 333.96 150.042 340.015C150.986 342.847 152.076 345.357 153.405 347.299C154.668 349.145 156.714 351.293 159.791 351.733L160.143 351.783H160.938C164.301 351.783 166.557 349.397 167.741 347.875C169.122 346.099 170.406 343.716 171.635 340.958C174.584 334.705 176.853 325.348 178.62 313.289C179.642 307.303 180.413 302.643 180.929 299.322C181.188 297.658 181.387 296.306 181.523 295.28C181.629 294.476 181.735 293.601 181.755 292.935L186.744 211.577L254.192 209.109C257.236 209.112 269.463 209.258 290.948 209.548L290.957 209.548L335.509 209.985C337.924 210.277 340.233 210.428 342.432 210.428C346.57 210.428 350.342 209.957 353.625 208.871C357.965 207.526 362.313 204.963 363.542 200.049L363.691 199.451V197.957C363.691 194.456 361.766 191.13 359.562 188.296L359.452 188.154L359.332 188.02C355.848 184.15 349.151 180.588 340.429 177.093C332.021 173.326 325.854 170.835 322.214 169.842L322.163 169.828L322.111 169.815C318.288 168.86 314.652 168.348 311.23 168.348C308.768 168.348 304.973 169.099 300.35 170.255C295.802 171.392 291.578 172.234 287.672 172.792C283.698 173.36 275.912 174.227 264.216 175.397L234.427 177.588L234.399 177.59L187.944 180.739L188.32 121.494L211.434 119.66C218.965 119.057 227.629 117.859 237.404 116.082C247.335 114.33 254.421 113.348 258.808 113.074L258.963 113.065L259.116 113.045C263.99 112.436 268.174 111.472 271.279 109.919C272.579 109.269 273.764 108.597 274.767 107.895C275.705 107.238 276.801 106.339 277.598 105.145L278.438 103.885V101.492C278.438 99.2039 277.356 97.2773 276.408 95.9493C275.381 94.5116 273.99 93.065 272.388 91.6234L272.118 91.3808L271.816 91.1796C268.033 88.6573 263.953 86.4632 259.587 84.5918L259.396 84.5098L259.198 84.4441C254.689 82.941 250.573 81.9575 246.907 81.5962C245.213 81.2742 243.508 81.1113 241.797 81.1113C238.132 81.1113 234.241 81.6094 230.146 82.553L230.126 82.5577L210.577 86.9016L189.365 89.932C190.119 82.2282 190.712 77.191 191.321 72.1477C191.384 71.6275 191.447 71.1071 191.51 70.5836L191.51 70.5819C192.219 64.7287 192.974 58.4864 194.038 47.853L194.05 47.7293L194.056 47.6052C194.319 42.3444 195.488 38.1691 197.359 34.8948L197.428 34.7743L197.49 34.6501C199.56 30.5094 201.094 26.5105 201.094 23.1855C201.094 20.6671 200.006 18.5344 198.68 16.876C197.387 15.26 195.656 13.8193 193.709 12.5107C189.692 9.52223 184.572 7.0082 178.513 4.87946C172.348 2.42223 166.375 0.83905 160.611 0.19855L160.336 0.167969H160.059C157.693 0.167969 155.526 0.320821 153.701 0.726487C152.086 1.08523 149.701 1.85629 148.148 3.92578L147.878 4.28646L147.676 4.68971C146.785 6.47303 146.27 8.40571 146.27 10.4414C146.27 11.7456 146.621 13.3015 146.983 14.6802C147.388 16.2185 147.975 18.1262 148.723 20.3722C149.94 24.0208 150.664 29.5517 150.664 37.248V37.2655L151.072 95.696L119.553 99.1555C107.573 100.324 96.3269 101.346 85.8152 102.222L85.7965 102.224L76.1268 103.103C72.4473 103.412 68.0884 104.56 65.8422 108.298C65.1668 109.172 64.5312 110.428 64.5312 112.039C64.5312 114.384 65.7676 116.214 66.6502 117.293C67.633 118.494 68.9283 119.659 70.3679 120.782C74.0632 123.795 78.0691 125.919 82.3811 126.997L82.4252 127.008L82.4695 127.018C86.6137 127.975 91.296 128.59 96.4837 128.896L96.6304 128.904H100.293C105.781 128.904 113.557 128.451 123.538 127.571L149.785 125.748V182.897L136.44 184.266L136.05 184.422C135.996 184.432 135.919 184.447 135.815 184.465C135.764 184.474 135.706 184.483 135.641 184.494C135.119 184.579 134.359 184.684 133.334 184.809C131.294 185.057 128.369 185.364 124.538 185.729C116.886 186.457 105.747 187.407 91.1052 188.578C61.8042 190.923 41.4212 192.23 29.8555 192.519C18.0824 192.813 11.7345 192.957 10.6445 192.957H10.4525L-1.46577 193.874L-1.76183 193.933C-5.39828 194.66 -9.09829 196.38 -10.9663 200.115L-11.4941 201.171V203.67C-11.4941 207.13 -9.47533 209.957 -7.39296 212.039C-4.82779 214.605 -1.96434 216.987 1.18542 219.192Z" fill="black"/>
</svg>
