<svg width="350" height="350" viewBox="0 0 350 350" fill="none" xmlns="http://www.w3.org/2000/svg">
<path fill-rule="evenodd" clip-rule="evenodd" d="M92.5433 214.967C113.589 198.823 133.502 181.752 149.439 160.356C152.062 157.249 155.092 152.907 158.517 147.42L165.558 152.061C187.691 167.557 209.304 183.498 231.008 199.507L234.087 201.779C240.992 206.876 247.449 212.028 253.989 217.244C258.693 220.997 263.44 224.784 268.426 228.609L268.517 228.678L268.61 228.743C272.554 231.493 276.927 233.415 281.689 234.514C284.882 235.361 288.55 235.736 292.603 235.736C295.396 235.736 298.188 235.611 300.979 235.363C308.778 234.871 318.24 233.775 329.336 232.094C329.498 232.07 329.683 232.042 329.888 232.012L330.187 231.968C332.887 231.568 338.453 230.743 343.69 229.517C346.606 228.835 349.654 227.976 352.142 226.904C353.378 226.37 354.677 225.7 355.795 224.842C356.844 224.036 358.274 222.652 358.833 220.547L359 219.917V218.906C359 215.409 356.366 213.6 354.908 212.889C353.398 212.151 351.575 211.738 349.761 211.474L341.823 209.695L341.688 209.672C336.187 208.752 329.5 207.24 321.599 205.115C313.732 202.999 305.279 200.406 296.239 197.333C287.651 194.285 278.471 190.524 268.695 186.04C258.959 181.574 250.392 177.132 242.98 172.717L211.042 151.956L211.009 151.935C207.875 149.968 201.72 146.348 192.628 141.116C184.804 136.314 178.954 131.577 174.117 127.518C173.551 127.043 172.989 126.569 172.431 126.097C168.436 122.722 164.655 119.528 161.024 117.687C158.801 116.561 156.363 115.78 153.671 115.758C150.958 115.737 148.366 116.488 145.843 117.848C141.04 120.436 136.009 125.509 129.943 132.93L129.663 133.273L129.448 133.659C127.069 137.925 119.105 148.348 109.041 159.859C99.0539 171.283 87.4879 183.22 78.1634 190.574C50.5193 212.378 36.5049 220.793 25.1882 227.588C20.5574 230.368 16.3782 232.878 11.9017 235.922L11.6957 236.062L11.5046 236.222C10.7305 236.87 9.93398 237.652 9.2992 238.581C8.67161 239.5 8 240.865 8 242.566C8 244.633 8.96742 246.655 10.9132 247.876C12.469 248.853 14.1617 249 15.2847 249C21.2623 249 28.1175 247.383 35.0385 245.02C42.0264 242.634 49.408 239.372 56.5358 235.83C70.791 228.746 84.3508 220.382 92.2515 215.175L92.4011 215.076L92.5433 214.967ZM17.7303 243.902C17.7932 243.897 17.8562 243.892 17.9194 243.887L17.9234 243.887C17.8589 243.892 17.7945 243.897 17.7303 243.902ZM27.5354 232.019C27.5353 232.019 27.5354 232.019 27.5354 232.019Z" fill="black"/>
<path d="M136.045 195.447L125.136 196.356L124.742 196.454C123.275 196.821 121.753 197.365 120.435 198.243C119.071 199.152 117.682 200.599 117.149 202.729L117 203.326V204.381C117 207.771 119.105 210.216 121.035 211.769C123.473 213.789 126.76 215.339 130.526 216.595C146.062 221.774 157.646 219.592 170.07 217.252C173.806 216.549 177.617 215.831 181.635 215.295C186.514 214.684 190.909 213.757 194.778 212.477C197.014 211.831 199.142 210.988 200.819 209.79C202.552 208.553 204.451 206.422 204.451 203.305C204.451 199.623 202.522 196.789 199.813 194.903C197.413 192.969 193.795 191.175 189.443 189.434C185.162 187.722 182.024 186.543 180.449 186.149L179.852 186H179.236C177.669 186 175.673 186.313 173.499 186.763C171.235 187.231 168.452 187.92 165.177 188.813L165.148 188.821L165.119 188.829C162.366 189.616 160.062 190.305 158.022 190.915C150.236 193.243 146.305 194.418 136.045 195.447Z" fill="black"/>
<path d="M220.514 301.33L220.201 301.707L219.966 302.137C218.822 304.233 217.901 304.691 217.396 304.805H216.445C215.401 304.805 213.357 304.383 210.019 302.992L210.009 302.988L209.999 302.984C207.501 301.955 205.56 301.171 204.195 300.64C203.518 300.377 202.943 300.16 202.496 300.004C202.323 299.943 202.134 299.88 201.947 299.822L197.388 297.542C195.918 296.626 194.194 296.016 192.275 296.016C190.16 296.016 188.128 296.774 186.543 298.359C184.981 299.92 184.639 301.856 184.639 303.213C184.639 305.302 185.605 307.056 186.357 308.184L186.478 308.364L193.545 317.198C195.558 320.073 197.159 322.329 198.339 323.951C199.083 324.974 199.802 325.949 200.387 326.661L204.063 334.013C206.088 338.064 207.461 341.103 208.248 343.201C208.72 344.461 209.192 345.59 209.666 346.538C210.086 347.377 210.706 348.49 211.591 349.375C213.574 351.358 216.106 352.158 218.643 352.158C221.355 352.158 224.404 351.293 227.531 350.043L227.554 350.033L227.578 350.024C233.172 347.72 238.009 344.405 242.024 340.076C246.249 335.833 249.413 331.029 251.43 325.674C253.305 320.977 254.839 315.73 256.055 309.956C256.347 308.57 256.711 306.807 257.13 304.778L257.131 304.771L257.131 304.77C259.29 294.317 262.909 276.791 265.638 267.243C266.713 263.478 267.994 260.622 269.385 258.535L269.451 258.436L269.512 258.334C270.416 256.827 271.151 255.529 271.674 254.482C271.934 253.963 272.183 253.424 272.378 252.903C272.514 252.54 272.861 251.598 272.861 250.488V249.609C272.861 245.902 271.044 242.608 268.64 239.831C265.918 236.391 261.24 233.098 255.33 229.847C249.587 226.689 245.19 224.34 242.173 222.825C239.132 220.974 235.803 220 232.266 220H231.771L231.285 220.097C229.512 220.452 226.819 221.255 223.398 222.392C220.02 223.233 216.206 224.08 211.949 224.931C207.816 225.758 202.312 226.47 195.376 227.048L195.293 227.055L86.749 239.748L73.4697 238.503L63.8332 236.576L62.7424 236.848C59.2867 237.712 55.8076 239.955 55.068 244.393L55 244.801V246.094C55 248.756 56.19 251.992 57.6454 255.194L57.6837 255.278L57.7251 255.361C59.6789 259.269 61.001 262.614 61.768 265.427C64.7092 276.211 65.7637 287.255 65.1201 296.265C64.8228 300.427 64.668 303.926 64.668 306.728C64.668 309.695 64.8076 312.263 65.1881 314.218C65.8769 318.296 67.254 322.091 69.3356 325.561L69.5086 325.849L69.7187 326.112C71.0524 327.779 72.4782 329.257 74.0128 330.353C75.5324 331.438 77.4907 332.383 79.7754 332.383H80.2148C82.5384 332.383 84.5003 331.408 86.01 330.247C87.5101 329.093 88.8348 327.554 90.0239 325.855L90.1247 325.711L90.2152 325.561C92.1622 322.316 93.6607 319.007 94.6719 315.636L94.7396 315.41L94.7857 315.18C95.1786 313.215 95.3223 310.616 95.3223 307.607V302.232L93.7398 263.47C134.058 256.73 174.366 252.945 215.213 251.533H218.203C221.657 251.533 223.461 251.943 224.21 252.274C225.293 252.924 225.944 253.704 226.352 254.655C226.855 255.829 227.266 257.85 227.266 261.035C227.266 268.662 226.938 277.288 225.834 284.898C224.688 292.797 222.838 298.542 220.514 301.33Z" fill="black"/>
<path d="M139.992 112.734V95.7129L108.352 97.9102C98.3906 98.7891 90.7734 99.2285 85.5 99.2285H81.9844C77.0039 98.9355 72.6094 98.3496 68.8008 97.4707C65.2852 96.5918 61.916 94.834 58.6934 92.1973C56.0566 90.1465 54.7383 88.5352 54.7383 87.3633C54.7383 87.0703 54.8848 86.7773 55.1777 86.4844C56.0566 84.7266 58.2539 83.7012 61.7695 83.4082L71.4375 82.5293C81.9844 81.6504 93.2637 80.625 105.275 79.4531L141.311 75.498L140.871 31.5723C140.871 23.6621 140.139 17.5098 138.674 13.1152C137.209 8.7207 136.477 5.9375 136.477 4.76562C136.477 3.59375 136.77 2.42188 137.355 1.25C138.234 0.078125 140.871 -0.507812 145.266 -0.507812C150.539 0.078125 156.105 1.54297 161.965 3.88672C167.824 5.9375 172.512 8.28125 176.027 10.918C179.543 13.2617 181.301 15.459 181.301 17.5098C181.301 19.5605 180.275 22.6367 178.225 26.7383C170.405 40.4227 169.612 58.1696 168.996 71.1035L196.682 67.1484L216.457 62.7539C220.266 61.875 223.781 61.4355 227.004 61.4355C228.469 61.4355 229.934 61.582 231.398 61.875C234.621 62.168 238.43 63.0469 242.824 64.5117C246.926 66.2695 250.734 68.3203 254.25 70.6641C257.18 73.3008 258.645 75.3516 258.645 76.8164V77.6953C258.059 78.5742 256.594 79.5996 254.25 80.7715C251.906 81.9434 248.391 82.8223 243.703 83.4082C239.016 83.7012 231.691 84.7266 221.73 86.4844C212.062 88.2422 203.566 89.4141 196.242 90L168.557 92.1973L168.117 111.416L219.973 107.9L249.855 105.703C261.574 104.531 269.484 103.652 273.586 103.066C277.688 102.48 282.082 101.602 286.77 100.43C291.457 99.2578 294.68 98.6719 296.438 98.6719C299.367 98.6719 302.59 99.1113 306.105 99.9902C309.328 100.869 315.188 103.213 323.684 107.021C332.473 110.537 338.186 113.76 340.822 116.689C342.873 119.326 343.898 121.523 343.898 123.281V124.16C343.312 126.504 341.115 128.262 337.307 129.434C334.67 130.312 331.447 130.752 327.639 130.752C325.588 130.752 323.391 130.605 321.047 130.312L276.223 129.873C254.543 129.58 242.238 129.434 239.309 129.434L167.238 132.07C156.713 133.828 153.322 133.242 139.553 133.828C125.783 134.414 115.383 135 108.352 135.586C70.0059 139.622 56.2884 143.4 37.3848 147.451C32.9902 148.33 30.207 148.77 29.0352 148.77C26.1055 148.77 22.8828 147.891 19.3672 146.133C15.5586 144.375 12.1895 142.471 9.25977 140.42C6.33008 138.369 3.69336 136.172 1.34961 133.828C-0.408203 132.07 -1.28711 130.459 -1.28711 128.994V127.676C-0.408203 125.918 1.49609 124.746 4.42578 124.16L15.8516 123.281C17.0234 123.281 23.4688 123.135 35.1875 122.842C46.9062 122.549 47.4141 121.23 76.7109 118.887C106.008 116.543 121.389 115.078 122.854 114.492L139.992 112.734ZM80.0117 4.9707L86.6035 6.72852C91.584 8.19336 97.2969 10.3906 103.742 13.3203C110.188 16.25 115.021 19.3262 118.244 22.5488C121.467 25.4785 123.811 28.7012 125.275 32.2168C126.74 36.0254 127.473 40.2734 127.473 44.9609C127.473 50.2344 126.301 54.4824 123.957 57.7051C121.613 61.2207 118.684 62.9785 115.168 62.9785H114.729C111.213 62.9785 107.551 60.6348 103.742 55.9473C100.812 52.7246 95.9785 46.2793 89.2402 36.6113C82.7949 26.6504 79.1328 20.9375 78.2539 19.4727L74.2988 11.5625C73.7129 10.6836 73.4199 9.80469 73.4199 8.92578C73.4199 8.04688 73.7129 7.16797 74.2988 6.28906C75.1777 5.11719 76.3496 4.53125 77.8145 4.53125C78.4004 4.53125 79.1328 4.67773 80.0117 4.9707ZM181.969 54.9609C181.676 54.668 181.529 54.2285 181.529 53.6426C181.529 52.7637 182.115 51.7383 183.287 50.5664C199.168 37.1932 204.582 29.89 211.188 10.0742C212.359 6.55859 213.238 4.36133 213.824 3.48242C214.703 2.60352 215.582 2.01758 216.461 1.72461H217.34C218.512 1.72461 219.977 2.16406 221.734 3.04297C230.438 6.52433 244.822 15.5315 250.254 22.7734C252.012 24.5312 252.891 26.2891 252.891 28.0469C252.891 29.8047 251.865 31.5625 249.814 33.3203C248.936 33.9062 246.445 34.4922 242.344 35.0781C233.767 37.2224 187.059 62.5961 181.969 54.9609Z" fill="black"/>
</svg>
