<svg width="350" height="350" viewBox="0 0 350 350" fill="none" xmlns="http://www.w3.org/2000/svg">
<path d="M112.993 323.465L113.019 323.463C118.376 322.941 123.735 322.42 129.093 321.891C144.199 320.429 163.218 318.966 186.153 317.502L186.174 317.5L186.195 317.499C248.804 312.17 271.572 307.46 334.332 304.321C353.607 303.839 365.194 303.355 368.868 302.851L399.602 301.387L399.664 301.38C408.477 300.401 415.035 299.161 419.189 297.603C423.449 296.006 426.479 293.458 427.708 289.771L427.811 289.463V287.674C427.811 284.434 425.89 281.262 422.83 278.203L422.783 278.156L422.733 278.112C418.68 274.565 413.416 271.066 406.983 267.602L406.919 267.568L385.556 257.991L385.497 257.969C377.596 255.006 370.986 253.447 365.752 253.447C362.481 253.447 356.852 254.762 349.111 257.179C256.171 278.996 192.108 280.849 98.7571 290.573L101.513 228.923L109.308 230.036C109.716 230.194 110.16 230.301 110.584 230.38C111.162 230.488 111.846 230.572 112.617 230.636C114.161 230.765 116.177 230.826 118.643 230.826C122.675 230.826 131.569 230.08 145.194 228.621L182.557 225.69L233.11 219.829L233.12 219.828C251.659 217.876 262.91 216.654 266.84 216.162L266.876 216.158L294.036 211.753L294.06 211.749C298.036 211.003 301.396 210.122 304.108 209.089C306.692 208.104 308.811 206.937 310.307 205.513C312.938 203.88 314.734 201.67 314.734 198.797V197.818L314.675 197.579C314.026 194.984 311.894 192.441 308.888 189.936C305.65 187.238 300.482 184.96 293.631 182.993C286.818 180.077 281.37 178.091 277.331 177.081C275.224 176.554 273.108 176.289 270.986 176.289C268.871 176.289 266.54 176.553 264.002 177.06L263.965 177.068L245.664 181.46L218.62 186.576L218.618 186.577C205.473 189.011 192.083 191.202 178.449 193.15L132.316 198.276L132.294 198.279C125.417 199.196 115.937 200.331 103.848 201.683L105.212 141.666L118.241 142.906C120.036 143.451 122.674 143.668 125.967 143.668H129.629C134.659 143.668 141.839 142.919 151.108 141.458L186.179 138.535L186.184 138.535C198.912 137.556 213.586 136.088 230.204 134.133C246.767 132.184 259.053 130.226 266.999 128.247L284.459 125.337C290.358 124.598 295.226 123.667 299.027 122.526C302.734 121.414 305.662 120.037 307.49 118.246C310.556 115.676 312.621 112.885 313.231 109.834L313.27 109.639V109.441C313.27 107.556 312.402 105.914 311.036 104.548C309.72 103.233 307.873 102.093 305.619 101.08C301.6 98.5834 297.107 96.5935 292.154 95.1003C287.218 93.1312 282.272 91.6466 277.317 90.6504C273.786 89.6479 270.451 89.1309 267.324 89.1309H264.138L247.079 93.5809L220.763 99.4292L220.755 99.4308C213.994 100.879 203.81 102.578 190.172 104.527C176.496 105.993 164.026 107.704 152.766 109.661C141.572 111.12 132.596 112.09 125.824 112.573L125.805 112.575L117.655 113.316L117.581 113.328C115.142 113.735 111.8 114.146 107.54 114.561L110.314 58.2812L125.506 58.9142C126.918 59.4784 128.872 59.6641 131.094 59.6641C136.12 59.6641 143.793 58.9156 154.04 57.4527L190.607 53.796L190.613 53.7954C206.253 52.3291 222.379 50.6186 238.993 48.664C255.576 46.7132 268.329 44.7556 277.215 42.7851L296.193 39.8654C302.591 38.8811 307.88 37.7652 312.033 36.5068C316.128 35.2658 319.318 33.8292 321.349 32.0924C324.472 29.4869 326.453 26.5397 326.453 23.2402V22.5078C326.453 18.9431 323.645 15.9819 319.654 13.4876L319.61 13.4603L319.565 13.4353C315.033 10.9173 309.547 8.67741 303.134 6.70052C296.823 4.27474 291.656 2.54768 287.659 1.54308C284.56 0.518408 281.442 0 278.311 0H275.116L255.871 5.1813L228.057 11.037L228.021 11.046C220.316 12.9721 206.491 15.4015 186.468 18.3316C166.454 21.2606 153.493 23.2167 147.611 24.1971C141.805 25.1648 136 25.8904 130.195 26.3741C124.323 26.8634 119.862 27.357 116.849 27.8592C114.139 28.3109 109.986 28.5553 104.318 28.5642L86.9303 22.7683L86.8082 22.7439C81.9622 21.7747 76.6226 20.5614 70.7878 19.1027L70.7416 19.0911L70.695 19.0818C65.7359 18.09 61.446 17.5781 57.8516 17.5781H54.1063L54.0234 17.585C48.0176 18.0855 43.3767 19.8858 41.4143 23.8107C40.8037 25.0318 40.4707 26.3127 40.4707 27.6348C40.4707 29.326 40.7532 31.0041 41.3058 32.6618L41.3507 32.7966L41.4143 32.9237C42.9127 35.9206 45.14 39.8772 48.0799 44.777L48.1492 44.8924L48.2332 44.9974C51.9727 49.6718 54.7886 55.0596 56.6724 61.1819C58.5345 67.2338 59.5127 76.5064 59.5137 89.1393V89.1582L55.1517 294.687L32.772 297.399L-47.3573 303.189L-70.0079 306.112C-71.4436 306.13 -72.7939 306.431 -73.9781 307.107C-75.2124 307.813 -76.1441 308.857 -76.7889 310.147L-77 310.569V312.506C-77 314.353 -76.4002 316.588 -75.3921 319.108L-75.3612 319.185L-75.324 319.26C-74.4113 321.085 -72.7649 322.883 -70.5951 324.67C-68.4025 326.476 -65.5518 328.37 -62.0763 330.356C-55.2911 334.233 -50.3879 336.932 -47.397 338.431C-44.6832 340.041 -40.3176 341.548 -34.4908 343.005C-29.0819 344.479 -24.7312 345.268 -21.5332 345.268H-19.3359C-17.1436 345.268 -13.7818 344.733 -9.38059 343.755L-9.33414 343.745L-9.28822 343.732C43.0911 329.447 59.5832 328.663 112.993 323.465Z" fill="black"/>
</svg>
