<svg width="350" height="350" viewBox="0 0 350 350" fill="none" xmlns="http://www.w3.org/2000/svg">
<path d="M40.2778 157.234L39.9729 157.156H39.6582H32.627H30.127V159.656C30.127 160.655 30.5114 161.945 30.9555 163.206C31.4429 164.59 32.1574 166.348 33.0841 168.461C34.9386 172.689 37.7039 178.476 41.3679 185.804C48.2861 200.227 54.834 211.202 61.0319 218.609C67.1471 225.918 73.3561 230.271 79.6484 230.271C83.9961 230.271 87.572 228.655 89.9416 225.242C92.1964 221.996 93.1348 217.437 93.1348 211.951C93.1348 203.284 90.6635 194.552 85.8418 185.784C81.6797 176.583 72.766 168.801 59.6727 162.254L59.4334 162.135L59.1743 162.068L40.2778 157.234ZM285.036 184.987L285.074 184.941L285.11 184.894C294.981 171.83 303.831 160.655 311.662 151.363C313.559 149.886 315.098 148.434 316.192 147.003C317.311 145.539 318.135 143.875 318.135 142.078C318.135 138.416 315.603 135.062 311.962 132.028C308.22 128.91 302.745 125.661 295.654 122.261C285.998 117.289 278.352 114.529 273.008 114.529C270.375 114.529 268.388 116.157 266.973 118.279L266.845 118.47L266.755 118.681C265.736 121.059 265.234 123.593 265.234 126.258C265.234 131.989 263.297 141.181 259.211 154.03C253.112 171.451 246.447 186.807 239.224 200.112C234.553 207.128 231.468 212.77 230.189 216.929L229.894 217.886L230.342 218.782C231.1 220.298 232.162 221.56 233.575 222.43C234.987 223.299 236.594 223.68 238.291 223.68H238.945L239.515 223.36C256.499 213.825 271.672 201.024 285.036 184.987ZM167.686 324.75L167.699 324.749L167.712 324.748C209.842 321.822 248.593 320.36 283.968 320.359L304.493 320.796C321.44 322.548 333.822 323.436 341.562 323.436H341.595L341.627 323.435C347.463 323.285 352.199 322.502 355.599 320.887C359.132 319.208 361.427 316.498 361.637 312.725L361.651 312.469L361.613 312.215C360.555 305.159 354.525 299.078 345.011 293.722C335.455 288.052 326.807 285.037 319.15 285.037C313.754 285.037 306.921 285.486 298.676 286.369C284.361 287.83 269.604 288.998 254.407 289.875L254.39 289.876L254.373 289.877C246.53 290.438 232.58 291.662 212.545 293.549C220.591 219.746 226.928 153.062 231.554 93.4999C233.596 69.2971 237.232 50.058 242.401 35.6984L242.549 35.2879V34.8516C242.549 33.1991 241.868 31.6703 240.9 30.3191C239.928 28.9626 238.554 27.6258 236.875 26.2987C233.519 23.6448 228.609 20.7696 222.249 17.6637L222.214 17.6465L222.178 17.6304C210.473 12.3629 201.532 9.5 195.664 9.5C194.107 9.5 192.48 9.891 191.26 11.1111C190.039 12.3313 189.648 13.9584 189.648 15.5156V15.9561L189.799 16.37C194.404 29.0325 196.68 41.0473 196.68 52.4297C196.68 63.5266 196.388 81.5094 195.802 106.395C193.77 150.518 189.866 213.793 184.09 296.231C172.708 297.286 159.822 298.458 145.43 299.745C145.436 180.399 145.877 111.666 146.745 93.4205C147.33 82.0053 147.627 74.1821 147.627 70.0078C147.627 63.1372 142.286 56.475 133.422 49.9742L133.377 49.9411L133.33 49.9101C126.114 45.0995 119.469 42.459 113.486 42.459H113.279L113.075 42.493C111.141 42.8154 109.37 43.3829 108.031 44.3872C106.575 45.4793 105.713 47.0386 105.713 48.9141V49.1223L105.747 49.3276C113.281 94.2408 117.815 178.394 119.309 301.954C113.542 302.47 107.434 302.986 100.982 303.502L100.942 303.505L100.902 303.51C56.676 308.489 22.1457 311.854 -2.70533 313.608L-2.84873 313.618L-2.99002 313.644C-5.48236 314.112 -7.63703 314.813 -9.27073 315.87C-10.9638 316.966 -12.2199 318.539 -12.4807 320.625L-12.5607 321.265L-12.3212 321.864C-11.9712 322.739 -11.2705 323.53 -10.6417 324.159C-9.94243 324.858 -9.02708 325.648 -7.928 326.52C-5.7246 328.267 -2.61927 330.472 1.35739 333.123L1.40026 333.152L1.44427 333.178C8.36611 337.392 14.6891 339.695 20.3223 339.695C24.383 339.695 33.3888 338.479 47.0713 336.151C82.725 331.184 122.928 327.382 167.686 324.75Z" fill="black" stroke="black" stroke-width="5"/>
</svg>
