<svg width="350" height="350" viewBox="0 0 350 350" fill="none" xmlns="http://www.w3.org/2000/svg">
<path d="M39.6582 159.656L58.5547 164.49C71.4453 170.936 79.7949 178.406 83.6035 186.902C88.291 195.398 90.6348 203.748 90.6348 211.951C90.6348 222.498 86.9727 227.771 79.6484 227.771C69.3945 227.771 57.3828 213.416 43.6133 184.705C36.2891 170.057 32.627 161.707 32.627 159.656H39.6582ZM273.008 117.029C277.695 117.029 284.873 119.52 294.541 124.5C308.604 131.238 315.635 137.098 315.635 142.078C315.635 144.129 313.73 146.619 309.922 149.549C302.012 158.924 293.076 170.203 283.115 183.387C269.932 199.207 254.99 211.805 238.291 221.18C235.654 221.18 233.75 220.008 232.578 217.664C233.75 213.855 236.68 208.436 241.367 201.404C248.691 187.928 255.43 172.4 261.582 154.822C265.684 141.932 267.734 132.41 267.734 126.258C267.734 123.914 268.174 121.717 269.053 119.666C270.225 117.908 271.543 117.029 273.008 117.029ZM283.994 317.859C248.545 317.859 209.727 319.324 167.539 322.254C122.715 324.891 82.4316 328.699 46.6895 333.68C32.9199 336.023 24.1309 337.195 20.3223 337.195C15.3418 337.195 9.48242 335.145 2.74414 331.043C-5.16602 325.77 -9.41406 322.4 -10 320.936C-9.70703 318.592 -7.2168 316.98 -2.5293 316.102C22.373 314.344 56.9434 310.975 101.182 305.994C108.506 305.408 115.391 304.822 121.836 304.236C120.371 179.432 115.83 94.3242 108.213 48.9141C108.213 46.8633 109.971 45.5449 113.486 44.959C118.76 44.959 124.912 47.3027 131.943 51.9902C140.732 58.4355 145.127 64.4414 145.127 70.0078C145.127 74.1094 144.834 81.873 144.248 93.2988C143.369 111.756 142.93 181.482 142.93 302.479C159.336 301.014 173.838 299.695 186.436 298.523C192.295 215.027 196.25 151.014 198.301 106.482C198.887 81.5801 199.18 63.5625 199.18 52.4297C199.18 40.7109 196.836 28.4062 192.148 15.5156C192.148 13.1719 193.32 12 195.664 12C200.938 12 209.434 14.6367 221.152 19.9102C233.75 26.0625 240.049 31.043 240.049 34.8516C234.775 49.5 231.113 68.9824 229.062 93.2988C224.375 153.65 217.93 221.326 209.727 296.326C231.406 294.275 246.348 292.957 254.551 292.371C269.785 291.492 284.58 290.32 298.936 288.855C307.139 287.977 313.877 287.537 319.15 287.537C326.182 287.537 334.385 290.32 343.76 295.887C353.135 301.16 358.262 306.727 359.141 312.586C358.848 317.859 352.988 320.643 341.562 320.936C333.945 320.936 321.641 320.057 304.648 318.299L283.994 317.859Z" fill="black"/>
<path d="M194.176 52.4297C194.176 41.3837 191.967 29.659 187.445 17.2246L187.145 16.3965V15.5156C187.145 13.573 187.634 11.1981 189.488 9.34375C191.343 7.48941 193.718 7 195.66 7C201.719 7 210.346 9.71495 221.035 14.3896L223.2 15.3506L223.271 15.3828L223.343 15.417C229.763 18.5526 234.858 21.5203 238.422 24.3379C240.204 25.7468 241.771 27.249 242.928 28.8633C244.077 30.467 245.045 32.4989 245.045 34.8516V35.7246L244.749 36.5449C239.685 50.6127 236.076 69.6032 234.043 93.6846L234.044 93.6855C229.479 152.46 223.246 218.157 215.354 290.773C233.765 289.048 246.722 287.917 254.19 287.384L254.225 287.382L254.259 287.379C269.424 286.504 284.146 285.338 298.424 283.881C306.706 282.994 313.631 282.537 319.146 282.537C327.43 282.537 336.528 285.785 346.271 291.565C355.92 297.004 362.844 303.597 364.081 311.844L364.157 312.352L364.129 312.863C363.856 317.773 360.804 321.18 356.668 323.145C352.797 324.983 347.645 325.781 341.687 325.934L341.623 325.936H341.559C333.695 325.936 321.238 325.038 304.337 323.293L283.933 322.859C248.634 322.861 209.952 324.321 167.882 327.242L167.855 327.244L167.829 327.245C123.129 329.875 82.9983 333.669 47.4277 338.624C33.8429 340.935 24.6285 342.195 20.3184 342.195C14.0324 342.195 7.24601 339.638 0.140625 335.313L0.0527344 335.261L-1.49414 334.224C-4.81077 331.983 -7.48796 330.063 -9.48535 328.479C-10.6214 327.577 -11.6189 326.721 -12.4131 325.927C-13.0665 325.273 -14.093 324.177 -14.6465 322.793L-15.125 321.595L-14.9648 320.315C-14.5898 317.315 -12.7737 315.157 -10.6328 313.771C-8.61067 312.463 -6.09584 311.683 -3.45508 311.188L-3.17188 311.134L-2.88574 311.114C21.9138 309.364 56.4046 306.003 100.618 301.025L100.698 301.017L100.779 301.01C106.369 300.563 111.7 300.115 116.773 299.668C115.251 177.359 110.729 94.1586 103.278 49.7412L103.209 49.3301V48.9141C103.209 46.1887 104.494 43.9127 106.527 42.3877C108.326 41.0383 110.55 40.3791 112.66 40.0273L113.068 39.959H113.482C119.964 39.959 126.866 42.7155 134.02 47.373L134.713 47.8301L134.806 47.8916L134.896 47.958C143.837 54.5143 150.123 61.833 150.123 70.0078C150.123 74.2541 149.822 82.1348 149.237 93.5361L149.238 93.5371C148.38 111.565 147.94 179.307 147.927 297.01C160.35 295.896 171.621 294.872 181.739 293.936C187.432 212.554 191.285 150.017 193.299 106.305C193.884 81.437 194.176 63.4901 194.176 52.4297ZM90.6309 211.951C90.6309 203.748 88.2871 195.398 83.5996 186.902C79.791 178.406 71.4414 170.936 58.5508 164.49L39.6543 159.656H32.623C32.623 161.707 36.2852 170.057 43.6094 184.705C57.3789 213.416 69.3906 227.771 79.6445 227.771C86.9688 227.771 90.6309 222.498 90.6309 211.951ZM262.73 126.258C262.73 123.272 263.294 120.401 264.453 117.696L264.634 117.274L264.889 116.893C266.547 114.405 269.204 112.029 273.004 112.029C279.011 112.029 287.139 115.065 296.803 120.042C303.936 123.466 309.599 126.808 313.559 130.107C317.326 133.247 320.631 137.244 320.631 142.078C320.631 144.646 319.46 146.84 318.175 148.521C316.951 150.121 315.311 151.662 313.415 153.158C305.658 162.37 296.888 173.448 287.101 186.401L287.028 186.496L286.952 186.588C273.408 202.841 258.004 215.845 240.734 225.54L239.595 226.18H238.287C236.211 226.18 234.133 225.711 232.261 224.559C230.387 223.406 229.032 221.76 228.103 219.9L227.206 218.108L227.795 216.193C229.18 211.691 232.414 205.835 237.065 198.839C244.193 185.697 250.788 170.503 256.837 153.229C260.906 140.426 262.73 131.567 262.73 126.258ZM95.6309 211.951C95.6309 217.649 94.6695 222.811 91.9912 226.668C89.0831 230.856 84.6777 232.771 79.6445 232.771C72.1869 232.771 65.3348 227.653 59.1104 220.214C52.7151 212.571 46.0586 201.375 39.1006 186.867C35.4438 179.552 32.6658 173.739 30.791 169.465C29.8532 167.327 29.1108 165.505 28.5938 164.036C28.1634 162.814 27.623 161.142 27.623 159.656V154.656H40.2842L60.3086 159.779L60.7871 160.019C74.0863 166.668 83.5589 174.761 88.0732 184.663C93.0312 193.706 95.6309 202.82 95.6309 211.951ZM267.73 126.258C267.73 132.41 265.68 141.932 261.578 154.822C255.426 172.4 248.688 187.928 241.363 201.404C236.676 208.436 233.746 213.855 232.574 217.664C233.746 220.008 235.65 221.18 238.287 221.18C254.986 211.805 269.928 199.207 283.111 183.387C293.072 170.203 302.008 158.924 309.918 149.549C313.727 146.619 315.631 144.129 315.631 142.078C315.631 137.098 308.6 131.238 294.537 124.5C284.869 119.52 277.691 117.029 273.004 117.029C271.539 117.029 270.221 117.908 269.049 119.666C268.17 121.717 267.73 123.914 267.73 126.258ZM199.176 52.4297C199.176 63.5625 198.883 81.5801 198.297 106.482C196.246 151.014 192.291 215.027 186.432 298.523C173.834 299.695 159.332 301.014 142.926 302.479C142.926 181.482 143.365 111.756 144.244 93.2988C144.83 81.873 145.123 74.1094 145.123 70.0078C145.123 64.4414 140.729 58.4355 131.939 51.9902C124.908 47.3027 118.756 44.959 113.482 44.959C109.967 45.5449 108.209 46.8633 108.209 48.9141C115.826 94.3242 120.367 179.432 121.832 304.236C115.387 304.822 108.502 305.408 101.178 305.994C56.9395 310.975 22.3691 314.344 -2.5332 316.102C-7.2207 316.98 -9.71094 318.592 -10.0039 320.936C-9.41797 322.4 -5.16992 325.77 2.74023 331.043C9.47852 335.145 15.3379 337.195 20.3184 337.195C24.127 337.195 32.916 336.023 46.6855 333.68C82.4277 328.699 122.711 324.891 167.535 322.254C209.723 319.324 248.541 317.859 283.99 317.859L304.645 318.299C321.637 320.057 333.941 320.936 341.559 320.936C352.984 320.643 358.844 317.859 359.137 312.586C358.258 306.727 353.131 301.16 343.756 295.887C334.381 290.32 326.178 287.537 319.146 287.537C313.873 287.537 307.135 287.977 298.932 288.855C284.576 290.32 269.781 291.492 254.547 292.371C246.344 292.957 231.402 294.275 209.723 296.326C217.926 221.326 224.371 153.65 229.059 93.2988C231.109 68.9824 234.771 49.5 240.045 34.8516C240.045 31.043 233.746 26.0625 221.148 19.9102C209.43 14.6367 200.934 12 195.66 12C193.316 12 192.145 13.1719 192.145 15.5156C196.832 28.4062 199.176 40.7109 199.176 52.4297Z" fill="black"/>
</svg>
