<svg width="350" height="350" viewBox="0 0 350 350" fill="none" xmlns="http://www.w3.org/2000/svg">
<path fill-rule="evenodd" clip-rule="evenodd" d="M27.6816 155.117L27.5154 155.138L27.355 155.186C25.321 155.796 23.6206 156.505 22.3882 157.367C21.17 158.22 20.0703 159.479 20.0703 161.203C20.0703 163.645 21.5855 165.708 23.7049 167.416C27.8684 171.144 33.0153 173.034 39.0151 173.158C39.9088 173.798 40.8208 174.579 41.7498 175.508L41.97 175.728L42.2468 175.871C53.6131 181.738 65.5061 188.472 77.9262 196.077C76.3777 197.587 75.0172 199.203 73.8497 200.926C63.0394 211.321 47.1862 223.501 26.2343 237.469L26.2075 237.487L26.1813 237.505C24.7795 238.507 23.6514 239.411 22.8534 240.209C22.4557 240.607 22.0896 241.027 21.8112 241.465C21.5522 241.872 21.2422 242.489 21.2422 243.234C21.2422 244.954 22.6414 245.728 23.4886 246.011C24.3872 246.31 25.5276 246.406 26.7578 246.406C28.851 246.406 32.0422 245.68 36.1382 244.413C40.3075 243.122 45.6328 241.198 52.1002 238.65L52.1278 238.639L52.155 238.627C60.4715 235.063 69.3521 230.324 78.7944 224.423L78.8295 224.401L78.8637 224.377C85.924 219.546 92.8077 214.366 99.5146 208.835C109.695 215.967 120.412 223.098 131.666 230.227C136.813 234.174 141.529 236.445 145.703 236.445H145.845L145.986 236.425C149.328 235.948 151.868 234.206 153.351 231.238L153.415 231.111L153.46 230.976C153.915 229.611 154.148 228.226 154.148 226.828C154.148 222.059 152.221 216.057 148.664 208.942L148.639 208.892L148.611 208.844C145.366 203.163 141.246 198.972 136.214 196.41C132.145 193.379 127.531 190.785 122.384 188.62L133.71 177.786L133.796 177.677C139.508 170.441 147.164 163.346 156.804 156.402C160.424 153.982 162.938 151.123 162.938 147.727C162.938 146.753 162.719 145.704 162.032 144.851C161.486 143.816 160.497 142.839 159.382 141.929C158.084 140.869 156.348 139.691 154.209 138.398C149.925 135.808 143.849 132.649 136.014 128.928L135.957 128.901L135.899 128.877C133.684 127.991 131.28 127.562 128.711 127.562C125.164 127.562 121.513 128.67 117.786 130.74C109.353 135.339 99.1483 139.389 87.1479 142.873C66.1385 148.709 46.3172 152.788 27.6816 155.117ZM107.507 158.146C107.587 158.169 107.648 158.189 107.692 158.207L107.731 158.286L107.948 158.503C107.851 159.434 107.182 161.067 105.404 163.556C101.854 168.526 98.3075 173.166 94.7649 177.478C94.546 177.38 94.3411 177.293 94.151 177.217C93.8705 177.105 93.5945 177.006 93.3351 176.931C93.2004 176.893 93.0252 176.848 92.827 176.817C82.8045 173.281 74.1133 170.3 66.7558 167.876C76.5819 165.313 88.5402 161.997 102.627 157.93H105.273C106.363 157.93 107.08 158.024 107.507 158.146ZM107.781 158.247C107.789 158.252 107.792 158.254 107.792 158.254C107.792 158.254 107.788 158.252 107.781 158.247Z" fill="black"/>
<path fill-rule="evenodd" clip-rule="evenodd" d="M94.1103 31.469L94.0423 31.47L93.9745 31.4757C91.5463 31.678 89.4862 32.0951 87.9728 32.8518C86.3935 33.6414 85.1094 34.9892 85.1094 36.9844C85.1094 38.1022 85.5629 39.1625 86.1458 40.0952C86.7434 41.0513 87.5887 42.05 88.6248 43.0861C93.7119 48.1732 100.091 50.7031 107.617 50.7031H108.089L108.512 50.492C108.776 50.3596 109.127 50.2468 109.587 50.1805C110.269 50.8883 111.149 51.3807 112.095 51.7164C126.882 59.4831 142.552 68.3047 159.105 78.1825L159.072 78.2134C144.385 88.6308 123.086 100.446 95.1177 113.657C93.5185 114.261 92.1703 114.917 91.1828 115.658C90.2306 116.372 89.2109 117.476 89.2109 119.016C89.2109 120.587 90.4193 121.442 91.1954 121.83C92.0493 122.257 93.1615 122.54 94.3978 122.746L94.561 122.773H97.0703C101.646 122.773 109.487 121.342 120.407 118.612L120.43 118.606L120.454 118.6C131.914 115.438 143.746 110.9 155.949 104.996L156.011 104.966L179.662 91.4509C192.969 99.4612 206.65 108.214 220.705 117.709C225.861 121.667 230.585 123.945 234.766 123.945H234.908L235.048 123.925C238.391 123.448 240.93 121.706 242.414 118.738L242.477 118.611L242.522 118.476C242.977 117.111 243.211 115.726 243.211 114.328C243.211 109.559 241.284 103.556 237.726 96.4415L237.702 96.3919L237.674 96.3437C234.433 90.6712 230.32 86.4833 225.297 83.9211C220.455 80.1376 214.613 76.5281 207.79 73.0844C214.193 68.9652 220.451 64.6989 226.562 60.2854L226.692 60.1916L226.805 60.0783C233.283 53.6002 241.715 47.4557 252.143 41.6624L252.172 41.6462L252.201 41.629C256.166 39.2502 259.031 36.3893 259.031 32.8828V32.0168L258.954 31.7474C258.615 30.5588 257.684 29.3659 256.61 28.2418C255.471 27.0504 253.916 25.6805 251.977 24.1394C248.096 21.0545 242.52 17.1589 235.279 12.4617C232.573 10.6613 229.447 9.78906 225.977 9.78906C223.3 9.78906 220.49 10.4577 217.572 11.7086L217.554 11.7162L217.536 11.7241C205.641 17.0962 191.381 20.9605 174.724 23.2848L174.684 23.2903L174.645 23.2974C146.616 28.3583 119.772 31.0802 94.1103 31.469ZM201.125 41.4295L201.042 41.5124L200.969 41.6045C195.455 48.5896 188.87 55.0601 181.206 61.0127C178.51 59.7468 176.033 58.8881 173.79 58.4869C162.037 53.788 151.71 49.8585 142.812 46.701C158.321 44.693 177.507 41.7295 200.362 37.8131C201.743 37.8235 202.665 37.9626 203.225 38.1493C203.322 38.1815 203.398 38.2117 203.459 38.2385C203.432 38.3743 203.34 38.6668 203.04 39.147C202.661 39.7533 202.042 40.5125 201.125 41.4295ZM203.658 38.3551C203.658 38.3551 203.652 38.3511 203.644 38.3417C203.655 38.3502 203.658 38.3551 203.658 38.3551Z" fill="black"/>
<path d="M-2.26162 234.414L-2.40197 234.484L-2.52966 234.576C-5.88038 236.969 -7.46875 240.56 -7.46875 244.992C-7.46875 253.442 -8.23568 260.025 -9.69744 264.825C-15.1114 277.962 -21.4887 290.911 -28.8307 303.671C-34.0568 310.936 -36.7656 318.339 -36.7656 325.852V325.897L-36.7636 325.942C-36.3631 334.752 -34.3603 342.299 -30.6606 348.495C-29.8419 350.121 -28.958 351.48 -27.9767 352.461C-26.9775 353.46 -25.7175 354.219 -24.2188 354.219C-22.5597 354.219 -21.2064 353.484 -20.1841 352.306C-16.0643 351.433 -12.4205 347.728 -9.11711 342.264C-7.61003 340.499 -6.04353 337.868 -4.40215 334.489C-2.71133 331.008 -0.888393 326.621 1.06762 321.345C9.33032 303.385 15.3851 291.346 19.2596 285.097C24.0519 287.411 28.9002 288.594 33.7891 288.594C37.0817 288.594 40.1978 288.182 43.1276 287.345C70.4001 279.553 97.67 273.32 124.937 268.645C156.536 263.574 197.122 258.11 246.706 252.253C268.961 249.911 284.882 248.75 294.531 248.75C297.747 248.75 300.201 248.918 301.946 249.223C304.804 251.219 306.863 253.062 308.204 254.738C309.6 256.483 310.109 257.909 310.109 259.055V261.398C310.109 262.704 309.774 265.008 309.017 268.437C305.121 278.577 301.804 288.337 299.067 297.717C298.26 300.146 297.805 302.316 297.805 304.172C297.805 306.511 298.525 308.652 300.453 309.938L300.557 310.007L300.668 310.062C301.694 310.575 302.779 310.859 303.906 310.859C307.813 310.859 311.785 308.47 315.768 304.513C334.763 290.184 351.703 280.786 366.604 276.201L366.687 276.175L366.768 276.142C373.047 273.591 377.844 271.35 381.099 269.417C382.719 268.455 384.042 267.52 384.985 266.607C385.854 265.765 386.766 264.594 386.766 263.156V262.976L386.733 262.798C386.565 261.872 386.094 260.956 385.525 260.1C384.939 259.217 384.151 258.254 383.194 257.22C381.277 255.15 378.553 252.658 375.058 249.753C368.058 243.936 357.798 236.33 344.306 226.944L344.29 226.933L344.273 226.922C338.129 222.825 331.694 220.727 325 220.727C322.482 220.727 319.808 221.138 316.988 221.931C287.725 225.444 255.349 229.54 219.861 234.22C183.129 238.909 136.049 245.356 78.6234 253.559L78.6098 253.561L78.5963 253.563C59.1991 256.606 40.3653 258.719 22.0944 259.904L15.6272 246.97L15.5947 246.914C12.8253 242.167 9.60931 238.467 5.90815 235.919C4.71225 234.359 2.97855 233.617 0.976562 233.617C-0.150215 233.617 -1.23579 233.901 -2.26162 234.414Z" fill="black"/>
<path fill-rule="evenodd" clip-rule="evenodd" d="M180.03 138.71L179.955 138.719L179.881 138.734C177.845 139.141 176.118 139.685 174.85 140.445C173.572 141.212 172.414 142.436 172.414 144.211C172.414 146.588 173.867 148.836 175.93 150.899C179.638 154.607 184.023 156.592 189.01 156.748C189.906 157.389 190.819 158.171 191.75 159.102L191.966 159.318L229.082 178.707L224.002 183.787C212.832 194.181 196.19 205.804 173.998 218.652L173.915 218.7L173.838 218.755C172.436 219.757 171.308 220.661 170.51 221.459C170.112 221.857 169.746 222.277 169.467 222.715C169.208 223.122 168.898 223.739 168.898 224.484C168.898 226.204 170.298 226.978 171.145 227.261C172.044 227.56 173.184 227.656 174.414 227.656H175.586C177.823 227.656 180.97 227.056 184.905 225.973C188.885 224.879 193.825 223.247 199.712 221.089L199.719 221.086L199.726 221.084C209.192 217.534 218.65 213.198 228.101 208.079L228.2 208.025L252.404 191.139L293.45 216.792L293.461 216.799C299.013 220.367 303.905 222.383 308.008 222.383H308.173L308.337 222.356C311.383 221.848 313.646 220.023 315.07 217.176C315.639 216.039 315.867 214.733 315.867 213.352C315.867 208.531 313.707 202.499 309.756 195.388L309.75 195.378L309.744 195.367C306.493 189.677 302.365 185.481 297.321 182.921C291.231 178.637 284.054 174.696 275.806 171.087C278.557 168.461 281.302 166.084 284.04 163.954L284.227 163.809L284.374 163.624C290.468 156.007 298.304 149.116 307.914 142.966L307.991 142.916L308.064 142.86C311.661 140.062 314.109 137.002 314.109 133.664V132.668L313.948 132.29C313.466 131.166 312.432 130.062 311.229 129.009C309.965 127.904 308.274 126.653 306.188 125.262C302.009 122.476 296.086 119.024 288.448 114.911L288.348 114.857L288.243 114.815C286.028 113.929 283.624 113.5 281.055 113.5C277.593 113.5 273.995 114.366 270.281 116.016L270.176 116.063L270.076 116.122C261.699 121.072 251.552 124.912 239.599 127.612L239.581 127.616L239.563 127.62C218.928 132.681 199.085 136.377 180.03 138.71ZM246.478 160.622C236.576 157.069 227.836 154.198 220.263 152.014C229.867 149.796 241.43 146.884 254.949 143.281H257.031C257.96 143.281 258.618 143.35 259.057 143.445C258.982 143.719 258.84 144.128 258.58 144.702C258.15 145.647 257.484 146.856 256.558 148.342C253.03 152.926 249.67 157.019 246.478 160.622Z" fill="black"/>
</svg>
