<svg width="350" height="350" viewBox="0 0 350 350" fill="none" xmlns="http://www.w3.org/2000/svg">
<path d="M282.625 73.1055C282.625 69.0509 279.804 66.4512 277.259 64.9428C274.958 63.3225 271.608 61.3617 267.344 59.0848C262.936 56.4469 258.977 54.5009 255.55 53.4416C252.42 52.2041 249.427 51.3582 246.605 51.0054L246.296 50.9668H245.984C243.586 50.9668 240.461 51.5354 236.885 52.4286L236.862 52.4344L225.898 55.0654L225.875 55.0712C223.713 55.6118 220.198 56.3189 215.242 57.1937L215.233 57.1952L189.744 61.5898L148.443 69.0592L119.935 73.8837L119.92 73.886C106.078 76.1461 97.5009 77.6175 94.4342 78.2738L79.2951 80.004L79.2869 80.005C76.6617 80.3138 74.2505 80.7791 72.3643 81.5558C70.8961 82.1604 67.4004 83.959 67.4004 88.0469V88.4863C67.4004 91.6759 69.2637 94.0286 71.0912 95.5898C73.288 98.0387 76.5997 100.055 80.4125 101.815L80.475 101.844L80.5382 101.871C84.6333 103.626 87.4455 104.895 89.0608 105.703L89.2955 105.82L89.5413 105.912C92.2277 106.92 94.8958 107.549 97.4492 107.549C99.1765 107.549 101.675 107.154 104.582 106.573L104.858 106.518L115.893 102.986C118.573 102.394 124.029 101.246 132.297 99.5355L132.3 99.535L149.406 96.0259L149.43 96.0211L157.807 94.3459L159.763 103.01C160.04 104.999 160.461 108.79 161.029 114.472L161.038 114.567L161.051 114.662C163.626 133.205 163.641 168.718 163.641 191.678L162.768 223.102C162.193 229.677 161.481 235.336 160.641 240.098L160.636 240.121L160.632 240.145C160.231 242.551 159.744 244.13 159.292 245.079C159.144 245.39 159.026 245.581 158.95 245.689C158.171 245.959 157.453 246.074 156.775 246.074H156.181C154.277 245.492 151.279 244.442 147.105 242.877L146.889 242.796L132.362 238.834L122.825 235.366L122.761 235.344C121.632 234.968 120.325 234.648 118.982 234.648C116.398 234.648 114.124 235.678 112.371 237.431C111.533 238.269 110.467 239.759 110.467 241.846C110.467 244.028 111.623 245.707 112.289 246.563C113.094 247.598 114.144 248.616 115.289 249.597L115.297 249.604L124.04 257.035C129.25 261.724 133.094 265.027 135.344 266.653L143.814 276.817L153.009 286.45C154.16 287.883 155.179 289.092 156.056 290.049C156.842 290.906 157.76 291.839 158.697 292.493C161.361 294.476 164.448 296.064 167.762 296.064C171.321 296.064 174.819 294.367 178.012 292.145C182.085 289.524 185.471 285.476 188.322 280.434C191.366 275.548 193.609 270.807 194.938 266.223C196.648 261.332 197.516 253.976 197.808 244.639L197.809 244.615L197.809 244.591C198.101 231.18 198.248 220.78 198.25 213.408C198.913 200.273 198.464 184.416 197.861 169.355C197.714 165.657 197.557 162.012 197.404 158.463L197.404 158.461L197.404 158.459C196.928 147.386 196.492 137.248 196.492 129.355C196.492 125.184 196.77 121.01 197.327 116.833L197.371 116.504V116.172C197.371 111.625 197.661 108.384 198.131 106.27L198.135 106.252L199.44 100.161C199.742 98.9409 200.008 97.6 200.008 96.3965C200.008 95.0962 199.811 93.6642 199.193 92.2861C198.743 91.1001 198.041 90.0242 197.257 89.0677L220.893 86.8792C229.612 86.2982 237.012 85.863 243.098 85.5728L258.432 85.1347L258.445 85.1343C263.202 84.9856 267.097 84.7224 270.055 84.3226C271.53 84.1234 272.881 83.876 274.042 83.555C275.072 83.2701 276.491 82.7887 277.672 81.8438L277.889 81.6708L278.084 81.475C279.936 79.6235 281.831 77.3383 282.476 74.7576L282.625 74.1605V73.1055Z" fill="black"/>
<path fill-rule="evenodd" clip-rule="evenodd" d="M26.4707 21.8066H26.3238L26.1771 21.8153C23.1064 21.9959 19.9711 22.7973 17.5596 24.9251C14.9925 27.1902 14 30.278 14 33.3984C14 34.3072 14.2221 35.0919 14.3412 35.4823C14.4903 35.971 14.6818 36.471 14.8822 36.9496C15.285 37.9118 15.8467 39.0785 16.5311 40.4093C17.885 43.0419 19.8685 46.6045 22.4553 51.0645C26.1579 59.3572 28.0625 68.8193 28.0625 79.541V203.906C28.0625 237.571 26.619 269.479 23.7365 299.632C20.0002 312.35 17.9551 322.307 17.9551 329.15C17.9551 334.789 20.485 341.982 24.6353 350.283L24.6488 350.31L24.6625 350.337C27.2061 355.274 29.5746 359.229 31.7718 362.018C32.8671 363.408 34.0517 364.679 35.3359 365.642C36.5761 366.573 38.3551 367.549 40.5332 367.549C45.3963 367.549 49.045 364.713 51.5369 360.879C53.4477 357.94 54.9078 354.116 56.0389 349.619C59.8568 350.591 63.7429 351.285 67.6953 351.701L67.9563 351.729H68.2188C74.3747 351.729 83.9741 350.968 96.8584 349.505C124.912 346.875 159.702 344.098 201.236 341.173C223.221 340.06 247.479 339.345 274.011 339.027C278.159 354.378 281.878 366.207 285.173 374.41C286.941 378.81 288.68 382.406 290.421 384.985C291.289 386.27 292.291 387.506 293.465 388.467C294.627 389.417 296.336 390.4 298.492 390.4C304.595 390.4 309.527 386.601 313.399 381.329C317.292 376.028 320.745 368.434 323.884 358.874C331.389 337.246 335.133 314.585 335.133 290.918C335.133 287.538 333.656 254.815 330.733 193.133C328.095 134.207 326.783 97.4214 326.783 82.6172C326.783 67.5106 328.928 55.5176 332.95 46.403L333.088 46.0887L333.183 45.7584C334.36 41.6371 335.257 38.3528 335.862 35.9295C336.164 34.7212 336.405 33.6835 336.574 32.8409C336.716 32.1312 336.891 31.1707 336.891 30.3223C336.891 27.8986 335.924 25.6989 334.763 23.8751C333.575 22.0075 331.926 20.1318 329.968 18.2544C326.052 14.4976 320.371 10.236 313.091 5.48162L312.851 5.32441L312.593 5.19583C306.045 1.92175 300.353 -0.590897 295.55 -2.29515C290.84 -3.96651 286.608 -5 283.111 -5C278.655 -5 273.04 -3.41562 266.603 -0.805418C254.298 2.31269 234.738 5.62312 207.764 9.10361L207.738 9.10707L52.6209 30.8321C50.8059 29.7662 48.6206 28.6658 46.1178 27.5282L46.0987 27.5196L46.0795 27.511C38.1417 23.9831 31.4306 21.8066 26.4707 21.8066ZM103.816 322.851L103.808 322.852L103.801 322.853C89.4078 324.161 74.1771 325.118 58.1074 325.721C58.5602 316.198 58.9092 305.657 59.1551 294.1L59.1562 294.047V126.123C59.1562 105.651 60.7432 81.391 63.9381 53.315C76.9124 51.8204 101.298 48.4383 136.998 43.1885C209.709 34.3936 255.796 30.0488 275.641 30.0488C278.463 30.0488 281.131 31.0952 283.781 33.6713C287.551 38.4902 289.977 47.368 289.977 61.5234V61.6907L289.988 61.8575C294.375 127.37 296.862 196.113 297.447 268.088C297.445 276.457 296.327 287.527 294.022 301.389C293.033 305.813 291.933 309.461 290.759 312.401C290.418 312.173 290.07 311.948 289.716 311.727L289.474 311.575L289.216 311.452C282.371 308.193 275.042 306.572 267.291 306.572C256.847 306.572 246.12 307.169 235.113 308.359L235.068 308.364L235.023 308.37C184.087 314.81 140.354 319.636 103.816 322.851Z" fill="black"/>
</svg>
