<svg width="350" height="350" viewBox="0 0 350 350" fill="none" xmlns="http://www.w3.org/2000/svg">
<path d="M140.727 -3.76562C138.205 -3.76562 135.658 -3.47971 133.57 -2.475C130.924 -1.3193 128.489 0.534544 127.32 3.45765L126.998 4.26229V6.44727C126.998 8.97804 128.131 12.1069 129.578 15.2953L134.777 27.4266C136.145 31.2712 137.387 35.4025 138.5 39.8243C138.73 41.5601 138.863 44.0311 138.863 47.3164C138.863 50.716 138.721 54.8707 138.432 59.7963L138.424 59.9283V60.0605C138.424 69.3879 138.278 77.823 137.988 85.3697C137.698 92.33 137.263 100.314 136.682 109.325L135.318 121.602L112.405 125.039L112.39 125.042C104.212 126.21 92.3715 127.818 76.8601 129.866L76.8561 129.867L46.5903 133.815L30.1311 135.594L29.8871 135.648C28.3317 135.994 26.828 136.477 25.5224 137.189C24.2229 137.898 22.843 138.988 22.0044 140.665L21.5293 141.615V143.557C21.5293 145.555 22.4757 147.2 23.2689 148.291C24.1246 149.467 25.2681 150.626 26.5586 151.757C29.982 154.831 34.8438 157.687 40.8819 160.404L40.8914 160.409L40.9009 160.413C46.299 162.812 51.119 164.316 55.0332 164.316H55.9121C57.9589 164.316 61.0672 163.752 64.8341 162.883L64.9471 162.857L65.0585 162.825C69.0275 161.691 72.6684 160.853 75.9878 160.3L75.9981 160.298L91.4001 157.658L129.227 150.983L126.312 161.583C124.013 168.469 120.844 176.969 116.793 187.098C112.481 197.155 107.447 207.225 101.687 217.308C95.6248 227.409 89.7279 236.325 83.9985 244.066C77.66 251.84 70.4435 259.922 62.3428 268.312C54.2228 276.722 45.9619 284.693 37.5605 292.227C29.1526 299.474 22.1577 304.886 16.5456 308.534L16.5336 308.541L-2.75627 321.255C-10.1724 325.819 -14.4876 328.495 -15.5344 329.188L-19.975 332.013C-20.8665 332.407 -21.7803 333.03 -22.5048 333.996C-23.4184 335.214 -23.7344 336.582 -23.7344 337.795C-23.7344 338.979 -23.3261 340.048 -23.0083 340.736C-22.6454 341.852 -21.9853 343.027 -20.837 343.946C-19.4906 345.023 -17.9446 345.371 -16.5977 345.371C-15.4071 345.371 -14.3326 344.958 -13.6451 344.64L-9.83198 343.496C-7.48335 343.042 -3.07172 341.58 2.95777 339.387C9.62047 336.964 18.2625 333.084 28.8295 327.803C39.4872 323.062 49.2891 318.013 58.2273 312.65C67.2319 307.247 75.7828 301.096 83.879 294.199C91.9808 287.298 99.9041 279.37 107.653 270.43C115.385 261.507 122.954 251.711 130.36 241.045C137.788 230.349 143.513 220.58 147.47 211.755L147.481 211.729L147.492 211.703C151.33 202.846 154.732 194.125 157.694 185.542L162.95 172.14L165.333 176.46L165.351 176.492L185.562 213.839L185.576 213.865C192.639 226.518 199.417 238.013 205.911 248.344L205.921 248.36L227.074 281.412L227.128 281.489C235.353 293.239 242.426 302.966 248.341 310.656C254.427 318.566 260.731 324.492 267.318 328.115L267.395 328.157L267.474 328.197C273.961 331.44 281.855 333.447 291.011 334.362L291.04 334.365L291.069 334.368C297.931 334.965 304.653 335.264 311.234 335.264H317.987L318.147 335.252C326.44 334.66 335.309 333.773 344.752 332.592L344.798 332.586L362.82 329.949C365.882 329.558 368.715 328.415 371.283 326.611C373.75 325.071 375.5 322.599 375.5 319.338V318.898C375.5 316.907 374.609 315.31 373.618 314.177C372.651 313.073 371.415 312.195 370.156 311.476L370.048 311.414L369.936 311.358C367.426 310.103 363.922 308.584 359.488 306.81C355.339 305.151 348.059 301.592 337.505 296.022L337.439 295.988L337.373 295.955C326.651 290.739 315.327 284.643 303.4 277.661C291.551 270.725 280.587 263.367 270.502 255.589C260.75 247.842 250.366 238.185 239.35 226.59C228.282 214.939 219.731 205.517 213.668 198.304C207.873 190.768 201.194 181.621 193.627 170.852L193.62 170.843L193.614 170.833C187.38 162.06 181.608 153.659 176.297 145.63L189.062 144.52L189.106 144.515C205.488 142.76 217.721 141.596 225.842 141.015L225.862 141.014L261.046 138.815L279.91 137.06C283.023 136.91 285.704 136.682 287.921 136.366C290.089 136.056 292.095 135.624 293.671 134.949C296.64 133.676 299.048 131.505 300.123 128.28L300.354 127.588V126.418C300.354 123.633 298.738 121.38 297.257 119.813C295.659 118.12 293.455 116.43 290.827 114.73L290.734 114.669L290.637 114.613C284.835 111.254 278.866 108.498 272.731 106.35C266.866 104.298 261.976 103.021 258.5 103.021C255.209 103.021 249.997 104.057 243.302 105.804C236.763 107.51 229.472 108.942 221.419 110.094L175.982 115.969L179.055 77.9414L179.934 61.6666C180.513 53.8654 181.226 47.9515 182.047 43.8349C182.867 40.0202 184.103 36.026 185.774 31.849L185.805 31.7707L185.834 31.6912C187.322 27.5247 188.293 23.8265 188.293 20.9492C188.293 19.7643 188.031 18.6495 187.59 17.632C186.401 13.7051 182.82 10.5484 178.756 7.9354C174.449 5.16655 170.315 3.07601 166.366 1.75425C162.15 0.250885 158.155 -0.836298 154.392 -1.47664L147.306 -3.24812L147.076 -3.28094C144.85 -3.59887 142.731 -3.76562 140.727 -3.76562Z" fill="black"/>
</svg>
