<svg width="350" height="350" viewBox="0 0 350 350" fill="none" xmlns="http://www.w3.org/2000/svg">
<path d="M9.67969 75.5625C17.9805 75.5625 27.7461 79.2246 38.9766 86.5488C45.8125 91.4316 50.9395 95.582 54.3574 99C83.166 93.6289 112.219 88.0137 141.516 82.1543V77.0273C139.562 54.5664 134.68 36.0117 126.867 21.3633C122.473 13.5508 120.275 9.15625 120.275 8.17969C120.275 2.80859 123.205 0.123047 129.064 0.123047C139.318 0.123047 150.305 3.78516 162.023 11.1094C179.113 23.3164 187.658 32.1055 187.658 37.4766C183.752 54.5664 181.799 65.3086 181.799 69.7031V74.0977C192.053 72.1445 201.818 70.1914 211.096 68.2383C231.604 65.3086 246.496 61.4023 255.773 56.5195C265.539 51.6367 271.154 49.1953 272.619 49.1953C282.385 49.1953 295.324 54.5664 311.438 65.3086C328.527 76.5391 337.072 84.1074 337.072 88.0137C337.072 91.4316 335.363 95.8262 331.945 101.197C327.062 107.057 324.133 111.207 323.156 113.648V179.566C323.156 217.164 319.25 245.973 311.438 265.992C299.719 285.523 287.756 295.289 275.549 295.289C264.318 295.289 240.148 271.119 203.039 222.779C203.039 218.873 204.016 216.92 205.969 216.92C237.219 222.291 256.75 224.977 264.562 224.977C270.422 224.977 274.572 219.605 277.014 208.863C277.99 198.121 278.479 186.402 278.479 173.707C278.479 154.176 277.258 135.377 274.816 117.311C271.398 97.7793 263.83 88.0137 252.111 88.0137C246.252 88.0137 222.814 91.1875 181.799 97.5352C181.799 180.263 190.805 238.596 174.475 320.25C159.729 358.036 144.785 354.359 141.516 315.123V104.127C100.012 112.428 72.668 117.311 59.4844 118.775C57.043 129.518 55.8223 136.598 55.8223 140.016V230.104C55.8223 250.123 53.625 265.748 49.2305 276.979C42.3945 285.279 35.8027 289.43 29.4551 289.43C23.5957 289.43 19.9336 278.688 18.4688 257.203V120.24C17.0039 108.033 12.8535 98.5117 6.01758 91.6758C2.11133 87.7695 0.158203 85.5723 0.158203 85.084C0.158203 78.7363 3.33203 75.5625 9.67969 75.5625Z" fill="black"/>
</svg>
