<svg width="350" height="350" viewBox="0 0 350 350" fill="none" xmlns="http://www.w3.org/2000/svg">
<path fill-rule="evenodd" clip-rule="evenodd" d="M48.7411 143.372C48.7374 143.374 48.7338 143.377 48.7301 143.379C46.5319 144.978 44.6033 146.236 42.9684 147.108C41.4538 147.916 39.7644 148.633 38.1875 148.633H37.6016C36.9438 148.633 35.8995 148.466 35.0408 147.608C34.1821 146.749 34.0156 145.705 34.0156 145.047C34.0156 143.281 34.8258 141.301 35.8257 139.402C36.8843 137.39 38.4217 134.991 40.3934 132.227L46.7889 122.343C50.6279 116.198 55.6575 107.111 61.8888 95.0381L61.9061 95.0046L61.9243 94.9716C62.1856 94.4951 62.4471 94.0182 62.7089 93.541C75.3897 70.4229 88.5254 46.4757 94.809 21.4102L98.8824 -0.702631C99.6453 -6.05731 100.016 -10.5754 100.016 -14.2812V-17.2109C100.016 -19.8686 100.456 -22.3156 101.504 -24.412C102.336 -26.0749 103.836 -27.1016 105.377 -27.7438C106.928 -28.3901 108.815 -28.7746 110.92 -28.9851L111.069 -29H111.219C115.677 -29 121.001 -26.5994 126.945 -22.6368L127.048 -22.5681L144.211 -8.95647L144.28 -8.89395C146.325 -7.05388 147.997 -5.29004 149.234 -3.60417C150.452 -1.94274 151.375 -0.18413 151.678 1.6318L151.719 1.87671V3.88281C151.719 6.22145 151.254 8.52767 150.361 10.7848C150.033 11.7178 149.392 12.8713 148.637 14.0977C147.827 15.4136 146.741 17.0425 145.393 18.9718L136.645 34.1343L117.707 64.6727L218.774 31.9651L218.795 31.9582L254.098 20.2477C256.847 19.3314 260.123 18.9219 263.836 18.9219C268.396 18.9219 272.777 19.5425 276.967 20.7954C281.621 22.0702 286.951 24.5577 292.918 28.1385L292.98 28.1752L293.039 28.2148C295.473 29.8376 297.451 31.4056 298.853 32.9241C300.178 34.3599 301.406 36.1979 301.406 38.3281V39.4918L301.192 40.0282C299.893 43.2743 296.82 45.0396 293.274 45.9261L293.192 45.9467L280.775 48.3118L256.874 52.3924L197.189 68.9639C199.187 69.8207 201.14 70.5959 203.049 71.29C207.525 72.9178 211.197 74.8214 213.905 77.0781C216.363 79.1267 218.365 81.4022 218.996 83.9286L219.086 84.2869V85.2422C219.086 86.746 218.652 88.4088 218.016 90.1041C217.364 91.8436 216.415 93.8332 215.204 96.0537L215.19 96.0798L215.175 96.1056C213.77 98.5643 212.497 101.618 211.383 105.306L209.653 113.956C209.331 115.566 209.125 119.361 209.125 125.672V125.762L207.611 150.995L252.34 139.029L252.378 139.02C256.335 138.071 265.985 135.404 276.432 132.517C278.707 131.889 281.019 131.25 283.318 130.616C289.722 128.85 296.006 127.129 301.034 125.801C305.797 124.542 309.663 123.571 311.344 123.305C313.091 122.879 314.85 122.664 316.617 122.664C321.362 122.664 326.414 123.74 331.744 125.789C334.996 127.009 337.679 128.365 339.603 129.928C341.525 131.49 343.055 133.577 343.055 136.211V136.984L343.031 137.169C342.776 139.215 342.048 141.083 340.765 142.652C339.489 144.211 337.792 145.317 335.835 146.051L335.756 146.081L326.275 149.043L326.249 149.051C321.249 150.514 313.408 152.84 304.91 155.361C299.806 156.875 294.465 158.459 289.361 159.969C282.565 161.979 276.191 163.856 271.368 165.256C268.957 165.955 266.926 166.538 265.421 166.958C264.167 167.309 263.097 167.6 262.532 167.716L205.157 182.605L200.185 205.972L237.885 223.162C243.466 225.556 249.8 228.726 256.879 232.659C260.644 234.75 267.245 239.65 273.546 244.674C279.861 249.708 286.168 255.104 289.428 258.357C295.516 264.047 300.064 270.221 302.983 276.891L303.002 276.935L303.02 276.98C305.504 283.19 306.75 289.622 306.75 296.258C306.75 299.501 305.953 304.981 304.961 310.038C303.979 315.047 302.693 320.222 301.551 322.734L301.481 322.889L301.393 323.036C298.882 327.22 295.826 330.323 292.027 331.408L291.623 331.523H289.445C285.795 331.523 281.86 329.742 277.791 326.899C272.832 323.587 268.682 319.449 265.359 314.501C261.346 309.664 255.846 301.789 248.89 290.971C241.357 280.802 236.686 274.387 234.948 271.813L192.574 227.272C191.182 231.004 189.418 235.938 187.279 242.087C184.113 251.189 179.971 261.047 174.863 271.659C170.052 282.472 162.884 293.993 153.419 306.219C143.961 318.436 134.841 328.362 126.055 335.95C117.348 343.47 108.24 350.202 98.7306 356.146L98.7075 356.16L98.6841 356.174C88.8961 362.047 80.9873 366.402 74.9915 369.202C74.9849 369.205 74.9783 369.208 74.9718 369.211L57.0224 377.896C55.738 378.729 54.2163 379.453 52.6094 379.453C50.3154 379.453 48.5358 378.27 47.3278 376.569C46.3643 375.458 46.0938 374.094 46.0938 372.938C46.0938 369.959 47.9785 367.814 50.3029 366.371L67.2217 352.953L67.2952 352.902C74.8725 347.598 83.3043 339.949 92.5925 329.887C101.911 319.792 110.246 309.905 117.604 300.224C124.89 290.637 131.226 280.08 136.61 268.544L136.643 268.471L136.681 268.401C142.859 256.816 147.667 245.653 151.12 234.91C154.624 224.011 157.337 214.703 159.269 206.976L162.052 195.846L122.699 208.791L122.694 208.793C121.966 209.036 120.793 209.417 119.294 209.905C110.771 212.68 91.7098 218.885 83.9062 222.462L83.8938 222.467L61.5094 232.481L61.3996 232.521C55.8664 234.497 51.325 235.756 47.8721 236.188L47.6868 236.211H45.1562C41.6519 236.211 38.1751 235.553 34.7404 234.267C30.1356 232.59 24.8399 229.718 18.8828 225.746L18.8425 225.719L18.8032 225.691C13.1851 221.678 9.21882 217.503 7.7399 213.066L7.68082 212.889L7.6442 212.706C7.23767 210.673 7 208.889 7 207.43C7 205.944 7.24509 204.473 7.90265 203.158L7.95419 203.055L8.01346 202.957C9.12954 201.096 11.1396 199.958 13.2109 199.195C15.369 198.4 18.1113 197.826 21.3466 197.422L21.367 197.419L42.5399 195.067L42.5988 195.062C47.8437 194.688 54.5059 193.554 62.6255 191.621C70.7796 189.679 79.7206 187.347 89.45 184.623C89.4549 184.622 89.4597 184.62 89.4645 184.619L134.977 171.423L167.501 162.052C167.813 155.925 167.969 150.44 167.969 145.594V145.479L167.978 145.364C168.36 140.388 168.555 134.22 168.555 126.844V119.812C168.555 115.227 168.364 111.475 167.999 108.526C167.246 104.019 166.312 99.9105 165.204 96.1935C163.717 92.4959 161.858 88.7817 159.621 85.0509L157.8 82.1365C156.213 82.4892 153.901 83.0568 151.074 83.7788C147.561 84.6757 143.403 85.7707 139.156 86.889C138.287 87.1179 137.414 87.3478 136.542 87.5771C131.422 88.924 126.338 90.253 122.311 91.2458C120.3 91.7417 118.528 92.1596 117.136 92.4553C115.884 92.7212 114.593 92.9688 113.773 92.9688C110.085 92.9688 106.894 92.6472 104.659 91.6804L100.383 90.9028C96.9351 95.3375 93.7852 99.1657 90.9348 102.38C88.0622 106.454 83.2949 111.994 76.7276 118.949C70.4583 126 65.2563 131.218 61.1553 134.499L61.0915 134.55L48.7411 143.372Z" fill="black"/>
</svg>
