<svg width="350" height="350" viewBox="0 0 350 350" fill="none" xmlns="http://www.w3.org/2000/svg">
<path d="M9.67773 75.5645C17.9785 75.5645 27.7441 79.2266 38.9746 86.5508C45.8105 91.4336 50.9375 95.584 54.3555 99.002C83.1641 93.6309 112.217 88.0156 141.514 82.1562V77.0293C139.561 54.5684 134.678 36.0137 126.865 21.3652C122.471 13.5527 120.273 9.1582 120.273 8.18164C120.273 2.81055 123.203 0.125 129.062 0.125C139.316 0.125 150.303 3.78711 162.021 11.1113C179.111 23.3184 187.656 32.1074 187.656 37.4785C183.75 54.5684 181.797 65.3105 181.797 69.7051V74.0996C192.051 72.1465 201.816 70.1934 211.094 68.2402C231.602 65.3105 246.494 61.4043 255.771 56.5215C265.537 51.6387 271.152 49.1973 272.617 49.1973C282.383 49.1973 295.322 54.5684 311.436 65.3105C328.525 76.541 337.07 84.1094 337.07 88.0156C337.07 91.4336 335.361 95.8281 331.943 101.199C327.061 107.059 324.131 111.209 323.154 113.65V179.568C323.154 217.166 319.248 245.975 311.436 265.994C299.717 285.525 287.754 295.291 275.547 295.291C264.316 295.291 240.146 271.121 203.037 222.781C203.037 218.875 204.014 216.922 205.967 216.922C237.217 222.293 256.748 224.979 264.561 224.979C270.42 224.979 274.57 219.607 277.012 208.865C277.988 198.123 278.477 186.404 278.477 173.709C278.477 154.178 277.256 135.379 274.814 117.312C271.396 97.7812 263.828 88.0156 252.109 88.0156C246.25 88.0156 222.812 91.1895 181.797 97.5371C181.797 180.265 190.803 238.598 174.473 320.252C159.727 358.038 144.783 354.361 141.514 315.125V104.129C100.01 112.43 72.666 117.312 59.4824 118.777C57.041 129.52 55.8203 136.6 55.8203 140.018V230.105C55.8203 250.125 53.623 265.75 49.2285 276.98C42.3926 285.281 35.8008 289.432 29.4531 289.432C23.5938 289.432 19.9316 278.689 18.4668 257.205V120.242C17.002 108.035 12.8516 98.5137 6.01562 91.6777C2.10938 87.7715 0.15625 85.5742 0.15625 85.0859C0.15625 78.7383 3.33008 75.5645 9.67773 75.5645Z" fill="black"/>
</svg>
