<svg width="350" height="350" viewBox="0 0 350 350" fill="none" xmlns="http://www.w3.org/2000/svg">
<path d="M140.723 -3.76758C138.201 -3.76758 135.654 -3.48166 133.566 -2.47695C130.92 -1.32125 128.485 0.53259 127.316 3.4557L126.994 4.26033V6.44531C126.994 8.97608 128.128 12.1049 129.574 15.2934L134.773 27.4247C136.141 31.2693 137.383 35.4006 138.496 39.8223C138.726 41.5582 138.859 44.0291 138.859 47.3145C138.859 50.714 138.717 54.8687 138.428 59.7943L138.42 59.9264V60.0586C138.42 69.3859 138.274 77.821 137.984 85.3678C137.694 92.3281 137.259 100.312 136.678 109.323L135.314 121.6L112.401 125.037L112.386 125.04C104.208 126.208 92.3676 127.816 76.8562 129.864L76.8522 129.865L46.5864 133.813L30.1272 135.592L29.8832 135.646C28.3278 135.992 26.8241 136.475 25.5185 137.187C24.219 137.896 22.8391 138.986 22.0005 140.663L21.5254 141.613V143.555C21.5254 145.553 22.4718 147.198 23.265 148.289C24.1207 149.466 25.2642 150.624 26.5547 151.755C29.9781 154.829 34.8399 157.685 40.878 160.402L40.8875 160.407L40.897 160.411C46.2951 162.81 51.1151 164.314 55.0293 164.314H55.9082C57.955 164.314 61.0633 163.75 64.8302 162.881L64.9432 162.855L65.0546 162.823C69.0236 161.689 72.6645 160.851 75.9839 160.298L75.9942 160.296L91.3962 157.656L129.223 150.981L126.308 161.581C124.009 168.468 120.84 176.967 116.79 187.096C112.477 197.153 107.443 207.223 101.683 217.306C95.6209 227.407 89.724 236.323 83.9946 244.064C77.6561 251.838 70.4396 259.92 62.3389 268.31C54.2189 276.72 45.958 284.691 37.5566 292.225C29.1487 299.472 22.1538 304.884 16.5417 308.532L16.5297 308.539L-2.76018 321.253C-10.1763 325.817 -14.4915 328.494 -15.5383 329.186L-19.9789 332.012C-20.8704 332.405 -21.7842 333.028 -22.5087 333.994C-23.4223 335.213 -23.7383 336.58 -23.7383 337.793C-23.7383 338.977 -23.33 340.046 -23.0122 340.734C-22.6493 341.85 -21.9892 343.025 -20.8409 343.944C-19.4945 345.021 -17.9485 345.369 -16.6016 345.369C-15.411 345.369 -14.3365 344.956 -13.649 344.638L-9.83589 343.494C-7.48725 343.04 -3.07562 341.578 2.95386 339.385C9.61656 336.963 18.2586 333.082 28.8256 327.801C39.4833 323.06 49.2852 318.011 58.2234 312.648C67.228 307.245 75.7789 301.094 83.8751 294.197C91.9769 287.296 99.9002 279.368 107.649 270.428C115.381 261.505 122.95 251.709 130.356 241.043C137.784 230.347 143.509 220.578 147.466 211.753L147.477 211.727L147.488 211.701C151.327 202.844 154.728 194.123 157.69 185.54L162.946 172.138L165.329 176.458L165.347 176.49L185.558 213.837L185.573 213.863C192.635 226.517 199.413 238.011 205.907 248.342L205.917 248.358L227.071 281.41L227.124 281.487C235.349 293.237 242.422 302.964 248.337 310.654C254.423 318.565 260.727 324.49 267.314 328.113L267.391 328.155L267.47 328.195C273.957 331.438 281.851 333.445 291.007 334.36L291.036 334.363L291.065 334.366C297.927 334.963 304.649 335.262 311.23 335.262H317.983L318.143 335.25C326.436 334.658 335.305 333.771 344.748 332.59L344.794 332.584L362.816 329.947C365.878 329.556 368.711 328.413 371.279 326.609C373.746 325.069 375.496 322.597 375.496 319.336V318.896C375.496 316.905 374.605 315.308 373.614 314.175C372.648 313.071 371.412 312.193 370.153 311.474L370.044 311.412L369.932 311.356C367.422 310.101 363.918 308.582 359.484 306.808C355.335 305.149 348.055 301.59 337.501 296.02L337.435 295.986L337.369 295.953C326.647 290.737 315.323 284.641 303.396 277.659C291.547 270.723 280.583 263.365 270.498 255.587C260.746 247.84 250.362 238.183 239.346 226.588C228.278 214.937 219.727 205.516 213.664 198.302C207.869 190.766 201.19 181.619 193.623 170.85L193.617 170.841L193.61 170.831C187.376 162.058 181.604 153.657 176.293 145.628L189.058 144.518L189.102 144.513C205.484 142.758 217.717 141.594 225.838 141.013L225.858 141.012L261.042 138.813L279.906 137.058C283.019 136.908 285.701 136.681 287.917 136.364C290.085 136.054 292.091 135.622 293.667 134.947C296.637 133.674 299.044 131.503 300.119 128.279L300.35 127.586V126.416C300.35 123.631 298.734 121.378 297.253 119.811C295.655 118.118 293.451 116.428 290.824 114.728L290.73 114.667L290.634 114.611C284.832 111.252 278.862 108.496 272.727 106.348C266.862 104.296 261.972 103.02 258.496 103.02C255.206 103.02 249.993 104.055 243.298 105.802C236.759 107.508 229.468 108.94 221.415 110.092L175.978 115.967L179.051 77.9394L179.93 61.6647C180.509 53.8634 181.222 47.9496 182.043 43.833C182.863 40.0183 184.099 36.0241 185.77 31.847L185.801 31.7687L185.83 31.6893C187.318 27.5227 188.289 23.8245 188.289 20.9473C188.289 19.7624 188.027 18.6475 187.586 17.6301C186.397 13.7032 182.816 10.5465 178.752 7.93345C174.445 5.1646 170.311 3.07406 166.362 1.75229C162.146 0.248932 158.151 -0.838252 154.388 -1.47859L147.302 -3.25007L147.072 -3.2829C144.846 -3.60082 142.727 -3.76758 140.723 -3.76758Z" fill="black"/>
</svg>
