<svg width="350" height="350" viewBox="0 0 350 350" fill="none" xmlns="http://www.w3.org/2000/svg">
<path d="M173.363 97.9492C178.897 102.376 183.601 105.973 187.475 108.74C191.348 111.507 195.499 115.104 199.926 119.531C204.353 123.958 216.804 137.516 237.279 160.205C257.755 182.894 275.186 201.432 289.574 215.82C303.962 229.655 316.967 241.276 328.588 250.684C340.209 260.645 355.704 271.712 375.072 283.887C394.441 296.061 409.105 304.639 419.066 309.619L475.512 334.521L493.773 342.822C499.307 345.589 502.628 347.803 503.734 349.463C504.288 350.57 504.564 351.676 504.564 352.783V355.273C504.011 356.38 501.521 357.487 497.094 358.594L487.133 361.914L459.74 367.725C449.226 369.938 437.328 372.152 424.047 374.365C412.426 376.025 403.295 376.855 396.654 376.855H392.504C384.757 376.855 378.393 376.302 373.412 375.195C368.432 372.982 362.898 369.938 356.811 366.064C350.723 362.191 341.039 351.953 327.758 335.352C314.477 319.857 296.768 296.615 274.633 265.625L233.129 206.689C213.207 178.467 199.649 160.758 192.455 153.564L163.402 122.852L143.48 161.035L120.238 201.709C111.384 217.757 101.423 234.082 90.3555 250.684C79.8411 267.285 69.3268 282.78 58.8125 297.168C47.7448 310.449 36.4004 323.177 24.7793 335.352C13.1582 347.526 0.983724 358.594 -11.7441 368.555C-24.472 378.516 -38.0299 387.646 -52.418 395.947L-60.7188 400.928C-63.4857 402.588 -65.9759 403.418 -68.1895 403.418C-69.8496 403.418 -71.2331 402.865 -72.3398 401.758C-73.4466 400.651 -74 399.544 -74 398.438C-74 396.777 -72.8932 394.84 -70.6797 392.627L-60.7188 381.836L-40.7969 359.424C-27.5156 344.482 -14.2344 327.881 -0.953125 309.619C12.3281 291.357 24.7793 273.372 36.4004 255.664C48.0215 239.062 57.9824 223.014 66.2832 207.52C74.584 193.132 82.6081 177.637 90.3555 161.035C98.1029 144.987 103.913 131.982 107.787 122.021C111.661 112.614 115.535 102.376 119.408 91.3086C123.282 80.2409 125.772 71.11 126.879 63.916C128.539 56.722 130.199 48.6979 131.859 39.8438C132.966 30.9896 133.52 22.9655 133.52 15.7715C133.52 8.57747 134.35 4.15039 136.01 2.49023C137.67 0.830078 140.714 0 145.141 0C148.461 0 153.718 2.21354 160.912 6.64062C168.106 9.96094 174.747 14.6647 180.834 20.752C186.921 26.2858 191.625 31.543 194.945 36.5234C198.266 41.5039 199.926 45.931 199.926 49.8047C199.926 52.0182 197.989 55.8919 194.115 61.4258C190.242 66.9596 184.708 76.3672 177.514 89.6484L173.363 97.9492Z" fill="black"/>
</svg>
