<svg width="350" height="350" viewBox="0 0 350 350" fill="none" xmlns="http://www.w3.org/2000/svg">
<path d="M225.746 322.402C225.004 331.309 223.767 337.37 222.035 340.586C220.551 343.555 219.066 345.039 217.582 345.039C216.345 345.039 215.108 344.297 213.871 342.812C211.645 339.596 210.16 334.03 209.418 326.113C208.428 309.538 207.934 293.333 207.934 277.5C208.455 244.623 208.873 241.664 207.934 208.789C192.842 209.531 177.999 210.892 163.402 212.871C157.217 213.118 151.033 213.737 144.848 214.727C143.858 223.633 142.126 232.663 139.652 241.816C138.168 247.754 135.694 254.434 132.23 261.855C125.551 275.957 116.15 289.564 104.027 302.676C92.8945 314.551 79.5352 325.189 63.9492 334.59C56.2799 338.548 50.4661 340.651 46.5078 340.898C44.5286 340.898 43.5391 340.527 43.5391 339.785C43.5391 339.043 44.2812 337.93 45.7656 336.445C49.4766 333.477 53.0638 330.384 56.5273 327.168C61.2279 323.457 65.4336 319.993 69.1445 316.777C83.4935 303.418 94.6263 290.182 102.543 277.07C111.697 261.237 118.747 243.796 123.695 224.746C123.943 222.52 124.438 220.046 125.18 217.324C107.367 219.551 90.2969 222.396 73.9688 225.859C72.237 226.354 70.3815 226.602 68.4023 226.602C65.4336 226.602 62.2174 226.107 58.7539 225.117C54.0534 223.633 49.724 220.911 45.7656 216.953C43.7865 214.974 42.7969 213.366 42.7969 212.129C42.7969 210.397 44.6523 209.408 48.3633 209.16L128.148 200.625C131.269 179.676 134.999 157.783 121.84 138.984C121.592 138.242 121.345 137.747 121.098 137.5C120.355 137.5 119.861 137.624 119.613 137.871C116.645 138.118 113.799 138.242 111.078 138.242C105.883 138.242 101.182 137.747 96.9766 136.758C91.5339 135.273 87.0807 133.047 83.6172 130.078C80.8958 127.604 79.5352 125.749 79.5352 124.512C79.5352 123.027 81.2669 122.285 84.7305 122.285H87.6992C117.387 121.543 145.095 119.316 170.824 115.605C193.832 112.389 216.098 107.936 237.621 102.246C241.579 101.009 245.414 100.391 249.125 100.391C253.083 100.391 256.918 101.009 260.629 102.246C267.556 104.473 271.885 107.194 273.617 110.41C273.865 110.905 273.988 111.4 273.988 111.895C273.988 113.626 273.122 115.234 271.391 116.719C268.917 118.945 258.155 121.172 239.105 123.398C231.684 123.646 224.633 124.512 217.953 125.996C222.406 127.728 226.488 130.078 230.199 133.047C233.663 135.521 235.395 138.118 235.395 140.84C235.395 141.829 235.147 142.819 234.652 143.809C227.979 157.156 227.967 174.146 227.602 188.75C250.857 185.781 270.896 183.06 287.719 180.586C289.698 180.339 291.553 180.215 293.285 180.215C297.243 180.215 300.831 180.71 304.047 181.699C309.984 183.926 316.664 188.132 324.086 194.316C327.549 197.038 329.281 199.635 329.281 202.109C329.281 203.099 329.034 203.965 328.539 204.707C327.549 206.934 324.086 208.047 318.148 208.047C311.469 208.047 294.77 207.923 268.051 207.676C254.444 207.676 240.837 207.799 227.23 208.047C227.23 256.059 229.804 274.52 225.746 322.402ZM207.562 191.348C207.391 174.16 212.037 145.052 196.43 133.047C194.945 131.562 194.079 130.202 193.832 128.965C177.504 130.449 161.547 132.181 145.961 134.16C147.445 134.902 149.548 136.016 152.27 137.5C154.991 138.984 156.352 141.087 156.352 143.809C156.352 145.046 156.104 146.406 155.609 147.891C151.592 160.277 148.409 174.897 147.816 187.637C147.816 191.348 147.445 195.059 146.703 198.77C157.836 197.78 168.969 196.543 180.102 195.059C189.255 193.574 198.409 192.337 207.562 191.348Z" fill="black"/>
<path d="M329.281 202.109C329.281 199.635 327.549 197.038 324.086 194.316C316.664 188.132 309.984 183.926 304.047 181.699C300.831 180.71 297.243 180.215 293.285 180.215C291.553 180.215 289.698 180.339 287.719 180.586C270.896 183.06 250.857 185.781 227.602 188.75C227.967 174.146 227.979 157.156 234.652 143.809C235.147 142.819 235.395 141.829 235.395 140.84C235.395 138.118 233.663 135.521 230.199 133.047C226.488 130.078 222.406 127.728 217.953 125.996C224.633 124.512 231.684 123.646 239.105 123.398C258.155 121.172 268.917 118.945 271.391 116.719C273.122 115.234 273.988 113.626 273.988 111.895C273.988 111.4 273.865 110.905 273.617 110.41C271.885 107.194 267.556 104.473 260.629 102.246C256.918 101.009 253.083 100.391 249.125 100.391C245.414 100.391 241.579 101.009 237.621 102.246C216.098 107.936 193.832 112.389 170.824 115.605C145.095 119.316 117.387 121.543 87.6992 122.285H84.7305V117.285H87.6465C117.137 116.545 144.622 114.332 170.11 110.656L170.121 110.655L170.132 110.653C192.924 107.467 214.968 103.06 236.268 97.4326C240.606 96.0902 244.897 95.3906 249.125 95.3906C253.596 95.3906 257.947 96.0897 262.158 97.4873L262.159 97.4863C262.167 97.4888 262.174 97.4917 262.182 97.4941C262.191 97.4973 262.201 97.4998 262.21 97.5029L262.209 97.5039C269.067 99.7143 274.927 102.798 277.755 107.571L278.02 108.04L278.056 108.106L278.089 108.174C278.642 109.28 278.988 110.536 278.988 111.895C278.988 115.47 277.155 118.327 274.734 120.434L274.735 120.436C274.72 120.45 274.703 120.463 274.688 120.477C274.673 120.489 274.659 120.502 274.645 120.515L274.644 120.514C273.22 121.755 271.285 122.553 269.575 123.128C267.655 123.774 265.266 124.378 262.477 124.955C256.885 126.112 249.266 127.245 239.686 128.364L239.479 128.389L239.272 128.396C237.097 128.468 234.959 128.596 232.857 128.778C232.972 128.868 233.087 128.957 233.201 129.048C237.173 131.91 240.395 135.793 240.395 140.84C240.395 142.693 239.925 144.444 239.124 146.045C233.841 156.611 233.097 169.873 232.744 183.047C253.535 180.368 271.616 177.9 286.991 175.639L287.045 175.631L287.099 175.625C289.253 175.356 291.318 175.215 293.285 175.215C297.383 175.215 301.236 175.695 304.807 176.71L305.518 176.92L305.661 176.965L305.803 177.018C312.461 179.514 319.626 184.093 327.271 190.463C331.003 193.417 334.281 197.281 334.281 202.109C334.281 203.845 333.863 205.57 332.918 207.133C331.555 209.819 329.032 211.231 326.729 211.972C324.291 212.756 321.352 213.047 318.148 213.047C311.441 213.047 294.717 212.923 268.01 212.676C256.086 212.676 244.163 212.771 232.239 212.962C232.403 257.033 234.666 276.358 230.729 322.824L230.728 322.823C229.989 331.681 228.721 338.699 226.449 342.935C225.601 344.613 224.593 346.212 223.344 347.461C222.057 348.748 220.118 350.039 217.582 350.039C214.191 350.039 211.683 347.997 210.03 346.014L209.887 345.842L209.76 345.658C206.756 341.319 205.195 334.638 204.439 326.58L204.432 326.496L204.427 326.411C203.432 309.741 202.934 293.437 202.934 277.5V277.46L202.935 277.421C203.428 246.32 203.824 242.076 203.076 214.06C189.879 214.835 176.878 216.09 164.074 217.826L163.839 217.857L163.603 217.867C158.852 218.057 154.099 218.473 149.345 219.116C148.285 227.039 146.663 235.042 144.479 243.121C142.894 249.428 140.301 256.386 136.762 263.97L136.755 263.983L136.749 263.996C129.823 278.617 120.116 292.639 107.698 306.07L107.675 306.096C96.1936 318.342 82.4643 329.261 66.5312 338.871L66.3896 338.957L66.2422 339.033C58.5138 343.022 51.8985 345.571 46.8193 345.889L46.6641 345.898H46.5078C45.3479 345.898 43.8775 345.809 42.5254 345.302C41.8162 345.036 40.8296 344.541 39.9873 343.594C39.0533 342.543 38.5391 341.2 38.5391 339.785C38.5391 337.911 39.3984 336.426 39.9355 335.62C40.5617 334.681 41.3708 333.77 42.2305 332.91L42.4258 332.714L42.6426 332.541C46.2581 329.649 49.752 326.636 53.125 323.504L53.2715 323.368L53.4287 323.243C58.0522 319.593 62.1742 316.199 65.7998 313.059C79.8451 299.974 90.6172 287.131 98.2246 274.548C107.082 259.222 113.938 242.312 118.774 223.793C118.799 223.594 118.823 223.393 118.851 223.191C103.717 225.244 89.1474 227.755 75.1396 230.723C72.9809 231.318 70.7279 231.602 68.4023 231.602C64.8825 231.602 61.1985 231.016 57.3799 229.925L57.3145 229.906L57.248 229.885C51.6835 228.127 46.6788 224.937 42.2305 220.488C41.0839 219.342 40.0529 218.137 39.2812 216.883C38.5376 215.674 37.7969 214.038 37.7969 212.129C37.7969 208.988 39.6958 206.817 41.8359 205.676C43.6541 204.706 45.8271 204.33 47.8848 204.183L123.771 196.064C126.652 176.557 128.748 158.58 118.498 142.97C115.948 143.15 113.474 143.242 111.078 143.242C105.572 143.242 100.479 142.719 95.8311 141.625L95.7461 141.604L95.6611 141.582C89.6693 139.948 84.5058 137.425 80.3633 133.874L80.3076 133.827L80.2539 133.777C78.774 132.432 77.4823 131.096 76.5234 129.788C75.6816 128.64 74.5352 126.778 74.5352 124.512C74.5352 123.091 74.9765 121.672 75.9131 120.468C76.7943 119.335 77.9052 118.657 78.8643 118.246C80.6752 117.47 82.7941 117.285 84.7305 117.285V122.285C81.2669 122.285 79.5352 123.027 79.5352 124.512C79.5352 125.749 80.8958 127.604 83.6172 130.078C87.0807 133.047 91.5339 135.273 96.9766 136.758C101.182 137.747 105.883 138.242 111.078 138.242C113.799 138.242 116.645 138.118 119.613 137.871C119.861 137.624 120.355 137.5 121.098 137.5C121.345 137.747 121.592 138.242 121.84 138.984C134.999 157.783 131.269 179.676 128.148 200.625L48.3633 209.16C44.6523 209.408 42.7969 210.397 42.7969 212.129C42.7969 213.366 43.7865 214.974 45.7656 216.953C49.724 220.911 54.0534 223.633 58.7539 225.117C62.2174 226.107 65.4336 226.602 68.4023 226.602C70.3815 226.602 72.237 226.354 73.9688 225.859C90.2969 222.396 107.367 219.551 125.18 217.324C124.438 220.046 123.943 222.52 123.695 224.746C118.747 243.796 111.697 261.237 102.543 277.07C94.6263 290.182 83.4935 303.418 69.1445 316.777C65.4336 319.993 61.2279 323.457 56.5273 327.168C53.0638 330.384 49.4766 333.477 45.7656 336.445C44.2812 337.93 43.5391 339.043 43.5391 339.785C43.5391 340.527 44.5286 340.898 46.5078 340.898C50.4661 340.651 56.2799 338.548 63.9492 334.59C79.5352 325.189 92.8945 314.551 104.027 302.676C116.15 289.564 125.551 275.957 132.23 261.855C135.694 254.434 138.168 247.754 139.652 241.816C142.126 232.663 143.858 223.633 144.848 214.727C151.033 213.737 157.217 213.118 163.402 212.871C177.999 210.892 192.842 209.531 207.934 208.789C208.873 241.664 208.455 244.623 207.934 277.5C207.934 293.333 208.428 309.538 209.418 326.113C210.16 334.03 211.645 339.596 213.871 342.812C215.108 344.297 216.345 345.039 217.582 345.039C219.066 345.039 220.551 343.555 222.035 340.586C223.767 337.37 225.004 331.309 225.746 322.402C229.804 274.52 227.23 256.059 227.23 208.047C240.837 207.799 254.444 207.676 268.051 207.676C294.77 207.923 311.469 208.047 318.148 208.047C324.086 208.047 327.549 206.934 328.539 204.707C329.034 203.965 329.281 203.099 329.281 202.109ZM193.832 128.965C194.079 130.202 194.945 131.562 196.43 133.047C212.037 145.052 207.391 174.16 207.562 191.348C198.409 192.337 189.255 193.574 180.102 195.059C168.969 196.543 157.836 197.78 146.703 198.77C147.445 195.059 147.816 191.348 147.816 187.637C148.409 174.897 151.592 160.277 155.609 147.891C156.104 146.406 156.352 145.046 156.352 143.809C156.352 141.087 154.991 138.984 152.27 137.5C149.548 136.016 147.445 134.902 145.961 134.16C161.547 132.181 177.504 130.449 193.832 128.965ZM161.352 143.809C161.352 145.691 160.978 147.579 160.364 149.433L160.365 149.434C156.453 161.496 153.393 175.621 152.815 187.774C152.811 189.584 152.725 191.393 152.56 193.199C161.5 192.329 170.441 191.301 179.382 190.109C187.122 188.855 194.863 187.779 202.604 186.875C202.681 183.574 202.837 180.027 202.947 176.519C203.114 171.225 203.183 165.814 202.798 160.624C202.009 149.989 199.396 141.637 193.381 137.01L193.124 136.812L192.895 136.582C192.192 135.879 191.506 135.104 190.899 134.259C180.297 135.248 169.854 136.341 159.57 137.541C160.709 139.32 161.352 141.418 161.352 143.809Z" fill="black"/>
<path d="M34.0195 174.59L26.9688 177.188C26.7214 177.435 26.3503 177.559 25.8555 177.559C25.1133 177.559 24.6185 177.064 24.3711 176.074C24.1237 175.579 24 175.208 24 174.961C24 174.219 24.3711 173.477 25.1133 172.734L30.3086 168.652L42.9258 157.52C49.1107 152.077 54.9245 146.51 60.3672 140.82C65.5625 135.13 71.1289 128.451 77.0664 120.781C83.0039 113.112 88.1992 105.814 92.6523 98.8867C97.1055 91.9596 100.445 85.651 102.672 79.9609C104.898 74.5182 106.259 69.3229 106.754 64.375L108.238 52.8711C108.486 51.3867 108.98 50.2734 109.723 49.5312C110.217 48.7891 111.578 48.418 113.805 48.418C115.536 48.418 117.516 48.9128 119.742 49.9023C121.969 50.8919 125.061 53.1185 129.02 56.582C133.225 60.0456 136.194 63.2617 137.926 66.2305C139.41 69.1992 140.152 71.1784 140.152 72.168C139.658 73.1576 138.421 74.5182 136.441 76.25C134.462 78.2292 131.617 82.1875 127.906 88.125L114.918 106.309C110.465 112.741 104.775 119.915 97.8477 127.832C90.9206 135.254 83.2513 142.305 74.8398 148.984C66.181 155.664 58.1406 161.354 50.7188 166.055C43.0495 170.755 37.4831 173.6 34.0195 174.59ZM334.977 134.512L343.883 137.109C348.089 138.346 350.191 139.954 350.191 141.934C350.191 143.665 348.336 144.779 344.625 145.273L329.781 147.5C326.07 148.242 320.009 148.861 311.598 149.355C303.434 149.85 297.125 150.098 292.672 150.098H289.703C285.003 150.098 281.292 149.603 278.57 148.613C275.354 147.624 271.891 145.645 268.18 142.676C264.469 139.707 260.882 136.243 257.418 132.285L246.285 118.555L235.895 106.309L221.793 88.125C213.876 77.9818 209.671 72.4154 209.176 71.4258C208.434 70.4362 204.846 65.3646 198.414 56.2109L184.684 36.543C182.21 32.832 179.983 29.8633 178.004 27.6367C176.025 25.4102 173.303 23.431 169.84 21.6992C166.376 19.7201 162.542 18.112 158.336 16.875C153.883 15.638 150.048 14.8958 146.832 14.6484C143.863 14.401 141.76 13.6589 140.523 12.4219C140.029 11.9271 139.781 11.3086 139.781 10.5664C139.781 9.57682 140.276 8.58724 141.266 7.59766C142.008 6.60807 143.616 5.98958 146.09 5.74219L152.027 5H155.367C157.346 5 159.697 5.1237 162.418 5.37109C166.376 5.86589 170.211 6.73177 173.922 7.96875C177.633 9.20573 180.973 11.1849 183.941 13.9062C186.91 16.6276 189.26 18.9779 190.992 20.957C192.724 22.9362 197.672 29.3685 205.836 40.2539C214 51.1393 222.288 61.5299 230.699 71.4258C239.111 80.8268 249.007 89.7331 260.387 98.1445C271.272 106.556 283.395 113.854 296.754 120.039C310.113 126.224 322.854 131.048 334.977 134.512Z" fill="black"/>
<path d="M113.805 43.418C116.46 43.418 119.149 44.1671 121.772 45.333C124.727 46.6463 128.286 49.2999 132.273 52.7861C136.388 56.183 139.669 59.5861 141.826 63.0195L142.245 63.7109L142.326 63.8506L142.397 63.9941C143.179 65.5576 143.821 66.9676 144.277 68.1855C144.675 69.2455 145.152 70.7099 145.152 72.168V73.3486L144.624 74.4043C143.673 76.3067 141.815 78.1752 139.897 79.8662C138.359 81.4365 135.804 84.9239 132.146 90.7754L132.064 90.9053L119.029 109.154L118.154 110.406C113.708 116.703 108.184 123.612 101.61 131.125L101.558 131.185L101.503 131.243C94.3972 138.856 86.5437 146.075 77.9492 152.9L77.9219 152.922L77.8936 152.943C69.1408 159.695 60.9725 165.478 53.3936 170.278L53.3633 170.299L53.332 170.317C45.8041 174.931 39.7827 178.096 35.5938 179.338L29.3086 181.653C28.0868 182.379 26.8027 182.559 25.8555 182.559C24.2476 182.559 22.639 181.969 21.3926 180.723C20.4825 179.813 19.9808 178.765 19.6904 177.869C19.3936 177.213 19 176.158 19 174.961C19 172.425 20.291 170.486 21.5781 169.199L21.7891 168.987L22.0244 168.803L27.1025 164.812L39.6172 153.771L39.623 153.766C45.6919 148.425 51.3897 142.97 56.7188 137.4C61.7906 131.842 67.2547 125.287 73.1123 117.721C78.9757 110.147 84.0844 102.968 88.4463 96.1826C92.7778 89.4447 95.943 83.4355 98.0156 78.1387L98.0293 78.1035L98.0439 78.0674C100.12 72.992 101.339 68.268 101.778 63.8779L101.786 63.8066L101.795 63.7354L103.279 52.2314L103.291 52.1396L103.307 52.0488C103.636 50.0738 104.37 47.9647 105.925 46.2715C107.116 44.806 108.71 44.1691 109.799 43.8721C111.081 43.5224 112.472 43.418 113.805 43.418ZM113.805 48.418C111.578 48.418 110.217 48.7891 109.723 49.5312C108.98 50.2734 108.486 51.3867 108.238 52.8711L106.754 64.375C106.259 69.3229 104.898 74.5182 102.672 79.9609C100.445 85.651 97.1055 91.9596 92.6523 98.8867C88.1992 105.814 83.0039 113.112 77.0664 120.781C71.1289 128.451 65.5625 135.13 60.3672 140.82C54.9245 146.51 49.1107 152.077 42.9258 157.52L30.3086 168.652L25.1133 172.734C24.3711 173.477 24 174.219 24 174.961C24 175.208 24.1237 175.579 24.3711 176.074C24.6185 177.064 25.1133 177.559 25.8555 177.559C26.3503 177.559 26.7214 177.435 26.9688 177.188L34.0195 174.59C37.4831 173.6 43.0495 170.755 50.7188 166.055C58.1406 161.354 66.181 155.664 74.8398 148.984C83.2513 142.305 90.9206 135.254 97.8477 127.832C104.775 119.915 110.465 112.741 114.918 106.309L127.906 88.125C131.617 82.1875 134.462 78.2292 136.441 76.25C138.421 74.5182 139.658 73.1576 140.152 72.168C140.152 71.1784 139.41 69.1992 137.926 66.2305C136.194 63.2617 133.225 60.0456 129.02 56.582C125.061 53.1185 121.969 50.8919 119.742 49.9023C117.516 48.9128 115.536 48.418 113.805 48.418ZM155.367 0V5H152.027L146.09 5.74219C143.616 5.98958 142.008 6.60807 141.266 7.59766C140.276 8.58724 139.781 9.57682 139.781 10.5664C139.781 11.3086 140.029 11.9271 140.523 12.4219C141.76 13.6589 143.863 14.401 146.832 14.6484C150.048 14.8958 153.883 15.638 158.336 16.875C162.542 18.112 166.376 19.7201 169.84 21.6992C173.303 23.431 176.025 25.4102 178.004 27.6367C179.983 29.8633 182.21 32.832 184.684 36.543L198.414 56.2109C204.846 65.3646 208.434 70.4362 209.176 71.4258C209.671 72.4154 213.876 77.9818 221.793 88.125L235.895 106.309L246.285 118.555L257.418 132.285C260.882 136.243 264.469 139.707 268.18 142.676C271.891 145.645 275.354 147.624 278.57 148.613C281.292 149.603 285.003 150.098 289.703 150.098H292.672C297.125 150.098 303.434 149.85 311.598 149.355C320.009 148.861 326.07 148.242 329.781 147.5L344.625 145.273C348.336 144.779 350.191 143.665 350.191 141.934C350.191 139.954 348.089 138.346 343.883 137.109L334.977 134.512C322.854 131.048 310.113 126.224 296.754 120.039C283.395 113.854 271.272 106.556 260.387 98.1445C249.007 89.7331 239.111 80.8268 230.699 71.4258C222.288 61.5299 214 51.1393 205.836 40.2539C197.672 29.3685 192.724 22.9362 190.992 20.957C189.26 18.9779 186.91 16.6276 183.941 13.9062C180.973 11.1849 177.633 9.20573 173.922 7.96875C170.211 6.73177 166.376 5.86589 162.418 5.37109C159.697 5.1237 157.346 5 155.367 5V0C157.27 0 159.429 0.103143 161.828 0.300781L162.871 0.391602L162.954 0.399414L163.038 0.410156C167.317 0.944977 171.473 1.88244 175.503 3.22559C179.901 4.69149 183.849 7.03878 187.32 10.2207C190.361 13.0081 192.857 15.495 194.755 17.6641C196.643 19.8224 201.733 26.4499 209.836 37.2539C217.926 48.0401 226.134 58.3309 234.459 68.1279C242.101 76.6632 251.036 84.8154 261.288 92.5752L263.358 94.124L263.401 94.1553L263.444 94.1885C274.014 102.356 285.811 109.463 298.854 115.502C311.194 121.215 322.949 125.727 334.123 129.055L336.351 129.704L336.363 129.708L336.377 129.712L345.283 132.31L345.294 132.312C347.65 133.006 349.897 133.93 351.651 135.271C353.489 136.677 355.191 138.896 355.191 141.934C355.191 145.009 353.371 147.155 351.372 148.354C349.603 149.416 347.45 149.933 345.366 150.217L345.367 150.218L330.63 152.428C326.549 153.23 320.238 153.855 311.899 154.346C303.703 154.842 297.277 155.098 292.672 155.098H289.703C284.799 155.098 280.475 154.597 276.994 153.357C273.019 152.115 269.036 149.764 265.057 146.58C261.092 143.408 257.293 139.736 253.655 135.578L253.594 135.507L253.534 135.435L242.436 121.747L232.011 109.46L217.842 91.1895C213.883 86.1176 210.837 82.1697 208.712 79.3574C207.651 77.9527 206.802 76.8085 206.179 75.9395C205.782 75.3856 205.323 74.7343 204.978 74.1553C203.873 72.6456 200.291 67.5783 194.323 59.0859L194.318 59.0791L194.314 59.0732L180.584 39.4053L180.553 39.3613L180.523 39.3164C178.121 35.7134 176.037 32.9506 174.267 30.959C172.816 29.3269 170.66 27.6994 167.604 26.1709L167.479 26.1094L167.359 26.04C164.272 24.2756 160.809 22.8156 156.95 21.6787C152.709 20.5029 149.226 19.8474 146.448 19.6338L146.433 19.6328L146.417 19.6309C143.028 19.3484 139.476 18.4446 136.988 15.957C135.495 14.4633 134.781 12.5454 134.781 10.5664C134.781 7.91399 136.067 5.80488 137.516 4.28418C139.638 1.74184 143.015 1.03 145.543 0.772461L151.407 0.0390625L151.716 0H155.367Z" fill="black"/>
<path fill-rule="evenodd" clip-rule="evenodd" d="M256.762 131.476L247.062 127.452C244.749 127.759 242.29 128.064 239.686 128.369L239.48 128.393L239.272 128.4C237.098 128.472 234.962 128.6 232.861 128.782C232.981 128.875 233.1 128.969 233.219 129.063C237.183 131.924 240.395 135.805 240.395 140.844C240.395 142.697 239.925 144.448 239.124 146.049C233.841 156.615 233.096 169.879 232.744 183.053C253.535 180.374 271.616 177.904 286.991 175.643L287.045 175.635L287.099 175.628C289.253 175.359 291.318 175.219 293.285 175.219C297.656 175.219 301.749 175.765 305.517 176.924L305.661 176.969L305.802 177.021C312.45 179.514 319.602 184.082 327.233 190.435C330.981 193.393 334.281 197.268 334.281 202.113C334.281 203.848 333.865 205.574 332.92 207.136C331.557 209.823 329.033 211.236 326.729 211.976C324.29 212.76 321.352 213.051 318.148 213.051C311.442 213.051 294.724 212.927 268.028 212.68C256.098 212.68 244.169 212.775 232.24 212.966C232.285 225.213 232.493 235.548 232.684 245.087C233.182 269.873 233.572 289.274 230.728 322.828C229.993 331.653 228.731 338.651 226.475 342.891C225.622 344.587 224.605 346.204 223.344 347.465C222.057 348.752 220.118 350.043 217.582 350.043C214.191 350.043 211.683 348 210.03 346.017L209.887 345.846L209.76 345.662C206.756 341.323 205.195 334.642 204.44 326.584L204.432 326.5L204.427 326.415C203.432 309.745 202.934 293.441 202.934 277.504V277.464L202.934 277.425C203.034 271.16 203.129 265.985 203.212 261.485C203.542 243.649 203.675 236.436 203.078 214.062C189.88 214.837 176.879 216.093 164.074 217.83L163.839 217.862L163.602 217.871C158.853 218.061 154.101 218.477 149.347 219.12C148.289 227.028 146.669 235.015 144.491 243.08C142.907 249.399 140.309 256.371 136.761 263.974L136.755 263.987L136.749 264C129.824 278.621 120.117 292.642 107.699 306.074L107.687 306.087L107.675 306.099C96.1938 318.346 82.4648 329.265 66.5317 338.875L66.3897 338.961L66.2424 339.037C58.5139 343.026 51.899 345.575 46.8197 345.893L46.6639 345.902H46.5078C45.3479 345.902 43.8778 345.813 42.5256 345.306C41.8164 345.04 40.83 344.546 39.9876 343.598C39.0534 342.547 38.5391 341.204 38.5391 339.789C38.5391 337.915 39.3983 336.43 39.9355 335.624C40.5616 334.685 41.3704 333.773 42.2301 332.914L42.4259 332.718L42.6421 332.545C46.2578 329.652 49.752 326.64 53.1251 323.508L53.2719 323.372L53.4291 323.247C58.0534 319.597 62.1762 316.202 65.8023 313.061C79.8548 299.969 90.6306 287.12 98.2383 274.53C107.085 259.219 113.935 242.326 118.769 223.827C118.794 223.618 118.821 223.407 118.85 223.195C103.726 225.246 89.1647 227.756 75.1648 230.721C72.9985 231.321 70.7368 231.605 68.4023 231.605C64.8825 231.605 61.199 231.02 57.3803 229.929L57.314 229.91L57.2482 229.889C51.6836 228.132 46.6785 224.941 42.2301 220.493C41.0835 219.346 40.0524 218.141 39.2808 216.887C38.5371 215.679 37.7969 214.042 37.7969 212.133C37.7969 208.991 39.6954 206.821 41.8355 205.68C43.666 204.704 45.856 204.328 47.9262 204.182L123.772 196.069C126.653 176.562 128.751 158.585 118.503 142.975C115.951 143.155 113.475 143.246 111.078 143.246C105.572 143.246 100.479 142.722 95.8314 141.629L95.7458 141.609L95.661 141.586C94.4949 141.268 93.3602 140.916 92.2583 140.53C87.7427 144.788 82.9725 148.911 77.9493 152.9L77.9217 152.922L77.8939 152.943C69.141 159.695 60.9731 165.479 53.394 170.279L53.3629 170.298L53.3316 170.318C45.7981 174.935 39.7741 178.102 35.5848 179.342L29.3085 181.654C28.0868 182.38 26.8026 182.559 25.8555 182.559C24.2476 182.559 22.6386 181.969 21.3922 180.723C20.4802 179.811 19.9755 178.761 19.6854 177.864C19.3889 177.208 19 176.155 19 174.961C19 172.425 20.2906 170.486 21.5777 169.199L21.7891 168.987L27.1074 164.809L39.6226 153.766C45.6896 148.427 51.386 142.974 56.7137 137.406C61.7871 131.847 67.253 125.289 73.1128 117.72C78.9762 110.147 84.0845 102.968 88.4464 96.1829C92.778 89.445 95.943 83.4358 98.0157 78.1389L98.0296 78.1032L98.0441 78.0678C100.121 72.9921 101.34 68.2678 101.779 63.8775L101.786 63.8062L103.291 52.1399L103.306 52.0491C103.634 50.0825 104.363 47.9822 105.904 46.2927C107.097 44.8107 108.704 44.1711 109.799 43.8725C111.081 43.5228 112.472 43.418 113.805 43.418C116.46 43.418 119.149 44.1672 121.773 45.3333C124.723 46.6447 128.276 49.2917 132.256 52.7703C136.655 56.4 140.102 60.0381 142.245 63.7111L142.326 63.8503L142.398 63.9944C143.18 65.5579 143.821 66.9678 144.277 68.1858C144.675 69.2457 145.152 70.7099 145.152 72.168V73.3483L144.624 74.404C143.669 76.3151 141.8 78.1934 139.873 79.8905C138.332 81.4724 135.785 84.9537 132.146 90.775L132.065 90.9057L119.008 109.185C117.441 111.447 115.732 113.789 113.882 116.212C133.597 115.075 152.339 113.224 170.11 110.661L170.121 110.659L170.132 110.658C188.898 108.034 207.157 104.583 224.911 100.304L217.851 91.2014L217.847 91.1951C213.885 86.1199 210.838 82.1704 208.712 79.3569C207.65 77.9522 206.802 76.8086 206.179 75.9396C205.783 75.3866 205.323 74.7372 204.979 74.1589C203.876 72.6526 200.294 67.5834 194.323 59.0857L194.319 59.0794L180.553 39.3611L180.523 39.3165C178.121 35.7134 176.037 32.9502 174.267 30.9585C172.816 29.3265 170.661 27.6998 167.604 26.1714L167.48 26.1093L167.359 26.0404C164.274 24.2777 160.816 22.8189 156.961 21.6824C152.715 20.5047 149.228 19.8475 146.449 19.6337L146.433 19.6325L146.417 19.6312C143.028 19.3487 139.475 18.445 136.988 15.9574C135.494 14.4636 134.781 12.5454 134.781 10.5664C134.781 7.91282 136.067 5.80188 137.516 4.28103C139.635 1.74557 143.002 1.0323 145.528 0.773537L151.716 0H155.367C157.542 0 160.051 0.135282 162.871 0.391628L162.955 0.399255L163.038 0.409704C167.317 0.944525 171.474 1.88219 175.503 3.22533C179.901 4.69124 183.849 7.03856 187.32 10.2205C190.361 13.0081 192.857 15.4953 194.755 17.6645C196.644 19.8228 201.733 26.4499 209.836 37.2539C217.928 48.0439 226.139 58.3385 234.467 68.1387C242.617 77.24 252.239 85.9048 263.359 94.1236L263.402 94.1554L263.444 94.1881C274.013 102.355 285.811 109.463 298.855 115.502C312.017 121.595 324.514 126.322 336.35 129.704L336.363 129.708L345.294 132.313C347.65 133.006 349.897 133.93 351.652 135.271C353.489 136.677 355.191 138.896 355.191 141.934C355.191 145.009 353.372 147.155 351.372 148.355C349.592 149.423 347.424 149.941 345.328 150.224L330.639 152.427C326.557 153.231 320.241 153.856 311.893 154.347L301.163 149.895C297.827 150.03 294.997 150.098 292.672 150.098H289.703C285.003 150.098 281.292 149.603 278.57 148.613C275.354 147.624 271.891 145.645 268.18 142.676C264.469 139.707 260.882 136.243 257.418 132.285L256.762 131.476ZM202.805 180.63C202.727 182.761 202.65 184.865 202.603 186.878C194.858 187.782 187.114 188.861 179.371 190.116C170.434 191.306 161.497 192.337 152.561 193.206C152.727 191.393 152.813 189.578 152.816 187.761C153.396 175.617 156.452 161.508 160.36 149.455C160.977 147.596 161.352 145.701 161.352 143.812C161.352 141.422 160.71 139.322 159.571 137.543C169.853 136.344 180.294 135.25 190.895 134.26C191.502 135.107 192.19 135.882 192.894 136.586L193.124 136.816L193.381 137.014C199.396 141.641 202.009 149.993 202.798 160.628C203.183 165.818 203.114 171.228 202.948 176.522C202.905 177.891 202.854 179.266 202.805 180.63Z" fill="black"/>
<path d="M247.062 127.452L276.981 153.355C273.01 152.112 269.032 149.76 265.056 146.58C261.092 143.408 257.293 139.735 253.655 135.578L253.593 135.507L247.062 127.452Z" fill="black"/>
</svg>
