<svg width="350" height="350" viewBox="0 0 350 350" fill="none" xmlns="http://www.w3.org/2000/svg">
<path d="M287.355 178.116C271.252 180.485 252.191 183.081 230.171 185.905C230.504 171.892 230.934 156.839 236.888 144.931C237.536 143.635 237.895 142.265 237.895 140.844C237.895 136.959 235.417 133.72 231.708 131.057C229.864 129.585 227.931 128.258 225.913 127.075C230.187 126.446 234.612 126.054 239.189 125.901L239.293 125.897L239.396 125.885C248.948 124.769 256.484 123.646 261.97 122.511C264.71 121.944 266.991 121.363 268.778 120.762C270.465 120.195 272.013 119.514 273.038 118.603C275.125 116.807 276.488 114.566 276.488 111.898C276.488 110.972 276.254 110.097 275.853 109.296L275.836 109.262L275.818 109.229C273.593 105.097 268.415 102.128 261.407 99.874C257.442 98.5539 253.344 97.8945 249.125 97.8945C245.151 97.8945 241.082 98.5544 236.929 99.847C215.523 105.504 193.373 109.933 170.478 113.133L170.467 113.135C144.857 116.829 117.259 119.048 87.6679 119.789H84.7305C82.8964 119.789 81.1876 119.974 79.8492 120.548C79.1532 120.846 78.4353 121.301 77.8865 122.007C77.31 122.748 77.0352 123.62 77.0352 124.516C77.0352 125.958 77.7786 127.276 78.5396 128.313C79.3593 129.431 80.5152 130.641 81.9355 131.932L81.9625 131.956L81.9902 131.98C85.7932 135.24 90.6015 137.614 96.3188 139.174L96.3612 139.185L96.404 139.195C100.831 140.237 105.727 140.746 111.078 140.746C113.855 140.746 116.748 140.621 119.757 140.372L119.792 140.422C131.902 157.722 129.026 177.81 125.961 198.349L48.1458 206.673C46.1876 206.807 44.3945 207.149 43.012 207.886C41.4781 208.704 40.2969 210.129 40.2969 212.133C40.2969 213.397 40.7907 214.571 41.4099 215.577C42.0431 216.606 42.9298 217.657 43.9979 218.725C48.2012 222.928 52.8685 225.884 58.0011 227.505L58.034 227.515L58.0671 227.525C61.7082 228.565 65.1581 229.105 68.4023 229.105C70.5593 229.105 72.6188 228.84 74.5693 228.292C89.6983 225.085 105.474 222.41 121.896 220.268C121.602 221.671 121.38 223.013 121.231 224.292C116.34 243.065 109.39 260.231 100.391 275.802C92.6285 288.653 81.6743 301.695 67.4734 314.921C63.805 318.1 59.6407 321.529 54.9782 325.21L54.8996 325.272L54.8262 325.34C51.4079 328.514 47.8672 331.566 44.2039 334.497L44.0958 334.584L43.9979 334.681C43.1969 335.482 42.5142 336.263 42.0156 337.011C41.5615 337.692 41.0391 338.667 41.0391 339.789C41.0391 340.589 41.3272 341.342 41.8561 341.937C42.3391 342.48 42.9251 342.785 43.4034 342.965C44.3269 343.311 45.4331 343.402 46.5078 343.402H46.5859L46.6638 343.397C51.1826 343.115 57.3969 340.789 65.0958 336.815L65.1695 336.777L65.2405 336.734C81 327.229 94.5442 316.45 105.851 304.39L105.857 304.383L105.863 304.377C118.133 291.105 127.687 277.291 134.49 262.93L134.493 262.923L134.496 262.917C138.002 255.405 140.538 248.578 142.072 242.45C144.398 233.838 146.079 225.325 147.11 216.912C152.575 216.104 158.039 215.592 163.502 215.373L163.621 215.368L163.738 215.352C177.44 213.495 191.362 212.184 205.507 211.421C206.185 235.902 206.054 243.017 205.712 261.538C205.629 266.037 205.533 271.208 205.434 277.464L205.434 277.484V277.504C205.434 293.389 205.93 309.643 206.922 326.266L206.925 326.308L206.929 326.351C207.678 334.338 209.2 340.462 211.816 344.239L211.879 344.331L211.951 344.417C213.395 346.151 215.268 347.543 217.582 347.543C219.221 347.543 220.562 346.712 221.576 345.697C222.579 344.695 223.458 343.329 224.255 341.741C226.25 338.011 227.498 331.48 228.237 322.617C231.069 289.198 230.683 269.964 230.186 245.24C229.981 235.053 229.758 223.934 229.733 210.507C242.502 210.289 255.27 210.18 268.039 210.18C294.747 210.427 311.456 210.551 318.148 210.551C321.235 210.551 323.879 210.266 325.964 209.596C327.969 208.952 329.798 207.832 330.732 205.924C331.452 204.769 331.781 203.472 331.781 202.113C331.781 198.451 329.262 195.214 325.659 192.377C318.133 186.109 311.217 181.722 304.925 179.362L304.854 179.336L304.782 179.314C301.29 178.239 297.45 177.719 293.285 177.719C291.436 177.719 289.476 177.851 287.409 178.109L287.382 178.113L287.355 178.116ZM149.717 195.989C150.114 193.228 150.314 190.465 150.316 187.7C150.903 175.258 154.022 160.895 157.984 148.675C158.541 147.004 158.852 145.375 158.852 143.812C158.852 140.273 157.102 137.528 154.098 135.675C166.559 134.171 179.256 132.822 192.187 131.63C192.795 132.754 193.661 133.817 194.662 134.819L194.777 134.933L194.905 135.032C201.815 140.347 204.491 149.662 205.291 160.443C205.686 165.77 205.613 171.287 205.446 176.601C205.402 178.005 205.351 179.401 205.301 180.777C205.195 183.688 205.092 186.507 205.065 189.112C196.621 190.062 188.179 191.221 179.736 192.589C169.73 193.923 159.723 195.056 149.717 195.989Z" fill="black" stroke="black" stroke-width="5"/>
<path d="M23.5687 170.769L23.4512 170.861L23.3455 170.967C22.3308 171.981 21.5 173.322 21.5 174.961C21.5 175.723 21.7802 176.446 22.0222 176.96C22.2224 177.632 22.5619 178.357 23.16 178.955C23.9069 179.702 24.866 180.059 25.8555 180.059C26.5638 180.059 27.427 179.915 28.1965 179.399L34.7993 176.967C38.6304 175.851 44.4277 172.843 52.0252 168.186L52.0408 168.177L52.0564 168.167C59.5568 163.416 67.661 157.68 76.3669 150.964L76.3808 150.953L76.3946 150.942C84.8975 144.19 92.6589 137.055 99.6753 129.538L99.7027 129.508L99.7291 129.478C106.693 121.519 112.443 114.274 116.963 107.747L129.941 89.5781L129.985 89.5154L130.026 89.45C133.703 83.5666 136.398 79.8505 138.154 78.0735C140.101 76.3644 141.66 74.7429 142.388 73.286L142.652 72.7581V72.168C142.652 71.1915 142.321 70.0883 141.937 69.0636C141.523 67.9598 140.924 66.6364 140.162 65.1124L140.126 65.0404L140.085 64.9708C138.148 61.6493 134.939 58.2222 130.638 54.6761C126.669 51.206 123.347 48.7687 120.758 47.6178C118.332 46.54 115.998 45.918 113.805 45.918C112.582 45.918 111.438 46.0168 110.456 46.2844C109.582 46.5227 108.535 46.9784 107.806 47.9173C106.664 49.1394 106.057 50.7489 105.772 52.4601L105.765 52.5055L105.759 52.5512L104.274 64.0551L104.27 64.0906L104.266 64.1262C103.799 68.7953 102.509 73.7552 100.358 79.0144L100.351 79.0321L100.344 79.0499C98.1941 84.5434 94.9417 90.7023 90.5494 97.5348C86.1419 104.391 80.9901 111.629 75.0896 119.251C69.191 126.87 63.6749 133.488 58.5406 139.113C53.1554 144.742 47.4002 150.252 41.2742 155.643L41.2717 155.645L28.708 166.731L23.5687 170.769ZM335.677 132.112L335.663 132.108C323.684 128.685 311.065 123.91 297.804 117.77C284.603 111.659 272.643 104.456 261.915 96.1663L261.894 96.15L261.873 96.1341C250.623 87.819 240.864 79.0335 232.583 69.7824C224.214 59.9344 215.964 49.5917 207.836 38.7539C199.702 27.9092 194.684 21.3795 192.874 19.3108C191.059 17.2366 188.636 14.8179 185.631 12.0634C182.411 9.11173 178.767 6.94849 174.712 5.59704C170.842 4.30698 166.847 3.40521 162.728 2.8904L162.686 2.88517L162.644 2.88136C159.874 2.62949 157.444 2.5 155.367 2.5H152.027H151.872L151.717 2.51931L145.809 3.25778C143.336 3.50855 140.829 4.16488 139.386 5.94368C138.18 7.18695 137.281 8.73619 137.281 10.5664C137.281 11.927 137.761 13.1954 138.756 14.1896C140.618 16.0519 143.445 16.8749 146.624 17.1398L146.632 17.1405L146.64 17.1411C149.638 17.3717 153.299 18.0713 157.649 19.2788C161.679 20.4655 165.325 21.9989 168.6 23.8698L168.66 23.9043L168.722 23.9353C171.982 25.5654 174.42 27.3683 176.135 29.2976C178.01 31.4067 180.165 34.2727 182.603 37.9297L182.618 37.952L182.634 37.974L196.364 57.642L196.369 57.6483C202.521 66.4039 206.104 71.4719 207.067 72.7795C207.326 73.2302 207.746 73.8347 208.211 74.4828C208.816 75.3271 209.65 76.4517 210.706 77.8499C212.821 80.6482 215.86 84.5867 219.82 89.66C219.821 89.6611 219.821 89.6621 219.822 89.6632L233.919 107.841L233.953 107.884L233.988 107.926L244.361 120.151L255.476 133.86L255.506 133.896L255.537 133.931C259.087 137.989 262.78 141.558 266.618 144.628C270.46 147.701 274.181 149.867 277.775 150.984C280.88 152.101 284.9 152.598 289.703 152.598H292.672C297.201 152.598 303.569 152.347 311.749 151.851C320.125 151.358 326.314 150.737 330.211 149.963L344.955 147.752C344.962 147.751 344.969 147.75 344.976 147.749C346.95 147.484 348.731 147.024 350.086 146.211C351.55 145.333 352.691 143.904 352.691 141.934C352.691 139.92 351.577 138.362 350.133 137.257C348.73 136.184 346.818 135.367 344.588 134.711L344.583 134.709L335.677 132.112Z" fill="black" stroke="black" stroke-width="5"/>
<path fill-rule="evenodd" clip-rule="evenodd" d="M256.762 131.476L247.062 127.452C244.749 127.759 242.29 128.064 239.686 128.369L239.48 128.393L239.272 128.4C237.098 128.472 234.962 128.6 232.861 128.782C232.981 128.875 233.1 128.969 233.219 129.063C237.183 131.924 240.395 135.805 240.395 140.844C240.395 142.697 239.925 144.448 239.124 146.049C233.841 156.615 233.096 169.879 232.744 183.053C253.535 180.374 271.616 177.904 286.991 175.643L287.045 175.635L287.099 175.628C289.253 175.359 291.318 175.219 293.285 175.219C297.656 175.219 301.749 175.765 305.517 176.924L305.661 176.969L305.802 177.021C312.45 179.514 319.602 184.082 327.233 190.435C330.981 193.393 334.281 197.268 334.281 202.113C334.281 203.848 333.865 205.574 332.92 207.136C331.557 209.823 329.033 211.236 326.729 211.976C324.29 212.76 321.352 213.051 318.148 213.051C311.442 213.051 294.724 212.927 268.028 212.68C256.098 212.68 244.169 212.775 232.24 212.966C232.285 225.213 232.493 235.548 232.684 245.087C233.182 269.873 233.572 289.274 230.728 322.828C229.993 331.653 228.731 338.651 226.475 342.891C225.622 344.587 224.605 346.204 223.344 347.465C222.057 348.752 220.118 350.043 217.582 350.043C214.191 350.043 211.683 348 210.03 346.017L209.887 345.846L209.76 345.662C206.756 341.323 205.195 334.642 204.44 326.584L204.432 326.5L204.427 326.415C203.432 309.745 202.934 293.441 202.934 277.504V277.464L202.934 277.425C203.034 271.16 203.129 265.985 203.212 261.485C203.542 243.649 203.675 236.436 203.078 214.062C189.88 214.837 176.879 216.093 164.074 217.83L163.839 217.862L163.602 217.871C158.853 218.061 154.101 218.477 149.347 219.12C148.289 227.028 146.669 235.015 144.491 243.08C142.907 249.399 140.309 256.371 136.761 263.974L136.755 263.987L136.749 264C129.824 278.621 120.117 292.642 107.699 306.074L107.687 306.087L107.675 306.099C96.1938 318.346 82.4648 329.265 66.5317 338.875L66.3897 338.961L66.2424 339.037C58.5139 343.026 51.899 345.575 46.8197 345.893L46.6639 345.902H46.5078C45.3479 345.902 43.8778 345.813 42.5256 345.306C41.8164 345.04 40.83 344.546 39.9876 343.598C39.0534 342.547 38.5391 341.204 38.5391 339.789C38.5391 337.915 39.3983 336.43 39.9355 335.624C40.5616 334.685 41.3704 333.773 42.2301 332.914L42.4259 332.718L42.6421 332.545C46.2578 329.652 49.752 326.64 53.1251 323.508L53.2719 323.372L53.4291 323.247C58.0534 319.597 62.1762 316.202 65.8023 313.061C79.8548 299.969 90.6306 287.12 98.2383 274.53C107.085 259.219 113.935 242.326 118.769 223.827C118.794 223.618 118.821 223.407 118.85 223.195C103.726 225.246 89.1647 227.756 75.1648 230.721C72.9985 231.321 70.7368 231.605 68.4023 231.605C64.8825 231.605 61.199 231.02 57.3803 229.929L57.314 229.91L57.2482 229.889C51.6836 228.132 46.6785 224.941 42.2301 220.493C41.0835 219.346 40.0524 218.141 39.2808 216.887C38.5371 215.679 37.7969 214.042 37.7969 212.133C37.7969 208.991 39.6954 206.821 41.8355 205.68C43.666 204.704 45.856 204.328 47.9262 204.182L123.772 196.069C126.653 176.562 128.751 158.585 118.503 142.975C115.951 143.155 113.475 143.246 111.078 143.246C105.572 143.246 100.479 142.722 95.8314 141.629L95.7458 141.609L95.661 141.586C94.4949 141.268 93.3602 140.916 92.2583 140.53C87.7427 144.788 82.9725 148.911 77.9493 152.9L77.9217 152.922L77.8939 152.943C69.141 159.695 60.9731 165.479 53.394 170.279L53.3629 170.298L53.3316 170.318C45.7981 174.935 39.7741 178.102 35.5848 179.342L29.3085 181.654C28.0868 182.38 26.8026 182.559 25.8555 182.559C24.2476 182.559 22.6386 181.969 21.3922 180.723C20.4802 179.811 19.9755 178.761 19.6854 177.864C19.3889 177.208 19 176.155 19 174.961C19 172.425 20.2906 170.486 21.5777 169.199L21.7891 168.987L27.1074 164.809L39.6226 153.766C45.6896 148.427 51.386 142.974 56.7137 137.406C61.7871 131.847 67.253 125.289 73.1128 117.72C78.9762 110.147 84.0845 102.968 88.4464 96.1829C92.778 89.445 95.943 83.4358 98.0157 78.1389L98.0296 78.1032L98.0441 78.0678C100.121 72.9921 101.34 68.2678 101.779 63.8775L101.786 63.8062L103.291 52.1399L103.306 52.0491C103.634 50.0825 104.363 47.9822 105.904 46.2927C107.097 44.8107 108.704 44.1711 109.799 43.8725C111.081 43.5228 112.472 43.418 113.805 43.418C116.46 43.418 119.149 44.1672 121.773 45.3333C124.723 46.6447 128.276 49.2917 132.256 52.7703C136.655 56.4 140.102 60.0381 142.245 63.7111L142.326 63.8503L142.398 63.9944C143.18 65.5579 143.821 66.9678 144.277 68.1858C144.675 69.2457 145.152 70.7099 145.152 72.168V73.3483L144.624 74.404C143.669 76.3151 141.8 78.1934 139.873 79.8905C138.332 81.4724 135.785 84.9537 132.146 90.775L132.065 90.9057L119.008 109.185C117.441 111.447 115.732 113.789 113.882 116.212C133.597 115.075 152.339 113.224 170.11 110.661L170.121 110.659L170.132 110.658C188.898 108.034 207.157 104.583 224.911 100.304L217.851 91.2014L217.847 91.1951C213.885 86.1199 210.838 82.1704 208.712 79.3569C207.65 77.9522 206.802 76.8086 206.179 75.9396C205.783 75.3866 205.323 74.7372 204.979 74.1589C203.876 72.6526 200.294 67.5834 194.323 59.0857L194.319 59.0794L180.553 39.3611L180.523 39.3165C178.121 35.7134 176.037 32.9502 174.267 30.9585C172.816 29.3265 170.661 27.6998 167.604 26.1714L167.48 26.1093L167.359 26.0404C164.274 24.2777 160.816 22.8189 156.961 21.6824C152.715 20.5047 149.228 19.8475 146.449 19.6337L146.433 19.6325L146.417 19.6312C143.028 19.3487 139.475 18.445 136.988 15.9574C135.494 14.4636 134.781 12.5454 134.781 10.5664C134.781 7.91282 136.067 5.80188 137.516 4.28103C139.635 1.74557 143.002 1.0323 145.528 0.773537L151.716 0H155.367C157.542 0 160.051 0.135282 162.871 0.391628L162.955 0.399255L163.038 0.409704C167.317 0.944525 171.474 1.88219 175.503 3.22533C179.901 4.69124 183.849 7.03856 187.32 10.2205C190.361 13.0081 192.857 15.4953 194.755 17.6645C196.644 19.8228 201.733 26.4499 209.836 37.2539C217.928 48.0439 226.139 58.3385 234.467 68.1387C242.617 77.24 252.239 85.9048 263.359 94.1236L263.402 94.1554L263.444 94.1881C274.013 102.355 285.811 109.463 298.855 115.502C312.017 121.595 324.514 126.322 336.35 129.704L336.363 129.708L345.294 132.313C347.65 133.006 349.897 133.93 351.652 135.271C353.489 136.677 355.191 138.896 355.191 141.934C355.191 145.009 353.372 147.155 351.372 148.355C349.592 149.423 347.424 149.941 345.328 150.224L330.639 152.427C326.557 153.231 320.241 153.856 311.893 154.347L301.163 149.895C297.827 150.03 294.997 150.098 292.672 150.098H289.703C285.003 150.098 281.292 149.603 278.57 148.613C275.354 147.624 271.891 145.645 268.18 142.676C264.469 139.707 260.882 136.243 257.418 132.285L256.762 131.476ZM202.805 180.63C202.727 182.761 202.65 184.865 202.603 186.878C194.858 187.782 187.114 188.861 179.371 190.116C170.434 191.306 161.497 192.337 152.561 193.206C152.727 191.393 152.813 189.578 152.816 187.761C153.396 175.617 156.452 161.508 160.36 149.455C160.977 147.596 161.352 145.701 161.352 143.812C161.352 141.422 160.71 139.322 159.571 137.543C169.853 136.344 180.294 135.25 190.895 134.26C191.502 135.107 192.19 135.882 192.894 136.586L193.124 136.816L193.381 137.014C199.396 141.641 202.009 149.993 202.798 160.628C203.183 165.818 203.114 171.228 202.948 176.522C202.905 177.891 202.854 179.266 202.805 180.63Z" fill="black"/>
<path d="M247.062 127.452L276.981 153.355C273.01 152.112 269.032 149.76 265.056 146.58C261.092 143.408 257.293 139.735 253.655 135.578L253.593 135.507L247.062 127.452Z" fill="black"/>
</svg>
