<svg width="350" height="350" viewBox="0 0 350 350" fill="none" xmlns="http://www.w3.org/2000/svg">
<path d="M35.498 332.562C29.9641 334.223 21.11 336.436 8.93553 339.203C-3.79233 342.523 -12.6465 344.462 -17.627 345.016L-36.7188 346.672H-41.6992C-47.2331 346.672 -50 345.016 -50 341.695C-49.4466 337.822 -47.2331 335.051 -43.3594 333.391L-18.457 322.602C19.9389 306.357 47.5 295.608 95 271C136.5 249.5 187.637 218.04 199.258 208.633C212.903 198.089 223.346 174.517 233.932 159.961C237.805 154.427 240.849 151.382 243.062 150.828C245.829 150.275 248.32 150 250.533 150C254.96 151.107 260.494 153.32 267.135 156.641C274.329 160.514 279.863 163.835 283.736 166.602C287.057 168.815 293.697 173.792 303.658 181.539C313.619 189.286 319.153 195.927 320.26 201.461V203.953C320.26 207.273 319.43 210.319 317.77 213.086C316.109 215.299 311.406 217.238 303.658 218.898C295.911 220.559 289.27 222.49 283.736 224.703C278.202 226.363 269.348 229.966 257.174 235.5L210.689 255.422L104.394 305.172C81.2953 315.001 59.1809 324.668 35.498 332.562Z" fill="black"/>
<path d="M278.558 350.487C274.933 349.013 265.6 341.842 250.557 328.97L220.414 300.243C215.302 295.352 184.332 272.439 203.8 269.417C217.328 267.312 227.689 266.245 234.883 266.212C242.077 266.179 250.719 266.732 260.813 267.878C271.417 268.809 280.01 272.092 286.592 277.724C292.878 284.08 298.253 291.124 302.716 298.851C306.374 307.518 308.002 314.934 307.604 321.108C306.532 337.763 296.308 355.888 278.558 350.487Z" fill="black"/>
</svg>
