<svg width="350" height="350" viewBox="0 0 350 350" fill="none" xmlns="http://www.w3.org/2000/svg">
<path d="M149.718 327.328L120.057 329.453L115.82 343.623C113.936 347.402 112.053 349.528 110.17 350H109.464C108.051 350 105.933 348.347 103.108 345.04C100.283 342.679 97.458 338.664 94.6332 332.996C91.8083 327.328 89.925 322.368 88.9834 318.117C87.571 314.811 86.8648 311.977 86.8648 309.615C86.8648 308.198 87.1002 306.781 87.571 305.364C87.571 303.475 88.2772 299.696 89.6896 294.028C91.1021 288.36 92.5145 281.275 93.9269 272.773C95.3394 264.271 96.0456 253.408 96.0456 240.182V211.842C96.0456 193.893 93.9269 182.085 89.6896 176.417C86.3939 171.694 84.7461 168.151 84.7461 165.789V164.372C85.2169 162.011 86.6294 160.358 88.9834 159.413C90.3958 158.468 92.0437 157.996 93.9269 157.996C95.8102 157.996 97.9288 158.468 100.283 159.413L120.057 166.498C167.269 160.242 215.819 151.508 238.418 143.006C245.951 140.172 251.13 138.755 253.954 138.755C257.25 139.227 261.958 140.408 268.079 142.297C273.728 144.659 278.907 146.784 283.616 148.674C287.382 151.035 291.619 154.105 296.327 157.884C300.094 161.19 302.448 164.261 303.39 167.095C303.39 169.929 302.448 174.416 300.565 180.556C296.798 188.586 294.444 196.143 293.503 203.228C292.561 210.313 292.09 217.871 292.09 225.9C292.09 231.568 292.561 241.251 293.503 254.949C294.444 268.174 294.915 278.566 294.915 286.123C293.973 296.514 293.032 305.961 292.09 314.463C291.149 322.965 288.324 329.578 283.616 334.301C278.907 339.024 275.141 341.386 272.316 341.386C266.666 341.386 261.958 337.844 258.192 330.759L252.542 320.131L149.718 327.328ZM121.469 308.198L228.531 293.208C233.239 293.68 237.005 294.625 239.83 296.042L253.954 303.835C254.896 288.721 255.367 279.746 255.367 276.912L256.779 242.196C213.879 248.692 168.08 257.186 152.543 257.186L124.294 255.769L121.469 308.198ZM125.707 235.931C158.707 230.592 210.355 209.565 242.655 223.066L256.779 228.026L255.367 196.143C254.896 184.807 252.542 177.722 248.305 174.888C245.009 171.582 241.242 169.929 237.005 169.929C220.652 169.929 171.835 179.458 127.119 187.045L125.707 235.931ZM108.758 95.6478L215.819 74.9893C242.184 70.266 261.017 66.4873 272.316 63.6533C283.616 60.8193 292.09 59.4023 297.74 59.4023C304.331 59.4023 309.981 60.8193 314.689 63.6533C320.339 65.5427 327.636 69.3213 336.582 74.9893C345.527 80.6574 350 84.9084 350 87.7424C349.058 90.5764 347.646 92.4657 345.763 93.4104C343.879 94.8274 338.701 95.7721 330.226 96.2444L314.689 97.6614L282.203 99.0784C275.612 99.5507 260.546 100.968 237.005 103.329C195.372 108.149 161.018 114.676 138.419 121.154C131.827 123.043 126.884 123.988 123.588 123.988H121.469C118.645 123.988 113.936 122.807 107.345 120.445L93.2207 114.777L66.3844 140.283L45.1979 162.247C38.6066 167.915 31.0736 173.819 22.599 179.96L7.06218 190.587C4.70812 192.476 3.06028 193.421 2.11865 193.421C1.17703 193.421 0.470812 192.949 0 192.004V189.879C0 187.517 0.941623 185.155 2.82487 182.794L14.1244 169.332L33.8984 143.826L57.9098 109.818C64.5012 99.8988 71.5634 88.7989 79.0964 76.5182C85.6877 64.7098 91.3375 53.8462 96.0456 43.9271C100.754 34.0081 103.579 25.2699 104.52 17.7125C105.462 10.6275 106.403 6.14035 107.345 4.25101C108.287 2.83401 109.699 1.65317 111.582 0.708502C112.524 0.236167 113.466 0 114.407 0C116.761 0 119.586 0.708502 122.882 2.12551L144.068 10.6275C147.835 12.9892 152.543 16.0594 158.193 19.8381C163.842 24.0891 167.138 27.6316 168.08 30.4656V31.1741C168.08 34.9528 165.726 38.4953 161.018 41.8016L151.131 47.4696C149.247 49.359 146.422 52.4291 142.656 56.6802L122.882 77.2267L108.758 95.6478Z" fill="black"/>
</svg>
