<svg width="350" height="350" viewBox="0 0 350 350" fill="none" xmlns="http://www.w3.org/2000/svg">
<path fill-rule="evenodd" clip-rule="evenodd" d="M66.4405 331.641L76.5277 322.431C83.6396 316.238 90.208 308.573 96.2579 299.498C110.138 278.678 124.09 249.684 128.658 224.562L128.661 224.544L128.664 224.525C129.536 219.513 130.399 215.209 131.25 211.595L179.53 206.786L178.289 296.026V296.061C178.289 300.446 178.754 306.673 179.638 314.63C180.508 322.46 181.237 328.731 181.823 333.434C182.12 338.345 182.709 342.509 183.727 345.698C184.325 348.489 185.027 350.936 185.911 352.803C186.364 353.758 186.995 354.848 187.911 355.764C188.865 356.717 190.42 357.75 192.518 357.75H193.013L193.498 357.653C195.583 357.236 197.198 356.019 198.36 354.857C199.56 353.657 200.643 352.148 201.639 350.488L201.786 350.244L201.903 349.985C203.659 346.122 204.913 340.886 205.817 334.561L205.824 334.508L207.582 320.006C208.772 311.663 209.661 302.608 210.253 292.847L210.256 292.79L213.601 203.422L272.259 200.969L272.464 200.944C274.632 200.673 276.62 200.543 278.436 200.543C281.061 200.543 283.06 200.809 284.533 201.229L284.656 201.265L284.782 201.294C286.528 201.697 287.819 202.1 288.727 202.473C289.476 202.782 289.782 202.997 289.844 203.041L289.846 203.042C289.914 203.147 290.135 203.589 290.135 204.771C290.135 205.085 290.084 205.43 289.952 205.827L289.695 206.597V207.408C289.695 210.509 288.687 216.39 286.343 225.475C284.034 234.136 282.327 240.104 281.209 243.482C280.117 246.199 278.891 248.924 277.529 251.655C276.483 253.525 275.725 254.515 275.3 254.974C274.966 255.077 274.556 255.143 274.041 255.143C272.466 255.143 270.136 254.736 266.909 253.667L255.241 249.345L249.013 246.676L248.816 246.61C246.808 245.941 244.768 245.475 242.84 245.475C240.897 245.475 238.522 245.964 236.668 247.818C235.83 248.656 234.764 250.146 234.764 252.232C234.764 254.368 235.678 256.221 236.547 257.573C237.472 259.012 238.73 260.467 240.183 261.92L240.267 262.004L249.583 270.474L257.576 282.252L257.587 282.268C261.624 288.325 264.588 293.131 266.529 296.728C268.397 300.44 271.079 303.813 274.998 305.155C275.575 305.464 276.126 305.643 276.564 305.753C277.388 305.959 278.194 306.012 278.875 306.012C281.138 306.012 283.772 305.377 286.513 304.468C292.372 302.745 297.565 297.352 302.314 290.247C307.156 283.579 310.879 277.092 313.4 270.789C315.877 264.598 318 257.281 319.799 248.886L319.81 248.837L322.448 235.206C323.6 229.736 324.742 225.035 325.87 221.087C327.005 217.115 328.046 214.493 328.919 212.965L328.988 212.845L329.05 212.72C329.73 211.361 331.118 209.174 333.39 206.045C335.768 203.06 337.785 199.889 338.299 196.804L338.367 196.396V195.104C338.367 190.92 336.504 187.183 333.672 183.966C330.565 180.139 325.635 177.155 319.6 174.72C314.352 172.099 309.907 170.024 306.286 168.515L306.048 168.416L305.8 168.342C302.609 167.385 299.606 166.812 296.893 166.812H294.394L293.338 167.34C293.351 167.334 293.332 167.341 293.275 167.363C293.108 167.428 292.613 167.62 291.603 167.976C290.398 168.402 288.709 168.977 286.522 169.706L286.383 169.752L286.247 169.807C282.514 171.3 276.482 172.564 267.831 173.429L267.708 173.441L250.093 176.084C247.78 176.343 240.084 176.627 231.352 176.923C230.339 176.957 229.315 176.991 228.289 177.026L228.285 177.026C223.139 177.199 217.949 177.373 213.777 177.548V135.703L262.299 133.307H277.612L278.098 133.21C279.797 132.87 281.443 132.393 282.869 131.68C284.096 131.066 285.524 130.094 286.505 128.541C287.575 127.121 287.83 125.521 287.83 124.352C287.83 121.481 286.223 118.745 284.716 116.632L284.701 116.611L283.361 114.695L293.108 95.2004L293.185 95.0073C294.132 92.6409 295.59 90.1649 297.641 87.5846C299.843 85.1143 301.85 83.1194 303.662 81.5658L303.808 81.4408L303.944 81.3051C305.958 79.2907 307.624 77.4985 308.524 76.1485L308.812 75.7153L309.006 75.232C309.81 73.2224 310.242 71.129 310.242 68.9805V68.5667L310.174 68.1585C309.655 65.0424 307.601 61.8375 305.191 58.8257L305.11 58.7244L305.024 58.6274C302.554 55.8484 299.522 52.8196 295.955 49.5466C292.488 46.0906 288.809 43.2052 284.91 40.9311C280.914 38.5998 276.817 37.1738 272.723 37.1738C270.078 37.1738 266.936 38.0029 263.609 39.2089C260.252 40.3262 257.385 41.1412 254.99 41.676C252.188 42.235 248.786 42.8026 244.769 43.3764C243.055 43.6214 236.112 43.9073 228.254 44.2088L226.782 44.2651C222.623 44.4242 218.388 44.5861 214.958 44.751C215.266 38.5082 215.412 35.8037 217.869 28.4046L221.384 19.617L221.431 19.4776C221.807 18.3492 222.127 17.0414 222.127 15.6992C222.127 13.2535 221.398 10.9698 219.987 8.98807C218.896 7.2057 217.3 5.76197 215.6 4.57181C213.776 3.295 211.553 2.11747 209.024 1.01101L208.92 0.965673L197.418 -3.45798C193.986 -4.82689 190.281 -5.65436 186.341 -5.98273L186.134 -6H183.729C182.073 -6 180.442 -5.88169 179 -5.52112C177.818 -5.22569 175.973 -4.57582 174.647 -2.93491C172.527 -0.65465 171.697 2.23107 171.697 5.15234V5.50768L171.748 5.85945C172.157 8.72592 173.478 12.0919 175.301 15.738L175.335 15.8058L175.371 15.8725C177.24 19.3433 178.314 22.0297 178.791 24.0104C180.061 35.5021 180.069 39.4724 180.052 49.4848L138.986 53.3289L139.262 50.5698L139.263 50.558C139.838 44.5166 140.523 40.6356 141.2 38.5604C141.653 37.3449 142.027 36.232 142.295 35.2497C142.547 34.3266 142.801 33.1863 142.801 32.0664C142.801 29.6344 142.469 27.1457 141.394 24.9964L141.255 24.7179L141.082 24.4589C139.22 21.6654 135.515 18.9752 131.145 16.3532C127.009 13.8717 123.616 12.0304 121.269 11.1828C118.983 10.0937 115.841 9.15691 112.118 8.29797L111.564 8.16992H108.357C106.569 8.16992 104.721 8.29562 103.127 8.76951C100.703 9.32343 98.529 10.6889 97.1652 12.9987C96.1339 14.4024 95.8867 15.9726 95.8867 17.125C95.8867 19.9993 97.004 23.2972 98.5169 26.6311C100.416 30.979 101.758 35.287 102.56 39.5592L104.678 51.4174C104.695 53.3541 104.822 55.5707 105.05 58.0534L84.9973 60.624L84.9775 60.6265L71.7913 62.2635L58.5411 64.0302L42.8958 66.4007L41.9706 67.0175C40.8885 67.7389 39.8833 68.528 39.0113 69.4L37.5469 70.8645V73.375C37.5469 74.3667 37.7711 75.2994 37.959 75.9571C38.1687 76.691 38.454 77.4847 38.7834 78.3081L38.9322 78.6801L39.1383 79.0237C39.9865 80.4373 41.3057 81.7656 42.6445 82.9469C44.0655 84.2008 45.8635 85.5925 47.9903 87.1116L48.1528 87.2277L48.324 87.3304C53.472 90.4192 59.0451 91.998 64.959 91.998H66.2773C69.7929 91.998 74.2522 90.879 79.3243 89.0914C81.6835 88.3074 83.7312 87.8366 85.565 87.4426C85.7814 87.3961 86.0043 87.349 86.232 87.3009C87.6274 87.0061 89.2007 86.6737 90.5368 86.2129C91.6494 85.9802 95.151 85.4741 99.5347 84.8708C100.417 84.7494 101.32 84.6259 102.224 84.5023L102.236 84.5006C103.507 84.3267 104.78 84.1526 105.994 83.9844V91.4342L106.434 117.801V122.48L72.7551 125.974L54.4169 128.157L46.8001 128.58C44.99 128.584 43.3664 128.661 41.9959 128.844C40.7953 129.004 39.0336 129.327 37.5761 130.299C35.6335 131.594 34.5372 133.469 34.1709 135.506C33.7189 136.547 33.5918 137.588 33.5918 138.414C33.5918 141.282 35 143.592 36.6458 145.294C37.9882 146.881 39.5756 148.407 41.3754 149.882L42.0137 154.669L42.0605 154.88C42.5235 156.963 42.8121 160.143 42.8201 164.59C42.5354 168.239 42.1114 172.183 41.5458 176.425C41.0072 180.465 40.0718 184.182 38.7591 187.596L38.6974 187.756L38.6469 187.92C37.5854 191.37 36.4302 193.27 35.4957 194.205L35.3599 194.34L29.6523 200.999L29.4166 201.412C27.956 203.968 27 206.729 27 209.605C27 212.99 28.5747 216.867 30.6738 220.765C32.8117 224.735 34.9884 228.015 37.2535 230.28C39.7931 232.819 43.0866 235.26 46.9414 235.26H47.3809C50.4683 235.26 53.4609 234.004 56.1832 232.302C58.3997 230.917 61.3721 229.216 65.1322 227.191L65.2074 227.151L65.2811 227.108C68.4927 225.235 72.3123 223.452 76.7714 221.777C78.7519 221.09 83.5744 220.252 89.6562 219.265C89.9996 219.209 90.3459 219.153 90.6944 219.097L91.2055 219.014C93.7865 218.597 96.4724 218.163 99.02 217.715L98.1696 222.307L98.1684 222.313C94.1097 243.953 82.6122 270.019 71.875 289.96L71.8391 290.026L71.8052 290.094C68.0507 297.603 64.3062 304.516 60.5731 310.836L54.8691 320.05L54.8512 320.08C53.8897 321.682 53.0901 323.212 52.5187 324.641C51.9706 326.011 51.502 327.604 51.502 329.244C51.502 330.694 51.8706 332.041 52.4693 333.238L52.8321 333.964L53.4059 334.537C54.2438 335.375 55.7336 336.441 57.8203 336.441C59.0478 336.441 60.0655 336.062 60.675 335.791C61.3521 335.49 61.994 335.108 62.5714 334.723C63.7273 333.952 65.0224 332.901 66.4156 331.663L66.4405 331.641ZM289.826 203.016C289.826 203.016 289.83 203.02 289.837 203.029C289.829 203.021 289.826 203.016 289.826 203.016ZM102.647 188.866L82.0845 191.495L81.8314 191.555C76.8331 192.731 73.8332 193.18 72.4297 193.18H72.0167C71.7484 193.121 71.5509 193.06 71.4095 193.007C71.3395 192.627 71.2773 192.027 71.2773 191.148V179.415L71.2783 179.408C71.2853 179.353 71.3035 179.21 71.3466 178.952C71.4226 178.496 71.545 177.855 71.7216 177.007C72.0725 175.322 72.6071 172.967 73.3322 169.921C74.0625 167 74.6149 164.754 74.9866 163.193C75.1722 162.413 75.3184 161.781 75.4204 161.312C75.4706 161.081 75.5174 160.856 75.554 160.659C75.5558 160.65 75.5804 160.53 75.6065 160.349C76.1861 157.698 76.5508 155.311 76.5508 153.355V152.037C76.5508 151.569 76.5099 151.084 76.4354 150.587L106.006 147.154L105.129 159.134L105.129 159.138C104.289 170.34 103.831 177.494 103.799 180.305C103.576 182.258 103.194 185.105 102.647 188.866ZM71.5105 193.406C71.5103 193.406 71.5077 193.4 71.503 193.387C71.5084 193.399 71.5107 193.405 71.5105 193.406ZM133.56 185.569L135.77 155.738V155.553C135.77 152.692 135.946 148.695 136.31 143.522L179.952 140.289L179.246 180.911L133.56 185.569ZM137.213 118.462L137.527 104.633V93.5898C137.527 88.984 137.619 83.905 137.804 78.3503L179.951 74.0826L179.247 114.915L137.213 118.462ZM259.113 84.7887L255.555 98.5748L255.537 98.6575C255.148 100.41 254.428 102.811 253.337 105.909L248.29 106.175C247.816 106.201 247.335 106.283 247.166 106.312L247.126 106.318C246.748 106.382 246.252 106.471 245.654 106.583C244.517 106.796 242.927 107.107 240.894 107.513L213.874 108.963L214.57 70.7179L244.429 69.5622L244.931 69.4367C245.572 69.2766 246.597 69.1465 248.113 69.1465C249.928 69.1465 251.917 69.2763 254.085 69.5473L254.248 69.5677L254.411 69.5773C256.756 69.7152 258.449 69.9474 259.589 70.219C260.11 70.3429 260.434 70.4561 260.61 70.5309L260.833 70.754L260.918 70.8047C261.016 71.1551 261.131 71.8241 261.131 72.9355V74.2539C261.131 76.4737 260.554 79.891 259.137 84.7083L259.113 84.7887ZM260.725 70.5848C260.728 70.5864 260.73 70.5872 260.73 70.5873C260.731 70.5875 260.727 70.5852 260.718 70.5805C260.721 70.5823 260.723 70.5837 260.725 70.5848Z" fill="black"/>
</svg>
