<svg width="350" height="350" viewBox="0 0 350 350" fill="none" xmlns="http://www.w3.org/2000/svg">
<path fill-rule="evenodd" clip-rule="evenodd" d="M129.424 194.957L132.125 199.819C133.071 202.064 134.069 205.365 135.099 209.809C135.795 214.349 136.317 218.529 136.666 222.35L140.789 298.625H124.703L105.366 297.551H105.283C103.577 297.551 102.056 297.644 100.762 297.86C99.5846 298.056 98.3647 298.389 97.3446 299.019C95.2837 300.095 93.8179 301.816 93.2419 304.12L93.1523 304.478V305.922C93.1523 308.183 94.2184 310.733 95.6961 313.318L95.7254 313.37L95.7568 313.42C97.7332 316.582 100.612 319.819 104.292 323.138C107.229 326.071 111.038 329.513 115.699 333.456L115.708 333.463L115.716 333.471C120.03 337.065 123.869 339.628 127.177 340.901C129.559 342.073 131.945 342.76 134.287 342.76H135.898C138.407 342.76 141.807 341.59 145.734 339.805L145.81 339.771L157.138 333.837L164.633 330.09C167.343 328.735 176.843 324.858 193.388 318.384L193.41 318.375L285.223 280.791C289.234 279.326 292.597 277.427 294.233 274.702L294.292 274.603L294.343 274.5C295.174 272.839 295.734 271.111 295.734 269.398V267.416L295.231 266.66C293.822 264.547 291.363 263.622 288.931 263.217L288.686 263.176H288.438C285.847 263.176 281.736 263.999 276.391 265.424L276.385 265.426L230.968 277.273L234.906 206.388L281.347 197.712C285.307 197.297 288.826 196.078 291.793 193.959L291.883 193.894L291.969 193.822C294.232 191.936 296.12 189.807 296.719 187.411L296.809 187.053V186.684C296.809 185.23 296.272 183.884 295.575 182.723C294.869 181.546 293.884 180.368 292.707 179.191C289.884 176.368 285.384 174.822 279.903 174.069C275.928 172.996 272.48 172.404 269.639 172.404H267.595L258.109 175.194L236.402 180.621L237.179 169.752C237.892 162.627 238.593 157.601 239.266 154.571L239.302 154.412L239.32 154.251C239.643 151.342 240.459 148.205 241.809 144.829L241.821 144.799L241.832 144.768C242.922 141.861 243.635 139.28 243.635 137.27V136.9L243.545 136.542C242.976 134.264 241.201 131.982 238.996 129.777L238.915 129.696L238.827 129.621C237.083 128.125 235.622 126.922 234.477 126.049L248.56 124.129C252.521 123.589 255.751 123.089 258.234 122.629C260.638 122.184 262.566 121.738 263.77 121.256L263.886 121.21L263.998 121.154C266.432 119.937 268.879 117.914 268.879 114.711V114.174C268.879 111.357 267.115 109.338 264.98 107.991L262.301 105.647L274.168 63.8534L274.192 63.7368C274.437 62.5117 275.596 59.8922 278.109 55.5792C280.526 51.7828 282.381 49.0877 283.697 47.4248L290.022 41.0998C292.267 38.855 293.586 36.1553 293.586 33.0703V32.7733L293.528 32.482C293.236 31.0257 292.499 29.6088 291.575 28.2743C290.634 26.9145 289.383 25.4767 287.873 23.9666L287.803 23.8959L287.727 23.8302C284.584 21.0797 280.028 18.2605 274.203 15.348L274.171 15.332L274.139 15.3168C268.012 12.4336 262.907 10.2428 258.847 8.76656L258.809 8.75271L258.771 8.73989C254.43 7.29283 250.818 6.4375 248.154 6.4375H247.785L247.427 6.52707C245.615 6.9799 242.447 8.39981 238.219 10.514C234.073 12.5871 229.567 14.4968 224.699 16.24L210.766 19.9913L210.682 20.0192C208.017 20.9076 205.923 21.5609 204.383 21.9888C203.611 22.2031 203.009 22.3524 202.56 22.446C202.197 22.5214 202.018 22.5426 201.967 22.5485C201.949 22.5507 201.948 22.5508 201.963 22.5508H201.62L157.947 32.6702L147.972 30.1765C144.179 29.0448 140.509 28.459 136.973 28.459H134.039L133.794 28.4998C131.598 28.8658 129.31 29.5083 127.869 30.949C126.392 32.4262 125.916 34.3982 125.916 36.293C125.916 39.0699 127.652 41.272 129.727 42.9324L129.744 42.9453L134.444 46.6014C136.364 48.535 137.945 50.4367 139.206 52.303C140.145 54.217 141.13 56.8356 142.145 60.2148C143.2 64.0839 144.079 67.4224 144.782 70.2331L154.959 124.867C155.736 130.246 157.491 134.982 160.296 138.99L160.447 139.205L160.633 139.391C162.976 141.734 165.675 143.492 168.662 143.492H170.694L171.098 143.377C174.592 142.378 177.149 139.894 178.865 136.463L178.921 136.351L180.464 132.492L192.797 130.848L194.945 134.787C195.621 136.496 196.637 139.376 198.006 143.479C199.01 147.532 199.696 152.32 200.043 157.867C200.395 163.493 200.574 172.359 200.574 184.512V184.535L198.999 286.4L169.551 293.985L170.051 241.483V241.469C170.051 236.162 170.228 231.413 170.578 227.216L170.588 227.092V226.967C170.588 222.464 170.934 218.349 171.614 214.613L171.638 214.481L171.65 214.348C172 210.496 172.511 207.719 173.119 205.894L173.134 205.851L173.147 205.807C174.212 202.256 174.885 199.355 174.885 197.426C174.885 195.848 174.208 194.439 173.403 193.288C172.578 192.111 171.435 190.941 170.077 189.777L169.977 189.691L169.869 189.613C167.209 187.714 164.515 186.17 161.787 185L161.724 184.973L161.659 184.949C158.685 183.834 154.658 182.555 149.613 181.113L149.565 181.1L149.517 181.088C146.496 180.332 143.735 179.924 141.27 179.924C139.584 179.924 137.908 180.135 136.245 180.551L136.177 180.567L136.111 180.587C134.151 181.175 132.409 181.923 131.046 182.915C129.659 183.923 128.493 185.318 128.123 187.169L128.064 187.461V188.832C128.064 190.753 128.542 192.751 129.353 194.78L129.424 194.957ZM241.357 42.1782L239.815 51.4324L233.639 99.8062L180.84 109.584L172.058 50.5464L222.861 41.4017C229.843 40.3547 234.745 39.6536 237.594 39.2937C239.255 39.3072 240.224 39.5047 240.736 39.6856C240.776 39.7788 240.824 39.9021 240.877 40.0615C241.043 40.5584 241.209 41.2527 241.357 42.1782Z" fill="black"/>
</svg>
