<svg width="350" height="350" viewBox="0 0 350 350" fill="none" xmlns="http://www.w3.org/2000/svg">
<path fill-rule="evenodd" clip-rule="evenodd" d="M129.428 194.957L132.129 199.819C133.075 202.064 134.073 205.365 135.103 209.809C135.799 214.349 136.321 218.529 136.669 222.35L140.792 298.625H124.707L105.37 297.551H105.287C103.581 297.551 102.06 297.644 100.766 297.86C99.5886 298.056 98.3686 298.389 97.3485 299.019C95.2877 300.095 93.8218 301.816 93.2458 304.12L93.1562 304.478V305.922C93.1562 308.183 94.2223 310.733 95.7 313.318L95.7293 313.37L95.7607 313.42C97.7371 316.582 100.616 319.819 104.296 323.138C107.233 326.071 111.042 329.513 115.703 333.456L115.711 333.463L115.72 333.471C120.034 337.065 123.873 339.628 127.18 340.901C129.563 342.073 131.949 342.76 134.291 342.76H135.902C138.411 342.76 141.811 341.59 145.738 339.805L145.814 339.771L157.142 333.837L164.637 330.09C167.346 328.735 176.847 324.858 193.392 318.384L193.414 318.375L285.227 280.791C289.238 279.326 292.601 277.427 294.237 274.702L294.296 274.603L294.347 274.5C295.178 272.839 295.738 271.111 295.738 269.398V267.416L295.234 266.66C293.826 264.547 291.367 263.622 288.935 263.217L288.69 263.176H288.441C285.851 263.176 281.74 263.999 276.395 265.424L276.389 265.426L230.972 277.273L234.91 206.388L281.351 197.712C285.311 197.297 288.83 196.078 291.796 193.959L291.887 193.894L291.973 193.822C294.236 191.936 296.124 189.807 296.723 187.411L296.812 187.053V186.684C296.812 185.23 296.276 183.884 295.579 182.723C294.873 181.546 293.888 180.368 292.711 179.191C289.888 176.368 285.388 174.822 279.907 174.069C275.932 172.996 272.484 172.404 269.643 172.404H267.599L258.113 175.194L236.406 180.621L237.183 169.752C237.896 162.627 238.597 157.601 239.27 154.571L239.306 154.412L239.323 154.251C239.647 151.342 240.462 148.205 241.813 144.829L241.825 144.799L241.836 144.768C242.926 141.861 243.639 139.28 243.639 137.27V136.9L243.549 136.542C242.98 134.264 241.205 131.982 239 129.777L238.919 129.696L238.831 129.621C237.086 128.125 235.626 126.922 234.481 126.049L248.564 124.129C252.525 123.589 255.755 123.089 258.238 122.629C260.641 122.184 262.57 121.738 263.774 121.256L263.89 121.21L264.002 121.154C266.435 119.937 268.883 117.914 268.883 114.711V114.174C268.883 111.357 267.119 109.338 264.984 107.991L262.305 105.647L274.172 63.8534L274.196 63.7368C274.441 62.5117 275.6 59.8922 278.113 55.5792C280.53 51.7828 282.385 49.0877 283.701 47.4248L290.026 41.0998C292.27 38.855 293.59 36.1553 293.59 33.0703V32.7733L293.532 32.482C293.24 31.0257 292.503 29.6088 291.579 28.2743C290.638 26.9145 289.387 25.4767 287.877 23.9666L287.807 23.8959L287.731 23.8302C284.588 21.0797 280.032 18.2605 274.207 15.348L274.175 15.332L274.143 15.3168C268.016 12.4336 262.911 10.2428 258.851 8.76656L258.813 8.75271L258.775 8.73989C254.434 7.29283 250.821 6.4375 248.158 6.4375H247.789L247.431 6.52707C245.619 6.9799 242.451 8.39981 238.223 10.514C234.077 12.5871 229.571 14.4968 224.703 16.24L210.77 19.9913L210.686 20.0192C208.021 20.9076 205.927 21.5609 204.387 21.9888C203.615 22.2031 203.012 22.3524 202.563 22.446C202.201 22.5214 202.022 22.5426 201.971 22.5485C201.952 22.5507 201.952 22.5508 201.967 22.5508H201.624L157.951 32.6702L147.976 30.1765C144.183 29.0448 140.512 28.459 136.977 28.459H134.043L133.798 28.4998C131.602 28.8658 129.314 29.5083 127.873 30.949C126.396 32.4262 125.92 34.3982 125.92 36.293C125.92 39.0699 127.656 41.272 129.731 42.9324L129.747 42.9453L134.448 46.6014C136.368 48.535 137.949 50.4367 139.21 52.303C140.149 54.217 141.134 56.8356 142.149 60.2148C143.204 64.0839 144.083 67.4224 144.786 70.2331L154.963 124.867C155.74 130.246 157.495 134.982 160.3 138.99L160.451 139.205L160.636 139.391C162.98 141.734 165.679 143.492 168.666 143.492H170.698L171.102 143.377C174.596 142.378 177.153 139.894 178.869 136.463L178.925 136.351L180.468 132.492L192.801 130.848L194.949 134.787C195.625 136.496 196.641 139.376 198.01 143.479C199.014 147.532 199.7 152.32 200.047 157.867C200.399 163.493 200.578 172.359 200.578 184.512V184.535L199.003 286.4L169.555 293.985L170.055 241.483V241.469C170.055 236.162 170.232 231.413 170.581 227.216L170.592 227.092V226.967C170.592 222.464 170.938 218.349 171.618 214.613L171.642 214.481L171.654 214.348C172.004 210.496 172.515 207.719 173.123 205.894L173.138 205.851L173.151 205.807C174.216 202.256 174.889 199.355 174.889 197.426C174.889 195.848 174.212 194.439 173.406 193.288C172.582 192.111 171.439 190.941 170.081 189.777L169.981 189.691L169.873 189.613C167.213 187.714 164.519 186.17 161.791 185L161.728 184.973L161.663 184.949C158.689 183.834 154.662 182.555 149.617 181.113L149.569 181.1L149.521 181.088C146.5 180.332 143.739 179.924 141.273 179.924C139.588 179.924 137.912 180.135 136.249 180.551L136.181 180.567L136.115 180.587C134.155 181.175 132.413 181.923 131.049 182.915C129.663 183.923 128.497 185.318 128.127 187.169L128.068 187.461V188.832C128.068 190.753 128.545 192.751 129.357 194.78L129.428 194.957ZM241.361 42.1782L239.819 51.4324L233.643 99.8062L180.844 109.584L172.062 50.5464L222.865 41.4017C229.847 40.3547 234.749 39.6536 237.598 39.2937C239.259 39.3072 240.228 39.5047 240.74 39.6856C240.78 39.7788 240.828 39.9021 240.881 40.0615C241.047 40.5584 241.212 41.2527 241.361 42.1782Z" fill="black"/>
</svg>
