<svg width="350" height="350" viewBox="0 0 350 350" fill="none" xmlns="http://www.w3.org/2000/svg">
<path d="M164.709 85.8676C153.764 73.3642 137.345 49.1391 115.455 13.1921C112.848 7.98234 111.545 3.81457 111.545 0.688742V-1.65563C112.588 -3.21854 114.152 -4 116.236 -4C118.321 -4 120.667 -3.47903 123.273 -2.43709C143.6 7.46137 159.236 17.0993 170.182 26.4768C176.958 32.7285 182.43 38.4592 186.6 43.6689C188.685 47.3157 190.248 53.8278 191.291 63.2053C191.291 75.7086 188.685 84.0442 183.473 88.2119C185.036 88.2119 187.121 87.9514 189.727 87.4305C221 82.7417 252.273 77.011 283.545 70.2384C287.715 69.1965 291.885 68.6755 296.055 68.6755C302.309 68.6755 308.042 69.7174 313.255 71.8013C321.073 74.9272 326.545 77.532 329.673 79.6159C340.097 85.3466 345.309 91.0773 345.309 96.8079V97.5894C345.309 102.278 340.358 105.404 330.455 106.967C302.309 108.53 271.036 111.395 236.636 115.563C164.709 123.377 101.642 132.234 47.4364 142.132C43.7879 142.653 40.4 142.914 37.2727 142.914C31.0182 142.914 25.5455 141.872 20.8545 139.788C13.0364 135.099 6.2606 130.15 0.527271 124.94C-4.16364 120.773 -6.50909 117.647 -6.50909 115.563C-6.50909 111.916 -2.07879 109.832 6.78182 109.311C32.3212 107.227 57.3394 104.623 81.8364 101.497L169.4 89.7748C167.836 88.2119 166.273 86.9095 164.709 85.8676ZM86.5273 161.669C94.3455 171.567 98.7758 179.382 99.8182 185.113C99.8182 189.801 97.7333 193.709 93.5636 196.834C88.3515 198.918 81.5758 203.607 73.2364 210.901C57.0788 224.967 41.703 236.689 27.1091 246.066C13.0364 254.402 0.787878 260.653 -9.63636 264.821C-20.5818 269.51 -28.1394 272.115 -32.3091 272.636C-35.4364 272.636 -37 271.594 -37 269.51C-37 268.468 -36.7394 267.426 -36.2182 266.384C-34.6545 264.821 -31.7879 262.477 -27.6182 259.351C-10.4182 245.285 4.69697 231.479 17.7273 217.934C30.7576 203.868 42.7455 189.02 53.6909 173.391C55.7758 170.265 56.8182 166.618 56.8182 162.45C56.8182 160.366 56.5576 158.283 56.0364 156.199V154.636C56.0364 148.384 58.3818 145.258 63.0727 145.258H65.4182C71.6727 146.821 78.7091 152.291 86.5273 161.669ZM213.964 126.503C215.527 123.898 218.394 122.596 222.564 122.596H224.909C260.873 134.057 289.018 146.3 309.345 159.325C322.376 167.139 332.539 175.475 339.836 184.331C342.964 187.457 345.83 193.188 348.436 201.523C349.479 206.212 350 210.38 350 214.026C350 220.278 348.176 224.967 344.527 228.093C342.442 229.656 340.097 230.437 337.491 230.437C334.885 230.437 332.018 229.395 328.891 227.311C305.436 214.287 269.473 184.852 221 139.007C216.309 134.318 213.964 130.411 213.964 127.285V126.503ZM115.455 301.55C159.236 293.735 202.236 287.483 244.455 282.795L211.618 250.755C208.491 247.629 206.927 243.461 206.927 238.252C207.448 233.563 209.794 231.219 213.964 231.219C224.909 232.781 243.152 240.075 268.691 253.099C284.327 259.872 295.533 269.51 302.309 282.013C306.479 290.349 308.564 297.642 308.564 303.894V305.457C308.042 313.793 303.352 317.96 294.491 317.96C287.715 317.96 279.636 314.053 270.255 306.238C267.127 304.155 264.261 301.55 261.655 298.424C259.57 298.945 256.703 299.987 253.055 301.55C206.29 308.084 158.118 314.686 113.109 329.682C94.3454 335.934 81.0545 341.925 73.2364 347.656C70.1091 349.219 67.2424 350 64.6364 350C61.5091 350 58.6424 348.958 56.0364 346.874C46.6545 336.976 40.6606 327.859 38.0545 319.523V318.742C38.0545 314.053 41.1818 309.625 47.4364 305.457C69.8485 292.433 87.3091 278.366 99.8182 263.258C108.158 253.881 115.455 243.982 121.709 233.563C128.485 220.539 131.873 208.556 131.873 197.616V192.146C131.352 190.062 131.091 188.238 131.091 186.676C131.091 180.424 133.436 176.517 138.127 174.954C139.17 174.433 140.473 174.172 142.036 174.172C145.685 174.172 150.115 175.996 155.327 179.642C175.655 192.146 187.121 201.263 189.727 206.993C190.248 208.035 190.509 209.077 190.509 210.119C190.509 213.766 188.424 217.673 184.255 221.841C175.915 228.093 150.897 252.578 109.2 295.298C107.115 297.382 106.073 299.466 106.073 301.55H115.455Z" fill="black"/>
</svg>
