<svg width="350" height="350" viewBox="0 0 350 350" fill="none" xmlns="http://www.w3.org/2000/svg">
<path fill-rule="evenodd" clip-rule="evenodd" d="M142.705 1.44656L142.688 1.43998L142.672 1.43355C133.983 -2.00517 127.01 -4 122.17 -4C119.332 -4 116.866 -2.82271 115.11 -0.6075C113.442 1.23381 112.661 3.50781 112.661 5.94564C112.661 17.3834 107.03 35.4271 95.0275 60.4972C78.8075 94.0316 59.9631 123.858 38.5063 149.997C26.1815 163.712 17.9889 174.512 14.3805 182.223L13.4531 184.205L14.6217 186.055C16.8466 189.577 20.4578 191.089 24.5139 191.089H25.7108L26.711 190.432C44.6881 178.615 61.6642 163.801 77.6479 146.021C79.3023 155.904 80.1091 164.029 80.1091 170.442C80.1091 215.395 78.6186 249.718 75.6689 273.505C72.0308 286.602 69.2881 296.998 67.4488 304.674C66.523 308.537 65.8177 311.746 65.3416 314.281C64.8814 316.732 64.5843 318.807 64.5843 320.272V320.377L64.5898 320.482C64.973 327.761 67.8387 334.949 72.8309 342.005L72.883 342.078L72.9384 342.149C78.6255 349.464 85.1679 354 92.6227 354C96.6453 354 99.7716 352.185 102.019 349.637C104.171 347.198 105.541 344.084 106.449 341.135C107.423 337.968 107.969 334.63 108.273 331.773C114.124 334.076 119.452 335.336 124.173 335.336C126.626 335.336 131.529 334.587 138.427 333.287C155.292 330.146 174.687 327.651 196.623 325.809L196.662 325.806L196.701 325.802C216.928 323.702 235.46 322.655 252.306 322.652L274.162 323.439C291.808 325.018 304.616 325.823 312.474 325.823H312.519L312.564 325.822C318.583 325.686 323.62 324.975 327.376 323.448C331.211 321.889 334.359 319.161 334.965 314.848L335.062 314.154L334.918 313.468C334.166 309.9 331.838 306.809 328.735 304.13C325.606 301.428 321.375 298.87 316.193 296.409L316.136 296.382L316.078 296.357C306.095 291.998 297.018 289.681 288.936 289.681C285.729 289.681 281.565 289.961 276.497 290.495L276.456 290.5L276.415 290.505C268.163 291.55 259.572 292.335 250.641 292.858L250.608 292.86L250.575 292.863C243.932 293.364 229.985 294.793 208.802 297.139V245.296C224.404 243.996 242.578 242.244 263.318 240.039L263.742 239.994L264.147 239.86C266.661 239.031 268.912 237.708 270.528 235.682C272.18 233.613 272.904 231.142 272.904 228.53C272.904 226.368 272.251 224.34 270.921 222.604C269.634 220.924 267.866 219.715 265.911 218.837C262.082 217.117 256.804 216.343 250.46 216.207L250.417 216.206H250.375C243.413 216.206 235.346 217.029 226.206 218.634C220.503 219.454 214.902 220.194 209.405 220.854C209.515 215.616 209.624 209.421 209.733 203.238L209.733 203.227C209.889 194.389 210.045 185.58 210.201 179.634C224.524 177.888 241.568 175.915 261.334 173.715L261.596 173.686L261.852 173.623C264.881 172.873 267.616 171.684 269.641 169.78C271.789 167.761 272.904 165.15 272.904 162.208C272.904 159.884 272.232 157.703 270.852 155.813C269.508 153.97 267.636 152.597 265.51 151.57C261.342 149.559 255.549 148.573 248.526 148.302L248.449 148.299H248.371C241.726 148.299 233.977 149.126 225.163 150.734C220.385 151.491 215.77 152.316 211.32 153.209C211.621 150.586 211.977 147.919 212.34 145.2C212.514 143.894 212.69 142.576 212.862 141.245C213.628 135.319 214.311 129.204 214.311 123.273C214.311 120.535 213.158 118.024 211.509 115.822C211.398 115.673 211.284 115.525 211.167 115.377C222.686 113.773 235.908 111.917 250.831 109.808C260.152 108.979 269.765 106.93 279.664 103.688L279.696 103.678L279.728 103.667C285.68 101.606 290.374 97.9408 290.917 91.9224L290.974 91.288L290.832 90.6673C290.212 87.9686 288.461 85.9232 286.291 84.4286C284.159 82.9605 281.429 81.8779 278.313 81.0559C272.077 79.4106 263.384 78.5799 252.427 78.4465L252.402 78.4462H252.378C247.714 78.4462 240.352 80.0759 230.695 82.9753L230.686 82.9778C209.338 89.4386 169.41 95.8673 110.605 102.206C126.27 77.1927 140.653 55.7602 153.755 37.8958C157.117 34.5469 159.779 31.366 161.633 28.3586C163.508 25.3154 164.731 22.1656 164.731 19.026C164.731 16.8967 163.852 15.035 162.698 13.5129C161.551 11.9996 159.981 10.6135 158.165 9.32388C154.536 6.74634 149.321 4.13188 142.705 1.44656ZM80.1027 137.147C80.4371 138.867 80.7505 140.545 81.0429 142.182C83.087 153.624 84.1091 163.044 84.1091 170.442C84.1091 161.986 82.7737 150.888 80.1027 137.147C80.1029 137.146 80.1026 137.147 80.1027 137.147ZM103.14 107.022C104.745 106.854 106.336 106.685 107.915 106.517L106.9 106.625C105.835 106.738 104.763 106.851 103.686 106.964L103.14 107.022ZM108.587 327.588C108.112 327.392 107.632 327.188 107.146 326.976C107.146 326.976 107.146 326.976 107.146 326.976C106.552 326.662 106.015 326.395 105.538 326.175C105.212 326.024 104.913 325.894 104.642 325.787M137.695 329.354C137.696 329.354 137.695 329.354 137.695 329.354C137.257 329.437 136.828 329.517 136.409 329.594ZM276.917 294.473C276.917 294.473 276.917 294.473 276.917 294.473ZM250.875 296.852C250.875 296.852 250.876 296.852 250.875 296.852ZM226.837 222.584C226.837 222.584 226.837 222.584 226.837 222.584ZM225.835 154.677C225.835 154.677 225.836 154.677 225.835 154.677ZM110.651 171.325C110.651 171.325 110.652 171.325 110.651 171.325C110.985 171.289 111.32 171.252 111.655 171.215C111.472 171.235 111.289 171.255 111.106 171.275C110.954 171.292 110.803 171.309 110.651 171.325ZM97.1302 116.138C97.1302 116.138 97.1301 116.138 97.1302 116.138ZM176.127 120.522C176.006 119.012 175.882 117.669 175.755 116.535C175.756 116.535 175.755 116.535 175.755 116.535C176.603 124.137 177.331 141.074 177.94 155.23C178.05 157.805 178.157 160.287 178.26 162.605C178.26 162.605 178.26 162.605 178.26 162.605C178.157 160.287 178.05 157.805 177.94 155.23C177.422 143.186 176.818 129.13 176.127 120.522ZM174.105 159.159C150.569 162.517 129.774 165.191 111.717 167.184L112.147 139.159V139.128C112.147 132.31 107.021 126.426 99.6116 121.314C100.85 121.689 102.213 122.05 103.686 122.401C113.267 124.836 122.108 126.084 130.183 126.084C136.514 126.084 144.749 125.121 154.795 123.271C159.08 122.816 164.873 122.083 172.159 121.076C172.832 129.566 173.426 143.374 173.941 155.352C173.996 156.645 174.051 157.917 174.105 159.159ZM109.241 309.423C123.14 307.882 140.285 305.807 160.681 303.195C166.366 302.338 171.726 301.568 176.761 300.883C176.742 285.842 176.606 262.077 176.354 248.336C151.15 250.47 135.023 251.556 128.179 251.556C122.698 251.556 116.815 250.905 110.541 249.633L109.241 309.423ZM180.763 304.383C180.763 289.705 180.625 262.855 180.348 247.996C180.321 246.537 180.293 245.194 180.263 243.989C180.263 243.989 180.263 243.989 180.263 243.989C180.597 257.465 180.763 288.263 180.763 304.383C180.763 304.383 180.764 304.383 180.763 304.383ZM161.232 307.157C161.232 307.157 161.232 307.157 161.232 307.157ZM110.629 245.567C109.484 245.327 108.323 245.065 107.146 244.781L107.196 244.793C108.355 245.072 109.5 245.33 110.629 245.567ZM178.76 179.253C178.797 180.419 178.834 181.768 178.871 183.263C179.013 189.055 179.156 197.034 179.299 205.013C179.453 213.642 179.608 222.27 179.762 228.134C179.762 228.134 179.762 228.134 179.762 228.134C179.608 222.27 179.453 213.642 179.299 205.013C179.119 194.975 178.94 184.937 178.76 179.253C178.76 179.253 178.76 179.253 178.76 179.253ZM112.655 179.253C110.651 178.724 108.983 178.328 107.647 178.063C108.748 178.281 110.076 178.589 111.631 178.987C111.962 179.071 112.303 179.16 112.655 179.253ZM136.693 186.82C141.93 186.82 154.746 185.753 174.88 183.677C175.02 189.426 175.159 197.207 175.298 205.009L175.298 205.03C175.423 212.011 175.548 219.007 175.674 224.578C151.651 227.336 130.001 229.574 110.722 231.291L111.56 183.101L111.597 183.11C120.241 185.57 128.611 186.82 136.693 186.82Z" fill="black"/>
<path fill-rule="evenodd" clip-rule="evenodd" d="M200.063 30.5523L179.029 27.7101H166.247V31.7101C166.247 32.8221 166.661 33.7308 166.862 34.1437C167.121 34.6746 167.449 35.203 167.788 35.6986C168.469 36.6979 169.421 37.8969 170.584 39.2604C172.91 41.9884 176.336 45.669 180.823 50.2742C196.265 68.053 210.962 78.1223 224.834 78.1223C228.981 78.1223 232.673 76.6796 235.17 73.3517C237.504 70.24 238.349 66.0511 238.349 61.4383C238.349 55.2924 235.321 49.6028 230.241 44.4162C227.552 41.4928 223.598 38.9919 218.72 36.7858C213.766 34.5454 207.603 32.4955 200.291 30.6113L200.063 30.5523ZM170.247 31.7101C170.247 33.0313 174.754 38.3163 183.769 47.5651C178.692 42.3561 175.044 38.4044 172.826 35.7101C171.107 33.6205 170.247 32.2872 170.247 31.7101ZM174.054 30.639C174.028 30.5871 174.038 30.5964 174.063 30.6578L174.054 30.639Z" fill="black"/>
</svg>
