<svg width="350" height="350" viewBox="0 0 350 350" fill="none" xmlns="http://www.w3.org/2000/svg">
<path d="M165.173 98.3862C163.78 108.131 161.988 116.471 160.42 123.463L70.8024 131.017L70.6926 131.031C53.2029 133.217 42.9283 134.546 40.3587 134.98L11.9556 137.165L11.8454 137.178C6.73034 137.78 4.03233 138.02 3.25954 138.02H2.98522L-6.19237 138.937L-6.30735 138.954C-8.58628 139.279 -10.7488 139.772 -12.568 140.568C-14.2222 141.292 -16.4372 142.64 -17.5579 145.172C-17.8976 145.866 -18.5002 147.227 -18.5002 148.793C-18.5002 151.295 -17.5856 153.585 -16.4288 155.526C-14.9701 158.067 -13.0431 160.483 -10.737 162.789L-10.5876 162.939L-10.4272 163.076C-8.11723 165.056 -4.67077 167.548 -0.230766 170.508L-0.121872 170.581L-0.00964355 170.648C4.47162 173.337 8.55306 175.606 12.2256 177.443C15.9743 179.317 20.0478 180.221 24.3533 180.221H26.1111C29.5146 180.221 34.4482 178.86 40.2327 176.836C45.8782 174.86 53.7634 172.561 63.9554 169.94C74.1423 167.321 83.4307 165.144 91.825 163.407C109.658 159.718 127.749 157.806 146.056 156.614C106.605 237.431 37.3584 297.291 -56.5364 329.039L-56.5417 329.041L-60.2599 330.293L-60.3991 330.348C-61.5351 330.801 -62.7244 331.389 -63.7699 332.193C-64.7993 332.984 -66.0439 334.259 -66.6222 336.159C-67.0396 337.531 -67.3004 339.631 -66.1769 341.738C-65.0557 343.84 -63.2216 345.24 -61.0792 345.892C-59.8268 346.273 -58.5336 346.366 -57.386 346.353L-51.4148 346.764L-51.0536 346.741C6.16304 343.145 60.1301 315.897 103.976 276.989C139.119 245.804 167.977 206.942 186.969 166.247C187.521 168.005 188.334 170.115 189.316 172.471C190.535 175.396 191.289 178.617 191.543 182.173L191.578 182.651L191.694 183.115C191.828 183.652 191.969 184.749 191.969 186.615C191.969 188.096 191.844 190.074 191.563 192.6L191.546 192.75L191.538 192.902C191.245 198.181 191.094 202.919 191.09 207.107L187.584 266.712C187.285 271.786 187.135 276.582 187.135 281.098C187.135 289.429 187.718 296.353 189.031 301.661C190.714 309.648 194.529 317.01 200.274 323.729C205.785 330.519 212.491 335.603 220.355 338.889C223.921 340.448 228.921 341.615 234.607 342.541C240.428 343.488 247.37 344.243 255.01 344.832C270.298 346.011 288.656 346.549 306.974 346.591C325.301 346.632 343.665 346.176 358.985 345.355C374.137 344.543 386.755 343.354 393.309 341.825L393.393 341.805L393.476 341.783C402.708 339.321 410.863 335.896 417.863 331.441L417.987 331.362L418.107 331.276C424.548 326.676 429.557 321.951 432.72 317.031L432.739 317.001L432.758 316.972C434.36 314.408 435.791 311.406 435.791 308.344C435.791 307.476 435.659 306.369 435.179 305.257C434.948 304.037 434.514 302.912 434.067 301.953C433.372 300.464 432.412 298.895 431.281 297.28C429.453 294.667 428.27 292.358 427.599 290.345L427.515 290.093L427.407 289.85C426.487 287.781 425.265 283.59 423.8 276.853L423.77 276.713L423.732 276.574C421.982 270.155 421.289 266.089 421.289 263.959V263.463L418.555 248.426L418.546 248.378C418.222 246.759 417.778 245.092 417.083 243.701C416.597 242.729 414.821 239.562 410.955 239.562H410.516C407.769 239.562 405.768 241.055 404.578 242.641C403.504 244.073 402.913 245.764 402.543 247.244L402.498 247.426L400.267 259.916L397.661 274.254C396.245 280.178 394.708 285.323 393.061 289.713C391.632 293.524 389.397 296.698 386.309 299.311C383.306 301.852 379.019 304.027 373.166 305.638C369.502 306.421 359.658 307.172 346.076 307.652C332.584 308.13 315.962 308.328 299.393 308.124C282.81 307.921 266.365 307.315 253.201 306.198C246.61 305.639 240.937 304.959 236.521 304.159C231.929 303.327 229.456 302.486 228.561 301.954C224.655 299.337 222.371 296.882 221.194 294.724C219.824 292.213 219.039 289.653 218.789 287.007V273.373L221.408 234.522C221.987 228.456 222.559 223.617 223.12 219.971C223.674 216.365 224.516 212.287 225.656 207.725C226.795 203.168 228.075 198.762 229.493 194.507C230.905 190.273 232.11 187.22 233.101 185.218C234.608 182.487 235.928 179.427 235.928 176.508V175.629C235.928 172.998 234.669 170.799 233.509 169.253C232.273 167.605 230.6 165.976 228.675 164.372L228.593 164.304L228.508 164.238C224.293 160.996 219.36 158.148 213.765 155.662C212.138 154.939 210.531 154.304 208.946 153.766C215.546 153.429 222.138 153.03 228.697 152.519C251.132 150.77 272.228 149.898 291.99 149.898C300.972 149.898 313.346 150.189 329.14 150.774C337.088 151.068 343.753 151.217 349.119 151.217C354.529 151.217 358.779 151.082 361.726 150.776C365.539 150.752 369.069 150.262 372.144 149.109L372.414 149.007L372.672 148.878C376.549 146.94 379.044 143.635 379.976 139.439L380.107 138.85V138.246C380.107 137.049 379.849 135.531 379.561 134.091C379.149 132.031 377.948 130.268 376.924 128.988C375.815 127.6 374.37 126.129 372.687 124.593C368.771 120.719 362.26 116.772 353.775 112.672C344.916 108.098 336.711 105.5 329.344 105.5C325.658 105.5 319.867 106.15 312.247 107.322L312.046 107.353L311.847 107.399C304.425 109.111 297.644 110.237 291.492 110.796L291.369 110.807L291.247 110.824C284.882 111.692 277.784 112.562 269.949 113.433C261.899 114.033 245.892 115.65 222.025 118.269L199.538 120.165C200.756 112.779 202.283 104.399 204.178 94.0017L204.18 93.9939C205.359 87.5267 206.68 80.2793 208.157 72.0057L208.178 71.8862L209.94 58.6715L211.683 48.2128C211.949 46.6159 212.499 43.8551 213.354 39.8549C214.43 36.1139 215.445 33.3671 216.363 31.4877C217.218 30.0576 217.919 28.8136 218.428 27.7956C218.691 27.2691 218.949 26.7127 219.153 26.1685C219.292 25.7982 219.668 24.7843 219.668 23.5781C219.668 19.6477 217.234 16.1117 214.763 13.3323C211.855 10.0604 208.253 7.69101 204.071 6.21636C200.477 4.31745 196.604 3.04256 192.485 2.37429C187.694 1.07856 180.218 0.5 177.649 0.5C175.952 0.5 174.291 0.623147 172.786 0.970438C171.356 1.30057 169.52 1.95558 168.047 3.42927C166.206 5.27019 165.117 7.66861 165.117 10.3945C165.117 12.9204 166.031 16.0728 167.206 19.3054L167.249 19.4243L167.298 19.5412C168.612 22.6949 169.313 25.382 169.539 27.641C169.819 30.4403 170.103 34.1166 170.391 38.6911C170.388 45.6259 170.239 50.306 169.979 52.9137L169.951 53.1866V53.4609C169.951 56.6295 169.547 61.7767 168.672 69.0654L168.659 69.1735L168.65 69.2821C168.078 76.442 166.924 86.1288 165.173 98.3862Z" fill="black"/>
</svg>
