<svg width="350" height="350" viewBox="0 0 350 350" fill="none" xmlns="http://www.w3.org/2000/svg">
<path d="M-9.82451 98.3862C-11.2166 108.131 -13.0094 116.471 -14.5766 123.463L-104.195 131.017L-104.305 131.031C-121.794 133.217 -132.069 134.546 -134.638 134.98L-163.041 137.165L-163.152 137.178C-168.267 137.78 -170.965 138.02 -171.738 138.02H-172.012L-181.189 138.937L-181.304 138.954C-183.583 139.279 -185.746 139.772 -187.565 140.568C-189.219 141.292 -191.434 142.64 -192.555 145.172C-192.895 145.866 -193.497 147.227 -193.497 148.793C-193.497 151.295 -192.583 153.585 -191.426 155.526C-189.967 158.067 -188.04 160.483 -185.734 162.789L-185.585 162.939L-185.424 163.076C-183.114 165.056 -179.668 167.548 -175.228 170.508L-175.119 170.581L-175.007 170.648C-170.525 173.337 -166.444 175.606 -162.771 177.443C-159.023 179.317 -154.949 180.221 -150.644 180.221H-148.886C-145.482 180.221 -140.549 178.86 -134.764 176.836C-129.119 174.86 -121.234 172.561 -111.042 169.94C-100.855 167.321 -91.5664 165.144 -83.172 163.407C-65.3387 159.718 -47.2476 157.806 -28.9407 156.614C-68.3923 237.431 -137.639 297.291 -231.533 329.039L-231.539 329.041L-235.257 330.293L-235.396 330.348C-236.532 330.801 -237.721 331.389 -238.767 332.193C-239.796 332.984 -241.041 334.259 -241.619 336.159C-242.037 337.531 -242.297 339.631 -241.174 341.738C-240.053 343.84 -238.219 345.24 -236.076 345.892C-234.824 346.273 -233.531 346.366 -232.383 346.353L-226.412 346.764L-226.051 346.741C-168.834 343.145 -114.867 315.897 -71.0215 276.989C-35.8785 245.804 -7.02057 206.942 11.9716 166.247C12.5236 168.005 13.337 170.115 14.3187 172.471C15.5374 175.396 16.2924 178.617 16.5464 182.173L16.5805 182.651L16.6966 183.115C16.8308 183.652 16.9718 184.749 16.9718 186.615C16.9718 188.096 16.8466 190.074 16.566 192.6L16.5493 192.75L16.5408 192.902C16.2475 198.181 16.0968 202.919 16.093 207.107L12.5868 266.712C12.2883 271.786 12.1378 276.582 12.1378 281.098C12.1378 289.429 12.7214 296.353 14.0335 301.661C15.7173 309.648 19.5319 317.01 25.2766 323.729C30.788 330.519 37.4935 335.603 45.3575 338.889C48.924 340.448 53.9244 341.615 59.6098 342.541C65.4307 343.488 72.3727 344.243 80.0133 344.832C95.3014 346.011 113.659 346.549 131.977 346.591C150.304 346.632 168.668 346.176 183.988 345.355C199.14 344.543 211.758 343.354 218.311 341.825L218.395 341.805L218.479 341.783C227.711 339.321 235.866 335.896 242.866 331.441L242.99 331.362L243.11 331.276C249.551 326.676 254.56 321.951 257.723 317.031L257.742 317.001L257.761 316.972C259.363 314.408 260.794 311.406 260.794 308.344C260.794 307.476 260.661 306.369 260.182 305.257C259.951 304.037 259.517 302.912 259.07 301.953C258.375 300.464 257.415 298.895 256.284 297.28C254.455 294.667 253.273 292.358 252.602 290.345L252.518 290.093L252.41 289.85C251.49 287.781 250.268 283.59 248.803 276.853L248.773 276.713L248.735 276.574C246.984 270.155 246.292 266.089 246.292 263.959V263.463L243.558 248.426L243.549 248.378C243.225 246.759 242.781 245.092 242.086 243.701C241.6 242.729 239.824 239.562 235.958 239.562H235.519C232.772 239.562 230.771 241.055 229.581 242.641C228.507 244.073 227.916 245.764 227.546 247.244L227.501 247.426L225.27 259.916L222.663 274.254C221.248 280.178 219.711 285.323 218.064 289.713C216.635 293.524 214.4 296.698 211.312 299.311C208.309 301.852 204.022 304.027 198.169 305.638C194.505 306.421 184.661 307.172 171.079 307.652C157.587 308.13 140.965 308.328 124.396 308.124C107.813 307.921 91.3681 307.315 78.2035 306.198C71.6128 305.639 65.9398 304.959 61.5241 304.159C56.932 303.327 54.4585 302.486 53.5636 301.954C49.6579 299.337 47.3737 296.882 46.1967 294.724C44.8273 292.213 44.0418 289.653 43.7921 287.007V273.373L46.4113 234.522C46.9899 228.456 47.5618 223.617 48.1227 219.971C48.6774 216.365 49.5185 212.287 50.6591 207.725C51.7983 203.168 53.0777 198.762 54.4962 194.507C55.9075 190.273 57.1132 187.22 58.1037 185.218C59.6112 182.487 60.9307 179.427 60.9307 176.508V175.629C60.9307 172.998 59.6721 170.799 58.5124 169.253C57.2764 167.605 55.6028 165.976 53.6783 164.372L53.5958 164.304L53.5107 164.238C49.2958 160.996 44.3629 158.148 38.7681 155.662C37.1414 154.939 35.5343 154.304 33.9494 153.766C40.5492 153.429 47.1407 153.03 53.6995 152.519C76.1346 150.77 97.2312 149.898 116.993 149.898C125.975 149.898 138.349 150.189 154.143 150.774C162.091 151.068 168.756 151.217 174.122 151.217C179.532 151.217 183.782 151.082 186.729 150.776C190.542 150.752 194.072 150.262 197.147 149.109L197.417 149.007L197.675 148.878C201.552 146.94 204.047 143.635 204.979 139.439L205.11 138.85V138.246C205.11 137.049 204.852 135.531 204.564 134.091C204.152 132.031 202.951 130.268 201.927 128.988C200.818 127.6 199.373 126.129 197.69 124.593C193.774 120.719 187.263 116.772 178.778 112.672C169.919 108.098 161.714 105.5 154.346 105.5C150.66 105.5 144.87 106.15 137.25 107.322L137.049 107.353L136.85 107.399C129.428 109.111 122.647 110.237 116.495 110.796L116.372 110.807L116.25 110.824C109.885 111.692 102.787 112.562 94.9519 113.433C86.9023 114.033 70.8954 115.65 47.0281 118.269L24.5413 120.165C25.759 112.779 27.2864 104.399 29.1814 94.0017L29.1829 93.9939C30.3616 87.5267 31.6826 80.2793 33.1597 72.0057L33.181 71.8862L34.9429 58.6715L36.686 48.2128C36.9522 46.6159 37.5015 43.8551 38.3574 39.8549C39.4332 36.1139 40.448 33.3671 41.3664 31.4877C42.2208 30.0576 42.9222 28.8136 43.4312 27.7956C43.6944 27.2691 43.952 26.7127 44.156 26.1685C44.2949 25.7982 44.671 24.7843 44.671 23.5781C44.671 19.6477 42.2367 16.1117 39.7661 13.3323C36.8578 10.0604 33.2557 7.69101 29.0742 6.21636C25.4799 4.31745 21.607 3.04256 17.4881 2.37429C12.6974 1.07856 5.22125 0.5 2.65146 0.5C0.954941 0.5 -0.705826 0.623147 -2.21075 0.970438C-3.64133 1.30057 -5.47682 1.95558 -6.95052 3.42927C-8.79144 5.27019 -9.87979 7.66861 -9.87979 10.3945C-9.87979 12.9204 -8.96632 16.0728 -7.79085 19.3054L-7.74759 19.4243L-7.6989 19.5412C-6.38483 22.6949 -5.68387 25.382 -5.45796 27.641C-5.17804 30.4403 -4.89363 34.1166 -4.60638 38.6911C-4.6088 45.6259 -4.75775 50.306 -5.01851 52.9137L-5.04581 53.1866V53.4609C-5.04581 56.6295 -5.45035 61.7767 -6.32498 69.0654L-6.33797 69.1735L-6.34665 69.2821C-6.91945 76.442 -8.07346 86.1288 -9.82451 98.3862Z" fill="black"/>
</svg>
