<svg width="350" height="350" viewBox="0 0 350 350" fill="none" xmlns="http://www.w3.org/2000/svg">
<path d="M165.175 98.3862C163.783 108.131 161.991 116.471 160.423 123.463L70.8054 131.017L70.6955 131.031C53.2059 133.217 42.9312 134.546 40.3616 134.98L11.9585 137.165L11.8484 137.178C6.73327 137.78 4.03526 138.02 3.26247 138.02H2.98815L-6.18944 138.937L-6.30442 138.954C-8.58335 139.279 -10.7458 139.772 -12.5651 140.568C-14.2193 141.292 -16.4342 142.64 -17.555 145.172C-17.8946 145.866 -18.4973 147.227 -18.4973 148.793C-18.4973 151.295 -17.5827 153.585 -16.4259 155.526C-14.9671 158.067 -13.0402 160.483 -10.734 162.789L-10.5847 162.939L-10.4243 163.076C-8.1143 165.056 -4.66784 167.548 -0.227837 170.508L-0.118942 170.581L-0.00671387 170.648C4.47455 173.337 8.55599 175.606 12.2286 177.443C15.9772 179.317 20.0508 180.221 24.3562 180.221H26.114C29.5175 180.221 34.4511 178.86 40.2356 176.836C45.8811 174.86 53.7663 172.561 63.9584 169.94C74.1452 167.321 83.4336 165.144 91.828 163.407C109.661 159.718 127.752 157.806 146.059 156.614C106.608 237.431 37.3613 297.291 -56.5335 329.039L-56.5387 329.041L-60.257 330.293L-60.3962 330.348C-61.5322 330.801 -62.7215 331.389 -63.7669 332.193C-64.7964 332.984 -66.041 334.259 -66.6192 336.159C-67.0367 337.531 -67.2975 339.631 -66.174 341.738C-65.0528 343.84 -63.2187 345.24 -61.0763 345.892C-59.8239 346.273 -58.5307 346.366 -57.3831 346.353L-51.4119 346.764L-51.0506 346.741C6.16597 343.145 60.133 315.897 103.979 276.989C139.122 245.804 167.979 206.942 186.972 166.247C187.524 168.005 188.337 170.115 189.319 172.471C190.537 175.396 191.292 178.617 191.546 182.173L191.58 182.651L191.697 183.115C191.831 183.652 191.972 184.749 191.972 186.615C191.972 188.096 191.847 190.074 191.566 192.6L191.549 192.75L191.541 192.902C191.248 198.181 191.097 202.919 191.093 207.107L187.587 266.712C187.288 271.786 187.138 276.582 187.138 281.098C187.138 289.429 187.721 296.353 189.033 301.661C190.717 309.648 194.532 317.01 200.277 323.729C205.788 330.519 212.493 335.603 220.357 338.889C223.924 340.448 228.924 341.615 234.61 342.541C240.431 343.488 247.373 344.243 255.013 344.832C270.301 346.011 288.659 346.549 306.977 346.591C325.304 346.632 343.668 346.176 358.988 345.355C374.14 344.543 386.758 343.354 393.311 341.825L393.395 341.805L393.479 341.783C402.711 339.321 410.866 335.896 417.866 331.441L417.99 331.362L418.11 331.276C424.551 326.676 429.56 321.951 432.723 317.031L432.742 317.001L432.761 316.972C434.363 314.408 435.794 311.406 435.794 308.344C435.794 307.476 435.661 306.369 435.182 305.257C434.951 304.037 434.517 302.912 434.07 301.953C433.375 300.464 432.415 298.895 431.284 297.28C429.455 294.667 428.273 292.358 427.602 290.345L427.518 290.093L427.41 289.85C426.49 287.781 425.268 283.59 423.803 276.853L423.773 276.713L423.735 276.574C421.984 270.155 421.292 266.089 421.292 263.959V263.463L418.558 248.426L418.549 248.378C418.225 246.759 417.781 245.092 417.086 243.701C416.6 242.729 414.824 239.562 410.958 239.562H410.519C407.772 239.562 405.771 241.055 404.581 242.641C403.507 244.073 402.916 245.764 402.546 247.244L402.501 247.426L400.27 259.916L397.663 274.254C396.248 280.178 394.711 285.323 393.064 289.713C391.635 293.524 389.4 296.698 386.312 299.311C383.309 301.852 379.022 304.027 373.169 305.638C369.505 306.421 359.661 307.172 346.079 307.652C332.587 308.13 315.965 308.328 299.396 308.124C282.813 307.921 266.368 307.315 253.203 306.198C246.613 305.639 240.94 304.959 236.524 304.159C231.932 303.327 229.458 302.486 228.564 301.954C224.658 299.337 222.374 296.882 221.197 294.724C219.827 292.213 219.042 289.653 218.792 287.007V273.373L221.411 234.522C221.99 228.456 222.562 223.617 223.123 219.971C223.677 216.365 224.519 212.287 225.659 207.725C226.798 203.168 228.078 198.762 229.496 194.507C230.908 190.273 232.113 187.22 233.104 185.218C234.611 182.487 235.931 179.427 235.931 176.508V175.629C235.931 172.998 234.672 170.799 233.512 169.253C232.276 167.605 230.603 165.976 228.678 164.372L228.596 164.304L228.511 164.238C224.296 160.996 219.363 158.148 213.768 155.662C212.141 154.939 210.534 154.304 208.949 153.766C215.549 153.429 222.141 153.03 228.7 152.519C251.135 150.77 272.231 149.898 291.993 149.898C300.975 149.898 313.349 150.189 329.143 150.774C337.091 151.068 343.756 151.217 349.122 151.217C354.532 151.217 358.782 151.082 361.729 150.776C365.542 150.752 369.072 150.262 372.147 149.109L372.417 149.007L372.675 148.878C376.552 146.94 379.047 143.635 379.979 139.439L380.11 138.85V138.246C380.11 137.049 379.852 135.531 379.564 134.091C379.152 132.031 377.951 130.268 376.927 128.988C375.818 127.6 374.373 126.129 372.69 124.593C368.774 120.719 362.263 116.772 353.778 112.672C344.919 108.098 336.714 105.5 329.346 105.5C325.66 105.5 319.87 106.15 312.25 107.322L312.049 107.353L311.85 107.399C304.428 109.111 297.647 110.237 291.495 110.796L291.372 110.807L291.25 110.824C284.885 111.692 277.787 112.562 269.952 113.433C261.902 114.033 245.895 115.65 222.028 118.269L199.541 120.165C200.759 112.779 202.286 104.399 204.181 94.0017L204.183 93.9939C205.362 87.5267 206.683 80.2793 208.16 72.0057L208.181 71.8862L209.943 58.6715L211.686 48.2128C211.952 46.6159 212.501 43.8551 213.357 39.8549C214.433 36.1139 215.448 33.3671 216.366 31.4877C217.221 30.0576 217.922 28.8136 218.431 27.7956C218.694 27.2691 218.952 26.7127 219.156 26.1685C219.295 25.7982 219.671 24.7843 219.671 23.5781C219.671 19.6477 217.237 16.1117 214.766 13.3323C211.858 10.0604 208.256 7.69101 204.074 6.21636C200.48 4.31745 196.607 3.04256 192.488 2.37429C187.697 1.07856 180.221 0.5 177.651 0.5C175.955 0.5 174.294 0.623147 172.789 0.970438C171.359 1.30057 169.523 1.95558 168.049 3.42927C166.209 5.27019 165.12 7.66861 165.12 10.3945C165.12 12.9204 166.034 16.0728 167.209 19.3054L167.252 19.4243L167.301 19.5412C168.615 22.6949 169.316 25.382 169.542 27.641C169.822 30.4403 170.106 34.1166 170.394 38.6911C170.391 45.6259 170.242 50.306 169.981 52.9137L169.954 53.1866V53.4609C169.954 56.6295 169.55 61.7767 168.675 69.0654L168.662 69.1735L168.653 69.2821C168.081 76.442 166.927 86.1288 165.175 98.3862Z" fill="black"/>
</svg>
