<svg width="350" height="350" viewBox="0 0 350 350" fill="none" xmlns="http://www.w3.org/2000/svg">
<path d="M-9.82744 98.3862C-11.2195 108.131 -13.0123 116.471 -14.5796 123.463L-104.198 131.017L-104.307 131.031C-121.797 133.217 -132.072 134.546 -134.641 134.98L-163.044 137.165L-163.155 137.178C-168.27 137.78 -170.968 138.02 -171.74 138.02H-172.015L-181.192 138.937L-181.307 138.954C-183.586 139.279 -185.749 139.772 -187.568 140.568C-189.222 141.292 -191.437 142.64 -192.558 145.172C-192.898 145.866 -193.5 147.227 -193.5 148.793C-193.5 151.295 -192.586 153.585 -191.429 155.526C-189.97 158.067 -188.043 160.483 -185.737 162.789L-185.588 162.939L-185.427 163.076C-183.117 165.056 -179.671 167.548 -175.231 170.508L-175.122 170.581L-175.01 170.648C-170.528 173.337 -166.447 175.606 -162.774 177.443C-159.026 179.317 -154.952 180.221 -150.647 180.221H-148.889C-145.485 180.221 -140.552 178.86 -134.767 176.836C-129.122 174.86 -121.237 172.561 -111.045 169.94C-100.858 167.321 -91.5693 165.144 -83.175 163.407C-65.3416 159.718 -47.2505 157.806 -28.9436 156.614C-68.3952 237.431 -137.642 297.291 -231.536 329.039L-231.542 329.041L-235.26 330.293L-235.399 330.348C-236.535 330.801 -237.724 331.389 -238.77 332.193C-239.799 332.984 -241.044 334.259 -241.622 336.159C-242.04 337.531 -242.3 339.631 -241.177 341.738C-240.056 343.84 -238.222 345.24 -236.079 345.892C-234.827 346.273 -233.534 346.366 -232.386 346.353L-226.415 346.764L-226.054 346.741C-168.837 343.145 -114.87 315.897 -71.0244 276.989C-35.8814 245.804 -7.0235 206.942 11.9686 166.247C12.5207 168.005 13.3341 170.115 14.3158 172.471C15.5345 175.396 16.2894 178.617 16.5434 182.173L16.5775 182.651L16.6937 183.115C16.8279 183.652 16.9689 184.749 16.9689 186.615C16.9689 188.096 16.8437 190.074 16.5631 192.6L16.5463 192.75L16.5379 192.902C16.2446 198.181 16.0939 202.919 16.0901 207.107L12.5838 266.712C12.2854 271.786 12.1349 276.582 12.1349 281.098C12.1349 289.429 12.7185 296.353 14.0305 301.661C15.7144 309.648 19.5289 317.01 25.2737 323.729C30.7851 330.519 37.4905 335.603 45.3546 338.889C48.9211 340.448 53.9214 341.615 59.6069 342.541C65.4278 343.488 72.3698 344.243 80.0104 344.832C95.2984 346.011 113.656 346.549 131.974 346.591C150.301 346.632 168.665 346.176 183.985 345.355C199.137 344.543 211.755 343.354 218.309 341.825L218.393 341.805L218.476 341.783C227.708 339.321 235.863 335.896 242.863 331.441L242.987 331.362L243.107 331.276C249.548 326.676 254.557 321.951 257.72 317.031L257.739 317.001L257.758 316.972C259.36 314.408 260.791 311.406 260.791 308.344C260.791 307.476 260.659 306.369 260.179 305.257C259.948 304.037 259.514 302.912 259.067 301.953C258.372 300.464 257.412 298.895 256.281 297.28C254.453 294.667 253.27 292.358 252.599 290.345L252.515 290.093L252.407 289.85C251.487 287.781 250.265 283.59 248.8 276.853L248.77 276.713L248.732 276.574C246.982 270.155 246.289 266.089 246.289 263.959V263.463L243.555 248.426L243.546 248.378C243.222 246.759 242.778 245.092 242.083 243.701C241.597 242.729 239.821 239.562 235.955 239.562H235.516C232.769 239.562 230.768 241.055 229.578 242.641C228.504 244.073 227.913 245.764 227.543 247.244L227.498 247.426L225.267 259.916L222.661 274.254C221.245 280.178 219.708 285.323 218.061 289.713C216.632 293.524 214.397 296.698 211.309 299.311C208.306 301.852 204.019 304.027 198.166 305.638C194.502 306.421 184.658 307.172 171.076 307.652C157.584 308.13 140.962 308.328 124.393 308.124C107.81 307.921 91.3652 307.315 78.2006 306.198C71.6099 305.639 65.9369 304.959 61.5211 304.159C56.929 303.327 54.4556 302.486 53.5606 301.954C49.655 299.337 47.3708 296.882 46.1938 294.724C44.8244 292.213 44.0389 289.653 43.7892 287.007V273.373L46.4084 234.522C46.987 228.456 47.5589 223.617 48.1198 219.971C48.6745 216.365 49.5156 212.287 50.6562 207.725C51.7954 203.168 53.0748 198.762 54.4932 194.507C55.9046 190.273 57.1103 187.22 58.1008 185.218C59.6082 182.487 60.9278 179.427 60.9278 176.508V175.629C60.9278 172.998 59.6692 170.799 58.5095 169.253C57.2734 167.605 55.5999 165.976 53.6754 164.372L53.5929 164.304L53.5078 164.238C49.2929 160.996 44.36 158.148 38.7651 155.662C37.1385 154.939 35.5314 154.304 33.9464 153.766C40.5463 153.429 47.1378 153.03 53.6966 152.519C76.1317 150.77 97.2283 149.898 116.99 149.898C125.972 149.898 138.346 150.189 154.14 150.774C162.088 151.068 168.753 151.217 174.119 151.217C179.529 151.217 183.779 151.082 186.726 150.776C190.539 150.752 194.069 150.262 197.144 149.109L197.414 149.007L197.672 148.878C201.549 146.94 204.044 143.635 204.976 139.439L205.107 138.85V138.246C205.107 137.049 204.849 135.531 204.561 134.091C204.149 132.031 202.948 130.268 201.924 128.988C200.815 127.6 199.37 126.129 197.687 124.593C193.771 120.719 187.26 116.772 178.775 112.672C169.916 108.098 161.711 105.5 154.344 105.5C150.658 105.5 144.867 106.15 137.247 107.322L137.046 107.353L136.847 107.399C129.425 109.111 122.644 110.237 116.492 110.796L116.369 110.807L116.247 110.824C109.882 111.692 102.784 112.562 94.949 113.433C86.8994 114.033 70.8925 115.65 47.0252 118.269L24.5384 120.165C25.756 112.779 27.2835 104.399 29.1785 94.0017L29.1799 93.9939C30.3587 87.5267 31.6797 80.2793 33.1567 72.0057L33.1781 71.8862L34.94 58.6715L36.6831 48.2128C36.9493 46.6159 37.4985 43.8551 38.3545 39.8549C39.4303 36.1139 40.4451 33.3671 41.3635 31.4877C42.2179 30.0576 42.9193 28.8136 43.4283 27.7956C43.6915 27.2691 43.949 26.7127 44.1531 26.1685C44.292 25.7982 44.6681 24.7843 44.6681 23.5781C44.6681 19.6477 42.2338 16.1117 39.7632 13.3323C36.8549 10.0604 33.2528 7.69101 29.0712 6.21636C25.477 4.31745 21.6041 3.04256 17.4852 2.37429C12.6944 1.07856 5.21832 0.5 2.64853 0.5C0.952011 0.5 -0.708755 0.623147 -2.21368 0.970438C-3.64426 1.30057 -5.47975 1.95558 -6.95345 3.42927C-8.79437 5.27019 -9.88272 7.66861 -9.88272 10.3945C-9.88272 12.9204 -8.96925 16.0728 -7.79378 19.3054L-7.75052 19.4243L-7.70183 19.5412C-6.38776 22.6949 -5.6868 25.382 -5.46089 27.641C-5.18097 30.4403 -4.89656 34.1166 -4.60931 38.6911C-4.61172 45.6259 -4.76068 50.306 -5.02144 52.9137L-5.04874 53.1866V53.4609C-5.04874 56.6295 -5.45328 61.7767 -6.32791 69.0654L-6.3409 69.1735L-6.34958 69.2821C-6.92238 76.442 -8.07639 86.1288 -9.82744 98.3862Z" fill="black"/>
</svg>
