<svg width="350" height="350" viewBox="0 0 350 350" fill="none" xmlns="http://www.w3.org/2000/svg">
<path fill-rule="evenodd" clip-rule="evenodd" d="M142.701 1.44656L142.685 1.43998L142.668 1.43355C133.979 -2.00517 127.006 -4 122.166 -4C119.328 -4 116.862 -2.82271 115.106 -0.6075C113.438 1.23381 112.657 3.50781 112.657 5.94564C112.657 17.3834 107.026 35.4271 95.0236 60.4972C78.8036 94.0316 59.9592 123.858 38.5024 149.997C26.1776 163.712 17.9849 174.512 14.3766 182.223L13.4492 184.205L14.6178 186.055C16.8427 189.577 20.4539 191.089 24.51 191.089H25.7069L26.7071 190.432C44.6842 178.615 61.6603 163.801 77.644 146.021C79.2984 155.904 80.1051 164.029 80.1051 170.442C80.1051 215.395 78.6147 249.718 75.665 273.505C72.0269 286.602 69.2842 296.998 67.4449 304.674C66.5191 308.537 65.8138 311.746 65.3377 314.281C64.8775 316.732 64.5804 318.807 64.5804 320.272V320.377L64.5859 320.482C64.9691 327.761 67.8348 334.949 72.827 342.005L72.8791 342.078L72.9345 342.149C78.6216 349.464 85.164 354 92.6188 354C96.6414 354 99.7677 352.185 102.015 349.637C104.167 347.198 105.538 344.084 106.445 341.135C107.419 337.968 107.965 334.63 108.269 331.773C114.12 334.076 119.448 335.336 124.169 335.336C126.622 335.336 131.525 334.587 138.423 333.287C155.289 330.146 174.683 327.651 196.619 325.809L196.658 325.806L196.697 325.802C216.924 323.702 235.456 322.655 252.302 322.652L274.159 323.439C291.804 325.018 304.612 325.823 312.47 325.823H312.515L312.56 325.822C318.579 325.686 323.616 324.975 327.372 323.448C331.207 321.889 334.355 319.161 334.961 314.848L335.058 314.154L334.914 313.468C334.162 309.9 331.834 306.809 328.731 304.13C325.602 301.428 321.371 298.87 316.189 296.409L316.132 296.382L316.074 296.357C306.091 291.998 297.014 289.681 288.932 289.681C285.725 289.681 281.561 289.961 276.493 290.495L276.452 290.5L276.411 290.505C268.159 291.55 259.569 292.335 250.637 292.858L250.604 292.86L250.571 292.863C243.928 293.364 229.981 294.793 208.798 297.139V245.296C224.4 243.996 242.574 242.244 263.314 240.039L263.738 239.994L264.144 239.86C266.657 239.031 268.908 237.708 270.525 235.682C272.176 233.613 272.9 231.142 272.9 228.53C272.9 226.368 272.247 224.34 270.917 222.604C269.63 220.924 267.862 219.715 265.907 218.837C262.079 217.117 256.8 216.343 250.456 216.207L250.414 216.206H250.371C243.409 216.206 235.342 217.029 226.202 218.634C220.499 219.454 214.898 220.194 209.401 220.854C209.511 215.616 209.62 209.421 209.729 203.238L209.73 203.227C209.886 194.389 210.041 185.58 210.197 179.634C224.521 177.888 241.564 175.915 261.33 173.715L261.592 173.686L261.848 173.623C264.877 172.873 267.612 171.684 269.637 169.78C271.785 167.761 272.9 165.15 272.9 162.208C272.9 159.884 272.228 157.703 270.848 155.813C269.504 153.97 267.632 152.597 265.506 151.57C261.338 149.559 255.545 148.573 248.522 148.302L248.445 148.299H248.368C241.722 148.299 233.973 149.126 225.159 150.734C220.381 151.491 215.766 152.316 211.316 153.209C211.617 150.586 211.973 147.919 212.336 145.2C212.51 143.894 212.686 142.576 212.858 141.245C213.625 135.319 214.307 129.204 214.307 123.273C214.307 120.535 213.154 118.024 211.506 115.822C211.394 115.673 211.28 115.525 211.163 115.377C222.682 113.773 235.904 111.917 250.827 109.808C260.148 108.979 269.761 106.93 279.661 103.688L279.693 103.678L279.724 103.667C285.676 101.606 290.37 97.9408 290.913 91.9224L290.97 91.288L290.828 90.6673C290.208 87.9686 288.457 85.9232 286.287 84.4286C284.155 82.9605 281.425 81.8779 278.309 81.0559C272.073 79.4106 263.38 78.5799 252.423 78.4465L252.398 78.4462H252.374C247.71 78.4462 240.348 80.0759 230.691 82.9753L230.683 82.9778C209.334 89.4386 169.406 95.8673 110.601 102.206C126.266 77.1927 140.649 55.7602 153.752 37.8958C157.113 34.5469 159.775 31.366 161.629 28.3586C163.504 25.3154 164.728 22.1656 164.728 19.026C164.728 16.8967 163.848 15.035 162.694 13.5129C161.547 11.9996 159.977 10.6135 158.161 9.32388C154.532 6.74634 149.317 4.13188 142.701 1.44656ZM80.0988 137.147C80.4332 138.867 80.7466 140.545 81.039 142.182C83.0831 153.624 84.1051 163.044 84.1051 170.442C84.1051 161.986 82.7698 150.888 80.0988 137.147C80.099 137.146 80.0987 137.147 80.0988 137.147ZM103.136 107.022C104.741 106.854 106.332 106.685 107.911 106.517L106.896 106.625C105.831 106.738 104.76 106.851 103.683 106.964L103.136 107.022ZM108.584 327.588C108.108 327.392 107.628 327.188 107.142 326.976C107.143 326.976 107.142 326.976 107.142 326.976C106.548 326.662 106.011 326.395 105.534 326.175C105.208 326.024 104.91 325.894 104.638 325.787M137.692 329.354C137.692 329.354 137.691 329.354 137.692 329.354C137.253 329.437 136.824 329.517 136.405 329.594ZM276.913 294.473C276.913 294.473 276.913 294.473 276.913 294.473ZM250.872 296.852C250.871 296.852 250.872 296.852 250.872 296.852ZM226.833 222.584C226.833 222.584 226.833 222.584 226.833 222.584ZM225.832 154.677C225.831 154.677 225.832 154.677 225.832 154.677ZM110.648 171.325C110.647 171.325 110.648 171.325 110.648 171.325C110.981 171.289 111.316 171.252 111.651 171.215C111.468 171.235 111.285 171.255 111.102 171.275C110.95 171.292 110.799 171.309 110.648 171.325ZM97.1263 116.138C97.1263 116.138 97.1262 116.138 97.1263 116.138ZM176.123 120.522C176.002 119.012 175.878 117.669 175.752 116.535C175.752 116.535 175.751 116.535 175.752 116.535C176.599 124.137 177.327 141.074 177.936 155.23C178.047 157.805 178.153 160.287 178.256 162.605C178.256 162.605 178.256 162.605 178.256 162.605C178.153 160.287 178.047 157.805 177.936 155.23C177.418 143.186 176.814 129.13 176.123 120.522ZM174.101 159.159C150.565 162.517 129.771 165.191 111.713 167.184L112.144 139.159V139.128C112.144 132.31 107.017 126.426 99.6077 121.314C100.846 121.689 102.209 122.05 103.683 122.401C113.263 124.836 122.104 126.084 130.179 126.084C136.51 126.084 144.745 125.121 154.791 123.271C159.077 122.816 164.869 122.083 172.155 121.076C172.828 129.566 173.422 143.374 173.937 155.352C173.992 156.645 174.047 157.917 174.101 159.159ZM109.237 309.423C123.136 307.882 140.281 305.807 160.677 303.195C166.362 302.338 171.722 301.568 176.757 300.883C176.738 285.842 176.602 262.077 176.35 248.336C151.146 250.47 135.019 251.556 128.176 251.556C122.695 251.556 116.811 250.905 110.537 249.633L109.237 309.423ZM180.76 304.383C180.76 289.705 180.621 262.855 180.344 247.996C180.317 246.537 180.289 245.194 180.259 243.989C180.259 243.989 180.259 243.989 180.259 243.989C180.593 257.465 180.76 288.263 180.76 304.383C180.759 304.383 180.76 304.383 180.76 304.383ZM161.228 307.157C161.228 307.157 161.229 307.157 161.228 307.157ZM110.625 245.567C109.48 245.327 108.319 245.065 107.142 244.781L107.192 244.793C108.351 245.072 109.496 245.33 110.625 245.567ZM178.756 179.253C178.793 180.419 178.83 181.768 178.867 183.263C179.01 189.055 179.152 197.034 179.295 205.013C179.449 213.642 179.604 222.27 179.758 228.134C179.758 228.134 179.758 228.134 179.758 228.134C179.604 222.27 179.449 213.642 179.295 205.013C179.115 194.975 178.936 184.937 178.756 179.253C178.757 179.253 178.756 179.253 178.756 179.253ZM112.651 179.253C110.648 178.724 108.979 178.328 107.643 178.063C108.744 178.281 110.072 178.589 111.627 178.987C111.958 179.071 112.299 179.16 112.651 179.253ZM136.689 186.82C141.926 186.82 154.742 185.753 174.876 183.677C175.016 189.426 175.155 197.207 175.294 205.009L175.295 205.03C175.419 212.011 175.544 219.007 175.67 224.578C151.647 227.336 129.997 229.574 110.718 231.291L111.556 183.101L111.593 183.11C120.237 185.57 128.607 186.82 136.689 186.82Z" fill="black"/>
<path fill-rule="evenodd" clip-rule="evenodd" d="M200.059 30.5523L179.025 27.7101H166.243V31.7101C166.243 32.8221 166.657 33.7308 166.858 34.1437C167.117 34.6746 167.445 35.203 167.784 35.6986C168.465 36.6979 169.417 37.8969 170.58 39.2604C172.906 41.9884 176.333 45.669 180.819 50.2742C196.261 68.053 210.958 78.1223 224.83 78.1223C228.977 78.1223 232.67 76.6796 235.166 73.3517C237.5 70.24 238.345 66.0511 238.345 61.4383C238.345 55.2924 235.317 49.6028 230.237 44.4162C227.548 41.4928 223.594 38.9919 218.716 36.7858C213.762 34.5454 207.599 32.4955 200.287 30.6113L200.059 30.5523ZM170.243 31.7101C170.243 33.0313 174.75 38.3163 183.765 47.5651C178.688 42.3561 175.04 38.4044 172.822 35.7101C171.103 33.6205 170.243 32.2872 170.243 31.7101ZM174.05 30.639C174.024 30.5871 174.034 30.5964 174.059 30.6578L174.05 30.639Z" fill="black"/>
</svg>
