<svg width="350" height="350" viewBox="0 0 350 350" fill="none" xmlns="http://www.w3.org/2000/svg">
<path fill-rule="evenodd" clip-rule="evenodd" d="M60.6209 173.388C67.007 168.79 75.392 161.432 85.7089 151.455C96.0361 141.76 103.838 133.687 109 127.284C114.015 121.062 119.966 113.245 126.847 103.851L126.908 103.767L126.966 103.681C133.381 94.1174 137.978 87.0614 140.716 82.5645C143.284 78.8462 146.263 73.6349 149.644 67.0153L156.172 72.2796C178.306 91.2423 199.919 110.75 221.622 130.34L224.705 133.122C231.61 139.361 238.077 145.673 244.622 152.062C249.326 156.654 254.071 161.285 259.048 165.957L259.134 166.038L259.224 166.115C263.154 169.469 267.57 171.861 272.441 173.238C275.728 174.303 279.487 174.769 283.603 174.769C286.425 174.769 289.245 174.616 292.063 174.309C299.902 173.703 309.392 172.357 320.499 170.298C320.733 170.255 321.015 170.204 321.339 170.145L321.344 170.144C324.041 169.656 329.649 168.639 334.928 167.127C337.868 166.285 340.962 165.219 343.495 163.883C344.762 163.215 346.069 162.386 347.174 161.347C348.263 160.323 349.446 158.821 349.886 156.791L350 156.267V155.292C350 152.184 348.028 150.18 346.279 149.136C344.71 148.198 342.813 147.671 340.955 147.337L333.027 145.163L332.866 145.13C327.407 144.012 320.75 142.172 312.864 139.576C305.017 136.993 296.581 133.828 287.553 130.073C278.987 126.352 269.823 121.758 260.057 116.277C250.333 110.819 241.775 105.388 234.367 99.9887L202.43 74.5841L202.396 74.5582C199.261 72.1507 193.106 67.7202 184.013 61.3181L162.868 45.4557L164.772 41.6946C166.041 40.0255 167.628 38.1964 169.557 36.2055C172.032 34.2951 174.037 32.6222 175.139 31.353L175.224 31.2555L175.303 31.1536C177.09 28.8664 178.077 26.1871 178.077 23.25C178.077 20.9554 176.968 18.991 176.041 17.6564C175.014 16.1776 173.611 14.6389 171.97 13.0629L171.864 12.9615L171.753 12.8664C168.281 9.90359 165.166 7.36042 162.414 5.24684C159.697 3.16057 155.692 0.931976 150.653 -1.44977L150.541 -1.50253L150.427 -1.54972C147.864 -2.60972 145.599 -3.4453 143.664 -4.02318C141.818 -4.57463 139.926 -5 138.235 -5H137.961L137.69 -4.97017C134.556 -4.62632 131.274 -3.68359 128.946 -1.2999L127.624 0.0537186L126.952 13.4739V13.5237C126.948 13.5585 126.934 13.6737 126.893 13.8911C126.827 14.2479 126.715 14.7469 126.542 15.4098L126.497 15.5813L123.672 30.7715C122.562 34.0372 119.511 40.9466 114.307 51.795L114.286 51.8394L114.265 51.8841C108.961 63.5239 104.46 72.5871 100.756 79.1311L100.733 79.1704L100.712 79.21C97.0489 85.9619 91.6662 94.2465 84.4997 104.096L84.4423 104.175L84.3881 104.256C77.6416 114.331 70.1374 124.274 61.8719 134.085L61.797 134.174L61.7262 134.266C54.2238 144.062 46.7524 152.664 39.316 160.089C35.5037 163.895 32.5826 166.838 30.5611 168.908C29.5527 169.94 28.7505 170.774 28.1672 171.397C27.8775 171.707 27.6206 171.987 27.4108 172.226L27.4033 172.234C27.3314 172.316 27.2068 172.458 27.0664 172.633L22.1362 177.681C20.787 179.063 19 181.317 19 184.245C19 186.006 19.6412 188.079 21.5256 189.527C23.1601 190.782 25.0234 191 26.2847 191C27.5525 191 28.8911 190.703 30.0571 190.377C31.3104 190.027 32.7549 189.529 34.3601 188.913L34.7248 188.773L41.7566 184.722C48.084 181.672 54.3717 177.887 60.6209 173.388ZM319.587 165.382C319.644 165.372 319.702 165.361 319.763 165.35L319.759 165.35C319.699 165.361 319.642 165.372 319.587 165.382ZM319.927 165.32C319.947 165.316 319.966 165.312 319.986 165.309L320.465 165.222C320.277 165.256 320.101 165.288 319.94 165.317L319.927 165.32Z" fill="black"/>
<path d="M126.044 134.447L115.136 135.356L114.742 135.454C113.275 135.821 111.753 136.365 110.435 137.243C109.071 138.152 107.682 139.599 107.149 141.729L107 142.326V143.381C107 146.771 109.105 149.215 111.034 150.769C113.472 152.788 116.76 154.339 120.526 155.595C124.6 156.953 129.468 157.733 135.014 158.041L135.152 158.049H137.488C142.58 158.049 149.927 157.265 159.354 155.792L159.379 155.788L159.404 155.784C169.935 154.028 177.327 152.87 181.635 152.295C186.514 151.684 190.909 150.757 194.778 149.477C197.014 148.831 199.143 147.988 200.819 146.79C202.552 145.553 204.451 143.422 204.451 140.305C204.451 136.623 202.522 133.789 199.813 131.903C197.413 129.969 193.795 128.175 189.443 126.434C185.162 124.722 182.024 123.543 180.449 123.149L179.852 123H179.236C177.669 123 175.673 123.313 173.499 123.763C171.235 124.231 168.452 124.92 165.177 125.813L165.148 125.821L165.119 125.829C159.306 127.49 155.346 128.658 153.35 129.309L140.443 131.89L140.424 131.894C133.425 133.352 128.689 134.179 126.044 134.447Z" fill="black"/>
<path d="M202.496 290.004C202.323 289.943 202.134 289.88 201.947 289.822L197.388 287.542C195.918 286.626 194.194 286.016 192.275 286.016C190.16 286.016 188.128 286.774 186.543 288.359C184.981 289.92 184.639 291.856 184.639 293.213C184.639 295.302 185.605 297.056 186.357 298.184L186.478 298.364L193.545 307.198C195.558 310.073 197.159 312.329 198.339 313.952C199.083 314.975 199.802 315.95 200.387 316.661L204.063 324.013C206.088 328.064 207.461 331.103 208.248 333.201C208.72 334.461 209.192 335.59 209.666 336.538C210.086 337.377 210.706 338.49 211.591 339.375C213.574 341.358 216.106 342.158 218.643 342.158C221.355 342.158 224.404 341.293 227.531 340.043L227.554 340.033L227.578 340.024C233.172 337.72 238.009 334.405 242.024 330.077C246.249 325.833 249.413 321.03 251.43 315.675C253.305 310.978 254.839 305.73 256.055 299.956L256.085 299.812L256.107 299.667C257.003 293.693 258.036 284.825 259.207 273.117C260.676 261.357 261.707 249.878 262.3 238.683C263.469 227.899 264.602 220.868 265.638 217.243C266.713 213.478 267.994 210.622 269.385 208.535L269.451 208.436L269.512 208.334C270.416 206.827 271.151 205.529 271.674 204.482C271.934 203.964 272.183 203.424 272.378 202.903C272.514 202.54 272.861 201.598 272.861 200.488V199.609C272.861 195.902 271.044 192.608 268.64 189.831C265.918 186.392 261.24 183.098 255.33 179.847C249.587 176.689 245.19 174.34 242.173 172.825C239.132 170.975 235.803 170 232.266 170H231.771L231.285 170.097C229.512 170.452 226.819 171.255 223.398 172.393C220.02 173.233 216.206 174.08 211.949 174.931C207.816 175.758 202.312 176.471 195.376 177.049L195.293 177.055L86.749 189.748L73.4698 188.503L63.8332 186.576L62.7424 186.849C59.2867 187.712 55.8076 189.955 55.068 194.393L55 194.801V196.094C55 198.756 56.19 201.992 57.6454 205.194L57.6837 205.278L57.7251 205.361C59.6789 209.269 61.001 212.615 61.768 215.427L61.8223 215.626L61.8928 215.82C62.2729 216.865 62.7345 218.988 63.167 222.519C63.587 225.95 63.9457 230.402 64.2354 235.907L64.2386 235.968L64.2432 236.028C65.1134 247.34 65.6934 255.455 65.9863 260.401V267.285C65.9863 273.879 65.6996 280.166 65.1299 286.147L65.1243 286.206L65.1201 286.265C64.8228 290.427 64.668 293.927 64.668 296.729C64.668 299.695 64.8076 302.263 65.1881 304.218C65.877 308.296 67.254 312.091 69.3356 315.561L69.5086 315.849L69.7187 316.112C71.0524 317.779 72.4782 319.257 74.0128 320.353C75.5324 321.438 77.4907 322.383 79.7754 322.383H80.2148C82.5384 322.383 84.5003 321.409 86.01 320.247C87.5101 319.093 88.8348 317.554 90.0239 315.856L90.1247 315.712L90.2152 315.561C92.1622 312.316 93.6607 309.007 94.6719 305.636L94.7396 305.411L94.7857 305.18C95.1786 303.215 95.3223 300.616 95.3223 297.607V292.271L94.4387 257.369L93.5645 245.567V213.5C133.941 206.742 174.307 202.947 215.213 201.533H218.203C221.657 201.533 223.461 201.943 224.21 202.274C225.293 202.924 225.944 203.705 226.352 204.655C226.852 205.823 227.262 207.831 227.266 210.99C226.856 233.015 225.474 254.456 223.336 276.445C222.475 284.467 221.238 289.534 219.922 292.216C218.799 294.245 217.894 294.693 217.396 294.805H216.445C215.401 294.805 213.357 294.383 210.019 292.992L210.009 292.988L209.999 292.984C207.501 291.955 205.56 291.171 204.195 290.64C203.518 290.377 202.943 290.161 202.496 290.004Z" fill="black"/>
</svg>
