<svg width="350" height="350" viewBox="0 0 350 350" fill="none" xmlns="http://www.w3.org/2000/svg">
<path fill-rule="evenodd" clip-rule="evenodd" d="M2.19727 342.377C3.67103 342.377 5.11009 342.134 6.49538 341.681L16.5428 338.623L16.5589 338.618C20.7322 337.334 28.2042 334.267 38.7084 329.598L38.839 329.54L65.7931 315.842L65.813 315.832C73.8879 311.645 82.092 306.87 90.4253 301.513L90.4828 301.476L90.5394 301.438C98.8167 295.821 107.09 289.911 115.361 283.709C136.033 268.204 154.693 252.819 173.768 235.478C180.36 229.485 189.985 219.854 202.587 206.667C215.413 193.549 224.607 183.628 230.053 176.984C235.434 170.998 243.687 161.118 254.765 147.415L254.788 147.386L280.769 114.361L280.798 114.322C287.233 105.84 291.713 100.061 294.28 96.922C296.742 93.9744 301.096 90.2115 307.682 85.6302L307.762 85.5741L307.841 85.5152C311.37 82.8682 314.098 80.7767 315.997 79.2577C316.939 78.5036 317.73 77.8488 318.33 77.3158C318.625 77.0535 318.933 76.7685 319.21 76.4826L319.228 76.4639C319.313 76.3773 319.528 76.1561 319.778 75.8348C320.75 74.761 321.455 73.5345 321.934 72.2359C322.881 70.1803 323.225 67.9409 323.225 65.7344C323.225 61.3883 320.211 58.1216 317.425 55.8993C315.011 53.505 312.661 51.4662 310.375 49.8331C307.916 48.0767 302.989 45.4065 296.056 41.9393C292.612 40.1436 289.606 38.7313 287.081 37.7537C284.71 36.8362 282.184 36.0645 279.932 36.0645C278.047 36.0645 276.078 36.4925 274.16 37.1073C271.476 37.6671 267.718 39.325 263.409 41.4791C258.823 43.7725 253.353 46.3648 246.99 49.2578C240.723 51.8185 234.771 53.9407 229.132 55.6323L229.053 55.6563L228.974 55.6826C223.899 57.374 218.217 58.939 211.916 60.3711C210.009 60.8046 208.074 61.2252 206.113 61.633L207.881 59.3495L207.942 59.2632C210.672 55.4423 213.266 52.6334 215.692 50.6932L215.816 50.5934L215.935 50.4866C217.446 49.1265 218.704 47.9209 219.621 46.9121C220.07 46.4183 220.551 45.849 220.952 45.247C221.137 44.97 221.365 44.5962 221.571 44.148C223.37 41.5864 224.787 38.6183 224.787 35.4121V34.6418L224.575 33.9011C223.62 30.5573 221.108 27.1299 218.083 23.8023L217.886 23.5857L209.692 16.3017L209.625 16.2455C207.312 14.3184 204.195 12.6371 200.575 11.1107C197.351 9.36837 194.275 8.01622 191.627 7.57483L191.178 7.5H188.965C186.909 7.5 184.873 8.00984 183.045 9.16764C181.516 10.0648 180.657 11.4 180.234 12.1389C179.69 13.0908 179.264 14.1636 178.913 15.2158L178.753 15.6965L176.468 32.1478L176.456 32.2774C176.256 34.4827 175.291 37.5531 173.126 41.6129L172.956 41.9317L172.829 42.27C171.259 46.4552 168.407 51.946 164.114 58.8191C159.834 65.378 154.524 72.7005 148.165 80.7934L148.157 80.804L148.149 80.8147C142.115 88.5722 135.048 96.796 126.936 105.487L126.909 105.517L126.882 105.547C118.524 114.769 110.656 122.488 103.278 128.735L87.0915 141.86L87.0634 141.882L80.2619 147.323L80.0465 147.539C78.2751 149.31 76.6777 151.798 76.6777 154.943V158.1L78.2887 159.711C79.9735 161.396 82.1356 162.201 84.375 162.201C85.8764 162.201 87.3418 161.949 88.751 161.479L88.8325 161.452L97.2409 158.354L97.2517 158.35C100.852 157.041 104.801 155.13 109.076 152.687L109.163 152.638L122 144.67L122.007 144.666C125.639 142.396 129.35 139.958 133.139 137.354L134.621 138.701C135.619 139.721 138.047 142.541 142.092 147.453L142.145 147.517L142.199 147.579C146.31 152.277 151.737 158.438 158.478 166.058L158.552 166.142L158.63 166.223C165.519 173.399 170.084 177.995 171.906 179.453L172.092 179.602L172.291 179.734C173.005 180.211 173.837 180.704 174.777 181.213L151.995 204.352L151.907 204.45C147.139 209.779 139.415 217.231 128.615 226.864L128.587 226.889L128.559 226.914C118.097 236.505 106.9 246.248 94.9673 256.145L62.5775 281.969L31.5139 304.72L9.56014 320.087L-1.49933 328.05L-1.54219 328.082C-3.18413 329.314 -5.5 331.619 -5.5 335.119C-5.5 337.385 -4.34209 338.995 -3.44963 339.887C-2.26421 341.073 -0.361837 342.377 2.19727 342.377ZM209.26 140.983L197.855 154.832L197.224 152.622L197.067 152.27C195.769 149.35 194.242 146.743 192.434 144.54C190.189 141.495 186.541 139.027 182.334 136.909C178.021 134.455 173.425 132.315 168.555 130.484L154.32 124.701L154.071 124.626C153.108 124.338 151.972 123.949 150.657 123.457L157.404 117.798L157.463 117.746C160.288 115.234 164.676 110.836 170.535 104.684L170.54 104.678L170.545 104.673L184.275 90.1808L185.689 90.4635C188.717 91.0692 191.49 91.533 193.996 91.8462L194.335 91.8887H195.996C200.028 91.8887 206.848 90.5159 215.827 88.1986L215.854 88.1918L245.277 80.2872C249.064 79.3427 251.373 79.0584 252.575 79.0537C252.57 79.0672 252.564 79.0809 252.559 79.0947L252.544 79.131C252.195 79.9784 251.605 81.1048 250.695 82.5371L250.682 82.557L240.18 98.7473C236.144 104.801 231.373 111.596 225.863 119.137L209.26 140.983Z" fill="black"/>
</svg>
