<svg width="350" height="350" viewBox="0 0 350 350" fill="none" xmlns="http://www.w3.org/2000/svg">
<path d="M157.264 111.343L167.667 101.299L170.454 106.316C171.284 107.982 172.41 110.512 173.839 113.938C174.977 117.356 175.974 120.488 176.83 123.335C177.381 126.083 178.179 129.818 179.223 134.534L176.299 138.92L176.212 139.049L176.143 139.189C173.843 143.788 171.405 148.092 168.828 152.102C166.223 155.863 161.138 162.692 153.541 172.626C145.938 182.569 139.829 190.13 135.202 195.335C130.627 200.481 122.82 207.864 111.701 217.521L111.661 217.555L111.623 217.591C101.084 227.545 93.2754 234.331 88.1456 238.036C82.9461 241.791 77.7557 245.106 72.575 247.985L72.5047 248.024L72.4372 248.067L66.2848 252.022L66.2673 252.033L66.25 252.045C64.3412 253.317 62.5 255.142 62.5 257.641V258.52V258.925L62.6283 259.31C62.9463 260.264 63.56 261.098 64.4828 261.652C65.3562 262.176 66.3201 262.338 67.1973 262.338C68.3406 262.338 69.5778 262.149 70.8798 261.824L70.9202 261.814L70.9602 261.802L77.1126 260.044L77.1483 260.034L77.1838 260.023C83.7163 257.944 90.8206 255.279 98.4936 252.033C106.328 248.719 116.149 243.05 127.922 235.103C139.746 227.122 149.837 218.967 158.174 210.629L158.19 210.613L158.206 210.597C166.153 202.355 172.39 195.088 176.881 188.805L183.079 180.541L183.35 192.191V196.557C183.35 201.757 183.06 209.607 182.475 220.139C181.598 234.17 180.576 246.431 179.41 256.925C178.247 267.394 176.8 276.055 175.081 282.936C173.34 289.315 171.656 293.722 170.083 296.345L170.033 296.427L169.99 296.513C168.723 299.049 166.975 301.045 164.736 302.549C162.149 304.092 159.675 304.799 157.285 304.799H156.406C154.214 304.799 150.738 304.043 145.813 302.305L145.792 302.297L145.771 302.29C140.428 300.509 137.406 299.398 136.431 298.91L131.157 296.274C129.794 295.592 128.373 295.131 126.963 295.131C125.466 295.131 124.083 295.657 122.998 296.742C122.139 297.6 121.387 298.785 121.387 300.268C121.387 301.312 121.87 302.189 122.246 302.753C122.649 303.357 123.184 303.972 123.794 304.589L128.119 309.778C132.485 315.018 136.146 319.267 139.096 322.516C141.675 325.961 144.981 330.704 149.02 336.762C152.498 342.552 155.608 346.71 158.356 348.8C160.767 350.847 163.558 352.064 166.677 352.41L166.815 352.426H166.953H167.393C169.547 352.426 171.822 351.483 174.094 350.072C176.417 348.631 179.008 346.529 181.856 343.831L181.881 343.807L181.904 343.783C187.635 338.053 192.46 331.571 196.379 324.345C200.679 316.959 203.675 307.412 205.459 295.814C207.228 284.317 208.699 271.366 209.875 256.965L209.877 256.94L209.878 256.914C210.759 242.534 211.201 230.759 211.201 221.605V215.014C211.201 204.99 210.759 193.515 209.879 180.596C209.291 167.385 208.409 156.19 207.226 147.023C206.035 137.494 203.806 127.111 200.556 115.881C197.333 104.747 194.322 96.8115 191.468 92.3727L191.463 92.3646L191.458 92.3565L185.02 82.5101L189.497 77.3444L189.531 77.3042L189.564 77.2626L203.188 60.124L203.193 60.1175L216.366 43.4309C216.368 43.4291 216.369 43.4273 216.37 43.4256C218.55 40.7023 221.301 38.0775 224.649 35.5603C226.43 34.3701 227.886 33.2751 228.964 32.2804C229.947 31.3725 231.002 30.2095 231.341 28.8524L231.416 28.5539V28.2461V27.3672C231.416 25.4049 230.83 23.407 229.834 21.4152C228.493 18.7332 226.236 15.878 223.213 12.8553C220.255 9.89675 217.436 7.22566 214.757 4.84437L214.695 4.78987L214.631 4.73951C211.9 2.61545 209.23 1.01893 206.625 0.0238589C204.672 -0.936513 202.715 -1.5 200.791 -1.5H200.543L200.301 -1.45145C198.648 -1.12088 197.114 -0.615779 195.718 0.0822914L195.516 0.183104L195.336 0.318359C194.149 1.20868 193.43 2.62693 192.94 4.01316C192.424 5.47511 192.029 7.3025 191.724 9.43551C191.163 13.3628 190.18 17.3013 188.769 21.2529L188.76 21.278L188.751 21.3032C187.339 25.5404 185.202 30.5404 182.315 36.3167C178.823 42.7176 175.941 47.6108 173.662 51.0293C171.675 54.0093 169.026 57.6602 165.704 61.9897L161.621 58.4899C157.987 54.8677 153.91 51.6995 149.394 48.9847C144.96 46.0303 139.95 42.9372 134.368 39.7055L134.356 39.6985L125.127 34.4251C123.01 33.2154 120.915 32.3379 119.053 32.3379C118.176 32.3379 117.212 32.4997 116.338 33.0237C115.415 33.5774 114.802 34.4117 114.484 35.3657L114.355 35.7506V36.1562V37.4746C114.355 39.9743 115.408 42.279 117.132 44.3485L117.205 44.4356L117.285 44.5158L120.693 47.9234C121.351 48.7443 122.693 50.0544 124.495 51.7236C126.494 53.5744 129.254 56.0399 132.767 59.114C139.486 65.2488 144.241 69.8654 147.086 72.9942L147.126 73.0382L147.168 73.0803C149.497 75.4097 151.336 77.3257 152.7 78.8389L142.621 91.2438C135.613 99.4194 130.103 105.506 126.074 109.535L126.041 109.568L126.01 109.602C122.268 113.631 117.492 118.265 111.667 123.507L111.642 123.53L111.618 123.553C105.758 129.119 101.59 132.851 99.0609 134.818L99.0537 134.823L99.0466 134.829L90.8141 141.328C89.0364 142.435 87.5488 144.109 87.5488 146.459C87.5488 147.649 88.1551 148.54 88.7205 149.106C89.8059 150.191 91.1882 150.717 92.6855 150.717C93.6496 150.717 94.6697 150.484 95.6734 150.149L95.7551 150.122L95.8347 150.089L103.305 147.013L103.322 147.006L103.338 146.999C107.56 145.19 112.198 142.793 117.244 139.825L117.294 139.795L117.342 139.764L137.557 126.58L137.584 126.563L137.611 126.544C146.147 120.657 152.708 115.596 157.233 111.373L157.249 111.358L157.264 111.343Z" fill="black" stroke="black" stroke-width="5"/>
</svg>
