<svg width="350" height="350" viewBox="0 0 350 350" fill="none" xmlns="http://www.w3.org/2000/svg">
<path d="M168.271 97.2402L155.527 109.545C151.133 113.646 144.688 118.627 136.191 124.486L115.977 137.67C110.996 140.6 106.455 142.943 102.354 144.701L94.8828 147.777C94.0039 148.07 93.2715 148.217 92.6855 148.217C91.8066 148.217 91.0742 147.924 90.4883 147.338C90.1953 147.045 90.0488 146.752 90.0488 146.459C90.0488 145.287 90.7812 144.262 92.2461 143.383L100.596 136.791C103.232 134.74 107.48 130.932 113.34 125.365C119.199 120.092 124.033 115.404 127.842 111.303C131.943 107.201 137.51 101.049 144.541 92.8457L155.967 78.7832C154.502 77.0254 152.158 74.5352 148.936 71.3125C146.006 68.0898 141.172 63.4023 134.434 57.25C127.402 51.0977 123.447 47.4355 122.568 46.2637L119.053 42.748C117.588 40.9902 116.855 39.2324 116.855 37.4746V36.1562C117.148 35.2773 117.881 34.8379 119.053 34.8379C120.225 34.8379 121.836 35.4238 123.887 36.5957L133.115 41.8691C138.682 45.0918 143.662 48.168 148.057 51.0977C152.451 53.7344 156.406 56.8105 159.922 60.3262L166.074 65.5996C170.176 60.3262 173.398 55.9316 175.742 52.416C178.086 48.9004 181.016 43.9199 184.531 37.4746C187.461 31.6152 189.658 26.4883 191.123 22.0938C192.588 17.9922 193.613 13.8906 194.199 9.78906C194.785 5.6875 195.664 3.19727 196.836 2.31836C198.008 1.73242 199.326 1.29297 200.791 1C202.256 1 203.867 1.43945 205.625 2.31836C207.969 3.19727 210.459 4.66211 213.096 6.71289C215.732 9.05664 218.516 11.6934 221.445 14.623C224.375 17.5527 226.426 20.1895 227.598 22.5332C228.477 24.291 228.916 25.9023 228.916 27.3672V28.2461C228.623 29.418 226.719 31.1758 223.203 33.5195C219.688 36.1562 216.758 38.9395 214.414 41.8691L201.23 58.5684L187.607 75.707L181.895 82.2988L189.365 93.7246C192.002 97.8262 194.932 105.443 198.154 116.576C201.377 127.709 203.574 137.963 204.746 147.338C205.918 156.42 206.797 167.553 207.383 180.736C208.262 193.627 208.701 205.053 208.701 215.014V221.605C208.701 230.688 208.262 242.406 207.383 256.762C206.211 271.117 204.746 284.008 202.988 295.434C201.23 306.859 198.301 316.088 194.199 323.119C190.391 330.15 185.703 336.449 180.137 342.016C174.57 347.289 170.322 349.926 167.393 349.926H166.953C164.316 349.633 161.973 348.607 159.922 346.85C157.578 345.092 154.648 341.283 151.133 335.424C147.031 329.271 143.662 324.438 141.025 320.922C138.096 317.699 134.434 313.451 130.039 308.178L125.645 302.904C124.473 301.732 123.887 300.854 123.887 300.268C123.887 299.682 124.18 299.096 124.766 298.51C125.352 297.924 126.084 297.631 126.963 297.631C127.842 297.631 128.867 297.924 130.039 298.51L135.312 301.146C136.484 301.732 139.707 302.904 144.98 304.662C149.961 306.42 153.77 307.299 156.406 307.299H157.285C160.215 307.299 163.145 306.42 166.074 304.662C168.711 302.904 170.762 300.561 172.227 297.631C173.984 294.701 175.742 290.014 177.5 283.568C179.258 276.537 180.723 267.748 181.895 257.201C183.066 246.654 184.092 234.35 184.971 220.287C185.557 209.74 185.85 201.83 185.85 196.557V192.162L185.41 173.266L174.863 187.328C170.469 193.48 164.316 200.658 156.406 208.861C148.203 217.064 138.242 225.121 126.523 233.031C114.805 240.941 105.137 246.508 97.5195 249.73C89.9023 252.953 82.8711 255.59 76.4258 257.641L70.2734 259.398C69.1016 259.691 68.0762 259.838 67.1973 259.838C66.0254 259.838 65.293 259.398 65 258.52V257.641C65 256.469 65.8789 255.297 67.6367 254.125L73.7891 250.17C79.0625 247.24 84.3359 243.871 89.6094 240.062C94.8828 236.254 102.793 229.369 113.34 219.408C124.473 209.74 132.383 202.27 137.07 196.996C141.758 191.723 147.91 184.105 155.527 174.145C163.145 164.184 168.271 157.299 170.908 153.49C173.545 149.389 176.035 144.994 178.379 140.307L181.895 135.033C180.723 129.76 179.844 125.658 179.258 122.729C178.379 119.799 177.354 116.576 176.182 113.061C174.717 109.545 173.545 106.908 172.666 105.15L168.271 97.2402Z" fill="black"/>
<path d="M208.701 221.605V215.014C208.701 205.053 208.262 193.627 207.383 180.736C206.797 167.553 205.918 156.42 204.746 147.338C203.574 137.963 201.377 127.709 198.154 116.576C194.932 105.443 192.002 97.8262 189.365 93.7246L181.895 82.2988L187.607 75.707L201.23 58.5684L214.414 41.8691C216.758 38.9395 219.688 36.1562 223.203 33.5195C226.719 31.1758 228.623 29.418 228.916 28.2461V27.3672C228.916 25.9023 228.477 24.291 227.598 22.5332C226.426 20.1895 224.375 17.5527 221.445 14.623C218.516 11.6934 215.732 9.05664 213.096 6.71289C210.459 4.66211 207.969 3.19727 205.625 2.31836C203.867 1.43945 202.256 1 200.791 1C199.326 1.29297 198.008 1.73242 196.836 2.31836C195.664 3.19727 194.785 5.6875 194.199 9.78906C193.613 13.8906 192.588 17.9922 191.123 22.0938C189.658 26.4883 187.461 31.6152 184.531 37.4746C181.016 43.9199 178.086 48.9004 175.742 52.416C173.398 55.9316 170.176 60.3262 166.074 65.5996L159.922 60.3262C156.406 56.8105 152.451 53.7344 148.057 51.0977C143.662 48.168 138.682 45.0918 133.115 41.8691L123.887 36.5957C121.836 35.4238 120.225 34.8379 119.053 34.8379C117.881 34.8379 117.148 35.2773 116.855 36.1562V37.4746C116.855 39.2324 117.588 40.9902 119.053 42.748L122.568 46.2637C123.447 47.4355 127.402 51.0977 134.434 57.25C141.172 63.4023 146.006 68.0898 148.936 71.3125C152.158 74.5352 154.502 77.0254 155.967 78.7832L144.541 92.8457C137.51 101.049 131.943 107.201 127.842 111.303C124.033 115.404 119.199 120.092 113.34 125.365C107.48 130.932 103.232 134.74 100.596 136.791L92.2461 143.383C90.7812 144.262 90.0488 145.287 90.0488 146.459C90.0488 146.752 90.1953 147.045 90.4883 147.338C91.0742 147.924 91.8066 148.217 92.6855 148.217C93.2715 148.217 94.0039 148.07 94.8828 147.777L102.354 144.701C106.455 142.943 110.996 140.6 115.977 137.67L136.191 124.486C144.688 118.627 151.133 113.646 155.527 109.545L168.271 97.2402L172.666 105.15C173.545 106.908 174.717 109.545 176.182 113.061C177.354 116.576 178.379 119.799 179.258 122.729C179.844 125.658 180.723 129.76 181.895 135.033L178.379 140.307C176.035 144.994 173.545 149.389 170.908 153.49C168.271 157.299 163.145 164.184 155.527 174.145C147.91 184.105 141.758 191.723 137.07 196.996C132.383 202.27 124.473 209.74 113.34 219.408C102.793 229.369 94.8828 236.254 89.6094 240.062C84.3359 243.871 79.0625 247.24 73.7891 250.17L67.6367 254.125C65.8789 255.297 65 256.469 65 257.641V258.52C65.293 259.398 66.0254 259.838 67.1973 259.838C68.0762 259.838 69.1016 259.691 70.2734 259.398L76.4258 257.641C82.8711 255.59 89.9023 252.953 97.5195 249.73C105.137 246.508 114.805 240.941 126.523 233.031C138.242 225.121 148.203 217.064 156.406 208.861C164.316 200.658 170.469 193.48 174.863 187.328L185.41 173.266L185.85 192.162V196.557C185.85 201.83 185.557 209.74 184.971 220.287C184.092 234.35 183.066 246.654 181.895 257.201C180.723 267.748 179.258 276.537 177.5 283.568C175.742 290.014 173.984 294.701 172.227 297.631C170.762 300.561 168.711 302.904 166.074 304.662C163.145 306.42 160.215 307.299 157.285 307.299V302.299C159.137 302.299 161.152 301.761 163.392 300.438C165.235 299.187 166.683 297.538 167.755 295.395L167.84 295.223L167.939 295.059C169.329 292.742 170.939 288.611 172.664 282.295C174.342 275.565 175.771 267.034 176.925 256.649C178.085 246.203 179.105 233.982 179.98 219.976C180.564 209.466 180.85 201.681 180.85 196.557V192.236L180.746 187.816L178.863 190.328C174.28 196.73 167.971 204.072 160.006 212.332L159.941 212.396C151.47 220.868 141.25 229.124 129.321 237.176C117.495 245.159 107.518 250.929 99.4678 254.335C91.7389 257.605 84.5611 260.299 77.9414 262.405L77.8711 262.428L77.7998 262.448L71.6475 264.206L71.5674 264.229L71.4863 264.249C70.0543 264.607 68.6051 264.838 67.1973 264.838C66.0288 264.838 64.5768 264.624 63.1963 263.796C61.717 262.908 60.7463 261.569 60.2568 260.101L60 259.331V257.641C60 253.814 62.8035 251.338 64.8633 249.965L64.8975 249.941L64.9326 249.919L71.085 245.964L71.2207 245.877L71.3613 245.799C76.4493 242.972 81.5561 239.711 86.6816 236.009C91.6677 232.408 99.374 225.721 109.906 215.773L109.982 215.701L110.062 215.633C121.167 205.989 128.872 198.693 133.333 193.674C137.899 188.537 143.966 181.033 151.556 171.107C159.129 161.204 164.169 154.431 166.745 150.717C169.262 146.796 171.651 142.583 173.907 138.07L174.046 137.792L176.553 134.031C175.635 129.866 174.917 126.504 174.404 123.955C173.571 121.187 172.602 118.142 171.496 114.818C170.102 111.478 169.02 109.05 168.236 107.473L167.062 105.357L159 113.142L158.97 113.171L158.938 113.2C154.282 117.546 147.607 122.688 139.03 128.603L138.923 128.675L118.708 141.858L118.611 141.921L118.512 141.979C113.399 144.987 108.666 147.436 104.323 149.297L96.627 152.466L96.4639 152.521C95.3354 152.897 94.0277 153.217 92.6855 153.217C90.5698 153.217 88.538 152.458 86.9531 150.873C86.1152 150.035 85.0488 148.546 85.0488 146.459C85.0488 142.979 87.2286 140.661 89.3506 139.298L97.4971 132.866L97.5264 132.845C99.9476 130.962 104.037 127.307 109.896 121.74L109.945 121.693L109.995 121.648C115.784 116.438 120.502 111.858 124.178 107.9L124.241 107.833L124.307 107.768C128.261 103.813 133.709 97.7967 140.688 89.6562L149.393 78.9434C148.29 77.7743 146.963 76.4107 145.4 74.8477L145.315 74.7637L145.236 74.6758C142.477 71.641 137.801 67.0964 131.104 60.9805C127.592 57.9073 124.818 55.4287 122.797 53.5576C121.128 52.012 119.684 50.6214 118.847 49.6123L115.518 46.2832L115.356 46.123L115.212 45.9492C113.228 43.5679 111.855 40.7162 111.855 37.4746V35.3447L112.112 34.5752C112.602 33.1068 113.572 31.7675 115.052 30.8799C116.432 30.0516 117.884 29.8379 119.053 29.8379C121.606 29.8379 124.184 31.0074 126.367 32.2549L135.596 37.5283L135.608 37.5352L135.62 37.542C141.223 40.7856 146.266 43.8984 150.743 46.8799C155.369 49.6676 159.56 52.921 163.305 56.6406L165.317 58.3662C167.876 54.9774 169.961 52.0735 171.582 49.6426C173.798 46.3189 176.633 41.5084 180.104 35.1465C182.944 29.459 185.021 24.5902 186.38 20.5127L186.396 20.4619L186.414 20.4121C187.772 16.6105 188.713 12.8349 189.249 9.08203C189.565 6.8668 189.99 4.85944 190.583 3.18066C191.122 1.65337 192.048 -0.340571 193.836 -1.68164L194.196 -1.95215L194.6 -2.15332C196.22 -2.96352 197.97 -3.53514 199.811 -3.90332L200.296 -4H200.791C203.166 -4 205.47 -3.3146 207.63 -2.26562C210.306 -1.22809 212.971 0.347094 215.619 2.34766L216.165 2.7666L216.295 2.86719L216.418 2.97559C219.139 5.3944 221.993 8.10056 224.98 11.0879C228.096 14.2035 230.559 17.2768 232.069 20.2969C233.182 22.5227 233.916 24.9075 233.916 27.3672V28.8613L233.767 29.459C233.234 31.5872 231.674 33.1804 230.659 34.1172C229.464 35.2206 227.916 36.3791 226.118 37.584C222.934 39.9817 220.357 42.4479 218.338 44.9668L205.155 61.667L205.149 61.6729L205.145 61.6797L191.521 78.8184L191.455 78.9014L188.144 82.7207L193.55 90.9883L193.561 91.0049L193.571 91.0205C196.642 95.7965 199.734 104.051 202.957 115.186C206.235 126.509 208.493 137.018 209.704 146.698C210.898 155.953 211.785 167.217 212.375 180.463C213.256 193.408 213.701 204.929 213.701 215.014V221.605C213.701 230.83 213.255 242.661 212.373 257.067L212.37 257.118L212.366 257.169C211.187 271.615 209.709 284.627 207.93 296.194C206.119 307.963 203.057 317.828 198.56 325.566C194.531 332.989 189.567 339.655 183.672 345.551L183.624 345.599L183.575 345.646C180.662 348.406 177.934 350.632 175.413 352.196C172.992 353.699 170.237 354.926 167.393 354.926H166.676L166.401 354.896C162.812 354.497 159.585 353.093 156.819 350.771C153.672 348.366 150.376 343.866 146.92 338.119C142.93 332.137 139.678 327.471 137.149 324.09C134.184 320.819 130.529 316.576 126.198 311.379L121.914 306.238C121.28 305.589 120.663 304.885 120.166 304.14C119.707 303.451 118.887 302.063 118.887 300.268C118.887 297.888 120.1 296.106 121.23 294.975L121.532 294.687C123.069 293.297 124.979 292.631 126.963 292.631C128.905 292.631 130.722 293.261 132.275 294.038L137.549 296.675C138.231 297.016 140.476 297.862 144.652 299.277L146.562 299.919L146.604 299.933L146.645 299.947C151.516 301.666 154.658 302.299 156.406 302.299V307.299C153.77 307.299 149.961 306.42 144.98 304.662C139.707 302.904 136.484 301.732 135.312 301.146L130.039 298.51C128.867 297.924 127.842 297.631 126.963 297.631C126.084 297.631 125.352 297.924 124.766 298.51C124.18 299.096 123.887 299.682 123.887 300.268C123.887 300.854 124.473 301.732 125.645 302.904L130.039 308.178C134.434 313.451 138.096 317.699 141.025 320.922C143.662 324.438 147.031 329.271 151.133 335.424C154.648 341.283 157.578 345.092 159.922 346.85C161.973 348.607 164.316 349.633 166.953 349.926H167.393C170.322 349.926 174.57 347.289 180.137 342.016C185.703 336.449 190.391 330.15 194.199 323.119C198.301 316.088 201.23 306.859 202.988 295.434C204.746 284.008 206.211 271.117 207.383 256.762C208.262 242.406 208.701 230.688 208.701 221.605ZM157.285 302.299V307.299H156.406V302.299H157.285Z" fill="black"/>
</svg>
