<svg width="350" height="350" viewBox="0 0 350 350" fill="none" xmlns="http://www.w3.org/2000/svg">
<path d="M87.7105 268.727L94.6065 262.847L94.7017 262.755C98.2306 259.316 102.744 253.178 108.19 244.666L108.205 244.642L127.131 214.099L131.136 208.978L131.194 208.895C132.593 206.907 133.712 205.17 134.498 203.718C134.891 202.993 135.238 202.27 135.496 201.574C135.733 200.933 136 200.043 136 199.062V198.483C136 196.185 134.541 194.505 133.602 193.59C132.556 192.57 131.172 191.573 129.587 190.593C126.353 187.924 121.463 185.509 115.285 183.234C111.44 181.218 107.689 180 104.141 180C102.878 180 101.615 180.447 100.673 180.841C99.4669 181.258 98.3523 181.724 97.4081 182.26C96.5138 182.769 95.3321 183.582 94.5752 184.873L94.0256 185.81V195.007C94.0256 201.81 93.5803 207.325 92.741 211.619L92.6667 211.999V212.386C92.6667 216.337 91.4878 221.992 88.8391 229.532C86.1478 236.413 83.4594 242.906 80.7744 249.01L76.6242 258.446L76.5663 258.619C75.6185 261.447 75 264.062 75 266.262C75 267.833 75.4905 269.685 77.0844 271.044L78.2058 272H81.0385C82.5201 272 83.8131 271.41 84.7137 270.898C85.6947 270.341 86.701 269.587 87.7105 268.727Z" fill="black"/>
<path d="M45.7879 182.684C46.1266 186.355 46.2937 189.56 46.2984 192.312L44.193 226.978L44.1912 227.025C43.8483 236.172 42.8227 245.018 41.1187 253.567C39.0351 261.954 36.9638 269.137 34.9088 275.133L34.8997 275.16L34.891 275.187C32.8019 281.572 31.468 286.113 31.0575 288.508L31 288.844V291.823C31 293.845 31.2018 295.979 31.585 298.216L31.6157 298.395L31.6625 298.57C32.3995 301.335 33.4872 304.804 34.9088 308.952L34.9572 309.093L35.016 309.23C36.9093 313.65 39.3083 317.296 42.3576 319.875C44.9353 322.312 47.9978 324.409 51.3536 324.409H52.5305L53.1465 324.203C56.4486 323.102 58.836 319.967 60.6684 316.606C62.6862 312.906 64.0257 308.521 64.7833 303.554C65.8793 298.636 66.5948 293.037 66.9524 286.782L66.9529 286.773L74.1241 170.197C83.2657 169.476 91.2714 168.9 98.8354 168.355L98.8365 168.355C115.8 167.133 130.541 166.071 150.889 163.911L149.383 252.648V252.682C149.383 263.139 149.551 270.04 149.945 273.001C150.309 275.728 150.849 279.023 151.559 282.873C152.306 286.92 153.464 290.456 155.158 293.324C156.232 295.404 157.266 297.154 158.26 298.443C158.762 299.094 159.359 299.768 160.059 300.312C160.708 300.817 161.865 301.54 163.406 301.54H163.933C166.066 301.54 167.745 300.439 168.894 299.375C170.056 298.298 171.102 296.872 172.063 295.28C174.152 292.118 175.534 288.386 176.307 284.193L176.312 284.168L176.316 284.142C177.025 280.007 177.733 275.581 178.44 270.866L178.445 270.834L178.449 270.802C179.177 265.337 179.536 259.178 179.539 252.342L182.698 188.7L182.699 188.681C182.74 187.91 182.721 185.449 182.71 184.065V184.064C182.707 183.659 182.704 183.347 182.704 183.196V159.745L215.933 158.17C218.058 158.168 226.098 158.094 234.081 157.95C238.137 157.877 242.199 157.784 245.475 157.673C248.592 157.568 251.37 157.437 252.574 157.236C254.169 156.97 255.527 156.851 256.664 156.851C257.806 156.851 258.662 156.972 259.286 157.145L259.412 157.18L259.54 157.207C261.89 157.697 263.841 158.53 265.46 159.654C266.329 160.258 266.907 161.13 266.907 162.966V169.593L267.96 240.245L264.812 281.356C264.471 284.759 264.053 287.503 263.576 289.626C263.082 291.82 262.58 293.093 262.202 293.723C261.039 295.662 259.956 296.61 259.095 297.041L259.017 297.08L258.941 297.122C258.572 297.327 258.031 297.498 257.191 297.498C256.489 297.498 255.542 297.398 254.315 297.142L254.271 297.133L254.227 297.125C251.157 296.556 247.903 295.843 244.462 294.983L244.446 294.979L236.282 292.852C235.217 292.446 234.092 292.221 232.925 292.221C231.849 292.221 230.625 292.446 229.485 293.159C228.604 293.71 227.951 294.441 227.492 295.244C226.585 296.379 226.287 297.719 226.287 298.859C226.287 300.334 226.93 301.482 227.436 302.185C227.865 302.782 228.384 303.317 228.917 303.793L232.958 309.268L233.052 309.378C235.043 311.701 238.597 314.951 243.494 319.035C247.857 322.958 251.305 326.812 253.892 330.586C256.674 334.645 259.069 337.736 260.96 339.313C263.194 341.175 265.901 342 268.797 342C270.916 342 272.901 341.141 274.61 340.072C276.367 338.974 278.189 337.429 280.067 335.55C283.678 331.938 286.517 328.65 288.479 325.705C290.382 322.851 292.074 319.708 293.565 316.291C295.105 312.759 296.244 308.944 296.997 304.863C297.75 300.782 298.119 296.432 298.119 291.823V189.793C298.119 185.926 298.449 182.568 299.074 179.689C299.761 176.824 300.448 174.105 301.133 171.533C301.75 169.484 302.335 167.896 302.876 166.72L307.088 160.576L307.221 160.299C308.089 158.489 308.67 156.567 308.67 154.61V153.291C308.67 151.445 307.771 149.867 307.024 148.799C306.194 147.614 305.062 146.381 303.736 145.118C300.95 142.463 297.3 139.928 292.897 137.481C288.521 135.049 284.423 133.175 280.613 131.905L280.517 131.873L280.419 131.846C276.305 130.703 272.956 129.94 270.907 129.94C268.062 129.94 263.79 131.042 258.564 132.785C257.748 133.056 255.378 133.43 251.66 133.809C248.132 134.169 243.841 134.495 239.54 134.787C236.676 134.982 233.761 135.164 231.072 135.331C225.888 135.655 221.546 135.926 220.035 136.135L219.771 136.172L219.515 136.243C219.515 136.243 219.511 136.245 219.502 136.247C219.497 136.248 219.49 136.25 219.481 136.252L219.466 136.255C219.446 136.26 219.423 136.265 219.394 136.271C219.376 136.275 219.356 136.279 219.334 136.283C219.22 136.306 219.072 136.332 218.884 136.362C218.508 136.42 218.027 136.483 217.44 136.548C216.267 136.677 214.769 136.806 213.026 136.933C209.544 137.186 205.205 137.422 200.766 137.642C198.238 137.767 195.662 137.887 193.198 138.002C189.724 138.164 186.471 138.316 183.886 138.456L185.866 70.779C186.214 64.422 186.734 58.2141 187.426 52.155L187.439 52.0423L187.446 51.9291C187.783 46.0222 188.781 42.0217 190.123 39.5537C191.23 37.5541 192.115 35.727 192.732 34.0973C193.329 32.5212 193.783 30.858 193.783 29.272V27.9193L193.672 27.4593C193.29 25.8658 192.37 24.4652 191.409 23.3082C190.407 22.1017 189.11 20.8652 187.596 19.6028C184.366 16.9097 180.709 15.0316 176.663 13.9958C173.032 12.7915 168.74 11.6038 163.805 10.4282L163.785 10.4234L163.765 10.4189C159.812 9.52019 156.475 9 153.91 9H152.385L151.928 9.10886C149.4 9.71113 146.634 10.8052 144.999 13.0898C143.925 14.2749 143.58 15.7322 143.58 16.9581C143.58 18.7514 144.25 20.5837 145.028 22.2067L145.038 22.2273L148.613 29.4646C149.578 32.45 150.388 35.5784 151.043 38.8518L151.08 39.0364L151.134 39.2166C152.093 42.4169 152.755 46.09 153.088 50.2607C153.426 54.4888 153.602 60.6485 153.603 68.7982L151.582 142.917C130.185 146.805 114.452 147.295 96.3021 147.861C86.9383 148.153 76.9301 148.465 65.169 149.274L58.2992 148.456L51.6116 147.17C48.7599 146.576 46.327 146.212 44.4957 146.212C43.1889 146.212 41.8389 146.379 40.5712 146.86C38.2046 147.551 35.2829 148.977 34.3338 152.142L34.1652 152.704V153.731C34.1652 155.261 34.7171 156.642 35.3127 157.735C35.9326 158.871 36.781 160.022 37.7654 161.171L37.7969 161.208L37.8292 161.244C39.8053 163.44 40.8587 165.084 41.3091 166.21L41.5291 166.761L41.8992 167.223C42.8367 168.396 43.6884 170.151 44.2988 172.695C44.9421 175.377 45.4453 178.686 45.7856 182.658L45.7867 182.671L45.7879 182.684Z" fill="black"/>
<path d="M145.242 107.314C144.846 100.717 142.643 95.0804 138.385 90.7631C134.381 86.1322 129.085 82.6004 122.664 80.0814C116.545 77.6811 110.57 75.8624 104.74 74.639L96.9521 72.4749C95.719 72.1322 94.4512 71.889 93.2435 71.889C91.2258 71.889 89.1608 72.4792 87.571 74.0291C86.9062 74.4653 86.3104 75.0542 85.8566 75.8107C85.2155 76.8796 85.0232 78.0068 85.0232 78.9675C85.0232 80.8679 85.7612 82.6249 86.6479 84.1034L86.734 84.2469L89.6746 88.3326C89.7465 88.4912 89.8182 88.6315 89.8786 88.7448C90.067 89.0981 90.3025 89.4803 90.5467 89.8569C91.0447 90.6249 91.7534 91.6365 92.6458 92.8639C94.4403 95.3323 97.1073 98.8518 100.631 103.405L112.258 118.385L112.276 118.408C116.082 123.167 120.502 126.506 125.618 126.932L125.784 126.946H128.061C132.416 126.946 136.338 125.651 139.59 122.94L139.68 122.865L139.765 122.785C143.501 119.281 145.249 114.646 145.249 109.313V107.434L145.242 107.314Z" fill="black"/>
<path d="M197.024 102.656L192.275 108.814L192.155 109.014C191.493 110.118 191.058 111.407 191.058 112.831C191.058 113.703 191.301 114.428 191.476 114.866C191.669 115.349 191.913 115.804 192.155 116.208L192.832 117.336L194.047 117.842C194.801 118.157 195.962 118.59 197.168 118.59C198.442 118.59 199.667 118.322 200.817 117.842L200.997 117.768L208.62 113.682L228.361 102.118L243.238 91.4868C248.869 87.6749 252.514 85.6187 254.433 84.9332C256.869 84.0629 258.556 83.4403 259.374 83.0994L259.581 83.0129L259.778 82.9036C262.621 81.3233 265 78.7454 265 75.0095C265 71.8159 263.386 69.0995 261.191 66.9042L255.644 61.3545L244.237 53.6566L244.228 53.6505C241.506 51.8353 239.063 50.3784 236.918 49.3221C234.832 48.2942 232.772 47.515 230.876 47.2892L230.64 47.2612H230.403C228.456 47.2612 226.641 47.42 225.057 47.8264C223.506 48.2242 221.827 48.9488 220.571 50.345C219.461 51.579 218.769 53.2335 218.28 54.7847C217.759 56.4346 217.326 58.441 216.957 60.7445C216.289 64.923 215.286 69.1113 213.945 73.3109C212.681 76.9819 210.238 81.7892 206.465 87.797C202.652 93.5782 199.502 98.5342 197.024 102.656Z" fill="black"/>
<path d="M213.809 253.733C216.298 258.358 219.903 261.659 224.657 263.2C226.091 263.722 227.577 264 229.097 264C233.091 264 236.866 261.952 240.319 258.964C245.526 254.595 248 248.547 248 241.342C248 235.062 246.878 229.403 244.485 224.484C242.007 219.002 236.75 213.108 229.334 206.808L229.27 206.754L213.241 194.244L212.932 194.079C209.341 192.172 206.02 190.273 202.966 188.381L202.74 188.241L202.497 188.132C199.664 186.861 196.405 186.37 193.65 188.208C191.064 189.934 190.271 192.853 190.067 195.027C189.663 199.333 191.139 204.722 193.42 208.288C194.531 210.735 196.36 214.413 198.876 219.275C201.398 224.15 203.95 230.021 206.525 236.911L206.538 236.947L206.552 236.983C209.189 243.646 211.584 249.192 213.738 253.595L213.772 253.664L213.809 253.733Z" fill="black"/>
</svg>
