<svg width="350" height="350" viewBox="0 0 350 350" fill="none" xmlns="http://www.w3.org/2000/svg">
<path fill-rule="evenodd" clip-rule="evenodd" d="M-2 153.951C-2 154.965 -1.79675 156.355 -0.951874 157.647C-0.423858 158.666 0.379576 159.575 1.47029 160.229C2.80062 161.028 4.1871 161.226 5.27521 161.226C6.53709 161.226 7.7444 160.927 8.75229 160.591L8.98129 160.514L19.3564 155.903C23.4062 154.275 30.3893 150.901 40.1449 145.899C50.3602 140.79 60.3218 135.299 70.0294 129.424C80.2774 123.377 91.1708 114.925 102.708 104.16C114.206 93.682 124.098 83.4128 132.358 73.3496C133.967 71.4473 135.504 69.6077 136.968 67.8311L137.652 77.7407L138.025 131.27L112.22 135.447L112.129 135.465C106.971 136.496 101.108 137.281 94.5261 137.808C87.7922 138.346 83.0326 138.754 80.2835 139.028L80.084 139.048L79.8868 139.084C78.2656 139.379 76.7159 139.758 75.4235 140.297C74.775 140.567 74.0119 140.95 73.2979 141.51C72.7982 141.903 72.1869 142.49 71.7026 143.312C70.7538 144.664 70.5274 146.152 70.5274 147.235C70.5274 149.575 71.6189 151.543 72.6587 152.954C74.3177 155.39 76.6485 157.222 79.3537 158.574L79.4553 158.625L79.5591 158.671C82.165 159.829 85.1498 160.962 88.4948 162.077L88.7201 162.152L88.9515 162.205C92.8401 163.102 96.855 163.545 100.986 163.545H101.142L101.298 163.535C105.642 163.264 111.327 162.858 118.342 162.319L118.391 162.315L137.308 160.488C137 162.901 136.669 165.472 136.326 168.138L136.32 168.186C134.856 179.56 133.167 192.687 132.048 202.636L86.5716 208.225L86.466 208.243C81.9156 209.001 68.2204 210.197 44.9727 211.818L36.0488 212.224L35.9548 212.231C32.7943 212.495 28.2095 213.514 26.3202 217.576C25.5083 218.86 25.3082 220.235 25.3082 221.254C25.3082 223.379 26.2322 225.16 27.1071 226.423C28.0251 227.749 29.2519 229.023 30.6242 230.242L30.6838 230.295L30.7451 230.346C34.3799 233.374 38.5649 235.901 43.2569 237.953C47.7971 239.938 52.0496 241.199 55.7671 241.199C56.873 241.199 58.4391 241.002 60.1641 240.737C61.9626 240.461 64.2616 240.055 67.0427 239.527L80.4138 237.907L96.2153 234.667L126.066 230.54L124.961 233.854L124.947 233.899C119.304 251.95 113.208 263.678 101.489 278.483C96.2865 284.718 90.4203 290.713 83.8826 296.463C77.2905 302.262 69.7444 308.219 61.2333 314.334C52.7334 320.441 45.1068 325.297 38.3426 328.938L38.323 328.948L21.9525 337.948L21.7753 338.066C20.2119 339.108 18.9807 339.873 18.0563 340.393C17.3592 340.785 16.9912 340.948 16.8722 341C16.8422 341.013 16.828 341.02 16.8284 341.021C16.8288 341.022 16.8431 341.018 16.87 341.012L16.3377 341.145L10.4598 344.082C8.19412 344.93 5 346.955 5 351.113V353.102L5.52826 354.158C6.09446 355.29 6.95482 356.439 8.23762 357.294C9.55162 358.17 11.0114 358.537 12.4247 358.537H14.3728L21.1118 357.639L31.4868 354.735C37.0849 353.332 43.9566 351.128 52.0618 348.159C60.3736 345.385 68.5366 341.925 76.5498 337.782L76.6093 337.751L76.668 337.719C84.7579 333.257 93.1963 327.58 101.982 320.72L102.012 320.696L102.042 320.672C110.567 313.8 118.04 306.754 124.44 299.526C125.489 298.379 126.71 296.611 127.946 294.682C129.256 292.637 130.773 290.104 132.41 287.264C135.689 281.579 139.53 274.522 143.295 267.371C148.082 258.28 152.846 248.849 156.197 241.813C158.754 246.208 160.797 249.836 162.662 253.149C168.234 263.045 172.22 270.118 183.213 285.815C188.944 294 194.691 301.523 200.453 308.38L220.263 331.819L220.27 331.827C227.744 340.632 233.748 346.777 238.031 349.412C241.93 351.81 245.933 353.522 250.034 354.468L250.283 354.526L250.538 354.558C253.019 354.868 256.648 355 261.26 355H269.038L289.249 354.192C293.169 354.177 301.952 353.322 315.198 351.733L315.244 351.727L329.905 349.692L329.972 349.681C331.871 349.365 333.892 348.809 335.56 347.698C338.489 345.746 339 342.47 339 340.306C339 337.972 337.81 336.237 336.727 335.154C335.653 334.08 334.315 333.258 333.002 332.602L323.15 327.677L303.594 319.533C297.376 316.943 287.863 312.198 274.956 305.21C262.113 298.256 251.341 291.872 242.615 286.057C233.988 280.308 224.356 272.669 213.71 263.093C201.788 252.092 195.809 246.195 189.499 239.971L189.493 239.964C185.459 235.985 181.289 231.872 175.378 226.238L192.344 225.026L229.895 221.798C238.994 221.263 249.432 220.728 261.213 220.192L283.732 219.791C287.072 219.784 290.245 219.11 293.035 217.516C295.434 216.146 297.712 214.201 298.834 211.397L299.192 210.503V209.539C299.192 207.091 298.003 205.088 296.883 203.689C295.707 202.22 294.129 200.82 292.342 199.48C288.886 196.889 285.477 194.8 282.116 193.273C278.973 191.845 275.054 190.31 270.396 188.667L270.355 188.652L270.313 188.638C265.39 186.998 261.104 185.958 257.822 185.958C254.974 185.958 250.648 186.789 245.295 188.127C240.08 189.43 233.486 190.752 225.48 192.085C217.478 193.418 210.602 194.341 204.835 194.865L204.765 194.872L167.069 199.366C168.213 189.71 169.114 177.139 169.791 167.682L169.805 167.487C169.972 165.158 170.126 163.016 170.267 161.136C170.325 160.355 170.383 159.716 170.438 159.195C171.107 158.614 171.531 157.963 171.773 157.511C172.013 157.062 172.194 156.597 172.334 156.153L218.4 149.933L218.445 149.926C225.294 148.873 230.579 147.756 233.879 146.478C236.686 145.61 240.151 144.003 241.631 140.602C241.943 139.963 242.486 138.728 242.486 137.309C242.486 134.543 241.357 132.164 239.572 130.308C237.744 128.167 235.372 126.376 232.64 124.859C229.897 123.336 226.526 121.884 222.599 120.482C218.72 119.097 215.349 118.144 212.647 117.806L212.339 117.767H212.027C209.957 117.767 207.316 118.101 204.264 118.656L203.774 118.745L203.766 118.746C191.519 120.972 184.212 122.3 173.372 124.493L175.531 72.8975L175.531 72.8823C175.798 65.4136 176.326 60.1144 177.04 56.7866L177.076 56.6173L177.1 56.4459C177.353 54.6789 177.506 52.9465 177.567 51.2544L180.143 54.1312L180.156 54.145L204.392 81.4106L204.412 81.4334L231.752 112.57L231.811 112.633C235.997 117.08 241.552 122.371 248.436 128.49L248.47 128.52L248.504 128.549C255.611 134.641 261.489 138.958 265.949 141.039L266.004 141.065L266.059 141.089C270.926 143.218 276.717 144.163 283.232 144.163H287.403C292.512 144.163 298.942 143.628 306.624 142.605C316.552 141.364 322.998 140.454 325.594 139.884C328.186 139.365 330.458 138.833 332.385 138.282L332.489 138.252L340.386 135.62C343.772 134.737 348.15 132.66 348.854 127.735L348.904 127.384V126.649C348.904 123.652 347.075 121.632 345.483 120.495C343.924 119.381 341.971 118.622 339.982 118.053L339.969 118.049L330.831 115.384L330.767 115.367C321.179 112.844 314.23 110.855 309.84 109.392C305.555 107.964 299.055 105.275 290.24 101.246C281.496 97.2486 273.006 93.0036 264.77 88.5108C256.544 84.0244 250.071 79.9821 245.278 76.3868L245.231 76.3519L245.184 76.3181C240.063 72.6608 234.139 67.8529 227.398 61.861L227.317 61.7897L227.234 61.7219C220.507 56.241 214.162 50.6415 208.196 44.9242C202.21 39.1876 194.687 31.5412 185.614 21.9643C176.853 12.7033 170.307 6.1412 166.063 2.41129C162.428 -1.21278 159.018 -4.10081 155.849 -6.11756L155.707 -6.20804L155.559 -6.28873C152.67 -7.86469 149.871 -9.20284 147.165 -10.2907C144.19 -11.6368 141.193 -12.7255 138.175 -13.5486L138.008 -13.5939L137.84 -13.6277C135.105 -14.1747 131.404 -14.6984 126.809 -15.2092C122.465 -15.72 118.952 -16 116.382 -16H115.662L108.512 -13.897L108.499 -13.8931C105.524 -13.0007 101.58 -11.0021 100.832 -6.51322L100.764 -6.10504V-4.93283C100.764 -3.29951 101.187 -1.64731 102.173 -0.168529C103.138 1.27895 104.452 2.27634 105.803 2.95211C108.136 4.11835 110.698 4.61755 113.348 4.61755C115.427 4.61755 118.153 4.73211 121.559 4.97303C125.02 5.4433 127.698 6.11622 129.693 6.91433L129.767 6.9438L129.841 6.97091C132.256 7.84877 134.136 8.68107 135.542 9.44979C136.177 9.96802 136.859 10.4976 137.586 11.0384L132.47 20.7317C130.38 24.4217 123.956 33.3058 112.816 47.7371C101.775 61.7892 91.6506 73.6587 82.4414 83.3675C72.9715 93.0849 63.5226 101.786 54.0964 109.477C44.5411 117.02 36.9348 122.753 31.2487 126.709L31.2394 126.716L14.2255 138.436L3.97131 145.272L3.92477 145.305C2.47709 146.318 1.13477 147.431 0.10694 148.665C-0.87514 149.843 -2 151.65 -2 153.951ZM141.725 165.359C141.581 166.474 141.435 167.611 141.286 168.766L141.286 168.769C141.435 167.613 141.581 166.475 141.725 165.359Z" fill="black"/>
</svg>
