<svg width="350" height="350" viewBox="0 0 350 350" fill="none" xmlns="http://www.w3.org/2000/svg">
<path fill-rule="evenodd" clip-rule="evenodd" d="M20.5021 142.824C22.5635 147.977 23.6482 153.888 23.6601 160.63C23.3708 166.952 22.9393 172.975 22.3666 178.702L17.9742 222.626L17.9731 222.636C16.5034 236.747 15.75 247.787 15.75 255.664V255.76L15.7537 255.856C16.0568 263.736 16.9684 271.078 18.5111 277.866C20.0593 284.678 22.2612 290.717 25.1812 295.908L25.2049 295.95L25.2294 295.992C28.4145 301.407 32.6517 306.717 37.8688 311.934L37.9223 311.988L37.9775 312.039C43.2548 317.006 49.141 321.34 55.6228 325.044C62.3627 328.896 72.2546 332.397 84.9893 335.655C97.8268 338.939 110.676 341.181 123.534 342.379C132.224 343.276 141.764 343.721 152.146 343.721C157.471 343.721 162.935 343.574 168.538 343.281C191.421 343.278 210.593 342.544 226.014 341.061L226.023 341.06C241.181 339.574 256.618 337.05 272.333 333.492C288.221 329.961 300.504 326.212 308.933 322.166C317.019 318.566 323.362 314.761 327.508 310.616C331.348 306.775 334.246 302.337 334.246 297.412C334.246 295.856 333.816 294.212 333.33 292.755C332.811 291.197 332.071 289.403 331.149 287.407L331.116 287.336L331.082 287.266C329.483 284.069 327.817 279.797 326.104 274.373L326.019 274.105L325.905 273.848C323.657 268.79 322.003 264.084 320.913 259.725C319.81 255.311 318.667 248.791 317.503 240.062L317.494 239.997L313.975 218.001C313.667 215.855 313.294 213.958 312.815 212.425C312.574 211.654 312.265 210.838 311.847 210.078C311.461 209.377 310.775 208.337 309.607 207.559L309.348 207.386L309.07 207.247C307.873 206.648 306.526 206.279 305.076 206.279H303.582L302.985 206.429C300.882 206.954 298.6 208.265 297.489 210.845C296.916 211.894 296.55 213.08 296.29 214.056C295.951 215.326 295.638 216.865 295.34 218.628L289.222 243.973L285.702 259.374L285.7 259.384C284.021 266.656 282.143 271.916 280.187 275.408C277.971 278.552 274.672 281.76 270.113 284.978L270.054 285.019L269.996 285.062C265.869 288.157 260.404 290.866 253.455 293.089L253.286 293.143L253.122 293.209C246.472 295.869 235.185 298.161 218.852 299.911C202.238 301.66 187.111 302.822 173.467 303.403L173.427 303.405L173.386 303.407C168.497 303.695 163.761 303.838 159.178 303.838C149.661 303.838 140.447 303.405 131.534 302.543L131.506 302.54L131.477 302.538C117.868 301.379 105.467 299.646 94.2645 297.348C83.2249 295.084 74.4396 291.883 67.7456 287.874C61.2455 283.805 57.0143 279.57 54.6162 275.302C52.3555 270.742 50.8865 265.129 50.3435 258.342L50.3311 258.187L50.3091 258.033C50.0536 256.245 49.9199 254.286 49.9199 252.148C49.9199 247.135 50.3389 241.046 51.2027 233.848L51.2062 233.819L51.2093 233.789C52.3707 223.047 53.97 211.265 56.0102 198.442L56.0177 198.395L56.0243 198.347C57.6292 186.846 59.0726 178.965 60.32 174.445C60.4414 174.005 60.561 173.596 60.6786 173.22C61.8653 169.422 63.472 165.068 65.5131 160.145L97.247 156.931L97.2791 156.928L138.915 152.983L174.062 150.787L193.42 149.027C197.384 148.743 200.468 148.432 202.138 148.015L202.671 147.882L203.162 147.636C205.099 146.668 206.646 145.212 207.715 143.358C208.381 142.485 209.002 141.241 209.002 139.648C209.002 137.627 208.14 135.962 207.329 134.804C206.487 133.6 205.379 132.486 204.18 131.458L204.089 131.38L198.914 127.355L216.158 77.6783C217.829 73.5157 220.223 68.4404 223.373 62.4275C226.446 56.5597 229.539 52.1885 232.586 49.141C234.427 47.3 235.974 45.601 237.172 44.0609C238.313 42.5942 239.385 40.9625 239.947 39.2765L240.203 38.5067V37.2559C240.203 32.6366 237.467 28.5118 233.976 25.0023C230.01 20.7253 225.25 17.3004 219.754 14.7142C214.637 12.3061 209.874 10.4505 205.481 9.18748C201.056 7.71624 197.342 6.72019 194.515 6.36674L194.206 6.32812H193.895C188.963 6.32812 182.301 8.4796 174.423 11.9717L157.021 18.4973C153.233 19.8452 145.044 21.9773 132.142 24.9095L132.089 24.9214L132.037 24.9344C119.22 28.1388 108.52 30.4493 99.9085 31.8844L99.8289 31.8977L99.7499 31.9135C91.0927 33.6449 81.2443 35.2393 70.1954 36.6931C59.1013 38.1529 50.1063 39.1672 43.1863 39.7438L43.1073 39.7504L31.7109 41.0654L23.8068 41.63L22.4879 42.9488C20.903 44.5338 20.1445 46.5659 20.1445 48.6816C20.1445 50.5417 20.9458 52.3434 21.5513 53.5544L21.6134 53.6786L21.6822 53.7991C23.4337 56.8641 26.5531 59.585 30.2812 62.0704L30.4059 62.1535L30.5353 62.229C34.0677 64.2896 36.8196 65.8222 38.7288 66.7768C41.9623 68.3936 45.715 69.0625 49.7539 69.0625C53.9297 69.0625 61.194 67.7457 71.025 65.4349L102.203 59.287L102.269 59.2722C123.156 54.5653 135.129 51.9726 138.467 51.4163L156.924 48.3402C165.68 46.8808 171.778 46.2109 175.438 46.2109C176.662 46.2109 177.59 46.3466 178.284 46.5409C178.501 46.7788 178.682 47.1273 178.787 47.7247V48.6816C178.787 51.1361 178.275 55.5864 177.108 62.2997C176.38 66.231 175.803 69.2213 175.375 71.2892C175.16 72.33 174.99 73.0999 174.863 73.6236C174.824 73.7824 174.793 73.9039 174.77 73.9935L174.677 74.1776L163.513 118.42L58.0067 131.872L44.001 125.469C40.9868 123.965 38.2741 122.779 35.8931 121.958C33.5596 121.153 31.229 120.586 29.0996 120.586H27.7812C25.6983 120.586 23.4534 120.997 21.4921 122.305L21.0802 122.579L20.7301 122.929C19.0814 124.578 18.396 126.802 18.0444 128.56L17.9473 129.046V131.299C17.9473 134.228 18.9257 138.122 20.4011 142.548L20.4476 142.687L20.5021 142.824ZM174.727 74.1474C174.716 74.1776 174.712 74.1936 174.712 74.1936C174.712 74.1936 174.714 74.1875 174.718 74.1749C174.72 74.1678 174.723 74.1587 174.727 74.1474Z" fill="black"/>
</svg>
