<svg width="350" height="350" viewBox="0 0 350 350" fill="none" xmlns="http://www.w3.org/2000/svg">
<path fill-rule="evenodd" clip-rule="evenodd" d="M20.5041 142.82C22.5655 147.973 23.6502 153.884 23.662 160.626C23.3728 166.948 22.9412 172.971 22.3686 178.698L17.9761 222.623L17.9751 222.633C16.5054 236.744 15.752 247.783 15.752 255.66V255.756L15.7556 255.852C16.0587 263.732 16.9703 271.074 18.513 277.862C20.0613 284.674 22.2631 290.713 25.1831 295.904L25.2068 295.947L25.2313 295.988C28.4164 301.403 32.6536 306.713 37.8707 311.93L37.9243 311.984L37.9794 312.036C43.2568 317.002 49.1429 321.337 55.6248 325.04C62.3647 328.892 72.2566 332.393 84.9913 335.651C97.8288 338.935 110.678 341.177 123.536 342.375C132.226 343.273 141.766 343.717 152.148 343.717C157.473 343.717 162.937 343.57 168.54 343.277C191.423 343.275 210.595 342.54 226.016 341.057L226.025 341.056C241.183 339.57 256.62 337.046 272.335 333.488C288.223 329.957 300.506 326.208 308.935 322.162C317.021 318.562 323.364 314.757 327.51 310.612C331.35 306.772 334.248 302.333 334.248 297.408C334.248 295.852 333.818 294.208 333.332 292.751C332.813 291.194 332.073 289.4 331.151 287.403L331.118 287.332L331.083 287.262C329.485 284.065 327.819 279.793 326.106 274.369L326.021 274.101L325.907 273.844C323.659 268.786 322.005 264.08 320.915 259.721C319.812 255.307 318.669 248.787 317.505 240.058L317.496 239.993L313.977 217.997C313.669 215.852 313.296 213.954 312.817 212.421C312.576 211.65 312.267 210.834 311.849 210.074C311.463 209.373 310.777 208.333 309.609 207.555L309.35 207.382L309.072 207.243C307.875 206.644 306.528 206.275 305.078 206.275H303.584L302.987 206.425C300.884 206.95 298.602 208.261 297.491 210.841C296.918 211.89 296.552 213.076 296.292 214.052C295.953 215.322 295.64 216.861 295.342 218.624L289.224 243.97L285.704 259.37L285.702 259.38C284.023 266.652 282.145 271.912 280.189 275.404C277.973 278.548 274.674 281.756 270.115 284.974L270.056 285.015L269.998 285.059C265.871 288.154 260.406 290.862 253.457 293.086L253.288 293.139L253.124 293.205C246.474 295.865 235.187 298.157 218.854 299.907C202.24 301.656 187.113 302.818 173.469 303.399L173.429 303.401L173.388 303.403C168.499 303.691 163.763 303.834 159.18 303.834C149.663 303.834 140.449 303.401 131.536 302.539L131.508 302.536L131.479 302.534C117.87 301.375 105.469 299.642 94.2664 297.344C83.2269 295.08 74.4415 291.879 67.7475 287.87C61.2474 283.801 57.0163 279.566 54.6182 275.298C52.3575 270.738 50.8884 265.125 50.3454 258.338L50.333 258.183L50.3111 258.029C50.0556 256.241 49.9219 254.282 49.9219 252.145C49.9219 247.131 50.3409 241.042 51.2046 233.844L51.2081 233.815L51.2113 233.785C52.3726 223.043 53.972 211.262 56.0121 198.438L56.0196 198.391L56.0262 198.343C57.6311 186.842 59.0746 178.961 60.3219 174.441C60.4434 174.001 60.5629 173.593 60.6806 173.216C61.8673 169.419 63.474 165.064 65.5151 160.141L97.2489 156.927L97.2811 156.924L138.917 152.979L174.064 150.783L193.422 149.023C197.386 148.739 200.47 148.428 202.14 148.011L202.673 147.878L203.164 147.632C205.101 146.664 206.648 145.209 207.717 143.354C208.383 142.481 209.004 141.237 209.004 139.645C209.004 137.623 208.142 135.959 207.331 134.8C206.489 133.596 205.381 132.482 204.182 131.454L204.091 131.376L198.916 127.351L216.16 77.6744C217.831 73.5118 220.225 68.4365 223.374 62.4235C226.448 56.5558 229.541 52.1846 232.588 49.1371C234.429 47.2961 235.976 45.5971 237.174 44.057C238.315 42.5903 239.386 40.9586 239.949 39.2725L240.205 38.5028V37.252C240.205 32.6327 237.469 28.5079 233.977 24.9984C230.012 20.7214 225.252 17.2965 219.756 14.7103C214.639 12.3022 209.876 10.4466 205.483 9.18358C201.058 7.71233 197.344 6.71629 194.517 6.36283L194.208 6.32422H193.896C188.965 6.32422 182.303 8.4757 174.425 11.9678L157.023 18.4934C153.235 19.8413 145.046 21.9734 132.144 24.9056L132.091 24.9175L132.039 24.9305C119.222 28.1349 108.522 30.4453 99.9104 31.8805L99.8309 31.8938L99.7518 31.9096C91.0947 33.641 81.2462 35.2354 70.1973 36.6892C59.1032 38.149 50.1083 39.1633 43.1883 39.7399L43.1092 39.7465L31.7128 41.0615L23.8087 41.6261L22.4899 42.9449C20.9049 44.5299 20.1465 46.562 20.1465 48.6777C20.1465 50.5378 20.9477 52.3395 21.5533 53.5505L21.6153 53.6747L21.6842 53.7951C23.4356 56.8602 26.555 59.5811 30.2831 62.0665L30.4078 62.1496L30.5373 62.2251C34.0696 64.2857 36.8215 65.8183 38.7307 66.7729C41.9643 68.3897 45.717 69.0586 49.7559 69.0586C53.9317 69.0586 61.196 67.7418 71.0269 65.431L102.205 59.2831L102.271 59.2683C123.158 54.5614 135.131 51.9687 138.468 51.4124L156.926 48.3363C165.682 46.8769 171.78 46.207 175.439 46.207C176.664 46.207 177.592 46.3427 178.286 46.537C178.503 46.7749 178.684 47.1234 178.789 47.7208V48.6777C178.789 51.1321 178.277 55.5825 177.11 62.2958C176.382 66.2271 175.805 69.2174 175.377 71.2853C175.162 72.3261 174.992 73.0959 174.865 73.6197C174.826 73.7785 174.795 73.8999 174.771 73.9895L174.679 74.1737L163.515 118.417L58.0086 131.868L44.003 125.465C40.9888 123.961 38.2761 122.775 35.8951 121.954C33.5615 121.149 31.231 120.582 29.1016 120.582H27.7832C25.7002 120.582 23.4553 120.993 21.4941 122.301L21.0821 122.575L20.732 122.925C19.0834 124.574 18.398 126.798 18.0463 128.557L17.9492 129.042V131.295C17.9492 134.224 18.9277 138.118 20.4031 142.544L20.4495 142.683L20.5041 142.82ZM174.729 74.1435C174.718 74.1737 174.714 74.1897 174.714 74.1897C174.714 74.1897 174.716 74.1836 174.72 74.171C174.722 74.1639 174.725 74.1548 174.729 74.1435Z" fill="black"/>
</svg>
