<svg width="350" height="350" viewBox="0 0 350 350" fill="none" xmlns="http://www.w3.org/2000/svg">
<path fill-rule="evenodd" clip-rule="evenodd" d="M109.741 191.296C113.888 190.241 117.921 189.214 121.813 188.277L119.745 194.163L114.945 205.507L114.91 205.6C113.347 209.664 112.312 213.549 112.312 216.982V217.356L112.359 217.727C113.155 224.097 116.76 229.125 121.452 233.251C126.085 237.324 132.236 240.924 139.085 244.436C144.339 247.13 149.982 249.776 155.993 252.595C164.446 256.559 173.628 260.864 183.481 266.124C174.293 275.673 162.282 284.907 149.297 293.574C133.946 303.821 117.587 313.047 103.531 320.919C96.1096 324.631 91.0767 327.283 88.9491 328.701L85.1006 331.267C83.4128 332.3 80.125 334.716 80.125 338.967V339.846C80.125 341.749 80.8505 344.049 82.9645 345.634C84.7538 346.976 86.7199 347.164 87.8828 347.164C89.3299 347.164 90.7106 346.831 91.867 346.453L99.1701 344.305L105.689 342.567L105.705 342.563L105.721 342.558C132.464 335.265 158.741 322.341 181.524 307.152C182.556 306.464 183.619 305.761 184.706 305.041C192.907 299.612 202.467 293.283 210.311 286.032C213.573 289.309 217.322 292.951 221.152 296.67C222.807 298.278 224.477 299.9 226.129 301.514C233.565 308.776 240.64 315.865 245.093 321.255L245.184 321.364L245.279 321.47C251.065 327.834 255.802 333.29 259.51 337.85C263.488 343.036 268.171 347.381 273.694 348.386L274.227 348.482H276.525C278.78 348.482 281.042 348.034 283.257 347.296L283.661 347.161L284.043 346.97C287.921 345.031 290.61 341.645 292.443 337.694C294.56 333.749 295.781 329.471 296.131 324.925L296.148 324.695V324.465C296.148 317.555 293.946 310.995 289.867 304.877L289.672 304.584L289.444 304.316C274.615 286.895 251.849 269.918 232.487 257.147C238.687 246.824 245.327 234.941 250.05 224.145C254.217 214.621 257.799 205.369 260.792 196.392L260.81 196.338L260.826 196.284C263.767 186.873 265.995 179.304 267.494 173.609L267.532 173.464L267.563 173.318C268.413 169.277 269.26 165.569 270.102 162.189L284.269 159.002L284.433 158.955C286.703 158.306 288.786 157.547 290.536 156.621C292.151 155.766 294.058 154.471 295.318 152.453C296.389 150.811 297.135 148.83 297.135 146.594C297.135 144.56 296.504 142.578 295.19 140.927C292.844 137.05 288.742 135.76 284.982 135.76C283.331 135.76 281.341 135.881 279.046 136.107C279.83 135.06 280.517 134.07 281.084 133.149C281.767 132.039 282.521 130.643 282.893 129.152L283.072 128.436V127.258C283.072 122.297 280.016 118.453 276.576 115.663C272.842 112.298 268.383 109.527 263.294 107.293C258.219 104.908 253.799 103.149 250.121 102.143C247.656 101.441 245.203 101.043 242.795 101.043C241.221 101.043 239.613 101.228 238.058 101.714C235.53 102.37 232.188 103.699 230.315 106.788C229.662 107.716 229.342 108.652 229.174 109.323C228.941 110.254 228.885 111.148 228.885 111.877C228.885 114.17 229.651 116.751 230.544 119.148C231.604 122.344 232.395 125.522 232.921 128.684C233.47 131.974 233.88 134.965 234.158 137.664C234.152 139.315 234.099 141.327 233.996 143.711L162.109 150.033L173.392 111.088L173.45 110.742C173.688 109.312 174.773 104.789 176.855 96.7597L176.881 96.658L176.904 96.5555C178.635 88.7677 180.656 80.8267 182.968 72.7323L188.225 54.3347C189.306 50.8328 190.47 48.0381 191.673 45.8728L191.736 45.7589L191.794 45.6423C192.551 44.1282 193.171 42.8155 193.614 41.7511C193.834 41.2233 194.047 40.6705 194.215 40.1344C194.264 39.9772 194.342 39.7233 194.417 39.4013C194.824 38.3319 195.064 37.1658 195.064 35.9277C195.064 32.483 193.638 29.3713 191.75 26.7274L191.709 26.6707L191.667 26.6148C189.368 23.5488 185.862 20.4914 181.566 17.4223L181.458 17.3458L172.586 11.5784C170.273 10.0431 166.716 8.39854 162.328 6.64213C158.75 5.15366 155.178 4 152.15 4C151.101 4 149.701 4.18431 148.336 4.90571C145.766 5.68608 142.671 7.19358 141.071 10.3929C140.244 12.0466 139.998 13.7666 139.998 15.2734C139.998 17.7155 140.676 20.3188 141.609 22.8529C142.647 26.5364 143.448 30.676 143.992 35.291L145.271 46.8069V50.8691C145.271 55.0384 144.992 60.8687 144.41 68.4265L144.406 68.4854L144.402 68.5444C143.822 78.7039 143.243 87.0954 142.668 93.7338L140.509 110.576C139.636 115.188 137.481 124.961 134.004 140.026L133.999 140.047L130.517 154.672C104.9 159.29 79.2291 160.521 52.6543 160.521C50.3405 160.521 48.367 160.398 46.709 160.175C42.9712 159.321 39.7101 158.764 37.2734 158.764C33.8093 158.764 30.3298 160.061 28.1049 163.297C26.6821 164.985 26 167.043 26 169.158C26 172.149 27.3854 174.679 28.8531 176.582C30.6817 179.421 33.8747 183.179 38.0992 187.689C42.0868 192.242 45.4935 195.765 48.0077 197.442C50.628 199.188 53.5863 200.205 56.7441 200.6L57.1147 200.646H57.4883C69.0744 200.646 82.5246 197.951 95.4644 194.855C100.337 193.689 105.108 192.475 109.737 191.297L109.741 191.296ZM225.26 292.297L225.259 292.295ZM154.529 182.638L230.882 170.892C230.258 174.926 229.098 180.038 227.349 186.285C225.4 193.246 222.593 200.704 218.896 208.667C217.765 211.103 216.647 213.575 215.526 216.054L215.525 216.055C211.522 224.907 207.482 233.841 202.688 241.483L144.748 216.012C144.034 215.587 143.839 215.307 143.799 215.246L143.798 215.243C143.778 215.214 143.648 215.021 143.648 214.346C143.648 212.988 144.122 210.265 145.512 205.782L154.529 182.638Z" fill="black"/>
</svg>
