<svg width="350" height="350" viewBox="0 0 350 350" fill="none" xmlns="http://www.w3.org/2000/svg">
<path d="M69.3213 241.578L78.4522 332.566C99.2041 364.5 107.505 345.5 112.485 325.926L105.845 238.258L219.003 220.637L213.192 308.305C213.192 344.828 240.126 334.867 249.716 301.664L262.997 213.166L416.384 196.564C420.811 196.011 423.578 194.351 424.685 191.584C425.238 191.031 425.515 190.201 425.515 189.094C425.515 168.966 391.1 156.682 375.71 156.682C370.73 156.682 280.429 168.342 268.808 171.662L279.599 113.027C281.812 101.96 283.472 95.5957 284.579 93.9355L289.56 83.9746C291.22 80.1009 292.05 76.5039 292.05 73.1836C292.05 72.0768 291.773 70.9701 291.22 69.8633C290.113 66.543 287.346 62.6693 282.919 58.2422C278.492 53.8151 272.958 49.9414 266.317 46.6211C259.677 43.3008 253.59 40.8105 248.056 39.1504C242.522 37.4902 236.711 36.1068 230.624 35C226.75 35 223.707 35.8301 221.493 37.4902C219.28 39.1504 218.173 41.0872 218.173 43.3008C218.726 45.5143 219.556 48.0046 220.663 50.7715C221.77 53.5384 222.6 58.2422 223.153 64.8828L226.474 79.8242V99.7461L221.493 179.453L104.185 203.715L102.524 147.23C102.524 133.949 103.355 124.542 105.015 119.008C106.675 113.474 107.505 109.324 107.505 106.557C107.505 104.343 104.738 101.576 99.2041 98.2559C94.2237 94.3822 88.6898 91.6152 82.6026 89.9551C76.5154 88.2949 69.0446 86.6348 60.1905 84.9746H56.8702C54.6566 84.9746 52.7198 85.2513 51.0596 85.8047C47.7393 86.9115 46.0791 88.5716 46.0791 90.7852C46.0791 92.9987 46.9092 95.7656 48.5694 99.0859C50.2295 102.406 51.8897 106.28 53.5499 110.707C55.21 115.688 56.5935 122.051 57.7002 129.799L66.001 210.035L-11.9209 225.355L-42.1435 223.336L-67.2548 221.166C-69.4198 221.599 -73.0557 222 -74.5557 225.5C-76.0557 229 -73.5556 242.578 -70.0849 246.447C-64.207 253 -53.9736 263.471 -45.6728 264.578C-38.6674 265.746 -15.5599 257.634 -8.60055 255.238L69.3213 241.578Z" fill="black"/>
</svg>
