<svg width="350" height="350" viewBox="0 0 350 350" fill="none" xmlns="http://www.w3.org/2000/svg">
<path d="M-15 310.631C-15 313.547 -13.3521 316.214 -11.4622 318.435C-9.13909 321.404 -5.95074 324.395 -2.01306 327.424L-1.95687 327.468L-1.89917 327.509C2.36286 330.553 7.05768 333.428 12.1773 336.139L12.2662 336.186L12.3573 336.228C16.9775 338.384 21.2591 339.68 25.0352 339.68H25.9141C27.3232 339.68 29.0102 339.35 30.769 338.891C32.6021 338.413 34.8047 337.714 37.3528 336.815L37.3895 336.802L37.426 336.788C41.8553 335.127 47.048 333.717 53.0297 332.578L53.0477 332.574L53.0657 332.571C58.8533 331.413 64.0282 330.552 68.5977 329.981L68.6976 329.968L68.7967 329.951C73.6651 329.092 84.1132 327.639 100.247 325.585L100.288 325.58L100.328 325.574C116.113 323.236 126.848 321.786 132.611 321.208L202.893 315.937L202.912 315.935C220.159 314.473 235.338 313.452 248.455 312.869L248.502 312.867L248.549 312.864C261.339 311.992 275.017 311.555 289.586 311.555H289.681L289.776 311.55C295.875 311.26 301.524 311.115 306.725 311.115C311.926 311.115 316.67 311.26 320.96 311.546L321.093 311.555H321.227C330.521 311.555 338.913 311.845 346.408 312.422L346.484 312.428L358.064 312.873H363.854C367.11 312.873 369.79 312.732 371.669 312.356L372.078 312.274L372.46 312.11C375.105 310.977 377.254 309.192 378.629 306.702C379.499 305.52 379.719 304.183 379.719 303.16C379.719 301.493 379.095 299.869 378.418 298.515C377.698 297.076 376.686 295.492 375.448 293.79C372.236 289.296 368.357 285.574 363.819 282.657C359.518 279.892 354.646 277.308 349.218 274.896L349.149 274.865L349.079 274.837C343.167 272.472 338.161 271.035 334.41 271.035C333.849 271.035 333.232 271.144 332.871 271.21C332.395 271.296 331.807 271.418 331.125 271.57C329.779 271.869 327.947 272.309 325.646 272.883C321.106 273.731 316.27 274.442 311.135 275.013L311.117 275.015L294.058 276.764L294.012 276.769L279.581 278.081L279.556 278.083L248.38 280.717L182.079 286.071L185.369 158.984L196.246 159.943H200.816C204.433 159.943 208.907 159.793 214.222 159.498L214.422 159.487L237 155.945L262.068 152.427L280.53 149.35C283.719 148.892 286.47 148.299 288.697 147.528C290.834 146.789 292.984 145.721 294.417 144.002C295.982 142.124 297.343 140.09 297.861 138.017L297.98 137.539V137.047C297.98 133.666 296.029 130.93 293.62 128.834C290.932 126.206 286.351 123.798 280.525 121.468L280.443 121.435L280.36 121.406C274.493 119.353 269.867 118.038 266.737 117.69L266.516 117.666H266.295C263.759 117.666 260.606 118.196 256.975 119.104L256.934 119.114L256.893 119.125C253.623 120.017 248.019 121.64 240.11 123.983L240.066 123.996L240.022 124.01C231.873 126.629 225.614 128.328 221.173 129.16L221.137 129.167L185.655 136.495L186.797 103.768L186.798 103.748C187.073 92.7331 187.221 86.3038 187.237 84.573L188.958 70.8023C190.12 63.2501 190.981 58.0914 191.546 55.2579C192.031 53.0998 193.032 50.5408 194.66 47.556L194.694 47.4933L194.726 47.4295C196.438 44.0052 197.686 41.2568 198.105 39.5795L198.225 39.1018V38.6094C198.225 35.7878 197.073 32.9836 195.419 30.337C194.222 28.4213 192.168 26.7182 189.852 25.1738C187.439 23.5654 184.326 21.8626 180.575 20.0619L180.547 20.0488L180.52 20.0361C172.91 16.5238 167.548 14.1384 164.509 12.9228L164.344 12.8566L164.173 12.8054C161.006 11.8553 156.713 10.9439 151.376 10.0544L151.05 10H148.521C147.01 10 145.56 10.123 144.255 10.449C142.976 10.769 141.555 11.355 140.42 12.4899C138.526 14.3836 137.93 16.899 137.93 19.2734C137.93 21.3997 138.273 23.4753 139.167 25.3263L142.664 33.6323L142.692 33.6938C144.243 37.0536 145.321 41.0272 145.867 45.6685C146.445 50.5815 147.025 56.2267 147.606 62.6077C147.896 69.3083 148.188 76.8818 148.479 85.3293L148.479 85.3342C148.77 93.4899 148.916 101.349 148.916 108.912V108.922L148.054 289.432L37.7708 300.503L37.7226 300.509C35.5578 300.78 31.314 301.068 24.8535 301.362C18.0762 301.656 11.5836 302.098 5.37655 302.688L-7.6343 303.556C-9.01704 303.576 -10.4762 303.884 -11.8016 304.712C-13.2072 305.59 -14.152 306.862 -14.7139 308.266L-15 308.982V310.631Z" fill="black"/>
</svg>
