<svg width="350" height="350" viewBox="0 0 350 350" fill="none" xmlns="http://www.w3.org/2000/svg">
<path d="M281.608 -7.97656L282.059 -7.91428C283.589 -7.7029 285.036 -7.05785 286.166 -6.46892C287.399 -5.82654 288.757 -4.97961 290.21 -3.98415L290.425 -3.83641L290.626 -3.6689C292.975 -1.7069 296.518 1.73081 301.148 6.4792C306.062 11.1856 309.814 15.8352 312.042 20.4371C313.041 22.5029 313.84 24.4516 314.356 26.2397C314.849 27.9495 315.212 29.9337 314.94 31.9025L314.587 34.4543L303.602 41.3031L295.186 46.2458C285.781 57.3937 274.379 67.457 263.427 77.1234L263.426 77.1241L263.424 77.1261C258.582 81.399 253.829 85.5945 249.374 89.7718C239.452 99.1159 229.441 108.007 219.339 116.443C217.59 117.96 215.76 119.503 213.849 121.072C214.867 121.363 215.936 121.676 217.053 122.011L217.101 122.026L231.263 126.557L231.866 129.785C232.492 133.139 231.759 136.99 231.08 140.066C230.791 141.377 230.493 142.619 230.199 143.842C229.729 145.799 229.271 147.706 228.883 149.758V312.729C228.883 314.932 228.916 317.138 228.95 319.351C229.143 332.114 229.341 345.121 223.151 359.312L222.777 360.17L222.14 360.856C220.126 363.024 218.213 364.84 216.428 366.155C214.861 367.31 212.501 368.766 209.76 368.766H209.32C204.643 368.766 201.014 366.065 198.387 362.687L198.264 362.529L198.152 362.361C196.173 359.393 193.988 355.302 191.6 350.227L191.519 350.055L191.45 349.878C189.405 344.619 188 339.943 188 336.459C188 335.053 188.38 333.462 188.75 332.13C189.166 330.633 189.763 328.811 190.518 326.699L190.54 326.636L190.564 326.574C191.975 322.906 192.899 319.961 193.404 317.688L193.42 317.617L193.438 317.547C193.928 315.584 194.467 312.443 195.031 307.989V292.417L198.986 180.358C198.982 178.131 198.842 173.886 198.553 167.519L198.547 167.394V167.27C198.547 160.652 198.257 155.523 197.723 151.788L197.72 151.762L197.716 151.737C197.216 147.984 196.098 144.522 194.37 141.313L194.331 141.239L194.294 141.165C193.594 139.766 192.985 138.483 192.479 137.329C189.508 139.449 186.419 141.608 183.21 143.805L183.182 143.825L183.153 143.844C168.625 153.529 154.577 161.528 141.009 167.818C127.592 174.038 115.33 178.968 104.234 182.582L104.173 182.602L104.112 182.62C93.4674 185.814 85.6434 187.844 80.9362 188.534L72.7033 190.198C71.2504 190.803 69.8086 190.806 68.7519 190.66C64.8867 190.126 63.0798 187.064 62.3587 184.933L61.9424 183.704L62.2403 181.547C62.6762 178.391 64.9662 176.292 66.5304 175.108L66.9329 174.803L75.0637 170.724L90.3503 163.462L90.3909 163.443C99.5313 159.281 111.317 152.662 125.806 143.497C140.295 134.332 153.569 125.31 165.632 116.432C177.67 107.573 189.865 97.6958 202.217 86.7968C214.606 75.8651 224.689 66.2994 232.5 58.0887C240.296 49.8942 247.041 41.741 252.754 33.6318C258.517 25.451 262.461 19.3573 264.703 15.2533C266.732 10.5481 268.212 6.68204 269.181 3.61941C269.634 1.53176 270.199 -0.404328 270.952 -2.00326C271.541 -3.25463 272.734 -5.37448 275.027 -6.49924C277.063 -7.71105 279.481 -7.91722 281.153 -7.96387L281.608 -7.97656Z" fill="black"/>
</svg>
