<svg width="350" height="350" viewBox="0 0 350 350" fill="none" xmlns="http://www.w3.org/2000/svg">
<path d="M43.9512 124.432L8.82927 179.507C4.92683 184.975 2.97561 189.272 2.97561 192.396V193.568C2.97561 195.912 5.90244 197.865 11.7561 199.427L36.1463 207.63C53.0569 214.661 65.0894 223.254 72.2439 233.41C77.4472 242.003 80.0488 251.768 80.0488 262.705V269.736C79.3984 282.235 75.8211 289.656 69.3171 292H66.3902C60.5366 292 51.7561 285.36 40.0488 272.079C32.8943 263.486 24.439 255.283 14.6829 247.471L-10.6829 227.551C-11.9837 227.551 -16.5366 224.035 -24.3415 217.004C-32.7967 210.755 -37.3496 206.068 -38 202.943V200.599C-38 196.693 -36.0488 191.615 -32.1463 185.366L-20.439 166.617C-17.8374 161.93 -13.2846 150.993 -6.78049 133.806C-0.276422 116.62 3.95122 104.12 5.90244 96.3084C7.85366 88.4963 9.47967 81.4655 10.7805 75.2159C12.0813 67.4038 12.7317 60.373 12.7317 54.1233C12.7317 47.8737 13.3821 43.9677 14.6829 42.4053C15.9837 40.8429 18.5854 40.0617 22.4878 40.0617C27.6911 40.8429 32.8943 42.4053 38.0976 44.7489C43.3008 47.0925 48.8293 50.2173 54.6829 54.1233C61.187 58.8106 67.0407 64.279 72.2439 70.5286C76.7967 75.9971 79.0732 80.6843 79.0732 84.5903V85.7621C79.0732 88.1057 78.4228 90.0587 77.1219 91.6211C75.8211 93.1835 73.2195 95.1366 69.3171 97.4802C65.4146 99.8238 60.8618 104.12 55.6585 110.37C50.4553 115.838 46.5528 120.526 43.9512 124.432ZM181.512 110.37L145.415 164.273C141.512 171.304 139.561 175.991 139.561 178.335V179.507C140.211 181.85 143.138 183.803 148.341 185.366L173.707 193.568C190.618 200.599 202.325 209.192 208.829 219.348C214.683 227.941 217.61 237.706 217.61 248.643V254.502C216.309 267.783 212.732 275.595 206.878 277.938H203.951C198.098 277.938 189.317 271.298 177.61 258.018C169.154 248.643 160.699 240.05 152.244 232.238L125.902 213.489L107.366 198.256C102.813 194.349 99.8862 190.834 98.5854 187.709V185.366C98.5854 182.241 100.537 177.554 104.439 171.304L117.122 152.555C119.724 147.087 123.951 136.15 129.805 119.744C136.309 104.12 140.537 92.0117 142.488 83.4185C145.089 74.8253 147.041 67.0132 148.341 59.9824C149.642 52.9515 150.293 45.9207 150.293 38.8899V34.2026C150.293 31.0778 150.618 29.1248 151.268 28.3436C152.569 26.7812 155.171 26 159.073 26C164.276 26.7812 169.48 28.3436 174.683 30.6872C179.886 32.2496 185.74 35.3744 192.244 40.0617C197.447 43.9677 202.976 49.0455 208.829 55.2952C214.033 61.5448 216.634 66.232 216.634 69.3568V70.5286C215.984 73.6534 215.008 75.9971 213.707 77.5595L205.902 82.2467C202 85.3715 197.772 89.6681 193.22 95.1366C188.667 100.605 184.764 105.683 181.512 110.37ZM322.976 110.37L291.756 152.555C286.553 158.805 283.951 163.492 283.951 166.617C285.252 168.179 288.504 169.742 293.707 171.304L319.073 180.678C335.984 186.928 347.691 195.131 354.195 205.286C359.398 213.88 362 223.645 362 234.581V241.612C361.35 254.893 358.098 262.705 352.244 265.048H350.293C343.789 265.048 334.683 258.018 322.976 243.956C314.52 234.581 306.065 226.379 297.61 219.348L271.268 199.427C270.618 199.427 266.065 196.302 257.61 190.053C249.154 183.022 244.602 177.944 243.951 174.819V172.476C243.951 169.351 245.902 164.273 249.805 157.242L262.488 138.493L274.195 110.37L283.951 85.7621C286.553 76.3877 288.504 68.185 289.805 61.1542C290.455 55.6858 290.78 50.9985 290.78 47.0925V40.0617C290.78 33.0308 291.431 29.1248 292.732 28.3436C294.683 26.7812 297.285 26 300.537 26C305.74 26 310.943 27.5624 316.146 30.6872C320.699 32.2496 326.228 35.3744 332.732 40.0617C339.236 44.7489 345.089 49.8267 350.293 55.2952C355.496 61.5448 358.098 66.6226 358.098 70.5286L355.171 77.5595C353.87 79.1219 350.943 81.0749 346.39 83.4185C342.488 85.7621 338.585 89.2775 334.683 93.9648L322.976 110.37Z" fill="black"/>
</svg>
