<svg width="350" height="350" viewBox="0 0 350 350" fill="none" xmlns="http://www.w3.org/2000/svg">
<path d="M-85.6787 241.578L-76.5478 332.566C-55.7959 364.5 -47.4951 345.5 -42.5146 325.926L-49.1552 238.258L64.003 220.637L58.1924 308.305C58.1924 344.828 85.126 334.867 94.7159 301.664L107.997 213.166L261.384 196.564C265.811 196.011 268.578 194.351 269.685 191.584C270.238 191.031 270.515 190.201 270.515 189.094C270.515 168.966 236.1 156.682 220.71 156.682C215.73 156.682 125.429 168.342 113.808 171.662L124.599 113.027C126.812 101.96 128.472 95.5957 129.579 93.9355L134.56 83.9746C136.22 80.1009 137.05 76.5039 137.05 73.1836C137.05 72.0768 136.773 70.9701 136.22 69.8633C135.113 66.543 132.346 62.6693 127.919 58.2422C123.492 53.8151 117.958 49.9414 111.317 46.6211C104.677 43.3008 98.5896 40.8105 93.0557 39.1504C87.5219 37.4902 81.7113 36.1068 75.6241 35C71.7504 35 68.7068 35.8301 66.4932 37.4902C64.2797 39.1504 63.1729 41.0872 63.1729 43.3008C63.7263 45.5143 64.5564 48.0046 65.6631 50.7715C66.7699 53.5384 67.6 58.2422 68.1534 64.8828L71.4737 79.8242V99.7461L66.4932 179.453L-50.8154 203.715L-52.4755 147.23C-52.4755 133.949 -51.6455 124.542 -49.9853 119.008C-48.3251 113.474 -47.4951 109.324 -47.4951 106.557C-47.4951 104.343 -50.262 101.576 -55.7959 98.2559C-60.7763 94.3822 -66.3102 91.6152 -72.3974 89.9551C-78.4846 88.2949 -85.9554 86.6348 -94.8095 84.9746H-98.1298C-100.343 84.9746 -102.28 85.2513 -103.94 85.8047C-107.261 86.9115 -108.921 88.5716 -108.921 90.7852C-108.921 92.9987 -108.091 95.7656 -106.431 99.0859C-104.77 102.406 -103.11 106.28 -101.45 110.707C-99.79 115.688 -98.4065 122.051 -97.2998 129.799L-88.999 210.035L-166.921 225.355L-197.144 223.336L-222.255 221.166C-224.42 221.599 -228.056 222 -229.556 225.5C-231.056 229 -228.556 242.578 -225.085 246.447C-219.207 253 -208.974 263.471 -200.673 264.578C-193.667 265.746 -170.56 257.634 -163.601 255.238L-85.6787 241.578Z" fill="black"/>
</svg>
