<svg width="350" height="350" viewBox="0 0 350 350" fill="none" xmlns="http://www.w3.org/2000/svg">
<path d="M172.807 37.1335L172.813 37.1638L172.82 37.194C173.861 41.6171 174.445 48.1983 174.445 57.1426V103.674L173.569 146.631C173.281 153.231 172.851 159.384 172.282 165.095L170.104 180.78L170.101 180.8C168.633 190.784 167.854 198.407 167.854 203.48V203.637L167.863 203.792C168.18 208.867 169.125 214.32 170.655 220.134C172.25 226.194 174.708 231.418 178.177 235.608C179.688 237.568 181.109 239.22 182.415 240.433C183.075 241.046 183.825 241.659 184.647 242.145C185.404 242.592 186.663 243.197 188.234 243.197H188.674C191.382 243.197 193.505 241.759 194.933 240.433C196.398 239.072 197.748 237.262 199.013 235.22C201.901 231.026 204.264 226.26 206.133 220.965L206.233 220.68L206.299 220.385C207.491 215.022 208.396 210.205 209.004 205.945L209.055 205.594V99.8858L210.812 62.0928V61.9766C210.812 54.5544 211.391 49.2554 212.365 45.8187C213.468 42.241 214.695 38.9711 216.041 36.0003C217.306 33.4534 218.283 30.7419 218.283 28.1387V26.7647L218.186 26.2792C217.825 24.4724 216.875 22.9155 215.928 21.6844C214.938 20.3969 213.666 19.1032 212.21 17.8098C208.968 14.9274 204.849 12.7483 200.064 11.1377C195.423 9.29111 190.372 7.76915 184.924 6.55852L184.794 6.52949L184.662 6.50748C182.688 6.17857 180.798 6 179.006 6C176.888 6 174.447 6.319 172.388 7.64618C170.112 9.03511 168.345 11.0059 167.332 13.5376L166.975 14.4316V16.2734C166.975 17.5309 167.262 18.8853 167.583 20.0886C167.928 21.381 168.42 22.8862 169.033 24.5739L169.073 24.6821L169.117 24.7883C170.433 27.9466 171.674 32.0384 172.807 37.1335Z" fill="black"/>
<path fill-rule="evenodd" clip-rule="evenodd" d="M305.62 152.553L272.849 112.354L272.544 112.051C272.274 111.782 271.904 111.414 271.456 110.964C270.56 110.064 269.348 108.836 267.972 107.409C265.236 104.571 261.795 100.886 258.902 97.4079C257.459 95.6729 256.093 93.9194 255.005 92.3024C254.015 90.8305 252.9 88.9657 252.454 87.1176C252.234 86.2081 251.977 84.5161 252.785 82.7467C253.749 80.6361 255.617 79.6629 257.193 79.3625C258.57 79.1002 259.896 79.287 260.897 79.5091C261.888 79.7288 262.949 80.075 264.062 80.5088C269.625 81.9774 275.744 83.728 282.415 85.7583C289.498 87.9141 298.69 91.6962 309.906 97.0093L309.954 97.0321L310.002 97.0559C321.327 102.719 330.366 108.35 336.947 113.991L336.998 114.035L337.048 114.08C343.447 119.87 348.291 125.592 351.296 131.269L351.351 131.373L351.401 131.479C354.024 137.053 355.499 142.961 355.825 149.166L355.832 149.297V149.428C355.832 155.261 355.23 160.316 353.773 164.321L353.714 164.484L353.643 164.643C352.346 167.561 350.684 170.195 348.454 172.056C345.84 174.552 342.46 175.522 338.967 175.522H338.527C334.421 175.522 329.775 173.403 325.045 170.463C318.641 167.046 312.183 160.9 305.62 152.553Z" fill="black"/>
<path d="M29.3307 397.445L35.7317 396.987L35.8022 396.98C47.9052 395.77 61.3963 392.911 76.2485 388.458C91.1455 384.284 106.593 378.635 122.589 371.525C138.587 364.415 154.715 356.128 170.973 346.669L171.003 346.652L171.031 346.634C187.39 336.819 202.711 325.664 216.992 313.171C231.175 301.054 242.67 289.581 251.406 278.746C260.282 268.387 268.287 258.01 275.415 247.616L275.461 247.549L275.505 247.48C278.86 242.229 281.57 238.11 283.645 235.105C285.814 231.964 287.067 230.371 287.571 229.867L287.688 229.749L294.104 222.417L299.71 214.655C300.926 213.469 302.228 212.393 303.654 211.215C303.868 211.038 304.085 210.858 304.305 210.676C305.982 209.286 307.93 207.639 309.477 205.74C311.089 203.762 312.479 201.259 312.746 198.11C313.007 195.022 312.136 191.942 310.433 188.846C308.323 184.637 306.221 181.177 304.091 178.693L303.966 178.547L303.83 178.411C301.643 176.223 298.452 173.342 294.32 169.801L294.239 169.731L294.156 169.665C289.889 166.313 285.943 163.789 282.376 162.363L282.326 162.343L282.275 162.323C279.586 161.315 276.832 160.736 274.218 161.203C271.285 161.727 269.17 163.445 267.879 165.681C266.729 167.67 266.295 169.942 266.087 171.858C265.873 173.836 265.852 175.991 265.852 177.991C265.852 181.286 265.021 185.342 263.115 190.242C261.167 195.252 258.194 201.499 254.145 209.019C250.142 216.453 244.963 224.948 238.586 234.514C232.364 243.56 223.504 254.012 211.923 265.884C200.338 277.467 188.473 288.175 176.327 298.008C164.121 307.598 152.371 316.155 141.076 323.685C129.811 331.195 118.409 337.979 106.872 344.039L66.5367 363.768L66.5199 363.776C51.2711 371.107 41.5355 375.537 37.0886 377.207L27.3117 380.762L27.1827 380.818C24.972 381.765 22.9751 382.81 21.449 384.009C20.1151 385.057 18 387.119 18 390.247V391.302L18.1493 391.899C18.6823 394.032 20.0961 395.594 21.8626 396.477C23.426 397.259 25.109 397.445 26.5156 397.445H29.3307Z" fill="black"/>
<path fill-rule="evenodd" clip-rule="evenodd" d="M40.4293 200.078L40.3791 200.132L40.3304 200.188C37.8286 203.047 35.3881 205.982 33.451 208.611C31.6783 211.017 29.8079 213.837 29.1485 216.286C28.8697 217.321 28.2544 220.332 30.602 222.682C32.7999 224.883 35.7025 224.526 36.8524 224.321C39.6447 223.823 43.475 222.02 48.277 219.279C56.1615 215.029 63.8642 209.887 71.3867 203.869C78.8375 197.909 86.2746 191.363 93.6985 184.236L93.7707 184.167L93.84 184.094C101.272 176.365 107.304 169.291 111.883 162.881L111.897 162.861L124.2 145.285C125.298 143.753 127.256 141.739 130.316 139.235C132.062 137.806 133.574 136.399 134.774 135.014C135.938 133.671 137.022 132.108 137.606 130.355L137.863 129.585V128.773C137.863 127.28 137.428 125.836 136.98 124.671C136.501 123.425 135.834 122.068 135.036 120.632C133.355 117.606 131.32 114.886 128.928 112.494L128.81 112.376L128.685 112.266C125.994 109.912 122.029 107.244 116.989 104.277C113.802 102.307 110.902 100.746 108.319 99.663C105.797 98.6052 103.215 97.8457 100.783 97.8457H99.6545L99.4063 97.8705C96.1255 98.1986 92.6319 99.0915 90.216 101.507C89.3725 102.351 88.8608 103.324 88.5432 104.046C88.2015 104.822 87.9312 105.668 87.7076 106.517C87.2609 108.215 86.8983 110.329 86.5929 112.772L86.5542 113.081V113.393C86.5542 116.873 85.3482 122.344 82.471 130.113L82.4523 130.163L82.4348 130.214C79.9077 137.515 76.6742 144.841 72.7242 152.193L56.1501 178.798C49.1509 189.294 43.9346 196.303 40.4293 200.078Z" fill="black"/>
</svg>
