<svg width="350" height="350" viewBox="0 0 350 350" fill="none" xmlns="http://www.w3.org/2000/svg">
<path d="M281.611 -7.97656L282.062 -7.91428C283.592 -7.7029 285.039 -7.05785 286.169 -6.46892C287.402 -5.82654 288.76 -4.97961 290.213 -3.98415L290.428 -3.83641L290.629 -3.6689C292.978 -1.7069 296.521 1.73081 301.151 6.4792C306.064 11.1856 309.817 15.8352 312.045 20.4371C313.044 22.5029 313.843 24.4516 314.359 26.2397C314.852 27.9495 315.214 29.9337 314.942 31.9025L314.59 34.4543L303.605 41.3031L295.189 46.2458C285.784 57.3937 274.382 67.457 263.43 77.1234L263.429 77.1241L263.427 77.1261C258.585 81.399 253.832 85.5945 249.377 89.7718C239.455 99.1159 229.444 108.007 219.342 116.443C217.593 117.96 215.763 119.503 213.852 121.072C214.87 121.363 215.939 121.676 217.056 122.011L217.104 122.026L231.266 126.557L231.868 129.785C232.495 133.139 231.762 136.99 231.083 140.066C230.794 141.377 230.496 142.619 230.202 143.842C229.732 145.799 229.274 147.706 228.886 149.758V312.729C228.886 314.932 228.919 317.138 228.953 319.351C229.146 332.114 229.343 345.121 223.154 359.312L222.779 360.17L222.143 360.856C220.129 363.024 218.216 364.84 216.431 366.155C214.863 367.31 212.504 368.766 209.763 368.766H209.323C204.646 368.766 201.017 366.065 198.39 362.687L198.267 362.529L198.155 362.361C196.176 359.393 193.991 355.302 191.603 350.227L191.522 350.055L191.453 349.878C189.408 344.619 188.003 339.943 188.003 336.459C188.003 335.053 188.383 333.462 188.753 332.13C189.169 330.633 189.766 328.811 190.521 326.699L190.543 326.636L190.567 326.574C191.978 322.906 192.902 319.961 193.407 317.688L193.423 317.617L193.441 317.547C193.931 315.584 194.47 312.443 195.034 307.989V292.417L198.989 180.358C198.985 178.131 198.845 173.886 198.555 167.519L198.55 167.394V167.27C198.55 160.652 198.26 155.523 197.726 151.788L197.723 151.762L197.719 151.737C197.219 147.984 196.101 144.522 194.373 141.313L194.334 141.239L194.296 141.165C193.597 139.766 192.988 138.483 192.482 137.329C189.511 139.449 186.422 141.608 183.213 143.805L183.185 143.825L183.156 143.844C168.628 153.529 154.58 161.528 141.012 167.818C127.595 174.038 115.333 178.968 104.237 182.582L104.176 182.602L104.115 182.62C93.4704 185.814 85.6463 187.844 80.9391 188.534L72.7062 190.198C71.2533 190.803 69.8116 190.806 68.7548 190.66C64.8896 190.126 63.0828 187.064 62.3616 184.933L61.9453 183.704L62.2432 181.547C62.6791 178.391 64.9692 176.292 66.5333 175.108L66.9358 174.803L75.0666 170.724L90.3533 163.462L90.3938 163.443C99.5343 159.281 111.32 152.662 125.809 143.497C140.298 134.332 153.571 125.31 165.635 116.432C177.673 107.573 189.868 97.6958 202.22 86.7968C214.609 75.8651 224.692 66.2994 232.503 58.0887C240.298 49.8942 247.044 41.741 252.757 33.6318C258.52 25.451 262.463 19.3573 264.706 15.2533C266.735 10.5481 268.215 6.68204 269.184 3.61941C269.637 1.53176 270.202 -0.404328 270.955 -2.00326C271.544 -3.25463 272.737 -5.37448 275.03 -6.49924C277.066 -7.71105 279.484 -7.91722 281.156 -7.96387L281.611 -7.97656Z" fill="black"/>
</svg>
