<svg width="350" height="350" viewBox="0 0 350 350" fill="none" xmlns="http://www.w3.org/2000/svg">
<path fill-rule="evenodd" clip-rule="evenodd" d="M186.897 1.75614L186.859 1.77436L186.821 1.79339C180.756 4.82577 171.055 8.14432 157.513 11.7079C144.157 15.2227 135.034 17.723 130.217 19.1945C125.854 19.933 117.274 21.6492 104.557 24.3217L87.5823 18.3305C83.8243 16.4772 80.2139 15.3359 76.8906 15.3359C74.4699 15.3359 72.3264 16.2364 70.6012 17.8315C68.01 19.6466 65.9082 22.2624 65.9082 25.7812V27.3926C65.9082 30.9519 67.5876 35.2702 70.116 39.9752C72.2768 44.3214 73.6276 50.1498 73.9688 57.6487C74.324 65.8197 74.5012 73.2651 74.502 79.988L71.2793 235.75V235.791C71.2793 247.91 70.9219 257.427 70.2249 264.397C69.5123 271.524 68.8025 277.551 68.0968 282.491L68.0942 282.509L68.0917 282.528C67.3888 287.8 66.7107 291.472 66.0854 293.692C65.4309 295.642 64.4334 298.144 63.0664 301.224C62.3325 302.697 61.7372 304.027 61.315 305.188C61.0245 305.987 60.7412 306.901 60.6111 307.829C60.2218 308.818 60 309.877 60 310.986C60 313.478 60.7201 316.136 61.8686 318.852C63.0054 322.234 64.6639 326.267 66.8135 330.924L66.8937 331.098L66.9902 331.264C69.578 335.7 72.1852 339.217 74.867 341.452L74.9815 341.547L75.1028 341.634C77.8514 343.597 80.838 345.064 83.873 345.064C87.0984 345.064 89.8462 343.434 92.0726 341.207C93.6283 339.652 96.5801 336.324 100.83 331.367L118.988 311.607L132.846 297.748L166.05 266.686C167.574 265.349 168.873 264.023 169.823 262.716C170.723 261.479 171.662 259.784 171.662 257.812C171.662 256.661 171.411 255.21 170.458 253.951C169.38 252.036 167.468 250.053 164.439 250.053C162.47 250.053 160.672 250.706 159.099 251.732L117.338 276.361L117.313 276.375C112.412 279.175 108.726 281.004 106.173 281.97C105.736 282.113 105.414 282.191 105.192 282.233C105.118 281.93 105.061 281.504 105.061 280.908V262.734L109.206 168.415L183.623 158.493L186.585 164.417C187.721 167.086 189.41 169.338 191.762 170.906C194.153 172.5 196.933 173.189 199.889 173.189C203.883 173.189 207.389 171.643 210.237 168.795C212.783 166.249 214.834 163.135 216.435 159.535C218.062 155.872 219.557 150.135 220.992 142.614L238.161 66.9639L238.163 66.9575C239.186 62.5232 240.552 57.8968 242.267 53.0766C244.319 48.649 246.712 44.2084 249.449 39.7548C250.921 37.5436 252.097 35.5476 252.922 33.7955C253.706 32.1289 254.377 30.2662 254.377 28.4668C254.377 23.6332 251.478 19.0767 247.297 14.8962L247.23 14.8289L247.159 14.7648C242.901 10.8939 237.748 7.47519 231.756 4.47893C225.905 1.55336 220.519 -0.684769 215.611 -2.1982C212.132 -3.35413 208.843 -4 205.797 -4C204.257 -4 202.76 -3.832 201.352 -3.43575C199.669 -3.30733 197.711 -2.73684 195.714 -2.01794C193.306 -1.15101 190.357 0.117334 186.897 1.75614ZM170.348 129.74H169.909L145.381 135.191L109.525 141.796L110.8 104.376L115.283 105.431L115.384 105.449C119.593 106.214 124.133 106.588 128.99 106.588H129.19L129.388 106.568C133.272 106.18 138.877 105.045 146.074 103.246L146.164 103.223L146.253 103.197C153.35 101.068 158.894 99.6897 162.949 99.0139L163.079 98.9922L193.881 91.7447L187.03 132.849L182.798 131.527L182.776 131.52C178.803 130.328 174.655 129.74 170.348 129.74ZM135.968 75.6403C128.613 77.6997 120.765 79.761 112.424 81.8239L115.034 45.2795L144.758 39.9194L144.778 39.9157C159.89 37.0371 171.905 34.1335 180.743 31.1873L180.874 31.1437L181.002 31.0913C186.942 28.6451 191.193 27.6328 193.98 27.6328C194.713 27.6328 195.175 27.8044 195.521 28.0352L195.57 28.0679L195.62 28.099C197.955 29.5582 198.917 30.8317 199.269 31.7473C199.486 32.7225 199.648 34.43 199.648 37.0605V41.7045L196.927 70.2804L189.246 67.6088L189.103 67.5706C183.522 66.0823 178.504 65.2871 174.107 65.2871H173.858L173.611 65.318C170.332 65.7279 165.378 67.0883 158.972 69.2206L135.968 75.6403Z" fill="black"/>
<path d="M233.286 246.981L212.574 233.604L237.55 217.102L250.027 208.784L260.532 205.107L260.76 204.994C263.561 203.593 265.818 201.513 266.981 198.605L267.268 197.889V195.508C267.268 193.887 266.8 192.225 266.176 190.665C265.533 189.059 264.615 187.294 263.475 185.393L263.336 185.162L263.168 184.952C260.096 181.112 255.959 176.993 250.832 172.598C245.774 168.263 241.528 165.127 238.201 163.463L238.052 163.389L237.898 163.327C235.789 162.484 233.662 161.967 231.578 161.967C230.32 161.967 228.705 162.266 227.374 163.453C224.945 165.388 223.449 168.759 222.376 172.337C221.383 175.646 219.868 179.368 217.795 183.514L217.668 183.768L217.578 184.038C216.257 188.001 213.882 193.128 210.357 199.473L210.271 199.629L210.198 199.791C207.364 206.169 204.966 210.759 203.006 213.699L196.427 223.567L184.885 217.384C184.766 217.298 184.67 217.235 184.62 217.202L184.601 217.189C184.375 217.038 184.099 216.864 183.79 216.674C183.169 216.291 182.309 215.78 181.225 215.148C179.053 213.881 175.901 212.08 171.779 209.75L171.69 209.7L171.599 209.655C162.981 205.346 157.536 202.532 155.145 201.166L155.089 201.134L145.608 196.115L145.294 196.01C143.834 195.523 142.334 195.268 140.807 195.268C138.758 195.268 136.486 195.783 134.756 197.513C133.603 198.665 132.51 200.339 132.51 202.49C132.51 204.091 133.152 205.471 133.789 206.49C134.455 207.556 135.353 208.601 136.367 209.616L136.441 209.69L141.813 214.524C147.612 220.319 156.239 228.403 167.662 238.755L167.684 238.775L167.707 238.796C179.542 249.196 187.141 256.093 190.615 259.567L218.511 287.462C232.813 302.481 242.753 313.312 248.392 320.008L248.426 320.049L248.462 320.089C254.268 326.622 259.475 331.345 264.038 333.834L264.18 333.912L264.329 333.978C267.869 335.551 271.302 336.471 274.547 336.471C276.595 336.471 278.562 335.968 280.312 334.863C284.507 332.66 287.044 328.219 288.574 322.911C289.759 319.33 290.363 315.708 290.363 312.061C290.363 310.039 290.165 308.022 289.77 306.015C288.994 300.659 287.435 295.892 285.001 291.811C282.574 287.387 278.69 282.795 273.563 278.027C268.367 272.839 261.766 267.351 253.804 261.56L253.786 261.547L233.286 246.981Z" fill="black"/>
</svg>
