<svg width="350" height="350" viewBox="0 0 350 350" fill="none" xmlns="http://www.w3.org/2000/svg">
<path d="M136.629 178.486C137.023 165.555 137.442 151.803 137.706 136.325L141.039 138.547C144.419 140.8 150.758 145.692 160.147 153.321L160.156 153.327L187.367 175.272C195.416 182.171 201.036 186.767 204.132 188.952C206.643 191.13 211.263 194.544 217.869 199.14C224.283 203.803 229.39 206.95 233.039 208.287C236.317 209.592 239.758 210.242 243.338 210.242C245.069 210.242 246.635 210.126 247.991 209.854C249.27 209.599 250.549 209.169 251.61 208.412C253.211 207.385 254.027 205.679 254.468 204.09C254.937 202.401 255.127 200.34 255.127 198.014V197.914L255.12 197.814C254.806 193.099 253.711 188.141 251.88 182.953L251.87 182.925L251.86 182.898C249.986 177.902 247.199 172.967 243.541 168.089L243.513 168.051L243.483 168.015C239.77 163.374 234.883 158.808 228.878 154.305L228.839 154.276L228.799 154.247C222.744 150.009 215.102 145.823 205.92 141.675C196.482 137.251 187.04 133.268 177.594 129.726L177.58 129.721L177.566 129.716C167.888 126.196 160.07 123.54 154.135 121.758L138.306 116.74C138.334 115.91 138.361 115.1 138.387 114.307C139.162 90.8975 139.429 82.8195 141.736 57.4454C142.022 54.2948 142.453 50.8416 143.032 47.0831C143.59 43.4524 144.418 40.3111 145.489 37.6337L145.538 37.5096L145.577 37.3816C146.4 34.6356 147.504 31.7268 148.895 28.6532C150.197 26.339 150.977 23.9639 150.977 21.5781V20.6992C150.977 18.9973 149.998 17.5593 149.183 16.5814C148.266 15.4813 146.992 14.312 145.456 13.0832L145.42 13.0539L145.382 13.0258C142.705 11.0179 138.883 9.14118 134.089 7.34336L134.066 7.33506L134.044 7.32712C129.865 5.83459 125.403 4.49546 120.662 3.30745C115.623 1.74959 108.416 1 104.986 1C102.794 1 100.827 1.1914 99.196 1.67122C97.6149 2.13625 95.9746 2.98696 94.984 4.58675C94.1574 5.84462 93.6367 7.27435 93.6367 8.83398C93.6367 9.83527 93.8691 10.8717 94.1925 11.8658C95.5197 17.1568 97.1202 22.2242 98.6487 27.0636C99.5826 30.0207 100.49 32.8926 101.291 35.6783C103.462 43.2248 105.061 50.7272 105.062 59.3618C104.975 73.3721 104.988 86.6228 105 99.3561C105.062 164.45 105.112 216.022 91.7115 286.43C89.9872 292.765 89 297.498 89 300.289C89 309.918 93.6474 322.887 97.4338 331.001L97.4676 331.074L97.5053 331.144C99.8644 335.568 101.987 339.075 103.87 341.594C105.247 343.577 106.609 345.216 107.965 346.392C109.278 347.529 110.953 348.553 112.896 348.553H113.336H113.633L113.924 348.494C114.708 348.338 116.361 347.98 118.082 347.413C119.622 346.906 121.772 346.061 123.2 344.687C125.545 342.654 127.342 340.034 128.64 336.926C130.489 334.377 131.988 331.318 133.176 327.808C134.669 324.798 135.875 321.771 136.788 318.729L136.828 318.594L136.856 318.456L138.614 309.666L138.672 309.375V309.078V305.123C138.672 301.819 138.522 297.653 138.227 292.642L138.225 292.611L138.223 292.579C134.553 246.701 135.485 216.062 136.629 178.486Z" fill="black" stroke="black" stroke-width="6"/>
<path fill-rule="evenodd" clip-rule="evenodd" d="M117.021 350.262C118.561 349.755 121.259 348.759 123.219 346.907C125.854 344.607 127.842 341.714 129.271 338.403C131.205 335.67 132.743 332.489 133.953 328.961C135.475 325.868 136.715 322.745 137.661 319.591L137.742 319.321L139.672 309.672V305.123C139.672 301.738 139.519 297.508 139.222 292.466L139.218 292.403L139.213 292.34C135.557 246.637 136.483 216.208 137.625 178.696C137.973 167.291 138.34 155.231 138.604 141.888C142.084 144.34 147.926 148.881 156.255 155.649L156.264 155.656L183.449 177.579C191.358 184.358 197.03 189.006 200.28 191.317C202.948 193.614 207.642 197.071 214.129 201.585C220.519 206.229 225.898 209.589 229.967 211.089C233.595 212.528 237.4 213.242 241.338 213.242C243.188 213.242 244.966 213.119 246.579 212.796C248.057 212.5 249.768 211.967 251.291 210.897C253.748 209.293 254.836 206.773 255.359 204.893C255.931 202.834 256.127 200.468 256.127 198.014V197.814L256.114 197.615C255.778 192.579 254.613 187.351 252.709 181.954L252.689 181.899L252.669 181.844C250.68 176.541 247.742 171.357 243.941 166.289L243.884 166.214L243.826 166.141C239.916 161.253 234.828 156.517 228.678 151.905L228.599 151.846L228.519 151.79C222.269 147.415 214.457 143.144 205.174 138.949C195.672 134.497 186.164 130.486 176.648 126.917L176.62 126.907L176.591 126.896C166.902 123.373 159.031 120.697 153.019 118.892L139.38 114.567L139.385 114.401C140.159 91.0187 140.424 83.0053 142.723 57.717C143.003 54.6385 143.426 51.2476 143.997 47.5393C144.528 44.0864 145.304 41.173 146.274 38.7479L146.373 38.4997L146.45 38.2436C147.22 35.677 148.256 32.9321 149.576 30.0051C151.013 27.4178 151.977 24.5767 151.977 21.5781V20.6992C151.977 17.8813 150.385 15.7378 149.487 14.6608C148.386 13.3395 146.937 12.0264 145.33 10.7406L145.257 10.682L145.182 10.6258C142.171 8.36774 138.043 6.3722 133.142 4.53437L133.098 4.51778L133.053 4.50189C128.796 2.98144 124.266 1.62124 119.468 0.416829C114.083 -1.23292 106.623 -2 102.986 -2C100.653 -2 98.3671 -1.8003 96.3495 -1.20688C94.424 -0.640565 91.9929 0.513649 90.4549 2.97284C89.383 4.61545 88.6367 6.59656 88.6367 8.83398C88.6367 10.229 88.9461 11.5623 89.307 12.6924C90.6442 18.0065 92.2975 23.2471 93.8415 28.1412C94.7668 31.074 95.6528 33.8824 96.408 36.5077C98.5382 43.9126 100.06 51.1121 100.062 59.3529C99.9749 73.3983 99.9873 86.6696 99.9992 99.4118C100.06 164.45 100.108 215.704 86.7861 285.755C85.0924 291.99 84 297.057 84 300.289C84 310.605 88.8901 324.073 92.7152 332.27L92.7829 332.415L92.8582 332.556C95.2344 337.011 97.4289 340.656 99.436 343.348C100.874 345.415 102.39 347.263 104.001 348.659C105.527 349.981 107.888 351.553 110.896 351.553H111.93L112.513 351.436C113.348 351.269 115.134 350.884 117.021 350.262Z" fill="black"/>
</svg>
