<svg width="350" height="350" viewBox="0 0 350 350" fill="none" xmlns="http://www.w3.org/2000/svg">
<path d="M134.793 130.777C133.886 194.508 130.136 229.118 135.232 292.818C135.525 297.799 135.672 301.9 135.672 305.123V309.078L133.914 317.867C133.035 320.797 131.863 323.727 130.398 326.656C129.227 330.172 127.762 333.102 126.004 335.445C124.832 338.375 123.221 340.719 121.17 342.477C119.412 344.234 114.801 345.26 113.336 345.553H112.896C111.139 345.553 108.941 343.648 106.305 339.84C104.547 337.496 102.496 334.127 100.152 329.732C96.4047 321.702 92 309.23 92 300.289C92 297.945 92.8789 293.551 94.6367 287.105C110.748 202.52 107.529 144.9 108.062 59.3711C108.062 41.3137 101.356 28.1494 97.0762 11.0312C96.7832 10.1523 96.6367 9.41992 96.6367 8.83398C96.6367 7.95508 96.9297 7.07617 97.5156 6.19727C98.3945 4.73242 100.885 4 104.986 4C108.209 4 115.164 4.73242 119.852 6.19727C124.539 7.36914 128.934 8.6875 133.035 10.1523C137.723 11.9102 141.238 13.668 143.582 15.4258C146.512 17.7695 147.977 19.5273 147.977 20.6992V21.5781C147.977 23.3359 147.391 25.2402 146.219 27.291C144.754 30.5137 143.582 33.5898 142.703 36.5195C141.531 39.4492 140.652 42.8184 140.066 46.627C139.48 50.4355 139.041 53.9512 138.748 57.1738C136.285 84.264 136.138 91.7481 135.232 118.912L153.25 124.625C159.109 126.383 166.873 129.02 176.541 132.535C185.916 136.051 195.291 140.006 204.666 144.4C213.748 148.502 221.219 152.604 227.078 156.705C232.938 161.1 237.625 165.494 241.141 169.889C244.656 174.576 247.293 179.264 249.051 183.951C250.809 188.932 251.834 193.619 252.127 198.014C252.127 202.408 251.395 205.045 249.93 205.924C248.758 206.803 246.561 207.242 243.338 207.242C240.115 207.242 237.039 206.656 234.109 205.484C230.887 204.312 226.053 201.383 219.607 196.695C212.869 192.008 208.328 188.639 205.984 186.588C203.055 184.537 197.488 179.996 189.285 172.965L162.039 150.992C152.664 143.375 146.219 138.395 142.703 136.051L134.793 130.777Z" fill="black"/>
<path d="M147.977 20.6992C147.977 19.5273 146.512 17.7695 143.582 15.4258C141.238 13.668 137.723 11.9102 133.035 10.1523C128.934 8.6875 124.539 7.36914 119.852 6.19727C115.164 4.73242 108.209 4 104.986 4C100.885 4 98.3945 4.73242 97.5156 6.19727C96.9297 7.07617 96.6367 7.95508 96.6367 8.83398C96.6367 9.41992 96.7832 10.1523 97.0762 11.0312C101.356 28.1494 108.062 41.3137 108.062 59.3711C107.529 144.9 110.748 202.52 94.6367 287.105C92.8789 293.551 92 297.945 92 300.289C92 309.23 96.4047 321.702 100.152 329.732C102.496 334.127 104.547 337.496 106.305 339.84C108.941 343.648 111.139 345.553 112.896 345.553H113.336C114.801 345.26 119.412 344.234 121.17 342.477C123.221 340.719 124.832 338.375 126.004 335.445C127.762 333.102 129.227 330.172 130.398 326.656C131.863 323.727 133.035 320.797 133.914 317.867L135.672 309.078V305.123C135.672 301.9 135.525 297.799 135.232 292.818C130.136 229.118 133.886 194.508 134.793 130.777L142.703 136.051C146.219 138.395 152.664 143.375 162.039 150.992L189.285 172.965C197.488 179.996 203.055 184.537 205.984 186.588C208.328 188.639 212.869 192.008 219.607 196.695C226.053 201.383 230.887 204.312 234.109 205.484C237.039 206.656 240.115 207.242 243.338 207.242C246.561 207.242 248.758 206.803 249.93 205.924C251.395 205.045 252.127 202.408 252.127 198.014C251.834 193.619 250.809 188.932 249.051 183.951C247.293 179.264 244.656 174.576 241.141 169.889C237.625 165.494 232.938 161.1 227.078 156.705C221.219 152.604 213.748 148.502 204.666 144.4C195.291 140.006 185.916 136.051 176.541 132.535C166.873 129.02 159.109 126.383 153.25 124.625L135.232 118.912C136.138 91.7481 136.285 84.264 138.748 57.1738C139.041 53.9512 139.48 50.4355 140.066 46.627C140.652 42.8184 141.531 39.4492 142.703 36.5195C143.582 33.5898 144.754 30.5137 146.219 27.291C147.391 25.2402 147.977 23.3359 147.977 21.5781V20.6992ZM153.977 21.5781C153.977 24.5648 153.018 27.3937 151.591 29.9727C150.264 32.9116 149.223 35.6672 148.45 38.2432L148.373 38.5L148.274 38.748C147.304 41.1731 146.528 44.0863 145.997 47.5391C145.427 51.2473 145.004 54.6383 144.724 57.7168C142.419 83.0647 142.158 91.0564 141.38 114.566L155.063 118.905C160.316 120.484 166.981 122.724 175.034 125.611L178.592 126.896L178.62 126.906L178.647 126.917C188.176 130.49 197.699 134.508 207.213 138.968C215.899 142.894 223.295 146.887 229.327 150.97L230.519 151.79L230.6 151.846L230.678 151.905C236.443 156.229 241.276 160.661 245.079 165.226L245.826 166.141L245.885 166.214L245.94 166.289C249.504 171.041 252.31 175.894 254.285 180.852L254.669 181.845L254.689 181.899L254.709 181.954C256.614 187.351 257.778 192.579 258.113 197.614L258.127 197.813V198.014C258.127 200.468 257.93 202.834 257.358 204.893C256.835 206.777 255.742 209.305 253.272 210.908C251.754 211.97 250.051 212.501 248.579 212.796C246.965 213.119 245.188 213.242 243.338 213.242C239.399 213.242 235.594 212.527 231.966 211.088C227.9 209.588 222.527 206.234 216.146 201.597C209.647 197.075 204.948 193.612 202.277 191.313C199.03 189.004 193.366 184.363 185.469 177.596L158.272 155.663L158.264 155.656L158.256 155.648C149.926 148.88 144.083 144.341 140.603 141.889C139.469 199.116 136.445 232.741 141.213 292.34L141.219 292.403L141.222 292.466C141.518 297.508 141.672 301.738 141.672 305.123V309.672L139.798 319.044L139.742 319.32L139.661 319.591C138.717 322.739 137.476 325.857 135.957 328.944C134.746 332.479 133.207 335.664 131.271 338.401C129.836 341.725 127.837 344.626 125.188 346.931C123.229 348.765 120.553 349.758 119.021 350.263C117.135 350.885 115.348 351.27 114.513 351.437L113.93 351.553H112.896C109.888 351.553 107.527 349.981 106.001 348.658C104.384 347.257 102.861 345.399 101.418 343.321C99.4161 340.632 97.227 336.997 94.8584 332.556L94.7832 332.415L94.7148 332.27C90.8897 324.073 86 310.605 86 300.289C86 297.059 87.0922 291.996 88.7842 285.766C104.717 201.991 101.529 145.101 102.062 59.3711C102.062 51.1228 100.54 43.9181 98.4082 36.5078C96.3918 29.4984 93.4444 21.1831 91.3057 12.6807C90.9463 11.5529 90.6367 10.2244 90.6367 8.83398C90.6367 6.60007 91.382 4.62255 92.4512 2.98145C93.9889 0.516859 96.4221 -0.640117 98.3496 -1.20703C100.367 -1.80042 102.654 -2 104.986 -2C108.62 -2 116.073 -1.23246 121.457 0.415039C125.652 1.4679 129.643 2.63857 133.426 3.93262L135.053 4.50195L135.098 4.51758L135.142 4.53418C139.736 6.25712 143.652 8.1186 146.604 10.2051L147.182 10.626L147.257 10.6816L147.33 10.7402C148.937 12.0261 150.386 13.3398 151.487 14.6611C152.385 15.7382 153.977 17.8814 153.977 20.6992V21.5781Z" fill="black"/>
<path fill-rule="evenodd" clip-rule="evenodd" d="M117.021 350.262C118.561 349.755 121.259 348.759 123.219 346.907C125.854 344.607 127.842 341.714 129.271 338.403C131.205 335.67 132.743 332.489 133.953 328.961C135.475 325.868 136.715 322.745 137.661 319.591L137.742 319.321L139.672 309.672V305.123C139.672 301.738 139.519 297.508 139.222 292.466L139.218 292.403L139.213 292.34C135.557 246.637 136.483 216.208 137.625 178.696C137.973 167.291 138.34 155.231 138.604 141.888C142.084 144.34 147.926 148.881 156.255 155.649L156.264 155.656L183.449 177.579C191.358 184.358 197.03 189.006 200.28 191.317C202.948 193.614 207.642 197.071 214.129 201.585C220.519 206.229 225.898 209.589 229.967 211.089C233.595 212.528 237.4 213.242 241.338 213.242C243.188 213.242 244.966 213.119 246.579 212.796C248.057 212.5 249.768 211.967 251.291 210.897C253.748 209.293 254.836 206.773 255.359 204.893C255.931 202.834 256.127 200.468 256.127 198.014V197.814L256.114 197.615C255.778 192.579 254.613 187.351 252.709 181.954L252.689 181.899L252.669 181.844C250.68 176.541 247.742 171.357 243.941 166.289L243.884 166.214L243.826 166.141C239.916 161.253 234.828 156.517 228.678 151.905L228.599 151.846L228.519 151.79C222.269 147.415 214.457 143.144 205.174 138.949C195.672 134.497 186.164 130.486 176.648 126.917L176.62 126.907L176.591 126.896C166.902 123.373 159.031 120.697 153.019 118.892L139.38 114.567L139.385 114.401C140.159 91.0187 140.424 83.0053 142.723 57.717C143.003 54.6385 143.426 51.2476 143.997 47.5393C144.528 44.0864 145.304 41.173 146.274 38.7479L146.373 38.4997L146.45 38.2436C147.22 35.677 148.256 32.9321 149.576 30.0051C151.013 27.4178 151.977 24.5767 151.977 21.5781V20.6992C151.977 17.8813 150.385 15.7378 149.487 14.6608C148.386 13.3395 146.937 12.0264 145.33 10.7406L145.257 10.682L145.182 10.6258C142.171 8.36774 138.043 6.3722 133.142 4.53437L133.098 4.51778L133.053 4.50189C128.796 2.98144 124.266 1.62124 119.468 0.416829C114.083 -1.23292 106.623 -2 102.986 -2C100.653 -2 98.3671 -1.8003 96.3495 -1.20688C94.424 -0.640565 91.9929 0.513649 90.4549 2.97284C89.383 4.61545 88.6367 6.59656 88.6367 8.83398C88.6367 10.229 88.9461 11.5623 89.307 12.6924C90.6442 18.0065 92.2975 23.2471 93.8415 28.1412C94.7668 31.074 95.6528 33.8824 96.408 36.5077C98.5382 43.9126 100.06 51.1121 100.062 59.3529C99.9749 73.3983 99.9873 86.6696 99.9992 99.4118C100.06 164.45 100.108 215.704 86.7861 285.755C85.0924 291.99 84 297.057 84 300.289C84 310.605 88.8901 324.073 92.7152 332.27L92.7829 332.415L92.8582 332.556C95.2344 337.011 97.4289 340.656 99.436 343.348C100.874 345.415 102.39 347.263 104.001 348.659C105.527 349.981 107.888 351.553 110.896 351.553H111.93L112.513 351.436C113.348 351.269 115.134 350.884 117.021 350.262Z" fill="black"/>
</svg>
