<svg width="350" height="350" viewBox="0 0 350 350" fill="none" xmlns="http://www.w3.org/2000/svg">
<path d="M41.8656 223.217C50.6808 214.402 59.8241 202.682 69.3105 188.157C78.1564 174.889 83.1043 167.535 84.3231 165.821C85.3811 164.783 86.9538 163.345 89.0835 161.482C91.3208 159.524 93.3968 157.452 94.5098 155.404C95.5868 153.68 96.0645 151.759 96.0645 149.809C96.0645 145.639 93.783 141.848 90.8579 138.589C86.7101 133.811 81.7877 129.835 76.1254 126.659C71.5024 123.49 67.6194 121.175 64.6951 120.078L64.2404 119.908L63.7615 119.828C61.8564 119.51 60.0947 119.32 58.5449 119.32C57.1428 119.32 55.5873 119.55 54.1116 120.288L53.0559 120.815L52.3477 121.76C51.1778 123.32 50.6865 125.236 50.4269 126.794C50.1447 128.487 50.0293 130.473 50.0293 132.67V135.746C50.0293 138.26 49.786 140.78 49.2954 143.311C48.1375 147.053 46.1356 153.055 43.2712 161.362C40.4314 169.598 36.8775 177.703 32.6043 185.68C28.3068 193.702 23.2795 201.892 17.5148 210.251L17.5047 210.266L1.83188 233.34L-3.14051 239.141C-4.13435 240.15 -5.03924 241.23 -5.72789 242.378C-6.43317 243.553 -7.09961 245.112 -7.09961 246.928C-7.09961 248.284 -6.75706 250.22 -5.19569 251.782C-3.63432 253.343 -1.69846 253.686 -0.341797 253.686C2.31683 253.686 4.78935 252.441 6.78982 251.112L12.9581 247.147L13.0066 247.114C23.2396 240.192 32.8592 232.224 41.8656 223.217Z" fill="black"/>
<path d="M207.979 10.482L207.895 10.3979L207.807 10.3179C204.069 6.9202 199.186 4.03403 193.351 1.56314C187.4 -1.40527 181.936 -3.68924 176.976 -5.2426C172.393 -6.76787 168.04 -7.86263 163.926 -8.49766C162.033 -8.81207 160.282 -9 158.74 -9C157.62 -9 156.448 -8.91035 155.33 -8.63099C154.243 -8.35919 152.851 -7.81894 151.689 -6.65663C149.367 -4.33489 148.467 -1.33029 148.467 1.71289C148.467 5.1764 149.886 9.51781 151.962 14.2639C153.784 18.4278 155.149 23.5208 155.981 29.6189C156.848 36.2608 157.569 42.1769 158.148 47.37L160.33 94.0786L158.139 244.876L155.518 270.204L155.514 270.265C155.077 275.793 154.645 280.166 154.222 283.415C153.842 286.326 153.506 288.005 153.285 288.786C152.635 289.831 151.917 290.622 151.147 291.22C150.436 291.421 149.345 291.586 147.754 291.586H145.777C142.774 291.305 137.428 290.128 129.456 287.853L116.376 283.493C115.015 283.039 113.603 282.797 112.158 282.797C109.833 282.797 107.023 283.507 105.168 285.993C103.928 287.472 103.643 289.194 103.643 290.434C103.643 294.114 106.236 296.545 108.267 297.947L115.951 304.351C120.197 308.033 125.339 312.885 131.39 318.933C137.099 325.218 142.225 331.342 146.774 337.305C151.109 343.66 154.308 348.097 156.262 350.377L156.387 350.523L156.523 350.659C158.826 352.961 161.78 354.76 165.332 354.76H166.211C168.764 354.76 171.342 353.591 173.526 352.343L173.572 352.317L173.617 352.289C177.652 349.869 181.392 345.157 184.982 339.179C188.887 332.867 191.733 327.092 193.368 321.894C195.357 316.216 196.26 309.335 196.26 301.42V301.327L195.379 277.54L195.377 277.504L192.747 189.811L195.818 102.052L195.819 102.022C196.109 89.274 196.829 79.6229 197.933 72.9452C199.373 66.047 201.101 58.8498 203.119 51.3526L203.137 51.2863L203.153 51.2196C204.018 47.6158 204.794 44.7315 205.48 42.5353C206.179 40.3008 206.701 39.0565 207.006 38.5073L212.246 29.7737C213.513 27.6626 214.277 25.319 214.277 22.8066V21.1329L214.227 20.7812C213.69 17.0188 211.034 13.5368 207.979 10.482Z" fill="black"/>
<path d="M253.008 133.371L258.59 140.242L267.28 150.669L280.344 168.958L280.35 168.968C285.274 175.92 292.115 186.107 300.89 199.561L300.909 199.59L319.814 227.729L319.819 227.736C323.304 232.962 326.697 237.119 329.996 239.228C333.445 241.622 337.181 243.139 341.113 243.139H343.322L343.766 243.058C348.395 242.216 352.124 239.648 354.852 235.769C357.931 231.516 359.406 226.089 359.729 219.944L359.736 219.813V219.682C359.736 212.575 358.287 204.861 355.533 196.592C352.661 187.672 347.477 178.654 340.184 169.537C332.836 160.352 324.257 152.534 314.458 146.098C304.986 139.588 296.29 134.475 288.385 130.817C281.024 126.993 274.928 124.234 270.185 122.653L270.053 122.609L260.643 120.043C259.583 119.59 258.418 119.32 257.178 119.32C255.879 119.32 254.4 119.659 253.079 120.65C252.126 121.365 251.483 122.248 251.058 123.121C250.195 124.447 249.98 125.884 249.98 126.957C249.98 129.794 251.665 131.987 253.008 133.371Z" fill="black"/>
</svg>
