<svg width="350" height="350" viewBox="0 0 350 350" fill="none" xmlns="http://www.w3.org/2000/svg">
<path d="M41.8637 223.217C50.6788 214.402 59.8221 202.682 69.3086 188.157C78.1545 174.889 83.1024 167.535 84.3211 165.821C85.3791 164.783 86.9518 163.345 89.0816 161.482C91.3189 159.524 93.3948 157.452 94.5079 155.404C95.5848 153.68 96.0625 151.759 96.0625 149.809C96.0625 145.639 93.781 141.848 90.8559 138.589C86.7081 133.811 81.7858 129.835 76.1235 126.659C71.5005 123.49 67.6174 121.175 64.6931 120.078L64.2385 119.908L63.7595 119.828C61.8545 119.51 60.0928 119.32 58.543 119.32C57.1408 119.32 55.5854 119.55 54.1096 120.288L53.0539 120.815L52.3457 121.76C51.1758 123.32 50.6846 125.236 50.425 126.794C50.1428 128.487 50.0273 130.473 50.0273 132.67V135.746C50.0273 138.26 49.784 140.78 49.2934 143.311C48.1356 147.053 46.1336 153.055 43.2692 161.362C40.4294 169.598 36.8755 177.703 32.6024 185.68C28.3049 193.702 23.2775 201.892 17.5128 210.251L17.5028 210.266L1.82993 233.34L-3.14246 239.141C-4.13631 240.15 -5.0412 241.23 -5.72985 242.378C-6.43512 243.553 -7.10156 245.112 -7.10156 246.928C-7.10156 248.284 -6.75901 250.22 -5.19764 251.782C-3.63628 253.343 -1.70041 253.686 -0.34375 253.686C2.31488 253.686 4.7874 252.441 6.78787 251.112L12.9562 247.147L13.0047 247.114C23.2377 240.192 32.8573 232.224 41.8637 223.217Z" fill="black"/>
<path d="M207.977 10.482L207.893 10.3979L207.805 10.3179C204.067 6.9202 199.184 4.03403 193.349 1.56314C187.398 -1.40527 181.934 -3.68924 176.974 -5.2426C172.391 -6.76787 168.038 -7.86263 163.924 -8.49766C162.031 -8.81207 160.28 -9 158.738 -9C157.618 -9 156.446 -8.91035 155.328 -8.63099C154.241 -8.35919 152.849 -7.81894 151.687 -6.65663C149.365 -4.33489 148.465 -1.33029 148.465 1.71289C148.465 5.1764 149.884 9.51781 151.96 14.2639C153.782 18.4278 155.147 23.5208 155.979 29.6189C156.846 36.2608 157.567 42.1769 158.146 47.37L160.328 94.0786L158.137 244.876L155.516 270.204L155.512 270.265C155.075 275.793 154.644 280.166 154.22 283.415C153.84 286.326 153.504 288.005 153.283 288.786C152.633 289.831 151.915 290.622 151.145 291.22C150.434 291.421 149.343 291.586 147.752 291.586H145.775C142.772 291.305 137.426 290.128 129.454 287.853L116.374 283.493C115.013 283.039 113.601 282.797 112.156 282.797C109.831 282.797 107.021 283.507 105.166 285.993C103.926 287.472 103.641 289.194 103.641 290.434C103.641 294.114 106.234 296.545 108.265 297.947L115.949 304.351C120.195 308.033 125.337 312.885 131.388 318.933C137.097 325.218 142.223 331.342 146.772 337.305C151.107 343.66 154.306 348.097 156.26 350.377L156.385 350.523L156.521 350.659C158.824 352.961 161.778 354.76 165.33 354.76H166.209C168.762 354.76 171.341 353.591 173.524 352.343L173.57 352.317L173.615 352.289C177.65 349.869 181.39 345.157 184.98 339.179C188.885 332.867 191.731 327.092 193.366 321.894C195.355 316.216 196.258 309.335 196.258 301.42V301.327L195.377 277.54L195.375 277.504L192.745 189.811L195.816 102.052L195.817 102.022C196.107 89.274 196.827 79.6229 197.931 72.9452C199.371 66.047 201.099 58.8498 203.117 51.3526L203.135 51.2863L203.151 51.2196C204.016 47.6158 204.792 44.7315 205.478 42.5353C206.177 40.3008 206.699 39.0565 207.004 38.5073L212.244 29.7737C213.511 27.6626 214.275 25.319 214.275 22.8066V21.1329L214.225 20.7812C213.688 17.0188 211.032 13.5368 207.977 10.482Z" fill="black"/>
<path d="M253.006 133.371L258.588 140.242L267.278 150.669L280.342 168.958L280.348 168.968C285.272 175.92 292.113 186.107 300.888 199.561L300.907 199.59L319.812 227.729L319.817 227.736C323.302 232.962 326.695 237.119 329.994 239.228C333.443 241.622 337.179 243.139 341.111 243.139H343.32L343.764 243.058C348.393 242.216 352.122 239.648 354.85 235.769C357.929 231.516 359.404 226.089 359.727 219.944L359.734 219.813V219.682C359.734 212.575 358.285 204.861 355.531 196.592C352.659 187.672 347.475 178.654 340.182 169.537C332.834 160.352 324.255 152.534 314.457 146.098C304.985 139.588 296.288 134.475 288.383 130.817C281.022 126.993 274.926 124.234 270.183 122.653L270.051 122.609L260.641 120.043C259.581 119.59 258.416 119.32 257.176 119.32C255.877 119.32 254.398 119.659 253.077 120.65C252.124 121.365 251.482 122.248 251.056 123.121C250.193 124.447 249.979 125.884 249.979 126.957C249.979 129.794 251.663 131.987 253.006 133.371Z" fill="black"/>
</svg>
