<svg width="350" height="351" viewBox="0 0 350 351" fill="none" xmlns="http://www.w3.org/2000/svg">
<path fill-rule="evenodd" clip-rule="evenodd" d="M179.092 -53.5509C178.532 -54.7632 177.771 -56.0647 176.873 -57.4259C175.594 -59.7282 173.192 -61.6309 170.843 -63.1964C168.167 -64.9808 164.625 -66.916 160.308 -69.002C151.823 -73.3875 144.886 -76.235 139.883 -76.9497L139.531 -77H137.418C135.991 -77 134.176 -76.8481 132.545 -76.0327L131.819 -75.6698L131.246 -75.0961C130.125 -73.9754 129.255 -72.5671 128.551 -71.1599L128.023 -70.1042V-68.9238C128.023 -67.9798 127.895 -65.689 127.599 -61.8366L127.584 -61.6451V-61.4531C127.584 -58.535 126.515 -53.4941 123.904 -45.95L123.876 -45.8679L123.85 -45.7849C121.531 -38.2467 119.367 -31.7592 117.361 -26.3099C115.404 -21.2854 112.282 -14.6011 107.94 -6.20518L96.5721 15.2192L87.0804 31.5449H84.985L77.643 27.8739C76.3218 26.9433 74.7429 26.2763 73.191 25.759C71.3625 25.1495 69.1822 24.6237 66.7086 24.1599C62.1268 23.3008 58.5748 22.7559 56.5586 22.7559H55.7472L54.9775 23.0124C52.6096 23.8017 50.4191 25.1054 48.8027 27.1348C47.3983 28.676 46.7246 30.5958 46.7246 32.5898C46.7246 34.157 47.3794 35.5191 47.6919 36.1443C48.3625 37.4855 49.7652 39.9701 51.8002 43.4588L51.83 43.5097L51.8608 43.5599C53.7811 46.6803 55.2126 50.7043 56.0143 55.7818C56.8492 61.0694 57.4215 87.5666 57.7109 95.3098V120.627L55.9564 186.773C55.6666 193.712 54.9404 204.762 53.7706 219.97C52.5965 235.233 51.5847 265.272 50.7477 270.293L50.7229 270.442L50.7072 270.592C50.1475 275.909 49.1654 281.391 47.7528 287.041C46.2965 292.866 45.4062 297.522 45.4062 300.559C45.4062 303.366 45.5616 306.725 45.8604 310.61C46.2322 315.442 48.5225 321.594 52.0865 328.722C53.958 332.465 55.9619 335.628 58.158 338.008C60.3385 340.37 63.031 342.302 66.2835 342.844L66.6917 342.912H68.8633C70.3081 342.912 71.7201 342.67 73.0811 342.216L73.8509 341.96L74.5 341.473C76.8033 339.745 78.2541 337.071 79.2578 334.394L79.3578 334.128L79.4269 333.851C80.0358 331.416 80.5001 328.973 80.818 326.525C81.2239 324.856 81.6171 322.859 82.0011 320.554L241.315 309.368L255.606 337.156L255.623 337.189C257.905 341.466 259.987 344.935 261.773 346.721L261.969 346.917L262.185 347.09C263.933 348.488 265.903 349.696 268.051 350.234L268.648 350.383H269.703C271.663 350.383 273.569 349.59 275.015 348.866C276.611 348.068 278.415 346.951 280.391 345.586C285.229 342.457 289.233 338.04 292.47 332.537L292.501 332.484L292.531 332.43C295.711 326.706 297.931 320.524 299.203 313.911C300.73 307.464 301.64 300.739 301.945 293.745L301.949 293.636V293.527C301.949 288.194 301.028 278.228 299.275 263.916C297.536 249.714 296.524 215.965 296.235 202.667L294.918 126.808V106.643C294.918 102.859 295.47 75.9406 296.643 65.6771L296.644 65.6693L296.645 65.6615C297.225 60.4417 297.797 56.2763 298.356 53.1305C298.94 49.8494 299.444 48.0758 299.76 47.3647L299.825 47.2195L299.88 47.0706C301.36 43.0744 302.498 39.7817 303.272 37.2259C303.974 34.9112 304.586 32.5677 304.586 30.832V30.3926C304.586 28.763 304.031 27.1929 303.522 26.006C302.978 24.7356 302.226 23.3273 301.324 21.8146C300.113 19.4922 298.127 17.4729 295.864 15.6944C293.521 13.8536 290.572 12.033 287.105 10.2163C280.34 6.10485 274.563 3.04855 269.836 1.15441C266.269 -0.329948 262.852 -1.41406 260.035 -1.41406H258.541L257.944 -1.26478C256.308 -0.855835 254.051 0.0413818 251.413 1.21414C248.963 2.30302 244.599 3.99767 238.208 6.32278C231.909 8.32428 226.229 9.88274 221.158 11.0097L221.142 11.0132L118.231 25.4229L133.993 8.36864C138.395 3.95066 144.429 -3.63282 152.018 -14.1409C159.701 -24.7789 164.585 -31.0118 166.881 -33.3082C169.433 -35.8598 171.359 -37.4949 172.711 -38.3964C174.581 -39.6432 176.211 -40.8798 177.428 -42.0973L177.778 -42.4474L178.053 -42.8593C179.118 -44.457 179.742 -46.308 180.114 -48.1679L180.211 -48.6533V-49.1484C180.211 -50.8215 179.632 -52.3808 179.092 -53.5509ZM184.247 283.75C164.924 286.678 120.97 288.565 112.316 289.431C104.597 290.178 95.3884 291.031 84.6889 291.991L87.1967 221.477L93.0706 222.565C93.6581 222.745 94.1826 222.828 94.4346 222.868L94.468 222.874C95.0765 222.971 95.8088 223.056 96.6241 223.134C98.267 223.29 100.51 223.441 103.317 223.589L103.449 223.596H103.58C155.221 223.596 209.091 211.744 260.062 206.009L258.551 270.591V270.676C258.551 270.681 258.55 270.719 258.547 270.8C258.543 270.888 258.537 271.005 258.527 271.155C258.507 271.457 258.476 271.853 258.433 272.354C258.345 273.353 258.211 274.702 258.03 276.409C257.823 278.347 257.558 280.723 257.233 283.541L253.521 281.604L253.482 281.585C249.29 279.488 244.282 278.201 238.615 277.572L238.339 277.541H238.062C236.025 277.541 233.993 277.711 231.967 278.048L216.211 280.674L184.275 283.746L184.247 283.75ZM259.43 183.842L253.569 182.168C246.897 180.05 240.955 178.879 235.865 178.879H235.588L235.313 178.909C232.514 179.22 228.58 179.829 223.571 180.713L223.515 180.723C183.651 188.695 142.755 191.009 102.465 196.503C97.8375 197.134 93.051 197.689 88.1054 198.168L89.5042 144.804L98.4348 145.92H99.625C102.697 145.92 109.542 145.119 119.668 143.672L232.337 132.221C244.301 130.227 251.802 128.866 254.29 128.174C255.626 127.838 257.344 127.343 259.43 126.697V183.842ZM259.43 60.4143V103.826L257.762 102.992L257.645 102.941C252.211 100.563 246.086 99.4453 239.381 99.4453H239.104L238.829 99.4759C236.077 99.7816 232.907 100.236 229.33 100.832C189 107.553 148.268 111.982 107.738 117.509L107.629 117.524L107.52 117.544C102.534 118.45 96.6237 119.362 89.7793 120.278L90.4984 57.1321L138.12 48.804C172.711 43.5599 211.996 39.2246 246.924 36.2715C249.644 36.2746 251.693 36.449 253.158 36.7308C254.48 36.985 254.986 37.2637 255.072 37.3108C255.088 37.3198 255.089 37.3203 255.077 37.3104L255.22 37.4291L255.371 37.5374C256.305 38.2045 257.187 39.313 257.814 41.275C258.303 43.9205 258.858 50.1633 259.43 60.4143Z" fill="black"/>
</svg>
