<svg width="350" height="350" viewBox="0 0 350 350" fill="none" xmlns="http://www.w3.org/2000/svg">
<path d="M361.448 25.6084C360.329 23.8789 358.792 22.2011 357.001 20.5716C352.971 16.8534 349.018 13.9968 345.147 12.2372L345.075 12.2043L345.001 12.1737C341.347 10.6509 336.109 8.70835 329.345 6.35563C323.247 4.22155 317.808 3 313.195 3H311.066L310.296 3.25658C309.652 3.47112 306.551 4.28736 300.585 5.77908C294.667 7.18666 287.247 8.47535 278.288 9.63167C268.974 10.7961 261.302 11.9703 255.31 13.1599L243.266 14.4503L95.6608 28.0686L95.653 28.0693C62.8902 30.9946 42.7275 32.7478 35.1178 33.3339L6.05688 35.0952L-7.25142 36.426L-7.27872 36.429C-10.2342 36.7574 -14.0238 37.891 -15.8524 41.4123C-16.774 42.7675 -17 44.2516 -17 45.3535C-17 48.1141 -15.6798 50.4892 -14.2279 52.3297C-12.0465 55.317 -8.28451 57.9237 -3.80607 60.3122L-3.74803 60.3431L-3.68919 60.3725C1.14419 62.7892 6.54716 65.1888 12.5102 67.574L12.6467 67.6286L12.786 67.6751C18.357 69.532 23.4587 70.5684 27.9902 70.5684H30.627C33.5333 70.5684 38.1907 69.4422 43.9289 67.7208C49.602 66.0189 57.2164 64.1472 66.8207 62.1099C76.4564 60.066 83.9753 58.6219 89.4146 57.763C94.8618 56.903 105.159 55.5959 120.395 53.8378L120.409 53.8362L149.441 50.6547L152.252 54.8708L152.364 55.015C153.448 56.4095 154.706 59.9351 155.283 66.8625L155.293 66.9785L155.308 67.094C156.148 73.5394 156.583 81.6495 156.584 91.4739V91.4961L155.708 187.388C155.36 190.206 154.629 199.707 153.52 215.511L153.517 215.555L152.202 240.538C151.336 249.489 150.612 257.307 150.03 263.992L146.992 281.35L146.991 281.355C146.141 286.171 145.189 289.749 144.197 292.227L144.17 292.294L144.145 292.363C142.521 296.793 141.277 300.406 140.433 303.17C140.011 304.549 139.672 305.772 139.434 306.81C139.217 307.757 139.006 308.873 139.006 309.904V310.344C139.006 311.702 139.314 313.323 139.691 314.908C140.094 316.601 140.68 318.663 141.431 321.064C142.913 325.807 144.399 330.266 145.889 334.438L145.909 334.494L145.931 334.551C147.534 338.72 149.514 342.395 151.924 345.494L151.945 345.521L151.967 345.547C154.521 348.74 158.012 351.818 162.463 351.818H165.1C167.904 351.818 169.916 350.163 171.093 348.879C172.349 347.508 173.435 345.723 174.406 343.781L174.447 343.698L174.485 343.614C176.116 340.026 177.665 335.327 179.163 329.634L179.188 329.54L179.209 329.446C180.439 323.913 181.633 315.945 182.81 305.647C184.005 295.489 184.89 281.859 185.477 264.813L185.478 264.801L186.357 235.358L189.155 148.204L212.932 162.939L236.339 178.543C236.808 178.93 237.344 179.302 237.724 179.566C238.436 180.06 239.393 180.701 240.579 181.48C242.957 183.04 246.353 185.218 250.754 188.005C259.588 193.6 267.268 197.182 273.333 197.561L273.488 197.57H275.402C279.92 197.57 284.178 196.53 287.445 193.73C291.197 190.515 292.268 185.392 292.268 180.266V178.508C292.268 171.728 289.929 165.428 285.569 159.706C281.52 154.111 277.149 149.673 272.393 146.616L272.283 146.546L272.17 146.481C267.438 143.777 259.688 141.154 249.401 138.509C239.111 135.863 229.678 133.651 221.106 131.876C213.096 130.008 202.456 127.663 189.198 124.842L190.748 93.0641L191.62 75.6116C192.184 70.0293 192.997 66.0245 193.943 63.3914C194.53 61.9233 194.999 60.6749 195.331 59.6788C195.499 59.1746 195.652 58.6757 195.768 58.2117C195.859 57.8482 196.027 57.132 196.027 56.3398V55.4609C196.027 52.8581 195.143 50.5067 193.767 48.4484L242.134 45.9589C245.816 45.9555 255.934 45.8079 272.414 45.5188C289.147 45.2252 304.279 44.7846 317.807 44.1965C331.298 43.6099 340.274 43.3223 344.836 43.3223H347.912C349.655 43.3223 351.246 43.2442 352.638 43.0587C353.96 42.8823 355.433 42.5688 356.74 41.9155L356.864 41.8534L356.985 41.7846C360.036 40.0411 362.282 37.4287 363.267 33.983L363.459 33.3097V31.7305C363.459 29.4014 362.556 27.3201 361.448 25.6084Z" fill="black"/>
</svg>
