<svg width="350" height="350" viewBox="0 0 350 350" fill="none" xmlns="http://www.w3.org/2000/svg">
<path d="M-3.47633 341.757L-3.36062 341.868L-3.23803 341.972C6.38226 350.089 15.5962 355.016 24.1562 355.016C25.1309 355.016 25.8863 354.744 26.2512 354.595C26.6713 354.423 27.0201 354.225 27.2693 354.072C27.7667 353.765 28.2364 353.401 28.6372 353.069C29.4571 352.39 30.4372 351.465 31.537 350.365C33.717 348.185 36.6831 344.999 40.4074 340.85C53.0333 330.003 78.2529 312.839 116.391 289.256C122.206 285.824 126.822 282.621 130.05 279.642C131.671 278.146 133.077 276.583 134.104 274.95C135.124 273.328 135.943 271.361 135.943 269.156C135.943 266.618 135.021 263.987 132.625 262.19C130.499 260.596 127.909 260.201 125.67 260.201C124.585 260.201 123.585 260.557 123.254 260.674L123.22 260.686C122.678 260.878 122.061 261.133 121.406 261.42C120.085 262.001 118.333 262.84 116.183 263.915C111.891 266.061 105.801 269.253 97.9372 273.475C72.7051 285.287 51.7665 294.407 35.096 300.858C18.3143 307.352 6.17825 311.011 -1.56481 312.102C-5.18658 312.576 -8.51517 313.426 -11.0729 314.983C-13.8604 316.68 -16 319.442 -16 323.209C-16 326.41 -14.1746 329.529 -12.2817 332.104C-10.208 334.924 -7.23181 338.152 -3.47633 341.757Z" fill="black"/>
<path d="M100.157 81.361L99.7582 81.3278L99.3587 81.3585C96.5687 81.5731 93.7384 82.5606 91.6791 84.9368C89.6687 87.2564 89.0293 90.1714 89.0293 92.9355C89.0293 106.72 85.5893 120.608 78.5708 134.645L78.4778 134.831L78.4006 135.024C78.1279 135.706 77.7574 136.511 77.2776 137.446C64.224 138.788 51.489 140.374 39.0728 142.203C49.5522 124.213 57.3735 109.821 62.4966 99.0653C69.4234 84.9254 77.9552 69.7344 88.1055 53.4883C91.5417 48.4676 93.7559 43.3904 93.7559 38.4434C93.7559 34.7439 92.2241 31.0765 89.9954 27.6097C87.7312 24.0875 84.4691 20.3428 80.3588 16.3847L80.291 16.3194L80.2207 16.2566C75.9567 12.4495 71.9523 9.44783 68.2226 7.3758C64.535 5.32712 60.7823 4 57.1152 4C55.1726 4 52.7973 4.48904 50.943 6.34337C49.0886 8.19771 48.5996 10.573 48.5996 12.5156C48.5996 26.0553 46.3384 42.3396 41.7091 61.4353L41.694 61.4977L41.6805 61.5605C37.6575 80.2387 31.7785 97.4264 24.0624 113.144L23.9866 113.299L23.9215 113.458C18.3679 127.065 11.0437 136.845 2.14072 143.198C-4.22203 146.816 -8.22405 152.28 -9.34702 159.392L-9.45942 160.104L-9.36621 160.819C-8.43927 167.925 -6.63902 173.943 -3.58457 178.385C-0.383192 183.042 4.13044 185.838 9.72439 186.252L9.90882 186.266H10.0938C11.3318 186.266 12.4007 185.904 13.1155 185.606C13.8918 185.283 14.6565 184.859 15.3805 184.407C16.8142 183.511 18.4582 182.266 20.272 180.757C29.5961 173.419 37.8788 169.036 45.1443 167.22L45.3885 167.159L45.6252 167.074C50.3841 165.36 56.3187 163.875 63.4748 162.643C54.4414 178.091 44.0709 194.478 32.358 211.806C23.2899 224.431 13.6685 232.827 3.59434 237.422C1.54117 237.575 -0.261899 237.801 -1.70819 238.142C-2.51994 238.333 -3.46618 238.615 -4.34741 239.079C-5.09467 239.472 -6.70797 240.469 -7.39381 242.526L-7.65039 243.296V244.107C-7.65039 250.66 -5.11858 256.543 -0.507056 261.636C4.80433 270.207 11.6127 275.914 20.2012 275.914C23.0129 275.914 25.6956 274.902 28.1335 273.458C30.5397 272.032 32.9781 270.024 35.4463 267.573C49.8168 255.515 76.9731 240.58 117.463 222.806C119.374 222.062 121.122 220.833 122.359 218.976C123.615 217.093 124.078 214.966 124.078 212.906C124.078 208.893 121.195 206.616 118.741 205.564C116.371 204.548 113.346 204.112 110.087 203.957L109.266 203.918L108.476 204.144C106.527 204.701 90.0254 210.344 59.2523 220.965C93.6427 168.738 115.122 137.012 123.802 125.583C127.304 121.721 129.786 117.581 130.589 113.166L130.7 112.557L130.659 111.939C130.233 105.557 125.774 99.2926 119.45 93.2699L119.419 93.2402L119.387 93.211C115.616 89.7417 112.2 86.9744 109.165 85.0054C106.249 83.1143 103.167 81.6118 100.157 81.361Z" fill="black"/>
<path fill-rule="evenodd" clip-rule="evenodd" d="M164.778 102.614L164.765 102.61L164.751 102.606C159.738 101.269 153.081 100.68 145.006 100.68C143.025 100.68 140.683 100.966 138.696 102.23C136.325 103.739 135.172 106.172 135.172 108.756C135.172 112.387 136.666 117.702 138.989 124.088L139.087 124.358L139.215 124.615C143.244 132.672 146.522 145.068 148.84 162.162L148.856 162.279L148.878 162.396C152.906 184.264 155.976 222.899 158.027 278.569L158.027 278.579C158.473 290.015 159.741 299.149 162.046 305.653C164.276 311.944 168.188 317.546 174.929 318.086L175.128 318.102H175.328C178.143 318.102 180.191 316.545 181.463 314.92C182.669 313.379 183.475 311.447 184.067 309.504C184.804 307.082 185.375 304.06 185.809 300.499C188.591 301.402 191.554 301.842 194.664 301.842H194.933L195.2 301.813C224.093 298.697 253.945 295.444 284.754 292.055C288.873 298.97 292.175 305.046 294.68 310.293C296.016 313.547 297.303 316.241 298.551 318.203C299.176 319.185 299.924 320.196 300.819 321.017C301.635 321.765 303.206 322.936 305.406 322.936C313.43 322.936 320.016 317.621 325.361 309.761C330.759 301.824 335.618 290.286 340.066 275.469C347.043 253.588 351.274 210.293 353.029 146.322C353.882 131.652 356.389 120.516 360.269 112.607C362.099 109.924 363.533 107.719 364.533 106.026C365.046 105.157 365.497 104.338 365.834 103.61C366.003 103.248 366.179 102.831 366.322 102.391C366.441 102.025 366.656 101.293 366.656 100.406C366.656 96.2924 364.114 92.7165 361.237 89.8395C358.198 86.8009 353.864 83.6325 348.443 80.3195L348.327 80.2483L348.206 80.1836C342.371 77.0416 337.203 74.6198 332.733 72.9728C328.331 71.3512 324.283 70.3574 320.787 70.3574C319.004 70.3574 317.083 70.9045 315.343 71.5374C313.563 72.1846 311.502 73.1013 309.191 74.2474C297.403 78.2367 274.923 83.8606 241.502 91.1258L241.453 91.1365L241.404 91.1482C211.071 98.3837 187.992 103.343 172.104 106.054C170.02 104.448 167.492 103.354 164.778 102.614ZM302.753 264.898L302.67 264.846L302.584 264.798C297.082 261.704 290.952 260.201 284.312 260.201C283.502 260.201 282.223 260.341 280.836 260.514C279.319 260.704 277.301 260.985 274.796 261.353C270.904 261.925 265.781 262.718 259.432 263.73C259.451 242.083 259.575 223.082 259.805 206.725C274.601 204.679 292.177 202.22 312.532 199.35C311.932 217.606 310.978 234.063 309.673 248.726C308.333 256.338 306.846 262.211 305.288 266.511C304.509 265.995 303.662 265.457 302.753 264.898ZM285.462 171.982L285.444 171.986L285.425 171.99C276.988 173.865 268.646 175.646 260.4 177.332C260.715 158.458 261.264 146.859 261.99 142.151C263.421 134.985 264.264 129.688 264.264 126.773C264.264 121.927 261.866 117.411 258.073 113.225C282.2 109.137 297.865 107.164 305.406 107.164C308.788 107.164 310.562 108.19 311.671 109.621C312.969 111.295 314.029 114.39 314.029 119.742C314.029 137.12 313.799 153.686 313.339 169.439C311.928 169.299 310.452 169.234 308.922 169.234C301.758 169.234 293.93 170.168 285.462 171.982ZM186.821 275.224C203.654 272.671 218.059 270.41 230.042 268.44C229.778 247.492 229.408 228.356 228.932 211.032C212.199 212.952 201.258 213.951 196.422 213.951C192.592 213.951 188.774 213.571 184.971 212.817C185.89 237.638 186.507 258.442 186.821 275.224ZM183.98 190.546C197.421 188.722 212.153 186.309 228.18 183.305C227.145 156.104 225.791 134.799 224.129 119.335C203.714 123.589 189.181 126.557 180.561 128.231C181.809 150.961 182.949 171.733 183.98 190.546ZM225.309 113.981C225.302 113.983 225.295 113.984 225.288 113.986L225.309 113.981Z" fill="black"/>
</svg>
