<svg width="350" height="350" viewBox="0 0 350 350" fill="none" xmlns="http://www.w3.org/2000/svg">
<path fill-rule="evenodd" clip-rule="evenodd" d="M179.095 -54.2755C178.536 -55.4878 177.775 -56.7893 176.877 -58.1505C175.598 -60.4528 173.195 -62.3555 170.847 -63.921C168.171 -65.7054 164.629 -67.6406 160.312 -69.7266C151.827 -74.1121 144.89 -76.9596 139.887 -77.6744L139.535 -77.7246H137.422C135.995 -77.7246 134.18 -77.5727 132.549 -76.7573L131.823 -76.3944L131.25 -75.8207C130.129 -74.7 129.259 -73.2917 128.555 -71.8845L128.027 -70.8288V-69.6484C128.027 -68.7044 127.899 -66.4136 127.603 -62.5612L127.588 -62.3698V-62.1777C127.588 -59.2596 126.519 -54.2187 123.908 -46.6746L123.879 -46.5925L123.854 -46.5095C121.534 -38.9713 119.371 -32.4838 117.365 -27.0346C115.408 -22.01 112.286 -15.3257 107.944 -6.92979L96.576 14.4946L87.0843 30.8203H84.9889L77.6469 27.1493C76.3257 26.2187 74.7468 25.5517 73.1949 25.0344C71.3664 24.4249 69.1861 23.8991 66.7125 23.4352C62.1307 22.5762 58.5787 22.0312 56.5625 22.0312H55.7511L54.9814 22.2878C52.6135 23.0771 50.423 24.3808 48.8066 26.4102C47.4022 27.9513 46.7285 29.8712 46.7285 31.8652C46.7285 33.4323 47.3833 34.7945 47.6958 35.4197C48.3665 36.7609 49.7691 39.2455 51.8042 42.7342L51.8339 42.7851L51.8648 42.8353C53.785 45.9557 55.2165 49.9797 56.0182 55.0572C56.8531 60.3448 57.4255 86.8419 57.7148 94.5852V119.902L55.9603 186.048C55.6705 192.987 54.9444 204.037 53.7745 219.245C52.6004 234.509 51.5886 264.547 50.7516 269.569L50.7268 269.717L50.7111 269.867C50.1514 275.184 49.1693 280.666 47.7567 286.317C46.3004 292.142 45.4102 296.798 45.4102 299.834C45.4102 302.641 45.5655 306 45.8643 309.885C46.2361 314.718 48.5264 320.87 52.0904 327.998C53.9619 331.741 55.9658 334.904 58.1619 337.283C60.3424 339.645 63.0349 341.577 66.2874 342.119L66.6956 342.188H68.8672C70.312 342.188 71.724 341.945 73.085 341.491L73.8548 341.235L74.5039 340.748C76.8072 339.021 78.258 336.346 79.2617 333.67L79.3617 333.403L79.4308 333.127C80.0397 330.691 80.504 328.248 80.8219 325.8C81.2278 324.132 81.621 322.135 82.005 319.829L241.319 308.643L255.61 336.431L255.627 336.464C257.909 340.742 259.991 344.21 261.777 345.996L261.973 346.192L262.189 346.365C263.936 347.763 265.907 348.972 268.055 349.509L268.652 349.658H269.707C271.667 349.658 273.573 348.865 275.019 348.142C276.615 347.344 278.419 346.226 280.395 344.861C285.233 341.732 289.236 337.316 292.474 331.812L292.505 331.759L292.535 331.706C295.715 325.981 297.935 319.8 299.207 313.187C300.734 306.739 301.644 300.015 301.948 293.02L301.953 292.911V292.803C301.953 287.469 301.032 277.503 299.279 263.191C297.54 248.989 296.528 215.24 296.239 201.942L294.922 126.083V105.918C294.922 102.135 295.474 75.2159 296.647 64.9525L296.648 64.9447L296.649 64.9369C297.229 59.7171 297.801 55.5517 298.36 52.4059C298.944 49.1248 299.448 47.3512 299.764 46.6401L299.829 46.4949L299.884 46.3459C301.364 42.3498 302.502 39.0571 303.276 36.5013C303.978 34.1866 304.59 31.843 304.59 30.1074V29.668C304.59 28.0384 304.035 26.4683 303.526 25.2814C302.982 24.011 302.23 22.6027 301.328 21.0899C300.117 18.7676 298.131 16.7483 295.867 14.9698C293.525 13.129 290.576 11.3084 287.109 9.49174C280.344 5.38024 274.567 2.32394 269.84 0.429802C266.273 -1.05456 262.856 -2.13867 260.039 -2.13867H258.545L257.947 -1.98939C256.312 -1.58044 254.055 -0.683228 251.417 0.489532C248.967 1.57841 244.603 3.27306 238.211 5.59818C231.913 7.59967 226.233 9.15813 221.161 10.2851L221.146 10.2886L118.235 24.6983L133.997 7.64404C138.399 3.22605 144.433 -4.35743 152.022 -14.8655C159.705 -25.5035 164.589 -31.7364 166.885 -34.0328C169.437 -36.5844 171.363 -38.2195 172.715 -39.121C174.585 -40.3678 176.215 -41.6044 177.432 -42.8219L177.782 -43.172L178.057 -43.5839C179.122 -45.1816 179.746 -47.0327 180.118 -48.8925L180.215 -49.3779V-49.873C180.215 -51.5462 179.635 -53.1054 179.095 -54.2755ZM184.251 283.025C164.928 285.953 120.974 287.84 112.32 288.706C104.601 289.453 95.3923 290.306 84.6928 291.267L87.2006 220.752L93.0745 221.84C93.662 222.02 94.1865 222.104 94.4385 222.144L94.4719 222.149C95.0804 222.246 95.8127 222.331 96.628 222.409C98.2709 222.566 100.514 222.716 103.321 222.864L103.452 222.871H103.584C155.225 222.871 209.095 211.02 260.066 205.284L258.555 269.866V269.951C258.555 269.956 258.554 269.995 258.551 270.076C258.547 270.163 258.541 270.28 258.531 270.431C258.511 270.732 258.48 271.129 258.436 271.629C258.349 272.629 258.215 273.977 258.033 275.684C257.827 277.622 257.562 279.999 257.237 282.816L253.525 280.879L253.486 280.86C249.294 278.764 244.286 277.477 238.619 276.847L238.343 276.816H238.066C236.029 276.816 233.997 276.986 231.971 277.324L216.215 279.95L184.279 283.021L184.251 283.025ZM259.434 183.117L253.573 181.443C246.901 179.325 240.959 178.154 235.869 178.154H235.592L235.317 178.185C232.518 178.496 228.584 179.104 223.574 179.988L223.518 179.998C183.655 187.971 142.759 190.284 102.469 195.778C97.8414 196.409 93.0549 196.964 88.1093 197.443L89.5081 144.079L98.4387 145.195H99.6289C102.7 145.195 109.546 144.394 119.672 142.948L232.341 131.497C244.305 129.503 251.806 128.142 254.294 127.449C255.63 127.113 257.348 126.618 259.434 125.972V183.117ZM259.434 59.6897V103.101L257.766 102.267L257.649 102.216C252.215 99.8387 246.09 98.7207 239.385 98.7207H239.108L238.833 98.7513C236.081 99.057 232.911 99.5109 229.334 100.107C189.004 106.829 148.272 111.257 107.742 116.784L107.633 116.799L107.524 116.819C102.538 117.725 96.6276 118.637 89.7832 119.554L90.5023 56.4075L138.124 48.0793C172.715 42.8353 212 38.5 246.928 35.5469C249.648 35.55 251.697 35.7244 253.162 36.0062C254.484 36.2604 254.99 36.5391 255.076 36.5862C255.092 36.5952 255.093 36.5957 255.081 36.5858L255.223 36.7045L255.375 36.8128C256.309 37.4799 257.191 38.5884 257.818 40.5504C258.307 43.1959 258.862 49.4387 259.434 59.6897Z" fill="black"/>
</svg>
