<svg width="350" height="350" viewBox="0 0 350 350" fill="none" xmlns="http://www.w3.org/2000/svg">
<path fill-rule="evenodd" clip-rule="evenodd" d="M336.301 342.81C338.913 338.786 340.546 334.003 341.594 330.759C347.046 316.388 349.688 299.188 349.688 279.297V269.857L349.677 269.694C343.494 175.002 340.414 110.724 340.41 76.7166C340.732 62.4388 342.798 51.8869 346.249 44.6779C348.643 39.8825 350.176 35.3218 350.176 31.25C350.176 27.1413 348.773 23.4462 345.904 20.5135C343.178 17.4365 338.991 14.132 333.652 10.6004C328.179 6.97988 321.231 2.94895 312.847 -1.48925L312.727 -1.55301L312.603 -1.61011C307.73 -3.85933 302.622 -5 297.324 -5C294.299 -5 291.288 -4.62128 288.299 -3.87415C237.133 8.91729 193.117 15.4012 169.089 18.9408C163.596 19.75 159.147 20.4053 155.897 20.9469C130.383 25.1992 91.2637 28.6914 60.5159 31.4363C54.5933 31.965 48.9812 32.466 43.8368 32.9393C36.2646 27.7725 28.5887 23.9912 20.8098 21.6753C17.6399 20.2887 14.1178 20.6882 11.4403 22.0106C8.57689 23.4248 5.74219 26.4186 5.74219 30.7617C5.74219 33.4832 6.7626 36.5601 8.12626 39.6283L8.14066 39.6607L8.15552 39.6929C11.8723 47.746 14.1487 55.5424 15.0551 63.0957L15.0599 63.1357L15.0654 63.1756C15.9986 70.0193 16.4844 79.2073 16.4844 90.8203C16.4844 132.1 15.3454 163.968 13.0919 186.507C10.8561 208.22 5.90581 229.626 -1.76928 250.733L-1.80593 250.833L-1.83823 250.936C-3.89791 257.458 -5 263.513 -5 269.043C-5 271.557 -4.82064 273.951 -4.44369 276.213L-4.40304 276.457L-4.33854 276.695C-1.08106 288.748 2.37353 297.761 6.29079 302.853L6.48877 303.111L6.71837 303.34C9.35592 305.978 12.6822 308.223 16.6016 308.223C20.3832 308.223 23.2823 305.946 25.3255 303.494L25.3454 303.47L25.3649 303.446C30.2496 297.434 33.7423 289.148 36.1152 278.985C40.4132 261.128 43.0614 243.257 44.0548 225.375L44.0565 225.345L46.9867 157.949L46.9871 157.941C49.1153 112.641 51.2354 81.7598 53.3292 65.0983C68.6144 61.5945 84.3889 60.1115 100.524 58.862C102.715 58.6924 104.913 58.527 107.118 58.3611C119.884 57.4009 132.861 56.4248 145.686 54.5153C144.581 61.3865 143.657 67.9024 142.915 74.0616C138.737 96.1874 133.309 114.785 126.685 129.93C121.305 141.952 114.835 152.831 107.285 162.584L107.239 162.643L107.195 162.704C99.7335 172.963 87.8965 185.01 71.479 198.86C69.3589 200.492 67.5896 201.923 66.1977 203.141C64.8581 204.314 63.6258 205.495 62.8047 206.59L61.8047 207.923V210.078C61.8047 211.624 62.3331 213.263 63.6094 214.558C64.7696 215.736 66.1501 216.224 67.1536 216.441C69.0569 216.851 71.1465 216.606 72.8133 216.3C76.3577 215.648 80.8054 214.14 84.9425 212.552C89.1564 210.934 93.3488 209.115 96.4813 207.705C98.0521 206.997 99.3666 206.388 100.296 205.951C101.078 205.585 101.937 205.174 101.766 205.255L101.783 205.246L101.8 205.238C110.51 201.057 120.816 193.741 132.654 183.55C142.786 175.101 150.974 165.74 157.147 155.451L157.17 155.413L157.192 155.374C162.201 146.675 165.344 140.152 168.564 130.966C171.727 134.647 175.466 139.217 179.666 144.37L180.482 145.371C187.255 153.68 195.028 163.217 203.056 172.283C211.388 181.694 220.137 190.761 228.484 197.511C232.66 200.888 236.848 203.778 240.93 205.841C244.98 207.887 249.213 209.266 253.398 209.266C258.851 209.266 262.799 206.565 265.221 202.665C267.451 199.074 268.342 194.597 268.656 190.485C269.289 182.192 267.724 173.042 266.584 168.704C264.394 160.313 259.487 152.609 253.862 147.695C245.91 140.114 234.274 132.422 217.39 122.681C201.378 113.246 188.347 106.225 178.365 101.695C183.403 83.4543 187.82 66.777 190.141 47.8535C199.08 46.2311 208.229 44.1974 217.334 42.1737C222.751 40.9696 228.153 39.7689 233.484 38.6606C249.221 35.3893 264.71 32.832 279.746 32.832C283.969 32.832 288.333 34.0089 292.897 36.5714C292.999 36.6328 293.472 36.9753 294.136 38.1442C294.801 39.3145 295.501 41.0399 296.168 43.4487C297.503 48.2712 298.531 55.1753 299.172 64.3149L299.173 64.3259L299.174 64.3369C302.419 107.824 304.043 152.947 304.043 199.707C304.043 221.769 303.719 244.157 303.071 266.872C302.743 272.44 302.388 278.071 301.5 282.925C300.567 288.027 299.229 291.105 297.775 292.495C297.718 292.55 297.268 292.902 295.944 293.211C294.676 293.507 292.99 293.676 290.908 293.694C286.745 293.729 281.69 293.157 276.633 292.376C272.995 291.815 269.526 291.174 266.478 290.611L266.475 290.61C265.287 290.391 264.164 290.183 263.119 289.997C261.331 289.678 259.665 289.401 258.41 289.277C257.839 289.221 257.024 289.16 256.23 289.24C255.89 289.274 255.044 289.375 254.138 289.838C253.081 290.379 251.309 291.834 251.309 294.434C251.309 295.878 251.911 296.936 252.09 297.246C252.359 297.712 252.661 298.105 252.894 298.388C253.372 298.967 253.965 299.568 254.563 300.139C255.785 301.305 257.467 302.759 259.41 304.378C262.863 307.255 267.414 310.879 272.272 314.748L272.274 314.749L272.306 314.775C272.929 315.271 273.557 315.771 274.189 316.274C285.54 325.318 297.717 335.124 302.92 340.785L303.037 340.913L303.163 341.032C309.558 347.09 316.148 351.191 322.715 351.191C329.329 351.191 333.667 346.87 336.301 342.81ZM264.84 295.393L264.824 295.39C264.802 295.386 264.78 295.382 264.758 295.378C264.785 295.383 264.812 295.388 264.84 295.393Z" fill="black"/>
</svg>
