<svg width="350" height="350" viewBox="0 0 350 350" fill="none" xmlns="http://www.w3.org/2000/svg">
<path d="M169.526 83.486L169.441 83.5849L169.362 83.6891C168.48 84.8649 167.544 86.5098 167.544 88.463C167.544 90.763 168.811 92.4659 170.344 93.4868L170.551 93.6247L170.774 93.736C171.715 94.2061 172.776 94.4964 173.918 94.4964C175.474 94.4964 177.007 94.1122 178.456 93.5331L178.768 93.4081L179.056 93.2327C195.329 83.298 207.12 76.7562 214.546 73.4837L214.634 73.4449L214.72 73.4018C216.265 72.6301 217.706 71.7252 218.813 70.6199C219.927 69.5066 221.004 67.8709 221.004 65.7566V64.3527L220.748 63.673C219.154 59.4248 216.427 55.4678 212.744 51.7809C208.22 47.0241 203.069 44.1337 197.327 44.1337C195.162 44.1337 192.825 44.7295 191.089 46.5965C189.405 48.4083 188.917 50.7498 188.917 52.8783V54.5728C188.917 56.8061 188.421 58.8072 187.45 60.6421C183.507 66.5262 177.554 74.1296 169.526 83.486Z" fill="black"/>
<path d="M213.334 141.888L213.18 141.77L213.015 141.667C208.966 139.139 203.388 136.873 196.467 134.797C188.212 132.194 181.845 130.462 177.488 129.684C176.927 129.45 176.142 129.198 175.275 129.198C173.66 129.198 171.913 129.837 170.749 131.465C169.762 132.845 169.579 134.424 169.579 135.57C169.579 139.397 171.089 142.723 174.285 144.912C183.123 151.762 192.663 160.18 202.905 170.183C206.25 173.971 210.045 176.821 214.297 177.175L214.463 177.189H214.629C217.722 177.189 220.214 175.59 222.075 173.421L222.232 173.238L222.366 173.037C223.807 170.877 224.396 168.36 224.396 165.733C224.396 162.334 223.424 158.317 221.774 153.843L221.755 153.791L221.735 153.74C219.74 148.758 216.994 144.701 213.334 141.888Z" fill="black"/>
<path d="M111.427 94.6913L111.492 94.7723L111.561 94.8499C115.345 99.1028 119.527 102.268 124.081 102.618L124.234 102.63H125.066C127.33 102.63 129.553 102.054 131.421 100.603C133.275 99.1625 134.397 97.1567 135.018 94.9854L135.036 94.9212L135.053 94.8565C135.356 93.6451 135.512 92.4153 135.512 91.1742C135.512 88.2715 134.791 85.1709 133.548 81.9423L133.493 81.7979L133.426 81.6583C130.793 76.1343 126.599 71.7286 121.024 68.4306C112.3 63.069 105.715 59.5802 101.669 58.5023L101.163 58.3675H99.6217C97.955 58.3675 96.3502 58.9649 95.0984 60.2155C93.9501 61.3626 93.354 62.8024 93.0273 64.1077L92.9076 64.5858V66.4344C92.9076 68.7908 93.59 71.0119 95.059 72.8959C100.509 80.6057 105.965 87.8713 111.427 94.6913Z" fill="black"/>
<path fill-rule="evenodd" clip-rule="evenodd" d="M7.07031 23.8398H6.95277L6.83542 23.8467C3.88081 24.0205 0.999034 24.7862 -1.1792 26.7082C-3.48192 28.74 -4.40039 31.5251 -4.40039 34.4316C-4.40039 35.1879 -4.21448 35.8573 -4.1027 36.2237C-3.96696 36.6687 -3.789 37.1351 -3.59577 37.5967C-3.20763 38.5239 -2.65938 39.6641 -1.98 40.9852C-0.632974 43.6044 1.34954 47.1653 3.94639 51.6415C7.72829 60.0915 9.66211 69.7115 9.66211 80.5742V204.939C9.66211 238.668 8.21433 270.639 5.32245 300.856C1.57235 313.606 -0.445312 323.477 -0.445312 330.184C-0.445312 335.573 1.98874 342.588 6.12932 350.869L6.1401 350.89L6.15113 350.912C8.68405 355.829 11.0183 359.718 13.1569 362.432C14.2236 363.786 15.347 364.984 16.5355 365.876C17.6888 366.741 19.2585 367.582 21.1328 367.582C25.5506 367.582 28.9237 365.02 31.2981 361.367C33.2628 358.345 34.7591 354.296 35.9076 349.427C39.9922 350.522 44.1569 351.293 48.3996 351.74L48.6084 351.762H48.8184C54.9151 351.762 64.47 351.007 77.3557 349.543C105.424 346.912 140.228 344.134 181.775 341.208C203.992 340.083 228.525 339.364 255.375 339.052C259.6 354.754 263.374 366.789 266.701 375.071C268.459 379.447 270.167 382.967 271.849 385.458C272.688 386.701 273.628 387.851 274.698 388.726C275.758 389.593 277.25 390.434 279.092 390.434C284.736 390.434 289.406 386.925 293.192 381.77C296.995 376.592 300.409 369.111 303.536 359.588C311.005 338.067 314.732 315.514 314.732 291.951C314.732 288.603 313.258 255.921 310.334 194.211C307.696 135.293 306.383 98.482 306.383 83.6504C306.383 68.4596 308.538 56.3165 312.634 47.0325L312.745 46.7811L312.821 46.5169C313.997 42.3995 314.89 39.1276 315.492 36.7201C315.792 35.5192 316.029 34.4986 316.193 33.678C316.336 32.9638 316.49 32.0928 316.49 31.3555C316.49 29.1968 315.627 27.1862 314.519 25.4451C313.389 23.6691 311.801 21.8555 309.876 20.0093C306.025 16.3154 300.404 12.0931 293.144 7.35209L292.952 7.22633L292.746 7.12346C286.218 3.85967 280.566 1.36615 275.815 -0.319516C271.139 -1.97887 267.036 -2.9668 263.711 -2.9668C259.44 -2.9668 253.95 -1.434 247.515 1.18021C235.152 4.31898 215.52 7.64108 188.492 11.1286L188.471 11.1314L33.012 32.9043C31.1857 31.8102 28.9329 30.6669 26.3036 29.4718L26.2883 29.4649L26.273 29.458C18.3407 25.9326 11.8 23.8398 7.07031 23.8398ZM144.655 213.111C144.556 213.119 144.457 213.127 144.358 213.134C144.347 213.135 144.336 213.136 144.325 213.137C144.435 213.128 144.545 213.12 144.655 213.111ZM247.891 308.605C239.624 308.605 231.179 308.981 222.554 309.73C222.374 309.149 222.18 308.557 221.973 307.956C220.658 304.134 218.72 299.629 216.194 294.467C213.244 288.317 208.2 283.768 201.428 280.738L176.83 268.16C182.101 259.096 186.566 249.588 190.225 239.638L190.246 239.581L190.265 239.524C192.518 232.773 194.53 227.943 196.266 224.834C202.274 224.475 208.282 224.296 214.29 224.296H214.315L214.34 224.296C232.218 224.07 243.158 223.957 247.197 223.957H247.302L247.407 223.952C249.737 223.829 251.878 223.514 253.652 222.869C255.382 222.241 257.375 221.065 258.337 218.823L258.402 218.67L258.455 218.512C258.748 217.634 259 216.609 259 215.551C259 211.875 256.532 208.926 253.8 206.693L253.753 206.655L253.705 206.618C247.69 201.996 242.299 198.746 237.605 197.183L237.547 197.164L237.489 197.147C234.836 196.352 232.073 195.962 229.217 195.962C227.443 195.962 225.671 196.088 223.902 196.341L223.835 196.35L223.768 196.362C213.952 198.106 202.754 199.956 190.17 201.914L185.735 199.698L185.58 199.636C181.787 198.121 178.004 197.317 174.258 197.317C172.858 197.317 171.465 197.457 170.081 197.734L170.04 197.742L169.998 197.751C168.463 198.092 166.842 198.79 165.603 200.165C164.311 201.599 163.812 203.35 163.812 205.045C163.812 205.401 163.839 205.759 163.888 206.115C160.319 206.809 156.811 207.39 153.362 207.86L153.24 207.877L153.119 207.901C152.331 208.058 151.543 208.203 150.756 208.335C151.956 206.118 153.055 204.364 154.048 203.041L154.115 202.952L154.176 202.86C155.43 200.982 156.206 198.867 156.206 196.573C156.206 195.442 156.016 194.337 155.661 193.273L155.648 193.233L155.633 193.193C154.734 190.678 152.702 188.275 150.259 186.012C150.03 185.801 149.795 185.588 149.553 185.373C150.168 185.557 150.826 185.661 151.528 185.661C153.497 185.661 155.334 185.058 156.917 183.892C161.474 180.699 162.991 174.906 162.991 168.444V146.019L162.989 145.962C162.799 139.298 162.689 132.961 162.66 126.951C168.752 125.709 174.927 124.71 181.184 123.952L181.278 123.941L181.371 123.925C194.671 121.673 206.712 119.875 217.499 118.528L217.58 118.518L217.66 118.504C219.921 118.128 222.095 117.498 223.801 116.363C225.673 115.116 227.11 113.131 227.11 110.492V110.153C227.11 107.56 225.783 105.48 224.167 103.947C222.628 102.486 220.565 101.254 218.206 100.175C216.057 98.8711 213.429 97.7811 210.419 96.8534C207.968 96.0428 205.406 95.6468 202.755 95.6468C200.422 95.6468 198.172 95.9059 196.018 96.4438L195.925 96.4671L195.833 96.4949C185.195 99.703 174.469 102.37 163.654 104.498C164.252 95.9819 164.929 87.9492 165.684 80.3989C166.295 74.5043 168.454 68.0132 172.34 60.8955L172.374 60.8328L172.406 60.7689C173.012 59.5598 173.508 58.1354 173.508 56.6062C173.508 53.395 171.668 50.8178 169.456 48.876C164.783 44.6364 159.779 41.2903 154.445 38.8787C206.062 32.9988 239.938 30.082 256.24 30.082C259.375 30.082 262.3 31.2685 265.126 34.0349C269.135 39.1163 271.576 48.2951 271.576 62.5566V62.6904L271.585 62.8239C275.974 128.359 278.461 197.123 279.047 269.117C279.045 277.569 277.917 288.711 275.603 302.613C274.476 307.666 273.195 311.756 271.805 314.963C271.165 314.5 270.491 314.049 269.786 313.608L269.592 313.487L269.386 313.389C262.679 310.195 255.497 308.605 247.891 308.605ZM144.129 180.831C144.236 180.992 144.348 181.154 144.464 181.316C143.142 180.35 141.711 179.355 140.175 178.332L140.126 178.299L140.076 178.268C137.746 176.814 135.213 175.967 132.529 175.967C131.399 175.967 130.294 176.156 129.23 176.51L129.072 176.563L128.919 176.628C127.612 177.188 126.355 178.056 125.437 179.366C124.503 180.698 124.119 182.207 124.119 183.695C124.119 185.223 124.491 186.729 125.054 188.154C126.013 190.862 126.494 193.661 126.494 196.573C126.494 197.89 126.405 199.21 126.225 200.533C125.151 204.637 124.079 208.444 123.011 211.956C105.278 214.518 86.717 216.875 67.3283 219.027C65.9039 219.16 64.3433 219.451 63.0191 220.173C61.4954 221.003 60 222.62 60 225.041C60 226.595 60.648 227.901 61.2201 228.799C61.8193 229.74 62.6128 230.659 63.4951 231.546C66.8519 235.14 70.7109 237.577 75.0902 238.452C77.6048 238.955 80.129 239.208 82.659 239.208C84.4301 239.208 86.1225 239.081 87.7262 238.814L87.836 238.796L87.9446 238.772C96.7736 236.792 105.97 234.955 115.535 233.262C113.824 237.083 112.14 240.288 110.489 242.898L110.452 242.958L110.416 243.019C108.608 246.115 107.496 249.3 107.496 252.492C107.496 253.603 107.679 254.688 108.022 255.735C109.29 259.862 112.882 261.925 116.822 262.783C124.638 265.73 132.476 269.465 140.337 273.998C136.587 277.522 132.545 280.48 128.214 282.884L128.196 282.894L128.179 282.904C117.173 289.155 99.6635 295.04 75.3463 300.439L75.0299 300.509L74.7289 300.629C73.5361 301.106 72.4537 301.595 71.6123 302.099C71.2052 302.343 70.679 302.693 70.2057 303.166C69.8449 303.526 68.8206 304.634 68.8206 306.377C68.8206 308.155 69.8229 309.335 70.514 309.919C71.1877 310.489 71.9339 310.83 72.4885 311.043C73.6308 311.482 75.0728 311.787 76.6233 312.025L76.6792 312.034L76.7353 312.041C82.3194 312.738 87.8 313.088 93.1758 313.088C101.36 313.088 109.433 312.271 117.39 310.634L117.463 310.619L117.535 310.601C129.001 307.796 139.465 303.458 148.896 297.57L148.964 297.527L149.03 297.483C153.21 294.635 157.094 291.55 160.677 288.228C169.375 294.815 179.261 303.247 190.344 313.546C150.111 318.434 114.832 322.212 84.5029 324.881L84.4914 324.882C69.7538 326.221 54.1424 327.193 37.6558 327.794C38.1336 317.998 38.4998 307.104 38.755 295.112L38.7559 295.07V127.156C38.7559 106.444 40.3763 81.881 43.6344 53.445C56.3719 52.0018 81.0094 48.5914 117.465 43.2305C123.176 42.5397 128.723 41.8763 134.106 41.2403C133.596 42.1299 133.279 43.1766 133.279 44.4057C133.279 46.2706 133.955 47.9185 134.934 49.2949C139.62 57.5256 142.09 68.0005 142.099 80.9296C141.701 91.1077 141.477 100.333 141.43 108.604C133.178 110.332 125.469 111.792 118.302 112.985L118.248 112.994L118.194 113.005C109.006 114.796 99.3601 116.365 89.2552 117.71L89.1267 117.728L88.9996 117.753C87.1383 118.125 85.3403 118.658 83.9103 119.515C82.4606 120.384 80.6945 122.058 80.6945 124.726C80.6945 126.586 81.6757 128.03 82.3633 128.87C83.1401 129.818 84.1632 130.734 85.2936 131.612L85.3213 131.634L85.3494 131.655C88.2205 133.806 91.2157 135.721 94.3343 137.399L94.4911 137.483L94.6548 137.553C96.8175 138.479 99.1774 138.893 101.657 138.893C103.798 138.893 106.013 138.625 108.291 138.12L108.324 138.112L108.357 138.105C109.288 137.881 110.228 137.658 111.175 137.435C110.683 138.538 110.549 139.681 110.549 140.654V141.671C110.549 142.284 110.424 143.215 110.055 144.528C108.56 148.776 106.881 152.423 105.036 155.501C102.429 159.621 99.8689 163.016 97.366 165.725C94.6258 168.672 89.6101 173.155 82.1631 179.242L82.0087 179.368L81.8675 179.509C81.4728 179.903 81.067 180.339 80.7324 180.785C80.5662 181.006 80.3517 181.316 80.1634 181.692C80.0077 182.003 79.6767 182.731 79.6767 183.695C79.6767 184.508 79.8919 185.399 80.4344 186.211C80.96 186.999 81.6413 187.488 82.2286 187.781C83.2901 188.312 84.3774 188.372 85.0337 188.372C86.6512 188.372 88.6706 187.829 90.7078 187.151L90.8417 187.106L100.981 182.915L101.144 182.829C105.683 180.442 110.185 177.479 114.651 173.957L114.748 173.881L114.84 173.799C119.24 169.865 124.857 164.365 131.67 157.332L131.774 157.225L131.869 157.111C132.232 156.677 132.513 156.354 132.723 156.125L133.33 155.64C135.337 154.037 136.529 151.79 136.529 149.126V148.566L136.375 148.027C135.728 145.764 134.486 143.683 132.851 141.777L132.813 141.733L132.774 141.69C130.25 138.917 127.51 136.781 124.514 135.584L124.325 135.508L124.128 135.452C123.455 135.26 122.801 135.081 122.168 134.919C128.006 133.621 134.107 132.323 140.471 131.024C139.693 145.236 139.007 155.326 138.414 161.343C138.146 162.531 138.028 163.776 138.028 165.055C138.028 168.125 138.951 171.063 140.59 173.818C141.892 176.205 142.959 178.343 143.802 180.237L143.94 180.548L144.129 180.831ZM75.2886 303.546C75.2886 303.546 75.2973 303.549 75.3111 303.556C75.2948 303.549 75.2886 303.546 75.2886 303.546ZM145.421 229.041H145.69L145.956 229.005C152.556 228.114 159.156 227.364 165.756 226.757C164.992 230.635 163.861 234.922 162.345 239.628C159.775 246.213 156.92 252.06 153.79 257.188C146.282 253.683 139.694 251.162 134.06 249.685C132.934 249.266 132.425 248.869 132.229 248.659C132.199 248.627 132.178 248.601 132.163 248.581C132.156 248.571 132.15 248.562 132.146 248.556C132.138 248.543 132.133 248.535 132.131 248.531L132.129 248.527C132.129 248.527 132.127 248.521 132.125 248.511C132.124 248.503 132.121 248.489 132.12 248.465C132.119 248.454 132.119 248.44 132.119 248.425C132.119 247.965 132.275 247.182 132.948 246.005L133.043 245.84L133.121 245.667C135.899 239.521 138.252 234.138 140.176 229.521C141.932 229.2 143.679 229.041 145.421 229.041Z" fill="black"/>
</svg>
