<svg width="350" height="350" viewBox="0 0 350 350" fill="none" xmlns="http://www.w3.org/2000/svg">
<path d="M95.3477 192.578L204.088 170.166L236.461 162.695C239.781 162.142 242.825 161.865 245.592 161.865C250.572 161.865 253.616 162.695 254.723 164.355C255.829 166.016 256.383 168.506 256.383 171.826C256.383 173.486 256.106 175.7 255.553 178.467C253.893 185.661 250.019 197.005 243.932 212.5L225.67 261.475C219.583 276.969 211.282 294.401 200.768 313.77L177.525 356.934C171.438 366.341 165.904 374.365 160.924 381.006L150.963 393.457C148.749 395.671 147.643 397.884 147.643 400.098C147.643 400.651 147.919 401.204 148.473 401.758C149.026 402.865 149.856 403.418 150.963 403.418C153.176 403.418 155.943 402.311 159.264 400.098L172.545 391.797C181.399 386.816 189.423 381.283 196.617 375.195C203.811 369.108 213.495 358.594 225.67 343.652C237.844 328.158 247.529 314.323 254.723 302.148C262.47 289.974 271.324 273.649 281.285 253.174C290.693 232.699 297.61 218.587 302.037 210.84C306.464 202.539 310.338 195.898 313.658 190.918C316.425 186.491 319.192 182.894 321.959 180.127L331.92 170.996C334.687 168.229 336.07 164.909 336.07 161.035V159.375C336.07 154.948 333.857 150.798 329.43 146.924C324.449 143.05 316.979 138.07 307.018 131.982C297.057 125.895 289.586 121.745 284.605 119.531C279.625 117.318 275.475 116.211 272.154 116.211C269.941 116.211 265.514 117.594 258.873 120.361C252.786 123.128 246.145 125.342 238.951 127.002L204.088 134.473L167.564 144.434C158.71 146.647 145.982 148.861 129.381 151.074L74.5957 157.715L24.791 162.695C19.2572 163.249 15.9368 164.355 14.8301 166.016C14.2767 167.122 14 168.229 14 169.336C14 170.443 14.5534 172.103 15.6602 174.316C17.3203 177.637 20.9173 180.957 26.4512 184.277C31.985 187.598 38.0723 190.641 44.7129 193.408C51.3535 196.175 56.334 197.559 59.6543 197.559H61.3145C66.2949 197.559 77.6393 195.898 95.3477 192.578Z" fill="black"/>
<path d="M192.467 20.8301C185.826 21.9368 176.142 24.4271 163.414 28.3008L82.8965 45.7324C80.6829 46.2858 79.5762 47.946 79.5762 50.7129V52.373C79.5762 55.6934 82.3431 58.737 87.877 61.5039C93.4108 63.7174 98.3913 65.3776 102.818 66.4844C108.352 67.5911 114.993 68.1445 122.74 68.1445H126.891C136.298 68.1445 150.41 66.7611 169.225 63.9941L210.729 58.1836L233.971 54.0332C240.611 53.4798 245.592 52.0964 248.912 49.8828C252.786 47.6693 254.999 45.4557 255.553 43.2422C255.553 40.4753 254.446 37.7083 252.232 34.9414C250.019 32.1745 245.038 29.4076 237.291 26.6406C228.437 23.8737 220.966 21.9368 214.879 20.8301C211.559 20.2767 207.962 20 204.088 20C200.214 20 196.34 20.2767 192.467 20.8301Z" fill="black"/>
</svg>
