<svg width="350" height="350" viewBox="0 0 350 350" fill="none" xmlns="http://www.w3.org/2000/svg">
<path d="M167.051 -10.9991L167.022 -11H166.992C163.451 -11 160.679 -10.8544 158.753 -10.5333C157.81 -10.3761 156.917 -10.1538 156.21 -9.80008C155.58 -9.48529 154.445 -8.71597 154.445 -7.24219C154.445 -6.60874 154.698 -5.96211 154.869 -5.5555C155.082 -5.04763 155.382 -4.43879 155.752 -3.74544C156.496 -2.35313 157.593 -0.489313 159.029 1.83054C161.906 6.47725 166.207 13.0572 171.924 21.5594L171.937 21.5777L171.949 21.5957C178.297 30.6012 184.26 37.5871 189.842 42.4904C192.645 44.952 195.392 46.9243 198.08 48.3597C172.809 52.6225 141.238 57.1254 103.357 61.8679C102.125 61.0281 100.515 60.1188 98.5644 59.14C89.6412 53.2095 81.3771 50.084 73.8281 50.084C72.0339 50.084 70.3268 50.3996 69.0263 51.3454C67.6074 52.3773 66.9941 53.9162 66.9941 55.5996C66.9941 56.9751 67.6281 58.6938 68.5095 60.53C69.4255 62.4384 70.7693 64.7874 72.5176 67.5605C78.2344 79.3107 81.0566 90.6984 81.0566 101.742C81.0566 147.499 73.0428 192.237 57.0089 235.966L57.0048 235.977C42.4074 276.558 26.4183 306.289 9.11306 325.346C5.60976 328.705 2.94449 331.406 1.1419 333.433C0.240134 334.448 -0.481987 335.334 -0.990278 336.076C-1.24366 336.445 -1.47249 336.82 -1.64484 337.186C-1.79863 337.513 -2 338.022 -2 338.607C-2 340.522 -0.454298 341.443 0.685904 341.823C1.87748 342.22 3.45726 342.365 5.27344 342.365C9.11049 342.365 13.5538 340.436 18.4851 337.074C23.472 333.674 29.2159 328.627 35.7074 321.988L35.7448 321.95L35.7802 321.909C57.0868 297.644 74.7746 265.321 88.8947 225.024C103.999 183.773 111.923 136.003 112.712 81.7468C116.21 82.3486 119.802 82.6484 123.486 82.6484C131.591 82.6484 142.42 81.1552 155.913 78.2252C177.652 75.2851 221.302 68.3999 286.833 57.5756C294.893 56.3801 303.371 54.1453 312.261 50.8856L312.366 50.8469L312.467 50.7967C317.113 48.4737 319.809 44.8204 320.159 39.9218L320.174 39.7147L320.146 39.5091C319.552 35.1529 315.953 32.2982 310.793 30.5268C305.587 28.7397 298.197 27.8197 288.752 27.6721L288.736 27.6719H288.721C283.106 27.6719 274.2 29.6699 262.188 33.4783L262.182 33.4805L262.175 33.4827C251.85 36.8383 237.925 40.437 220.377 44.2762C221.62 41.6691 222.166 38.3327 222.166 34.5059C222.166 28.0253 220.621 21.5807 217.577 15.189L217.563 15.16L217.549 15.1315C212.625 5.59175 204.773 -1.31095 194.12 -5.57618C186.238 -8.90808 177.202 -10.7006 167.051 -10.9991Z" fill="black" stroke="black" stroke-width="4"/>
<mask id="path-2-outside-1_2794_1266" maskUnits="userSpaceOnUse" x="66.0098" y="85.7383" width="290" height="270" fill="black">
<rect fill="white" x="66.0098" y="85.7383" width="290" height="270"/>
<path d="M206.29 125.814L230.954 148.936L252.268 169.017L271.147 184.229C278.454 189.908 285.864 194.979 293.374 199.441C300.885 203.903 307.077 207.25 311.948 209.481C316.82 211.712 325.651 215.465 338.439 220.738L347.574 224.389C349.198 225.201 350.01 226.113 350.01 227.127C349.807 228.142 348.589 228.953 346.356 229.561L340.266 231.083C338.236 231.894 335.09 232.502 330.827 232.908L314.993 235.038C309.918 235.849 305.757 236.255 302.509 236.255H300.682C297.231 236.255 293.983 235.849 290.939 235.038C288.097 234.226 285.153 232.604 282.108 230.17C279.266 227.533 276.019 223.882 272.365 219.217L255.009 197.616L237.653 176.318L221.21 156.847L209.944 144.373L201.418 135.55L184.976 159.889C179.901 167.191 173.101 175.913 164.575 186.054C156.049 195.79 148.437 203.701 141.738 209.785C135.039 215.87 127.63 221.752 119.51 227.432C111.391 233.111 104.489 237.472 98.8049 240.514C93.3241 243.557 88.2493 245.889 83.5804 247.512L75.6637 250.25C74.8517 250.453 74.1412 250.554 73.5322 250.554C72.9232 250.554 72.4158 250.351 72.0098 249.946V249.033C72.0098 248.425 72.4158 247.715 73.2277 246.903L81.1445 241.731C85.8133 238.689 92.1062 233.821 100.023 227.127C107.737 220.434 114.537 214.146 120.424 208.264C126.311 202.179 131.893 195.993 137.171 189.705L154.222 168.408C160.312 160.701 164.676 154.818 167.315 150.762C169.954 146.705 172.999 141.635 176.45 135.55C179.698 129.87 181.931 125.408 183.149 122.163C184.367 118.918 185.077 116.484 185.28 114.861C185.686 113.238 186.092 111.007 186.498 108.168C186.904 105.734 187.107 104.111 187.107 103.3L187.412 95.3892C187.615 93.9694 188.122 92.9553 188.934 92.3468C189.543 91.9411 190.355 91.7383 191.37 91.7383H192.588C193.806 91.7383 195.531 92.3468 197.764 93.5638C199.794 94.3751 202.433 96.0991 205.681 98.7359C209.132 101.17 211.669 103.3 213.293 105.125C214.917 107.153 215.729 108.776 215.729 109.993C215.729 111.413 215.425 112.63 214.816 113.644C214.613 114.252 213.699 115.469 212.075 117.295C210.452 118.918 209.132 120.642 208.117 122.467L206.29 125.814ZM160.617 339.394L159.703 344.87C158.891 347.71 157.876 349.333 156.658 349.738H155.745C154.73 349.738 153.816 349.434 153.004 348.826C151.38 347.811 149.959 345.986 148.741 343.349C147.523 340.509 146.914 337.974 146.914 335.743L142.043 287.672L140.825 281.283C140.216 279.255 139.404 277.328 138.389 275.502C137.577 273.474 136.359 271.851 134.735 270.635C133.111 269.012 131.994 267.693 131.385 266.679C131.182 266.476 131.081 266.172 131.081 265.767C131.081 265.158 131.487 264.448 132.299 263.637C132.908 262.826 133.923 262.42 135.344 262.42C135.953 262.42 136.663 262.521 137.475 262.724L144.479 263.941C146.914 264.55 148.538 265.057 149.35 265.462L154.222 267.592C159.906 267.186 164.575 266.781 168.229 266.375C172.289 265.969 178.886 264.955 188.021 263.333C197.358 261.71 205.58 260.189 212.684 258.769C219.992 257.349 226.691 255.726 232.781 253.901C238.871 252.076 242.423 251.061 243.438 250.859C244.25 250.656 244.96 250.554 245.569 250.554H246.483C248.107 250.554 250.137 251.061 252.573 252.076C255.212 253.293 258.054 254.814 261.098 256.639C264.143 258.262 266.884 260.29 269.32 262.724C271.35 264.55 272.365 266.274 272.365 267.896V268.809C272.365 270.026 271.35 271.649 269.32 273.677L265.057 280.066C263.839 281.892 262.621 284.224 261.403 287.064C260.185 289.701 258.054 295.988 255.009 305.927L249.528 322.965C251.152 324.182 252.674 325.196 254.095 326.007C255.719 327.224 256.531 328.238 256.531 329.05V330.875C256.125 331.281 255.516 331.686 254.704 332.092C253.892 332.498 252.471 332.701 250.441 332.701H238.262L160.617 339.394ZM160.008 326.92C167.112 326.109 176.146 325.196 187.107 324.182C198.069 322.965 206.595 321.951 212.684 321.139C218.774 320.328 222.53 319.922 223.951 319.922L229.736 319.314C231.36 313.229 232.375 309.274 232.781 307.448L235.521 294.974L238.566 280.675C239.175 277.632 239.48 274.995 239.48 272.764C239.277 271.75 239.074 270.939 238.871 270.33C238.465 269.722 238.059 269.215 237.653 268.809C237.044 268.403 236.13 267.896 234.912 267.288C233.491 266.679 231.563 266.375 229.127 266.375C227.097 266.375 224.052 266.679 219.992 267.288L189.543 271.851L155.44 278.545C155.846 281.587 156.252 284.224 156.658 286.455C156.861 288.484 157.267 293.351 157.876 301.059L159.094 315.663L160.008 326.92ZM223.342 224.998L192.588 229.257L171.883 231.083C166.199 231.894 162.748 232.3 161.53 232.3H158.181C156.151 232.3 154.527 232.198 153.309 231.995C151.482 231.387 150.162 230.981 149.35 230.778C148.335 230.576 147.117 230.068 145.697 229.257C144.276 228.446 143.159 227.533 142.347 226.519C141.738 225.708 141.434 224.998 141.434 224.389V223.781C141.637 222.969 142.144 222.361 142.956 221.955C143.362 221.752 144.174 221.651 145.392 221.651H146.61C147.625 221.651 148.843 221.55 150.264 221.347L162.139 220.13C164.981 219.724 170.868 218.71 179.799 217.087L198.678 213.436C203.55 212.625 208.117 211.611 212.38 210.394C216.643 209.177 219.18 208.467 219.992 208.264C220.804 208.061 221.413 207.96 221.819 207.96H223.037C224.661 207.96 226.488 208.264 228.518 208.873C230.954 209.887 233.999 211.307 237.653 213.132C240.698 214.958 242.22 216.58 242.22 218V218.913C242.017 219.318 241.713 219.826 241.307 220.434C240.901 221.043 239.48 221.55 237.044 221.955L223.342 224.998Z"/>
</mask>
<path d="M206.29 125.814L230.954 148.936L252.268 169.017L271.147 184.229C278.454 189.908 285.864 194.979 293.374 199.441C300.885 203.903 307.077 207.25 311.948 209.481C316.82 211.712 325.651 215.465 338.439 220.738L347.574 224.389C349.198 225.201 350.01 226.113 350.01 227.127C349.807 228.142 348.589 228.953 346.356 229.561L340.266 231.083C338.236 231.894 335.09 232.502 330.827 232.908L314.993 235.038C309.918 235.849 305.757 236.255 302.509 236.255H300.682C297.231 236.255 293.983 235.849 290.939 235.038C288.097 234.226 285.153 232.604 282.108 230.17C279.266 227.533 276.019 223.882 272.365 219.217L255.009 197.616L237.653 176.318L221.21 156.847L209.944 144.373L201.418 135.55L184.976 159.889C179.901 167.191 173.101 175.913 164.575 186.054C156.049 195.79 148.437 203.701 141.738 209.785C135.039 215.87 127.63 221.752 119.51 227.432C111.391 233.111 104.489 237.472 98.8049 240.514C93.3241 243.557 88.2493 245.889 83.5804 247.512L75.6637 250.25C74.8517 250.453 74.1412 250.554 73.5322 250.554C72.9232 250.554 72.4158 250.351 72.0098 249.946V249.033C72.0098 248.425 72.4158 247.715 73.2277 246.903L81.1445 241.731C85.8133 238.689 92.1062 233.821 100.023 227.127C107.737 220.434 114.537 214.146 120.424 208.264C126.311 202.179 131.893 195.993 137.171 189.705L154.222 168.408C160.312 160.701 164.676 154.818 167.315 150.762C169.954 146.705 172.999 141.635 176.45 135.55C179.698 129.87 181.931 125.408 183.149 122.163C184.367 118.918 185.077 116.484 185.28 114.861C185.686 113.238 186.092 111.007 186.498 108.168C186.904 105.734 187.107 104.111 187.107 103.3L187.412 95.3892C187.615 93.9694 188.122 92.9553 188.934 92.3468C189.543 91.9411 190.355 91.7383 191.37 91.7383H192.588C193.806 91.7383 195.531 92.3468 197.764 93.5638C199.794 94.3751 202.433 96.0991 205.681 98.7359C209.132 101.17 211.669 103.3 213.293 105.125C214.917 107.153 215.729 108.776 215.729 109.993C215.729 111.413 215.425 112.63 214.816 113.644C214.613 114.252 213.699 115.469 212.075 117.295C210.452 118.918 209.132 120.642 208.117 122.467L206.29 125.814ZM160.617 339.394L159.703 344.87C158.891 347.71 157.876 349.333 156.658 349.738H155.745C154.73 349.738 153.816 349.434 153.004 348.826C151.38 347.811 149.959 345.986 148.741 343.349C147.523 340.509 146.914 337.974 146.914 335.743L142.043 287.672L140.825 281.283C140.216 279.255 139.404 277.328 138.389 275.502C137.577 273.474 136.359 271.851 134.735 270.635C133.111 269.012 131.994 267.693 131.385 266.679C131.182 266.476 131.081 266.172 131.081 265.767C131.081 265.158 131.487 264.448 132.299 263.637C132.908 262.826 133.923 262.42 135.344 262.42C135.953 262.42 136.663 262.521 137.475 262.724L144.479 263.941C146.914 264.55 148.538 265.057 149.35 265.462L154.222 267.592C159.906 267.186 164.575 266.781 168.229 266.375C172.289 265.969 178.886 264.955 188.021 263.333C197.358 261.71 205.58 260.189 212.684 258.769C219.992 257.349 226.691 255.726 232.781 253.901C238.871 252.076 242.423 251.061 243.438 250.859C244.25 250.656 244.96 250.554 245.569 250.554H246.483C248.107 250.554 250.137 251.061 252.573 252.076C255.212 253.293 258.054 254.814 261.098 256.639C264.143 258.262 266.884 260.29 269.32 262.724C271.35 264.55 272.365 266.274 272.365 267.896V268.809C272.365 270.026 271.35 271.649 269.32 273.677L265.057 280.066C263.839 281.892 262.621 284.224 261.403 287.064C260.185 289.701 258.054 295.988 255.009 305.927L249.528 322.965C251.152 324.182 252.674 325.196 254.095 326.007C255.719 327.224 256.531 328.238 256.531 329.05V330.875C256.125 331.281 255.516 331.686 254.704 332.092C253.892 332.498 252.471 332.701 250.441 332.701H238.262L160.617 339.394ZM160.008 326.92C167.112 326.109 176.146 325.196 187.107 324.182C198.069 322.965 206.595 321.951 212.684 321.139C218.774 320.328 222.53 319.922 223.951 319.922L229.736 319.314C231.36 313.229 232.375 309.274 232.781 307.448L235.521 294.974L238.566 280.675C239.175 277.632 239.48 274.995 239.48 272.764C239.277 271.75 239.074 270.939 238.871 270.33C238.465 269.722 238.059 269.215 237.653 268.809C237.044 268.403 236.13 267.896 234.912 267.288C233.491 266.679 231.563 266.375 229.127 266.375C227.097 266.375 224.052 266.679 219.992 267.288L189.543 271.851L155.44 278.545C155.846 281.587 156.252 284.224 156.658 286.455C156.861 288.484 157.267 293.351 157.876 301.059L159.094 315.663L160.008 326.92ZM223.342 224.998L192.588 229.257L171.883 231.083C166.199 231.894 162.748 232.3 161.53 232.3H158.181C156.151 232.3 154.527 232.198 153.309 231.995C151.482 231.387 150.162 230.981 149.35 230.778C148.335 230.576 147.117 230.068 145.697 229.257C144.276 228.446 143.159 227.533 142.347 226.519C141.738 225.708 141.434 224.998 141.434 224.389V223.781C141.637 222.969 142.144 222.361 142.956 221.955C143.362 221.752 144.174 221.651 145.392 221.651H146.61C147.625 221.651 148.843 221.55 150.264 221.347L162.139 220.13C164.981 219.724 170.868 218.71 179.799 217.087L198.678 213.436C203.55 212.625 208.117 211.611 212.38 210.394C216.643 209.177 219.18 208.467 219.992 208.264C220.804 208.061 221.413 207.96 221.819 207.96H223.037C224.661 207.96 226.488 208.264 228.518 208.873C230.954 209.887 233.999 211.307 237.653 213.132C240.698 214.958 242.22 216.58 242.22 218V218.913C242.017 219.318 241.713 219.826 241.307 220.434C240.901 221.043 239.48 221.55 237.044 221.955L223.342 224.998Z" fill="black"/>
<path d="M206.29 125.814L230.954 148.936L252.268 169.017L271.147 184.229C278.454 189.908 285.864 194.979 293.374 199.441C300.885 203.903 307.077 207.25 311.948 209.481C316.82 211.712 325.651 215.465 338.439 220.738L347.574 224.389C349.198 225.201 350.01 226.113 350.01 227.127C349.807 228.142 348.589 228.953 346.356 229.561L340.266 231.083C338.236 231.894 335.09 232.502 330.827 232.908L314.993 235.038C309.918 235.849 305.757 236.255 302.509 236.255H300.682C297.231 236.255 293.983 235.849 290.939 235.038C288.097 234.226 285.153 232.604 282.108 230.17C279.266 227.533 276.019 223.882 272.365 219.217L255.009 197.616L237.653 176.318L221.21 156.847L209.944 144.373L201.418 135.55L184.976 159.889C179.901 167.191 173.101 175.913 164.575 186.054C156.049 195.79 148.437 203.701 141.738 209.785C135.039 215.87 127.63 221.752 119.51 227.432C111.391 233.111 104.489 237.472 98.8049 240.514C93.3241 243.557 88.2493 245.889 83.5804 247.512L75.6637 250.25C74.8517 250.453 74.1412 250.554 73.5322 250.554C72.9232 250.554 72.4158 250.351 72.0098 249.946V249.033C72.0098 248.425 72.4158 247.715 73.2277 246.903L81.1445 241.731C85.8133 238.689 92.1062 233.821 100.023 227.127C107.737 220.434 114.537 214.146 120.424 208.264C126.311 202.179 131.893 195.993 137.171 189.705L154.222 168.408C160.312 160.701 164.676 154.818 167.315 150.762C169.954 146.705 172.999 141.635 176.45 135.55C179.698 129.87 181.931 125.408 183.149 122.163C184.367 118.918 185.077 116.484 185.28 114.861C185.686 113.238 186.092 111.007 186.498 108.168C186.904 105.734 187.107 104.111 187.107 103.3L187.412 95.3892C187.615 93.9694 188.122 92.9553 188.934 92.3468C189.543 91.9411 190.355 91.7383 191.37 91.7383H192.588C193.806 91.7383 195.531 92.3468 197.764 93.5638C199.794 94.3751 202.433 96.0991 205.681 98.7359C209.132 101.17 211.669 103.3 213.293 105.125C214.917 107.153 215.729 108.776 215.729 109.993C215.729 111.413 215.425 112.63 214.816 113.644C214.613 114.252 213.699 115.469 212.075 117.295C210.452 118.918 209.132 120.642 208.117 122.467L206.29 125.814ZM160.617 339.394L159.703 344.87C158.891 347.71 157.876 349.333 156.658 349.738H155.745C154.73 349.738 153.816 349.434 153.004 348.826C151.38 347.811 149.959 345.986 148.741 343.349C147.523 340.509 146.914 337.974 146.914 335.743L142.043 287.672L140.825 281.283C140.216 279.255 139.404 277.328 138.389 275.502C137.577 273.474 136.359 271.851 134.735 270.635C133.111 269.012 131.994 267.693 131.385 266.679C131.182 266.476 131.081 266.172 131.081 265.767C131.081 265.158 131.487 264.448 132.299 263.637C132.908 262.826 133.923 262.42 135.344 262.42C135.953 262.42 136.663 262.521 137.475 262.724L144.479 263.941C146.914 264.55 148.538 265.057 149.35 265.462L154.222 267.592C159.906 267.186 164.575 266.781 168.229 266.375C172.289 265.969 178.886 264.955 188.021 263.333C197.358 261.71 205.58 260.189 212.684 258.769C219.992 257.349 226.691 255.726 232.781 253.901C238.871 252.076 242.423 251.061 243.438 250.859C244.25 250.656 244.96 250.554 245.569 250.554H246.483C248.107 250.554 250.137 251.061 252.573 252.076C255.212 253.293 258.054 254.814 261.098 256.639C264.143 258.262 266.884 260.29 269.32 262.724C271.35 264.55 272.365 266.274 272.365 267.896V268.809C272.365 270.026 271.35 271.649 269.32 273.677L265.057 280.066C263.839 281.892 262.621 284.224 261.403 287.064C260.185 289.701 258.054 295.988 255.009 305.927L249.528 322.965C251.152 324.182 252.674 325.196 254.095 326.007C255.719 327.224 256.531 328.238 256.531 329.05V330.875C256.125 331.281 255.516 331.686 254.704 332.092C253.892 332.498 252.471 332.701 250.441 332.701H238.262L160.617 339.394ZM160.008 326.92C167.112 326.109 176.146 325.196 187.107 324.182C198.069 322.965 206.595 321.951 212.684 321.139C218.774 320.328 222.53 319.922 223.951 319.922L229.736 319.314C231.36 313.229 232.375 309.274 232.781 307.448L235.521 294.974L238.566 280.675C239.175 277.632 239.48 274.995 239.48 272.764C239.277 271.75 239.074 270.939 238.871 270.33C238.465 269.722 238.059 269.215 237.653 268.809C237.044 268.403 236.13 267.896 234.912 267.288C233.491 266.679 231.563 266.375 229.127 266.375C227.097 266.375 224.052 266.679 219.992 267.288L189.543 271.851L155.44 278.545C155.846 281.587 156.252 284.224 156.658 286.455C156.861 288.484 157.267 293.351 157.876 301.059L159.094 315.663L160.008 326.92ZM223.342 224.998L192.588 229.257L171.883 231.083C166.199 231.894 162.748 232.3 161.53 232.3H158.181C156.151 232.3 154.527 232.198 153.309 231.995C151.482 231.387 150.162 230.981 149.35 230.778C148.335 230.576 147.117 230.068 145.697 229.257C144.276 228.446 143.159 227.533 142.347 226.519C141.738 225.708 141.434 224.998 141.434 224.389V223.781C141.637 222.969 142.144 222.361 142.956 221.955C143.362 221.752 144.174 221.651 145.392 221.651H146.61C147.625 221.651 148.843 221.55 150.264 221.347L162.139 220.13C164.981 219.724 170.868 218.71 179.799 217.087L198.678 213.436C203.55 212.625 208.117 211.611 212.38 210.394C216.643 209.177 219.18 208.467 219.992 208.264C220.804 208.061 221.413 207.96 221.819 207.96H223.037C224.661 207.96 226.488 208.264 228.518 208.873C230.954 209.887 233.999 211.307 237.653 213.132C240.698 214.958 242.22 216.58 242.22 218V218.913C242.017 219.318 241.713 219.826 241.307 220.434C240.901 221.043 239.48 221.55 237.044 221.955L223.342 224.998Z" stroke="black" stroke-width="12" mask="url(#path-2-outside-1_2794_1266)"/>
</svg>
