<svg width="350" height="350" viewBox="0 0 350 350" fill="none" xmlns="http://www.w3.org/2000/svg">
<path d="M169.528 83.484L169.443 83.5829L169.364 83.6871C168.482 84.8629 167.545 86.5079 167.545 88.4611C167.545 90.761 168.813 92.4639 170.346 93.4848L170.553 93.6228L170.776 93.734C171.717 94.2042 172.778 94.4945 173.92 94.4945C175.476 94.4945 177.008 94.1102 178.458 93.5311L178.77 93.4062L179.058 93.2308C195.331 83.296 207.122 76.7543 214.548 73.4817L214.636 73.4429L214.722 73.3999C216.267 72.6281 217.708 71.7232 218.815 70.6179C219.929 69.5046 221.006 67.869 221.006 65.7546V64.3508L220.75 63.671C219.156 59.4229 216.428 55.4659 212.746 51.7789C208.222 47.0222 203.071 44.1317 197.329 44.1317C195.164 44.1317 192.827 44.7276 191.091 46.5945C189.407 48.4064 188.918 50.7479 188.918 52.8763V54.5708C188.918 56.8041 188.423 58.8053 187.451 60.6402C183.509 66.5243 177.556 74.1277 169.528 83.484Z" fill="black"/>
<path d="M213.336 141.886L213.182 141.768L213.017 141.665C208.968 139.137 203.39 136.871 196.469 134.795C188.214 132.192 181.847 130.46 177.49 129.682C176.929 129.448 176.144 129.196 175.277 129.196C173.662 129.196 171.915 129.835 170.751 131.463C169.764 132.843 169.581 134.422 169.581 135.568C169.581 139.395 171.091 142.721 174.287 144.91C183.125 151.761 192.665 160.178 202.907 170.181C206.252 173.969 210.047 176.819 214.299 177.173L214.465 177.187H214.631C217.723 177.187 220.216 175.588 222.077 173.419L222.234 173.236L222.368 173.035C223.809 170.875 224.398 168.358 224.398 165.731C224.398 162.332 223.426 158.315 221.776 153.841L221.757 153.789L221.737 153.738C219.742 148.756 216.996 144.699 213.336 141.886Z" fill="black"/>
<path d="M111.429 94.6893L111.493 94.7704L111.563 94.848C115.347 99.1009 119.529 102.266 124.083 102.616L124.236 102.628H125.068C127.332 102.628 129.555 102.052 131.423 100.601C133.277 99.1606 134.399 97.1548 135.02 94.9834L135.038 94.9193L135.055 94.8546C135.358 93.6431 135.514 92.4134 135.514 91.1723C135.514 88.2696 134.793 85.1689 133.55 81.9403L133.495 81.796L133.428 81.6563C130.795 76.1324 126.6 71.7266 121.026 68.4287C112.302 63.067 105.717 59.5783 101.671 58.5004L101.165 58.3656H99.6236C97.957 58.3656 96.3522 58.963 95.1004 60.2135C93.952 61.3607 93.3559 62.8004 93.0293 64.1057L92.9096 64.5839V66.4324C92.9096 68.7888 93.5919 71.01 95.0609 72.8939C100.511 80.6037 105.967 87.8693 111.429 94.6893Z" fill="black"/>
<path fill-rule="evenodd" clip-rule="evenodd" d="M7.07227 23.8379H6.95472L6.83738 23.8448C3.88276 24.0186 1.00099 24.7842 -1.17725 26.7062C-3.47996 28.738 -4.39844 31.5232 -4.39844 34.4297C-4.39844 35.186 -4.21253 35.8554 -4.10075 36.2218C-3.965 36.6667 -3.78705 37.1331 -3.59382 37.5947C-3.20568 38.5219 -2.65743 39.6622 -1.97805 40.9832C-0.631021 43.6024 1.35149 47.1634 3.94834 51.6395C7.73024 60.0896 9.66406 69.7096 9.66406 80.5723V204.938C9.66406 238.666 8.21629 270.637 5.32441 300.854C1.5743 313.604 -0.443359 323.475 -0.443359 330.182C-0.443359 335.571 1.9907 342.586 6.13128 350.867L6.14205 350.889L6.15309 350.91C8.686 355.827 11.0202 359.716 13.1588 362.43C14.2255 363.784 15.349 364.982 16.5375 365.874C17.6907 366.739 19.2605 367.58 21.1348 367.58C25.5526 367.58 28.9257 365.018 31.3001 361.366C33.2648 358.343 34.7611 354.294 35.9095 349.425C39.9941 350.52 44.1588 351.291 48.4016 351.738L48.6104 351.76H48.8203C54.9171 351.76 64.4719 351.005 77.3577 349.541C105.426 346.91 140.23 344.132 181.777 341.206C203.994 340.081 228.527 339.362 255.376 339.05C259.602 354.752 263.376 366.788 266.703 375.069C268.461 379.445 270.169 382.965 271.851 385.457C272.69 386.699 273.63 387.849 274.7 388.724C275.76 389.592 277.252 390.432 279.094 390.432C284.738 390.432 289.408 386.923 293.194 381.768C296.997 376.59 300.411 369.109 303.538 359.586C311.007 338.065 314.734 315.512 314.734 291.949C314.734 288.601 313.26 255.919 310.336 194.209C307.698 135.291 306.385 98.4801 306.385 83.6484C306.385 68.4577 308.54 56.3145 312.636 47.0306L312.747 46.7791L312.823 46.5149C313.999 42.3976 314.892 39.1256 315.494 36.7182C315.794 35.5172 316.031 34.4966 316.195 33.6761C316.338 32.9618 316.492 32.0908 316.492 31.3535C316.492 29.1948 315.629 27.1842 314.521 25.4432C313.391 23.6671 311.803 21.8535 309.878 20.0073C306.027 16.3134 300.406 12.0911 293.146 7.35014L292.954 7.22437L292.748 7.12151C286.22 3.85772 280.568 1.3642 275.817 -0.321469C271.141 -1.98082 267.038 -2.96875 263.713 -2.96875C259.442 -2.96875 253.952 -1.43595 247.517 1.17825C235.154 4.31703 215.522 7.63912 188.494 11.1266L188.473 11.1294L33.014 32.9023C31.1876 31.8083 28.9348 30.665 26.3056 29.4699L26.2903 29.4629L26.2749 29.4561C18.3427 25.9306 11.8019 23.8379 7.07227 23.8379ZM144.657 213.109C144.558 213.117 144.459 213.125 144.36 213.132C144.349 213.133 144.338 213.134 144.327 213.135C144.437 213.126 144.547 213.118 144.657 213.109ZM247.893 308.604C239.626 308.604 231.181 308.979 222.556 309.728C222.376 309.147 222.182 308.555 221.975 307.954C220.66 304.132 218.721 299.628 216.196 294.465C213.246 288.315 208.202 283.766 201.43 280.736L176.832 268.158C182.103 259.094 186.568 249.586 190.227 239.636L190.248 239.579L190.267 239.522C192.52 232.771 194.532 227.941 196.268 224.832C202.276 224.473 208.284 224.294 214.291 224.294H214.317L214.342 224.294C232.22 224.068 243.159 223.955 247.199 223.955H247.304L247.409 223.95C249.739 223.827 251.88 223.512 253.654 222.867C255.384 222.239 257.377 221.064 258.339 218.821L258.404 218.668L258.457 218.51C258.75 217.632 259.002 216.607 259.002 215.549C259.002 211.873 256.534 208.924 253.802 206.691L253.755 206.653L253.707 206.616C247.692 201.994 242.301 198.744 237.607 197.181L237.549 197.162L237.491 197.145C234.838 196.35 232.074 195.96 229.219 195.96C227.444 195.96 225.672 196.086 223.904 196.339L223.837 196.348L223.77 196.36C213.954 198.104 202.756 199.954 190.172 201.912L185.736 199.696L185.582 199.634C181.789 198.119 178.006 197.315 174.26 197.315C172.86 197.315 171.467 197.455 170.083 197.732L170.042 197.74L170 197.749C168.465 198.09 166.844 198.788 165.605 200.163C164.313 201.597 163.814 203.348 163.814 205.043C163.814 205.4 163.841 205.757 163.89 206.113C160.321 206.807 156.813 207.388 153.364 207.858L153.242 207.875L153.121 207.899C152.333 208.056 151.545 208.201 150.758 208.333C151.958 206.117 153.057 204.362 154.05 203.039L154.116 202.95L154.178 202.858C155.432 200.98 156.208 198.865 156.208 196.571C156.208 195.44 156.018 194.335 155.663 193.271L155.65 193.231L155.635 193.191C154.736 190.676 152.704 188.273 150.261 186.01C150.032 185.799 149.797 185.586 149.555 185.371C150.17 185.555 150.828 185.659 151.529 185.659C153.499 185.659 155.336 185.056 156.919 183.89C161.476 180.697 162.993 174.904 162.993 168.442V146.017L162.991 145.96C162.801 139.296 162.691 132.959 162.662 126.949C168.754 125.707 174.928 124.708 181.186 123.95L181.28 123.939L181.373 123.923C194.673 121.671 206.714 119.873 217.501 118.526L217.582 118.516L217.662 118.502C219.923 118.126 222.097 117.496 223.803 116.361C225.675 115.114 227.112 113.129 227.112 110.49V110.151C227.112 107.558 225.785 105.478 224.169 103.945C222.63 102.484 220.567 101.252 218.208 100.173C216.059 98.8692 213.431 97.7791 210.421 96.8514C207.97 96.0408 205.408 95.6448 202.757 95.6448C200.424 95.6448 198.174 95.9039 196.02 96.4418L195.927 96.4652L195.835 96.493C185.197 99.701 174.471 102.369 163.656 104.496C164.254 95.9799 164.931 87.9473 165.686 80.397C166.297 74.5023 168.456 68.0113 172.342 60.8935L172.376 60.8308L172.408 60.7669C173.014 59.5578 173.51 58.1335 173.51 56.6043C173.51 53.3931 171.67 50.8159 169.458 48.874C164.785 44.6344 159.781 41.2883 154.446 38.8767C206.064 32.9969 239.94 30.0801 256.242 30.0801C259.377 30.0801 262.302 31.2665 265.128 34.033C269.137 39.1143 271.578 48.2932 271.578 62.5547V62.6885L271.587 62.8219C275.976 128.357 278.463 197.121 279.049 269.115C279.047 277.568 277.919 288.709 275.605 302.611C274.477 307.664 273.197 311.754 271.807 314.961C271.167 314.498 270.493 314.047 269.788 313.606L269.594 313.485L269.388 313.387C262.681 310.193 255.499 308.604 247.893 308.604ZM144.131 180.829C144.238 180.99 144.35 181.152 144.466 181.314C143.144 180.348 141.713 179.353 140.177 178.33L140.128 178.297L140.078 178.266C137.748 176.812 135.215 175.965 132.531 175.965C131.401 175.965 130.296 176.154 129.232 176.508L129.074 176.561L128.921 176.626C127.614 177.186 126.357 178.054 125.439 179.364C124.505 180.696 124.121 182.205 124.121 183.693C124.121 185.221 124.493 186.727 125.055 188.153C126.015 190.86 126.496 193.659 126.496 196.571C126.496 197.888 126.406 199.208 126.227 200.531C125.153 204.635 124.081 208.442 123.012 211.954C105.28 214.516 86.719 216.873 67.3302 219.025C65.9059 219.158 64.3453 219.449 63.021 220.171C61.4974 221.001 60.002 222.618 60.002 225.039C60.002 226.593 60.65 227.9 61.222 228.798C61.8212 229.738 62.6147 230.657 63.4971 231.544C66.8539 235.138 70.7129 237.575 75.0922 238.45C77.6068 238.953 80.1309 239.206 82.6609 239.206C84.4321 239.206 86.1245 239.079 87.7282 238.812L87.8379 238.794L87.9465 238.77C96.7755 236.79 105.972 234.953 115.536 233.26C113.826 237.081 112.142 240.286 110.491 242.896L110.454 242.956L110.418 243.017C108.61 246.113 107.498 249.298 107.498 252.49C107.498 253.601 107.681 254.686 108.024 255.733C109.292 259.861 112.884 261.923 116.824 262.781C124.64 265.728 132.478 269.463 140.339 273.996C136.589 277.52 132.547 280.478 128.215 282.882L128.198 282.892L128.181 282.902C117.175 289.153 99.6655 295.039 75.3482 300.437L75.0318 300.507L74.7309 300.627C73.538 301.104 72.4556 301.593 71.6143 302.097C71.2072 302.341 70.6809 302.691 70.2076 303.164C69.8468 303.524 68.8226 304.632 68.8226 306.375C68.8226 308.153 69.8248 309.333 70.516 309.917C71.1897 310.487 71.9358 310.828 72.4905 311.041C73.6328 311.48 75.0748 311.785 76.6252 312.023L76.6811 312.032L76.7372 312.039C82.3213 312.736 87.802 313.086 93.1778 313.086C101.362 313.086 109.435 312.269 117.392 310.632L117.465 310.617L117.537 310.599C129.003 307.794 139.467 303.456 148.898 297.568L148.966 297.525L149.032 297.481C153.212 294.633 157.096 291.549 160.679 288.226C169.377 294.813 179.263 303.245 190.346 313.544C150.113 318.432 114.834 322.21 84.5048 324.879L84.4933 324.88C69.7557 326.219 54.1443 327.191 37.6578 327.792C38.1356 317.996 38.5018 307.102 38.7569 295.11L38.7578 295.068V127.154C38.7578 106.442 40.3782 81.879 43.6363 53.443C56.3739 51.9999 81.0113 48.5895 117.467 43.2286C123.178 42.5378 128.725 41.8744 134.108 41.2384C133.597 42.1279 133.281 43.1746 133.281 44.4038C133.281 46.2686 133.957 47.9165 134.936 49.293C139.622 57.5237 142.092 67.9986 142.101 80.9276C141.703 91.1057 141.479 100.331 141.432 108.602C133.18 110.33 125.471 111.79 118.304 112.983L118.25 112.992L118.196 113.003C109.008 114.794 99.3621 116.363 89.2571 117.708L89.1287 117.726L89.0016 117.751C87.1402 118.123 85.3423 118.656 83.9122 119.513C82.4625 120.382 80.6964 122.056 80.6964 124.724C80.6964 126.584 81.6777 128.028 82.3652 128.868C83.142 129.816 84.1652 130.732 85.2956 131.61L85.3233 131.632L85.3513 131.653C88.2224 133.804 91.2176 135.719 94.3362 137.397L94.4931 137.481L94.6568 137.551C96.8195 138.477 99.1794 138.891 101.659 138.891C103.8 138.891 106.015 138.623 108.293 138.118L108.326 138.11L108.359 138.103C109.29 137.879 110.23 137.656 111.177 137.433C110.685 138.536 110.551 139.679 110.551 140.652V141.669C110.551 142.282 110.426 143.213 110.057 144.526C108.562 148.774 106.883 152.421 105.038 155.499C102.431 159.619 99.8708 163.014 97.368 165.723C94.6278 168.67 89.6121 173.153 82.1651 179.24L82.0106 179.366L81.8695 179.507C81.4748 179.901 81.069 180.337 80.7343 180.783C80.5682 181.004 80.3536 181.314 80.1653 181.69C80.0096 182.002 79.6787 182.729 79.6787 183.693C79.6787 184.506 79.8939 185.397 80.4363 186.209C80.962 186.997 81.6433 187.486 82.2305 187.779C83.292 188.31 84.3794 188.37 85.0357 188.37C86.6532 188.37 88.6726 187.827 90.7097 187.149L90.8436 187.104L100.983 182.913L101.146 182.827C105.685 180.441 110.187 177.477 114.653 173.955L114.75 173.879L114.842 173.797C119.242 169.863 124.859 164.363 131.672 157.33L131.776 157.223L131.871 157.109C132.233 156.675 132.515 156.352 132.725 156.123L133.332 155.638C135.339 154.035 136.531 151.788 136.531 149.125V148.564L136.377 148.025C135.73 145.762 134.488 143.681 132.853 141.775L132.815 141.731L132.776 141.688C130.252 138.915 127.512 136.779 124.516 135.582L124.327 135.506L124.13 135.45C123.457 135.258 122.803 135.079 122.17 134.917C128.008 133.619 134.109 132.321 140.473 131.022C139.695 145.234 139.009 155.324 138.416 161.341C138.148 162.529 138.03 163.774 138.03 165.053C138.03 168.124 138.953 171.061 140.592 173.816C141.894 176.203 142.961 178.341 143.804 180.235L143.942 180.546L144.131 180.829ZM75.2906 303.544C75.2906 303.544 75.2992 303.548 75.313 303.554C75.2967 303.547 75.2906 303.544 75.2906 303.544ZM145.423 229.039H145.692L145.958 229.003C152.558 228.112 159.158 227.362 165.758 226.755C164.994 230.633 163.863 234.92 162.347 239.626C159.777 246.211 156.922 252.058 153.792 257.186C146.284 253.681 139.696 251.16 134.062 249.683C132.936 249.264 132.427 248.867 132.231 248.657C132.201 248.625 132.18 248.599 132.165 248.579C132.158 248.569 132.152 248.561 132.148 248.554C132.14 248.542 132.135 248.533 132.133 248.529L132.131 248.525C132.131 248.525 132.129 248.519 132.127 248.509C132.126 248.501 132.123 248.487 132.122 248.463C132.121 248.452 132.121 248.438 132.121 248.423C132.121 247.963 132.277 247.18 132.95 246.003L133.044 245.838L133.123 245.665C135.901 239.52 138.254 234.136 140.178 229.519C141.934 229.198 143.681 229.039 145.423 229.039Z" fill="black"/>
</svg>
