<svg width="350" height="350" viewBox="0 0 350 350" fill="none" xmlns="http://www.w3.org/2000/svg">
<path d="M166.992 -9C176.953 -8.70703 185.742 -6.94922 193.359 -3.72656C203.613 0.375 211.084 6.9668 215.771 16.0488C218.701 22.2012 220.166 28.3535 220.166 34.5059C220.166 41.8301 218.115 46.2246 214.014 47.6895C234.814 43.2949 251.074 39.1934 262.793 35.3848C274.805 31.5762 283.447 29.6719 288.721 29.6719C307.471 29.9648 317.285 33.334 318.164 39.7793C317.871 43.8809 315.674 46.957 311.572 49.0078C302.783 52.2305 294.434 54.4277 286.523 55.5996C220.898 66.4395 177.246 73.3242 155.566 76.2539C142.09 79.1836 131.396 80.6484 123.486 80.6484C119.092 80.6484 114.844 80.209 110.742 79.3301C110.156 134.408 102.246 182.748 87.0117 224.35C72.9492 264.486 55.3711 296.566 34.2773 320.59C21.3867 333.773 11.7188 340.365 5.27344 340.365C1.75781 340.365 0 339.779 0 338.607C0 337.436 3.51562 333.48 10.5469 326.742C28.125 307.406 44.2383 277.377 58.8867 236.654C75 192.709 83.0566 147.738 83.0566 101.742C83.0566 90.3164 80.127 78.5977 74.2676 66.5859C70.752 61.0195 68.9941 57.3574 68.9941 55.5996C68.9941 53.2559 70.6055 52.084 73.8281 52.084C80.8594 52.084 88.7695 55.0137 97.5586 60.873C99.9023 62.0449 101.66 63.0703 102.832 63.9492C145.02 58.6758 179.443 53.6953 206.104 49.0078C197.021 47.8359 186.182 38.3145 173.584 20.4434C162.158 3.45117 156.445 -5.77734 156.445 -7.24219C156.445 -8.41406 159.961 -9 166.992 -9Z" fill="black"/>
<path d="M220.166 34.5059C220.166 28.3535 218.701 22.2012 215.771 16.0488C211.084 6.9668 203.613 0.375 193.359 -3.72656C185.742 -6.94922 176.953 -8.70703 166.992 -9C159.961 -9 156.445 -8.41406 156.445 -7.24219C156.445 -5.77734 162.158 3.45117 173.584 20.4434C186.182 38.3145 197.021 47.8359 206.104 49.0078C179.443 53.6953 145.02 58.6758 102.832 63.9492C101.66 63.0703 99.9023 62.0449 97.5586 60.873C88.7695 55.0137 80.8594 52.084 73.8281 52.084C70.6055 52.084 68.9941 53.2559 68.9941 55.5996C68.9941 57.3574 70.752 61.0195 74.2676 66.5859C80.127 78.5977 83.0566 90.3164 83.0566 101.742C83.0566 147.738 75 192.709 58.8867 236.654C44.2383 277.377 28.125 307.406 10.5469 326.742C3.51562 333.48 0 337.436 0 338.607C0 339.779 1.75781 340.365 5.27344 340.365C11.7188 340.365 21.3867 333.773 34.2773 320.59C55.3711 296.566 72.9492 264.486 87.0117 224.35C102.246 182.748 110.156 134.408 110.742 79.3301C114.844 80.209 119.092 80.6484 123.486 80.6484C131.396 80.6484 142.09 79.1836 155.566 76.2539C177.246 73.3242 220.898 66.4395 286.523 55.5996C294.434 54.4277 302.783 52.2305 311.572 49.0078C315.674 46.957 317.871 43.8809 318.164 39.7793C317.285 33.334 307.471 29.9648 288.721 29.6719C283.447 29.6719 274.805 31.5762 262.793 35.3848C251.074 39.1934 234.814 43.2949 214.014 47.6895C218.115 46.2246 220.166 41.8301 220.166 34.5059ZM224.166 34.5059C224.166 36.9839 223.94 39.3728 223.417 41.5537C239.303 38.0094 252.004 34.6857 261.557 31.5811L261.57 31.5762L261.584 31.5723C273.594 27.7641 282.765 25.6719 288.721 25.6719H288.783C298.297 25.8205 305.938 26.7451 311.442 28.6348C316.855 30.4929 321.378 33.7495 322.127 39.2393L322.184 39.6504L322.154 40.0645C321.747 45.7599 318.552 49.9908 313.361 52.5859L313.16 52.6855L312.949 52.7637C303.954 56.0617 295.346 58.334 287.132 59.5527C221.702 70.3601 178.06 77.2449 156.263 80.1953C142.751 83.1263 131.786 84.6484 123.486 84.6484C120.493 84.6484 117.555 84.4539 114.673 84.0674C113.694 137.536 105.76 184.758 90.7861 225.671L90.7871 225.672C76.6079 266.142 58.807 298.716 37.2832 323.229L37.2119 323.31L37.1377 323.387C30.6 330.073 24.7512 335.222 19.6113 338.727C14.583 342.155 9.72477 344.365 5.27344 344.365C3.39901 344.365 1.55791 344.222 0.0537109 343.721C-1.34779 343.254 -4 341.85 -4 338.607C-4 337.582 -3.65182 336.754 -3.4541 336.334C-3.21928 335.835 -2.92661 335.363 -2.63965 334.944C-2.06253 334.103 -1.2771 333.145 -0.352539 332.104C1.49237 330.029 4.18197 327.305 7.66797 323.961C24.7047 305.182 40.5742 275.747 55.123 235.301L55.1309 235.277C71.0853 191.765 79.0566 147.26 79.0566 101.742C79.0566 91.074 76.3375 80.0118 70.7578 68.5176C69.0226 65.7596 67.6564 63.3754 66.7061 61.3955C65.8222 59.5542 64.9941 57.4715 64.9941 55.5996C64.9941 53.4047 65.8175 51.2054 67.8496 49.7275C69.645 48.4218 71.8509 48.084 73.8281 48.084C81.8909 48.084 90.5067 51.4034 99.5664 57.4062C101.198 58.228 102.635 59.0233 103.837 59.791C138.84 55.4021 168.416 51.2183 192.576 47.2451C191.225 46.2665 189.873 45.1799 188.522 43.9932C182.778 38.9472 176.712 31.8236 170.314 22.748L170.289 22.7119L170.265 22.6758C164.544 14.1676 160.226 7.56198 157.329 2.88281C155.885 0.550425 154.762 -1.35486 153.988 -2.80273C153.604 -3.5211 153.272 -4.19222 153.024 -4.78223C152.862 -5.16982 152.445 -6.15851 152.445 -7.24219C152.445 -9.89657 154.496 -11.1789 155.315 -11.5889C156.291 -12.0765 157.417 -12.3379 158.425 -12.5059C160.519 -12.8549 163.425 -13 166.992 -13H167.051L167.109 -12.998C177.436 -12.6943 186.705 -10.8715 194.845 -7.44043L195.874 -7.01758C206.086 -2.70304 213.81 4.06446 218.833 13.2842L219.326 14.2139L219.355 14.2715L219.383 14.3291C222.541 20.9603 224.166 27.6971 224.166 34.5059Z" fill="black"/>
<path d="M206.288 125.81L230.952 148.932L252.266 169.013L271.145 184.225C278.452 189.904 285.862 194.975 293.373 199.437C300.883 203.899 307.075 207.246 311.946 209.477C316.818 211.708 325.649 215.461 338.437 220.734L347.572 224.385C349.196 225.197 350.008 226.109 350.008 227.124C349.805 228.138 348.587 228.949 346.354 229.557L340.264 231.079C338.234 231.89 335.088 232.499 330.825 232.904L314.991 235.034C309.917 235.845 305.755 236.251 302.507 236.251H300.68C297.229 236.251 293.982 235.845 290.937 235.034C288.095 234.223 285.151 232.6 282.106 230.166C279.264 227.529 276.017 223.878 272.363 219.213L255.007 197.612L237.651 176.315L221.208 156.843L209.942 144.369L201.416 135.546L184.974 159.885C179.899 167.187 173.099 175.909 164.573 186.05C156.047 195.786 148.435 203.697 141.736 209.782C135.037 215.866 127.628 221.749 119.508 227.428C111.389 233.107 104.487 237.468 98.803 240.51C93.3222 243.553 88.2473 245.885 83.5785 247.508L75.6617 250.246C74.8497 250.449 74.1392 250.55 73.5303 250.55C72.9213 250.55 72.4138 250.348 72.0078 249.942V249.029C72.0078 248.421 72.4138 247.711 73.2258 246.899L81.1425 241.727C85.8114 238.685 92.1042 233.817 100.021 227.124C107.735 220.43 114.535 214.142 120.422 208.26C126.309 202.175 131.891 195.989 137.169 189.701L154.22 168.404C160.31 160.697 164.674 154.815 167.313 150.758C169.952 146.701 172.997 141.631 176.448 135.546C179.696 129.866 181.929 125.404 183.147 122.159C184.365 118.914 185.075 116.48 185.278 114.857C185.684 113.234 186.09 111.003 186.496 108.164C186.902 105.73 187.105 104.107 187.105 103.296L187.41 95.3853C187.613 93.9655 188.12 92.9514 188.932 92.3429C189.541 91.9372 190.353 91.7344 191.368 91.7344H192.586C193.804 91.7344 195.53 92.3429 197.762 93.5598C199.792 94.3712 202.431 96.0952 205.679 98.732C209.13 101.166 211.668 103.296 213.291 105.121C214.915 107.149 215.727 108.772 215.727 109.989C215.727 111.409 215.423 112.626 214.814 113.64C214.611 114.249 213.697 115.466 212.074 117.291C210.45 118.914 209.13 120.638 208.115 122.463L206.288 125.81ZM160.615 339.39L159.701 344.866C158.889 347.706 157.874 349.329 156.656 349.734H155.743C154.728 349.734 153.814 349.43 153.002 348.822C151.378 347.807 149.957 345.982 148.739 343.345C147.522 340.506 146.913 337.97 146.913 335.739L142.041 287.668L140.823 281.279C140.214 279.251 139.402 277.324 138.387 275.499C137.575 273.47 136.357 271.848 134.733 270.631C133.109 269.008 131.992 267.69 131.383 266.675C131.181 266.473 131.079 266.168 131.079 265.763C131.079 265.154 131.485 264.444 132.297 263.633C132.906 262.822 133.921 262.416 135.342 262.416C135.951 262.416 136.661 262.517 137.473 262.72L144.477 263.937C146.913 264.546 148.536 265.053 149.348 265.458L154.22 267.588C159.904 267.182 164.573 266.777 168.227 266.371C172.287 265.965 178.884 264.951 188.019 263.329C197.356 261.706 205.578 260.185 212.683 258.765C219.99 257.345 226.689 255.723 232.779 253.897C238.869 252.072 242.421 251.057 243.436 250.855C244.248 250.652 244.959 250.55 245.568 250.55H246.481C248.105 250.55 250.135 251.057 252.571 252.072C255.21 253.289 258.052 254.81 261.097 256.635C264.141 258.258 266.882 260.286 269.318 262.72C271.348 264.546 272.363 266.27 272.363 267.892V268.805C272.363 270.022 271.348 271.645 269.318 273.673L265.055 280.062C263.837 281.888 262.619 284.22 261.401 287.06C260.183 289.697 258.052 295.984 255.007 305.923L249.526 322.961C251.15 324.178 252.672 325.192 254.093 326.003C255.717 327.22 256.529 328.234 256.529 329.046V330.871C256.123 331.277 255.514 331.682 254.702 332.088C253.89 332.494 252.469 332.697 250.439 332.697H238.26L160.615 339.39ZM160.006 326.916C167.11 326.105 176.144 325.192 187.105 324.178C198.067 322.961 206.593 321.947 212.683 321.135C218.772 320.324 222.528 319.918 223.949 319.918L229.734 319.31C231.358 313.225 232.373 309.27 232.779 307.444L235.519 294.97L238.564 280.671C239.173 277.628 239.478 274.991 239.478 272.76C239.275 271.746 239.072 270.935 238.869 270.326C238.463 269.718 238.057 269.211 237.651 268.805C237.042 268.399 236.128 267.892 234.91 267.284C233.489 266.675 231.561 266.371 229.125 266.371C227.095 266.371 224.05 266.675 219.99 267.284L189.541 271.848L155.438 278.541C155.844 281.583 156.25 284.22 156.656 286.451C156.859 288.48 157.265 293.348 157.874 301.055L159.092 315.659L160.006 326.916ZM223.34 224.994L192.586 229.253L171.881 231.079C166.197 231.89 162.746 232.296 161.528 232.296H158.179C156.149 232.296 154.525 232.194 153.307 231.991C151.48 231.383 150.16 230.977 149.348 230.774C148.333 230.572 147.116 230.065 145.695 229.253C144.274 228.442 143.157 227.529 142.345 226.515C141.736 225.704 141.432 224.994 141.432 224.385V223.777C141.635 222.966 142.142 222.357 142.954 221.951C143.36 221.749 144.172 221.647 145.39 221.647H146.608C147.623 221.647 148.841 221.546 150.262 221.343L162.137 220.126C164.979 219.72 170.866 218.706 179.798 217.083L198.676 213.432C203.548 212.621 208.115 211.607 212.378 210.39C216.641 209.173 219.178 208.463 219.99 208.26C220.802 208.057 221.411 207.956 221.817 207.956H223.035C224.659 207.956 226.486 208.26 228.516 208.869C230.952 209.883 233.997 211.303 237.651 213.128C240.696 214.954 242.218 216.576 242.218 217.996V218.909C242.015 219.315 241.711 219.822 241.305 220.43C240.899 221.039 239.478 221.546 237.042 221.951L223.34 224.994Z" fill="black"/>
<path d="M245.567 250.551L245.334 250.555C244.779 250.577 244.147 250.677 243.437 250.854L242.937 250.969C241.493 251.324 238.108 252.3 232.779 253.897L231.63 254.237C225.849 255.925 219.534 257.434 212.683 258.765C205.578 260.184 197.356 261.706 188.019 263.329C178.884 264.952 172.286 265.965 168.227 266.371C164.573 266.777 159.904 267.182 154.221 267.588L149.349 265.458C148.537 265.052 146.912 264.546 144.477 263.938L137.474 262.721C136.763 262.543 136.13 262.443 135.575 262.421L135.342 262.416C133.921 262.416 132.906 262.822 132.297 263.633C131.485 264.444 131.079 265.154 131.079 265.763C131.079 266.168 131.181 266.473 131.384 266.676C131.993 267.69 133.109 269.008 134.732 270.631C136.356 271.848 137.575 273.47 138.387 275.498C139.402 277.324 140.213 279.251 140.822 281.279L142.041 287.668L146.912 335.739L146.92 336.161C146.991 338.288 147.597 340.684 148.739 343.346C149.957 345.982 151.378 347.807 153.002 348.821C153.713 349.354 154.501 349.653 155.367 349.72L155.743 349.734H156.656L156.882 349.645C158 349.122 158.94 347.529 159.701 344.866L160.614 339.39L238.26 332.696H250.439L251.172 332.688C252.815 332.643 253.992 332.443 254.702 332.088C255.514 331.682 256.123 331.277 256.529 330.871V329.046C256.529 328.235 255.717 327.22 254.093 326.003C252.672 325.192 251.15 324.178 249.526 322.961L255.007 305.923C257.862 296.605 259.913 290.496 261.162 287.597L261.401 287.06C262.467 284.575 263.533 282.479 264.599 280.771L265.055 280.062L269.317 273.673C271.347 271.645 272.362 270.022 272.362 268.805V267.893C272.362 266.27 271.347 264.546 269.317 262.721C266.882 260.287 264.141 258.258 261.097 256.636C258.052 254.81 255.209 253.288 252.57 252.071C250.287 251.121 248.36 250.616 246.79 250.557L246.481 250.551V244.551C249.066 244.551 251.752 245.28 254.357 246.32L254.877 246.532L254.981 246.576L255.083 246.623C257.918 247.931 260.912 249.535 264.059 251.416C267.529 253.282 270.667 255.607 273.461 258.38C275.888 260.596 278.362 263.781 278.362 267.893V268.805C278.362 271.01 277.48 272.851 276.688 274.116C275.955 275.289 275.018 276.412 273.993 277.476L270.046 283.393C269.095 284.818 268.042 286.798 266.915 289.425L266.883 289.501L266.848 289.576C265.835 291.768 263.823 297.627 260.743 307.681L260.731 307.721L260.719 307.761L256.611 320.525C256.616 320.528 256.621 320.531 256.626 320.534L257.068 320.793L257.393 320.978L257.691 321.202C258.709 321.965 259.757 322.869 260.604 323.927C261.384 324.901 262.529 326.67 262.529 329.046V333.357L260.771 335.115C259.723 336.162 258.478 336.909 257.384 337.456C255.205 338.544 252.522 338.696 250.439 338.696H238.526L165.767 344.968L165.563 346.189L165.47 346.516C164.983 348.216 164.339 349.923 163.418 351.395C162.521 352.829 160.998 354.612 158.552 355.427L157.629 355.734H155.743C153.529 355.734 151.44 355.068 149.642 353.794C146.737 351.913 144.734 348.982 143.292 345.861L143.258 345.786L143.226 345.71C141.854 342.512 140.98 339.275 140.918 336.097L136.098 288.538L134.992 282.74C134.516 281.218 133.901 279.778 133.143 278.414L132.958 278.082L132.816 277.729C132.381 276.641 131.81 275.938 131.135 275.432L130.794 275.177L130.492 274.875C128.917 273.301 127.484 271.702 126.487 270.16C125.414 268.723 125.12 267.153 125.083 266.021L125.079 265.763L125.085 265.473C125.19 262.748 126.748 260.759 127.788 259.666C129.929 257.101 132.948 256.416 135.342 256.416C136.491 256.416 137.618 256.59 138.67 256.838L145.504 258.025L145.719 258.063L145.931 258.116C148.191 258.681 150.344 259.293 151.828 259.994L155.258 261.493C160.234 261.126 164.331 260.767 167.564 260.408L167.598 260.404L167.63 260.401C171.443 260.02 177.845 259.042 186.97 257.421L186.991 257.417C196.293 255.801 204.464 254.289 211.507 252.882L211.522 252.878L211.538 252.875C218.683 251.487 225.185 249.909 231.056 248.149C236.612 246.484 240.407 245.388 241.982 245.033L242.408 244.933C243.411 244.706 244.48 244.551 245.567 244.551V250.551ZM229.125 266.371C231.561 266.371 233.489 266.676 234.91 267.284C236.128 267.893 237.041 268.399 237.65 268.805C238.056 269.21 238.463 269.718 238.869 270.326C239.072 270.935 239.275 271.747 239.478 272.761L239.464 273.616C239.397 275.657 239.097 278.009 238.564 280.671L235.52 294.971L232.779 307.444C232.373 309.27 231.358 313.225 229.734 319.31L223.948 319.918C222.527 319.918 218.772 320.325 212.683 321.136L210.284 321.449C204.423 322.203 196.697 323.113 187.105 324.178C176.144 325.192 167.111 326.105 160.006 326.916L159.092 315.659L157.874 301.055C157.417 295.274 157.075 291.091 156.847 288.505L156.656 286.451C156.25 284.22 155.844 281.583 155.438 278.541L189.541 271.848L219.99 267.284C224.05 266.676 227.095 266.371 229.125 266.371ZM229.125 272.371C227.561 272.371 224.879 272.618 220.88 273.218L190.568 277.76L162.207 283.326C162.228 283.456 162.248 283.585 162.27 283.713L162.56 285.377L162.603 285.614L162.626 285.854C162.836 287.955 163.247 292.885 163.854 300.557L165.071 315.16L165.072 315.174L165.486 320.276C171.476 319.639 178.489 318.949 186.521 318.206C197.43 316.995 205.88 315.988 211.891 315.188C217.46 314.445 221.528 313.976 223.584 313.923L224.993 313.774C226.001 309.943 226.638 307.42 226.922 306.142L229.65 293.721L232.687 279.458C233.18 276.986 233.421 274.961 233.468 273.341C233.464 273.324 233.46 273.307 233.456 273.29C233.179 273.139 232.84 272.961 232.434 272.756C231.99 272.596 230.983 272.371 229.125 272.371ZM246.481 244.551V250.551H245.567V244.551H246.481ZM242.218 217.996C242.218 216.576 240.695 214.953 237.65 213.128C234.453 211.531 231.723 210.245 229.458 209.269L228.516 208.869C226.486 208.261 224.659 207.956 223.035 207.956V201.956C225.095 201.956 227.206 202.291 229.328 202.862L230.239 203.121L230.536 203.211L230.822 203.33C233.434 204.417 236.614 205.903 240.332 207.761L240.538 207.863L240.736 207.982C242.488 209.033 244.155 210.226 245.452 211.609C246.688 212.926 248.218 215.095 248.218 217.996V220.326L247.584 221.594C247.223 222.314 246.767 223.053 246.296 223.76C244.935 225.799 242.814 226.61 241.951 226.918C240.814 227.324 239.522 227.614 238.205 227.839L224.641 230.852L224.403 230.903L224.163 230.938L193.262 235.217L193.113 235.23L172.562 237.042C167.168 237.81 163.262 238.296 161.528 238.296H158.179C156 238.296 154.005 238.191 152.321 237.91L151.857 237.833L151.411 237.684C149.635 237.092 148.517 236.754 147.936 236.606C146.115 236.205 144.344 235.391 142.72 234.464C140.806 233.371 139.051 232 137.661 230.265L137.603 230.191L137.547 230.117C136.632 228.898 135.432 226.907 135.432 224.386V223.038L135.438 223.014C131.466 226.186 127.303 229.298 122.947 232.345C114.724 238.096 107.608 242.603 101.635 245.8C95.958 248.946 90.5916 251.423 85.5479 253.176L85.54 253.179L77.623 255.917L77.373 256.003L77.1162 256.067C75.9922 256.348 74.7734 256.551 73.5303 256.551C71.4386 256.551 69.3717 255.79 67.7666 254.187L66.0078 252.429V249.029C66.0078 245.903 67.9378 243.701 68.9844 242.655L69.4238 242.216L77.8613 236.704L77.8672 236.7C82.2128 233.868 88.2662 229.203 96.1035 222.578C103.718 215.971 110.398 209.79 116.157 204.037C121.918 198.08 127.378 192.029 132.538 185.884L149.536 164.654C155.59 156.991 159.805 151.297 162.284 147.486C164.835 143.566 167.815 138.607 171.229 132.586L171.234 132.576L171.239 132.567C174.441 126.968 176.483 122.838 177.529 120.051C178.723 116.869 179.215 114.992 179.325 114.112L179.37 113.752L179.458 113.4C179.791 112.07 180.162 110.072 180.557 107.314L180.566 107.245L180.578 107.177C180.774 106.004 180.911 105.077 180.999 104.376C181.043 104.027 181.071 103.757 181.088 103.558C181.106 103.346 181.105 103.272 181.105 103.296V103.181L181.109 103.064L181.426 94.8438L181.47 94.5361C181.804 92.1995 182.799 89.4404 185.334 87.541L185.468 87.4414L185.605 87.3496C187.513 86.079 189.612 85.7344 191.368 85.7344V91.7344L190.997 91.7441C190.154 91.7885 189.465 91.9879 188.933 92.3428L188.783 92.4619C188.058 93.0799 187.6 94.0549 187.41 95.3857L187.105 103.296L187.096 103.638C187.051 104.525 186.851 106.034 186.496 108.164L186.344 109.2C185.989 111.552 185.634 113.438 185.278 114.857L185.234 115.171C184.985 116.787 184.288 119.117 183.146 122.159L182.906 122.781C181.645 125.966 179.493 130.221 176.448 135.546L175.173 137.78C172.242 142.883 169.622 147.208 167.313 150.758L166.799 151.54C164.123 155.557 159.93 161.178 154.221 168.404L137.169 189.701C131.891 195.989 126.309 202.176 120.422 208.261C114.535 214.143 107.734 220.43 100.021 227.123C92.1038 233.816 85.8114 238.685 81.1426 241.728L73.2256 246.899C72.4137 247.711 72.0078 248.421 72.0078 249.029V249.942C72.363 250.297 72.7961 250.497 73.3066 250.541L73.5303 250.551C74.1393 250.551 74.8501 250.449 75.6621 250.246L83.5781 247.508C88.2469 245.885 93.322 243.553 98.8027 240.511C104.131 237.658 110.531 233.647 118 228.478L119.509 227.428C127.121 222.104 134.108 216.601 140.472 210.92L141.736 209.781C148.016 204.077 155.1 196.768 162.985 187.854L164.573 186.051C172.566 176.543 179.042 168.283 184.002 161.271L184.974 159.886L201.416 135.546L209.942 144.369L221.208 156.843L237.65 176.314L255.007 197.611L272.362 219.213C276.016 223.878 279.265 227.529 282.106 230.166C285.151 232.6 288.095 234.223 290.937 235.034C293.791 235.795 296.825 236.199 300.036 236.246L300.681 236.251H302.507L303.127 236.246C306.279 236.199 310.234 235.795 314.991 235.034L330.825 232.904C335.088 232.499 338.234 231.89 340.264 231.079L346.354 229.558C348.586 228.949 349.805 228.137 350.008 227.123C350.008 226.173 349.294 225.311 347.867 224.539L347.572 224.386L338.438 220.734C327.248 216.12 319.088 212.671 313.959 210.386L311.946 209.478C307.683 207.525 302.41 204.719 296.127 201.059L293.372 199.438C285.861 194.975 278.452 189.904 271.145 184.225L252.267 169.013L230.952 148.933L206.288 125.81L208.115 122.463C209.003 120.866 210.124 119.346 211.479 117.904L212.073 117.291C213.697 115.466 214.61 114.248 214.813 113.64C215.346 112.752 215.646 111.71 215.713 110.512L215.728 109.989C215.728 108.772 214.915 107.149 213.291 105.121C211.667 103.296 209.13 101.166 205.68 98.7324C202.432 96.0957 199.793 94.3709 197.763 93.5596C195.53 92.3426 193.804 91.7344 192.586 91.7344V85.7344C195.296 85.7344 198.038 86.907 200.331 88.1318C203.09 89.3017 206.126 91.3792 209.31 93.9521C212.605 96.2868 215.364 98.5367 217.375 100.695L217.774 101.133L217.878 101.25L217.976 101.371C218.949 102.586 219.828 103.862 220.484 105.175C221.119 106.444 221.728 108.104 221.728 109.989C221.728 112.124 221.294 114.296 220.204 116.297C219.751 117.289 219.143 118.121 218.775 118.611C218.178 119.408 217.422 120.307 216.557 121.279L216.439 121.411L216.314 121.535C215.291 122.558 214.464 123.593 213.805 124.633L235.056 144.556L235.061 144.561L235.066 144.565L256.212 164.486L274.868 179.52C281.977 185.042 289.167 189.96 296.438 194.279C303.863 198.691 309.849 201.918 314.444 204.022C319.196 206.199 327.923 209.908 340.708 215.181L349.799 218.813L350.03 218.906L350.254 219.018C352.257 220.018 356.008 222.442 356.008 227.123V227.718L355.891 228.301C355.366 230.92 353.647 232.568 352.269 233.486C350.905 234.395 349.352 234.96 347.932 235.347L347.87 235.363L342.062 236.812C339.288 237.842 335.654 238.465 331.528 238.863L315.849 240.972C310.657 241.799 306.178 242.251 302.507 242.251H300.681C296.757 242.251 292.986 241.79 289.392 240.832L289.341 240.818L289.289 240.804C285.481 239.717 281.838 237.633 278.36 234.853L278.188 234.715L278.025 234.564C274.864 231.631 271.397 227.712 267.639 222.913L250.329 201.37L233.066 180.186L216.681 160.781L205.558 148.466L202.244 145.037L189.945 163.244L189.924 163.277L189.9 163.31C184.684 170.815 177.758 179.69 169.166 189.911L169.127 189.958L169.087 190.003C160.469 199.844 152.693 207.935 145.771 214.223C145.233 214.711 144.69 215.196 144.145 215.681C144.561 215.657 144.979 215.647 145.39 215.647V221.647L144.952 221.652C143.975 221.675 143.309 221.774 142.954 221.951C142.142 222.357 141.635 222.965 141.432 223.776V224.386C141.432 224.994 141.736 225.704 142.345 226.515C143.157 227.529 144.274 228.442 145.694 229.253C147.115 230.064 148.334 230.572 149.349 230.774C150.161 230.977 151.48 231.383 153.307 231.991C154.372 232.169 155.749 232.269 157.437 232.291L158.179 232.296H161.528L161.782 232.291C163.186 232.244 166.552 231.84 171.881 231.079L192.586 229.253L223.34 224.994L237.042 221.951C239.326 221.571 240.717 221.102 241.217 220.543L241.305 220.43C241.71 219.822 242.015 219.315 242.218 218.909V217.996ZM146.608 215.647V221.647H145.39V215.647H146.608ZM221.817 207.956L221.655 207.961C221.256 207.983 220.701 208.083 219.99 208.261L219.058 208.508C217.802 208.85 215.575 209.477 212.378 210.39C208.115 211.607 203.548 212.621 198.676 213.433L179.798 217.083L173.67 218.187C168.113 219.175 164.268 219.822 162.137 220.126L150.262 221.343C149.018 221.52 147.931 221.62 146.998 221.643L146.608 221.647V215.647C147.25 215.647 148.169 215.581 149.414 215.403L149.532 215.387L149.65 215.374L161.396 214.17C164.146 213.773 169.88 212.785 178.713 211.181L197.537 207.542L197.613 207.526L197.69 207.514C202.364 206.735 206.708 205.768 210.73 204.62C214.94 203.418 217.601 202.673 218.536 202.439C219.433 202.215 220.637 201.956 221.817 201.956V207.956ZM223.035 201.956V207.956H221.817V201.956H223.035ZM192.586 85.7344V91.7344H191.368V85.7344H192.586Z" fill="black"/>
</svg>
