<svg width="350" height="350" viewBox="0 0 350 350" fill="none" xmlns="http://www.w3.org/2000/svg">
<path d="M74.7953 300.001L94.8212 297.498L88.9228 189.642L88.9223 189.631C88.6325 183.836 88.1972 177.447 87.6149 170.46C87.0369 163.524 86.3242 158.02 85.4975 153.887C84.7078 149.938 83.3904 146.112 81.5337 142.398C80.4538 140.238 79.5865 138.275 78.9794 136.54C78.4005 134.886 77.9297 133.088 77.9297 131.373V130.494C77.9297 127.91 78.9591 125.636 80.7125 123.882C81.8646 122.73 83.3026 122.019 84.5406 121.543C85.8476 121.04 87.353 120.643 88.9804 120.318L89.4658 120.221H89.9609C93.3598 120.221 97.1058 120.726 101.154 121.658C105.433 122.577 109.353 123.813 112.884 125.395C116.68 126.682 120.308 128.428 123.766 130.619C125.692 131.749 127.414 132.971 128.763 134.319C130.097 135.653 131.422 137.469 131.807 139.78L131.875 140.188V141.48C131.875 144.096 131.057 147.382 129.861 150.972C129.2 152.955 128.494 157.357 127.905 164.723C127.322 172.292 127.043 177.682 127.041 180.995L128.717 293.72L179.424 288.575L178.565 91.4658L177.69 61.2718C177.119 51.0198 176.557 43.8433 176.013 39.6217L172.571 26.7154L172.561 26.6775C171.462 22.2803 170.13 18.7479 168.628 15.9939L168.585 15.9155L168.545 15.8357C167.183 13.1103 166.26 10.2682 166.26 7.44727V6.56836C166.26 2.98172 168.088 0.122265 170.538 -1.97341C173.057 -4.36735 176.476 -5.02344 179.609 -5.02344C180.874 -5.02344 182.172 -4.83725 183.461 -4.53987C187.779 -4.20094 191.863 -3.4065 195.692 -2.13014L195.805 -2.09251L209.704 3.28754L209.863 3.36263C215.141 5.84628 219.506 8.63184 222.696 11.8219L222.789 11.9149L222.877 12.0126C224.286 13.5787 225.482 15.0578 226.397 16.4291C227.256 17.7184 228.12 19.2813 228.458 20.9686L228.555 21.4541V22.3887C228.555 24.1039 228.084 25.9018 227.505 27.556C226.916 29.2385 226.082 31.1364 225.047 33.2201C223.991 35.8944 222.754 39.7344 221.341 44.8206C219.975 49.7401 218.545 57.6551 217.086 68.7441L217.085 68.7527L217.084 68.7614C215.656 79.3271 214.932 91.5471 214.932 105.445V140.096L235.823 134.031L235.862 134.02C238.948 133.178 243.529 131.749 249.659 129.706L249.692 129.695L249.724 129.685C255.876 127.727 260.298 126.392 262.876 125.729C265.689 124.609 268.385 123.616 270.963 122.751C273.406 121.671 275.51 120.836 277.081 120.42C278.168 120.069 279.411 119.781 280.684 119.781C284.098 119.781 287.732 120.69 291.483 122.218C296.172 123.408 300.202 124.789 303.472 126.411C306.496 127.766 309.443 129.585 312.318 131.821L312.432 131.91L312.541 132.005C313.903 133.197 315.129 134.476 316.045 135.851C316.948 137.205 317.764 138.975 317.764 141.041V141.92C317.764 144.3 316.551 146.082 315.42 147.213C314.409 148.224 313.164 149.032 311.897 149.696C310.886 150.4 309.702 150.915 308.691 151.307C307.347 151.827 305.695 152.352 303.785 152.887C299.955 153.959 294.768 155.159 288.277 156.486L288.203 156.502L242.536 164.406C239.412 165.085 235.53 165.377 231.025 165.377C228.6 165.377 226.512 165.302 224.815 165.132C223.583 165.009 222.127 164.803 220.829 164.326L214.892 163.266L214.09 284.828L245.948 281.08L246.074 281.072C250.202 280.796 260.65 279.374 277.72 276.725L277.749 276.721L277.779 276.716C294.098 274.385 305.402 272.646 311.763 271.493C318.184 270.037 323.309 269.195 326.826 269.195H327.034L327.241 269.213C331.338 269.554 336.029 270.719 341.234 272.557C346.379 274.372 351.515 276.488 356.641 278.9C361.841 281.347 366.123 283.93 369.259 286.718C372.368 289.481 374.791 292.846 375.293 296.866L375.332 297.175V297.486C375.332 300.969 374.209 304.16 371.976 306.84L371.831 307.014L371.67 307.174C368.408 310.436 363.233 311.267 358.105 311.275L343.601 311.715H336.934C331.297 311.715 323.185 311.567 312.625 311.273L312.602 311.273L312.579 311.272C304.736 310.982 296.449 310.836 287.715 310.836C279.292 310.836 270.427 310.981 261.118 311.271C250 311.857 234.206 312.734 213.733 313.904C193.27 315.073 175.767 316.387 161.21 317.842C146.667 319.297 132.42 321.187 118.468 323.512C104.494 325.841 94.4735 327.584 88.3717 328.744L70.1156 333.091L54.5057 337.427C49.145 339.206 44.4675 340.279 40.7422 340.279H39.4238C35.6702 340.279 30.9499 339.19 25.538 337.386C20.0536 335.558 14.8531 333.418 9.94167 330.962L9.88283 330.933L9.82479 330.902C5.17756 328.423 1.36251 325.741 -1.25312 322.751L-1.29278 322.706L-1.33134 322.66C-3.14626 320.482 -4.6875 317.759 -4.6875 314.625C-4.6875 313.175 -4.31887 311.828 -3.72018 310.631L-3.48329 310.157L-3.15239 309.744C-1.12182 307.206 1.71468 305.715 4.81271 304.94L5.28408 304.822L22.6882 303.93C27.146 303.316 35.9406 302.734 48.8169 302.162C62.3082 301.281 70.8807 300.56 74.7519 300.007L74.7953 300.001Z" fill="black"/>
</svg>
