<svg width="350" height="350" viewBox="0 0 350 350" fill="none" xmlns="http://www.w3.org/2000/svg">
<path fill-rule="evenodd" clip-rule="evenodd" d="M-16.3785 307.862C-14.8891 309.165 -13.0073 310.429 -10.8473 311.67C-6.61032 314.387 -2.22197 316.807 2.3168 318.928C7.16173 321.345 11.778 322.99 16.1275 323.707C19.1961 324.605 22.087 325.139 24.707 325.139H26.0254C27.7527 325.139 30.2514 324.744 33.1583 324.163C36.2059 323.553 45.1119 321.473 59.7118 317.969L59.7347 317.964L59.7576 317.958C74.8702 314.18 88.9295 311.283 101.94 309.259C114.925 307.239 137.468 304.907 169.695 302.27C201.856 299.639 224.643 297.886 238.085 297.008C247.081 296.72 259.298 296.574 274.756 296.574H300.199L349.418 297.453H349.463C353.709 297.453 357.344 297.193 360.199 296.569C361.631 296.255 363.049 295.813 364.311 295.15C365.516 294.517 366.842 293.545 367.76 292.039C369.07 290.052 370.283 287.608 370.283 284.982V284.104C370.283 281.418 368.761 279.121 367.56 277.6C366.209 275.889 364.344 274.045 362.097 272.09C357.328 267.371 350.809 263.725 342.862 260.961C339.199 259.497 336.097 258.338 333.576 257.497C331.143 256.686 328.969 256.075 327.28 255.857L320.4 254.874L272.287 262.893L208.088 270.628L212.971 259.319L212.98 259.299C219.775 243.936 226.265 227.411 232.454 209.73L232.459 209.715L248.291 163.537L248.298 163.517C252.571 150.698 255.341 142.25 256.585 138.236C257.441 136.362 258.133 134.672 258.625 133.194C259.111 131.738 259.541 130.093 259.541 128.537C259.541 126.414 259.118 124.261 258.406 122.122C257.333 118.904 254.563 116.087 251.512 113.646C250.424 112.776 249.162 111.823 247.73 110.788L275.835 104.855L275.88 104.845C279.752 103.951 282.946 103.109 285.41 102.314C287.632 101.597 289.967 100.711 291.502 99.4825C292.314 98.8329 293.055 98.1932 293.672 97.5756C294.093 97.1545 294.644 96.5631 295.11 95.838C295.902 94.799 296.254 93.6608 296.387 92.6644C296.551 92.2147 296.693 91.8875 296.806 91.6618L297.334 90.6061V89.4258C297.334 85.6127 294.99 82.7233 292.526 80.7156C289.992 78.651 286.505 76.8178 282.355 75.1273L282.281 75.097L282.205 75.0691C274.215 72.1097 267.654 70.2827 262.807 69.9365L262.63 69.9238H257.441L227.11 77.5067L186.558 85.0429C187.227 82.1315 187.471 78.6772 187.471 74.9238V73.166C187.471 62.4581 185.102 53.0008 180.119 45.0277L180.068 44.9459L180.014 44.8662C174.622 36.9371 167.903 30.6778 159.865 26.1765L159.829 26.1563L159.792 26.1367C152.102 21.996 145.635 18.8305 140.429 16.6872L140.384 16.6684L140.338 16.6505C134.922 14.5445 130.11 13.2344 126.221 13.2344C124.793 13.2344 122.979 13.3863 121.348 14.2017C120.527 14.6123 119.558 15.1895 118.73 16.0172C117.169 17.5786 116.826 19.5144 116.826 20.8711V21.75C116.826 23.0603 117.032 24.7143 117.334 26.5271L117.356 26.6591L117.385 26.7897C117.802 28.6661 118.77 31.0936 120.029 33.8351C121.332 36.6708 123.103 40.1711 125.322 44.3132L125.329 44.326L137.197 66.7439L145.228 81.4679L145.351 81.6524C147.726 85.2146 149.832 88.2258 151.664 90.668L151.741 90.7705L151.823 90.8689C151.944 91.0142 152.07 91.1634 152.201 91.3164L127.804 94.1315L74.7439 101.148L48.8876 102.931L48.3823 103.075C46.0102 103.753 43.8293 104.641 41.9099 105.793L41.6888 105.925L41.4824 106.08C39.8832 107.279 37.7246 109.455 37.7246 112.717C37.7246 113.376 37.8537 113.957 37.8964 114.149L37.8986 114.159C37.9654 114.459 38.0498 114.775 38.1367 115.079C38.3124 115.694 38.5582 116.469 38.8601 117.374C39.621 119.657 41.3252 121.327 42.8734 122.511C44.5158 123.767 46.5924 124.932 48.9598 126.037C53.9812 128.38 59.4462 129.689 65.2988 130.014L77.4869 130.691L80.9735 143.94L90.6424 176.902C93.2555 186.778 96.1653 198.708 99.3723 212.701L99.3744 212.711L108.139 251.711C109.318 258.042 110.478 263.295 111.625 267.424C112.715 271.347 113.904 274.685 115.312 276.963C115.571 277.437 115.829 277.901 116.084 278.354L71.0648 283.982L71.0214 283.988C61.0181 285.417 45.9822 286.581 25.8082 287.458L25.7819 287.459L-6.96021 289.229L-7.15496 289.255C-9.50407 289.568 -11.6086 289.986 -13.3487 290.566C-14.8953 291.082 -17.0134 291.993 -18.4043 293.848L-18.8011 294.377L-19.0467 294.991C-19.8505 297 -20.2832 299.094 -20.2832 301.242V302.054L-20.0266 302.823C-19.3214 304.939 -17.8164 306.603 -16.3785 307.862ZM111.484 146.857L111.432 146.779L99.2672 129.935L154.843 123.844L154.867 123.842C160.561 123.271 178.064 121.106 207.263 117.363L208.479 122.228L208.637 122.597C209.124 123.734 209.551 125.873 209.551 129.416C209.551 131.231 209.421 133.219 209.15 135.388L209.123 135.601L209.115 135.816C208.834 143.127 207.409 155.476 204.776 173.033C201.861 191.105 198.806 207.099 195.615 221.024L195.612 221.035L195.61 221.045C192.576 234.561 188.356 251.385 182.943 271.532L141.294 275.35L142.451 271.879L142.497 271.693C143.181 268.958 143.794 264.529 144.379 258.673L144.404 258.425V253.342C144.404 241.134 142.575 227.69 138.987 213.041L138.965 212.949L138.938 212.857C134.225 196.359 129.765 183.102 125.55 173.166L125.536 173.134L125.522 173.101C121.042 162.948 116.369 154.185 111.484 146.857Z" fill="black"/>
</svg>
