<svg width="350" height="350" viewBox="0 0 350 350" fill="none" xmlns="http://www.w3.org/2000/svg">
<path fill-rule="evenodd" clip-rule="evenodd" d="M-16.3765 307.862C-14.8872 309.165 -13.0053 310.429 -10.8453 311.67C-6.60837 314.387 -2.22001 316.807 2.31875 318.928C7.16368 321.345 11.78 322.99 16.1295 323.707C19.198 324.605 22.0889 325.139 24.709 325.139H26.0273C27.7547 325.139 30.2533 324.744 33.1603 324.163C36.2078 323.553 45.1139 321.473 59.7137 317.969L59.7367 317.964L59.7596 317.958C74.8722 314.18 88.9314 311.283 101.942 309.259C114.927 307.239 137.47 304.907 169.697 302.27C201.858 299.639 224.645 297.886 238.087 297.008C247.083 296.72 259.3 296.574 274.758 296.574H300.201L349.42 297.453H349.465C353.711 297.453 357.345 297.193 360.201 296.569C361.633 296.255 363.051 295.813 364.313 295.15C365.518 294.517 366.844 293.545 367.762 292.039C369.072 290.052 370.285 287.608 370.285 284.982V284.104C370.285 281.418 368.763 279.121 367.562 277.6C366.211 275.889 364.345 274.045 362.099 272.09C357.33 267.371 350.811 263.725 342.864 260.961C339.201 259.497 336.098 258.338 333.578 257.497C331.145 256.686 328.971 256.075 327.282 255.857L320.402 254.874L272.289 262.893L208.09 270.628L212.973 259.319L212.982 259.299C219.777 243.936 226.267 227.411 232.456 209.73L232.461 209.715L248.293 163.537L248.3 163.517C252.573 150.698 255.343 142.25 256.587 138.236C257.443 136.362 258.135 134.672 258.627 133.194C259.113 131.738 259.543 130.093 259.543 128.537C259.543 126.414 259.12 124.261 258.407 122.122C257.335 118.904 254.565 116.087 251.514 113.646C250.426 112.776 249.164 111.823 247.732 110.788L275.836 104.855L275.882 104.845C279.754 103.951 282.948 103.109 285.411 102.314C287.634 101.597 289.969 100.711 291.504 99.4825C292.316 98.8329 293.057 98.1932 293.674 97.5756C294.095 97.1545 294.646 96.5631 295.112 95.838C295.904 94.799 296.256 93.6608 296.389 92.6644C296.553 92.2147 296.695 91.8875 296.808 91.6618L297.336 90.6061V89.4258C297.336 85.6127 294.992 82.7233 292.528 80.7156C289.994 78.651 286.507 76.8178 282.357 75.1273L282.283 75.097L282.207 75.0691C274.217 72.1097 267.656 70.2827 262.809 69.9365L262.631 69.9238H257.443L227.112 77.5067L186.559 85.0429C187.229 82.1315 187.473 78.6772 187.473 74.9238V73.166C187.473 62.4581 185.104 53.0008 180.121 45.0277L180.07 44.9459L180.015 44.8662C174.624 36.9371 167.905 30.6778 159.867 26.1765L159.831 26.1563L159.794 26.1367C152.104 21.996 145.636 18.8305 140.431 16.6872L140.386 16.6684L140.34 16.6505C134.924 14.5445 130.112 13.2344 126.223 13.2344C124.795 13.2344 122.981 13.3863 121.35 14.2017C120.529 14.6123 119.56 15.1895 118.732 16.0172C117.171 17.5786 116.828 19.5144 116.828 20.8711V21.75C116.828 23.0603 117.033 24.7143 117.336 26.5271L117.358 26.6591L117.387 26.7897C117.804 28.6661 118.772 31.0936 120.031 33.8351C121.334 36.6708 123.105 40.1711 125.324 44.3132L125.331 44.326L137.199 66.7439L145.23 81.4679L145.353 81.6524C147.728 85.2146 149.834 88.2258 151.666 90.668L151.743 90.7705L151.825 90.8689C151.946 91.0142 152.072 91.1634 152.203 91.3164L127.806 94.1315L74.7458 101.148L48.8895 102.931L48.3842 103.075C46.0122 103.753 43.8312 104.641 41.9119 105.793L41.6907 105.925L41.4844 106.08C39.8852 107.279 37.7266 109.455 37.7266 112.717C37.7266 113.376 37.8557 113.957 37.8984 114.149L37.9006 114.159C37.9673 114.459 38.0518 114.775 38.1387 115.079C38.3143 115.694 38.5602 116.469 38.8621 117.374C39.6229 119.657 41.3271 121.327 42.8753 122.511C44.5178 123.767 46.5944 124.932 48.9617 126.037C53.9832 128.38 59.4481 129.689 65.3008 130.014L77.4889 130.691L80.9754 143.94L90.6443 176.902C93.2575 186.778 96.1673 198.708 99.3742 212.701L99.3763 212.711L108.14 251.711C109.32 258.042 110.48 263.295 111.627 267.424C112.717 271.347 113.906 274.685 115.314 276.963C115.573 277.437 115.831 277.901 116.086 278.354L71.0668 283.982L71.0234 283.988C61.02 285.417 45.9842 286.581 25.8102 287.458L25.7838 287.459L-6.95825 289.229L-7.15301 289.255C-9.50212 289.568 -11.6067 289.986 -13.3468 290.566C-14.8933 291.082 -17.0115 291.993 -18.4023 293.848L-18.7991 294.377L-19.0447 294.991C-19.8486 297 -20.2812 299.094 -20.2812 301.242V302.054L-20.0247 302.823C-19.3194 304.939 -17.8144 306.603 -16.3765 307.862ZM111.486 146.857L111.434 146.779L99.2691 129.935L154.845 123.844L154.869 123.842C160.562 123.271 178.066 121.106 207.264 117.363L208.481 122.228L208.639 122.597C209.126 123.734 209.553 125.873 209.553 129.416C209.553 131.231 209.423 133.219 209.152 135.388L209.125 135.601L209.117 135.816C208.836 143.127 207.411 155.476 204.778 173.033C201.863 191.105 198.808 207.099 195.617 221.024L195.614 221.035L195.612 221.045C192.578 234.561 188.358 251.385 182.945 271.532L141.296 275.35L142.453 271.879L142.499 271.693C143.183 268.958 143.796 264.529 144.381 258.673L144.406 258.425V253.342C144.406 241.134 142.577 227.69 138.989 213.041L138.967 212.949L138.94 212.857C134.227 196.359 129.767 183.102 125.552 173.166L125.538 173.134L125.524 173.101C121.044 162.948 116.371 154.185 111.486 146.857Z" fill="black"/>
</svg>
