<svg width="350" height="350" viewBox="0 0 350 350" fill="none" xmlns="http://www.w3.org/2000/svg">
<path d="M74.7914 299.999L94.8173 297.496L88.9189 189.64L88.9184 189.629C88.6286 183.834 88.1933 177.445 87.611 170.458C87.033 163.522 86.3203 158.018 85.4936 153.885C84.7038 149.936 83.3865 146.11 81.5298 142.396C80.4499 140.236 79.5826 138.273 78.9755 136.538C78.3966 134.884 77.9258 133.086 77.9258 131.371V130.492C77.9258 127.908 78.9551 125.634 80.7086 123.88C81.8607 122.728 83.2986 122.017 84.5366 121.541C85.8437 121.038 87.3491 120.641 88.9764 120.316L89.4619 120.219H89.957C93.3559 120.219 97.1019 120.724 101.15 121.656C105.429 122.575 109.349 123.811 112.88 125.393C116.676 126.68 120.304 128.426 123.762 130.617C125.688 131.747 127.41 132.969 128.759 134.317C130.093 135.652 131.418 137.467 131.803 139.778L131.871 140.186V141.479C131.871 144.094 131.053 147.38 129.857 150.97C129.196 152.953 128.49 157.355 127.901 164.721C127.319 172.29 127.039 177.68 127.037 180.993L128.713 293.718L179.42 288.573L178.561 91.4639L177.686 61.2698C177.115 51.0178 176.553 43.8413 176.009 39.6197L172.567 26.7135L172.557 26.6756C171.458 22.2783 170.126 18.7459 168.624 15.9919L168.581 15.9136L168.542 15.8337C167.179 13.1084 166.256 10.2663 166.256 7.44531V6.56641C166.256 2.97977 168.084 0.120312 170.534 -1.97536C173.053 -4.3693 176.473 -5.02539 179.605 -5.02539C180.87 -5.02539 182.168 -4.83921 183.457 -4.54182C187.775 -4.2029 191.859 -3.40846 195.689 -2.13209L195.801 -2.09446L209.7 3.28558L209.859 3.36067C215.137 5.84433 219.502 8.62989 222.692 11.8199L222.785 11.9129L222.873 12.0106C224.282 13.5767 225.478 15.0558 226.393 16.4272C227.252 17.7164 228.116 19.2793 228.454 20.9667L228.551 21.4522V22.3867C228.551 24.1019 228.08 25.8999 227.501 27.5541C226.912 29.2365 226.078 31.1344 225.043 33.2181C223.987 35.8924 222.75 39.7325 221.337 44.8187C219.971 49.7382 218.541 57.6531 217.082 68.7421L217.081 68.7508L217.08 68.7594C215.652 79.3252 214.928 91.5451 214.928 105.443V140.094L235.819 134.029L235.858 134.018C238.944 133.176 243.525 131.747 249.655 129.704L249.688 129.693L249.72 129.683C255.872 127.725 260.295 126.39 262.872 125.727C265.685 124.607 268.382 123.614 270.96 122.749C273.402 121.669 275.506 120.834 277.077 120.418C278.165 120.067 279.407 119.779 280.68 119.779C284.094 119.779 287.728 120.688 291.479 122.216C296.168 123.406 300.198 124.787 303.468 126.409C306.492 127.764 309.439 129.583 312.314 131.819L312.428 131.908L312.537 132.003C313.899 133.195 315.125 134.474 316.041 135.849C316.944 137.203 317.76 138.973 317.76 141.039V141.918C317.76 144.298 316.547 146.08 315.416 147.211C314.405 148.222 313.16 149.03 311.893 149.694C310.882 150.398 309.698 150.913 308.687 151.305C307.343 151.825 305.691 152.35 303.781 152.885C299.951 153.957 294.765 155.157 288.273 156.485L288.199 156.5L242.532 164.404C239.408 165.083 235.526 165.375 231.021 165.375C228.596 165.375 226.508 165.3 224.811 165.13C223.579 165.007 222.123 164.801 220.825 164.324L214.888 163.264L214.086 284.826L245.944 281.078L246.07 281.07C250.198 280.794 260.646 279.372 277.716 276.723L277.745 276.719L277.775 276.714C294.094 274.383 305.398 272.644 311.759 271.491C318.18 270.035 323.305 269.193 326.822 269.193H327.03L327.237 269.211C331.334 269.552 336.026 270.718 341.23 272.555C346.376 274.37 351.511 276.486 356.637 278.898C361.837 281.345 366.119 283.928 369.255 286.716C372.364 289.479 374.787 292.844 375.29 296.864L375.328 297.173V297.484C375.328 300.967 374.205 304.158 371.972 306.838L371.827 307.012L371.666 307.172C368.404 310.434 363.229 311.265 358.101 311.273L343.597 311.713H336.93C331.293 311.713 323.181 311.565 312.621 311.272L312.598 311.271L312.575 311.27C304.732 310.98 296.445 310.834 287.711 310.834C279.288 310.834 270.423 310.979 261.114 311.269C249.996 311.855 234.202 312.732 213.729 313.902C193.266 315.071 175.763 316.385 161.206 317.84C146.663 319.295 132.416 321.185 118.465 323.51C104.49 325.839 94.4696 327.582 88.3678 328.742L70.1117 333.089L54.5018 337.425C49.1411 339.204 44.4636 340.277 40.7383 340.277H39.4199C35.6663 340.277 30.946 339.188 25.5341 337.384C20.0497 335.556 14.8492 333.416 9.93776 330.96L9.87893 330.931L9.82089 330.9C5.17365 328.422 1.3586 325.739 -1.25702 322.75L-1.29669 322.704L-1.33525 322.658C-3.15017 320.48 -4.69141 317.757 -4.69141 314.623C-4.69141 313.173 -4.32278 311.827 -3.72409 310.629L-3.4872 310.155L-3.1563 309.742C-1.12572 307.204 1.71077 305.713 4.80881 304.938L5.28017 304.82L22.6843 303.928C27.1421 303.314 35.9367 302.732 48.813 302.16C62.3043 301.279 70.8768 300.558 74.748 300.005L74.7914 299.999Z" fill="black"/>
</svg>
