<svg width="350" height="350" viewBox="0 0 350 350" fill="none" xmlns="http://www.w3.org/2000/svg">
<path fill-rule="evenodd" clip-rule="evenodd" d="M301.068 198.05C300.042 196.819 298.668 195.658 297.101 194.553L295.285 193.1L314.172 153.685L314.212 153.589C315.55 150.378 317.904 146.056 321.372 140.564L321.388 140.539L321.403 140.514C324.561 135.347 327.076 132.125 328.94 130.481L336.95 123.806L337.078 123.678C339.061 121.695 340.729 119.399 341.249 116.8L341.326 116.412V115.137C341.326 111.651 339.565 108.643 337.078 106.156C334.323 103.401 331.008 100.539 327.158 97.5697C323.597 94.3129 320.153 91.4692 316.827 89.0502C313.137 86.3662 308.723 84.4284 303.684 83.1573C299.66 81.9272 295.916 81.2539 292.502 81.2539H290.744C289.526 81.2539 287.974 81.5317 286.342 81.9027C284.617 82.2947 282.478 82.8694 279.948 83.6137C275.154 85.0236 270.532 86.0015 266.078 86.5582L265.906 86.5798L265.736 86.6161C261.748 87.4707 258.25 88.0267 255.226 88.3016L255.013 88.3209L254.803 88.3628C252.095 88.9046 242.804 90.0555 226.592 91.8241L226.59 91.8244L198.626 94.8475L198.942 83.1647L198.942 83.1542C199.235 71.139 199.527 62.8596 199.814 58.2573C200.106 53.5923 200.396 49.6773 200.685 46.5047C200.946 43.6298 201.605 40.5644 202.693 37.3001L202.792 37.0023L202.844 36.6928C203.37 33.536 204.281 30.6991 205.552 28.156C206.325 26.6112 206.95 25.2091 207.39 23.9772C207.801 22.8245 208.172 21.4982 208.172 20.2148C208.172 17.5619 207.29 14.9725 205.887 12.5174L205.712 12.2117L205.487 11.9412C203.578 9.65005 200.614 7.46606 196.959 5.33395L196.814 5.24959L187.387 0.760564L187.339 0.739285C184.446 -0.546667 181.142 -1.64076 177.456 -2.56221C173.826 -3.46983 170.672 -4 168.137 -4C166.198 -4 164.387 -3.84287 162.821 -3.42549C161.307 -3.02176 159.548 -2.24689 158.345 -0.642188C156.775 1.45077 156.227 4.01334 156.227 6.5918V7.15202L156.38 7.69068C157.027 9.9524 158.114 12.8848 159.589 16.4281C161.004 20.1118 161.949 23.1156 162.474 25.4771L162.486 25.5285L162.498 25.5795C162.704 26.4041 162.978 28.3379 163.274 31.6652C163.561 34.8954 163.851 39.2018 164.143 44.6007L165.012 60.6881L163.81 97.9661L90.4272 107.087L81.3696 103.543C80.9476 103.356 80.4681 103.199 80.1194 103.087C79.6043 102.922 78.9457 102.726 78.1589 102.502C76.5808 102.051 74.3887 101.456 71.5961 100.722L71.4997 100.696L71.4022 100.676C65.8815 99.5134 61.6806 98.832 59.1523 98.832H58.5509L57.976 99.0089C55.8706 99.6567 53.9506 100.471 52.4329 101.555C50.9057 102.645 49.4368 104.275 49.0544 106.569L49 106.896V108.545C49 111.427 50.195 114.137 51.9423 116.583L52.1014 116.805L59.419 124.553C60.4181 126.38 61.7204 129.254 63.3324 133.281C65.0034 137.743 66.0814 141.688 66.6165 145.135L74.0756 204.37C74.9491 212.508 76.1449 218.801 77.8159 222.887C79.189 226.934 81.4253 230.396 84.531 233.184C85.6413 234.286 86.7603 235.245 87.8764 235.955C88.9589 236.644 90.4244 237.35 92.1113 237.35H93.0432L93.5209 237.23C95.7354 236.677 97.6789 235.197 99.3343 233.541C101.059 231.816 102.751 228.917 104.454 225.278L161.875 220.558L160.621 305.862L161.061 333.182L161.502 353.033L162.386 369.382L162.388 369.407C162.693 373.988 163.307 378.304 164.239 382.345L164.247 382.38L164.256 382.415C164.752 384.398 165.464 386.306 166.585 387.8C167.79 389.407 169.641 390.719 172.092 390.719H172.531C174.921 390.719 176.684 389.306 177.787 388.103C178.953 386.831 179.99 385.139 180.943 383.234C183.12 378.881 184.58 374.578 185.25 370.338C186.147 366.428 187.175 360.977 188.334 354.027C189.796 346.419 190.708 340.69 191.019 336.953C191.315 333.41 191.902 325.477 192.78 313.183C193.661 301.441 194.107 291.683 194.109 283.938L195.774 218.199L283.55 212.291L296.441 211.37L296.983 211.167C298.524 210.589 300.044 209.737 301.204 208.431C302.439 207.043 303.094 205.329 303.094 203.467V203.027C303.094 200.959 302.08 199.265 301.068 198.05ZM219.399 187.206C214.384 187.959 207.014 188.828 197.257 189.814L198.445 116.163L224.485 113.831L224.663 113.799C227.538 113.276 233.825 112.838 243.84 112.543L243.902 112.541L243.965 112.538C253.574 111.955 262.889 111.518 271.911 111.227C274.363 111.23 276.191 111.404 277.48 111.685C278.646 111.938 279.061 112.212 279.125 112.254C279.13 112.258 279.134 112.26 279.134 112.26C279.134 112.26 279.131 112.257 279.127 112.252C279.577 112.702 280.152 113.703 280.152 116.016V116.665L280.358 117.281C280.522 117.774 280.592 118.226 280.592 118.652C280.592 120.996 279.991 124.36 278.577 128.885L278.568 128.912L262.625 182.615L252.098 183.668L219.48 187.194L219.399 187.206ZM105.308 197.432L161.999 193.161L163.182 120.248C154.758 121.555 145.502 123.07 135.411 124.793C123.515 126.824 113.676 128.704 105.879 130.433L97.7883 132.922L105.308 197.432Z" fill="black"/>
</svg>
