<svg width="350" height="350" viewBox="0 0 350 350" fill="none" xmlns="http://www.w3.org/2000/svg">
<mask id="path-1-outside-1_2793_1104" maskUnits="userSpaceOnUse" x="-4" y="12" width="358" height="325" fill="black">
<rect fill="white" x="-4" y="12" width="358" height="325"/>
<path d="M91.7277 86.7864L124.524 67.8807C134.431 62.0185 143.314 56.1563 151.171 50.294C159.37 44.4318 165.178 39.4489 168.594 35.3454C172.011 30.6556 174.061 26.552 174.744 23.0347C175.427 19.5173 176.11 17.4656 176.794 16.8793C177.477 16.2931 179.014 16 181.406 16C183.114 16 185.847 16.4397 189.605 17.319C193.363 18.1983 197.121 19.2242 200.878 20.3967C204.636 21.8622 209.59 24.0606 215.739 26.9917C221.889 29.9228 226.33 32.8539 229.063 35.785C231.113 38.7161 232.138 40.7679 232.138 41.9404V42.38C231.454 43.5525 230.6 44.4318 229.575 45.018C228.551 45.6043 226.33 46.1905 222.914 46.7767C219.497 47.3629 216.593 47.9491 214.202 48.5354C211.811 49.7078 208.224 51.3199 203.441 53.3717C197.975 55.4235 192.85 57.6218 188.067 59.9667L166.545 70.5187C158.687 74.0361 149.976 77.5534 140.41 81.0707C130.503 84.5881 122.645 87.2261 116.837 88.9847L95.8272 94.7004C95.8272 96.166 95.6564 97.0453 95.3148 97.3384C94.9732 97.6315 94.4607 98.804 93.7775 100.856C92.4109 102.908 91.5569 105.106 91.2152 107.451C90.532 109.796 90.0195 114.485 89.6779 121.52V136.908L87.1157 161.969C85.7491 174.866 84.2118 186.005 82.5037 195.384C81.1371 204.764 77.3792 216.195 71.2299 229.678C65.7638 243.161 59.2728 254.739 51.757 264.412C44.9244 273.791 37.9209 281.705 30.7467 288.154C23.5725 294.309 17.9356 298.853 13.836 301.784L5.6369 306.62C4.61201 307.206 3.75793 307.499 3.07467 307.499C2.04978 307.499 1.19571 307.206 0.512445 306.62C0.170815 306.327 0 305.887 0 305.301C0 303.835 0.854075 302.223 2.56223 300.465L7.17423 295.628C9.56564 292.697 13.836 286.835 19.9854 278.042C26.1347 269.248 31.0883 261.627 34.8463 255.179C38.6042 249.024 42.1913 241.256 45.6076 231.877C49.0239 222.79 51.757 213.85 53.8067 205.057C56.1981 196.264 58.0771 187.031 59.4436 177.358C60.8102 167.685 61.835 157.866 62.5183 147.9C62.8599 138.521 63.2016 131.193 63.5432 125.917C63.8848 120.934 64.0556 117.71 64.0556 116.244C63.714 112.727 63.0307 108.916 62.0059 104.813C60.981 100.709 59.2728 96.6056 56.8814 92.5021C54.8316 88.3985 53.6359 85.614 53.2943 84.1484C53.2943 82.6828 53.8067 81.5104 54.8316 80.6311C55.5149 79.7517 56.8814 79.019 58.9312 78.4327H60.981C63.714 78.4327 67.8136 79.1655 73.2796 80.6311L83.5286 83.2691L91.7277 86.7864ZM130.161 238.472L131.698 159.331C132.04 155.521 132.211 151.564 132.211 147.46C132.211 143.357 132.04 139.107 131.698 134.71C131.015 125.624 129.819 119.322 128.111 115.804C126.403 111.994 125.549 109.356 125.549 107.89C125.549 106.425 126.232 105.106 127.599 103.933C128.965 102.761 131.357 102.175 134.773 102.175C136.481 102.468 139.556 103.054 143.997 103.933C148.78 105.106 152.879 106.425 156.296 107.89C160.395 109.356 162.958 110.968 163.982 112.727C165.007 114.779 165.52 116.391 165.52 117.563C165.52 118.442 164.837 120.348 163.47 123.279C162.103 126.21 161.079 128.848 160.395 131.193C159.712 134.124 159.2 137.641 158.858 141.745C158.516 145.848 158.175 151.417 157.833 158.452L155.271 260.015V266.171C155.271 272.619 155.612 279.8 156.296 287.714C157.321 294.456 157.833 300.025 157.833 304.422C157.833 306.473 157.662 308.232 157.321 309.698C156.637 313.215 155.442 316.439 153.734 319.37C152.367 322.595 150.488 325.672 148.097 328.603C146.047 331.241 143.997 332.707 141.947 333C139.898 333 137.506 331.241 134.773 327.724C131.357 323.914 128.965 320.25 127.599 316.732C126.574 313.215 125.891 309.844 125.549 306.62C125.549 303.396 125.891 297.973 126.574 290.352C127.257 285.076 127.94 276.576 128.624 264.852L130.161 238.472ZM344.363 288.594L333.602 290.352C330.869 290.645 325.403 290.939 317.204 291.232L296.706 291.671H292.606C286.115 291.671 281.162 291.085 277.745 289.913C273.304 288.74 269.717 287.128 266.984 285.076C263.909 282.731 261.176 279.361 258.785 274.964C256.052 270.567 252.977 264.558 249.561 256.938L233.163 220.885C231.796 218.54 228.038 210.04 221.889 195.384C215.739 180.729 210.444 168.711 206.003 159.331C201.562 149.366 197.975 142.038 195.242 137.348C192.509 132.658 190.117 128.848 188.067 125.917C186.018 122.986 184.309 120.934 182.943 119.761L176.794 114.925C176.11 114.339 175.598 113.753 175.256 113.166C174.915 112.873 174.744 112.434 174.744 111.847C174.744 110.089 175.598 108.77 177.306 107.89C178.673 107.011 180.551 106.425 182.943 106.132H184.48C186.188 106.132 187.897 106.425 189.605 107.011C191.996 107.89 194.217 109.209 196.266 110.968C198.658 112.727 200.878 115.072 202.928 118.003C205.32 120.934 207.711 124.598 210.102 128.994L221.376 151.417C226.501 161.969 230.942 170.47 234.7 176.918C238.458 183.367 243.07 190.694 248.536 198.902C253.66 207.109 259.81 215.169 266.984 223.083C273.816 230.997 281.503 238.178 290.044 244.627L314.129 262.214C321.986 266.903 328.819 270.714 334.627 273.645L345.9 278.921C348.633 280.386 350 281.999 350 283.757V285.076C349.317 287.128 347.438 288.301 344.363 288.594Z"/>
</mask>
<path d="M91.7277 86.7864L124.524 67.8807C134.431 62.0185 143.314 56.1563 151.171 50.294C159.37 44.4318 165.178 39.4489 168.594 35.3454C172.011 30.6556 174.061 26.552 174.744 23.0347C175.427 19.5173 176.11 17.4656 176.794 16.8793C177.477 16.2931 179.014 16 181.406 16C183.114 16 185.847 16.4397 189.605 17.319C193.363 18.1983 197.121 19.2242 200.878 20.3967C204.636 21.8622 209.59 24.0606 215.739 26.9917C221.889 29.9228 226.33 32.8539 229.063 35.785C231.113 38.7161 232.138 40.7679 232.138 41.9404V42.38C231.454 43.5525 230.6 44.4318 229.575 45.018C228.551 45.6043 226.33 46.1905 222.914 46.7767C219.497 47.3629 216.593 47.9491 214.202 48.5354C211.811 49.7078 208.224 51.3199 203.441 53.3717C197.975 55.4235 192.85 57.6218 188.067 59.9667L166.545 70.5187C158.687 74.0361 149.976 77.5534 140.41 81.0707C130.503 84.5881 122.645 87.2261 116.837 88.9847L95.8272 94.7004C95.8272 96.166 95.6564 97.0453 95.3148 97.3384C94.9732 97.6315 94.4607 98.804 93.7775 100.856C92.4109 102.908 91.5569 105.106 91.2152 107.451C90.532 109.796 90.0195 114.485 89.6779 121.52V136.908L87.1157 161.969C85.7491 174.866 84.2118 186.005 82.5037 195.384C81.1371 204.764 77.3792 216.195 71.2299 229.678C65.7638 243.161 59.2728 254.739 51.757 264.412C44.9244 273.791 37.9209 281.705 30.7467 288.154C23.5725 294.309 17.9356 298.853 13.836 301.784L5.6369 306.62C4.61201 307.206 3.75793 307.499 3.07467 307.499C2.04978 307.499 1.19571 307.206 0.512445 306.62C0.170815 306.327 0 305.887 0 305.301C0 303.835 0.854075 302.223 2.56223 300.465L7.17423 295.628C9.56564 292.697 13.836 286.835 19.9854 278.042C26.1347 269.248 31.0883 261.627 34.8463 255.179C38.6042 249.024 42.1913 241.256 45.6076 231.877C49.0239 222.79 51.757 213.85 53.8067 205.057C56.1981 196.264 58.0771 187.031 59.4436 177.358C60.8102 167.685 61.835 157.866 62.5183 147.9C62.8599 138.521 63.2016 131.193 63.5432 125.917C63.8848 120.934 64.0556 117.71 64.0556 116.244C63.714 112.727 63.0307 108.916 62.0059 104.813C60.981 100.709 59.2728 96.6056 56.8814 92.5021C54.8316 88.3985 53.6359 85.614 53.2943 84.1484C53.2943 82.6828 53.8067 81.5104 54.8316 80.6311C55.5149 79.7517 56.8814 79.019 58.9312 78.4327H60.981C63.714 78.4327 67.8136 79.1655 73.2796 80.6311L83.5286 83.2691L91.7277 86.7864ZM130.161 238.472L131.698 159.331C132.04 155.521 132.211 151.564 132.211 147.46C132.211 143.357 132.04 139.107 131.698 134.71C131.015 125.624 129.819 119.322 128.111 115.804C126.403 111.994 125.549 109.356 125.549 107.89C125.549 106.425 126.232 105.106 127.599 103.933C128.965 102.761 131.357 102.175 134.773 102.175C136.481 102.468 139.556 103.054 143.997 103.933C148.78 105.106 152.879 106.425 156.296 107.89C160.395 109.356 162.958 110.968 163.982 112.727C165.007 114.779 165.52 116.391 165.52 117.563C165.52 118.442 164.837 120.348 163.47 123.279C162.103 126.21 161.079 128.848 160.395 131.193C159.712 134.124 159.2 137.641 158.858 141.745C158.516 145.848 158.175 151.417 157.833 158.452L155.271 260.015V266.171C155.271 272.619 155.612 279.8 156.296 287.714C157.321 294.456 157.833 300.025 157.833 304.422C157.833 306.473 157.662 308.232 157.321 309.698C156.637 313.215 155.442 316.439 153.734 319.37C152.367 322.595 150.488 325.672 148.097 328.603C146.047 331.241 143.997 332.707 141.947 333C139.898 333 137.506 331.241 134.773 327.724C131.357 323.914 128.965 320.25 127.599 316.732C126.574 313.215 125.891 309.844 125.549 306.62C125.549 303.396 125.891 297.973 126.574 290.352C127.257 285.076 127.94 276.576 128.624 264.852L130.161 238.472ZM344.363 288.594L333.602 290.352C330.869 290.645 325.403 290.939 317.204 291.232L296.706 291.671H292.606C286.115 291.671 281.162 291.085 277.745 289.913C273.304 288.74 269.717 287.128 266.984 285.076C263.909 282.731 261.176 279.361 258.785 274.964C256.052 270.567 252.977 264.558 249.561 256.938L233.163 220.885C231.796 218.54 228.038 210.04 221.889 195.384C215.739 180.729 210.444 168.711 206.003 159.331C201.562 149.366 197.975 142.038 195.242 137.348C192.509 132.658 190.117 128.848 188.067 125.917C186.018 122.986 184.309 120.934 182.943 119.761L176.794 114.925C176.11 114.339 175.598 113.753 175.256 113.166C174.915 112.873 174.744 112.434 174.744 111.847C174.744 110.089 175.598 108.77 177.306 107.89C178.673 107.011 180.551 106.425 182.943 106.132H184.48C186.188 106.132 187.897 106.425 189.605 107.011C191.996 107.89 194.217 109.209 196.266 110.968C198.658 112.727 200.878 115.072 202.928 118.003C205.32 120.934 207.711 124.598 210.102 128.994L221.376 151.417C226.501 161.969 230.942 170.47 234.7 176.918C238.458 183.367 243.07 190.694 248.536 198.902C253.66 207.109 259.81 215.169 266.984 223.083C273.816 230.997 281.503 238.178 290.044 244.627L314.129 262.214C321.986 266.903 328.819 270.714 334.627 273.645L345.9 278.921C348.633 280.386 350 281.999 350 283.757V285.076C349.317 287.128 347.438 288.301 344.363 288.594Z" fill="black"/>
<path d="M91.7277 86.7864L124.524 67.8807C134.431 62.0185 143.314 56.1563 151.171 50.294C159.37 44.4318 165.178 39.4489 168.594 35.3454C172.011 30.6556 174.061 26.552 174.744 23.0347C175.427 19.5173 176.11 17.4656 176.794 16.8793C177.477 16.2931 179.014 16 181.406 16C183.114 16 185.847 16.4397 189.605 17.319C193.363 18.1983 197.121 19.2242 200.878 20.3967C204.636 21.8622 209.59 24.0606 215.739 26.9917C221.889 29.9228 226.33 32.8539 229.063 35.785C231.113 38.7161 232.138 40.7679 232.138 41.9404V42.38C231.454 43.5525 230.6 44.4318 229.575 45.018C228.551 45.6043 226.33 46.1905 222.914 46.7767C219.497 47.3629 216.593 47.9491 214.202 48.5354C211.811 49.7078 208.224 51.3199 203.441 53.3717C197.975 55.4235 192.85 57.6218 188.067 59.9667L166.545 70.5187C158.687 74.0361 149.976 77.5534 140.41 81.0707C130.503 84.5881 122.645 87.2261 116.837 88.9847L95.8272 94.7004C95.8272 96.166 95.6564 97.0453 95.3148 97.3384C94.9732 97.6315 94.4607 98.804 93.7775 100.856C92.4109 102.908 91.5569 105.106 91.2152 107.451C90.532 109.796 90.0195 114.485 89.6779 121.52V136.908L87.1157 161.969C85.7491 174.866 84.2118 186.005 82.5037 195.384C81.1371 204.764 77.3792 216.195 71.2299 229.678C65.7638 243.161 59.2728 254.739 51.757 264.412C44.9244 273.791 37.9209 281.705 30.7467 288.154C23.5725 294.309 17.9356 298.853 13.836 301.784L5.6369 306.62C4.61201 307.206 3.75793 307.499 3.07467 307.499C2.04978 307.499 1.19571 307.206 0.512445 306.62C0.170815 306.327 0 305.887 0 305.301C0 303.835 0.854075 302.223 2.56223 300.465L7.17423 295.628C9.56564 292.697 13.836 286.835 19.9854 278.042C26.1347 269.248 31.0883 261.627 34.8463 255.179C38.6042 249.024 42.1913 241.256 45.6076 231.877C49.0239 222.79 51.757 213.85 53.8067 205.057C56.1981 196.264 58.0771 187.031 59.4436 177.358C60.8102 167.685 61.835 157.866 62.5183 147.9C62.8599 138.521 63.2016 131.193 63.5432 125.917C63.8848 120.934 64.0556 117.71 64.0556 116.244C63.714 112.727 63.0307 108.916 62.0059 104.813C60.981 100.709 59.2728 96.6056 56.8814 92.5021C54.8316 88.3985 53.6359 85.614 53.2943 84.1484C53.2943 82.6828 53.8067 81.5104 54.8316 80.6311C55.5149 79.7517 56.8814 79.019 58.9312 78.4327H60.981C63.714 78.4327 67.8136 79.1655 73.2796 80.6311L83.5286 83.2691L91.7277 86.7864ZM130.161 238.472L131.698 159.331C132.04 155.521 132.211 151.564 132.211 147.46C132.211 143.357 132.04 139.107 131.698 134.71C131.015 125.624 129.819 119.322 128.111 115.804C126.403 111.994 125.549 109.356 125.549 107.89C125.549 106.425 126.232 105.106 127.599 103.933C128.965 102.761 131.357 102.175 134.773 102.175C136.481 102.468 139.556 103.054 143.997 103.933C148.78 105.106 152.879 106.425 156.296 107.89C160.395 109.356 162.958 110.968 163.982 112.727C165.007 114.779 165.52 116.391 165.52 117.563C165.52 118.442 164.837 120.348 163.47 123.279C162.103 126.21 161.079 128.848 160.395 131.193C159.712 134.124 159.2 137.641 158.858 141.745C158.516 145.848 158.175 151.417 157.833 158.452L155.271 260.015V266.171C155.271 272.619 155.612 279.8 156.296 287.714C157.321 294.456 157.833 300.025 157.833 304.422C157.833 306.473 157.662 308.232 157.321 309.698C156.637 313.215 155.442 316.439 153.734 319.37C152.367 322.595 150.488 325.672 148.097 328.603C146.047 331.241 143.997 332.707 141.947 333C139.898 333 137.506 331.241 134.773 327.724C131.357 323.914 128.965 320.25 127.599 316.732C126.574 313.215 125.891 309.844 125.549 306.62C125.549 303.396 125.891 297.973 126.574 290.352C127.257 285.076 127.94 276.576 128.624 264.852L130.161 238.472ZM344.363 288.594L333.602 290.352C330.869 290.645 325.403 290.939 317.204 291.232L296.706 291.671H292.606C286.115 291.671 281.162 291.085 277.745 289.913C273.304 288.74 269.717 287.128 266.984 285.076C263.909 282.731 261.176 279.361 258.785 274.964C256.052 270.567 252.977 264.558 249.561 256.938L233.163 220.885C231.796 218.54 228.038 210.04 221.889 195.384C215.739 180.729 210.444 168.711 206.003 159.331C201.562 149.366 197.975 142.038 195.242 137.348C192.509 132.658 190.117 128.848 188.067 125.917C186.018 122.986 184.309 120.934 182.943 119.761L176.794 114.925C176.11 114.339 175.598 113.753 175.256 113.166C174.915 112.873 174.744 112.434 174.744 111.847C174.744 110.089 175.598 108.77 177.306 107.89C178.673 107.011 180.551 106.425 182.943 106.132H184.48C186.188 106.132 187.897 106.425 189.605 107.011C191.996 107.89 194.217 109.209 196.266 110.968C198.658 112.727 200.878 115.072 202.928 118.003C205.32 120.934 207.711 124.598 210.102 128.994L221.376 151.417C226.501 161.969 230.942 170.47 234.7 176.918C238.458 183.367 243.07 190.694 248.536 198.902C253.66 207.109 259.81 215.169 266.984 223.083C273.816 230.997 281.503 238.178 290.044 244.627L314.129 262.214C321.986 266.903 328.819 270.714 334.627 273.645L345.9 278.921C348.633 280.386 350 281.999 350 283.757V285.076C349.317 287.128 347.438 288.301 344.363 288.594Z" stroke="black" stroke-width="8" mask="url(#path-1-outside-1_2793_1104)"/>
</svg>
