<svg width="350" height="350" viewBox="0 0 350 350" fill="none" xmlns="http://www.w3.org/2000/svg">
<path d="M91.7277 86.7864L124.524 67.8807C134.431 62.0185 143.314 56.1563 151.171 50.294C159.37 44.4318 165.178 39.4489 168.594 35.3454C172.011 30.6556 174.061 26.552 174.744 23.0347C175.427 19.5173 176.11 17.4656 176.794 16.8793C177.477 16.2931 179.014 16 181.406 16C183.114 16 185.847 16.4397 189.605 17.319C193.363 18.1983 197.121 19.2242 200.878 20.3967C204.636 21.8622 209.59 24.0606 215.739 26.9917C221.889 29.9228 226.33 32.8539 229.063 35.785C231.113 38.7161 232.138 40.7679 232.138 41.9404V42.38C231.454 43.5525 230.6 44.4318 229.575 45.018C228.551 45.6043 226.33 46.1905 222.914 46.7767C219.497 47.3629 216.593 47.9491 214.202 48.5354C211.811 49.7078 208.224 51.3199 203.441 53.3717C197.975 55.4235 192.85 57.6218 188.067 59.9667L166.545 70.5187C158.687 74.0361 149.976 77.5534 140.41 81.0707C130.503 84.5881 122.645 87.2261 116.837 88.9847L95.8272 94.7004C95.8272 96.166 95.6564 97.0453 95.3148 97.3384C94.9732 97.6315 94.4607 98.804 93.7775 100.856C92.4109 102.908 91.5569 105.106 91.2152 107.451C90.532 109.796 90.0195 114.485 89.6779 121.52V136.908L87.1157 161.969C85.7491 174.866 84.2118 186.005 82.5037 195.384C81.1371 204.764 77.3792 216.195 71.2299 229.678C65.7638 243.161 59.2728 254.739 51.757 264.412C44.9244 273.791 37.9209 281.706 30.7467 288.154C23.5725 294.309 17.9356 298.853 13.836 301.784L5.6369 306.62C4.61201 307.206 3.75793 307.499 3.07467 307.499C2.04978 307.499 1.19571 307.206 0.512445 306.62C0.170815 306.327 0 305.887 0 305.301C0 303.835 0.854075 302.223 2.56223 300.465L7.17423 295.628C9.56564 292.697 13.836 286.835 19.9854 278.042C26.1347 269.248 31.0883 261.627 34.8463 255.179C38.6042 249.024 42.1913 241.256 45.6076 231.877C49.0239 222.79 51.757 213.85 53.8067 205.057C56.1981 196.264 58.0771 187.031 59.4436 177.358C60.8102 167.685 61.835 157.866 62.5183 147.9C62.8599 138.521 63.2016 131.193 63.5432 125.917C63.8848 120.934 64.0556 117.71 64.0556 116.244C63.714 112.727 63.0307 108.916 62.0059 104.813C60.981 100.709 59.2728 96.6056 56.8814 92.5021C54.8316 88.3985 53.6359 85.614 53.2943 84.1484C53.2943 82.6828 53.8067 81.5104 54.8316 80.6311C55.5149 79.7517 56.8814 79.019 58.9312 78.4327H60.981C63.714 78.4327 67.8136 79.1655 73.2796 80.6311L83.5285 83.2691L91.7277 86.7864ZM130.161 238.472L131.698 159.331C132.04 155.521 132.211 151.564 132.211 147.46C132.211 143.357 132.04 139.107 131.698 134.71C131.015 125.624 129.819 119.322 128.111 115.804C126.403 111.994 125.549 109.356 125.549 107.89C125.549 106.425 126.232 105.106 127.599 103.933C128.965 102.761 131.357 102.175 134.773 102.175C136.481 102.468 139.556 103.054 143.997 103.933C148.78 105.106 152.879 106.425 156.296 107.89C160.395 109.356 162.958 110.968 163.982 112.727C165.007 114.779 165.52 116.391 165.52 117.563C165.52 118.442 164.837 120.348 163.47 123.279C162.103 126.21 161.079 128.848 160.395 131.193C159.712 134.124 159.2 137.641 158.858 141.745C158.516 145.848 158.175 151.417 157.833 158.452L155.271 260.015V266.171C155.271 272.619 155.613 279.8 156.296 287.714C157.321 294.456 157.833 300.025 157.833 304.422C157.833 306.473 157.662 308.232 157.321 309.698C156.637 313.215 155.442 316.439 153.734 319.37C152.367 322.595 150.488 325.672 148.097 328.603C146.047 331.241 143.997 332.707 141.947 333C139.898 333 137.506 331.241 134.773 327.724C131.357 323.914 128.965 320.25 127.599 316.732C126.574 313.215 125.891 309.844 125.549 306.62C125.549 303.396 125.891 297.973 126.574 290.352C127.257 285.076 127.94 276.576 128.624 264.852L130.161 238.472ZM344.363 288.594L333.602 290.352C330.869 290.645 325.403 290.939 317.204 291.232L296.706 291.671H292.606C286.115 291.671 281.162 291.085 277.745 289.913C273.304 288.74 269.717 287.128 266.984 285.076C263.909 282.731 261.176 279.361 258.785 274.964C256.052 270.567 252.977 264.558 249.561 256.938L233.163 220.885C231.796 218.54 228.038 210.04 221.889 195.384C215.739 180.729 210.444 168.711 206.003 159.331C201.562 149.366 197.975 142.038 195.242 137.348C192.509 132.658 190.117 128.848 188.067 125.917C186.018 122.986 184.309 120.934 182.943 119.761L176.794 114.925C176.11 114.339 175.598 113.753 175.256 113.166C174.915 112.873 174.744 112.434 174.744 111.847C174.744 110.089 175.598 108.77 177.306 107.89C178.673 107.011 180.551 106.425 182.943 106.132H184.48C186.188 106.132 187.897 106.425 189.605 107.011C191.996 107.89 194.217 109.209 196.266 110.968C198.658 112.727 200.878 115.072 202.928 118.003C205.32 120.934 207.711 124.598 210.102 128.994L221.376 151.417C226.501 161.969 230.942 170.47 234.7 176.918C238.458 183.367 243.07 190.694 248.536 198.902C253.66 207.109 259.81 215.169 266.984 223.083C273.816 230.997 281.503 238.178 290.044 244.627L314.129 262.214C321.986 266.903 328.819 270.714 334.627 273.645L345.9 278.921C348.633 280.386 350 281.999 350 283.757V285.076C349.317 287.128 347.438 288.301 344.363 288.594Z" fill="black"/>
<path d="M128.211 147.461C128.211 143.468 128.044 139.321 127.71 135.02V135.01C127.027 125.933 125.856 120.318 124.513 117.552L124.486 117.497L124.461 117.44C123.574 115.462 122.871 113.707 122.384 112.2C121.921 110.772 121.549 109.264 121.549 107.891C121.549 104.996 122.962 102.641 124.994 100.897C127.502 98.7462 131.149 98.1748 134.773 98.1748H135.113L135.449 98.2324C136.773 98.4596 138.86 98.8509 141.693 99.4033L144.774 100.01L144.862 100.027L144.949 100.049C149.833 101.246 154.116 102.612 157.764 104.168C159.929 104.949 161.842 105.82 163.422 106.813C164.905 107.747 166.296 108.914 167.253 110.409L167.438 110.713L167.503 110.824L167.561 110.939C168.646 113.113 169.52 115.421 169.52 117.563C169.519 118.761 169.12 120.033 168.772 121.002C168.373 122.117 167.804 123.449 167.096 124.969C165.812 127.722 164.88 130.129 164.268 132.203C163.653 134.872 163.17 138.152 162.844 142.076C162.509 146.102 162.171 151.599 161.831 158.587L159.271 260.077V266.171C159.271 272.453 159.603 279.482 160.272 287.265C161.298 294.044 161.833 299.781 161.833 304.422C161.833 306.618 161.653 308.647 161.246 310.459L161.247 310.46C160.5 314.307 159.193 317.884 157.314 321.164C155.798 324.677 153.751 328 151.196 331.132L151.195 331.131C148.892 334.074 146.035 336.456 142.514 336.96L142.231 337H141.947C139.764 337 137.834 336.07 136.247 334.903C134.677 333.749 133.168 332.161 131.704 330.291C128.119 326.275 125.448 322.241 123.87 318.181L123.808 318.019L123.759 317.852C122.676 314.135 121.941 310.529 121.571 307.041L121.549 306.831V306.62C121.549 303.199 121.906 297.618 122.59 289.995L122.597 289.917L122.607 289.839C123.271 284.713 123.948 276.334 124.631 264.619L126.163 238.312L127.699 159.254L127.702 159.114L127.715 158.975C128.045 155.291 128.211 151.454 128.211 147.461ZM232.138 41.9404C232.138 40.8413 231.237 38.9691 229.436 36.3242L229.062 35.7852C226.329 32.8541 221.888 29.9223 215.739 26.9912C210.359 24.4265 205.893 22.4231 202.344 20.9805L200.879 20.3965C197.591 19.3706 194.302 18.4568 191.014 17.6553L189.604 17.3193C185.847 16.44 183.113 16 181.405 16C179.015 16 177.477 16.293 176.794 16.8789C176.111 17.4651 175.427 19.5178 174.744 23.0352L174.6 23.7012C173.799 27.0673 171.797 30.9491 168.595 35.3457C165.178 39.4493 159.37 44.4317 151.171 50.2939C143.313 56.1561 134.432 62.0187 124.524 67.8809L91.7275 86.7861L83.5283 83.2695L73.2793 80.6309C68.1552 79.257 64.232 78.5273 61.5098 78.4414L60.9814 78.4326V74.4326C64.268 74.4327 68.7918 75.2866 74.3154 76.7676L84.5254 79.3955L84.8232 79.4717L91.4648 82.3203L122.526 64.415C132.316 58.6209 141.064 52.8442 148.779 47.0879L148.812 47.0635L148.845 47.04C156.898 41.2821 162.345 36.5663 165.441 32.877C168.648 28.4543 170.298 24.9427 170.817 22.2715C171.174 20.4379 171.554 18.8548 171.974 17.5938C172.184 16.9635 172.43 16.3317 172.729 15.7539C173.003 15.2263 173.456 14.4721 174.188 13.8438C175.32 12.8732 176.696 12.4843 177.71 12.291C178.818 12.0797 180.075 12 181.405 12C183.613 12 186.737 12.5397 190.516 13.4238C194.369 14.3256 198.221 15.3775 202.069 16.5781L202.202 16.6191L202.332 16.6699C206.221 18.1866 211.275 20.4321 217.461 23.3809C223.593 26.3039 228.443 29.3892 231.681 32.7324L231.988 33.0576L232.18 33.2627L232.341 33.4922C233.423 35.0401 234.313 36.4645 234.947 37.7344C235.521 38.8822 236.138 40.3842 236.138 41.9404V43.4609L235.594 44.3945C234.611 46.0816 233.282 47.5062 231.562 48.4902C230.581 49.0512 229.356 49.4496 228.162 49.7646C226.897 50.0987 225.362 50.4147 223.59 50.7188C220.425 51.2618 217.751 51.7981 215.552 52.3242C213.081 53.5203 209.559 55.0998 205.018 57.0479L204.933 57.084L204.847 57.1162C199.49 59.1269 194.485 61.2756 189.828 63.5586L168.306 74.1104L168.243 74.1406L168.179 74.1699C160.224 77.7306 151.426 81.2819 141.79 84.8252L141.77 84.833L141.748 84.8398C131.818 88.3654 123.893 91.0282 117.997 92.8135L117.888 92.8447L99.4746 97.8535C99.3109 98.424 99.0063 99.1841 98.415 99.874C98.3938 99.9192 98.3684 99.9738 98.3398 100.039C98.1537 100.465 97.8978 101.142 97.5723 102.119L97.4033 102.628L97.1064 103.073C96.0551 104.652 95.4265 106.293 95.1738 108.027L95.1338 108.303L95.0557 108.569C94.5275 110.382 94.0225 114.576 93.6777 121.623V137.112L93.6572 137.315L91.0947 162.376L91.0938 162.384V162.391C89.7241 175.317 88.1773 186.532 86.4521 196.021C85.0048 205.894 81.0973 217.668 74.8994 231.269C69.3418 244.958 62.7106 256.814 54.9736 266.788C48.0136 276.34 40.8338 284.466 33.4209 291.129L33.3867 291.16L33.3516 291.189C26.1507 297.368 20.4071 302.002 16.1621 305.037L16.0195 305.14L15.8682 305.229L7.66895 310.065L7.64648 310.079L7.62305 310.092C6.37752 310.804 4.79258 311.499 3.07422 311.499C1.23462 311.499 -0.583436 310.949 -2.0918 309.655C-3.5699 308.387 -4 306.677 -4 305.301C-3.99993 302.296 -2.296 299.733 -0.332031 297.704L4.16406 292.987C6.46684 290.149 10.6276 284.442 16.707 275.749C22.818 267.011 27.7063 259.487 31.3906 253.165L31.4111 253.13L31.4326 253.095C35.011 247.233 38.4923 239.725 41.8496 230.508L41.8633 230.469C45.2228 221.533 47.9037 212.76 49.9111 204.148L49.9277 204.078L49.9473 204.007C52.2918 195.386 54.1386 186.317 55.4834 176.798C56.8335 167.241 57.8456 157.537 58.5225 147.686C58.8638 138.325 59.2074 130.977 59.5518 125.658V125.65L59.5527 125.644C59.881 120.855 60.0388 117.833 60.0527 116.435C59.7272 113.2 59.0914 109.652 58.125 105.782C57.2021 102.087 55.65 98.3322 53.4258 94.5156L53.3604 94.4053L53.3027 94.2891C51.292 90.2637 49.8652 87.0589 49.3984 85.0566L49.2939 84.6084V84.1484C49.2939 81.7532 50.1443 79.5363 51.9395 77.8545C53.4507 76.1303 55.7286 75.1882 57.8311 74.5869L58.3701 74.4326H60.9814V78.4326H58.9316C56.8821 79.0188 55.5154 79.7517 54.832 80.6309C53.8071 81.5102 53.2939 82.6829 53.2939 84.1484C53.6356 85.614 54.8321 88.3984 56.8818 92.502C59.2732 96.6054 60.981 100.709 62.0059 104.812C63.0307 108.916 63.714 112.727 64.0557 116.244L64.0479 116.876C64.0105 118.543 63.8419 121.557 63.543 125.917L63.415 127.991C63.1161 133.057 62.8175 139.693 62.5186 147.9C61.8353 157.866 60.8098 167.685 59.4434 177.357C58.0768 187.03 56.198 196.263 53.8066 205.057C51.7569 213.85 49.0237 222.79 45.6074 231.877L44.9648 233.616C41.7421 242.22 38.3697 249.408 34.8467 255.179L34.1279 256.401C30.4647 262.584 25.7505 269.798 19.9854 278.042L17.7676 281.202C12.798 288.255 9.26629 293.063 7.17383 295.628L2.5625 300.465C0.854422 302.223 7.27669e-05 303.835 0 305.301C0 305.887 0.171065 306.327 0.512695 306.62C1.19582 307.206 2.04964 307.499 3.07422 307.499C3.67209 307.499 4.40129 307.275 5.26074 306.826L5.63672 306.62L13.8359 301.783C17.4231 299.218 22.1877 295.42 28.1289 290.387L30.7471 288.154C37.9212 281.706 44.9243 273.792 51.7568 264.412C59.2726 254.74 65.7635 243.162 71.2295 229.679C77.3788 216.196 81.1374 204.763 82.5039 195.384C84.1053 186.591 85.5563 176.252 86.8574 164.367L87.1152 161.97L89.6777 136.908V121.521C89.998 114.926 90.4683 110.391 91.0889 107.918L91.2148 107.451C91.5565 105.106 92.4108 102.907 93.7773 100.855C94.4181 98.9315 94.9087 97.7808 95.249 97.4033L95.3145 97.3389C95.6561 97.0458 95.8271 96.1658 95.8271 94.7002L116.838 88.9844C121.92 87.4455 128.571 85.2339 136.791 82.3486L140.41 81.0703C149.378 77.7729 157.595 74.4762 165.062 71.1787L166.545 70.5186L188.067 59.9668C192.252 57.915 196.699 55.9758 201.407 54.1484L203.44 53.3721C208.223 51.3203 211.811 49.7076 214.202 48.5352C216.295 48.0222 218.779 47.509 221.656 46.9961L222.914 46.7764C226.33 46.1902 228.55 45.6038 229.575 45.0176C230.6 44.4314 231.454 43.5523 232.138 42.3799V41.9404ZM174.752 112.061C174.789 112.541 174.957 112.91 175.256 113.166C175.597 113.752 176.111 114.339 176.794 114.925L182.943 119.762C184.31 120.934 186.018 122.986 188.067 125.917C190.117 128.848 192.508 132.658 195.241 137.348C197.974 142.037 201.562 149.365 206.003 159.331C210.444 168.711 215.739 180.728 221.889 195.384C228.038 210.039 231.795 218.54 233.162 220.885L249.561 256.938C252.977 264.558 256.052 270.567 258.785 274.964C261.177 279.36 263.91 282.731 266.984 285.076C269.717 287.128 273.304 288.741 277.745 289.913C280.948 291.012 285.502 291.595 291.407 291.664L292.606 291.671H296.706L317.203 291.231C324.378 290.975 329.46 290.718 332.449 290.462L333.602 290.353L344.363 288.594C347.438 288.301 349.317 287.128 350 285.076V283.757C350 281.998 348.633 280.386 345.9 278.921L334.627 273.645C328.819 270.713 321.986 266.904 314.129 262.214L290.044 244.627C282.037 238.582 274.781 231.892 268.275 224.559L266.984 223.083C260.259 215.664 254.433 208.116 249.509 200.438L248.536 198.901C243.753 191.72 239.624 185.213 236.149 179.378L234.7 176.918C230.942 170.47 226.5 161.969 221.376 151.417L210.103 128.994C207.861 124.872 205.619 121.394 203.377 118.561L202.929 118.003C200.879 115.072 198.658 112.726 196.267 110.968C194.217 109.209 191.996 107.89 189.604 107.011C188.11 106.498 186.616 106.21 185.121 106.146L184.48 106.132V102.132C186.519 102.132 188.533 102.461 190.509 103.097L190.903 103.228L190.985 103.257C193.805 104.294 196.396 105.833 198.755 107.835C201.477 109.86 203.922 112.47 206.118 115.587C208.676 118.74 211.171 122.587 213.616 127.083L213.647 127.14L213.676 127.197L224.95 149.621L224.962 149.646L224.975 149.67C230.077 160.176 234.469 168.577 238.156 174.904C241.4 180.471 245.302 186.723 249.867 193.666L251.865 196.685L251.897 196.733L251.929 196.783C256.915 204.769 262.917 212.641 269.947 220.396L270.012 220.469C276.653 228.161 284.129 235.147 292.445 241.428L316.332 258.87C324.053 263.475 330.734 267.198 336.385 270.052L347.596 275.298L347.694 275.345L347.791 275.396C350.807 277.013 354 279.65 354 283.757V285.725L353.795 286.34C352.421 290.465 348.709 292.16 344.899 292.559L334.247 294.3L334.138 294.317L334.028 294.329C331.13 294.64 325.522 294.937 317.347 295.229L317.317 295.23H317.289L296.791 295.67L296.749 295.671H292.606C286.054 295.671 280.634 295.097 276.607 293.748C271.879 292.488 267.817 290.704 264.582 288.275L264.57 288.266L264.559 288.257C260.948 285.503 257.896 281.677 255.322 276.968C252.475 272.37 249.341 266.224 245.92 258.594L229.582 222.675C227.967 219.792 224.126 211.054 218.2 196.932C212.063 182.306 206.794 170.348 202.388 161.043L202.368 161.002L202.35 160.96C197.921 151.023 194.405 143.857 191.785 139.362C189.082 134.725 186.752 131.016 184.789 128.209C182.807 125.375 181.344 123.673 180.374 122.83L174.32 118.069L174.254 118.017L174.188 117.961C173.404 117.288 172.675 116.519 172.088 115.639C171.063 114.456 170.744 113.03 170.744 111.848C170.744 110.292 171.131 108.748 172.026 107.365C172.864 106.071 174.016 105.125 175.275 104.443C177.309 103.174 179.79 102.488 182.456 102.161L182.698 102.132H184.48V106.132H182.943C180.552 106.425 178.672 107.011 177.306 107.891C175.598 108.77 174.744 110.089 174.744 111.848L174.752 112.061ZM97.9189 100.374C97.9841 100.318 98.042 100.263 98.0938 100.212C98.037 100.266 97.98 100.322 97.9189 100.374ZM125.559 108.179C125.659 109.69 126.51 112.232 128.111 115.805C129.819 119.322 131.015 125.624 131.698 134.71C132.04 139.107 132.211 143.357 132.211 147.461L132.203 148.992C132.166 152.551 131.997 155.997 131.698 159.331L130.161 238.472L128.624 264.852L128.367 269.097C127.769 278.65 127.172 285.736 126.574 290.353L126.334 293.107C125.811 299.295 125.549 303.799 125.549 306.62C125.89 309.844 126.574 313.215 127.599 316.732C128.965 320.25 131.357 323.913 134.773 327.724C137.421 331.131 139.748 332.889 141.754 332.995L141.947 333C143.997 332.707 146.047 331.241 148.097 328.604C150.488 325.672 152.367 322.594 153.733 319.37C155.442 316.439 156.637 313.215 157.32 309.697C157.619 308.415 157.788 306.909 157.825 305.178L157.833 304.422C157.833 300.025 157.321 294.455 156.296 287.714C155.655 280.295 155.314 273.52 155.274 267.389L155.271 266.171V260.016L157.833 158.452C158.132 152.297 158.431 147.264 158.729 143.353L158.858 141.745C159.2 137.642 159.712 134.123 160.396 131.192C161.079 128.848 162.103 126.209 163.47 123.278C164.751 120.531 165.432 118.685 165.512 117.74L165.52 117.563C165.52 116.391 165.007 114.778 163.982 112.727C162.957 110.968 160.395 109.356 156.296 107.891C152.88 106.425 148.78 105.106 143.997 103.934C139.556 103.054 136.482 102.468 134.773 102.175C131.357 102.175 128.965 102.761 127.599 103.934L127.351 104.155C126.15 105.272 125.549 106.517 125.549 107.891L125.559 108.179Z" fill="black"/>
</svg>
