<svg width="350" height="350" viewBox="0 0 350 350" fill="none" xmlns="http://www.w3.org/2000/svg">
<path d="M124.771 108.654C108.353 109.952 94.7422 111.25 83.9404 112.548C77.4592 113.413 71.8423 113.846 67.0895 113.846C63.6329 113.846 60.6083 113.63 58.0159 113.197C52.3989 113.197 45.7018 112.332 37.9245 110.601C30.1471 108.87 24.0981 106.274 19.7773 102.813C15.8887 100.217 13.9443 97.8375 13.9443 95.6742V95.0253C13.9443 93.2946 14.5924 91.9966 15.8887 91.1313C16.7528 90.266 21.0736 89.4007 28.8509 88.5354L79.4036 83.3434C100.143 80.7475 122.179 77.5025 145.511 73.6086L210.97 62.5758C230.414 59.1145 245.752 55.6532 256.986 52.1919C268.22 48.7306 275.997 47 280.318 47C284.639 47 288.96 47.4327 293.28 48.298C297.601 49.596 302.57 51.5429 308.187 54.1389C313.804 56.3022 317.909 58.6818 320.501 61.2778C323.093 63.0084 324.39 64.9554 324.39 67.1187V68.4167C324.39 70.1473 323.742 71.8779 322.445 73.6086C319.853 76.6372 315.964 78.5842 310.779 79.4495C305.594 80.3148 296.953 82.0455 284.855 84.6414C273.189 87.2374 258.498 90.0497 240.783 93.0783C223.068 96.1069 210.322 98.0539 202.545 98.9192L152.64 104.76C161.714 111.25 167.115 116.442 168.843 120.336C171.435 124.23 172.732 127.258 172.732 129.422C172.3 132.018 170.571 135.046 167.547 138.508L153.936 153.434L123.475 191.076L98.8469 220.929L85.8847 236.505L74.8668 252.081L186.342 235.207L269.948 224.823C261.307 212.709 254.826 204.272 250.505 199.513C246.616 194.753 241.215 188.696 234.302 181.341L220.044 166.414C217.451 164.251 216.155 162.52 216.155 161.222C216.587 159.492 217.451 158.194 218.748 157.328C219.612 156.896 220.476 156.679 221.34 156.679C222.636 156.679 224.148 156.896 225.877 157.328C229.333 158.194 234.086 159.492 240.135 161.222C245.752 162.953 254.178 166.198 265.412 170.957C277.078 175.716 288.96 182.206 301.058 190.427C313.588 198.647 322.877 207.949 328.926 218.333C334.543 228.285 337.568 237.803 338 246.889C338 256.407 336.488 263.763 333.463 268.955C330.871 272.416 328.494 274.579 326.334 275.444C324.174 276.31 322.013 276.742 319.853 276.742C318.125 276.742 315.316 276.31 311.427 275.444C307.971 274.579 303.434 270.253 297.817 262.465L280.318 240.399C215.642 253.352 152.589 268.605 88.4771 283.232C82.8602 284.963 75.0828 287.559 65.1451 291.02C55.6395 294.049 48.2942 296.861 43.1093 299.457C37.9245 302.053 34.4679 303.567 32.7396 304C30.5792 304 28.4188 303.784 26.2584 303.351C23.666 302.918 20.6415 297.294 17.1849 286.477C13.7283 276.959 12 269.171 12 263.114V261.167C12 257.273 12.4321 254.677 13.2962 253.379C14.5924 251.648 18.4811 249.485 24.9622 246.889C31.0113 244.293 37.9245 239.966 45.7018 233.909C53.4791 228.717 62.1206 220.929 71.6262 210.545C81.1319 200.162 90.4215 186.749 99.495 170.308C109.001 153.867 115.266 141.753 118.29 133.965C120.883 126.177 122.611 119.254 123.475 113.197L124.771 108.654Z" fill="black"/>
</svg>
