<svg width="420" height="200" viewBox="0 0 420 200" fill="none" xmlns="http://www.w3.org/2000/svg">
<path d="M70.498 182.562C64.9641 184.223 56.11 186.436 43.9355 189.203C31.2077 192.523 22.3535 194.462 17.373 195.016L-1.71875 196.672H-6.69922C-12.2331 196.672 -15 195.016 -15 191.695C-14.4466 187.822 -12.2331 185.051 -8.35938 183.391L16.543 172.602C54.9389 156.357 82.5 145.608 130 121C171.5 99.5 222.637 68.0404 234.258 58.6328C247.903 48.0886 258.346 24.5166 268.932 9.96094C272.805 4.42708 275.849 1.38151 278.062 0.828125C280.829 0.27474 283.32 0 285.533 0C289.96 1.10677 295.494 3.32031 302.135 6.64062C309.329 10.5143 314.863 13.8346 318.736 16.6016C322.057 18.8151 328.697 23.7917 338.658 31.5391C348.619 39.2865 354.153 45.9271 355.26 51.4609V53.9531C355.26 57.2734 354.43 60.319 352.77 63.0859C351.109 65.2995 346.406 67.2383 338.658 68.8984C330.911 70.5586 324.27 72.4896 318.736 74.7031C313.202 76.3633 304.348 79.9661 292.174 85.5L245.689 105.422L139.394 155.172C116.295 165.001 94.1809 174.668 70.498 182.562Z" fill="black"/>
<path d="M313.558 200.487C309.933 199.013 300.6 191.842 285.557 178.97L255.414 150.243C250.302 145.352 219.332 122.439 238.8 119.417C252.328 117.312 262.689 116.245 269.883 116.212C277.077 116.179 285.719 116.732 295.813 117.878C306.417 118.809 315.01 122.092 321.592 127.724C327.878 134.08 333.253 141.124 337.716 148.851C341.374 157.518 343.002 164.934 342.604 171.108C341.532 187.763 331.308 205.888 313.558 200.487Z" fill="black"/>
</svg>
