<svg width="115" height="470" viewBox="0 0 115 470" fill="none" xmlns="http://www.w3.org/2000/svg">
<path d="M109.353 256.078C110.448 255.923 111.857 256.004 113.578 256.319C117.098 257.499 119.09 259.733 119.555 263.021C119.941 265.76 119.31 269.203 117.66 273.348L102.674 321.571C99.2899 333.227 95.0033 346.407 89.8145 361.111L72.3535 415.553L54.6602 468.35C50.9605 481.726 47.5734 495.338 44.499 509.186C41.4247 523.032 38.7077 533.476 36.3486 540.516C33.9122 547.007 30.6182 551.386 26.4668 553.648C24.9005 554.428 23.295 554.934 21.6514 555.166C19.4597 555.476 17.1902 555.237 14.8438 554.451C9.2095 554.129 4.28364 550.912 0.0673828 544.801C-4.14879 538.69 -8.59691 530.935 -13.2773 521.536C-18.0352 511.589 -22.0909 502.662 -25.4434 494.752C-29.1891 488.016 -31.3712 482.455 -31.9902 478.071L-32.3389 475.605C-32.9578 471.222 -32.6387 467.544 -31.3818 464.572C-30.6727 461.678 -28.3584 458.278 -24.4395 454.371L-4.81055 439.024C1.22313 434.26 7.53416 427.501 14.1221 418.746C20.7099 409.992 27.849 399.203 35.5391 386.381L57.082 348.968L77.6865 310.849L99.5967 264.162C102.265 259.314 105.517 256.62 109.353 256.078ZM-1.00586 176.811C2.31445 177.364 9.50846 179.301 20.5762 182.621C32.7507 185.941 41.6048 189.538 47.1387 193.412C52.6725 197.286 57.3763 201.99 61.25 207.523C65.1237 213.057 67.6139 220.528 68.7207 229.936C69.2741 233.809 69.5508 237.13 69.5508 239.896C69.5508 244.877 68.7207 249.027 67.0605 252.348C63.7402 257.328 59.3132 261.479 53.7793 264.799C51.5658 265.906 49.3522 266.459 47.1387 266.459C42.1582 266.459 36.071 264.522 28.877 260.648C22.2363 257.882 13.1055 250.134 1.48438 237.406C-10.1367 224.678 -19.2676 213.887 -25.9082 205.033L-42.5098 181.791C-44.1699 179.577 -45 177.641 -45 175.98C-45 174.874 -44.7233 174.044 -44.1699 173.49C-43.0632 171.83 -40.2962 171 -35.8691 171H-32.5488L-1.00586 176.811ZM1.64062 0C3.30078 0 5.79102 0.553385 9.11133 1.66016L24.0527 4.98047C32.9069 7.19401 45.0814 10.791 60.5762 15.7715C76.6244 20.752 88.5221 26.0091 96.2695 31.543C103.464 36.5234 108.721 41.7806 112.041 47.3145C114.255 52.2949 115.361 58.6589 115.361 66.4062C115.361 75.2604 113.701 82.1777 110.381 87.1582C107.061 92.6921 103.74 96.2891 100.42 97.9492C97.0996 100.163 92.1191 101.27 85.4785 101.27C78.8379 101.27 69.9837 96.8424 58.916 87.9883C54.4889 84.668 46.4648 76.0905 34.8438 62.2559C23.2227 48.4212 15.752 39.2904 12.4316 34.8633L-1.67969 14.1113C-3.89323 11.3444 -5 8.57747 -5 5.81055C-5 5.25716 -4.72331 4.42708 -4.16992 3.32031C-3.61654 1.10677 -1.67969 0 1.64062 0Z" fill="black"/>
</svg>
