<svg width="200" height="200" viewBox="0 0 200 200" fill="none" xmlns="http://www.w3.org/2000/svg">
<path d="M51.9566 90.853C42.5083 100.797 -8.83566 129.58 -14.3432 123.8C-17.3025 120.075 -9.46678 111.042 -6.60768 107.569C19.129 76.3023 30.8224 61.0443 43.0098 14.3732C43.9962 9.39011 44.9825 3.29966 45.9689 -3.89814C46.9552 -10.5423 47.4484 -14.6948 47.4484 -16.3559C47.9416 -18.5706 48.9279 -20.2316 50.4074 -21.339C51.3938 -22.4463 53.3665 -23 56.3255 -23C60.2709 -21.8926 64.2162 -19.4011 68.1616 -15.5254C73.0934 -11.6496 78.0251 -6.94337 82.9568 -1.40659C87.8885 4.13018 91.3407 9.11327 93.3134 13.5427C96.2725 19.0795 98.2451 22.9552 99.2315 25.1699C99.7246 26.2773 99.9712 27.6615 99.9712 29.3225C99.9712 30.4298 99.7246 31.5372 99.2315 32.6446C98.2451 34.8593 97.2588 36.7971 96.2725 38.4582L85.9158 47.5938C81.62 50.5387 78.5008 55.0411 75.6288 59.2934C88.513 57.068 100.716 52.116 113.118 47.6857L132.352 39.3805L154.545 27.7533C161.449 24.9849 166.874 23.3239 170.819 22.7702C176.737 22.7702 182.162 23.8776 187.094 26.0923C193.012 28.307 199.916 32.1827 207.807 37.7195C215.698 42.7026 221.616 46.8552 225.561 50.1772C228.52 53.4993 230 56.8213 230 60.1434C230 62.9118 229.014 65.1265 227.041 66.7875C225.068 68.4486 223.096 69.8328 221.123 70.9401L207.807 80.9063C201.889 85.3357 195.478 91.703 188.573 100.008L113.128 192.113C59.3325 232.392 100.326 160.839 124.557 118.28C133.434 102.223 138.365 91.9798 139.352 87.5504C139.845 85.8894 140.092 84.5052 140.092 83.3979C140.092 81.1831 139.352 79.2453 137.872 77.5842C137.379 76.4769 136.393 75.9232 134.913 75.9232C132.447 75.9232 128.502 77.0306 123.077 79.2453C120.118 80.3526 105.72 82.5673 93.8844 85.8894C80.7288 89.5818 74.4747 89.8806 51.9566 90.853Z" fill="black"/>
</svg>
