<svg width="200" height="200" viewBox="0 0 200 200" fill="none" xmlns="http://www.w3.org/2000/svg">
<path d="M72.8633 197.559C71.7565 193.132 71.2031 187.874 71.2031 181.787L60.4121 66.4062C59.3053 50.9115 53.4948 35.4167 42.9805 19.9219C40.2135 13.8346 38.5534 9.13086 38 5.81055C38.5534 1.93685 42.7038 0 50.4512 0C60.9655 0 73.97 4.15039 89.4648 12.4512C106.066 21.8587 114.367 30.9896 114.367 39.8438C114.367 43.7174 113.537 50.3581 111.877 59.7656C109.663 70.2799 107.727 83.8379 106.066 100.439C125 95.5 133 92.4115 148.166 88.3672C156.467 86.1536 163.661 85.0469 169.748 85.0469C189.67 85.6003 199.631 90.8574 199.631 100.818C199.631 109.673 196.587 115.483 190.5 118.25C158.321 124.317 135.665 131.058 103.576 120.361C103.023 127.555 102.469 134.196 101.916 140.283C100.256 164.632 97.7656 182.34 94.4453 193.408C91.125 204.476 81.1172 205.598 72.8633 197.559Z" fill="black"/>
</svg>
