<svg width="115" height="470" viewBox="0 0 115 470" fill="none" xmlns="http://www.w3.org/2000/svg">
<path fill-rule="evenodd" clip-rule="evenodd" d="M-1.67969 14.1113L12.4316 34.8633C15.752 39.2904 23.2227 48.4212 34.8438 62.2559C46.4648 76.0905 54.4889 84.668 58.916 87.9883C69.9837 96.8424 78.8379 101.27 85.4785 101.27C92.1191 101.27 97.0996 100.163 100.42 97.9492C103.74 96.2891 107.061 92.6921 110.381 87.1582C113.701 82.1777 115.361 75.2604 115.361 66.4062C115.361 58.6589 114.255 52.2949 112.041 47.3145C108.721 41.7806 103.464 36.5234 96.2695 31.543C88.5221 26.0091 76.6244 20.752 60.5762 15.7715C45.0814 10.791 32.9069 7.19401 24.0527 4.98047L9.11133 1.66016C5.79102 0.553385 3.30078 0 1.64062 0C-1.67969 0 -3.61654 1.10677 -4.16992 3.32031C-4.72331 4.42708 -5 5.25716 -5 5.81055C-5 8.57747 -3.89323 11.3444 -1.67969 14.1113ZM-25.9082 205.033L-42.5098 181.791C-44.1699 179.577 -45 177.641 -45 175.98C-45 174.874 -44.7233 174.044 -44.1699 173.49C-43.0632 171.83 -40.2962 171 -35.8691 171H-32.5488L-1.00586 176.811C2.31445 177.364 9.50846 179.301 20.5762 182.621C32.7506 185.941 41.6048 189.538 47.1387 193.412C52.6725 197.286 57.3763 201.99 61.25 207.523C65.1237 213.057 67.6139 220.528 68.7207 229.936C69.2741 233.809 69.5508 237.13 69.5508 239.896C69.5508 244.877 68.7207 249.027 67.0605 252.348C63.7402 257.328 59.3131 261.479 53.7793 264.799C51.5658 265.906 49.3522 266.459 47.1387 266.459C42.1582 266.459 36.071 264.522 28.877 260.648C22.2363 257.882 13.1055 250.134 1.48438 237.406C-10.1367 224.678 -19.2676 213.887 -25.9082 205.033ZM111.982 315.805L140.205 272.641C143.525 268.214 147.122 266 150.996 266C152.103 266 153.486 266.277 155.146 266.83C158.467 268.49 160.127 270.98 160.127 274.301C160.127 277.068 159.02 280.388 156.807 284.262L135.225 329.916C130.244 340.984 124.157 353.435 116.963 367.27L92.0605 418.734L67.1582 468.539C61.6244 481.267 56.3672 494.271 51.3867 507.553C46.4062 520.834 42.2559 530.795 38.9355 537.436C35.6152 543.523 31.7415 547.396 27.3145 549.057C25.6543 549.61 23.9941 549.887 22.334 549.887C20.1204 549.887 17.9069 549.333 15.6934 548.227C10.1595 547.12 5.73242 543.246 2.41211 536.605C-0.908203 529.965 -4.22852 521.664 -7.54883 511.703C-10.8691 501.189 -13.6361 491.781 -15.8496 483.48C-18.6165 476.286 -20 470.476 -20 466.049V463.559C-20 459.132 -19.1699 455.534 -17.5098 452.768C-16.403 450.001 -13.6361 446.957 -9.20898 443.637L12.373 431.186C19.0137 427.312 26.2077 421.501 33.9551 413.754C41.7025 406.007 50.2799 396.322 59.6875 384.701L86.25 350.668L111.982 315.805Z" fill="black"/>
</svg>
