<?xml version="1.0" encoding="UTF-8"?>
<svg width="800px" height="470px" viewBox="0 0 800 470" version="1.1" xmlns="http://www.w3.org/2000/svg" xmlns:xlink="http://www.w3.org/1999/xlink">
    <title>n_bo_m</title>
    <g id="n_bo_m" stroke="none" stroke-width="1" fill="none" fill-rule="evenodd">
        <g id="尸-copy" transform="translate(-94.640000, -86.450000)" fill="#000000" fill-rule="nonzero">
            <path d="M766.74,6.05 C789.473333,2.01666667 810.74,0 830.54,0 C850.34,0 864.823333,2.01666667 873.99,6.05 C880.956667,8.98333333 887.923333,13.2916667 894.89,18.975 C901.856667,24.6583333 906.806667,30.25 909.74,35.75 C911.94,40.15 911.573333,45.0083333 908.64,50.325 C905.706667,55.6416667 899.29,63.8 889.39,74.8 C878.023333,86.5333333 871.79,94.6916667 870.69,99.275 C869.59,103.858333 867.206667,108.075 863.54,111.925 C859.873333,115.775 858.04,123.75 858.04,135.85 C858.04,143.916667 857.673333,149.6 856.94,152.9 C856.206667,156.2 854.19,160.416667 850.89,165.55 C846.49,172.15 842.365,175.908333 838.515,176.825 C834.665,177.741667 827.423333,176.733333 816.79,173.8 C802.123333,169.4 271.865,168.85 246.015,172.15 C220.165,175.45 204.49,230.583333 198.99,237.55 C196.79,240.483333 192.023333,265.333333 184.69,292.1 C175.523333,326.566667 163.973333,376.816667 150.04,402.85 C146.373333,411.283333 144.54,416.325 144.54,417.975 C144.54,419.625 143.256667,420.908333 140.69,421.825 C138.123333,422.741667 136.84,424.483333 136.84,427.05 C136.84,429.616667 136.198333,430.9 134.915,430.9 C133.631667,430.9 129.506667,436.033333 122.54,446.3 C111.54,462.433333 95.04,480.216667 73.04,499.65 L49.94,521.1 C42.9733333,526.966667 34.3566667,533.016667 24.09,539.25 C10.89,547.316667 3.09833333,550.158333 0.715,547.775 C-1.66833333,545.391667 1.90666667,537.966667 11.44,525.5 C19.14,515.966667 24.64,509 27.94,504.6 C31.24,500.2 38.94,490.3 51.04,474.9 C65.7066667,457.3 77.8066667,439.15 87.34,420.45 C105.673333,387.083333 114.84,348.383333 114.84,344.35 C114.84,341.783333 117.04,335.733333 121.44,326.2 C125.84,316.666667 128.681667,309.516667 129.965,304.75 C131.248333,299.983333 133.815,290.633333 137.665,276.7 C141.515,262.766667 144.815,238.466667 147.565,223.8 C150.315,209.133333 152.881667,146.85 155.265,136.95 C157.648333,127.05 159.756667,116.783333 161.59,106.15 C163.423333,95.5166667 166.173333,83.4166667 169.84,69.85 L176.44,49.5 L171.49,44 C162.323333,34.4666667 167.823333,26.2166667 187.99,19.25 C194.59,17.05 727.506667,12.65 766.74,6.05 Z M846.24,39.6 C846.606667,37.7666667 846.24,36.3 845.14,35.2 C844.04,34.1 842.023333,33.3666667 839.09,33 C836.156667,32.6333333 832.398333,32.6333333 827.815,33 C823.231667,33.3666667 817.456667,34.1 810.49,35.2 C768.69,39.9666667 207.79,45.8333333 207.79,52.8 C207.79,55 208.89,59.4 211.09,66 C213.656667,72.6 214.94,81.4 214.94,92.4 C214.94,103.4 213.84,112.566667 211.64,119.9 C209.073333,127.966667 208.248333,132.55 209.165,133.65 C210.081667,134.75 216.406667,133.283333 228.14,129.25 C239.873333,125.216667 791.24,122.466667 802.24,121 C819.473333,118.8 828.09,112.933333 828.09,103.4 C828.09,100.833333 829.19,96.0666667 831.39,89.1 C840.556667,60.8666667 845.506667,44.3666667 846.24,39.6 Z" id="尸"></path>
        </g>
    </g>
</svg>