<svg width="415" height="185" viewBox="0 0 415 185" fill="none" xmlns="http://www.w3.org/2000/svg">
<path fill-rule="evenodd" clip-rule="evenodd" d="M415 52.4267C415 60.2606 407.802 65.3828 393.405 67.7932C379.608 69.601 361.013 74.1205 337.619 81.3518C219.447 130.062 94.4772 175.258 7.19828 185C2.39942 185 0 183.795 0 181.384C0 178.371 5.09878 174.454 15.2963 169.634C23.5893 166.162 34.2084 161.778 46.3641 156.758C108.066 131.281 209.356 89.4571 246.94 67.7932C283.532 46.702 312.125 28.6238 316.924 20.7899C324.722 6.92997 333.12 0 342.118 0C351.115 0 365.512 6.32737 385.307 18.9821C405.102 31.6368 415 42.785 415 52.4267ZM357.68 144.708C360.335 152.712 359.956 160.144 356.542 167.004C353.697 173.673 348.575 178.247 341.177 180.724C333.779 183.202 319.552 176.532 298.496 160.716C277.251 144.328 265.679 133.276 263.782 127.559C261.885 121.842 263.213 118.221 267.766 116.697C272.888 114.982 283.32 114.029 299.065 113.838C315.378 113.457 328.182 115.839 337.477 120.984C347.152 125.366 353.886 133.275 357.68 144.708Z" fill="black"/>
</svg>
