<?xml version="1.0" encoding="UTF-8"?>
<svg width="1000px" height="1000px" viewBox="0 0 1000 1000" version="1.1" xmlns="http://www.w3.org/2000/svg" xmlns:xlink="http://www.w3.org/1999/xlink">
    <title>nao_char</title>
    <g id="nao_char" stroke="none" stroke-width="1" fill="none" fill-rule="evenodd">
        <g id="犷" transform="translate(155.291931, -0.370370)" fill="#000000" fill-rule="nonzero">
            <path d="M413.70335,3.08975745 C423.262287,-3.86219682 438.469687,0.917271744 459.32555,17.4281631 C490.609344,41.7600031 505.599496,60.8778773 504.296004,74.7817859 C502.992513,88.6856944 484.091887,113.452032 447.594127,149.080797 C408.489384,184.709563 388.937013,207.303414 388.937013,216.862351 C388.937013,226.421288 391.326747,239.238954 396.106216,255.315348 C400.885684,271.391743 404.144413,279.42994 405.882402,279.42994 C408.489384,279.42994 418.700067,274.650471 436.51445,265.091534 C454.328833,255.532597 468.232741,251.622123 478.226176,253.360111 C488.21961,255.0981 499.733784,262.050054 512.768699,274.215974 C525.803613,286.381894 532.32107,296.375328 532.32107,304.196277 C532.32107,313.755214 527.324353,328.528117 517.330919,348.514985 C507.337484,368.501854 496.692304,384.578248 485.395379,396.744168 C473.229459,410.648077 461.932533,425.420979 451.504602,441.062877 C444.552647,453.228797 440.642173,463.439479 439.773179,471.694925 C438.904184,479.950371 439.338682,502.326974 441.07667,538.824734 C449.766613,694.37471 437.166196,810.819944 403.275419,888.160436 C397.192459,900.326356 394.150979,908.147304 394.150979,911.623281 C394.150979,917.706241 387.199025,929.003167 373.295116,945.514058 C359.391207,962.02495 346.356293,974.625367 334.190373,983.31531 C313.33451,997.219218 295.954625,1002.43318 282.050716,998.957207 C268.146808,995.48123 254.242899,982.446315 240.338991,959.852464 C229.042065,939.865596 213.400168,922.051213 193.413299,906.409316 C165.605482,882.94647 155.177551,868.608064 162.129505,863.394099 C164.736488,859.918121 181.681876,857.311139 212.965671,855.57315 C241.642482,854.704156 262.063848,851.01093 274.229768,844.493473 C286.395688,837.976016 296.389122,825.592847 304.21007,807.343967 C312.031019,789.964082 319.41747,763.894253 326.369425,729.134482 C333.321379,694.37471 337.231853,664.828905 338.100847,640.497065 C338.969842,616.165225 336.797356,602.261316 331.58339,598.785339 C319.41747,598.785339 299.213353,607.909779 270.971039,626.158659 C242.728725,644.407539 216.007151,665.697899 190.806316,690.029739 C174.295425,704.802642 150.398082,723.920516 119.114288,747.383362 L44.8152766,799.523019 C11.7934939,822.11687 -2.97940897,822.985864 0.496568162,802.130002 C0.496568162,801.261007 0.931065304,799.523019 1.80005959,796.916036 C3.53804816,787.357099 26.1318995,760.852773 69.5816137,717.403059 C130.411214,657.442453 189.502825,587.488413 246.856448,507.540939 C263.367339,484.078094 278.140242,464.525722 291.175156,448.883825 C312.900013,422.813997 325.50043,406.520354 328.976407,400.002897 C332.452385,393.48544 333.755876,383.709254 332.886882,370.67434 C330.279899,352.42546 326.586673,335.262822 321.807205,319.186428 C317.027736,303.110034 313.33451,295.071837 310.727528,295.071837 C306.382556,295.071837 286.830185,312.451723 252.070413,347.211494 C231.214551,368.067357 213.400168,385.012745 198.627265,398.04766 C183.854362,411.082574 171.036696,421.076008 160.174268,428.027962 C149.311839,434.979917 141.056394,438.673142 135.407931,439.107639 C129.759468,439.542137 125.197248,437.586899 121.721271,433.241928 C119.983282,429.765951 128.238728,415.427545 146.487608,390.226711 L181.681876,347.211494 L207.751705,315.9277 C221.655613,298.547814 230.780053,285.730148 235.125025,277.474703 C239.469996,269.219257 249.463431,255.532597 265.105328,236.414723 C274.664265,223.379808 280.095479,214.472617 281.39897,209.693148 C282.702462,204.91368 282.050716,198.613471 279.443733,190.792523 C274.229768,180.364591 261.194853,165.157191 240.338991,145.170323 C219.483128,126.052449 206.882711,112.365789 202.537739,104.110343 C198.192768,95.8548973 199.061762,87.382203 205.144722,78.6922602 C225.131591,48.2774602 257.718876,52.6224316 302.906579,91.7271744 C323.762442,110.845049 335.711113,119.317743 338.752593,117.145257 C341.794073,114.972772 352.004756,99.548123 369.384642,70.8713116 L400.668436,17.4281631 C405.882402,10.4762089 410.227373,5.69674031 413.70335,3.08975745 Z"></path>
        </g>
    </g>
</svg>