<?xml version="1.0" encoding="UTF-8"?>
<svg width="825px" height="1175px" viewBox="0 0 825 1175" version="1.1" xmlns="http://www.w3.org/2000/svg" xmlns:xlink="http://www.w3.org/1999/xlink">
    <title>O_dafancuo_m</title>
    <g id="O_dafancuo_m" stroke="none" stroke-width="1" fill="none" fill-rule="evenodd">
        <path d="M432.543338,459.887241 L450.533942,476.044735 L499.508366,476.044735 C584.797157,476.044735 653.427982,472.046823 705.40084,464.050999 C746.712598,458.720449 780.361692,468.048911 806.348121,492.036383 C818.341857,503.363801 824.338725,514.0249 824.338725,524.01968 C824.338725,540.011329 815.843162,552.171645 798.852035,560.500628 C781.860909,568.829612 762.371087,570.328829 740.382571,564.998279 C725.057241,560.334049 709.565331,557.335615 693.906842,556.002977 C678.248353,554.67034 655.760098,552.005065 626.442075,548.007153 C603.120921,544.67556 569.638407,542.510024 525.994533,541.510546 C482.35066,540.511068 458.196607,541.343966 453.532376,544.009241 C450.200783,546.674516 447.702088,559.167991 446.036291,581.489667 C444.370494,603.811343 442.538118,911.114299 440.539162,983.743036 C437.207569,1069.03183 434.542294,1120.33837 432.543338,1137.66265 C430.544382,1154.98694 425.880151,1167.98015 418.550645,1176.6423 C402.558997,1193.30026 384.901552,1191.63447 365.57831,1171.6449 C353.584573,1160.31749 346.088488,1141.99372 343.090054,1116.67361 C340.09162,1091.3535 338.259244,1031.38482 337.592925,936.767568 C336.926606,857.475645 335.09423,556.502716 332.095796,553.504282 C329.097362,550.505848 313.772032,550.339268 286.119806,553.004543 C258.467581,555.669818 237.645122,559.001411 223.65243,562.999323 C211.658693,567.663554 195.667045,571.661466 175.677484,574.99306 C160.352155,576.992016 141.528652,581.656247 119.206976,588.985752 C96.8852997,596.315258 82.3928683,602.312126 75.7296814,606.976357 C66.4012198,612.973225 53.4080054,614.305862 36.7500383,610.974269 C20.0920711,607.642675 9.09781283,601.645807 3.76726334,592.983664 C-0.896967462,586.986796 -1.2301268,578.990972 2.76778531,568.996192 C7.43201611,559.001411 16.9270574,551.172167 31.2529091,545.508458 C45.5787609,539.844749 74.7302034,532.015504 118.707237,522.020724 L236.645644,496.034295 C253.303611,492.702702 272.793433,490.370587 295.115109,489.037949 C317.436785,487.705312 329.263941,486.705834 330.596579,486.039515 C333.261854,486.039515 320.596994,497.284577 334.594491,473.046301 C348.591988,448.808024 388.603441,448.808024 432.543338,459.887241 Z M402.558997,284.376078 C430.544382,283.226807 460.195563,282.843717 491.512541,283.226807 C512.834739,283.609897 527.49375,284.376078 535.489575,285.525348 C543.485399,286.674619 554.812817,289.35625 569.471828,293.570243 C609.450949,305.062949 629.440509,315.981019 629.440509,326.324455 C629.440509,331.687717 627.108394,340.019929 622.444163,351.32109 C617.779932,362.622251 613.78202,370.762917 610.450427,375.74309 C605.786196,380.723263 603.454081,385.703435 603.454081,390.683608 C603.454081,397.579231 597.124053,408.305757 584.463998,422.863184 C580.466086,427.077177 578.46713,430.141898 578.46713,432.057349 C578.46713,433.9728 574.302638,437.995247 565.973655,444.12469 C557.644671,450.254134 553.480179,454.180808 553.480179,455.904714 C553.480179,457.62862 545.817514,463.087655 530.492185,472.28182 C505.172074,486.456157 486.848311,489.712424 475.520893,482.05062 C454.198695,467.493192 435.541772,456.766667 419.550123,449.871043 C412.886936,446.806322 406.723489,445.082416 401.05978,444.699326 C395.396071,444.316235 386.567348,445.082416 374.573612,446.997867 L340.591359,452.169585 C328.597623,453.318855 319.93548,456.000487 314.60493,460.214479 C309.9407,463.66229 303.943831,465.865059 296.614326,466.822785 C289.28482,467.78051 283.287952,467.493192 278.623721,465.960832 C273.95949,463.2792 268.9621,458.77789 263.631551,452.456902 C258.301001,446.135914 254.969408,440.102243 253.636771,434.35589 C249.638858,422.097004 243.64199,411.370478 235.646166,402.176314 C232.980891,399.111592 228.31666,391.354016 221.653474,378.903584 C214.990287,366.453153 210.326056,359.461757 207.660781,357.929396 C204.995506,356.397035 203.662869,353.906949 203.662869,350.459137 C203.662869,347.011325 201.997072,344.712784 198.665479,343.563513 C196.666523,342.414243 195.667045,338.296023 195.667045,331.208855 C195.667045,324.121686 196.666523,320.578102 198.665479,320.578102 C201.330754,320.578102 204.329188,318.27956 207.660781,313.682478 C212.991331,307.169945 233.314051,301.232047 268.628941,295.868784 C303.943831,290.505521 348.587183,286.674619 402.558997,284.376078 Z M497.50941,312.533207 C485.515673,309.851576 474.521415,308.702305 464.526635,309.085396 C436.54125,309.851576 404.891112,311.575482 369.576222,314.257113 C328.930782,318.088015 301.278557,321.056964 286.619546,323.16396 C271.960534,325.270956 263.298392,327.856815 260.633117,330.921537 C257.967842,333.220078 257.468103,336.380572 259.1339,340.403019 C260.799696,344.425466 264.29787,348.160596 269.628419,351.608408 L276.624765,357.354761 L302.611194,351.608408 C329.263941,346.628235 356.249848,343.467741 383.568914,342.126925 C410.88798,340.786109 429.544904,341.839608 439.539684,345.287419 C447.535508,348.352141 451.53342,352.661906 451.53342,358.216713 C451.53342,363.771521 450.034203,367.027788 447.035769,367.985514 C444.037335,368.943239 442.871277,370.571372 443.537596,372.869914 C444.203915,376.317725 442.704698,378.520494 439.039945,379.478219 C435.375192,380.435945 424.880673,380.914808 407.556387,380.914808 C374.240453,381.297898 344.589271,383.979529 318.602842,388.959702 C307.941743,391.258243 300.279079,392.215969 295.614848,391.832878 C293.615892,391.066698 292.616414,391.258243 292.616414,392.407514 C292.616414,394.322965 295.614848,400.260863 301.611716,410.221208 C306.275947,417.499922 309.60754,421.713914 311.606496,422.863184 C313.605452,424.012455 323.100494,422.958957 340.09162,419.70269 C357.082747,416.446424 374.906771,414.722518 393.563695,414.530973 C412.220618,414.339428 424.880673,416.063333 431.54386,419.70269 C438.207047,423.342047 446.53603,425.161726 456.53081,425.161726 C463.860316,425.161726 468.857706,424.204 471.522981,422.288549 C474.188256,420.373098 479.518805,414.243655 487.514629,403.90022 C494.844135,392.790604 501.340742,379.573992 507.004451,364.250384 C512.66816,348.926776 515.500014,336.66789 515.500014,327.473725 C515.500014,322.493553 514.500536,319.333058 512.50158,317.992243 C510.502624,316.651427 505.505234,314.831749 497.50941,312.533207 Z" id="早" fill="#000000" fill-rule="nonzero"></path>
        <path d="M463.060047,100.009379 C464.436918,100.121928 466.752566,101.75388 470.006989,104.905238 C474.262773,108.056595 477.016516,109.632274 478.268217,109.632274 C479.519918,109.632274 481.64781,110.926581 484.651893,113.515196 C487.655976,116.103811 489.533528,118.411055 490.284549,120.436927 C491.78659,123.588284 492.224686,126.008077 491.598835,127.696304 C490.972985,129.384531 489.283188,131.804323 486.529445,134.95568 C483.024682,138.557231 480.89679,141.821137 480.145769,144.747397 C479.394748,147.673658 478.330802,149.69953 476.953931,150.825015 C475.577059,151.9505 474.888624,153.075985 474.888624,154.201469 C474.888624,155.777148 472.447806,161.460846 467.566171,171.252563 L467.058094,172.268097 C462.45369,181.438079 459.306041,186.783265 457.615147,188.303657 C456.613786,189.654239 456.113105,190.892272 456.113105,192.017756 C456.113105,193.143241 455.049159,194.550097 452.921267,196.238324 C450.793375,197.926551 449.729429,199.333407 449.729429,200.458892 C449.729429,203.160055 456.488615,207.887091 470.006989,214.64 C483.525362,221.392908 497.294076,227.020332 511.31313,231.522271 C522.328101,235.123822 530.964839,237.993808 537.223345,240.132229 C543.481852,242.27065 549.427432,243.958877 555.060088,245.19691 C560.692744,246.434944 565.324038,247.898074 568.953972,249.586301 C572.583905,251.274528 576.526764,252.568835 580.782549,253.469223 C593.549901,256.620581 601.560789,261.685262 604.815212,268.663267 C606.817934,272.039721 607.443785,274.628336 606.692764,276.429112 C605.941743,278.229888 603.563511,279.355372 599.558067,279.805566 C578.279146,283.18202 565.636964,287.458862 561.63152,292.636092 C560.379818,294.887062 559.002947,296.237643 557.500905,296.687837 C553.245121,298.263516 539.851918,293.874125 517.321296,283.519666 C504.303603,277.216951 493.789312,272.489915 485.778424,269.338558 C477.767536,266.187201 471.13352,263.035844 465.876375,259.884486 C460.61923,256.733129 457.489976,255.15745 456.488615,255.15745 C454.986574,255.15745 448.477727,249.867672 436.962076,239.288116 C430.202889,232.985401 425.947105,229.608947 424.194723,229.158753 C422.442342,228.708559 419.813769,229.946592 416.309006,232.872853 C413.304923,235.574016 407.484512,239.569487 398.847773,244.859265 C390.211035,250.149043 383.764773,253.69432 379.508989,255.495096 C366.240956,261.572713 355.664081,266.018378 347.778363,268.83209 C339.892645,271.645802 330.06679,274.515788 318.300798,277.442048 C307.786508,279.693018 300.151131,280.480857 295.394666,279.805566 C287.383778,278.905178 285.881736,277.216951 290.888541,274.740885 C293.141604,273.390303 297.021877,271.814625 302.529363,270.013849 C320.30352,263.936231 339.204209,254.932353 359.231429,243.002215 C379.258649,231.072077 392.777022,221.167811 399.786549,213.289418 L403.917163,207.887091 L393.402873,195.394211 C386.143006,187.065624 379.759329,177.949197 374.251844,168.044932 L365.615105,153.526178 L359.98245,154.539115 C357.479047,154.764212 355.726666,154.651663 354.725305,154.201469 C353.723944,153.751275 352.472242,152.513242 350.970201,150.48737 C348.717139,147.786206 347.715778,145.647785 347.966118,144.072107 C348.216458,142.271331 352.409657,139.232522 360.545715,134.95568 C368.681773,130.678838 376.630076,127.077287 384.390624,124.151027 L397.157977,119.761636 C400.122707,119.168625 402.913068,118.61041 405.52906,118.086991 L406.72406,117.847883 C409.680606,117.256292 412.405004,116.711026 414.897253,116.212086 L415.881772,116.014981 C416.853909,115.820347 417.788903,115.633124 418.686753,115.453314 L419.572222,115.275975 C421.75494,114.838803 423.705511,114.447957 425.423933,114.103438 L426.098921,113.9681 C429.522387,113.281623 431.954323,112.79301 433.394728,112.50226 C439.528064,111.264226 444.722624,109.857371 448.978408,108.281692 C453.234192,106.480916 456.30086,104.623866 458.178412,102.710542 C460.055964,100.797218 461.683176,99.8968306 463.060047,100.009379 Z M451,135 L443.096431,135 C436.071036,135.223629 405.58584,141.708861 401.320421,143.050633 C389.527794,146.852321 383.756934,149.759494 384.007841,151.772152 C384.007841,152.443038 385.011469,153.225738 387.018724,154.120253 C389.02598,155.014768 395.988648,160.885021 407.906729,171.731013 C419.82481,182.577004 426.662025,188 428.418373,188 C429.18087,188 430.522666,186.336307 432.443761,183.00892 L432.743884,182.483888 C433.607183,180.95911 434.580554,179.118218 435.663994,176.961214 L436.050956,176.186793 C437.160295,173.955409 438.379706,171.407913 439.709187,168.544304 C445.730954,155.57384 449.118198,146.06962 449.870919,140.031646 L451,135 Z" id="Combined-Shape" fill="#000000" fill-rule="nonzero"></path>
        <path d="M310.026706,101.514407 C312.501484,98.8132048 319.925816,100.453221 332.299703,106.434455 C337.249258,108.942714 340.548961,110.968616 342.198813,112.51216 C343.848665,114.055705 345.292285,116.27455 346.529674,119.168695 C348.591988,123.606385 349.107567,128.429961 348.076409,133.639423 C347.045252,138.848885 346.323442,146.952492 345.910979,157.950245 C344.261128,180.910466 341.78635,193.548235 338.486647,195.863552 C337.249258,196.828267 336.011869,199.481234 334.774481,203.822452 C333.537092,208.16367 331.681009,212.360181 329.206231,216.411985 C324.669139,223.936763 320.750742,231.075656 317.451039,237.828662 C316.21365,241.108694 313.223294,244.388725 308.47997,247.668757 C303.736647,250.948788 299.715134,253.939405 296.41543,256.640608 C289.816024,262.428899 279.504451,269.037198 265.480712,276.465505 C251.456973,283.893812 239.083086,289.151509 228.35905,292.238598 C218.459941,295.325686 209.591988,296.869231 201.755193,296.869231 C193.918398,296.869231 190,296.386873 190,295.422158 C190,294.843329 193.402819,292.045655 200.208457,287.029136 C207.014095,282.012617 212.891691,277.960813 217.841246,274.873725 C231.452522,266.384231 242.795252,257.508852 251.869436,248.247586 C258.05638,242.073409 262.38724,237.201597 264.862018,233.632151 C267.336795,230.062705 270.636499,223.357934 274.761128,213.517839 C278.473294,203.677745 281.669881,196.056495 284.35089,190.65409 C287.031899,185.251685 289.197329,180.621052 290.847181,176.762191 C292.497033,172.710387 295.178042,159.204375 298.890208,136.244154 C302.602374,115.985135 306.31454,104.408553 310.026706,101.514407 Z" id="Path" fill="#000000" fill-rule="nonzero"></path>
        <path d="M467.793769,4.96153846 C468.618694,2.19230769 470.268546,0.576923077 472.743323,0.115384615 C475.218101,-0.346153846 477.074184,0.576923077 478.311573,2.88461538 C479.136499,4.73076923 480.683234,5.65384615 482.95178,5.65384615 C485.220326,5.65384615 488.313798,7.73076923 492.232196,11.8846154 C496.150593,16.0384615 501.615727,20.8846154 508.627596,26.4230769 C513.164688,29.6538462 515.948813,32.4230769 516.97997,34.7307692 C518.011128,37.0384615 518.526706,40.9615385 518.526706,46.5 C518.526706,54.3461538 516.051929,61.2692308 511.102374,67.2692308 C506.152819,73.2692308 499.553412,76.9615385 491.304154,78.3461538 C482.22997,79.7307692 468.103116,84.2307692 448.923591,91.8461538 C429.744065,99.4615385 411.698813,107.653846 394.787834,116.423077 C387.775964,120.115385 377.97997,122.884615 365.399852,124.730769 C352.819733,126.576923 341.683234,127.153846 331.990356,126.461538 C322.297478,125.769231 317.451039,123.807692 317.451039,120.576923 C317.451039,117.807692 322.503709,112.615385 332.60905,105 C342.714392,97.3846154 353.954006,90.1153846 366.327893,83.1923077 C389.425816,70.7307692 411.492582,56.4230769 432.52819,40.2692308 C453.563798,24.1153846 465.318991,12.3461538 467.793769,4.96153846 Z" id="Path" fill="#000000" fill-rule="nonzero"></path>
    </g>
</svg>