<?xml version="1.0" encoding="UTF-8"?>
<svg width="800px" height="470px" viewBox="0 0 800 470" version="1.1" xmlns="http://www.w3.org/2000/svg" xmlns:xlink="http://www.w3.org/1999/xlink">
    <title>o_zhai_m</title>
    <g id="o_zhai_m" stroke="none" stroke-width="1" fill="none" fill-rule="evenodd">
        <path d="M723.681174,90.8535319 C726.526044,90.0830622 728.881819,90.5629706 731.07571,91.6287672 L731.349127,91.7649952 L731.61057,91.9014706 C732.666522,92.4646452 733.609873,93.1445373 734.588524,93.9749086 C735.40927,94.671299 736.296483,95.5151939 737.274311,96.5226395 L737.939885,97.2186757 L738.633899,97.9642279 C738.752026,98.0926716 738.871405,98.2232226 738.992067,98.3559027 L739.357941,98.7603527 C739.555284,98.9796223 739.748095,99.1907205 739.936215,99.3935818 L740.486346,99.9773899 C741.289957,100.81584 741.99537,101.48617 742.588117,101.982423 L742.882027,102.221331 L743.062769,102.359 L743.110851,102.374775 C745.802289,103.271239 747.868683,105.019693 749.77002,107.393967 L750.028313,107.72159 L750.274164,108.042723 C751.799563,110.062847 753.30835,112.662323 754.907167,115.929471 C756.513854,119.212701 757.630291,121.976339 758.264495,124.386317 C759.011505,127.224952 759.263803,129.83353 758.57249,132.329824 L758.46166,132.703441 L758.381769,132.94 L758.357747,134.006153 L758.315499,136.718933 L758.253534,143.657877 L758.222734,149.940419 L758.201713,159.806842 L758.180311,206.826594 L758.083877,292.884095 L757.957364,345.498625 L757.911096,355.227494 L757.875862,359.705172 L757.857794,361.049248 L757.84406,361.644623 L757.80482,362.712441 L757.740029,364.219098 L757.667784,365.613527 L757.615293,366.481828 L757.559209,367.301796 C757.549556,367.434463 757.539748,367.565143 757.529784,367.693848 L757.468101,368.442475 C757.457501,368.56333 757.44674,368.682236 757.435815,368.799205 L757.368281,369.477883 C757.356691,369.587157 757.344934,369.694521 757.333005,369.799986 L757.296706,370.110702 C757.134306,371.456301 756.935448,372.572474 756.625973,373.628329 C756.535754,373.936136 756.437661,374.237549 756.327082,374.536292 L756.151275,374.98287 L756.004769,375.316 L755.946569,376.076394 L755.903768,376.714677 L755.828764,378.018029 L755.742531,379.848542 L755.677646,381.503531 L755.601761,383.808893 L755.5185,386.91987 L755.455746,389.797238 L755.399134,392.931568 L755.364785,395.365042 L755.284872,400.016362 L755.223207,402.958112 L755.117972,407.133139 L755.039233,409.758731 L754.931046,412.864015 L754.860881,414.633271 L754.761145,416.883096 L754.654288,419.008544 L754.540247,421.010052 L754.449965,422.430112 L754.323205,424.215784 L754.223313,425.474471 L754.11926,426.664306 L754.011019,427.785475 L753.898564,428.838163 L753.78187,429.822555 C753.768667,429.928144 753.755386,430.032472 753.742025,430.13554 C752.772914,437.611537 750.90248,443.942238 748.004435,449.128214 C747.314167,450.363429 746.492353,451.670766 745.53719,453.055164 L744.948075,453.89509 C744.544645,454.461259 744.119822,455.039915 743.67349,455.631375 L742.987845,456.528209 L742.269852,457.444485 L741.519422,458.380443 C740.880524,459.168673 740.207749,459.977651 739.500871,460.807993 L738.636234,461.8147 L737.738772,462.842153 L736.808397,463.890591 L735.845025,464.960251 C735.681708,465.14031 735.517013,465.321262 735.350937,465.503114 L734.337906,466.605051 L733.697297,467.294839 L733.571068,467.421068 C716.972033,484.020103 698.678266,484.545059 684.040264,468.108014 L683.743769,467.771 L682.222849,466.123722 L681.201249,465.029674 L680.195443,463.961936 L679.205508,462.920542 L678.231518,461.905527 L677.273547,460.916926 L675.866792,459.483626 L674.496504,458.109953 L673.603363,457.227353 L672.726617,456.371341 L671.866341,455.54195 L670.606971,454.347855 L669.788197,453.58517 C669.653127,453.460283 669.518754,453.336511 669.38508,453.213854 L668.591432,452.491296 L667.81463,451.795533 L667.054747,451.126599 L666.311859,450.48453 L665.58604,449.869359 C665.466497,449.769074 665.347668,449.669911 665.229555,449.571871 L664.529482,448.997114 C664.414239,448.903568 664.299715,448.811148 664.185912,448.719852 L663.511752,448.185585 C663.400838,448.098793 663.290647,448.013127 663.181181,447.928589 L662.533104,447.434891 L661.902509,446.968282 C661.695233,446.817264 661.490883,446.670768 661.289471,446.528797 L660.694065,446.116471 L660.402998,445.920503 C655.822709,442.866977 652.158501,439.107378 649.517725,434.675716 L648.889453,433.595683 C648.836177,433.505256 648.783619,433.416768 648.731799,433.330235 L648.429903,432.834632 C648.381118,432.755985 648.333111,432.679326 648.285903,432.60467 L648.012407,432.180913 L647.759056,431.806021 L647.526819,431.480769 L647.439769,431.365 L647.315867,431.284056 C644.840568,429.617602 643.003398,427.209124 642.100954,424.298856 L641.993038,423.932477 L641.898575,423.575356 C641.231376,420.906562 641.231376,418.183094 642.113167,415.537722 C643.82668,410.397183 648.405319,407.65 653.35,407.65 C657.028256,407.65 660.193903,409.065998 663.918432,411.619313 L664.318379,411.894184 L664.552719,412.006553 L664.8381,412.132046 L665.183194,412.273594 L665.68614,412.466433 C665.774884,412.499324 665.866076,412.532583 665.9597,412.5662 L666.550495,412.772105 L667.198862,412.986065 L667.904005,413.207558 L668.66513,413.436059 L669.465949,413.666682 L670.297865,413.89734 C670.440167,413.936097 670.584293,413.97501 670.730239,414.014078 L671.627747,414.250344 L672.568841,414.490288 L673.553405,414.733864 L674.581326,414.981024 L676.204251,415.358382 L677.340062,415.614295 L679.124284,416.004561 L681.004771,416.402358 L682.981134,416.807526 L683.789041,416.969769 L685.962357,417.472445 L687.382323,417.81368 L688.706934,418.144097 L689.538328,418.358924 L690.329284,418.569784 C690.457783,418.604615 690.584629,418.639295 690.70984,418.673831 L691.792986,418.980946 L692.467285,419.181921 L693.104253,419.380274 C693.207346,419.413133 693.308916,419.445897 693.408979,419.478572 L693.991404,419.673623 L694.538438,419.866893 L694.798926,419.962965 L694.981769,420.032 L695.038539,420.023364 C695.306761,419.97861 695.614989,419.917145 695.960794,419.838349 L696.507382,419.707081 L697.108516,419.549352 C697.213149,419.520833 697.31998,419.491192 697.428969,419.460419 L698.076521,419.271737 C699.932126,418.715056 701.45819,418.140017 702.640009,417.569484 C702.970855,417.409765 703.261311,417.257115 703.511531,417.114598 L703.750769,416.972 L703.887184,416.593881 L704.03393,416.159918 L704.110908,415.922098 C704.171965,415.730785 704.233619,415.531393 704.295841,415.324 L704.48418,414.677893 L704.675756,413.984245 L704.870394,413.243523 L705.067925,412.456194 L705.268175,411.622724 L705.470974,410.743581 L705.676149,409.819231 L705.883529,408.850142 L706.092942,407.836781 L706.304216,406.779613 L706.51718,405.679107 C706.612533,405.164203 706.704168,404.633095 706.792057,404.085842 L706.96283,402.969829 C707.239099,401.073989 707.473524,398.999202 707.665028,396.747645 L707.774771,395.375516 L707.874161,393.961067 C707.90556,393.482542 707.935225,392.996981 707.963148,392.504401 L708.041678,391.005625 C708.053892,390.752325 708.065668,390.497275 708.077005,390.240477 L708.139754,388.67873 C708.168487,387.887385 708.19325,387.080346 708.214014,386.257672 L708.250202,384.591495 C708.255342,384.31033 708.260036,384.027432 708.264282,383.742804 L708.292773,379.972227 L708.318791,366.598005 L708.331781,345.273292 L708.319776,290.273368 L708.188907,199.176956 L708.119784,181.095296 L708.100964,178.038875 L706.940973,94.5194927 L719.574689,91.3610637 L720.991891,91.2300997 L721.580842,91.1702856 L722.352308,91.0833271 L722.985786,91.0005051 L723.388769,90.937 L723.681174,90.8535319 Z M753.755695,28.6381294 C757.315498,27.8470623 760.22335,27.8470623 763.572002,30.0794971 C764.924304,30.9810317 766.018172,32.1222317 766.832405,33.4174443 L767.030125,33.7444064 L767.121769,33.909 L767.915554,34.3728733 L768.986846,35.0102067 L770.099401,35.6828073 L771.253384,36.3907454 C771.449175,36.5116838 771.6467,36.6340975 771.845961,36.757988 L773.686288,37.9129146 L774.965537,38.727286 C775.814649,39.2707177 776.527732,39.6310124 777.081347,39.8278531 L777.261738,39.8890668 L777.454465,39.9488473 L778.440195,39.95 L779.411161,40.1441932 C783.644209,40.9908027 786.578964,43.534257 790.382213,48.098156 C793.238227,51.5253732 795.466232,55.1685668 797.029137,59.0169193 L797.283456,59.6602092 L797.550498,60.3545176 L797.711871,61.0806954 C798.859056,66.2430277 797.270737,71.4751367 793.727415,77.8868611 C790.405513,83.8979233 786.913984,87.9252009 782.144305,89.6354704 L781.774867,89.7624539 L781.534769,89.837 L781.431067,89.8817592 C777.550993,91.449288 773.263791,91.4427447 768.588535,90.2937983 L768.103504,90.1708843 L767.541292,90.0208802 L767.35753,89.9820749 L767.12799,89.9425849 L766.853618,89.90273 L766.360075,89.8429627 L765.553946,89.76498 L764.585539,89.6912928 L764.042848,89.6568595 L762.845227,89.5944118 L761.85253,89.5544518 L760.782401,89.5215843 L759.370436,89.4917171 L757.860904,89.4733954 L756.254346,89.4666366 L754.551302,89.4714581 L752.752314,89.4878775 L750.857923,89.5159122 L748.86867,89.5555797 L746.785096,89.6068976 L744.607741,89.6698832 L743.218652,89.7123786 L741.826191,89.740192 L739.185396,89.7762462 L735.670632,89.8111004 L727.489768,89.869134 L716.836669,89.9232858 L701.801245,89.9802512 L671.344031,90.0611324 L643.290105,90.1130457 L573.094735,90.1910679 L498.814008,90.2230414 L426.525114,90.2170789 L354.498499,90.17324 L284.104507,90.0780978 L255.377765,90.0140026 L227.929289,89.9250674 L212.119943,89.8474888 L205.0309,89.7973126 L200.572053,89.7535018 L197.988579,89.717184 L197.033356,89.6986114 C184.003057,89.4814397 170.43713,89.8853522 156.336128,90.9118937 L153.37651,91.1359744 L151.718895,91.2697098 L149.2908,91.4774629 L147.711024,91.6206996 L146.162468,91.7676984 L144.645182,91.9184375 L143.159212,92.0728949 L140.989084,92.3115049 C140.751885,92.3384764 140.515996,92.3656006 140.281418,92.392877 L138.889691,92.5583579 L137.529474,92.7274696 L135.548337,92.9878966 L134.267108,93.1659891 L133.01756,93.3476357 L131.79974,93.5328143 L130.613697,93.7215031 L129.459479,93.9136803 L128.337135,94.1093238 L127.246713,94.3084117 L126.188261,94.5109222 L125.161828,94.7168334 L124.167462,94.9261233 L123.205212,95.1387701 L122.275126,95.3547518 C122.122795,95.3910254 121.971806,95.4274371 121.82216,95.4639863 L121.107769,95.642 L120.278214,95.892083 C115.57898,97.2840569 111.135501,98.3482049 106.941057,99.0804837 L106.046057,99.2323195 L104.107293,99.5396513 C103.946234,99.565722 103.787009,99.5918301 103.629626,99.6179707 L102.26318,99.8539801 L101.408227,100.011898 L100.598598,100.169999 L99.834734,100.328046 C99.7112615,100.35437 99.5897142,100.380681 99.4701012,100.406975 L98.7757097,100.564493 L98.1281842,100.721361 C98.0241933,100.747439 97.9221734,100.773479 97.8221339,100.799477 L97.2457338,100.954922 L96.7173015,101.10912 C96.6332513,101.134703 96.551218,101.160223 96.471211,101.185677 L95.9141304,101.367203 L95.1831931,101.592062 L94.3382058,101.836091 L93.1194079,102.168722 L92.0125737,102.457408 L90.4619374,102.847175 L87.9741281,103.448271 L84.6692288,104.217013 L80.3488743,105.19009 L76.5376466,106.029077 L75.3750421,106.282341 L74.7611119,106.413705 L73.5630304,106.676884 L72.4048335,106.940531 L71.2867371,107.204479 L70.2089568,107.468563 L69.1717085,107.732618 L68.1752079,107.99648 L67.2196707,108.259983 L66.3053126,108.522962 L65.4323495,108.785251 L64.600997,109.046687 L63.8114708,109.307103 C63.6833807,109.350411 63.5570423,109.39367 63.4324601,109.436877 L62.7060781,109.695454 C62.0008429,109.953343 61.3591564,110.209084 60.7819893,110.461934 L60.2263647,110.713793 L59.9831272,110.830089 L59.7551164,110.943204 L59.5457692,111.05 L59.4422747,111.346667 C58.3095026,114.44241 56.0458325,116.967064 52.9359088,118.380666 L52.5994774,118.527848 L52.278957,118.657705 C49.3127653,119.814017 46.2749052,119.832428 43.0053354,119.153838 C39.2069325,118.365491 34.6794997,116.488951 29.122816,113.517253 L27.9583727,112.88679 L26.6652888,112.169063 C16.1372385,106.115434 8.76876769,99.7830948 4.64770861,92.760394 L4.39437161,92.3205726 L4.32104427,92.1885213 C0.756196372,85.6529668 1.21904686,78.247359 7.63761806,73.6626653 C7.78344712,73.5585017 7.93303198,73.4543632 8.08638997,73.350239 L8.55780058,73.0378977 C8.63826135,72.9858442 8.71966973,72.9337916 8.80202788,72.8817384 L9.30759135,72.5694011 L9.83605326,72.256984 L10.3875175,71.9444213 L10.9620879,71.6316469 L11.5598685,71.3185949 C11.6614385,71.2663928 11.7639799,71.2141764 11.867495,71.1619443 L12.5002854,70.8483523 L13.1565457,70.534318 L13.8363797,70.2197753 L14.5398913,69.9046583 L15.2671843,69.5889012 L16.0183627,69.2724378 L16.7935304,68.9552025 L18.001489,68.4777575 L18.8370843,68.1583035 L19.6970324,67.8378466 L20.5814373,67.516321 L21.4904029,67.1936606 L22.4240329,66.8697996 L23.3824314,66.544672 L24.8666971,66.0544615 L25.8874711,65.725879 L26.9333771,65.3957991 L28.5495859,64.8977276 L30.2229261,64.3959161 L31.9537483,63.8901422 L33.1397373,63.5506483 L34.9671421,63.0377758 L37.4946132,62.3468205 L39.4588697,61.8229715 L40.8012608,61.4709331 L43.5654387,60.7598257 L46.4361701,60.0389048 L49.4142861,59.3076429 C69.9446848,54.3200319 89.0056924,50.9593921 106.607284,49.2333278 L107.878769,49.111 L110.672342,48.7526448 L115.275666,48.1502554 L119.986575,47.5213105 L123.187613,47.0871664 L126.437462,46.6410782 L131.404625,45.9494267 L134.778241,45.4732304 L139.932921,44.7361511 L143.348868,44.2416983 L144.021417,44.1560972 L144.514831,44.1011309 L145.057569,44.0476632 L145.661018,43.9955378 L146.336568,43.9445985 L147.095606,43.8946891 L147.94952,43.8456532 L148.909699,43.7973347 L150.574125,43.7258601 L151.849788,43.6786512 L153.271574,43.6316128 L154.85087,43.5845885 L157.54006,43.5137369 L161.783223,43.4178593 L168.272114,43.2939904 L176.243678,43.1633738 L185.875854,43.0235681 L202.489524,42.807754 L226.515445,42.5246017 L256.614629,42.1929246 L337.948143,41.343994 L473.252481,39.9600912 L514.146792,39.5184006 L546.998826,39.1441862 L576.634129,38.7850571 L596.793485,38.5243213 L609.265798,38.3540957 L620.974937,38.1864363 L634.552031,37.9800629 L644.577349,37.8171983 L653.86911,37.6560296 L662.436429,37.496289 L668.391983,37.3772595 L675.713454,37.2193735 L682.335543,37.0621791 L686.848621,36.944576 L690.977268,36.8270983 L694.725327,36.7096331 L697.014495,36.631274 L700.136786,36.5135783 L702.012334,36.434961 L703.724427,36.3561819 L705.274206,36.2772074 L706.662809,36.198004 L707.891374,36.1185384 L710.690481,35.9420341 L714.043985,35.7140678 L716.609613,35.5260971 L719.070308,35.3333915 L721.425356,35.1361732 L723.674041,34.9346644 L725.815647,34.7290876 L727.351151,34.5723689 L729.303646,34.3602077 L731.147095,34.1445895 L732.457689,33.9807411 L733.706239,33.8151669 L735.273938,33.591879 L736.016001,33.4792166 L737.076608,33.309028 L738.073965,33.1374888 L738.703581,33.0224253 L739.594847,32.8488434 L740.422057,32.6741611 L740.937795,32.557141 L741.424839,32.4397013 L741.8831,32.3218697 L742.31249,32.203674 L742.734769,32.079 L744.468271,31.4567672 L745.363715,31.141968 L746.211464,30.8489266 L747.394603,30.4499277 L748.125003,30.2108151 L749.134142,29.8922099 C750.886535,29.3530119 752.416903,28.9356388 753.755695,28.6381294 Z" id="Combined-Shape" fill="#000000" fill-rule="nonzero"></path>
        <path d="M147.471762,-82.9342773 C154.538785,-85.2079879 163.100756,-85.3500949 173.157673,-83.360598 C183.214591,-81.3711012 192.863795,-77.6763214 202.105287,-72.2762585 C210.803162,-66.5919819 215.967525,-61.9735071 217.598376,-58.4208342 C219.229228,-54.8681612 221.131888,-52.3812902 223.306356,-50.960221 C225.480825,-49.5391519 225.209016,-48.1180827 222.490931,-46.6970135 C218.68561,-44.4233029 220.58827,-43.1443406 228.198911,-42.8601268 C233.091465,-42.5759129 242.876574,-42.433806 257.554238,-42.433806 C274.949987,-42.433806 286.230043,-42.1495922 291.394406,-41.5811645 C296.558769,-41.0127369 301.587228,-39.8758815 306.479782,-38.1705985 C313.003188,-35.8968879 318.303455,-32.5573753 322.380584,-28.1520609 C326.457713,-23.7467465 327.137234,-20.407234 324.419149,-18.1335233 C322.24468,-16.4282403 317.352125,-15.149278 309.741485,-14.2966365 C303.218079,-13.7282089 299.412759,-12.9466208 298.325525,-11.9518724 C297.23829,-10.957124 298.597333,-9.7492152 302.402653,-8.32814604 C306.207974,-6.62286304 307.974729,-3.63861779 307.702921,0.624589713 C307.431112,4.88779721 305.392548,7.72993555 301.587228,9.15100471 C297.781908,11.4247154 291.394406,14.1247468 282.424723,17.251099 C273.45504,20.3774511 265.164878,23.5038033 257.554238,26.6301555 L235.537742,36.8618535 C233.363274,37.714495 231.732422,38.496083 230.645188,39.2066176 C229.557954,39.9171522 228.878432,40.4855798 228.606624,40.9119006 C228.334815,41.3382213 122.477819,49.1541017 121.378138,48.1593533 C120.278458,47.1646049 120.278458,47.1646049 118.931861,46.6672307 C117.585264,46.1698565 114.311115,44.535627 109.962178,40.2724195 C105.613241,36.009212 102.351538,33.0249667 100.177069,31.3196837 C97.4589832,29.3301869 95.012706,24.9959259 92.8382373,18.3169008 C90.6637687,11.6378758 90.3919601,7.44572171 92.0228116,5.74043871 C98.5462175,-0.51226562 108.331326,-2.64386937 121.378138,-0.654372537 C136.055802,1.3351243 148.015379,4.81674375 157.256871,9.79048584 C166.498363,14.7642279 171.119109,19.9511304 171.119109,25.3511932 C170.575492,29.045973 171.662726,31.1775768 174.380812,31.7460045 C177.642515,33.1670736 189.737997,25.9196209 210.667257,10.0036462 C231.596518,-5.91232845 242.061148,-15.8598126 242.061148,-19.8388063 C242.061148,-20.6914478 232.819657,-21.5440893 214.336673,-22.3967308 C195.85369,-23.2493723 175.468046,-22.5388377 153.179742,-20.265127 C130.891439,-17.9914164 115.941967,-15.0071711 108.331326,-11.3123913 C99.0898347,-7.33339762 90.7996729,-5.91232845 83.4608412,-7.04918379 C76.1220096,-8.18603912 72.4525937,-11.3123913 72.4525937,-16.4282403 C72.4525937,-19.5545925 71.7730723,-22.0414635 70.4140293,-23.8888534 C69.0549864,-25.7362433 71.5012637,-27.228366 77.752861,-28.3652213 C84.0044584,-29.5020766 90.3919601,-30.9231458 96.915366,-32.6284288 C103.438772,-34.3337118 109.962178,-35.1863533 116.485584,-35.1863533 C123.00899,-35.1863533 132.250482,-36.0389948 144.210059,-37.7442778 C153.451551,-38.8811331 158.887723,-40.0890419 160.518574,-41.3680042 C162.149426,-42.6469664 160.518574,-44.5654098 155.62602,-47.1233343 C149.646231,-50.5339003 145.705006,-56.999765 143.802346,-66.5209284 C141.899686,-76.0420918 143.122825,-81.5132081 147.471762,-82.9342773 Z" id="Path" fill="#000000" fill-rule="nonzero"></path>
    </g>
</svg>