<svg width="500" height="500" viewBox="0 0 500 500" fill="none" xmlns="http://www.w3.org/2000/svg">
<g clip-path="url(#clip0_2567_2615)">
<path fill-rule="evenodd" clip-rule="evenodd" d="M490 490.001L257.071 257.072L24.1422 490.001H490ZM490 475.859L264.142 250.001L490 24.1429V475.859ZM500 485.859V14.1429L507.071 7.07182L500 0.00075531L490 0.000732422H14.1421L7.07109 -7.07031L4.86768e-05 0.000732422L0 10.0007V490.001V500.001L7.07107 507.072L14.1422 500.001H490L500 500.001L507.071 492.93L500 485.859ZM10 490.001L250 250.001L10 10.0007V490.001ZM24.1421 10.0007L257.071 242.93L490 10.0007H24.1421Z" fill="black"/>
</g>
<defs>
<clipPath id="clip0_2567_2615">
<rect width="500" height="500" fill="white"/>
</clipPath>
</defs>
</svg>
