<?xml version="1.0" encoding="UTF-8"?>
<svg width="1000px" height="1000px" viewBox="0 0 1000 1000" version="1.1" xmlns="http://www.w3.org/2000/svg" xmlns:xlink="http://www.w3.org/1999/xlink">
    <title>qi_char</title>
    <g id="qi_char" stroke="none" stroke-width="1" fill="none" fill-rule="evenodd">
        <path d="M466.900377,81.8385051 C471.575458,74.7680478 476.951802,71.2328191 483.029409,71.2328191 C489.107015,71.2328191 501.028474,75.4750935 518.793785,83.9596423 C537.494112,91.7371454 562.272046,100.751979 593.127586,111.004142 C623.983125,121.256305 644.553485,131.331707 654.838665,141.230347 C661.38378,148.300804 665.3576,156.43183 666.760124,165.623425 C668.162649,174.815019 666.52637,180.117862 661.851288,181.531954 C658.111223,183.653091 654.838665,189.309457 652.033616,198.501051 C649.228567,207.692646 642.917207,214.056058 633.099535,217.591286 C623.281863,221.126515 616.970503,226.606119 614.165454,234.0301 C611.360405,241.45408 589.38752,260.721076 548.2468,291.831089 C498.690933,330.718604 474.380507,352.637022 475.315524,357.586342 C476.25054,361.121571 485.600704,363.596231 503.366015,365.010322 C539.831653,368.545551 558.064472,384.807603 558.064472,413.796478 C558.064472,423.695118 556.895701,430.235291 554.558161,433.416997 C552.22062,436.598703 547.779292,439.95717 541.234177,443.492399 C527.208932,449.148765 507.573588,451.269902 482.328147,449.85581 C459.887754,447.734673 424.123378,448.088196 375.035019,450.916379 C325.94666,453.744562 292.052317,457.279791 273.351989,461.522065 C254.651662,466.471385 236.418843,470.71366 218.653532,474.248888 C200.888221,477.784117 185.460451,483.08696 172.370222,490.157417 C159.279993,497.227875 143.618469,500.763103 125.38565,500.763103 C107.152831,500.763103 96.4001428,502.707479 93.1275855,506.596231 C89.8550283,510.484982 88.2187496,532.4034 88.2187496,572.351484 C88.2187496,612.299568 89.153766,646.061002 91.0237987,673.635786 C94.7638642,711.816255 104.114028,738.33047 119.07429,753.178431 C134.034551,768.026391 160.21501,776.51094 197.615664,778.632077 C278.027071,784.288443 366.619872,787.293388 463.394065,787.646911 C560.168259,788.000433 629.125715,786.056058 670.266435,781.813783 C757.222957,771.915143 815.66148,760.248888 845.582003,746.815019 C857.737216,740.451608 868.489904,732.320582 877.840068,722.421941 C887.190232,712.523301 891.865313,702.978184 891.865313,693.786589 C891.865313,678.231583 900.280461,642.525773 917.110755,586.66916 L924.123378,563.336651 L929.733476,581.366317 C931.603509,594.09314 934.876066,613.71366 939.551148,640.227875 C944.22623,666.74209 951.472607,688.837269 961.290278,706.513412 C971.10795,724.189556 977.419311,738.507232 980.22436,749.466441 C983.029409,760.42565 987.003228,767.84963 992.145818,771.738381 C997.288408,775.627133 999.859703,785.702535 999.859703,801.964587 C999.859703,818.226639 994.249605,832.721076 983.029409,845.447899 C962.459049,866.659271 945.628754,877.61848 932.538525,878.325526 C925.993411,878.325526 918.045772,881.507232 908.695608,887.870644 C867.554888,915.445427 789.94853,929.232819 675.876534,929.232819 C605.750306,929.232819 519.728801,927.995489 417.812018,925.520829 C315.895234,923.046169 252.314121,920.041225 227.068679,916.505996 C185.92796,911.556676 153.436141,903.779173 129.593224,893.173487 C105.750306,882.567801 81.6736351,864.891657 57.3632096,840.145056 C29.3127188,813.984364 12.4824242,785.349012 6.87232606,754.239 C2.19724424,737.976948 -0.140296663,700.326762 -0.140296663,641.288443 C-0.140296663,582.250124 2.19724424,544.599939 6.87232606,528.337887 C12.4824242,500.763103 19.9625551,433.593759 29.3127188,326.829852 C31.1827515,295.012794 35.8578333,275.215514 43.3379642,267.438011 L55.9606851,256.832325 L78.4010778,275.922559 C94.296356,289.356428 100.841471,299.255069 98.0364214,305.61848 C95.2313723,311.274846 93.1275855,332.309457 91.725061,368.722312 C90.3225364,405.135168 91.0237987,424.755687 93.8288478,427.58387 C96.6338969,430.412053 110.191634,427.937393 134.50206,420.15989 C153.202387,413.089432 181.720386,404.958406 220.056057,395.766812 C258.391728,386.575217 281.767137,381.97942 290.182284,381.97942 C295.792382,381.97942 314.258955,369.252597 345.582003,343.79895 C376.905052,318.345304 394.904117,301.022683 399.579198,291.831089 C417.344509,249.408344 428.097197,213.349012 431.837263,183.653091 L436.044837,157.138876 L384.151428,157.138876 C342.075692,156.43183 308.415103,157.138876 283.169661,159.260013 C223.328614,164.916379 183.590419,173.047405 163.955075,183.653091 C143.384715,195.672869 123.281863,192.491163 103.64652,174.107974 C98.0364214,167.037516 95.4651264,159.613536 95.9326346,151.836033 C96.4001428,144.05853 100.373962,139.10921 107.854093,136.988072 C200.420713,116.483746 288.312251,106.231583 371.528708,106.231583 C415.474477,106.231583 438.616132,104.110446 440.953672,99.8681714 C443.291213,95.6258969 447.031279,93.5047597 452.173869,93.5047597 C457.316459,93.5047597 462.225295,89.6160082 466.900377,81.8385051 Z" id="已" fill="#000000" fill-rule="nonzero"></path>
    </g>
</svg>