<svg width="660" height="660" viewBox="0 0 660 660" fill="none" xmlns="http://www.w3.org/2000/svg">
<path fill-rule="evenodd" clip-rule="evenodd" d="M258.296 257.538C252.421 261.57 246.676 265.345 241.06 268.862C229.249 276.11 217.547 282.446 205.954 287.871C202.106 289.672 198.845 291.185 196.051 292.462C199.93 293.536 204.119 294.804 208.619 296.267C268.922 290.399 315.698 284.695 348.947 279.153C360.387 277.247 373.139 275.437 385.211 273.723C408.226 270.456 428.77 267.54 433.046 264.974C433.672 264.598 434.285 264.236 434.885 263.887C434.637 263.624 434.4 263.365 434.176 263.111C422.369 249.854 403.883 238.254 385.729 226.863C368.098 215.799 350.779 204.932 340.198 192.934C327.602 204.151 313.715 215.122 304.141 222.685L304.141 222.685C302.49 223.989 300.968 225.192 299.603 226.277C296.402 228.821 293.595 231.089 291.024 233.167L291.022 233.168C286.476 236.842 282.666 239.921 278.719 242.874C274.791 245.813 270.916 248.647 267.093 251.377C269.853 250.503 273.252 249.738 277.292 249.083C288.374 247.453 298.968 245.334 309.073 242.726C319.178 240.119 328.142 237.348 335.965 234.414C342.811 231.807 348.352 229.851 352.59 228.547C357.153 227.243 361.065 226.428 364.325 226.102C367.91 225.776 371.007 225.939 373.615 226.591C376.548 227.243 379.808 228.221 383.394 229.525C396.432 234.414 401.974 239.956 400.018 246.149C398.388 252.342 388.772 257.069 371.17 260.329C352.916 263.914 338.247 266.685 327.164 268.641C316.082 270.271 307.117 271.412 300.272 272.063C293.427 272.389 288.048 272.226 284.137 271.575C280.225 270.923 276.477 269.945 272.891 268.641C262.46 265.055 257.571 261.47 258.223 257.884C258.242 257.768 258.266 257.653 258.296 257.538ZM507.251 287.511C507.75 287.461 508.246 287.408 508.741 287.352C517.647 286.366 541.756 282.294 541.756 270.881C541.756 265.968 525.02 261.975 510.201 258.439C501.925 256.464 494.248 254.632 490.417 252.863C486.779 251.182 482.636 249.39 478.255 247.496C465.759 242.092 451.333 235.854 441.196 228.974C417.927 212.705 385.48 188.614 363.918 168.711C366.665 165.134 368.685 161.837 369.709 158.972C362.827 150.572 333.796 153.554 317.056 162.405C296.683 173.175 291.701 179.707 285.026 188.459C280.704 194.128 275.67 200.727 265.287 210.013C244.347 228.671 223.536 244.66 202.854 257.981C182.57 271.168 160.113 282.844 135.482 293.009C130.397 295.095 126.149 297.096 122.739 299.012C119.726 300.795 118.147 302.295 118.001 303.511C118.096 304.84 119.902 305.696 123.419 306.079C127.093 306.214 133.237 305.914 141.85 305.179C147.663 304.706 153.418 303.979 159.113 302.999C159.152 303.197 159.192 303.398 159.235 303.601C169.812 351.198 168.932 356.512 151.411 381.938C151.411 389.761 154.345 398.236 160.213 407.363C163.006 411.869 165.09 415.703 166.808 418.863C171.304 427.135 173.295 430.798 178.956 429.855C187.105 428.877 192.972 418.609 196.558 399.051C197.21 395.14 198.025 389.761 199.003 382.916C198.502 372.118 197.85 363.157 197.309 355.712C195.209 326.823 194.768 320.765 211.226 318.758C218.176 317.911 227.417 317.063 236.659 316.216C245.189 315.433 253.719 314.651 260.447 313.869C274.79 312.239 288.806 310.772 302.497 309.468C316.513 307.838 330.041 306.535 343.08 305.557C350.377 304.845 372.008 304.181 392.055 303.567L392.056 303.567C408.724 303.055 424.296 302.578 429.624 302.134C438.751 301.482 445.922 301.319 451.137 301.645C456.679 301.645 460.753 303.112 463.361 306.046C466.295 308.653 468.251 312.891 469.229 318.758C473.14 339.399 473.68 344.067 470.695 357.001C469.717 361.239 467.925 364.336 465.317 366.291C463.035 367.921 459.613 368.736 455.049 368.736C450.521 368.413 443.865 365.585 437.629 362.936C429.766 359.595 422.569 356.538 421.149 359.143C418.582 363.848 421.336 378.087 426.201 384.383C431.742 391.88 436.306 401.007 439.892 411.764C443.477 422.195 448.856 426.921 456.027 425.944C463.524 424.966 473.466 416.816 485.853 401.496C490.416 395.955 494.002 390.739 496.61 385.849C499.543 380.96 501.662 375.418 502.966 369.225C504.27 363.032 504.922 356.023 504.922 348.2C505.5 339.741 505.878 337.636 506.511 334.116C506.95 331.677 507.511 328.56 508.345 322.181C511.604 317.617 514.049 313.706 515.679 310.446C517.309 306.861 517.635 303.438 516.657 300.178C515.679 296.593 513.397 293.17 509.811 289.91C509.034 289.133 508.181 288.334 507.251 287.511Z" fill="black"/>
<path d="M418.47 55.1302C392.889 63.2007 410.037 59.8034 384.469 68.9259C374.321 72.8687 368.401 73.9952 366.709 72.3054C365.3 70.334 369.528 64.8423 379.395 55.8301C386 47 389.841 38.2386 389.841 25.9814C389.277 22.0385 389.418 18.7997 390.264 16.2651C391.11 13.7304 392.942 12.1814 395.761 11.6182C398.862 11.0549 402.95 11.759 408.024 13.7304C430.085 20.6901 433.521 24.2979 432.424 43.3016C430 48.5 428.337 52.0323 418.47 55.1302ZM297.937 57.7708C298.501 68.1911 295.823 75.091 289.903 78.4706C284.264 81.8502 276.935 80.7236 267.914 75.091C264.531 72.838 259.738 68.1911 253.536 61.1504C247.616 54.1096 242.119 47.0688 237.045 40.028C231.689 32.7056 229.715 28.1995 231.125 26.5097C232.534 24.8199 238.736 23.975 249.731 23.975C265.236 23.975 276.935 26.3689 284.828 31.1567C293.004 35.6628 297.373 44.5341 297.937 57.7708ZM513.173 143.821C519.375 149.735 523.604 154.805 525.859 159.029C528.396 163.254 528.678 166.633 526.705 169.168C524.732 171.421 520.644 172.829 514.442 173.392C508.24 173.674 499.501 172.97 488.225 171.28C456.087 166.493 412.532 166.915 357.56 172.548C338.059 173.392 331.716 175.088 316.543 176.772C293.708 179.307 274.257 181.982 258.188 184.799C242.401 187.333 228.306 190.15 215.902 193.247C209.136 194.937 203.498 196.205 198.987 197.05C194.759 197.894 190.812 198.176 187.147 197.894C183.764 197.331 180.381 196.205 176.999 194.515C173.616 192.543 169.528 189.868 164.736 186.488C155.715 180.011 151.486 175.786 152.05 173.815C152.895 171.844 159.238 170.576 171.079 170.013C173.052 170.013 175.025 169.872 176.999 169.591C179.254 169.309 181.791 169.027 184.61 168.746C187.429 168.464 190.812 168.042 194.759 167.478C198.705 166.915 203.78 166.211 209.982 165.366C215.902 164.521 223.231 163.535 231.971 162.409C240.992 161.282 250.435 160.156 260.302 159.029C270.169 157.621 280.036 156.354 289.903 155.227C299.769 154.101 308.649 153.115 316.543 152.27V123.25C303.293 124.94 292.581 126.207 284.405 127.052C276.512 127.615 270.028 127.897 264.954 127.897C259.879 127.615 255.651 127.052 252.268 126.207C249.167 125.362 245.784 124.095 242.119 122.405C231.407 117.054 226.614 113.534 227.742 111.844C228.87 110.154 235.776 108.605 248.462 107.197C256.919 106.071 267.209 104.662 279.331 102.973C291.735 101.001 304.139 98.8889 316.543 96.6359C316.543 64.5798 321.269 77.7631 313.16 46.516C311.468 38.6304 308.227 31.8712 303.434 26.2386C298.642 20.8876 295.4 16.2407 293.708 12.2979C292.299 8.07344 292.581 4.97545 294.554 3.00403C296.527 0.750993 300.474 -0.234689 306.394 0.0469383C312.314 0.0469383 320.49 1.4551 330.92 4.2714C340.505 6.80608 347.976 9.48159 353.332 12.2979C358.97 15.1142 362.917 18.0713 365.172 21.1692C367.427 23.9856 368.414 27.0835 368.132 30.463C367.85 33.561 366.722 37.0814 364.749 41.0243C363.058 44.4039 361.648 48.2058 360.52 52.4303C355.056 79.7265 357.56 58.4594 357.56 86.0747C366.863 83.8217 374.616 82.1318 380.818 81.0053C387.02 79.5971 392.517 78.8931 397.309 78.8931C402.102 78.6114 406.471 78.8931 410.418 79.738C414.365 80.3013 418.593 81.4277 423.104 83.1175C431.279 86.2155 435.085 89.8767 434.521 94.1011C433.957 98.044 430.152 101.142 423.104 103.395C415.21 105.93 406.048 108.464 395.618 110.999C385.469 113.252 372.783 125.505 357.56 127.758V147.201C373.629 144.948 387.724 142.836 399.847 140.864C411.969 138.893 423.386 136.78 434.098 134.527C446.22 131.993 456.369 130.303 464.544 129.458C473.002 128.331 480.049 128.191 485.687 129.036C491.326 129.88 496.259 131.57 500.488 134.105C504.716 136.64 508.945 139.878 513.173 143.821Z" fill="black"/>
</svg>
