<svg width="660" height="660" viewBox="0 0 660 660" fill="none" xmlns="http://www.w3.org/2000/svg">
<path d="M533.6 -145.4C578.4 -151.8 611.6 -161 633.2 -173C652.4 -183.4 667.2 -188.6 677.6 -188.6C688 -188.6 705.6 -179 730.4 -159.8C755.2 -140.6 767.6 -125.8 767.6 -115.4C767.6 -109 762.8 -104.2 753.2 -101C744.4 -97.8 729.6 -87 708.8 -68.6C688 -50.2 677.6 -37 677.6 -29C677.6 -21.8 679.6 -15 683.6 -8.59998C687.6 -2.19996 689.6 2.60007 689.6 5.80005C689.6 17 670.8 23.4 633.2 25C595.6 25.8 560 29.4001 526.4 35.8C524 96.6001 522.8 363.4 522.8 416.2L524 867.8C524 929.4 519.6 976.6 510.8 1009.4C502 1043 492 1059.8 480.8 1059.8C473.6 1059.8 465.6 1051 456.8 1033.4C480.8 681 474.509 292.228 486.8 41.8C486.8 41.8 470.5 41.8 444.8 47.8C424 50.2001 401.6 54.6 377.6 61C376 77.8 370 86.2001 359.6 86.2001C350 86.2001 341.6 74.6 334.4 51.4C315.2 -8.59999 292.4 -57 266 -93.8C262 -100.2 260 -105.8 260 -110.6C260 -116.2 265.2 -119 275.6 -119C286 -119 301.2 -116.2 321.2 -110.6C367.6 -113 424 -121.4 490.4 -135.8V-171C449.6 -163 417.2 -159 393.2 -159C369.2 -159 352.4 -161.8 342.8 -167.4C333.2 -173 328.4 -178.2 328.4 -183C328.4 -188.6 335.6 -192.6 350 -195C397.2 -203.8 444 -214.6 490.4 -227.4C488 -285.5 479.2 -336.2 466.4 -349.8C454.4 -364.2 448.4 -375.8 448.4 -384.6C448.4 -394.2 455.2 -399 468.8 -399C483.2 -399 503.6 -392.6 530 -379.8C557.2 -367.8 570.8 -355.4 570.8 -342.6C570.8 -337.8 569.2 -330.6 566 -321C555.6 -298.6 543.2 -274.5 543.2 -243C592 -257.4 625.2 -264.6 642.8 -264.6C660.4 -264.6 674 -261.8 683.6 -256.2C694 -251.4 699.2 -244.6 699.2 -235.8C699.2 -227.8 691.2 -221 675.2 -215.4C659.2 -209.8 613.6 -198.2 538.4 -180.6C538.4 -173 534.4 -167.8 533.6 -145.4ZM527.6 2.20004C574 -6.59996 602.8 -14.2 614 -20.5999C625.2 -27 633.6 -41.4 639.2 -63.8C645.6 -86.2 648.8 -102.6 648.8 -113C648.8 -124.2 642.8 -129.8 630.8 -129.8C607.6 -129.8 574.4 -125.8 531.2 -117.8L527.6 2.20004ZM488 -116.6C423.2 -100.6 375.6 -91 345.2 -87.8C355.6 -67 365.6 -30.2 375.2 22.6C428 14.6 465.2 7.40005 486.8 1.00006C487.6 -18.9999 488 -58.2 488 -116.6Z" fill="black"/>
<path d="M582.2 -369.8C592.6 -383.4 601 -397.4 607.4 -411.8C614.6 -426.2 618.2 -437.8 618.2 -446.6C619 -456.2 619.4 -464.2 619.4 -470.6C619.4 -484.2 625 -491 636.2 -491C647.4 -491 661 -486.6 677 -477.8C693.8 -469 702.2 -460.6 702.2 -452.6C702.2 -444.6 695.8 -437.4 683 -431C679 -428.6 670.6 -420.6 657.8 -407C645 -393.4 634.6 -382.2 626.6 -373.4C619.4 -365.4 611 -357.4 601.4 -349.4C628.6 -319 649.4 -295.4 663.8 -278.6C691 -299.4 711.8 -320.2 726.2 -341C741.4 -361.8 749.4 -379.4 750.2 -393.8C751 -409 757.4 -416.6 769.4 -416.6C781.4 -416.6 797 -410.2 816.2 -397.4C835.4 -385.4 845 -375.8 845 -368.6C845 -361.4 839.4 -355.8 828.2 -351.8C817.8 -348.6 803.8 -341.4 786.2 -330.2L680.6 -263C715 -229.4 752.6 -200.2 793.4 -175.4C835 -150.6 887.4 -128.2 950.6 -108.2C964.2 -104.2 971 -99.7999 971 -94.9999C971 -90.2 968.2 -86.6 962.6 -84.2C957 -81.8 936.6 -78.5999 901.4 -74.5999C867 -71.3999 841 -69.8 823.4 -69.8C806.6 -69.8 793 -71.3999 782.6 -74.5999C773 -78.5999 764.2 -84.6 756.2 -92.6C748.2 -100.6 728.6 -124.2 697.4 -163.4C666.2 -203.4 634.2 -245 601.4 -288.2C569.4 -332.2 541.8 -360.6 518.6 -373.4C508.2 -380.6 503 -386.6 503 -391.4C503 -396.2 505.4 -400.2 510.2 -403.4C515 -406.6 520.2 -408.2 525.8 -408.2C540.2 -408.2 559 -395.4 582.2 -369.8ZM486.2 -363.8C486.2 -359.8 482.2 -354.6 474.2 -348.2C466.2 -341.8 459.4 -333 453.8 -321.8C448.2 -311.4 439.4 -291.8 427.4 -263C385.8 -153.4 338.6 -78.2 285.8 -37.4C233.8 3.40005 201.8 23.8 189.8 23.8C186.6 23.8 185 22.2 185 19C185 15.8 188.2 11.4 194.6 5.80002C257 -50.2 304.6 -112.2 337.4 -180.2C371 -248.2 387.8 -298.2 387.8 -330.2C387.8 -341.4 384.2 -347 377 -347C374.6 -347 367.8 -345.4 356.6 -342.2C346.2 -339.8 335.8 -338.6 325.4 -338.6C315 -338.6 303.8 -341.4 291.8 -347C279.8 -352.6 273.8 -357.8 273.8 -362.6C273.8 -368.2 279.8 -371.4 291.8 -372.2C331 -374.6 362.6 -383.8 386.6 -399.8C393.8 -404.6 401.8 -407 410.6 -407C419.4 -407 434.2 -401.4 455 -390.2C475.8 -379.8 486.2 -371 486.2 -363.8ZM257 -269C271.4 -269 289 -263.4 309.8 -252.2C330.6 -241.8 341 -227.4 341 -209C341 -201 338.2 -194.2 332.6 -188.6C327 -183.8 319.8 -181.4 311 -181.4C302.2 -181.4 289.4 -192.6 272.6 -215C255.8 -237.4 247.4 -251.8 247.4 -258.2C247.4 -265.4 250.6 -269 257 -269Z" fill="black"/>
</svg>
