<svg width="660" height="660" viewBox="0 0 660 660" fill="none" xmlns="http://www.w3.org/2000/svg">
<path d="M599.078 -238.225C611.086 -250.428 621.16 -263.277 629.298 -276.771C638.23 -290.165 643.243 -301.229 644.335 -309.961C646.321 -319.387 647.711 -327.275 648.506 -333.626C650.194 -347.121 656.595 -353.173 667.709 -351.782C678.822 -350.391 691.77 -344.337 706.554 -333.618C722.131 -322.801 729.423 -313.423 728.43 -305.485C727.437 -297.547 720.192 -291.197 706.697 -286.436C702.43 -284.551 693.102 -277.656 678.712 -265.75C664.323 -253.845 652.612 -244.023 643.582 -236.284C635.444 -229.24 626.116 -222.345 615.597 -215.599C638.812 -182.057 656.521 -156.057 668.723 -137.599C698.295 -154.861 721.517 -172.917 738.388 -191.768C756.053 -210.52 766.176 -226.991 768.758 -241.18C771.439 -256.163 778.733 -262.909 790.64 -261.42C802.548 -259.93 817.232 -251.642 834.694 -236.557C852.256 -222.266 860.59 -211.549 859.696 -204.404C858.802 -197.26 852.55 -192.399 840.94 -189.82C830.223 -187.936 815.437 -182.53 796.583 -173.602L683.457 -120.034C713.418 -82.4224 747.102 -48.7799 784.507 -19.1061C822.706 10.6671 871.919 39.3998 932.147 67.092C945.145 72.7496 951.346 77.9599 950.75 82.7228C950.154 87.4856 946.929 90.7101 941.074 92.3962C935.22 94.0824 914.58 94.7247 879.156 94.3233C844.625 93.2274 818.627 91.5869 801.164 89.4016C784.494 87.3157 771.198 84.0396 761.275 79.573C752.246 74.412 744.259 67.3659 737.315 58.4344C730.37 49.5031 713.852 23.6521 687.76 -19.1184C661.768 -62.6827 635.181 -107.934 607.998 -154.872C581.709 -202.505 557.849 -234.112 536.417 -249.693C526.992 -258.129 522.577 -264.728 523.173 -269.491C523.769 -274.254 526.647 -277.925 531.807 -280.504C536.967 -283.083 542.326 -284.025 547.882 -283.33C562.171 -281.542 579.236 -266.507 599.078 -238.225ZM503.076 -244.19C502.579 -240.221 497.965 -235.558 489.232 -230.201C480.499 -224.844 472.659 -216.956 465.712 -206.538C458.864 -196.914 447.699 -178.558 432.216 -151.471C377.33 -47.8842 321.158 20.8735 263.701 54.8021C207.037 88.8301 172.752 105.099 160.845 103.609C157.67 103.212 156.281 101.426 156.678 98.2503C157.075 95.0751 160.797 91.1064 167.843 86.3444C236.713 38.5253 291.642 -17.0848 332.632 -80.4862C374.415 -143.788 397.293 -191.315 401.266 -223.068C402.656 -234.181 399.779 -240.185 392.635 -241.079C390.254 -241.377 383.308 -240.633 371.797 -238.849C361.18 -237.759 350.711 -237.859 340.392 -239.15C330.072 -240.442 319.306 -244.611 308.094 -251.657C296.883 -258.704 291.575 -264.609 292.171 -269.371C292.866 -274.928 299.217 -277.358 311.223 -276.662C350.418 -274.177 382.916 -279.382 408.717 -292.278C416.457 -296.147 424.693 -297.535 433.425 -296.443C442.157 -295.35 456.147 -287.956 475.395 -274.26C494.743 -261.358 503.97 -251.335 503.076 -244.19ZM263.879 -178.582C278.168 -176.794 294.936 -169.052 314.185 -155.356C333.533 -142.454 342.064 -126.874 339.78 -108.616C338.786 -100.678 335.164 -94.2785 328.912 -89.4172C322.759 -85.3496 315.317 -83.8622 306.585 -84.9548C297.853 -86.0474 286.543 -98.75 272.654 -123.063C258.765 -147.375 252.218 -162.707 253.013 -169.057C253.906 -176.201 257.529 -179.376 263.879 -178.582Z" fill="black"/>
</svg>
