<svg width="660" height="660" viewBox="0 0 660 660" fill="none" xmlns="http://www.w3.org/2000/svg">
<path d="M533 26.3C647.6 14.9 892.4 7.40002 907.4 3.80005C929 -0.399963 949.4 -2.5 968.6 -2.5C1008.2 -2.5 1037.3 5.30002 1055.9 20.9C1074.5 35.9 1083.8 57.9 1083.8 66.9C1083.8 75.3 1072.7 79.5 1050.5 79.5C1028.3 79.5 1001 76.8 968.6 71.4C936.8 66 809 63.6 765.2 64.2C721.4 64.2 583.4 65.7 531.2 68.7L526.7 319.5C525.5 353.7 524.6 658.2 524 693C523.4 727.2 521.3 898.4 517.7 926.6C514.7 955.4 510.5 974.9 505.1 985.1C500.3 995.9 496.4 1003.1 493.4 1006.7C490.4 1010.3 487.4 1012.1 484.4 1012.1C482 1012.1 479.6 1008.5 477.2 1001.3C475.4 994.1 473.6 977.6 471.8 951.8C470 926.6 469.1 902.9 469.1 880.7C469.1 858.5 469.7 701.7 470.9 690.3C475.7 647.1 478.4 161.1 479 72.3C357.2 82.5 122.6 94.2 75.2 107.4C48.2 114.6 29 118.2 17.6 118.2C6.8 118.2 -7 113.1 -23.8 102.9C-40.6 92.7 -49 75.2 -49 70.4C-49 65.6 -47.5 62.9 -44.5 62.3C-40.9 61.1 -31.6 60.5 -16.6 60.5C13.4 60.5 278.6 50.9 479 31.7C479 -27.7 475.1 -44.3 467.3 -58.1C445.1 -53.9 363.8 -51.5 343.4 -50.9C342.2 -34.1 337.7 -25.7 329.9 -25.7C317.85 -25.7 312.433 -84.5995 311.1 -92.3C305.7 -124.1 297.6 -158.3 286.8 -194.9C276.6 -231.5 266.7 -255.5 257.1 -266.9C248.1 -278.3 243.6 -286.4 243.6 -291.2C243.6 -296.6 253.7 -299.3 263.9 -299.3C274.7 -299.3 284.1 -297.5 302.1 -293.9C411.9 -305.9 532.7 -314 564.5 -318.2C676.9 -322.4 679.7 -326.6 692.9 -330.8C706.7 -335.6 716 -338 720.8 -338C732.2 -338 740.8 -327.5 766.6 -306.5C792.4 -285.5 805.3 -271.1 805.3 -263.3C805.3 -256.1 800.8 -248.9 791.8 -241.7C776.2 -229.1 769.3 -196.1 747.1 -142.7C739.3 -124.1 730.7 -105.2 719.3 -86C707.9 -67.4 698.8 -56 694 -51.8C689.2 -48.2 684.1 -46.4 678.7 -46.4C673.3 -46.4 667.6 -49.7 661.6 -56.3C656.2 -62.9 581.6 -66.2 561.8 -66.2C542.6 -66.2 518.3 -64.1 488.9 -59.9C506.3 -50.9 519.2 -42.8 527.6 -35.6C536.6 -29 541.1 -22.1 541.1 -14.9C541.1 -2.90677 533.472 10.7218 533 26.3ZM343.4 -83.4C442.4 -96 564.2 -102.3 588.8 -102.3C675.4 -102.3 680.5 -104.7 684.1 -109.5C687.7 -114.3 694 -118.4 703 -141.8C712.6 -165.2 720.1 -189.2 725.5 -213.8C731.5 -238.4 734.5 -235.8 734.5 -246C734.5 -256.8 730.6 -264 722.8 -267.6C715.6 -271.8 703 -273.9 685 -273.9C667.6 -273.9 555.2 -271.5 507.8 -266.7C460.4 -262.5 355.7 -257.4 313.7 -251.4C321.5 -211.8 327.2 -199.1 330.8 -173.3C418.4 -195.5 609.1 -206.6 622.9 -206.6C637.3 -206.6 648.1 -204.8 655.3 -201.2C662.5 -198.2 666.1 -194.6 666.1 -190.4C666.1 -181.4 648.7 -173.6 613.9 -167C579.1 -161 469.7 -148 445.7 -148C421.7 -148 344 -148.6 332.6 -149.8C336.8 -121.6 340.4 -112.8 343.4 -83.4Z" fill="black"/>
</svg>
