<svg width="660" height="660" viewBox="0 0 660 660" fill="none" xmlns="http://www.w3.org/2000/svg">
<path fill-rule="evenodd" clip-rule="evenodd" d="M325.687 -93.673C403.049 -98.1005 486.246 -102.862 535.5 -107.957C535.5 -100.919 536.623 -94.2119 537.815 -87.0909C539.163 -79.0345 540.6 -70.4488 540.6 -60.257C544.634 -43.5431 545.439 -16.0337 546.56 22.2713C546.606 23.8437 546.653 25.4342 546.7 27.0429C548.5 67.8429 549.4 106.843 549.4 144.043C549.4 180.643 547.6 248.143 544 286.543C541 324.343 536.8 377.143 531.4 384.943C526.6 392.143 517.3 395.743 503.5 395.743C495.459 395.743 484.301 394.073 470.027 390.734C473.469 354.363 476.327 313.952 478.6 269.502C480.546 235.442 482.295 224.004 483.847 213.858L483.848 213.851C484.209 211.488 484.56 209.195 484.9 206.702C487.3 192.902 490.6 183.302 494.8 177.902C503.8 166.502 508.3 156.302 508.3 147.302C508.3 138.302 495.4 125.702 469.6 109.502C443.8 93.3016 424.9 85.2016 412.9 85.2016C401.5 85.2016 389.2 88.5016 376 95.1016C373.148 96.2422 357.512 98.7382 333.385 102.589L333.384 102.59L333.383 102.59C306.745 106.842 269.758 112.746 228.2 120.302C220.881 121.633 213.207 122.902 205.289 124.11C222.13 99.2281 239.2 80.7587 256.5 68.7016C265.5 62.1015 270 54.6015 270 46.2016C270 37.2016 259.5 25.2014 238.5 10.2014C274.165 5.87836 273.635 6.09778 271.543 6.96333C270.151 7.53935 268.068 8.4015 275.5 8.4015C294.1 7.80151 307.6 5.10149 316 0.301468C325 -4.49854 329.5 -10.1985 329.5 -16.7985C329.5 -23.9985 324.4 -29.9986 314.2 -34.7986C304 -39.5985 289.3 -41.9985 270.1 -41.9985C251.288 -41.9985 242.364 -39.1186 224.516 -33.3587L223.4 -32.9985C162.453 -12.6831 138.041 -11.7519 78.8347 -9.49341L78.8127 -9.49258C73.9557 -9.3073 68.8646 -9.11308 63.5 -8.89848C48.5 -8.29849 41 -5.59851 41 -0.798508C41 4.00146 44 7.70168 56 14.7015C60.0712 16.3494 63.1277 18.0612 65.9781 19.6576L65.9783 19.6577C77.8308 26.296 86.122 30.9396 149 20.7017C160.816 19.7418 167.996 18.9998 185.925 17.1469L185.927 17.1466L185.929 17.1465C192.277 16.4904 199.973 15.6951 209.7 14.7015C211.909 37.8919 199.89 75.8181 173.643 128.48C102.306 137.428 23.5998 141.902 6.10001 141.902C-2.89998 141.902 -10.7 141.002 -17.3 139.202C-29.0001 141.902 -29 154.502 -29 154.502C-6.8 167.102 13.6 173.402 32.2001 173.402C51.4001 173.402 72.4001 170.701 95.2001 165.301C108.053 162.335 144.108 159.369 180.163 156.403H180.164C209.749 153.969 239.333 151.536 256.1 149.102C293.9 143.102 343 140.102 363.4 140.102C384.4 140.102 398.2 142.502 404.8 147.302C412 151.502 417.4 164.402 421 186.002C424.6 207.602 426.4 220.602 426.4 265.002C426.4 302.008 424.473 340.299 420.618 379.875C418.873 380.383 418 381.472 418 383.143C418 384.047 418.639 385.292 419.917 386.878C419.408 391.833 418.869 396.807 418.3 401.801C412.9 449.201 406 486.101 397.6 512.501C389.2 538.301 380.5 556.001 371.5 565.602C362.5 575.201 351.7 580.001 339.1 580.001C326.5 580.001 305.8 574.601 277 563.801C271 561.401 265.9 560.201 261.7 560.201C258.1 560.201 256.3 561.701 256.3 564.701C256.3 567.701 259.6 572.501 266.2 579.102C273.4 585.701 282.4 597.701 293.2 615.102C304.6 632.501 313 647.501 318.4 660.102C324.4 673.302 332.2 679.902 341.8 679.902C355.6 679.902 374.5 667.601 398.5 643.001C423.1 619.001 441.1 577.302 452.5 517.902C457.468 493.062 461.87 464.314 465.707 431.658C467.745 433.985 469.842 436.413 472 438.943C490 459.343 503.2 475.543 511.6 487.543C520.6 500.143 528.1 506.443 534.1 506.443C540.1 506.443 545.5 504.343 550.3 500.143C555.7 495.943 563.5 484.543 573.7 465.943C584.5 447.943 591.4 430.843 594.4 414.643C597.4 398.443 598.9 344.143 598.9 311.743C598.9 279.343 598 218.443 596.2 189.043C594.4 159.643 593.5 132.343 593.5 107.143C593.5 90.4017 593.689 73.9678 593.877 57.7116C594.534 0.664825 595.166 -54.1926 587.5 -112.457C617.679 -115.071 630.811 -114.459 649.096 -113.607C660.444 -113.078 673.776 -112.457 694.4 -112.457C725 -112.457 740.3 -117.857 740.3 -128.657C740.3 -137.057 730.1 -147.557 709.7 -160.157C691.114 -172.183 667.796 -172.091 639.747 -171.979C637.01 -171.968 634.228 -171.957 631.4 -171.957C569.407 -171.957 531.497 -164.34 488.783 -155.757C460.678 -150.11 430.493 -144.045 390 -139.457C268.8 -125.657 112.4 -118.457 60.8 -117.857C41.6 -117.257 32 -114.857 32 -110.657C32 -107.057 39.8 -99.8571 55.4 -89.0571C71.6 -78.8571 86.6 -73.7572 100.4 -73.7572C114.2 -73.7572 128.6 -75.8571 143.6 -80.0571C143.708 -80.0847 143.819 -80.1123 143.933 -80.14C145.165 -74.3131 147.023 -69.7268 149.509 -66.3811C153.675 -60.7734 160.199 -56.4986 169.08 -53.5567C177.477 -50.5901 188.497 -48.4849 202.142 -47.2412C215.327 -45.489 224.58 -44.7487 229.902 -45.0203C235.223 -45.2919 237.785 -47.3628 237.587 -51.2329C237.268 -57.4918 227.967 -69.2982 209.684 -86.6523C242.129 -88.891 283.021 -91.2312 325.687 -93.673ZM117.31 101.754C96.3776 103.439 85.4779 98.8992 84.6112 88.134C83.7928 77.9669 93.1416 66.9813 112.657 55.1772C132.221 43.9712 146.489 38.0071 155.46 37.2849C164.431 36.5627 169.157 39.192 169.638 45.1726C170.168 51.7513 165.604 62.3518 155.946 76.9739C146.336 92.1942 133.458 100.454 117.31 101.754Z" fill="black"/>
</svg>
