<svg width="660" height="660" viewBox="0 0 660 660" fill="none" xmlns="http://www.w3.org/2000/svg">
<path d="M465.5 114C361.1 124.8 144.2 134.1 113.6 141.9C98.6 146.1 84.2 148.2 70.4 148.2C56.6 148.2 41.6 143.1 25.4 132.9C9.79996 122.1 2 114.9 2 111.3C2 107.1 11.6 104.7 30.8 104.1C82.4 103.5 178.8 96.3 300 82.5C402.034 70.9394 458.616 50 561.4 50C593.2 50 608.3 48.6 638.7 61.8C659.1 74.4 669.3 84.8999 669.3 93.2999C669.3 104.1 654 109.5 623.4 109.5C569.546 109.5 566.408 105.264 517.5 109.5C527.351 184.368 523.5 253.61 523.5 329.1C523.5 354.3 524.4 381.6 526.2 411C528 440.4 528.9 501.3 528.9 533.7C528.9 566.1 527.4 620.4 524.4 636.6C521.4 652.8 514.5 669.9 503.7 687.9C493.5 706.5 485.7 717.9 480.3 722.1C475.5 726.3 470.1 728.4 464.1 728.4C458.1 728.4 450.6 722.1 441.6 709.5C433.2 697.5 420 681.3 402 660.9C384.6 640.5 371.1 626.7 361.5 619.5C352.5 612.3 348 607.5 348 605.1C348 602.7 349.8 601.5 353.4 601.5C357.6 601.5 362.7 602.4 368.7 604.2C398.7 613.2 420.3 617.7 433.5 617.7C447.3 617.7 456.6 614.1 461.4 606.9C466.8 599.1 471 546.3 474 508.5C477.6 470.1 479.4 402.6 479.4 366C479.4 328.8 478.5 289.8 476.7 249C475.5 208.2 474.8 179.1 470.6 161.7C470.6 142.5 465.5 129 465.5 114Z" fill="black"/>
</svg>
