<svg width="660" height="660" viewBox="0 0 660 660" fill="none" xmlns="http://www.w3.org/2000/svg">
<path fill-rule="evenodd" clip-rule="evenodd" d="M613.128 -264.042C680.364 -267.331 689.994 -270.619 699.624 -273.908C700.69 -274.272 701.756 -274.636 702.9 -275C728.659 -283.96 731.663 -279.859 739.324 -269.404C743 -264.386 747.749 -257.904 756.6 -250.7C782.4 -229.7 795.3 -215.3 795.3 -207.5C795.3 -200.3 790.8 -193.1 781.8 -185.9C776.621 -181.717 773.503 -181.898 770.836 -182.054C765.47 -182.366 761.93 -182.572 747.1 -146.9C739.3 -128.3 730.7 -109.4 719.3 -90.2C707.9 -71.6 698.8 -60.2 694 -56C689.2 -52.4 684.1 -50.6 678.7 -50.6C673.3 -50.6 667.6 -53.9 661.6 -60.5C656.2 -67.1 581.6 -70.4 561.8 -70.4C542.6 -70.4 518.3 -68.3 488.9 -64.1C506.3 -55.1 519.2 -47 527.6 -39.8C536.6 -33.2 541.1 -26.3 541.1 -19.1C541.1 -13.3282 539.333 -7.17771 537.448 -0.613411C535.415 6.46233 533.245 14.0189 533 22.1C600.548 15.3806 713.331 10.0161 797.627 6.00652C856.345 3.21359 901.241 1.07809 907.4 -0.399971C929 -4.59998 949.4 -6.70002 968.6 -6.70002C1008.2 -6.70002 1037.3 1.1 1055.9 16.7C1074.5 31.7 1083.8 53.7 1083.8 62.7C1083.8 71.1 1072.7 75.3 1050.5 75.3C1028.3 75.3 1001 72.6 968.6 67.2C936.8 61.8 809 59.4 765.2 60.0001C721.4 60.0001 583.4 61.5 531.2 64.5L526.7 315.3C525.969 336.133 525.349 457.271 524.841 556.644C524.515 620.401 524.234 675.199 524 688.8C523.918 693.485 523.807 700.742 523.669 709.849C522.797 767.223 520.807 898.063 517.7 922.4C514.7 951.2 510.5 970.7 505.1 980.9C500.3 991.7 496.4 998.9 493.4 1002.5C490.4 1006.1 487.4 1007.9 484.4 1007.9C482 1007.9 479.6 1004.3 477.2 997.1C475.4 989.9 473.6 973.4 471.8 947.6C470 922.4 469.1 898.7 469.1 876.5C469.1 854.3 469.7 697.5 470.9 686.1C475.315 646.37 477.953 232.112 478.815 96.748C478.89 84.9266 478.952 75.2322 479 68.1C442.118 71.1887 394.892 74.4149 345.653 77.7787C232.286 85.5233 108.247 93.9971 75.2 103.2C48.2 110.4 29 114 17.6 114C6.8 114 -7 108.9 -23.8 98.7C-40.6 88.5 -49 71 -49 66.2C-49 61.4 -47.5 58.7 -44.5 58.1C-40.9 56.9 -31.6 56.3 -16.6 56.3C13.4 56.3 278.6 46.7 479 27.5C479 -31.9 475.1 -48.5 467.3 -62.3C445.1 -58.1 363.8 -55.7 343.4 -55.1C342.2 -38.3 337.7 -29.9 329.9 -29.9C319.614 -29.9 314.161 -72.8178 311.956 -90.1724C311.578 -93.1484 311.295 -95.3727 311.1 -96.4999C306.77 -121.999 305.205 -127.18 299.186 -147.102C297.699 -152.025 295.94 -157.848 293.8 -165.1C285.995 -193.105 280.123 -198.511 273.494 -204.612C271.46 -206.485 269.354 -208.423 267.1 -211.1C258.1 -222.5 253.6 -230.6 253.6 -235.4C253.6 -240.8 263.7 -243.5 273.9 -243.5C284.7 -243.5 294.1 -241.7 312.1 -238.1C347.802 -242.002 384.667 -245.491 419.257 -248.569C427.244 -254.393 434.338 -260.878 439.923 -268.218C449.523 -280.752 457.39 -294.618 463.523 -309.818C469.656 -325.285 473.523 -341.952 475.123 -359.818C468.723 -358.485 462.456 -357.285 456.323 -356.218C450.456 -355.152 445.256 -353.952 440.723 -352.618C432.99 -350.485 426.723 -348.885 421.923 -347.818C417.123 -347.018 413.123 -346.752 409.923 -347.018C406.723 -347.285 403.923 -347.952 401.523 -349.018C399.39 -350.352 396.723 -352.218 393.523 -354.618C388.99 -358.085 385.656 -360.885 383.523 -363.018C381.39 -365.152 380.456 -366.752 380.723 -367.818C381.256 -369.152 382.99 -370.085 385.923 -370.618C388.856 -371.418 393.256 -372.085 399.123 -372.618C409.256 -373.418 421.123 -374.618 434.723 -376.218C448.323 -378.085 462.19 -380.218 476.323 -382.618C476.323 -383.149 476.324 -383.691 476.324 -384.243C476.335 -394.497 476.35 -408.297 472.723 -424.618C471.656 -429.418 470.19 -433.285 468.323 -436.218C463.523 -443.418 460.19 -449.152 458.323 -453.418C456.723 -457.685 456.856 -460.618 458.723 -462.218C460.856 -464.085 464.99 -464.485 471.123 -463.418C477.523 -462.618 486.59 -460.618 498.323 -457.418C506.323 -455.285 512.456 -453.018 516.723 -450.618C521.256 -448.485 524.323 -446.085 525.923 -443.418C527.523 -440.752 527.923 -437.685 527.123 -434.218C526.323 -431.018 524.856 -427.018 522.723 -422.218C513.46 -403.692 513.793 -398.553 514.169 -392.75C514.245 -391.572 514.323 -390.367 514.323 -389.018C525.523 -391.152 535.39 -393.152 543.923 -395.018C552.723 -397.152 559.39 -399.018 563.923 -400.618C572.99 -403.818 580.723 -406.085 587.123 -407.418C593.523 -409.018 599.123 -409.685 603.923 -409.418C608.723 -409.152 612.99 -408.218 616.723 -406.618C620.723 -405.018 624.59 -402.885 628.323 -400.218C640.856 -391.152 645.656 -384.485 642.723 -380.218C639.79 -375.952 629.123 -373.552 610.723 -373.018C597.39 -372.752 582.056 -371.952 564.723 -370.618C547.39 -369.285 529.923 -367.552 512.323 -365.418C512.323 -362.485 512.19 -359.818 511.923 -357.418L511.123 -350.218C533.805 -317.986 553.643 -303.212 582.523 -282.418C592.43 -275.483 602.632 -269.358 613.128 -264.042ZM544.605 -259.327C538.625 -266.479 532.974 -273.756 528.123 -281.218C523.078 -289.316 520.396 -292.672 517.363 -296.469C514.303 -300.298 510.885 -304.575 504.323 -314.618C500.323 -299.418 494.99 -285.685 488.323 -273.418C484.606 -266.294 480.214 -259.619 475.148 -253.395C481.311 -253.915 487.307 -254.419 493.107 -254.907C512.904 -256.571 530.431 -258.045 544.605 -259.327ZM331.385 -196.607C334.316 -194.546 341.629 -194.95 353.323 -197.818C355.913 -198.448 358.551 -199.037 361.211 -199.601C387.362 -201.865 419.277 -203.981 448.962 -205.95C475.646 -207.719 500.527 -209.369 517.8 -210.9C535.235 -212.666 561.463 -214.106 588.523 -215.222C590.864 -214.58 593.397 -214.179 596.123 -214.018C617.05 -211.693 637.146 -214.311 657.456 -217.439C675.727 -217.88 689.727 -218.1 695 -218.1C719.3 -218.1 730.8 -211.1 725.5 -198C722.208 -183.003 718.135 -175.662 713.283 -166.914C710.175 -161.313 706.748 -155.135 703 -146C695.696 -127.008 690.17 -120.73 686.422 -116.472C685.552 -115.484 684.778 -114.604 684.1 -113.7C680.5 -108.9 675.4 -106.5 588.8 -106.5C564.2 -106.5 442.4 -100.2 343.4 -87.6C340 -101.2 336 -118.7 333.6 -130C339.668 -129.361 364.523 -130.876 390.065 -132.433C412.505 -133.8 435.476 -135.2 446.7 -135.2C470.7 -135.2 580.1 -141.2 614.9 -147.2C649.7 -153.8 667.1 -161.6 667.1 -170.6C667.1 -174.8 663.5 -178.4 656.3 -181.4C649.1 -185 638.3 -186.8 623.9 -186.8C610.1 -186.8 419.4 -175.7 331.8 -153.5C330.827 -158.784 330.494 -160.696 330.146 -162.606C329.493 -166.19 328.789 -169.765 323.7 -195.6C326.069 -195.938 328.638 -196.274 331.385 -196.607Z" fill="black"/>
</svg>
