<svg width="660" height="660" viewBox="0 0 660 660" fill="none" xmlns="http://www.w3.org/2000/svg">
<path fill-rule="evenodd" clip-rule="evenodd" d="M608.602 -263.825C679.94 -267.186 689.782 -270.547 699.624 -273.908C700.69 -274.272 701.756 -274.636 702.9 -275C728.659 -283.96 731.663 -279.859 739.324 -269.404C743 -264.386 747.749 -257.904 756.6 -250.7C782.4 -229.7 795.3 -215.3 795.3 -207.5C795.3 -200.3 790.8 -193.1 781.8 -185.9C776.621 -181.717 773.503 -181.898 770.836 -182.054C765.47 -182.366 761.93 -182.572 747.1 -146.9C739.3 -128.3 730.7 -109.4 719.3 -90.2C707.9 -71.6 698.8 -60.2 694 -56C689.2 -52.4 684.1 -50.6 678.7 -50.6C673.3 -50.6 667.6 -53.9 661.6 -60.5C656.2 -67.1 581.6 -70.4 561.8 -70.4C542.6 -70.4 518.3 -68.3 488.9 -64.1C506.3 -55.1 519.2 -47 527.6 -39.8C536.6 -33.2 541.1 -26.3 541.1 -19.1C541.1 -13.3282 539.333 -7.1777 537.448 -0.613402C535.415 6.46231 533.245 14.0188 533 22.1C600.548 15.3806 713.331 10.0161 797.627 6.0065C856.345 3.21359 901.241 1.0781 907.4 -0.399962C929 -4.59997 949.4 -6.70001 968.6 -6.70001C1008.2 -6.70001 1037.3 1.10001 1055.9 16.7C1074.5 31.7 1083.8 53.7 1083.8 62.7C1083.8 71.1 1072.7 75.3001 1050.5 75.3001C1028.3 75.3001 1001 72.6 968.6 67.2C936.8 61.8 809 59.4 765.2 60C721.4 60 583.4 61.5 531.2 64.5L526.7 315.3C525.969 336.133 525.349 457.271 524.841 556.644C524.515 620.401 524.234 675.199 524 688.8C523.918 693.485 523.807 700.742 523.669 709.849C522.797 767.223 520.807 898.063 517.7 922.4C514.7 951.2 510.5 970.7 505.1 980.9C500.3 991.7 496.4 998.9 493.4 1002.5C490.4 1006.1 487.4 1007.9 484.4 1007.9C482 1007.9 479.6 1004.3 477.2 997.1C475.4 989.9 473.6 973.4 471.8 947.6C470 922.4 469.1 898.7 469.1 876.5C469.1 854.3 469.7 697.5 470.9 686.1C475.315 646.37 477.953 232.111 478.815 96.7479C478.89 84.9265 478.952 75.2321 479 68.1C442.118 71.1887 394.892 74.4149 345.654 77.7786C232.287 85.5233 108.247 93.9971 75.2 103.2C48.2 110.4 29 114 17.6 114C6.8 114 -7 108.9 -23.8 98.7C-40.6 88.5 -49 71 -49 66.2C-49 61.4 -47.5 58.7 -44.5 58.1C-40.9 56.9 -31.6 56.3001 -16.6 56.3001C13.4 56.3001 278.6 46.7 479 27.5C479 -31.9 475.1 -48.5 467.3 -62.3C445.1 -58.1 363.8 -55.7 343.4 -55.1C342.2 -38.3 337.7 -29.9 329.9 -29.9C319.614 -29.9 314.161 -72.8178 311.956 -90.1724C311.578 -93.1484 311.295 -95.3727 311.1 -96.5C306.77 -121.999 305.205 -127.18 299.186 -147.102C297.699 -152.025 295.94 -157.848 293.8 -165.1C285.995 -193.105 280.123 -198.511 273.494 -204.612C271.46 -206.485 269.354 -208.423 267.1 -211.1C258.1 -222.5 253.6 -230.6 253.6 -235.4C253.6 -240.8 263.7 -243.5 273.9 -243.5C284.7 -243.5 294.1 -241.7 312.1 -238.1C320.667 -239.036 329.3 -239.949 337.953 -240.837C338.048 -240.919 338.144 -241.001 338.241 -241.083C357.428 -257.589 372.751 -277.096 384.21 -299.605C395.669 -322.114 402.998 -347.623 406.196 -376.134C406.995 -384.495 407.528 -391.247 407.795 -396.392C408.328 -401.751 408.328 -406.146 407.795 -409.575C407.528 -413.005 406.729 -415.899 405.396 -418.257C404.33 -420.615 402.865 -423.188 400.999 -425.975C397.801 -430.262 396.069 -433.799 395.802 -436.586C395.536 -439.373 397.135 -441.087 400.599 -441.731C404.33 -442.374 410.326 -441.838 418.587 -440.123C426.849 -438.622 437.908 -435.728 451.766 -431.441C463.758 -434.871 474.95 -438.301 485.343 -441.731C496.003 -445.16 505.197 -448.483 512.925 -451.699C520.653 -455.129 526.916 -458.344 531.713 -461.345C536.509 -464.561 539.308 -467.562 540.107 -470.349C541.173 -473.778 542.505 -476.351 544.104 -478.066C545.97 -479.995 548.502 -480.96 551.699 -480.96C554.897 -481.174 559.028 -480.531 564.091 -479.03C569.421 -477.53 576.083 -475.172 584.078 -471.956C593.139 -468.098 599.801 -464.561 604.065 -461.345C608.595 -458.13 611.127 -455.236 611.66 -452.663C612.459 -450.305 611.393 -448.269 608.462 -446.554C605.797 -445.053 601.933 -444.196 596.87 -443.981C591.273 -443.553 585.544 -442.802 579.681 -441.731C573.818 -440.873 568.488 -439.908 563.691 -438.837C545.837 -434.549 527.449 -430.369 508.528 -426.296C489.607 -422.438 470.953 -418.793 452.565 -415.363C451.499 -409.147 450.433 -402.501 449.367 -395.427C448.301 -388.567 446.835 -379.564 444.97 -368.417C454.297 -369.703 463.758 -371.418 473.351 -373.562C483.211 -375.92 492.272 -378.278 500.533 -380.636C508.794 -382.994 515.99 -385.352 522.119 -387.71C528.248 -390.068 532.512 -392.105 534.91 -393.819C538.108 -395.963 540.907 -397.571 543.305 -398.643C545.703 -399.929 548.235 -400.572 550.9 -400.572C553.831 -400.572 557.162 -400.036 560.893 -398.964C564.624 -397.892 569.288 -396.285 574.884 -394.141C582.612 -391.14 588.475 -388.567 592.472 -386.424C596.47 -384.28 599.001 -382.244 600.067 -380.314C601.133 -378.385 600.867 -376.349 599.268 -374.205C597.669 -372.061 595.004 -369.596 591.273 -366.809C587.809 -364.022 584.344 -360.485 580.88 -356.198C577.682 -352.125 575.151 -347.838 573.285 -343.336C568.755 -332.403 564.224 -323.078 559.694 -315.361C555.164 -307.858 550.633 -300.998 546.103 -294.782C556.496 -287.922 566.889 -281.92 577.282 -276.775C587.466 -271.944 597.906 -267.627 608.602 -263.825ZM543.086 -259.19C542.758 -259.48 542.431 -259.768 542.106 -260.054C536.776 -264.985 531.579 -269.701 526.516 -274.203C518.158 -266.879 509.216 -260.632 499.688 -255.46C516.115 -256.842 530.804 -258.085 543.086 -259.19ZM417.824 -248.441C425.05 -250.49 431.701 -252.539 437.775 -254.588C446.302 -257.589 454.164 -260.912 461.359 -264.556C468.554 -268.415 475.35 -272.809 481.746 -277.74C488.408 -282.884 495.07 -288.994 501.732 -296.068C494.804 -301.856 488.941 -306.786 484.144 -310.859C479.347 -315.147 475.217 -318.684 471.752 -321.471C468.288 -324.472 465.357 -326.83 462.958 -328.545C460.56 -330.26 458.428 -331.653 456.562 -332.725C447.502 -337.655 443.105 -340.978 443.371 -342.693C443.638 -344.622 448.834 -346.016 458.961 -346.873C462.958 -347.087 466.689 -346.98 470.153 -346.551C473.618 -346.337 476.949 -345.587 480.147 -344.301C483.345 -343.014 486.676 -340.978 490.14 -338.191C493.604 -335.619 497.335 -332.296 501.333 -328.223C503.731 -325.865 506.13 -323.614 508.528 -321.471C511.193 -319.327 513.991 -317.183 516.922 -315.04C520.653 -321.899 524.251 -329.402 527.715 -337.548C531.18 -345.908 533.578 -353.304 534.91 -359.735C535.976 -364.022 535.577 -366.595 533.711 -367.452C532.112 -368.31 529.048 -368.095 524.517 -366.809C515.19 -364.237 507.062 -361.986 500.133 -360.057C493.205 -358.342 486.676 -356.948 480.546 -355.876C474.417 -355.019 468.288 -354.483 462.159 -354.269C456.296 -354.054 449.767 -354.162 442.572 -354.59C440.173 -341.085 436.576 -328.223 431.779 -316.004C426.982 -303.785 420.719 -292.317 412.991 -281.598C405.529 -271.094 396.335 -261.448 385.409 -252.659C381.968 -249.821 378.318 -247.084 374.46 -244.448C389.13 -245.848 403.663 -247.179 417.824 -248.441ZM588.8 -106.5C564.2 -106.5 442.4 -100.2 343.4 -87.6C340 -101.2 336 -118.7 333.6 -130C339.668 -129.361 364.523 -130.876 390.065 -132.433C412.505 -133.8 435.475 -135.2 446.7 -135.2C470.7 -135.2 580.1 -141.2 614.9 -147.2C649.7 -153.8 667.1 -161.6 667.1 -170.6C667.1 -174.8 663.5 -178.4 656.3 -181.4C649.1 -185 638.3 -186.8 623.9 -186.8C610.1 -186.8 419.4 -175.7 331.8 -153.5C330.827 -158.784 330.494 -160.696 330.146 -162.606C329.493 -166.19 328.789 -169.765 323.7 -195.6C350.395 -199.414 402.42 -202.864 448.962 -205.95C475.646 -207.72 500.527 -209.37 517.8 -210.9C565.2 -215.7 677.6 -218.1 695 -218.1C719.3 -218.1 730.8 -211.1 725.5 -198C722.208 -183.003 718.135 -175.662 713.283 -166.914C710.175 -161.313 706.748 -155.135 703 -146C695.696 -127.008 690.169 -120.73 686.422 -116.472C685.552 -115.484 684.778 -114.604 684.1 -113.7C680.5 -108.9 675.4 -106.5 588.8 -106.5Z" fill="black"/>
</svg>
