<svg width="660" height="660" viewBox="0 0 660 660" fill="none" xmlns="http://www.w3.org/2000/svg">
<path d="M133.161 119.6C139.761 121.4 147.561 122.3 156.561 122.3C178.761 122.3 259.461 115.1 338.661 100.7C417.861 86.3 460.461 77.9 466.461 75.5C479.661 68.9 491.961 65.6 503.361 65.6C515.361 65.6 534.261 73.7 560.061 89.9C585.861 106.1 598.761 118.7 598.761 127.7C598.761 136.7 594.261 146.9 585.261 158.3C581.061 163.7 577.761 173.3 575.361 187.1C573.561 200.3 571.461 227.9 569.061 269.9C563.661 375.5 554.961 438.3 542.961 498.3C531.561 557.7 513.561 599.4 488.961 623.4C464.961 648 446.061 660.3 432.261 660.3C422.661 660.3 414.861 653.7 408.861 640.5C403.461 627.9 395.061 612.9 383.661 595.5C372.861 578.1 363.861 566.1 356.661 559.5C350.061 552.9 346.761 548.1 346.761 545.1C346.761 542.1 348.561 540.6 352.161 540.6C356.361 540.6 361.461 541.8 367.461 544.2C396.261 555 421.961 570.4 434.561 570.4C447.161 570.4 457.961 565.6 466.961 556C475.961 546.4 490.661 520.7 499.061 494.9C507.461 468.5 512.361 429.6 517.761 382.2C523.161 334.8 525.861 309.2 525.861 265.4C525.861 221 525.061 188 521.461 166.4C517.861 144.8 507.461 127.9 500.261 123.7C493.661 118.9 474.861 114.5 453.861 114.5C433.461 114.5 404.361 117.5 366.561 123.5C329.361 128.9 269.061 134.3 245.661 139.7C222.861 145.1 201.861 147.8 182.661 147.8C164.061 147.8 143.661 147.5 121.461 134.9C101.061 154.7 76.7608 174.5 48.5608 194.3C20.3608 214.1 22.6608 224 15.4608 224C13.0608 224 11.8608 222.5 11.8608 219.5C11.8608 215.9 -3.93922 209.9 4.46078 201.5C48.5608 145.7 76.1608 119.6 121.761 45.2C121.161 41.6 120.861 38.3 120.861 35.3C120.861 25.1 125.661 20 135.261 20C144.861 20 160.161 25.4 181.161 36.2C202.161 47 212.661 56.9 212.661 65.9C212.661 71.9 207.561 79.1 197.361 87.5C177.361 100.7 163.361 100.7 133.161 119.6Z" fill="black"/>
</svg>
