<svg width="660" height="660" viewBox="0 0 660 660" fill="none" xmlns="http://www.w3.org/2000/svg">
<path d="M533.6 -145.4C578.4 -151.8 611.6 -161 633.2 -173C652.4 -183.4 667.2 -188.6 677.6 -188.6C688 -188.6 705.6 -179 730.4 -159.8C755.2 -140.6 767.6 -125.8 767.6 -115.4C767.6 -109 762.8 -104.2 753.2 -101C744.4 -97.8 729.6 -87 708.8 -68.6C688 -50.2 677.6 -37 677.6 -29C677.6 -21.8 679.6 -15 683.6 -8.59998C687.6 -2.19995 689.6 2.60007 689.6 5.80005C689.6 17.0001 670.8 23.4 633.2 25C595.6 25.8 560 29.4001 526.4 35.8C524 96.6 522.8 363.4 522.8 416.2L524 867.8C524 929.4 519.6 976.6 510.8 1009.4C502 1043 492 1059.8 480.8 1059.8C473.6 1059.8 465.6 1051 456.8 1033.4C480.8 681 474.509 292.228 486.8 41.8C486.8 41.8 470.5 41.8 444.8 47.8C424 50.2001 401.6 54.6 377.6 61C376 77.8 370 86.2001 359.6 86.2001C350 86.2001 341.6 74.6 334.4 51.4C315.2 -8.59998 292.4 -57 266 -93.8C262 -100.2 260 -105.8 260 -110.6C260 -116.2 265.2 -119 275.6 -119C286 -119 301.2 -116.2 321.2 -110.6C367.6 -113 424 -121.4 490.4 -135.8V-171C449.6 -163 417.2 -159 393.2 -159C369.2 -159 352.4 -161.8 342.8 -167.4C333.2 -173 328.4 -178.2 328.4 -183C328.4 -188.6 335.6 -192.6 350 -195C397.2 -203.8 444 -214.6 490.4 -227.4C488 -285.5 479.2 -336.2 466.4 -349.8C454.4 -364.2 448.4 -375.8 448.4 -384.6C448.4 -394.2 455.2 -399 468.8 -399C483.2 -399 503.6 -392.6 530 -379.8C557.2 -367.8 570.8 -355.4 570.8 -342.6C570.8 -337.8 569.2 -330.6 566 -321C555.6 -298.6 543.2 -274.5 543.2 -243C592 -257.4 625.2 -264.6 642.8 -264.6C660.4 -264.6 674 -261.8 683.6 -256.2C694 -251.4 699.2 -244.6 699.2 -235.8C699.2 -227.8 691.2 -221 675.2 -215.4C659.2 -209.8 613.6 -198.2 538.4 -180.6C538.4 -173 534.4 -167.8 533.6 -145.4ZM527.6 2.20004C574 -6.59998 602.8 -14.2 614 -20.5999C625.2 -27 633.6 -41.4 639.2 -63.8C645.6 -86.2 648.8 -102.6 648.8 -113C648.8 -124.2 642.8 -129.8 630.8 -129.8C607.6 -129.8 574.4 -125.8 531.2 -117.8L527.6 2.20004ZM488 -116.6C423.2 -100.6 375.6 -91 345.2 -87.8C355.6 -67 365.6 -30.2 375.2 22.6C428 14.6 465.2 7.40005 486.8 1.00006C487.6 -18.9999 488 -58.2 488 -116.6Z" fill="black"/>
</svg>
