<svg width="660" height="660" viewBox="0 0 660 660" fill="none" xmlns="http://www.w3.org/2000/svg">
<path d="M120.1 79.3968C154.9 79.3968 205 73.9968 270.4 63.1968C336.4 52.3969 435.4 40.0969 507.4 26.2969C522.4 23.2969 537.7 21.7969 553.3 21.7969C568.9 21.7969 584.2 27.4969 599.2 38.8969C614.2 50.2969 621.7 59.5969 621.7 66.7968C621.7 79.9968 597.7 86.5968 549.7 86.5968C522.7 86.5968 484.3 88.3968 434.5 91.9968C385.3 94.9969 316 98.2969 286.6 101.897C227.8 110.297 189.7 114.497 172.3 114.497C155.5 114.497 144.1 114.197 138.1 113.597C133.9 223.397 119.8 385.397 95.8 479.597C71.8 633.197 31.6 703.997 -24.8 751.997C-80.6 799.997 -114.5 823.997 -126.5 823.997C-129.5 823.997 -131 822.797 -131 820.397C-131 814.397 -124.4 805.397 -111.2 793.397C-58.4 742.397 -20.3 691.697 3.10001 641.297C27.1 590.897 44.8 469.397 56.2 396.797C67.6 324.197 73.3 209.297 73.3 172.097C73.3 134.897 68.8 109.097 59.8 94.6968C50.8 79.6969 46.3 69.7969 46.3 64.9969C46.3 60.1968 50.8 57.7968 59.8 57.7968C68.8 57.7968 88.9 64.9968 120.1 79.3968Z" fill="black"/>
</svg>
