<svg width="660" height="660" viewBox="0 0 660 660" fill="none" xmlns="http://www.w3.org/2000/svg">
<path fill-rule="evenodd" clip-rule="evenodd" d="M258.399 159.792C252.488 164.491 246.708 168.889 241.059 172.985C229.248 181.377 217.546 188.713 205.953 194.993C203.493 196.326 201.273 197.523 199.262 198.599C200.412 198.661 201.63 198.776 202.914 198.943C210.738 199.921 221.169 202.529 234.207 206.767C283.34 201.986 310.216 197.314 336.47 192.75L336.47 192.75C342.439 191.712 348.376 190.68 354.536 189.654C384.08 184.73 390.791 180.449 396.494 176.812L396.495 176.812C397.21 176.356 397.909 175.91 398.635 175.474C403.524 172.54 407.599 170.421 410.859 169.118C414.444 167.814 418.356 167.651 422.594 168.629C426.831 169.281 431.721 171.236 437.262 174.496C440.866 176.298 445.085 178.715 449.919 181.747C444.445 177.088 437.724 170.984 434.176 166.327C422.368 150.977 403.882 137.548 385.729 124.359C368.111 111.56 350.807 98.989 340.224 85.111C323.56 101.613 307.288 116.609 299.602 123.681C296.401 126.626 293.593 129.253 291.022 131.659L291.021 131.66C286.475 135.913 282.665 139.477 278.718 142.897C275.646 145.558 272.605 148.146 269.597 150.659C271.834 150.078 274.399 149.552 277.292 149.083C288.375 147.453 298.968 145.334 309.073 142.727C319.178 140.119 328.142 137.348 335.965 134.415C342.811 131.807 348.352 129.851 352.59 128.547C357.153 127.243 361.065 126.428 364.325 126.102C367.91 125.776 371.007 125.939 373.615 126.591C376.548 127.243 379.808 128.221 383.394 129.525C396.432 134.415 401.974 139.956 400.018 146.149C398.388 152.343 388.772 157.069 371.17 160.329C352.916 163.914 338.247 166.685 327.165 168.641C316.082 170.271 307.118 171.412 300.272 172.064C293.427 172.39 288.048 172.227 284.137 171.575C280.225 170.923 276.477 169.945 272.891 168.641C264.31 165.691 259.48 162.742 258.399 159.792ZM465.395 192.104C468.297 193.179 471.476 193.941 474.933 194.392C482.756 195.37 496.354 196.022 508.741 194.392C517.646 193.25 541.756 188.536 541.756 175.323C541.756 169.635 525.02 165.011 510.201 160.917C501.925 158.631 494.247 156.51 490.416 154.461C486.778 152.515 482.635 150.441 478.255 148.248C465.759 141.991 451.332 134.768 441.195 126.803C418.523 108.45 387.136 81.4995 365.596 58.8133C377.862 45.3061 387.449 33.0739 389.708 25.7568C382.826 16.031 353.795 19.4839 337.055 29.7307C315.236 43.0855 302.621 59.2609 289.208 76.4595C281.986 85.7203 274.532 95.2777 265.286 104.851C244.346 126.453 223.535 144.965 202.853 160.387C182.569 175.655 160.112 189.173 135.481 200.942C130.396 203.357 126.148 205.673 122.738 207.892C119.725 209.957 118.146 211.693 118 213.1C118.095 214.64 119.901 215.631 123.418 216.074C127.092 216.23 133.236 215.883 141.849 215.032C148.788 214.378 155.643 213.306 162.413 211.816C167.74 210.45 171.056 209.842 173.642 209.368C177.477 208.666 179.702 208.258 184.49 206.109C184.043 208.258 184.154 210.922 184.823 214.101C195.4 261.698 194.521 297.012 177 322.438C177 330.261 179.934 338.736 185.801 347.863C188.595 352.37 190.679 356.203 192.397 359.364C196.892 367.635 198.884 371.298 204.544 370.355C212.693 369.377 218.561 359.109 222.146 339.551C222.798 335.64 223.613 330.261 224.591 323.416C224.22 315.415 223.766 307.732 223.336 300.446C220.932 259.733 219.258 231.399 236.815 229.258C243.765 228.411 253.006 227.563 262.247 226.716L262.247 226.716C270.778 225.934 279.308 225.151 286.036 224.369C300.378 222.739 314.395 221.272 328.085 219.968C334.956 219.169 336.904 218.449 338.64 217.806C340.445 217.138 342.021 216.555 348.668 216.057C356.579 215.285 367.32 214.57 377.202 213.913L377.203 213.913C384.017 213.459 390.423 213.033 395.212 212.634C404.339 211.982 411.51 211.819 416.726 212.145C422.267 212.145 426.342 213.612 428.95 216.546C431.883 219.153 433.839 223.391 434.817 229.258C438.729 249.899 439.269 284.568 436.284 297.501C435.306 301.739 433.513 304.836 430.906 306.791C428.624 308.421 425.201 309.236 420.638 309.236C416.109 308.913 409.454 306.085 403.218 303.436C395.354 300.096 388.158 297.038 386.737 299.643C384.171 304.348 386.925 318.587 391.79 324.883C397.331 332.38 401.895 341.507 405.48 352.264C409.066 362.695 414.444 367.422 421.615 366.444C429.113 365.466 439.055 357.316 451.441 341.996C456.005 336.455 459.591 331.239 462.198 326.35C465.132 321.46 467.251 315.918 468.555 309.725C469.859 303.532 470.51 296.524 470.51 288.7C470.844 283.823 471.11 277.576 471.398 270.844V270.843C471.955 257.812 472.59 242.959 473.933 232.681C477.193 228.117 479.638 224.206 481.267 220.946C482.897 217.361 483.223 213.938 482.245 210.678C481.267 207.093 478.986 203.67 475.4 200.41C472.874 197.884 469.539 195.116 465.395 192.104Z" fill="black"/>
</svg>
