<svg width="660" height="660" viewBox="0 0 660 660" fill="none" xmlns="http://www.w3.org/2000/svg">
<path d="M538.59 284.753C546.558 288.116 552.401 290.832 556.12 292.901C559.838 294.97 561.432 296.781 560.9 298.333C560.635 299.626 558.377 300.79 554.128 301.825C550.143 302.601 544.566 303.377 537.395 304.153C518.006 306.222 502.733 307.645 491.578 308.421C480.423 309.197 471.525 308.938 464.885 307.645C458.245 306.093 443.693 303.377 439.709 299.497C435.725 295.617 432.151 288.943 426.163 283.201C412.387 269.991 390.06 251.773 376.209 240.521C361.878 225.613 341.87 207.541 327.527 189.693C328.058 205.213 328.722 222.802 329.519 242.461C330.316 262.12 331.113 282.942 331.909 304.929C332.175 311.654 332.308 317.474 332.308 322.389C332.308 327.045 332.175 331.054 331.909 334.417C331.644 338.039 331.245 341.272 330.714 344.117C330.449 346.963 330.05 349.679 329.519 352.265C326.066 367.009 320.621 374.252 313.184 373.993C305.748 373.993 297.381 367.139 288.085 353.429C285.694 350.067 283.835 346.833 282.507 343.729C281.179 340.884 280.515 337.65 280.515 334.029C280.515 330.408 281.179 326.269 282.507 321.613C283.835 316.957 285.96 311.396 288.882 304.929C289.679 303.118 290.343 300.273 290.874 296.393C291.671 292.513 292.335 286.952 292.866 279.709C293.397 272.208 293.795 262.896 294.061 251.773C294.327 240.391 294.592 226.294 294.858 209.481C278.922 237.675 225.483 260.438 204.766 277.769C184.315 295.1 149.588 309.326 122.762 320.449C116.122 323.294 110.677 325.105 106.427 325.881C102.443 326.657 100.053 326.528 99.2561 325.493C98.4593 324.458 99.5217 322.389 102.443 319.285C105.365 316.181 110.411 312.172 117.583 307.257C145.471 287.857 178.926 265.353 206.182 240.521C233.438 215.689 267.633 189.434 278.523 162.533C273.211 163.309 269.36 164.085 266.969 164.861C259.267 166.93 252.893 168.482 247.846 169.517C242.8 170.551 238.417 171.069 234.699 171.069C231.246 171.069 228.059 170.551 225.137 169.517C222.215 168.223 218.895 166.413 215.177 164.085C205.881 158.394 201.498 154.643 202.03 152.832C202.561 151.022 207.209 149.728 215.974 148.952C226.863 147.918 239.214 146.366 253.025 144.296C267.102 142.227 281.312 139.77 295.655 136.924C295.655 123.991 295.389 112.868 294.858 103.556C294.592 94.2443 293.795 86.3549 292.467 79.8882C291.405 73.4215 290.077 68.1188 288.483 63.9801C286.89 59.8414 284.898 56.6081 282.507 54.2801C277.195 48.8481 273.477 44.3214 271.352 40.7C269.493 36.82 269.626 34.104 271.75 32.552C273.875 31 278.258 30.612 284.898 31.388C291.538 31.9053 300.834 33.716 312.786 36.82C320.223 38.8894 325.933 41.2174 329.917 43.804C334.167 46.1321 336.956 48.7187 338.284 51.5641C339.878 54.1508 340.276 56.9961 339.479 60.1001C338.682 63.2041 337.354 66.4375 335.495 69.8002C334.433 71.3522 333.503 73.5508 332.706 76.3962C332.175 78.9829 331.511 82.6042 330.714 87.2602C330.183 91.9162 329.652 97.7363 329.121 104.72C328.589 111.446 328.058 119.852 327.527 129.94C334.433 128.388 340.94 126.836 347.049 125.284C353.158 123.474 359.001 121.663 364.579 119.852C372.547 117.266 379.452 115.326 385.296 114.032C391.405 112.739 396.717 112.092 401.232 112.092C405.747 111.834 409.731 112.222 413.184 113.256C416.637 114.032 419.957 115.455 423.144 117.524C434.299 124.767 439.479 130.716 438.682 135.372C437.885 139.77 429.12 142.356 412.387 143.132C404.153 143.65 392.201 144.943 376.531 147.012C361.126 148.823 344.526 151.151 326.73 153.996V159.041C343.198 177.147 367.975 192.797 382.583 205.989C397.457 219.181 430.28 230.691 444.091 240.521C458.168 250.092 481.352 258.369 495.164 265.353C509.241 272.337 523.716 278.804 538.59 284.753Z" fill="black"/>
</svg>
