<svg width="660" height="660" viewBox="0 0 660 660" fill="none" xmlns="http://www.w3.org/2000/svg">
<path d="M174.8 92.6C242 92.6 313.3 77 354.1 69.2C394.9 61.4 421.3 53.9 433.3 46.7C445.9 38.9 457.3 35 467.5 35C478.3 35 497.5 42.5 525.1 57.5C552.7 71.9 566.5 84.2 566.5 94.4C566.5 101 559.6 107.9 545.8 115.1C532.6 122.3 537.6 125.8 520.8 145.6C509.56 158.847 508.1 178.723 508.1 194.7C508.1 206.7 493.7 213.9 464.9 216.3C389.9 221.7 307.7 227.1 278.3 232.5C249.5 237.3 226.1 239.7 208.1 239.7C190.1 239.7 174.8 238.8 162.2 237C143.6 338.4 118.4 443.7 86.6 492.9C55.4 542.7 19.7 578.7 -20.5 600.9C-60.1 623.7 -86.5 635.1 -99.7 635.1C-103.9 635.1 -106 633.6 -106 630.6C-106 623.4 -88.2 611.1 -60.6 593.7C-32.4 576.3 -0.899979 542.1 33.9 491.1C68.7 440.1 91.5 383.1 102.3 320.1C113.7 256.5 119.4 226.4 119.4 189.8C119.4 153.2 115.2 127.4 106.8 112.4C99 96.8 95.1 85.7 95.1 79.1C95.1 72.5 99.6 69.2 108.6 69.2C117.6 69.2 137 77 174.8 92.6ZM166.7 208.2C197.3 206.4 234.8 210.9 279.2 203.7C302.012 199.746 415.5 188.5 453.5 178.6C462.098 166.563 489.3 130.379 489.3 110.1C489.3 98.1 454.2 94.1 438 94.1C422.4 94.1 307 122.1 174.8 123.8C174.8 168.8 172.1 165.6 166.7 208.2Z" fill="black"/>
</svg>
