<svg width="660" height="660" viewBox="0 0 660 660" fill="none" xmlns="http://www.w3.org/2000/svg">
<path fill-rule="evenodd" clip-rule="evenodd" d="M376.4 14.4C376.4 21.6 365.6 26.7001 344 29.7001C322.4 32.7001 293 39.9001 255.8 51.3C218.6 62.7 182.6 71.7001 147.8 78.3C113 84.9001 89.8998 88.2001 78.4998 88.2001C67.6998 88.2001 62.2998 86.7001 62.2998 83.7001C62.2998 80.1001 67.0998 77.1 76.6998 74.7C127.7 60.3 173.6 43.8 214.4 25.2001C255.2 6.00007 276.8 -7.49992 279.2 -15.2999C281.6 -23.0999 286.1 -27 292.7 -27C299.9 -27 315.5 -21.5999 339.5 -10.7999C364.1 -0.599915 376.4 7.80004 376.4 14.4ZM70.3998 387.8V469.5C70.3998 500.1 73.9998 523.2 81.1998 538.8C88.3998 554.4 100.7 568.2 118.1 580.2C156.306 605.671 218.87 603.989 268.796 602.646H268.797H268.797H268.798C279.23 602.366 289.109 602.1 298.1 602.1L300.628 602.1L302.405 602.101C371.204 602.115 463.807 602.134 525.8 570.3C548 558.3 564.2 543.6 574.4 526.2C584.6 508.8 594.8 480.9 605 442.5C609.8 423.9 613.7 414.6 616.7 414.6C620.3 414.6 622.4 423.3 623 440.7C624.2 479.7 629.6 517.2 639.2 553.2C641.6 562.8 642.8 571.5 642.8 579.3C642.8 587.1 638.3 595.2 629.3 603.6C620.3 611.4 599.9 621.6 568.1 634.2C496.895 662.956 404.697 662.677 326.603 662.441H326.603H326.573H326.544H326.515C319.625 662.421 312.846 662.4 306.2 662.4C232.978 662.4 89.9644 661.629 49.6998 581.1C36.4998 554.7 29.8998 519 29.8998 474C29.8998 435.854 29.8998 393.8 23.4999 351.8C19.4352 340.114 19.7446 332.731 19.9348 328.192C19.9692 327.371 19.9998 326.643 19.9998 326C19.9998 321.2 32.3998 318.8 37.1998 318.8C42.6437 318.8 49.0536 322.706 61.8734 330.518C68.8348 334.76 77.6864 340.154 89.2998 346.7C100.572 346.945 113.175 347.617 126.472 348.326L126.474 348.326C171.706 350.737 224.969 353.577 261.2 341.5C272.6 337.9 279.8 333.7 282.8 328.9C284.608 326.188 286.463 323.443 288.339 320.665C306.236 294.173 326.1 264.769 326.1 233.8C326.1 221.8 320.4 215.8 309 215.8C303.312 215.8 289.079 219.406 272.146 223.697L272.146 223.697L272.145 223.697C256.93 227.553 239.534 231.96 224.2 234.8C191.8 240.8 169.6 245.6 157.6 249.2C142 252.8 125.8 254.6 109 254.6C92.7998 254.6 76.2998 250.1 59.4998 241.1C43.2998 232.1 35.1998 225.5 35.1998 221.3C35.1998 216.5 37.2998 213.8 41.4998 213.2C46.2998 212 55.8998 211.4 70.2998 211.4C108.7 211.4 154.6 206.9 208 197.9C261.4 188.9 294.7 179.3 307.9 169.1C321.7 158.9 333.1 153.8 342.1 153.8C351.1 153.8 367.9 162.2 392.5 179C417.7 195.2 430.3 207.8 430.3 216.8C430.3 225.2 422.5 232.7 406.9 239.3C372.76 252.431 349.5 272.005 349.5 309.1C349.5 318.7 349.5 324.8 351.2 331.6C359 337 362.9 342.4 362.9 347.8C362.9 353.2 359.3 357.7 352.1 361.3C345.5 364.9 324.5 369.1 289.1 373.9C263.326 375.287 235.874 377.579 208.007 379.906C161.324 383.805 113.476 387.8 70.3998 387.8ZM103.636 155.236C110.919 171.696 108.251 182.719 95.631 188.302C91.2415 190.244 85.9707 190.936 79.8186 190.378C74.2152 189.576 62.0739 182.154 43.3945 168.112C24.4724 153.52 13.4334 142.658 10.2773 135.525C8.09241 130.587 10.0178 126.782 16.0534 124.112C22.089 121.441 36.3135 121.709 58.7271 124.914C80.8979 127.57 95.8676 137.677 103.636 155.236ZM242.781 145.036C242.312 136.19 240.361 128.948 236.929 123.31C229.128 110.499 216.637 104.406 199.456 105.032C182.476 104.834 170.655 106.764 163.993 110.82C157.331 114.877 155.248 118.955 157.745 123.055C160.865 128.179 172.298 137.726 192.043 151.695C211.476 165.151 226.317 168.759 236.567 162.518C241.692 159.398 243.763 153.57 242.781 145.036ZM454.87 92.9598C451.24 101.847 423.076 113.674 370.377 128.442C318.234 143.437 287.164 148.892 277.166 144.808C274.389 143.673 273.454 141.995 274.362 139.773C276.631 134.219 287.544 127.335 307.103 119.122C326.662 110.908 345.07 99.9563 362.329 86.2664C380.37 72.2479 389.63 63.0678 390.107 58.7259C391.367 54.0554 392.45 50.6094 393.358 48.3876C396.081 41.7224 400.497 39.6376 406.607 42.1335C413.272 44.8563 423.411 52.5628 437.023 65.2528C451.417 77.6143 457.366 86.8499 454.87 92.9598Z" fill="black"/>
</svg>
