<svg width="660" height="660" viewBox="0 0 660 660" fill="none" xmlns="http://www.w3.org/2000/svg">
<path fill-rule="evenodd" clip-rule="evenodd" d="M583.926 -322.747C589.255 -323.973 594.717 -325.352 600.313 -326.885C608.573 -329.337 612.569 -333.169 612.303 -338.379C612.303 -343.59 607.773 -348.648 598.714 -353.552C593.652 -356.31 589.255 -358.303 585.525 -359.529C582.061 -360.755 577.931 -361.215 573.135 -360.908C568.339 -360.602 562.211 -359.375 554.75 -357.23C547.556 -355.084 537.698 -352.019 525.175 -348.034C515.849 -344.969 507.19 -342.364 499.196 -340.218C491.469 -338.379 484.009 -336.693 476.815 -335.161C469.887 -333.935 463.226 -332.862 456.831 -331.943C450.703 -331.023 444.442 -330.257 438.047 -329.644C424.458 -328.418 417.397 -326.425 416.864 -323.667C416.331 -320.908 421.794 -316.31 433.251 -309.874C437.514 -307.421 441.91 -305.582 446.44 -304.356C451.236 -303.13 456.698 -302.517 462.826 -302.517C469.221 -302.517 476.682 -303.13 485.208 -304.356C494.001 -305.582 504.658 -307.268 517.181 -309.414L545.958 -314.931C553.951 -316.464 561.012 -317.843 567.14 -319.069C573.268 -320.295 578.864 -321.521 583.926 -322.747ZM599.913 -253.667C601.778 -259.184 598.448 -265.774 589.921 -273.437C582.727 -279.874 575 -283.245 566.74 -283.552C558.481 -283.858 547.69 -281.406 534.367 -276.195C529.571 -274.356 523.176 -272.364 515.183 -270.218C507.19 -268.073 498.93 -266.08 490.404 -264.241C481.877 -262.402 473.484 -260.87 465.224 -259.644C457.231 -258.418 450.703 -257.805 445.641 -257.805C435.249 -257.498 429.521 -256.119 428.455 -253.667C427.389 -251.521 431.785 -246.004 441.644 -237.115C444.308 -234.663 446.973 -232.824 449.637 -231.598C452.302 -230.372 456.298 -229.912 461.627 -230.218C467.223 -230.525 474.95 -231.444 484.808 -232.977C494.667 -234.816 508.256 -237.421 525.575 -240.793C534.101 -242.326 542.627 -243.245 551.153 -243.552C559.946 -244.165 569.005 -244.625 578.331 -244.931C591.12 -245.238 598.314 -248.149 599.913 -253.667ZM693.835 -158.839C697.299 -163.437 693.036 -173.705 681.046 -189.644C677.582 -194.241 674.118 -197.92 670.655 -200.678C667.191 -203.743 662.928 -205.889 657.865 -207.115C652.803 -208.341 646.674 -208.801 639.48 -208.494C632.286 -208.188 623.227 -207.115 612.303 -205.276C604.309 -203.743 593.119 -201.904 578.731 -199.759C564.609 -197.92 547.956 -195.774 528.772 -193.322C509.854 -190.87 488.672 -188.264 465.224 -185.506C442.044 -182.747 417.397 -179.835 391.286 -176.77C385.69 -176.157 379.295 -175.697 372.101 -175.391C364.907 -175.084 359.445 -175.084 355.715 -175.391C339.728 -176.31 331.202 -175.238 330.136 -172.172C329.07 -169.414 334.266 -163.284 345.723 -153.782C351.585 -148.877 356.381 -145.046 360.111 -142.287C364.108 -139.835 367.705 -138.303 370.902 -137.69C374.366 -136.77 377.963 -136.77 381.693 -137.69C385.424 -138.303 390.087 -139.529 395.682 -141.368C400.478 -142.9 407.006 -144.586 415.266 -146.425C423.792 -148.264 433.251 -149.95 443.642 -151.483C454.034 -153.322 465.091 -154.854 476.815 -156.08C488.538 -157.613 500.262 -158.839 511.986 -159.759C532.769 -161.291 550.354 -162.364 564.742 -162.977C579.13 -163.59 591.786 -163.743 602.711 -163.437C613.635 -163.437 623.627 -162.824 632.686 -161.598C641.745 -160.372 651.47 -158.839 661.862 -157C679.98 -153.628 690.638 -154.241 693.835 -158.839ZM503.536 -74.5458C499.598 -71.1421 495.783 -66.8873 492.092 -61.7817C488.646 -56.6761 485.077 -50.294 481.385 -42.6355C477.693 -34.9771 473.878 -25.9004 469.94 -15.4054C466.002 -5.19413 461.572 6.86086 456.65 20.7595C463.295 24.447 468.218 28.2762 471.417 32.2472C474.617 35.9347 476.217 39.3384 476.217 42.4586C476.217 45.295 474.617 47.706 471.417 49.6915C468.218 51.6771 463.664 52.6698 457.757 52.6698C449.389 52.9535 441.39 53.2371 433.76 53.5208C426.131 53.8044 417.393 54.3717 407.548 55.2227C397.949 55.7899 386.628 56.7827 373.583 58.201C360.539 59.3355 344.541 60.7538 325.589 62.4557C325.097 68.4122 324.236 73.3761 323.005 77.3471C322.02 81.0345 320.667 84.0128 318.944 86.282C317.467 88.5512 315.867 90.1112 314.145 90.9622C312.422 91.5294 310.945 91.6713 309.714 91.3876C307.253 90.8203 304.792 89.4021 302.331 87.1329C300.116 84.5801 298.023 81.6018 296.054 78.1981C294.332 74.7943 292.855 71.1069 291.624 67.1358C290.394 62.8811 289.655 58.7682 289.409 54.7972C286.948 12.2501 283.625 -21.2202 279.441 -45.6138C275.503 -70.0075 270.458 -86.3172 264.305 -94.5429C261.105 -98.7976 258.89 -102.485 257.659 -105.605C256.429 -109.009 256.921 -111.42 259.136 -112.838C261.351 -114.256 265.535 -114.682 271.688 -114.115C278.087 -113.547 287.194 -111.42 299.008 -107.732C308.853 -108.3 320.421 -109.434 333.711 -111.136C347.248 -113.122 360.17 -115.249 372.476 -117.518C384.782 -120.071 395.611 -122.482 404.964 -124.751C414.563 -127.304 420.47 -129.29 422.685 -130.708C426.623 -133.261 429.945 -135.246 432.653 -136.664C435.606 -138.366 438.314 -139.359 440.775 -139.643C443.482 -140.21 446.313 -140.068 449.266 -139.217C452.466 -138.65 456.158 -137.374 460.342 -135.388C466.987 -132.268 472.525 -129.431 476.955 -126.879C481.631 -124.609 487.292 -121.064 493.937 -116.242C501.075 -111.42 506.49 -107.307 510.182 -103.903C514.12 -100.5 516.458 -97.2376 517.196 -94.1175C517.934 -91.281 517.073 -88.3027 514.612 -85.1826C512.397 -82.3461 508.705 -78.8005 503.536 -74.5458ZM438.929 -88.5863C439.175 -92.841 438.683 -95.5357 437.452 -96.6703C436.222 -97.8049 433.145 -97.9467 428.223 -97.0957C421.577 -95.9612 413.701 -94.6848 404.595 -93.2665C395.734 -91.8483 386.259 -90.4301 376.168 -89.0118C366.323 -87.8772 356.232 -86.6008 345.894 -85.1826C335.557 -84.048 325.712 -82.9134 316.36 -81.7788C317.098 -73.8367 317.836 -64.9018 318.575 -54.9742C319.559 -45.3302 320.421 -35.2607 321.159 -24.7658C321.897 -14.5545 322.513 -4.34321 323.005 5.8681C323.743 16.0794 324.359 25.5816 324.851 34.3746C341.833 32.6727 355.616 31.2545 366.2 30.1199C376.783 28.7017 385.52 27.5671 392.412 26.7161C399.303 25.5815 404.841 24.5888 409.025 23.7378C413.455 22.8869 418.132 21.7523 423.054 20.3341C425.269 9.83914 427.238 -0.939429 428.961 -12.0017C430.93 -23.3475 432.53 -33.9843 433.76 -43.912C435.237 -53.8396 436.345 -62.7745 437.083 -70.7166C438.068 -78.6587 438.683 -84.6153 438.929 -88.5863ZM763.988 -74.5458C760.05 -71.1421 756.235 -66.8873 752.543 -61.7817C749.098 -56.6761 745.529 -50.294 741.837 -42.6355C738.145 -34.9771 734.33 -25.9004 730.392 -15.4054C726.454 -5.19413 722.024 6.86086 717.101 20.7595C723.747 24.447 728.669 28.2762 731.869 32.2472C735.069 35.9347 736.668 39.3384 736.668 42.4586C736.668 45.295 735.069 47.706 731.869 49.6915C728.669 51.6771 724.116 52.6698 718.209 52.6698C709.841 52.9535 701.842 53.2371 694.212 53.5208C686.582 53.8044 677.845 54.3717 668 55.2227C658.401 55.7899 647.079 56.7827 634.035 58.201C620.99 59.3355 604.992 60.7538 586.041 62.4557C585.549 68.4122 584.687 73.3761 583.457 77.3471C582.472 81.0345 581.118 84.0128 579.396 86.282C577.919 88.5512 576.319 90.1112 574.596 90.9622C572.873 91.5294 571.397 91.6713 570.166 91.3876C567.705 90.8203 565.244 89.4021 562.782 87.1329C560.567 84.5801 558.475 81.6018 556.506 78.1981C554.783 74.7943 553.307 71.1069 552.076 67.1358C550.845 62.8811 550.107 58.7682 549.861 54.7972C547.4 12.2501 544.077 -21.2202 539.893 -45.6138C535.955 -70.0075 530.909 -86.3172 524.756 -94.5429C521.557 -98.7976 519.342 -102.485 518.111 -105.605C516.88 -109.009 517.373 -111.42 519.588 -112.838C521.803 -114.256 525.987 -114.682 532.14 -114.115C538.539 -113.547 547.646 -111.42 559.46 -107.732C569.305 -108.3 580.872 -109.434 594.163 -111.136C607.7 -113.122 620.621 -115.249 632.927 -117.518C645.234 -120.071 656.063 -122.482 665.416 -124.751C675.014 -127.304 680.921 -129.29 683.137 -130.708C687.074 -133.261 690.397 -135.246 693.104 -136.664C696.058 -138.366 698.765 -139.359 701.227 -139.643C703.934 -140.21 706.764 -140.068 709.718 -139.217C712.917 -138.65 716.609 -137.374 720.793 -135.388C727.439 -132.268 732.976 -129.431 737.407 -126.879C742.083 -124.609 747.744 -121.064 754.389 -116.242C761.527 -111.42 766.941 -107.307 770.633 -103.903C774.571 -100.5 776.909 -97.2376 777.648 -94.1175C778.386 -91.281 777.525 -88.3027 775.064 -85.1826C772.848 -82.3461 769.157 -78.8005 763.988 -74.5458ZM699.381 -88.5863C699.627 -92.841 699.134 -95.5357 697.904 -96.6703C696.673 -97.8049 693.597 -97.9467 688.674 -97.0957C682.029 -95.9612 674.153 -94.6848 665.046 -93.2665C656.186 -91.8483 646.71 -90.4301 636.619 -89.0118C626.774 -87.8772 616.683 -86.6008 606.346 -85.1826C596.009 -84.048 586.164 -82.9134 576.811 -81.7788C577.55 -73.8367 578.288 -64.9018 579.026 -54.9742C580.011 -45.3302 580.872 -35.2607 581.611 -24.7658C582.349 -14.5545 582.964 -4.34321 583.457 5.8681C584.195 16.0794 584.81 25.5816 585.303 34.3746C602.285 32.6727 616.068 31.2545 626.651 30.1199C637.235 28.7017 645.972 27.5671 652.863 26.7161C659.755 25.5815 665.293 24.5888 669.477 23.7378C673.907 22.8869 678.583 21.7523 683.506 20.3341C685.721 9.83914 687.69 -0.939429 689.413 -12.0017C691.382 -23.3475 692.981 -33.9843 694.212 -43.912C695.689 -53.8396 696.796 -62.7745 697.535 -70.7166C698.519 -78.6587 699.134 -84.6153 699.381 -88.5863Z" fill="black"/>
</svg>
