<svg width="660" height="660" viewBox="0 0 660 660" fill="none" xmlns="http://www.w3.org/2000/svg">
<path fill-rule="evenodd" clip-rule="evenodd" d="M426.134 -176.728C409.548 -157.342 390.648 -141.04 369.434 -127.822C360.764 -122.32 351.626 -117.174 342.02 -112.385C352.559 -114.007 362.711 -115.718 372.476 -117.518C384.782 -120.071 395.611 -122.482 404.964 -124.751C414.563 -127.304 420.47 -129.29 422.685 -130.708C426.623 -133.261 429.945 -135.246 432.653 -136.664C435.606 -138.366 438.314 -139.359 440.775 -139.643C443.482 -140.21 446.313 -140.068 449.266 -139.217C451.789 -138.77 454.617 -137.882 457.751 -136.553C455.926 -138.677 454.065 -141.053 452.169 -143.684C447.926 -149.558 444.069 -154.845 440.598 -159.545C437.126 -164.245 432.305 -169.972 426.134 -176.728ZM267.607 -87.7285C267.359 -88.1061 267.355 -88.586 267.595 -89.1683C266.536 -91.2347 265.439 -93.0262 264.305 -94.5429C261.105 -98.7976 258.89 -102.485 257.659 -105.605C256.429 -109.009 256.921 -111.42 259.136 -112.838C261.351 -114.256 265.535 -114.682 271.688 -114.115C277.369 -113.611 285.183 -111.878 295.131 -108.916C316.758 -121.79 336.319 -135.582 353.813 -150.293C372.327 -166.154 388.334 -183.778 401.834 -203.164C393.734 -211.975 384.67 -220.934 374.641 -230.04C364.999 -239.439 352.849 -250.601 338.192 -263.525C328.935 -271.455 325.463 -276.889 327.778 -279.827C330.092 -282.764 336.842 -281.295 348.027 -275.421C358.056 -270.427 369.434 -264.112 382.163 -256.475C394.891 -248.838 407.427 -240.761 419.77 -232.243C425.941 -243.111 430.955 -254.125 434.812 -265.287C439.055 -276.449 442.719 -289.079 445.805 -303.178C446.962 -308.171 446.191 -311.256 443.491 -312.43C440.791 -313.899 435.198 -313.605 426.712 -311.549C417.455 -309.199 408.584 -306.85 400.098 -304.5C391.613 -302.15 384.67 -300.241 379.27 -298.772C373.099 -296.716 367.892 -295.247 363.649 -294.366C359.792 -293.485 356.127 -293.044 352.656 -293.044C349.185 -293.338 345.52 -294.219 341.663 -295.688C338.192 -297.157 333.949 -299.213 328.935 -301.856C318.906 -306.85 314.085 -310.668 314.471 -313.312C315.242 -315.955 321.992 -317.571 334.721 -318.158C341.663 -318.452 350.149 -319.333 360.177 -320.802C370.206 -322.27 380.234 -324.033 390.263 -326.089C400.291 -328.439 409.741 -330.788 418.612 -333.138C427.484 -335.782 434.234 -338.425 438.862 -341.069C443.105 -343.419 446.769 -345.181 449.855 -346.356C452.941 -347.531 456.026 -347.972 459.112 -347.678C462.198 -347.678 465.669 -346.943 469.526 -345.475C473.383 -344.3 478.205 -342.391 483.99 -339.747C493.247 -335.341 500.383 -331.67 505.397 -328.732C510.411 -326.089 513.69 -323.592 515.233 -321.242C516.776 -319.186 516.583 -316.983 514.654 -314.633C512.726 -312.284 509.447 -309.493 504.819 -306.262C499.804 -302.444 494.983 -297.01 490.354 -289.96C486.112 -283.204 481.097 -272.777 475.312 -258.678C471.455 -249.573 467.405 -240.908 463.162 -232.683C458.919 -224.753 454.483 -216.969 449.855 -209.332C460.655 -200.814 469.14 -193.617 475.312 -187.743C481.869 -181.868 486.69 -176.581 489.776 -171.882C493.247 -167.476 495.369 -163.363 496.14 -159.545C496.912 -156.02 497.104 -152.202 496.719 -148.09C495.27 -134.022 490.589 -125.912 482.677 -123.76C486.05 -121.748 489.803 -119.242 493.937 -116.242C494.455 -115.892 494.964 -115.546 495.463 -115.204C514.077 -124.157 530.503 -133.945 544.74 -144.565C563.639 -158.664 579.839 -174.525 593.339 -192.149C587.168 -200.667 580.225 -210.066 572.511 -220.347C564.796 -230.921 558.239 -239.88 552.839 -247.223C542.425 -260.734 531.818 -269.84 521.018 -274.54C510.99 -278.945 506.554 -282.911 507.711 -286.436C508.868 -290.254 515.618 -291.429 527.961 -289.96C534.518 -289.373 540.111 -288.492 544.74 -287.317C549.754 -286.142 554.189 -284.526 558.047 -282.47C561.904 -280.414 565.375 -277.624 568.461 -274.099C571.546 -270.868 574.632 -266.903 577.718 -262.203C580.418 -257.797 584.66 -251.776 590.446 -244.139C596.232 -236.502 603.175 -227.984 611.274 -218.584C620.531 -235.033 627.281 -250.454 631.524 -264.846C635.767 -279.533 638.853 -295.688 640.781 -313.312C641.553 -318.599 640.974 -321.83 639.046 -323.005C637.117 -324.18 632.874 -324.033 626.317 -322.564C619.76 -321.095 612.432 -319.333 604.332 -317.277C596.232 -315.515 590.446 -314.046 586.975 -312.871C582.732 -311.402 579.068 -310.227 575.982 -309.346C572.896 -308.759 569.811 -308.465 566.725 -308.465C564.025 -308.759 560.746 -309.346 556.889 -310.227C553.032 -311.402 548.018 -313.165 541.847 -315.515C532.204 -318.746 527.768 -321.683 528.54 -324.326C529.311 -327.264 536.061 -329.32 548.789 -330.495C557.275 -331.376 565.954 -332.698 574.825 -334.46C583.696 -336.222 592.182 -338.278 600.282 -340.628C608.382 -343.272 615.71 -345.915 622.267 -348.559C629.21 -351.496 634.996 -354.434 639.624 -357.371C646.181 -362.07 652.738 -364.273 659.295 -363.98C666.238 -363.686 676.652 -360.308 690.538 -353.846C700.181 -349.44 707.702 -345.769 713.102 -342.831C718.502 -339.894 721.78 -337.104 722.938 -334.46C724.095 -332.11 723.516 -329.76 721.202 -327.411C718.888 -325.354 715.223 -322.711 710.209 -319.48C704.038 -315.661 698.831 -310.668 694.588 -304.5C690.345 -298.625 686.295 -289.667 682.438 -277.624C677.038 -260.587 670.288 -243.992 662.188 -227.837C654.088 -211.682 646.181 -198.464 638.467 -188.184C650.038 -176.434 661.224 -166.154 672.024 -157.342C680.581 -150.601 689.251 -144.461 698.035 -138.923C699.141 -139.285 700.205 -139.525 701.227 -139.643C703.934 -140.21 706.764 -140.068 709.718 -139.217C712.917 -138.65 716.609 -137.374 720.793 -135.388C727.439 -132.268 732.976 -129.431 737.407 -126.879C742.083 -124.609 747.744 -121.064 754.389 -116.242C758.09 -113.742 761.327 -111.432 764.101 -109.314C770.396 -107.346 776.924 -105.438 783.687 -103.59C799.887 -99.1839 807.987 -95.0717 807.987 -91.2533C808.372 -87.4348 800.465 -84.9381 784.265 -83.7632C780.593 -83.501 776.92 -83.2648 773.247 -83.0546C771.023 -80.6321 767.936 -77.7958 763.988 -74.5458C760.05 -71.142 756.235 -66.8873 752.543 -61.7816C749.098 -56.676 745.529 -50.2939 741.837 -42.6355C738.145 -34.977 734.33 -25.9003 730.392 -15.4054C726.454 -5.19409 722.024 6.8609 717.101 20.7596C723.747 24.447 728.669 28.2762 731.869 32.2473C735.069 35.9347 736.668 39.3385 736.668 42.4586C736.668 45.295 735.069 47.7061 731.869 49.6916C728.669 51.6771 724.116 52.6699 718.209 52.6699C709.841 52.9535 701.842 53.2372 694.212 53.5208C686.582 53.8045 677.845 54.3718 668 55.2227C658.401 55.79 647.079 56.7827 634.035 58.201C620.99 59.3356 604.992 60.7538 586.041 62.4557C585.549 68.4123 584.687 73.3761 583.457 77.3472C582.472 81.0346 581.118 84.0129 579.396 86.282C577.919 88.5512 576.319 90.1113 574.596 90.9622C572.873 91.5295 571.397 91.6713 570.166 91.3877C567.705 90.8204 565.244 89.4022 562.782 87.133C560.567 84.5801 558.475 81.6019 556.506 78.1981C554.783 74.7943 553.307 71.1069 552.076 67.1359C550.845 62.8812 550.107 58.7683 549.861 54.7972C547.4 12.2502 544.077 -21.2202 539.893 -45.6138C535.955 -70.0074 530.909 -86.3171 524.756 -94.5429C522.148 -98.0115 520.194 -101.103 518.894 -103.818C516.774 -103.099 514.641 -102.405 512.493 -101.735C515.048 -99.108 516.616 -96.5689 517.196 -94.1174C517.934 -91.2809 517.073 -88.3026 514.612 -85.1825C512.397 -82.346 508.705 -78.8005 503.536 -74.5458C499.598 -71.142 495.783 -66.8873 492.092 -61.7816C488.646 -56.676 485.077 -50.2939 481.385 -42.6355C477.693 -34.977 473.878 -25.9003 469.94 -15.4054C466.003 -5.19409 461.572 6.8609 456.65 20.7596C463.295 24.447 468.218 28.2762 471.417 32.2473C474.617 35.9347 476.217 39.3385 476.217 42.4586C476.217 45.295 474.617 47.7061 471.417 49.6916C468.218 51.6771 463.664 52.6699 457.757 52.6699C449.389 52.9535 441.39 53.2372 433.76 53.5208C426.131 53.8045 417.393 54.3718 407.548 55.2227C397.949 55.79 386.628 56.7827 373.583 58.201C360.539 59.3356 344.541 60.7538 325.589 62.4557C325.097 68.4123 324.236 73.3761 323.005 77.3472C322.02 81.0346 320.667 84.0129 318.944 86.282C317.467 88.5512 315.867 90.1113 314.145 90.9622C312.422 91.5295 310.945 91.6713 309.714 91.3877C307.253 90.8204 304.792 89.4022 302.331 87.133C300.116 84.5801 298.023 81.6019 296.054 78.1981C294.332 74.7943 292.855 71.1069 291.624 67.1359C290.394 62.8812 289.655 58.7683 289.409 54.7972C286.948 12.2502 283.625 -21.2202 279.441 -45.6138C276.461 -64.0713 272.848 -77.9006 268.6 -87.1016C268.158 -87.2512 267.827 -87.4602 267.607 -87.7285ZM541.465 -112.611C546.531 -111.522 552.53 -109.895 559.46 -107.732C569.305 -108.3 580.872 -109.434 594.163 -111.136C607.7 -113.122 620.621 -115.249 632.927 -117.518C637.952 -118.561 642.73 -119.579 647.262 -120.574C643.302 -125.29 639.021 -130.497 634.417 -136.194C628.631 -144.124 622.267 -152.789 615.324 -162.189C596.039 -144.271 576.175 -130.025 555.732 -119.451C551.057 -117.033 546.301 -114.753 541.465 -112.611ZM670.242 -94.0814C668.557 -93.8151 666.825 -93.5435 665.046 -93.2664C656.186 -91.8482 646.71 -90.43 636.619 -89.0117C626.774 -87.8772 616.683 -86.6008 606.346 -85.1825C596.009 -84.0479 586.164 -82.9133 576.811 -81.7787C577.55 -73.8366 578.288 -64.9018 579.026 -54.9741C580.011 -45.3301 580.872 -35.2607 581.611 -24.7657C582.349 -14.5544 582.964 -4.34314 583.457 5.86813C584.195 16.0794 584.81 25.5816 585.303 34.3747C602.285 32.6728 616.068 31.2545 626.651 30.1199C637.235 28.7017 645.972 27.5671 652.863 26.7162C659.755 25.5816 665.293 24.5888 669.477 23.7379C673.907 22.8869 678.583 21.7523 683.506 20.3341C685.721 9.8392 687.69 -0.939392 689.413 -12.0016C691.382 -23.3475 692.981 -33.9843 694.212 -43.9119C695.689 -53.8395 696.796 -62.7744 697.535 -70.7165C698.123 -75.4601 698.579 -79.4954 698.904 -82.8224C696.915 -82.9753 695.091 -83.142 693.431 -83.3226C688.031 -83.9101 683.209 -85.3787 678.967 -87.7285C676.161 -89.2243 673.252 -91.3419 670.242 -94.0814ZM438.929 -88.5863C439.175 -92.841 438.683 -95.5356 437.452 -96.6702C436.222 -97.8048 433.145 -97.9466 428.223 -97.0957C421.577 -95.9611 413.701 -94.6847 404.595 -93.2664C395.734 -91.8482 386.259 -90.43 376.168 -89.0117C366.323 -87.8772 356.232 -86.6008 345.894 -85.1825C335.557 -84.0479 325.712 -82.9133 316.36 -81.7787C317.098 -73.8366 317.836 -64.9018 318.575 -54.9741C319.559 -45.3301 320.421 -35.2607 321.159 -24.7657C321.897 -14.5544 322.513 -4.34314 323.005 5.86813C323.743 16.0794 324.359 25.5816 324.851 34.3747C341.833 32.6728 355.616 31.2545 366.2 30.1199C376.783 28.7017 385.52 27.5671 392.412 26.7162C399.303 25.5816 404.841 24.5888 409.025 23.7379C413.455 22.8869 418.132 21.7523 423.054 20.3341C425.269 9.8392 427.238 -0.939392 428.961 -12.0016C430.93 -23.3475 432.53 -33.9843 433.76 -43.9119C435.237 -53.8395 436.345 -62.7744 437.083 -70.7165C438.068 -78.6586 438.683 -84.6152 438.929 -88.5863Z" fill="black"/>
</svg>
