<svg width="660" height="660" viewBox="0 0 660 660" fill="none" xmlns="http://www.w3.org/2000/svg">
<path d="M658.2 388.3C661.8 388.3 664.2 396.4 665.4 412.6C666.6 428.2 669.6 447.4 674.4 470.2C679.8 492.4 684.9 507.4 689.7 515.2C694.5 523 696.9 529.6 696.9 535C696.9 549.4 681.3 563.2 650.1 576.4C618.9 589.6 270.5 596.2 224.9 596.2C164.3 596.2 42 583.6 18 558.4C-5.99998 533.2 -17.9999 488.5 -17.9999 424.3L-8.99997 187.2C-8.99997 145.2 -13.5 117 -22.5 102.6C-31.5 87.6 -36 77.4 -36 72C-36 66 -32.1 63 -24.3 63C-16.5 63 -0.599989 69 23.4 81C48 93 60.3 103.8 60.3 113.4C60.3 118.2 58.5 123.6 54.9 129.6C51.3 135 48.0001 145.8 45.0001 162C32.3039 247.699 18 333.847 18 420.7C18 466.9 25.2 498.4 39.6 515.2C54.6 531.4 160.4 550.5 197 550.5C228.8 550.5 564.6 546.9 584.4 539.7C604.8 532.5 618.6 521.7 625.8 507.3C633.6 492.9 641.7 451.6 650.1 405.4C652.5 394 655.2 388.3 658.2 388.3Z" fill="black"/>
</svg>
