<svg width="660" height="660" viewBox="0 0 660 660" fill="none" xmlns="http://www.w3.org/2000/svg">
<path fill-rule="evenodd" clip-rule="evenodd" d="M271.5 -101.6C236.7 -83 158.7 -65.9 37.5 -50.3C14.7 -59.3 -0.89999 -63.8 -9.29999 -63.8C-17.1 -63.8 -21 -62 -21 -58.4C-21 -55.4 -18.9 -50.9 -14.7 -44.9C-1.23869 -27.5926 -1.76999 -1.59998 -8.40001 20.5C-12 32.5 -13.8 43 -13.8 52C-13.8 61 -11.1 70.9 -5.70001 81.7C-0.300011 92.5 5.1 97.9 10.5 97.9C21.9 97.9 31.2 76 38.4 32.2C39.289 26.7919 40.0733 21.9462 40.7845 17.5523C43.4661 0.9851 45.1077 -9.15733 47.4 -18.8L177.9 -44C212.1 -50 237.6 -53 254.4 -53C271.8 -53 282.6 -47.6 286.8 -36.8C286.8 -25.6656 284.887 -11.4317 282.48 6.46957C280.997 17.5076 279.326 29.94 277.8 43.9C277.8 53.5 281.7 66.4 289.5 82.6C296.421 95.9478 302.12 103.797 306.597 106.147C238.705 116.916 175.759 122.3 156.561 122.3C147.561 122.3 139.761 121.4 133.161 119.6C149.262 109.523 160.758 104.819 171.014 100.623C179.994 96.9479 188.024 93.6624 197.361 87.5C207.561 79.1 212.661 71.9 212.661 65.9C212.661 56.9 202.161 47 181.161 36.2C160.161 25.4 144.861 20 135.261 20C125.661 20 120.861 25.1 120.861 35.3C120.861 38.3 121.161 41.6 121.761 45.2C88.4469 99.5539 64.7402 128.129 37.1884 161.339C27.0271 173.587 16.3427 186.465 4.46058 201.5C-1.21187 207.172 4.15133 211.75 8.23237 215.234C10.1947 216.909 11.8606 218.331 11.8606 219.5C11.8606 222.5 13.0606 224 15.4606 224C18.5153 224 19.86 222.218 22.5494 218.654C26.199 213.818 32.3248 205.7 48.5606 194.3C76.7606 174.5 101.061 154.7 121.461 134.9C143.661 147.5 164.061 147.8 182.661 147.8C201.861 147.8 222.861 145.1 245.661 139.7C260.052 136.379 288.399 133.058 316.747 129.737C334.493 127.658 352.239 125.579 366.561 123.5C404.361 117.5 433.461 114.5 453.861 114.5C474.861 114.5 493.661 118.9 500.261 123.7C507.461 127.9 517.861 144.8 521.461 166.4C525.061 188 525.861 221 525.861 265.4C525.861 309.2 523.161 334.8 517.761 382.2C512.361 429.6 507.461 468.5 499.061 494.9C490.661 520.7 475.961 546.4 466.961 556C457.961 565.6 447.161 570.4 434.561 570.4C426.87 570.4 414.3 564.663 399.123 557.737C389.434 553.315 378.683 548.408 367.461 544.2C361.461 541.8 356.361 540.6 352.161 540.6C348.561 540.6 346.761 542.1 346.761 545.1C346.761 548.1 350.061 552.9 356.661 559.5C363.861 566.1 372.861 578.1 383.661 595.5C395.061 612.9 403.461 627.9 408.861 640.5C414.861 653.7 422.661 660.3 432.261 660.3C446.061 660.3 464.961 648 488.961 623.4C513.561 599.4 531.561 557.7 542.961 498.3C554.961 438.3 563.661 375.5 569.061 269.9C571.461 227.9 573.561 200.3 575.361 187.1C577.761 173.3 581.061 163.7 585.261 158.3C594.261 146.9 598.761 136.7 598.761 127.7C598.761 118.7 585.861 106.1 560.061 89.9C534.261 73.7 515.361 65.6 503.361 65.6C491.961 65.6 479.661 68.9 466.461 75.5C460.461 77.9 417.861 86.3 338.661 100.7C331.05 102.084 323.426 103.401 315.842 104.652C319.251 102.357 322.771 98.3066 326.4 92.5C332.4 82.9 337.5 65.8 341.7 41.2C345.317 19.4962 345.661 17.0132 346.957 15.217C348.303 13.352 350.674 12.2273 358.8 -8.89998C361.8 -17.3 366 -24.5 371.4 -30.5C377.4 -37.1 380.4 -42.5 380.4 -46.7C380.4 -56.3 367.5 -68.6 341.7 -83.6C315.9 -99.2 299.4 -107 292.2 -107C285.6 -107 278.7 -105.2 271.5 -101.6Z" fill="black"/>
</svg>
