<svg width="660" height="660" viewBox="0 0 660 660" fill="none" xmlns="http://www.w3.org/2000/svg">
<path d="M21.7 297.5C18.7 329.3 17.2 355.7 17.2 376.7C17.2 435.5 30.7 504.4 57.7 519.4C163 551 275.5 551 328.3 551C369.1 551 539.1 566 607.4 522.2C626.6 503 641 455.5 650.6 399.7C652.4 390.7 655.7 386.2 660.5 386.2C665.9 386.2 668.9 391.3 669.5 401.5C671.9 462.1 677.3 503.5 685.7 525.7C687.5 530.5 688.4 535 688.4 539.2C688.4 557.8 671.9 572.5 638.9 583.3C606.5 594.1 381.1 599.5 342.7 599.5C304.3 599.5 116.5 593.8 79.3 582.4C42.1 571.6 15.4 552 -0.799988 525.6C-16.4 498.6 -24.2 427.1 -24.2 373.1C-24.2 355.1 -23.3 334.4 -21.5 311C-41.8917 316.561 -63.3548 326.2 -79.6 326.2C-95.2 326.2 -107.5 323.8 -116.5 319C-125.5 313.6 -130 309.4 -130 306.4C-130 302.8 -124.6 300.1 -113.8 298.3C-67 289.3 -62 288.2 -18.8 275C-16.4 243.8 -15.2 214.7 -15.2 187.7C-15.2 160.1 -18.2 140.6 -24.2 129.2C-55.4 145.4 -82.1 153.5 -104.3 153.5C-110.3 153.5 -113.3 152 -113.3 149C-113.3 146 -109.7 142.7 -102.5 139.1C-62.3 119.3 -24.5 94.4 10.9 64.4C46.3 33.8 65.5 10.4 68.5 -5.8C70.9 -16.6 77.5 -22 88.3 -22C99.1 -22 117.4 -17.2 143.2 -7.59997C169 1.40002 181.9 9.80001 181.9 17.6C181.9 25.4 175.6 31.1 163 34.7C150.4 38.3 136.6 43.7 121.6 50.9C106.6 57.5 68.5 77.9 7.30002 112.1C33.1 130.7 46 145.7 46 157.1C46 160.7 45.4 164.6 44.2 168.8C38.2 187.4 32.2 218 26.2 260.6C50.7194 252.584 88.1805 221.1 111 221.1C121.8 221.1 133.5 223.5 146.1 228.3C159.3 233.1 165.9 238.5 165.9 244.5C165.9 250.5 161.1 256.2 151.5 261.6C142.5 266.4 129.9 269.4 113.7 270.6C84.9 272.4 100.9 274.7 21.7 297.5Z" fill="black"/>
</svg>
