<svg width="660" height="660" viewBox="0 0 660 660" fill="none" xmlns="http://www.w3.org/2000/svg">
<path d="M421.7 30C437.3 24 449.9 21 459.5 21C469.1 21 465.6 27.6 489 40.8C512.4 54 524.1 65.1 524.1 74.1C524.1 82.5 520.8 90.6 514.2 98.4C508.5 151 521.866 208.628 524.1 239.9C524.1 277.7 517.5 311.3 504.3 340.7C491.1 370.7 489.7 365.7 480.1 365.7C474.7 365.7 468.1 360.6 460.3 350.4C445.932 331.242 406.7 294.563 406.7 273.2C406.7 270.2 408.5 268.7 412.1 268.7C425.5 280.5 430.458 296.8 454.5 296.8C467.1 296.8 474.2 271.7 478.4 261.5C483.5 189 483.029 185.443 468.5 112.8C464.9 94.2 459.8 81.9 453.2 75.9C447.2 69.9 438.2 66.9 426.2 66.9C414.8 66.9 408 71.7 393 74.1L336.8 84C336.8 103.5 332 112.8 322.5 138.4C369.5 158.5 368.5 161 393 178.6C415.8 200.8 437.2 225.4 437.2 252.4C437.2 270.4 431.2 259.4 419.2 259.4C411.4 259.4 396.9 255.2 388.5 246.8L318 151C304 187.5 275.303 210.348 242.7 234.8C240.135 236.724 203.5 266.5 188.1 258.2C184 252.5 182.4 245 190.8 234.8C260.5 155 295 154.5 295 91.2C211 100.8 205.7 96.5 187.1 98.3C187.1 121.7 181.719 146.2 179.9 175.9C174.5 264.1 163.7 308.2 147.5 308.2C140.3 308.2 143.1 299.5 135.9 282.1C129.3 265.3 126 251.8 126 241.6C126 231.4 129 215.2 135 193C151.165 133.19 150.6 145.2 139.5 90.2C135.1 80.2002 132.9 78.8 132.9 72.8C132.9 66.8 138 63.8 148.2 63.8C158.4 63.8 158 62 179 70.4C279.5 60 322.5 51 421.7 30Z" fill="black"/>
</svg>
