<svg width="660" height="660" viewBox="0 0 660 660" fill="none" xmlns="http://www.w3.org/2000/svg">
<path fill-rule="evenodd" clip-rule="evenodd" d="M182.296 -113.66C181.432 -130.592 187.047 -139.366 199.141 -139.984C208.333 -140.453 223.619 -130.805 244.999 -111.04C266.379 -91.2747 277.242 -78.0059 277.587 -71.2331C277.785 -67.3629 275.223 -65.2921 269.902 -65.0205C264.58 -64.7489 255.327 -65.4891 242.142 -67.2413C228.497 -68.485 217.477 -70.5902 209.08 -73.5569C200.199 -76.4988 193.675 -80.7736 189.509 -86.3813C185.343 -91.989 182.938 -101.082 182.296 -113.66ZM225.929 -2.85365C232.277 -3.50974 239.973 -4.30507 249.7 -5.29865C251.909 17.8918 239.89 55.818 213.643 108.48C142.306 117.428 63.5998 121.902 46.1 121.902C37.1 121.902 29.3 121.001 22.7 119.201C10.9999 121.902 11 134.502 11 134.502C33.2 147.102 53.6 153.401 72.2001 153.401C91.4001 153.401 112.4 150.701 135.2 145.301C148.053 142.335 184.108 139.369 220.163 136.403C249.748 133.969 279.333 131.535 296.1 129.102C333.9 123.102 383 120.102 403.4 120.102C424.4 120.102 438.2 122.502 444.8 127.302C452 131.502 457.4 144.401 461 166.002C464.6 187.602 466.4 200.602 466.4 245.002C466.4 288.802 463.7 334.401 458.3 381.801C452.9 429.201 446 466.101 437.6 492.501C429.2 518.301 420.5 536.001 411.5 545.601C402.5 555.201 391.7 560.001 379.1 560.001C366.5 560.001 345.8 554.601 317 543.801C311 541.401 305.9 540.201 301.7 540.201C298.1 540.201 296.3 541.701 296.3 544.701C296.3 547.701 299.6 552.501 306.2 559.101C313.4 565.701 322.4 577.701 333.2 595.101C344.6 612.501 353 627.501 358.4 640.101C364.4 653.301 372.2 659.901 381.8 659.901C395.6 659.901 414.5 647.601 438.5 623.001C463.1 599.001 481.1 557.301 492.5 497.901C504.5 437.901 513.2 355.102 518.6 249.502C520.546 215.441 522.295 204.004 523.847 193.857L523.848 193.851C524.209 191.488 524.56 189.195 524.9 186.701C527.3 172.901 530.6 163.301 534.8 157.901C543.8 146.501 548.3 136.302 548.3 127.302C548.3 118.302 535.4 105.702 509.6 89.5015C483.8 73.3015 464.9 65.2015 452.9 65.2015C441.5 65.2015 429.2 68.5015 416 75.1015C413.148 76.2421 397.512 78.7381 373.385 82.5893L373.384 82.5895C346.746 86.8415 309.758 92.7455 268.2 100.302C260.881 101.632 253.207 102.902 245.289 104.11C262.13 79.2279 279.2 60.7585 296.5 48.7014C305.5 42.1014 310 34.6014 310 26.2014C310 17.2014 299.5 5.20131 278.5 -9.79871C314.165 -14.1218 313.635 -13.9024 311.543 -13.0368C310.151 -12.4608 308.068 -11.5986 315.5 -11.5986C334.1 -12.1986 347.6 -14.8987 356 -19.6987C365 -24.4987 369.5 -30.1987 369.5 -36.7987C369.5 -43.9987 364.4 -49.9987 354.2 -54.7987C344 -59.5987 329.3 -61.9987 310.1 -61.9987C291.288 -61.9987 282.364 -59.1187 264.516 -53.3588L263.4 -52.9987C202.453 -32.6833 178.041 -31.752 118.835 -29.4936C113.971 -29.308 108.873 -29.1135 103.5 -28.8986C88.5 -28.2986 81 -25.5987 81 -20.7987C81 -15.9987 84 -12.2985 96 -5.29865C100.071 -3.65074 103.128 -1.93893 105.978 -0.342499L105.978 -0.342407C117.831 6.29584 126.122 10.9395 189 0.701538C200.816 -0.258377 207.996 -1.00038 225.925 -2.8532L225.927 -2.85352L225.929 -2.85365ZM124.611 68.1339C125.478 78.8991 136.378 83.439 157.31 81.7538C173.458 80.4539 186.336 72.194 195.946 56.9738C205.604 42.3516 210.168 31.7512 209.638 25.1725C209.157 19.1918 204.431 16.5626 195.46 17.2848C186.489 18.007 172.221 23.971 152.657 35.177C133.142 46.9812 123.793 57.9668 124.611 68.1339Z" fill="black"/>
</svg>
