<svg width="420" height="420" viewBox="0 0 420 420" fill="none" xmlns="http://www.w3.org/2000/svg">
<path d="M283.59 141.971C279.66 142.97 275.338 144.136 270.623 145.468C265.908 146.467 260.275 147.633 253.726 148.965C247.178 150.297 239.45 151.796 230.543 153.462C221.899 154.794 211.551 156.459 199.501 158.458C187.713 160.456 177.759 161.788 169.638 162.454C161.779 163.121 154.838 163.121 148.813 162.454C142.788 161.788 137.417 160.456 132.702 158.458C128.249 156.459 123.665 153.795 118.949 150.464C112.139 145.468 108.995 141.804 109.519 139.473C110.305 136.808 114.627 135.143 122.486 134.477C136.108 133.144 151.563 130.813 168.852 127.482C186.403 123.818 202.907 119.655 218.362 114.992C227.007 112.328 234.473 110.163 240.76 108.497C247.309 106.832 252.941 105.833 257.656 105.5C262.371 104.833 266.431 104.833 269.837 105.5C273.504 105.833 276.779 106.665 279.66 107.998C293.806 114.992 300.879 121.653 300.879 127.982C301.141 133.977 295.378 138.64 283.59 141.971ZM361.391 263.874C373.965 276.864 378.942 287.522 376.323 295.849C373.965 303.842 364.011 305.841 346.459 301.844C336.243 299.512 326.813 297.68 318.168 296.348C309.523 295.016 300.093 294.183 289.877 293.85C279.922 293.184 268.396 293.017 255.298 293.351C242.2 293.684 226.221 294.35 207.36 295.349C184.308 296.681 163.089 298.68 143.704 301.344C124.582 303.676 108.078 306.84 94.1945 310.837C88.1694 312.502 82.9303 313.668 78.477 314.334C74.0237 315 70.0944 315.167 66.6889 314.833C63.5454 314.167 60.6639 313.002 58.0443 311.336C55.4248 309.671 52.8052 307.506 50.1856 304.841C38.6595 292.851 33.2894 284.857 34.0752 280.86C35.1231 276.864 42.3269 275.698 55.6867 277.363C58.5683 277.696 62.6286 277.863 67.8677 277.863C73.1069 277.53 81.2276 277.03 92.2298 276.364C101.922 275.698 113.055 274.865 125.629 273.866C138.203 272.534 151.17 271.201 164.53 269.869C178.152 268.204 191.774 266.538 205.395 264.873C219.279 263.208 232.115 261.709 243.903 260.377C255.953 258.711 266.562 257.213 275.731 255.88C285.161 254.215 292.365 252.716 297.342 251.384C305.463 249.385 312.536 248.22 318.561 247.887C324.848 247.22 330.349 247.387 335.064 248.386C340.041 249.052 344.495 250.718 348.424 253.382C352.615 256.047 356.938 259.544 361.391 263.874Z" fill="black"/>
</svg>
