<svg width="420" height="420" viewBox="0 0 420 420" fill="none" xmlns="http://www.w3.org/2000/svg">
<path d="M177.061 44.1818C200.061 45.1818 217.061 48.5151 228.061 54.1818C239.394 59.8485 246.394 68.5151 249.061 80.1818C251.061 89.5151 251.394 97.5151 250.061 104.182C249.061 110.515 246.727 115.182 243.061 118.182C239.394 121.182 234.727 122.182 229.061 121.182C223.394 119.848 217.394 116.348 211.061 110.682C203.394 104.015 195.394 96.6818 187.061 88.6818C179.061 80.6818 170.727 72.1818 162.061 63.1818C154.394 55.5152 151.394 50.3485 153.061 47.6818C155.061 44.6818 163.061 43.5151 177.061 44.1818ZM403.061 151.182C410.061 156.182 414.894 160.848 417.561 165.182C420.561 169.182 420.894 172.682 418.561 175.682C416.561 178.348 411.727 180.348 404.061 181.682C396.727 183.015 386.061 183.348 372.061 182.682C358.394 182.015 342.561 181.848 324.561 182.182C306.894 182.182 288.227 182.848 268.561 184.182C249.227 185.182 229.561 186.515 209.561 188.182C189.561 189.848 170.394 191.848 152.061 194.182C134.061 196.182 117.561 198.515 102.561 201.182C87.8939 203.515 75.8939 205.849 66.5606 208.182C60.5606 209.849 55.3939 211.015 51.0606 211.682C46.7273 212.348 42.7273 212.682 39.0606 212.682C35.7273 212.348 32.2273 211.515 28.5606 210.182C24.8939 208.515 20.8939 206.182 16.5606 203.182C6.22727 196.515 1.39394 191.682 2.06061 188.682C3.06061 185.682 9.72727 183.848 22.0606 183.182C32.7273 182.848 46.3939 181.848 63.0606 180.182C80.0606 178.515 98.3939 176.682 118.061 174.682C137.727 172.348 157.894 169.848 178.561 167.182C199.561 164.182 219.561 161.348 238.561 158.682C257.561 155.682 274.894 152.848 290.561 150.182C306.227 147.515 318.561 145.182 327.561 143.182C336.561 141.182 344.561 139.848 351.561 139.182C358.894 138.182 365.394 138.015 371.061 138.682C377.061 139.348 382.561 140.682 387.561 142.682C392.894 144.682 398.061 147.515 403.061 151.182ZM372.061 336.182C372.061 346.848 370.727 355.348 368.061 361.682C365.394 367.682 361.894 371.348 357.561 372.682C353.227 374.348 348.394 373.515 343.061 370.182C338.061 367.182 333.061 361.348 328.061 352.682C318.394 336.348 306.394 318.682 292.061 299.682C277.727 280.682 262.894 262.848 247.561 246.182C238.894 236.848 235.894 231.015 238.561 228.682C241.561 226.015 250.227 228.015 264.561 234.682C285.894 244.349 303.394 253.349 317.061 261.682C331.061 270.015 342.061 278.182 350.061 286.182C358.394 294.182 364.061 302.182 367.061 310.182C370.394 318.182 372.061 326.848 372.061 336.182ZM178.061 277.682C175.394 279.349 170.894 283.015 164.561 288.682C158.227 294.349 151.894 300.515 145.561 307.182C131.561 321.515 116.561 333.848 100.561 344.182C84.5606 354.515 68.3939 362.515 52.0606 368.182C30.3939 375.515 18.8939 377.848 17.5606 375.182C16.2273 372.515 24.0606 365.182 41.0606 353.182C56.0606 342.515 69.0606 332.015 80.0606 321.682C91.3939 311.015 100.727 301.182 108.061 292.182C115.394 282.849 120.561 274.682 123.561 267.682C126.894 260.349 128.061 254.682 127.061 250.682C125.394 240.682 127.061 234.682 132.061 232.682C137.394 230.682 148.061 233.515 164.061 241.182C180.727 249.182 189.727 255.849 191.061 261.182C192.727 266.515 188.394 272.015 178.061 277.682Z" fill="black"/>
</svg>
