<?xml version="1.0" encoding="UTF-8"?>
<svg width="1000px" height="1000px" viewBox="0 0 1000 1000" version="1.1" xmlns="http://www.w3.org/2000/svg" xmlns:xlink="http://www.w3.org/1999/xlink">
    <title>s_ming_l</title>
    <g id="s_ming_l" stroke="none" stroke-width="1" fill="none" fill-rule="evenodd">
        <g id="夕-copy" transform="translate(127.000000, 0.000000)" fill="#000000" fill-rule="nonzero">
            <path d="M576.760976,172.351442 C584.435772,170.050136 591.726829,169.666584 598.634146,171.200789 C605.541463,172.734994 611.681301,173.502096 617.053659,173.502096 C625.495935,173.502096 639.886179,182.707323 660.22439,201.117778 C680.562602,219.528232 694.185366,235.63738 701.092683,249.445221 C705.697561,257.883346 708,263.828388 708,267.280348 C708,270.732309 706.84878,275.910249 704.546341,282.814169 C699.941463,291.252294 693.993496,299.306868 686.702439,306.977891 C679.411382,314.648914 672.504065,325.388346 665.980488,339.196186 C659.456911,353.004027 654.660163,362.592806 651.590244,367.962522 C638.543089,390.97559 632.019512,406.317635 632.019512,413.988658 C632.019512,416.289965 625.687805,431.056683 613.02439,458.288814 C600.360976,485.520945 590.95935,504.506726 584.819512,515.246158 L541.073171,595.791896 C534.165854,610.366839 529.369106,617.654311 526.682927,617.654311 C523.996748,617.654311 515.362602,628.010192 500.780488,648.721953 C486.198374,669.433714 475.645528,683.241555 469.121951,690.145475 C462.598374,697.049396 452.045528,709.323032 437.463415,726.966384 C421.346341,745.376839 391.222764,776.636257 347.092683,820.744637 C302.962602,864.853018 279.746341,886.907208 277.443902,886.907208 C274.373984,886.907208 271.304065,889.208515 268.234146,893.811128 C263.629268,899.180844 230.819512,916.824197 169.804878,946.741185 C108.790244,976.658174 71.3756098,993.534424 57.5609756,997.369935 C42.9788618,1000.43834 29.9317073,1000.8219 18.4195122,998.520588 L0,996.219282 L19.5707317,977.808827 C30.3154472,968.6036 45.8569106,956.90529 66.195122,942.713898 C86.5333333,928.522506 98.2373984,921.42681 101.307317,921.42681 C102.842276,921.42681 123.180488,905.317663 162.321951,873.099367 C225.255285,823.23772 276.292683,769.540561 315.434146,712.00789 C329.24878,688.994822 338.842276,675.378757 344.214634,671.159694 C349.586992,666.940632 354,661.37914 357.453659,654.47522 C360.907317,647.571299 368.965854,635.105888 381.629268,617.078984 C394.292683,599.052081 400.62439,587.353771 400.62439,581.984055 C400.62439,576.614339 383.164228,561.847621 348.243902,537.683899 C313.323577,513.520178 295.095935,498.753459 293.560976,493.383743 C292.026016,488.014027 288.572358,482.26076 283.2,476.123942 C270.152846,461.548999 276.676423,447.741158 302.770732,434.700419 C317.352846,427.029396 328.673171,422.235007 336.731707,420.317252 C344.790244,418.399496 354.76748,415.522862 366.663415,411.687351 C378.55935,407.85184 389.495935,409.386044 399.473171,416.289965 C409.450407,423.193885 423.073171,429.330703 440.341463,434.700419 C457.609756,440.070135 469.313821,444.289198 475.453659,447.357607 C481.593496,450.426016 487.349593,449.275362 492.721951,443.905646 C501.931707,433.166215 516.897561,402.482124 537.619512,351.853374 C558.341463,301.224624 567.16748,273.225391 564.097561,267.855675 C561.795122,264.787266 558.725203,263.253062 554.887805,263.253062 C549.515447,263.253062 538.962602,257.69157 523.229268,246.568587 C507.495935,235.445604 498.861789,227.199255 497.326829,221.829539 C494.256911,214.158516 494.256911,207.638147 497.326829,202.268431 C498.861789,198.43292 508.839024,193.063204 527.258537,186.159283 C545.678049,179.255363 562.178862,174.652749 576.760976,172.351442 Z M417.892683,6.65735185 C428.637398,-7.15048903 448.59187,0.520533684 477.756098,29.67042 C487.733333,38.108545 495.79187,49.9986302 501.931707,65.3406756 C508.071545,80.682721 509.990244,94.1070108 507.687805,105.613545 C506.152846,114.818772 498.861789,125.558204 485.814634,137.83184 C472.76748,150.105477 462.982114,161.995562 456.458537,173.502096 C449.934959,185.00863 439.957724,197.474042 426.526829,210.898332 C413.095935,224.322621 401.00813,238.705789 390.263415,254.047834 C359.564228,296.238459 325.795122,333.826471 288.956098,366.811868 C259.02439,394.42755 239.069919,412.070902 229.092683,419.741925 C219.115447,427.412948 208.370732,433.549766 196.858537,438.152379 C182.276423,444.289198 167.118699,455.220405 151.385366,470.946001 C135.652033,486.671598 127.785366,492.808416 127.785366,489.356456 C127.785366,485.904496 130.279675,482.068984 135.268293,477.849922 C140.256911,473.630859 142.75122,469.795348 142.75122,466.343388 C142.75122,462.891428 150.426016,451.193118 165.77561,431.248459 C193.404878,397.495959 223.720325,355.305334 256.721951,304.676584 L320.039024,214.925618 C338.458537,190.378346 347.668293,177.529383 347.668293,176.378729 C347.668293,175.228076 351.889431,167.365278 360.331707,152.790335 C391.030894,105.997096 407.531707,66.491329 409.834146,34.2730336 C410.601626,21.232295 413.287805,12.0270678 417.892683,6.65735185 Z" id="夕"></path>
        </g>
    </g>
</svg>