<svg width="420" height="420" viewBox="0 0 420 420" fill="none" xmlns="http://www.w3.org/2000/svg">
<path d="M213.5 235.782C213.167 244.782 213 252.449 213 258.782C213 265.115 213.167 270.949 213.5 276.282C214.167 281.615 215 286.949 216 292.282C217 297.615 218.333 303.782 220 310.782C222.667 323.115 226.833 331.782 232.5 336.782C238.5 341.449 248.167 344.949 261.5 347.282C267.5 348.282 274.167 348.949 281.5 349.282C288.833 349.615 296.167 349.615 303.5 349.282C311.167 348.615 318.667 347.615 326 346.282C333.333 344.949 339.833 343.282 345.5 341.282C354.167 338.282 360.833 332.115 365.5 322.782C370.5 313.115 374.333 298.782 377 279.782C379.333 262.782 382.5 254.449 386.5 254.782C390.833 254.782 394 263.949 396 282.282C397.667 296.949 399.833 309.282 402.5 319.282C405.167 328.949 407.833 335.615 410.5 339.282C415.833 346.949 417.833 353.615 416.5 359.282C415.5 364.615 409 370.115 397 375.782C387 380.449 375.5 384.282 362.5 387.282C349.833 390.282 336.833 392.449 323.5 393.782C310.5 395.115 297.833 395.449 285.5 394.782C273.5 394.449 263.333 393.282 255 391.282C239.667 387.282 227.167 381.782 217.5 374.782C207.833 368.115 200 359.282 194 348.282C188.333 336.949 184.333 323.115 182 306.782C180 290.115 178.833 270.115 178.5 246.782C166.833 250.782 155.333 254.782 144 258.782C133 262.782 122.833 266.615 113.5 270.282C104.5 273.615 96.3334 276.782 89.0001 279.782C82.0001 282.449 76.6667 284.615 73.0001 286.282C66.3334 289.282 60.8334 291.615 56.5001 293.282C52.1667 294.615 48.0001 295.282 44.0001 295.282C40.3334 295.282 36.3334 294.449 32.0001 292.782C27.6667 291.115 22.3333 288.782 16 285.782C5.33333 280.449 0 275.782 0 271.782C0.333333 267.449 6.66667 264.615 19 263.282C25 262.615 31.6667 261.615 39.0001 260.282C46.6667 258.615 57.8334 255.782 72.5001 251.782C77.8334 250.449 84.3334 248.615 92.0001 246.282C100 243.949 108.667 241.449 118 238.782C127.333 235.782 137.167 232.615 147.5 229.282C157.833 225.949 168.167 222.615 178.5 219.282C178.5 189.282 178.167 164.615 177.5 145.282C177.167 125.615 176.333 109.782 175 97.7821C173.667 85.4487 171.833 75.9487 169.5 69.2821C167.5 62.6154 165 57.1154 162 52.7821C151.333 38.1154 148.667 29.282 154 26.282C159.667 22.9487 174.667 26.1154 199 35.7821C207.333 39.1154 214 42.1154 219 44.782C224 47.4487 227.5 50.2821 229.5 53.2821C231.5 56.2821 232.167 59.7821 231.5 63.7821C230.833 67.7821 229.333 72.7821 227 78.7821C225.333 82.7821 223.833 87.2821 222.5 92.2821C221.5 96.9487 220.5 103.949 219.5 113.282C218.5 122.282 217.5 134.282 216.5 149.282C215.833 163.949 215.167 183.115 214.5 206.782C237.5 198.782 258.167 191.282 276.5 184.282C294.833 177.282 309.333 171.615 320 167.282C330.333 162.949 339.333 159.615 347 157.282C354.667 154.615 361.5 152.949 367.5 152.282C373.5 151.615 379 151.949 384 153.282C389 154.282 394 156.115 399 158.782C413.333 166.449 420 173.282 419 179.282C418 184.949 409.167 189.115 392.5 191.782C371.833 195.115 346.5 200.449 316.5 207.782C286.833 214.782 252.5 224.115 213.5 235.782Z" fill="black"/>
</svg>
