<svg width="420" height="420" viewBox="0 0 420 420" fill="none" xmlns="http://www.w3.org/2000/svg">
<path d="M282.911 110.591C276.213 112.921 269.772 114.919 263.588 116.584C257.663 118.249 251.608 119.914 245.425 121.578C239.241 122.91 232.8 124.409 226.102 126.073C219.403 127.405 212.189 128.737 204.46 130.069C192.866 132.067 183.204 133.731 175.475 135.063C167.746 136.062 161.047 136.562 155.379 136.562C149.711 136.562 144.687 136.062 140.307 135.063C135.927 133.731 131.419 131.9 126.781 129.569C117.506 124.908 112.997 121.079 113.255 118.082C113.513 114.753 119.052 112.588 129.873 111.59C139.148 110.591 147.65 109.592 155.379 108.593C163.366 107.261 171.353 105.596 179.34 103.599C187.584 101.601 196.344 99.27 205.619 96.6064C214.894 93.6097 225.586 90.1136 237.695 86.1181C243.621 84.1204 248.516 82.6221 252.381 81.6232C256.503 80.6243 260.11 80.1249 263.202 80.1249C266.293 79.7919 269.256 80.1249 272.09 81.1238C275.182 81.7897 278.66 82.955 282.525 84.6198C289.996 88.2824 293.99 92.9438 294.505 98.6041C295.02 103.931 291.156 107.927 282.911 110.591ZM271.704 188.503C280.979 195.828 285.23 202.155 284.457 207.482C283.942 212.476 277.501 214.807 265.134 214.474C260.754 214.474 254.571 214.807 246.584 215.473C238.855 216.139 230.481 217.138 221.464 218.47C212.447 219.802 203.558 221.3 194.798 222.965C186.296 224.629 179.211 226.128 173.543 227.46C165.814 229.457 158.986 230.123 153.06 229.457C147.135 228.791 140.694 226.294 133.737 221.966C125.493 216.971 121.628 212.809 122.143 209.48C122.916 206.15 127.94 204.319 137.215 203.986C143.656 203.986 150.098 203.653 156.539 202.987C162.98 201.988 169.678 200.656 176.634 198.992C183.848 197.327 191.449 195.329 199.436 192.998C207.423 190.668 216.182 187.837 225.715 184.508C231.383 182.51 236.278 181.178 240.401 180.512C244.523 179.513 248.259 179.18 251.608 179.513C254.957 179.513 258.178 180.346 261.269 182.011C264.619 183.342 268.097 185.507 271.704 188.503ZM357.112 294.385C366.387 306.038 369.736 314.529 367.16 319.856C364.841 324.85 355.308 326.016 338.562 323.352C329.544 322.02 319.11 320.855 307.258 319.856C282.533 317.016 265.214 316.205 240.401 316.859C227.776 316.859 215.925 317.192 204.846 317.858C168.043 320.388 145.701 324.015 109.777 335.339C103.593 337.336 98.4405 338.668 94.3183 339.334C90.4537 340 86.8467 340.166 83.4974 339.834C80.148 339.168 76.6699 337.669 73.0629 335.339C69.4559 333.008 65.076 329.845 59.9232 325.849C51.9363 319.523 48.3294 314.529 49.1023 310.866C50.1329 307.203 55.2857 305.705 64.5607 306.371C71.7747 306.704 81.4362 306.704 93.5454 306.371C123.082 304.781 137.115 301.809 166.587 298.879C183.333 296.882 199.822 294.884 216.054 292.886C244.306 288.829 264.895 284.806 292.959 278.902C302.234 276.904 310.092 275.739 316.533 275.406C322.974 274.74 328.514 275.073 333.151 276.405C338.046 277.404 342.298 279.401 345.904 282.398C349.511 285.395 353.247 289.39 357.112 294.385Z" fill="black"/>
</svg>
