<svg width="420" height="420" viewBox="0 0 420 420" fill="none" xmlns="http://www.w3.org/2000/svg">
<path d="M79.1818 299.75C77.5152 308.083 75.5151 313.917 73.1818 317.25C71.1818 320.25 69.1818 321.75 67.1818 321.75C62.8485 321.75 58.6818 318.083 54.6818 310.75C51.0152 303.417 48.5152 292.25 47.1818 277.25C45.5152 256.917 44.0152 240.25 42.6818 227.25C41.3485 213.917 40.0152 202.583 38.6818 193.25C37.3485 183.917 35.8485 175.583 34.1818 168.25C32.8485 160.583 31.0152 152.25 28.6818 143.25C27.0152 136.583 24.8485 130.417 22.1818 124.75C19.8485 119.083 17.1818 113.917 14.1818 109.25C10.8485 103.917 8.84849 99.4167 8.18182 95.75C7.51515 92.0833 8.68182 89.5833 11.6818 88.25C14.6818 86.5833 19.6818 86.25 26.6818 87.25C34.0152 88.25 43.6818 90.75 55.6818 94.75C90.3485 92.4167 123.682 89.75 155.682 86.75C188.015 83.75 216.848 80.9167 242.182 78.25C267.515 75.5833 288.349 73.0833 304.682 70.75C321.349 68.4167 331.682 66.75 335.682 65.75C342.015 63.75 347.182 62.4167 351.182 61.75C355.515 60.75 359.515 60.75 363.182 61.75C366.848 62.4167 370.682 64.0833 374.682 66.75C378.682 69.0833 383.682 72.5833 389.682 77.25C398.682 84.25 405.348 89.9167 409.682 94.25C414.348 98.25 417.348 101.75 418.682 104.75C420.015 107.75 419.849 110.417 418.182 112.75C416.515 115.083 413.849 117.917 410.182 121.25C401.515 128.917 395.182 144.083 391.182 166.75C386.182 195.083 381.348 219.417 376.682 239.75C372.348 259.75 368.015 276.75 363.682 290.75C359.348 304.75 354.848 316.25 350.182 325.25C345.515 333.917 340.682 340.917 335.682 346.25C326.015 356.25 318.682 360.75 313.682 359.75C308.682 358.75 305.182 352.25 303.182 340.25C301.182 328.583 299.349 319.583 297.682 313.25C296.349 306.583 294.682 301.583 292.682 298.25C290.682 294.917 288.182 292.917 285.182 292.25C282.182 291.25 278.182 290.417 273.182 289.75C269.515 289.417 262.182 289.417 251.182 289.75C240.515 290.083 228.515 290.583 215.182 291.25C202.182 291.917 189.015 292.75 175.682 293.75C162.682 294.75 151.682 295.75 142.682 296.75C134.348 297.75 127.182 298.583 121.182 299.25C115.182 299.917 109.682 300.417 104.682 300.75C100.015 301.083 95.6818 301.25 91.6818 301.25C87.6818 300.917 83.5152 300.417 79.1818 299.75ZM239.182 99.75C252.848 107.083 260.682 112.75 262.682 116.75C264.682 120.75 263.682 125.25 259.682 130.25C255.682 135.583 253.182 142.917 252.182 152.25C251.515 161.25 252.015 170.417 253.682 179.75C254.682 185.083 257.848 188.417 263.182 189.75C268.848 190.75 275.348 189.917 282.682 187.25C291.015 183.917 297.515 182.417 302.182 182.75C306.849 183.083 312.682 185.583 319.682 190.25C329.015 196.583 332.515 202.417 330.182 207.75C328.182 212.75 319.182 216.083 303.182 217.75C285.182 219.417 270.515 219.417 259.182 217.75C248.182 216.083 239.682 212.917 233.682 208.25C227.682 203.25 223.848 196.75 222.182 188.75C220.515 180.417 220.182 170.417 221.182 158.75C221.515 150.75 221.682 144.083 221.682 138.75C221.682 133.417 221.349 128.75 220.682 124.75C220.015 120.417 218.849 116.583 217.182 113.25C215.515 109.583 213.348 105.75 210.682 101.75C201.015 102.417 191.848 103.25 183.182 104.25C174.848 104.917 166.348 105.583 157.682 106.25C164.348 110.25 169.515 113.75 173.182 116.75C176.848 119.417 179.515 121.917 181.182 124.25C182.848 126.583 183.515 128.75 183.182 130.75C182.848 132.75 182.015 134.75 180.682 136.75C178.682 140.083 177.015 143.083 175.682 145.75C174.349 148.417 173.015 151.25 171.682 154.25C170.682 156.917 169.682 159.917 168.682 163.25C167.682 166.583 166.515 170.417 165.182 174.75C163.182 182.417 160.015 189.917 155.682 197.25C151.682 204.25 147.015 210.917 141.682 217.25C136.348 223.25 130.682 228.583 124.682 233.25C118.682 237.917 113.015 241.417 107.682 243.75C91.6818 250.75 83.1818 253.583 82.1818 252.25C81.1818 250.583 86.3485 243.917 97.6818 232.25C105.682 223.583 112.515 213.917 118.182 203.25C124.182 192.25 128.515 182.583 131.182 174.25C135.848 159.25 138.348 147.083 138.682 137.75C139.015 128.417 136.848 118.75 132.182 108.75C119.848 110.083 107.848 111.417 96.1818 112.75C84.8485 113.75 74.3485 115.083 64.6818 116.75C66.6818 130.75 68.5152 145.917 70.1818 162.25C71.8485 178.25 73.3485 193.917 74.6818 209.25C76.0152 224.25 77.1818 238.083 78.1818 250.75C79.1818 263.417 79.8485 273.417 80.1818 280.75C91.1818 279.75 101.515 278.75 111.182 277.75C121.182 276.75 132.182 275.583 144.182 274.25C156.515 272.583 170.682 270.75 186.682 268.75C202.682 266.417 222.348 263.75 245.682 260.75C255.348 259.417 263.349 258.583 269.682 258.25C276.015 257.917 281.349 258.25 285.682 259.25C290.349 260.25 294.182 262.25 297.182 265.25C300.515 267.917 304.015 271.75 307.682 276.75C312.015 282.083 314.849 285.083 316.182 285.75C317.849 286.083 319.349 284.417 320.682 280.75C328.015 260.417 334.182 237.25 339.182 211.25C344.182 185.25 347.515 156.083 349.182 123.75C349.515 117.75 349.515 113.083 349.182 109.75C348.848 106.083 347.682 103.25 345.682 101.25C344.015 99.25 341.348 97.9167 337.682 97.25C334.015 96.5833 329.182 96.0833 323.182 95.75C321.182 95.75 317.349 95.9167 311.682 96.25C306.349 96.25 299.848 96.4167 292.182 96.75C284.515 97.0833 276.015 97.5833 266.682 98.25C257.682 98.5833 248.515 99.0833 239.182 99.75Z" fill="black"/>
</svg>
