<svg width="420" height="420" viewBox="0 0 420 420" fill="none" xmlns="http://www.w3.org/2000/svg">
<path d="M148.053 338.9C162.386 337.567 176.886 336.233 191.553 334.9C206.219 333.567 220.553 332.067 234.553 330.4C237.886 320.4 240.719 311.567 243.053 303.9C245.386 296.233 247.553 288.567 249.553 280.9C251.886 272.9 254.053 264.4 256.053 255.4C258.386 246.067 261.053 234.9 264.053 221.9C267.053 209.567 264.386 203.733 256.053 204.4C246.386 205.067 235.719 206.233 224.053 207.9C212.386 209.567 201.553 211.233 191.553 212.9L148.053 338.9ZM176.553 90.9C167.553 91.9 159.719 92.5667 153.053 92.9C146.719 93.2333 140.886 93.2333 135.553 92.9C130.219 92.2333 125.219 91.2333 120.553 89.9C115.886 88.5667 110.886 86.7333 105.553 84.4C96.8859 80.7333 92.8859 77.5667 93.5526 74.9C94.5526 71.9 99.8859 70.2333 109.553 69.9C131.553 69.2333 153.386 67.2333 175.053 63.9C197.053 60.2333 217.886 55.5667 237.553 49.9C249.219 46.5667 259.386 44.0667 268.053 42.4C277.053 40.7333 284.886 39.7333 291.553 39.4C298.553 38.7333 304.719 38.9 310.053 39.9C315.719 40.5667 320.886 41.9 325.553 43.9C338.886 49.5667 344.886 55.7333 343.553 62.4C342.553 69.0667 334.053 73.2333 318.053 74.9C301.053 76.5667 286.719 78.0667 275.053 79.4C263.386 80.4 253.386 81.4 245.053 82.4C237.053 83.4 230.219 84.2333 224.553 84.9C218.886 85.5667 213.386 86.2333 208.053 86.9C215.386 91.9 221.053 96.2333 225.053 99.9C229.053 103.567 231.719 106.733 233.053 109.4C234.386 112.067 234.553 114.567 233.553 116.9C232.886 119.233 231.553 121.733 229.553 124.4C227.219 127.4 225.053 130.4 223.053 133.4C221.053 136.4 218.886 140.233 216.553 144.9C214.553 149.233 212.219 154.9 209.553 161.9C206.886 168.567 203.719 177.233 200.053 187.9C217.719 184.567 230.386 181.9 238.053 179.9C245.719 177.9 250.886 176.067 253.553 174.4C258.219 171.067 262.219 168.567 265.553 166.9C269.219 165.233 272.719 164.4 276.053 164.4C279.386 164.067 282.886 164.567 286.553 165.9C290.553 167.233 295.053 169.4 300.053 172.4C309.053 177.733 315.886 182.233 320.553 185.9C325.553 189.567 328.886 192.9 330.553 195.9C332.553 198.9 333.053 201.567 332.053 203.9C331.053 206.233 329.219 208.567 326.553 210.9C322.219 214.567 318.219 218.733 314.553 223.4C311.219 227.733 307.553 234.067 303.553 242.4C299.553 250.4 295.053 261.067 290.053 274.4C285.053 287.733 278.886 305.067 271.553 326.4C285.886 324.733 299.386 323.233 312.053 321.9C324.719 320.567 336.053 319.067 346.053 317.4C356.719 316.067 365.719 315.233 373.053 314.9C380.719 314.567 387.219 314.9 392.553 315.9C398.219 316.9 403.053 318.733 407.053 321.4C411.386 323.733 415.553 326.9 419.553 330.9C433.886 344.567 439.553 353.9 436.553 358.9C433.553 363.567 418.886 364.233 392.553 360.9C381.553 359.567 368.053 358.4 352.053 357.4C336.053 356.4 319.386 355.567 302.053 354.9C284.719 354.233 267.719 353.9 251.053 353.9C234.386 353.9 220.053 354.233 208.053 354.9C193.719 355.9 179.219 357.067 164.553 358.4C149.886 359.733 135.886 361.233 122.553 362.9C109.219 364.9 96.8859 366.9 85.5526 368.9C74.5526 370.9 65.5526 372.9 58.5526 374.9C51.2192 376.9 44.8859 378.4 39.5526 379.4C34.5526 380.4 29.8859 380.567 25.5526 379.9C21.5526 379.567 17.386 378.567 13.0526 376.9C9.05263 375.233 4.38597 372.567 -0.947369 368.9C-12.9474 361.233 -18.614 355.9 -17.9474 352.9C-17.2807 349.567 -10.614 348.067 2.05263 348.4C11.7193 348.733 25.7192 348.4 44.0526 347.4C62.3859 346.4 86.2192 344.567 115.553 341.9L153.553 220.9C142.886 223.9 134.219 226.233 127.553 227.9C121.219 229.567 115.719 230.4 111.053 230.4C106.386 230.4 102.053 229.733 98.0526 228.4C94.3859 227.067 90.0526 224.9 85.0526 221.9C72.3859 214.233 66.2192 209.067 66.5526 206.4C67.2192 203.4 75.2192 201.9 90.5526 201.9C98.2192 201.9 108.386 201.233 121.053 199.9C133.719 198.567 147.219 196.733 161.553 194.4C168.219 172.4 172.719 153.4 175.053 137.4C177.719 121.4 178.219 105.9 176.553 90.9Z" fill="black"/>
</svg>
