<svg width="420" height="420" viewBox="0 0 420 420" fill="none" xmlns="http://www.w3.org/2000/svg">
<path d="M327.217 185.841C331.94 191.844 335.226 197.181 337.075 201.85C339.128 206.519 339.539 210.521 338.307 213.856C337.28 216.858 334.61 219.026 330.297 220.36C325.985 221.694 319.824 221.694 311.814 220.36C285.527 216.358 251.025 217.858 208.308 224.862C189.414 227.864 173.498 231.032 160.56 234.367C147.621 237.702 136.018 241.371 125.749 245.373C121.847 247.041 118.459 248.208 115.584 248.875C112.914 249.208 110.244 248.875 107.574 247.874C104.904 246.874 102.132 245.04 99.2567 242.371C96.5869 239.703 93.4037 235.868 89.7071 230.865C83.3406 222.528 80.4654 216.858 81.0815 213.856C81.903 210.521 86.7292 209.02 95.5601 209.354C99.6675 209.354 103.57 209.354 107.266 209.354C110.963 209.354 114.659 209.354 118.356 209.354C122.258 209.02 126.263 208.687 130.37 208.353C134.478 208.02 139.098 207.52 144.233 206.852C155.323 205.518 166.618 203.851 178.119 201.85C189.825 199.515 201.223 197.181 212.313 194.846C223.403 192.178 234.082 189.51 244.35 186.842C254.824 183.84 264.477 180.839 273.307 177.837C281.111 175.169 287.581 173.335 292.715 172.334C298.054 171 302.573 170.666 306.269 171.334C310.171 171.667 313.663 173.168 316.743 175.836C320.029 178.17 323.52 181.506 327.217 185.841Z" fill="black"/>
</svg>
