<?xml version="1.0" encoding="UTF-8"?>
<svg width="825px" height="1175px" viewBox="0 0 825 1175" version="1.1" xmlns="http://www.w3.org/2000/svg" xmlns:xlink="http://www.w3.org/1999/xlink">
    <title>santan</title>
    <g id="santan" stroke="none" stroke-width="1" fill="none" fill-rule="evenodd">
        <g id="åŒå“" transform="translate(83.885124, 194.488604)" fill="#000000" fill-rule="nonzero">
            <path d="M206.380397,18.8290215 C224.770255,17.3430503 234.261794,16.6000647 234.855016,16.6000647 C235.448237,15.6094172 244.939776,19.4481762 263.329634,28.1163417 C281.719491,36.7845071 292.694084,42.3568992 296.253411,44.8335179 C301.592402,48.7961078 305.003424,56.225964 306.486477,67.1230863 C307.96953,78.0202086 303.668676,92.508428 293.583915,110.587745 C283.499155,128.667061 278.456775,138.821198 278.456775,141.050155 C278.456775,143.279111 272.524562,151.328122 260.660138,165.197187 C245.236387,186.991432 241.083838,199.126863 248.202493,201.603482 C251.168599,201.603482 256.062674,206.804381 262.884718,217.20618 C269.706762,227.607978 271.931341,235.656989 269.558456,241.353212 C267.185572,247.049435 261.401665,251.012025 252.206736,253.240982 C243.011807,255.469939 228.032972,256.336755 207.270229,255.841432 C184.134602,255.841432 160.998975,259.061036 137.863348,265.500245 L102.270075,275.159057 L104.93957,288.532798 C105.532792,296.457978 102.863296,301.658878 96.931084,304.135496 C91.5920931,306.612115 84.3251333,305.745298 75.1302045,301.535047 C65.9352757,297.324795 59.8547583,291.504741 56.8886523,284.074885 C53.9225462,277.140352 49.4733871,269.586665 43.541175,261.413824 C37.6089629,253.240982 33.6047197,238.133608 31.5284455,216.091701 C29.4521712,194.049795 26.4860652,177.084957 22.6301273,165.197187 C18.7741894,153.309417 16.6979152,142.659957 16.4013046,133.248806 C16.104694,123.837655 13.2868932,112.69287 7.94790234,99.8144532 C-6.88262793,64.1511438 -0.653805216,48.0531222 26.6343705,51.5203884 C35.5326887,52.5110359 49.7699977,49.5390935 69.3462977,42.6045611 C97.8209158,32.6980863 143.498949,24.7729064 206.380397,18.8290215 Z M213.499052,69.3520431 C214.685494,63.9034819 214.982105,60.6838776 214.388884,59.6932301 C213.795663,58.7025827 210.236335,58.2072589 203.710902,58.2072589 C168.117629,60.1885539 142.312507,63.4081582 126.295534,67.8660719 C116.803995,70.3426906 106.719234,72.0763237 96.0412522,73.0669712 C83.5836068,75.0482661 76.3166469,78.3917014 74.2403727,83.0972769 C72.1640984,87.8028524 71.7191825,99.8144532 72.905625,119.132079 C74.6852886,141.421647 77.6513946,160.739273 81.8039431,177.084957 L88.9225977,202.346468 L101.380243,200.860496 C109.68534,199.374525 120.659932,198.631539 134.30402,198.631539 C143.79556,198.631539 150.024382,197.764723 152.990488,196.03109 C155.956595,194.297457 160.405754,188.972727 166.337966,180.056899 C175.829505,167.673806 184.134602,153.557079 191.253257,137.706719 C199.558354,120.370388 206.973619,97.5854963 213.499052,69.3520431 Z M401.253565,5.4552805 C421.423086,0.502043094 442.185829,-1.35542093 463.541792,-0.117111582 C484.897756,1.12119777 510.406268,2.11184525 540.067329,2.85483086 C569.728389,3.59781648 587.821636,5.20761863 594.34707,7.68423734 C607.397936,12.6374747 622.080161,21.0579783 638.393744,32.9457481 C654.707328,44.8335179 665.830225,55.2353165 671.762438,64.1511438 C680.660756,76.0389136 675.914986,89.1649927 657.525128,103.529381 C646.847147,112.940532 636.614081,123.713824 626.825931,135.849255 C617.037781,147.984687 609.1776,156.776683 603.245388,162.225245 C597.313176,167.673806 594.34707,171.017241 594.34707,172.25555 C594.34707,173.49386 600.872503,181.047547 613.923369,194.916611 C632.906448,217.20618 637.355607,232.685047 627.270847,241.353212 C617.186086,250.021378 592.270795,252.126504 552.524974,247.66859 C528.202904,244.696647 502.101171,244.201324 474.219774,246.182619 L431.507847,249.154561 L431.507847,265.500245 C431.507847,274.911396 429.876489,281.845928 426.613772,286.303842 C423.351055,290.761755 419.050202,292.247727 413.711211,290.761755 C408.37222,290.266432 402.143397,286.05618 395.024743,278.131 C387.906088,270.20582 384.346761,264.261935 384.346761,260.299345 C384.346761,256.832079 380.490823,248.411575 372.778947,235.037834 C365.067071,221.664093 360.321302,206.061396 358.541638,188.229741 C356.761974,170.398086 352.757731,150.956629 346.528909,129.90537 C340.300086,108.854111 335.406011,88.9173309 331.846684,70.0950287 C328.880578,57.7119352 327.54583,49.6629244 327.84244,45.9479963 C328.139051,42.2330683 329.473799,38.6419712 331.846684,35.174705 C343.711108,23.7822589 366.846735,13.8757841 401.253565,5.4552805 Z M516.931701,123.589993 C543.033435,80.0015035 552.96989,55.8544712 546.741067,51.1488956 C540.512245,46.4433201 514.262206,45.8241654 467.990952,49.2914316 C421.719697,52.7586978 397.397627,56.9689496 395.024743,61.922187 C393.8383,64.8941294 393.986605,73.438464 395.469658,87.5551906 C396.952712,101.671917 397.397627,115.664813 396.804406,129.533878 C395.617964,153.309417 400.067123,170.150424 410.151883,180.056899 C412.524768,182.533518 420.384949,182.162025 433.732427,178.942421 C447.079904,175.722816 457.60958,173.370029 465.321456,171.884057 C483.118092,168.912115 500.321508,152.814093 516.931701,123.589993 Z" id="å“"></path>
        </g>
        <g id="ä¸‰" transform="translate(112.000000, -63.000000)" fill="#000000" fill-rule="nonzero">
            <path d="M463.180022,180.270167 C466.837996,177.651547 470.365329,176.342236 473.76202,176.342236 C477.15871,176.342236 482.51503,178.306202 489.830979,182.234133 C499.2372,185.725627 508.120852,187.907811 516.481937,188.780685 C535.816945,191.399306 549.403708,195.545455 557.242225,201.219134 C565.080742,206.892812 569,215.185111 569,226.096031 C569,232.206147 565.995235,239.298245 559.985706,247.372325 C553.976176,255.446406 548.097288,260.138102 542.349043,261.447412 C538.1685,263.193159 527.847786,263.08405 511.386901,261.120084 C494.926015,259.156119 484.605301,257.301262 480.424759,255.555515 C478.857056,254.246205 457.954344,251.736693 417.716624,248.026981 C377.478904,244.317268 363.697005,244.317268 329.141383,245.40836 C248.598175,248.026981 214.370162,250.625016 177.887964,267.646051 C166.316591,273.044759 148.463047,285.669654 145.588924,285.669654 C142.714801,285.669654 135.529494,288.615603 124.033003,294.5075 C112.536511,300.399396 98.1658971,303.563563 80.9211599,304 C68.3795328,304 60.14909,303.672672 56.2298316,303.018017 C52.3105731,302.363362 45.3865499,299.199195 35.4577618,293.525517 C22.3935669,286.106091 14.8163339,282.396378 12.7260627,282.396378 C10.6357916,282.396378 8.41487845,280.323304 6.06332337,276.177154 C3.7117683,272.031004 1.75213907,267.339309 0.184435692,262.102067 C-0.860699896,257.737699 2.53599076,252.064021 10.3745077,245.081032 C16.6453212,240.280227 22.3935669,237.116061 27.6192449,235.588532 C32.8449228,234.061003 44.6026982,231.551491 62.892571,228.059997 C187.786274,208.856778 196.670447,197.291203 309.54509,193.363271 C405.697564,190.308214 456.909208,185.943846 463.180022,180.270167 Z M241.694011,106.775529 C276.183485,101.974724 296.171703,98.7014483 301.658665,96.9557011 C307.145627,95.2099539 317.335699,94.7735171 332.228881,95.6463907 C347.122063,96.5192643 358.095987,96.9557011 365.150652,96.9557011 C372.205317,96.9557011 380.958328,100.883632 391.409684,108.739495 C401.338472,116.595357 406.825433,123.469237 407.870569,129.361133 C408.915705,135.25303 405.519014,141.690473 397.680497,148.673462 C391.932251,154.34714 387.490425,158.711508 384.355018,161.766566 C377.561637,168.313118 364.497442,167.658463 345.162434,159.8026 C335.233646,155.874669 320.863031,154.34714 302.050591,155.220014 C281.147879,156.965761 259.591958,159.8026 237.382826,163.730531 C215.173695,167.658463 202.240142,170.71352 198.582168,172.895704 C195.446761,175.514325 192.441996,176.605417 189.567873,176.16898 C186.69375,175.732543 179.769727,172.895704 168.795803,167.658463 C158.867015,163.730531 152.204276,160.348146 148.807585,157.511307 C145.410895,154.674468 142.40613,150.419209 139.793291,144.745531 C135.090181,135.580358 135.090181,129.252024 139.793291,125.76053 C146.064104,122.269035 180.031011,115.940702 241.694011,106.775529 Z M292.563629,9.78537244 C313.466341,8.03962525 326.661178,5.74833205 332.148139,2.91149286 C337.635101,0.074653663 342.730137,-0.689110736 347.433247,0.620199662 C352.136357,1.92951006 363.502207,3.78436646 381.530796,6.18476885 C399.559385,8.58517125 411.186518,11.3129012 416.412196,14.3679588 C424.250713,18.7323268 427.908688,27.3519536 427.38612,40.2268392 C426.863552,53.1017248 422.160442,62.5942251 413.276789,68.7043403 C408.051111,72.6322715 403.086717,74.8144555 398.383607,75.2508923 C393.680497,75.6873291 385.84198,74.5962371 374.868056,71.9776163 C357.623319,67.1768115 333.846485,65.9766103 303.537553,68.3770127 C273.228621,70.7774151 246.055095,75.4691107 222.016977,82.4520995 C200.069129,89.4350883 186.221083,92.9265827 180.472837,92.9265827 C177.33743,92.9265827 170.674691,89.6533067 160.484619,83.1067547 C150.294547,76.5602027 144.415659,73.2869267 142.847956,73.2869267 C136.054575,73.2869267 131.874032,66.9585931 130.306329,54.301926 L129.522477,43.1727876 L172.63432,31.388994 C214.439744,21.3509476 254.41618,14.1497404 292.563629,9.78537244 Z"></path>
        </g>
    </g>
</svg>