<?xml version="1.0" encoding="UTF-8"?>
<svg width="825px" height="1175px" viewBox="0 0 825 1175" version="1.1" xmlns="http://www.w3.org/2000/svg" xmlns:xlink="http://www.w3.org/1999/xlink">
    <title>shuangtan</title>
    <g id="shuangtan" stroke="none" stroke-width="1" fill="none" fill-rule="evenodd">
        <path d="M614.287755,-86.1462614 C626.751001,-83.9219428 636.246807,-80.8326114 642.775174,-76.8782671 C649.897028,-73.418216 654.941675,-67.3631264 657.909115,-58.7129984 C660.876554,-50.0628705 659.986322,-42.7720483 655.238419,-36.840532 C652.27098,-32.3918948 649.600284,-30.1675761 647.226333,-30.1675761 C644.852381,-30.1675761 643.665406,-29.0554168 643.665406,-26.8310982 C643.665406,-24.6067796 640.401222,-18.057397 633.872855,-7.18295041 C622.596586,14.0716497 611.913804,39.0334476 601.82451,67.7024431 C600.044046,71.1624943 595.296143,79.0711827 587.5808,91.4285084 L576.007787,109.964497 L592.922191,127.759046 C604.791949,139.127785 613.991011,147.28362 620.519378,152.226551 C627.047745,157.169481 637.137039,162.853851 650.78726,169.27966 C688.176997,187.074209 716.367672,198.937242 735.359284,204.868758 C751.976945,210.305981 777.20018,219.697549 811.028989,233.04346 C849.605702,248.860837 869.190802,259.240991 869.78429,264.183921 C870.377778,266.655386 865.926619,268.385412 856.430812,269.373998 C855.243837,269.868291 853.463373,270.115437 851.089422,270.115437 C841.000127,272.09261 823.640607,275.799807 799.01086,281.237031 C774.381112,286.674254 758.802055,290.875745 752.273689,293.841503 C748.835224,295.383529 745.367291,296.655573 741.869888,297.657634 C741.717919,297.777003 741.564566,297.897451 741.410253,298.017986 C730.732271,307.429137 720.499205,318.202428 710.711055,330.33786 C700.922905,342.473291 693.062724,351.265288 687.130512,356.713849 C681.1983,362.16241 678.232194,365.505845 678.232194,366.744155 C678.232194,367.982464 684.757627,375.536151 697.808494,389.405216 C716.791572,411.694784 721.240732,427.173651 711.155971,435.841817 C701.07121,444.509982 676.155919,446.615108 636.410098,442.157194 C612.088029,439.185252 585.986295,438.689928 558.104898,440.671223 L515.392971,443.643165 L515.392971,459.988849 C515.392971,469.4 513.761613,476.334532 510.498896,480.792446 C507.23618,485.25036 502.935326,486.736331 497.596335,485.25036 C492.257344,484.755036 486.028521,480.544784 478.909867,472.619604 C471.791212,464.694424 468.231885,458.75054 468.231885,454.78795 C468.231885,451.320683 464.375947,442.90018 456.664071,429.526439 C448.952196,416.152698 444.206426,400.55 442.426762,382.718345 C440.647099,364.886691 436.642856,345.445234 430.414033,324.393975 C424.18521,303.342716 419.291135,283.405935 415.731808,264.583633 C412.765702,252.20054 411.430954,244.151529 411.727565,240.436601 C412.024175,236.721673 413.358923,233.130576 415.731808,229.663309 C427.596232,218.270863 450.731859,208.364388 485.13869,199.943885 C501.924971,195.821505 519.122151,193.843431 536.730229,194.009665 C534.584907,192.273761 532.543444,190.57988 530.605963,188.927808 C518.142718,178.300508 511.020863,172.986858 509.240399,172.986858 C505.679472,172.986858 494.99669,179.659814 477.192054,193.005725 C473.037638,195.971483 469.921827,197.454363 467.844619,197.454363 C465.767412,197.454363 460.722765,200.420121 452.710678,206.351637 C444.698592,212.283153 439.505573,215.248911 437.131621,215.248911 C434.75767,215.248911 428.822791,217.47323 419.326985,221.921867 C409.831179,226.370505 396.626073,229.830556 379.711668,232.302021 C376.386992,232.787809 373.205626,233.273598 370.16757,233.759386 C373.683497,235.557065 376.374714,237.010733 378.242484,238.120624 L378.617274,238.345414 C379.22233,238.711884 379.729417,239.037453 380.138535,239.322122 C385.477526,243.284712 388.888548,250.714568 390.371601,261.611691 C391.854654,272.508813 387.5538,286.997032 377.46904,305.076349 C367.384279,323.155665 362.341899,333.309802 362.341899,335.538759 C362.341899,337.767716 356.409687,345.816727 344.545262,359.685791 C329.121511,381.480036 324.968963,393.615468 332.087617,396.092086 C335.053723,396.092086 339.947798,401.292986 346.769842,411.694784 C353.591886,422.096583 355.816465,430.145594 353.443581,435.841817 C351.070696,441.53804 345.286789,445.500629 336.09186,447.729586 C326.896931,449.958543 311.918096,450.82536 291.155353,450.330036 C268.019726,450.330036 244.884099,453.54964 221.748472,459.988849 L186.155199,469.647662 L188.824695,483.021403 C189.417916,490.946583 186.74842,496.147482 180.816208,498.624101 C175.477217,501.100719 168.210257,500.233903 159.015329,496.023651 C149.8204,491.813399 143.739883,485.993345 140.773776,478.563489 C137.80767,471.628957 133.358511,464.07527 127.426299,455.902428 C121.494087,447.729586 117.489844,432.622212 115.41357,410.580306 C113.337295,388.538399 110.371189,371.573561 106.515252,359.685791 C102.659314,347.798022 100.583039,337.148561 100.286429,327.73741 C99.9898182,318.326259 97.1720175,307.181475 91.8330266,294.303058 C89.3492513,288.330267 87.4561615,282.906256 86.1537571,278.031024 C66.1154838,287.008498 55.8049257,289.312442 55.222167,284.944228 C55.5908016,283.716142 65.4044868,274.669316 84.6632226,257.803748 C86.2680954,251.141881 90.7964852,247.196592 98.2471856,245.96629 C107.491142,237.950582 118.22435,228.699015 130.446757,218.21467 C180.002995,175.705469 204.781114,153.091563 204.781114,150.372952 C204.781114,147.65434 206.264834,146.295034 209.232273,146.295034 C215.76064,146.295034 212.496457,140.857811 199.439723,129.983364 C190.537405,122.074676 182.228575,114.042414 174.513232,105.886579 C166.79789,97.7307445 162.940218,92.6642409 162.940218,90.6870688 C162.940218,88.7098967 160.863011,86.4855781 156.708595,84.014113 C152.55418,81.5426478 150.476973,76.5997176 150.476973,69.1853222 C150.476973,62.2652198 152.702552,57.9401558 157.153711,56.2101302 C161.604871,54.4801046 169.171841,54.8508244 179.854623,57.3222895 C187.569966,58.8051686 198.104375,62.7595128 211.457853,69.1853222 C224.81133,75.6111315 233.862021,81.0483548 238.609924,85.4969921 C241.577363,88.9570432 244.396431,89.9456293 247.067126,88.4627502 C249.737822,86.9798711 253.150377,81.5426478 257.304792,72.1510803 C266.800598,56.3337035 275.851288,35.5733964 284.456863,9.870159 C293.062437,-15.8330784 296.178249,-29.6732831 293.804297,-31.6504552 C289.649882,-35.1105064 275.99966,-35.1105064 252.853633,-31.6504552 C229.707605,-28.190404 215.167152,-23.9889133 209.232273,-19.045983 C206.264834,-17.0688109 201.516931,-15.9566516 194.988564,-15.7095051 C188.460197,-15.4623586 183.712294,-16.5745179 180.744855,-19.045983 C169.468585,-28.9318436 177.183928,-38.8177041 203.890882,-48.7035646 C230.597837,-58.5894252 262.646183,-63.7795019 300.03592,-64.273795 C324.368923,-64.273795 344.250767,-61.8023298 359.681452,-56.8593996 C375.112137,-51.9164693 384.3112,-46.8499658 387.278639,-41.659889 C390.246078,-36.4698122 388.762359,-26.9546715 382.82748,-13.1144667 C377.486089,-0.757141068 371.106094,9.74658574 363.687496,18.3967137 C356.268897,27.0468417 352.559598,32.6076382 352.559598,35.0791034 C352.559598,40.0220336 339.799608,63.9952454 314.279629,106.998739 L304.487079,121.827529 L314.279629,132.949123 C320.214508,139.869225 323.181947,144.194289 323.181947,145.924315 C323.181947,147.65434 330.89729,154.203723 346.327975,165.572462 L369.474002,183.367011 L362.352148,196.712923 C357.604245,207.093077 357.010757,212.283153 360.571684,212.283153 C361.165172,212.777446 362.648892,212.283153 365.022843,210.800274 L398.851653,190.039967 C451.672075,158.899506 477.192054,137.39776 475.41159,125.534727 C474.224614,123.557555 472.740895,122.321823 470.960431,121.827529 C469.179967,120.838943 465.173924,114.783854 458.942301,103.662261 C452.710678,92.5406677 448.259519,86.3620048 445.588824,85.1262723 C442.918128,83.8905397 441.582781,81.4190746 441.582781,77.7118769 C441.582781,74.0046792 440.099061,70.9153478 437.131621,68.4438826 C434.164182,65.9724175 431.79023,61.6473535 430.009767,55.4686907 C428.229303,49.2900279 425.558608,43.2349383 421.99768,37.303422 C418.436753,31.8661987 416.656289,23.833937 416.656289,13.2066369 C416.656289,2.57933686 417.843265,-4.46433877 420.217217,-7.92438995 C422.591168,-9.40726903 425.261864,-10.5194283 428.229303,-11.2608679 C431.196743,-12.0023074 433.719066,-12.2494539 435.796274,-12.0023074 C437.873481,-11.7551609 438.912085,-10.8901481 438.912085,-9.40726903 C438.912085,-8.41868298 446.03394,-1.37500735 460.277649,11.7237579 C474.521358,24.8225231 481.643213,32.3604917 481.643213,34.3376638 C481.643213,36.8091289 487.132976,42.617072 498.112502,51.761493 C509.092027,60.905914 516.362254,65.4781245 519.923181,65.4781245 C523.484109,65.4781245 525.264572,64.4895384 525.264572,62.5123663 C525.264572,60.5351942 527.045036,56.3337035 530.605963,49.9078941 C538.321306,34.5848103 544.552929,20.2503126 549.300832,6.90440084 C555.235711,-8.912976 558.20315,-18.6752633 558.20315,-22.382461 C558.20315,-26.0896587 555.829198,-30.1675761 551.081295,-34.6162134 L538.61805,-43.5134879 L505.679472,-39.8062902 C485.500884,-38.3234111 470.812059,-38.4469843 461.612997,-40.1770099 C452.413934,-41.9070355 448.111147,-45.7378065 448.704635,-51.6693228 C449.298123,-56.11796 452.265562,-60.0723042 457.606953,-63.5323554 C473.037638,-73.912509 503.305521,-80.3383183 548.4106,-82.8097835 C572.743603,-83.7983695 586.393825,-85.2812486 589.361264,-87.2584207 C593.515679,-88.7412998 601.82451,-88.37058 614.287755,-86.1462614 Z M287.596026,252.695863 C252.002754,254.677158 226.197631,257.896763 210.180658,262.354676 C200.689119,264.831295 190.604358,266.564928 179.926376,267.555576 C167.468731,269.536871 160.201771,272.880306 158.125497,277.585881 C156.049223,282.291457 155.604307,294.303058 156.790749,313.620683 C158.570413,335.910252 161.536519,355.227878 165.689067,371.573561 L172.807722,396.835072 L185.265367,395.349101 C193.570464,393.863129 204.545057,393.120144 218.189145,393.120144 C227.680684,393.120144 233.909507,392.253327 236.875613,390.519694 C239.841719,388.786061 244.290878,383.461331 250.22309,374.545504 C259.714629,362.16241 268.019726,348.045683 275.138381,332.195324 C283.443478,314.858993 290.858743,292.074101 297.384176,263.840647 C298.570619,258.392086 298.867229,255.172482 298.274008,254.181835 C297.680787,253.191187 294.12146,252.695863 287.596026,252.695863 Z M551.876076,243.780036 C505.604821,247.247302 481.282752,251.457554 478.909867,256.410791 C477.723424,259.382734 477.87173,267.927068 479.354783,282.043795 C480.837836,296.160522 481.282752,310.153417 480.68953,324.022482 C479.503088,347.798022 483.952247,364.639029 494.037008,374.545504 C496.409893,377.022122 504.270074,376.650629 517.617551,373.431025 C530.965028,370.211421 541.494705,367.858633 549.20658,366.372662 C567.003217,363.400719 584.206632,347.302698 600.816826,318.078597 C616.511685,291.869027 626.361883,272.688642 630.36742,260.537441 C627.749739,258.729745 625.357792,256.979217 623.190073,255.286647 C619.091337,252.157441 612.682858,247.595697 603.964637,241.601415 C591.050296,241.419226 573.687564,242.145625 551.876076,243.780036 Z M245.731778,181.884132 L228.817374,195.971483 C216.947616,204.374465 209.974133,208.823102 207.896926,209.317395 C205.819718,209.811688 199.736467,213.518886 189.647173,220.438988 C184.607589,224.063907 179.711682,227.495524 174.959451,230.73384 C200.412183,224.389113 234.379441,219.025123 276.860333,214.641638 C272.336285,211.033301 266.707369,205.303774 259.975488,197.454363 L245.731778,181.884132 Z" id="Combined-Shape" fill="#000000" fill-rule="nonzero"></path>
    </g>
</svg>