<svg width="261" height="201" viewBox="0 0 261 201" fill="none" xmlns="http://www.w3.org/2000/svg">
<path d="M62.0514 7.64422C62.914 9.36934 63.6904 11.0867 64.3823 12.7964C64.8535 14.4095 65.2632 16.2242 65.6012 18.252L65.6406 18.4884L65.6987 18.7208C66.2082 20.7589 66.5444 22.7828 66.7121 24.7951C66.888 26.9052 66.9836 29.6414 66.9844 33.0438L66.4768 69.0171L63.8113 69.2075C57.7856 69.5507 51.4365 70.2455 45.2499 70.9226C43.9621 71.0636 42.6811 71.2038 41.4118 71.3398C33.9161 72.1434 26.7542 72.8125 20.2148 72.8125H20.0611L8.51662 73.4046L8.49909 73.4054C6.26567 73.5073 4.32083 73.666 2.74977 73.9077C1.96449 74.0285 1.15593 74.1873 0.394404 74.4113C-0.261885 74.6043 -1.37805 74.9828 -2.42812 75.7703C-4.30127 77.1752 -6 79.4827 -6 82.6211C-6 85.3455 -4.44122 87.4023 -3.70454 88.3089C-2.75513 89.4774 -1.52138 90.6523 -0.163367 91.8072C2.9883 94.6903 6.68925 96.8193 10.8513 98.2265C14.7527 99.7308 18.608 100.662 22.3893 100.908C24.5944 101.107 26.5237 101.219 28.125 101.219H28.8636L29.5802 101.04C31.2942 100.611 34.151 99.7923 38.0522 98.622C39.9186 98.062 41.5191 97.5699 42.9324 97.1353C47.2714 95.801 49.8456 95.0094 52.9283 94.4667C56.0279 93.9209 59.6593 93.6387 66.0069 93.5407L65.2266 141.748V153.223C65.2266 156.366 65.4327 159.758 65.831 163.388C66.0324 166.936 66.3421 169.941 66.8079 172.27L67.9538 178C68.1826 179.41 68.7724 181.226 70.2798 182.734C71.9783 184.432 74.0971 185.004 75.9141 185.004H76.207C79.1866 185.004 82.3788 183.797 84.2817 180.626L84.4002 180.428L86.847 175.535C88.7129 171.803 90.1448 168.322 91.0582 165.125L91.0728 165.074L91.0865 165.023C91.9525 161.775 92.9683 156.435 94.1392 149.216C95.2818 142.359 95.95 137.097 95.9758 133.79L98.551 91.7274L158.363 91.5703H158.37C162.471 91.57 166.116 91.273 169.024 90.48L169.097 90.4601L169.169 90.4384C171.373 89.7773 175.04 88.3067 176.532 84.576L176.961 83.5032V81.7617C176.961 79.621 176.204 77.6602 175.449 76.1488L175.238 75.7277L174.964 75.3446C173.181 72.8483 170.023 70.647 166.679 68.68L158.081 63.6399L157.985 63.5883C154.986 61.9731 151.919 60.8353 148.803 60.316L148.766 60.3098L148.729 60.3041C145.944 59.8758 143.291 59.6484 140.785 59.6484H140.412L140.041 59.6948C138.319 59.91 135.753 60.3232 132.418 60.9116C128.796 61.5509 125.217 62.2523 121.698 62.9422C113.777 64.4948 106.156 65.9887 99.0092 66.5825L99.4922 36.9434V36.8945C99.4922 33.6578 99.5888 31.2471 99.7554 29.5814L99.7603 29.5321L99.7644 29.4826C99.9322 27.4691 100.371 24.5988 101.133 20.7861L101.162 20.6434L101.184 20.4994C101.739 16.7987 102.407 14.6094 102.96 13.5036C103.96 11.5034 105.059 8.93131 105.059 6.42578C105.059 5.66887 104.948 4.65603 104.528 3.60519C104.135 2.02797 103.318 0.759336 102.54 -0.159833C101.494 -1.39689 100.184 -2.41014 98.8775 -3.25119C96.5439 -4.87175 94.0635 -6.16953 91.4411 -7.12314L91.3649 -7.15084L91.288 -7.17647C88.6242 -8.0644 85.6147 -8.80962 82.2932 -9.43239C79.0952 -10.032 76.079 -10.5351 73.247 -10.9397L72.8248 -11H72.3984C70.8455 -11 69.3622 -10.9187 68.0203 -10.7069C66.7618 -10.5081 65.1853 -10.1302 63.7451 -9.26605L63.399 -9.05842L63.0839 -8.80631C61.5369 -7.56873 59.3672 -5.24796 59.3672 -1.77734V1.98281L60.0006 3.24969C60.3347 3.91781 60.9752 5.28648 61.9558 7.44376L62.0017 7.54487L62.0514 7.64422Z" fill="black"/>
<path fill-rule="evenodd" clip-rule="evenodd" d="M116.541 127.68L110.257 128.308L110.132 128.326C108.516 128.557 106.84 128.924 105.353 129.574C104.038 130.15 101.947 131.354 100.85 133.786C100.577 134.344 100 135.638 100 137.195C100 139.424 100.808 141.362 101.7 142.862C102.794 144.763 104.212 146.53 105.859 148.176L106.022 148.339L106.197 148.489C107.847 149.903 110.239 151.627 113.219 153.613L113.337 153.693L113.46 153.766C116.484 155.581 119.259 157.125 121.774 158.382C124.62 159.805 127.697 160.48 130.902 160.48H132.074C134.793 160.48 138.435 159.431 142.259 158.093C145.932 156.807 151.116 155.294 157.885 153.553C169.206 150.642 174.309 149.394 179.439 148.802C184.16 148.258 188.943 148.26 198.65 148.265C199.604 148.265 200.606 148.266 201.66 148.266C207.606 148.266 215.822 148.458 226.34 148.847C231.655 149.044 236.13 149.145 239.746 149.145C243.3 149.145 246.193 149.059 248.279 148.85C250.958 148.824 253.563 148.473 255.915 147.591L256.21 147.48L256.492 147.339C259.727 145.722 261.827 142.924 262.595 139.466L262.738 138.823V138.164C262.738 137.107 262.519 135.886 262.329 134.937C261.941 132.999 260.849 131.464 260.105 130.534C259.269 129.489 258.222 128.427 257.065 127.37C254.167 124.516 249.553 121.764 243.893 119.027C237.831 115.9 231.988 114 226.562 114C223.909 114 219.891 114.46 214.81 115.242L214.59 115.275L214.374 115.326C209.508 116.448 205.094 117.179 201.117 117.54L200.983 117.552L200.849 117.571C191.404 118.859 184.402 119.589 178.037 120.253C166.994 121.404 157.865 122.357 141.215 125.674L122.411 127.121L122.291 127.135C120.652 127.328 119.358 127.469 118.395 127.56C117.913 127.606 117.536 127.638 117.251 127.657C116.984 127.676 116.863 127.679 116.842 127.68L116.841 127.68C116.839 127.68 116.84 127.68 116.84 127.68H116.541Z" fill="black"/>
</svg>
