<svg width="261" height="201" viewBox="0 0 261 201" fill="none" xmlns="http://www.w3.org/2000/svg">
<path d="M62.0514 7.64422C62.914 9.36934 63.6904 11.0867 64.3823 12.7964C64.8535 14.4095 65.2632 16.2242 65.6012 18.252L65.6406 18.4884L65.6987 18.7208C66.2082 20.7589 66.5444 22.7828 66.7121 24.7951C66.888 26.9052 66.9836 29.6414 66.9844 33.0438L66.4768 69.0171L63.8113 69.2075C57.7856 69.5507 51.4365 70.2455 45.2499 70.9226C43.9621 71.0636 42.6811 71.2038 41.4118 71.3398C33.9161 72.1434 26.7542 72.8125 20.2148 72.8125H20.0611L8.51662 73.4046L8.49909 73.4054C6.26567 73.5073 4.32083 73.666 2.74977 73.9077C1.96449 74.0285 1.15593 74.1873 0.394404 74.4113C-0.261885 74.6043 -1.37805 74.9828 -2.42812 75.7703C-4.30127 77.1752 -6 79.4827 -6 82.6211C-6 85.3455 -4.44122 87.4023 -3.70454 88.3089C-2.75513 89.4774 -1.52138 90.6523 -0.163367 91.8072C2.9883 94.6903 6.68925 96.8193 10.8513 98.2265C14.7527 99.7308 18.608 100.662 22.3893 100.908C24.5944 101.107 26.5237 101.219 28.125 101.219H28.8636L29.5802 101.04C31.2942 100.611 34.151 99.7923 38.0522 98.622C39.9186 98.062 41.5191 97.5699 42.9324 97.1353C47.2714 95.801 49.8456 95.0094 52.9283 94.4667C56.0279 93.9209 59.6593 93.6387 66.0069 93.5407L65.2266 141.748V153.223C65.2266 156.366 65.4327 159.758 65.831 163.388C66.0324 166.936 66.3421 169.941 66.8079 172.27L67.9538 178C68.1826 179.41 68.7724 181.226 70.2798 182.734C71.9783 184.432 74.0971 185.004 75.9141 185.004H76.207C79.1866 185.004 82.3788 183.797 84.2817 180.626L84.4002 180.428L86.847 175.535C88.7129 171.803 90.1448 168.322 91.0582 165.125L91.0728 165.074L91.0865 165.023C91.9525 161.775 92.9683 156.435 94.1392 149.216C95.2818 142.359 95.95 137.097 95.9758 133.79L98.551 91.7274L158.363 91.5703H158.37C162.471 91.57 166.116 91.273 169.024 90.48L169.097 90.4601L169.169 90.4384C171.373 89.7773 175.04 88.3067 176.532 84.576L176.961 83.5032V81.7617C176.961 79.621 176.204 77.6602 175.449 76.1488L175.238 75.7277L174.964 75.3446C173.181 72.8483 170.023 70.647 166.679 68.68L158.081 63.6399L157.985 63.5883C154.986 61.9731 151.919 60.8353 148.803 60.316L148.766 60.3098L148.729 60.3041C145.944 59.8758 143.291 59.6484 140.785 59.6484H140.412L140.041 59.6948C138.319 59.91 135.753 60.3232 132.418 60.9116C128.796 61.5509 125.217 62.2523 121.698 62.9422C113.777 64.4948 106.156 65.9887 99.0092 66.5825L99.4922 36.9434V36.8945C99.4922 33.6578 99.5888 31.2471 99.7554 29.5814L99.7603 29.5321L99.7644 29.4826C99.9322 27.4691 100.371 24.5988 101.133 20.7861L101.162 20.6434L101.184 20.4994C101.739 16.7987 102.407 14.6094 102.96 13.5036C103.96 11.5034 105.059 8.93131 105.059 6.42578C105.059 5.66887 104.948 4.65603 104.528 3.60519C104.135 2.02797 103.318 0.759336 102.54 -0.159833C101.494 -1.39689 100.184 -2.41014 98.8775 -3.25119C96.5439 -4.87175 94.0635 -6.16953 91.4411 -7.12314L91.3649 -7.15084L91.288 -7.17647C88.6242 -8.0644 85.6147 -8.80962 82.2932 -9.43239C79.0952 -10.032 76.079 -10.5351 73.247 -10.9397L72.8248 -11H72.3984C70.8455 -11 69.3622 -10.9187 68.0203 -10.7069C66.7618 -10.5081 65.1853 -10.1302 63.7451 -9.26605L63.399 -9.05842L63.0839 -8.80631C61.5369 -7.56873 59.3672 -5.24796 59.3672 -1.77734V1.98281L60.0006 3.24969C60.3347 3.91781 60.9752 5.28648 61.9558 7.44376L62.0017 7.54487L62.0514 7.64422Z" fill="black"/>
<path d="M222.464 159.037L146.273 170.198L125.719 173.433L125.707 173.435C121.909 174.018 119.139 174.39 117.331 174.569L117.251 174.577L110.52 175.43C109.145 175.479 107.439 175.778 105.835 176.793C103.943 177.991 102.805 179.797 102.352 181.726C102.123 182.573 102 183.456 102 184.362C102 185.999 102.356 187.564 102.856 188.981C103.424 190.627 104.475 192.161 105.428 193.395C106.481 194.758 107.833 196.277 109.422 197.929C112.473 201.099 114.233 202.959 114.831 203.633L115.117 203.955L115.446 204.233C116.715 205.304 118.234 206.156 119.767 206.862L119.855 206.902L119.943 206.94C121.637 207.655 123.42 208 125.237 208H126.281C127.744 208 129.179 207.593 130.191 207.262C131.35 206.883 132.667 206.357 134.097 205.727L134.143 205.707L134.188 205.686C136.533 204.606 139.063 203.605 141.781 202.687L141.817 202.675L141.853 202.662C144.426 201.757 148.202 200.627 153.257 199.269C158.226 197.935 162.814 196.897 167.028 196.148L167.188 196.12L167.348 196.083C171.031 195.219 178.612 194.265 190.499 193.281C202.264 192.307 210.786 191.52 216.007 190.922C220.611 190.554 224.442 190.372 227.528 190.362L240.929 191.537H241.192C241.974 191.537 244.842 191.628 250.015 191.827C254.213 191.992 257.273 192.091 259.114 192.118C259.779 192.285 260.559 192.419 261.388 192.419C263.771 192.419 266.468 191.444 268.133 188.852C269.075 187.472 269.477 185.975 269.682 184.866C269.917 183.596 270 182.221 270 180.834V180.54C270 178.263 269.248 176.152 268.356 174.383C267.438 172.565 266.17 170.713 264.678 168.851L264.639 168.802L264.599 168.754C261.81 165.418 259.689 162.959 258.294 161.459L258.136 161.29L257.966 161.134C256.413 159.703 254.69 158.421 252.816 157.278C250.68 155.818 248.17 154.844 245.371 154.844C244.142 154.844 242.618 155.184 241.514 155.444C240.222 155.749 238.579 156.182 236.614 156.732L227.319 158.159L222.464 159.037Z" fill="black"/>
<path d="M179.531 136.202L211.256 129.177L211.361 129.149C214.694 128.284 218.104 127.107 221.588 125.636C225.202 124.111 229.461 121.398 230.495 116.489C230.71 115.667 230.826 114.812 230.826 113.935C230.826 113.146 230.764 112.234 230.545 111.291C230.224 109.309 229.393 107.554 228.324 106.049C227.048 104.255 224.999 102.513 222.856 100.905L222.794 100.858L222.731 100.813C220.488 99.2189 218.619 97.952 217.171 97.0628L217.073 97.0031L216.974 96.9472C214.448 95.5256 211.621 95 208.808 95C206.461 95 204.104 95.424 201.774 96.1617L201.3 96.3118L193.334 100.378L193.298 100.397C192.039 101.061 189.263 102.097 184.512 103.466L184.382 103.503L184.254 103.547C179.652 105.101 176.048 106.24 173.406 106.983C170.853 107.702 165.975 108.831 158.613 110.386L151.282 111.565L151.12 111.6C149.269 112.003 147.706 112.384 146.505 112.741C145.915 112.917 145.289 113.124 144.71 113.368L144.676 113.382C144.342 113.522 143.034 114.068 141.992 115.242L141.609 115.673L141.315 116.169C140.859 116.938 140.474 117.782 140.202 118.699C139.834 119.941 139.781 121.232 139.781 122.166C139.781 125.354 141.404 128.032 142.958 129.965C144.656 132.223 146.831 134.065 149.326 135.552C152.297 137.322 155.706 138.199 159.306 138.442L159.507 138.455H160.58C162.663 138.455 165.774 138.107 169.62 137.538C172.016 137.343 174.029 137.143 175.63 136.935C176.971 136.761 178.384 136.54 179.531 136.202Z" fill="black"/>
</svg>
