<svg width="261" height="201" viewBox="0 0 261 201" fill="none" xmlns="http://www.w3.org/2000/svg">
<path d="M67.0514 -10.3558C67.914 -8.63066 68.6904 -6.91329 69.3823 -5.20362C69.8535 -3.59051 70.2632 -1.7758 70.6012 0.252018L70.6406 0.488377L70.6987 0.720839C71.2082 2.75894 71.5444 4.78278 71.7121 6.79515C71.888 8.90516 71.9836 11.6414 71.9844 15.0438L71.4768 51.0171L68.8113 51.2075C62.7856 51.5507 56.4365 52.2455 50.2499 52.9226C48.9621 53.0636 47.6811 53.2038 46.4118 53.3398C38.9161 54.1434 31.7542 54.8125 25.2148 54.8125H25.0611L13.5166 55.4046L13.4991 55.4054C11.2657 55.5073 9.32083 55.666 7.74977 55.9077C6.96449 56.0285 6.15593 56.1873 5.3944 56.4113C4.73811 56.6043 3.62195 56.9828 2.57188 57.7703C0.698735 59.1752 -1 61.4827 -1 64.6211C-1 67.3455 0.558776 69.4023 1.29546 70.3089C2.24487 71.4774 3.47862 72.6523 4.83663 73.8072C7.9883 76.6903 11.6893 78.8193 15.8513 80.2265C19.7527 81.7308 23.608 82.6616 27.3893 82.9085C29.5944 83.1074 31.5237 83.2188 33.125 83.2188H33.8636L34.5802 83.0396C36.2942 82.6111 39.151 81.7923 43.0522 80.622C44.9186 80.062 46.5191 79.5699 47.9324 79.1353C52.2714 77.801 54.8456 77.0094 57.9283 76.4667C61.0279 75.9209 64.6593 75.6387 71.0069 75.5407L70.2266 123.748V135.223C70.2266 138.366 70.4327 141.758 70.831 145.388C71.0324 148.936 71.3421 151.941 71.8079 154.27L72.9538 160C73.1826 161.41 73.7724 163.226 75.2798 164.734C76.9783 166.432 79.0971 167.004 80.9141 167.004H81.207C84.1866 167.004 87.3788 165.797 89.2817 162.626L89.4002 162.428L91.847 157.535C93.7129 153.803 95.1448 150.322 96.0582 147.125L96.0728 147.074L96.0865 147.023C96.9525 143.775 97.9683 138.435 99.1392 131.216C100.282 124.359 100.95 119.097 100.976 115.79L103.551 73.7274L163.363 73.5703H163.37C167.471 73.57 171.116 73.273 174.024 72.48L174.097 72.4601L174.169 72.4384C176.373 71.7773 180.04 70.3067 181.532 66.576L181.961 65.5032V63.7617C181.961 61.621 181.204 59.6602 180.449 58.1488L180.238 57.7277L179.964 57.3446C178.181 54.8483 175.023 52.647 171.679 50.68L163.081 45.6399L162.985 45.5883C159.986 43.9731 156.919 42.8353 153.803 42.316L153.766 42.3098L153.729 42.3041C150.944 41.8758 148.291 41.6484 145.785 41.6484H145.412L145.041 41.6948C143.319 41.91 140.753 42.3232 137.418 42.9116C133.796 43.5509 130.217 44.2523 126.698 44.9422C118.777 46.4948 111.156 47.9887 104.009 48.5825L104.492 18.9434V18.8945C104.492 15.6578 104.589 13.2471 104.755 11.5814L104.76 11.5321L104.764 11.4826C104.932 9.46914 105.371 6.59882 106.133 2.78607L106.162 2.64335L106.184 2.49942C106.739 -1.2013 107.407 -3.39064 107.96 -4.49641C108.96 -6.49656 110.059 -9.06869 110.059 -11.5742C110.059 -12.3311 109.948 -13.344 109.528 -14.3948C109.135 -15.972 108.318 -17.2407 107.54 -18.1598C106.494 -19.3969 105.184 -20.4101 103.878 -21.2512C101.544 -22.8717 99.0635 -24.1695 96.4411 -25.1231L96.3649 -25.1508L96.288 -25.1765C93.6242 -26.0644 90.6147 -26.8096 87.2932 -27.4324C84.0952 -28.032 81.079 -28.5351 78.247 -28.9397L77.8248 -29H77.3984C75.8455 -29 74.3622 -28.9187 73.0203 -28.7069C71.7618 -28.5081 70.1853 -28.1302 68.7451 -27.2661L68.399 -27.0584L68.0839 -26.8063C66.5369 -25.5687 64.3672 -23.248 64.3672 -19.7773V-16.0172L65.0006 -14.7503C65.3347 -14.0822 65.9752 -12.7135 66.9558 -10.5562L67.0017 -10.4551L67.0514 -10.3558Z" fill="black"/>
<path d="M180.522 170.885L150.022 174.995L132.649 177.654L132.588 177.664C127.226 178.597 121.257 179.259 114.668 179.64L114.582 179.645L114.496 179.652C111.096 179.947 108.42 180.195 106.484 180.396C105.112 180.538 103.732 180.69 102.775 180.869L95.0349 181.715L95.0102 181.718C93.8373 181.839 92.5803 182.046 91.4107 182.444C90.403 182.787 88.4637 183.595 87.1691 185.576C86.4349 186.7 86.2121 187.807 86.1264 188.331C86.0239 188.959 86 189.553 86 190.032C86 191.033 86.107 192.055 86.2703 193.054L86.2812 193.121L86.2937 193.188C86.6512 195.102 87.5888 196.722 88.4873 197.96C89.4261 199.253 90.6116 200.519 91.9291 201.752L91.9708 201.791L92.0131 201.829C94.4341 204.008 97.109 206.051 100.025 207.963L100.193 208.073L100.368 208.172C103.159 209.745 106.279 211 109.452 211H110.027C111.363 211 112.688 210.854 113.994 210.568C115.298 210.283 118.424 209.264 122.803 207.776C127.13 206.453 131.839 205.125 136.933 203.792C142.098 202.667 148.045 201.624 154.787 200.669C161.606 199.702 168.816 198.831 176.417 198.056L176.48 198.049L176.543 198.041C184.383 197.074 190.778 196.403 195.752 196.02L224.29 194.565H233.351C236.538 194.958 240.221 195.246 244.38 195.439C248.622 195.635 251.268 195.823 252.529 195.984L252.907 196.032H255.014C257.576 196.032 261.688 195.482 264.064 191.847C265.344 189.888 266 187.67 266 185.336V184.47L265.974 184.192C265.679 181.033 263.859 178.124 262.064 175.799C260.283 173.493 258.415 171.367 256.456 169.429C254.396 167.195 252.153 165.25 249.722 163.622L249.55 163.507L249.37 163.404C246.889 161.98 244.248 160.915 241.523 160.594L241.174 160.553H240.822C239.037 160.553 236.798 161.062 234.655 161.641L234.61 161.653L234.564 161.666C232.724 162.194 229.642 162.939 225.216 163.907L213.386 166.243L213.373 166.246C210.634 166.792 206.465 167.453 200.79 168.226C195.078 168.824 188.317 169.712 180.522 170.885Z" fill="black"/>
<path d="M118.219 101.892C118.219 104.111 118.916 106.104 119.96 107.801C121.499 110.72 124.019 112.721 126.809 114.055C129.9 115.533 133.76 116.183 137.914 116.395L138.066 116.403H139.945C141.476 116.403 143.261 116.289 145.251 116.089C148.126 115.887 151.486 115.59 155.321 115.198L155.471 115.183L155.62 115.16C159.592 114.552 164.426 113.651 170.098 112.468L193.686 107.81C196.833 107.36 200.377 106.511 204.276 105.323C208.065 104.356 211.027 103.568 213.134 102.963L213.382 102.892L219.337 100.614C220.438 100.36 221.624 99.9864 222.721 99.3938C223.863 98.7772 225.515 97.5856 226.386 95.4758C226.721 94.7709 227.191 93.6634 227.375 92.3842C227.606 91.339 227.644 90.3244 227.644 89.5655V89.0787L227.565 88.5982C227.301 86.9826 226.632 85.3035 225.93 83.7995L225.836 83.5986L225.728 83.4051C224.171 80.626 221.582 78.6732 218.934 77.2427L218.912 77.2311L213.581 74.4072L213.24 74.2766C211.904 73.7656 210.542 73.3722 209.155 73.1068L208.596 73H208.027C206.269 73 204.523 73.506 203.106 74.0194C201.599 74.5658 199.917 75.3284 198.102 76.2516C195.139 77.6408 191.583 78.9864 187.4 80.2712C182.986 81.4284 180.002 82.1715 178.362 82.53L178.218 82.5617L159.745 87.5677L159.739 87.5689C159.69 87.5793 159.519 87.6151 159.166 87.6791C158.745 87.7556 158.173 87.853 157.44 87.9724C155.976 88.2108 153.944 88.5243 151.333 88.9141L151.145 88.9421L140.243 91.2838L132.417 92.3725C129.641 92.4036 126.936 92.7408 124.568 93.6467C122.415 94.4707 118.839 96.4663 118.27 100.821L118.219 101.208V101.892Z" fill="black"/>
<path d="M178.622 156.118L201.942 151.657L207.866 149.958C209.712 149.732 211.461 149.389 213.029 148.87C214.57 148.36 216.293 147.565 217.732 146.23C219.27 144.979 221.315 142.719 221.315 139.359C221.315 137.942 220.897 136.719 220.613 135.995C220.302 135.201 219.901 134.397 219.469 133.616C217.973 130.687 215.152 128.254 212.221 126.215C210.668 125.136 209.161 124.207 207.739 123.527C206.441 122.906 204.638 122.206 202.658 122.206C200.291 122.206 197.888 122.895 195.66 123.799L191.175 125.515C189.335 126.173 186.427 126.984 182.316 127.937L182.302 127.941L168.77 131.149C164.013 132.106 159.003 133.065 153.741 134.024C148.506 134.787 144.742 135.381 142.55 135.796L134.94 137.022L134.545 137.143C133.733 137.392 132.857 137.706 132.041 138.123C131.464 138.417 130.289 139.066 129.33 140.282C128.191 141.658 127.827 143.18 127.681 143.927C127.481 144.948 127.425 146.011 127.425 146.989V147.269L127.451 147.547C127.703 150.247 129.209 152.2 130.534 153.434C131.876 154.684 133.53 155.675 135.209 156.493L135.365 156.568L135.525 156.635C138.495 157.875 141.365 158.923 144.134 159.77L144.676 159.936L145.238 159.997C147.258 160.218 149.33 160.326 151.452 160.326H154.744L155.156 160.269C156.726 160.051 160.193 159.436 165.375 158.469L178.622 156.118Z" fill="black"/>
</svg>
