<svg width="261" height="201" viewBox="0 0 261 201" fill="none" xmlns="http://www.w3.org/2000/svg">
<path d="M139.09 78.8516L169.812 75.9219C172.742 75.7266 187.332 75.1406 193.582 74.1641C199.832 73.1875 204.52 72.4062 207.645 71.8203C210.965 71.2344 213.406 70.8438 214.969 70.6484C217.117 70.6484 219.461 70.8438 222 71.2344C224.344 71.625 226.785 72.5039 229.324 73.8711L237.82 78.8516C241.141 80.8047 243.289 82.4648 244.266 83.832C244.852 85.0039 245.145 85.9805 245.145 86.7617V87.3477C244.754 88.3242 243.582 89.1055 241.629 89.6914C239.48 90.2773 236.453 90.5703 232.547 90.5703L206.473 91.1562L173.621 90.5703L139.09 91.7422L136.16 159.594C136.16 162.328 135.574 167.211 134.402 174.242C133.23 181.469 132.254 186.547 131.473 189.477C130.691 192.211 129.422 195.336 127.664 198.852L125.32 203.539C124.734 204.516 123.758 205.004 122.391 205.004H122.098C120.926 205.004 120.242 204.32 120.047 202.953L118.875 197.094C118.484 195.141 118.191 192.406 117.996 188.891C117.605 185.375 117.41 182.152 117.41 179.223V167.797L118.289 93.5C113.797 93.5 109.207 93.6953 104.52 94.0859C85.5237 95.6689 74.8519 96.3729 56.5117 101.875C52.6055 103.047 49.8711 103.828 48.3086 104.219C46.9414 104.219 45.1836 104.121 43.0352 103.926C39.9102 103.73 36.5898 102.949 33.0742 101.582C29.5586 100.41 26.5312 98.6523 23.9922 96.3086C21.4531 94.1602 20.1836 92.5977 20.1836 91.6211C20.1836 90.8398 20.5742 90.1562 21.3555 89.5703C22.1367 88.9844 24.6758 88.5938 28.9727 88.3984L40.3984 87.8125C44.8906 87.8125 53.1914 87.2266 65.3008 86.0547C83.7015 84.3296 92.0277 83.3975 110.379 81.1953L118.582 80.6094L119.168 39.0859C119.168 35.5703 119.07 32.6406 118.875 30.2969C118.68 27.9531 118.289 25.6094 117.703 23.2656C117.312 20.9219 116.824 18.7734 116.238 16.8203C115.457 14.8672 114.578 12.9141 113.602 10.9609C112.625 8.8125 111.941 7.34766 111.551 6.56641V4.22266C111.551 3.44141 112.039 2.66016 113.016 1.87891C113.992 1.29297 115.848 1 118.582 1C121.316 1.39062 124.246 1.87891 127.371 2.46484C130.496 3.05078 133.23 3.73438 135.574 4.51562C137.723 5.29688 139.773 6.37109 141.727 7.73828C143.875 9.10547 144.949 10.375 144.949 11.5469C145.145 11.7422 145.242 12.0352 145.242 12.4258C145.242 13.4023 144.754 14.8672 143.777 16.8203C142.801 18.7734 142.02 21.7031 141.434 25.6094C140.652 29.5156 140.164 32.6406 139.969 34.9844C139.773 36.9375 139.676 39.5742 139.676 42.8945L139.09 78.8516Z" fill="black" stroke="black" stroke-width="11"/>
<path d="M109.129 13.197C110.011 14.9604 110.805 16.7173 111.512 18.4676C112.002 20.1365 112.424 22.0065 112.771 24.0876L112.804 24.2846L112.852 24.4783C113.375 26.5673 113.72 28.6445 113.892 30.7121C114.071 32.861 114.167 35.6294 114.168 39.0508L113.647 75.9491L109.903 76.2166L109.783 76.2309C91.4639 78.4292 83.182 79.3564 64.8341 81.0765L64.8266 81.0772L64.8192 81.0779C52.6881 82.2519 44.6156 82.8125 40.3984 82.8125H40.2703L28.7456 83.4036L28.7308 83.4043C26.5118 83.5054 24.6063 83.6621 23.0854 83.896C22.3252 84.013 21.5639 84.1637 20.8602 84.3707C20.2441 84.5519 19.2631 84.8896 18.3555 85.5703C16.6643 86.8387 15.1836 88.8756 15.1836 91.6211C15.1836 93.9728 16.5355 95.7926 17.2552 96.6784C18.1529 97.7832 19.3401 98.9169 20.6819 100.057C23.7319 102.851 27.3209 104.918 31.3749 106.286C35.2113 107.767 38.9776 108.673 42.6504 108.911C44.8455 109.11 46.7461 109.219 48.3086 109.219H48.9241L49.5213 109.069C51.21 108.647 54.0464 107.835 57.9485 106.664C74.9856 101.553 85.0614 100.717 102.58 99.2643C103.35 99.2004 104.135 99.1353 104.935 99.0687C107.739 98.835 110.504 98.6735 113.229 98.5839L112.41 167.767V179.223C112.41 182.331 112.614 185.695 113.012 189.306C113.212 192.847 113.519 195.807 113.972 198.074L115.122 203.822C115.328 205.107 115.854 206.71 117.171 208.027C118.643 209.499 120.486 210.004 122.098 210.004H122.391C125.101 210.004 127.924 208.917 129.608 206.112L129.707 205.947L132.136 201.088C133.984 197.392 135.389 193.97 136.28 190.85L136.292 190.808L136.304 190.765C137.156 187.57 138.165 182.274 139.336 175.054C140.489 168.136 141.145 162.918 141.16 159.708L143.886 96.5823L173.661 95.5718L206.484 96.1572L232.604 95.5703C236.651 95.5675 240.175 95.2705 242.944 94.5152L243.005 94.4986L243.066 94.4805C245.227 93.832 248.478 92.4763 249.787 89.2046L250.145 88.3106V86.7617C250.145 84.8476 249.465 83.0508 248.738 81.596L248.562 81.2451L248.334 80.9258C246.686 78.6178 243.695 76.5066 240.355 74.5419L231.775 69.5117L231.695 69.4687C228.772 67.8949 225.809 66.8002 222.822 66.3024L222.791 66.2973L222.76 66.2925C220.017 65.8704 217.415 65.6484 214.969 65.6484H214.657L214.349 65.687C212.653 65.8989 210.108 66.3084 206.776 66.8964L206.749 66.901L206.723 66.906C203.675 67.4774 199.049 68.2492 192.81 69.224C188.151 69.952 178.538 70.4516 172.986 70.7402C171.435 70.8208 170.2 70.8849 169.48 70.933L169.409 70.9377L144.18 73.3435L144.676 42.9353V42.8945C144.676 39.6438 144.773 37.1955 144.944 35.4819L144.948 35.4408L144.951 35.3996C145.124 33.3311 145.571 30.4183 146.336 26.59L146.36 26.471L146.378 26.3511C146.939 22.6161 147.626 20.3034 148.249 19.0564C149.246 17.0641 150.242 14.6765 150.242 12.4258C150.242 11.7414 150.14 10.839 149.757 9.91359C149.419 8.4965 148.685 7.3421 147.96 6.48611C146.997 5.34783 145.771 4.39372 144.505 3.5802C142.235 2.00204 139.826 0.741545 137.283 -0.183342L137.219 -0.206429L137.155 -0.227792C134.545 -1.09793 131.581 -1.83288 128.293 -2.44952C125.107 -3.04686 122.105 -3.54749 119.289 -3.94975L118.937 -4H118.582C117.06 -4 115.633 -3.92007 114.36 -3.71909C113.157 -3.52909 111.725 -3.17753 110.443 -2.40856L110.155 -2.23553L109.892 -2.02544C108.44 -0.863913 106.551 1.20027 106.551 4.22266V7.74675L107.079 8.80247C107.422 9.48945 108.07 10.8742 109.05 13.03L109.088 13.1142L109.129 13.197Z" fill="black"/>
</svg>
