<svg width="261" height="201" viewBox="0 0 261 201" fill="none" xmlns="http://www.w3.org/2000/svg">
<path d="M215.562 72.0938C212.74 72.0938 208.587 72.5769 203.506 73.3587L203.213 73.4038L202.924 73.4705C198.13 74.5769 193.806 75.2904 189.936 75.6422L189.757 75.6585L189.579 75.6827C185.399 76.2527 180.729 76.8253 175.565 77.4001C170.083 77.8114 159.359 78.8969 143.531 80.6341L105.959 84.4499L69.2577 89.1477L69.2459 89.1492C58.2913 90.5185 51.3619 91.4087 49.0716 91.7731L30.2177 93.2234L30.0575 93.2423C28.4248 93.4344 27.1473 93.5733 26.2054 93.663C25.352 93.7443 24.9584 93.7664 24.8614 93.7718C24.8389 93.7731 24.8324 93.7734 24.8398 93.7734H24.4408L18.0163 94.4159L17.8491 94.4398C16.1501 94.6825 14.2742 95.082 12.5513 95.8358C11.054 96.4908 8.44073 97.9554 7.04426 101.02C6.72795 101.666 6 103.292 6 105.289C6 107.996 6.97771 110.287 7.97348 111.966C9.17104 114.044 10.704 115.943 12.4447 117.684L12.662 117.901L12.8952 118.101C14.6395 119.596 17.1134 121.374 20.1093 123.371L20.2677 123.477L20.4309 123.575C23.4868 125.408 26.3073 126.979 28.8793 128.265C32.0237 129.837 35.4097 130.574 38.9023 130.574H40.0742C43.1782 130.574 47.1228 129.403 50.9201 128.074C54.5153 126.816 59.637 125.319 66.383 123.584C73.1214 121.851 79.2454 120.417 84.7615 119.275C90.0756 118.176 98.2792 116.941 109.52 115.583C120.748 114.423 133.839 113.259 148.801 112.093C163.661 110.935 177.612 110.359 190.66 110.359C196.57 110.359 204.757 110.551 215.266 110.94C220.595 111.137 225.096 111.238 228.746 111.238C232.261 111.238 235.204 111.155 237.388 110.943C240.189 110.908 243.01 110.535 245.618 109.557L246.011 109.41L246.386 109.222C250.179 107.325 252.653 104.019 253.548 99.9933L253.738 99.136V98.2578C253.738 96.9785 253.478 95.5783 253.29 94.6381C252.806 92.2178 251.464 90.3747 250.667 89.3784C249.749 88.2309 248.63 87.0999 247.441 86.0116C244.299 82.9293 239.454 80.073 233.787 77.3312C227.591 74.1383 221.428 72.0938 215.562 72.0938Z" fill="black"/>
</svg>
