<svg width="261" height="201" viewBox="0 0 261 201" fill="none" xmlns="http://www.w3.org/2000/svg">
<path d="M169.629 29.5C166.434 29.5 163.1 29.8419 159.642 30.4902L159.296 30.5551L146.332 34.4744L146.303 34.4834C143.641 35.3153 138.467 36.4269 130.449 37.7958L130.358 37.8113L130.268 37.8294C122.485 39.386 116.313 40.5425 111.724 41.3072C107.197 42.0618 98.7578 43.215 86.3002 44.7727L73.9828 45.9458L73.8752 45.9597C70.814 46.3547 68.3541 46.7115 66.5462 47.0305C65.6514 47.1885 64.8231 47.3532 64.1218 47.5285C63.7736 47.6156 63.3722 47.726 62.9678 47.866C62.6681 47.9697 61.9188 48.2369 61.1405 48.7557L60.605 49.1128L60.1499 49.5679C59.39 50.3278 58.6313 51.2732 58.0534 52.429C57.179 54.1779 57.0742 55.9805 57.0742 57.0938C57.0742 59.6925 58.2497 61.7168 59.2688 63.0139C60.2854 64.3078 61.5636 65.416 62.8557 66.3658C65.537 68.4815 68.8491 70.1223 72.5437 71.4263C76.6626 72.8801 81.4517 73.6305 86.7519 73.8425L86.8818 73.8477H88.4766C91.5079 73.8477 96.4072 73.5335 102.979 72.9551C110.674 72.5873 116.171 72.201 118.805 71.7173L172.304 64.701L172.375 64.69C177.669 63.8756 183.139 62.76 188.784 61.3489C191.764 60.6038 194.494 59.6841 196.705 58.4717C198.633 57.4141 201.193 55.5732 202.335 52.471C202.794 51.4031 203.082 50.1967 203.082 48.8906C203.082 47.8549 202.945 46.6239 202.471 45.3632C201.717 42.7414 199.981 40.8205 198.399 39.5027C196.45 37.8783 193.327 36.2946 189.847 34.7477L189.788 34.7217L189.729 34.6969C185.981 33.1188 182.937 31.8988 180.639 31.0632L180.557 31.0332L180.473 31.0054C177.252 29.9315 173.573 29.5 169.629 29.5Z" fill="black"/>
<path fill-rule="evenodd" clip-rule="evenodd" d="M231.152 109.07C229.938 109.07 228.092 109.291 226.079 109.572C223.947 109.87 221.156 110.306 217.726 110.877L201.801 112.324L193.611 113.202L65.3354 124.331L30.7592 127.554L31.3477 134.027L30.7443 127.555L30.7517 127.555C24.3277 128.139 19.5304 128.521 16.3175 128.71L16.2653 128.714L4.71942 129.579C3.06921 129.596 1.21221 129.78 -0.52449 130.431C-2.35512 131.118 -4.60862 132.572 -5.70331 135.315C-6.19163 136.411 -6.5 137.656 -6.5 139.008C-6.5 141.364 -5.64355 143.396 -4.72249 144.942C-3.61434 146.839 -1.74489 148.4 -0.292696 149.513C1.42158 150.827 3.63282 152.301 6.26134 153.919C11.3809 157.069 14.387 158.95 15.4374 159.651L15.7741 159.875L16.1361 160.056C17.8647 160.92 19.9953 161.639 22.3132 162.271L22.3799 162.289L22.447 162.306C24.5696 162.837 26.7626 163.086 29.0039 163.086H30.7617C33.2955 163.086 37.1271 162.254 41.4845 161.118L41.5193 161.109L41.554 161.099C45.6913 159.971 50.1348 158.93 54.888 157.979L54.9135 157.974L54.939 157.969C59.4753 157.024 65.9968 155.871 74.5564 154.509C83.055 153.157 90.948 152.099 98.239 151.331L98.3461 151.32L98.4528 151.305C105.154 150.375 118.351 149.408 138.307 148.43C158.179 147.456 172.469 146.673 181.137 146.083C189.167 145.702 195.913 145.512 201.395 145.508L223.952 146.68H224.121C225.59 146.68 230.57 146.775 239.204 146.971C246.981 147.152 252.318 147.251 255.148 147.264C256.109 147.434 257.125 147.559 258.105 147.559C260.057 147.559 263.009 147.198 265.362 145.034C268.56 142.277 269 138.138 269 135.492V135.199C269 131.866 267.192 129.218 265.764 127.542C264.184 125.688 262.059 123.861 259.625 122.062L259.572 122.023L259.519 121.985C254.824 118.66 251.293 116.235 248.997 114.774L248.813 114.656L248.62 114.551C246.168 113.214 243.459 112.025 240.521 110.968C237.502 109.732 234.366 109.07 231.152 109.07ZM239.355 140.473L239.208 146.971L239.204 146.971L239.355 140.473ZM201.562 139.008V145.508L201.395 145.508L201.225 145.499L201.562 139.008ZM180.762 139.594L181.071 146.086L181.137 146.083L181.204 146.079L180.762 139.594ZM0.878906 141.645L-4.6948 144.989L-4.72249 144.942C-4.73667 144.918 -4.75074 144.894 -4.76467 144.869L0.878906 141.645ZM0.292969 137.836L-5.52081 134.929C-5.58406 135.056 -5.64497 135.184 -5.70331 135.315C-5.76364 135.466 -5.82045 135.621 -5.87347 135.78L0.292969 137.836ZM4.98047 136.078V129.578C4.89407 129.578 4.80704 129.579 4.71942 129.579L4.49433 129.596L4.98047 136.078ZM194.238 119.672L193.546 113.209L193.611 113.202L193.676 113.196L194.238 119.672ZM218.555 117.328L217.966 110.855L217.726 110.877L217.486 110.917L218.555 117.328Z" fill="black"/>
</svg>
