<svg width="261" height="201" viewBox="0 0 261 201" fill="none" xmlns="http://www.w3.org/2000/svg">
<path d="M179.176 20.7266C175.675 20.7266 170.921 22.0015 165.756 23.7198C161.022 25.1728 155.381 26.5648 148.802 27.8832C142.019 29.0457 137.361 29.8047 134.756 30.1769L134.632 30.1946L106.429 35.1888C105.518 35.3354 101.288 35.7927 93.1936 36.5823L93.0361 36.5977L76.3614 38.938L63.984 40.0632C59.9283 40.0798 56.2383 40.3903 53.138 41.1653C51.6225 41.5442 49.8833 42.1151 48.3163 43.0794C46.7889 44.0193 44.4668 45.9507 43.7941 49.3143L43.6484 50.0425V51.0781C43.6484 54.5001 45.2745 57.1423 46.9496 58.938C49.5134 62.0868 53.2711 63.8655 56.8215 64.975C60.9082 66.2521 66.1934 66.867 72.2853 67.0701L72.4102 67.0742H75.1719C77.3325 67.0742 79.9267 66.968 82.9154 66.7699C87.2631 66.5716 92.3702 66.2763 98.2294 65.8857L98.3532 65.8775L98.4767 65.8651C104.45 65.2678 111.763 64.3776 120.396 63.2006L120.424 63.1968L156.561 58.5342C161.139 58.1111 166.405 57.2933 172.324 56.1126C178.141 55.1426 182.653 54.3582 185.831 53.7622L186.051 53.7209L195.253 51.4204C196.796 51.1984 198.36 50.8819 199.763 50.3869C200.731 50.0452 203.377 49.0535 205.054 46.449C205.431 45.9218 205.829 45.3035 206.172 44.6178C206.394 44.1747 206.727 43.443 206.95 42.5019C207.415 41.0323 207.477 39.6623 207.477 38.7734V37.8501L207.253 36.9544C206.693 34.7176 205.381 32.6749 204.322 31.1915L204.129 30.9216L203.913 30.6698C201.399 27.7365 197.56 25.9344 193.977 24.6698L193.955 24.6622L186.004 21.9097L185.682 21.8294C183.834 21.3673 181.975 21.018 180.106 20.7845L179.643 20.7266H179.176Z" fill="black"/>
<path fill-rule="evenodd" clip-rule="evenodd" d="M170.973 79.8281C168.129 79.8281 165.008 80.3789 161.775 81.2376L154.85 82.9688C151.829 83.6769 147.201 84.5162 140.845 85.4792L140.833 85.481L120.105 88.6925C112.768 89.6574 105.044 90.623 96.9315 91.589C88.8433 92.3597 83.1316 92.949 79.8816 93.3534L68.475 94.5541L68.1346 94.6222C67.0133 94.8465 65.8934 95.1129 64.89 95.4474L64.8877 95.4482C64.3235 95.6362 62.8153 96.139 61.4171 97.2768C59.5052 98.7597 58.6422 100.701 58.247 102.019C57.8106 103.473 57.7109 104.911 57.7109 106.078V106.611L57.7863 107.139C58.3932 111.387 61.6904 113.652 63.1424 114.535C65.0117 115.673 67.3002 116.571 69.6752 117.327L69.8246 117.374L69.9758 117.415C74.4198 118.627 78.6897 119.645 82.783 120.464L83.2473 120.557L83.7196 120.59C86.6434 120.799 89.6541 120.902 92.75 120.902H97.4847L97.8235 120.872C100.109 120.664 105.307 120.062 113.265 119.092L113.287 119.089L133.491 116.747L168.907 112.32L178.095 110.597C180.858 110.387 183.36 110.068 185.522 109.6C187.512 109.17 189.744 108.507 191.687 107.324C192.743 106.769 193.959 106.003 195.026 104.936C196.234 103.728 197.809 101.542 197.809 98.4609C197.809 96.0377 196.745 94.1714 196.3 93.4303C195.74 92.4972 195.057 91.6083 194.378 90.8062C193.038 89.1009 191.293 87.7714 189.677 86.7322C187.903 85.5918 185.796 84.4959 183.451 83.4301C179.185 81.491 174.722 79.8281 170.973 79.8281ZM70.8783 101.681C70.8783 101.681 70.8852 101.686 70.8975 101.695C70.8842 101.686 70.8783 101.681 70.8783 101.681Z" fill="black"/>
<path d="M229.273 128.09C227.176 128.09 224.246 128.499 220.939 129.083L220.899 129.09L220.86 129.097C217.913 129.65 213.086 130.409 206.29 131.381L188.167 133.719C183.844 134.283 177.352 134.954 168.627 135.73C159.962 136.322 149.668 137.205 137.757 138.376L91.169 142.478L64.7073 145.124L64.6571 145.13C56.283 146.082 47.0017 146.753 36.8031 147.138L36.7326 147.141L36.6621 147.145C31.4766 147.438 27.4159 147.684 24.4937 147.882C22.1324 148.042 20.1607 148.191 19.0089 148.342L6.9972 149.2L6.97896 149.201C5.34558 149.311 3.75592 149.49 2.35349 149.802C1.37104 150.02 -1.13607 150.608 -3.08064 152.552C-4.48232 153.954 -5.03634 155.529 -5.27314 156.476C-5.52129 157.468 -5.57031 158.372 -5.57031 159.027C-5.57031 160.407 -5.34629 161.726 -5.05341 162.897L-5.0231 163.018L-4.98877 163.139C-4.19906 165.903 -2.30285 167.857 -1.03677 168.997C0.418095 170.306 2.21443 171.555 4.17116 172.751L4.225 172.784L4.27938 172.816C7.91186 174.953 11.9118 176.948 16.2604 178.812L16.4394 178.888L16.6221 178.956C20.7525 180.477 24.8144 181.469 28.5898 181.469H29.4688C31.1944 181.469 32.916 181.345 34.631 181.1C36.3521 180.855 40.8822 179.896 47.7164 178.378C54.4229 177.038 61.7148 175.694 69.5948 174.348C77.6235 173.203 86.8381 172.147 97.2501 171.183C107.726 170.213 118.795 169.339 130.456 168.562L130.508 168.558L130.56 168.554C142.598 167.583 152.455 166.907 160.153 166.521L203.91 165.062H218.125C222.913 165.454 228.513 165.744 234.906 165.938C241.371 166.134 245.576 166.325 247.694 166.501L248.004 166.527H250.953C252.849 166.527 254.776 166.385 256.572 165.957C258.29 165.548 260.551 164.723 262.409 162.866C264.522 160.753 266.07 157.853 266.07 154.34V153.221L265.995 152.693C265.632 150.156 264.363 148.148 263.319 146.806C262.202 145.37 260.805 144.018 259.313 142.755C256.577 140.44 253.728 138.324 250.767 136.411C247.646 134.197 244.313 132.317 240.776 130.769L240.591 130.689L240.403 130.618C236.809 129.271 233.271 128.375 229.849 128.112L229.561 128.09H229.273Z" fill="black"/>
</svg>
