<svg width="261" height="201" viewBox="0 0 261 201" fill="none" xmlns="http://www.w3.org/2000/svg">
<path fill-rule="evenodd" clip-rule="evenodd" d="M215.797 12.8906C214.011 12.8906 211.726 13.4439 209.692 13.9986L209.613 14.0201L209.535 14.0437C208.062 14.4855 205.916 14.9175 202.979 15.2846L202.634 15.3276L202.296 15.4072C199.338 16.1033 195.84 16.649 191.771 17.0189L191.482 17.0451L191.197 17.097C187.12 17.8383 181.64 18.5982 174.705 19.3695L155.911 21.1315L155.811 21.1439C149.55 21.9265 145.379 22.3984 143.187 22.581L143.167 22.5827L39.7397 31.8276L35.776 30.3412L29.133 29.3922C27.3377 29.0157 25.8352 28.7202 24.6499 28.5141C23.6093 28.3331 22.3069 28.125 21.2656 28.125H20.8037L20.3464 28.1903C18.7879 28.413 17.144 28.7456 15.7022 29.3223C14.7474 29.7042 11.4929 31.0954 10.5652 34.8063L10.3711 35.5826V36.6758C10.3711 38.3064 10.8235 39.7933 11.2244 40.8624C11.6611 42.027 12.2514 43.2453 12.9226 44.4758L13.0275 44.6681L17.1981 51.2219C18.1192 52.7685 19.1215 54.8307 20.1838 57.4789C21.1296 60.0217 22.0121 63.6206 22.7514 68.4259L22.7664 68.5237L22.7844 68.6211C23.6999 73.5644 24.3581 79.3386 24.7371 85.9724L24.7423 86.062L30.0039 148.032C30.0461 149.839 30.4275 152.569 30.9619 155.778L32.3927 164.935C32.8524 169.537 34.0282 173.894 36.5167 177.315L36.6255 177.465L36.7427 177.608C37.8064 178.908 39.0056 180.167 40.3466 181.151C41.62 182.085 43.6263 183.215 46.168 183.215H46.9229L47.3802 183.15C51.5583 182.553 54.166 179.629 55.6586 176.942L55.799 176.689L55.9163 176.425C56.7414 174.569 57.4184 172.893 57.9008 171.446L57.932 171.353L58.0127 171.084C58.8647 171.171 59.7102 171.203 60.5234 171.203C62.0102 171.203 63.6245 171.083 65.334 170.872C69.514 170.472 75.4886 169.785 83.2222 168.819C90.982 168.043 97.1655 167.464 101.786 167.079L123.094 165.328C132.768 164.747 140.442 164.262 146.11 163.871C151.963 163.675 157.631 163.382 163.115 162.992L176.072 162.537L178.68 166.449C180.063 168.708 181.689 171.77 183.561 175.701L183.588 175.757L183.616 175.813C185.557 179.695 187.71 183.341 190.18 185.459L190.478 185.714L190.805 185.932C192.412 187.003 194.28 187.947 196.358 188.362L196.989 188.488H198.512C201.672 188.488 204.6 187.322 207.129 185.804L207.311 185.695L207.485 185.575C210.979 183.156 214.064 179.566 216.852 175.277L216.891 175.217L216.929 175.156C219.74 170.615 222.003 165.761 223.721 160.606C225.349 155.724 226.86 150.377 228.261 144.575C229.666 138.954 230.608 133.799 231.043 129.139L238.057 80.6232L239.243 71.435L239.249 71.378C239.415 69.8908 239.76 67.6956 240.314 64.7215C241.059 61.7323 241.645 59.1131 242.059 56.8874C242.511 55.2953 243.081 53.9166 243.745 52.7231L243.885 52.4704L244.002 52.2063C244.593 50.8763 245.221 49.7605 245.866 48.8306C246.716 47.7982 247.811 46.36 248.446 44.7791C248.863 43.8529 249.145 42.8764 249.349 42.0609L249.543 41.2846V40.4844C249.543 38.6208 248.933 37.0037 248.42 35.9046C247.863 34.7108 247.126 33.5174 246.317 32.3623L246.223 32.2283L246.123 32.0992C244.632 30.1829 243.036 28.3673 241.334 26.654C239.37 24.4667 236.392 22.1838 232.879 19.8417C229.284 17.4452 226.09 15.5697 223.484 14.5274C221.013 13.539 218.419 12.8906 215.797 12.8906ZM119.758 50.7383C119.758 49.6354 119.599 48.5813 119.316 47.5847L119.485 47.5672C121.239 47.5392 124.436 47.3245 128.942 46.9488L129.023 48.049V55.3652C128.63 59.0303 128.344 63.6416 128.152 69.1505L126.716 89.8382C126.506 91.18 126.387 92.5078 126.387 93.8047C126.387 96.3932 126.773 98.9215 127.576 101.355C128.683 104.912 130.669 108.12 133.283 110.993C136.074 114.261 139.495 116.773 143.465 118.51L143.625 118.58L143.788 118.641C147.463 120.019 151.928 121.082 157.055 121.903C162.228 122.73 167.164 123.156 171.852 123.156C175.608 123.156 179.364 122.948 183.116 122.531L183.323 122.508L183.528 122.471C186.909 121.875 189.938 121.271 192.602 120.657C194.209 120.31 195.859 119.83 197.317 119.101C197.95 118.785 198.778 118.307 199.588 117.604C198.916 121.544 198.12 125.27 197.203 128.785L197.169 128.914L197.141 129.045C196.253 133.128 195.373 136.763 194.503 139.959C193.037 139.298 191.532 138.685 189.988 138.121C187.712 137.218 185.436 136.56 183.205 136.281L182.803 136.23H180.641C179.02 136.23 177.403 136.342 175.792 136.565C173.444 136.78 166.345 137.461 154.526 138.604L154.487 138.608L138.453 140.357C135.566 140.567 128.891 141.157 118.518 142.118L118.507 142.118L97.2103 144.161C91.1253 144.555 84.1977 145.141 76.4349 145.916C70.8829 146.209 65.0178 146.61 58.8407 147.118L51.1305 54.8515L85.2574 51.6521L85.7448 55.9169L85.8188 56.2499C86.0891 57.4661 86.25 58.9371 86.25 60.6992C86.25 63.2909 85.925 66.2537 85.2176 69.6141L85.2027 69.6845L85.1895 69.7552C84.0705 75.7232 82.5811 81.491 80.7242 87.0617C78.859 92.6572 77.0143 96.677 75.2811 99.3556C73.2857 102.439 71.0059 105.639 68.4349 108.955L62.8366 115.113C61.5045 116.473 59.5898 118.898 59.5898 122.223C59.5898 123.405 59.8439 125.196 61.0486 126.839C61.535 127.574 62.2123 128.329 63.1435 128.949C64.4729 129.836 65.929 130.188 67.2617 130.188C68.7958 130.188 70.1035 129.727 70.8476 129.43C71.6422 129.112 72.4396 128.708 73.2056 128.279L80.9651 124.543L81.0085 124.521C85.1889 122.431 89.4403 118.719 93.7416 114.008L93.751 113.997C97.9675 109.359 101.497 104.457 104.303 99.2846C107.108 94.2715 109.174 89.8162 110.163 86.1045L110.176 86.0554L110.189 86.0062C110.988 82.8074 112.076 78.1594 113.446 72.0919C114.815 66.027 115.828 62.1181 116.495 60.118C117.119 58.2459 117.585 56.9116 117.907 56.0523C118.222 55.5516 118.523 55.036 118.779 54.5241L118.787 54.5071C119.018 54.0454 119.758 52.567 119.758 50.7383ZM162.531 44.5859C162.531 44.5134 162.531 44.4409 162.529 44.3685L201.098 42.2774L201.28 42.2571C202.865 42.0811 204.18 42.0039 205.25 42.0039C205.786 42.0039 206.195 42.0234 206.493 42.0505C206.756 42.0744 206.88 42.0996 206.897 42.103C206.899 42.1035 206.898 42.1035 206.897 42.103L206.979 42.1235L207.063 42.1421C207.147 42.1607 207.221 42.1792 207.287 42.197C207.361 42.4689 207.447 42.8387 207.533 43.3235C207.499 44.9471 207.319 48.4835 206.966 54.1414L206.958 54.2628L206.668 65.8568C206.465 67.8443 205.993 71.9935 205.244 78.3632L202.049 103.34C201.98 103.708 201.91 104.086 201.839 104.474C201.078 103.163 200.307 101.919 199.526 100.746L199.168 100.21L198.713 99.7554C197.264 98.3057 195.65 97.0301 193.851 96.0776C191.6 94.6794 189.046 94.0308 186.561 93.7823L186.238 93.75H185.914C184.481 93.75 181.929 94.0017 178.709 94.3805L178.523 94.4023L178.339 94.4348C175.38 94.957 172 95.3206 168.179 95.5078H161.008C159.341 95.3479 157.914 94.9986 156.687 94.5079L156.419 94.4003L156.141 94.3171C155.553 94.1407 155.448 93.9686 155.397 93.886L155.391 93.8753C155.13 93.4578 154.664 92.3651 154.332 90.1517C154.365 88.0979 154.625 84.5369 155.168 79.2838L156.341 69.3125L156.347 69.2561C156.723 65.4957 157.172 62.7204 157.65 60.8109L157.687 60.6608L157.718 60.5091C158.093 58.634 158.566 56.4524 159.142 53.9577C159.392 52.8763 159.637 52.0526 159.86 51.4473C159.97 51.1486 160.066 50.9262 160.143 50.7679C160.181 50.6899 160.211 50.6324 160.233 50.5928C160.256 50.553 160.268 50.5351 160.268 50.5352C160.729 49.8428 161.186 49.1035 161.552 48.3717L161.561 48.3548C161.792 47.893 162.531 46.4146 162.531 44.5859Z" fill="black"/>
</svg>
