<svg width="261" height="201" viewBox="0 0 261 201" fill="none" xmlns="http://www.w3.org/2000/svg">
<path fill-rule="evenodd" clip-rule="evenodd" d="M13.2127 172.664L2.93315 173.251C1.5739 173.275 0.12346 173.591 -1.22873 174.402C-2.45529 175.138 -3.36681 176.142 -4.01309 177.242C-4.91876 178.526 -5.12109 179.923 -5.12109 180.887C-5.12109 182.654 -4.38867 184.08 -3.82671 184.963C-3.26256 185.849 -2.54803 186.684 -1.79324 187.456C0.39014 190.087 3.73294 192.448 7.72322 194.643L7.76775 194.667L7.81278 194.691C11.9305 196.848 15.1505 198.416 17.3579 199.299C19.9654 200.342 22.7528 200.828 25.6602 200.828C26.9751 200.828 28.639 200.566 30.3761 200.218C32.213 199.851 34.4856 199.313 37.1689 198.617C42.1154 197.335 49.8483 196.001 60.5148 194.643L88.255 191.722L88.274 191.721C96.1701 190.951 110.521 189.98 131.409 188.809L131.434 188.807L131.458 188.806C152.135 187.44 168.056 186.665 179.262 186.472L179.263 186.472C190.37 186.277 200.888 186.18 210.816 186.18C220.884 186.18 229.011 186.471 235.243 187.036C239.211 187.432 242.515 187.645 245.094 187.645C246.564 187.645 248.038 187.571 249.322 187.314L257.301 186.764C258.869 186.739 260.576 186.402 262.143 185.438C263.758 184.444 264.857 183.008 265.505 181.411C265.937 180.468 266.207 179.402 266.207 178.25C266.207 175.079 264.278 172.528 262.558 170.773C260.063 167.844 256.769 165.561 252.897 163.813C249.197 161.771 245.462 160.114 241.694 158.858C238.052 157.644 234.848 156.776 232.146 156.326L231.738 156.258H229.273C226.869 156.258 223.739 156.473 219.961 156.871L219.827 156.885L219.694 156.907C215.013 157.656 207.848 158.425 198.113 159.203L198.093 159.205L178.22 160.958L171.088 161.386L179.829 135.854L179.851 135.783C182.358 127.682 184.444 121.626 186.111 117.535C187.995 113.394 189.49 110.216 190.605 107.978C191.77 106.004 193.192 104.084 194.887 102.219L195.046 102.044L195.188 101.855C196.898 99.5744 198.38 97.4132 199.053 95.732L199.41 94.8379V93.875C199.41 90.3973 197.143 87.5028 195.1 85.4429C192.726 82.8552 189.762 80.6164 186.315 78.6773L186.303 78.6708L186.291 78.6644C182.662 76.6477 179.199 74.9143 175.906 73.4739L175.866 73.4562L175.825 73.4393C173.121 72.3125 170.393 71.5898 167.75 71.5898C166.808 71.5898 165.888 71.7193 164.999 71.9613C164.641 72.0149 164.342 72.0842 164.148 72.1307C163.685 72.2419 163.178 72.3895 162.655 72.5544C161.605 72.886 160.266 73.3605 158.67 73.959C156.069 74.9342 152.013 75.8509 146.288 76.6142L146.208 76.6249L132.116 78.9736L123.832 80.1786L126.413 71.6284C126.429 71.5789 126.448 71.5246 126.468 71.4649C126.639 70.9628 126.904 70.2087 127.268 69.1895C127.994 67.1574 129.087 64.1446 130.551 60.1437L130.57 60.0928L130.587 60.0415C133.335 51.9944 135.348 47.0568 136.642 44.7932L136.673 44.7385L136.703 44.683C138.119 42.0542 139.352 39.154 139.352 36.4531V35.8672C139.352 33.45 138.407 31.2127 137.249 29.3134C136.687 28.2303 136.01 27.2128 135.234 26.2576L138.621 25.9048C145.773 25.3258 156.032 24.6479 169.421 23.8715L193.431 23.2859L193.501 23.2822C197.308 23.0818 200.931 22.7804 204.369 22.3759L204.387 22.3738L204.405 22.3715C206.234 22.143 208.085 21.7291 209.683 20.9301C211.32 20.1116 213.156 18.6317 213.866 16.147L214.059 15.4737V14.7734C214.059 13.2499 213.526 11.9415 213.091 11.0725C212.634 10.1582 212.035 9.24587 211.378 8.36141C209.577 5.72215 206.799 3.63815 203.613 1.92541C200.403 0.0125375 197.049 -1.40912 193.556 -2.31159C190.08 -3.58662 186.641 -4.28906 183.277 -4.28906C180.717 -4.28906 177.117 -3.68239 172.794 -2.69988C168.6 -1.74672 165.06 -1.09869 162.149 -0.734827L161.998 -0.715908L161.848 -0.687799C158.84 -0.123839 156.124 0.34534 153.696 0.721357C150.975 0.938491 145.491 1.52922 137.347 2.47604C128.923 3.26017 120.692 4.14234 112.653 5.12271L112.645 5.12362L79.8591 9.22187L43.0588 13.3108C41.5986 13.4282 40.0253 13.6821 38.632 14.2793C37.2228 14.8832 35.0852 16.274 34.5268 19.0663L34.4297 19.5518V20.6328C34.4297 23.4032 35.8375 25.5765 37.359 27.098L37.6103 27.3493L37.8945 27.5625C39.8142 29.0023 42.4707 30.5267 45.6897 32.1362C48.8129 33.6978 51.5424 34.881 53.6621 35.4236C55.5441 35.9519 57.5561 36.1797 59.6445 36.1797H62.0179L69.554 34.2957C73.0728 33.5588 77.7807 32.8036 83.7219 32.037L101.984 29.6653L102.204 30.4587C102.307 31.2855 102.396 33.1406 102.398 36.3279C102.21 40.0279 101.838 44.1241 101.278 48.6224C100.514 53.1916 99.4638 58.7324 98.1215 65.2555L93.6845 83.9893L71.394 86.269L71.3476 86.2746C64.9651 87.0482 60.2202 87.4102 57.0078 87.4102H53.7852C52.3394 87.4102 50.6425 87.5294 49.1338 88.1096C48.3423 88.4141 47.3046 88.9575 46.4362 89.9595C45.4831 91.0592 44.9766 92.438 44.9766 93.875V94.168C44.9766 95.1374 45.2415 95.9225 45.3594 96.2525C45.5126 96.6815 45.6986 97.0853 45.8706 97.4294C46.2172 98.1226 46.6777 98.9098 47.2014 99.7477L47.314 99.9277L47.4414 100.098C48.9173 102.066 50.6738 103.727 52.7129 105.032C54.7095 106.497 56.9078 107.546 59.2919 108.098C61.1039 108.6 62.9869 108.836 64.918 108.836H66.6758C67.2387 108.836 67.8246 108.738 68.0609 108.698L68.0837 108.695C68.4531 108.633 68.9032 108.548 69.4142 108.446C70.406 108.248 71.7503 107.96 73.4319 107.587L83.5046 106.148L87.9673 105.495L84.6931 117.5L84.6833 117.538C82.5639 125.823 80.0557 134.411 77.1565 143.301L77.1412 143.348L77.1268 143.396C74.6932 151.392 71.9448 159.866 68.8805 168.818L52.2466 170.041L24.8584 172.125L24.4473 172.227C24.4447 172.228 24.4239 172.233 24.3814 172.241C24.3351 172.25 24.271 172.262 24.1867 172.275C24.0159 172.301 23.789 172.331 23.4977 172.361C22.912 172.422 22.1438 172.477 21.1743 172.523C19.2357 172.616 16.6383 172.664 13.3555 172.664H13.2127ZM100.441 154.582C106.989 134.167 110.81 122.121 111.865 118.558C112.95 115.466 114.618 110.084 116.852 102.493L139.216 99.4431C139.522 99.4237 139.85 99.3924 140.097 99.3689L140.136 99.3652C140.673 99.314 141.412 99.2387 142.346 99.1405C144.211 98.9442 146.899 98.651 150.403 98.2616C152.22 98.0807 153.798 97.9961 155.152 97.9961C156.857 97.9961 157.992 98.1499 158.686 98.3369C158.918 98.3992 159.062 98.4546 159.141 98.4893L159.234 98.5824C159.653 99.0013 159.82 99.3852 159.82 100.027V100.906C159.82 102.267 159.153 105.906 157.36 112.481L153.286 127.322C152.155 130.895 150.54 135.456 148.427 141.028L139.899 163.509L96.5848 166.334L100.436 154.598L100.441 154.582Z" fill="black"/>
</svg>
