<svg width="261" height="201" viewBox="0 0 261 201" fill="none" xmlns="http://www.w3.org/2000/svg">
<path d="M113.297 -1.96094C112.184 -1.96094 110.381 -1.85618 108.632 -0.981746L107.689 -0.510023L106.943 0.235837C104.667 2.51191 103.867 5.39739 103.867 8.05469C103.867 10.4625 104.617 12.9366 105.498 15.142L105.504 15.1562L109.867 26.2104C111.721 31.147 114.347 37.0896 117.704 44L117.72 44.0336L117.737 44.067C120.287 49.1662 122.545 53.3435 124.47 56.3102L82.557 61.3766L46.369 66.6297L38.9881 67.1975L21.589 68.4403L20.6485 68.8165C19.4373 69.3009 18.2081 69.8851 17.1132 70.6151C16.104 71.2879 14.6543 72.446 13.7331 74.2884L13.0469 75.6609V77.7812C13.0469 80.3582 14.1956 82.6896 15.0752 84.2288L15.1862 84.4232L15.3104 84.6095C16.5504 86.4694 18.384 88.0172 20.1478 89.2849C22.016 90.6277 24.3257 92.0182 26.9961 93.4566L27.0121 93.4652L33.5284 97.0197L33.6322 97.0716C37.4874 98.9992 41.5058 100.102 45.6211 100.102H46.083L46.5403 100.036C48.5672 99.7467 51.5328 98.8732 55.0008 97.7172L55.1523 97.6667L55.3012 97.6088C58.3275 96.4319 63.9671 94.8593 72.5499 92.9087L72.6181 92.8932L72.6859 92.8762C81.1473 90.7609 86.656 89.4314 89.3204 88.8553L106.696 85.9593C114.423 84.8009 121.04 83.9392 126.563 83.3678L126.575 83.3666L126.587 83.3654C131.847 82.8018 148.227 81.7379 176.019 80.172C203.601 79.0068 222.054 78.428 231.506 78.4219L244.103 79.0078H256.377L256.779 78.9576C259.199 78.6551 261.658 77.8398 263.77 76.1755C266.704 73.9208 267.453 70.6296 267.453 68.1133V66.4342L267.259 65.6579C266.436 62.3662 264.357 59.7401 262.049 57.6887C259.772 55.6646 256.66 53.6376 252.977 51.5914C249.22 49.5043 245.438 47.7159 241.629 46.2349L241.575 46.2139L241.521 46.1937C237.446 44.6926 233.509 43.7422 229.898 43.7422C228.664 43.7422 227.199 43.9688 225.858 44.2171C224.389 44.4891 222.587 44.8827 220.483 45.3838C216.855 46.2475 210.891 47.0946 202.357 47.8704L202.311 47.8746L157.7 52.5705C158.235 49.9873 158.469 47.2367 158.469 44.3828V44.2352L158.462 44.0877C158.228 38.9445 156.957 33.7416 154.791 28.5131C152.731 23.0668 149.706 18.3559 145.657 14.523C142.112 10.9913 138.053 7.9348 133.514 5.34079L133.411 5.28172L133.305 5.22647C128.985 2.96342 124.471 0.912642 119.767 -0.928078L119.299 -1.1112L118.808 -1.22022C116.906 -1.64301 114.989 -1.96094 113.297 -1.96094Z" fill="black"/>
<path d="M89.8594 98.4883C88.6046 98.4883 87.4418 98.7539 86.4054 99.1824C84.3865 99.8357 81.7081 101.19 80.237 104.132C79.2682 106.07 78.9044 108.491 78.7041 110.494L78.6719 110.816V111.141C78.6719 112.039 78.4542 113.629 77.7501 116.093L77.7343 116.149L77.7195 116.204C77.0078 118.873 76.1145 121.556 75.0352 124.254L75.009 124.32L74.9842 124.386C74.053 126.869 72.2007 130.403 69.199 135.1C65.9831 139.823 61.2049 146.325 54.8201 154.644L54.8131 154.653L54.8063 154.662C48.5763 162.839 43.965 168.467 40.8955 171.717L40.8354 171.78L40.777 171.846C37.5487 175.454 33.9221 179.272 29.8921 183.302L24.6186 188.576C23.1289 190.065 21.543 192.402 21.543 195.516C21.543 197.029 21.9294 198.409 22.5222 199.594L22.9939 200.538L23.7397 201.284C25.0342 202.578 27.1759 204.066 30.0938 204.066C31.4675 204.066 32.7037 203.743 33.6141 203.44L34.1977 203.245L41.9406 198.909C44.4463 197.628 48.798 194.719 54.5988 190.603C60.6328 186.514 65.5441 182.918 69.2632 179.831C73.2998 176.838 77.9843 172.635 83.2792 167.343C88.615 162.203 92.8895 157.736 96.0247 153.974L104.625 143.653L111.448 136.831C113.185 135.093 114.711 133.83 116.024 132.955C117.063 132.262 118.056 131.526 118.914 130.745C119.57 130.149 120.393 129.31 121.063 128.226C122.338 126.488 123.312 124.281 123.312 121.688C123.312 119.842 122.851 117.949 121.766 116.233C120.231 113.647 117.739 111.568 115.194 109.867L106.858 104.096L105.977 103.802C105.083 103.504 102.406 102.442 97.6328 100.453C95.2067 99.4423 92.4194 98.4883 89.8594 98.4883Z" fill="black"/>
<path d="M160.758 104.055C159.407 104.055 157.822 104.328 156.288 105.204C154.712 106.105 153.597 107.412 152.893 108.82L152.885 108.837C152.654 109.298 151.914 110.777 151.914 112.605C151.914 115.519 153.324 117.82 154.51 119.303L156.914 122.308L162.036 128.334L162.119 128.423C163.801 130.258 166.163 133.598 169.228 138.771L169.265 138.833L180.476 156.829L192.281 174.832L192.328 174.899C197.615 182.536 201.748 188.194 204.666 191.738C207.444 195.11 210.057 197.893 212.472 199.858C215.193 202.339 218.872 204.945 223.16 204.945H224.683L225.314 204.819C230.479 203.786 233.357 199.474 234.975 195.777L235.065 195.571L235.141 195.358C236.448 191.698 236.984 187.482 236.984 182.918V180.618L236.965 180.369C236.515 174.513 234.958 168.499 232.426 162.358C230.016 156.036 226.543 150.102 222.064 144.556L221.978 144.45L221.887 144.347C217.343 139.183 212.297 134.345 206.758 129.832L206.701 129.786L206.643 129.74C201.307 125.59 196.774 122.261 193.074 119.795L193.037 119.77L193 119.746C189.488 117.474 185.243 115.051 180.303 112.478C175.643 109.763 171.86 107.748 169.117 106.605L165.559 105.123L165.516 105.106C164.283 104.613 162.585 104.055 160.758 104.055Z" fill="black"/>
</svg>
