<svg width="261" height="201" viewBox="0 0 261 201" fill="none" xmlns="http://www.w3.org/2000/svg">
<path d="M98.9023 2.625C96.6162 2.625 93.7352 3.0865 91.4917 5.13355C89.5158 6.75116 88.4219 9.06146 88.4219 11.6406C88.4219 14.0187 89.4693 16.4986 90.4674 18.4948L90.5208 18.6017L90.5789 18.7062C91.2004 19.825 91.7067 21.2579 92.0123 23.0917L92.019 23.1316L92.0262 23.1714C92.3571 24.9914 92.732 28.5269 93.1234 34.0051C93.5146 39.4825 93.6953 43.1107 93.6953 45.0391V85.5947L43.7067 95.0012L43.6959 95.0032C40.0006 95.6838 37.1592 96.1893 35.1564 96.5231C34.1509 96.6907 33.3863 96.81 32.8444 96.8859C32.5417 96.9283 32.3694 96.9479 32.2931 96.9566C32.2758 96.9585 32.2634 96.96 32.2556 96.9609H32.0334L22.9049 98.1781L13.2226 99.3884L12.9004 99.4689C11.8951 99.7202 10.8433 100.058 9.8704 100.545C9.03742 100.961 7.89516 101.667 6.98687 102.857C6.24062 103.779 5.90816 104.739 5.74918 105.375C5.55418 106.155 5.51172 106.883 5.51172 107.441C5.51172 108.664 5.80011 109.785 6.08693 110.646L6.31985 111.344L6.72841 111.957C8.31056 114.33 10.9054 116.02 13.4605 117.305L21.6664 121.701L21.7356 121.736C23.0999 122.418 24.819 123.165 26.8402 123.974L27.1867 124.112L27.5489 124.203C29.5854 124.712 31.6964 124.953 33.8633 124.953H35.9141C39.1541 124.953 43.5547 123.938 48.6643 122.366C53.5684 120.857 60.1676 119.132 68.5075 117.193L68.5651 117.18L82.3652 113.656L82.3785 113.653C84.9955 112.999 88.6321 112.157 93.3031 111.127L92.5234 125.16V128.242C92.5234 132.95 92.8293 138.784 93.4224 145.704L93.4295 145.787L93.4392 145.87C94.4494 154.558 96.0819 162.285 98.3886 168.995L98.4228 169.094L98.4607 169.193C101.044 175.866 104.604 181.438 109.286 185.651L109.453 185.801L109.632 185.937C114.102 189.343 118.905 192.12 124.033 194.257L124.219 194.334L124.409 194.397C129.436 196.073 135.105 197.405 141.386 198.418L141.46 198.43L141.535 198.44C147.681 199.26 154.472 199.66 161.891 199.66H165.992C172.035 199.66 178.077 199.358 184.118 198.754L184.132 198.753L184.146 198.751C191.624 197.964 197.799 197.169 202.639 196.363C207.433 195.564 212.882 194.473 218.977 193.098C224.918 191.944 230.02 190.444 233.243 188.165C236.156 186.273 238.875 183.257 238.875 178.926C238.875 176.874 238.101 175.085 237.329 173.753C236.522 172.358 235.434 170.982 234.207 169.643C231.452 166.638 227.954 164.28 223.89 162.474C219.83 160.669 215.746 159.656 211.695 159.656H210.925L210.184 159.868C208.683 160.297 205.834 161.215 201.753 162.575C197.864 163.871 193.174 165.189 187.658 166.523C181.884 167.677 177.216 168.532 173.63 169.099L173.492 169.12L173.355 169.149C170.004 169.855 165.515 170.417 159.812 170.798C156.004 170.988 152.401 171.082 149 171.082H143.82C138.272 170.892 134.523 170.248 132.235 169.402C129.927 168.471 128.16 167.3 126.815 165.955C125.666 164.806 124.33 162.878 122.922 159.885C121.817 157.537 120.886 153.315 120.507 146.682C120.121 139.727 119.93 133.584 119.93 128.242C119.93 123.63 120.296 116.181 121.05 105.805L150.932 101.463L150.963 101.458L176.068 97.9554C182.601 97.188 190.701 96.4162 200.383 95.6413L226.093 93.8883C233.296 93.4989 238.308 93.2043 241.091 93.0056C244.125 92.7889 247.15 92.2187 249.58 90.83L250.001 90.5898L250.373 90.2799C251.951 88.9643 253.454 87.2883 254.302 85.1676L254.695 84.1842V82.5391C254.695 80.0283 253.472 78.0547 252.416 76.7722C251.318 75.44 249.889 74.2291 248.344 73.1215C245.09 70.6834 242.039 68.6755 239.205 67.1496L239.056 67.0693L238.902 66.9984C236.236 65.7675 233.295 64.5513 230.088 63.3476C227.078 62.1455 224.435 61.2464 222.263 60.7638L221.674 60.6328H221.07C217.831 60.6328 214.294 61.093 210.502 61.9357C206.91 62.7338 201.186 64.1163 193.369 66.0705L193.323 66.0819L193.278 66.0941C185.337 68.2245 179.031 69.7509 174.319 70.6945L122.164 80.5058L124.021 53.576L124.024 53.5313C124.209 50.0012 124.582 46.2588 125.148 42.3013L125.164 42.1863L125.176 42.0707C125.554 38.2878 126.01 35.4587 126.504 33.4824C126.985 31.5592 127.717 29.5917 128.724 27.5769C129.722 25.5806 130.77 23.1008 130.77 20.7227V20.4297C130.77 17.9218 129.898 15.6527 128.392 13.7712L128.202 13.5333L127.987 13.3179C126.582 11.913 124.617 10.4858 122.363 9.05127L122.207 8.95175L122.044 8.86298C119.651 7.55806 117.274 6.52447 114.917 5.81048C112.825 5.12054 110.069 4.4985 106.786 3.91422C103.728 3.15582 100.97 2.625 98.9023 2.625Z" fill="black"/>
</svg>
