<svg width="261" height="201" viewBox="0 0 261 201" fill="none" xmlns="http://www.w3.org/2000/svg">
<path d="M100.387 4.05078H100.155L99.9236 4.0673C96.8798 4.28471 94.0484 4.73774 91.593 5.55621C90.4164 5.94839 89.1727 6.46683 88.0347 7.191C86.931 7.89341 85.5221 9.04639 84.612 10.8665L83.9258 12.239V14.3594C83.9258 17.2175 85.1364 19.7942 87.3127 21.5994C89.0071 23.1752 91.027 24.1372 93.0346 24.7108L93.3323 24.7959L101.389 26.2879C104.229 26.9651 106.477 27.7613 108.215 28.6172C109.764 29.4759 111.552 30.7752 113.573 32.6274C115.752 34.6248 117.329 36.308 118.4 37.6859L118.516 37.8342L118.64 37.9756C119.45 38.9014 120.716 40.842 122.405 44.2194C124.267 47.9431 128.078 54.7533 133.729 64.4955C139.334 74.1599 145.931 86.1866 153.523 100.593C161.135 115.035 166.576 125.034 169.795 130.466L169.804 130.481L183.002 152.478L183.007 152.486C185.917 157.303 188.614 161.316 191.095 164.443C193.48 167.451 196.036 170.122 198.751 171.72C202.39 173.86 205.931 175.494 209.343 176.469L209.553 176.529L209.767 176.574C213.22 177.314 218.202 177.598 224.312 177.598H238.177L268.37 176.718C270.122 176.702 272.383 176.297 274.369 174.708C276.5 173.004 277.387 170.686 277.637 168.681L277.688 168.28V167.289C277.688 161.691 272.997 158.983 270.356 157.851L261.481 153.557C261.456 153.544 261.4 153.514 261.303 153.463C261.228 153.423 261.129 153.37 261 153.301C260.671 153.125 260.217 152.88 259.635 152.565C258.471 151.935 256.818 151.035 254.671 149.864L254.569 149.808L237.473 141.26C235.071 140.059 231.216 137.779 225.777 134.282L225.733 134.254L225.69 134.227C220.286 130.873 214.644 126.835 208.764 122.093L208.725 122.061L208.685 122.03C202.806 117.437 197.263 112.085 192.062 105.955L192.025 105.912L191.988 105.869C186.485 99.6079 182.221 94.126 179.127 89.4063L160.118 58.114L146.372 36.18C142.461 29.5343 139.015 24.2379 136.056 20.4199C133.105 16.3561 129.626 12.9736 125.598 10.367C121.637 7.80444 117.383 6.02154 112.859 5.06911L112.672 5.02986L112.484 5.0016C108.297 4.37354 104.262 4.05078 100.387 4.05078Z" fill="black"/>
<path d="M-0.67126 163.475L-0.684595 163.484L-2.85188 165.032L-2.99021 165.143C-3.74146 165.744 -4.60061 166.536 -5.31759 167.539C-6.0207 168.524 -6.89453 170.149 -6.89453 172.27C-6.89453 173.662 -6.54199 175.9 -4.69776 177.745C-3.00846 179.434 -0.830506 180.234 1.36328 180.234C2.57609 180.234 3.68169 179.983 4.55052 179.715L8.20536 178.871L8.31153 178.843C10.6392 178.222 13.4028 176.856 16.2964 175.209C19.3102 173.494 22.952 171.189 27.1912 168.332C35.5375 163.02 41.1591 159.319 43.7967 157.358C46.6867 155.396 51.418 151.239 57.6691 145.366C64.0958 139.329 68.9757 134.556 72.2411 131.092C75.8797 127.441 80.1708 122.198 85.0793 115.525C90.1781 108.858 93.3309 104.884 94.698 103.346L94.7795 103.254L98.879 98.276C100.123 96.8825 101.237 95.7631 102.223 94.887C102.832 94.5033 103.353 94.1683 103.773 93.8888L103.824 93.8544C104.131 93.651 104.955 93.1045 105.569 92.4907L106.315 91.7449L106.786 90.8014C107.812 88.7494 108.059 86.5346 108.059 84.6719V82.3761L107.97 81.8455C107.152 76.9367 103.335 72.9823 99.4339 69.9022L99.3707 69.8522L99.3063 69.8039C95.301 66.8 91.6848 64.4505 88.5545 62.9926C85.6284 61.542 82.5061 60.5938 79.293 60.5938C78.2732 60.5938 77.1982 60.655 76.1527 60.8451C75.1729 61.0232 73.7892 61.3884 72.4648 62.2714L71.0285 63.2289L70.2565 64.7728C69.2556 66.7746 68.9097 69.3779 68.7181 71.4857C68.5418 73.4249 68.2768 75.4731 67.9195 77.6323C67.6189 79.0831 66.8883 81.5011 65.5766 85.0615L65.5236 85.2052L65.4775 85.3512C64.4308 88.6657 63.0229 92.0195 61.2363 95.4141C59.47 98.77 56.9181 102.801 53.5102 107.534L53.4592 107.605L53.4101 107.677C50.26 112.31 46.3188 117.385 41.5573 122.908L41.5218 122.949L41.487 122.991C36.6999 128.736 32.243 133.662 28.1147 137.791C23.9172 141.988 18.8262 146.793 12.8282 152.21C7.03799 157.421 2.5597 161.14 -0.67126 163.475Z" fill="black"/>
</svg>
