<svg width="261" height="201" viewBox="0 0 261 201" fill="none" xmlns="http://www.w3.org/2000/svg">
<path d="M235.404 130.202C234.553 131.585 234.049 133.211 233.706 134.692L233.703 134.705L232.592 139.427C232.159 140.749 231.478 143 230.563 146.108C229.57 149.484 228.387 153.728 227.013 158.828C225.731 163.589 224.286 166.794 222.868 168.78C221.808 170.265 219.333 172.209 214.429 174.207C209.914 176.047 204.679 177.023 198.633 177.023H196.582C190.58 177.023 184.136 176.296 177.237 174.804L177.17 174.79L177.103 174.777C169.155 173.263 164.175 171.303 161.466 169.307C158.415 167.059 156.169 164.399 154.626 161.314L154.601 161.263L154.574 161.212C152.982 158.188 151.879 154.557 151.359 150.228L151.358 150.214L151.356 150.201C151.195 148.911 151.105 147.386 151.105 145.609C151.105 140.698 151.899 134.697 153.594 127.541L153.609 127.477L153.623 127.412C155.745 117.38 157.747 109.388 159.621 103.378C161.742 97.21 164.156 90.5497 166.863 83.3956C169.59 76.1868 171.656 71.2369 173.083 68.3815C174.419 65.7112 175.823 63.7231 177.233 62.2887L183.49 56.6571L183.873 56.0821C184.714 54.8201 185.439 53.6311 185.974 52.5612L186.555 51.3999V50.1016C186.555 45.9769 183.837 43.0401 181.315 41.1494C178.773 38.8799 175.772 36.9165 172.382 35.2213C168.973 33.5168 165.596 32.2012 162.257 31.3107L162.089 31.2659L161.918 31.2318C159.702 30.7885 157.574 30.5391 155.566 30.5391H153.498L152.908 30.67C150.541 31.1962 147.566 32.3836 144.197 33.9667C141.104 35.3422 138.667 36.4912 137.021 37.3819C135.63 37.8065 134.077 38.3652 132.382 39.0379L122.611 41.9119L114.817 44.386C115.623 42.1406 116.436 39.9067 117.297 37.6982C119.568 31.8714 122.028 26.6156 125.103 22.5148L125.329 22.2143L125.511 21.8859C125.988 21.0267 126.345 20.4047 126.591 19.9938C126.627 19.9349 126.658 19.8838 126.685 19.8396L127.961 18.5633V16.2852C127.961 15.2247 127.799 13.9766 127.593 12.7442C127.094 9.74993 125.127 7.4556 123.291 5.82202C121.311 3.8733 118.883 2.17574 116.127 0.678741C113.344 -1.02283 110.372 -2.50147 107.218 -3.76287L107.068 -3.8229L106.915 -3.87401C103.949 -4.86265 101.543 -5.59993 99.7714 -6.04282L99.6445 -6.07456L99.5161 -6.10022C98.3938 -6.32469 97.2064 -6.5 96.0938 -6.5C95.2423 -6.5 94.2703 -6.43312 93.295 -6.1893C92.4815 -5.98592 91.3708 -5.58598 90.3412 -4.73893C88.9811 -3.73364 88.0262 -2.43668 87.3658 -1.11592L87.191 -0.766317L87.0674 -0.395503C86.6432 0.87718 86.4922 2.17136 86.4922 3.39453V3.6875C86.4922 4.57802 86.669 5.84321 86.8491 7.01405C87.0554 8.35513 87.3585 10.1198 87.7528 12.2886L87.7682 12.3731L87.7861 12.4571C88.9297 17.7938 89.4219 21.6475 89.4219 24.1953C89.4219 29.1328 88.1252 34.2257 86.2976 39.8813C85.8328 41.3197 85.3227 42.822 84.7979 44.3679C83.6858 47.6435 82.5074 51.1145 81.5528 54.5856L76.2185 56.3002L76.1917 56.3091C76.1968 56.3075 76.1682 56.3169 76.0916 56.3395C76.0154 56.362 75.9123 56.3915 75.7783 56.4287C75.5095 56.5032 75.1518 56.5987 74.6976 56.7167C73.7904 56.9523 72.5527 57.2634 70.9754 57.6516C67.8239 58.4274 63.3735 59.4975 57.6169 60.8634L57.5741 60.8736L57.5315 60.8844C51.7855 62.3453 47.346 63.4305 44.1912 64.1475C42.6099 64.5069 41.3926 64.7643 40.5147 64.9289C39.9623 65.0325 39.655 65.077 39.5243 65.096C39.4716 65.1036 39.4476 65.1071 39.4477 65.1086C39.4477 65.109 39.449 65.1092 39.4513 65.1094H38.7805L38.0398 65.321C37.2072 65.5589 33.7502 66.0985 26.8964 66.9049L26.8419 66.9113L18.069 68.1213L17.8499 68.17C15.8412 68.6164 13.1392 69.5162 11.3259 71.7429C10.0058 73.2635 9.73438 75.0231 9.73438 76.1758C9.73438 78.7505 11.1495 80.6581 12.1634 81.7492C13.6414 83.7271 15.8588 85.3319 18.1311 86.6736C20.5441 88.331 23.4679 89.7516 26.7798 90.9936C29.9821 92.1944 33.12 93.1016 35.7422 93.1016C38.7081 93.1016 42.3441 91.8997 46.0796 90.3268L46.1296 90.3058L46.1791 90.2838C49.3511 88.874 53.655 87.3957 59.1775 85.8723L59.2704 85.8466L74.7753 80.9788L70.0746 95.8231C67.409 103.432 64.4632 110.747 61.2387 117.769C57.8618 124.703 53.6181 131.971 48.4869 139.576C43.2881 147.084 38.4088 153.585 33.8488 159.095L33.8197 159.13L33.7912 159.166C29.2617 164.828 24.1483 170.417 18.443 175.932C12.7548 181.431 7.93147 185.598 3.94938 188.511L-0.769354 191.46L-0.95625 191.6C-1.9258 192.327 -2.91417 193.182 -3.70884 194.176C-4.44233 195.092 -5.5 196.735 -5.5 198.93C-5.5 200.271 -5.15798 201.498 -4.62638 202.561L-4.40459 203.005L-4.10703 203.402C-2.48239 205.568 -0.0710087 206.773 2.63672 206.773C3.84514 206.773 5.01755 206.57 6.13378 206.198L6.33866 206.13L14.1147 202.84L14.1355 202.831C20.2454 200.301 27.2082 196.385 34.9844 191.201L35.012 191.183L35.0394 191.164C42.666 185.946 49.4434 180.492 55.3498 174.793C61.5701 168.981 67.3876 161.814 72.8296 153.362C78.489 145.264 83.6067 136.114 88.1985 125.938C92.8978 115.951 96.3023 108.058 98.3436 102.342L98.3733 102.259L98.4002 102.175C100.181 96.6346 101.958 90.71 103.732 84.4032L107.618 70.5594L135.334 61.7648L135.411 61.7381C137.882 60.8732 139.668 60.3988 140.882 60.1713C140.818 60.6394 140.726 61.0749 140.61 61.4812L140.585 61.5693L140.563 61.6582C140.229 62.9914 138.937 67.1658 136.565 74.479C134.185 81.8191 131.814 90.0202 129.451 99.0751C127.096 107.714 125.393 115.096 124.375 121.18C122.764 129.259 121.941 136.919 121.941 144.145C121.941 146.809 122.043 149.39 122.25 151.884C122.867 160.886 124.624 168.717 127.728 175.176C130.58 181.513 134.712 187.237 140.039 192.35C145.771 197.853 154.369 202.277 165.253 205.905L165.309 205.924L165.366 205.942C174.209 208.679 184.249 209.996 195.41 209.996C198.625 209.996 201.929 209.896 205.323 209.698C212.019 209.491 218.8 208.78 225.663 207.569L225.756 207.552L225.848 207.533C232.512 206.119 238.633 204.39 244.195 202.329L244.313 202.286L244.428 202.237C249.901 199.922 254.471 197.011 257.735 193.309C260.572 190.443 263.312 186.764 263.312 182.523V181.334L263.182 180.744C262.472 177.553 260.31 174.55 257.853 171.871C256.222 169.901 254.963 168.002 254.032 166.178C253.321 164.397 252.459 161.078 251.527 155.882C250.753 150.252 250.422 146.733 250.422 145.023V144.701L249.243 134.682C249.19 133.207 248.813 131.533 247.743 130.004C246.544 128.292 244.864 127.317 243.21 126.844L242.47 126.633H241.406C238.137 126.633 236.233 128.854 235.404 130.202Z" fill="black"/>
</svg>
