<svg width="261" height="201" viewBox="0 0 261 201" fill="none" xmlns="http://www.w3.org/2000/svg">
<path fill-rule="evenodd" clip-rule="evenodd" d="M11.2187 151.206C13.2732 153.314 16.1441 156.076 19.1618 157.498C22.0449 158.929 25.0952 159.852 28.2148 159.852C29.7204 159.852 32.2304 159.402 34.9579 158.856L34.9982 158.848L35.0384 158.839C37.6405 158.282 41.7235 157.52 47.3449 156.551L54.8239 155.4C57.9177 155.015 63.896 154.34 72.8027 153.372L72.8085 153.371L94.9882 151.036C98.3983 150.753 102.506 150.468 108.127 150.181C107.95 158.544 107.624 165.907 107.312 172.345C107.257 173.478 107.202 174.586 107.149 175.669L107.149 175.673C106.828 182.186 106.551 187.796 106.542 192.367C106.533 197.487 106.823 202.355 108.354 206.053C109.186 208.064 110.508 210.05 112.615 211.477C114.731 212.911 117.088 213.41 119.328 213.41H119.621C123.872 213.41 128.471 212.799 132.212 209.692C135.927 206.606 137.652 202.015 138.603 196.889C139.565 191.705 139.917 184.895 140.002 176.208C140.076 168.736 139.951 159.591 139.776 148.5L181.838 146.961C183.922 146.964 192.033 147.061 206.259 147.253L206.27 147.254L235.829 147.543C239.586 147.991 244.321 148.182 248.893 146.675C250.142 146.286 251.994 145.583 253.651 144.304C255.431 142.93 257.457 140.473 257.457 136.859C257.457 135.636 257.183 133.734 256.791 132.034C256.44 130.513 255.707 127.793 254.142 125.781L254.01 125.611L253.866 125.451C251.095 122.372 246.11 119.816 240.324 117.495C234.762 115.004 230.488 113.265 227.84 112.543L227.779 112.527L227.717 112.511C225.005 111.833 222.36 111.453 219.816 111.453C217.8 111.453 214.964 112.042 211.916 112.804C208.959 113.543 206.234 114.086 203.734 114.443C201.152 114.812 196.028 115.384 188.243 116.163L168.434 117.619L168.4 117.622L140.306 119.526L140.531 79.6443C146.91 79.0588 154.26 78.2819 161.698 77.4957L161.699 77.4956L161.702 77.4953C163.053 77.3524 164.408 77.2092 165.76 77.0668C176.881 75.8958 187.837 74.778 196.034 74.2657L196.22 74.2541L196.404 74.231C199.753 73.8124 202.899 73.124 205.375 71.8861C206.31 71.4185 207.224 70.9048 208.036 70.3363C208.772 69.8213 209.814 68.9963 210.613 67.797L211.621 66.2854V64.4688C211.621 62.2701 210.885 60.0353 210.181 58.4345C209.484 56.8521 208.335 54.7883 206.705 53.3215L206.382 53.0304L206.02 52.7889C203.354 51.0121 200.49 49.473 197.438 48.1648L197.208 48.0665L196.972 47.9876C193.894 46.9618 190.987 46.2523 188.312 45.9768C183.987 45.1838 179.758 45.8453 176.438 46.5951L141.672 51.1335L141.795 49.7863L141.795 49.7853C142.034 47.1564 142.272 44.5427 142.593 41.961C143.324 36.0999 144.397 31.3264 146.217 28.1409L146.3 27.9963L146.374 27.8473C147.765 25.0659 149.059 21.9079 149.059 19.0117C149.059 16.5364 147.988 14.5436 146.865 13.1395C145.787 11.7922 144.416 10.6682 143.009 9.71768C140.069 7.541 136.427 5.77309 132.274 4.31009C128 2.61094 123.802 1.49268 119.698 1.0367L119.367 1H119.035C117.368 1 115.705 1.1053 114.218 1.43585C112.984 1.71009 110.59 2.40098 108.962 4.57188L108.637 5.00469L108.395 5.48859C106.926 8.42623 107.107 11.2947 107.529 13.3541C107.828 14.811 108.402 16.4283 108.745 17.3979C108.829 17.634 108.899 17.8318 108.949 17.9794C109.627 20.014 110.105 23.3699 110.105 28.3867V28.4137L110.348 55.4307L79.8646 57.6619L79.7924 57.669C71.8089 58.4479 64.3177 59.1288 57.3181 59.7121L57.2957 59.714L50.8468 60.3003C49.8608 60.3844 48.0543 60.6473 46.2997 61.354C45.4187 61.7089 44.1671 62.3259 43.0545 63.4059C41.8438 64.5812 40.6836 66.4485 40.6836 68.9141C40.6836 69.8969 40.8997 70.8362 41.0442 71.3877C41.2259 72.0816 41.4835 72.8564 41.8183 73.6466C42.412 75.0478 43.5502 77.2211 45.5684 78.8193C48.2875 81.0342 51.301 82.6476 54.6034 83.4732L54.6563 83.4864L54.7094 83.4987C58.9036 84.4666 63.1031 84.8242 67.1914 84.8242C70.9505 84.8242 76.1934 84.5165 82.8218 83.9337L109.52 82.7519V121.412L102.646 122.117L102.295 122.257C101.997 122.305 101.541 122.368 100.897 122.447C99.5708 122.608 97.6481 122.81 95.102 123.052C90.021 123.536 82.6107 124.168 72.8536 124.949C53.3174 126.512 39.7953 127.378 32.1665 127.568C24.2887 127.765 20.1087 127.859 19.4258 127.859H19.1954L10.9872 128.491L10.6319 128.562C7.83066 129.122 4.40628 130.56 2.63344 134.106L2 135.373V136.789C2 138.291 2.24333 139.845 2.91161 141.391C3.57176 142.918 4.51577 144.134 5.51517 145.133C6.20134 145.819 7.01759 146.705 8.0174 147.792L8.08537 147.866C9.033 148.897 10.1106 150.069 11.2187 151.206ZM135.726 50.2654C135.757 49.9289 135.788 49.5905 135.819 49.2503L135.82 49.236C135.789 49.5809 135.758 49.9242 135.726 50.2654ZM102.587 122.205C102.587 122.205 102.568 122.209 102.526 122.217C102.564 122.208 102.586 122.204 102.587 122.205Z" fill="black"/>
</svg>
