<svg width="261" height="201" viewBox="0 0 261 201" fill="none" xmlns="http://www.w3.org/2000/svg">
<path d="M129.041 5.45111C126.153 4.41954 123.089 3.49918 119.856 2.68563C116.482 1.64316 113.26 1 110.324 1C108.675 1 106.938 1.13866 105.335 1.61002C103.821 2.0555 101.674 3.02776 100.284 5.2392C99.405 6.59207 98.7578 8.28027 98.7578 10.2227C98.7578 11.4161 99.0162 12.5085 99.2872 13.3649C99.8998 15.6725 101.071 18.006 102.507 20.2882C103.401 21.9574 104.191 23.9253 104.848 26.2265L104.865 26.2847L104.883 26.3426C105.471 28.2546 105.789 30.3887 105.789 32.7812V33.1795L105.842 33.5742C106.184 36.1393 106.374 39.5549 106.375 43.8929C105.998 96.7955 105.22 110.912 98.8695 155.858C97.9725 159.167 97 163.078 97 167.324C97 169.974 97.3566 173.006 97.9817 176.34L97.9883 176.376L97.9954 176.411C98.8498 180.683 100.054 184.575 101.664 188.026L101.732 188.171L101.807 188.312C103.404 191.305 104.914 193.825 106.334 195.734C107.335 197.171 108.449 198.541 109.691 199.617C110.85 200.622 112.883 202.035 115.598 202.035H116.485L117.067 201.919C119.653 201.401 121.701 199.849 123.198 198.384C125.123 196.683 126.565 194.588 127.6 192.253C128.941 190.317 129.995 188.118 130.819 185.743C131.854 183.626 132.703 181.478 133.356 179.302L133.437 179.032L134.781 172.313V169.082C134.781 166.771 134.677 163.908 134.478 160.527C133.165 138.208 133.359 127.617 133.796 103.765L133.796 103.757C133.866 99.942 133.943 95.7876 134.02 91.1918C136.197 92.8577 139.038 95.1103 142.576 97.9848L142.584 97.9917L160.687 112.591C165.875 117.036 169.689 120.169 171.952 121.788C173.83 123.393 177.006 125.726 181.26 128.687C185.507 131.772 189.273 134.153 192.263 135.261C194.915 136.309 197.694 136.828 200.559 136.828C201.872 136.828 203.198 136.741 204.445 136.492C205.567 136.268 206.993 135.841 208.314 134.922C210.521 133.469 211.43 131.248 211.833 129.797C212.283 128.178 212.418 126.398 212.418 124.676V124.476L212.405 124.277C212.167 120.706 211.344 117.04 210.025 113.304L210.006 113.249L209.985 113.194C208.582 109.453 206.523 105.832 203.894 102.326L203.838 102.251L203.779 102.178C201.041 98.7551 197.515 95.4842 193.319 92.3367L193.24 92.2777L193.16 92.2213C188.863 89.2141 183.542 86.3104 177.286 83.4829C170.909 80.4951 164.525 77.8022 158.134 75.4055L158.106 75.3949L158.078 75.3847C151.611 73.033 146.328 71.2359 142.269 70.0167L134.609 67.5877C134.85 62.7651 135.417 57.1131 136 51.3014L136 51.3005C136.276 48.5432 136.557 45.75 136.807 42.9924C136.99 40.9881 137.266 38.7691 137.641 36.3303C137.977 34.1469 138.46 32.3566 139.04 30.908L139.139 30.6598L139.216 30.4038C139.694 28.8096 140.341 27.0869 141.174 25.2319C142.224 23.3204 142.984 21.1185 142.984 18.7188V18.1328C142.984 15.5102 141.515 13.6109 140.861 12.8269C140.004 11.7985 138.922 10.8272 137.803 9.93197L137.73 9.87342L137.655 9.81719C135.425 8.14509 132.469 6.73549 129.13 5.48359L129.086 5.467L129.041 5.45111Z" fill="black"/>
</svg>
