<?xml version="1.0" encoding="UTF-8"?>
<svg width="1000px" height="1000px" viewBox="0 0 1000 1000" version="1.1" xmlns="http://www.w3.org/2000/svg" xmlns:xlink="http://www.w3.org/1999/xlink">
    <title>tan_string</title>
    <g id="tan_string" stroke="none" stroke-width="1" fill="none" fill-rule="evenodd">
        <g id="双品" transform="translate(-0.000000, 274.000000)" fill="#000000" fill-rule="nonzero">
            <path d="M305.126511,28.5976619 C332.330443,26.3978417 346.371181,25.2979317 347.248728,25.2979317 C348.126274,23.8313849 362.167012,29.5142536 389.370944,42.3465378 C416.574875,55.1788219 432.809479,63.4281475 438.074756,67.0945144 C445.972672,72.9607014 451.018562,83.9598022 453.212428,100.091817 C455.406293,116.223831 449.044083,137.672077 434.125798,164.436556 C419.207513,191.201034 411.748371,206.233138 411.748371,209.532869 C411.748371,212.832599 402.972909,224.748291 385.421986,245.279946 C362.605785,277.543975 356.462962,295.509173 366.993516,299.17554 C371.381247,299.17554 378.621003,306.87491 388.712784,322.273651 C398.804565,337.672392 402.095363,349.588085 398.585178,358.020728 C395.074994,366.453372 386.518919,372.319559 372.916953,375.61929 C359.314987,378.91902 337.156947,380.202248 306.442831,379.468975 C272.21853,379.468975 237.994229,384.235252 203.769929,393.767806 L151.117158,408.066637 L155.066116,427.865018 C155.943662,439.597392 151.994705,447.296763 143.219243,450.963129 C135.321327,454.629496 124.571387,453.346268 110.969421,447.113444 C97.3674555,440.880621 88.3726073,432.264658 83.9848764,421.265558 C79.5971456,410.99973 73.0155493,399.817311 64.2400876,387.7183 C55.4646259,375.61929 49.5411893,353.254451 46.4697777,320.623786 C43.3983661,287.993121 39.0106352,262.878507 33.3065851,245.279946 C27.602535,227.681385 24.5311234,211.916007 24.0923503,197.983813 C23.6535772,184.051619 19.4852329,167.552968 11.5873174,148.48786 C-10.3513369,95.6921763 -1.13710208,71.8607914 39.2300218,76.993705 C52.3932143,78.4602518 73.4543224,74.0606115 102.413346,63.7947842 C144.535562,49.1293165 212.106617,37.3969424 305.126511,28.5976619 Z M315.657065,103.391547 C317.412158,95.3255396 317.850931,90.5592626 316.973385,89.0927158 C316.095838,87.6261691 310.830561,86.8928957 301.177554,86.8928957 C248.524783,89.8259892 210.351525,94.5922662 186.657778,101.191727 C172.61704,104.858094 157.698755,107.42455 141.902924,108.891097 C123.474454,111.824191 112.724514,116.773786 109.653102,123.739883 C106.58169,130.70598 105.923531,148.48786 107.678623,177.085522 C110.311262,210.082824 114.698992,238.680486 120.841816,262.878507 L131.37237,300.27545 L149.800839,298.075629 C162.086486,295.875809 178.32109,294.775899 198.504652,294.775899 C212.54539,294.775899 221.759625,293.492671 226.147356,290.926214 C230.535087,288.359757 237.116683,280.477068 245.892145,267.278147 C259.932884,248.946313 272.21853,228.048022 282.749084,204.583273 C295.03473,178.918705 306.004058,145.188129 315.657065,103.391547 Z M593.400428,8.79928058 C623.236998,1.46654676 653.951114,-1.28322842 685.542776,0.549955036 C717.134438,2.38313849 754.868924,3.84968525 798.746232,4.94959532 C842.623541,6.0495054 869.388699,8.43264388 879.041707,12.0990108 C898.347722,19.4317446 920.06699,31.8973921 944.19951,49.4959532 C968.33203,67.0945144 984.78602,82.4932554 993.561482,95.6921763 C1006.72467,113.290737 999.704305,132.722482 972.500374,153.98741 C956.704543,167.919604 941.566871,183.8683 927.08736,201.833498 C912.607848,219.798696 900.980361,232.814299 892.204899,240.880306 C883.429438,248.946313 879.041707,253.895908 879.041707,255.729092 C879.041707,257.562275 888.694715,268.744694 908.00073,289.276349 C936.082208,322.273651 942.663804,345.188444 927.745519,358.020728 C912.827234,370.853013 875.970295,373.969424 817.174702,367.369964 C781.195309,362.970324 742.583277,362.23705 701.338607,365.170144 L638.155283,369.569784 L638.155283,393.767806 C638.155283,407.7 635.742031,417.965827 630.915527,424.565288 C626.089023,431.164748 619.726813,433.364568 611.828898,431.164748 C603.930982,430.431475 594.716748,424.198651 584.186193,412.466277 C573.655639,400.733903 568.390362,391.934622 568.390362,386.068435 C568.390362,380.935522 562.686312,368.469874 551.278212,348.671493 C539.870112,328.873112 532.849743,305.775 530.217104,279.377158 C527.584465,252.979317 521.661029,224.198336 512.446794,193.034218 C503.232559,161.870099 495.992803,132.355845 490.727526,104.491457 C486.339795,86.1596223 484.365317,74.2439299 484.80409,68.7443795 C485.242863,63.2448291 487.217342,57.9285971 490.727526,52.7956835 C508.27845,35.9303957 542.50275,21.2649281 593.400428,8.79928058 Z M764.521931,183.684982 C803.133963,119.156924 817.832861,83.4098471 808.618627,76.44375 C799.404392,69.4776529 760.572974,68.5610612 692.124372,73.6939748 C623.675771,78.8268885 587.696378,85.0597122 584.186193,92.392446 C582.431101,96.7920863 582.650488,109.441052 584.844353,130.339344 C587.038219,151.237635 587.696378,171.952608 586.818832,192.484263 C585.06374,227.681385 591.645336,252.61268 606.563621,267.278147 C610.073806,270.944514 621.701292,270.394559 641.446081,265.628282 C661.19087,260.862005 676.767314,257.378957 688.175415,255.179137 C714.5018,250.779496 739.950639,226.948112 764.521931,183.684982 Z" id="品"></path>
        </g>
    </g>
</svg>