<?xml version="1.0" encoding="UTF-8"?>
<svg width="800px" height="470px" viewBox="0 0 800 470" version="1.1" xmlns="http://www.w3.org/2000/svg" xmlns:xlink="http://www.w3.org/1999/xlink">
    <title>U_li_m</title>
    <g id="U_li_m" stroke="none" stroke-width="1" fill="none" fill-rule="evenodd">
        <g id="å‚å¹¿" transform="translate(-126.961458, -68.000000)" fill="#000000" fill-rule="nonzero">
            <path d="M832.734984,2.87960148 C842.639612,0.959867161 857.496555,0 877.305812,0 C890.511984,0.349042604 899.146788,0.785345859 903.210225,1.30890976 C907.273663,1.83247367 910.82917,3.14138344 913.876748,5.23563906 C920.987764,9.77319291 925.305166,40.7785732 926.828955,53.6931495 C927.844814,62.070172 923.019482,67.4803324 912.352959,69.9236306 C901.686436,72.3669288 887.210441,71.4943223 868.924973,67.3058111 C860.798098,65.2115554 852.671223,63.9026457 844.544348,63.3790818 C836.417474,62.8555179 819.909759,62.5937359 795.021206,62.5937359 C740.672731,62.5937359 292.489639,65.2115554 260.998,70.4471945 C245.25218,73.5885779 237.125305,76.0318762 236.617376,77.7770892 C236.617376,78.4751744 237.125305,79.1732596 238.141165,79.8713448 C240.172883,81.2675152 240.934778,86.328633 240.426848,95.0546981 L237.37927,123.327149 C232.807903,172.193114 234.102457,231.346913 221.243537,338.653749 C217.340777,371.222023 200.68979,448.528658 178.578034,476.599594 C132.813499,534.697798 92.1542735,561.674197 79.7099966,566.386272 C67.2657197,571.098347 -16.6702855,580.127725 2.96145839,538 C28.5880181,508.530629 64.5478232,492.95584 68.1033309,489.465414 C77.2460649,482.135519 90.960166,464.247086 109.245634,435.800114 C127.531102,407.353142 139.213485,386.148803 144.292781,372.187099 L153.435515,346.532468 C158.006882,332.221721 176.292351,273.728803 176.292351,123.042655 L176.292351,81.1524054 L178.578034,64.9219243 L169.4353,59.1627214 C162.832214,55.6722953 160.038601,52.007348 161.05446,48.1678793 C162.07032,44.3284107 166.641687,41.2742879 174.768562,39.005511 C182.895436,36.7367341 188.35568,34.9042604 191.149293,33.50809 C193.942907,32.1119196 202.586088,30.7157491 212.236752,29.3195787 C259.474211,20.5935136 288.680167,15.8814385 299.85462,15.1833533 C312.552861,13.7871829 822.830355,4.7993358 832.734984,2.87960148 Z" id="å¹¿"></path>
        </g>
    </g>
</svg>