<?xml version="1.0" encoding="UTF-8"?>
<svg width="375px" height="305px" viewBox="0 0 375 305" version="1.1" xmlns="http://www.w3.org/2000/svg" xmlns:xlink="http://www.w3.org/1999/xlink">
    <title>v_da_s</title>
    <g id="v_da_s" stroke="none" stroke-width="1" fill="none" fill-rule="evenodd">
        <path d="M197.041,202.483 L197.218346,203.485067 L197.901654,204.70044 L198.204119,205.221793 L198.528781,205.765097 L198.875677,206.330423 L199.244845,206.917844 L199.636325,207.527431 L200.050154,208.159257 L200.486372,208.813394 L201.182758,209.83659 L201.929733,210.910392 L202.455884,211.654493 L203.28746,212.813177 L204.169969,214.023115 L205.10354,215.28455 L206.427956,217.04699 L207.843686,218.901991 L208.965592,220.354331 L210.54186,222.372701 L211.784522,223.948229 L212.641827,225.028123 L213.971174,226.692454 L214.49002,227.349613 L215.202264,228.268992 L215.632414,228.83658 L216.02629,229.367029 L216.383439,229.859589 L216.703405,230.313512 C216.753609,230.385905 216.802245,230.456656 216.849303,230.525751 L217.201494,231.057822 L217.384,231.351 L217.426662,231.539112 L217.495485,231.802318 L217.575987,232.06963 C217.590407,232.114576 217.605334,232.159733 217.620781,232.205119 L217.719778,232.480353 L217.831755,232.762044 L217.957233,233.051132 L218.096732,233.348559 L218.250772,233.655265 L218.419873,233.972191 L218.604556,234.300277 L218.805341,234.640465 L219.022749,234.993695 L219.381165,235.550051 L219.779908,236.141043 L220.220734,236.769846 L220.538865,237.211622 L221.053732,237.910498 L221.615365,238.655651 L222.43999,239.726663 L223.847774,241.514482 L226.065581,244.276182 L228.725296,247.557946 L230.340055,249.574538 L231.490897,251.033599 L232.271449,252.037408 L233.201652,253.254526 L233.816114,254.075951 L234.186015,254.57985 L234.673714,255.259566 L234.952251,255.658843 L235.298369,256.173244 L235.371,256.285 L235.409245,256.455865 C235.877093,258.409306 237.102969,260.187578 239.290622,262.593725 L239.857691,263.208807 C239.955581,263.313655 240.05517,263.41971 240.156474,263.527029 L240.784979,264.186582 L242.060103,265.513947 C242.219967,265.682031 242.380995,265.852046 242.543183,266.023991 L243.530246,267.078803 L244.545128,268.17988 L245.587773,269.327178 L246.658123,270.520656 L247.75612,271.760274 L248.881706,273.045987 L249.969329,274.300504 C260.036301,286.363844 270.975892,296.038708 282.78969,303.295617 L283.810895,303.932815 L284.807478,304.544185 C284.971544,304.643928 285.1346,304.742595 285.296654,304.840186 L286.257005,305.41282 C286.41508,305.506107 286.572167,305.598318 286.728275,305.689454 L287.653234,306.223357 L288.555065,306.731444 C288.703464,306.813974 288.850914,306.895428 288.997424,306.975807 L289.865263,307.445174 C290.150823,307.597327 290.432683,307.745179 290.710907,307.88873 L291.534728,308.306479 C295.05788,310.060813 297.976896,311.088314 300.428442,311.389966 L300.770749,311.427855 C305.132447,311.857432 310.479554,310.375277 317.311864,307.204344 L317.685,307.029 L318.246864,306.799701 C323.900659,304.523781 330.571832,302.711173 338.255516,301.380015 L339.005,301.252 L338.768675,301.277878 C346.363802,300.510215 354.335599,299.108146 362.686104,297.075257 L365.902266,296.286176 L367.548284,295.876013 L370.441122,295.138185 L371.990517,294.72903 L373.093251,294.428356 L374.307339,294.083617 L375.152085,293.83107 L375.714499,293.654336 L376.056512,293.542235 L376.521404,293.382244 L376.930062,293.231542 L377.284197,293.089561 L377.490839,292.999473 L379.422825,292.089123 L380.439676,290.330507 C382.445946,286.860714 381.551947,283.358227 379.241744,280.453783 C377.93671,278.812313 376.054649,277.207395 373.522153,275.463025 C373.300262,275.310187 373.072463,275.155735 372.838743,274.999658 L372.119813,274.526541 C371.874242,274.367203 371.622739,274.20623 371.365291,274.043612 L370.575106,273.550809 L369.749184,273.04807 C369.608548,272.963449 369.466421,272.878411 369.322799,272.792955 L368.443139,272.275197 L367.527562,271.747347 C367.371969,271.658528 367.214876,271.569286 367.056283,271.479619 L366.086697,270.936517 L365.081015,270.383169 L364.039165,269.819514 L362.961076,269.245489 L361.275833,268.364872 L360.106829,267.764651 L358.901332,267.153844 L357.65927,266.532388 L356.380573,265.900222 L355.065168,265.257283 L353.023075,264.27254 L348.855681,262.297002 L345.119768,260.505732 L342.209141,259.092091 L339.636808,257.82421 L337.406475,256.704271 L336.024821,255.996101 L334.820897,255.365322 L333.612696,254.711664 L333.267672,254.519036 L332.53217,254.093197 L332.178428,253.876166 L331.595512,253.505834 L330.858171,253.052848 L330.008556,252.545753 L328.522401,251.682899 L326.465185,250.519818 L323.684007,248.982046 L320.870815,247.451942 L316.231119,244.963446 L312.204444,242.823045 L310.099981,241.690847 L308.080987,240.589133 L306.147611,239.518036 L304.906333,238.821047 L303.115984,237.801273 L301.411649,236.81247 L300.323285,236.170539 L299.27326,235.542471 L298.261617,234.928306 L297.288401,234.328083 L296.353657,233.741841 L295.457427,233.169619 L294.599756,232.611456 L293.780688,232.067393 L292.727446,231.350547 L292.099952,230.893135 L291.447414,230.408159 L290.769878,229.895645 L289.706801,229.075301 L288.966967,228.494063 L287.810653,227.57076 L286.598602,226.585805 L285.330964,225.539289 L284.007894,224.431305 L282.157835,222.858533 L280.20986,221.176865 L278.68484,219.844283 L276.566385,217.972571 L275.47079,216.996091 L274.348864,215.990272 L273.242055,214.990047 L272.166346,214.009395 L271.121772,213.048375 L270.10837,212.107045 L268.646793,210.7321 L267.711477,209.840254 L266.807458,208.968304 L265.934772,208.116309 L265.093456,207.284328 L264.283544,206.472418 C264.151178,206.338776 264.020121,206.205973 263.890376,206.074009 L263.127638,205.292318 L262.396395,204.530846 L261.696683,203.789652 L261.028536,203.068794 L260.391992,202.368331 L259.787086,201.688321 C259.590728,201.465067 259.399648,201.245231 259.213854,201.028824 L258.672332,200.389898 L257.940838,199.506849 C257.627505,199.129387 257.31768,198.758757 257.011341,198.394944 L256.10276,197.323941 C255.953066,197.148844 255.804237,196.975448 255.656272,196.803751 L254.778817,195.793942 L253.921945,194.82482 C253.639737,194.508552 253.360938,194.19905 253.085524,193.896301 L252.269421,193.008298 L251.473502,192.160726 C251.342523,192.022828 251.21238,191.886611 251.083069,191.752074 L250.317176,190.964985 L249.571134,190.218112 C249.448441,190.09698 249.326569,189.977519 249.205516,189.859729 L248.584,189.263 L248.654977,189.335289 C241.934363,182.525781 234.758654,173.500181 227.159344,162.269055 L225.846782,160.301265 L224.308661,157.974476 L223.160637,156.220212 L222.347949,154.967463 L221.085943,153.00028 L220.159942,151.535939 L219.308618,150.169565 L218.34999,148.600375 L217.667917,147.456854 L217.06161,146.413455 L216.656803,145.697011 L216.294945,145.037539 L215.976176,144.435319 L215.787673,144.065784 C215.757859,144.00633 215.728848,143.947945 215.700639,143.89063 C214.478549,141.407551 213.727297,138.519117 213.469779,135.186452 L213.415527,134.357046 L213.238652,133.048915 L213.091316,132.018756 L212.941949,131.030756 L212.790124,130.084129 L212.635413,129.178087 L212.477389,128.311845 C212.450752,128.170744 212.423959,128.031269 212.397001,127.893403 L212.233206,127.085384 L212.06503,126.315197 C211.525081,123.935342 210.912793,122.112708 210.167084,120.734865 L210.01187,120.451138 C209.928867,120.277456 209.846925,120.007795 209.775074,119.645369 L209.734,119.419 L210.763813,119.522278 L212.264869,119.665143 L214.11365,119.8316 L215.498589,119.950364 L217.676698,120.128317 L219.975777,120.306061 L222.395975,120.483618 L224.937435,120.661013 L227.600306,120.83827 L227.818003,120.848771 C234.884595,121.07098 242.703275,122.158216 251.265618,124.121465 L252.859773,124.49437 L255.616597,125.155694 L257.671566,125.660654 L259.591713,126.143768 L261.376067,126.604646 L263.023657,127.042896 L264.169013,127.356499 L265.236483,127.656989 L265.904656,127.849949 L266.537911,128.03696 L267.136123,128.217971 L267.699173,128.392934 L268.477553,128.643932 L268.952165,128.803562 L269.39119,128.956973 L269.719,129.076 L270.11168,129.29525 C273.710329,131.253703 277.723645,132.302823 282.068995,132.449222 C286.937427,132.613245 290.84841,131.821749 293.819063,129.629586 L294.26591,129.287503 L294.539677,129.087232 C294.581591,129.057838 294.621599,129.030426 294.659624,129.004985 L294.808,128.909 L294.867514,128.903786 C296.945494,128.659662 298.697671,127.547083 299.887368,125.957159 C300.679271,124.89885 301.156204,123.751567 301.477835,122.462075 C301.892214,120.800733 302.061455,118.765152 302.061455,116.193399 C302.061455,111.350819 301.359846,107.852402 299.210249,105.245203 L299.093623,105.105972 L298.838162,104.813911 C298.793096,104.763699 298.746778,104.712712 298.699198,104.660938 L298.398481,104.340752 L297.889476,103.823796 L297.510771,103.453874 L296.882379,102.859634 L296.180049,102.21645 L295.402049,101.522391 L294.546651,100.775526 L293.612123,99.9739261 L292.240004,98.816645 L291.114112,97.8798212 L290.599396,97.456864 L289.255726,96.4117741 L288.3885,95.7503008 L287.543477,95.1169306 L286.720109,94.5115781 L285.917848,93.934158 C285.653885,93.7463305 285.393348,93.5631443 285.136146,93.384585 L284.374454,92.8627736 L283.632225,92.3686387 C283.510111,92.2885845 283.388786,92.2096799 283.268237,92.1319232 L282.554174,91.6791428 L281.858201,91.2538255 L281.179773,90.8558858 L280.51834,90.4852385 C278.232426,89.2356349 276.248729,88.4859603 274.461478,88.2197494 L274.051474,88.1561401 C272.111052,87.8434061 269.792073,87.3081307 267.111682,86.5473813 L266.709,86.431 L266.489194,86.3528102 C258.608377,83.5714846 252.184608,83.3955383 247.48804,86.8268227 L247.349,86.93 L247.072139,86.9921063 L246.717565,87.0618947 C246.551048,87.0929236 246.374222,87.1236763 246.187205,87.1541125 L245.595696,87.2444314 L244.943741,87.3326104 L244.23204,87.4184081 L243.461297,87.5015835 C243.327958,87.5152141 243.192189,87.5287254 243.054003,87.5421124 L242.19601,87.620902 L240.93138,87.7233627 L240.034037,87.7878769 L239.093363,87.8493443 L237.601248,87.9358102 L236.011999,88.0153622 L234.898643,88.0645384 L233.147985,88.1324886 L231.300769,88.1934307 L229.357212,88.2473293 L227.317529,88.294149 L225.078168,88.3364007 L209.91,88.829 L210.022025,87.8486809 L210.264159,85.5530131 L210.520149,82.9035597 L210.790187,79.8987804 L211.158337,75.5109025 L211.461217,71.6881661 L211.919429,65.6015718 L212.40818,58.7750042 L212.928035,51.2039727 L213.035789,49.6000356 C213.059302,49.2231875 213.085973,48.8657882 213.115539,48.528004 L213.178453,47.8786384 C213.200659,47.6709339 213.224074,47.4719965 213.248619,47.2818756 L213.32557,46.7380112 C213.392393,46.3069142 213.465796,45.9312277 213.544561,45.6117222 L213.603271,45.3876638 L213.649,45.23 L213.738529,45.1222553 C215.41788,43.0134764 216.167479,40.1737105 216.437319,36.0543871 L216.485023,35.2132991 C216.491952,35.0702201 216.498382,34.9256788 216.504328,34.7796547 L216.534342,33.8855559 C216.538423,33.7335199 216.542054,33.5799605 216.545252,33.4248575 L216.559375,32.4755535 L216.563905,31.488227 L216.563905,20.2136754 L203.952126,8.31742379 L203.125167,7.54599233 L202.319574,6.80387484 L201.534679,6.09094073 L200.394684,5.07597273 L199.658612,4.43542572 C199.537482,4.33106537 199.417117,4.22790195 199.297503,4.12593274 L198.588722,3.5284262 L197.897299,2.95945006 L197.222567,2.41887372 C197.111466,2.33113706 197.001032,2.24457828 196.891252,2.15919467 L196.240304,1.66097317 L195.604378,1.19082499 L194.982804,0.748619522 C194.880368,0.677239916 194.778502,0.607019148 194.677192,0.537954498 L194.075896,0.137418242 C191.299967,-1.66721151 188.938372,-2.56971117 186.685677,-2.62980671 L186.444719,-2.63302475 C185.345889,-2.63302475 183.586966,-3.09300143 181.277973,-4.10761372 L180.927513,-4.26397716 C175.921502,-6.53073713 172.475203,-7.31887379 169.031819,-5.69471687 L168.58355,-5.48327969 L168.172522,-5.20632017 C164.517413,-2.74343115 162.814103,1.77178866 161.898983,8.9121171 L161.783993,9.85839856 C161.765542,10.018609 161.747438,10.1800719 161.729672,10.342793 L161.601165,11.602112 L161.523893,12.4578402 L161.423902,13.6963273 L161.303774,15.4013899 L161.211543,16.8912035 L161.122734,18.4929849 L160.995904,21.1059566 L160.876688,23.9717809 L160.729485,28.1871657 L160.660885,30.4642077 L160.579793,33.4696031 L160.474902,37.9747054 L160.392961,42.1131183 L160.306581,47.2650921 L160.230049,52.7666403 L159.208,91.614 L152.118086,92.4507691 L148.273203,93.1398426 L144.309944,93.8678477 L138.553939,94.9499307 L134.682569,95.6909094 L128.049956,96.9799931 L118.889525,98.7926111 L100.787198,103.089725 L97.0765924,103.98306 C91.5745218,105.313925 87.1094834,106.808538 83.6320211,108.520083 C81.5623567,109.538735 79.9272039,110.597779 78.6637798,111.846384 C76.5523978,113.933001 75.3868927,116.649359 76.0445162,119.751203 C76.4245252,121.543609 77.1997446,123.502353 78.3579695,125.748947 L78.67362,126.351033 L78.7398732,126.464669 C82.1161504,132.255594 86.4211139,136.833544 91.6307643,140.109891 C97.0031965,143.488611 102.069545,145.136658 106.901917,144.771969 C112.411637,144.356162 116.764524,141.540418 119.100448,136.692516 L119.369241,136.13467 L119.554886,135.439498 L119.567,135.4 L119.973816,135.203139 L120.338421,135.034594 L120.745325,134.852903 L121.684813,134.450736 L122.789849,133.997933 L123.725803,133.625881 L125.114697,133.087586 L126.260754,132.652905 L128.268,131.907 L130.275798,131.262868 L131.696321,130.812995 L133.087998,130.377886 L135.12121,129.752896 L136.440334,129.354679 L137.73026,128.971214 L138.990888,128.602497 L140.222116,128.248524 L141.423844,127.909293 L142.59597,127.584799 L144.298437,127.125685 L145.933734,126.699713 L147.501521,126.30687 L148.509039,126.063375 L149.486299,125.834596 L150.433202,125.62053 L151.349647,125.421174 L152.235533,125.236523 L153.090759,125.066575 L153.915223,124.911327 L154.708826,124.770775 L155.471467,124.644915 L156.203044,124.533745 L156.432,124.501 L156.389161,124.977329 L156.269234,126.170292 L156.176119,127.018227 L156.072473,127.908145 L155.89726,129.321519 L155.698354,130.828788 L155.396292,132.983952 L155.142107,134.708988 L154.864232,136.526786 L154.562669,138.437006 C154.527846,138.654375 154.492584,138.873449 154.456884,139.094226 L154.292723,140.163597 C151.308309,159.34544 146.730606,174.918515 140.612949,186.924403 L140.373,187.388 L133.365992,198.774487 L133.267986,198.959394 C133.14457,199.192243 133.01701,199.428607 132.885308,199.668479 L132.477781,200.398613 L132.04542,201.149754 L131.58824,201.921862 L131.106256,202.714896 L130.599483,203.528815 L130.067936,204.363579 L129.511631,205.219146 L128.930583,206.095476 L128.324806,206.992527 L127.694316,207.910259 L127.039128,208.848631 L126.359256,209.807602 L125.654717,210.787131 L124.925525,211.787178 L124.171695,212.807701 L123.393243,213.848659 L122.590183,214.910012 L121.339488,216.540193 L120.03351,218.216031 L119.132172,219.358554 L118.206301,220.521268 L116.771531,222.303105 L115.784397,223.516116 L114.772783,224.749173 L113.736706,226.002237 L112.67618,227.275266 L111.59122,228.56822 L110.393453,229.985409 L108.624237,232.059241 L107.463081,233.407143 L106.31661,234.727309 L104.624485,236.655524 L103.514824,237.906292 L102.419926,239.129279 C102.238674,239.330794 102.058039,239.531151 101.87802,239.73035 L100.80531,240.911641 L99.7474197,242.065119 L98.7043725,243.190771 L97.676191,244.288585 L96.6628976,245.358547 L95.6645152,246.400644 L94.6810663,247.414866 L93.7125737,248.401197 L92.75906,249.359626 L91.8205479,250.29014 L90.89706,251.192726 L89.9886191,252.067372 C89.6883158,252.354262 89.3905241,252.636494 89.0952478,252.914064 L88.2169687,253.73279 C88.0718478,253.866914 87.9273567,253.999871 87.7834959,254.131662 L86.9278977,254.908416 L86.0874485,255.657171 L85.2621709,256.377916 L84.4520876,257.070637 L75.5352056,264.749008 L69.9050296,269.572369 L67.559,271.562 L65.2635716,273.11196 L64.2696059,273.790895 L62.8252338,274.787666 L61.4364054,275.759266 L60.102729,276.706579 L58.823813,277.630489 L58.0014314,278.233863 L56.8129124,279.120731 L56.0504328,279.700228 L55.3117109,280.270634 L54.2479199,281.109767 L53.2369311,281.929916 L52.5920797,282.466571 C52.4865392,282.555357 52.3819644,282.64382 52.2783529,282.731963 L51.6682242,283.257042 C51.5684563,283.343932 51.4696468,283.430514 51.3717934,283.516794 L50.7961264,284.030885 L50.2432888,284.53798 L49.7131646,285.038339 L49.2056376,285.532224 C49.0402153,285.695802 48.8785398,285.858345 48.7205919,286.019897 L48.2579114,286.50162 C48.0321431,286.741038 47.8147182,286.978323 47.6055715,287.213622 L47.1982964,287.681616 C47.0662043,287.836761 46.937772,287.991067 46.8129803,288.144577 L46.4495072,288.602766 C44.4514957,291.186147 43.5,293.552311 43.5,295.915677 L43.5059899,296.220411 C43.5775916,298.033274 44.2861332,299.565969 45.3624967,300.792677 L45.429,300.864 L45.452764,300.896143 C48.1127128,304.215826 52.1365265,304.858562 56.5098999,303.797688 C59.3936031,303.098172 62.7713777,301.582055 66.8084088,299.255018 L67.452148,298.878926 L67.9726493,298.561741 L69.044738,297.920162 C69.2268719,297.812433 69.4107316,297.704304 69.5963163,297.595777 L70.7305184,296.939837 L71.9060838,296.274367 L73.1229764,295.599403 L74.3811596,294.91498 L75.6805971,294.221134 C76.1206146,293.988285 76.5675018,293.753871 77.0212526,293.517899 L78.4030896,292.805311 C78.6368256,292.685769 78.8722759,292.565839 79.1094399,292.445521 L80.5529811,291.71897 L82.0376129,290.983155 C82.2884738,290.859749 82.5410452,290.735959 82.7953265,290.611785 L84.3415261,289.862139 C84.6026436,289.736432 84.8654696,289.610343 85.130003,289.483873 L87.844969,288.195195 L89.4418427,287.426071 L90.4640154,286.925583 L91.4524908,286.434689 L92.4074665,285.953205 L93.7775504,285.248217 L94.6496414,284.789448 L95.4889244,284.339442 L96.2955968,283.898014 L97.0698564,283.46498 L97.8119008,283.040155 L98.5219274,282.623354 L99.2001341,282.214392 L99.8467183,281.813084 C99.9518581,281.746828 100.055689,281.680882 100.158214,281.615244 L100.757735,281.225072 L101.326127,280.842093 L101.863589,280.466123 L102.370318,280.096976 C102.697936,279.853111 103.005198,279.613673 103.292366,279.378413 L103.70808,279.028629 L103.904696,278.856029 C105.519324,277.417491 107.940752,276.021957 111.175517,274.739609 L111.666832,274.548115 C116.528307,272.685024 121.61688,269.284624 127.036783,264.385088 L128.324691,263.210906 L129.020406,262.587411 L129.68541,262.002595 L130.319321,261.456648 L130.921757,260.949755 L131.492335,260.482107 L132.030673,260.053889 C132.117688,259.985815 132.203344,259.919393 132.287632,259.854625 L132.776893,259.485906 L133.232958,259.157087 L133.413326,259.031767 L133.743041,258.811054 C133.794424,258.777611 133.843983,258.745843 133.891654,258.715759 L134.204,258.526 L134.233271,258.523181 C135.720381,258.334316 137.138501,257.736931 138.796277,256.63104 L139.276715,256.301148 C139.601711,256.071881 139.936467,255.823818 140.283118,255.55627 L140.812282,255.140248 C140.902052,255.068446 140.992631,254.995405 141.084054,254.921114 L141.64298,254.460277 C141.73791,254.380941 141.83375,254.300334 141.930533,254.218444 L142.52282,253.711627 L143.139348,253.173508 L144.113089,252.306506 L145.150371,251.366161 C149.373936,247.51039 153.264104,243.518691 156.819394,239.390838 L167.345535,227.254441 L167.484496,227.08873 C168.0274,226.418998 168.582947,225.696968 169.151473,224.922336 L169.724339,224.13016 C169.820542,223.995205 169.917108,223.858785 170.01404,223.720901 L170.600026,222.875997 C170.698425,222.732245 170.797192,222.587025 170.896329,222.440335 L171.495604,221.542552 C171.596227,221.389979 171.697223,221.235933 171.798594,221.080413 L172.411326,220.129598 L173.033124,219.143345 L173.664062,218.121586 L174.304215,217.064254 L174.953658,215.971281 L175.612467,214.842599 L176.280715,213.678142 L176.958478,212.477842 L177.645832,211.241631 C177.761194,211.032599 177.876959,210.822069 177.993128,210.610038 L178.695007,209.319834 L179.406663,207.993552 L180.128171,206.631122 L186.27669,194.931703 L188.123995,191.477603 L188.714766,190.408767 L189.085,189.77 L189.164734,189.92296 C191.015605,193.439759 192.778255,196.327742 194.468246,198.583244 L194.765729,198.974707 C194.922457,199.178 195.071899,199.375543 195.214023,199.567161 L195.618406,200.124061 C195.682133,200.213856 195.744022,200.302125 195.80407,200.388847 L196.142221,200.890428 C196.352877,201.212198 196.533935,201.508499 196.685134,201.777918 L196.857203,202.098387 C196.88208,202.147195 196.905065,202.193646 196.926171,202.237658 L197.04296,202.497684 L197.041,202.483 Z" id="Path" fill="#000000" fill-rule="nonzero"></path>
    </g>
</svg>