<?xml version="1.0" encoding="UTF-8"?>
<svg width="400px" height="240px" viewBox="0 0 400 240" version="1.1" xmlns="http://www.w3.org/2000/svg" xmlns:xlink="http://www.w3.org/1999/xlink">
    <title>V_yan_s</title>
    <g id="V_yan_s" stroke="none" stroke-width="1" fill="none" fill-rule="evenodd">
        <path d="M218.230666,-7.49960579 L215.620716,-7.49960579 L213.719661,-7.49031915 L210.95032,-7.46911091 L209.158846,-7.44833948 L207.411113,-7.42225346 L204.871415,-7.37314368 L202.429842,-7.31203514 L200.856554,-7.26461801 L198.578133,-7.18345697 L197.11345,-7.12264875 L195.692119,-7.05647137 L193.641291,-6.94712217 L192.32811,-6.86749001 L191.058098,-6.78246319 L187.326551,-6.50624893 L184.318965,-6.27117983 L180.70655,-5.97232639 L177.933661,-5.72903403 L175.921938,-5.54400364 L173.329829,-5.29375269 L171.453115,-5.10331872 L169.633908,-4.91045588 L167.871996,-4.71509634 L166.167167,-4.51717226 L163.982491,-4.249167 L162.92791,-4.11335922 L160.893946,-3.83803287 L159.434026,-3.62821204 L158.030056,-3.41546493 L156.681827,-3.19972371 L155.813868,-3.05419934 L154.970526,-2.90729401 L153.75153,-2.68430276 L152.587566,-2.4580913 L151.842058,-2.30546116 L151.120853,-2.15134957 L150.084472,-1.91736052 L149.423746,-1.75945739 L148.787101,-1.60000248 L148.174474,-1.43897568 L147.585804,-1.2763569 L147.021027,-1.11212604 L146.480079,-0.946263004 L145.9629,-0.778747695 L145.469424,-0.609560015 C145.38915,-0.581221588 145.309861,-0.552812641 145.231556,-0.524332756 L144.851772,-0.381468771 C144.552305,-0.261910387 144.266669,-0.155919532 143.995197,-0.0628515286 L143.471235,0.106245023 C142.713915,0.334617191 142.086059,0.450551743 141.59663,0.471454932 L141.438627,0.474926859 C140.063237,0.474926859 138.497738,0.636586629 136.722483,0.958780252 L135.94876,1.10668855 L135.149009,1.27423437 C134.742569,1.36291337 134.326239,1.45894905 133.899827,1.56233033 L133.033502,1.77888376 L132.139947,2.01500576 C131.686304,2.13795562 131.22232,2.26823631 130.747803,2.40583675 L129.784666,2.69079403 L128.793096,2.99525095 C128.625446,3.04761764 128.456596,3.100796 128.286541,3.15478562 L127.251675,3.48845507 L126.187517,3.84157493 L125.093722,4.2141255 C124.908934,4.27783539 124.722897,4.34235408 124.535603,4.40768114 L123.396709,4.80934085 L122.227319,5.23038202 L121.027089,5.67078497 L120.893828,5.72156413 C113.355635,8.67636893 111.874002,15.9964551 115.25084,23.4498399 L115.413012,23.8005883 C115.929297,24.8948845 116.507718,25.9129871 117.145223,26.8481423 L117.477,27.32 L117.212109,27.1939768 L116.479271,26.855543 C116.353303,26.7986187 116.225395,26.7414119 116.095507,26.6838877 L115.2921,26.3346544 L114.439276,25.9761296 L113.535138,25.6066398 L112.577792,25.2245115 L111.037855,24.6239612 C107.971444,23.4415404 105.405495,22.6592552 103.226638,22.2834673 C99.6839344,21.6724563 96.694932,21.9251592 93.9816184,24.0916679 L93.730911,24.2988642 L93.4889285,24.513396 L93.2554571,24.7358471 C93.2172426,24.7736147 93.1793739,24.8117366 93.1418464,24.8502249 L92.9207414,25.0856499 L92.7076138,25.330454 C92.6727455,25.3720687 92.6382006,25.4140985 92.6039748,25.4565556 L92.4024128,25.7165231 C92.3694454,25.760738 92.3367881,25.8054045 92.3044365,25.8505348 L92.1139596,26.1269794 L91.930606,26.4151385 C91.9006287,26.4641736 91.8709394,26.5137212 91.8415336,26.5637935 L91.6684643,26.8706192 L91.5019843,27.1906192 L91.3418801,27.5243774 L91.1879381,27.8724776 L91.0399448,28.2355038 L90.8976866,28.6140397 L90.7609501,29.0086693 L90.6295216,29.4199764 L90.5031876,29.848545 C90.4825446,29.921444 90.462105,29.9950865 90.4418643,30.0694848 L90.3227717,30.5250402 C90.3033089,30.60251 90.2840361,30.6807599 90.2649489,30.7598019 L90.1526172,31.243658 L90.0445258,31.7471111 L89.9404612,32.2707449 C89.9234409,32.3597314 89.9065793,32.4495831 89.8898723,32.5403121 L89.7914475,33.095312 L89.6965156,33.6719524 L89.6048632,34.2708172 L89.5162766,34.8924902 L89.4305423,35.5375554 L89.3068218,36.5502908 L89.1498512,37.9879266 L89.000446,39.5296408 L88.8568979,41.1801045 L88.7174986,42.9439886 L88.5464811,45.3154574 L88.3759401,47.8805672 L88.140094,51.5733312 L87.9600612,54.1639495 L87.776073,56.5803504 L87.5882406,58.8219713 L87.4449103,60.3881489 L87.3482133,61.3773554 L87.2014873,62.7786214 L87.1025699,63.657667 L86.9709317,64.7471961 L86.8480893,65.6828243 L86.7263987,66.5385619 L86.6072371,67.3112426 L86.4546694,68.2068112 L86.3820099,68.5947681 L86.3123107,68.941589 L86.2142051,69.3826384 L86.1250557,69.7258549 L86.0712784,69.8987507 L86.0462396,69.9680723 C84.6864734,73.5102893 84.073301,78.4602781 84.0058681,85.1515756 L83.9995708,86.4266813 C83.9995708,92.0460966 83.3014686,98.0250581 81.8936742,104.365136 L81.6771808,105.318856 C79.9462533,112.782193 79.0469861,120.668046 78.972061,128.969176 L78.9669528,130.103722 C78.9669528,137.75422 78.1801796,145.408807 76.6042617,153.074932 L76.2107465,155.02372 L75.9656968,156.27746 L75.7345028,157.4951 L75.5171824,158.676865 L75.3137534,159.822978 L75.1242338,160.933663 L74.9486412,162.009146 L74.7869935,163.049649 L74.6393086,164.055398 L74.5056043,165.026615 L74.3858985,165.963526 L74.2802088,166.866355 C74.2637629,167.013999 74.2479018,167.160232 74.2326257,167.305058 L74.1479939,168.157184 C74.1350599,168.296405 74.1227117,168.434229 74.1109497,168.570661 L74.0474159,169.372587 C74.0285849,169.634353 74.0121018,169.890587 73.9979697,170.141328 L73.9626288,170.877106 L73.9414113,171.580147 L73.9343348,172.250675 C73.9343348,174.817781 73.251399,178.250727 71.8232711,182.469366 L71.4937908,183.426959 L71.2128434,184.262563 L70.9499729,185.076338 L70.7057363,185.868892 C68.94523,191.734985 68.8039277,195.861737 71.3388253,199.401318 L71.566059,199.711675 C71.5969806,199.775375 71.6305876,199.85036 71.6664465,199.936297 L71.7803454,200.226629 L71.9051541,200.580673 C72.0070092,200.883913 72.1097303,201.223811 72.2126989,201.599466 L72.36726,202.189655 C72.4187907,202.395249 72.4703059,202.609669 72.5217284,202.832804 L72.67564,203.528236 C72.7012197,203.648461 72.726757,203.770837 72.752242,203.895348 L72.9044486,204.66794 C73.9958079,210.419321 77.3021646,215.841552 82.5725755,221.006263 L83.5852333,221.993485 L84.5374345,222.90929 L85.1410608,223.481094 L85.721436,224.02257 L86.2800077,224.534285 C86.3713664,224.617122 86.4618769,224.698743 86.5515694,224.779159 L87.0801495,225.247292 L87.5905446,225.687077 L88.0842019,226.09908 L88.562569,226.483866 C91.2327273,228.588273 93.2361216,229.408967 95.7579399,229.408967 C98.6523852,229.408967 100.901758,228.151721 102.81934,226.222487 C103.865324,225.170147 104.833642,223.873579 105.805466,222.293676 L106.925662,220.437585 L107.46857,219.554699 L107.989567,218.722112 C108.074563,218.587551 108.158637,218.455095 108.241786,218.324748 L108.72954,217.568019 L109.194882,216.862136 L109.637612,216.207321 C109.709505,216.102453 109.780447,215.999722 109.850434,215.899133 C112.069123,212.710318 112.859082,208.78174 112.558859,204.242401 L112.523926,203.770641 C112.437774,202.718154 112.487012,201.335994 112.679792,199.645325 L112.771224,198.901926 C112.787935,198.774899 112.805385,198.646313 112.823576,198.516176 L112.94164,197.716806 L113.077637,196.880584 L113.23171,196.007882 C113.258903,195.859412 113.286855,195.709437 113.31557,195.557966 L113.497024,194.631236 C113.592347,194.158951 113.694582,193.673333 113.803809,193.17459 L113.915371,192.67148 C114.108416,191.811371 114.298378,190.923535 114.485289,190.007902 L114.763371,188.613594 C114.855306,188.141869 114.946481,187.663185 115.036903,187.177534 L115.305906,185.699669 C115.394822,185.200074 115.482988,184.693503 115.570407,184.179946 L115.830429,182.618308 L116.085998,181.014704 C116.128222,180.743937 116.170263,180.471418 116.212119,180.197148 L116.461051,178.530492 L116.705591,176.821735 C116.745983,176.53343 116.786192,176.24337 116.826221,175.951551 L117.064216,174.17954 L117.297879,172.365292 C117.336463,172.059395 117.374867,171.751735 117.413093,171.442313 L118.992,158.218 L119.389451,158.140363 C120.462949,157.921072 121.592576,157.642965 122.794296,157.307126 C125.688671,156.498247 128.27945,155.547324 130.578773,154.433827 L130.996181,154.228394 L131.56769,153.936877 L131.853926,153.786176 L132.575599,153.394226 L133.348073,152.958624 L133.812919,152.689638 L134.299752,152.40321 L134.800221,152.104223 L135.844394,151.467618 L136.389067,151.129587 L137.134902,150.660989 L138.109716,150.039831 L138.930105,149.510464 L139.776246,148.958921 L140.873785,148.236161 L142.023283,147.471467 L144.978637,145.491824 L147.169627,144.036266 L148.244908,143.327653 L149.407129,142.567332 L150.457393,141.886761 L151.395341,141.286046 L152.104604,140.837948 L152.729329,140.449477 L153.459089,140.001779 L154.430332,139.392188 L154.677137,139.234139 L155.371772,138.781282 L156.027476,138.341662 L156.439921,138.058143 L156.856085,137.765989 L157.261892,137.474476 L157.657713,137.183072 L158.125858,136.828213 L158.421031,136.598081 L158.709288,136.368075 L158.982263,136.144813 L159.348102,135.838872 L159.62346,135.613658 L159.957437,135.345783 L160.545753,134.881981 L161.137209,134.422471 L161.94282,133.803596 L163.001054,132.999121 L164.526775,131.850686 L165.625579,131.028985 L166.160834,130.625398 L166.690822,130.221434 L167.473206,129.616455 L167.966444,129.229206 L168.457177,128.83907 L168.946671,128.444701 L169.646478,127.870802 L170.088671,127.501402 L170.53066,127.126466 L170.962129,126.754403 L171.383206,126.38499 L171.794025,126.017981 L172.194728,125.653106 L172.585463,125.290068 L172.966388,124.928535 L173.337663,124.568141 L173.730453,124.177297 L174.086976,123.813045 L174.791891,123.081019 C175.904745,121.941205 177.034475,120.886504 178.145109,119.951043 L179.113244,119.139218 L179.459,118.841 L179.676315,118.954149 C179.939612,119.093012 180.215366,119.244827 180.501674,119.409311 L180.952357,119.673512 L181.267161,119.864031 L181.883921,120.250977 L182.350627,120.554963 L182.862692,120.898588 L183.295309,121.196862 L183.731005,121.504326 L184.426216,122.0047 L185.275915,122.621316 L186.067939,123.201739 L186.508432,123.527372 L187.211959,124.052386 L188.076368,124.708167 L188.633503,125.139148 L189.192071,125.580889 L189.660288,125.962205 L189.990962,126.241627 L190.218,126.444 L190.695816,126.897545 C191.345397,127.508871 192.009141,128.112812 192.711935,128.733157 L193.279973,129.23067 L193.689733,129.585147 L194.529367,130.300714 L195.153905,130.825686 L201.689,135.522 L202.740386,136.338477 C215.485906,146.130037 230.668644,154.20057 248.272314,160.582324 L248.795634,160.770902 L249.417709,161.000916 L249.889534,161.171656 L250.812368,161.496154 L251.277067,161.654288 L251.952957,161.877079 L252.602895,162.082374 L253.232483,162.271849 L253.658331,162.394304 L254.081108,162.510907 L254.606606,162.648322 L255.022218,162.75081 C256.633017,163.133634 258.059816,163.348801 259.436081,163.398252 L259.891509,163.40906 C263.528937,163.450958 267.020369,162.425383 270.223217,160.488819 L270.317,160.43 L270.597484,160.326825 L270.917305,160.218357 L271.294121,160.101998 L271.797971,159.959591 L272.329809,159.821914 L272.633359,159.747942 L273.495612,159.552431 L275.608,159.1 L275.583301,162.697676 L275.538045,166.905574 L275.487016,170.285389 L275.425054,173.45314 L275.326026,177.342718 L275.224578,180.428748 L275.127064,182.835094 L275.020169,185.018416 L274.924171,186.665729 L274.822097,188.155065 L274.714146,189.485015 L274.623688,190.43327 L274.553521,191.076493 L274.481412,191.66112 L274.407402,192.186845 L274.357027,192.504456 L274.279946,192.931337 L274.20108,193.298505 L274.147531,193.50996 C273.817891,194.720721 272.829977,195.529355 269.983943,196.126873 L269.364816,196.250271 L268.853436,196.395951 L268.49329,196.489408 L268.188183,196.558146 L267.967162,196.60098 L267.177084,196.604313 L266.347494,196.795086 L265.714193,196.936847 C260.673251,198.034128 256.24326,198.248801 252.409971,197.637765 L252.044,197.576 L252.251076,197.621161 C248.942884,196.878238 244.983886,196.334735 240.34851,195.977293 L238.93758,195.875629 C238.699035,195.859611 238.458792,195.844055 238.216849,195.828959 L236.744757,195.74389 L235.2317,195.669785 C234.976101,195.658343 234.718789,195.647355 234.459761,195.636818 L233.25215,195.592642 L232.100029,195.560728 L231.002736,195.541216 C229.754286,195.525742 228.616428,195.535878 227.584437,195.572633 L226.725691,195.610681 C226.30917,195.632988 225.911847,195.660237 225.53335,195.692508 L225.157215,195.726066 C221.936809,196.026879 219.732446,196.599104 217.834448,198.384121 L217.809,198.409 L217.628643,198.557872 C214.525166,201.204189 213.862039,205.62468 216.027477,209.203803 C217.051592,210.896501 218.470369,212.159882 220.458569,213.509277 L220.856166,213.775862 C223.361675,215.434743 225.632097,216.531578 227.915372,216.962508 L228.179,217.007 L228.521026,217.209805 L229.390089,217.74692 L230.149425,218.232962 L230.985386,218.780132 L231.906075,219.393557 L233.627741,220.562523 L235.172453,221.628995 L237.766227,223.44622 L239.455667,224.642739 L241.10535,225.81944 L242.715257,226.976302 L244.285369,228.113306 L245.815667,229.230431 L247.306134,230.327658 L248.756749,231.404966 L250.167494,232.462334 L251.53835,233.499744 L252.869299,234.517173 L254.160321,235.514604 L255.411398,236.492015 L255.952,236.919 L256.298311,237.209661 C264.482128,244.029094 272.274644,247.603073 279.837949,247.497968 L280.133,247.49 L280.029185,247.491818 C286.1323,247.491818 293.704982,244.984263 303.189241,240.130705 L304.253026,239.580505 C305.12576,239.124138 305.964139,238.672933 306.76839,238.225586 L307.717124,237.690538 C308.027917,237.512751 308.333264,237.335498 308.63318,237.158695 L309.516647,236.629555 C316.020652,232.669898 319.782203,228.896177 320.966063,224.358832 L321.008033,224.197974 L321.042834,224.035414 C321.472291,222.029391 322.001135,219.8703 322.629659,217.560115 L322.954303,216.385591 L323.328995,215.079604 L323.881785,213.219497 L324.668574,210.655096 L325.426758,208.2426 L326.45918,205.018796 C328.517765,198.646198 329.226378,193.846353 328.146487,189.889954 L328.035635,189.503589 L328.006996,189.382215 L327.946486,189.04915 L327.881899,188.597246 L327.795854,187.868138 L327.685524,186.757237 L327.527951,184.886117 L327.381854,182.894238 L327.207486,180.226136 L327.072804,177.959612 L326.84367,173.695437 L326.589396,168.333098 L326.257179,160.606958 L326.138259,158.119241 L325.98408,155.181922 L325.823185,152.433408 L325.689221,150.368616 L325.550253,148.421365 L325.442555,147.037182 L325.369028,146.150362 L325.256049,144.873629 L325.100186,143.270217 L324.979197,142.14103 L324.854556,141.074049 L324.726129,140.068654 L324.638342,139.432302 L324.503312,138.52818 L324.411001,137.95877 L324.316811,137.415817 L324.220703,136.899139 L324.122638,136.408551 L324.022577,135.943871 L323.920481,135.504916 L323.816309,135.091502 L323.710024,134.703448 C323.692132,134.640875 323.67415,134.579352 323.656077,134.518873 L323.546548,134.168514 L323.474177,133.947483 L323.38825,133.73136 C322.74347,132.109616 322.325501,129.920397 322.193827,127.171933 L322.160985,126.287241 L322.088818,123.149246 L321.944752,113.983101 L321.618699,86.0448629 L321.561659,79.7957117 L321.532957,75.0167237 L321.518905,69.6988478 L321.524795,65.4393751 L321.543689,62.0130016 L321.567996,59.4641687 L321.609823,56.5191037 L321.652404,54.3563105 L321.689642,52.8472073 L321.761767,50.5477479 L321.828491,48.9027631 L321.88799,47.7057889 L321.951895,46.6342764 L322.019716,45.6907003 L322.066862,45.1339474 L322.102,44.761 L322.135243,44.7220487 C323.942809,42.5144042 325.556837,39.5304818 327.196301,35.6593802 C329.366026,30.536226 330.5,26.5781237 330.5,23.275801 C330.5,19.2278204 328.343767,15.5674204 324.266185,10.9841665 L323.598244,10.2442875 C319.51048,5.78794984 315.886014,3.24146666 311.669912,2.99795919 L311.453,2.988 L311.26373,2.91906019 L311.087137,2.84876655 C310.781728,2.72298536 310.421202,2.55408559 310.010383,2.34217237 L309.493568,2.06723677 L309.199,1.904 L308.767374,1.61621067 C306.30853,0.0268640466 303.365658,-1.11541282 299.949255,-1.88382432 L299.170401,-2.05106418 L298.268555,-2.23139798 L296.957152,-2.47910138 L295.112194,-2.8092939 L293.34754,-3.11214434 L290.955894,-3.5090899 L288.733344,-3.86804837 L283.658272,-4.66362783 L279.414673,-5.31126912 L277.806048,-5.4662314 L276.315892,-5.59818464 L274.755029,-5.72601299 L272.563792,-5.89004883 L270.837724,-6.00828513 L269.040759,-6.12242456 L266.534421,-6.26825208 L263.223902,-6.44034567 L261.142772,-6.53818165 L258.25719,-6.66232354 L255.244922,-6.77927672 L252.105832,-6.88906113 L248.003418,-7.01624088 L245.44664,-7.08720327 L240.118326,-7.21713999 L237.346675,-7.27613112 L232.824995,-7.36050549 L228.981988,-7.41849691 L225.268633,-7.46101431 L221.684878,-7.48805237 L219.36768,-7.49960579 C218.986277,-7.49960579 218.607272,-7.49960579 218.230666,-7.49960579 Z M249.831015,21.7366091 L252.040094,21.7555391 L253.279515,21.7785139 L254.084185,21.8009822 L254.780207,21.8278081 L255.366149,21.8588736 C256.57307,21.9342932 258.095333,22.2089402 259.910022,22.6906944 L260.705582,22.9098635 L261.53655,23.1545305 C262.385086,23.4119924 263.286132,23.7079079 264.237882,24.0428972 L266.446939,24.8348906 L266.630485,24.8904276 C268.322662,25.4024457 269.534665,25.9664388 270.267399,26.5044477 L270.388393,26.5965477 C270.499584,26.6845455 270.581825,26.7600756 270.639225,26.8216891 L270.673,26.861 L270.717394,27.0188311 L270.76822,27.232676 L270.822178,27.4914419 L270.90824,27.9617928 L270.999422,28.5280093 L271.094569,29.1869672 L271.192524,29.9355426 L271.292129,30.7706112 L271.39223,31.6890491 L271.524468,33.0379189 L271.589289,33.7635364 L271.703559,35.1555029 L271.814069,36.6465996 L271.955523,38.7886314 L272.05716,40.5103578 L272.186686,42.959267 L272.279305,44.9106797 L272.368016,46.9602405 L272.480172,49.8453637 L272.529,51.236 L272.529185,55.7810365 L273.384934,69.2546978 L273.756505,74.6124743 L273.90891,76.5775466 L274.051799,78.2331623 L274.188701,79.6131637 L274.306352,80.6211798 L274.407491,81.3550495 L274.475848,81.7850465 L274.566,82.278 L274.604624,82.9978572 L274.662636,84.4688417 L274.72118,86.3190409 L274.822041,90.2124645 L275.003131,98.9545617 L275.247134,113.344548 L275.457,127.51 L275.120476,127.465289 C274.741429,127.417919 274.358529,127.383395 273.972615,127.361525 L273.747,127.351 L273.480411,127.285265 L273.163052,127.200376 L272.623717,127.045126 L272.179471,126.909459 L270.931269,126.513426 L268.538788,125.765638 L267.450255,125.430355 L265.942062,124.970119 L263.272101,124.16562 L262.994608,124.096127 L262.067111,123.858852 C254.893419,121.986449 247.389586,119.108389 239.60282,115.223756 L239.104428,114.974334 L237.915951,114.390676 L236.448388,113.659168 C236.200291,113.534466 235.950874,113.408586 235.700784,113.281845 L234.718116,112.781212 L233.742678,112.27906 L232.443861,111.602582 C232.224709,111.487694 232.004557,111.37191 231.783912,111.255494 L230.77414,110.720145 L229.770604,110.183021 L228.554632,109.525577 C226.943272,108.6497 225.291562,107.732851 223.614583,106.783176 L221.670791,105.674214 L220.495833,104.996062 L218.814253,104.015561 L217.73117,103.377952 L215.265985,101.912804 L214.441952,101.426979 L212.846498,100.497639 L212.325865,100.197886 L211.067796,99.481539 L210.577748,99.2057947 L209.86184,98.8065862 L209.157609,98.4183654 L208.469729,98.0438123 L207.797947,97.6828426 L206.706142,97.1074079 L206.083008,96.7859527 L205.467603,96.4739594 L204.660231,96.073758 L204.087081,95.7966918 L203.319709,95.4357958 L202.949276,95.2661749 L202.509,95.07 L203.758517,93.9170126 L205.124821,92.675688 L205.824418,92.0476182 L207.024042,90.9833192 L207.731081,90.3470065 L208.406506,89.7224644 L208.89321,89.2600485 L209.5302,88.6356241 L209.818455,88.3443845 L210.274034,87.8713453 L210.418024,87.7180733 L210.780186,87.3235053 L211.178375,86.8720921 L211.39063,86.6230108 C212.858365,84.8682614 213.870658,83.202117 214.43693,81.3302023 L214.540983,80.9705664 L214.627803,80.6131285 L214.673616,80.4125616 L214.741382,80.0741111 C215.642067,75.241076 213.514768,71.1832783 209.563772,67.5681649 L209.235,67.272 L208.771274,66.8225541 C207.212833,65.3392726 205.350973,63.8037425 203.167216,62.1868829 L202.441044,61.6560572 L201.532362,61.0140747 L201.207813,60.7921232 L200.67255,60.4356882 L200.363964,60.2365825 L200.103405,60.0722223 L199.673425,59.8095945 L199.336224,59.6110317 C196.867879,58.1838083 194.727645,57.5054576 191.958369,57.5054576 C189.556067,57.5054576 187.622784,58.0394541 185.494676,59.0982095 C184.815784,59.4359654 184.117067,59.8330765 183.357845,60.3062662 L182.547727,60.8232176 L182.156176,61.107332 L181.832329,61.3545626 L181.538377,61.590489 L181.418294,61.6898538 L181.021158,62.0298779 L180.825972,62.2029685 L180.437941,62.5575413 L180.156837,62.8223198 L179.770902,63.1951921 L179.366654,63.5958061 L179.049978,63.9158722 L178.305639,64.6864312 L177.745169,65.2803488 L177.152685,65.9183568 L176.406234,66.7342636 L176.006171,67.1760906 L175.195312,68.07979 L174.473137,68.8921565 L173.664621,69.809194 L172.755298,70.8518012 L172.041733,71.6802037 L171.629692,72.1635235 L171.239156,72.6256127 L170.630163,73.3553325 L170.162762,73.9243821 L169.827178,74.3388517 L169.51024,74.735733 L169.206976,75.1212806 L168.916909,75.4963271 L168.461225,76.1009197 L168.110448,76.5827413 L167.945973,76.815019 L167.586,77.341 L167.437,77.544 L167.168142,77.8993906 L166.724816,78.4641834 L166.327,78.96 L165.482054,79.8900005 L164.455666,81.0255233 L163.459306,82.1353397 L162.730186,82.9526095 L162.020722,83.7523789 L161.328682,84.5371492 L160.654022,85.3069858 L159.996696,86.0619602 L158.733835,87.5276411 L157.539639,88.9349105 L156.968124,89.6169064 L156.413565,90.2846411 L155.875878,90.9382556 L155.354971,91.5779072 L154.681991,92.4148105 L154.018401,93.2533353 L153.896268,93.4131101 L153.503708,93.9411881 L152.852085,94.8026576 C149.179048,99.6095152 144.845715,104.408721 139.871081,109.166445 L139.398748,109.616529 L137.76944,111.131587 L136.564201,112.260001 L135.250188,113.49861 L134.028831,114.659531 L132.900632,115.742398 L131.864522,116.74837 L131.174473,117.42617 L130.172378,118.425449 L129.318632,119.291485 L128.753303,119.874578 L128.536265,120.101806 L128.23616,120.420351 L127.939931,120.740918 L127.736181,120.965787 L127.393518,121.354603 L127.005302,121.815848 L126.812326,122.055715 L126.579464,122.356583 L126.34,122.681 L126.115236,122.853213 L125.036153,123.662762 L124.50248,124.072812 L123.932386,124.524307 L123.694849,124.717507 L123.073929,125.240748 L122.703686,125.56891 L122.41595,125.833733 L122.218445,126.020485 L121.945598,126.28807 C121.322231,126.910913 120.791348,127.525714 120.34365,128.18727 L120.206,128.397 L119.811,128.728 L118.582,129.648 L118.841024,126.533836 L119.380233,120.126656 L119.740247,115.633382 L120.010007,112.089946 L120.207438,109.353601 L120.442055,105.852457 L120.554238,104.024081 L120.672092,101.914356 L120.76509,99.999464 L120.833239,98.2789354 L120.862202,97.3397175 L120.883167,96.5589721 L120.917993,95.6205986 L120.963569,94.7197522 L121.019624,93.8567295 L121.085888,93.0318272 C121.097768,92.8975367 121.110061,92.7648468 121.122763,92.6337639 L121.203833,91.8665983 C121.2754,91.2434449 121.356896,90.6607727 121.447617,90.1193541 L121.560866,89.4895029 C121.717647,88.6762355 121.897323,87.9693684 122.097008,87.3720655 L122.172823,87.1532189 C122.2263,87.0043021 122.27865,86.8510471 122.329889,86.6934038 L122.480291,86.2072588 C122.578359,85.8743186 122.67205,85.523624 122.761495,85.1547735 L122.892495,84.5878304 L123.017225,83.9933519 C123.037496,83.8919607 123.057511,83.7894098 123.07727,83.6856926 L123.19278,83.0493458 C123.230274,82.8325321 123.266764,82.6110037 123.302267,82.3847101 L123.40583,81.6914842 C123.422602,81.5735472 123.439132,81.4544065 123.45542,81.3340556 L123.550282,80.5973792 L123.639465,79.831359 L123.72307,79.0356938 L123.801194,78.2100821 L123.908322,76.9148556 L123.973177,76.0130592 L124.032898,75.0802615 L124.087583,74.1161611 L124.137331,73.1204567 L124.18224,72.0928469 L124.222409,71.0330303 L124.273992,69.3822584 L124.315465,67.6573259 L124.347161,65.8572158 L124.411556,61.508555 L124.467842,58.629075 L124.546818,55.4514781 L124.654481,52.1293431 L124.759852,49.6137178 L124.836711,48.1077055 L124.918794,46.7391143 L124.98375,45.8031446 L125.074839,44.6762042 L125.182033,43.4670413 L125.254025,42.5330597 C125.565436,38.1231631 125.333636,35.2024135 123.983432,32.7313254 L123.939,32.654 L124.177284,32.7552254 C125.769989,33.408122 127.50164,33.7765471 129.358167,33.8293646 L130.177122,33.8392962 L130.492,33.848 L130.73277,34.0131317 C133.293758,35.6996643 136.490544,36.19918 140.770941,36.1034922 L141.704919,36.0740931 C141.8634,36.0677467 142.023305,36.0606951 142.184652,36.0529652 L142.717239,36.0247191 C147.471374,35.7476225 151.171226,34.8477605 154.019192,32.9227732 L154.093,32.87 L154.285257,32.7899265 L154.384821,32.7508369 C154.609098,32.6643134 154.87635,32.570827 155.184662,32.471635 L155.677688,32.3187249 L156.230871,32.1581992 L156.86039,31.9863097 L157.561676,31.8053988 L158.315619,31.6208667 L159.121963,31.4328161 L159.980456,31.2413499 L160.890841,31.0465706 L161.852866,30.8485812 L162.866276,30.6474843 L163.930816,30.4433826 L165.535976,30.1474829 L167.58193,29.7876279 L169.76694,29.4209664 L172.090861,29.047534 L174.553547,28.6673664 L176.491538,28.3778421 L179.196713,27.9859737 L182.77274,27.4868089 L186.564678,26.9773432 L190.572242,26.4576464 L194.795149,25.927788 L196.327,25.739 L196.050011,25.7568093 C199.530942,25.5643872 203.434699,25.0667111 207.77702,24.2694744 L209.038634,24.0353569 L209.461653,23.9639724 L210.157334,23.8566769 L211.198648,23.71328 L212.064598,23.6055404 L213.331984,23.4617199 L214.727697,23.3178087 L216.251112,23.1739169 L218.334013,22.9942469 L220.614258,22.8149941 L223.609331,22.600744 L225.761908,22.4585997 L228.626877,22.281888 L232.960914,22.0366851 L236.132,21.87 L239.565057,21.8139048 L243.382874,21.7649504 L246.739251,21.7389646 C246.912881,21.7381585 247.084371,21.7366091 247.25372,21.7366091 L249.831015,21.7366091 Z" id="Combined-Shape" fill="#000000" fill-rule="nonzero"></path>
    </g>
</svg>