<?xml version="1.0" encoding="UTF-8"?>
<svg width="1000px" height="1000px" viewBox="0 0 1000 1000" version="1.1" xmlns="http://www.w3.org/2000/svg" xmlns:xlink="http://www.w3.org/1999/xlink">
    <title>V_yan_l</title>
    <g id="V_yan_l" stroke="none" stroke-width="1" fill="none" fill-rule="evenodd">
        <g id="冈人-copy" transform="translate(132.000000, 0.000000)" fill="#000000" fill-rule="nonzero">
            <path d="M474.305365,0.77277118 C532.68195,2.31831354 575.78784,5.02301267 603.623033,8.88686857 C633.004626,15.069038 652.334621,19.5124723 661.613019,22.2171714 C670.891416,24.9218706 678.236814,28.9789193 683.649213,34.3883175 C691.381211,40.570487 697.18021,43.6615717 701.046209,43.6615717 C706.458608,43.6615717 713.804006,50.8097051 723.082403,65.1059719 C732.360801,79.4022388 737,90.0278425 737,96.9827831 C737,105.483266 734.293801,118.620376 728.881402,136.394113 C723.469003,154.16785 718.443205,165.759418 713.804006,171.168816 C710.711206,175.805443 709.551407,235.308824 710.324607,349.678959 C711.097806,453.230297 711.677706,512.926871 712.064306,528.76868 C712.450906,544.610489 714.190606,557.940792 717.283405,568.759589 C720.376204,581.896699 722.889103,621.308029 724.822103,686.993579 C726.755103,752.679129 728.688102,789.965339 730.621102,798.852208 C732.554101,807.739076 731.007701,823.001307 725.981903,844.6389 C720.956104,866.276493 717.283405,882.891073 714.963805,894.482641 C712.644206,906.074209 710.711206,916.893005 709.164807,926.939031 C706.845207,939.30337 692.927611,954.5656 667.412017,972.725723 C641.896423,990.885846 622.179828,999.965907 608.262232,999.965907 C591.251836,1000.73868 571.921841,988.374339 550.272246,962.872891 C534.80825,945.871925 516.251454,926.745838 494.60186,905.49463 C472.952265,884.243423 460.967668,873.617819 458.648069,873.617819 C454.78207,873.617819 449.369671,870.333542 442.410873,863.764987 C435.452074,857.196432 433.519075,852.752997 436.611874,850.434684 C438.931474,846.570828 450.336171,845.218478 470.825966,846.377635 C491.315761,847.536792 507.746257,850.048298 520.117454,853.912154 C535.58145,857.77601 552.978445,856.616853 572.308441,850.434684 C574.62804,850.434684 577.720839,849.661913 581.586838,848.11637 C598.597234,843.479743 608.842132,832.274561 612.321531,814.500824 C615.766136,796.904824 617.505662,737.652208 617.540108,636.742974 L617.540889,623.805058 C614.981393,624.47535 612.176057,625.33217 609.133007,626.377639 L609.133007,626.377639 L608.489789,626.597791 L606.487777,627.273141 L605.092746,627.735807 L602.909555,628.448503 L600.617458,629.183692 L598.216304,629.941437 L595.705945,630.721802 L592.188664,631.797583 L588.476618,632.913838 L583.927757,634.261262 C583.715658,634.324884 583.505359,634.388611 583.296863,634.452436 L583.296863,634.452436 L582.067557,634.836499 L580.881675,635.222563 C579.717553,635.609514 578.618782,635.998952 577.586006,636.389331 L577.586006,636.389331 L576.575252,636.779966 C572.455633,638.408445 569.485464,640.044318 567.711225,641.575765 L567.711225,641.575765 L567.258209,641.961747 C561.055944,647.177323 554.401689,649.947527 547.37347,649.596311 C544.523124,649.453873 541.273006,648.708413 537.477579,647.360354 L537.477579,647.360354 L536.475003,646.995017 C535.798244,646.742346 535.104609,646.47145 534.393333,646.182332 L534.393333,646.182332 L533.313092,645.734988 C532.948537,645.581318 532.579476,645.423092 532.205814,645.260311 L532.205814,645.260311 L531.070926,644.758304 C530.879445,644.672359 530.68679,644.585275 530.492948,644.497052 L530.492948,644.497052 L529.315568,643.954051 C528.918298,643.768497 528.516188,643.578388 528.109141,643.383724 L528.109141,643.383724 L526.873095,642.786073 L525.606854,642.161097 L524.309844,641.508801 L522.981493,640.829184 L522.305384,640.479131 L520.778758,639.714104 C469.014887,613.615347 424.755339,580.632737 388.065941,540.782343 L388.065941,540.782343 L387.062278,539.687164 L367.786308,520.422177 L366.604051,519.040115 C365.423266,517.653886 364.278702,516.291066 363.170317,514.951537 L363.170317,514.951537 L361.534866,512.959697 C359.122374,509.998096 356.892919,507.154108 354.845994,504.426388 L354.845994,504.426388 L354.527338,504.007963 L353.996625,503.33337 L353.40283,502.602689 L352.746168,501.816214 L351.773195,500.681295 L350.970676,499.765771 L350.106006,498.795428 L349.1794,497.770558 L348.191072,496.691456 L346.407282,494.773227 L345.255413,493.550933 L343.624838,491.838564 L341.435061,489.56626 L340.040746,488.133081 L337.583493,485.629062 L334.960362,482.981983 L332.699422,480.720759 C331.689165,479.719872 330.693092,478.755148 329.711519,477.826529 L329.711519,477.826529 L328.540611,476.729514 C328.152641,476.369617 327.767012,476.015493 327.383743,475.667138 L327.383743,475.667138 L326.241037,474.63938 C325.48398,473.965743 324.736445,473.315169 323.998593,472.68763 L323.998593,472.68763 L322.899098,471.763593 C322.717066,471.612465 322.535644,471.462776 322.354835,471.314525 L322.354835,471.314525 L321.277355,470.442275 C315.74857,466.024787 310.813503,462.988619 306.547303,461.320162 L306.547303,461.320162 L301.543286,459.444537 L301.499011,459.512446 C298.421898,463.979381 294.625427,468.831153 290.103337,474.091125 L290.103337,474.091125 L288.549029,475.894719 C284.097775,481.108986 279.617112,487.005803 275.113328,493.584608 L275.113328,493.584608 L274.700543,494.183384 C273.865636,495.386193 272.974701,496.62057 272.027596,497.886881 L272.027596,497.886881 L271.061763,499.163852 C270.405385,500.02228 269.724022,500.894955 269.017633,501.781986 L269.017633,501.781986 L267.939274,503.123314 C267.207847,504.024728 266.451373,504.940553 265.66981,505.870896 L265.66981,505.870896 L264.478643,507.277314 L263.249811,508.705591 C263.041865,508.945464 262.832348,509.18625 262.62126,509.427953 L262.62126,509.427953 L261.335872,510.889172 C260.90112,511.379918 260.460078,511.874341 260.012741,512.372455 L260.012741,512.372455 L258.651835,513.877882 L257.253123,515.405535 C257.016852,515.662001 256.779005,515.919396 256.53958,516.177722 L256.53958,516.177722 L255.084101,517.738867 L253.590738,519.322442 L252.059461,520.928527 L248.710817,524.411446 L244.054001,529.286928 L240.792692,532.735546 L238.279575,535.421198 L236.379743,537.475095 L234.461366,539.580154 L233.288503,540.890779 L232.280821,542.039778 L231.362064,543.110145 C230.96301,543.571249 230.547834,544.03915 230.116473,544.513966 L230.116473,544.513966 L229.232155,545.47285 L228.304569,546.45038 C227.671731,547.108329 227.009975,547.778847 226.319153,548.462212 L226.319153,548.462212 L225.261103,549.49693 L224.159345,550.551128 C223.97207,550.728462 223.78297,550.906617 223.592041,551.085596 L223.592041,551.085596 L222.424514,552.169403 C222.226264,552.351698 222.026181,552.534827 221.824264,552.718793 L221.824264,552.718793 L220.59072,553.832678 C220.381453,554.020012 220.170347,554.208193 219.957399,554.397224 L219.957399,554.397224 L218.657591,555.541655 L217.313469,556.706711 L215.010058,558.672755 L213.004055,560.408568 L210.763416,562.37806 L207.853413,564.970624 L204.62544,567.880099 L201.080246,571.105867 L197.789597,574.122084 L191.154433,580.252876 L182.359033,588.446931 L179.002635,591.552671 L175.802216,594.484212 L173.353526,596.704454 L171.003532,598.813951 L168.204066,601.295589 L166.074303,603.157114 L164.540707,604.481266 L163.061497,605.743866 L161.636463,606.945052 L160.265391,608.084965 L158.948071,609.163742 L157.68429,610.181524 L156.87141,610.826227 L155.696391,611.742658 L154.574346,612.598464 L153.855642,613.135389 L153.160326,613.645473 L152.488334,614.128757 L151.839603,614.585283 L150.725109,615.348843 C145.090747,619.143655 138.563284,622.467942 131.149001,625.349676 C122.96688,628.529849 116.30299,630.194897 110.708155,630.194897 C107.782122,630.194897 105.221079,629.793565 102.785161,628.464731 C103.612686,639.694186 104.151408,651.415218 103.749356,652.218876 C103.749356,652.991647 102.202957,671.15177 99.1101574,706.699244 C96.0173581,742.246719 92.537959,771.998409 88.6719599,795.954316 C84.8059609,819.910222 83.2595613,838.45673 84.0327611,851.593841 C84.8059609,864.730951 83.4528612,874.776976 79.9734621,881.731917 C76.4940629,888.686857 72.4347639,897.573726 67.7955651,908.392522 C63.1563662,919.211319 59.2903672,924.620717 56.197568,924.620717 C53.1047687,924.620717 45.1794707,915.927041 32.4216738,898.53969 C19.663877,881.152338 12.1251788,863.958179 9.8055794,846.957213 C7.48597997,829.956248 4.77978064,818.751065 1.6869814,813.341667 C-1.40581784,807.932269 -0.246018121,794.408773 5.16638054,772.77118 C10.5787792,751.133587 13.2849785,732.780272 13.2849785,717.711234 C13.2849785,702.642196 15.7978779,678.106711 20.8236767,644.104779 C25.8494754,610.102847 28.3623748,576.100915 28.3623748,542.098983 C28.3623748,508.097051 30.8752742,476.027047 35.901073,445.888971 C40.9268717,415.750895 43.4397711,387.158361 43.4397711,360.11137 C43.4397711,333.064379 44.9861707,313.938292 48.07897,302.73311 C51.1717692,291.527928 53.8779685,260.037502 56.197568,208.261833 C58.5171674,156.486164 61.4166667,128.666402 64.8960658,124.802546 C68.3754649,120.93869 78.0404626,123.257003 93.8910587,131.757486 C109.741655,140.257969 118.633453,146.440139 120.566452,150.303995 C122.499452,154.16785 122.886052,164.793454 121.726252,182.180806 C120.57805,199.394284 119.808755,228.72605 119.418366,270.176105 L119.406652,271.435877 C119.020052,313.551906 117.280353,340.598898 114.187554,352.576851 C111.094754,364.554804 109.355055,381.55577 108.968455,403.579749 C108.581855,425.603727 106.648856,464.821865 103.169456,521.234161 C99.7834516,576.132232 98.7772538,604.86694 100.150863,607.438283 L100.668215,606.794015 L101.464324,605.776594 L102.414304,604.535397 L103.234894,603.447933 L103.58572,602.993138 L104.14951,602.275823 L104.758426,601.516283 L105.412542,600.714427 L106.355128,599.579305 L107.646795,598.054062 L109.064811,596.410273 L110.933678,594.280659 L112.281218,592.76539 L114.455396,590.348663 L116.407706,588.202426 L119.797941,584.517186 L123.034428,581.037756 L127.043103,576.768475 L132.520688,570.990189 L136.057188,567.28637 L142.178687,560.912484 L143.104834,559.845456 L144.13651,558.633924 L145.064847,557.518868 L145.625773,556.830056 L146.139939,556.185562 L146.607012,555.585962 L147.026659,555.031833 L147.388865,554.537236 L147.572916,554.27747 L147.584795,554.222218 C148.157955,551.739578 149.453479,549.661339 151.500944,547.013882 L151.500944,547.013882 L152.101611,546.248743 L152.71411,545.495599 C152.926467,545.23874 153.147039,544.976031 153.3759,544.707352 L153.3759,544.707352 L154.087423,543.883294 C154.455691,543.462194 154.842776,543.027399 155.248926,542.578512 L155.248926,542.578512 L156.086719,541.661829 C156.230612,541.505877 156.376642,541.34833 156.524819,541.189173 L156.524819,541.189173 L157.439702,540.214791 L158.406532,539.201058 L159.683649,537.876199 L160.766026,536.743146 L161.753111,535.696894 L162.919447,534.438934 L163.680707,533.59976 L164.343696,532.85128 L164.820297,532.29754 L164.931478,531.982302 C164.959763,531.9043 164.988817,531.825918 165.01865,531.747129 L165.01865,531.747129 L165.207105,531.269279 C165.273105,531.108214 165.342316,530.945293 165.41483,530.780286 L165.41483,530.780286 L165.642374,530.278786 L165.890285,529.763414 L166.159113,529.232806 L166.449406,528.685598 C166.499607,528.592938 166.550726,528.499529 166.602773,528.405343 L166.602773,528.405343 L166.926293,527.830677 L167.272651,527.236 L167.642394,526.619948 L168.036072,525.981156 L168.672668,524.977347 L169.128585,524.275738 L169.861111,523.171307 L170.653666,522.000365 L171.216299,521.180511 L172.113015,519.888482 L172.746805,518.98364 L175.200378,515.521229 L176.93762,513.101756 L178.050763,511.56702 L180.024085,508.870578 L183.034914,504.804295 L186.33559,500.397748 L189.92645,495.650431 L193.80783,490.561837 L197.366213,485.928172 L202.443498,479.358792 L203.888046,477.444317 C220.539197,455.296106 234.985694,432.83649 247.232919,410.065303 L247.232919,410.065303 L248.409004,407.864979 L248.772948,407.220896 L250.268339,404.596809 L251.207709,402.965554 L252.171021,401.305235 L253.660887,398.760242 L255.204645,396.149802 L256.802309,393.473885 L258.453892,390.732459 L260.15941,387.925493 L261.918875,385.052956 L263.732304,382.114816 L265.599709,379.111043 L267.521105,376.041605 L269.496505,372.906472 L271.525926,369.705611 L273.60938,366.438991 L275.746881,363.106582 L278.680982,358.560977 L281.711227,353.898283 L284.658922,349.389556 L285.384636,348.143546 L286.444363,346.300444 L287.167113,345.027456 L288.03397,343.477573 L288.960642,341.780057 L289.575326,340.616419 L289.896578,339.987636 L290.134944,339.486984 L290.46635,338.805084 L290.819754,338.09464 L291.195196,337.355567 L291.592714,336.587779 L292.012345,335.791193 L292.68334,334.542127 L293.158425,333.673169 L293.912779,332.315147 L294.717321,330.891367 L295.57218,329.401542 L296.477487,327.845384 L297.763261,325.666825 L299.497387,322.776035 L300.605778,320.951667 L301.765264,319.059529 L303.811636,315.754579 L306.455949,311.537215 L308.81747,307.81166 L310.911841,304.534603 L313.274597,300.87186 L314.395685,299.149339 L316.520007,295.918797 L318.172832,293.442111 L319.721585,291.158116 L320.887352,289.467665 L321.719806,288.278601 L322.516976,287.156346 L323.525925,285.762827 L324.474411,284.485426 L325.146874,283.602667 L325.576961,283.049659 L325.99266,282.524827 L326.394131,282.027982 L326.781537,281.558936 L327.15504,281.117497 L327.5148,280.703478 L327.86098,280.316688 L328.193741,279.956937 L328.513245,279.624036 L328.883743,279.252048 L329.591574,278.617807 C331.655571,276.782562 333.450059,275.32955 335.051577,274.221421 C338.159465,272.070999 340.725255,270.856299 344.407797,270.856299 C348.954995,270.856299 351.790374,272.54664 355.943001,275.988373 L355.943001,275.988373 L356.300465,276.287301 C356.661733,276.592038 357.034448,276.914226 357.41891,277.254063 L357.41891,277.254063 L358.203585,277.957327 C358.337005,278.078479 358.471751,278.201607 358.607837,278.326718 L358.607837,278.326718 L359.4405,279.101235 L360.305822,279.923694 C360.452794,280.064785 360.601148,280.207888 360.750897,280.353011 L360.750897,280.353011 L361.666209,281.248041 L362.615515,282.191891 L363.599348,283.184913 L364.618243,284.227457 C371.375669,291.185794 376.86647,297.605435 381.100769,303.530167 L380.855,303.189 L381.371546,303.820187 C388.433868,312.570129 391.849442,320.765832 390.417295,328.95016 L390.33889,329.37348 L390.245127,329.827584 C389.497131,333.266456 387.724853,337.150656 384.887431,341.698582 L384.887431,341.698582 L384.285166,342.649074 C384.182251,342.809091 384.078066,342.969916 383.97261,343.131557 L383.97261,343.131557 L383.3246,344.111267 C383.103502,344.441149 382.877304,344.774367 382.645993,345.110992 L382.645993,345.110992 L381.936707,346.131163 L381.196664,347.172209 C380.944847,347.522751 380.687891,347.876844 380.425781,348.23456 L380.425781,348.23456 L379.623979,349.318646 L378.791178,350.424897 C378.64979,350.611143 378.507107,350.79833 378.363128,350.986468 L378.363128,350.986468 L377.483676,352.126772 L376.573024,353.290315 L375.631091,354.477527 L374.657796,355.688839 L373.65306,356.924679 L373.138876,357.551931 L370.937965,360.279372 L368.776801,362.978086 L366.655389,365.648055 L364.573737,368.289263 C364.230108,368.727067 363.888137,369.163671 363.547822,369.599076 L363.547822,369.599076 L361.525818,372.197109 L359.543586,374.766339 C359.216529,375.192143 358.891129,375.616745 358.567387,376.040147 L358.567387,376.040147 L356.644826,378.566138 C356.327714,378.984734 356.01226,379.402127 355.698465,379.818318 L355.698465,379.818318 L353.835586,382.301033 L352.012502,384.754876 C350.209319,387.194278 348.465837,389.590346 346.782082,391.943003 L346.782082,391.943003 L345.118238,394.281188 L343.494217,396.590416 C342.424813,398.120245 341.381961,399.630758 340.365671,401.121932 L340.365671,401.121932 L338.973212,403.176493 L337.66922,405.12398 L336.454057,406.963617 L335.693477,408.129742 L334.627167,409.787905 L334.219484,410.430752 L336.770771,411.140323 L338.326272,411.561728 L339.568134,411.945604 C349.121818,414.96192 358.59689,419.442697 367.990015,425.361167 L367.990015,425.361167 L368.95962,425.977936 L369.953422,426.621617 L370.971454,427.292225 L372.544009,428.34866 L373.622765,429.086654 L374.725871,429.851629 L376.426258,431.049715 L378.181621,432.308595 L379.382462,433.181648 L381.229707,434.541966 L383.132233,435.963217 L385.090155,437.445452 L387.103588,438.988722 L389.172645,440.593081 L390.582976,441.696616 L392.018113,442.82734 L394.217407,444.574438 L395.71471,445.773201 L398.007411,447.622429 L400.356309,449.533005 L402.761518,451.504979 L405.223153,453.538404 L406.895648,454.928186 C409.120285,456.769443 411.331979,458.586783 413.530721,460.380204 L413.530721,460.380204 L416.819118,463.052397 C419.551352,465.264274 422.26334,467.438779 424.955067,469.575906 L424.955067,469.575906 L428.175413,472.122518 C434.596648,477.179859 440.901136,482.021903 447.088642,486.64861 L447.088642,486.64861 L450.172645,488.944018 L453.237145,491.203536 C456.291891,493.445109 459.317371,495.632843 462.313557,497.766735 L462.313557,497.766735 L465.299978,499.882679 C468.77274,502.330341 472.205615,504.704715 475.598558,507.005792 L475.598558,507.005792 L477.116882,508.062546 C502.854326,525.919789 527.745449,539.013924 551.769263,547.381218 L551.769263,547.381218 L552.095,547.49467 L556.015881,549.132445 L559.50031,550.598434 L563.962712,552.492184 L567.171966,553.866863 L570.263389,555.202464 L574.202104,556.922533 L577.018833,558.16708 L578.158417,558.666776 L579.247772,559.131294 C579.425113,559.205779 579.600337,559.278796 579.77343,559.350345 L579.77343,559.350345 L580.786339,559.762006 L581.747547,560.138371 C581.903407,560.198154 582.057089,560.256465 582.20858,560.313302 L582.20858,560.313302 L583.091136,560.636633 C583.233814,560.687572 583.374276,560.737035 583.512511,560.785021 L583.512511,560.785021 L584.31509,561.055213 L584.696146,561.177005 C584.802678,561.210409 584.906899,561.242521 585.008767,561.273351 L585.008767,561.273351 L585.591426,561.442987 C585.683722,561.468712 585.773585,561.493169 585.860973,561.516363 L585.860973,561.516363 L586.35528,561.640447 L586.788238,561.734592 L587.038811,561.780178 L587.221127,561.806118 L587.500327,561.808309 C593.685244,561.920551 599.099536,564.61271 602.141332,569.732122 L602.141332,569.732122 L602.171491,569.78467 L602.532798,569.96398 L603.121282,570.238348 C603.224698,570.28503 603.330772,570.332182 603.439489,570.379793 L603.439489,570.379793 L604.123405,570.670855 L604.870089,570.972349 L605.678855,571.283713 C605.818785,571.336399 605.961273,571.389472 606.106306,571.442922 L606.106306,571.442922 L607.006915,571.768042 C607.162067,571.822951 607.319734,571.878212 607.479902,571.933814 L607.479902,571.933814 L608.470816,572.271432 L609.521077,572.616681 L610.348217,572.881028 L611.445953,573.300871 L612.996218,573.906338 L614.494925,574.507661 C614.740435,574.60756 614.983814,574.707303 615.225068,574.806901 L615.225068,574.806901 L616.647176,575.402805 C616.926274,575.521556 617.202343,575.640123 617.475398,575.758521 C615.960959,418.826851 614.823313,339.411964 614.06123,337.507813 C613.288031,335.575885 611.355031,300.221604 608.262232,231.444968 L608.262232,212.89846 L608.262232,212.89846 C606.715832,150.303995 604.396233,113.017785 601.303433,101.039832 C598.210634,89.0618785 589.318836,79.9818171 574.62804,73.7996477 L569.988841,71.4813342 L569.988841,71.4813342 C556.071245,64.5263935 544.666547,60.6625376 535.77475,59.8897665 C531.417769,59.5111086 524.415343,59.3179931 514.767471,59.3104199 L513.572878,59.3104199 C503.709052,59.3179931 491.199781,59.5111086 476.045064,59.8897665 C431.972675,62.9808512 403.364282,66.2651287 390.219886,69.742599 C377.075489,73.2200693 365.477492,75.3451901 355.425894,76.1179612 C273.466714,90.0278425 227.847926,101.61941 218.569528,110.892664 C213.930329,115.529291 205.811731,118.233991 194.213734,119.006762 C182.615737,119.779533 175.270339,118.233991 172.177539,114.370135 C170.63114,111.27905 165.991941,109.733508 158.259943,109.733508 C148.208345,109.733508 140.476347,101.426217 135.063948,84.811637 C129.65155,68.1970567 131.197949,57.5714529 139.703147,52.9348258 C165.218741,39.7977158 183.002337,33.2291607 193.053934,33.2291607 C198.466333,33.2291607 204.651931,31.2972328 211.61073,27.4333769 C229.394325,18.1601227 272.693515,10.0460253 341.508298,3.09108472 C371.66309,0 415.928779,-0.77277118 474.305365,0.77277118 Z" id="Combined-Shape"></path>
        </g>
    </g>
</svg>