<?xml version="1.0" encoding="UTF-8"?>
<svg width="400px" height="305px" viewBox="0 0 400 305" version="1.1" xmlns="http://www.w3.org/2000/svg" xmlns:xlink="http://www.w3.org/1999/xlink">
    <title>wai_s</title>
    <g id="wai_s" stroke="none" stroke-width="1" fill="none" fill-rule="evenodd">
        <g id="s外df" transform="translate(158.000000, 0.000000)" fill="#000000" fill-rule="nonzero">
            <path d="M59.9643705,124.495575 C62.97308,124.283186 64.7783056,124.123894 65.3800475,124.017699 C65.9817894,123.911504 70.4948535,124.283186 78.9192399,125.132743 C99.378464,126.831858 114.873317,132.884956 125.4038,143.292035 C127.810768,145.628319 129.315123,147.646018 129.916865,149.345133 C130.518606,151.044248 130.819477,154.442478 130.819477,159.539823 C131.120348,164.637168 131.045131,167.929204 130.593824,169.415929 C130.142518,170.902655 129.014252,172.283186 127.209026,173.557522 C124.501188,175.681416 120.514648,177.274336 115.249406,178.336283 C109.984165,179.39823 105.546318,179.185841 101.935867,177.699115 C98.3254157,176.212389 94.263658,173.345133 89.7505938,169.097345 C85.2375297,164.849558 81.3262074,161.345133 78.0166271,158.584071 C73.202692,154.548673 68.1631037,149.185841 62.8978622,142.495575 C57.6326207,135.80531 55,131.39823 55,129.274336 C55,127.362832 55.2256532,126.141593 55.6769596,125.610619 C56.128266,125.079646 57.557403,124.707965 59.9643705,124.495575 Z M10.4812165,1.44549763 C10.4812165,0.803054239 10.6314848,0.374758645 10.9320215,0.160610848 C11.2325581,-0.0535369493 11.5330948,-0.0535369493 11.8336315,0.160610848 C12.7352415,0.374758645 16.3416816,1.33842373 22.6529517,3.05160611 C28.0626118,4.55064069 32.6457961,6.90626646 36.4025045,10.1184834 C40.1592129,13.3307004 42.6386404,16.7570651 43.8407871,20.3975777 C44.7423971,24.6805336 45.118068,33.2464455 44.9677996,46.0953133 C44.8175313,58.9441811 44.1413238,69.9727927 42.9391771,79.181148 C41.1359571,90.9592768 40.3846154,105.789012 40.6851521,123.670353 C40.9856887,141.551694 40.6851521,156.113744 39.783542,167.356503 C38.881932,178.599263 38.881932,191.180446 39.783542,205.100053 C40.3846154,215.379147 40.4597496,223.730911 40.0089445,230.155345 C39.5581395,236.579779 37.8300537,247.501316 34.8246869,262.919958 C33.6225403,269.55854 32.4203936,275.019308 31.2182469,279.302264 L27.6118068,292.151132 C26.7101968,295.363349 24.9069767,298.307881 22.2021467,300.984729 C19.4973166,303.661576 17.0930233,305 14.9892665,305 C13.1860465,305 12.2844365,304.411094 12.2844365,303.233281 C12.2844365,302.055468 11.3076923,297.130068 9.35420394,288.457083 C7.40071556,279.784097 6.19856887,269.237318 5.74776386,256.816746 C5.29695886,244.396173 4.39534884,230.637177 3.04293381,215.539758 C1.69051878,200.442338 1.01431127,176.297174 1.01431127,143.104265 C0.713774597,109.697209 0.413237925,82.9822714 0.112701252,62.9594523 C-0.18783542,42.9366333 0.112701252,28.7493418 1.01431127,20.3975777 C1.61538462,15.0438827 2.21645796,11.5104441 2.81753131,9.79726172 C3.41860465,8.08407934 4.47048301,6.69211866 5.97316637,5.62137967 C8.97853309,3.9081973 10.4812165,2.51623662 10.4812165,1.44549763 Z" id="外"></path>
        </g>
    </g>
</svg>