<?xml version="1.0" encoding="UTF-8"?>
<svg width="1000px" height="1000px" viewBox="0 0 1000 1000" version="1.1" xmlns="http://www.w3.org/2000/svg" xmlns:xlink="http://www.w3.org/1999/xlink">
    <title>wai_char</title>
    <g id="wai_char" stroke="none" stroke-width="1" fill="none" fill-rule="evenodd">
        <g id="外" transform="translate(348.000000, 0.000000)" fill="#000000" fill-rule="nonzero">
            <path d="M197.526128,407.648914 C207.541964,406.942237 213.551465,406.412228 215.554632,406.05889 C217.557799,405.705551 232.581552,406.942237 260.625891,409.768946 C328.733571,415.422365 380.315123,435.562671 415.370546,470.189863 C423.383215,477.963315 428.391132,484.67675 430.394299,490.330169 C432.397466,495.983588 433.39905,507.290426 433.39905,524.250684 C434.400633,541.210941 434.150238,552.164441 432.647862,557.111183 C431.145487,562.057924 427.389549,566.651327 421.380048,570.891392 C412.365796,577.958166 399.094814,583.258246 381.567102,586.791633 C364.03939,590.32502 349.266033,589.618343 337.247031,584.671601 C325.228029,579.724859 311.706651,570.184714 296.682898,556.051167 C281.659145,541.917619 268.638559,530.257442 257.62114,521.070636 C241.595804,507.643765 224.819279,489.800161 207.291568,467.539823 C189.763856,445.279485 181,430.615929 181,423.549155 C181,417.189059 181.751188,413.125664 183.253563,411.35897 C184.755938,409.592277 189.51346,408.355591 197.526128,407.648914 Z M34.9373882,4.73933649 C34.9373882,2.63296472 35.4382826,1.22871687 36.4400716,0.526592944 C37.4418605,-0.175530981 38.4436494,-0.175530981 39.4454383,0.526592944 C42.450805,1.22871687 54.4722719,4.38827453 75.509839,10.0052659 C93.5420394,14.9201334 108.81932,22.6434966 121.341682,33.1753555 C133.864043,43.7072143 142.128801,54.9411971 146.135957,66.8773038 C149.141324,80.9197823 150.39356,109.004739 149.892665,151.132175 C149.391771,193.25961 147.137746,229.418992 143.13059,259.610321 C137.119857,298.227137 134.615385,346.849219 135.617174,405.476567 C136.618962,464.103914 135.617174,511.848341 132.611807,548.709847 C129.60644,585.571353 129.60644,626.821134 132.611807,672.459189 C134.615385,706.161137 134.865832,733.543971 133.363148,754.607688 C131.860465,775.671406 126.100179,811.479726 116.08229,862.032649 C112.075134,883.79849 108.067979,901.702651 104.060823,915.745129 L92.039356,957.872565 C89.0339893,968.404423 83.0232558,978.058627 74.0071556,986.835176 C64.9910555,995.611725 56.9767442,1000 49.9642218,1000 C43.9534884,1000 40.9481216,998.069159 40.9481216,994.207478 C40.9481216,990.345796 37.6923077,974.196946 31.1806798,945.760927 C24.6690519,917.324908 20.6618962,882.745305 19.1592129,842.022117 C17.6565295,801.298929 14.6511628,756.187467 10.1431127,706.68773 C5.63506261,657.187994 3.38103757,578.023521 3.38103757,469.194313 C2.37924866,359.662981 1.37745975,272.073021 0.375670841,206.424434 C-0.626118068,140.775847 0.375670841,94.2601369 3.38103757,66.8773038 C5.38461538,49.3242057 7.3881932,37.739161 9.39177102,32.1221696 C11.3953488,26.5051782 14.90161,21.9413727 19.9105546,18.430753 C29.9284436,12.8137616 34.9373882,8.24995612 34.9373882,4.73933649 Z"></path>
        </g>
    </g>
</svg>