<?xml version="1.0" encoding="UTF-8"?>
<svg width="375px" height="305px" viewBox="0 0 375 305" version="1.1" xmlns="http://www.w3.org/2000/svg" xmlns:xlink="http://www.w3.org/1999/xlink">
    <title>x_gui_s</title>
    <g id="x_gui_s" stroke="none" stroke-width="1" fill="none" fill-rule="evenodd">
        <g id="å•-æ­¢-copy" fill="#000000" fill-rule="nonzero">
            <path d="M165.738061,89.2684543 C167.185239,88.8210305 169.790159,88.9328864 173.552822,89.6040221 C177.315485,90.2751578 180.354559,91.1700053 182.670043,92.2885648 C185.274964,93.6308361 187.590449,94.3019718 189.616498,94.3019718 C191.353111,94.3019718 194.971056,96.2594508 200.470333,100.174409 C205.969609,104.089367 208.719247,106.717982 208.719247,108.060253 C209.008683,109.849948 209.008683,119.972911 208.719247,138.429142 C208.429812,156.885373 208.140376,151.236648 207.850941,155.03975 C207.561505,160.185123 208.212735,163.03745 209.804631,163.596729 C211.396527,164.156009 215.376266,163.596729 221.743849,161.91889 C228.111433,160.241051 231.439942,158.842852 231.729378,157.724292 C232.597685,156.605733 239.327062,155.878669 251.917511,155.543101 C264.507959,155.207534 272.105644,155.599029 274.710564,156.717589 C277.894356,157.836148 280.354559,160.017339 282.091172,163.261162 C283.827786,166.504984 284.551375,169.581022 284.261939,172.489277 C283.393632,175.621243 280.643994,179.424346 276.013025,183.898583 C272.539797,187.03055 270.079595,188.932101 268.632417,189.603237 C267.185239,190.274372 265.15919,190.386228 262.554269,189.938804 C259.081042,189.267669 253.437048,189.882876 245.622287,191.784427 C237.807525,193.685979 233.031838,195.531602 231.295224,197.321297 C228.111433,200.005839 222.756874,198.999136 215.231548,194.301186 C210.311143,190.721796 207.127352,188.932101 205.680174,188.932101 C203.94356,188.932101 202.134588,197.265369 200.253256,213.931904 C198.371925,230.59844 197.141823,236.247165 196.562952,257.723507 L196.562952,264.434863 L244.75398,264.434863 C277.170767,263.98744 302.785818,263.651872 321.599132,263.42816 C335.492041,262.980736 344.826339,263.092592 349.602026,263.763728 C354.377713,264.434863 356.765557,265.665279 356.765557,267.454974 C356.765557,268.797245 358.57453,270.810652 362.192475,273.495195 C365.81042,276.179738 367.981187,278.752424 368.704776,281.213255 C369.428365,283.674086 370.875543,287.756828 373.04631,293.461481 C375.217077,299.166134 375.578871,302.465885 374.131693,303.360732 C372.39508,304.479292 366.823444,305.430067 357.416787,306.213059 C348.01013,306.99605 341.42547,307.051978 337.662808,306.380843 C333.321274,305.262283 329.052098,304.703003 324.855282,304.703003 C320.658466,304.703003 317.11288,304.143724 314.218524,303.025164 C310.455861,301.459181 295.839363,299.55763 270.36903,297.320511 C259.949349,296.425664 252.858177,295.6986 249.095514,295.13932 C245.332851,294.580041 234.623734,294.076689 216.968162,293.629265 L189.616498,292.958129 L183.53835,297.656079 C180.643994,299.669486 178.400868,300.899901 176.808973,301.347325 C175.217077,301.794749 171.526773,301.682893 165.738061,301.011757 C158.212735,300.340622 154.015919,299.389846 153.147612,298.159431 C152.279305,296.929015 148.516643,296.761231 141.859624,297.656079 C135.202605,298.550927 128.690304,299.222062 122.322721,299.669486 C109.008683,300.11691 94.8263386,301.794749 79.7756874,304.703003 C74.8552822,305.821563 71.382055,306.380843 69.3560058,306.380843 C66.7510854,306.380843 61.9030391,307.667186 54.8118669,310.239873 C47.7206946,312.812559 42.2937771,315.441174 38.5311143,318.125717 C35.3473227,320.586548 33.1765557,321.872891 32.0188133,321.984747 C30.8610709,322.096603 29.1244573,321.593251 26.8089725,320.474692 C23.3357453,318.908708 19.211288,317.063085 14.4356006,314.937822 C9.65991317,312.812559 6.69319826,310.631369 5.53545586,308.39425 C4.37771346,306.157131 3.07525326,304.703003 1.62807525,304.031868 C-2.71345876,301.794749 1.62807525,298.439071 14.6526773,293.964833 C28.5455861,289.043171 45.9117221,284.568933 66.7510854,280.542119 L80.2098408,277.857577 L78.4732272,272.152924 C77.894356,268.573533 78.2561505,264.378935 79.5586107,259.56913 C80.8610709,254.759324 81.3675832,241.951819 81.0781476,221.146613 C80.788712,189.155813 81.0781476,169.860662 81.9464544,163.261162 C82.8147612,156.661661 85.5643994,153.36191 90.195369,153.36191 C93.3791606,153.36191 94.9710564,153.753406 94.9710564,154.536398 C94.9710564,155.31939 96.70767,157.165013 100.180897,160.073267 C107.416787,165.889776 109.732272,171.03515 107.127352,175.509388 C106.259045,177.970218 106.331404,183.618944 107.344428,192.455563 C108.357453,201.292183 109.008683,210.128802 109.298119,218.965422 C109.587554,227.802042 110.094067,247.824256 110.817656,252.186638 C111.541245,256.549019 112.192475,249.893591 112.771346,259.065778 L114.073806,272.488491 L121.02026,271.817356 C126.808973,270.922508 130.499276,270.195445 132.091172,269.636165 C133.683068,269.076885 134.479016,267.790542 134.479016,265.777135 C134.479016,263.763728 135.057887,262.085889 136.21563,260.743617 C137.373372,259.401346 139.399421,259.513202 142.293777,261.079185 C148.950796,264.882287 153.147612,264.882287 154.884226,261.079185 C156.041968,259.28949 157.199711,258.059075 158.357453,257.387939 C159.515195,256.716803 160.094067,241.056971 160.094067,183.563016 C160.383502,139.939197 160.890014,127.579115 161.613603,112.925987 C162.337192,98.2728578 163.712012,90.3870137 165.738061,89.2684543 Z" id="æ­¢"></path>
            <path d="M162.382907,0.921294921 C185.013677,-1.53549154 220.120385,0.921294921 267.70303,8.29165429 C290.914076,11.8651619 304.913239,14.2661123 309.700517,15.4945055 C314.487795,16.7228987 318.477194,18.6771607 321.668713,21.3572914 C325.730646,24.9307989 327.471474,28.2251262 326.891198,31.2402732 C326.310922,34.2554203 322.248989,43.6917137 314.705399,59.5491535 C310.933604,66.9195129 309.047706,72.8381348 309.047706,77.3050193 C309.047706,81.7719038 307.451947,85.7920998 304.260428,89.3656074 C301.068909,92.9391149 299.47315,95.3400653 299.47315,96.5684586 C299.47315,97.7968518 297.369649,100.421146 293.162647,104.441342 C288.955644,108.461538 286.852143,111.141669 286.852143,112.481734 C286.852143,113.598456 284.821177,116.278586 280.759244,120.522127 C276.697311,124.765667 272.780446,128.11583 269.008651,130.572617 C262.045338,135.709534 257.040456,138.836353 253.994006,139.953074 C250.947556,141.069795 247.103226,141.293139 242.461017,140.623107 C238.689222,140.399762 235.860376,139.785566 233.974478,138.780517 C232.088581,137.775468 229.98508,136.04455 227.663975,133.587764 C219.249971,125.100683 208.805,119.740422 196.329063,117.50698 C191.106577,116.613603 181.749624,116.166914 168.258203,116.166914 C154.766783,116.166914 143.959139,116.613603 135.835273,117.50698 C130.32265,118.400356 124.955095,119.963766 119.73261,122.197208 C114.510124,124.43065 111.318605,126.664093 110.158053,128.897535 C107.256672,134.704485 100.873634,133.587764 91.0089398,125.547372 C84.625902,120.410454 81.4343832,117.171963 81.4343832,115.831898 C81.4343832,114.491832 80.5639689,112.370062 78.8231405,109.466587 C77.082312,106.563113 75.12388,102.542917 72.9478444,97.4059994 C70.7718088,92.2690823 69.683791,88.8072468 69.683791,87.020493 C69.683791,85.010395 67.6528244,80.7110187 63.5908913,74.1223641 C59.5289582,67.5337095 57.4979916,63.4576775 57.4979916,61.8942679 C57.4979916,60.3308583 56.1198358,58.04158 53.363524,55.026433 C50.6072123,52.011286 49.1565219,46.986041 49.0114528,39.950698 C48.8663838,32.9153549 50.0994706,28.2809623 52.7107133,26.04752 C54.7416799,24.037422 56.7001119,23.032373 58.5860094,23.032373 C60.4719069,23.032373 61.4148557,22.5856846 61.4148557,21.6923077 C61.4148557,21.022275 66.4197376,18.9005049 76.4295013,15.3269973 C86.439265,11.7534898 94.3455277,9.18503119 100.148289,7.62162162 C105.080637,6.5049005 114.945331,5.33234333 129.742373,4.1039501 C144.539415,2.87555688 155.419593,1.81467181 162.382907,0.921294921 Z M198.069891,23.7024057 C183.562987,22.3623404 176.309535,21.7481437 176.309535,21.8598159 C176.309535,21.971488 164.849081,22.8090288 141.928173,24.3724384 C125.100164,25.042471 113.63971,25.8800119 107.54681,26.8850609 C101.453911,27.8901099 95.2159419,29.6210276 88.8329042,32.0778141 C83.9005568,33.8645679 81.9421248,35.5396495 82.9576081,37.1030591 C83.9730914,38.6664687 85.1336437,41.8491238 86.439265,46.6510247 C87.7448864,51.4529255 88.9779732,54.3564004 90.1385256,55.3614494 C91.2990779,56.3664984 91.879354,58.0974161 91.879354,60.5542026 C91.879354,63.010989 94.2729932,68.1479061 99.0602715,75.964954 C103.84755,83.7820018 106.241189,88.025542 106.241189,88.6955747 C106.241189,90.7056727 111.898881,90.4823285 123.214267,88.025542 C130.17758,86.6854767 144.104208,85.1220671 164.99415,83.3353133 C185.884092,81.5485595 199.085374,80.990199 204.597998,81.6602317 C210.110621,82.1069201 217.073935,82.1069201 225.48794,81.6602317 C231.290701,80.990199 235.062496,80.3760024 236.803325,79.8176418 C238.544153,79.2592813 240.139913,77.8633799 241.590603,75.6299376 C244.201846,71.8330858 247.393365,62.6759727 251.16516,48.1585982 C253.196126,41.011583 254.211609,36.6563707 254.211609,35.0929611 C254.211609,33.5295515 253.196126,32.4128304 251.16516,31.7427977 C243.331431,29.5093555 225.633009,26.8292248 198.069891,23.7024057 Z" id="å•"></path>
        </g>
    </g>
</svg>