<?xml version="1.0" encoding="UTF-8"?>
<svg width="1000px" height="1000px" viewBox="0 0 1000 1000" version="1.1" xmlns="http://www.w3.org/2000/svg" xmlns:xlink="http://www.w3.org/1999/xlink">
    <title>x_gui_l</title>
    <g id="x_gui_l" stroke="none" stroke-width="1" fill="none" fill-rule="evenodd">
        <g id="å•-æ­¢-copy" transform="translate(50.000000, 0.000000)" fill="#000000" fill-rule="nonzero">
            <path d="M398.213314,276.834167 C401.6904,275.443889 407.949156,275.791458 416.98958,277.876876 C426.030005,279.962293 433.331886,282.742849 438.895224,286.218545 C445.15398,290.389379 450.717318,292.474796 455.585239,292.474796 C459.757742,292.474796 468.450458,298.557263 481.663386,310.722197 C494.876315,322.887132 501.482779,331.055016 501.482779,335.22585 C502.178196,340.786963 502.178196,372.242007 501.482779,429.590982 C500.787361,486.939957 500.091944,469.387695 499.396527,481.205059 C498.70111,497.193258 500.265798,506.056281 504.090593,507.794129 C507.915388,509.531977 517.477376,507.794129 532.776556,502.580586 C548.075736,497.367043 556.073034,493.022424 556.768452,489.546728 C558.854703,486.071033 575.023155,483.811831 605.273806,482.769122 C635.524457,481.726413 653.779161,482.942907 660.037916,486.418602 C667.687506,489.894298 673.598553,496.671904 677.771056,506.751421 C681.94356,516.830937 683.682103,526.3891 682.986686,535.425908 C680.900434,545.157855 674.29397,556.97522 663.167294,570.878002 C654.822287,580.609949 648.91124,586.518631 645.434153,588.604048 C641.957067,590.689466 637.089146,591.037035 630.830391,589.646757 C622.485384,587.56134 608.924747,589.472972 590.14848,595.381654 C571.372214,601.290337 559.897829,607.025234 555.725326,612.586347 C548.075736,620.928016 535.210516,617.79989 517.129667,603.201969 C505.307574,592.079744 497.657984,586.518631 494.180897,586.518631 C490.008394,586.518631 485.662036,612.412562 481.141823,664.200424 C476.621611,715.988286 473.666088,733.540548 472.275253,800.273901 L472.275253,821.128074 L588.062229,821.128074 C665.948963,819.737795 727.493391,818.695087 772.695514,817.999948 C806.075543,816.609669 828.50275,816.957239 839.977135,819.042656 C851.45152,821.128074 857.188712,824.951339 857.188712,830.512451 C857.188712,834.683286 861.53507,840.939538 870.227786,849.281207 C878.920502,857.622876 884.136131,865.616975 885.874674,873.263505 C887.613218,880.910035 891.090304,893.596324 896.305933,911.32237 C901.521563,929.048417 902.390835,939.301719 898.913748,942.082275 C894.741245,945.55797 881.354462,948.512312 858.753401,950.945298 C836.15234,953.378285 820.331597,953.55207 811.291172,951.466653 C800.859913,947.990957 790.602508,946.25311 780.518958,946.25311 C770.435408,946.25311 761.916546,944.515262 754.962373,941.039566 C745.921949,936.173593 710.803377,930.26491 649.606657,923.31352 C624.571635,920.532963 607.533912,918.273761 598.493488,916.535913 C589.453063,914.798066 563.722624,913.234003 521.302171,911.843725 L455.585239,909.758307 L440.981476,924.356228 C434.027303,930.61248 428.63782,934.435745 424.813025,935.826023 C420.98823,937.216301 412.121659,936.868732 398.213314,934.783315 C380.132465,932.697897 370.048915,929.743556 367.962663,925.920291 C365.876411,922.097026 356.835986,921.575672 340.841389,924.356228 C324.846792,927.136785 309.199904,929.222202 293.900724,930.61248 C261.911529,932.002758 227.836083,937.216301 191.674385,946.25311 C179.852291,949.728805 171.507284,951.466653 166.639363,951.466653 C160.380608,951.466653 148.732369,955.463702 131.694645,963.457802 C114.656922,971.451902 101.617849,979.619786 92.577424,987.961455 C84.9278341,995.607985 79.7122045,999.605035 76.9305355,999.952604 C74.1488664,1000.30017 69.9763628,998.736111 64.4130246,995.260415 C56.0680174,990.394442 46.1583213,984.659544 34.6839363,978.055723 C23.2095514,971.451902 16.0815244,964.674295 13.2998553,957.722905 C10.5181862,950.771514 7.38880849,946.25311 3.91172214,944.167692 C-6.5195369,937.216301 3.91172214,926.789215 35.2054993,912.886433 C68.5855282,897.593373 110.310564,883.690592 160.380608,871.178088 L192.717511,862.836419 L188.545007,845.110372 C187.154173,833.988147 188.023444,820.954289 191.152822,806.008798 C194.2822,791.063308 195.49918,751.266595 194.803763,686.61866 C194.108345,587.21377 194.803763,527.258024 196.890014,506.751421 C198.976266,486.244817 205.58273,475.991516 216.709407,475.991516 C224.358997,475.991516 228.183792,477.208009 228.183792,479.640996 C228.183792,482.073983 232.356295,487.80888 240.701302,496.845689 C258.086734,514.919305 263.650072,530.907504 257.391317,544.810286 C255.305065,552.456816 255.478919,570.009078 257.91288,597.467072 C260.34684,624.925066 261.911529,652.38306 262.606946,679.841054 C263.302364,707.299048 264.519344,769.513996 266.257887,783.069208 C267.99643,796.624421 269.561119,775.944033 270.951954,804.444735 L274.081331,846.153081 L290.771346,844.067663 C304.679691,841.287107 313.546261,839.027905 317.371056,837.290057 C321.195851,835.55221 323.108249,831.55516 323.108249,825.298908 C323.108249,819.042656 324.499083,813.829113 327.280753,809.658279 C330.062422,805.487444 334.930342,805.835014 341.884515,810.700987 C357.879112,822.518352 367.962663,822.518352 372.135166,810.700987 C374.916836,805.139874 377.698505,801.316609 380.480174,799.231192 C383.261843,797.145775 384.652677,748.486039 384.652677,569.835293 C385.348095,434.283171 386.565075,395.876736 388.303618,350.345126 C390.042161,304.813515 393.345393,280.309862 398.213314,276.834167 Z" id="æ­¢"></path>
            <path d="M388.037407,2.86842887 C442.334974,-4.78071478 526.565816,2.86842887 640.729932,25.8158598 C696.419744,36.9418869 730.007663,44.4171864 741.493687,48.2417582 C752.97971,52.0663301 762.551397,58.1508762 770.208746,66.4953965 C779.954463,77.6214236 784.131199,87.8782299 782.738954,97.2658153 C781.346709,106.653401 771.600991,136.033066 753.501802,185.404811 C744.452208,208.352242 739.927411,226.779725 739.927411,240.687259 C739.927411,254.594793 736.098736,267.111573 728.441387,278.2376 C720.784037,289.363627 716.955363,296.838927 716.955363,300.663499 C716.955363,304.48807 711.908474,312.658747 701.814695,325.175527 C691.720917,337.692308 686.674027,346.036828 686.674027,350.209088 C686.674027,353.685972 681.801169,362.030492 672.055451,375.242649 C662.309734,388.454806 652.912078,398.885457 643.862484,406.534601 C627.15554,422.528265 615.147424,432.263538 607.838136,435.740422 C600.528848,439.217305 591.305223,439.912682 580.167261,437.826552 C571.117666,437.131175 564.33047,435.218889 559.805673,432.089694 C555.280876,428.960499 550.233986,423.57133 544.665005,415.922186 C524.477448,389.497871 499.417032,372.808831 469.483758,365.855064 C456.95355,363.073557 434.503594,361.682804 402.133891,361.682804 C369.764187,361.682804 343.833618,363.073557 324.342184,365.855064 C311.115853,368.636571 298.237584,373.504208 285.707376,380.457974 C273.177169,387.411741 265.519819,394.365508 262.735329,401.319275 C255.774102,419.399069 240.459404,415.922186 216.791233,390.888625 C201.476535,374.894961 193.819186,364.811999 193.819186,360.639739 C193.819186,356.467478 191.730818,349.8614 187.554082,340.821503 C183.377346,331.781606 178.678518,319.264825 173.457598,303.271161 C168.236678,287.277497 165.626218,276.499158 165.626218,270.936145 C165.626218,264.677755 160.753359,251.291753 151.007642,230.778141 C141.261925,210.264528 136.389066,197.573904 136.389066,192.706267 C136.389066,187.83863 133.082484,180.711019 126.469318,171.323433 C119.856153,161.935848 116.37554,146.289872 116.027479,124.385506 C115.679417,102.48114 118.637938,88.0520741 124.903042,81.0983071 C129.775901,74.8399168 134.474729,71.7107217 138.999526,71.7107217 C143.524324,71.7107217 145.786722,70.3199683 145.786722,67.5384615 C145.786722,65.4523315 157.794838,58.8462528 181.81107,47.7202257 C205.827301,36.5941986 224.796644,28.5973666 238.719097,23.7297297 C250.553182,20.2528463 274.221353,16.6021186 309.723608,12.7775468 C345.225864,8.95297495 371.330463,5.64993565 388.037407,2.86842887 Z M473.660494,73.7968518 C438.854361,69.6245916 421.451295,67.7123057 421.451295,68.0599941 C421.451295,68.4076824 393.95445,71.015345 338.96076,75.8829819 C298.585646,77.969112 271.088801,80.5767746 256.470225,83.7059697 C241.851649,86.8351648 226.885012,92.2243342 211.570313,99.8734779 C199.736228,105.436491 195.0374,110.651817 197.473829,115.519454 C199.910259,120.38709 202.694749,130.296208 205.827301,145.246807 C208.959853,160.197406 211.918375,169.237303 214.702865,172.366498 C217.487356,175.495693 218.879601,180.884863 218.879601,188.534007 C218.879601,196.18315 224.622613,212.176814 236.108637,236.514999 C247.594661,260.853183 253.337673,274.06534 253.337673,276.15147 C253.337673,282.40986 266.912065,281.714484 294.060848,274.06534 C310.767792,269.89308 344.18168,265.025443 394.302511,259.462429 C444.423342,253.899416 476.096923,252.160974 489.323254,254.247104 C502.549584,255.637858 519.256528,255.637858 539.444085,254.247104 C553.366538,252.160974 562.416133,250.248688 566.592869,248.510247 C570.769605,246.771805 574.598279,242.4257 578.078893,235.471933 C584.343997,223.65053 592.001346,195.140085 601.05094,149.9406 C605.923799,127.688546 608.360228,114.1287 608.360228,109.261063 C608.360228,104.393426 605.923799,100.916543 601.05094,98.8304128 C582.255629,91.8766459 539.792146,83.5321255 473.660494,73.7968518 Z" id="å•"></path>
        </g>
    </g>
</svg>