<svg width="1000" height="1000" viewBox="0 0 1000 1000" fill="none" xmlns="http://www.w3.org/2000/svg">
<path d="M287.584 1.28516C283.157 0.178385 279.007 -1.20508 275.133 -2.86523C270.706 -4.52539 266.832 -7.29232 263.512 -11.166C260.191 -15.0397 253.551 -23.8939 243.59 -37.7285L230.309 -55.1602L218.688 -70.1016C216.474 -72.8685 215.367 -75.082 215.367 -76.7422V-78.4023C215.921 -80.0625 217.581 -80.8926 220.348 -80.8926C222.008 -80.8926 223.668 -80.6159 225.328 -80.0625L241.93 -76.7422C249.677 -75.6354 258.808 -72.8685 269.322 -68.4414C280.39 -65.1211 287.861 -60.4173 291.734 -54.3301C296.161 -48.7962 298.928 -43.5391 300.035 -38.5586L303.355 -21.957L321.617 -55.9902L339.879 -94.1738L358.971 -134.848C363.951 -145.915 366.995 -154.493 368.102 -160.58V-164.73C368.102 -168.604 367.548 -171.371 366.441 -173.031C365.888 -174.138 364.505 -174.691 362.291 -174.691C358.417 -174.691 352.053 -173.585 343.199 -171.371L311.656 -163.9L291.734 -158.92H288.414C285.647 -158.92 282.05 -159.473 277.623 -160.58C272.643 -162.24 267.939 -164.454 263.512 -167.221C260.191 -169.988 258.531 -172.478 258.531 -174.691C258.531 -177.458 260.745 -179.949 265.172 -182.162L285.924 -185.482L309.996 -189.633C322.171 -191.846 333.238 -194.613 343.199 -197.934L373.082 -207.064C380.276 -209.278 386.087 -210.385 390.514 -210.385C396.601 -209.831 404.625 -206.788 414.586 -201.254C425.1 -195.72 432.848 -190.186 437.828 -184.652C443.362 -179.118 446.129 -174.415 446.129 -170.541C445.022 -167.774 442.809 -164.73 439.488 -161.41L424.547 -144.809C419.013 -138.168 414.033 -131.527 409.605 -124.887C405.178 -117.693 397.984 -104.688 388.023 -85.873L363.121 -38.5586C355.374 -25.2773 345.689 -9.78255 334.068 7.92578C322.447 25.0807 309.166 43.0658 294.225 61.8809C279.283 80.1426 265.172 95.084 251.891 106.705C238.609 118.326 223.668 130.224 207.066 142.398C189.358 154.573 176.63 161.767 168.883 163.98L149.791 170.621C147.024 171.728 144.811 172.281 143.15 172.281C140.937 172.281 139.553 171.451 139 169.791V168.131C139 165.917 140.66 163.427 143.98 160.66L158.922 148.209C165.562 143.229 176.354 133.544 191.295 119.156C206.236 104.768 219.794 90.9336 231.969 77.6523C243.59 65.4779 253.274 53.3034 261.021 41.1289L287.584 1.28516ZM527.477 -178.012L549.059 -202.914C555.146 -210.661 560.68 -218.409 565.66 -226.156C570.087 -234.457 573.684 -242.481 576.451 -250.229C579.218 -257.423 581.708 -262.126 583.922 -264.34C585.029 -265.447 586.689 -266 588.902 -266C591.669 -266 594.713 -265.447 598.033 -264.34C603.014 -262.126 609.931 -257.976 618.785 -251.889C627.086 -245.801 632.62 -240.544 635.387 -236.117C637.6 -232.243 638.707 -228.923 638.707 -226.156C637.6 -222.283 632.896 -218.686 624.596 -215.365C616.295 -211.492 605.227 -205.958 591.393 -198.764L560.68 -182.992L535.777 -171.371L561.51 -141.488C570.917 -130.974 575.621 -125.44 575.621 -124.887L593.883 -104.965C604.951 -112.712 613.251 -119.353 618.785 -124.887C624.319 -129.314 631.236 -136.231 639.537 -145.639C647.838 -154.493 653.648 -161.133 656.969 -165.561C659.736 -169.434 663.333 -175.245 667.76 -182.992C672.74 -189.633 676.061 -193.507 677.721 -194.613H679.381C681.041 -194.613 684.085 -193.783 688.512 -192.123C696.259 -188.249 703.453 -183.546 710.094 -178.012C716.734 -172.478 722.268 -166.944 726.695 -161.41C729.462 -156.43 730.846 -152.279 730.846 -148.959V-147.299C729.739 -143.425 722.822 -139.551 710.094 -135.678C696.812 -131.804 685.191 -127.93 675.23 -124.057L633.727 -106.625L602.184 -95.0039L632.066 -60.9707C637.6 -54.8835 650.882 -41.3255 671.91 -20.2969C692.939 0.731771 707.327 14.013 715.074 19.5469C722.822 25.0807 734.719 32.8281 750.768 42.7891C767.369 52.75 781.204 60.4974 792.271 66.0312C802.786 71.5651 817.451 77.3757 836.266 83.4629L862.828 92.5938C867.809 94.8073 870.299 97.2975 870.299 100.064V100.895C870.299 103.661 865.872 105.875 857.018 107.535L836.266 112.516C820.771 115.836 806.383 118.603 793.102 120.816C780.374 123.03 768.476 124.137 757.408 124.137H746.617C734.996 124.137 725.589 122.753 718.395 119.986C708.987 116.113 696.536 103.108 681.041 80.9727L639.537 26.1875C625.149 7.3724 612.145 -11.4427 600.523 -30.2578L564.83 -85.873C557.636 -96.3874 549.059 -108.285 539.098 -121.566C529.137 -134.848 522.219 -143.148 518.346 -146.469C514.472 -150.896 507.555 -157.26 497.594 -165.561C487.633 -174.415 479.885 -179.949 474.352 -182.162C469.371 -184.929 466.327 -187.419 465.221 -189.633C464.667 -190.74 464.391 -191.846 464.391 -192.953C464.391 -194.613 464.667 -195.997 465.221 -197.104C466.881 -200.424 471.031 -202.637 477.672 -203.744H481.822C486.803 -203.744 491.507 -202.914 495.934 -201.254C501.467 -199.04 508.661 -194.613 517.516 -187.973L527.477 -178.012Z" fill="black"/>
</svg>
