<svg width="1000" height="1000" viewBox="0 0 1000 1000" fill="none" xmlns="http://www.w3.org/2000/svg">
<path d="M522.955 116.812C544.083 116.257 681.929 115.425 695.829 114.316C709.729 113.762 843.088 111.266 875.336 106.83C907.028 103.503 1052.66 100.176 1071.56 96.8491C1091.02 94.0765 1105.2 92.6902 1114.1 92.6902C1124.66 93.2447 1134.67 94.9082 1144.12 97.6808C1154.13 100.453 1163.3 104.335 1171.64 109.326C1180.54 114.316 1187.77 119.861 1193.33 125.961C1197.78 130.397 1200 134.556 1200 138.438C1200 139.547 1199.72 140.656 1199.17 141.765C1198.05 146.755 1191.94 149.251 1180.82 149.251H1163.3L1072.4 148.419C1070.17 148.419 927.045 148.696 883.676 149.251L696.663 150.082L522.955 152.578L512.947 1046.86C512.391 1054.07 510.167 1068.21 506.275 1089.28C502.383 1110.35 497.935 1125.88 492.931 1135.86C489.038 1145.29 485.146 1150 481.254 1150H479.586C475.138 1149.45 471.802 1144.45 469.578 1135.03C467.354 1125.6 465.964 1112.85 465.408 1096.77L464.574 1049.36L469.578 156.737C460.682 156.737 447.894 157.568 431.214 159.232C414.534 160.341 305.115 162.282 283.43 165.054C261.746 167.272 92.0902 170.045 75.41 173.372C57.6178 175.59 -68.5126 178.64 -82.4127 182.522C-96.3129 186.403 -105.487 188.344 -109.935 188.344C-113.271 188.899 -116.607 189.176 -119.943 189.176C-126.059 189.176 -131.341 188.344 -135.789 186.68C-142.461 185.017 -151.914 181.413 -164.146 175.867C-175.822 170.877 -183.328 165.886 -186.664 160.896C-188.888 157.014 -190 153.964 -190 151.746V149.251C-188.888 146.478 -186.108 144.815 -181.66 144.26L-161.644 143.428L-123.279 141.765C-110.491 141.765 -97.4249 141.21 -84.0808 140.101C-70.7366 138.992 215.598 136.497 253.406 132.615C291.77 128.734 413.7 125.684 438.72 123.466L469.578 121.802L467.91 86.8678L466.242 58.5875C466.242 57.4785 464.852 51.3788 462.072 40.2885L457.902 26.1484L388.679 30.3073L387.845 36.9615C385.621 45.8337 381.729 50.2698 376.169 50.2698C370.609 50.2698 365.605 47.4972 361.157 41.9521C356.709 36.4069 352.817 24.7621 349.481 7.01764L326.129 -139.374C325.017 -146.583 322.793 -154.069 319.456 -161.832C316.12 -169.041 312.784 -175.418 309.448 -180.963C306.112 -185.399 302.22 -189.281 297.772 -192.608C293.324 -195.935 289.988 -199.262 287.764 -202.589C286.652 -204.253 286.096 -205.639 286.096 -206.748C286.096 -208.966 286.93 -210.907 288.598 -212.57C289.154 -213.679 291.656 -214.511 296.104 -215.066C299.996 -215.62 304.444 -215.897 309.448 -215.897C316.676 -215.897 324.183 -214.788 331.967 -212.57L344.477 -209.243C363.381 -210.352 380.339 -211.738 395.351 -213.402C410.364 -215.066 435.106 -218.115 469.578 -222.552C504.607 -226.988 535.187 -231.146 561.319 -235.028C588.008 -238.91 606.356 -242.514 616.364 -245.841C626.928 -248.614 634.156 -250 638.048 -250C641.384 -249.445 645.276 -248.614 649.724 -247.505C654.172 -246.396 663.346 -241.96 677.247 -234.196C691.147 -226.433 700.877 -220.333 706.437 -215.897C711.997 -212.57 714.777 -208.134 714.777 -202.589C714.777 -200.371 714.221 -198.153 713.109 -195.935L703.101 -180.963C699.765 -175.418 695.873 -166.546 691.425 -154.346L637.214 0.363464C634.434 8.12667 630.542 15.3354 625.538 21.9895C620.534 28.6437 615.252 33.3571 609.692 36.1297C606.912 37.2387 604.41 37.7932 602.186 37.7932C598.85 37.7932 595.792 36.9615 593.012 35.2979C588.008 33.6344 585.228 31.4163 584.672 28.6437L579.668 16.1671C560.207 16.7217 549.087 16.9989 546.307 16.9989L491.263 23.6531C503.495 27.5347 511.557 30.5845 515.449 32.8026C519.897 35.0206 524.623 37.7932 529.627 41.1203C534.075 43.8929 536.855 47.22 537.967 51.1016C538.523 52.2106 538.801 53.3196 538.801 54.4286C538.801 57.7557 537.411 61.6374 534.631 66.0735L529.627 76.8865C526.847 82.9862 525.179 90.4721 524.623 99.3444L522.955 116.812ZM375.335 -99.4492C407.584 -102.776 432.326 -105.826 449.562 -108.599C467.354 -111.371 489.038 -115.253 514.615 -120.244C540.747 -125.234 558.817 -127.729 568.825 -127.729C581.058 -126.62 591.066 -124.68 598.85 -121.907L614.696 -116.085L625.538 -169.318C626.094 -172.645 626.372 -175.695 626.372 -178.468C626.372 -182.904 625.816 -186.785 624.704 -190.112C622.48 -196.212 618.866 -200.648 613.862 -203.421C610.526 -205.639 604.41 -206.748 595.514 -206.748C592.178 -206.748 588.564 -206.471 584.672 -205.916L487.926 -197.598L397.853 -185.954L361.157 -181.795L375.335 -99.4492ZM389.513 1.19524C412.866 -2.13185 437.886 -5.18168 464.574 -7.95425C490.151 -10.1723 509.889 -12.9449 523.789 -16.272C534.909 -17.9355 543.805 -18.7673 550.477 -18.7673H554.647C555.759 -18.2128 562.431 -16.5492 574.663 -13.7767L588.008 -9.6178L611.36 -99.4492L594.68 -94.4586C590.232 -93.3495 581.892 -92.2405 569.659 -91.1315C557.427 -90.0225 541.859 -88.3589 522.955 -86.1409L457.902 -76.1596C440.11 -73.9415 428.156 -72.8325 422.04 -72.8325H419.538L378.671 -77.8231L389.513 1.19524Z" fill="black"/>
</svg>
