<svg width="1000" height="1000" viewBox="0 0 1000 1000" fill="none" xmlns="http://www.w3.org/2000/svg">
<path d="M522.955 119.812C544.083 119.257 681.929 118.425 695.829 117.316C709.729 116.762 843.088 114.266 875.336 109.83C907.028 106.503 1052.66 103.176 1071.56 99.8491C1091.02 97.0765 1105.2 95.6902 1114.1 95.6902C1124.66 96.2447 1134.67 97.9082 1144.12 100.681C1154.13 103.453 1163.3 107.335 1171.64 112.326C1180.54 117.316 1187.77 122.861 1193.33 128.961C1197.78 133.397 1200 137.556 1200 141.438C1200 142.547 1199.72 143.656 1199.17 144.765C1198.05 149.755 1191.94 152.251 1180.82 152.251H1163.3L1072.4 151.419C1070.17 151.419 927.045 151.696 883.676 152.251L696.663 153.082L522.955 155.578L512.947 1049.86C512.391 1057.07 510.167 1071.21 506.275 1092.28C502.383 1113.35 497.935 1128.88 492.931 1138.86C489.038 1148.29 485.146 1153 481.254 1153H479.586C475.138 1152.45 471.802 1147.45 469.578 1138.03C467.354 1128.6 465.964 1115.85 465.408 1099.77L464.574 1052.36L469.578 159.737C460.682 159.737 447.894 160.568 431.214 162.232C414.534 163.341 305.115 165.282 283.43 168.054C261.746 170.272 92.0902 173.045 75.41 176.372C57.6178 178.59 -68.5126 181.64 -82.4127 185.522C-96.3129 189.403 -105.487 191.344 -109.935 191.344C-113.271 191.899 -116.607 192.176 -119.943 192.176C-126.059 192.176 -131.341 191.344 -135.789 189.68C-142.461 188.017 -151.914 184.413 -164.146 178.867C-175.822 173.877 -183.328 168.886 -186.664 163.896C-188.888 160.014 -190 156.964 -190 154.746V152.251C-188.888 149.478 -186.108 147.815 -181.66 147.26L-161.644 146.428L-123.279 144.765C-110.491 144.765 -97.4249 144.21 -84.0808 143.101C-70.7366 141.992 215.598 139.497 253.406 135.615C291.77 131.734 413.7 128.684 438.72 126.466L469.578 124.802L466.242 111.588C466.242 110.478 464.852 104.379 462.072 93.2885L457.902 79.1484L388.679 83.3073L387.845 89.9615C385.621 98.8337 381.729 103.27 376.169 103.27C370.609 103.27 365.605 100.497 361.157 94.9521C356.709 89.4069 352.817 77.7621 349.481 60.0176L346.129 -6.37427C345.017 -13.583 342.793 -21.0689 339.456 -28.8321C336.12 -36.0408 332.784 -42.4177 329.448 -47.9629C326.112 -52.399 322.22 -56.2806 317.772 -59.6077C313.324 -62.9348 309.988 -66.2619 307.764 -69.589C306.652 -71.2525 306.096 -72.6388 306.096 -73.7478C306.096 -75.9659 306.93 -77.9067 308.598 -79.5703C309.154 -80.6793 311.656 -81.5111 316.104 -82.0656C319.996 -82.6201 324.444 -82.8973 329.448 -82.8973C336.676 -82.8973 344.183 -81.7883 351.967 -79.5703L364.477 -76.2432C383.381 -77.3522 400.339 -78.7385 415.351 -80.402C457.151 -85.0339 498.68 -94.8431 540.319 -101.028C567.008 -104.91 585.356 -108.514 595.364 -111.841C605.928 -114.614 613.156 -116 617.048 -116C620.384 -115.445 624.276 -114.614 628.724 -113.505C633.172 -112.396 642.346 -107.96 656.247 -100.196C670.147 -92.4331 679.877 -86.3335 685.437 -81.8973C690.997 -78.5702 693.777 -74.1341 693.777 -68.589C693.777 -66.3709 693.221 -64.1529 692.109 -61.9348L682.101 -46.9629C678.765 -41.4177 674.873 -32.5455 670.425 -20.3462L637.214 53.3635C634.434 61.1267 630.542 68.3354 625.538 74.9895C620.534 81.6437 615.252 86.3571 609.692 89.1297C606.912 90.2387 604.41 90.7932 602.186 90.7932C598.85 90.7932 595.792 89.9615 593.012 88.2979C588.008 86.6344 585.228 84.4163 584.672 81.6437L579.668 69.1671C560.207 69.7217 549.087 69.9989 546.307 69.9989L491.263 76.6531C503.495 80.5347 511.557 83.5845 515.449 85.8026C519.897 88.0206 524.623 90.7932 529.627 94.1203C549 105 523.31 116.094 522.955 119.812ZM385.335 -10.4492C417.584 -13.7763 432.326 -16.8261 449.562 -19.5987C467.354 -22.3713 489.038 -26.2529 514.615 -31.2435C540.747 -36.2341 548.817 -38.7295 558.825 -38.7295C571.058 -37.6204 581.066 -35.6796 588.85 -32.9071L604.696 -27.0847L604.538 -35.3181C605.094 -38.6452 605.372 -41.695 605.372 -44.4676C605.372 -48.9037 604.816 -52.7853 603.704 -56.1124C601.48 -62.2121 597.866 -66.6482 592.862 -69.4207C589.526 -71.6388 583.41 -72.7478 574.514 -72.7478C571.178 -72.7478 567.564 -72.4706 563.672 -71.9161L417.853 -52.9535L381.157 -48.7947L385.335 -10.4492ZM389.513 54.1953C412.866 50.8682 437.886 47.8183 464.574 45.0457C490.151 42.8277 509.889 40.0551 523.789 36.728C534.909 35.0645 543.805 34.2327 550.477 34.2327H554.647C555.759 34.7872 562.431 36.4508 574.663 39.2233L588.008 43.3822L601.36 -10.4492L584.68 -5.45856C580.232 -4.34953 571.892 -3.2405 559.659 -2.13147C547.427 -1.02244 541.859 0.641071 522.955 2.85913L457.902 12.8404C440.11 15.0585 428.156 16.1675 422.04 16.1675H419.538L388.671 11.1769L389.513 54.1953Z" fill="black"/>
<path fill-rule="evenodd" clip-rule="evenodd" d="M391.107 -118.979L378.299 -110.537C373.561 -107.621 370.621 -105.8 369.753 -105.231L367.08 -103.53C365.966 -102.975 364.791 -102.121 363.82 -100.825C362.44 -98.9852 362 -96.9609 362 -95.293C362 -93.6544 362.49 -92.2658 362.841 -91.4632C363.343 -90.0804 364.242 -88.541 365.808 -87.2882C367.795 -85.6989 370.014 -85.2422 371.758 -85.2422C373.322 -85.2422 374.658 -85.6887 375.474 -86.0342L377.498 -86.6414C379.603 -87.0921 382.83 -88.1965 386.503 -89.5324C391.185 -91.2348 397.108 -93.9013 404.177 -97.4314C445.41 -115.788 471.005 -138.447 492.011 -173.74L492.346 -174.302L492.731 -175.285C502.664 -163.164 511.337 -151.841 519.119 -141.68L519.156 -141.632C519.719 -140.897 520.277 -140.168 520.831 -139.446C529.673 -127.907 537.527 -117.733 544.654 -110.036C548.898 -104.575 553.52 -100.173 558.625 -97.3653L558.763 -97.2897L558.903 -97.2196C563.925 -94.7086 569.821 -93.2573 576.333 -92.6061L576.384 -92.601L576.436 -92.5965C581.147 -92.1868 585.773 -91.9805 590.312 -91.9805H594.992L595.277 -92.0008C600.906 -92.4028 606.907 -93.0038 613.277 -93.8001L613.361 -93.8105L625.386 -95.5702C628.225 -95.9413 630.823 -96.9969 633.118 -98.5866C635.891 -100.369 638.156 -103.453 638.156 -107.598V-107.891C638.156 -110.78 636.857 -112.968 635.664 -114.331C634.516 -115.642 633.174 -116.552 632.075 -117.18L631.882 -117.29L631.683 -117.39C629.825 -118.319 627.338 -119.392 624.338 -120.592C621.846 -121.589 617.204 -123.846 610.16 -127.563L610.044 -127.625L609.926 -127.682C602.909 -131.096 595.473 -135.098 587.616 -139.697C557.866 -157.112 529.924 -174.174 509.826 -199.217C520.517 -200.36 528.461 -201.114 533.718 -201.49L557.241 -202.961L569.783 -204.127C571.904 -204.232 573.821 -204.393 575.477 -204.629C577.054 -204.855 578.911 -205.216 580.573 -205.928C583.573 -207.214 586.388 -209.609 587.648 -213.388L588.059 -214.62V-216.211C588.059 -220.022 585.878 -222.726 584.63 -224.048C583.172 -225.591 581.328 -226.969 579.424 -228.201L579.258 -228.309L579.086 -228.408C574.957 -230.799 570.692 -232.77 566.295 -234.309C562.38 -235.679 558.405 -236.809 555.156 -236.809C552.236 -236.809 548.177 -235.944 543.762 -234.792C539.624 -233.712 534.963 -232.793 529.76 -232.048L506.504 -229.041L506.513 -229.082C506.965 -231.13 507.548 -233.617 508.056 -235.783C508.497 -237.665 508.881 -239.305 509.072 -240.199C509.552 -242.439 510.29 -244.838 511.315 -247.4L511.37 -247.539L511.421 -247.68C512.439 -250.53 513.352 -253.687 513.352 -256.523C513.352 -257.953 513.057 -259.275 512.584 -260.452C511.168 -264.758 507.479 -267.617 504.697 -269.405C501.595 -271.399 498.478 -272.999 495.368 -274.046C492.425 -275.093 489.558 -275.884 486.784 -276.37L481.989 -277.568L481.581 -277.627C479.903 -277.866 478.251 -278 476.641 -278C474.734 -278 472.174 -277.809 469.788 -276.686C467.329 -275.596 464.481 -273.593 463.06 -270.041L462.488 -268.611V-266.191C462.488 -263.336 463.678 -260.386 464.633 -258.275L468.016 -250.383C468.819 -248.11 469.559 -245.657 470.232 -243.018C470.327 -242.163 470.398 -240.84 470.398 -238.945C470.398 -236.078 470.043 -233.073 469.51 -229.514C469.381 -228.652 469.239 -227.744 469.091 -226.798L469.091 -226.796C468.941 -225.838 468.785 -224.842 468.631 -223.817L457.025 -222.076C451.6 -221.301 443.735 -220.233 433.411 -218.869L433.406 -218.869L413.291 -216.245L402.097 -215.035L401.663 -214.938C400.363 -214.649 398.869 -214.197 397.444 -213.42C396.029 -212.648 394.186 -211.28 393.02 -208.949L392.176 -207.26V-204.785C392.176 -201.883 393.533 -199.732 394.292 -198.688C395.159 -197.495 396.214 -196.453 397.211 -195.577C400.039 -193.045 403.798 -190.896 408.026 -188.994L408.043 -188.986L408.06 -188.979C411.797 -187.318 415.808 -185.945 419.512 -185.945H420.098C422.109 -185.945 424.705 -186.46 427.17 -187.029L427.371 -187.075L427.569 -187.132C430.067 -187.846 432.309 -188.358 434.303 -188.691L434.322 -188.694L444.613 -190.458L462.011 -193.528C460.589 -189.34 458.682 -184.236 456.274 -178.193C441.823 -154.541 420.389 -138.012 391.128 -118.993L391.107 -118.979ZM624.794 -111.749C624.71 -111.785 624.625 -111.821 624.54 -111.858C624.532 -111.861 624.525 -111.864 624.517 -111.868C624.611 -111.828 624.703 -111.788 624.794 -111.749ZM624.311 -111.955L624.313 -111.954Z" fill="black"/>
</svg>
