<svg width="1000" height="1000" viewBox="0 0 1000 1000" fill="none" xmlns="http://www.w3.org/2000/svg">
<path fill-rule="evenodd" clip-rule="evenodd" d="M417.145 -255.197C415.716 -256.265 414.427 -257.333 413.37 -258.39L413.057 -258.703L412.78 -259.049C412.175 -259.806 411.523 -260.729 410.993 -261.788C410.492 -262.789 409.855 -264.397 409.855 -266.391V-267.982L410.266 -269.213C411.204 -272.027 413.254 -273.573 414.224 -274.219C415.377 -274.988 416.618 -275.533 417.683 -275.932C419.717 -276.695 421.9 -277.291 424.197 -277.751L424.414 -277.794L451.227 -281.667L451.468 -281.687L451.485 -281.689L451.535 -281.694C451.579 -281.699 451.639 -281.705 451.717 -281.715C451.874 -281.734 452.078 -281.761 452.337 -281.797C452.856 -281.87 453.535 -281.973 454.387 -282.109C456.088 -282.381 458.388 -282.77 461.301 -283.28C467.12 -284.298 475.29 -285.781 485.823 -287.732L485.832 -287.733L518.661 -293.889L518.695 -293.895C523.984 -294.839 528.627 -295.864 532.645 -296.96L532.688 -296.972L532.731 -296.983C537.146 -298.135 541.205 -299 544.125 -299H544.694L545.256 -298.92C547.596 -298.585 550.018 -297.723 552.33 -296.695C555.104 -295.739 557.815 -294.473 560.461 -292.93C562.976 -291.462 565.206 -290.023 567.089 -288.611L567.355 -288.411L567.604 -288.19C569.593 -286.422 572.435 -283.476 573.11 -279.425L573.219 -278.771V-276.938C573.219 -275.647 573.029 -274.043 572.318 -272.402C570.617 -268.132 566.63 -266.835 564.737 -266.456C563.181 -266.145 558.528 -265.715 551.825 -265.157L551.821 -265.157L510.219 -261.641C508.294 -261.48 500.528 -260.291 486.26 -257.914L486.185 -257.901L466.391 -254.99L459.152 -253.542C458.711 -251.917 457.973 -250.541 457.323 -249.511C457.003 -248.885 456.682 -248.287 456.363 -247.74L454.8 -232.886L452.086 -213.887C455.315 -214.148 457.88 -214.38 459.791 -214.581C463.288 -214.949 468.688 -215.704 476.08 -216.871L476.111 -216.876L476.141 -216.88C483.924 -218.048 489.628 -219.001 493.337 -219.743L493.406 -219.757L493.475 -219.769C497.497 -220.501 502.355 -221.617 508.079 -223.144L508.201 -223.176L508.323 -223.205C514.162 -224.567 518.299 -225.605 520.833 -226.329L521.032 -226.386L521.232 -226.432C523.322 -226.914 524.422 -227.293 524.865 -227.48C526.173 -228.234 527.737 -228.995 529.45 -229.756C531.096 -230.487 533.201 -231.289 535.432 -231.539C536.439 -231.78 537.485 -231.91 538.559 -231.91C540.542 -231.91 542.441 -231.526 544.19 -230.954C546.48 -230.26 549.624 -229.095 553.482 -227.553C557.937 -225.851 561.985 -223.778 564.986 -221.084C567.836 -218.544 570.289 -214.876 570.289 -210.141V-209.555C570.289 -205.267 567.768 -202.03 565.907 -200.106L560.91 -193.999C560.9 -193.985 560.881 -193.96 560.853 -193.921C560.827 -193.885 560.796 -193.841 560.76 -193.789C560.728 -193.742 560.691 -193.688 560.651 -193.627C560.477 -193.366 560.254 -193.016 559.98 -192.561C559.428 -191.649 558.733 -190.431 557.886 -188.878C556.199 -185.785 554.009 -181.55 551.304 -176.141L542.39 -157.72L531.633 -139.567C539.106 -133.875 546.917 -130.087 555.445 -126.706C558.985 -125.302 562.869 -123.898 566.961 -122.419C574.305 -119.764 582.317 -116.868 590.205 -113.3C592.119 -113.82 593.838 -114.334 595.364 -114.841C605.928 -117.614 613.156 -119 617.048 -119C620.384 -118.445 624.276 -117.614 628.724 -116.505C633.172 -115.396 642.346 -110.96 656.247 -103.196C670.147 -95.4331 679.877 -89.3335 685.437 -84.8973C690.997 -81.5703 693.777 -77.1341 693.777 -71.589C693.777 -69.3709 693.221 -67.1529 692.109 -64.9348L682.101 -49.9629C678.765 -44.4178 674.873 -35.5455 670.425 -23.3462L637.214 50.3635C634.434 58.1267 630.542 65.3354 625.538 71.9895C620.534 78.6437 615.252 83.3571 609.692 86.1297C606.912 87.2387 604.41 87.7932 602.186 87.7932C598.85 87.7932 595.792 86.9615 593.012 85.2979C588.008 83.6344 585.228 81.4163 584.672 78.6437L579.668 66.1671C560.207 66.7216 549.087 66.9989 546.307 66.9989L491.263 73.6531C503.495 77.5347 511.557 80.5845 515.449 82.8026C519.897 85.0206 524.623 87.7932 529.627 91.1203C543.868 99.1178 533.759 107.231 527.262 112.445C524.921 114.324 523.049 115.827 522.955 116.812C530.813 116.605 554.816 116.361 582.582 116.078C629.473 115.6 687.099 115.013 695.829 114.316C698.498 114.21 705.57 114.032 715.485 113.782C757.211 112.732 849.279 110.415 875.336 106.83C890.34 105.255 930.882 103.68 971.424 102.105C1016.52 100.353 1061.61 98.601 1071.56 96.8491C1091.02 94.0765 1105.2 92.6902 1114.1 92.6902C1124.66 93.2447 1134.67 94.9082 1144.12 97.6808C1154.13 100.453 1163.3 104.335 1171.64 109.326C1180.54 114.316 1187.77 119.861 1193.33 125.961C1197.78 130.397 1200 134.556 1200 138.438C1200 139.547 1199.72 140.656 1199.17 141.765C1198.05 146.755 1191.94 149.251 1180.82 149.251H1163.3L1072.4 148.419C1070.17 148.419 927.045 148.696 883.676 149.251L696.663 150.082L522.955 152.578L512.947 1046.86C512.391 1054.07 510.167 1068.21 506.275 1089.28C502.383 1110.35 497.935 1125.88 492.931 1135.86C489.039 1145.29 485.146 1150 481.254 1150H479.586C475.138 1149.45 471.802 1144.45 469.578 1135.03C467.354 1125.6 465.964 1112.85 465.408 1096.77L464.574 1049.36L469.578 156.737C460.682 156.737 447.894 157.568 431.214 159.232C425.347 159.622 408.005 160.115 387.043 160.711C348.412 161.809 297.487 163.257 283.43 165.054C274.152 166.003 237.78 167.054 197.893 168.206C144.565 169.747 84.9528 171.469 75.41 173.372C68.2804 174.261 43.7549 175.283 16.0254 176.439C-25.4454 178.168 -74.0826 180.195 -82.4127 182.522C-96.3129 186.403 -105.487 188.344 -109.935 188.344C-113.271 188.898 -116.607 189.176 -119.943 189.176C-126.059 189.176 -131.341 188.344 -135.789 186.68C-142.461 185.017 -151.914 181.413 -164.146 175.867C-175.822 170.877 -183.328 165.886 -186.664 160.896C-188.888 157.014 -190 153.964 -190 151.746V149.251C-188.888 146.478 -186.108 144.815 -181.66 144.26L-161.644 143.428L-123.279 141.765C-110.491 141.765 -97.4249 141.21 -84.0808 140.101C-79.4936 139.72 -42.6469 139.175 5.27405 138.466C96.7554 137.113 228.595 135.163 253.406 132.615C275.691 130.36 326.174 128.386 369.48 126.693C400.725 125.471 428.234 124.395 438.72 123.466L469.578 121.802L466.242 108.588C466.242 107.478 464.852 101.379 462.072 90.2885L457.902 76.1484L388.679 80.3073L387.845 86.9615C385.621 95.8337 381.729 100.27 376.169 100.27C370.609 100.27 365.605 97.4972 361.157 91.9521C356.709 86.407 352.817 74.7621 349.481 57.0176L346.129 -9.37427C345.017 -16.583 342.793 -24.0689 339.456 -31.8322C336.12 -39.0408 332.784 -45.4178 329.448 -50.9629C326.112 -55.399 322.22 -59.2806 317.772 -62.6077C313.324 -65.9348 309.988 -69.2619 307.764 -72.589C306.652 -74.2525 306.096 -75.6388 306.096 -76.7478C306.096 -78.9659 306.93 -80.9067 308.598 -82.5703C309.154 -83.6793 311.656 -84.511 316.104 -85.0656C319.996 -85.6201 324.444 -85.8973 329.448 -85.8973C336.676 -85.8973 344.183 -84.7883 351.967 -82.5703L358.285 -80.8898C358.699 -82.5493 359.467 -83.8069 359.93 -84.5001C360.689 -85.6394 361.621 -86.6924 362.544 -87.6264L365.482 -90.8582L365.617 -90.9928C368.781 -94.1576 372.237 -98.231 375.978 -103.281C379.696 -108.301 383.245 -113.714 386.621 -119.529C390.007 -125.361 393.42 -131.898 396.856 -139.151C400.285 -146.39 403.113 -153.091 405.357 -159.261C407.605 -165.444 409.882 -172.738 412.182 -181.168C414.407 -189.518 416.294 -199.278 417.818 -210.485L419.566 -228.247L419.57 -228.286C420.328 -235.296 420.673 -239.916 420.694 -242.425C420.332 -247.952 419.177 -251.667 417.734 -254.072L417.576 -254.335L417.145 -255.197ZM387.341 -80.7931C392.49 -81.1935 397.465 -81.6186 402.268 -82.0684C402.552 -83.1815 403.042 -84.3075 403.802 -85.3716C405.135 -87.2386 406.887 -88.3343 408.439 -88.9552L413.111 -90.8239L424.469 -94.4106L424.498 -94.4197C431.008 -96.5344 439.064 -100.252 448.741 -105.754C458.764 -111.536 466.522 -116.369 472.102 -120.271C477.52 -124.198 480.954 -127.319 482.838 -129.638L482.965 -129.795L489.133 -136.648L474.366 -155.337L474.334 -155.386C474.307 -155.418 474.269 -155.463 474.22 -155.521C474.189 -155.558 474.152 -155.6 474.111 -155.648L474.06 -155.707C473.724 -156.095 473.231 -156.651 472.563 -157.391C471.233 -158.863 469.309 -160.956 466.778 -163.681L455.391 -175.945C451.461 -180.056 448.98 -181.778 447.81 -182.28L447.389 -182.46L445.907 -183.307L442.291 -168.842L442.263 -168.742C440.223 -161.398 437.681 -153.98 434.644 -146.49C431.572 -138.911 427.804 -131.18 423.358 -123.3L423.336 -123.261L423.314 -123.222C418.856 -115.523 414.156 -108.56 409.201 -102.361C404.244 -95.964 399.085 -90.4689 393.704 -85.9486C391.471 -84.0724 389.349 -82.3516 387.341 -80.7931ZM488.027 -94.9956C488.362 -95.0573 488.696 -95.1191 489.031 -95.1808C498.959 -97.0124 508.883 -98.8435 518.811 -100.555C515.972 -103.712 513.249 -106.918 510.56 -110.082L510.081 -110.646C509.844 -110.925 509.608 -111.203 509.372 -111.48L502.795 -105.668L502.749 -105.629C498.614 -102.085 493.688 -98.5441 488.027 -94.9956ZM554.475 -73.7201L417.853 -55.9535L381.157 -51.7947L385.335 -13.4492C410.921 -16.0889 425.487 -18.554 439.021 -20.8446C442.546 -21.4412 446.001 -22.0258 449.562 -22.5987C467.354 -25.3713 489.038 -29.2529 514.615 -34.2435C522.261 -35.7038 528.361 -36.9505 533.416 -37.9835C545.636 -40.4808 551.746 -41.7295 558.825 -41.7295C571.057 -40.6204 581.066 -38.6796 588.85 -35.907L604.696 -30.0847L604.538 -38.3181C605.094 -41.6452 605.372 -44.695 605.372 -47.4676C605.372 -51.9037 604.816 -55.7853 603.704 -59.1124C601.807 -64.3167 598.897 -68.3099 594.976 -71.0922C586.435 -70.4121 580.354 -70.0508 576.938 -70.0508H575.18C567.732 -70.0508 560.788 -71.2192 554.475 -73.7201ZM478.636 -188.376C482.633 -184.831 485.78 -181.93 488.017 -179.71C490.797 -177.332 497.184 -171.118 506.843 -161.471C507.517 -162.756 508.185 -164.059 508.845 -165.378C510.98 -169.65 513.584 -175.935 516.657 -184.38C518.976 -191.189 520.196 -195.635 520.673 -198.147C519.881 -197.949 518.919 -197.743 518.026 -197.554C516.38 -197.205 514.092 -196.737 511.178 -196.154L498.926 -193.529C496.456 -193 491.788 -191.792 484.743 -189.835L484.643 -189.807L484.542 -189.782C482.366 -189.238 480.394 -188.768 478.636 -188.376ZM412.398 -86.312C412.398 -86.312 412.433 -86.3123 412.494 -86.3057C412.427 -86.3074 412.398 -86.312 412.398 -86.312ZM464.574 42.0457C437.886 44.8183 412.866 47.8682 389.513 51.1953L388.671 8.17688L419.538 13.1675H422.04C428.156 13.1675 440.11 12.0585 457.902 9.84039L522.955 -0.140869C532.231 -1.22925 538.296 -2.18411 543.513 -3.00546C548.928 -3.85797 553.43 -4.56665 559.659 -5.13147C571.892 -6.24051 580.232 -7.34955 584.68 -8.45856L601.36 -13.4492L588.008 40.3822L574.663 36.2233C562.431 33.4507 555.759 31.7872 554.647 31.2327H550.477C543.805 31.2327 534.909 32.0645 523.789 33.728C509.889 37.0551 490.151 39.8277 464.574 42.0457Z" fill="black"/>
</svg>
