<svg width="1000" height="1000" viewBox="0 0 1000 1000" fill="none" xmlns="http://www.w3.org/2000/svg">
<path d="M497.525 989.629C497.525 990.736 498.079 1003.19 499.186 1026.98L500.846 1066C501.399 1080.38 501.676 1089.24 501.676 1092.56C501.122 1099.2 499.462 1106.39 496.695 1114.14C493.928 1121.89 490.885 1128.53 487.564 1134.06C484.244 1139.6 481.477 1143.47 479.264 1145.68C475.943 1148.45 473.176 1149.83 470.963 1149.83H470.133C467.919 1149.83 465.429 1147.62 462.662 1143.19C459.342 1139.32 456.021 1134.06 452.701 1127.42L445.23 1110.82C443.57 1107.5 441.91 1102.24 440.25 1095.05C438.59 1088.41 437.76 1083.15 437.76 1079.28C437.76 1075.96 439.42 1069.87 442.74 1061.02C445.507 1051.61 447.721 1042.48 449.381 1033.62C450.488 1024.22 451.594 1012.32 452.701 997.93C453.808 983.542 454.915 971.644 456.021 962.236C457.342 918.661 459.691 185.407 455.191 141.914C435.823 144.128 423.925 145.234 419.498 145.234L397.916 146.895L394.596 153.535C392.936 159.069 390.169 162.389 386.295 163.496H384.635C381.314 163.496 378.271 161.283 375.504 156.855C371.63 152.428 368.587 141.361 366.373 123.652L356.412 67.207C355.305 61.6732 353.645 55.0326 351.432 47.2852C349.218 38.9844 345.898 32.3438 341.471 27.3633C336.49 22.3828 334 18.7858 334 16.5723V15.7422C334 12.9753 335.383 10.485 338.15 8.27148H339.811C342.024 8.27148 347.558 9.10156 356.412 10.7617L387.125 18.2324C416.454 13.252 436.1 10.2083 446.061 9.10156L470.133 5.78125L470.963 -61.4551L437.76 -56.4746C416.731 -53.1543 404.557 -51.4941 401.236 -51.4941L380.484 -54.8145C369.97 -57.028 362.499 -60.0716 358.072 -63.9453C354.199 -67.819 352.262 -70.8626 352.262 -73.0762V-73.9062C352.815 -75.5664 356.965 -76.9499 364.713 -78.0566C372.46 -79.7168 379.931 -81.1003 387.125 -82.207L470.963 -92.168L470.133 -140.312C469.579 -153.594 467.643 -166.045 464.322 -177.666L455.191 -201.738C453.531 -205.612 452.701 -208.656 452.701 -210.869C452.701 -213.083 453.255 -214.743 454.361 -215.85C455.468 -218.617 459.065 -220 465.152 -220C469.579 -220 477.05 -217.786 487.564 -213.359C498.079 -208.932 506.656 -204.229 513.297 -199.248C519.938 -194.821 524.088 -190.671 525.748 -186.797C527.962 -182.37 529.068 -179.049 529.068 -176.836C529.068 -174.622 527.962 -169.089 525.748 -160.234C522.981 -151.38 521.044 -141.973 519.938 -132.012L515.787 -102.129L550.65 -108.77C556.738 -109.323 563.932 -110.983 572.232 -113.75C579.98 -115.964 586.067 -117.347 590.494 -117.9C593.814 -117.9 598.795 -117.07 605.436 -115.41C612.63 -113.197 619.824 -110.43 627.018 -107.109C634.765 -103.789 638.639 -100.745 638.639 -97.9785C638.639 -95.2116 636.425 -92.168 631.998 -88.8477C628.678 -86.6341 622.867 -84.6973 614.566 -83.0371L593.814 -78.8867L514.127 -64.7754L509.146 -0.859375L567.252 -10.8203C572.786 -11.3737 579.703 -13.0339 588.004 -15.8008C596.305 -18.0143 602.392 -19.3978 606.266 -19.9512C611.246 -19.9512 617.61 -18.5677 625.357 -15.8008C633.105 -13.0339 641.406 -8.60677 650.26 -2.51953C659.667 3.01432 666.308 8.27148 670.182 13.252C673.502 18.2324 675.162 21.8294 675.162 24.043C675.162 27.3633 673.225 31.237 669.352 35.6641L650.26 52.2656C642.512 58.9062 636.148 66.9303 631.168 76.3379L618.717 98.75C626.464 103.177 631.445 106.497 633.658 108.711C636.425 110.924 638.085 113.138 638.639 115.352C639.192 115.905 639.469 116.458 639.469 117.012C639.469 118.118 639.192 119.225 638.639 120.332C637.532 123.099 633.382 124.759 626.188 125.312L598.795 126.143L500.846 137.764C500.846 192.752 498.582 934.66 497.525 989.629ZM465.982 107.881L469.303 24.043C454.915 27.3633 444.677 29.8535 438.59 31.5137L409.537 40.6445L394.596 44.7949L399.576 115.352C406.77 115.352 415.071 114.798 424.479 113.691C433.333 113.138 439.42 112.585 442.74 112.031L465.982 107.881ZM503.336 103.73L543.18 95.4297C553.694 93.2161 560.611 91.8327 563.932 91.2793L577.213 90.4492L588.834 46.4551C590.494 39.2611 591.324 33.7272 591.324 29.8535C591.324 28.1934 591.048 26.8099 590.494 25.7031C589.387 21.276 587.451 18.2324 584.684 16.5723C581.363 14.3587 576.106 12.9753 568.912 12.4219C553.417 12.4219 544.286 12.9753 541.52 14.082L509.146 19.0625L503.336 103.73Z" fill="black"/>
</svg>
