<svg width="1000" height="1000" viewBox="0 0 1000 1000" fill="none" xmlns="http://www.w3.org/2000/svg">
<path d="M497.042 -96.7155L450.454 -92.6134L423.986 -89.9666L423.933 -89.9606C415.573 -89.0106 406.305 -88.3397 396.116 -87.9552L396.041 -87.9524L395.966 -87.9482C390.78 -87.6546 386.717 -87.4085 383.792 -87.2102C381.456 -87.0518 379.472 -86.9028 378.292 -86.7494L366.296 -85.8924L366.276 -85.8911C364.631 -85.7808 363.014 -85.5995 361.577 -85.2802C360.588 -85.0603 357.953 -84.4498 355.898 -82.3951C354.409 -80.9065 353.823 -79.2364 353.574 -78.2391C353.312 -77.1934 353.262 -76.2455 353.262 -75.5664C353.262 -74.1342 353.494 -72.7729 353.794 -71.5753L353.826 -71.446L353.862 -71.3179C354.692 -68.4152 356.675 -66.3824 357.961 -65.2255C359.448 -63.8875 361.272 -62.6198 363.242 -61.4159L363.3 -61.3808L363.358 -61.3467C367.011 -59.1977 371.03 -57.1934 375.396 -55.3226L375.586 -55.2408L375.781 -55.169C379.94 -53.637 384.064 -52.625 387.922 -52.625H388.801C390.55 -52.625 392.296 -52.7501 394.034 -52.9984C395.778 -53.2476 400.33 -54.2111 407.152 -55.7266C413.85 -57.0652 421.133 -58.4072 429.004 -59.752C437.021 -60.895 446.225 -61.9498 456.628 -62.913C467.1 -63.8826 478.164 -64.7562 489.821 -65.5333L489.877 -65.537L489.932 -65.5415C501.965 -66.5119 511.815 -67.1875 519.505 -67.5731L563.25 -69.0312H577.436C582.231 -68.6396 587.833 -68.3496 594.223 -68.156C600.689 -67.9601 604.881 -67.7693 606.984 -67.594L607.316 -67.5664H610.285C612.203 -67.5664 614.172 -67.7103 616.02 -68.1502C617.785 -68.5703 620.146 -69.4258 622.094 -71.3744C624.283 -73.563 625.902 -76.5847 625.902 -80.2539V-81.4084L625.822 -81.9712C625.442 -84.6324 624.113 -86.722 623.045 -88.0951C621.899 -89.5684 620.475 -90.9453 618.968 -92.2204C616.219 -94.5469 613.356 -96.6739 610.379 -98.5974C607.233 -100.828 603.873 -102.723 600.308 -104.282L600.112 -104.368L599.911 -104.444C596.286 -105.803 592.7 -106.713 589.219 -106.98L588.913 -107.004H588.605C586.46 -107.004 583.49 -106.587 580.184 -106.003L580.142 -105.996L580.1 -105.988C577.165 -105.438 572.348 -104.679 565.554 -103.708L547.445 -101.372L547.434 -101.37C543.122 -100.808 536.641 -100.138 527.92 -99.3626C519.25 -98.7703 508.953 -97.8868 497.042 -96.7155Z" fill="black"/>
<path d="M538.508 -254.367C534.918 -254.367 530.095 -253.066 524.936 -251.35C520.224 -249.905 514.604 -248.517 508.043 -247.202C501.263 -246.04 496.614 -245.283 494.017 -244.912L493.885 -244.893L465.686 -239.899L465.684 -239.899C465.668 -239.897 465.645 -239.893 465.615 -239.889C465.555 -239.88 465.475 -239.869 465.373 -239.855C465.167 -239.828 464.899 -239.795 464.561 -239.755C463.886 -239.674 462.988 -239.575 461.856 -239.454C459.595 -239.214 456.472 -238.899 452.477 -238.509L452.309 -238.493L435.636 -236.153L423.292 -235.03C419.225 -235.013 415.498 -234.701 412.349 -233.913C410.81 -233.529 409.015 -232.943 407.386 -231.94C405.799 -230.964 403.347 -228.933 402.636 -225.378L402.48 -224.601V-223.516C402.48 -219.935 404.178 -217.182 405.904 -215.327C408.559 -212.075 412.421 -210.261 416.004 -209.142C420.155 -207.844 425.493 -207.228 431.601 -207.024L431.734 -207.02H434.504C436.678 -207.02 439.283 -207.126 442.275 -207.325C446.626 -207.523 451.735 -207.819 457.595 -208.209L457.727 -208.218L457.859 -208.231C463.839 -208.829 471.158 -209.72 479.794 -210.898L479.823 -210.901L515.948 -215.563C520.544 -215.988 525.823 -216.808 531.746 -217.989C537.561 -218.959 542.073 -219.743 545.256 -220.34L545.49 -220.384L554.682 -222.682C556.233 -222.906 557.824 -223.228 559.261 -223.735C560.242 -224.082 563.026 -225.117 564.8 -227.864C565.186 -228.404 565.596 -229.042 565.951 -229.752C566.18 -230.21 566.529 -230.973 566.764 -231.959C567.247 -233.495 567.309 -234.916 567.309 -235.82V-236.805L567.07 -237.761C566.486 -240.094 565.126 -242.202 564.061 -243.693L563.855 -243.981L563.625 -244.249C561.021 -247.287 557.076 -249.125 553.475 -250.395L553.452 -250.404L545.478 -253.164L545.136 -253.249C543.268 -253.716 541.389 -254.069 539.5 -254.305L539.006 -254.367H538.508Z" fill="black"/>
<path fill-rule="evenodd" clip-rule="evenodd" d="M492.883 -137.35L528.316 -141.78L537.493 -143.5C540.259 -143.712 542.775 -144.033 544.959 -144.505C546.965 -144.939 549.255 -145.614 551.265 -146.834C552.345 -147.403 553.602 -148.195 554.712 -149.304C555.974 -150.567 557.641 -152.872 557.641 -156.133C557.641 -158.698 556.516 -160.663 556.061 -161.421C555.484 -162.383 554.784 -163.292 554.097 -164.104C552.709 -165.869 550.914 -167.231 549.279 -168.282C547.478 -169.44 545.348 -170.547 542.99 -171.619C538.726 -173.557 534.174 -175.266 530.305 -175.266C527.402 -175.266 524.235 -174.704 520.982 -173.84L514.065 -172.111C511.063 -171.408 506.452 -170.571 500.102 -169.609L500.089 -169.607L479.366 -166.396C472.035 -165.432 464.316 -164.467 456.21 -163.502C448.13 -162.732 442.415 -162.142 439.157 -161.737L427.732 -160.534L427.369 -160.462C426.238 -160.236 425.095 -159.964 424.064 -159.621L424.054 -159.617C423.481 -159.426 421.91 -158.903 420.442 -157.711C418.42 -156.143 417.513 -154.094 417.1 -152.719C416.644 -151.2 416.543 -149.708 416.543 -148.516V-147.947L416.623 -147.384C417.264 -142.899 420.74 -140.528 422.214 -139.631C424.133 -138.463 426.465 -137.551 428.856 -136.791L429.015 -136.74L429.176 -136.696C433.63 -135.481 437.911 -134.461 442.017 -133.64L442.512 -133.541L443.016 -133.505C445.952 -133.295 448.975 -133.191 452.082 -133.191H456.839L457.201 -133.224C459.496 -133.433 464.702 -134.035 472.657 -135.005L472.679 -135.008L492.883 -137.35ZM430.32 -144.732C430.199 -144.773 430.079 -144.815 429.961 -144.857C430.077 -144.816 430.195 -144.775 430.315 -144.734L430.32 -144.732ZM430.493 -153.325C430.491 -153.326 430.49 -153.327 430.489 -153.327C430.489 -153.327 430.492 -153.325 430.499 -153.32C430.502 -153.318 430.506 -153.316 430.511 -153.313C430.503 -153.318 430.497 -153.322 430.493 -153.325Z" fill="black"/>
<path fill-rule="evenodd" clip-rule="evenodd" d="M445.079 113.892C445.079 112.862 444.874 111.576 444.115 110.412C443.077 107.786 441.257 105.661 438.872 104.026L434.778 100.614L439.336 81.4702L446.501 49.7407C448.815 41.1656 451.568 34.4402 454.68 29.4382C456.567 26.6911 458.044 24.3698 459.068 22.5087C459.583 21.5724 460.022 20.6814 460.343 19.8647C460.629 19.1371 460.973 18.1003 460.973 16.9922C460.973 12.1392 458.528 7.76379 454.674 3.90985C451.072 0.307739 447.4 -2.64462 443.65 -4.89482L443.518 -4.97385L443.381 -5.04256C439.148 -7.15912 434.258 -9.25351 428.727 -11.3303C423.928 -13.381 419.721 -14.6934 416.47 -14.6934H415.444C414.02 -14.6934 412.388 -14.2185 410.909 -13.6963C409.308 -13.1315 407.37 -12.3171 405.123 -11.2816C401.354 -9.71979 395.67 -8.08069 387.934 -6.39894L387.867 -6.38422L355.573 1.81741C346.245 3.81479 332.657 6.4697 314.786 9.78439L304.714 6.12177C303.601 5.60638 302.186 5.2146 300.699 4.88431C299.069 4.522 297.06 4.17279 294.699 3.83224C293.196 3.46884 291.732 3.25098 290.347 3.25098C287.712 3.25098 284.881 3.75812 282.775 5.60184C280.31 7.2175 278.656 9.68582 278.656 12.8906V13.4033C278.656 16.7997 280.679 19.5048 283.095 21.5391L288.923 26.8815C290.872 29.4655 292.669 33.0273 294.231 37.704C295.881 42.9917 297.017 47.717 297.664 51.8936L304.32 105.657L304.321 105.662C305.696 117.01 307.263 125.956 309.051 132.394L309.059 132.423L309.068 132.452C310.819 138.407 313.437 143.495 317.781 145.668C319.192 146.373 320.415 146.941 321.417 147.342C321.917 147.542 322.417 147.723 322.893 147.859C323.309 147.977 323.967 148.141 324.697 148.141H325.028L325.355 148.086C329.397 147.413 331.913 144.162 333.479 140.638L333.51 140.569L333.538 140.499C334.591 137.866 335.449 135.07 336.117 132.116L341.907 132.76H342.129C344.007 132.76 348.167 132.28 354.215 131.44C360.405 130.58 368.894 129.294 379.67 127.583L379.699 127.579L403.179 123.495C409.533 122.83 414.807 122.506 419.033 122.506H419.317L419.599 122.466C421.836 122.146 423.867 121.993 425.698 121.993C427.917 121.993 429.691 122.153 431.066 122.428L431.455 122.506H431.851C433.828 122.506 435.574 122.417 437.031 122.209C438.356 122.02 439.957 121.668 441.247 120.809L441.577 120.589L441.857 120.309C443.381 118.785 445.079 116.595 445.079 113.892ZM406.87 26.6804L406.861 26.7422L406.855 26.8044C406.174 32.9257 405.153 41.4422 403.788 52.3626L398.03 94.5818L367.048 100.215C360.274 101.446 350.061 102.97 336.37 104.787L327.065 30.3439L346.065 26.0257L377.217 19.3867L395.771 16.3779H399.038C400.812 16.3779 402.589 16.5213 404.371 16.8096C405.413 17.0809 406.075 17.3685 406.465 17.6023C406.645 17.7101 406.736 17.7876 406.774 17.8239L407.03 18.3362L407.144 18.4501L407.151 18.4832C407.155 18.5027 407.16 18.5236 407.164 18.5457C407.263 19.0394 407.343 19.8595 407.343 21.0938C407.343 22.5539 407.195 24.4051 406.87 26.6804Z" fill="black"/>
<path fill-rule="evenodd" clip-rule="evenodd" d="M652.11 113.265L668.247 112.19L668.967 111.83C672.156 110.235 673.229 107.112 673.229 104.15C673.229 100.309 670.923 97.3689 667.965 95.2558C666.058 93.8941 663.789 92.4603 661.174 90.9542L676.116 41.789L676.124 41.7647C678.449 34.4637 681.066 28.4511 683.938 23.6644L683.99 23.5779L684.037 23.4888C686.586 18.7094 689.768 14.4141 693.59 10.5921L693.747 10.4355L693.885 10.2625C695.316 8.47382 696.483 6.83978 697.311 5.39032C698.055 4.08817 698.863 2.3746 698.863 0.585938C698.863 -1.7648 697.993 -4.02289 696.755 -6.0863C695.47 -8.22801 693.306 -10.7295 690.514 -13.5218C687.494 -16.5415 682.786 -20.1344 676.574 -24.2755L676.525 -24.3081L676.475 -24.3393C670.841 -27.8606 665.469 -30.561 660.366 -32.3884C655.705 -34.1769 651.443 -35.2012 647.695 -35.2012H647.496L647.297 -35.1813C643.348 -34.7864 638.191 -33.2724 632 -30.8705L616.284 -25.8007C611.756 -24.5147 602.956 -22.8439 589.665 -20.7992L589.607 -20.7903L545.003 -12.5872C540.801 -11.9422 534.546 -11.1358 526.206 -10.1675L512.818 -15.427C508.468 -17.2365 504.331 -18.3856 500.437 -18.7751L500.239 -18.7949H500.039C497.446 -18.7949 495.086 -18.5675 493.072 -18.0081C491.08 -17.4547 489.087 -16.4798 487.687 -14.7302L487.241 -14.1732L487.016 -13.4964C486.545 -12.0853 486.298 -10.6334 486.298 -9.15527C486.298 -7.86667 486.607 -6.55193 487.016 -5.32689L487.221 -4.71109L487.611 -4.1918C488.785 -2.62552 490.291 -0.941879 492.084 0.850891C493.505 2.2724 494.613 3.80511 495.436 5.45096L495.547 5.67371L495.685 5.88092C496.759 7.49075 497.813 9.82208 498.771 13.0146L498.822 13.1853L498.889 13.3508C500.047 16.2472 501.531 23.2607 503.251 34.951L506.828 65.0956L510.938 108.769L510.962 108.91C511.674 113.183 512.904 118.613 514.628 125.163L514.635 125.19L514.642 125.216C516.398 131.539 518.674 136.645 521.82 139.791C523.965 141.936 526.631 143.526 529.775 143.526H530.781L531.258 143.407C533.026 142.965 534.814 142.196 536.193 140.817C536.93 140.08 537.529 139.139 538.014 138.265C538.531 137.335 539.061 136.218 539.604 134.95L539.704 134.717L539.774 134.473C540.435 132.158 541.037 128.343 541.611 123.22L652.11 113.265ZM620.393 84.7695H611.411L611.022 84.8472C609.369 85.1778 603.809 86.1892 594.263 87.894C584.405 89.2531 575.062 90.442 566.231 91.4609C558.549 92.3473 550.353 93.2339 541.64 94.121L535.09 12.2412L553.959 9.66821L575.443 6.08752L598.449 3.53125L621.692 0.432144L621.82 0.406708C623.337 0.103226 624.606 -0.0283203 625.649 -0.0283203C628.64 -0.0283203 630.143 0.58728 630.841 1.14594L631.023 1.2912L631.22 1.41446C633.161 2.62759 634.452 4.26566 635.185 6.46512L635.222 6.57663L635.266 6.68576C635.713 7.80392 636.005 9.32361 636.005 11.3525C636.005 13.0001 635.725 15.2495 635.075 18.1752L635.056 18.2612L635.04 18.3478C634.015 24.1557 633.191 28.0753 632.57 30.2488L632.538 30.3617L620.393 84.7695Z" fill="black"/>
</svg>
