<svg width="1000" height="1000" viewBox="0 0 1000 1000" fill="none" xmlns="http://www.w3.org/2000/svg">
<path fill-rule="evenodd" clip-rule="evenodd" d="M379.703 127.579L403.183 123.495C409.537 122.83 414.811 122.506 419.037 122.506H419.321L419.603 122.466C421.84 122.146 423.87 121.993 425.702 121.993C427.921 121.993 429.695 122.153 431.07 122.428L431.458 122.506H431.854C433.832 122.506 435.578 122.417 437.034 122.209C438.36 122.02 439.961 121.668 441.251 120.809L441.581 120.589L441.861 120.309C443.385 118.785 445.083 116.595 445.083 113.892C445.083 112.862 444.878 111.576 444.119 110.412C443.081 107.786 441.261 105.661 438.876 104.026L434.782 100.614L439.34 81.4702L446.505 49.7406C448.819 41.1656 451.571 34.4402 454.684 29.4381C456.57 26.6911 458.048 24.3698 459.072 22.5087C459.587 21.5724 460.026 20.6814 460.347 19.8647C460.633 19.1371 460.977 18.1003 460.977 16.9922C460.977 12.1392 458.532 7.76382 454.678 3.90985C451.076 0.307739 447.404 -2.64462 443.654 -4.89481L443.522 -4.97385L443.385 -5.04254C440.649 -6.41028 437.639 -7.76871 434.36 -9.11914H435.058C438.511 -9.11914 444.22 -10.5317 451.651 -12.8963L451.716 -12.9168L451.779 -12.9394C487.519 -25.6545 516.402 -39.464 538.314 -54.4198L538.322 -54.4253L538.33 -54.4308C547.202 -60.5497 555.77 -67.9725 564.04 -76.6777C573.751 -60.2647 584.888 -43.5828 597.444 -26.6318L597.468 -26.5991L597.493 -26.5669C598.581 -25.1592 599.787 -23.8567 601.108 -22.656C597.755 -22.076 593.945 -21.4569 589.669 -20.7992L589.611 -20.7903L545.007 -12.5872C540.806 -11.9422 534.55 -11.1359 526.21 -10.1674L512.823 -15.4267C508.472 -17.2363 504.336 -18.3856 500.441 -18.7751L500.242 -18.7949H500.043C497.45 -18.7949 495.09 -18.5675 493.076 -18.0081C491.084 -17.4547 489.091 -16.4798 487.691 -14.7302L487.245 -14.1732L487.02 -13.4964C486.549 -12.0853 486.302 -10.6334 486.302 -9.15527C486.302 -7.86667 486.611 -6.55191 487.02 -5.32687L487.225 -4.71109L487.614 -4.1918C488.789 -2.62552 490.295 -0.941895 492.088 0.850891C493.509 2.2724 494.617 3.80511 495.44 5.45096L495.551 5.67371L495.689 5.88092C496.763 7.49075 497.817 9.82208 498.775 13.0146L498.826 13.1853L498.893 13.3508C500.051 16.2472 501.535 23.2607 503.255 34.951L506.832 65.0956L510.942 108.769L510.966 108.91C511.678 113.183 512.908 118.613 514.632 125.163L514.639 125.19L514.646 125.216C516.402 131.539 518.678 136.645 521.824 139.791C523.969 141.936 526.635 143.526 529.779 143.526H530.784L531.262 143.407C533.03 142.965 534.818 142.196 536.197 140.817C536.934 140.08 537.533 139.139 538.018 138.265C538.535 137.335 539.065 136.218 539.608 134.95L539.708 134.717L539.778 134.473C540.439 132.158 541.04 128.343 541.615 123.22L652.113 113.265L668.251 112.19L668.97 111.83C672.16 110.235 673.232 107.112 673.232 104.15C673.232 100.309 670.927 97.3689 667.969 95.2558C666.062 93.8941 663.793 92.4603 661.178 90.9542L676.12 41.789L676.128 41.7652C678.453 34.464 681.07 28.4512 683.942 23.6644L683.994 23.5779L684.041 23.4888C686.59 18.7094 689.772 14.4141 693.594 10.5921L693.751 10.4355L693.889 10.2625C695.32 8.47382 696.487 6.83975 697.315 5.39032C698.059 4.08817 698.867 2.3746 698.867 0.585938C698.867 -1.7648 697.997 -4.02289 696.759 -6.0863C696.506 -6.50784 696.219 -6.94336 695.9 -7.39224C702.977 -7.10107 710.492 -6.823 718.445 -6.55789L718.623 -6.55197L718.8 -6.56183C721.95 -6.73685 724.606 -7.05316 726.57 -7.59882C727.528 -7.86484 728.628 -8.26584 729.572 -8.94717C730.563 -9.66318 731.807 -11.0375 731.807 -13.1191C731.807 -16.0139 729.724 -17.9553 728.249 -19.0364C726.587 -20.2556 724.336 -21.3742 721.692 -22.4366C702.312 -31.2788 681.9 -41.3148 660.458 -52.5466C637.144 -64.8701 614.852 -83.7505 593.614 -109.338C593.048 -110.181 592.492 -110.968 591.946 -111.69L598.291 -120.019L598.373 -120.145C615.705 -146.835 629.512 -178.793 639.847 -215.953C645.462 -231.415 653.651 -243.954 664.36 -253.69L664.366 -253.695L664.372 -253.701C668.683 -257.653 671.821 -262.079 671.821 -266.903C671.821 -271.362 669.253 -274.811 665.576 -277.308C656.702 -284.382 646.771 -289.694 635.81 -293.241C632.54 -294.452 628.825 -295 624.755 -295C618.069 -295 610.656 -293.527 602.569 -290.728C589.819 -287.383 572.621 -284.176 550.916 -281.123C526.135 -278.069 501.53 -276.543 477.099 -276.543H477.022L476.945 -276.54C472.342 -276.363 468.431 -275.827 465.413 -274.786C462.484 -273.777 459.534 -271.975 458.436 -268.681L458.23 -268.065V-265.878C458.23 -264.546 458.442 -263.216 458.822 -261.898C458.057 -263.379 456.962 -264.702 455.594 -265.849C449.8 -270.858 440.935 -274.805 429.467 -277.934C426.691 -278.725 423.763 -279.106 420.702 -279.106C413.866 -279.106 406.832 -277.225 399.648 -273.665C386.542 -268.973 371.385 -264.596 354.161 -260.543L354.151 -260.541L354.141 -260.538C335.98 -256.166 312.466 -252.941 283.531 -250.898L283.473 -250.894L283.414 -250.888C279.83 -250.53 276.73 -249.926 274.28 -248.967C271.912 -248.04 269.477 -246.513 268.344 -243.87L268.021 -243.115V-241.269C268.021 -238.818 269.445 -236.905 270.73 -235.62C271.743 -234.608 273.025 -233.629 274.505 -232.673C275.224 -229.217 276.867 -226.165 279.41 -223.608C306.112 -195.569 333.974 -164.082 362.994 -129.144C352.289 -111.825 340.278 -97.9894 326.995 -87.5479C304.44 -70.3832 279.878 -57.2637 253.295 -48.1786L252.935 -48.0555L252.604 -47.8665C251.267 -47.1022 250.026 -46.2562 249.069 -45.2994C248.184 -44.4141 247 -42.8903 247 -40.8047C247 -38.857 247.992 -37.3868 248.941 -36.4382C249.814 -35.5648 250.905 -34.8643 252.028 -34.2828C252.83 -33.7609 253.704 -33.4358 254.467 -33.2142C255.389 -32.9465 256.427 -32.7527 257.532 -32.6086C259.742 -32.3203 262.542 -32.1904 265.868 -32.1904C269.736 -32.1904 274.607 -32.3658 280.459 -32.71L280.577 -32.717L280.695 -32.731C301.717 -35.2252 323.368 -44.6346 345.62 -60.6279L345.63 -60.6351C360.71 -71.5443 373.855 -85.0768 385.071 -101.198L420.528 -56.4104C425.047 -49.4971 430.007 -44.4812 435.626 -43.0765L436.103 -42.957H438.646C442.112 -42.957 445.177 -44.2415 447.627 -46.6921C451.215 -50.28 452.388 -56.1593 452.388 -62.8506C452.388 -66.5174 452.022 -70.8185 451.322 -75.721L451.309 -75.8127L451.292 -75.9037C449.823 -83.6128 446.696 -90.3458 441.87 -95.9988C433.797 -108.722 421.996 -122.898 406.563 -138.518C417.476 -161.391 427.88 -188.349 437.786 -219.367C442.415 -230.231 447.757 -238.372 453.702 -244.004L453.811 -244.107L453.911 -244.218C457.289 -247.934 459.787 -251.892 460.054 -255.934C460.44 -254.217 461.285 -252.519 462.982 -251.342C482.67 -236.646 495.946 -220.466 503.121 -202.868C510.677 -183.637 520.62 -160.669 532.939 -133.977C536.696 -125.837 540.596 -117.839 544.639 -109.982C539.77 -103.956 534.904 -98.2073 530.041 -92.735C508.559 -70.2618 477.007 -47.6105 435.195 -24.8349L434.966 -24.7104L434.756 -24.5572C432.783 -23.1225 431.13 -21.7456 429.93 -20.4363C428.909 -19.322 427.469 -17.479 427.469 -15.1699C427.469 -13.7434 427.959 -12.3485 428.985 -11.2345L428.73 -11.3304C423.932 -13.381 419.725 -14.6934 416.474 -14.6934H415.448C414.023 -14.6934 412.392 -14.2185 410.913 -13.6963C409.312 -13.1315 407.374 -12.3172 405.127 -11.2817C401.358 -9.71988 395.675 -8.08072 387.938 -6.39893L387.871 -6.38422L355.577 1.81732C346.25 3.81473 332.661 6.46967 314.79 9.78436L304.718 6.12167C303.605 5.60632 302.189 5.21457 300.703 4.88431C299.073 4.522 297.064 4.17282 294.703 3.83224C293.2 3.46884 291.736 3.25098 290.351 3.25098C287.715 3.25098 284.885 3.75812 282.779 5.60187C280.314 7.2175 278.66 9.68582 278.66 12.8906V13.4033C278.66 16.7997 280.683 19.5048 283.099 21.5391L288.927 26.8815C290.876 29.4655 292.673 33.0276 294.235 37.7045C295.885 42.992 297.021 47.7171 297.668 51.8935L304.324 105.657L304.325 105.663C305.7 117.011 307.267 125.956 309.055 132.394L309.063 132.423L309.072 132.452C310.823 138.407 313.441 143.495 317.785 145.668C319.196 146.373 320.419 146.941 321.421 147.342C321.921 147.542 322.421 147.723 322.897 147.859C323.312 147.977 323.971 148.141 324.701 148.141H325.032L325.359 148.086C329.4 147.413 331.917 144.162 333.483 140.638L333.514 140.569L333.542 140.499C334.595 137.866 335.453 135.07 336.121 132.116L341.911 132.76H342.133C344.011 132.76 348.171 132.28 354.219 131.44C360.409 130.58 368.898 129.294 379.674 127.583L379.703 127.579ZM406.874 26.6804L406.865 26.7423L406.858 26.8044C406.178 32.9257 405.156 41.4424 403.791 52.3629L403.789 52.3847L398.034 94.5818L367.052 100.215C360.278 101.447 350.065 102.97 336.374 104.787L327.069 30.3439L346.043 26.0313L346.095 26.0197L377.221 19.3868L395.775 16.3779H399.042C400.816 16.3779 402.593 16.5213 404.375 16.8096C405.417 17.0809 406.079 17.3685 406.469 17.6023C406.649 17.7101 406.74 17.7876 406.778 17.8239L407.034 18.3362L407.148 18.4501C407.154 18.4786 407.161 18.5105 407.168 18.5457C407.267 19.0394 407.347 19.8595 407.347 21.0938C407.347 22.5539 407.199 24.4051 406.874 26.6804ZM620.397 84.7695H611.414L611.026 84.8472C609.373 85.1778 603.813 86.1892 594.267 87.894C584.409 89.2531 575.066 90.442 566.235 91.4609C558.553 92.3473 550.357 93.2339 541.644 94.121L535.094 12.2412L553.962 9.66821L575.447 6.08746L598.453 3.53125L621.696 0.432129L621.824 0.406708C623.341 0.103241 624.61 -0.0283203 625.653 -0.0283203C628.644 -0.0283203 630.147 0.58728 630.845 1.14594L631.027 1.2912L631.224 1.41446C633.165 2.62759 634.456 4.26566 635.189 6.46512L635.226 6.57663L635.27 6.68576C635.717 7.80392 636.009 9.32361 636.009 11.3525C636.009 13.0001 635.729 15.2495 635.079 18.1752L635.06 18.2612L635.044 18.3478C634.019 24.1557 633.195 28.0753 632.574 30.2488L632.542 30.3617L620.397 84.7695ZM352.015 -234.33L352.018 -234.331C362.76 -237.229 371.327 -239.391 377.74 -240.826C384.308 -242.295 388.234 -242.908 389.94 -242.908H390.966C394.581 -242.908 396.567 -241.977 397.696 -240.803C398.852 -239.601 399.783 -237.443 399.783 -233.578V-230.908C394.484 -205.125 388.062 -182.705 380.539 -163.616C378.249 -165.504 376.175 -167.38 374.312 -169.243L374.248 -169.307L374.181 -169.368C349.74 -191.697 328.855 -209.936 311.536 -224.067C320.22 -225.973 333.764 -229.416 352.015 -234.33ZM602.417 -249.929L602.388 -249.811L602.365 -249.691C595.908 -215.026 587.608 -186.116 577.511 -162.892C574.686 -156.471 571.467 -150.354 567.856 -144.538C551.934 -169.37 533.453 -201.38 512.41 -240.596L512.32 -240.765L510.358 -243.708C521.955 -246.236 538.202 -250.114 559.075 -255.332C572.637 -258.723 583.031 -260.34 590.404 -260.34C593.533 -260.34 596.018 -260.029 597.937 -259.492C599.883 -258.83 601.019 -257.961 601.688 -257.069C602.353 -256.183 602.811 -254.937 602.811 -253.061C602.811 -252.03 602.682 -250.989 602.417 -249.929Z" fill="black"/>
</svg>
