<svg width="1000" height="1000" viewBox="0 0 1000 1000" fill="none" xmlns="http://www.w3.org/2000/svg">
<path d="M497.046 -96.7155L450.458 -92.6134L423.99 -89.9666L423.937 -89.9606C415.577 -89.0106 406.309 -88.3397 396.12 -87.9552L396.045 -87.9524L395.97 -87.9482C390.784 -87.6546 386.721 -87.4085 383.796 -87.2102C381.46 -87.0518 379.476 -86.9028 378.296 -86.7494L366.3 -85.8924L366.28 -85.8911C364.635 -85.7808 363.018 -85.5995 361.581 -85.2802C360.592 -85.0603 357.956 -84.4498 355.902 -82.3951C354.413 -80.9065 353.827 -79.2364 353.578 -78.2391C353.316 -77.1934 353.266 -76.2455 353.266 -75.5664C353.266 -74.1342 353.498 -72.7729 353.797 -71.5753L353.83 -71.446L353.866 -71.3179C354.696 -68.4152 356.679 -66.3824 357.965 -65.2255C359.451 -63.8875 361.276 -62.6198 363.246 -61.4159L363.304 -61.3808L363.362 -61.3467C367.015 -59.1977 371.034 -57.1934 375.399 -55.3226L375.59 -55.2408L375.785 -55.169C379.944 -53.637 384.068 -52.625 387.926 -52.625H388.805C390.554 -52.625 392.299 -52.7501 394.038 -52.9984C395.782 -53.2476 400.334 -54.2111 407.156 -55.7266C413.853 -57.0652 421.137 -58.4072 429.008 -59.752C437.025 -60.895 446.229 -61.9498 456.632 -62.913C467.104 -63.8826 478.168 -64.7562 489.825 -65.5333L489.881 -65.537L489.936 -65.5415C501.969 -66.5119 511.819 -67.1875 519.509 -67.5731L563.254 -69.0312H577.44C582.235 -68.6396 587.837 -68.3496 594.226 -68.156C600.693 -67.9601 604.885 -67.7693 606.988 -67.594L607.32 -67.5664H610.289C612.207 -67.5664 614.176 -67.7103 616.024 -68.1502C617.788 -68.5703 620.15 -69.4258 622.098 -71.3744C624.287 -73.563 625.906 -76.5847 625.906 -80.2539V-81.4084L625.826 -81.9712C625.446 -84.6324 624.117 -86.722 623.049 -88.0951C621.903 -89.5684 620.479 -90.9453 618.972 -92.2204C616.223 -94.5469 613.36 -96.6739 610.383 -98.5974C607.237 -100.828 603.876 -102.723 600.312 -104.282L600.115 -104.368L599.914 -104.444C596.29 -105.803 592.704 -106.713 589.223 -106.98L588.917 -107.004H588.609C586.464 -107.004 583.494 -106.587 580.188 -106.003L580.146 -105.996L580.104 -105.988C577.169 -105.438 572.352 -104.679 565.558 -103.708L547.449 -101.372L547.438 -101.37C543.126 -100.808 536.644 -100.138 527.924 -99.3626C519.254 -98.7703 508.957 -97.8868 497.046 -96.7155Z" fill="black"/>
<path d="M538.512 -254.367C534.922 -254.367 530.099 -253.066 524.94 -251.35C520.228 -249.905 514.608 -248.517 508.047 -247.202C501.267 -246.04 496.618 -245.283 494.021 -244.912L493.889 -244.893L465.69 -239.899L465.688 -239.899C465.672 -239.897 465.649 -239.893 465.619 -239.889C465.559 -239.88 465.479 -239.869 465.377 -239.855C465.171 -239.828 464.903 -239.795 464.565 -239.755C463.89 -239.674 462.991 -239.575 461.86 -239.454C459.599 -239.214 456.476 -238.899 452.481 -238.509L452.313 -238.493L435.64 -236.153L423.296 -235.03C419.229 -235.013 415.502 -234.701 412.353 -233.913C410.814 -233.529 409.019 -232.943 407.39 -231.94C405.803 -230.964 403.351 -228.933 402.64 -225.378L402.484 -224.601V-223.516C402.484 -219.935 404.182 -217.182 405.908 -215.327C408.562 -212.075 412.425 -210.261 416.008 -209.142C420.159 -207.844 425.497 -207.228 431.605 -207.024L431.738 -207.02H434.508C436.682 -207.02 439.287 -207.126 442.279 -207.325C446.63 -207.523 451.739 -207.819 457.599 -208.209L457.731 -208.218L457.862 -208.231C463.843 -208.829 471.162 -209.72 479.798 -210.898L479.827 -210.901L515.952 -215.563C520.548 -215.988 525.827 -216.808 531.75 -217.989C537.565 -218.959 542.077 -219.743 545.259 -220.34L545.494 -220.384L554.686 -222.682C556.237 -222.906 557.828 -223.228 559.265 -223.735C560.246 -224.082 563.03 -225.117 564.804 -227.864C565.19 -228.404 565.6 -229.042 565.955 -229.752C566.184 -230.21 566.533 -230.973 566.768 -231.959C567.251 -233.495 567.312 -234.916 567.312 -235.82V-236.805L567.074 -237.761C566.49 -240.094 565.13 -242.202 564.065 -243.693L563.859 -243.981L563.629 -244.249C561.025 -247.287 557.08 -249.125 553.479 -250.395L553.456 -250.404L545.482 -253.164L545.14 -253.249C543.272 -253.716 541.393 -254.069 539.504 -254.305L539.01 -254.367H538.512Z" fill="black"/>
<path fill-rule="evenodd" clip-rule="evenodd" d="M492.887 -137.35L528.32 -141.78L537.497 -143.5C540.263 -143.712 542.779 -144.033 544.963 -144.505C546.969 -144.939 549.259 -145.614 551.269 -146.834C552.349 -147.403 553.606 -148.195 554.715 -149.304C555.978 -150.567 557.645 -152.872 557.645 -156.133C557.645 -158.698 556.52 -160.663 556.065 -161.421C555.488 -162.383 554.788 -163.292 554.101 -164.104C552.713 -165.869 550.918 -167.231 549.283 -168.282C547.482 -169.44 545.352 -170.547 542.994 -171.619C538.73 -173.557 534.178 -175.266 530.309 -175.266C527.406 -175.266 524.239 -174.704 520.986 -173.84L514.069 -172.111C511.067 -171.408 506.456 -170.571 500.106 -169.609L500.093 -169.607L479.369 -166.396C472.038 -165.432 464.32 -164.467 456.214 -163.502C448.133 -162.732 442.419 -162.142 439.161 -161.737L427.736 -160.534L427.372 -160.462C426.242 -160.236 425.099 -159.964 424.068 -159.621L424.058 -159.617C423.485 -159.426 421.913 -158.903 420.446 -157.711C418.424 -156.143 417.517 -154.094 417.104 -152.719C416.648 -151.2 416.547 -149.708 416.547 -148.516V-147.947L416.627 -147.384C417.268 -142.899 420.744 -140.528 422.218 -139.631C424.137 -138.463 426.469 -137.551 428.86 -136.791L429.019 -136.74L429.18 -136.696C433.634 -135.481 437.915 -134.461 442.021 -133.64L442.516 -133.541L443.02 -133.505C445.956 -133.295 448.979 -133.191 452.086 -133.191H456.843L457.205 -133.224C459.5 -133.433 464.706 -134.035 472.661 -135.005L472.683 -135.008L492.887 -137.35ZM430.324 -144.732C430.202 -144.773 430.083 -144.815 429.965 -144.857C430.081 -144.816 430.199 -144.775 430.318 -144.734L430.324 -144.732ZM430.497 -153.325C430.495 -153.326 430.494 -153.327 430.493 -153.327C430.493 -153.327 430.496 -153.325 430.503 -153.32C430.506 -153.318 430.51 -153.316 430.515 -153.313C430.507 -153.318 430.501 -153.322 430.497 -153.325Z" fill="black"/>
<path fill-rule="evenodd" clip-rule="evenodd" d="M445.083 113.892C445.083 112.862 444.878 111.576 444.119 110.412C443.081 107.786 441.261 105.661 438.876 104.026L434.782 100.614L439.34 81.4702L446.505 49.7407C448.819 41.1656 451.571 34.4402 454.684 29.4382C456.57 26.6911 458.048 24.3698 459.072 22.5087C459.587 21.5724 460.026 20.6814 460.347 19.8647C460.633 19.1371 460.977 18.1003 460.977 16.9922C460.977 12.1392 458.532 7.76379 454.678 3.90985C451.076 0.307739 447.404 -2.64462 443.654 -4.89482L443.522 -4.97385L443.385 -5.04256C439.151 -7.15912 434.262 -9.25351 428.731 -11.3303C423.932 -13.381 419.725 -14.6934 416.474 -14.6934H415.448C414.023 -14.6934 412.392 -14.2185 410.913 -13.6963C409.312 -13.1315 407.374 -12.3171 405.127 -11.2816C401.358 -9.71979 395.674 -8.08069 387.938 -6.39894L387.871 -6.38422L355.577 1.81741C346.249 3.81479 332.661 6.4697 314.79 9.78439L304.718 6.12177C303.605 5.60638 302.189 5.2146 300.703 4.88431C299.073 4.522 297.064 4.17279 294.703 3.83224C293.2 3.46884 291.736 3.25098 290.351 3.25098C287.715 3.25098 284.885 3.75812 282.779 5.60184C280.314 7.2175 278.66 9.68582 278.66 12.8906V13.4033C278.66 16.7997 280.683 19.5048 283.099 21.5391L288.927 26.8815C290.876 29.4655 292.672 33.0273 294.234 37.704C295.885 42.9917 297.021 47.717 297.668 51.8936L304.324 105.657L304.325 105.662C305.7 117.01 307.267 125.956 309.055 132.394L309.063 132.423L309.072 132.452C310.823 138.407 313.441 143.495 317.785 145.668C319.196 146.373 320.419 146.941 321.421 147.342C321.921 147.542 322.421 147.723 322.897 147.859C323.312 147.977 323.971 148.141 324.701 148.141H325.032L325.359 148.086C329.4 147.413 331.917 144.162 333.483 140.638L333.514 140.569L333.542 140.499C334.595 137.866 335.453 135.07 336.121 132.116L341.911 132.76H342.133C344.011 132.76 348.171 132.28 354.219 131.44C360.409 130.58 368.898 129.294 379.674 127.583L379.703 127.579L403.183 123.495C409.536 122.83 414.811 122.506 419.037 122.506H419.321L419.603 122.466C421.84 122.146 423.87 121.993 425.702 121.993C427.921 121.993 429.695 122.153 431.07 122.428L431.458 122.506H431.854C433.832 122.506 435.578 122.417 437.034 122.209C438.36 122.02 439.961 121.668 441.251 120.809L441.581 120.589L441.861 120.309C443.385 118.785 445.083 116.595 445.083 113.892ZM406.874 26.6804L406.865 26.7422L406.858 26.8044C406.178 32.9257 405.156 41.4422 403.791 52.3626L398.034 94.5818L367.052 100.215C360.278 101.446 350.065 102.97 336.374 104.787L327.069 30.3439L346.069 26.0257L377.221 19.3867L395.775 16.3779H399.042C400.816 16.3779 402.593 16.5213 404.375 16.8096C405.417 17.0809 406.079 17.3685 406.469 17.6023C406.649 17.7101 406.74 17.7876 406.778 17.8239L407.034 18.3362L407.148 18.4501L407.155 18.4832C407.159 18.5027 407.164 18.5236 407.168 18.5457C407.267 19.0394 407.347 19.8595 407.347 21.0938C407.347 22.5539 407.199 24.4051 406.874 26.6804Z" fill="black"/>
<path fill-rule="evenodd" clip-rule="evenodd" d="M652.114 113.265L668.251 112.19L668.97 111.83C672.16 110.235 673.232 107.112 673.232 104.15C673.232 100.309 670.927 97.3689 667.969 95.2558C666.062 93.8941 663.793 92.4603 661.178 90.9542L676.12 41.789L676.128 41.7647C678.453 34.4637 681.07 28.4511 683.942 23.6644L683.994 23.5779L684.041 23.4888C686.59 18.7094 689.772 14.4141 693.594 10.5921L693.751 10.4355L693.889 10.2625C695.32 8.47382 696.487 6.83978 697.315 5.39032C698.059 4.08817 698.867 2.3746 698.867 0.585938C698.867 -1.7648 697.997 -4.02289 696.759 -6.0863C695.474 -8.22801 693.31 -10.7295 690.518 -13.5218C687.498 -16.5415 682.79 -20.1344 676.578 -24.2755L676.529 -24.3081L676.479 -24.3393C670.845 -27.8606 665.473 -30.561 660.369 -32.3884C655.709 -34.1769 651.447 -35.2012 647.699 -35.2012H647.5L647.301 -35.1813C643.352 -34.7864 638.195 -33.2724 632.004 -30.8705L616.288 -25.8007C611.76 -24.5147 602.96 -22.8439 589.669 -20.7992L589.611 -20.7903L545.007 -12.5872C540.805 -11.9422 534.55 -11.1358 526.21 -10.1675L512.822 -15.427C508.472 -17.2365 504.335 -18.3856 500.441 -18.7751L500.242 -18.7949H500.043C497.45 -18.7949 495.09 -18.5675 493.076 -18.0081C491.084 -17.4547 489.091 -16.4798 487.691 -14.7302L487.245 -14.1732L487.02 -13.4964C486.549 -12.0853 486.302 -10.6334 486.302 -9.15527C486.302 -7.86667 486.611 -6.55193 487.02 -5.32689L487.225 -4.71109L487.614 -4.1918C488.789 -2.62552 490.295 -0.941879 492.088 0.850891C493.509 2.2724 494.617 3.80511 495.44 5.45096L495.551 5.67371L495.689 5.88092C496.763 7.49075 497.817 9.82208 498.775 13.0146L498.826 13.1853L498.893 13.3508C500.051 16.2472 501.535 23.2607 503.255 34.951L506.832 65.0956L510.942 108.769L510.966 108.91C511.678 113.183 512.908 118.613 514.632 125.163L514.639 125.19L514.646 125.216C516.402 131.539 518.678 136.645 521.824 139.791C523.969 141.936 526.635 143.526 529.779 143.526H530.784L531.262 143.407C533.03 142.965 534.818 142.196 536.197 140.817C536.934 140.08 537.533 139.139 538.018 138.265C538.535 137.335 539.065 136.218 539.608 134.95L539.708 134.717L539.778 134.473C540.439 132.158 541.04 128.343 541.615 123.22L652.114 113.265ZM620.397 84.7695H611.414L611.026 84.8472C609.373 85.1778 603.813 86.1892 594.267 87.894C584.409 89.2531 575.066 90.442 566.235 91.4609C558.553 92.3473 550.357 93.2339 541.644 94.121L535.094 12.2412L553.962 9.66821L575.447 6.08752L598.453 3.53125L621.696 0.432144L621.824 0.406708C623.341 0.103226 624.61 -0.0283203 625.653 -0.0283203C628.644 -0.0283203 630.147 0.58728 630.845 1.14594L631.027 1.2912L631.224 1.41446C633.165 2.62759 634.456 4.26566 635.189 6.46512L635.226 6.57663L635.27 6.68576C635.717 7.80392 636.009 9.32361 636.009 11.3525C636.009 13.0001 635.729 15.2495 635.079 18.1752L635.06 18.2612L635.044 18.3478C634.019 24.1557 633.195 28.0753 632.574 30.2488L632.542 30.3617L620.397 84.7695Z" fill="black"/>
</svg>
