<?xml version="1.0" encoding="UTF-8"?>
<svg width="1000px" height="1000px" viewBox="0 0 1000 1000" version="1.1" xmlns="http://www.w3.org/2000/svg" xmlns:xlink="http://www.w3.org/1999/xlink">
    <title>yin_char</title>
    <g id="yin_char" stroke="none" stroke-width="1" fill="none" fill-rule="evenodd">
        <path d="M712.404588,305.058243 C728.562613,294.294398 739.028607,288.912476 743.802569,288.912476 C748.576531,288.912476 766.937923,296.536866 798.886746,311.785646 C830.835569,327.034426 850.115031,340.040738 856.725132,350.804583 C866.273057,368.744324 867.558354,385.114338 860.581025,399.914624 C853.603696,414.714911 839.098196,425.703002 817.064525,432.878899 C804.578778,437.363834 796.316151,439.382055 792.276645,438.933561 C788.237139,438.485068 782.545107,436.018353 775.20055,431.533418 C764.91817,422.563548 753.534107,418.078612 741.04836,418.078612 C728.562613,418.078612 711.670132,414.042171 690.370917,405.969287 C669.071702,397.896404 629.594708,393.859962 571.939936,393.859962 C514.285163,393.859962 477.011537,409.108742 462.322423,412.69669 C447.633309,416.284638 425.966866,424.357522 397.323093,436.915341 C365.007043,451.267133 333.792676,468.758381 303.679992,489.389083 C273.567308,510.019786 255.205916,526.165553 248.595815,537.826384 C241.985713,550.384203 235.375612,557.335853 228.765511,558.681334 C222.155409,560.026814 212.974713,557.111606 201.223422,549.93571 C186.534308,541.862826 177.72084,535.808164 174.783017,531.771722 C171.845194,527.73528 164.867865,521.232124 153.85103,512.262253 C142.834194,503.292383 136.591321,497.91046 135.122409,496.116486 C134.387954,495.219499 136.958549,491.407304 142.834194,484.679901 C148.70984,477.952498 156.238011,470.776602 165.418707,463.152212 C174.599403,455.527822 182.86203,449.921653 190.206587,446.333705 C210.771346,434.672873 246.392448,419.872586 297.069891,401.932845 C347.747334,383.993104 385.93903,372.780766 411.64498,368.295831 C424.130726,364.707882 434.963948,361.344181 444.144644,358.204726 C453.32534,355.065272 551.55879,328.379907 630.880005,323.894971 C655.851499,322.997984 672.927594,321.428257 682.10829,319.185789 C691.288987,316.943322 701.387752,312.23414 712.404588,305.058243 Z M500.881347,124.763845 C509.694815,124.763845 516.48853,122.969871 521.262492,119.381922 C526.036454,115.793974 532.095714,114 539.440271,114 C548.988195,114 564.595379,117.139455 586.261822,123.418364 C607.928265,129.697273 622.066537,135.527689 628.676638,140.909612 C634.552284,144.49756 638.224562,148.309755 639.693474,152.346197 C641.162385,156.382638 641.896841,163.782782 641.896841,174.546626 C641.896841,184.413484 640.978771,191.365134 639.142632,195.401575 C637.306493,199.438017 632.348917,204.81994 624.269904,211.547342 C616.190891,218.274745 609.397176,222.311187 603.888758,223.656668 C598.380341,225.002148 588.648803,224.777902 574.694144,222.983927 C553.394929,221.189953 537.604132,222.08694 527.321752,225.674889 C471.503119,246.305591 440.288752,262.451358 433.67865,274.11219 C432.209739,275.906164 427.803005,279.494112 420.458448,284.876034 C403.565967,294.742892 383.735663,288.015489 360.967536,264.693826 C348.48179,252.136007 335.261587,240.475175 321.306929,229.71133 L298.171574,212.220083 L309.18841,198.765277 C317.267422,189.795406 332.323764,181.274029 354.357435,173.201146 C441.757663,140.909612 490.598967,124.763845 500.881347,124.763845 Z" id="Combined-Shape" fill="#000000" fill-rule="nonzero"></path>
        <g id="丨" transform="translate(466.000000, 383.000000)" fill="#000000" fill-rule="nonzero">
            <path d="M17.5978359,3.0512502 C26.9451959,-1.22050008 39.4639816,-1.00691257 55.154193,3.69201275 C70.8444044,8.39093806 83.3631901,16.0800886 92.71055,26.7594643 L112.740607,47.9046282 C119.417293,55.1666037 120.75263,63.7101042 116.746619,73.5351299 C108.066927,91.049306 102.05791,124.155371 98.7195672,172.853324 C96.7165615,210.017551 94.2128043,241.094535 91.2082958,266.084274 C88.2037872,291.074013 86.0338643,314.461846 84.6985272,336.247772 C81.3601844,390.071826 77.0203386,440.051304 71.6789901,486.186207 C70.3436529,497.292758 68.3406472,505.836259 65.6699729,511.816709 C62.9992987,517.797159 60.996293,525.48631 59.6609558,534.884161 C57.6579501,543.000486 54.6534415,550.048874 50.6474301,556.029324 C46.6414187,562.009775 42.301573,565 37.627893,565 C30.9512073,565 22.9391845,560.087487 13.5918245,550.262462 C8.2504759,545.563536 5.24596734,535.952098 4.57829877,521.428147 C-0.763049795,444.963817 -1.43071836,347.995086 2.57529306,230.521953 C5.91363591,122.446671 8.2504759,58.0500351 9.58581304,37.3320462 C10.9211502,16.6140574 13.5918245,5.18712534 17.5978359,3.0512502 Z"></path>
        </g>
    </g>
</svg>