<?xml version="1.0" encoding="UTF-8"?>
<svg width="1000px" height="1000px" viewBox="0 0 1000 1000" version="1.1" xmlns="http://www.w3.org/2000/svg" xmlns:xlink="http://www.w3.org/1999/xlink">
    <title>yinghe_char</title>
    <g id="yinghe_char" stroke="none" stroke-width="1" fill="none" fill-rule="evenodd">
        <g id="广合庄" transform="translate(0.000000, -0.142857)" fill="#000000" fill-rule="nonzero">
            <path d="M527.30899,50.6290273 C527.30899,41.3214688 525.161092,32.5508847 520.865296,24.3172752 C516.5695,16.0836657 516.032525,9.81896287 519.254373,5.52316662 C522.47622,1.22737036 533.21571,-0.562544748 551.472844,0.153421295 C569.729979,0.869387338 585.30224,3.37526849 598.189629,7.67106474 C608.929119,10.5349289 618.952644,16.2626573 628.260203,24.8542498 C637.567761,33.4458423 642.22154,40.2475197 642.22154,45.259282 C642.22154,50.2710443 644.011455,54.9248236 647.591286,59.2206198 C651.171116,64.2323821 656.36187,79.0886775 663.163547,103.789506 C669.965225,128.490334 672.471106,143.34663 670.681191,148.358392 C668.891275,153.370154 666.922369,158.7399 664.774471,164.467628 C663.342539,168.763424 664.774471,170.911322 669.070267,170.911322 C672.650097,170.911322 680.883707,170.195356 693.771095,168.763424 C714.534111,167.331492 850.030684,164.64662 863.992022,160.708806 C877.95336,156.770993 898.895367,154.802087 926.818042,154.802087 C945.433159,155.518053 957.604582,156.41301 963.332311,157.486959 C969.060039,158.560908 974.071801,161.245781 978.367597,165.541577 C988.391122,174.849136 994.476833,192.748287 996.624732,219.23903 C998.056664,236.422215 991.254986,247.519689 976.219699,252.531451 C961.184412,257.543214 940.77938,255.753299 915.004603,247.161706 C903.549146,242.86591 892.093689,240.181037 880.638233,239.107088 C869.182776,238.033139 727.779482,237.496164 692.697146,237.496164 C616.08878,237.496164 555.589649,242.86591 511.199755,253.6054 C489.004807,260.049095 337.935972,265.060857 337.220006,268.640687 C337.220006,270.072619 337.935972,271.504551 339.367904,272.936484 C342.231768,275.800348 343.305718,286.181855 342.589751,304.081006 L338.293955,362.074256 C331.850261,462.309502 327.196482,518.512836 324.332617,530.684259 C321.468753,542.139716 319.141864,553.237189 317.351948,563.97668 C315.562033,574.716171 313.235144,582.770789 310.37128,588.140534 C307.507415,593.510279 306.075483,599.059016 306.075483,604.786744 C306.075483,615.526235 301.063721,634.499335 291.040196,661.706045 C281.016672,688.912754 271.709113,709.67577 263.117521,723.995091 C254.525928,735.450547 250.230132,741.894242 250.230132,743.326174 C250.230132,744.758106 242.89148,756.213562 228.214176,777.692544 C213.536872,799.171525 204.766288,812.595888 201.902424,817.965634 C199.03856,823.335379 196.71167,826.020252 194.921755,826.020252 C193.13184,826.020252 189.015035,831.389997 182.571341,842.129488 C172.547816,857.880741 160.018411,873.631993 144.983124,889.383246 C132.095735,902.270635 121.535236,914.263066 113.301626,925.36054 C105.068017,936.458014 97.9083563,943.0807 91.822645,945.228598 C85.7369336,947.376496 77.6823156,953.104224 67.658791,962.411783 C61.9310627,968.139511 50.2966145,975.836146 32.7554465,985.501688 C15.2142784,995.167229 4.65377928,1000 1.07394906,1000 C0.357983021,1000 0,998.926051 0,996.778153 C0,994.630255 0.357983021,991.587399 1.07394906,987.649586 C1.78991511,983.711773 2.86386417,980.668917 4.29579626,978.521019 C8.59159251,972.79329 20.5840237,956.326071 40.2730899,929.119362 C59.9621561,901.912652 74.1024854,881.865603 82.6940779,868.978214 C91.2856705,856.090825 98.0873479,846.067301 103.09911,838.90764 C115.986499,823.872353 135.317582,787.179094 161.09236,728.827861 C186.867137,670.476629 203.334356,626.981692 210.494017,598.34305 L223.381405,545.719546 C229.8251,516.364938 236.98476,469.827145 244.860387,406.106168 L255.599877,321.264191 L258.821724,287.97177 L245.934336,276.158331 C236.626777,268.99867 232.688964,261.481027 234.120896,253.6054 C235.552828,245.729774 241.996522,239.465071 253.451979,234.811292 C264.907436,230.157513 272.604071,226.398691 276.541884,223.534827 C280.479697,220.670962 289.250281,217.807098 302.853636,214.943234 C369.438478,197.044083 550.219904,187.378541 565.971157,185.946609 C583.870308,183.082745 592.819883,180.218881 592.819883,177.355017 C593.535849,175.923085 591.745934,173.417204 587.450138,169.837373 C581.72241,163.393679 576.173673,155.16007 570.803928,145.136545 C565.434182,135.11302 559.169479,125.447479 552.009819,116.13992 C535.5426,92.5130408 527.30899,70.6760765 527.30899,50.6290273 Z" id="广"></path>
            <path d="M555,728.861124 C581.5,724.434616 620.375,723.960347 671.625,727.438318 C722.875,730.916289 752.75,736.449424 761.25,744.037725 C764.75,747.199516 767.75,752.416473 770.25,759.688594 C772.75,766.960715 774,773.442388 774,779.133613 C774,786.721913 771.875,794.784482 767.625,803.32132 C763.375,811.858158 758.25,818.339831 752.25,822.766339 C745.75,827.825206 741.75,832.567894 740.25,836.994402 C737.75,845.847419 728.75,860.707841 713.25,881.575666 C708.75,887.89925 705.25,894.222833 702.75,900.546417 C701.25,904.972925 700.625,908.134717 700.875,910.031792 C701.125,911.928867 702.75,915.090659 705.75,919.517167 C710.25,924.576034 712.5,934.377589 712.5,948.921831 C712.5,959.039564 712.125,965.521237 711.375,968.36685 C710.625,971.212463 708,974.848523 703.5,979.275032 C692,991.28984 679,991.922199 664.5,981.172107 C660,977.377956 655.25,975.006613 650.25,974.058075 C645.25,973.109538 636,972.635269 622.5,972.635269 C582,974.532344 560.25,981.172107 557.25,992.554557 C556.25,997.613424 553.75,1000.14286 549.75,1000.14286 C545.75,1000.14286 540.375,998.087692 533.625,993.977363 C526.875,989.867034 523.5,986.547153 523.5,984.017719 C523.5,981.488286 522.25,978.326494 519.75,974.532344 C517.25,970.738194 512.875,961.568998 506.625,947.024756 C500.375,932.480514 497.25,923.943676 497.25,921.414242 C497.25,920.149526 493.25,908.292807 485.25,885.844085 C477.25,863.395364 471.25,847.428315 467.25,837.94294 C462.25,827.192848 460.25,807.589739 461.25,779.133613 C461.75,772.177671 462.875,767.751163 464.625,765.854088 C466.375,763.957013 471.75,761.1114 480.75,757.31725 L513.75,742.14065 C523.25,736.449424 537,732.022916 555,728.861124 Z M653.278827,844.563819 C657.259203,826.914606 660.120099,816.514177 661.861514,813.362532 C663.602928,810.210887 665.344343,804.380344 667.085757,795.870902 C668.827172,787.36146 668.080851,782.318828 664.846796,780.743006 C661.61274,779.167183 648.800904,778.064107 626.411288,777.433778 C598.548654,776.17312 571.681114,779.009601 545.808668,785.94322 C519.936223,792.876839 507,800.440787 507,808.635065 C507,813.047368 508.492641,818.720329 511.477923,825.653948 C514.463205,832.587567 517.946035,841.569756 521.926411,852.600514 C525.906787,863.631271 530.757871,875.292358 536.479662,887.583774 C542.201452,899.87519 546.057442,908.857378 548.04763,914.53034 C550.037818,920.203301 552.401167,923.354946 555.137675,923.985275 C557.874184,924.615604 564.217909,923.354946 574.168849,920.203301 C586.607525,917.051656 598.797427,915.475833 610.738556,915.475833 C618.699309,915.475833 623.923552,914.845504 626.411288,913.584846 C628.899023,912.324188 631.386758,909.487707 633.874493,905.075404 C639.34751,895.620469 645.815622,875.449941 653.278827,844.563819 Z M589.71417,575.936672 C602.248168,573.407462 619.795766,572.142857 642.356963,572.142857 C661.91,572.142857 673.942639,573.565538 678.454878,576.410898 C682.967118,579.256259 685.975277,587.318115 687.479357,600.596465 C688.983437,610.713304 687.228677,618.933235 682.215078,625.256259 L675.446719,633.792342 L618.291686,636.637703 C588.71145,636.637703 569.283752,637.744232 560.008593,639.95729 C550.733435,642.170349 542.335656,647.702995 534.815257,656.555228 C530.804377,661.613648 526.292138,664.142857 521.278538,664.142857 C517.267659,664.142857 512.630079,661.613648 507.3658,656.555228 C502.101521,651.496809 498.215981,646.122239 495.709182,640.431517 C493.202382,634.740795 493.453062,630.63083 496.461222,628.10162 C497.965301,626.837015 498.215981,623.043201 497.213261,616.720177 C496.711901,612.29406 497.213261,609.132548 498.717341,607.235641 C500.221421,605.338733 504.98434,602.493373 513.006099,598.699558 C536.570016,587.318115 562.139373,579.730486 589.71417,575.936672 Z M585.332147,212.671457 C588.322561,210.142857 593.306584,209.510707 600.284217,210.775007 C607.26185,212.039307 615.983891,218.992957 626.45034,231.635958 C635.919985,243.646808 640.904008,252.812983 641.402411,259.134484 C641.900813,265.455984 638.162796,273.673934 630.188358,283.788334 C622.21392,293.270584 618.226702,299.90816 618.226702,303.70106 C618.226702,307.49396 616.856095,311.760972 614.114882,316.502098 C611.373669,321.243223 610.003063,325.668273 610.003063,329.777248 C610.003063,333.886223 608.507856,337.521086 605.517442,340.681836 C602.028626,343.842586 600.78262,346.213148 601.779424,347.793523 C602.776229,349.373899 607.26185,352.060536 615.236288,355.853436 C648.629245,371.657187 691.242645,407.373663 743.076489,463.002864 C747.56211,467.427914 757.779358,476.59409 773.728233,490.50139 C789.677108,504.40869 798.772951,512.942716 801.015762,516.103466 C803.258572,519.264216 808.990199,523.531228 818.210642,528.904504 C827.431086,534.277779 834.284118,539.176941 838.769739,543.601991 C854.718614,556.877142 872.9103,568.255842 893.344796,577.738092 C906.801659,583.427443 921.006126,591.013243 935.958196,600.495493 L975.581183,625.149344 C1001.99651,641.585244 1006.98053,653.596095 990.533253,661.181895 C985.050827,663.710495 982.309614,665.92302 982.309614,667.81947 C982.309614,670.34807 978.571597,673.666858 971.095562,677.775833 C963.619527,681.884808 958.386302,683.307145 955.395888,682.042845 C950.910267,680.146395 941.316022,681.252658 926.613152,685.361633 C911.910283,689.470608 902.565239,693.737621 898.578021,698.162671 C895.587606,701.955571 890.728184,706.064546 883.999752,710.489596 C877.27132,714.914646 872.661099,717.127171 870.169087,717.127171 C868.175478,717.127171 861.197845,713.334271 849.236188,705.748471 C813.35122,684.25537 776.469446,651.383569 738.590868,607.133068 C700.71229,562.882567 668.81454,514.839166 642.897618,463.002864 C637.415192,452.256314 628.942352,439.455276 617.479098,424.599751 C606.015844,409.744225 597.543004,400.103937 592.060579,395.678887 C586.578153,392.518137 582.466333,391.72795 579.725121,393.308325 C576.983908,394.8887 573.868893,400.103937 570.380077,408.954038 C566.392858,418.436288 563.277843,424.125638 561.035033,426.022088 C558.792222,427.918538 555.926409,432.975738 552.437592,441.193689 C548.948776,449.411639 542.220344,462.054639 532.252297,479.12269 L488.14369,552.136017 C469.204401,585.007818 453.504727,609.029518 441.044668,624.201119 C419.613367,651.383569 407.651711,664.974795 405.159699,664.974795 C404.162895,664.974795 400.300277,668.925732 393.571845,676.827608 C386.843413,684.729483 380.737985,690.576871 375.255559,694.369771 C369.773133,698.162671 360.428089,705.274358 347.220427,715.704834 C334.012765,726.135309 326.785931,731.350547 325.539925,731.350547 C324.293919,731.350547 321.178904,733.879147 316.194881,738.936347 C314.201272,740.832797 311.70926,742.413172 308.718846,743.677472 C305.728432,744.941772 303.361021,745.73196 301.616612,746.048035 C299.872204,746.36411 299,745.889997 299,744.625697 C299,739.568497 303.859423,728.821947 313.578269,712.386046 C323.297114,695.950146 335.13417,678.249945 349.089436,659.285445 C355.070264,651.699644 362.297098,641.743282 370.769938,629.416356 C379.242777,617.089431 390.830632,601.127643 405.533501,581.530993 C420.23637,561.934342 431.575024,546.130592 439.549461,534.119741 C445.530289,525.901791 453.629327,512.468603 463.846575,493.820178 C474.063824,475.171752 479.172448,465.215389 479.172448,463.951089 C479.172448,463.318939 483.408868,453.204539 491.881707,433.607888 L507.581381,399.471787 C517.051026,379.242987 525.274664,358.065961 532.252297,335.940711 C533.747504,332.779961 535.242711,329.461173 536.737918,325.984348 C538.233125,322.507523 540.475936,316.34406 543.46635,307.49396 C560.41203,256.289808 574.367295,224.682308 585.332147,212.671457 Z" id="合"></path>
        </g>
    </g>
</svg>