<?xml version="1.0" encoding="UTF-8"?>
<svg width="1000px" height="1000px" viewBox="0 0 1000 1000" version="1.1" xmlns="http://www.w3.org/2000/svg" xmlns:xlink="http://www.w3.org/1999/xlink">
    <title>zhi_char</title>
    <g id="zhi_char" stroke="none" stroke-width="1" fill="none" fill-rule="evenodd">
        <path d="M523.020783,102.113311 C529.092334,92.5694903 538.633343,88.6651999 551.643811,90.40044 C564.654278,92.1356802 579.399474,99.9442611 595.879399,113.826183 C614.094053,129.443344 624.068745,138.33645 625.803474,140.505501 C627.538203,142.674551 633.176072,145.711221 642.717081,149.615512 C652.258091,153.519802 657.028595,161.111478 657.028595,172.390539 C660.498053,265.225889 659.197006,312.511184 653.125455,314.246425 C649.655997,315.114045 647.921268,319.885955 647.921268,328.562156 C647.921268,337.238357 650.957044,341.576458 657.028595,341.576458 C663.100147,341.576458 676.110614,338.539787 696.059997,332.466447 C716.00938,325.525486 728.369324,323.356436 733.139829,325.959296 C737.910333,328.562156 749.836595,331.165017 768.918613,333.767877 C802.745828,338.105977 824.863623,349.385039 835.271996,367.605061 C845.68037,385.825083 840.909865,404.912725 820.960482,424.867987 C807.950015,436.147048 798.625847,442.654199 792.987978,444.389439 C787.350109,446.124679 777.158576,445.690869 762.41338,443.088009 C745.933455,440.485149 727.501959,441.786579 707.118894,446.992299 C686.735829,452.19802 670.039062,454.80088 657.028595,454.80088 C647.487586,454.80088 641.632876,455.6685 639.464465,457.40374 C637.296053,459.138981 635.778165,463.910891 634.910801,471.719472 C632.308708,483.866153 630.357137,509.244041 629.056091,547.853135 C627.755044,586.46223 625.586633,608.586542 622.550857,614.226073 C619.515081,619.865603 617.563511,633.53062 616.696147,655.221122 L614.094053,689.058306 L659.630689,692.962596 C696.927361,695.565457 844.379323,689.492116 849.58351,685.154015 C855.655062,680.815915 862.160295,680.59901 869.099211,684.5033 C876.038127,688.407591 885.579136,690.359736 897.722239,690.359736 C906.395884,690.359736 923.09265,695.999267 947.812538,707.278328 C972.532426,718.557389 989.662874,728.10121 999.203883,735.909791 C1005.27543,741.983132 1008.52805,753.479098 1008.96173,770.39769 C1009.39542,787.316282 1006.1428,800.981298 999.203883,811.392739 C993.999697,820.93656 986.193416,830.046571 975.785042,838.722772 C968.846127,845.663733 963.208257,849.351118 958.871435,849.784928 C954.534613,850.218739 944.126239,847.832783 927.646314,842.627063 C833.97095,820.06894 840.909865,805.319399 688.253717,798.378438 C644.018128,797.510818 617.34667,797.293913 608.239343,797.727723 C599.132016,798.161533 590.458371,801.632013 582.218409,808.139164 C573.978446,814.646315 568.340577,817.89989 565.304801,817.89989 C562.269026,817.89989 556.847998,815.73084 549.041717,811.392739 C541.235437,807.054639 533.645998,804.885589 526.2734,804.885589 C518.900801,804.885589 502.637717,805.753209 477.484147,807.488449 C438.452746,810.958929 412.648652,814.42941 400.071867,817.89989 C387.495082,821.37037 370.798316,824.190136 349.981569,826.359186 C329.164821,828.528236 315.070148,832.215622 307.69755,837.421342 C300.324952,842.627063 293.169195,845.229923 286.230279,845.229923 C278.423999,845.229923 259.125139,850.001834 228.3337,859.545655 C197.542261,869.089476 169.136074,891.647598 161.329794,898.588559 C153.523513,905.52952 144.849869,909 135.308859,909 C117.96157,909 93.6753641,899.239274 62.4502427,879.717822 C31.2251214,860.19637 15.6125607,845.229923 15.6125607,834.818482 C15.6125607,831.348001 12.576785,827.877521 6.50523362,824.407041 C2.16841121,821.80418 -5.68434189e-14,819.852035 -5.68434189e-14,818.550605 C-5.68434189e-14,817.249175 1.73472896,814.42941 5.20418689,810.091309 C12.1431028,804.885589 42.2840185,794.257242 95.6269342,778.206271 C148.96985,762.155299 163.498205,755.865053 204.264336,748.924092 C225.948448,745.453612 239.392597,742.200037 244.596784,739.163366 C249.800971,736.126696 251.102018,730.27026 248.499924,721.594059 C246.765195,712.050238 248.933606,699.469747 255.005158,683.852585 C264.546167,659.559223 271.051401,582.341034 274.520859,452.19802 C277.122952,394.935094 279.291363,360.881005 281.026092,350.035754 C282.760821,339.190502 287.314485,331.598827 294.687083,327.260726 C302.059681,322.922626 313.118578,325.525486 327.863774,335.069307 C342.60897,344.613128 354.318391,353.289329 362.992036,361.09791 L374.701456,374.112211 L374.701456,539.393839 C374.701456,650.449212 376.002503,706.844518 378.604596,708.579758 C382.941419,710.314998 404.191849,709.013568 442.355886,704.675468 C480.519923,700.337367 501.770353,696.866887 506.107175,694.264026 C508.709269,691.661166 510.443998,649.147781 511.311362,566.723872 C513.913456,349.818849 515.865026,219.675834 517.166073,176.294829 C518.467119,132.913825 520.418689,108.186652 523.020783,102.113311 Z" id="Combined-Shape" fill="#000000" fill-rule="nonzero"></path>
    </g>
</svg>