<?xml version="1.0" encoding="UTF-8"?>
<svg width="1000px" height="1000px" viewBox="0 0 1000 1000" version="1.1" xmlns="http://www.w3.org/2000/svg" xmlns:xlink="http://www.w3.org/1999/xlink">
    <title>分开_char</title>
    <g id="分开_char" stroke="none" stroke-width="1" fill="none" fill-rule="evenodd">
        <g id="分开" transform="translate(78.966667, 0.079365)" fill="#000000" fill-rule="nonzero">
            <path d="M28.0333333,382.920635 C48.7,361.587302 74.0333333,331.087302 104.033333,291.420635 C134.033333,251.753968 150.2,230.420635 152.533333,227.420635 C154.866667,224.420635 156.033333,221.420635 156.033333,218.420635 C156.033333,215.420635 157.533333,213.920635 160.533333,213.920635 C163.533333,213.920635 165.866667,211.587302 167.533333,206.920635 C169.2,202.253968 173.866667,194.253968 181.533333,182.920635 C189.2,171.587302 193.033333,164.753968 193.033333,162.420635 C193.033333,160.087302 197.033333,151.753968 205.033333,137.420635 C213.033333,123.087302 217.033333,110.920635 217.033333,100.920635 C217.033333,90.9206349 219.366667,84.2539683 224.033333,80.9206349 C228.7,77.5873016 231.866667,73.7539683 233.533333,69.4206349 C235.2,65.0873016 239.366667,62.7539683 246.033333,62.4206349 C252.7,62.0873016 257.366667,63.9206349 260.033333,67.9206349 C263.366667,71.9206349 273.366667,79.5873016 290.033333,90.9206349 C309.366667,103.587302 321.033333,113.920635 325.033333,121.920635 C329.033333,129.920635 328.366667,140.920635 323.033333,154.920635 C316.366667,170.253968 306.366667,179.920635 293.033333,183.920635 C287.7,185.253968 285.033333,186.920635 285.033333,188.920635 C285.033333,190.920635 280.366667,197.253968 271.033333,207.920635 C261.7,218.587302 257.033333,224.920635 257.033333,226.920635 C257.033333,234.253968 235.7,258.587302 193.033333,299.920635 C150.366667,341.253968 121.033333,365.587302 105.033333,372.920635 C67.7,392.253968 45.3666667,404.253968 38.0333333,408.920635 C35.3666667,411.587302 29.0333333,414.587302 19.0333333,417.920635 C7.03333333,421.253968 0.7,421.253968 0.0333333333,417.920635 C-0.633333333,413.920635 8.7,402.253968 28.0333333,382.920635 Z M425.033333,1.92063492 C443.7,-5.41269841 469.033333,8.25396825 501.033333,42.9206349 C556.366667,104.920635 595.7,147.087302 619.033333,169.420635 C642.366667,191.753968 667.366667,211.587302 694.033333,228.920635 C726.7,250.253968 748.866667,263.920635 760.533333,269.920635 C772.2,275.920635 781.533333,281.253968 788.533333,285.920635 C795.533333,290.587302 807.033333,295.587302 823.033333,300.920635 L864.033333,316.920635 C870.7,319.587302 881.866667,326.753968 897.533333,338.420635 C913.2,350.087302 921.033333,357.920635 921.033333,361.920635 C921.033333,363.253968 917.533333,367.587302 910.533333,374.920635 C903.533333,382.253968 895.366667,385.920635 886.033333,385.920635 C860.7,385.920635 840.033333,394.587302 824.033333,411.920635 C816.033333,418.587302 810.366667,422.587302 807.033333,423.920635 C803.7,425.253968 797.033333,425.587302 787.033333,424.920635 C773.033333,422.253968 761.366667,419.587302 752.033333,416.920635 C740.033333,412.253968 716.533333,397.587302 681.533333,372.920635 C646.533333,348.253968 622.366667,328.253968 609.033333,312.920635 C595.7,299.587302 580.2,282.087302 562.533333,260.420635 C544.866667,238.753968 536.033333,226.920635 536.033333,224.920635 C536.033333,222.253968 532.7,215.587302 526.033333,204.920635 C514.7,188.253968 505.033333,172.253968 497.033333,156.920635 C462.366667,93.5873016 438.033333,53.9206349 424.033333,37.9206349 C416.033333,27.9206349 412.033333,20.4206349 412.033333,15.4206349 C412.033333,10.4206349 416.366667,5.92063492 425.033333,1.92063492 Z" id="分"></path>
            <path d="M484.033333,388.920635 C491.366667,390.253968 495.533333,389.753968 496.533333,387.420635 C497.533333,385.087302 499.366667,383.920635 502.033333,383.920635 C504.7,383.920635 511.866667,390.920635 523.533333,404.920635 C535.2,418.920635 541.033333,427.587302 541.033333,430.920635 C541.477778,433.587302 542.144444,451.920635 543.033333,485.920635 L569.033333,485.920635 C585.7,485.253968 621.7,484.920635 677.033333,484.920635 L760.033333,483.920635 L779.033333,493.920635 C797.033333,503.920635 809.033333,512.253968 815.033333,518.920635 C821.033333,525.587302 824.366667,535.253968 825.033333,547.920635 C827.7,571.920635 819.7,589.920635 801.033333,601.920635 C786.366667,610.587302 770.366667,610.587302 753.033333,601.920635 C742.366667,595.920635 735.533333,592.920635 732.533333,592.920635 C729.533333,592.920635 722.033333,590.253968 710.033333,584.920635 C691.366667,575.587302 653.033333,569.920635 595.033333,567.920635 L547.033333,564.920635 L541.033333,578.920635 C538.366667,586.920635 535.7,609.920635 533.033333,647.920635 C530.366667,685.920635 529.033333,725.920635 529.033333,767.920635 C528.366667,804.587302 526.866667,811.753968 524.533333,849.420635 C522.2,887.087302 520.033333,907.253968 518.033333,909.920635 C516.033333,911.920635 514.033333,920.253968 512.033333,934.920635 C510.033333,949.587302 506.7,963.253968 502.033333,975.920635 C494.7,993.253968 485.366667,1001.25397 474.033333,999.920635 C470.033333,999.253968 467.033333,995.587302 465.033333,988.920635 C463.7,982.920635 460.033333,971.920635 454.033333,955.920635 C450.7,945.253968 448.366667,930.253968 447.033333,910.920635 C445.7,891.587302 444.7,862.587302 444.033333,763.920635 C443.366667,631.253968 442.7,564.587302 442.033333,563.920635 C441.366667,563.253968 425.866667,564.253968 395.533333,566.920635 C365.2,569.587302 346.366667,570.920635 339.033333,570.920635 C333.7,572.920635 330.2,575.253968 328.533333,577.920635 C326.866667,580.587302 324.033333,588.920635 320.033333,602.920635 C316.7,621.587302 315.033333,633.587302 315.033333,638.920635 C315.033333,652.920635 308.7,673.920635 296.033333,701.920635 C277.366667,746.587302 253.7,784.920635 225.033333,816.920635 L186.033333,859.920635 C160.033333,891.253968 137.7,913.253968 119.033333,925.920635 C104.366667,935.253968 94.7,942.253968 90.0333333,946.920635 C85.3666667,951.587302 81.0333333,953.920635 77.0333333,953.920635 C73.0333333,953.920635 67.8666667,955.920635 61.5333333,959.920635 C55.2,963.920635 50.2,964.420635 46.5333333,961.420635 C42.8666667,958.420635 46.3666667,947.920635 57.0333333,929.920635 C79.0333333,895.253968 97.7,869.587302 113.033333,852.920635 C129.033333,836.253968 141.366667,819.920635 150.033333,803.920635 C158.033333,789.920635 165.366667,778.920635 172.033333,770.920635 C183.366667,756.920635 193.866667,737.587302 203.533333,712.920635 C213.2,688.253968 219.366667,666.920635 222.033333,648.920635 C224.033333,636.920635 226.366667,624.587302 229.033333,611.920635 C231.7,599.253968 231.866667,591.753968 229.533333,589.420635 C227.2,587.087302 220.2,587.753968 208.533333,591.420635 C196.866667,595.087302 177.033333,599.253968 149.033333,603.920635 C103.033333,613.253968 80.0333333,621.920635 80.0333333,629.920635 C80.0333333,631.253968 78.3666667,632.087302 75.0333333,632.420635 C71.7,632.753968 67.5333333,632.420635 62.5333333,631.420635 C57.5333333,630.420635 52.3666667,628.920635 47.0333333,626.920635 C30.3666667,618.920635 21.0333333,605.253968 19.0333333,585.920635 C17.0333333,579.920635 16.7,575.587302 18.0333333,572.920635 C19.3666667,570.253968 22.3666667,566.920635 27.0333333,562.920635 C33.7,557.587302 40.3666667,554.920635 47.0333333,554.920635 C53.7,554.920635 73.5333333,551.087302 106.533333,543.420635 C139.533333,535.753968 168.7,529.587302 194.033333,524.920635 C219.366667,520.253968 233.366667,517.087302 236.033333,515.420635 C238.7,513.753968 254.033333,451.920635 260.033333,441.920635 C266.033333,431.920635 270.366667,426.920635 273.033333,426.920635 C277.7,426.920635 284.866667,429.920635 294.533333,435.920635 C304.2,441.920635 311.033333,447.253968 315.033333,451.920635 C318.366667,457.920635 321.2,493.920635 323.533333,497.920635 C325.866667,501.920635 330.7,503.253968 338.033333,501.920635 C346.7,499.920635 368.033333,497.253968 402.033333,493.920635 L452.033333,490.920635 L450.033333,424.920635 L461.033333,405.920635 C465.7,398.587302 469.533333,393.753968 472.533333,391.420635 C475.533333,389.087302 479.366667,388.253968 484.033333,388.920635 Z M530.033333,290.920635 C542.7,287.587302 552.7,287.587302 560.033333,290.920635 C570.7,296.253968 580.033333,305.920635 588.033333,319.920635 C592.033333,325.920635 594.2,335.587302 594.533333,348.920635 C594.866667,362.253968 593.033333,369.587302 589.033333,370.920635 C576.366667,375.587302 540.366667,375.253968 481.033333,369.920635 C453.7,367.253968 430.866667,367.253968 412.533333,369.920635 C394.2,372.587302 368.366667,374.920635 335.033333,376.920635 C285.7,380.920635 255.033333,390.253968 243.033333,404.920635 C233.7,416.253968 215.033333,415.253968 187.033333,401.920635 L165.033333,389.920635 C165.033333,389.920635 164.366667,385.920635 163.033333,377.920635 C161.7,369.920635 159.7,363.253968 157.033333,357.920635 C154.366667,352.587302 157.033333,346.920635 165.033333,340.920635 C179.033333,328.253968 225.033333,317.587302 303.033333,308.920635 C387.033333,298.920635 449.033333,293.920635 489.033333,293.920635 C508.366667,295.253968 522.033333,294.253968 530.033333,290.920635 Z" id="开"></path>
        </g>
    </g>
</svg>