<?xml version="1.0" encoding="UTF-8"?>
<svg width="400px" height="240px" viewBox="0 0 400 240" version="1.1" xmlns="http://www.w3.org/2000/svg" xmlns:xlink="http://www.w3.org/1999/xlink">
    <title>到_s</title>
    <g id="到_s" stroke="none" stroke-width="1" fill="none" fill-rule="evenodd">
        <g id="至" transform="translate(-0.281465, -80.000000)" fill="#000000" fill-rule="nonzero">
            <path d="M225.767898,18.3066362 C256.376594,15.8657513 272.486433,13.668955 274.097417,11.7162471 C275.708401,9.76353928 281.212597,8.17696415 290.610003,6.95652174 C300.00741,5.73607933 305.377356,4.27154844 306.719843,2.56292906 C308.06233,0.854309687 315.04326,0 327.662635,0 C340.282009,0 350.753405,3.17315027 359.076822,9.5194508 C367.40024,15.8657513 372.501689,19.0389016 374.38117,19.0389016 C376.260652,19.0389016 380.959355,23.9206712 388.47728,33.6842105 C395.995205,42.9595728 399.754168,50.8924485 399.754168,57.4828375 C399.754168,64.0732265 396.263703,71.5179252 389.282772,79.8169336 C380.690858,90.0686499 370.487959,95.3165523 358.674076,95.5606407 C346.860194,95.8047292 335.583306,91.0450038 324.843413,81.2814645 C314.640514,72.0061022 301.349896,66.2700229 284.971559,64.0732265 C268.593222,61.8764302 244.562711,61.9984744 212.880026,64.4393593 C179.049363,66.3920671 161.865533,68.1006865 161.328539,69.5652174 C161.328539,69.5652174 161.731285,69.9313501 162.536777,70.6636156 C163.342269,71.395881 164.953253,72.2501907 167.369729,73.2265446 C169.786205,74.2028986 172.068432,75.423341 174.216411,76.8878719 C183.882314,81.2814645 191.40024,88.604119 196.770186,98.8558352 C200.529149,105.690313 202.40863,110.20595 202.40863,112.402746 C202.40863,114.599542 200.797646,118.627002 197.575678,124.485126 C193.279721,132.295957 185.35905,141.449275 173.813665,151.94508 C162.268279,162.440885 151.931132,173.668955 142.802223,185.629291 C133.673314,197.589626 125.349896,207.47521 117.831971,215.286041 L105.749591,228.466819 L131.525335,225.537757 C148.709164,224.561404 166.161491,222.120519 183.882314,218.215103 C197.307181,214.797864 212.611529,209.549962 229.795358,202.471396 C246.979187,195.39283 255.571102,190.877193 255.571102,188.924485 C255.571102,187.459954 253.960118,181.845919 250.73815,172.08238 C247.516182,162.318841 246.576441,156.82685 247.918928,155.606407 C249.261414,154.385965 248.590171,152.067124 245.905198,148.649886 C243.757219,147.185355 242.951727,145.842868 243.488722,144.622426 C244.025716,143.401983 246.442192,142.303585 250.73815,141.327231 C276.513893,132.051869 306.854092,141.57132 341.758745,169.885584 C358.942574,183.554539 369.816716,193.562166 374.38117,199.908467 C378.945625,206.254767 380.959355,214.431732 380.42236,224.439359 C379.885366,234.446987 377.603138,243.234172 373.575678,250.800915 C369.548218,258.367658 362.433039,264.591915 352.230141,269.473684 C342.027242,274.355454 334.240819,275.575896 328.870873,273.135011 C323.500926,270.694127 317.325488,268.741419 310.344557,267.276888 C302.289637,264.347826 292.892231,251.411137 282.152337,228.466819 C278.393375,219.191457 275.037158,213.577422 272.083687,211.624714 C269.130217,209.672006 258.121826,215.286041 239.058516,228.466819 C219.995205,241.647597 206.704588,250.190694 199.186662,254.09611 L187.104282,259.954233 C153.989612,270.368675 122.038429,282.084922 91.2507355,295.102975 C76.214885,301.449275 68.6969598,305.354691 68.6969598,306.819222 C68.6969598,309.748284 64.8037485,312.677346 57.0173259,315.606407 C49.2309033,318.535469 41.8472268,320 34.8662962,320 C25.7373869,320 18.487959,316.82685 13.1180124,310.480549 C7.74806582,304.134249 5.06309251,297.787948 5.06309251,291.441648 C5.06309251,285.095347 3.98910319,281.189931 1.84112455,279.7254 C-0.306854092,278.26087 -0.575351422,275.209764 1.03563256,270.572082 C2.64661654,265.934401 3.45210853,256.536995 3.45210853,242.379863 L4.25760052,219.679634 L19.5619483,216.018307 C29.2278522,214.065599 38.3567615,208.695652 46.948676,199.908467 L67.0859758,179.405034 C78.3628637,167.688787 94.6069522,148.527841 115.818241,121.922197 C137.02953,95.3165523 148.709164,79.8169336 150.857143,75.423341 C152.468127,72.0061022 151.12564,70.2974828 146.829683,70.2974828 C144.681704,70.2974828 139.580255,70.7856598 131.525335,71.7620137 C117.026479,73.2265446 103.601613,76.6437834 91.2507355,82.01373 C78.8998583,87.3836766 72.0531764,90.0686499 70.7106898,90.0686499 C69.3682031,90.0686499 66.8174785,91.5331808 63.0585159,94.4622426 C55.5405906,101.784897 44.5322001,100.808543 30.0333442,91.5331808 C11.7755258,80.3051106 2.64661654,71.2738368 2.64661654,64.4393593 C2.64661654,59.0694127 6.53982783,54.67582 14.3262504,51.2585812 C22.112673,47.8413425 36.2087828,44.1800153 56.6145799,40.2745995 C103.333115,31.4874142 159.717555,24.1647597 225.767898,18.3066362 Z"></path>
        </g>
    </g>
</svg>