<?xml version="1.0" encoding="UTF-8"?>
<svg width="1000px" height="1000px" viewBox="0 0 1000 1000" version="1.1" xmlns="http://www.w3.org/2000/svg" xmlns:xlink="http://www.w3.org/1999/xlink">
    <title>大息_char</title>
    <g id="大息_char" stroke="none" stroke-width="1" fill="none" fill-rule="evenodd">
        <g id="大目" transform="translate(84.000000, -0.500000)" fill="#000000" fill-rule="nonzero">
            <path d="M328.5,2.52123164 C336.833333,4.76232642 343.833333,5.88287382 349.5,5.88287382 C355.166667,5.88287382 366.666667,10.7385792 384,20.4499899 L410,35.0171061 L410,47.9034011 C410,56.1207486 408.666667,61.069833 406,62.7506541 C403.333333,64.4314751 401.666667,68.44677 401,74.7965385 C397,110.280539 394,131.57094 392,138.66774 L391,145.391024 L449,144.270477 C487,143.896961 508.666667,142.776414 514,140.908835 C520.666667,137.173677 532.666667,137.173677 550,140.908835 C558.666667,142.402898 566.166667,143.430066 572.5,143.99034 C578.833333,144.550614 590,148.565909 606,156.036225 C616.666667,161.265446 623.166667,164.720467 625.5,166.401288 C627.833333,168.082109 629,171.53713 629,176.766351 C629,183.11612 627.666667,186.291004 625,186.291004 C622.333333,186.291004 619,187.224794 615,189.092373 C611,190.959952 604.333333,191.800362 595,191.613604 C585.666667,191.426846 577.333333,190.026162 570,187.411552 C562,185.543973 546,182.929362 522,179.56772 C498,176.206078 476,174.338499 456,173.964983 C436.666667,173.217951 421,172.47092 409,171.723888 C399.666667,171.350372 394.5,171.443751 393.5,172.004025 C392.5,172.564299 392,174.338499 392,177.326625 C392,182.18233 393.166667,185.824109 395.5,188.251962 C397.833333,190.679815 400,196.375931 402,205.34031 C402.666667,212.063594 405.166667,218.039847 409.5,223.269068 C413.833333,228.498289 424,238.2097 440,252.4033 C460,269.958543 479,284.152143 497,294.984101 C503.666667,298.719259 511.666667,303.948481 521,310.671765 C530.333333,317.395049 545,326.079292 565,336.724492 C585,347.369692 600.666667,355.120145 612,359.97585 C624.666667,365.205071 643.166667,371.648219 667.5,379.305293 C681.1875,383.612397 692.027344,387.092222 700.019531,389.744768 L700.895833,390.03609 C706.659722,391.955547 710.861111,393.421077 713.5,394.432683 C718.376667,396.302129 730.46695,399.9986 749.77085,405.522096 L751.28965,405.956196 C756.65655,407.488488 762.56,409.156675 769,410.960757 C815,424.03381 836,432.624673 832,436.733347 C829.333333,437.480378 817.666667,439.347957 797,442.336084 C776.333333,445.32421 756.666667,447.378547 738,448.499094 C715.333333,450.740189 695.666667,453.915073 679,458.023747 C663,462.505937 651.166667,464.466895 643.5,463.906621 C635.833333,463.346347 623,459.704568 605,452.981284 C595.744473,449.604596 586.697432,445.858011 577.858878,441.741529 C582.245107,446.618622 586.025866,453.717921 589.201233,463.038448 C591.199863,470.371572 591.532968,475.993633 590.200548,479.904632 C588.868128,483.815631 584.870868,491.63763 578.208767,503.370628 L562.219727,526.836623 L559.221782,676.432345 C557.889362,775.185076 556.223836,838.738814 554.225206,867.093559 C553.558996,886.648555 552.226576,899.970396 550.227946,907.059083 C548.229316,914.147769 543.565846,923.069736 536.237536,933.824984 C524.911965,949.957856 515.91813,960.713104 509.256029,966.090728 C503.926349,970.490602 494.266304,976.357101 480.275893,983.690224 C466.285483,991.023348 457.624752,994.68991 454.293702,994.68991 C452.961282,994.68991 450.962652,995.423222 448.297812,996.889847 C443.634342,1000.80085 437.305346,1001.53416 429.310826,999.089784 C421.316306,996.645409 414.3211,992.245535 408.32521,985.890161 C398.99827,977.090413 390.337539,970.735039 382.343019,966.82404 C370.351238,961.446416 359.691878,955.213261 350.364937,948.124575 C341.037997,941.035889 335.375212,935.291609 333.376582,930.891734 C332.044162,925.025235 330.045532,920.136486 327.380691,916.225487 L327.380691,913.658894 L327.380691,913.658894 C327.380691,912.925581 329.212769,912.436707 332.876924,912.192269 C336.541079,911.947832 340.871445,911.947832 345.86802,912.192269 C350.864595,912.436707 358.359458,913.0478 368.352608,914.02555 C396.999639,915.0033 413.321785,914.02555 417.319045,911.092301 C423.314936,905.714677 416.98594,900.825928 398.33206,896.426053 C359.025668,888.604055 315.055806,888.604055 266.422474,896.426053 C239.774073,899.848178 224.451242,902.659208 220.453982,904.859146 C216.456722,907.059083 210.793936,907.670176 203.465626,906.692426 C196.803526,905.225802 191.640398,906.32577 187.976243,909.992332 C184.312088,913.658894 182.48001,919.036518 182.48001,926.125204 C182.48001,933.21389 173.81928,940.424795 156.497819,947.757919 C143.173618,953.135543 132.181153,952.40223 123.520423,945.557982 C118.856952,942.624732 113.527272,935.413827 107.531382,923.925267 C101.535492,912.436707 98.5375464,903.759177 98.5375464,897.892678 C98.5375464,892.026179 96.2058113,886.404118 91.5423411,881.026494 C88.211291,877.604369 86.7123184,874.67112 87.0454234,872.226745 C87.3785284,869.782371 89.210606,865.382497 92.5416562,859.027123 C97.2051264,849.7385 101.868597,842.03872 106.532067,835.927784 C111.195537,829.816847 113.527272,821.87263 113.527272,812.095132 C113.527272,802.317634 115.026245,790.706855 118.02419,777.262795 C121.022135,763.818735 122.521107,728.008648 122.521107,669.832534 C121.854897,530.99206 123.520423,461.082948 127.517683,460.105198 C130.182523,459.616324 131.514943,457.783043 131.514943,454.605356 C131.514943,451.427669 135.345651,449.838825 143.007066,449.838825 C150.668481,449.838825 154.499189,448.372201 154.499189,445.438951 C154.499189,443.483452 161.827499,438.716921 176.48412,431.13936 C191.14074,423.561799 205.464256,417.328644 219.454667,412.439895 C227.449187,409.506646 243.105123,405.840084 266.422474,401.44021 C287.074985,397.52921 314.889253,395.940367 349.86528,396.673679 C384.841306,397.406992 411.989365,399.973585 431.309456,404.373459 C446.632287,407.795583 457.291647,408.16224 463.287537,405.473428 C469.283428,402.784616 479.776236,404.373459 494.765961,410.239958 C509.755687,416.106457 519.24918,419.039706 523.24644,419.039706 C528.434936,419.039706 537.096029,421.587951 549.22972,426.684439 C540.949846,421.805747 532.873049,416.563998 525,410.960757 C516.333333,404.984504 508.5,399.848662 501.5,395.55323 C494.5,391.257798 491,388.45643 491,387.149125 C491,385.841819 483.333333,379.58543 468,368.379956 C452.666667,357.174482 445,350.918092 445,349.610787 C445,348.303482 441,344.661703 433,338.68545 C412.333333,323.371302 399,312.539344 393,306.189575 C392.333333,303.948481 389.333333,300.773596 384,296.664923 C378.666667,292.556249 372.666667,286.393238 366,278.175891 C360.666667,271.826122 357,268.837996 355,269.211511 C354.333333,269.211511 353.666667,269.958543 353,271.452606 L348,277.615617 C345.333333,280.230227 343,282.564701 341,284.619038 C339,286.673375 331.833333,294.703965 319.5,308.710807 C307.166667,322.717649 296.666667,332.895955 288,339.245723 L261,357.734755 C252.333333,363.711008 242.833333,369.500503 232.5,375.10324 C222.166667,380.705977 215.666667,383.507346 213,383.507346 C209,383.507346 200.5,387.055746 187.5,394.152546 C174.5,401.249346 162.666667,406.011672 152,408.439525 C141.333333,410.867378 133,413.668746 127,416.843631 C121,420.018515 107.666667,424.500704 87,430.290199 C85.4102564,430.735545 83.8422091,431.178128 82.295858,431.617948 L79.9926036,432.275607 C62.459073,437.30177 47.7948718,441.962568 36,446.258 C16.6666667,452.981284 5,454.662105 1,451.300463 C0.333333333,450.926947 0,450.553431 0,450.179915 C0,445.32421 18.3333333,435.612799 55,421.045683 C55.4285714,420.832246 55.9013605,420.59594 56.4183673,420.336765 L56.8723449,420.109016 C63.7669721,416.647655 77.8095238,409.489562 99,398.634735 C118.333333,388.923325 142.166667,374.076072 170.5,354.092976 C198.833333,334.109881 218,318.515597 228,307.310123 L246,289.941638 C263.333333,270.145301 276,244.559469 284,213.184142 C290,191.14671 291.333333,179.754478 288,179.007446 L283,179.007446 L283,179.007446 C267,179.007446 237.666667,183.11612 195,191.333467 C183,193.948078 174.833333,195.909036 170.5,197.216341 C166.166667,198.523647 163.333333,200.671362 162,203.659489 C158.666667,207.768163 152.833333,210.009257 144.5,210.382773 C136.166667,210.756289 126.5,208.88871 115.5,204.780036 C104.5,200.671362 95.3333333,194.881868 88,187.411552 C85.3333333,184.423425 83.6666667,181.995573 83,180.127994 C82.3333333,178.260415 85.8333333,176.206078 93.5,173.964983 C101.166667,171.723888 111.5,169.669551 124.5,167.801972 C125.7,167.62958 126.946864,167.450823 128.240592,167.265701 L129.549941,167.078457 C142.13716,165.279481 158.953846,162.906042 180,159.95814 C214.666667,155.849467 242.666667,152.674582 264,150.433488 L296,148.192393 L299,80.3992755 C299.666667,49.0239485 300.833333,28.2938217 302.5,18.2088951 C304.166667,8.12396861 307.333333,2.14771584 312,0.280136848 C314.666667,-0.466894747 320.166667,0.280136848 328.5,2.52123164 Z M287.668686,433.285754 L248.74229,441.359454 C236.764937,443.806029 224.45488,448.699181 211.812118,456.038908 C199.169357,463.378635 191.517159,469.984389 188.855525,475.856171 C186.8593,480.749322 188.356469,486.254117 193.347033,492.370556 C198.337596,498.486995 201.498287,510.597545 202.829104,528.702205 L205.823442,555.125222 L220.795133,552.923304 C229.445443,551.944674 244.08443,548.397139 264.712093,542.2807 C285.339757,536.164261 309.959871,532.372068 338.572436,530.904123 C347.33007,530.714711 354.741655,530.61695 360.807189,530.610839 L361.805648,530.61067 C370.84394,530.616893 376.74041,530.83704 379.495058,531.271109 C384.152918,532.005082 388.810777,534.818644 393.468637,539.711795 C403.449764,548.519468 408.273976,557.449469 407.941271,566.501799 C407.608567,575.554129 402.118947,582.52687 391.472411,587.420021 C382.822101,591.334542 366.852297,593.291803 343.563,593.291803 C326.927787,593.291803 314.950435,594.148104 307.630941,595.860707 C300.311448,597.57331 286.670574,602.099475 266.708319,609.439202 C238.095754,620.204135 220.795133,624.974957 214.806456,623.75167 C208.81778,622.528382 204.825329,624.607971 202.829104,629.990438 C193.513385,661.306606 190.186342,677.943321 192.847976,679.900581 C195.50961,680.879211 203.827216,679.411266 217.800795,675.496745 C268.37184,661.306606 307.963645,653.232906 336.576211,651.275646 L373.506382,648.339755 L386.481848,659.349346 C402.451651,673.539484 402.118947,686.995651 385.483735,699.717844 C378.82965,704.12168 372.508269,706.935242 366.519593,708.15853 C360.530916,709.381818 346.224634,710.727435 323.600745,712.19538 C292.326546,713.663325 267.706432,717.822504 249.740402,724.672916 C231.774373,731.523328 218.133499,734.214561 208.81778,732.746616 L196.840427,731.27867 L196.840427,769.445251 C196.840427,794.889638 195.842314,812.994297 193.846089,823.75923 C192.515272,831.098957 192.182568,835.747451 192.847976,837.704712 C193.513385,839.661972 196.507723,841.129918 201.830991,842.108548 C212.477527,844.065808 252.734741,838.683342 322.602632,825.961148 C338.572436,823.514573 361.695381,821.80197 391.971468,820.82334 C422.247554,819.844709 438.217358,818.74375 439.880879,817.520462 C441.527765,816.309407 442.522484,759.467332 442.865037,646.994236 L442.875217,643.568933 C443.207922,528.824534 444.705091,467.293156 447.366725,458.974798 C449.36295,452.124387 449.529302,447.965208 447.865781,446.497263 C446.20226,445.029317 439.714527,442.338084 428.402583,438.423563 C416.42523,434.019727 393.468637,431.206165 359.532804,429.982877 C325.59697,428.759589 301.642265,429.860548 287.668686,433.285754 Z" id="Combined-Shape"></path>
        </g>
    </g>
</svg>