<?xml version="1.0" encoding="UTF-8"?>
<svg width="1000px" height="1000px" viewBox="0 0 1000 1000" version="1.1" xmlns="http://www.w3.org/2000/svg" xmlns:xlink="http://www.w3.org/1999/xlink">
    <title>如_char</title>
    <g id="如_char" stroke="none" stroke-width="1" fill="none" fill-rule="evenodd">
        <g id="女" transform="translate(0.000000, 42.000000)" fill="#000000" fill-rule="nonzero">
            <path d="M450.619887,8.50328529 C460.852942,-3.18873199 474.009727,-2.82335645 490.090242,9.59941191 C507.632622,24.2144335 520.058475,49.0599702 527.3678,84.1360221 C529.560597,96.5587904 529.926063,108.250808 528.464198,119.212074 C527.002333,130.17334 521.885806,154.288126 513.114616,191.556431 C499.226898,244.170509 488.628377,280.342687 481.319052,300.072966 C476.202525,317.610992 474.557926,329.120322 476.385258,334.600955 C478.212589,340.081588 484.608248,342.821904 495.572236,342.821904 L515.307413,342.821904 L527.3678,303.361346 C539.06272,266.093041 552.767704,248.555015 568.482753,250.747268 C584.197802,252.939522 598.999185,273.765927 612.886902,313.226486 C618.00343,324.187752 622.206292,330.947199 625.495488,333.504828 C628.784684,336.062457 635.911276,338.437398 646.875264,340.629651 C664.417644,342.821904 688.355683,342.639217 718.689382,340.081588 C749.023081,337.523959 787.945236,336.427832 835.455849,336.793208 C882.966461,337.158584 914.031093,339.168149 928.649743,342.821904 C971.043828,351.590917 994.068202,364.744437 997.722864,382.282463 C1004.30126,407.85875 996.626465,428.867844 974.69849,445.309743 C952.770515,461.751643 927.91881,464.857335 900.143375,454.62682 C879.677265,447.319309 832.714852,439.646422 759.256136,431.608161 C685.797419,423.569899 644.317,422.108397 634.814877,427.223654 C629.69835,428.685156 626.22642,432.704287 624.399089,439.281047 C622.571758,445.857807 619.465295,454.444132 615.0797,465.040023 C610.694105,475.635913 605.577577,490.433623 599.730117,509.433151 C589.497062,543.0477 576.705743,571.181617 561.356161,593.8349 C550.392173,612.103677 545.641112,622.334192 547.102977,624.526446 C548.564842,625.257197 563.548958,636.035775 592.055326,656.862181 C620.561694,677.688587 641.758736,695.4093 655.646454,710.024322 C669.534171,724.639344 677.939895,731.946854 680.863625,731.946854 C684.518287,732.677606 686.345619,733.408357 686.345619,734.139108 C684.883754,736.331361 692.924011,746.196501 710.466391,763.734526 C729.470636,783.464806 740.069157,798.993266 742.261955,810.319908 C744.454752,821.64655 741.531022,838.271137 733.490765,860.193669 C725.450507,884.308455 721.064912,897.096599 720.33398,898.558101 C715.217452,900.750354 706.994462,904.038734 695.665008,908.42324 C684.335554,912.807747 677.208962,915 674.285232,915 C661.85938,915 647.057997,905.682924 629.881083,887.048771 C612.704169,868.414619 595.709988,843.75177 578.898541,813.060224 C567.203621,794.060696 553.498637,775.061168 537.783588,756.06164 C522.068539,737.062112 510.556352,726.100846 503.247027,723.177842 C495.937702,721.716339 478.760788,730.119977 451.716286,748.388754 C406.398471,777.618797 360.16699,803.012397 313.021844,824.569554 C265.876697,846.126711 228.781873,858.001416 201.73737,860.193669 C173.231003,864.578175 159.343285,863.847424 160.074218,858.001416 C160.074218,852.886158 188.580585,830.963626 245.59332,792.233819 C282.870878,766.657531 311.377246,746.196501 331.112423,730.850728 C347.192938,718.427959 364.004386,702.716811 381.546766,683.717283 C399.089146,664.717755 407.860336,652.294987 407.860336,646.448978 C407.860336,643.525974 399.271879,638.410716 382.094965,631.103205 C364.918051,623.795695 349.385736,619.045813 335.498018,616.853559 C320.879368,616.122808 310.829046,613.930555 305.347052,610.2768 C299.865059,606.623044 294.200332,597.488656 288.352872,582.873634 C281.043547,567.527861 277.937084,554.55703 279.033482,543.961139 C280.129881,533.365248 286.160074,520.759792 297.124062,506.144771 C307.357117,492.2605 315.945574,478.010854 322.889432,463.395833 C329.833291,448.780811 332.574288,440.742549 331.112423,439.281047 C329.650558,437.088794 306.808917,440.377174 262.587501,449.146187 C218.366085,457.915199 187.11872,463.943896 168.845408,467.232276 C150.572095,470.520656 129.009586,476.366664 104.157881,484.770302 C79.3061764,493.173939 61.0328638,495.914256 49.3379438,492.991251 C34.7192938,487.875994 22.8416407,480.751171 13.7049844,471.616782 C4.56832813,462.482394 0,452.434566 0,441.4733 C0,429.050532 3.28919626,421.194958 9.86758877,417.906578 C16.4459813,414.618198 35.8156926,408.954877 67.9767226,400.916615 C108.908943,392.147602 174.327402,380.820961 264.232099,366.93669 C308.818982,360.35993 336.594417,355.610048 347.558404,352.687044 L366.197183,348.302537 L378.257569,297.880713 L396.896348,217.86347 C401.281943,200.325444 403.474741,185.89311 403.474741,174.566468 C403.474741,163.239826 404.936606,154.470814 407.860336,148.259429 C410.784066,142.048045 414.438728,129.807965 418.824323,111.539188 C428.326446,56.7328566 438.924967,22.3875558 450.619887,8.50328529 Z M502.150628,433.800414 C501.419696,428.685156 493.744905,425.031401 479.126255,422.839148 C468.8932,422.108397 461.583875,422.839148 457.198279,425.031401 C452.812684,427.223654 446.599758,432.704287 438.559501,441.4733 C426.864581,453.896069 416.448793,468.876466 407.312136,486.414492 C398.17548,503.952518 394.703551,515.096471 396.896348,519.846354 C399.089146,524.596236 410.053133,533.913312 429.788311,547.797582 C445.868826,557.297346 456.832813,561.864541 462.680273,561.499165 C468.527733,561.13379 472.547862,555.105093 474.74066,543.413076 C475.471592,533.913312 477.66439,524.413548 481.319052,514.913784 C496.668635,471.068719 503.612493,444.030929 502.150628,433.800414 Z"></path>
        </g>
    </g>
</svg>