<?xml version="1.0" encoding="UTF-8"?>
<svg width="1000px" height="1000px" viewBox="0 0 1000 1000" version="1.1" xmlns="http://www.w3.org/2000/svg" xmlns:xlink="http://www.w3.org/1999/xlink">
    <title>对起_char</title>
    <g id="对起_char" stroke="none" stroke-width="1" fill="none" fill-rule="evenodd">
        <g id="巾已" transform="translate(182.000000, 0.000000)" fill="#000000" fill-rule="nonzero">
            <path d="M297.037868,493.341162 C300.01122,489.113721 303.430575,487 307.295933,487 C311.16129,487 318.743338,489.536465 330.042076,494.609394 C341.935484,499.25958 357.69425,504.649567 377.318373,510.779357 C396.942496,516.909147 410.025245,522.933251 416.56662,528.851669 C420.729313,533.07911 423.256662,537.940667 424.148668,543.436341 C425.040673,548.932015 424,552.102596 421.026648,552.948084 C418.647966,554.216316 416.56662,557.598269 414.782609,563.093943 C412.998597,568.589617 408.984572,572.394314 402.740533,574.508035 C396.496494,576.621755 392.482468,579.898022 390.698457,584.336836 C388.914446,588.775649 374.939691,600.295426 348.774194,618.896168 C317.256662,642.147095 301.795231,655.252163 302.389902,658.211372 C302.984572,660.325093 308.931276,661.804697 320.230014,662.650185 C343.42216,664.763906 355.018233,674.487021 355.018233,691.81953 C355.018233,697.737948 354.274895,701.648331 352.788219,703.55068 C351.301543,705.453028 348.476858,707.461063 344.314165,709.574784 C335.394109,712.956737 322.906031,714.224969 306.84993,713.379481 C292.57784,712.111248 269.831697,712.322621 238.611501,714.013597 C207.391304,715.704574 185.834502,717.818294 173.941094,720.354759 C162.047686,723.313968 150.451613,725.850433 139.152875,727.964153 C127.854137,730.077874 118.042076,733.248455 109.71669,737.475896 C101.391304,741.703337 91.430575,743.817058 79.8345021,743.817058 C68.2384292,743.817058 61.3997195,744.979604 59.3183731,747.304697 C57.2370266,749.62979 56.1963534,762.734858 56.1963534,786.619901 C56.1963534,810.504944 56.7910238,830.690977 57.9803647,847.177998 C60.3590463,870.00618 66.3057504,885.859085 75.8204769,894.736712 C85.3352034,903.614339 101.985975,908.687268 125.772791,909.955501 C176.914446,913.337454 233.259467,915.134116 294.807854,915.345488 C356.356241,915.55686 400.213184,914.394314 426.378682,911.857849 C481.683029,905.939431 518.84993,898.964153 537.879383,890.932015 C545.610098,887.127318 552.448808,882.26576 558.395512,876.347342 C564.342216,870.428925 567.315568,864.721879 567.315568,859.226205 C567.315568,849.925834 572.667602,828.577256 583.371669,795.18047 L587.831697,781.229913 L591.399719,792.009889 C592.58906,799.619283 594.670407,811.350433 597.643759,827.203337 C600.617111,843.056242 605.225806,856.266996 611.469846,866.8356 C617.713885,877.404203 621.72791,885.964771 623.511921,892.517305 C625.295933,899.069839 627.823282,903.508653 631.093969,905.833745 C634.364656,908.158838 636,914.182942 636,923.906057 C636,933.629172 632.431978,942.295426 625.295933,949.904821 C612.213184,962.587145 601.509116,969.139679 593.183731,969.562423 C589.021038,969.562423 583.966339,971.464771 578.019635,975.269468 C551.854137,991.756489 502.496494,1000 429.946704,1000 C385.346424,1000 330.636746,999.260198 265.817672,997.780593 C200.998597,996.300989 160.56101,994.504326 144.504909,992.390606 C118.339411,989.431397 97.6746143,984.781211 82.5105189,978.440049 C67.3464236,972.098888 52.0336606,961.530284 36.57223,946.73424 C18.7321178,931.092707 8.02805049,913.97157 4.46002805,895.370828 C1.48667602,885.647713 0,863.136588 0,827.837454 C0,792.538319 1.48667602,770.027194 4.46002805,760.304079 C8.02805049,743.817058 12.7854137,703.656366 18.7321178,639.822002 C19.9214586,620.798517 22.8948107,608.961681 27.6521739,604.311496 L35.6802244,597.970334 L49.9523142,609.384425 C60.0617111,617.416564 64.2244039,623.334981 62.4403927,627.139679 C60.6563815,630.521632 59.3183731,643.098269 58.4263675,664.869592 C57.5343619,686.640915 57.9803647,698.372064 59.7643759,700.063041 C61.5483871,701.754017 70.171108,700.274413 85.6325386,695.624227 C97.5259467,691.396786 115.663394,686.535229 140.044881,681.039555 C164.426367,675.543881 179.293128,672.796044 184.645161,672.796044 C188.213184,672.796044 199.957924,665.18665 219.879383,649.967862 C239.800842,634.749073 251.248247,624.391842 254.221599,618.896168 C265.520337,593.53152 272.359046,571.97157 274.737728,554.216316 L277.413745,538.363412 L244.409537,538.363412 C217.649369,537.940667 196.241234,538.363412 180.185133,539.631644 C142.126227,543.013597 116.852735,547.875155 104.364656,554.216316 C91.2819074,561.402967 78.4964937,559.500618 66.0084151,548.509271 C62.4403927,544.281829 60.8050491,539.843016 61.1023843,535.192831 C61.3997195,530.542645 63.9270687,527.583436 68.684432,526.315204 C127.556802,514.055624 183.45582,507.925834 236.381487,507.925834 C264.330996,507.925834 279.049088,506.657602 280.535764,504.121137 C282.02244,501.584672 284.401122,500.31644 287.671809,500.31644 C290.942496,500.31644 294.064516,497.991347 297.037868,493.341162 Z" id="已"></path>
            <g id="业">
                <path d="M42.4298077,233.708769 C45.162178,230.423706 46.5283632,227.021319 46.5283632,223.501609 C46.5283632,219.981899 49.124115,217.987396 54.3156186,217.518101 C59.5071222,217.048807 68.1140887,219.043309 80.1365181,223.501609 C92.1589475,227.959909 104.454614,230.071735 117.023517,229.837088 C129.592421,229.60244 136.969821,230.658353 139.155717,233.004827 C142.434561,236.759185 144.347221,244.619871 144.893695,256.586887 C145.440169,268.553902 144.073984,277.11853 140.795139,282.280772 C137.516295,287.443014 135.876873,291.432019 135.876873,294.247788 C135.876873,297.063556 132.871265,301.99115 126.860051,309.030571 L117.843228,318.181818 L98.9898733,313.958166 C83.1421254,311.142397 72.0760256,307.622687 65.7915739,303.399035 C59.5071222,299.175382 53.359289,291.666667 47.3480743,280.872888 C35.3256448,258.346742 33.6862227,242.625369 42.4298077,233.708769 Z M324.410425,57.7232502 C325.503373,22.9954411 327.552651,4.69294717 330.558258,2.8157683 C333.563865,0.938589434 337.525802,0 342.444069,0 C347.908809,0 357.881961,3.28506302 372.363524,9.85518906 C386.845086,16.4253151 396.818238,22.0568517 402.282979,26.7497989 C407.747719,30.9734513 411.026564,35.7837222 412.119512,41.1806114 C413.21246,46.5775007 412.119512,50.4491821 408.840668,52.7956557 C403.375927,57.4886028 399.277371,77.6682757 396.545001,113.334674 C393.812631,137.268705 391.353497,157.917672 389.167601,175.281577 C387.528179,188.891124 386.161994,201.914052 385.069046,214.350362 C383.976098,226.786672 383.429624,236.407214 383.429624,243.211987 C383.429624,250.016761 383.976098,253.653795 385.069046,254.123089 C386.708468,254.123089 398.730897,241.452132 421.136334,216.110217 C443.541771,190.768302 457.750096,173.639045 463.761311,164.722446 C468.679578,157.683025 474.417555,149.001073 480.975244,138.676589 C488.625881,126.474926 496.549755,120.960713 504.746866,122.13395 C512.943977,123.307187 526.879065,132.34111 546.552132,149.23572 C558.574561,159.560204 563.902683,166.834272 562.536498,171.057924 C561.170313,175.281577 558.301324,179.974524 553.929531,185.136766 C549.557739,190.299008 546.278895,192.880129 544.092998,192.880129 C541.360628,192.880129 530.977621,200.623492 512.943977,216.110217 C494.910333,231.596943 477.559781,244.502548 460.892322,254.827031 C444.224863,265.151515 433.432,273.833467 428.513734,280.872888 C423.595467,287.912309 419.63353,291.080048 416.627923,290.376106 C413.622316,289.672164 412.119512,290.610754 412.119512,293.191874 C412.119512,295.772995 408.840668,297.532851 402.282979,298.47144 C395.72529,299.410029 391.08026,301.756503 388.34789,305.510861 C385.61552,309.265219 382.883149,311.142397 380.150779,311.142397 C377.418409,311.142397 375.369131,316.069992 374.002946,325.925181 C372.636761,335.78037 371.133957,341.763878 369.494535,343.875704 C367.855113,345.98753 366.762165,350.563154 366.215691,357.602574 L364.576268,368.161706 L392.446446,368.161706 C411.573038,368.161706 439.03336,368.396353 474.827411,368.865648 C510.621462,369.334942 528.791725,368.865648 529.338199,367.457763 C533.163517,362.764816 546.278895,363.468758 568.684331,369.56959 L598.193931,377.312953 C607.48399,379.190131 615.681101,383.179136 622.785264,389.279968 C629.889426,395.380799 634.261219,401.716278 635.900641,408.286404 C636.993589,420.957361 629.069715,434.097613 612.129019,447.70716 C603.931908,453.338697 596.008034,456.271789 588.357398,456.506436 C580.706761,456.741083 570.050516,454.042639 556.388665,448.411102 C529.064962,438.555913 486.713222,433.628319 429.333445,433.628319 C403.10269,433.628319 368.12835,434.684232 324.410425,436.796058 C280.6925,438.907884 257.467352,440.667739 254.734982,442.075623 C253.095559,443.014213 242.712552,445.126039 223.58596,448.411102 C196.262257,452.634755 163.74705,458.500939 126.040339,466.009654 C117.296754,467.886833 103.90814,476.09949 85.8744958,490.647627 C79.8632811,494.871279 75.4914885,497.569724 72.7591182,498.742961 C70.0267479,499.916197 66.2014295,500.268168 61.2831629,499.798874 C51.9931038,498.860284 40.927004,495.340574 28.0848635,489.239743 C15.242723,483.138911 7.45546759,478.445964 4.72309727,475.160901 C-1.28811744,462.959238 -1.56135447,456.154465 3.90338617,454.746581 C6.63575649,453.338697 8.00194165,449.818986 8.00194165,444.18745 C8.00194165,438.555913 11.5540231,433.628319 18.6581859,429.404666 C42.1565706,413.91794 79.316807,402.42022 130.138895,394.911504 C150.358435,392.095736 164.566761,389.514615 172.763872,387.168142 L184.239827,385.056315 L180.141272,368.161706 C177.955376,357.367927 175.496242,349.15527 172.763872,343.523733 C170.031502,337.892196 169.485028,320.410968 171.12445,291.080048 C172.763872,261.749128 173.583583,242.156074 173.583583,232.300885 C173.583583,216.814159 172.080779,191.120274 169.075172,155.219228 C166.069565,119.318182 163.473813,99.0211853 161.287917,94.3282381 C159.10202,89.1659962 158.828783,81.1879861 160.468205,70.3942076 C162.107628,62.4161974 163.337194,57.6059265 164.156905,55.963395 C164.976617,54.3208635 167.845605,53.030303 172.763872,52.0917136 C179.321561,51.1531242 190.251042,53.7342451 205.552316,59.8350764 C217.574745,65.466613 224.678908,70.5115312 226.864804,74.9698311 C229.050701,79.4281309 227.957752,86.8195227 223.58596,97.1440064 C220.307115,105.122017 219.214167,110.63623 220.307115,113.686645 C221.400064,116.737061 222.493012,138.441942 223.58596,178.801287 C224.132434,235.116653 225.635238,273.716144 228.094371,294.599759 C230.553504,315.483374 234.515441,331.087423 239.980182,341.411907 C244.898448,349.389917 247.4942,354.317511 247.767437,356.19469 C248.040674,358.071869 246.811108,361.122285 244.078737,365.345937 C240.253419,370.977474 239.433708,374.262537 241.619604,375.201126 C243.8055,376.139716 253.368796,376.139716 270.309492,375.201126 L294.900825,373.0893 L293.261403,357.602574 C291.621981,346.808796 291.895218,339.30008 294.081114,335.076428 C298.999381,323.813355 302.824699,305.276213 305.557069,279.465004 C306.103544,271.017699 307.196492,265.386163 308.835914,262.570394 C311.568284,259.754626 314.71051,234.647359 318.262591,187.248592 C321.814673,139.849826 323.863951,96.6747117 324.410425,57.7232502 Z"></path>
            </g>
        </g>
    </g>
</svg>