<?xml version="1.0" encoding="UTF-8"?>
<svg width="1000px" height="1000px" viewBox="0 0 1000 1000" version="1.1" xmlns="http://www.w3.org/2000/svg" xmlns:xlink="http://www.w3.org/1999/xlink">
    <title>少息_char</title>
    <g id="少息_char" stroke="none" stroke-width="1" fill="none" fill-rule="evenodd">
        <g id="省" transform="translate(67.000000, 0.000000)" fill="#000000" fill-rule="nonzero">
            <path d="M232.848052,155.644105 C242.792847,145.612545 255.046255,142.20898 269.608276,145.43341 C284.170297,148.65784 291.451308,156.360645 291.451308,168.541824 C291.451308,175.707224 293.227164,181.081274 296.778877,184.663974 C301.751274,189.679754 303.704716,198.099099 302.639202,209.922009 C301.573689,221.744918 298.199562,230.880803 292.516822,237.329663 C285.413397,243.778523 281.861684,248.436033 281.861684,251.302193 C281.861684,254.168353 280.085828,257.213648 276.534115,260.438078 C272.982403,263.662508 269.43069,275.306282 265.878978,295.369402 C262.327265,315.432522 255.579012,330.479861 245.634217,340.511421 C235.689422,351.259521 226.81014,356.096166 218.996373,355.021356 C211.182605,353.946546 201.23781,346.960281 189.161988,334.062561 L171.048254,312.566362 L167.851713,269.573963 C166.431028,240.912363 168.029299,225.865023 172.646525,224.431943 C177.263751,222.998863 186.498204,213.325574 200.349882,195.412074 C214.201561,177.498574 225.034284,164.242585 232.848052,155.644105 Z M644.136359,124.474615 C646.977729,117.309215 650.17427,113.18911 653.725983,112.1143 C657.277695,111.039491 666.156977,110.502086 680.363827,110.502086 C700.963759,110.502086 713.92751,112.47257 719.255079,116.41354 C724.582647,120.35451 739.677425,126.624235 764.539413,135.222715 C805.739278,149.553515 831.666779,163.884315 842.321917,178.215114 C870.735617,215.475194 873.576987,250.227383 850.846027,282.471682 C843.742602,292.503242 838.415033,298.414697 834.86332,300.206047 C831.311608,301.997397 825.273697,302.893072 816.749587,302.893072 C802.542737,302.893072 794.196212,301.818262 791.710014,299.668642 C789.223815,297.519022 782.830732,294.831997 772.530766,291.607567 C762.2308,288.383137 755.837717,283.546492 753.351519,277.097632 C750.86532,270.648773 744.294652,264.199913 733.639514,257.751053 C724.405062,252.735273 709.665455,241.091498 689.420694,222.819728 C669.175932,204.547959 656.212182,191.471104 650.529442,183.589164 C644.846702,174.990684 641.294989,164.959124 639.874304,153.494485 C638.453619,142.029845 639.874304,132.356555 644.136359,124.474615 Z M410.788848,8.39513741 C421.443985,-3.78604236 437.07152,-2.71123238 457.671453,11.6195674 C478.271385,27.3834471 490.524794,40.4603018 494.431677,50.8501316 C498.338561,61.2399614 498.516147,83.273566 494.964434,116.950945 C492.123064,151.344865 489.992037,188.963214 488.571352,229.805993 C487.150667,270.648773 488.21618,291.070162 491.767893,291.070162 C495.319605,291.070162 500.114417,285.875247 506.152329,275.485417 C512.19024,265.095588 520.891935,254.526623 532.257415,243.778523 C549.305635,228.014643 559.605602,214.758654 563.157314,204.010554 C565.998684,197.561694 570.971082,194.516399 578.074507,194.874669 C585.177932,195.232939 592.814114,198.815639 600.983052,205.622769 C609.151991,212.429899 614.657145,220.490973 617.498515,229.805993 C619.629543,237.687933 624.779526,247.361223 632.948465,258.825863 C641.117404,270.290503 645.201873,277.097632 645.201873,279.247252 C645.201873,281.396872 638.631205,289.637082 625.489869,303.967882 C612.348532,318.298682 604.71235,325.464082 602.581323,325.464082 C597.608925,325.464082 591.571014,328.330241 584.467589,334.062561 C577.364164,339.794881 571.148667,346.243741 565.821099,353.409141 C560.49353,360.574541 558.895259,364.873781 561.026287,366.306861 C561.736629,367.023401 581.803805,367.919076 621.227814,368.993886 C660.651822,370.068696 684.093125,373.472261 691.551721,379.204581 C699.010317,384.9369 712.151654,392.46057 730.97573,401.77559 C749.799806,411.09061 761.342872,419.33082 765.604927,426.49622 C769.866982,432.94508 771.998009,441.185289 771.998009,451.216849 C771.998009,461.248409 770.222153,468.772079 766.67044,473.787859 C763.118728,479.520179 761.165286,493.134438 760.810115,514.630638 C760.454944,536.126838 759.211844,547.949747 757.080817,550.099367 C754.949789,552.965527 753.70669,586.463772 753.351519,650.5941 C752.996347,714.724429 753.884275,757.895963 756.015303,780.108703 C760.277358,819.518402 758.14633,861.077722 749.62222,904.786661 C746.78085,917.68438 741.275696,930.94037 733.106757,944.55463 C724.937819,958.16889 716.946465,966.76737 709.132698,970.35007 C652.305298,999.011669 623.891598,1006.89361 623.891598,993.995889 C623.891598,990.413189 620.339885,984.680869 613.23646,976.798929 C606.133035,968.91699 602.581323,962.8264 602.581323,958.52716 C602.581323,942.76328 590.150329,929.50729 565.288342,918.75919 C549.660807,911.593791 539.716012,903.353581 535.453957,894.038561 C532.612587,886.873161 529.771217,882.573921 526.929847,881.140841 C524.088477,879.707761 517.695394,878.991221 507.750599,878.991221 C462.288679,877.558141 428.192239,882.932191 405.461279,895.113371 C397.647512,899.412611 389.123402,901.203961 379.888949,900.487421 C372.785524,900.487421 368.523469,901.203961 367.102784,902.637041 C365.682099,904.070121 364.616585,909.085901 363.906243,917.68438 C363.906243,922.70016 358.578674,931.29864 347.923537,943.47982 C339.399427,954.22792 333.18393,958.88543 329.277046,957.45235 C325.370162,956.01927 318.799494,947.77906 309.565042,932.73172 C302.461617,918.40092 298.377147,897.979531 297.311634,871.467551 C296.24612,844.955572 297.489219,828.833422 301.040932,823.101102 C306.013329,811.636462 311.340898,775.451193 317.023638,714.545294 C319.154665,690.899475 320.752936,663.49182 321.81845,632.322331 C322.883964,601.152841 323.41672,575.894807 323.41672,556.548227 C323.41672,537.201648 323.061549,526.095278 322.351207,523.229118 C320.220179,523.229118 312.761583,527.886628 299.975418,537.201648 C246.69973,573.745187 210.472263,597.749276 191.293015,609.213916 C172.113768,620.678556 134.465615,639.666866 78.3485579,666.178845 C49.2245154,679.793105 29.6900967,688.391585 19.7453017,691.974285 C9.80050668,695.556985 3.76259543,695.556985 1.63156793,691.974285 C0.92122543,689.824665 0.388468555,688.033315 0.0332973047,686.600235 C-0.321873945,685.167155 2.1643248,682.300995 7.49189355,678.001755 C12.8194623,673.702515 19.5677161,668.86587 27.7366548,663.49182 C35.9055936,658.11777 48.1590017,649.340155 64.4968792,637.158976 L150.803493,581.268857 L207.275722,543.650507 C218.641202,535.768568 225.922212,530.752788 229.118754,528.603168 C232.315295,526.453548 245.279045,516.780258 268.010005,499.583298 C290.740965,482.386339 304.947815,470.921699 310.630555,465.189379 C316.313295,459.457059 333.361515,443.693179 361.775215,417.89774 C417.18193,367.739941 441.688747,342.302771 435.295664,341.586231 C431.033609,341.586231 425.350869,336.391316 418.247444,326.001487 C411.144019,315.611657 405.106108,302.893072 400.13371,287.845732 C395.161313,274.948012 392.319943,265.632993 391.6096,259.900673 C390.899258,254.168353 391.6096,245.569873 393.740628,234.105233 C396.581998,216.908274 397.825097,195.949479 397.469926,171.228849 C397.114755,146.50822 398.002683,114.801325 400.13371,76.1081662 C400.844053,50.3127266 401.909567,33.6531719 403.330252,26.1295021 C404.750937,18.6058322 407.237135,12.6943773 410.788848,8.39513741 Z M622.826084,426.49622 C621.405399,425.06314 613.058875,422.91352 597.786511,420.04736 C582.514147,417.1812 572.746938,415.03158 568.484883,413.5985 C556.40906,411.44888 535.986714,413.24023 507.217842,418.97255 C478.448971,424.70487 461.933508,430.79546 457.671453,437.244319 C455.540425,439.393939 447.371487,444.767989 433.164637,453.366469 C415.406074,462.681489 399.423368,472.533914 385.216518,482.923744 C371.009668,493.313573 363.906243,499.941568 363.906243,502.807728 C363.906243,507.106968 366.214856,512.301883 370.832082,518.392473 C375.449309,524.483063 375.982065,529.319708 372.430353,532.902408 C367.457955,539.351268 367.457955,542.575697 372.430353,542.575697 C377.40275,542.575697 385.216518,538.634728 395.871655,530.752788 C451.27837,492.776168 498.516147,478.087099 537.584984,486.685579 C546.109094,488.118658 556.053889,494.925788 567.419369,507.106968 C578.784849,519.288148 586.243445,530.752788 589.795158,541.500887 C593.34687,552.248987 592.636528,560.310062 587.66413,565.684112 C582.691733,571.058162 575.588308,574.461727 566.353855,575.894807 C532.257415,582.343667 502.778202,588.792527 477.916214,595.241386 C456.605939,600.973706 441.688747,606.347756 433.164637,611.363536 C426.771554,614.946236 421.976742,616.737586 418.780201,616.737586 C415.58366,616.737586 407.237135,614.587966 393.740628,610.288726 C375.982065,603.839866 366.392442,601.152841 364.971757,602.227651 C363.551072,603.302461 362.840729,615.483641 362.840729,638.771191 C362.840729,662.05874 363.551072,674.419055 364.971757,675.852135 C366.392442,677.285215 382.730319,671.911165 413.985389,659.729985 C435.295664,651.131505 450.568028,645.936591 459.80248,644.145241 C469.036933,642.353891 484.664468,641.099946 506.685085,640.383406 C538.650498,638.233786 557.474574,638.950326 563.157314,642.533026 C567.419369,645.399186 572.924524,652.74372 579.672777,664.56663 C586.421031,676.38954 589.795158,685.167155 589.795158,690.899475 C589.795158,696.631795 585.177932,703.797194 575.943479,712.395674 C569.550397,718.127994 564.045242,721.531559 559.428016,722.606369 C554.81079,723.681179 545.04358,724.218584 530.126388,724.218584 C508.10577,724.218584 487.861009,726.726474 469.392104,731.742254 C428.902582,741.773814 400.13371,743.206894 383.08549,736.041494 C372.430353,731.742254 366.392442,729.592634 364.971757,729.592634 C364.971757,729.592634 364.971757,732.458794 364.971757,738.191114 C364.971757,743.923434 365.504514,752.163644 366.570027,762.911743 C367.635541,773.659843 369.233812,786.915833 371.364839,802.679713 C372.075182,813.427812 373.140695,820.414077 374.56138,823.638507 C375.982065,826.862937 377.757922,828.116882 379.888949,827.400342 C384.861347,825.250722 402.97508,819.518402 434.23015,810.203382 C479.69207,798.022203 513.433339,796.947393 535.453957,806.978953 C541.847039,809.845113 545.398752,812.711272 546.109094,815.577432 C546.819437,818.443592 546.819437,825.250722 546.109094,835.998822 L545.04358,860.719452 L577.008993,861.794262 L608.974405,862.869072 L615.367488,842.447682 C618.208858,828.833422 620.695057,811.994732 622.826084,791.931613 C624.246769,778.317353 624.957112,714.366159 624.957112,600.078031 C624.957112,485.789904 624.246769,427.9293 622.826084,426.49622 Z"></path>
        </g>
    </g>
</svg>