<?xml version="1.0" encoding="UTF-8"?>
<svg width="1000px" height="1000px" viewBox="0 0 1000 1000" version="1.1" xmlns="http://www.w3.org/2000/svg" xmlns:xlink="http://www.w3.org/1999/xlink">
    <title>带起_char</title>
    <g id="带起_char" stroke="none" stroke-width="1" fill="none" fill-rule="evenodd">
        <g id="巾已" transform="translate(182.000000, -13.000000)" fill="#000000" fill-rule="nonzero">
            <path d="M272.188594,4.64361967 C277.801699,1.35438907 280.990963,-0.187437773 281.756387,0.0181391393 C282.52181,0.223716052 287.624633,2.27948518 297.064855,6.18544651 C306.505077,10.0914078 316.455582,17.1838113 326.916369,27.462657 C337.377155,37.7415026 343.117831,46.9924636 344.138396,55.2155401 C345.15896,63.4386166 344.138396,69.4003471 341.076702,73.1007315 C337.504726,76.8011159 335.080885,86.5660193 333.805179,102.395442 C332.529474,118.224864 333.422468,126.859094 336.484161,128.298133 C339.545855,129.737171 350.006642,130.45669 367.866522,130.45669 C385.726402,130.45669 403.713852,131.381786 421.828873,133.231978 C439.943894,135.082171 459.334621,136.212844 480.001054,136.623997 C500.667486,137.035151 511.766126,137.960247 513.296973,139.399286 C514.82782,140.838324 518.017084,142.277363 522.864766,143.716401 C527.712447,145.155439 533.835835,147.725151 541.234928,151.425535 C548.634021,155.12592 552.97142,156.976112 554.247126,156.976112 C555.522832,156.976112 558.967237,159.443035 564.580342,164.376881 C568.662601,168.077265 571.214012,170.955342 572.234577,173.011111 C573.255141,175.06688 573.255141,178.561688 572.234577,183.495533 C571.214012,190.896302 569.428024,203.436494 566.876613,221.116108 C564.835483,240.440338 561.008366,257.297645 555.395261,271.688029 C552.84385,276.621875 551.057862,282.378028 550.037297,288.95649 C549.016733,295.534951 547.358315,299.954854 545.062045,302.2162 C542.765775,304.477546 539.704081,309.514181 535.876964,317.326103 C532.049847,325.138026 524.778324,333.977833 514.062396,343.845525 L485.741729,366.664562 C474.515519,376.532254 465.71315,383.213504 459.334621,386.708311 C452.956093,390.203119 444.153723,392.77283 432.927513,394.417446 C418.639609,396.473215 409.582099,396.473215 405.754981,394.417446 C401.927864,392.361677 400.014306,386.194369 400.014306,375.915524 C399.504024,366.047832 397.590465,359.058217 394.27363,354.946678 C390.956795,350.83514 383.685273,346.518025 372.459062,341.995333 C361.743134,337.472641 353.323477,332.127641 347.200089,325.960334 C335.973879,314.448027 330.105633,314.859181 329.595351,327.193795 C329.595351,333.772256 329.340209,339.117256 328.829927,343.228794 C328.319645,347.340333 323.216822,395.135904 322.70654,403.35898 L319.644846,427.411479 C317.093435,450.847247 313.521459,465.648785 308.928918,471.816092 C305.356942,477.572245 302.805531,481.889361 301.274684,484.767437 C298.21299,491.345899 294.896155,496.896475 291.324179,501.419167 C287.752203,505.941859 284.307798,509.23109 280.990963,511.286859 C277.674128,513.342628 274.995146,513.548205 272.954017,511.90359 C265.810065,506.147436 261.982948,477.161092 261.472666,424.944556 C261.472666,390.818788 253.308149,203.230917 255.349278,183.495533 C257.390407,171.160919 257.645549,163.657361 256.114702,160.984862 C254.583855,158.312362 250.756738,157.798419 244.63335,159.443035 C238.509963,161.08765 227.538894,163.143419 211.720143,165.610342 C172.938689,171.777649 148.700281,176.711495 139.004918,180.41188 C130.330119,183.289957 125.992719,185.448514 125.992719,186.887553 C125.992719,188.326591 128.799272,192.129764 134.412377,198.297071 C140.025482,203.230917 143.597458,209.398224 145.128305,216.798993 C146.659152,224.199762 149.210563,242.701684 152.782539,272.30476 C154.823668,289.162066 156.737227,299.132547 158.523215,302.2162 C160.309203,305.299854 161.202197,308.486296 161.202197,311.775527 C161.202197,315.064757 163.243326,319.176296 167.325584,324.110142 C170.387278,329.043987 171.152701,333.56668 169.621855,337.678218 C168.091008,341.789756 164.00875,344.87341 157.37508,346.929179 C150.231128,349.396102 145.383446,350.629563 142.832035,350.629563 C139.260059,350.629563 134.412377,347.957063 128.28899,342.612064 C122.165602,337.267064 117.062779,330.688603 112.980521,322.87668 C106.857134,313.831296 105.198716,307.355623 108.005269,303.449662 C110.811821,299.543701 111.322104,291.628989 109.536116,279.705529 C107.750128,267.782068 106.474422,258.32553 105.708999,251.335915 C104.943575,244.3463 103.667869,239.412454 101.881881,236.534377 C100.095893,233.6563 99.33047,231.600531 99.5856112,230.36707 C99.8407523,229.133608 99.4580406,226.872262 98.4374761,223.583031 C97.4169115,220.293801 96.1412058,216.387839 94.6103589,211.865147 C93.0795121,207.342455 90.0178184,205.286686 85.4252778,205.69784 C74.7093499,206.520148 67.6929685,203.950436 64.3761336,197.988706 C61.0592988,192.026975 63.7382808,186.579187 72.4130796,181.645341 C78.536467,177.533803 80.8327373,173.627842 79.3018904,169.927457 C78.7916081,167.04938 79.1743198,165.301977 80.4500255,164.685246 C81.7257313,164.068515 85.1701367,163.965727 90.7832418,164.376881 C98.9477583,164.376881 116.552497,160.676496 143.597458,153.275727 C187.481735,141.352266 219.88466,135.390536 240.806233,135.390536 C248.460467,135.390536 252.670296,134.362651 253.43572,132.306882 C254.201143,130.251113 255.094137,112.160345 256.114702,78.0345774 C257.645549,47.1980405 259.176395,27.9765992 260.707242,20.3702535 C262.238089,12.7639077 266.065206,7.52169644 272.188594,4.64361967 Z M441.14433,167.634988 C425.886598,165.578258 413.680412,163.727202 404.525773,162.081818 C395.371134,160.436434 381.639175,159.202396 363.329897,158.379704 C348.072165,157.557012 339.426117,158.071194 337.391753,159.922251 C335.357388,161.773308 333.323024,170.925756 331.28866,187.379595 C329.762887,200.954012 329,223.783713 329,255.868698 C329,287.953684 329.762887,304.818869 331.28866,306.464253 C332.814433,308.520982 338.281787,310.06353 347.690722,311.091895 C357.099656,312.12026 368.542955,313.457134 382.020619,315.102518 C395.498282,316.747902 407.831615,316.130883 419.020619,313.251461 C430.209622,310.372039 437.584192,306.875599 441.14433,302.762139 C443.687285,299.882717 448.137457,291.141615 454.494845,276.538833 C460.852234,261.936051 464.793814,250.521201 466.319588,242.294282 C467.845361,236.535438 470.006873,229.542556 472.804124,221.315637 C475.601375,213.088718 477,203.216415 477,191.698727 C477,181.415078 475.474227,175.347725 472.42268,173.496668 C469.371134,171.645611 458.945017,169.691718 441.14433,167.634988 Z" id="巾"></path>
            <path d="M297.037868,506.341162 C300.01122,502.113721 303.430575,500 307.295933,500 C311.16129,500 318.743338,502.536465 330.042076,507.609394 C341.935484,512.25958 357.69425,517.649567 377.318373,523.779357 C396.942496,529.909147 410.025245,535.933251 416.56662,541.851669 C420.729313,546.07911 423.256662,550.940667 424.148668,556.436341 C425.040673,561.932015 424,565.102596 421.026648,565.948084 C418.647966,567.216316 416.56662,570.598269 414.782609,576.093943 C412.998597,581.589617 408.984572,585.394314 402.740533,587.508035 C396.496494,589.621755 392.482468,592.898022 390.698457,597.336836 C388.914446,601.775649 374.939691,613.295426 348.774194,631.896168 C317.256662,655.147095 301.795231,668.252163 302.389902,671.211372 C302.984572,673.325093 308.931276,674.804697 320.230014,675.650185 C343.42216,677.763906 355.018233,687.487021 355.018233,704.81953 C355.018233,710.737948 354.274895,714.648331 352.788219,716.55068 C351.301543,718.453028 348.476858,720.461063 344.314165,722.574784 C335.394109,725.956737 322.906031,727.224969 306.84993,726.379481 C292.57784,725.111248 269.831697,725.322621 238.611501,727.013597 C207.391304,728.704574 185.834502,730.818294 173.941094,733.354759 C162.047686,736.313968 150.451613,738.850433 139.152875,740.964153 C127.854137,743.077874 118.042076,746.248455 109.71669,750.475896 C101.391304,754.703337 91.430575,756.817058 79.8345021,756.817058 C68.2384292,756.817058 61.3997195,757.979604 59.3183731,760.304697 C57.2370266,762.62979 56.1963534,775.734858 56.1963534,799.619901 C56.1963534,823.504944 56.7910238,843.690977 57.9803647,860.177998 C60.3590463,883.00618 66.3057504,898.859085 75.8204769,907.736712 C85.3352034,916.614339 101.985975,921.687268 125.772791,922.955501 C176.914446,926.337454 233.259467,928.134116 294.807854,928.345488 C356.356241,928.55686 400.213184,927.394314 426.378682,924.857849 C481.683029,918.939431 518.84993,911.964153 537.879383,903.932015 C545.610098,900.127318 552.448808,895.26576 558.395512,889.347342 C564.342216,883.428925 567.315568,877.721879 567.315568,872.226205 C567.315568,862.925834 572.667602,841.577256 583.371669,808.18047 L587.831697,794.229913 L591.399719,805.009889 C592.58906,812.619283 594.670407,824.350433 597.643759,840.203337 C600.617111,856.056242 605.225806,869.266996 611.469846,879.8356 C617.713885,890.404203 621.72791,898.964771 623.511921,905.517305 C625.295933,912.069839 627.823282,916.508653 631.093969,918.833745 C634.364656,921.158838 636,927.182942 636,936.906057 C636,946.629172 632.431978,955.295426 625.295933,962.904821 C612.213184,975.587145 601.509116,982.139679 593.183731,982.562423 C589.021038,982.562423 583.966339,984.464771 578.019635,988.269468 C551.854137,1004.75649 502.496494,1013 429.946704,1013 C385.346424,1013 330.636746,1012.2602 265.817672,1010.78059 C200.998597,1009.30099 160.56101,1007.50433 144.504909,1005.39061 C118.339411,1002.4314 97.6746143,997.781211 82.5105189,991.440049 C67.3464236,985.098888 52.0336606,974.530284 36.57223,959.73424 C18.7321178,944.092707 8.02805049,926.97157 4.46002805,908.370828 C1.48667602,898.647713 0,876.136588 0,840.837454 C0,805.538319 1.48667602,783.027194 4.46002805,773.304079 C8.02805049,756.817058 12.7854137,716.656366 18.7321178,652.822002 C19.9214586,633.798517 22.8948107,621.961681 27.6521739,617.311496 L35.6802244,610.970334 L49.9523142,622.384425 C60.0617111,630.416564 64.2244039,636.334981 62.4403927,640.139679 C60.6563815,643.521632 59.3183731,656.098269 58.4263675,677.869592 C57.5343619,699.640915 57.9803647,711.372064 59.7643759,713.063041 C61.5483871,714.754017 70.171108,713.274413 85.6325386,708.624227 C97.5259467,704.396786 115.663394,699.535229 140.044881,694.039555 C164.426367,688.543881 179.293128,685.796044 184.645161,685.796044 C188.213184,685.796044 199.957924,678.18665 219.879383,662.967862 C239.800842,647.749073 251.248247,637.391842 254.221599,631.896168 C265.520337,606.53152 272.359046,584.97157 274.737728,567.216316 L277.413745,551.363412 L244.409537,551.363412 C217.649369,550.940667 196.241234,551.363412 180.185133,552.631644 C142.126227,556.013597 116.852735,560.875155 104.364656,567.216316 C91.2819074,574.402967 78.4964937,572.500618 66.0084151,561.509271 C62.4403927,557.281829 60.8050491,552.843016 61.1023843,548.192831 C61.3997195,543.542645 63.9270687,540.583436 68.684432,539.315204 C127.556802,527.055624 183.45582,520.925834 236.381487,520.925834 C264.330996,520.925834 279.049088,519.657602 280.535764,517.121137 C282.02244,514.584672 284.401122,513.31644 287.671809,513.31644 C290.942496,513.31644 294.064516,510.991347 297.037868,506.341162 Z" id="已"></path>
        </g>
    </g>
</svg>