<?xml version="1.0" encoding="UTF-8"?>
<svg width="1000px" height="1000px" viewBox="0 0 1000 1000" version="1.1" xmlns="http://www.w3.org/2000/svg" xmlns:xlink="http://www.w3.org/1999/xlink">
    <title>復_char</title>
    <g id="復_char" stroke="none" stroke-width="1" fill="none" fill-rule="evenodd">
        <path d="M553.684211,383.029465 C569.181447,384.951132 608.240807,386.680633 670.862293,388.217967 C727.158375,389.755301 766.059601,392.061301 787.56597,395.135969 C809.072338,398.210637 824.885845,403.975639 835.006489,412.430976 C845.127133,420.886312 856.512857,432.608484 869.163663,447.597489 C881.814468,462.586495 888.13987,472.386999 888.13987,476.999001 C888.13987,480.842335 890.037491,484.68567 893.832733,488.529005 C902.055756,496.984341 902.055756,516.201015 893.832733,546.179027 C889.404951,560.015032 886.716655,576.157038 885.767844,594.605045 C884.819034,613.053052 882.921413,628.042058 880.074982,639.572063 C877.228551,651.102067 873.907714,669.16574 870.112473,693.763083 C861.88945,730.659097 850.819995,772.551447 836.90411,819.440131 C822.988224,866.328816 811.91877,895.922494 803.695746,908.221165 C782.821918,941.273844 761.948089,963.94952 741.074261,976.248191 C723.363134,986.240861 714.50757,992.390197 714.50757,994.696198 C714.50757,997.770866 710.712329,999.500366 703.121846,999.8847 C695.531363,1000.26903 686.992069,999.692533 677.503965,998.155199 C668.015862,996.617865 661.374189,994.696198 657.578947,992.390197 C649.355924,986.240861 644.611872,982.013193 643.346792,979.707192 C642.081711,977.401191 639.709685,976.248191 636.230714,976.248191 C632.751742,976.248191 631.012257,973.173523 631.012257,967.024187 C631.012257,960.874852 627.05888,952.996015 619.152127,943.387678 C611.245374,933.779341 607.133862,926.477005 606.817592,921.48067 C606.501322,916.484335 602.864215,912.641 595.906273,909.950666 C588.94833,907.260331 575.032444,905.530831 554.158616,904.762164 C525.694304,901.687496 487.741889,908.221165 440.30137,924.363171 C431.445806,925.900505 425.436674,928.398673 422.273973,931.857674 C419.111271,935.316675 416.26484,940.505177 413.734679,947.42318 C409.939438,955.10985 406.934871,960.106185 404.720981,962.412186 C402.50709,964.718187 398.237443,965.871187 391.91204,965.871187 C382.423937,965.871187 375.149724,962.796519 370.089402,956.647183 C365.02908,950.497848 358.071137,944.732846 349.215573,939.352177 C341.62509,933.971508 332.927662,919.366836 323.123288,895.53816 C313.318914,871.709484 309.681807,854.414478 312.211968,843.65314 C314.109589,827.511134 302.407594,782.544117 277.105984,708.752089 C269.515501,685.69208 265.72026,670.318741 265.72026,662.632071 C265.72026,651.870734 259.711127,617.665054 247.692862,560.015032 C243.897621,543.873026 242,533.688189 242,529.460521 C242,525.232852 244.846431,521.581684 250.539293,518.507016 C254.967075,513.895015 263.190099,513.510681 275.208363,517.354016 C301.142514,525.809352 314.109589,539.261024 314.109589,557.709031 C314.109589,567.701702 316.00721,575.964872 319.802451,582.498541 C323.597693,589.03221 325.495314,599.601381 325.495314,614.206053 C325.495314,623.430056 325.969719,629.002892 326.918529,630.924559 C327.86734,632.846227 329.923095,633.038393 333.085797,631.501059 C364.712809,616.12772 395.391012,603.444715 425.120404,593.452045 C448.524393,584.996708 464.179764,578.270872 472.086518,573.274537 C479.993271,568.278202 499.443884,565.011367 530.438356,563.474034 L576.930065,560.015032 L590.21341,576.157038 C598.436434,586.918376 602.547945,599.985714 602.547945,615.359053 C602.547945,630.732392 599.701514,642.262397 594.008652,649.949066 C590.84595,656.098402 586.418169,659.74957 580.725306,660.902571 C575.032444,662.055571 559.218938,662.632071 533.284787,662.632071 C506.085556,661.863404 486.318673,663.016405 473.984138,666.091073 C461.649603,669.16574 447.575583,676.083743 431.762076,686.845081 C424.171593,692.225749 413.102139,694.916084 398.553713,694.916084 C384.005287,694.916084 372.303292,692.225749 363.447729,686.845081 C354.592165,681.464412 347.001682,673.393409 340.67628,662.632071 C331.188176,648.796066 326.444124,646.105732 326.444124,654.561068 C326.444124,659.17307 328.025475,666.85974 331.188176,677.621077 C335.615958,692.225749 337.829849,702.026253 337.829849,707.022588 C337.829849,712.018923 341.783225,724.317595 349.689978,743.918602 C357.596732,763.51961 363.763999,782.544117 368.191781,800.992124 C373.252103,820.977465 377.996155,832.315303 382.423937,835.005637 C386.851718,837.695971 397.604903,837.503805 414.68349,834.429137 C434.292237,830.585802 453.42658,827.126801 472.086518,824.052133 C490.746455,820.977465 509.564528,817.902797 528.540735,814.828129 C547.516943,811.753462 570.446527,809.831794 597.329488,809.063127 C624.212449,808.29446 640.816631,810.600461 647.142033,815.98113 C652.202355,820.593132 655.681327,822.706966 657.578947,822.322632 C659.476568,821.938299 661.690459,819.055798 664.22062,813.675129 C668.648402,804.451125 680.034126,773.320114 698.377794,720.282093 C708.498438,689.535415 716.721461,653.792401 723.046864,613.053052 C724.944484,599.985714 727.474646,587.302709 730.637347,575.004038 C733.800048,562.705367 735.065129,543.873026 734.432588,518.507016 L732.534968,481.611002 L717.354001,474.693 C695.215093,467.774997 676.71329,463.162995 661.848594,460.856994 C646.983898,458.550993 622.789233,457.01366 589.2646,456.244993 C528.540735,455.476326 478.886325,459.703994 440.30137,468.927997 C392.860851,479.689335 361.233838,490.450672 345.420332,501.21201 C339.094929,505.055345 332.927662,506.208345 326.918529,504.671011 C320.909397,503.133677 317.27229,503.902344 316.00721,506.977012 C311.579428,515.432349 297.979813,513.510681 275.208363,501.21201 C260.659938,494.294007 253.385725,487.952505 253.385725,482.187502 C253.385725,476.4225 255.283345,473.539999 259.078587,473.539999 C262.873828,473.539999 266.3528,470.849665 269.515501,465.468996 C275.208363,457.782327 300.193703,443.369821 344.471521,422.23148 C388.749339,401.093138 437.454939,390.523968 490.58832,390.523968 C517.155011,390.523968 530.438356,388.794467 530.438356,385.335466 C530.438356,381.876464 538.186974,381.107797 553.684211,383.029465 Z M387.950013,12.7751678 C410.72466,31.9970638 420.214096,53.1411493 416.418322,76.2074245 C415.785693,84.6650587 414.362277,91.0082844 412.148075,95.2371015 C409.933874,99.4659186 405.030998,103.886955 397.439449,108.50021 C386.684754,117.72672 381.307407,124.069945 381.307407,127.529887 C381.307407,130.989828 377.66979,137.909711 370.394555,148.289534 C363.119321,158.669358 359.481703,165.397022 359.481703,168.472525 C359.481703,171.548029 356.002243,177.699035 349.043323,186.925545 C342.084403,196.152055 337.339685,204.225252 334.809169,211.145134 C332.278652,214.989513 331.013394,217.48836 331.013394,218.641674 C331.013394,219.794987 332.911281,220.371644 336.707056,220.371644 C341.13546,220.371644 346.829122,218.833893 353.788042,215.758389 C361.379591,212.682886 383.521609,207.300755 420.214096,199.611997 C456.906584,191.923238 697.621953,160.014891 724.825004,156.939388 C760.252233,151.557257 780.18005,146.175126 784.608454,140.792995 C789.036857,135.410864 795.83762,133.873112 805.010742,136.17974 C814.183864,138.486367 823.831457,137.717492 833.953523,133.873112 C842.177701,130.797609 850.718194,130.797609 859.575001,133.873112 C868.431808,136.948616 875.390728,141.561871 880.451761,147.712878 C891.206456,163.85927 897.532747,181.927852 899.430634,201.918624 C901.328521,221.909396 898.48169,236.133599 890.890141,244.591233 C887.094367,247.666737 884.405693,249.396707 882.82412,249.781145 C881.242547,250.165583 878.237559,248.82005 873.809156,245.744547 C868.748123,241.131292 863.68709,239.785759 858.626057,241.707949 C853.565025,243.630138 842.81033,241.131292 826.361974,234.211409 C814.97465,229.598154 805.168899,226.907089 796.944721,226.138213 C788.720543,225.369337 771.639557,225.753775 745.701764,227.291527 C707.744019,228.829279 471.931525,259.007655 455.799483,264.774224 C439.667441,270.540793 427.014859,274.385172 417.841737,276.307362 C408.668615,278.229551 355.0533,303.792789 334.809169,293.028527 C314.565038,282.264265 314.248723,274.577391 311.085578,274.577391 C307.922432,274.577391 305.708231,271.886326 304.442972,266.504195 C303.177714,258.04656 300.014569,256.124371 294.953536,260.737626 C293.055649,263.813129 289.892503,268.810822 285.4641,275.730705 C274.709405,291.108221 253.358173,318.018876 221.410404,356.462668 C189.462635,394.90646 166.213516,421.817114 151.663046,437.194631 C126.990512,461.798658 110.542155,472.562919 102.317977,469.487416 C99.1548318,468.71854 101.685348,461.798658 109.909526,448.727768 L141.224666,400.288591 C153.244619,381.83557 160.994326,371.455747 164.473786,369.149119 C167.953246,366.842492 169.692976,363.574769 169.692976,359.345952 C169.692976,355.117135 171.274548,351.849413 174.437694,349.542785 C176.96821,347.236158 184.085287,336.664115 195.788926,317.826657 C207.492564,298.989199 213.344383,288.417156 213.344383,286.110529 C213.344383,283.803901 216.982,277.268456 224.257235,266.504195 C231.532469,255.739933 235.960873,248.051174 237.542446,243.437919 C239.124019,238.824664 242.445321,231.904782 247.506354,222.678272 C252.567387,213.451762 255.730532,206.531879 256.99579,201.918624 C258.261049,197.305369 263.322081,184.618918 272.178889,163.85927 C303.177714,84.6650587 318.677127,44.2990772 318.677127,42.7613255 C318.677127,42.6415007 318.730904,42.3629469 318.838459,41.9256642 L318.896717,41.6937954 C319.555488,39.1202854 321.696493,32.1718083 325.319732,20.8483641 C328.482878,11.621854 331.329709,6.04750419 333.860225,4.1253146 C336.390741,2.203125 342.400718,0.857592282 351.890154,0.088716443 C363.910107,-0.680159396 375.93006,3.54865772 387.950013,12.7751678 Z" id="Combined-Shape" fill="#000000" fill-rule="nonzero"></path>
    </g>
</svg>