<?xml version="1.0" encoding="UTF-8"?>
<svg width="1000px" height="1000px" viewBox="0 0 1000 1000" version="1.1" xmlns="http://www.w3.org/2000/svg" xmlns:xlink="http://www.w3.org/1999/xlink">
    <title>打圆_char</title>
    <g id="打圆_char" stroke="none" stroke-width="1" fill="none" fill-rule="evenodd">
        <g id="龱团口囚丁" transform="translate(95.000000, 0.000000)" fill="#000000" fill-rule="nonzero">
            <path d="M508.166284,0.27719208 C520.76237,1.10876832 546.164477,3.39560298 584.372606,7.13769607 C622.580734,10.8797891 646.513298,10.8797891 656.170297,7.13769607 C665.827296,3.39560298 679.473057,2.7719208 697.107577,5.26664952 C714.742098,7.76137825 733.006423,17.116611 751.900552,33.3323476 C770.794682,49.5480843 780.871551,59.7348933 782.131159,63.8927745 C783.390768,68.0506557 786.539789,71.7927488 791.578224,75.1190537 C799.135876,80.9400874 801.235223,183.639753 797.876267,383.218051 C796.196789,423.13371 797.876267,480.096683 802.914701,554.106968 C815.510788,786.11674 811.312092,915.842633 790.318615,943.284649 C785.280181,948.274106 774.363573,968.231936 757.568791,1003.15814 C744.132966,1031.43173 731.53688,1050.97377 719.780532,1061.78426 C708.024185,1072.59475 693.748621,1078 676.953839,1078 C665.197492,1078 655.750427,1075.50527 648.612645,1070.51581 C641.474863,1065.52636 634.127146,1056.37902 626.569494,1043.0738 C619.851582,1029.76858 614.183343,1023.11597 609.564778,1023.11597 C604.946213,1023.11597 602.217061,1022.0765 601.377322,1019.99756 C600.537583,1017.91862 591.720322,1011.26601 574.925541,1000.03973 C558.130759,988.813448 546.794282,981.952944 540.916108,979.458215 C535.037934,977.795063 529.57963,971.350347 524.541196,960.124068 C519.502761,948.897789 515.723936,943.284649 513.204718,943.284649 C509.845762,943.284649 504.807328,935.592569 498.089415,920.208408 C491.371502,904.824248 488.012546,893.390075 488.012546,885.905888 C488.012546,877.590126 489.06222,873.432245 491.161567,873.432245 C493.260915,873.432245 507.746414,880.916431 534.618065,895.884803 C558.130759,908.358447 574.295737,913.971587 583.112997,912.724222 C591.930257,911.476858 602.217061,902.537413 613.973408,885.905888 C633.287407,862.621754 642.944406,807.737722 642.944406,721.253793 L642.944406,385.71278 L642.944406,385.71278 C642.944406,251.829005 641.474863,173.452944 638.535776,150.584598 C635.596689,127.716251 626.149625,115.034713 610.194582,112.539985 L602.636931,112.539985 L602.636931,112.539985 C585.842149,110.045256 535.457804,108.797891 451.483896,108.797891 C380.106074,108.797891 333.500555,110.461044 311.667339,113.787349 C289.834123,117.113654 260.443255,127.092569 223.494735,143.724094 C205.860214,151.20828 188.435629,153.703008 171.220977,151.20828 C154.006326,148.713551 140.360566,147.466187 130.283697,147.466187 C105.931264,147.466187 93.7550471,139.566212 93.7550471,123.766264 C93.7550471,115.450501 96.4841991,107.758421 101.942503,100.690023 C107.400807,93.6216251 113.069046,90.0874261 118.94722,90.0874261 C123.145915,90.0874261 137.631414,83.6427102 162.403717,70.7532785 C187.17602,57.8638467 202.711193,51.4191309 209.009236,51.4191309 C215.307279,51.4191309 229.372909,47.6770378 251.206125,40.1928516 C264.64195,35.2033942 291.723536,28.7586783 332.450881,20.858704 C373.178227,12.9587298 399.420073,8.59295449 411.17642,7.76137825 C416.214854,7.76137825 430.490419,6.30611983 454.003113,3.39560298 C477.515807,0.48508614 495.570198,-0.55438416 508.166284,0.27719208 Z M123.719193,166.015547 L136.271871,175.987648 L133.761335,247.038864 C131.2508,320.998609 130.204743,398.49014 130.623166,479.513456 C130.902114,533.529 128.60079,594.400364 123.719193,662.127546 L118.698122,720.713637 C117.024431,758.940022 115.350741,799.243928 113.677051,841.625355 C112.840205,872.372665 111.584938,891.485857 109.911247,898.964933 C108.237557,906.444008 103.634908,914.754092 96.1033017,923.895184 C86.0611594,937.191318 75.6005945,946.33241 64.721607,951.31846 C58.0268455,956.304511 53.6334082,958.589784 51.5412953,958.174279 C49.4491823,957.758775 46.7294354,955.057998 43.3820547,950.071948 C37.5241383,943.423881 30.8293768,928.46573 23.2977701,905.197496 C15.7661634,881.929261 9.07140186,865.724598 3.21348553,856.583506 C-3.48127599,844.949389 0.284527365,830.406742 14.5108956,812.955566 C23.7161927,802.983466 32.0846446,721.960149 39.6162513,569.885617 C42.9636321,506.72898 47.5662806,440.040558 53.424197,369.820351 C59.2821133,299.600143 61.7926489,250.778401 60.9558037,223.355125 C60.9558037,205.072941 61.5834376,193.023319 62.8387053,187.206261 C64.0939731,181.389202 67.6505652,175.156639 73.5084815,168.508572 C88.5716949,151.888405 105.308599,151.057396 123.719193,166.015547 Z M461.975828,721.197133 C472.486667,722.438158 490.355092,723.058671 515.581104,723.058671 C533.239313,723.058671 544.801235,724.092859 550.266871,726.161235 C555.732507,728.229612 563.090094,733.400552 572.339632,741.674057 C584.952638,754.911664 593.151092,768.149272 596.934994,781.386879 C600.718896,794.624487 604.713014,802.897991 608.91735,806.207393 C617.326021,816.135599 614.803419,827.30483 601.349546,839.715087 C596.304344,843.85184 589.577407,845.920216 581.168736,845.920216 C572.760066,845.920216 550.056655,843.85184 513.058503,839.715087 L409.631853,828.545856 C391.973644,826.063804 379.570855,826.891155 372.423485,831.027907 C365.276115,835.16466 348.458773,838.060386 321.97146,839.715087 C295.484147,841.369788 276.144204,845.713378 263.951632,852.745857 C251.759059,859.778336 242.299305,862.8809 235.572368,862.05355 C228.845431,861.226199 213.709824,856.262097 190.165546,847.161241 C169.984736,838.060386 156.320646,829.373206 149.173276,821.099702 C142.025906,812.826197 138.452221,802.070641 138.452221,788.833033 C138.452221,783.868931 140.554388,779.525341 144.758724,775.802263 C148.963059,772.079186 158.633031,767.321921 173.768638,761.530468 C198.99465,749.947561 221.067411,742.087732 239.98692,737.95098 C258.906429,733.814227 295.694364,730.09115 350.350724,726.781748 C414.256622,721.817645 451.46499,719.956107 461.975828,721.197133 Z M569.197389,260.058058 C573.598343,260.058058 577.980724,261.02509 582.373662,263.933174 C584.534116,265.363374 586.378729,267.085737 587.887332,269.017381 L588.229497,269.466823 L588.465545,269.791351 L589.073743,270.151762 L590.661559,271.103107 C591.200535,271.42858 591.749239,271.762421 592.307735,272.104658 L594.012671,273.156584 L595.776766,274.259056 L596.681123,274.829299 L597.653285,275.444749 L598.008937,275.657225 L598.445099,275.657756 L600.568519,276.079462 C605.839637,277.126291 609.743028,279.451898 613.516101,282.698958 C615.695117,284.574194 617.829876,286.81511 620.085432,289.502792 C624.50062,294.763856 627.964954,300.411999 630.39533,306.422648 L630.706465,307.2087 L631.285549,308.703758 L631.635398,310.267034 C633.618623,319.12895 631.389852,327.272014 626.373296,336.707385 L625.770338,337.823512 C625.667729,338.010567 625.564071,338.198149 625.459373,338.386274 C623.029609,342.752151 620.487279,346.429814 617.614737,349.501624 C614.118509,353.240384 610.10698,356.156538 605.307174,357.859463 L604.722234,358.058941 L604.480752,358.156208 C597.407705,360.924042 589.906205,360.843628 582.02364,358.860141 L581.189717,358.642723 L580.880313,358.598352 L580.502381,358.551802 L580.057175,358.504013 L579.477415,358.449936 L578.764335,358.392989 L577.987475,358.340328 L577.147703,358.292163 L576.245886,358.248701 L575.282892,358.210152 L574.259587,358.176723 L573.187911,358.148867 L572.076317,358.12667 L570.318821,358.103527 L568.453973,358.092591 L567.151532,358.092097 L564.405708,358.107455 L562.224035,358.133311 L559.153722,358.186953 L555.900829,358.262563 L553.342583,358.333727 L551.581106,358.38807 L547.599413,358.521895 L543.499594,358.641798 L540.347177,358.722594 L536.040505,358.81815 L533.842819,358.860714 L529.35871,358.935417 L524.756241,358.996225 L520.035355,359.043146 L516.416947,359.069226 L511.488701,359.091859 L506.441885,359.10062 L499.966545,359.092077 L495.992328,359.076559 L489.220203,359.033382 L483.668854,358.983266 L477.998646,358.919314 L470.743655,358.819925 L463.302752,358.698939 L458.748928,358.615986 L451.010341,358.46047 C452.709231,361.048901 454.363965,364.036712 456.063703,367.495592 C458.421555,372.293698 460.095302,376.419614 461.101939,380.228867 C461.849422,383.057446 462.269999,385.815888 462.2319,388.737251 C462.211756,390.281836 462.066888,391.823589 461.773366,393.349928 L461.638399,394.003093 L461.529933,394.46599 L461.468804,397.360545 L461.420899,400.706095 L461.372906,405.64489 L461.330126,412.705526 L461.289975,429.177114 L461.253273,465.196598 L461.169127,485.28182 L461.096339,494.658153 L461.019876,501.33001 L460.938268,506.343421 L460.845553,510.306187 L460.809068,511.487438 L460.761821,512.777553 L460.684404,514.617229 L460.598657,516.344927 L460.5366,517.435969 L460.470443,518.479426 L460.400029,519.476169 L460.286077,520.885603 L460.204325,521.76938 L460.11776,522.609497 C460.088085,522.882356 460.057581,523.148085 460.026223,523.406828 C459.760365,525.600457 459.42496,527.475192 458.859943,529.394852 C458.766678,529.711719 458.668884,530.02591 458.565158,530.338558 L458.404945,530.806514 L458.244145,531.245738 L458.166558,532.5011 L458.084474,534.045971 L457.98675,536.230505 L457.912579,538.179102 L457.825016,540.863652 L457.775288,542.605979 L457.682323,546.383835 L457.572251,552.021832 L457.478314,558.245812 L457.399409,562.595404 L457.310215,566.755312 L457.189379,571.498388 L457.076995,575.244913 L456.953819,578.805322 L456.819695,582.180727 L456.674466,585.372245 L456.550181,587.793808 L456.384567,590.657135 L456.279667,592.288292 L456.095507,594.862927 L455.939694,596.793713 L455.776251,598.61052 L455.648614,599.89867 L455.516606,601.123269 L455.426157,601.904481 L455.28679,603.023695 C453.871226,613.898175 451.089748,623.273113 446.667606,631.153386 C445.429611,633.359499 443.93703,635.682148 442.182946,638.140287 L441.415165,639.202125 L440.615243,640.280886 C440.479237,640.462108 440.341887,640.644049 440.20319,640.826716 L439.354828,641.931482 L438.474022,643.054 C438.025487,643.619751 437.564741,644.192284 437.091714,644.771784 L436.129268,645.94013 C435.802981,646.332712 435.471216,646.728446 435.133953,647.127387 L434.10565,648.333888 C433.931511,648.536593 433.755991,648.740114 433.57909,648.944458 L432.501077,650.180445 C432.318637,650.388107 432.13481,650.596604 431.949594,650.805945 L430.821598,652.072165 L429.66013,653.358954 L428.465068,654.666644 L427.236291,655.995567 L426.344919,656.95079 L426.070594,657.223971 C400.663899,682.524613 370.62369,683.364982 347.746242,657.816913 L347.341736,657.358789 L345.666715,655.552077 L344.491379,654.296067 L342.75996,652.463385 L341.626907,651.275897 L340.51097,650.115911 L339.412265,648.983481 L338.330909,647.87866 L336.741656,646.273312 L335.704176,645.237748 L334.684451,644.22998 L333.188404,642.770563 L332.21357,641.83252 L330.785404,640.477941 L329.856185,639.609957 L328.945416,638.770089 L328.053211,637.958393 L327.179687,637.17492 L326.32496,636.419726 L325.489146,635.692862 C325.351426,635.574082 325.214499,635.456484 325.078367,635.340071 L324.271139,634.655804 C324.138198,634.54413 324.006057,634.433642 323.874718,634.324341 L323.096337,633.682791 L322.337332,633.069787 C322.212452,632.970001 322.088385,632.871407 321.965132,632.774005 L321.235409,632.203918 L320.525351,631.662509 L319.835075,631.149833 L319.164697,630.665942 L318.514333,630.21089 L318.196692,629.994196 L317.884098,629.784731 C310.71548,625.025601 304.923251,619.088278 300.744725,612.051205 L300.004825,610.781531 L299.678373,610.236125 L299.380416,609.753678 L299.218143,609.498394 L299.086019,609.399621 C294.791967,606.115046 291.605203,601.590816 290.040585,596.251286 L289.894252,595.732026 L289.772764,595.266257 C288.527079,590.304318 288.527079,585.131721 290.235688,580.02729 C293.754736,569.514215 303.248266,563.841874 313.261578,563.841874 C320.032095,563.841874 325.346037,566.060597 331.25298,569.971388 L331.775771,570.320836 L332.089098,570.535007 L332.406445,570.659395 L332.88394,570.836487 L333.421833,571.0252 L334.019031,571.224817 L334.674442,571.434621 C334.788467,571.470397 334.904872,571.506568 335.023635,571.543118 L335.764316,571.766857 L336.560477,571.998989 L337.476279,572.256946 L338.440415,572.519582 L339.976848,572.922142 L341.061022,573.196143 L342.192892,573.474559 L343.372275,573.757314 L344.598989,574.044333 L345.87285,574.33554 L348.561285,574.93022 L350.700016,575.386665 L352.94298,575.851772 L355.569862,576.381113 L357.230407,576.759591 L358.558362,577.068296 L359.833819,577.370899 L361.651557,577.814654 L362.801744,578.104583 L363.904214,578.390475 L364.960332,578.672918 L365.971466,578.952503 L366.938981,579.229819 C367.096674,579.275882 367.252607,579.321875 367.406808,579.36781 L368.311456,579.642828 L369.193203,579.921916 L370.024092,579.687978 L370.305709,579.604719 C371.163736,579.348386 371.944379,579.093743 372.645344,578.844376 L373.056344,578.695418 L373.304253,578.601123 L373.490536,577.910742 L373.717735,577.025714 L373.949821,576.082315 L374.186537,575.081089 L374.427624,574.02258 L374.67282,572.907332 C374.714015,572.71676 374.75537,572.523845 374.796879,572.328601 L375.047756,571.129264 L375.302096,569.874548 L375.659031,568.048809 L375.75257,567.536964 C376.177091,565.161248 376.541598,562.487911 376.842985,559.523207 L376.977594,558.134216 C376.999278,557.899277 377.020586,557.66262 377.041516,557.424247 L377.162552,555.973446 L377.274454,554.481609 L377.377156,552.948874 L377.470589,551.375376 C377.485385,551.109737 377.499792,550.842405 377.513808,550.573384 L377.59321,548.938999 L377.663174,547.264193 C377.674044,546.981698 377.684519,546.697524 377.694595,546.411675 L377.750274,544.676494 L377.796345,542.901235 C377.803219,542.602026 377.80969,542.301153 377.815756,541.998618 L377.847288,540.163496 L377.886447,536.44831 L377.926759,528.285826 L377.9345,523.364817 L377.927816,513.262016 L377.892859,500.830871 L377.757853,473.656848 L377.626843,453.532188 L376.343393,361.587241 L374.458735,361.794044 C374.148184,361.828888 373.839414,361.86392 373.532428,361.899139 L371.711926,362.112686 L369.934329,362.330669 L368.199744,362.55304 L366.508276,362.779751 L364.860034,363.010753 L363.255124,363.246 L361.693653,363.485442 L360.175727,363.729032 C359.926374,363.769973 359.67884,363.811085 359.433128,363.852367 L357.980721,364.102088 L356.572127,364.355836 C356.341019,364.39846 356.11174,364.441251 355.884294,364.484206 L354.54162,364.743905 C354.321511,364.787515 354.103239,364.831288 353.886806,364.875223 L352.610292,365.140765 L351.378019,365.410142 C350.77296,365.545782 350.184531,365.682841 349.612793,365.821294 L348.883244,366.000963 L348.130695,366.226465 C341.344202,368.23107 334.904517,369.760969 328.795693,370.806643 L327.578335,371.009318 L325.394427,371.35147 L324.391602,371.514666 L323.432754,371.677526 L322.518486,371.839722 L321.231999,372.08106 L320.431835,372.240174 L319.678371,372.397484 L318.972215,372.552666 L318.003006,372.780734 L317.417766,372.929168 L316.881954,373.074334 L316.396174,373.215905 L315.961033,373.353556 L315.318195,373.560692 L314.611543,373.777646 L313.840211,374.004675 L313.003333,374.242032 L311.460528,374.661274 L309.729238,375.111095 L308.205802,375.493763 L306.557119,375.897362 L303.364372,376.655843 L299.224031,377.60759 L294.543704,378.654542 L289.306971,379.801533 L285.695295,380.579463 L284.345803,380.877279 C284.124568,380.926879 283.905177,380.976457 283.687638,381.026009 L282.404691,381.322946 L281.166548,381.618961 L279.973565,381.913785 L278.826093,382.207148 L277.724488,382.498783 L276.669102,382.788418 L275.66029,383.075786 C275.496055,383.123477 275.333776,383.171062 275.173459,383.218536 L274.23517,383.501998 C274.082734,383.549004 273.932275,383.595888 273.7838,383.642643 L272.916831,383.921594 L272.097849,384.1972 L271.327209,384.469194 C271.202817,384.51421 271.080454,384.559064 270.960128,384.603752 L270.543271,384.760753 L270.439946,384.957184 C267.856432,389.764294 263.722517,393.66766 258.403649,395.969102 L257.901545,396.180148 L257.459926,396.355711 C251.703971,398.583819 246.078603,398.617673 240.238283,397.414033 C233.775402,396.082089 226.505053,393.000583 217.607508,388.150225 L215.850786,387.180064 C200.533374,378.434328 189.592658,369.082032 183.225752,358.231413 L182.814182,357.517173 L182.735656,357.374219 C180.003833,352.401005 178.471914,347.146041 178.839904,341.299495 C179.333898,333.451026 183.341255,326.553661 189.659974,322.071947 C189.854281,321.93413 190.05214,321.796607 190.253575,321.659363 L190.868634,321.248452 L191.5053,320.83912 L192.163723,320.431273 L192.84405,320.024817 L193.546432,319.619659 C193.665342,319.552235 193.785177,319.484862 193.90594,319.417536 L194.641682,319.014147 L195.399852,318.611821 L196.180597,318.210462 L196.984067,317.809978 L197.810411,317.410273 L198.659778,317.011255 C198.803266,316.944804 198.94772,316.878378 199.093142,316.811974 L199.977323,316.41381 L200.8849,316.016096 L201.816021,315.61874 L202.770836,315.221646 L203.749493,314.824723 L204.752142,314.427874 L205.778932,314.031007 L206.830012,313.634027 L207.90553,313.23684 L209.564957,312.640467 L211.280209,312.0431 L212.454973,311.644147 L214.264386,311.044419 L215.50239,310.643598 L217.40736,310.040628 L218.709535,309.637351 L220.71146,309.030258 L222.078737,308.623939 L223.472316,308.216238 L225.612326,307.601891 L227.812353,306.983907 L230.072901,306.361968 L232.394472,305.735758 L234.777569,305.104958 L237.222695,304.469253 L239.730354,303.828324 L242.301049,303.181855 L244.935281,302.529528 L247.633555,301.871026 L248.547298,301.650099 C276.549652,294.894982 302.584363,290.345284 326.673552,288.017749 L327.970417,287.893982 L332.910594,287.261883 L338.315817,286.557158 L343.829585,285.825645 L349.451874,285.067346 L353.260343,284.546932 L359.063442,283.74399 L364.974995,282.914263 L370.994975,282.057752 L375.261551,281.444857 L377.915042,281.095724 L379.317214,280.918571 L382.272529,280.559074 L384.621207,280.284899 L387.083282,280.006809 L390.542581,279.629914 L394.203803,279.246015 L399.064573,278.756254 L404.241513,278.25546 L409.73499,277.743583 L415.545374,277.220575 L421.673033,276.686385 L429.445546,276.030528 L436.272507,275.471564 L441.963346,275.01623 L450.882163,274.319566 L461.868423,273.485966 L473.48131,272.629809 L485.721836,271.750958 L498.591012,270.849279 L502.564597,270.575732 L504.917092,270.43019 L507.967687,270.231816 L510.919023,270.028783 L514.467117,269.768902 L517.191538,269.556492 L519.813515,269.340407 L522.945432,269.065592 L525.913835,268.786096 L527.615595,268.616397 L530.318396,268.330639 L531.859324,268.157637 L533.818826,267.925425 L535.66878,267.69173 L536.983764,267.515666 L538.236163,267.339065 L539.425563,267.162053 L540.55155,266.98476 L541.613712,266.807312 L542.611634,266.629836 L543.841554,266.393381 L544.687977,266.216338 L545.468782,266.039693 L546.183557,265.863573 L546.831887,265.688106 L547.092315,265.612078 L548.524075,265.100503 L549.734654,264.674039 L551.445757,264.082447 L552.517795,263.71984 L553.535794,263.382439 L554.50054,263.070051 L555.41282,262.782483 L555.849532,262.647946 C558.396899,261.869638 560.656373,261.25774 562.694572,260.807984 C564.833867,260.335919 566.932547,260.058058 569.197389,260.058058 Z" id="Combined-Shape"></path>
        </g>
    </g>
</svg>