<?xml version="1.0" encoding="UTF-8"?>
<svg width="1000px" height="1000px" viewBox="0 0 1000 1000" version="1.1" xmlns="http://www.w3.org/2000/svg" xmlns:xlink="http://www.w3.org/1999/xlink">
    <title>撇起_char</title>
    <g id="撇起_char" stroke="none" stroke-width="1" fill="none" fill-rule="evenodd">
        <g id="巾已" transform="translate(182.000000, 487.000000)" fill="#000000" fill-rule="nonzero">
            <path d="M297.037868,6.34116193 C300.01122,2.11372064 303.430575,0 307.295933,0 C311.16129,0 318.743338,2.53646477 330.042076,7.60939431 C341.935484,12.2595797 357.69425,17.6495674 377.318373,23.7793572 C396.942496,29.9091471 410.025245,35.9332509 416.56662,41.8516687 C420.729313,46.07911 423.256662,50.9406675 424.148668,56.4363412 C425.040673,61.9320148 424,65.1025958 421.026648,65.9480841 C418.647966,67.2163164 416.56662,70.5982695 414.782609,76.0939431 C412.998597,81.5896168 408.984572,85.394314 402.740533,87.5080346 C396.496494,89.6217553 392.482468,92.8980222 390.698457,97.3368356 C388.914446,101.775649 374.939691,113.295426 348.774194,131.896168 C317.256662,155.147095 301.795231,168.252163 302.389902,171.211372 C302.984572,173.325093 308.931276,174.804697 320.230014,175.650185 C343.42216,177.763906 355.018233,187.487021 355.018233,204.81953 C355.018233,210.737948 354.274895,214.648331 352.788219,216.55068 C351.301543,218.453028 348.476858,220.461063 344.314165,222.574784 C335.394109,225.956737 322.906031,227.224969 306.84993,226.379481 C292.57784,225.111248 269.831697,225.322621 238.611501,227.013597 C207.391304,228.704574 185.834502,230.818294 173.941094,233.354759 C162.047686,236.313968 150.451613,238.850433 139.152875,240.964153 C127.854137,243.077874 118.042076,246.248455 109.71669,250.475896 C101.391304,254.703337 91.430575,256.817058 79.8345021,256.817058 C68.2384292,256.817058 61.3997195,257.979604 59.3183731,260.304697 C57.2370266,262.62979 56.1963534,275.734858 56.1963534,299.619901 C56.1963534,323.504944 56.7910238,343.690977 57.9803647,360.177998 C60.3590463,383.00618 66.3057504,398.859085 75.8204769,407.736712 C85.3352034,416.614339 101.985975,421.687268 125.772791,422.955501 C176.914446,426.337454 233.259467,428.134116 294.807854,428.345488 C356.356241,428.55686 400.213184,427.394314 426.378682,424.857849 C481.683029,418.939431 518.84993,411.964153 537.879383,403.932015 C545.610098,400.127318 552.448808,395.26576 558.395512,389.347342 C564.342216,383.428925 567.315568,377.721879 567.315568,372.226205 C567.315568,362.925834 572.667602,341.577256 583.371669,308.18047 L587.831697,294.229913 L591.399719,305.009889 C592.58906,312.619283 594.670407,324.350433 597.643759,340.203337 C600.617111,356.056242 605.225806,369.266996 611.469846,379.8356 C617.713885,390.404203 621.72791,398.964771 623.511921,405.517305 C625.295933,412.069839 627.823282,416.508653 631.093969,418.833745 C634.364656,421.158838 636,427.182942 636,436.906057 C636,446.629172 632.431978,455.295426 625.295933,462.904821 C612.213184,475.587145 601.509116,482.139679 593.183731,482.562423 C589.021038,482.562423 583.966339,484.464771 578.019635,488.269468 C551.854137,504.756489 502.496494,513 429.946704,513 C385.346424,513 330.636746,512.260198 265.817672,510.780593 C200.998597,509.300989 160.56101,507.504326 144.504909,505.390606 C118.339411,502.431397 97.6746143,497.781211 82.5105189,491.440049 C67.3464236,485.098888 52.0336606,474.530284 36.57223,459.73424 C18.7321178,444.092707 8.02805049,426.97157 4.46002805,408.370828 C1.48667602,398.647713 0,376.136588 0,340.837454 C0,305.538319 1.48667602,283.027194 4.46002805,273.304079 C8.02805049,256.817058 12.7854137,216.656366 18.7321178,152.822002 C19.9214586,133.798517 22.8948107,121.961681 27.6521739,117.311496 L35.6802244,110.970334 L49.9523142,122.384425 C60.0617111,130.416564 64.2244039,136.334981 62.4403927,140.139679 C60.6563815,143.521632 59.3183731,156.098269 58.4263675,177.869592 C57.5343619,199.640915 57.9803647,211.372064 59.7643759,213.063041 C61.5483871,214.754017 70.171108,213.274413 85.6325386,208.624227 C97.5259467,204.396786 115.663394,199.535229 140.044881,194.039555 C164.426367,188.543881 179.293128,185.796044 184.645161,185.796044 C188.213184,185.796044 199.957924,178.18665 219.879383,162.967862 C239.800842,147.749073 251.248247,137.391842 254.221599,131.896168 C265.520337,106.53152 272.359046,84.9715698 274.737728,67.2163164 L277.413745,51.3634116 L244.409537,51.3634116 C217.649369,50.9406675 196.241234,51.3634116 180.185133,52.631644 C142.126227,56.013597 116.852735,60.8751545 104.364656,67.2163164 C91.2819074,74.4029666 78.4964937,72.500618 66.0084151,61.5092707 C62.4403927,57.2818294 60.8050491,52.8430161 61.1023843,48.1928307 C61.3997195,43.5426452 63.9270687,40.5834363 68.684432,39.315204 C127.556802,27.0556242 183.45582,20.9258344 236.381487,20.9258344 C264.330996,20.9258344 279.049088,19.657602 280.535764,17.1211372 C282.02244,14.5846724 284.401122,13.31644 287.671809,13.31644 C290.942496,13.31644 294.064516,10.9913473 297.037868,6.34116193 Z" id="已"></path>
        </g>
        <path d="M469.705112,0.366290976 C474.133733,0.93607694 480.776664,1.79075588 489.633905,2.93032781 C499.081629,4.06989974 508.824594,7.96343715 518.862801,14.6109401 C528.901008,21.258443 538.05349,29.9001967 546.320249,40.5362014 C552.815559,50.0326341 550.74887,58.7693522 540.12018,66.7463557 C534.924248,70.0888964 532.940152,96.5239481 534.16789,146.051511 C542.267911,146.449344 548.340308,146.860876 550.990037,147.268783 C564.54674,149.355744 575.451046,150.399225 583.702952,150.399225 C592.54428,150.399225 597.554367,151.063257 598.73321,152.391323 C599.912054,153.719389 611.11107,154.76287 632.330258,155.521765 C653.549446,156.280659 667.990283,157.988173 675.652768,160.644305 C683.315252,163.300437 694.808979,165.387397 710.133948,166.905187 C738.426199,169.940766 760.824231,176.960543 777.328044,187.964518 C787.937638,195.553466 794.126568,202.762967 795.894834,209.593021 C798.841943,222.114785 795.894834,231.980418 787.053506,239.189919 C784.106396,241.846051 780.864576,278.65245 777.328044,349.609116 C776.1492,372.755408 774.380935,388.312751 772.023247,396.281147 C769.66556,404.249543 767.897294,411.838491 766.71845,419.047992 C764.360763,428.913625 758.761255,440.202185 749.919926,452.913673 C741.078598,465.625162 731.942558,475.016485 722.511808,481.087644 C718.975277,483.364328 712.786347,487.917697 703.945018,494.74775 C694.514268,502.336699 673.000369,513.15095 639.403321,527.190504 C628.793727,532.12332 618.92091,533.261663 609.784871,530.605531 C600.648831,527.949399 589.597171,520.929622 576.629889,509.546199 C554.231857,490.573829 537.138622,479.38013 525.350185,475.965104 C518.277122,473.688419 511.940836,470.273392 506.341328,465.720023 C500.74182,461.166654 495.87909,458.88997 491.753137,458.88997 C480.554121,458.88997 473.186347,455.474943 469.649815,448.64489 C467.292128,443.712074 469.649815,440.866218 476.722878,440.107323 C482.617097,439.727876 500.594465,437.830639 530.654982,434.415612 C576.040467,429.103348 601.975031,423.980808 608.458672,419.047992 C612.584625,416.012413 615.67909,414.494623 617.742066,414.494623 C619.805043,414.494623 624.962485,412.407662 633.214391,408.233741 C650.307626,399.885898 661.211931,374.842368 665.927306,333.103153 C667.695572,313.751335 668.874416,289.94101 669.463838,261.672178 C669.575828,256.3011 669.634623,251.358086 669.640222,246.843136 L669.640222,245.431592 C669.61694,227.03361 668.674012,216.036038 666.811439,212.438876 C665.632595,209.02385 661.948708,206.747165 655.759779,205.608823 C649.570849,204.470481 639.845387,202.004072 626.583395,198.209598 C613.321402,194.415124 601.68032,191.948716 591.660148,190.810374 C581.639975,189.672032 573.388069,188.05938 566.904428,185.972419 C560.420787,183.885459 551.284748,182.083083 539.49631,180.565294 C538.0188,180.429413 536.640496,180.314821 535.361398,180.221517 C535.466832,182.622033 535.576551,185.062493 535.691559,187.54098 C538.05349,223.247567 537.463008,247.558435 533.920111,260.473583 C533.235951,264.246041 532.640767,267.721899 532.13456,270.901158 C540.73937,271.526107 547.318905,272.719024 551.87417,274.478528 C578.398155,285.482503 599.617343,296.296754 615.531734,306.921282 C626.73075,314.51023 633.509102,319.443046 635.86679,321.719731 C638.224477,323.996415 639.403321,327.980613 639.403321,333.672324 C639.403321,351.506353 629.383149,364.597288 609.342804,372.945131 C588.123616,382.051869 570.73567,384.708001 557.178967,380.913527 C550.91656,378.897777 540.149115,371.379137 524.876632,358.357605 C522.142974,364.980904 518.662355,369.198738 514.434181,371.01206 C512.07225,372.911347 509.415077,377.089777 506.462663,383.547351 C501.148319,395.702785 486.976733,410 457.747837,410 C428.518941,410 434.71901,327.32847 436.490458,318.591751 C436.832876,317.62253 437.171323,316.396556 437.505799,314.913828 C428.821538,322.972113 419.348158,331.122979 409.086716,339.364035 C379.32091,363.269222 352.060148,380.344356 327.304428,390.589436 L306.08524,399.696174 L308.737638,420.755505 C311.095326,430.24169 311.832103,436.692296 310.94797,440.107323 C310.063838,443.52235 308.148216,447.506548 305.201107,452.059917 C299.306888,459.269417 296.359779,463.822786 296.359779,465.720023 C296.359779,467.61726 293.265314,470.17853 287.076384,473.403833 C280.887454,476.629136 277.203567,479.664716 276.024723,482.510571 C274.845879,485.356427 271.014637,487.348526 264.530996,488.486868 C258.047355,489.62521 250.974293,487.53825 243.311808,482.225986 C226.218573,470.083669 217.671956,457.182457 217.671956,443.52235 C218.261378,434.795059 218.556089,418.858268 218.556089,395.711976 C219.14551,372.945131 221.208487,359.664472 224.745018,355.869998 C228.870972,351.316629 228.870972,335.759285 224.745018,309.197966 C220.619065,282.636647 214.135424,257.403395 205.294096,233.498208 C201.168143,220.596996 198.810455,212.438876 198.221033,209.02385 C197.631611,205.608823 198.221033,201.055454 199.989299,195.363743 C201.757565,191.569269 204.85203,188.628551 209.272694,186.54159 C213.693358,184.45463 224.450308,180.755017 241.543542,175.442754 C259.392325,169.891228 275.5011,165.218251 289.869867,161.423824 C279.616908,161.683019 272.145786,159.513143 267.456307,154.914436 C263.861358,152.63737 260.445584,151.035332 257.208987,150.108321 C253.432957,149.026807 249.015038,145.370565 243.955228,139.139593 C238.895418,132.908621 236.337871,127.498287 236.282588,122.908592 C235.089348,117.161357 237.674993,109.689765 244.039524,100.493817 C250.404054,91.2978682 258.399753,84.6481393 268.026618,80.54463 C277.653484,76.4411206 303.577214,68.1694159 345.797809,55.7295158 C358.751811,51.9552414 373.069169,48.7793557 388.749881,46.2018586 C404.430594,43.6243616 412.810383,42.4901149 413.889249,42.7991187 C416.586413,43.5716281 415.968357,47.0329064 412.035081,53.1829534 C408.101806,59.3330004 402.144705,65.8389553 394.16378,72.7008181 C383.241712,82.8783482 370.772353,96.4589122 356.755704,113.44251 C342.739055,130.426108 333.571096,140.170479 329.251826,142.675624 C324.932556,145.180768 321.572066,148.168425 319.170356,151.638595 C318.272303,152.936169 317.090297,154.107198 315.624339,155.15168 C331.257356,151.724275 343.992225,149.76079 353.828413,149.260882 C357.344964,148.849278 362.205282,148.298148 368.409367,147.60749 L369.58838,147.476357 C374.566548,146.923155 380.364886,146.284793 386.983395,145.56127 C402.603075,143.853757 411.444403,143.094862 413.50738,143.284586 C415.570357,143.474309 420.727798,143.379447 428.979705,143 C430.273149,143 437.383502,143.129711 447.593759,143.356132 C447.86918,127.370916 448.004872,111.330563 448.004872,95.2356539 C448.595354,45.8542037 447.414389,20.5936927 444.461975,19.4541207 C442.100044,18.6944061 441.066699,17.1749769 441.361941,14.895833 C441.657182,12.6166892 443.42863,9.95768802 446.676285,6.91882955 C449.92394,3.87997108 453.614458,1.79075588 457.747837,0.651183958 C461.290733,-0.10853066 465.276492,-0.203494987 469.705112,0.366290976 Z M379.468266,176.581096 C349.997171,179.237228 325.830873,183.031702 306.969373,187.964518 C276.319434,195.553466 260.699754,201.434901 260.110332,205.608823 C260.110332,207.50606 261.583887,209.593021 264.530996,211.869705 C272.193481,215.664179 272.193481,221.545614 264.530996,229.51401 C260.405043,234.067379 259.52091,241.371741 261.878598,251.427098 C264.236285,261.482454 265.415129,268.502231 265.415129,272.486429 C265.415129,276.470627 267.478106,285.387641 271.604059,299.237472 C275.730012,313.087302 279.266544,326.652547 282.213653,339.933207 C286.339606,365.735631 292.823247,379.206014 301.664576,380.344356 C304.022263,380.344356 305.937884,378.826566 307.411439,375.790987 C308.884994,372.755408 314.926568,365.545907 325.536162,354.162484 C342.039975,336.328456 354.417835,322.099178 362.669742,311.474651 C373.279336,297.055649 383.594219,282.2572 393.614391,267.079304 C403.045141,253.419197 411.297048,234.067379 418.370111,209.02385 C420.727798,201.434901 423.232841,194.509986 425.88524,188.249104 C428.537638,181.988222 429.274416,178.098886 428.095572,176.581096 C425.148462,173.924964 408.93936,173.924964 379.468266,176.581096 Z M642.864178,47.3736329 C652.311902,47.7534903 668.697798,51.0772417 692.021867,57.3448873 C715.345935,63.6125329 731.731832,69.2154282 741.179556,74.1535732 C749.446314,78.7118609 757.12259,81.9406481 764.208383,83.8399346 C774.246589,87.6385077 784.580037,94.2860106 795.208727,103.782443 C798.751623,107.201159 800.670692,113.088947 800.965934,121.445808 C801.261175,129.802669 799.637348,136.450172 796.094451,141.388317 C784.875279,155.06318 779.265693,163.799898 779.265693,167.598471 C779.265693,169.877615 776.903762,171.776902 772.1799,173.296331 C767.456038,174.81576 762.436934,175.005689 757.12259,173.866117 C752.98921,173.106402 741.770038,167.408543 723.465073,156.772538 C705.160108,146.136533 696.007625,139.868888 696.007625,137.969601 C696.007625,137.209886 691.283763,134.360957 681.836039,129.422812 C668.254936,123.724952 651.721419,115.178163 632.235489,103.782443 C620.425834,96.1852971 609.501903,90.6773662 599.463696,87.2586504 C590.606455,84.2197919 582.930179,79.9463972 576.434869,74.4384662 C569.939559,68.9305352 566.691904,63.8974259 566.691904,59.3391382 C566.101421,55.9204224 567.577628,53.7362429 571.120524,52.7865996 C574.663421,51.8369563 584.111145,50.4124914 599.463696,48.5132049 C615.997213,47.3736329 630.46404,46.9937756 642.864178,47.3736329 Z" id="Combined-Shape" fill="#000000" fill-rule="nonzero"></path>
    </g>
</svg>