<?xml version="1.0" encoding="UTF-8"?>
<svg width="1000px" height="1000px" viewBox="0 0 1000 1000" version="1.1" xmlns="http://www.w3.org/2000/svg" xmlns:xlink="http://www.w3.org/1999/xlink">
    <title>撞_char</title>
    <g id="撞_char" stroke="none" stroke-width="1" fill="none" fill-rule="evenodd">
        <g id="立" transform="translate(0.000000, -0.000000)" fill="#000000" fill-rule="nonzero">
            <path d="M369.365603,524.740496 C384.694248,513.013966 393.891435,507.150701 396.957164,507.150701 C404.621487,507.150701 406.537568,511.841313 402.705406,521.222537 C395.807516,532.167298 389.676058,547.216345 384.311032,566.369677 C378.946006,585.523009 377.413142,596.272328 379.712439,598.617634 C382.778168,603.308246 383.736208,618.552735 382.58656,644.351101 C381.436911,670.149467 378.946006,684.612187 375.113845,687.739262 C370.515252,693.211642 362.659321,698.293138 351.546053,702.98375 C340.432785,707.674362 332.193639,709.2379 326.828613,707.674362 C322.230019,705.329056 313.416048,695.361506 300.3867,677.771711 C287.357352,660.181916 277.776948,643.569332 271.64549,627.933959 C267.046897,616.989198 263.406343,597.249539 260.723831,568.714983 C258.041318,540.180427 258.616142,523.176959 262.448303,517.704578 C263.981168,513.013966 268.771369,511.645871 276.818908,513.600293 C284.866447,515.554714 292.722377,520.049884 300.3867,527.085802 C306.518158,532.558183 315.715345,536.85791 327.978261,539.984985 C335.642584,540.766754 341.774042,540.571312 346.372635,539.398659 C350.971229,538.226006 358.635552,533.339951 369.365603,524.740496 Z M608.492468,412.165809 C616.923222,394.18513 621.1386,383.240369 621.1386,379.331526 C621.1386,375.422682 624.970761,373.468261 632.635084,373.468261 C639.532974,373.468261 653.328755,381.676832 674.022426,398.093974 C694.716097,414.511115 705.829364,426.62853 707.362229,434.446216 C710.427958,441.482134 716.559416,448.518052 725.756603,455.55397 C734.95379,462.589888 739.552384,473.339207 739.552384,487.801927 C739.552384,502.264647 735.720222,511.841313 728.0559,516.531925 C713.493687,525.131381 687.818206,554.056821 651.029458,603.308246 C639.532974,618.94362 628.99453,631.64736 619.414127,641.419469 C609.833724,651.191577 605.043522,658.618379 605.043522,663.699875 C605.043522,668.781372 600.061713,676.403616 590.098093,686.566609 C580.134474,696.729601 570.170855,710.21511 560.207235,727.023137 C550.243616,743.831163 538.363916,759.661978 524.568135,774.515583 L503.874464,796.795989 L633.784732,793.27803 C719.625145,791.714493 793.202642,790.150956 854.517222,788.587418 L944.189796,785.06946 L961.434522,803.831907 C975.996735,820.249049 987.110003,844.874762 994.774326,877.709046 C1002.43865,910.543329 1001.67222,930.47843 992.475029,937.514348 C987.110003,942.20496 971.014926,943.573055 944.189796,941.618633 C917.364667,939.664212 898.587077,935.559926 887.857026,929.305777 C866.396922,918.361016 836.88928,912.106867 799.3341,910.543329 C774.808268,908.979792 753.73138,907.02537 736.103438,904.680064 C652.562322,897.644146 569.787639,895.885167 487.779387,899.403126 C405.771135,902.921085 336.409016,911.715982 279.693029,925.787818 C259.76579,930.47843 240.221768,933.800947 221.060961,935.755368 C201.900155,937.70979 191.361711,940.055096 189.445631,942.791286 C187.52955,945.527477 180.63166,948.068225 168.75196,950.413531 C156.87226,952.758837 144.609344,957.449449 131.963211,964.485367 C119.317079,971.521285 111.461148,977.775434 108.395419,983.247814 C105.32969,989.501964 97.8569758,994.192576 85.9772758,997.31965 C74.0975758,1000.44672 63.5591322,1000.83761 54.3619451,998.492303 C42.8654613,995.365229 30.6025452,987.156658 17.5731968,973.866591 C9.14244193,965.267135 3.96902419,958.622102 2.05294355,953.93149 C0.136862903,949.240878 -0.43796129,942.986729 0.328470968,935.169042 C1.86133548,921.097206 5.69349677,910.543329 11.8249548,903.507411 C17.9564129,896.471493 29.4528968,890.608228 46.3144064,885.917616 C106.862555,865.591631 190.786887,845.656531 298.087403,826.112314 C334.109719,819.858165 357.102687,812.431363 367.066306,803.831907 C383.161384,788.978303 403.663447,764.35259 428.572495,729.954769 C453.481543,695.556948 475.133255,662.33178 493.527629,630.279265 C519.586326,586.50022 534.914971,562.265392 539.513564,557.57478 C551.77648,541.939407 566.72191,512.623082 584.349851,469.625806 L608.492468,412.165809 Z M538.363916,242.131126 C585.116284,239.78582 609.833724,236.854188 612.516237,233.336229 C615.19875,229.81827 628.611314,228.841059 652.75393,230.404596 C676.896547,231.968134 692.4168,235.095208 699.31469,239.78582 C707.745445,242.912895 715.792984,251.121466 723.457306,264.411533 C731.121629,277.7016 735.337006,289.42813 736.103438,299.591123 C736.103438,308.972346 731.888061,316.790033 723.457306,323.044182 C718.858713,328.516563 713.493687,331.448195 707.362229,331.83908 C701.230771,332.229964 687.43499,332.034522 665.974887,331.252753 C467.468932,316.399149 341.774042,325.780373 288.890216,359.396425 L272.795139,369.950302 L253.251116,360.569078 C234.856742,351.187854 225.084731,340.047651 223.935082,327.148468 C222.785434,314.249285 229.874932,304.281735 245.203577,297.245817 C267.430113,286.301055 306.32655,275.551736 361.892889,264.997859 C417.459227,254.443983 476.282903,246.821738 538.363916,242.131126 Z M347.522284,5.25522265 C364.383793,-3.34423259 393.508219,-1.38981095 434.895561,11.1184876 C460.954258,19.7179428 480.115064,28.5128402 492.377981,37.5031798 C504.640897,46.4935194 515.370948,60.3699131 524.568135,79.1323609 C531.466026,91.6406594 531.657634,111.966645 525.14296,140.110316 C518.628285,168.253988 509.622706,187.016436 498.126222,196.39766 C479.731848,213.59657 460.571042,219.850719 440.643803,215.160107 C433.745913,213.59657 426.464806,209.296843 418.800484,202.260925 C411.136161,195.225007 406.920784,188.970857 406.154351,183.498477 C406.154351,179.589633 403.663447,175.68079 398.681637,171.771947 C393.699827,167.863104 391.208922,163.172492 391.208922,157.700111 C391.208922,149.882424 385.460681,132.097187 373.964197,104.3444 C362.467713,76.5916127 352.88731,58.0246071 345.222987,48.6433832 C330.660774,27.5356294 331.427206,13.0729092 347.522284,5.25522265 Z"></path>
        </g>
    </g>
</svg>