<?xml version="1.0" encoding="UTF-8"?>
<svg width="1000px" height="1000px" viewBox="0 0 1000 1000" version="1.1" xmlns="http://www.w3.org/2000/svg" xmlns:xlink="http://www.w3.org/1999/xlink">
    <title>散_char</title>
    <g id="散_char" stroke="none" stroke-width="1" fill="none" fill-rule="evenodd">
        <g id="艹" transform="translate(0.000000, 233.000000)" fill="#000000" fill-rule="nonzero">
            <path d="M591.21844,3.25242941 C602.764601,-2.92718647 617.774611,-0.30084972 636.248469,11.1314396 C654.722327,22.563729 670.117209,38.1672591 682.433114,57.9420299 C690.130555,72.773108 692.632224,85.7503013 689.938119,96.8736099 C687.244015,107.996918 685.896963,122.827997 685.896963,141.366844 L685.896963,170.102058 L799.049343,169.175116 C852.161685,168.557154 885.068245,168.402664 897.769023,168.711644 C910.4698,169.020625 919.129421,171.029 923.747885,174.73677 C930.675582,179.680463 942.799052,187.559473 960.118294,198.373801 C977.437535,209.188128 988.406389,220.465927 993.024853,232.207197 C1009.18948,268.04897 997.258446,287.205779 957.231753,289.677625 C931.060454,290.295587 865.247335,284.733932 759.792395,272.992662 C712.068262,267.431008 685.512091,264.650181 680.123882,264.650181 C676.275162,264.650181 673.196185,267.739989 670.886953,273.919605 C668.577721,280.09922 665.113872,294.930299 660.495408,318.412839 C657.416432,337.569648 653.952583,350.237861 650.103863,356.417476 C642.406422,370.012631 635.093853,402.146634 628.166156,452.819484 C625.856924,463.324831 622.777948,471.821803 618.929227,478.3104 C615.080507,484.798996 606.998194,493.604949 594.682289,504.728257 C590.833568,509.053988 585.830232,514.924624 579.672279,522.340163 C575.053814,527.901817 569.47317,531.300606 562.930345,532.536529 C556.38752,533.772452 551.191748,532.536529 547.343027,528.828759 C543.494307,525.12099 537.913662,515.233604 530.601093,499.166603 C523.288524,483.099602 517.900316,473.366707 514.436467,469.967918 C510.972619,466.569129 511.165055,461.316456 515.013776,454.209898 C518.862496,447.103339 522.51878,428.718982 525.982629,399.056826 C529.446477,369.39467 532.71789,343.131302 535.796866,320.266724 C538.875842,297.402145 540.41533,281.644124 540.41533,272.992662 L540.41533,259.088526 L489.612221,261.869354 C406.479859,266.195085 358.370854,271.138777 345.285204,276.700432 C340.66674,278.554316 337.972636,282.416576 337.202892,288.287211 C336.433148,294.157847 336.81802,307.907492 338.357508,329.536147 C340.66674,362.906073 343.360844,385.616161 346.439821,397.666412 C349.518797,409.716663 349.711233,417.595674 347.017129,421.303443 C344.323024,425.011213 342.975972,432.735732 342.975972,444.477003 C342.206228,453.128465 337.7802,462.706869 329.697887,473.212216 C321.615574,483.717563 314.495441,488.970237 308.337488,488.970237 C300.640047,488.970237 292.942607,486.961862 285.245166,482.945111 C277.547725,478.928361 273.314132,474.44814 272.544388,469.504447 C271.0049,462.706869 267.348616,453.900917 261.575535,443.086589 C255.802454,432.272261 253.300786,416.514241 254.07053,395.812528 C254.840274,375.110814 252.915914,355.027063 248.29745,335.561273 C243.678985,316.095483 242.331933,302.809309 244.256293,295.702751 C246.180653,288.596192 244.833601,285.042913 240.215137,285.042913 C234.057184,285.042913 219.432046,287.51476 196.339724,292.458452 C173.247401,297.402145 156.697903,301.727876 146.69123,305.435646 C132.835837,309.761377 124.753524,311.924242 122.444291,311.924242 C120.135059,311.924242 113.592234,314.087108 102.815817,318.412839 C77.4142624,328.918186 50.4732194,320.575704 21.9926882,293.385395 C6.59780646,280.408201 -0.714762366,271.447758 0.0549817205,266.504066 C0.824725807,261.560373 10.0616548,255.689738 27.7657688,248.89216 C57.0160441,239.622736 115.131723,228.499428 202.112804,215.522235 L234.442056,210.887523 L234.442056,194.20256 C234.442056,182.46129 232.902568,170.102058 229.823592,157.124865 C226.744615,144.147671 227.514359,130.243536 232.132824,115.412457 C235.2118,104.90711 237.713468,98.5730042 239.637829,96.4101387 C241.562189,94.2472731 247.142833,92.8568595 256.379763,92.238898 C268.695668,91.0029748 283.320806,94.4017635 300.255175,102.435264 C313.340825,108.61488 321.423138,114.794496 324.502114,120.974112 C327.581091,127.153728 330.660067,143.52971 333.739043,170.102058 C334.508787,183.697213 335.855839,191.885204 337.7802,194.666031 C339.70456,197.446858 343.745716,198.528291 349.903669,197.910329 C355.291878,196.674406 383.195101,194.820521 433.613338,192.348675 C484.031576,189.876829 516.553264,187.096002 531.178401,184.006194 L553.116108,178.444539 L557.734572,136.732132 C561.583293,88.5311284 565.624449,55.4701835 569.858042,37.5492975 C574.091634,19.6284115 581.211767,8.1961221 591.21844,3.25242941 Z"></path>
        </g>
    </g>
</svg>