<?xml version="1.0" encoding="UTF-8"?>
<svg width="1000px" height="1000px" viewBox="0 0 1000 1000" version="1.1" xmlns="http://www.w3.org/2000/svg" xmlns:xlink="http://www.w3.org/1999/xlink">
    <title>止起_char</title>
    <g id="止起_char" stroke="none" stroke-width="1" fill="none" fill-rule="evenodd">
        <path d="M727.355731,11.3606557 C741.226614,22.4894614 762.032938,28.0538642 789.774704,28.0538642 C845.258235,28.0538642 873,48.4566745 873,89.2622951 C873,106.57377 865.56917,121.103044 850.70751,132.850117 C835.84585,144.59719 817.516469,150.470726 795.719368,150.470726 C781.848485,150.470726 749.152833,157.88993 697.632411,172.728337 C671.059469,180.768145 635.815087,190.237319 591.899266,201.135858 C604.437783,211.939411 612.294665,218.918991 615.466648,222.075554 L615.709164,222.318661 C616.213189,222.827911 616.577959,223.223524 616.803474,223.505501 C618.538203,225.674551 624.176072,228.711221 633.717081,232.615512 C643.258091,236.519802 648.028595,244.111478 648.028595,255.390539 C651.498053,348.225889 650.197006,395.511184 644.125455,397.246425 C640.655997,398.114045 638.921268,402.885955 638.921268,411.562156 C638.921268,420.238357 641.957044,424.576458 648.028595,424.576458 C654.100147,424.576458 667.110614,421.539787 687.059997,415.466447 C707.00938,408.525486 719.369324,406.356436 724.139829,408.959296 C728.910333,411.562156 740.836595,414.165017 759.918613,416.767877 C793.745828,421.105977 815.863623,432.385039 826.271996,450.605061 C836.68037,468.825083 831.909865,487.912725 811.960482,507.867987 C798.950015,519.147048 789.625847,525.654199 783.987978,527.389439 C778.350109,529.124679 768.158576,528.690869 753.41338,526.088009 C736.933455,523.485149 718.501959,524.786579 698.118894,529.992299 C677.735829,535.19802 661.039062,537.80088 648.028595,537.80088 C638.487586,537.80088 632.632876,538.6685 630.464465,540.40374 C628.296053,542.138981 626.778165,546.910891 625.910801,554.719472 C623.308708,566.866153 621.357137,592.244041 620.056091,630.853135 C618.755044,669.46223 616.586633,691.586542 613.550857,697.226073 C610.515081,702.865603 608.563511,716.53062 607.696147,738.221122 L605.094053,772.058306 L650.630689,775.962596 C687.927361,778.565457 835.379323,772.492116 840.58351,768.154015 C846.655062,763.815915 853.160295,763.59901 860.099211,767.5033 C867.038127,771.407591 876.579136,773.359736 888.722239,773.359736 C897.395884,773.359736 914.09265,778.999267 938.812538,790.278328 C963.532426,801.557389 980.662874,811.10121 990.203883,818.909791 C996.275435,824.983132 999.528052,836.479098 999.961734,853.39769 C1000.39542,870.316282 997.142799,883.981298 990.203883,894.392739 C984.999697,903.93656 977.193416,913.046571 966.785042,921.722772 C959.846127,928.663733 954.208257,932.351118 949.871435,932.784928 C945.534613,933.218739 935.126239,930.832783 918.646314,925.627063 C824.97095,903.06894 831.909865,888.319399 679.253717,881.378438 C635.018128,880.510818 608.34667,880.293913 599.239343,880.727723 C590.132016,881.161533 581.458371,884.632013 573.218409,891.139164 C564.978446,897.646315 559.340577,900.89989 556.304801,900.89989 C553.269026,900.89989 547.847998,898.73084 540.041717,894.392739 C532.235437,890.054639 524.645998,887.885589 517.2734,887.885589 C509.900801,887.885589 493.637717,888.753209 468.484147,890.488449 C429.452746,893.958929 403.648652,897.42941 391.071867,900.89989 C378.495082,904.37037 361.798316,907.190136 340.981569,909.359186 C320.164821,911.528236 306.070148,915.215622 298.69755,920.421342 C291.324952,925.627063 284.169195,928.229923 277.230279,928.229923 C269.423999,928.229923 250.125139,933.001834 219.3337,942.545655 C188.542261,952.089476 160.136074,974.647598 152.329794,981.588559 C144.523513,988.52952 135.849869,992 126.308859,992 C108.96157,992 84.6753641,982.239274 53.4502427,962.717822 C22.2251214,943.19637 6.61256068,928.229923 6.61256068,917.818482 C6.61256068,914.348001 3.57678499,910.877521 -2.49476638,907.407041 C-6.83158879,904.80418 -9,902.852035 -9,901.550605 C-9,900.249175 -7.26527104,897.42941 -3.79581311,893.091309 C3.14310275,887.885589 33.2840185,877.257242 86.6269342,861.206271 C139.96985,845.155299 154.498205,838.865053 195.264336,831.924092 C216.948448,828.453612 230.392597,825.200037 235.596784,822.163366 C240.800971,819.126696 242.102018,813.27026 239.499924,804.594059 C237.765195,795.050238 239.933606,782.469747 246.005158,766.852585 C255.546167,742.559223 262.051401,665.341034 265.520859,535.19802 C268.122952,477.935094 270.291363,443.881005 272.026092,433.035754 C273.760821,422.190502 278.314485,414.598827 285.687083,410.260726 C293.059681,405.922626 304.118578,408.525486 318.863774,418.069307 C333.60897,427.613128 345.318391,436.289329 353.992036,444.09791 L365.701456,457.112211 L365.701456,622.393839 C365.701456,733.449212 367.002503,789.844518 369.604596,791.579758 C373.941419,793.314998 395.191849,792.013568 433.355886,787.675468 C471.519923,783.337367 492.770353,779.866887 497.107175,777.264026 C499.709269,774.661166 501.443998,732.147781 502.311362,649.723872 C504.913456,432.818849 506.865026,302.675834 508.166073,259.294829 C508.618069,244.223842 509.148579,231.404252 509.757604,220.83606 C461.499814,232.08439 406.220959,244.488441 343.924901,258.04918 C219.086957,284.016393 149.732543,297 135.86166,297 C96.2305665,297 135.86166,271.032787 254.754941,219.098361 C365.722003,172.11007 446.965744,135.941452 498.486166,110.592506 C550.006588,85.2435597 602.517787,55.8758782 656.019763,22.4894614 C675.83531,8.88758782 689.706192,1.46838407 697.632411,0.231850117 C705.55863,-1.00468384 715.466403,2.70491803 727.355731,11.3606557 Z" id="Combined-Shape" fill="#000000" fill-rule="nonzero"></path>
    </g>
</svg>