<?xml version="1.0" encoding="UTF-8"?>
<svg width="400px" height="240px" viewBox="0 0 400 240" version="1.1" xmlns="http://www.w3.org/2000/svg" xmlns:xlink="http://www.w3.org/1999/xlink">
    <title>沸_s</title>
    <g id="沸_s" stroke="none" stroke-width="1" fill="none" fill-rule="evenodd">
        <g id="弗" transform="translate(0.000000, -62.000000)" fill="#000000" fill-rule="nonzero">
            <path d="M185.826685,32.7332928 C186.635066,22.0759417 188.251829,14.8441677 190.676974,11.0379708 C193.102118,7.231774 194.718881,4.44056298 195.527262,2.66433779 C196.335644,0.888112596 197.34612,0 198.558693,0 C200.579646,0 205.935173,2.79121102 214.625274,8.37363305 C223.315374,13.9560551 227.660425,17.254759 227.660425,18.2697448 C227.660425,19.5384771 228.670901,20.8072094 230.691855,22.0759417 C232.712809,23.344674 232.611761,25.0574625 230.388712,27.2143074 C228.165663,29.3711523 227.054139,33.1139125 227.054139,38.4425881 L226.447853,46.4356015 L244.636435,45.2937424 C284.651317,42.7562778 310.115332,45.5474889 321.028482,53.6673755 C325.87877,57.4735723 328.101819,60.9625861 327.697629,64.1344168 C327.293438,67.3062475 323.857817,70.9221345 317.390765,74.9820778 C312.136286,78.0270352 308.195426,80.8816829 305.568187,83.5460207 C302.940947,86.2103584 299.606373,90.714358 295.564466,97.0580194 C287.480652,109.999089 276.971693,118.499595 264.03759,122.559538 C253.12444,125.858242 246.657389,124.843256 244.636435,119.514581 C244.232244,117.992102 243.221768,117.040553 241.605005,116.659933 C239.988242,116.279313 236.552621,116.215877 231.298141,116.469623 C223.214327,116.72337 218.566133,117.230863 217.353561,117.992102 C216.54518,118.499595 215.736798,121.417679 214.928417,126.746355 C214.120035,132.07503 213.715845,136.95965 213.715845,141.400213 C213.715845,145.840776 214.120035,148.56855 214.928417,149.583536 C215.736798,149.583536 222.20385,148.75886 234.329572,147.109508 C246.455293,145.460156 267.877402,144.508607 298.595897,144.25486 L343.461067,144.25486 L363.468508,149.202916 C376.806801,152.50162 386.103188,155.673451 391.357667,158.718408 C402.675008,164.808323 402.877103,172.420717 391.963954,181.555589 C387.517856,185.615533 384.587473,188.026124 383.172805,188.787363 C381.758138,189.548603 379.636136,192.78387 376.806801,198.493165 C373.977466,204.202461 371.552322,208.32584 369.531368,210.863305 L359.224505,223.423755 C354.374216,229.259923 351.949072,232.748937 351.949072,233.890796 C351.949072,235.032655 350.7365,236.237951 348.311355,237.506683 C345.886211,238.775415 344.673639,240.297894 344.673639,242.074119 C344.673639,245.119077 335.175157,251.906794 316.178193,262.437272 C297.181229,272.96775 285.055507,278.106116 279.801028,277.852369 C276.163311,277.852369 272.72769,276.456764 269.494164,273.665553 C265.452257,270.113102 261.006159,266.687525 256.155871,263.388821 C251.305582,260.090117 248.274152,258.440765 247.061579,258.440765 C245.444816,258.440765 244.636435,257.933273 244.636435,256.918287 C244.636435,255.903301 243.524911,255.395808 241.301862,255.395808 C239.078813,255.395808 236.855764,253.556146 234.632715,249.876823 C232.409666,246.197499 232.308618,243.152542 234.329572,240.74195 C236.350525,238.331359 236.552621,236.237951 234.935858,234.461725 C233.319095,232.6855 234.329572,231.797388 237.967288,231.797388 C240.392432,231.797388 246.657389,232.178007 256.762157,232.939247 C265.654353,233.700486 272.3235,233.637049 276.769598,232.748937 C281.215695,231.860824 286.065984,229.640543 291.320464,226.088092 C295.766561,223.043135 300.919993,218.475699 306.780759,212.385784 C312.641524,206.295869 315.571907,202.489672 315.571907,200.967193 C315.571907,199.952207 316.481336,198.937222 318.300194,197.922236 C320.119053,196.90725 322.645245,192.59356 325.87877,184.981166 C329.112296,177.368773 330.729059,172.16697 330.729059,169.375759 C330.729059,165.06207 328.000772,162.461168 322.544197,161.573056 C317.087622,160.684943 303.850376,160.621507 282.832458,161.382746 C243.221768,162.905225 222.001755,164.554577 219.172419,166.330802 C217.959847,167.092041 217.252514,178.764378 217.050418,201.347813 C216.848323,223.931247 215.534703,241.947246 213.109559,255.395808 C210.684414,268.84437 209.673938,277.09113 210.078128,280.136087 C212.099082,290.793439 211.2907,302.465776 207.652984,315.153098 C205.22784,324.541717 203.611077,331.012252 202.802695,334.564702 C201.994314,338.117153 199.468122,341.54273 195.224119,344.841434 C190.980117,348.140138 188.453925,351.058222 187.645543,353.595687 C186.837162,355.118165 186.129828,356.260024 185.523542,357.021264 C184.917256,357.782503 184.108874,358.099686 183.098397,357.972813 C182.087921,357.84594 180.875348,357.211574 179.460681,356.069714 C178.046013,354.927855 176.530298,353.468813 174.913535,351.692588 C172.0842,348.647631 170.164294,345.919856 169.153818,343.509265 C168.143341,341.098674 167.436007,336.594674 167.031816,329.997266 C166.627626,320.608647 167.638102,308.93631 170.063247,294.980255 C170.871628,287.367861 171.781057,273.094623 172.791534,252.160541 C173.802011,231.226458 174.408297,213.273896 174.610392,198.302855 C174.812488,183.331814 174.509345,174.450689 173.700963,171.659478 C170.063247,171.659478 165.415053,172.674463 159.756383,174.704435 C154.097713,176.734407 151.066283,178.383759 150.662092,179.652491 C149.853711,182.189955 148.236948,190.817335 145.811803,205.534629 C142.982468,225.580599 138.738466,237.37981 133.079796,240.93226 C131.463033,241.947246 130.654651,243.025668 130.654651,244.167527 C130.654651,245.309386 127.016935,250.320879 119.741502,259.202005 C112.466069,268.083131 108.828352,272.904313 108.828352,273.665553 C108.828352,274.426792 104.079111,278.803919 94.5806292,286.796932 C85.0821472,294.789945 80.3329062,299.293945 80.3329062,300.308931 C80.3329062,301.323917 74.4721407,304.876367 62.7506097,310.966282 C51.0290788,317.056197 42.1368829,320.862394 36.074022,322.384872 C28.3943983,324.668591 20.7147745,327.079182 13.0351508,329.616646 C5.35552708,332.154111 1.11152449,333.169097 0.303143042,332.661604 C-0.505238404,332.154111 0.303143042,330.377886 2.72828738,327.332928 C5.15343172,324.287971 7.37648069,322.384872 9.39743431,321.623633 C13.4393415,320.101154 25.1608725,310.268479 44.5620272,292.125608 C63.9631819,273.982736 73.6637592,263.642568 73.6637592,261.105103 C73.6637592,259.582625 74.2700453,258.567639 75.4826175,258.060146 C78.3119526,256.537667 81.7475737,250.194006 85.7894809,239.029162 C89.8313882,227.864318 92.5596755,217.714459 93.9743431,208.579587 C95.3890106,199.444714 94.6816768,194.116039 91.8523418,192.59356 C89.4271974,192.59356 83.9706227,195.004151 75.4826175,199.825334 C66.9946123,204.646517 59.5170839,209.467699 53.0500324,214.288882 C47.795553,218.348825 40.9243107,223.043135 32.4363055,228.37181 C23.9483003,233.700486 18.6938209,236.364824 16.6728673,236.364824 C14.6519137,236.364824 13.4393415,235.857331 13.0351508,234.842345 C10.6100065,232.558627 10.2058158,224.311867 11.8225786,210.102066 C13.4393415,195.892264 15.4602952,187.138011 17.8854395,183.839307 L26.3734447,173.943196 C33.244687,165.569563 37.2865942,156.180944 38.4991664,145.777339 C40.9243107,128.268834 43.5515504,117.865229 46.3808855,114.566525 C47.1892669,113.805286 49.3112682,114.185905 52.7468893,115.708384 C56.1825105,117.230863 63.5589912,117.484609 74.8763314,116.469623 C88.618816,114.947145 96.5005351,113.488102 98.5214887,112.092497 C100.542442,110.696891 101.95711,105.939145 102.765491,97.8192588 C104.382254,88.4306399 104.685397,83.482584 103.67492,82.9750911 C102.664444,82.4675982 99.7340609,82.9750911 94.8837722,84.4975699 C90.4376742,85.7663021 86.9010054,86.1469218 84.2737657,85.6394289 C81.646526,85.131936 79.120334,83.6094573 76.6951897,81.0719927 C75.0784268,79.2957675 74.2700453,78.0904719 74.2700453,77.4561057 C74.2700453,76.8217396 75.0784268,75.7433171 76.6951897,74.2208384 C79.5245247,72.4446132 85.1831949,70.3512049 93.6712,67.9406136 C102.159205,65.5300223 106.807399,63.8806703 107.61578,62.9925577 C108.424161,62.1044451 109.535686,56.7757695 110.950353,47.006531 C112.365021,37.2372924 114.385975,31.4645606 117.013214,29.6883354 C119.640454,27.9121102 120.954074,26.3261948 120.954074,24.9305893 C120.954074,23.5349838 123.379218,22.2028149 128.229507,20.9340826 C133.079796,19.6653503 138.738466,19.728787 145.205517,21.1243925 C151.672569,22.519998 155.209238,24.1693499 155.815524,26.0724484 C156.42181,27.9755468 158.341716,29.8152086 161.575241,31.5914338 C167.233912,34.8901377 167.436007,38.6963345 162.181528,43.0100243 C160.160574,45.0399959 159.352193,47.3237141 159.756383,49.8611786 C160.564765,53.413629 166.627626,53.6673755 177.944966,50.622418 C181.178492,49.8611786 183.098397,48.6558829 183.704684,47.006531 C184.31097,45.357179 185.018303,40.599433 185.826685,32.7332928 Z M237.361002,85.6394289 C238.977765,81.8332321 241.402909,77.900162 244.636435,73.8402187 C247.869961,69.7802754 248.880438,67.4965573 247.667865,66.9890644 C246.455293,66.4815715 241.402909,66.4815715 232.510713,66.9890644 L219.172419,67.7503038 L217.959847,78.4076549 C217.151466,85.5125557 217.050418,89.3821891 217.656704,90.0165553 C218.26299,90.6509214 221.193373,90.9681045 226.447853,90.9681045 C229.681378,90.9681045 232.005475,90.714358 233.420142,90.2068651 C234.83481,89.6993722 236.14843,88.1768935 237.361002,85.6394289 Z M183.401541,70.4146416 L174.913535,70.4146416 C166.829721,70.668388 161.272098,71.1124443 158.240668,71.7468104 C155.209238,72.3811766 153.289332,73.8402187 152.48095,76.1239368 C150.864187,78.1539085 150.055806,83.165401 150.055806,91.1584143 C150.055806,99.1514277 150.662092,103.401681 151.874664,103.909174 C152.278855,104.16292 156.724953,103.401681 165.212958,101.625456 C173.700963,99.8492305 178.551252,98.7073714 179.763824,98.1998785 C180.572205,97.6923856 181.380587,92.8712029 182.188968,83.7363305 L183.401541,70.4146416 Z M176.732394,137.403706 C177.540775,126.238862 177.74287,120.529567 177.33868,120.27582 C176.934489,120.022074 172.286296,120.65644 163.3941,122.178919 C155.310285,123.447651 150.156854,125.223876 147.933805,127.507594 C145.710756,129.791312 144.599231,134.866241 144.599231,142.732382 C144.19504,151.613507 144.902374,156.625 146.721232,157.766859 C148.540091,158.908718 154.299808,158.337789 164.000386,156.05407 L174.913535,153.770352 L176.732394,137.403706 Z M96.7026305,157.957169 C96.7026305,155.419704 96.7026305,153.199423 96.7026305,151.296324 C96.7026305,149.393226 96.6015828,147.870747 96.3994874,146.728888 C96.1973921,145.587029 95.894249,145.0161 95.4900583,145.0161 C93.0649139,145.0161 90.0334835,145.587029 86.395767,146.728888 C82.7580505,147.870747 80.5350015,148.94917 79.7266201,149.964156 C78.5140479,150.979141 77.9077618,153.326296 77.9077618,157.00562 C77.9077618,160.684943 76.897285,163.412718 74.8763314,165.188943 C72.8553778,166.203929 71.6428056,167.789844 71.2386149,169.946689 C70.8344242,172.103534 70.8344242,173.943196 71.2386149,175.465674 C71.6428056,176.988153 72.6532824,177.749392 74.2700453,177.749392 C75.8868082,177.749392 79.9287155,176.607533 86.395767,174.323815 L96.0963444,170.898238 L96.7026305,157.957169 Z"></path>
        </g>
    </g>
</svg>