<?xml version="1.0" encoding="UTF-8"?>
<svg width="1000px" height="1000px" viewBox="0 0 1000 1000" version="1.1" xmlns="http://www.w3.org/2000/svg" xmlns:xlink="http://www.w3.org/1999/xlink">
    <title>泛起_char</title>
    <g id="泛起_char" stroke="none" stroke-width="1" fill="none" fill-rule="evenodd">
        <path d="M630.404206,-139.109711 C660.823593,-126.143304 676.06409,-112.806774 676.125697,-99.1001204 C676.402671,-89.2890486 674.053708,-72.7372986 669.078811,-49.4448707 C664.103913,-26.1524427 660.747235,-13.604452 659.008778,-11.8008985 C655.612625,-9.6546346 652.099211,2.02316806 648.468538,23.2325094 C644.837865,44.4418508 638.149488,65.3807475 628.40341,86.0491994 C620.466768,102.880387 615.069224,115.555404 612.210777,124.074251 C618.395536,123.919132 624.243605,124.008501 629.75575,124.341109 C641.24126,125.250732 661.161442,133.209938 689.516296,148.218725 C717.871149,163.227512 737.791331,176.644459 749.276841,188.469564 C759.326663,199.385046 768.65864,207.116845 777.272773,211.664962 C789.476127,220.761197 802.038404,236.679608 814.959603,259.420195 C819.266669,267.606806 821.599664,281.70597 821.958586,301.717687 C822.317508,321.729403 820.343436,337.647814 816.03637,349.472919 C802.397326,382.219364 795.577805,403.140704 795.577805,412.236939 C795.577805,417.69468 792.706427,422.242797 786.963672,425.881291 C781.220917,429.519785 775.119239,429.974597 768.65864,427.245726 C763.633729,425.426479 749.994686,411.782127 727.74151,386.31267 C705.488333,360.843212 694.361745,345.834425 694.361745,341.286308 C694.361745,339.467061 688.61899,332.644885 677.13348,320.81978 C660.623059,307.175427 640.523416,286.708899 616.834551,259.420195 C602.477663,241.227725 589.197542,228.038185 576.994187,219.851574 C570.246164,215.291134 564.061999,209.569634 558.441693,202.687072 C552.752982,208.488717 546.581232,213.976607 539.926892,219.150385 C531.579173,225.640774 525.676675,230.596114 522.219399,234.016404 L521.831334,234.404241 C519.693792,236.563378 518.601618,238.066259 518.554813,238.912884 C518.43367,241.104149 515.234633,243.390179 508.957703,245.770976 C502.680774,248.151772 499.448086,251.046487 499.259641,254.455121 C499.098117,257.376807 486.879861,267.183702 462.604872,283.875807 C438.329884,300.567912 416.90008,313.964032 398.31546,324.064167 C378.073145,334.507012 367.911606,340.458857 367.830844,341.9197 C367.750082,343.380543 358.762571,346.622586 340.868312,351.645829 C322.974053,356.669073 311.065385,360.87607 305.142308,364.266822 C299.19231,368.14452 283.887488,374.497782 259.227844,383.326606 C234.5682,392.155429 218.542213,396.732255 211.149885,397.057083 C202.099862,397.724622 193.538294,396.967376 185.465182,394.785347 C177.365149,393.090266 176.724746,389.852988 183.543974,385.073512 C186.940127,382.927248 192.047817,379.464379 198.867044,374.684903 C216.663197,364.025702 241.157434,350.77829 272.349755,334.942667 C355.057474,291.367732 410.87087,245.16941 439.789941,196.347701 C447.828366,184.336129 454.114873,174.371584 458.649462,166.454067 C470.191723,150.34844 481.528196,130.554647 492.65888,107.072687 C498.934692,93.8328587 503.518282,82.9323115 506.409652,74.3710454 L506.729747,73.4118388 C508.76338,67.2419531 509.88072,62.3387269 510.081766,58.7021604 C510.539418,50.4240501 514.749922,33.5476193 522.71328,8.07286815 C530.676637,-17.401883 537.392839,-49.9598756 542.861887,-89.6011096 C548.330935,-129.242344 554.828924,-150.442744 562.355856,-153.20231 C574.909715,-157.963903 597.592499,-153.26637 630.404206,-139.109711 Z" id="Combined-Shape" fill="#000000" fill-rule="nonzero"></path>
        <path d="M536.725587,508.875155 C539.683972,502.958385 543.086115,500 546.932015,500 C550.777915,500 558.321796,503.550062 569.563659,510.650185 C581.397198,517.158632 597.076638,524.702513 616.601978,533.281829 C636.127318,541.861145 649.144211,550.292542 655.652658,558.57602 C659.794396,564.492789 662.309023,571.297075 663.196539,578.988875 C664.084054,586.680676 663.04862,591.118253 660.090235,592.301607 C657.723527,594.076638 655.652658,598.810054 653.877627,606.501854 C652.102596,614.193655 648.108776,619.518747 641.896168,622.477132 C635.68356,625.435517 631.68974,630.021014 629.91471,636.233622 C628.139679,642.44623 614.23527,658.569427 588.201483,684.603214 C556.842604,717.145447 541.459003,735.487433 542.05068,739.629172 C542.642357,742.587557 548.559126,744.658426 559.800989,745.84178 C582.876391,748.800165 594.414091,762.408735 594.414091,786.667491 C594.414091,794.950968 593.674495,800.42398 592.195303,803.086527 C590.71611,805.749073 587.905645,808.559539 583.763906,811.517923 C574.888752,816.251339 562.463535,818.02637 546.488257,816.843016 C532.28801,815.067985 509.656366,815.363824 478.593325,817.730532 C447.530284,820.097239 426.081994,823.055624 414.248455,826.605686 C402.414916,830.747425 390.877215,834.297487 379.635352,837.255871 C368.39349,840.214256 358.63082,844.651834 350.347342,850.568603 C342.063865,856.485373 332.153276,859.443758 320.615575,859.443758 C309.077874,859.443758 302.273589,861.070869 300.202719,864.325093 C298.13185,867.579316 297.096415,885.921302 297.096415,919.351051 C297.096415,952.780799 297.688092,981.033375 298.871446,1004.10878 C301.238154,1036.05933 307.154924,1058.24722 316.621755,1070.67244 C326.088587,1083.09765 342.655542,1090.19778 366.322621,1091.97281 C417.20684,1096.70622 473.268232,1099.22085 534.506799,1099.51669 C595.745365,1099.81253 639.381541,1098.18541 665.415328,1094.63535 C720.441286,1086.35187 757.421096,1076.5892 776.354759,1065.34734 C784.04656,1060.02225 790.850845,1053.21796 796.767614,1044.93449 C802.684384,1036.65101 805.642769,1028.66337 805.642769,1020.97157 C805.642769,1007.95468 810.967862,978.07499 821.618047,931.332509 L826.055624,911.807169 L829.605686,926.894932 C830.78904,937.545117 832.859909,953.964153 835.818294,976.15204 C838.776679,998.339926 843.362176,1016.82983 849.574784,1031.62176 C855.787392,1046.41368 859.781211,1058.39514 861.556242,1067.56613 C863.331273,1076.73712 865.8459,1082.94973 869.100124,1086.20396 C872.354347,1089.45818 873.981459,1097.88958 873.981459,1111.49815 C873.981459,1125.10672 870.431397,1137.23609 863.331273,1147.88628 C850.31438,1165.63659 839.664194,1174.80758 831.380717,1175.39926 C827.238978,1175.39926 822.209724,1178.0618 816.292954,1183.3869 C790.259168,1206.4623 741.149979,1218 668.965389,1218 C624.589617,1218 570.155336,1216.96457 505.662546,1214.8937 C441.169757,1212.82283 400.935723,1210.3082 384.960445,1207.34981 C358.926658,1203.20808 338.365884,1196.69963 323.278121,1187.82447 C308.190358,1178.94932 292.954677,1164.1574 277.571075,1143.4487 C259.820766,1121.55665 249.170581,1097.59374 245.620519,1071.55995 C242.662134,1057.95138 241.182942,1026.44458 241.182942,977.039555 C241.182942,927.634528 242.662134,896.12773 245.620519,882.519159 C249.170581,859.443758 253.903997,803.234446 259.820766,713.891224 C261.00412,687.26576 263.962505,670.698805 268.695921,664.190358 L276.68356,655.315204 L290.883807,671.290482 C300.942316,682.532344 305.084054,690.815822 303.309023,696.140915 C301.533993,700.87433 300.202719,718.47672 299.315204,748.948084 C298.427689,779.419448 298.871446,795.838484 300.646477,798.205192 C302.421508,800.571899 311.000824,798.50103 326.384425,791.992583 C338.217965,786.075814 356.264112,779.271529 380.522868,771.579728 C404.781623,763.887927 419.573548,760.042027 424.89864,760.042027 C428.448702,760.042027 440.134322,749.391842 459.955501,728.091471 C479.776679,706.7911 491.166461,692.295014 494.124845,684.603214 C505.366708,649.102596 512.170993,618.92707 514.537701,594.076638 L517.200247,571.888752 L484.362176,571.888752 C457.736712,571.297075 436.436341,571.888752 420.461063,573.663782 C382.593737,578.397198 357.447466,585.201483 345.02225,594.076638 C332.005356,604.135146 319.284302,601.4726 306.859085,586.088999 C303.309023,580.172229 301.681912,573.959621 301.97775,567.451174 C302.273589,560.942728 304.788216,556.800989 309.521632,555.025958 C368.097651,537.867326 423.715286,529.28801 476.374536,529.28801 C504.183354,529.28801 518.827359,527.512979 520.306551,523.962917 C521.785744,520.412855 524.152452,518.637824 527.406675,518.637824 C530.660898,518.637824 533.767202,515.383601 536.725587,508.875155 Z" id="已" fill="#000000" fill-rule="nonzero"></path>
    </g>
</svg>