<?xml version="1.0" encoding="UTF-8"?>
<svg width="1000px" height="1000px" viewBox="0 0 1000 1000" version="1.1" xmlns="http://www.w3.org/2000/svg" xmlns:xlink="http://www.w3.org/1999/xlink">
    <title>泛起_char</title>
    <g id="泛起_char" stroke="none" stroke-width="1" fill="none" fill-rule="evenodd">
        <path d="M567.952072,11.7054138 C596.21529,21.2301133 610.375519,31.0266929 610.43276,41.0951526 C610.690101,48.3020456 608.507636,60.4604204 603.885366,77.5702772 C599.263096,94.680134 596.144345,103.897478 594.529111,105.22231 C591.373682,106.798885 588.109305,115.377017 584.735979,130.956707 C581.362653,146.536396 575.148358,161.917426 566.093095,177.099795 C558.409311,189.982695 553.286971,199.550779 550.726076,205.804046 C556.462849,205.69089 561.887034,205.756525 567,206 C577.666667,206.666667 596.166667,212.5 622.5,223.5 C648.833333,234.5 667.333333,244.333333 678,253 C687.333333,261 696,266.666667 704,270 C715.333333,276.666667 727,288.333333 739,305 C743,311 745.166667,321.333333 745.5,336 C745.833333,350.666667 744,362.333333 740,371 C727.333333,395 721,410.333333 721,417 C721,421 718.333333,424.333333 713,427 C707.666667,429.666667 702,430 696,428 C691.333333,426.666667 678.666667,416.666667 658,398 C637.333333,379.333333 627,368.333333 627,365 C627,364.488584 626.215362,363.437731 624.646087,361.847439 L624.297804,361.498405 C621.715707,358.937824 617.283105,355.105023 611,350 C595.666667,340 577,325 555,305 C541.666667,291.666667 529.333333,282 518,276 C511.64606,272.611232 505.83042,268.347725 500.553081,263.209479 C495.417038,267.311894 489.861782,271.199444 483.887918,274.871579 C470.762344,282.939872 464.143278,287.778834 464.030722,289.388465 C463.918165,290.998097 460.945881,292.67734 455.113869,294.426195 C449.281857,296.175051 446.278307,298.301414 446.103219,300.805285 C445.953144,302.95146 434.600935,310.155285 412.046592,322.41676 C389.492249,334.678235 369.58142,344.518587 352.314104,351.937817 C333.506593,359.60879 324.065318,363.98082 323.990281,365.053907 C323.915243,366.126995 315.56478,368.508494 298.938891,372.198405 C282.313003,375.888315 271.248438,378.978638 265.745197,381.469373 C260.216943,384.317804 245.996949,388.984702 223.085215,395.470068 C200.173481,401.955434 185.283439,405.317421 178.41509,405.556029 C170.006545,406.04638 162.051833,405.490133 154.550955,403.887286 C147.025064,402.642134 146.430053,400.264135 152.765924,396.753289 C155.921353,395.176713 160.667003,392.633002 167.002874,389.122156 C183.53761,381.292255 206.295661,371.561139 235.277026,359.928807 C312.122306,327.920083 363.979569,293.984305 390.848816,258.121472 C398.317466,249.298163 404.158376,241.978534 408.371547,236.162585 C419.095677,224.331918 429.628604,209.792044 439.97033,192.542963 C450.312055,175.293882 455.708031,163.450079 456.158256,157.011554 C456.583469,150.930724 460.495528,138.53385 467.894431,119.820929 C475.293334,101.108009 481.533482,77.1919714 486.614876,48.0728157 C491.69627,18.95366 497.733673,3.38053854 504.727085,1.35345129 C516.391109,-2.14425941 537.466105,1.30639477 567.952072,11.7054138 Z" id="Combined-Shape" fill="#000000" fill-rule="nonzero"></path>
        <path d="M531.442522,365.935723 C534.087763,360.645241 537.12979,358 540.568603,358 C544.007417,358 550.752781,361.174289 560.804697,367.522868 C571.385661,373.342398 585.405439,380.087763 602.86403,387.758962 C620.322621,395.430161 631.961681,402.969098 637.781211,410.375773 C641.484549,415.666255 643.733004,421.750309 644.526576,428.627936 C645.320148,435.505562 644.394314,439.473424 641.749073,440.53152 C639.63288,442.118665 637.781211,446.351051 636.194067,453.228677 C634.606922,460.106304 631.035847,464.867738 625.480841,467.512979 C619.925834,470.15822 616.354759,474.258344 614.767614,479.81335 C613.18047,485.368356 600.747837,499.78492 577.469716,523.063041 C549.430161,552.160692 535.674907,568.561187 536.203956,572.264524 C536.733004,574.909765 542.023486,576.761434 552.075402,577.81953 C572.708282,580.464771 583.024722,592.63288 583.024722,614.323857 C583.024722,621.730532 582.363412,626.624227 581.040791,629.004944 C579.718171,631.385661 577.205192,633.89864 573.501854,636.543881 C565.566131,640.776267 554.456119,642.363412 540.171817,641.305315 C527.47466,639.718171 507.238566,639.982695 479.463535,642.098888 C451.688504,644.21508 432.510507,646.860321 421.929543,650.034611 C411.348578,653.737948 401.032138,656.912237 390.980222,659.557478 C380.928307,662.202719 372.199011,666.170581 364.792336,671.461063 C357.385661,676.751545 348.524104,679.396786 338.207664,679.396786 C327.891224,679.396786 321.807169,680.851669 319.955501,683.761434 C318.103832,686.671199 317.177998,703.071693 317.177998,732.962917 C317.177998,762.854141 317.707046,788.116193 318.765142,808.749073 C320.881335,837.317676 326.171817,857.156984 334.636588,868.266996 C343.10136,879.377009 357.91471,885.725587 379.076638,887.312732 C424.574784,891.545117 474.702101,893.793572 529.458591,894.058096 C584.21508,894.322621 623.232386,892.867738 646.510507,889.693449 C695.71199,882.286774 728.777503,873.557478 745.707046,863.505562 C752.584672,858.744129 758.668727,852.660074 763.959209,845.253399 C769.249691,837.846724 771.894932,830.704574 771.894932,823.826947 C771.894932,812.187886 776.656366,785.470952 786.179234,743.676143 L790.147095,726.217553 L793.321384,739.708282 C794.379481,749.23115 796.23115,763.912237 798.876391,783.751545 C801.521632,803.590853 805.621755,820.123609 811.176761,833.349815 C816.731768,846.57602 820.302843,857.289246 821.889988,865.489493 C823.477132,873.68974 825.725587,879.244747 828.635352,882.154512 C831.545117,885.064277 833,892.603214 833,904.771323 C833,916.939431 829.825711,927.78492 823.477132,937.307787 C811.838072,953.179234 802.315204,961.379481 794.908529,961.908529 C791.205192,961.908529 786.708282,964.289246 781.4178,969.05068 C758.139679,989.68356 714.228677,1000 649.684796,1000 C610.00618,1000 561.333745,999.074166 503.667491,997.222497 C446.001236,995.370828 410.025958,993.122373 395.741656,990.477132 C372.463535,986.773795 354.07911,980.954265 340.588381,973.018541 C327.097651,965.082818 313.47466,951.856613 299.719407,933.339926 C283.84796,913.765142 274.325093,892.33869 271.150803,869.060569 C268.505562,856.89246 267.182942,828.720643 267.182942,784.545117 C267.182942,740.369592 268.505562,712.197775 271.150803,700.029666 C274.325093,679.396786 278.557478,629.137206 283.84796,549.250927 C284.906057,525.443758 287.551298,510.630408 291.783684,504.810878 L298.925834,496.875155 L311.622991,511.159456 C320.616811,521.211372 324.320148,528.618047 322.733004,533.379481 C321.145859,537.611867 319.955501,553.351051 319.161928,580.597033 C318.368356,607.843016 318.765142,622.524104 320.352287,624.640297 C321.939431,626.756489 329.61063,624.904821 343.365884,619.08529 C353.946848,613.794808 370.082818,607.710754 391.773795,600.833127 C413.464771,593.955501 426.690977,590.516687 431.45241,590.516687 C434.6267,590.516687 445.075402,580.99382 462.798517,561.948084 C480.521632,542.902349 490.70581,529.940667 493.351051,523.063041 C503.402967,491.320148 509.487021,464.33869 511.603214,442.118665 L513.983931,422.279357 L484.621755,422.279357 C460.814586,421.750309 441.76885,422.279357 427.484549,423.866502 C393.625464,428.098888 371.140915,434.182942 360.030902,442.118665 C348.391842,451.112485 337.017305,448.731768 325.907293,434.976514 C322.733004,429.686032 321.278121,424.131026 321.542645,418.311496 C321.807169,412.491965 324.055624,408.788628 328.28801,407.201483 C380.663782,391.859085 430.394314,384.187886 477.479604,384.187886 C502.34487,384.187886 515.438813,382.600742 516.761434,379.426452 C518.084054,376.252163 520.200247,374.665019 523.110012,374.665019 C526.019778,374.665019 528.797281,371.755253 531.442522,365.935723 Z" id="已" fill="#000000" fill-rule="nonzero"></path>
    </g>
</svg>