<?xml version="1.0" encoding="UTF-8"?>
<svg width="400px" height="240px" viewBox="0 0 400 240" version="1.1" xmlns="http://www.w3.org/2000/svg" xmlns:xlink="http://www.w3.org/1999/xlink">
    <title>滚_s</title>
    <g id="滚_s" stroke="none" stroke-width="1" fill="none" fill-rule="evenodd">
        <path d="M162.210434,3.15037427 C170.278421,5.66628631 177.862328,8.81117636 184.962156,12.5850444 C192.061984,16.3589125 195.934618,19.5038025 196.580057,22.0197146 C197.870935,24.8501156 199.161813,26.2653161 200.45269,26.2653161 C201.743568,26.2653161 204.002605,31.533007 207.229799,42.0683886 C210.456994,52.6037703 201.420849,61.9598182 203.357166,62.5887962 C203.801728,62.6369323 204.473108,62.6629651 205.371306,62.6668945 L205.742682,62.6672875 C210.919567,62.6566779 222.710454,62.0015361 241.115343,60.7018622 C285.005189,57.5569721 312.597703,53.6258596 323.892884,48.9085245 C328.088237,46.7071015 337.769821,47.0215905 352.937636,49.8519915 C374.55984,53.3113706 387.145899,56.9279941 390.695813,60.7018622 C396.827482,65.7336863 399.893317,71.9448441 399.893317,79.3353357 C399.893317,86.7258273 396.666123,93.0942297 390.211733,98.4405428 C386.01638,102.214411 381.821027,103.9441 377.625674,103.629611 C373.430321,103.315122 363.748738,101.113699 348.580923,97.0253423 C325.022402,90.4210732 289.845981,87.1189386 243.051659,87.1189386 C232.079198,87.1189386 219.493139,88.3768946 205.293482,90.8928067 C191.093826,93.4087187 182.380401,95.7673862 179.153206,97.9688093 C177.539609,99.2267653 171.08522,100.641966 159.790038,102.214411 C158.466651,102.432993 157.154372,102.653285 155.853201,102.875285 C156.74331,103.695256 157.63834,104.557823 158.538808,105.462865 C170.792276,117.741543 176.59655,129.862801 175.951631,141.826641 C175.306712,146.549209 173.210724,151.507906 169.663667,156.702731 C166.11661,161.897556 162.085864,165.439483 157.571429,167.32851 C145.64042,172.365916 130.001125,183.70008 110.653543,201.331001 C103.23697,207.627759 90.9835021,216.36451 73.8931384,227.541255 C62.4425947,235.029674 54.683231,239.797477 50.6150472,241.844663 L50.2605996,242.020721 C48.4802673,242.892774 47.4901387,243.182402 47.2902137,242.889602 C46.3228346,241.630251 47.7739033,239.111548 51.6434196,235.333493 C54.8680165,232.185114 60.1079865,225.101262 67.3633296,214.081936 C74.6186727,203.06261 78.2463442,196.923271 78.2463442,195.66392 C78.2463442,194.404568 79.3749531,192.830379 81.632171,190.941351 C83.8893888,189.052324 85.0179978,186.927168 85.0179978,184.565884 C85.0179978,182.2046 87.6782902,177.79687 92.9988751,171.342693 C98.3194601,164.888516 100.979753,161.031752 100.979753,159.772401 C100.979753,158.513049 103.3982,154.262738 108.235096,147.021466 C118.231346,132.853761 122.100862,122.936368 119.843645,117.269286 C118.876265,115.380259 120.004874,113.018975 123.229471,110.185434 C123.739037,109.812292 124.204567,109.420725 124.626059,109.01073 C103.394435,113.823772 86.2328759,119.263553 73.1398632,125.329353 C64.4264378,129.41771 59.3436063,131.461888 57.8913687,131.461888 C56.4391311,131.461888 53.7766956,133.9778 49.904062,139.009624 C45.7087091,143.726959 41.5133561,146.164249 37.3180031,146.321494 C33.1226501,146.478738 27.797779,144.513182 21.3433898,140.424825 C4.88469727,128.788732 -1.8924114,120.612018 1.01206374,115.894683 C2.62566105,113.378771 8.27325161,109.840769 17.9548354,105.280679 C27.6364193,100.720588 36.3498447,97.6543203 44.0951118,96.0818752 C52.8085372,94.1949412 63.7809989,91.2072957 77.0124967,87.1189386 C79.8846999,86.2698183 82.6552465,85.463154 85.3241365,84.6989457 L86.9132716,84.2455155 C110.041672,77.6699278 125.297782,74.3821339 132.681604,74.3821339 C134.61792,74.3821339 141.314349,73.4386669 152.77089,71.5517329 C164.227431,69.6647988 170.60114,68.5640873 171.892018,68.2495983 C173.182896,67.6206203 171.892018,64.9474637 168.019385,60.2301287 C166.596192,58.3809333 159.904023,48.1125056 153.18241,37.749692 L151.948699,35.8471671 C145.379969,25.7150862 139.090812,15.9815257 138.006475,14.4719784 C133.811122,7.86770934 136.070158,3.46486327 144.783584,1.26344024 C148.010778,0.948951234 149.947095,0.713084481 150.592534,0.555839978 C151.237973,0.398595476 155.110606,1.26344024 162.210434,3.15037427 Z M258.666464,112.34379 C266.423956,112.658931 271.918846,113.525568 275.151134,114.943701 C278.383422,116.361834 284.52477,120.064738 293.575177,126.052412 C306.504329,134.246072 318.05976,142.754872 328.241468,151.578813 C338.423175,160.402754 345.130173,165.05108 348.362462,165.523791 C351.59475,165.996502 353.453315,168.044917 353.938159,171.669036 C354.423002,175.293154 355.63511,178.208206 357.574483,180.414191 C359.513856,182.620177 361.13,185.929154 362.422915,190.341125 C363.71583,194.753095 365.331975,198.219644 367.271347,200.74077 C370.826864,204.837599 370.907672,211.53434 367.513769,220.830992 C364.119866,230.127644 359.352241,236.194104 353.210894,239.03037 C349.655377,240.606074 345.938245,241.236356 342.0595,240.921215 C338.180754,240.606074 336.241381,239.660652 336.241381,238.084948 C336.241381,236.824385 334.140393,235.563822 329.938419,234.303259 C324.766758,233.042696 317.251688,226.976237 307.393209,216.103881 C297.53473,205.231525 289.373202,193.965243 282.908626,182.305036 C279.999566,177.262784 274.10064,169.30548 265.211848,158.433124 C256.323055,147.560768 250.424129,138.658042 247.51507,131.724946 L240.727265,118.016323 C239.757578,115.810338 239.757578,114.155849 240.727265,113.052857 C241.696951,111.949864 247.676684,111.713508 258.666464,112.34379 Z" id="Combined-Shape" fill="#000000" fill-rule="nonzero"></path>
    </g>
</svg>