<?xml version="1.0" encoding="UTF-8"?>
<svg width="400px" height="240px" viewBox="0 0 400 240" version="1.1" xmlns="http://www.w3.org/2000/svg" xmlns:xlink="http://www.w3.org/1999/xlink">
    <title>滚沸_s</title>
    <g id="滚沸_s" stroke="none" stroke-width="1" fill="none" fill-rule="evenodd">
        <path d="M150.040347,-30.0287429 C158.117728,-28.1304953 165.710466,-25.7576858 172.818562,-22.9103144 C179.926657,-20.0629431 183.8038,-17.6901336 184.449991,-15.791886 C185.742372,-13.6563575 187.034753,-12.5885932 188.327134,-12.5885932 C189.619515,-12.5885932 191.881182,-8.6141373 195.112134,-0.665225528 C198.343087,7.28368624 189.29642,14.3427945 191.234991,14.8173564 C191.680071,14.8536749 192.352233,14.8733165 193.251477,14.8762813 L193.818273,14.8760589 C199.09868,14.8562938 210.838301,14.3621643 229.037136,13.3936707 C272.97809,11.0208612 300.602734,8.05484933 311.911068,4.4956351 C316.111306,2.83466846 325.804164,3.07194941 340.989641,5.20747795 C362.637023,7.81756838 375.237738,10.5462993 378.791785,13.3936707 C384.930595,17.1901658 388,21.8764646 388,27.4525669 C388,33.0286691 384.769047,37.8336083 378.307142,41.8673845 C374.106904,44.7147559 369.906666,46.0198011 365.706428,45.7825201 C361.506189,45.5452392 351.813332,43.8842725 336.627855,40.7996202 C318.001336,36.8644781 292.120617,34.4831846 258.985697,33.6557395 C261.041883,34.6178346 263.450817,35.7894675 266.211674,37.1700072 C276.157177,41.9337627 285.045969,46.8807395 292.878052,52.0109378 C300.710135,57.141136 305.869364,59.8436511 308.35574,60.1184831 C310.842115,60.3933152 312.271781,61.5842541 312.644737,63.6912998 C313.017694,65.7983455 313.950085,67.4931431 315.44191,68.7756926 C316.933735,70.0582422 318.176923,71.9820665 319.171473,74.5471656 C320.166023,77.1122647 321.409211,79.1276997 322.901036,80.5934707 C325.63605,82.9753484 325.698209,86.8688024 323.087515,92.2738327 C320.47682,97.6788629 316.809416,101.205874 312.085303,102.854866 C309.35029,103.770973 306.490958,104.137416 303.507307,103.954195 C300.523657,103.770973 299.031831,103.221309 299.031831,102.305202 C299.031831,101.572317 297.415687,100.839431 294.183399,100.106546 C290.205198,99.3736605 284.424375,95.8466493 276.84093,89.5255122 C269.257484,83.2043751 262.979386,76.6542113 258.006635,69.8750208 C255.768897,66.943479 251.231262,62.3171395 244.393729,55.9960024 C237.556196,49.6748654 233.018561,44.4988618 230.780823,40.4679918 L226.141197,33.3840366 C216.336638,33.6175652 205.347427,34.5471003 193.173563,36.1726417 C178.957372,38.0708893 170.2338,39.8504964 167.002847,41.511463 C165.79124,42.2233059 161.853517,43.001884 155.189677,43.8471974 L154.28501,43.9603013 C152.289897,44.2062166 150.067271,44.4577015 147.617132,44.7147559 L147.248088,44.7597665 C147.327452,44.805471 147.406861,44.8513774 147.486314,44.8974857 C159.074866,51.6022899 164.564179,58.221135 163.954256,64.7540211 C163.344332,67.332792 161.36208,70.0405013 158.007499,72.8771493 C154.652918,75.7137972 150.840895,77.6478753 146.571429,78.6793837 C135.287839,81.4300725 120.497188,87.6191226 102.199475,97.2465337 C95.1853518,100.684895 83.5968004,105.455621 67.4338208,111.558712 C51.2708411,117.661803 42.8843895,120.455471 42.2744657,119.939717 C41.3595801,119.252045 42.7319085,117.8767 46.3914511,115.813684 C49.4410699,114.094503 54.3967004,110.226347 61.2583427,104.209215 C68.119985,98.192083 71.5508061,94.8396809 71.5508061,94.1520087 C71.5508061,93.4643365 72.6181727,92.6047462 74.7529059,91.5732378 C76.887639,90.5417295 77.9550056,89.3812826 77.9550056,88.0918972 C77.9550056,86.8025118 80.4709411,84.395659 85.5028121,80.8713389 C90.5346832,77.3470187 93.0506187,75.2410225 93.0506187,74.5533503 C93.0506187,73.8656781 95.3378328,71.5447843 99.912261,67.5906691 C109.366079,59.8543565 113.025622,54.4389378 110.890889,51.3444128 C110.564756,50.9767071 110.490515,50.576232 110.668166,50.1429875 C90.2151985,53.6997749 73.6143166,57.7039695 60.8660568,62.1549056 C52.142485,65.2395579 47.0537348,66.7818841 45.5998061,66.7818841 C44.1458775,66.7818841 41.4803417,68.6801316 37.6031986,72.4766268 C33.4029604,76.035841 29.2027221,77.8747684 25.0024838,77.9934089 C20.8022455,78.1120493 15.4711738,76.6290434 9.0092688,73.5443911 C-7.46858908,64.764996 -14.2535894,58.5956913 -11.3457321,55.0364771 C-9.73025585,53.1382295 -4.07608893,50.4688188 5.61676864,47.0282451 C15.3096262,43.5876713 24.033198,41.2741821 31.7874841,40.0877774 C40.5110559,38.6640917 51.4962945,36.4099227 64.7431999,33.3252703 C93.4986773,26.9186847 112.076654,23.7153919 120.477131,23.7153919 C122.415702,23.7153919 129.119929,23.0035491 140.58981,21.5798634 C142.809787,21.3043113 144.839135,21.0509812 146.677853,20.819873 L147.581326,20.7061707 C152.758919,20.0537099 156.314837,19.5902898 158.24908,19.3159105 L158.564779,19.2707259 C159.114436,19.1912825 159.503911,19.1305117 159.733204,19.0884134 C161.025585,18.6138515 159.733204,16.5969635 155.856061,13.0377492 C154.489368,11.6994847 148.269397,4.51690734 141.825318,-2.96705835 L141.001809,-3.92366836 C133.997698,-12.0615091 126.961653,-20.2764959 125.808203,-21.4866287 C121.607964,-26.4695287 123.869631,-29.7914619 132.593203,-31.4524286 C135.824155,-31.6897095 137.762727,-31.8676702 138.408917,-31.9863107 C139.055108,-32.1049512 142.932251,-31.4524286 150.040347,-30.0287429 Z" id="Combined-Shape" fill="#000000" fill-rule="nonzero"></path>
        <g id="弗" transform="translate(0.000000, 85.000000)" fill="#000000" fill-rule="nonzero">
            <path d="M185.826685,20.2068651 C186.635066,13.6278858 188.251829,9.16357837 190.676974,6.81394289 C193.102118,4.46430741 194.718881,2.74124139 195.527262,1.64474484 C196.335644,0.548248279 197.34612,0 198.558693,0 C200.579646,0 205.935173,1.72306602 214.625274,5.16919806 C223.315374,8.61533009 227.660425,10.6516808 227.660425,11.2782503 C227.660425,12.0614621 228.670901,12.844674 230.691855,13.6278858 C232.712809,14.4110976 232.611761,15.4684336 230.388712,16.7998937 C228.165663,18.1313538 227.054139,20.4418287 227.054139,23.7313183 L226.447853,28.6655529 L244.636435,27.9606622 C284.651317,26.3942386 310.115332,28.1173046 321.028482,33.1298603 C325.87877,35.4794957 328.101819,37.6333283 327.697629,39.5913578 C327.293438,41.5493874 323.857817,43.7815411 317.390765,46.287819 C312.136286,48.1675273 308.195426,49.9297539 305.568187,51.5744988 C302.940947,53.2192436 299.606373,55.9996456 295.564466,59.9157047 C287.480652,67.9044654 276.971693,73.1519846 264.03759,75.6582625 C253.12444,77.6946132 246.657389,77.0680437 244.636435,73.7785541 C244.232244,72.8386999 243.221768,72.251291 241.605005,72.0163275 C239.988242,71.7813639 236.552621,71.7422033 231.298141,71.8988457 C223.214327,72.0554881 218.566133,72.3687728 217.353561,72.8386999 C216.54518,73.1519846 215.736798,74.9533718 214.928417,78.2428615 C214.120035,81.5323512 213.715845,84.5477167 213.715845,87.2889581 C213.715845,90.0301995 214.120035,91.7141049 214.928417,92.3406744 C215.736798,92.3406744 222.20385,91.8315867 234.329572,90.8134113 C246.455293,89.7952359 267.877402,89.2078271 298.595897,89.0511847 L343.461067,89.0511847 L363.468508,92.1057108 C376.806801,94.1420616 386.103188,96.1000911 391.357667,97.9797995 C402.675008,101.739216 402.877103,106.438487 391.963954,112.077612 C387.517856,114.58389 384.587473,116.071993 383.172805,116.54192 C381.758138,117.011847 379.636136,119.009037 376.806801,122.53349 C373.977466,126.057943 371.552322,128.603382 369.531368,130.169806 L359.224505,137.923603 C354.374216,141.526377 351.949072,143.68021 351.949072,144.3851 C351.949072,145.089991 350.7365,145.834042 348.311355,146.617254 C345.886211,147.400466 344.673639,148.34032 344.673639,149.436817 C344.673639,151.316525 335.175157,155.506708 316.178193,162.007366 C297.181229,168.508025 285.055507,171.680032 279.801028,171.52339 C276.163311,171.52339 272.72769,170.661857 269.494164,168.938791 C265.452257,166.745798 261.006159,164.631126 256.155871,162.594775 C251.305582,160.558424 248.274152,159.540249 247.061579,159.540249 C245.444816,159.540249 244.636435,159.226964 244.636435,158.600395 C244.636435,157.973825 243.524911,157.660541 241.301862,157.660541 C239.078813,157.660541 236.855764,156.524884 234.632715,154.253569 C232.409666,151.982255 232.308618,150.102547 234.329572,148.614444 C236.350525,147.126342 236.552621,145.834042 234.935858,144.737546 C233.319095,143.641049 234.329572,143.092801 237.967288,143.092801 C240.392432,143.092801 246.657389,143.327764 256.762157,143.797691 C265.654353,144.267618 272.3235,144.228458 276.769598,143.68021 C281.215695,143.131961 286.065984,141.761341 291.320464,139.568348 C295.766561,137.688639 300.919993,134.869077 306.780759,131.10966 C312.641524,127.350243 315.571907,125.000608 315.571907,124.060753 C315.571907,123.434184 316.481336,122.807614 318.300194,122.181045 C320.119053,121.554475 322.645245,118.891555 325.87877,114.192284 C329.112296,109.493013 330.729059,106.281845 330.729059,104.558779 C330.729059,101.895859 328.000772,100.290274 322.544197,99.7420261 C317.087622,99.1937778 303.850376,99.1546173 282.832458,99.6245443 C243.221768,100.564399 222.001755,101.582574 219.172419,102.67907 C217.959847,103.148998 217.252514,110.354546 217.050418,124.295717 C216.848323,138.236887 215.534703,149.358495 213.109559,157.660541 C210.684414,165.962586 209.673938,171.053463 210.078128,172.933171 C212.099082,179.512151 211.2907,186.717699 207.652984,194.549818 C205.22784,200.345585 203.611077,204.339966 202.802695,206.532959 C201.994314,208.725952 199.468122,210.840624 195.224119,212.876974 C190.980117,214.913325 188.453925,216.714712 187.645543,218.281136 C186.837162,219.22099 186.129828,219.925881 185.523542,220.395808 C184.917256,220.865735 184.108874,221.061538 183.098397,220.983217 C182.087921,220.904896 180.875348,220.51329 179.460681,219.808399 C178.046013,219.103509 176.530298,218.202815 174.913535,217.106318 C172.0842,215.22661 170.164294,213.542705 169.153818,212.054602 C168.143341,210.5665 167.436007,207.786098 167.031816,203.713396 C166.627626,197.917629 167.638102,190.71208 170.063247,182.09675 C170.871628,177.397479 171.781057,168.586346 172.791534,155.663351 C173.802011,142.740355 174.408297,131.657908 174.610392,122.416009 C174.812488,113.174109 174.509345,107.691626 173.700963,105.96856 C170.063247,105.96856 165.415053,106.59513 159.756383,107.848269 C154.097713,109.101407 151.066283,110.119583 150.662092,110.902795 C149.853711,112.469218 148.236948,117.795059 145.811803,126.880316 C142.982468,139.255063 138.738466,146.538933 133.079796,148.731926 C131.463033,149.358495 130.654651,150.024225 130.654651,150.729116 C130.654651,151.434007 127.016935,154.527693 119.741502,160.010176 C112.466069,165.492659 108.828352,168.468864 108.828352,168.938791 C108.828352,169.408718 104.079111,172.110799 94.5806292,177.045033 C85.0821472,181.979268 80.3329062,184.75967 80.3329062,185.386239 C80.3329062,186.012809 74.4721407,188.205802 62.7506097,191.965219 C51.0290788,195.724635 42.1368829,198.074271 36.074022,199.014125 C28.3943983,200.423906 20.7147745,201.912009 13.0351508,203.478433 C5.35552708,205.044856 1.11152449,205.671426 0.303143042,205.358141 C-0.505238404,205.044856 0.303143042,203.94836 2.72828738,202.068651 C5.15343172,200.188943 7.37648069,199.014125 9.39743431,198.544198 C13.4393415,197.604344 25.1608725,191.534452 44.5620272,180.334523 C63.9631819,169.134594 73.6637592,162.751418 73.6637592,161.184994 C73.6637592,160.24514 74.2700453,159.61857 75.4826175,159.305286 C78.3119526,158.365431 81.7475737,154.449372 85.7894809,147.557108 C89.8313882,140.664844 92.5596755,134.399149 93.9743431,128.760024 C95.3890106,123.120899 94.6816768,119.831409 91.8523418,118.891555 C89.4271974,118.891555 83.9706227,120.379658 75.4826175,123.355863 C66.9946123,126.332068 59.5170839,129.308273 53.0500324,132.284478 C47.795553,134.790755 40.9243107,137.688639 32.4363055,140.978129 C23.9483003,144.267618 18.6938209,145.912363 16.6728673,145.912363 C14.6519137,145.912363 13.4393415,145.599079 13.0351508,144.972509 C10.6100065,143.562728 10.2058158,138.471851 11.8225786,129.699878 C13.4393415,120.927906 15.4602952,115.523744 17.8854395,113.487394 L26.3734447,107.378341 C33.244687,102.209143 37.2865942,96.4133759 38.4991664,89.9910389 C40.9243107,79.1827157 43.5515504,72.7603787 46.3808855,70.7240279 C47.1892669,70.2541009 49.3112682,70.4890644 52.7468893,71.4289186 C56.1825105,72.3687728 63.5589912,72.5254151 74.8763314,71.8988457 C88.618816,70.9589915 96.5005351,70.0582979 98.5214887,69.1967649 C100.542442,68.3352319 101.95711,65.3981875 102.765491,60.3856318 C104.382254,54.5898643 104.685397,51.5353382 103.67492,51.2220535 C102.664444,50.9087687 99.7340609,51.2220535 94.8837722,52.1619077 C90.4376742,52.9451195 86.9010054,53.180083 84.2737657,52.8667983 C81.646526,52.5535136 79.120334,51.6136594 76.6951897,50.0472357 C75.0784268,48.9507392 74.2700453,48.2066879 74.2700453,47.815082 C74.2700453,47.4234761 75.0784268,46.7577461 76.6951897,45.8178919 C79.5245247,44.7213953 85.1831949,43.4290958 93.6712,41.9409933 C102.159205,40.4528908 106.807399,39.4347155 107.61578,38.8864672 C108.424161,38.3382189 109.535686,35.0487292 110.950353,29.0179982 C112.365021,22.9872671 114.385975,19.4236533 117.013214,18.3271567 C119.640454,17.2306602 120.954074,16.2516454 120.954074,15.3901124 C120.954074,14.5285794 123.379218,13.706207 128.229507,12.9229951 C133.079796,12.1397833 138.738466,12.1789439 145.205517,13.0404769 C151.672569,13.9020099 155.209238,14.9201853 155.815524,16.095003 C156.42181,17.2698208 158.341716,18.4054779 161.575241,19.5019745 C167.233912,21.5383252 167.436007,23.8879607 162.181528,26.5508809 C160.160574,27.8040198 159.352193,29.2138011 159.756383,30.7802248 C160.564765,32.9732179 166.627626,33.1298603 177.944966,31.2501519 C181.178492,30.7802248 183.098397,30.0361736 183.704684,29.0179982 C184.31097,27.9998228 185.018303,25.0627785 185.826685,20.2068651 Z M237.361002,52.8667983 C238.977765,50.5171628 241.402909,48.0892062 244.636435,45.5829283 C247.869961,43.0766505 248.880438,41.6668692 247.667865,41.3535844 C246.455293,41.0402997 241.402909,41.0402997 232.510713,41.3535844 L219.172419,41.8235115 L217.959847,48.4024909 C217.151466,52.7884771 217.050418,55.1772732 217.656704,55.5688791 C218.26299,55.960485 221.193373,56.156288 226.447853,56.156288 C229.681378,56.156288 232.005475,55.9996456 233.420142,55.6863609 C234.83481,55.3730761 236.14843,54.433222 237.361002,52.8667983 Z M183.401541,43.4682564 L174.913535,43.4682564 C166.829721,43.6248987 161.272098,43.8990229 158.240668,44.2906288 C155.209238,44.6822347 153.289332,45.5829283 152.48095,46.9927096 C150.864187,48.2458485 150.055806,51.3395352 150.055806,56.2737697 C150.055806,61.2080043 150.662092,63.8317639 151.874664,64.1450486 C152.278855,64.301691 156.724953,63.8317639 165.212958,62.7352673 C173.700963,61.6387708 178.551252,60.9338801 179.763824,60.6205954 C180.572205,60.3073107 181.380587,57.3311057 182.188968,51.6919806 L183.401541,43.4682564 Z M176.732394,84.8218408 C177.540775,77.9295768 177.74287,74.4051235 177.33868,74.2484812 C176.934489,74.0918388 172.286296,74.4834447 163.3941,75.4232989 C155.310285,76.2065107 150.156854,77.3030073 147.933805,78.7127886 C145.710756,80.1225699 144.599231,83.2554172 144.599231,88.1113305 C144.19504,93.5938133 144.902374,96.6875 146.721232,97.3923906 C148.540091,98.0972813 154.299808,97.744836 164.000386,96.3350547 L174.913535,94.9252734 L176.732394,84.8218408 Z M96.7026305,97.5098724 C96.7026305,95.9434488 96.7026305,94.5728281 96.7026305,93.3980103 C96.7026305,92.2231926 96.6015828,91.2833384 96.3994874,90.5784478 C96.1973921,89.8735571 95.894249,89.5211118 95.4900583,89.5211118 C93.0649139,89.5211118 90.0334835,89.8735571 86.395767,90.5784478 C82.7580505,91.2833384 80.5350015,91.9490684 79.7266201,92.5756379 C78.5140479,93.2022074 77.9077618,94.6511493 77.9077618,96.9224635 C77.9077618,99.1937778 76.897285,100.877683 74.8763314,101.97418 C72.8553778,102.600749 71.6428056,103.579764 71.2386149,104.911224 C70.8344242,106.242684 70.8344242,107.378341 71.2386149,108.318196 C71.6428056,109.25805 72.6532824,109.727977 74.2700453,109.727977 C75.8868082,109.727977 79.9287155,109.023086 86.395767,107.613305 L96.0963444,105.498633 L96.7026305,97.5098724 Z"></path>
        </g>
    </g>
</svg>