<?xml version="1.0" encoding="UTF-8"?>
<svg width="1000px" height="1000px" viewBox="0 0 1000 1000" version="1.1" xmlns="http://www.w3.org/2000/svg" xmlns:xlink="http://www.w3.org/1999/xlink">
    <title>爪起_char</title>
    <g id="爪起_char" stroke="none" stroke-width="1" fill="none" fill-rule="evenodd">
        <g id="巾已" transform="translate(168.000000, 0.000000)" fill="#000000" fill-rule="nonzero">
            <path d="M311.037868,493.341162 C314.01122,489.113721 317.430575,487 321.295933,487 C325.16129,487 332.743338,489.536465 344.042076,494.609394 C355.935484,499.25958 371.69425,504.649567 391.318373,510.779357 C410.942496,516.909147 424.025245,522.933251 430.56662,528.851669 C434.729313,533.07911 437.256662,537.940667 438.148668,543.436341 C439.040673,548.932015 438,552.102596 435.026648,552.948084 C432.647966,554.216316 430.56662,557.598269 428.782609,563.093943 C426.998597,568.589617 422.984572,572.394314 416.740533,574.508035 C410.496494,576.621755 406.482468,579.898022 404.698457,584.336836 C402.914446,588.775649 388.939691,600.295426 362.774194,618.896168 C331.256662,642.147095 315.795231,655.252163 316.389902,658.211372 C316.984572,660.325093 322.931276,661.804697 334.230014,662.650185 C357.42216,664.763906 369.018233,674.487021 369.018233,691.81953 C369.018233,697.737948 368.274895,701.648331 366.788219,703.55068 C365.301543,705.453028 362.476858,707.461063 358.314165,709.574784 C349.394109,712.956737 336.906031,714.224969 320.84993,713.379481 C306.57784,712.111248 283.831697,712.322621 252.611501,714.013597 C221.391304,715.704574 199.834502,717.818294 187.941094,720.354759 C176.047686,723.313968 164.451613,725.850433 153.152875,727.964153 C141.854137,730.077874 132.042076,733.248455 123.71669,737.475896 C115.391304,741.703337 105.430575,743.817058 93.8345021,743.817058 C82.2384292,743.817058 75.3997195,744.979604 73.3183731,747.304697 C71.2370266,749.62979 70.1963534,762.734858 70.1963534,786.619901 C70.1963534,810.504944 70.7910238,830.690977 71.9803647,847.177998 C74.3590463,870.00618 80.3057504,885.859085 89.8204769,894.736712 C99.3352034,903.614339 115.985975,908.687268 139.772791,909.955501 C190.914446,913.337454 247.259467,915.134116 308.807854,915.345488 C370.356241,915.55686 414.213184,914.394314 440.378682,911.857849 C495.683029,905.939431 532.84993,898.964153 551.879383,890.932015 C559.610098,887.127318 566.448808,882.26576 572.395512,876.347342 C578.342216,870.428925 581.315568,864.721879 581.315568,859.226205 C581.315568,849.925834 586.667602,828.577256 597.371669,795.18047 L601.831697,781.229913 L605.399719,792.009889 C606.58906,799.619283 608.670407,811.350433 611.643759,827.203337 C614.617111,843.056242 619.225806,856.266996 625.469846,866.8356 C631.713885,877.404203 635.72791,885.964771 637.511921,892.517305 C639.295933,899.069839 641.823282,903.508653 645.093969,905.833745 C648.364656,908.158838 650,914.182942 650,923.906057 C650,933.629172 646.431978,942.295426 639.295933,949.904821 C626.213184,962.587145 615.509116,969.139679 607.183731,969.562423 C603.021038,969.562423 597.966339,971.464771 592.019635,975.269468 C565.854137,991.756489 516.496494,1000 443.946704,1000 C399.346424,1000 344.636746,999.260198 279.817672,997.780593 C214.998597,996.300989 174.56101,994.504326 158.504909,992.390606 C132.339411,989.431397 111.674614,984.781211 96.5105189,978.440049 C81.3464236,972.098888 66.0336606,961.530284 50.57223,946.73424 C32.7321178,931.092707 22.0280505,913.97157 18.4600281,895.370828 C15.486676,885.647713 14,863.136588 14,827.837454 C14,792.538319 15.486676,770.027194 18.4600281,760.304079 C22.0280505,743.817058 26.7854137,703.656366 32.7321178,639.822002 C33.9214586,620.798517 36.8948107,608.961681 41.6521739,604.311496 L49.6802244,597.970334 L63.9523142,609.384425 C74.0617111,617.416564 78.2244039,623.334981 76.4403927,627.139679 C74.6563815,630.521632 73.3183731,643.098269 72.4263675,664.869592 C71.5343619,686.640915 71.9803647,698.372064 73.7643759,700.063041 C75.5483871,701.754017 84.171108,700.274413 99.6325386,695.624227 C111.525947,691.396786 129.663394,686.535229 154.044881,681.039555 C178.426367,675.543881 193.293128,672.796044 198.645161,672.796044 C202.213184,672.796044 213.957924,665.18665 233.879383,649.967862 C253.800842,634.749073 265.248247,624.391842 268.221599,618.896168 C279.520337,593.53152 286.359046,571.97157 288.737728,554.216316 L291.413745,538.363412 L258.409537,538.363412 C231.649369,537.940667 210.241234,538.363412 194.185133,539.631644 C156.126227,543.013597 130.852735,547.875155 118.364656,554.216316 C105.281907,561.402967 92.4964937,559.500618 80.0084151,548.509271 C76.4403927,544.281829 74.8050491,539.843016 75.1023843,535.192831 C75.3997195,530.542645 77.9270687,527.583436 82.684432,526.315204 C141.556802,514.055624 197.45582,507.925834 250.381487,507.925834 C278.330996,507.925834 293.049088,506.657602 294.535764,504.121137 C296.02244,501.584672 298.401122,500.31644 301.671809,500.31644 C304.942496,500.31644 308.064516,497.991347 311.037868,493.341162 Z" id="已"></path>
            <g id="爪">
                <path d="M136.049615,144.556701 C137.528415,142.989691 141.102182,144.164948 146.770916,148.082474 C152.43965,152 157.98515,157.092784 163.407417,163.360825 C168.829685,169.628866 171.787285,174.329897 172.280218,177.463918 C173.266085,193.917526 173.759019,218.010309 173.759019,249.742268 C173.759019,279.123711 172.773152,295.773196 170.801418,299.690722 C168.829685,303.608247 167.843818,311.247423 167.843818,322.608247 C167.843818,333.969072 165.379151,345.231959 160.449817,356.396907 C155.520483,367.561856 153.055816,374.71134 153.055816,377.845361 C153.055816,385.28866 142.211282,402.917526 120.522213,430.731959 C111.649412,442.484536 102.653378,452.376289 93.53411,460.407216 C84.4148424,468.438144 71.7218077,477.938144 55.4550059,488.907216 C41.1599377,498.701031 30.8083366,503.695876 24.4002026,503.891753 C17.9920686,504.087629 11.5839346,506.340206 5.17580055,510.649485 C1.72526685,513 0,513.587629 0,512.412371 C0.492933386,510.453608 7.1475341,501.835052 19.9638021,486.556701 C36.7235373,465.793814 45.1034048,454.824742 45.1034048,453.649485 C45.1034048,452.474227 46.0892716,451.494845 48.0610051,450.71134 C49.5398053,450.319588 54.8388392,444.541237 63.9581068,433.376289 C73.0773745,422.21134 79.6087418,414.082474 83.5522089,408.989691 C95.8755436,389.402062 106.227145,358.061856 114.607012,314.969072 C122.98688,271.876289 126.930347,230.742268 126.437414,191.56701 C126.437414,166.494845 129.641481,150.824742 136.049615,144.556701 Z M224.777624,139.85567 C234.636292,133.979381 240.797959,133 243.262626,136.917526 C244.248493,138.876289 247.206093,139.85567 252.135427,139.85567 C255.585961,139.85567 261.377928,142.597938 269.511329,148.082474 C277.64473,153.56701 281.957897,157.28866 282.45083,159.247423 C282.45083,161.597938 282.697297,172.07732 283.19023,190.685567 C283.683164,209.293814 284.915497,220.262887 286.887231,223.592784 C288.858964,226.92268 289.228664,233.778351 287.996331,244.159794 C286.763997,254.541237 287.133697,268.546392 289.105431,286.175258 C291.570098,314.773196 292.063031,348.659794 290.584231,387.835052 C289.105431,427.010309 286.147831,450.123711 281.71143,457.175258 C276.782096,463.835052 268.402229,470.298969 256.571827,476.56701 C251.14956,479.309278 248.438427,482.051546 248.438427,484.793814 C248.438427,489.886598 243.262626,487.536082 232.911025,477.742268 C225.517024,470.690722 219.971524,462.365979 216.274523,452.768041 C212.577523,443.170103 211.961356,434.649485 214.426023,427.206186 C216.397756,419.762887 216.89069,394.592784 215.904823,351.695876 C214.918956,308.798969 215.41189,271.680412 217.383623,240.340206 C220.341224,201.164948 220.834157,174.721649 218.862423,161.010309 C217.876557,153.175258 217.753323,148.278351 218.492723,146.319588 C219.232123,144.360825 221.32709,142.206186 224.777624,139.85567 Z M316.463234,111.649485 C322.871368,109.298969 326.568368,108.123711 327.554235,108.123711 C330.511835,107.731959 335.317936,110.963918 341.972537,117.819588 C348.627137,124.675258 353.679704,130.845361 357.130238,136.329897 C361.566639,144.556701 365.017172,149.649485 367.481839,151.608247 C369.946506,153.56701 371.17884,155.917526 371.17884,158.659794 C371.17884,161.402062 373.150573,164.829897 377.09404,168.943299 C381.037507,173.056701 383.009241,175.896907 383.009241,177.463918 C383.009241,179.030928 385.966841,185.396907 391.882042,196.561856 C397.797243,207.726804 404.944777,221.927835 413.324644,239.164948 C425.647979,265.804124 437.47838,286.56701 448.815848,301.453608 C453.745182,308.113402 457.195716,313.206186 459.167449,316.731959 C462.125049,321.824742 478.268618,335.634021 507.598154,358.159794 C536.927691,380.685567 558.24706,395.474227 571.556261,402.525773 C575.992662,404.876289 584.495763,410.654639 597.065564,419.860825 C609.635365,429.06701 622.3284,435.43299 635.144668,438.958763 C650.918536,443.268041 660.407504,447.185567 663.611571,450.71134 C666.815638,454.237113 664.474204,458.742268 656.58727,464.226804 C650.67207,468.14433 641.183102,470.201031 628.120367,470.396907 C615.057632,470.592784 600.392864,471.572165 584.126062,473.335052 C567.859261,475.097938 555.535926,476.371134 547.156059,477.154639 C538.776191,477.938144 533.846857,479.113402 532.368057,480.680412 C529.410457,482.639175 525.590223,483.324742 520.907356,482.737113 C516.224489,482.149485 512.157788,480.484536 508.707254,477.742268 C503.284987,473.824742 495.64452,468.927835 485.785852,463.051546 C466.56145,450.123711 456.949249,442.28866 456.949249,439.546392 C456.949249,438.371134 453.375482,434.649485 446.227948,428.381443 C439.080414,422.113402 435.506647,417.118557 435.506647,413.396907 C435.506647,409.675258 434.644013,407.814433 432.918746,407.814433 C431.193479,407.814433 428.482346,404.680412 424.785345,398.412371 C421.088345,392.14433 416.282245,386.072165 410.367044,380.195876 C404.451843,374.319588 401.494243,370.793814 401.494243,369.618557 C401.494243,368.443299 400.015443,366.680412 397.057842,364.329897 C394.100242,361.195876 389.294142,354.634021 382.639541,344.64433 C375.98494,334.654639 372.164706,327.505155 371.17884,323.195876 C368.714173,317.71134 363.291906,305.762887 354.912038,287.350515 C350.968571,278.731959 347.394804,268.742268 344.190737,257.381443 C340.98667,246.020619 338.029069,236.716495 335.317936,229.469072 C332.606802,222.221649 330.142135,212.819588 327.923935,201.262887 C325.705735,189.706186 323.734001,181.969072 322.008734,178.051546 C320.283468,174.134021 318.558201,164.927835 316.832934,150.43299 C315.107667,135.938144 313.0127,126.927835 310.548033,123.402062 C307.590433,119.484536 306.358099,117.036082 306.851033,116.056701 C307.343966,115.07732 310.548033,113.608247 316.463234,111.649485 Z M303.154032,10.5773196 C309.562166,3.5257732 314.245034,0 317.202634,0 C319.667301,0 323.117835,1.86082474 327.554235,5.58247423 C331.990636,9.30412371 335.810869,13.4175258 339.014936,17.9226804 C342.219003,22.4278351 344.560437,24.6804124 346.039237,24.6804124 C347.518037,24.6804124 348.873604,26.7371134 350.105937,30.8505155 C351.338271,34.9639175 351.461504,38.1958763 350.475637,40.5463918 C348.996837,42.8969072 344.067503,46.0309278 335.687636,49.9484536 C327.307768,53.8659794 321.146101,57.3917526 317.202634,60.5257732 C313.259167,63.6597938 306.358099,67.9690722 296.499432,73.4536082 C286.640764,78.9381443 278.507363,83.6391753 272.099229,87.556701 C264.212295,93.0412371 247.945493,100.680412 223.298824,110.474227 C198.652155,120.268041 179.920686,126.927835 167.104418,130.453608 C137.528415,137.896907 116.578746,143.969072 104.255411,148.670103 C95.8755436,152.195876 91.1926764,153.56701 90.2068096,152.783505 C89.2209429,152 92.4250099,149.453608 99.8190107,145.14433 C107.705945,140.443299 112.142345,137.701031 113.128212,136.917526 C115.592879,135.350515 120.522213,132.608247 127.916214,128.690722 C135.310214,124.773196 140.978948,122.030928 144.922415,120.463918 C150.344683,118.505155 152.562883,116.546392 151.577016,114.587629 C150.591149,113.804124 150.344683,113.314433 150.837616,113.118557 C151.33055,112.92268 152.316416,113.020619 153.795216,113.412371 C157.24575,114.195876 164.639751,110.180412 175.977219,101.365979 C187.314687,92.5515464 195.448088,87.1649485 200.377421,85.2061856 C209.250222,81.2886598 220.834157,74.7268041 235.129225,65.5206186 C249.424293,56.314433 256.818294,50.7319588 257.311228,48.7731959 C257.311228,45.6391753 258.297094,44.0721649 260.268828,44.0721649 C261.747628,44.0721649 267.662829,39.9587629 278.01443,31.7319588 C288.366031,23.5051546 296.745898,16.4536082 303.154032,10.5773196 Z"></path>
            </g>
        </g>
    </g>
</svg>