<?xml version="1.0" encoding="UTF-8"?>
<svg width="1000px" height="1000px" viewBox="0 0 1000 1000" version="1.1" xmlns="http://www.w3.org/2000/svg" xmlns:xlink="http://www.w3.org/1999/xlink">
    <title>细吟_char</title>
    <g id="细吟_char" stroke="none" stroke-width="1" fill="none" fill-rule="evenodd">
        <path d="M709.030485,648.606302 C712.73194,648.606302 726.968308,654.517346 751.739587,666.339433 C776.510866,678.161521 791.459052,688.245067 796.584144,696.59007 C803.987055,710.498409 804.983601,723.189768 799.573781,734.664147 C794.163961,746.138526 782.917231,754.657384 765.83359,760.220719 C756.152861,763.697804 749.746495,765.262492 746.614495,764.914784 C743.482494,764.567075 739.06922,762.654679 733.374673,759.177594 C725.402307,752.223425 716.57576,748.74634 706.89503,748.74634 C697.2143,748.74634 684.116842,745.616964 667.602656,739.358211 C651.08847,733.099459 620.48028,729.970083 575.778087,729.970083 C574.400795,729.970083 573.038503,729.981305 571.691263,730.00314 C578.152687,734.378292 581.536897,739.094841 581.84466,744.153028 C582.414241,750.839635 581.417474,762.290449 578.854359,778.505472 C576.291243,794.720494 574.440105,803.496666 573.300942,804.833987 C571.022618,806.505639 569.029083,814.696733 567.32034,829.407268 C565.611596,844.117804 561.766924,858.828339 555.786321,873.538875 C549.805719,888.24941 546.245837,898.446486 545.106674,904.130102 C543.967512,909.813718 541.546792,915.079421 537.844515,919.927212 C534.142237,924.775002 529.158402,932.213852 522.893009,942.243763 C516.627616,952.273673 508.795875,961.467758 499.397786,969.826017 C489.999696,978.184276 485.300652,983.115648 485.300652,984.620135 C485.300652,986.124622 483.164722,987.879856 478.892864,989.885838 C474.621005,991.89182 472.485076,994.064968 472.485076,996.40528 C472.485076,998.411262 464.368544,1005.85011 448.135481,1018.72183 C431.902417,1031.59355 417.520493,1042.04137 404.989707,1050.0653 C391.319759,1058.42356 384.484785,1063.10419 384.484785,1064.10718 C384.484785,1065.11017 378.361788,1067.86839 366.115793,1072.38185 C353.869798,1076.89531 345.753266,1080.48936 341.766198,1083.16401 C337.77913,1086.17298 327.384273,1091.43868 310.581629,1098.96112 C293.778984,1106.48355 282.814547,1110.5791 277.688316,1111.24776 C271.422924,1112.25075 265.442321,1112.25075 259.74651,1111.24776 C254.050698,1110.5791 253.481117,1108.40595 258.037766,1104.72831 C260.316091,1103.05666 263.733578,1100.38202 268.290227,1096.70439 C280.251432,1088.34613 296.769286,1077.81472 317.843789,1065.11017 C373.662743,1030.33981 410.685519,995.402289 428.912116,960.297602 C434.038347,951.605013 438.025415,944.41691 440.873321,938.733294 C448.277876,927.031732 455.397641,912.822691 462.232615,896.106174 C469.067589,879.389656 472.485076,868.022424 472.485076,862.004478 C472.485076,856.320862 474.7634,844.535717 479.32005,826.649043 C483.876699,808.762369 487.294186,786.111487 489.572511,758.696398 C490.002423,753.523255 490.483038,748.796525 491.014355,744.516208 L490.786974,744.573838 L490.786974,744.573838 C479.39788,747.355506 462.598967,753.614258 440.390234,763.350095 C415.334228,774.476766 391.132403,788.037397 367.784761,804.031986 C344.437119,820.026575 330.200751,832.54408 325.075659,841.5845 C319.950567,851.320337 314.825475,856.709819 309.700382,857.752944 C304.57529,858.796069 297.457106,856.535964 288.345831,850.972629 C276.956738,844.713877 270.123281,840.019812 267.845462,836.890436 C265.567644,833.76106 260.157824,828.719287 251.616004,821.765118 C243.074183,814.810948 238.233818,810.638447 237.094909,809.247613 C236.525454,808.552196 238.518546,805.596674 243.074183,800.381047 C247.629821,795.16542 253.466732,789.602085 260.584915,783.691041 C267.703099,777.779997 274.109464,773.433641 279.804011,770.651973 C295.748742,761.611553 323.367295,750.137174 362.659669,736.228835 C401.952042,722.320496 431.563686,713.627785 451.494601,710.1507 C461.17533,707.369032 469.574787,704.761219 476.692971,702.32726 C483.811154,699.8933 559.975719,679.204647 621.476826,675.727562 C640.838286,675.032145 654.078107,673.815165 661.196291,672.076623 C668.314474,670.338081 676.144476,666.687142 684.686297,661.123806 C697.2143,652.778803 705.329029,648.606302 709.030485,648.606302 Z M550.579717,513 C557.982628,513 570.08354,515.433959 586.882454,520.301878 C603.681367,525.169796 614.64337,529.690006 619.768462,533.862508 C624.3241,536.644176 627.171373,539.599698 628.310282,542.729074 C629.449192,545.85845 630.018646,551.59564 630.018646,559.940643 C630.018646,567.590229 629.306828,572.97971 627.883191,576.109087 C626.459555,579.238463 622.615735,583.410964 616.351734,588.626591 C610.087732,593.842218 604.820276,596.971595 600.549366,598.01472 C596.278456,599.057845 588.733181,598.883991 577.913542,597.493157 C561.399356,596.102323 549.15608,596.79774 541.183715,599.579408 C497.905158,615.573997 473.703334,628.091502 468.578241,637.131922 C467.439332,638.522756 464.022604,641.304424 458.328057,645.476926 C445.230599,653.126512 429.855322,647.910885 412.202227,629.830045 C402.521497,620.094208 392.271313,611.053787 381.451673,602.708784 L363.513851,589.148154 L372.055671,578.7169 C378.319673,571.762731 389.993494,565.15627 407.077135,558.897518 C474.842243,533.862508 512.71098,521.345003 520.683346,521.345003 C527.516802,521.345003 532.784258,519.954169 536.485713,517.172502 C540.187169,514.390834 544.88517,513 550.579717,513 Z" id="Combined-Shape" fill="#000000" fill-rule="nonzero"></path>
        <g id="细" transform="translate(88.000000, -48.000000)" fill="#000000" fill-rule="nonzero">
            <path d="M140.520934,499.877417 C174.51995,485.905688 199.185903,475.168156 214.518793,467.66482 C229.851683,460.161484 238.351437,456.409816 240.018055,456.409816 C241.684673,456.409816 253.017679,450.976365 274.017071,440.109465 C295.016464,429.242565 310.516015,421.997964 320.515726,418.375664 C330.515436,414.753364 338.515205,410.872328 344.515031,406.732557 C350.514858,402.592785 355.681375,399.87606 360.014583,398.582382 C364.347791,397.288703 369.847632,396.900599 376.514105,397.418071 C381.180637,397.418071 384.18055,398.323646 385.513845,400.134796 C386.84714,401.945946 387.847111,405.826982 388.513758,411.777903 C389.180406,417.728825 389.013744,421.868597 388.013773,424.197218 C387.013802,426.52584 383.513903,428.725093 377.514077,430.794979 C370.180955,435.452222 347.848268,452.011308 310.516015,480.472238 L216.518735,551.10709 C198.519256,565.078819 186.019617,575.686984 179.01982,582.931584 C172.020023,590.176185 165.853534,598.973199 160.520355,609.322628 C157.187118,615.014814 150.187321,619.154586 139.520963,621.741943 C131.521194,623.811829 125.521368,624.458668 121.521484,623.682461 C117.521599,622.906254 110.521802,620.707 100.522091,617.0847 C74.5228437,607.252742 58.6899685,599.878774 53.0234658,594.962795 C47.3569631,590.046817 44.190388,581.37917 43.5237406,568.959855 C43.5237406,555.505598 48.523596,545.156169 58.5233066,537.911568 C68.5230173,530.666968 95.8555597,517.988918 140.520934,499.877417 Z M508.510286,162.227298 C525.176471,159.639941 552.842337,158.216895 591.507885,157.958159 C630.173432,157.699423 656.506004,158.863734 670.505599,161.451091 C749.169989,175.940292 802.835103,193.534321 831.50094,214.233179 C848.167125,225.617551 858.166835,234.673301 861.500072,241.40043 C864.833309,248.127559 864.833309,257.442045 861.500072,269.343888 C858.166835,280.72826 855.166922,292.888839 852.500333,305.825625 L844.500564,350.845641 C841.833975,368.43967 839.834033,388.621056 838.500738,411.3898 C835.834148,454.857401 830.500969,478.402352 822.501201,482.024652 C819.834611,483.059595 818.501317,486.940631 818.501317,493.66776 C818.501317,501.429832 808.83493,513.849146 789.502156,530.925704 C782.835682,536.61789 779.502445,540.757661 779.502445,543.345019 C779.502445,545.932376 772.835971,551.495194 759.503024,560.033473 C746.170076,568.571752 734.837071,575.94572 725.504007,582.155377 C714.171002,589.917449 702.171349,593.022278 689.505049,591.469863 C676.838749,589.917449 668.505657,584.225263 664.505772,574.393305 C662.50583,569.218591 657.339313,561.715255 649.006221,551.883298 C640.673129,542.05134 636.506583,536.359154 636.506583,534.80674 C636.506583,533.254325 634.173317,530.5376 629.506785,526.656565 C624.840253,522.775529 622.506988,516.953975 622.506988,509.191903 C622.506988,497.807531 619.507074,491.20977 613.507248,489.39862 C607.507422,487.58747 591.841208,487.458102 566.508608,489.010517 C538.509418,492.115345 518.343335,496.125749 506.010358,501.041728 C493.677382,505.957707 486.177599,513.849146 483.51101,524.716047 C476.177888,544.379962 462.511617,548.778469 442.512196,537.911568 C433.179133,532.736854 428.512601,527.691507 428.512601,522.775529 C428.512601,517.85955 425.512688,511.391157 419.512861,503.370349 C413.513035,495.349542 411.513093,482.800859 413.513035,465.724302 C415.512977,448.647744 414.679668,432.994233 411.013107,418.763768 C407.346547,404.533303 404.679957,389.655999 403.013339,374.131856 C401.34672,358.607712 399.180116,349.034491 396.513527,345.41219 C394.513585,343.342305 391.846995,332.475404 388.513758,312.811489 C385.180521,293.147574 383.513903,277.882167 383.513903,267.015266 C383.513903,257.70078 384.847198,244.505258 387.513787,227.428701 C388.847082,215.009386 390.5137,207.247314 392.513643,204.142486 C394.513585,201.037657 399.846764,197.156621 408.51318,192.499378 C433.179133,179.562592 466.511501,169.471899 508.510286,162.227298 Z M558.508839,209.575936 C555.84225,205.953636 546.342525,205.048061 530.009664,206.859211 C513.676803,208.670361 495.177339,212.680764 474.51127,218.890422 C453.845201,225.100079 441.178901,231.051001 436.512369,236.743187 C432.512485,240.365487 430.512543,243.082212 430.512543,244.893362 C430.512543,246.704512 432.179161,249.421237 435.512398,253.043537 C440.17893,258.735723 440.678916,269.343888 437.012355,284.868031 C433.345794,300.392175 433.179133,310.482868 436.512369,315.140111 C439.845606,319.797354 441.512225,327.559426 441.512225,338.426326 C441.512225,356.537827 446.178756,379.824042 455.51182,408.284971 L463.511588,436.228429 C466.178178,446.577858 468.17812,452.011308 469.511415,452.52878 C470.844709,453.563723 481.677729,451.623205 502.010474,446.707226 C522.343219,441.791247 532.509592,438.815786 532.509592,437.780844 C533.176239,435.710958 535.176181,423.550379 538.509418,401.299107 C542.509302,376.460477 544.175921,360.289495 543.509273,352.786159 C542.842626,345.282823 539.509389,340.754947 533.509563,339.202533 C527.509736,338.685062 521.176586,340.237476 514.510113,343.859776 C509.176934,346.447133 499.84387,348.128916 486.510923,348.905123 C473.177975,349.68133 464.178236,349.034491 459.511704,346.964605 C456.845114,344.894719 453.845201,340.237476 450.511964,332.992876 C449.17867,328.335633 449.012008,324.583965 450.011979,321.737872 C451.01195,318.891779 455.178496,314.881375 462.511617,309.706661 C473.177975,300.909646 489.84416,293.923782 512.51017,288.749067 L545.509216,280.210788 L545.509216,256.924573 C545.509216,240.882958 547.67582,229.757322 552.009028,223.547665 C556.342235,217.338007 558.508839,212.680764 558.508839,209.575936 Z M666.505715,211.12835 C647.839588,207.50605 630.340094,205.306796 614.007234,204.530589 C597.674373,203.754382 588.841295,204.401221 587.508,206.471107 C585.508058,209.058464 591.007899,214.621282 604.007523,223.159561 C617.007147,231.69784 623.506959,239.58928 623.506959,246.83388 C623.506959,254.07848 625.006915,258.865091 628.006829,261.193713 C631.006742,263.522334 638.506525,264.945381 650.506177,265.462852 C663.172478,267.015266 672.005555,269.602624 677.005411,273.224924 C682.005266,276.847224 684.505194,282.798145 684.505194,291.077689 C684.505194,301.427117 680.838633,309.577293 673.505512,315.528214 C666.172391,321.479136 656.839328,323.937125 645.506322,322.902183 C636.173259,321.349768 631.506727,333.769083 631.506727,360.160127 C631.506727,374.131856 630.173432,388.879792 627.506843,404.403935 C624.840253,419.928079 624.173606,428.078254 625.506901,428.854461 C626.840196,429.630668 635.506611,430.018772 651.506149,430.018772 C667.505686,430.018772 677.83872,432.088658 682.505252,436.228429 C687.838431,441.403144 690.338358,448.90648 690.005035,458.738437 C689.671711,468.570395 686.171812,476.591202 679.505338,482.800859 C675.505454,486.940631 673.33885,489.657356 673.005526,490.951035 C672.672203,492.244713 674.505483,493.150288 678.505367,493.66776 C689.171725,496.772588 697.838141,492.632817 704.504615,481.248445 C729.170568,435.710958 741.503544,373.614384 741.503544,294.958724 C742.170192,281.504467 742.336854,271.801877 742.00353,265.850956 C741.670206,259.900034 740.503573,253.431641 738.503631,246.445776 C736.503689,239.459912 734.670409,234.932037 733.00379,232.862151 C731.337172,230.792265 726.837302,228.07554 719.504181,224.711976 C712.17106,221.348411 705.337924,219.01979 699.004774,217.726111 C692.671624,216.432432 681.838604,214.233179 666.505715,211.12835 Z M5.52484014,242.952844 C6.19148751,232.085944 5.0248546,224.970711 2.02494141,221.607147 C-0.974971789,218.243582 -0.6416481,216.173697 3.02491247,215.39749 C6.69147305,214.621282 8.52475333,212.163293 8.52475333,208.023521 C8.52475333,203.88375 10.0247099,201.42576 13.0246231,200.649553 C16.0245363,199.873346 17.6911548,197.027253 18.0244785,192.111274 C18.3578021,187.195296 23.6909812,183.961099 34.0240155,182.408685 C44.3570499,180.85627 56.6900263,173.482302 71.0229449,160.286781 C85.3558635,147.091259 93.5222939,138.164876 95.522236,133.507633 C97.5221782,128.85039 100.022106,126.521769 103.022019,126.521769 C106.021932,126.521769 107.521889,125.098722 107.521889,122.252629 C107.521889,119.406536 111.855097,114.749293 120.521513,108.2809 C129.187929,101.812507 133.521137,97.8021034 133.521137,96.249689 C133.521137,94.6972747 141.02092,85.3827886 156.020486,68.3062309 C171.020052,51.2296732 180.186453,40.6215085 183.51969,36.481737 C186.852927,32.3419654 193.5194,25.226733 203.519111,15.1360398 C213.518822,5.0453466 219.351986,0 221.018605,0 C222.685223,0 229.851683,2.32862151 242.517983,6.98586453 C249.851104,10.0906932 254.517635,12.6780504 256.517578,14.7479362 C258.51752,16.817822 259.517491,21.475065 259.517491,28.7196653 C259.517491,34.9293226 258.350858,39.4571978 256.017592,42.3032907 C253.684326,45.1493837 247.851162,49.6772588 238.518098,55.8869162 C224.518504,65.2014022 211.852203,76.0683026 200.519198,88.4876173 C189.186193,100.906932 177.519863,112.420672 165.520211,123.028836 C153.520558,133.637001 147.520731,139.846658 147.520731,141.657808 C147.520731,143.468958 143.854171,148.126202 136.52105,155.629537 C129.187929,163.132873 125.521368,167.143277 125.521368,167.660749 C126.188015,168.695692 128.021296,169.083795 131.021209,168.825059 C134.021122,168.566324 137.687683,167.660749 142.020891,166.108334 C146.354099,164.55592 149.18735,163.262241 150.520645,162.227298 C155.187176,158.087527 175.186598,159.898677 210.518909,167.660749 C217.85203,168.695692 222.685223,168.825059 225.018489,168.048852 C227.351755,167.272645 230.851654,163.779713 235.518185,157.570055 C241.518012,149.807984 245.517896,144.115798 247.517838,140.493498 C253.517664,131.179012 264.85067,117.33665 281.516854,98.9664141 C298.183039,80.5961778 311.182663,67.7887595 320.515726,60.5441592 C338.515205,47.0899016 348.514916,43.4676015 350.514858,49.6772588 C350.514858,52.2646161 352.681462,53.5582947 357.01467,53.5582947 C361.347878,53.5582947 363.514482,54.205134 363.514482,55.4988126 C363.514482,56.7924912 367.514366,59.7679521 375.514134,64.4251951 C393.513614,73.7396811 399.846764,86.4177315 394.513585,102.459346 C391.846995,108.151532 388.180435,113.584982 383.513903,118.759697 C378.847371,123.934411 375.180811,126.521769 372.514221,126.521769 C369.180984,126.521769 356.014699,136.353726 333.015364,156.017641 C310.01603,175.681556 298.516362,187.065928 298.516362,190.170757 C298.516362,192.240642 295.349787,195.474839 289.016637,199.873346 C282.683487,204.271853 273.850409,213.198236 262.517404,226.652493 L225.518475,264.686645 C213.518822,278.140902 207.518995,286.16171 207.518995,288.749067 C207.518995,291.336424 203.519111,295.864299 195.519343,302.332693 C187.519574,308.801086 184.519661,312.682121 186.519603,313.9758 C188.519545,315.269479 200.852522,312.035282 223.518532,304.27321 C239.51807,297.546082 250.184428,293.794414 255.517607,293.018206 C260.850786,292.241999 269.183878,293.147574 280.516883,295.734932 C297.849715,298.83976 311.84931,304.661314 322.515668,313.199593 C333.182026,321.737872 338.515205,331.440461 338.515205,342.307362 C338.515205,351.621848 336.181939,359.383919 331.515408,365.593577 C327.515523,370.25082 322.182344,374.002488 315.51587,376.848581 C308.849397,379.694674 291.849889,384.998756 264.517346,392.760828 C234.518214,401.557842 209.685599,410.613593 190.019502,419.928079 C170.353404,429.242565 160.520355,436.487165 160.520355,441.661879 C160.520355,444.766708 155.353838,448.000905 145.020804,451.364469 C134.687769,454.728033 123.521426,456.927287 111.521773,457.96223 L92.5223228,461.067059 L86.5224965,444.766708 C82.5226122,433.899808 79.1893753,425.361529 76.5227858,419.151872 C73.8561963,412.942214 72.8562252,407.12066 73.5228726,401.68721 C74.18952,396.25376 71.8562542,390.690942 66.5230751,384.998756 C57.1900119,373.096913 57.1900119,365.076105 66.5230751,360.936334 C71.1896068,359.383919 73.5228726,356.408459 73.5228726,352.009951 C73.5228726,347.611444 74.8561674,345.41219 77.5227569,345.41219 C80.1893464,345.41219 81.5226411,343.212937 81.5226411,338.814429 C81.5226411,334.415922 85.5225254,332.216669 93.5222939,332.216669 C98.1888256,332.216669 102.022048,331.181726 105.021961,329.11184 C108.021874,327.041954 111.521773,322.902183 115.521657,316.692525 C122.188131,305.825625 128.521281,297.02861 134.521108,290.301481 C147.187408,275.294809 151.187292,267.015266 146.52076,265.462852 C143.854171,264.945381 135.687741,266.497795 122.021469,270.120095 C108.355198,273.742395 96.5222071,277.364695 86.5224965,280.986995 C72.5229015,286.679181 61.8565435,289.78401 54.5234224,290.301481 C47.1903012,290.818953 39.5238564,289.007803 31.5240878,284.868031 C12.8579613,274.518602 4.19154538,260.546873 5.52484014,242.952844 Z"></path>
        </g>
    </g>
</svg>