<?xml version="1.0" encoding="UTF-8"?>
<svg width="1000px" height="1000px" viewBox="0 0 1000 1000" version="1.1" xmlns="http://www.w3.org/2000/svg" xmlns:xlink="http://www.w3.org/1999/xlink">
    <title>起_char</title>
    <g id="起_char" stroke="none" stroke-width="1" fill="none" fill-rule="evenodd">
        <g id="已" transform="translate(159.000000, 140.000000)" fill="#000000" fill-rule="nonzero">
            <path d="M333,10 C336.333333,3.33333333 340.166667,0 344.5,0 C348.833333,0 357.333333,4 370,12 C383.333333,19.3333333 401,27.8333333 423,37.5 C445,47.1666667 459.666667,56.6666667 467,66 C471.666667,72.6666667 474.5,80.3333333 475.5,89 C476.5,97.6666667 475.333333,102.666667 472,104 C469.333333,106 467,111.333333 465,120 C463,128.666667 458.5,134.666667 451.5,138 C444.5,141.333333 440,146.5 438,153.5 C436,160.5 420.333333,178.666667 391,208 C355.666667,244.666667 338.333333,265.333333 339,270 C339.666667,273.333333 346.333333,275.666667 359,277 C385,280.333333 398,295.666667 398,323 C398,332.333333 397.166667,338.5 395.5,341.5 C393.833333,344.5 390.666667,347.666667 386,351 C376,356.333333 362,358.333333 344,357 C328,355 302.5,355.333333 267.5,358 C232.5,360.666667 208.333333,364 195,368 C181.666667,372.666667 168.666667,376.666667 156,380 C143.333333,383.333333 132.333333,388.333333 123,395 C113.666667,401.666667 102.5,405 89.5,405 C76.5,405 68.8333333,406.833333 66.5,410.5 C64.1666667,414.166667 63,434.833333 63,472.5 C63,510.166667 63.6666667,542 65,568 C67.6666667,604 74.3333333,629 85,643 C95.6666667,657 114.333333,665 141,667 C198.333333,672.333333 261.5,675.166667 330.5,675.5 C399.5,675.833333 448.666667,674 478,670 C540,660.666667 581.666667,649.666667 603,637 C611.666667,631 619.333333,623.333333 626,614 C632.666667,604.666667 636,595.666667 636,587 C636,572.333333 642,538.666667 654,486 L659,464 L663,481 C664.333333,493 666.666667,511.5 670,536.5 C673.333333,561.5 678.5,582.333333 685.5,599 C692.5,615.666667 697,629.166667 699,639.5 C701,649.833333 703.833333,656.833333 707.5,660.5 C711.166667,664.166667 713,673.666667 713,689 C713,704.333333 709,718 701,730 C686.333333,750 674.333333,760.333333 665,761 C660.333333,761 654.666667,764 648,770 C618.666667,796 563.333333,809 482,809 C432,809 370.666667,807.833333 298,805.5 C225.333333,803.166667 180,800.333333 162,797 C132.666667,792.333333 109.5,785 92.5,775 C75.5,765 58.3333333,748.333333 41,725 C21,700.333333 9,673.333333 5,644 C1.66666667,628.666667 0,593.166667 0,537.5 C0,481.833333 1.66666667,446.333333 5,431 C9,405 14.3333333,341.666667 21,241 C22.3333333,211 25.6666667,192.333333 31,185 L40,175 L56,193 C67.3333333,205.666667 72,215 70,221 C68,226.333333 66.5,246.166667 65.5,280.5 C64.5,314.833333 65,333.333333 67,336 C69,338.666667 78.6666667,336.333333 96,329 C109.333333,322.333333 129.666667,314.666667 157,306 C184.333333,297.333333 201,293 207,293 C211,293 224.166667,281 246.5,257 C268.833333,233 281.666667,216.666667 285,208 C297.666667,168 305.333333,134 308,106 L311,81 L274,81 C244,80.3333333 220,81 202,83 C159.333333,88.3333333 131,96 117,106 C102.333333,117.333333 88,114.333333 74,97 C70,90.3333333 68.1666667,83.3333333 68.5,76 C68.8333333,68.6666667 71.6666667,64 77,62 C143,42.6666667 205.666667,33 265,33 C296.333333,33 312.833333,31 314.5,27 C316.166667,23 318.833333,21 322.5,21 C326.166667,21 329.666667,17.3333333 333,10 Z"></path>
        </g>
    </g>
</svg>