<?xml version="1.0" encoding="UTF-8"?>
<svg width="1000px" height="1000px" viewBox="0 0 1000 1000" version="1.1" xmlns="http://www.w3.org/2000/svg" xmlns:xlink="http://www.w3.org/1999/xlink">
    <title>退_char</title>
    <g id="退_char" stroke="none" stroke-width="1" fill="none" fill-rule="evenodd">
        <g id="艮" transform="translate(50.000000, 0.000000)" fill="#000000" fill-rule="nonzero">
            <path d="M302.567108,61.5206036 C332.106435,56.3499182 354.814793,48.5938901 370.692181,38.2525194 C386.56957,27.9111486 396.354472,22.5557959 400.046888,22.1864612 C403.739304,21.8171266 411.677998,17.9391125 423.86297,10.5524191 C436.047943,3.16572574 445.832845,-0.342953622 453.217677,0.0263810479 C460.602508,0.395715718 467.98734,5.38173376 475.372172,14.9844352 C482.018521,22.3711286 491.988044,30.865826 505.280741,40.4685274 C518.573438,50.0712288 526.881374,54.8725795 530.204548,54.8725795 C533.527722,54.8725795 537.404759,58.0119242 541.835658,64.2906136 C546.266557,70.569303 549.958973,77.7713291 552.912906,85.8966918 C557.343805,99.9314093 547.743524,125.415502 524.112062,162.348969 C513.773297,177.861025 508.603915,188.202395 508.603915,193.373081 C508.603915,198.543766 503.803774,211.839814 494.203493,233.261225 C477.956863,275.365378 465.402649,330.396243 456.540851,398.353823 C454.325401,412.38854 450.632986,420.329235 445.463603,422.175909 C440.294221,424.022582 434.386356,428.269931 427.740007,434.917955 C424.047591,440.08864 420.355175,442.85865 416.662759,443.227985 C412.970343,443.59732 406.323995,443.043318 396.723714,441.565979 C381.95405,438.611302 369.030594,438.241967 357.953347,440.457975 C349.091548,441.935314 334.691126,448.39867 314.752081,459.848045 C294.813035,471.29742 278.935646,481.823458 267.119916,491.426159 C258.996601,498.812853 251.427148,503.244869 244.411558,504.722208 C237.395968,506.199546 225.026374,504.722208 207.302778,500.290192 C191.794631,497.335514 180.532763,493.4575 173.517173,488.656149 C166.501582,483.854799 161.886063,477.022107 159.670613,468.158075 L156.347439,458.186039 C155.608956,458.924708 154.501231,465.572733 153.024264,478.130111 C150.070332,493.642167 149.331849,515.432913 150.808815,543.502348 C152.285781,571.571783 151.362677,592.439192 148.039503,606.104574 C144.716329,619.769957 142.6855,657.072759 141.947017,718.012979 C141.208534,778.9532 139.731567,811.269984 137.516118,814.96333 C135.300668,818.656677 136.039151,820.50335 139.731567,820.50335 C142.6855,820.50335 155.055093,813.485992 176.840347,799.451274 C198.625601,785.416557 215.795335,773.597847 228.349549,763.995146 C284.47427,719.674985 316.96753,693.452224 325.829328,685.326861 C333.21416,677.940168 338.198922,674.246821 340.783613,674.246821 C343.368304,674.246821 344.291408,670.922809 343.552925,664.274785 C342.814441,659.1041 340.22975,656.149422 335.798851,655.410753 C331.367952,654.672084 317.336772,653.933414 293.70531,653.194745 C248.657836,652.456076 231.672723,647.654725 242.749971,638.790693 C243.488454,638.052023 244.226937,637.682689 244.96542,637.682689 C250.134802,634.728011 254.750322,631.403999 258.81198,627.710653 C262.873637,624.017306 270.627711,619.215955 282.0742,613.306601 C293.520689,607.397246 299.243934,603.703899 299.243934,602.22656 C299.243934,600.749222 292.597585,595.763204 279.304888,587.268506 C266.012191,578.773809 258.258117,574.52646 256.042668,574.52646 C252.350252,574.52646 245.703903,569.725109 236.103622,560.122408 C226.503341,550.519707 221.7032,543.871683 221.7032,540.178336 C221.7032,529.836965 226.687962,523.188941 236.657484,520.234264 C246.627007,517.279586 259.919705,517.648921 276.535576,521.342268 C293.151448,525.035614 311.798148,532.052973 332.475677,542.394344 L369.030594,559.014404 L382.323292,547.934364 C391.923573,540.547671 415.924276,517.833588 454.325401,479.792117 C492.726527,441.750646 512.665573,418.297895 514.142539,409.433863 C518.573438,390.22846 532.604618,394.291141 556.23608,421.621907 L597.221897,467.050071 C604.606728,475.914103 609.037627,482.37746 610.514594,486.440141 C611.99156,490.502823 612.360802,495.858175 611.622319,502.5062 C607.929903,518.018256 593.160239,530.575634 567.313328,540.178336 C553.282147,543.871683 538.697105,550.519707 523.5582,560.122408 C508.419294,569.725109 498.265151,574.52646 493.095768,574.52646 C487.926386,574.52646 480.541554,578.589142 470.941273,586.714504 C461.340992,594.839867 452.479194,601.857226 444.355879,607.76658 L433.278631,614.414605 L452.109952,631.034665 C484.603212,661.320108 513.773297,684.218857 539.620209,699.730913 C552.174423,706.378937 572.48271,716.350973 600.545071,729.647022 C628.607432,742.94307 646.70027,751.068432 654.823585,754.02311 C662.208416,756.239118 675.131872,761.594471 693.593951,770.089168 C712.056031,778.583865 733.841285,786.155226 758.949713,792.80325 C784.058141,799.451274 801.412496,804.252625 811.012777,807.207302 C820.613058,810.16198 834.644239,814.409328 853.106318,819.949348 C871.568398,825.489368 884.122612,833.799399 890.76896,844.879439 C901.846208,864.084841 902.953933,878.488894 894.092135,888.091595 C891.138202,891.046272 880.430196,892.523611 861.968116,892.523611 C836.859688,892.523611 813.228226,896.77096 791.073731,905.265657 C768.919236,913.760355 755.811159,923.547723 751.749502,934.627763 C747.687844,945.707804 735.687493,946.077138 715.748447,935.735767 C706.886649,930.565082 687.501465,922.993721 657.592896,913.021685 C627.684328,903.049649 608.668386,895.108954 600.545071,889.199599 C592.421756,883.290244 583.190716,878.858228 572.851952,875.903551 C565.46712,872.948874 555.128355,867.224186 541.835658,858.729489 C528.542961,850.234791 518.573438,843.032765 511.927089,837.123411 C507.49619,833.430064 499.003634,826.412705 486.44942,816.071334 C473.895206,807.945972 456.725472,792.80325 434.940218,770.64317 C413.154964,748.48309 396.354472,728.908352 384.538741,711.918957 C371.984527,696.406901 363.676591,688.650873 359.614934,688.650873 C355.553276,688.650873 347.614582,694.190893 335.798851,705.270933 C281.151096,761.409803 236.103622,810.16198 200.656429,851.527463 C188.102215,865.56218 179.9789,873.687543 176.286485,875.903551 C172.594069,878.119559 170.747861,881.074236 170.747861,884.767583 C170.747861,888.46093 165.024616,897.140294 153.578127,910.805677 C142.131638,924.47106 136.408393,932.411755 136.408393,934.627763 C136.408393,936.843771 135.485289,939.059779 133.639081,941.275787 C131.792873,943.491795 130.869769,948.293146 130.869769,955.67984 C130.869769,962.327864 128.65432,967.867884 124.22342,972.2999 C119.792521,976.731916 110.561482,982.641271 96.5303013,990.027964 L77.6989802,1000 L65.5140077,983.37994 C53.6982769,969.345222 35.605439,938.32111 11.2354941,890.307603 C4.58914547,876.272886 0.896729574,867.408853 0.158246395,863.715507 C-0.580236783,860.02216 1.26597116,855.220809 5.69687024,849.311455 C9.38928613,841.924761 12.7124604,838.231415 15.6663932,838.231415 C19.358809,838.231415 25.6359161,833.614731 34.4977142,824.381364 C43.3595124,815.147998 50.005861,806.837968 54.4367601,799.451274 C58.8676591,790.587242 62.560075,775.444521 65.5140077,754.02311 C70.68339,724.476336 76.4066346,670.368807 82.6837416,591.700522 C88.9608487,513.032238 93.5763685,449.691342 96.5303013,401.677835 C98.0072676,358.096344 99.2996132,335.197594 100.407338,332.981586 C101.515063,330.765578 103.17665,294.940115 105.392099,225.505197 C106.130583,196.697093 106.869066,174.537013 107.607549,159.024956 C108.346032,143.5129 109.453757,131.140189 110.930723,121.906822 C112.40769,112.673455 114.438518,106.948768 117.023209,104.73276 C119.607901,102.516752 123.484937,101.778083 128.65432,102.516752 C135.300668,104.73276 141.762396,104.178758 148.039503,100.854746 C154.31661,97.5307339 174.994139,91.6213792 210.07209,83.1266818 C245.150041,74.6319844 275.981714,67.4299583 302.567108,61.5206036 Z M398.939163,121.35282 C398.939163,113.966127 383.061775,113.596792 351.306998,120.244816 C332.106435,125.415502 311.798148,131.140189 290.382136,137.418878 C268.966124,143.697568 256.781151,148.683586 253.827218,152.376932 C247.919353,158.286287 239.057555,163.272305 227.241824,167.334987 C215.426093,171.397668 207.302778,172.690339 202.871879,171.213001 L186.256008,165.672981 C181.825108,164.934311 179.055797,165.672981 177.948072,167.888989 C176.840347,170.104997 175.548001,175.275682 174.071035,183.401045 C171.117102,195.958423 168.901653,203.899119 167.424686,207.223131 C165.94772,210.547143 164.839995,225.874532 164.101512,253.205297 C160.409096,364.005698 157.455164,420.513903 155.239714,422.729911 C153.024264,424.945919 152.285781,430.301272 153.024264,438.795969 C153.762748,447.290666 155.239714,451.538015 157.455164,451.538015 C161.147579,451.538015 179.055797,441.196644 211.179815,420.513903 C243.303833,399.831161 263.796741,387.45845 272.658539,383.395768 C281.520338,379.333087 285.951237,375.824408 285.951237,372.86973 C285.951237,369.915053 287.982065,368.437714 292.043723,368.437714 C296.10538,368.437714 303.490212,364.929035 314.198218,357.911676 C324.906224,350.894318 333.768023,346.831636 340.783613,345.723632 C347.799203,344.615628 353.153206,335.936263 356.845622,319.685538 C362.015004,298.264127 364.415074,285.522081 364.045833,281.4594 C363.676591,277.396718 358.69183,276.104047 349.091548,277.581386 C338.752784,278.320055 321.213808,284.414077 296.474622,295.863452 C271.735435,307.312826 252.904114,314.145518 239.980659,316.361526 C227.057203,318.577534 215.426093,315.807524 205.087329,308.051496 C194.748564,300.295468 189.579182,294.386113 189.579182,290.323432 C189.579182,286.26075 195.487047,280.536063 207.302778,273.149369 C246.442387,245.818604 269.335365,232.153221 275.981714,232.153221 C278.935646,232.153221 283.366546,229.567878 289.274411,224.397193 C303.305591,211.101145 323.98312,202.975782 351.306998,200.021105 L382.323292,197.805097 L386.754191,173.429009 C388.231157,157.178283 390.631227,145.544241 393.954402,138.526882 C397.277576,131.509524 398.939163,125.784836 398.939163,121.35282 Z"></path>
        </g>
    </g>
</svg>