<?xml version="1.0" encoding="UTF-8"?>
<svg width="1000px" height="1000px" viewBox="0 0 1000 1000" version="1.1" xmlns="http://www.w3.org/2000/svg" xmlns:xlink="http://www.w3.org/1999/xlink">
    <title>進_char</title>
    <g id="進_char" stroke="none" stroke-width="1" fill="none" fill-rule="evenodd">
        <path d="M279.94709,400.442368 C285.767196,404.162114 290.229277,413.048173 293.333333,427.100546 C296.43739,445.28597 299.153439,456.445207 301.481481,460.578258 C306.91358,470.497579 306.91358,493.642664 301.481481,530.013511 C293.72134,572.997239 289.259259,632.719823 288.095238,709.181263 C286.931217,785.642703 289.065256,833.792744 294.497354,853.631388 C299.153439,866.857151 301.481481,882.562744 301.481481,900.748167 C301.481481,913.14732 300.511464,921.826726 298.571429,926.786387 C296.631393,931.746048 292.169312,937.532319 285.185185,944.145201 C260.352734,967.290285 237.460317,956.544353 216.507937,911.907404 C208.747795,897.028422 205.255732,882.562744 206.031746,868.510371 C206.80776,854.457998 211.463845,817.673846 220,758.157915 C223.880071,737.492661 225.820106,704.84156 225.820106,660.204611 C225.820106,615.567662 227.760141,584.776434 231.640212,567.830926 C235.520282,550.885417 235.714286,532.286689 232.222222,512.03474 C228.730159,491.782791 229.312169,474.63063 233.968254,460.578258 C241.728395,435.779953 250.26455,418.007834 259.57672,407.261902 C267.336861,398.995801 274.126984,396.722623 279.94709,400.442368 Z M832.810091,250.083469 C840.027663,250.805793 855.545444,253.695087 879.363433,258.751353 C908.95548,264.529941 926.999411,271.753177 933.495226,280.42106 C947.208613,295.589856 946.125977,311.842137 930.247318,329.177903 L917.255688,343.263213 L853.380172,342.179728 C812.651411,340.749527 790.49175,338.965352 786.901188,336.827202 L786.798067,336.762301 C785.206592,335.700485 779.759328,335.158959 770.456274,335.137723 L769.297853,335.137723 C759.680041,335.158959 746.20644,335.700485 728.877048,336.762301 C697.841487,338.929272 681.601949,342.179728 680.158435,346.513669 C679.436677,347.958317 681.962828,350.847611 687.736886,355.181553 C691.345672,355.903876 695.315337,357.709685 699.64588,360.59898 C715.524539,367.822215 726.170459,377.031841 731.583638,388.227857 C736.996817,399.423873 743.853511,428.497397 745.657904,429.942045 C747.462297,431.386692 759.190852,429.580883 780.843569,424.524618 C796.000472,420.913 806.105073,419.107191 811.157374,419.107191 C816.209674,419.107191 822.705489,420.913 830.644819,424.524618 C842.914692,430.303206 853.92149,440.776899 863.665213,455.945694 C873.408936,471.11449 877.198161,483.393991 875.032889,492.784197 C869.258831,515.898552 861.499941,530.706186 851.756218,537.207098 C842.012496,543.708011 826.314276,545.152658 804.661558,541.54104 C784.452356,537.207098 768.573696,536.484775 757.025581,539.374069 L740.786043,541.54104 L737.942603,624.095361 C751.519271,623.347075 763.575005,622.972932 774.109805,622.972932 C793.507572,624.420915 807.219786,623.334928 815.246448,619.714969 C827.955329,616.09501 837.988657,616.09501 845.34643,619.714969 C856.048646,625.506903 865.413085,636.004783 873.439747,651.20861 C877.453078,657.724535 879.626966,668.222415 879.96141,682.70225 C880.295855,697.182085 878.456411,705.145994 874.44308,706.593978 C861.734199,711.66192 825.61422,711.299924 766.083143,705.50799 C754.898771,704.326942 744.46534,703.627555 734.782849,703.409829 C733.326365,728.138756 731.357428,748.942702 728.877048,765.822516 C725.268262,790.381519 725.268262,804.286248 728.877048,807.536704 C732.485834,810.78716 793.474321,810.606579 820.901096,806.994961 C844.719085,804.105667 869.61971,802.299858 895.602971,801.577534 C913.646902,800.855211 925.195017,801.035792 930.247318,802.119277 C935.299619,803.202762 942.156313,807.356123 950.8174,814.579359 C959.478486,821.802595 970.304845,836.610229 983.296475,859.00226 C996.288106,881.394292 1001.70128,894.757278 999.536013,899.09122 C998.092499,903.425161 988.348776,909.023169 970.304845,915.885243 C952.260914,922.747317 938.547526,926.178354 929.164682,926.178354 C919.781838,926.178354 907.151086,923.830803 891.272427,919.135699 C875.393768,914.440596 851.575779,911.009559 819.81846,908.842588 C770.738968,905.23097 843.45601,904.328066 734.831545,906.133875 C626.207081,907.939684 560.707611,910.648397 538.333137,914.260015 C530.393807,915.704662 489.253645,924.011384 469.044442,943.514121 C459.661598,951.45968 450.820072,955.613041 442.519863,955.974203 C434.219655,956.335365 421.408464,952.904327 404.08629,945.681091 C383.15533,936.290885 364.750521,921.483251 348.871861,901.25819 C342.376046,890.423336 342.376046,885.00591 348.871861,885.00591 C352.480648,885.00591 353.563283,883.922424 352.119769,881.755453 C350.676254,879.588483 350.495815,877.421512 351.578451,875.254541 C352.661087,873.08757 355.548116,870.740019 360.239538,868.211886 C364.93096,865.683753 371.065896,862.97504 378.644348,860.085745 C386.222799,857.196451 396.146961,853.945995 408.416834,850.334377 C465.435656,832.998611 455.691933,840.221847 552.407403,828.664669 L584.886479,824.330728 L581.638571,791.826166 C580.916814,770.878781 582.360329,751.737206 585.969115,734.40144 C587.243024,729.301805 588.35954,723.459596 589.318665,716.874812 C557.324794,722.254954 536.648991,731.136393 527.289949,743.517556 C517.92551,755.825416 499.196632,754.739428 471.103315,740.259593 L449.029995,727.227742 C449.029995,727.227742 448.361106,722.883792 447.023329,714.195891 C445.685552,705.50799 443.678887,698.268073 441.003333,692.476139 C438.327779,686.684205 441.003333,680.530275 449.029995,674.014349 C463.076653,660.258506 509.22996,648.674639 587.489914,639.262746 C589.552155,638.997016 591.60118,638.734538 593.636989,638.47531 C593.673811,633.004563 593.695573,627.307023 593.700921,621.577098 L593.70222,618.559288 L593.70222,618.559288 L593.700488,615.541738 C593.670716,587.901123 593.258863,561.079893 592.46493,556.709836 C591.743173,551.65357 590.299658,548.764276 588.134386,548.041952 C585.969115,547.319629 580.916814,547.319629 572.977484,548.041952 C560.707611,549.4866 547.715981,555.62635 534.002593,566.461204 C522.454478,575.129087 512.891194,579.64361 505.312743,580.004772 C497.734292,580.365933 488.531887,576.934896 477.705529,569.71166 C458.218083,558.154483 448.47436,545.51382 448.47436,531.789672 C448.47436,519.51017 455.872372,509.217059 470.668396,500.910338 C485.464419,492.603617 515.597784,481.949343 561.06849,468.947519 C587.051751,462.446606 600.945577,455.765113 602.749971,448.903039 C603.706299,445.26614 605.017425,430.216076 606.683349,414.399048 L606.87346,412.605737 C608.310659,399.139909 610.003631,385.410795 611.952375,377.934746 C616.282919,361.321303 616.282919,351.931096 611.952375,349.764126 C604.013046,346.152508 581.99945,349.764126 545.911588,360.59898 C541.465048,361.953336 537.290375,363.191087 533.387569,364.312232 L531.840947,364.754471 C521.882147,367.5886 513.761169,369.634474 507.478015,370.892091 C498.456049,372.6979 489.975402,378.295908 482.036072,387.686114 C474.096743,397.076321 468.683563,401.771424 465.796534,401.771424 C462.909505,401.771424 454.970176,397.256902 441.978545,388.227857 C428.986915,379.198812 418.882314,371.072672 411.664741,363.849436 C398.673111,352.292258 396.146961,340.012757 404.08629,327.010932 C407.695076,319.787696 413.288695,314.912012 420.867146,312.38388 C428.445597,309.855747 451.000511,304.257739 488.531887,295.589856 C506.575818,291.32158 523.053954,287.687576 537.966293,284.687844 L540.191401,284.242641 C557.160525,280.86589 572.058884,278.327964 584.886479,276.628862 C609.426225,273.378405 650.927266,269.947368 709.389603,266.33575 C772.90424,261.279485 807.187709,257.306705 812.240009,254.417411 C818.735825,250.805793 825.592518,249.361146 832.810091,250.083469 Z M328.835979,45.2066525 C330.776014,46.0332627 335.626102,50.9929237 343.386243,60.0856354 C352.698413,73.311398 368.024691,85.5038978 389.365079,96.6631349 C410.705467,107.822372 424.867725,119.601567 431.851852,132.000719 C437.283951,141.920041 440,148.532922 440,151.839363 C440,155.145804 438.447972,160.51877 435.343915,167.958261 C429.911817,177.877583 419.435626,188.623515 403.915344,200.196057 C382.962963,217.554871 359.68254,241.11326 334.074074,270.871226 C308.465608,300.629192 289.84127,325.840802 278.201058,346.506056 C274.320988,352.292327 259.188713,376.057369 232.804233,417.801182 C206.419753,459.544995 192.451499,482.483427 190.899471,486.616478 C187.795414,494.882579 166.843034,521.334104 128.042328,565.971053 C83.8095238,617.220883 55.4850088,649.045374 43.0687831,661.444526 C30.6525573,673.843679 20.952381,680.043255 13.968254,680.043255 C4.65608466,680.043255 -2.27373675e-12,679.216645 -2.27373675e-12,677.563424 C-2.27373675e-12,672.603763 6.4021164,657.518128 19.2063492,632.306518 C32.010582,607.094908 42.292769,588.702832 50.0529101,577.13029 C63.2451499,558.118256 69.8412698,546.545714 69.8412698,542.412663 C69.8412698,538.279612 71.3932981,536.213087 74.4973545,536.213087 C76.8253968,536.213087 85.9435626,524.22724 101.851852,500.255545 C117.760141,476.283851 126.878307,460.991563 129.206349,454.378681 C131.534392,451.072241 137.354497,442.806139 146.666667,429.580377 C155.978836,416.354614 160.634921,407.261902 160.634921,402.302241 C160.634921,397.34258 162.962963,393.20953 167.619048,389.903089 C171.499118,387.423258 186.243386,358.491903 211.851852,303.109022 C237.460317,247.726142 250.26455,217.141566 250.26455,211.355295 C250.26455,205.569023 251.428571,201.849278 253.756614,200.196057 C255.308642,197.716227 260.15873,186.143685 268.306878,165.478431 C276.455026,144.813177 280.529101,132.414024 280.529101,128.280974 C280.529101,124.147923 282.857143,120.014872 287.513228,115.881821 C292.169312,111.74877 297.407407,101.416143 303.227513,84.8839402 C309.047619,68.351737 314.673721,56.7791948 320.10582,50.1663135 C323.985891,46.0332627 326.895944,44.3800424 328.835979,45.2066525 Z M585.969115,45.846473 C591.021415,47.652282 601.486895,49.27751 617.365555,50.7221572 C641.183544,54.3337752 663.558018,63.7239819 684.488978,78.8927774 C705.419938,94.0615729 720.215961,111.758501 728.877048,131.983562 C751.251523,185.435508 733.56847,220.829364 675.827891,238.16513 L649.84463,244.666043 L637.935636,228.413762 C629.274549,218.301231 619.530826,202.410112 608.704468,180.740404 L585.969115,130.900076 C578.751542,117.175928 572.255727,108.508045 566.481669,104.896427 C560.707611,101.284809 558.903218,92.075183 561.06849,77.2675493 C563.233762,62.4599156 566.662109,53.0697089 571.353531,49.0969291 C576.044953,45.1241494 580.916814,44.040664 585.969115,45.846473 Z" id="Combined-Shape" fill="#000000" fill-rule="nonzero"></path>
    </g>
</svg>