<?xml version="1.0" encoding="UTF-8"?>
<svg width="1000px" height="1000px" viewBox="0 0 1000 1000" version="1.1" xmlns="http://www.w3.org/2000/svg" xmlns:xlink="http://www.w3.org/1999/xlink">
    <title>长吟_char</title>
    <g id="长吟_char" stroke="none" stroke-width="1" fill="none" fill-rule="evenodd">
        <path d="M709.030485,648.606302 C712.73194,648.606302 726.968308,654.517346 751.739587,666.339433 C776.510866,678.161521 791.459052,688.245067 796.584144,696.59007 C803.987055,710.498409 804.983601,723.189768 799.573781,734.664147 C794.163961,746.138526 782.917231,754.657384 765.83359,760.220719 C756.152861,763.697804 749.746495,765.262492 746.614495,764.914784 C743.482494,764.567075 739.06922,762.654679 733.374673,759.177594 C725.402307,752.223425 716.57576,748.74634 706.89503,748.74634 C697.2143,748.74634 684.116842,745.616964 667.602656,739.358211 C651.08847,733.099459 620.48028,729.970083 575.778087,729.970083 C574.400795,729.970083 573.038503,729.981305 571.691263,730.00314 C578.152687,734.378292 581.536897,739.094841 581.84466,744.153028 C582.414241,750.839635 581.417474,762.290449 578.854359,778.505472 C576.291243,794.720494 574.440105,803.496666 573.300942,804.833987 C571.022618,806.505639 569.029083,814.696733 567.32034,829.407268 C565.611596,844.117804 561.766924,858.828339 555.786321,873.538875 C549.805719,888.24941 546.245837,898.446486 545.106674,904.130102 C543.967512,909.813718 541.546792,915.079421 537.844515,919.927212 C534.142237,924.775002 529.158402,932.213852 522.893009,942.243763 C516.627616,952.273673 508.795875,961.467758 499.397786,969.826017 C489.999696,978.184276 485.300652,983.115648 485.300652,984.620135 C485.300652,986.124622 483.164722,987.879856 478.892864,989.885838 C474.621005,991.89182 472.485076,994.064968 472.485076,996.40528 C472.485076,998.411262 464.368544,1005.85011 448.135481,1018.72183 C431.902417,1031.59355 417.520493,1042.04137 404.989707,1050.0653 C391.319759,1058.42356 384.484785,1063.10419 384.484785,1064.10718 C384.484785,1065.11017 378.361788,1067.86839 366.115793,1072.38185 C353.869798,1076.89531 345.753266,1080.48936 341.766198,1083.16401 C337.77913,1086.17298 327.384273,1091.43868 310.581629,1098.96112 C307.92858,1100.14887 305.421082,1101.25119 303.059134,1102.26807 L301.89029,1102.76939 C289.937566,1107.87615 281.870241,1110.70227 277.688316,1111.24776 C271.422924,1112.25075 265.442321,1112.25075 259.74651,1111.24776 C254.050698,1110.5791 253.481117,1108.40595 258.037766,1104.72831 C260.316091,1103.05666 263.733578,1100.38202 268.290227,1096.70439 C280.251432,1088.34613 296.769286,1077.81472 317.843789,1065.11017 C373.662743,1030.33981 410.685519,995.402289 428.912116,960.297602 C434.038347,951.605013 438.025415,944.41691 440.873321,938.733294 C448.277876,927.031732 455.397641,912.822691 462.232615,896.106174 C469.067589,879.389656 472.485076,868.022424 472.485076,862.004478 C472.485076,856.320862 474.7634,844.535717 479.32005,826.649043 C483.876699,808.762369 487.294186,786.111487 489.572511,758.696398 C490.002423,753.523255 490.483038,748.796525 491.014355,744.516208 L490.786974,744.573838 C479.39788,747.355506 462.598967,753.614258 440.390234,763.350095 C415.334228,774.476766 391.132403,788.037397 367.784761,804.031986 C344.437119,820.026575 330.200751,832.54408 325.075659,841.5845 C319.950567,851.320337 314.825475,856.709819 309.700382,857.752944 C304.57529,858.796069 297.457106,856.535964 288.345831,850.972629 C276.956738,844.713877 270.123281,840.019812 267.845462,836.890436 C265.567644,833.76106 260.157824,828.719287 251.616004,821.765118 C244.377173,815.871754 239.79667,811.976141 237.874494,810.078278 L237.656593,809.860123 C237.417262,809.616797 237.230034,809.412627 237.094909,809.247613 C236.525454,808.552196 238.518546,805.596674 243.074183,800.381047 C247.629821,795.16542 253.466732,789.602085 260.584915,783.691041 C267.703099,777.779997 274.109464,773.433641 279.804011,770.651973 C295.748742,761.611553 323.367295,750.137174 362.659669,736.228835 C401.952042,722.320496 431.563686,713.627785 451.494601,710.1507 C461.17533,707.369032 469.574787,704.761219 476.692971,702.32726 C483.811154,699.8933 559.975719,679.204647 621.476826,675.727562 C640.838286,675.032145 654.078107,673.815165 661.196291,672.076623 C668.314474,670.338081 676.144476,666.687142 684.686297,661.123806 C697.2143,652.778803 705.329029,648.606302 709.030485,648.606302 Z M550.579717,513 C557.982628,513 570.08354,515.433959 586.882454,520.301878 C603.681367,525.169796 614.64337,529.690006 619.768462,533.862508 C624.3241,536.644176 627.171373,539.599698 628.310282,542.729074 C629.449192,545.85845 630.018646,551.59564 630.018646,559.940643 C630.018646,567.590229 629.306828,572.97971 627.883191,576.109087 C626.459555,579.238463 622.615735,583.410964 616.351734,588.626591 C610.087732,593.842218 604.820276,596.971595 600.549366,598.01472 C596.278456,599.057845 588.733181,598.883991 577.913542,597.493157 C561.399356,596.102323 549.15608,596.79774 541.183715,599.579408 C497.905158,615.573997 473.703334,628.091502 468.578241,637.131922 C467.439332,638.522756 464.022604,641.304424 458.328057,645.476926 C445.230599,653.126512 429.855322,647.910885 412.202227,629.830045 C402.521497,620.094208 392.271313,611.053787 381.451673,602.708784 L363.513851,589.148154 L372.055671,578.7169 C378.319673,571.762731 389.993494,565.15627 407.077135,558.897518 C474.842243,533.862508 512.71098,521.345003 520.683346,521.345003 C527.516802,521.345003 532.784258,519.954169 536.485713,517.172502 C540.187169,514.390834 544.88517,513 550.579717,513 Z M647.054386,107.463954 C651.040006,108.623841 656.449063,110.073699 663.281555,111.813528 C670.114048,113.553357 677.800602,117.322988 686.341217,123.122419 C694.881833,128.92185 700.006202,131.821565 701.714325,131.821565 C703.422449,131.821565 706.554008,135.881167 711.109003,144.000371 C718.510869,155.599233 719.791962,167.923025 714.95228,180.971745 C710.112597,194.020465 702.2837,200.544825 691.465587,200.544825 C684.633094,200.544825 674.95373,198.225053 662.427494,193.585508 C656.133402,191.143251 634.811535,189.383972 612.103043,187.546335 L610.651813,187.428925 C610.409672,187.409337 610.167406,187.389737 609.925032,187.370127 L607.741208,187.193291 L607.741208,187.193291 L603.835412,186.875487 C586.042448,185.420793 568.408127,183.862761 557.377922,181.841659 C530.474983,176.912143 411.333395,200.544825 409.625272,230.704987 C409.252579,234.335052 409.054568,238.014974 408.981296,241.871197 C422.034386,239.394671 438.073009,236.57592 457.096955,233.415385 C487.552464,228.676923 505.202816,225.446154 510.048011,223.723077 C514.893206,222 523.891424,221.569231 537.042667,222.430769 C550.19391,223.292308 559.884299,223.723077 566.113835,223.723077 C572.343371,223.723077 580.07261,227.6 589.301552,235.353846 C598.069047,243.107692 602.914242,249.892308 603.837136,255.707692 C604.760031,261.523077 601.760624,267.876923 594.838918,274.769231 C589.762999,280.369231 585.840699,284.676923 583.072016,287.692308 C577.073204,294.153846 565.537026,293.507692 548.463483,285.753846 C539.695988,281.876923 527.006192,280.369231 510.394096,281.230769 C491.936212,282.953846 472.901518,285.753846 453.290016,289.630769 C433.678514,293.507692 422.257698,296.523077 419.027568,298.676923 C416.258885,301.261538 413.605565,302.338462 411.067605,301.907692 C410.994745,301.895326 410.918938,301.881007 410.840183,301.864735 C411.110531,315.185458 411.140844,330.842902 410.602747,349.666041 C439.972134,341.489696 468.196564,335.497226 495.276324,331.687801 C512.106623,329.959461 556.859555,327.691015 561.277509,324.882462 C565.695462,322.073909 569.797847,321.31776 573.584664,322.614016 C577.371481,323.910271 586.522956,325.746632 601.039088,328.1231 C615.55522,330.499567 624.917073,333.200099 629.124648,336.224694 C635.436009,340.545544 638.381311,349.079224 637.960554,361.825732 C637.539797,374.572241 633.752979,383.97009 626.600103,390.019281 C622.392528,393.908046 618.395333,396.068471 614.608515,396.500556 C610.821698,396.932641 604.510337,395.852429 595.67443,393.259918 C581.789434,388.506983 528.516163,387.318749 504.112231,389.695217 C479.708299,392.071685 457.828911,396.716599 438.474069,403.629959 C426.799962,408.196967 417.971945,411.255478 411.990018,412.805493 C412.685057,422.509258 413.276921,429.215452 413.041518,432.812044 C411.929142,440.875446 414.104441,444.645076 419.567415,444.120935 C516.280768,434.841845 606.628805,432.522072 690.611525,437.161617 C736.161475,437.161617 764.772537,437.596575 776.444712,438.466489 C788.116887,439.336404 797.084533,441.221219 803.347651,444.120935 C812.457641,449.340423 819.290133,456.009769 823.845128,464.128972 C831.246995,477.467664 830.677621,491.966242 822.137005,507.624706 C813.59639,523.283171 801.924215,531.112403 787.120481,531.112403 C779.14924,531.112403 767.477065,526.762829 752.103957,518.063682 C739.577721,512.264251 729.471326,508.639607 721.784772,507.189749 C714.098218,505.739891 694.597146,503.855076 663.281555,501.535304 C620.578477,499.215531 587.697107,499.215531 564.637445,501.535304 C541.577783,503.855076 514.5325,505.739891 483.501597,507.189749 C452.470694,508.639607 427.845252,510.524422 409.625272,512.844194 L357.527517,519.803512 C350.138891,520.774579 344.122122,521.644024 339.47721,522.411844 L338.71576,522.538874 C332.725782,523.547579 329.174659,524.375622 328.062393,525.023 C326.069583,526.182886 318.810059,528.212687 306.283823,531.112403 C289.771966,533.432175 274.114171,537.926734 259.310437,544.59608 C244.506704,551.265426 236.250775,556.919871 234.542652,561.559416 C232.265155,566.778904 227.71016,571.128478 220.877667,574.608137 C215.183923,575.768023 211.055959,576.20298 208.493775,575.913009 C205.93159,575.623037 200.095503,571.998392 190.985513,565.039075 C181.875523,558.079758 175.897092,551.700383 173.05022,545.900952 C170.203348,540.101521 169.349286,532.56226 170.488035,523.283171 C171.05741,517.483739 172.338502,513.279152 174.331312,510.669408 C176.324123,508.059664 180.736774,505.014962 187.569266,501.535304 C206.358621,491.676271 243.652642,481.817238 299.451331,471.958205 C319.948808,468.478546 331.336296,465.288859 333.613793,462.389143 C335.891291,459.489427 335.321916,448.76048 331.90567,430.2023 C330.197547,417.443551 330.197547,404.974774 331.90567,392.795969 C334.183167,382.356993 334.752542,354.374737 333.613793,308.849202 C332.475044,263.323668 330.766921,235.921355 328.489424,226.642265 C323.934429,211.563744 320.375839,196.630209 317.813654,181.841659 C315.25147,167.05311 313.828034,155.309262 313.543346,146.610115 C313.258659,137.910968 314.255064,132.981452 316.532562,131.821565 C319.379434,131.821565 320.80287,129.93675 320.80287,126.16712 C320.80287,122.39749 321.656931,120.512675 323.365054,120.512675 C338.738162,118.772845 350.410337,119.932732 358.381578,123.992333 C364.644696,126.892049 370.623127,130.806665 376.316871,135.736182 C382.010615,140.665698 384.857487,144.580314 384.857487,147.48003 C384.857487,150.379745 386.56561,153.859404 389.981856,157.919006 C392.259354,161.398665 396.102631,162.848522 401.511687,162.268579 C406.920744,161.688636 422.151508,158.208977 447.203981,151.829603 C483.074566,143.130456 507.130633,138.055954 519.372182,136.606096 C531.613731,135.156238 544.282311,132.836466 557.377922,129.646779 C570.473532,126.457092 586.273671,123.267404 604.778338,120.077717 C623.283005,116.88803 633.958775,113.698343 636.805647,110.508656 C639.652519,107.318969 643.068765,106.304068 647.054386,107.463954 Z M508.48417,-112.966504 C512.758188,-112.676204 519.454148,-109.337753 528.572052,-102.951151 C538.829694,-95.9839498 544.955786,-92.5003489 546.950328,-92.5003489 C548.944869,-92.5003489 552.50655,-90.1779484 557.635371,-85.5331472 L574.731441,-70.7278437 C581,-64.9218423 582.56714,-59.551291 579.43286,-54.6161898 C576.298581,-49.6810886 574.731441,-45.7620377 574.731441,-42.859037 C574.731441,-39.9560363 570.172489,-34.1500349 561.054585,-25.4410328 C551.936681,-16.7320307 543.388646,-10.6357292 535.41048,-7.1521284 C526.862445,-1.92672715 512.900655,8.81437544 493.525109,25.0711793 C434.828603,75.5833915 382.115721,104.032798 335.386463,110.4194 C325.128821,111.5806 320,111 320,108.677599 C320,101.710398 328.2631,92.1304955 344.789301,79.9378925 C356.186681,71.8094906 368.723799,59.0362875 382.400655,41.6182833 C391.518559,29.4256804 399.21179,20.1360782 405.480349,13.7494766 C424.855895,-6.57152826 445.656114,-35.8918353 467.881004,-74.2114445 C478.138646,-92.790649 486.116812,-104.112352 491.815502,-108.176553 C498.65393,-111.660154 504.210153,-113.256804 508.48417,-112.966504 Z" id="Combined-Shape" fill="#000000" fill-rule="nonzero"></path>
    </g>
</svg>