<svg width="350" height="350" viewBox="0 0 350 350" fill="none" xmlns="http://www.w3.org/2000/svg">
<path fill-rule="evenodd" clip-rule="evenodd" d="M87.5816 163C85.8788 163 83.944 163.318 82.2057 164.426C80.3489 165.608 79.2152 167.374 78.7102 169.304L78.6682 169.465L78.637 169.628C78.2067 171.871 78.2428 174.246 78.601 176.674L78.6334 176.893L78.6853 177.11C79.1629 179.101 79.7193 181.089 80.3538 183.074C80.5936 183.824 80.7273 184.345 80.7935 184.677L80.7886 184.698V185.289C80.7886 187.701 79.7835 191.454 77.0695 196.815L77.0453 196.863L77.0221 196.911C74.478 202.215 70.0657 209.705 63.6759 219.464L63.6515 219.501L63.6277 219.539C60.526 224.466 57.5836 228.913 54.8001 232.883L54.764 232.935L54.7292 232.987C52.112 236.928 49.5934 240.375 47.175 243.341L47.1284 243.398L47.0836 243.457C44.8044 246.426 42.6471 248.884 40.6157 250.86L40.5539 250.921L40.4942 250.983C38.6418 252.914 36.8948 254.32 35.2683 255.288L35.2592 255.294L35.2502 255.299C31.0796 257.808 27 261.518 27 266.827C27 270.299 28.7456 273.076 31.1286 275.087C33.3954 277 36.4281 278.412 39.8382 279.516C42.3525 280.376 46.0523 282.411 51.0689 285.973C56.0336 289.498 62.0185 294.323 69.0429 300.489C82.8934 312.648 94.9219 326.477 105.134 341.986C107.581 345.769 110.084 348.888 112.681 351.111C115.26 353.32 118.357 355 121.872 355C124.001 355 126.064 354.397 127.856 353.092C129.593 351.826 130.796 350.105 131.629 348.284C133.239 344.765 133.819 340.1 133.819 334.814C133.819 329.375 132.81 324.259 130.729 319.533C129.12 315.646 126.55 311.791 123.202 307.962C119.788 303.902 115.134 299.57 109.354 294.968C103.672 290.169 96.6016 284.866 88.1765 279.063C80.9589 274.092 72.3916 268.507 62.4835 262.312C67.0415 257.447 71.5112 252.491 75.8926 247.443C81.805 240.647 87.56 233.463 93.1583 225.893L113.583 198.752L113.624 198.694C116.488 194.655 118.355 190.376 118.355 185.99C118.355 182.543 116.344 179.663 114.274 177.505C112.078 175.216 109.004 172.901 105.262 170.545L105.243 170.532L105.223 170.52C101.469 168.204 98.1848 166.389 95.409 165.136C92.795 163.957 90.0508 163 87.5816 163ZM273.762 163C272.059 163 270.125 163.318 268.386 164.426C266.53 165.608 265.396 167.374 264.891 169.304L264.849 169.465L264.818 169.628C264.387 171.871 264.423 174.246 264.782 176.674L264.814 176.893L264.866 177.11C265.344 179.101 265.9 181.089 266.534 183.074C266.774 183.824 266.908 184.345 266.974 184.677L266.969 184.698V185.289C266.969 187.701 265.964 191.454 263.25 196.815L263.226 196.863L263.203 196.911C260.659 202.215 256.246 209.705 249.857 219.464L249.832 219.501L249.808 219.539C246.707 224.466 243.764 228.913 240.981 232.883L240.945 232.935L240.91 232.987C238.293 236.928 235.774 240.375 233.356 243.341L233.309 243.398L233.264 243.457C230.985 246.426 228.828 248.884 226.796 250.86L226.735 250.921L226.675 250.983C224.822 252.914 223.075 254.32 221.449 255.288L221.44 255.294L221.431 255.299C217.26 257.808 213.181 261.518 213.181 266.827C213.181 270.299 214.926 273.076 217.309 275.087C219.576 277 222.609 278.412 226.019 279.516C228.533 280.376 232.233 282.411 237.25 285.973C242.214 289.498 248.199 294.323 255.224 300.489C269.074 312.648 281.103 326.477 291.315 341.986C293.762 345.769 296.264 348.888 298.861 351.111C301.441 353.32 304.538 355 308.052 355C310.182 355 312.245 354.397 314.036 353.092C315.774 351.826 316.977 350.105 317.81 348.284C319.42 344.765 320 340.1 320 334.814C320 329.375 318.991 324.259 316.909 319.533C315.301 315.646 312.731 311.791 309.383 307.962C305.968 303.902 301.315 299.57 295.535 294.968C289.852 290.169 282.782 284.866 274.357 279.063C267.14 274.092 258.572 268.507 248.664 262.312C253.222 257.447 257.692 252.491 262.073 247.443C267.986 240.647 273.741 233.463 279.339 225.893L299.764 198.752L299.805 198.694C302.669 194.655 304.536 190.376 304.536 185.99C304.536 182.543 302.525 179.663 300.455 177.505C298.259 175.216 295.185 172.901 291.443 170.545L291.423 170.532L291.404 170.52C287.65 168.204 284.366 166.389 281.59 165.136C278.976 163.957 276.231 163 273.762 163ZM180.671 163C178.969 163 177.034 163.318 175.296 164.426C173.439 165.608 172.305 167.374 171.8 169.304L171.758 169.465L171.727 169.628C171.297 171.871 171.333 174.246 171.691 176.674L171.723 176.893L171.775 177.11C172.253 179.101 172.809 181.089 173.444 183.074C173.683 183.824 173.817 184.345 173.883 184.677L173.878 184.698V185.289C173.878 187.701 172.873 191.454 170.159 196.815L170.135 196.863L170.112 196.911C167.568 202.215 163.156 209.705 156.766 219.464L156.741 219.501L156.718 219.539C153.616 224.466 150.673 228.913 147.89 232.883L147.854 232.935L147.819 232.987C145.202 236.928 142.683 240.375 140.265 243.341L140.218 243.398L140.173 243.457C137.894 246.426 135.737 248.884 133.706 250.86L133.644 250.921L133.584 250.983C131.732 252.914 129.985 254.32 128.358 255.288L128.349 255.294L128.34 255.299C124.169 257.808 120.09 261.518 120.09 266.827C120.09 270.299 121.835 273.076 124.218 275.087C126.485 277 129.518 278.412 132.928 279.516C135.442 280.376 139.142 282.411 144.159 285.973C149.123 289.498 155.108 294.323 162.133 300.489C175.983 312.648 188.012 326.477 198.224 341.986C200.671 345.769 203.174 348.888 205.77 351.111C208.35 353.32 211.447 355 214.962 355C217.091 355 219.154 354.397 220.946 353.092C222.683 351.826 223.886 350.105 224.719 348.284C226.329 344.765 226.909 340.1 226.909 334.814C226.909 329.375 225.9 324.259 223.819 319.533C222.21 315.646 219.64 311.791 216.292 307.962C212.878 303.902 208.224 299.57 202.444 294.968C196.761 290.169 189.691 284.866 181.266 279.063C174.049 274.092 165.481 268.507 155.573 262.312C160.131 257.447 164.601 252.491 168.982 247.443C174.895 240.647 180.65 233.463 186.248 225.893L206.673 198.752L206.714 198.694C209.578 194.655 211.445 190.376 211.445 185.99C211.445 182.543 209.434 179.663 207.364 177.505C205.168 175.216 202.094 172.901 198.352 170.545L198.332 170.532L198.313 170.52C194.559 168.204 191.275 166.389 188.499 165.136C185.885 163.957 183.141 163 180.671 163Z" fill="black"/>
<path d="M121.167 85.5613C117.167 86.0946 113.034 86.7613 108.767 87.5613C104.501 88.3613 99.5674 89.2946 93.9674 90.3613C87.3007 91.6946 81.8341 92.628 77.5674 93.1613C73.3007 93.6946 69.5674 93.9613 66.3674 93.9613C63.4341 93.9613 60.9007 93.6946 58.7674 93.1613C56.6341 92.628 54.5007 91.828 52.3674 90.7613C43.5674 86.7613 39.3007 83.6946 39.5674 81.5613C39.8341 79.1613 44.5007 77.428 53.5674 76.3613C61.0341 75.5613 67.1674 74.628 71.9674 73.5613C77.0341 72.4946 82.2341 70.8946 87.5674 68.7613C91.5674 67.1613 95.7007 66.3613 99.9674 66.3613C104.234 66.0946 110.901 67.0279 119.967 69.1613C119.167 60.8946 118.101 53.828 116.767 47.9613C115.434 42.0946 113.967 38.3613 112.367 36.7613C105.967 29.5613 104.234 24.628 107.167 21.9613C110.101 19.028 117.967 19.6946 130.767 23.9613C140.901 27.428 146.901 31.028 148.767 34.7613C150.634 38.4946 149.967 43.6946 146.767 50.3613C145.701 52.4946 145.034 56.7613 144.767 63.1613C144.767 69.5613 145.034 77.6946 145.567 87.5613C146.367 100.895 146.501 112.228 145.967 121.561C145.434 130.628 144.634 136.495 143.567 139.161C141.701 144.228 139.434 147.961 136.767 150.361C134.367 152.761 131.967 153.428 129.567 152.361C127.167 151.295 125.034 148.361 123.167 143.561C121.301 138.761 120.367 131.828 120.367 122.761C103.567 131.828 89.4341 139.828 77.9674 146.761C66.5007 153.695 59.8341 158.361 57.9674 160.761C53.9674 165.828 49.5674 168.228 44.7674 167.961C39.9674 167.428 33.0341 163.161 23.9674 155.161C8.50074 141.295 11.0341 134.761 31.5674 135.561C38.5007 135.828 49.5674 133.828 64.7674 129.561C80.2341 125.295 99.0341 118.361 121.167 108.761C121.434 100.761 121.434 93.028 121.167 85.5613ZM208.367 74.3613C219.567 68.7613 228.501 63.2946 235.167 57.9613C241.834 52.3613 245.301 47.2946 245.567 42.7613C245.567 39.828 246.101 37.5613 247.167 35.9613C248.234 34.0946 249.834 33.028 251.967 32.7613C254.101 32.4946 257.034 33.1613 260.767 34.7613C264.767 36.0946 269.567 38.628 275.167 42.3613C286.367 49.828 291.834 55.5613 291.567 59.5613C291.301 63.5613 286.501 66.4946 277.167 68.3613C272.901 69.1613 268.767 70.0946 264.767 71.1613C260.767 71.9613 256.234 73.1613 251.167 74.7613C246.101 76.3613 240.101 78.3613 233.167 80.7613C226.501 82.8946 218.101 85.6946 207.967 89.1613C207.967 92.8946 207.967 96.0946 207.967 98.7613C208.234 101.428 208.501 103.828 208.767 105.961C209.301 109.961 210.634 113.295 212.767 115.961C215.167 118.628 219.034 120.628 224.367 121.961C229.701 123.295 236.634 123.961 245.167 123.961C253.967 123.695 265.034 122.761 278.367 121.161C282.367 120.628 285.567 119.828 287.967 118.761C290.634 117.695 292.767 115.961 294.367 113.561C296.234 111.161 297.834 107.961 299.167 103.961C300.501 99.9613 301.834 94.628 303.167 87.9613C305.301 77.0279 307.567 71.6946 309.967 71.9613C312.634 72.228 315.034 77.2946 317.167 87.1613C318.501 93.5613 320.101 99.2946 321.967 104.361C324.101 109.428 325.834 112.628 327.167 113.961C329.834 116.361 331.567 118.895 332.367 121.561C333.434 124.228 333.434 126.895 332.367 129.561C331.301 132.228 328.901 134.761 325.167 137.161C321.701 139.561 316.634 141.961 309.967 144.361C301.701 147.295 290.901 149.295 277.567 150.361C264.234 151.161 250.634 151.028 236.767 149.961C226.367 149.161 217.701 147.561 210.767 145.161C203.834 142.761 198.234 139.695 193.967 135.961C189.967 132.228 187.167 127.828 185.567 122.761C183.967 117.695 183.167 112.095 183.167 105.961C183.167 89.9613 183.034 76.7613 182.767 66.3613C182.767 55.9613 182.501 47.6946 181.967 41.5613C181.701 35.428 181.167 30.8946 180.367 27.9613C179.834 24.7613 179.034 22.3613 177.967 20.7613C171.034 10.628 169.301 4.22796 172.767 1.5613C176.234 -1.37204 184.501 -0.172051 197.567 5.16128C203.434 7.56128 207.967 9.69462 211.167 11.5613C214.367 13.4279 216.501 15.6946 217.567 18.3613C218.634 20.7613 218.634 23.6946 217.567 27.1613C216.501 30.6279 214.634 34.8946 211.967 39.9613C211.434 41.0279 210.901 42.3613 210.367 43.9613C210.101 45.2946 209.834 47.2946 209.567 49.9613C209.301 52.3613 209.034 55.5613 208.767 59.5613C208.767 63.5613 208.634 68.4946 208.367 74.3613Z" fill="black"/>
</svg>
