<svg width="350" height="350" viewBox="0 0 350 350" fill="none" xmlns="http://www.w3.org/2000/svg">
<path fill-rule="evenodd" clip-rule="evenodd" d="M87.5816 163C85.8788 163 83.944 163.318 82.2057 164.426C80.3489 165.608 79.2152 167.374 78.7102 169.304L78.6682 169.465L78.637 169.628C78.2067 171.871 78.2428 174.246 78.601 176.674L78.6334 176.893L78.6853 177.11C79.1629 179.101 79.7193 181.089 80.3538 183.074C80.5936 183.824 80.7273 184.345 80.7935 184.677L80.7886 184.698V185.289C80.7886 187.701 79.7835 191.454 77.0695 196.815L77.0453 196.863L77.0221 196.911C74.478 202.215 70.0657 209.705 63.6759 219.464L63.6515 219.501L63.6277 219.539C60.526 224.466 57.5836 228.913 54.8001 232.883L54.764 232.935L54.7292 232.987C52.112 236.928 49.5934 240.375 47.175 243.341L47.1284 243.398L47.0836 243.457C44.8044 246.426 42.6471 248.884 40.6157 250.86L40.5539 250.921L40.4942 250.983C38.6418 252.914 36.8948 254.32 35.2683 255.288L35.2592 255.294L35.2502 255.299C31.0796 257.808 27 261.518 27 266.827C27 270.299 28.7456 273.076 31.1286 275.087C33.3954 277 36.4281 278.412 39.8382 279.516C42.3525 280.376 46.0523 282.411 51.0689 285.973C56.0336 289.498 62.0185 294.323 69.0429 300.489C82.8934 312.648 94.9219 326.477 105.134 341.986C107.581 345.769 110.084 348.888 112.681 351.111C115.26 353.32 118.357 355 121.872 355C124.001 355 126.064 354.397 127.856 353.092C129.593 351.826 130.796 350.105 131.629 348.284C133.239 344.765 133.819 340.1 133.819 334.814C133.819 329.375 132.81 324.259 130.729 319.533C129.12 315.646 126.55 311.791 123.202 307.962C119.788 303.902 115.134 299.57 109.354 294.968C103.672 290.169 96.6016 284.866 88.1765 279.063C80.9589 274.092 72.3916 268.507 62.4835 262.312C67.0415 257.447 71.5112 252.491 75.8926 247.443C81.805 240.647 87.56 233.463 93.1583 225.893L113.583 198.752L113.624 198.694C116.488 194.655 118.355 190.376 118.355 185.99C118.355 182.543 116.344 179.663 114.274 177.505C112.078 175.216 109.004 172.901 105.262 170.545L105.243 170.532L105.223 170.52C101.469 168.204 98.1848 166.389 95.409 165.136C92.795 163.957 90.0508 163 87.5816 163ZM273.762 163C272.059 163 270.125 163.318 268.386 164.426C266.53 165.608 265.396 167.374 264.891 169.304L264.849 169.465L264.818 169.628C264.387 171.871 264.423 174.246 264.782 176.674L264.814 176.893L264.866 177.11C265.344 179.101 265.9 181.089 266.534 183.074C266.774 183.824 266.908 184.345 266.974 184.677L266.969 184.698V185.289C266.969 187.701 265.964 191.454 263.25 196.815L263.226 196.863L263.203 196.911C260.659 202.215 256.246 209.705 249.857 219.464L249.832 219.501L249.808 219.539C246.707 224.466 243.764 228.913 240.981 232.883L240.945 232.935L240.91 232.987C238.293 236.928 235.774 240.375 233.356 243.341L233.309 243.398L233.264 243.457C230.985 246.426 228.828 248.884 226.796 250.86L226.735 250.921L226.675 250.983C224.822 252.914 223.075 254.32 221.449 255.288L221.44 255.294L221.431 255.299C217.26 257.808 213.181 261.518 213.181 266.827C213.181 270.299 214.926 273.076 217.309 275.087C219.576 277 222.609 278.412 226.019 279.516C228.533 280.376 232.233 282.411 237.25 285.973C242.214 289.498 248.199 294.323 255.224 300.489C269.074 312.648 281.103 326.477 291.315 341.986C293.762 345.769 296.264 348.888 298.861 351.111C301.441 353.32 304.538 355 308.052 355C310.182 355 312.245 354.397 314.036 353.092C315.774 351.826 316.977 350.105 317.81 348.284C319.42 344.765 320 340.1 320 334.814C320 329.375 318.991 324.259 316.909 319.533C315.301 315.646 312.731 311.791 309.383 307.962C305.968 303.902 301.315 299.57 295.535 294.968C289.852 290.169 282.782 284.866 274.357 279.063C267.14 274.092 258.572 268.507 248.664 262.312C253.222 257.447 257.692 252.491 262.073 247.443C267.986 240.647 273.741 233.463 279.339 225.893L299.764 198.752L299.805 198.694C302.669 194.655 304.536 190.376 304.536 185.99C304.536 182.543 302.525 179.663 300.455 177.505C298.259 175.216 295.185 172.901 291.443 170.545L291.423 170.532L291.404 170.52C287.65 168.204 284.366 166.389 281.59 165.136C278.976 163.957 276.231 163 273.762 163ZM180.671 163C178.969 163 177.034 163.318 175.296 164.426C173.439 165.608 172.305 167.374 171.8 169.304L171.758 169.465L171.727 169.628C171.297 171.871 171.333 174.246 171.691 176.674L171.723 176.893L171.775 177.11C172.253 179.101 172.809 181.089 173.444 183.074C173.683 183.824 173.817 184.345 173.883 184.677L173.878 184.698V185.289C173.878 187.701 172.873 191.454 170.159 196.815L170.135 196.863L170.112 196.911C167.568 202.215 163.156 209.705 156.766 219.464L156.741 219.501L156.718 219.539C153.616 224.466 150.673 228.913 147.89 232.883L147.854 232.935L147.819 232.987C145.202 236.928 142.683 240.375 140.265 243.341L140.218 243.398L140.173 243.457C137.894 246.426 135.737 248.884 133.706 250.86L133.644 250.921L133.584 250.983C131.732 252.914 129.985 254.32 128.358 255.288L128.349 255.294L128.34 255.299C124.169 257.808 120.09 261.518 120.09 266.827C120.09 270.299 121.835 273.076 124.218 275.087C126.485 277 129.518 278.412 132.928 279.516C135.442 280.376 139.142 282.411 144.159 285.973C149.123 289.498 155.108 294.323 162.133 300.489C175.983 312.648 188.012 326.477 198.224 341.986C200.671 345.769 203.174 348.888 205.77 351.111C208.35 353.32 211.447 355 214.962 355C217.091 355 219.154 354.397 220.946 353.092C222.683 351.826 223.886 350.105 224.719 348.284C226.329 344.765 226.909 340.1 226.909 334.814C226.909 329.375 225.9 324.259 223.819 319.533C222.21 315.646 219.64 311.791 216.292 307.962C212.878 303.902 208.224 299.57 202.444 294.968C196.761 290.169 189.691 284.866 181.266 279.063C174.049 274.092 165.481 268.507 155.573 262.312C160.131 257.447 164.601 252.491 168.982 247.443C174.895 240.647 180.65 233.463 186.248 225.893L206.673 198.752L206.714 198.694C209.578 194.655 211.445 190.376 211.445 185.99C211.445 182.543 209.434 179.663 207.364 177.505C205.168 175.216 202.094 172.901 198.352 170.545L198.332 170.532L198.313 170.52C194.559 168.204 191.275 166.389 188.499 165.136C185.885 163.957 183.141 163 180.671 163Z" fill="black"/>
<path d="M65.6692 179.555C58.7692 181.055 53.0692 182.555 48.5692 184.055C44.0692 185.255 40.1692 186.155 36.8692 186.755C33.5692 187.055 30.4192 187.055 27.4192 186.755C24.7192 186.155 21.8692 185.105 18.8692 183.605C16.1692 181.805 12.8692 179.405 8.96923 176.405C1.76923 171.005 -1.53077 167.255 -0.930769 165.155C-0.0307685 163.055 4.91923 162.005 13.9192 162.005C17.5192 162.005 22.6192 161.855 29.2192 161.555C35.8192 160.955 43.6192 160.205 52.6192 159.305C61.9192 158.405 72.1192 157.205 83.2192 155.705C94.3192 154.205 106.169 152.555 118.769 150.755C119.369 129.855 119.519 114.355 119.219 94.255C119.219 74.155 118.619 68.105 117.419 56.105C116.519 43.805 115.319 44.655 113.819 38.655C112.319 32.655 110.519 28.005 108.419 24.705C103.019 17.205 101.669 12.105 104.369 9.405C107.369 6.705 115.469 6.85499 128.669 9.85499C134.969 11.355 139.469 12.855 142.169 14.355C145.169 15.555 147.569 17.055 149.369 18.855C157.469 18.255 165.569 17.355 173.669 16.155C181.769 14.655 191.219 12.405 202.019 9.405C221.219 4.30499 235.769 1.30499 245.669 0.405006C255.569 -0.495 263.219 0.104992 268.619 2.20498C275.819 5.205 279.119 8.505 278.519 12.105C277.919 15.405 272.069 18.705 260.969 22.005C242.669 26.805 223.769 30.405 204.269 32.805C185.069 34.905 167.669 35.355 152.069 34.155V66.905C159.869 66.305 168.119 64.955 176.819 62.855C185.819 60.755 193.919 58.505 201.119 56.105C212.219 52.205 221.519 49.805 229.019 48.905C236.819 48.005 243.419 48.155 248.819 49.355C256.619 51.155 260.669 54.455 260.969 59.255C261.569 64.055 258.419 67.205 251.519 68.705C239.219 71.705 228.269 74.105 218.669 75.905C209.369 77.705 200.819 79.055 193.019 79.955C185.519 80.855 178.319 81.455 171.419 81.755C164.819 81.755 158.219 81.455 151.619 80.855C151.619 93.6061 151.776 96.364 151.169 109.105C164.669 108.805 183.869 104.905 208.769 97.405C214.469 95.905 219.119 94.705 222.719 93.805C226.619 92.905 229.919 92.305 232.619 92.005C235.619 91.705 238.469 91.855 241.169 92.455C243.869 92.755 246.719 93.355 249.719 94.255C259.319 97.255 263.969 100.855 263.669 105.055C263.369 108.955 258.719 111.805 249.719 113.605C237.119 116.005 225.869 118.105 215.969 119.905C206.369 121.405 197.669 122.605 189.869 123.505C182.069 124.405 175.019 125.005 168.719 125.305C162.419 125.305 156.419 125.005 150.719 124.405C150.719 134.843 150.368 135.382 149.819 145.805C171.419 142.505 193.319 138.755 215.519 134.555C237.719 130.355 258.719 126.005 278.519 121.505C292.619 117.905 303.719 116.705 311.819 117.905C319.919 118.805 327.719 121.655 335.219 126.455C346.319 134.255 350.669 140.255 348.269 144.455C345.869 148.355 336.869 150.005 321.269 149.405C314.969 148.805 306.569 148.805 296.069 149.405C285.569 150.005 273.269 151.055 259.169 152.555C245.069 153.755 229.619 155.405 212.819 157.505C163.545 162.784 114.005 169.485 65.6692 179.555Z" fill="black"/>
</svg>
