<svg width="350" height="350" viewBox="0 0 350 350" fill="none" xmlns="http://www.w3.org/2000/svg">
<path fill-rule="evenodd" clip-rule="evenodd" d="M87.5816 163C85.8788 163 83.944 163.318 82.2057 164.426C80.3489 165.608 79.2152 167.374 78.7102 169.304L78.6682 169.465L78.637 169.628C78.2067 171.871 78.2428 174.246 78.601 176.674L78.6334 176.893L78.6853 177.11C79.1629 179.101 79.7193 181.089 80.3538 183.074C80.5936 183.824 80.7273 184.345 80.7935 184.677L80.7886 184.698V185.289C80.7886 187.701 79.7835 191.454 77.0695 196.815L77.0453 196.863L77.0221 196.911C74.478 202.215 70.0657 209.705 63.6759 219.464L63.6515 219.501L63.6277 219.539C60.526 224.466 57.5836 228.913 54.8001 232.883L54.764 232.935L54.7292 232.987C52.112 236.928 49.5934 240.375 47.175 243.341L47.1284 243.398L47.0836 243.457C44.8044 246.426 42.6471 248.884 40.6157 250.86L40.5539 250.921L40.4942 250.983C38.6418 252.914 36.8948 254.32 35.2683 255.288L35.2592 255.294L35.2502 255.299C31.0796 257.808 27 261.518 27 266.827C27 270.299 28.7456 273.076 31.1286 275.087C33.3954 277 36.4281 278.412 39.8382 279.516C42.3525 280.376 46.0523 282.411 51.0689 285.973C56.0336 289.498 62.0185 294.323 69.0429 300.489C82.8934 312.648 94.9219 326.477 105.134 341.986C107.581 345.769 110.084 348.888 112.681 351.111C115.26 353.32 118.357 355 121.872 355C124.001 355 126.064 354.397 127.856 353.092C129.593 351.826 130.796 350.105 131.629 348.284C133.239 344.765 133.819 340.1 133.819 334.814C133.819 329.375 132.81 324.259 130.729 319.533C129.12 315.646 126.55 311.791 123.202 307.962C119.788 303.902 115.134 299.57 109.354 294.968C103.672 290.169 96.6016 284.866 88.1765 279.063C80.9589 274.092 72.3916 268.507 62.4835 262.312C67.0415 257.447 71.5112 252.491 75.8926 247.443C81.805 240.647 87.56 233.463 93.1583 225.893L113.583 198.752L113.624 198.694C116.488 194.655 118.355 190.376 118.355 185.99C118.355 182.543 116.344 179.663 114.274 177.505C112.078 175.216 109.004 172.901 105.262 170.545L105.243 170.532L105.223 170.52C101.469 168.204 98.1848 166.389 95.409 165.136C92.795 163.957 90.0508 163 87.5816 163ZM273.762 163C272.059 163 270.125 163.318 268.386 164.426C266.53 165.608 265.396 167.374 264.891 169.304L264.849 169.465L264.818 169.628C264.387 171.871 264.423 174.246 264.782 176.674L264.814 176.893L264.866 177.11C265.344 179.101 265.9 181.089 266.534 183.074C266.774 183.824 266.908 184.345 266.974 184.677L266.969 184.698V185.289C266.969 187.701 265.964 191.454 263.25 196.815L263.226 196.863L263.203 196.911C260.659 202.215 256.246 209.705 249.857 219.464L249.832 219.501L249.808 219.539C246.707 224.466 243.764 228.913 240.981 232.883L240.945 232.935L240.91 232.987C238.293 236.928 235.774 240.375 233.356 243.341L233.309 243.398L233.264 243.457C230.985 246.426 228.828 248.884 226.796 250.86L226.735 250.921L226.675 250.983C224.822 252.914 223.075 254.32 221.449 255.288L221.44 255.294L221.431 255.299C217.26 257.808 213.181 261.518 213.181 266.827C213.181 270.299 214.926 273.076 217.309 275.087C219.576 277 222.609 278.412 226.019 279.516C228.533 280.376 232.233 282.411 237.25 285.973C242.214 289.498 248.199 294.323 255.224 300.489C269.074 312.648 281.103 326.477 291.315 341.986C293.762 345.769 296.264 348.888 298.861 351.111C301.441 353.32 304.538 355 308.052 355C310.182 355 312.245 354.397 314.036 353.092C315.774 351.826 316.977 350.105 317.81 348.284C319.42 344.765 320 340.1 320 334.814C320 329.375 318.991 324.259 316.909 319.533C315.301 315.646 312.731 311.791 309.383 307.962C305.968 303.902 301.315 299.57 295.535 294.968C289.852 290.169 282.782 284.866 274.357 279.063C267.14 274.092 258.572 268.507 248.664 262.312C253.222 257.447 257.692 252.491 262.073 247.443C267.986 240.647 273.741 233.463 279.339 225.893L299.764 198.752L299.805 198.694C302.669 194.655 304.536 190.376 304.536 185.99C304.536 182.543 302.525 179.663 300.455 177.505C298.259 175.216 295.185 172.901 291.443 170.545L291.423 170.532L291.404 170.52C287.65 168.204 284.366 166.389 281.59 165.136C278.976 163.957 276.231 163 273.762 163ZM180.671 163C178.969 163 177.034 163.318 175.296 164.426C173.439 165.608 172.305 167.374 171.8 169.304L171.758 169.465L171.727 169.628C171.297 171.871 171.333 174.246 171.691 176.674L171.723 176.893L171.775 177.11C172.253 179.101 172.809 181.089 173.444 183.074C173.683 183.824 173.817 184.345 173.883 184.677L173.878 184.698V185.289C173.878 187.701 172.873 191.454 170.159 196.815L170.135 196.863L170.112 196.911C167.568 202.215 163.156 209.705 156.766 219.464L156.741 219.501L156.718 219.539C153.616 224.466 150.673 228.913 147.89 232.883L147.854 232.935L147.819 232.987C145.202 236.928 142.683 240.375 140.265 243.341L140.218 243.398L140.173 243.457C137.894 246.426 135.737 248.884 133.706 250.86L133.644 250.921L133.584 250.983C131.732 252.914 129.985 254.32 128.358 255.288L128.349 255.294L128.34 255.299C124.169 257.808 120.09 261.518 120.09 266.827C120.09 270.299 121.835 273.076 124.218 275.087C126.485 277 129.518 278.412 132.928 279.516C135.442 280.376 139.142 282.411 144.159 285.973C149.123 289.498 155.108 294.323 162.133 300.489C175.983 312.648 188.012 326.477 198.224 341.986C200.671 345.769 203.174 348.888 205.77 351.111C208.35 353.32 211.447 355 214.962 355C217.091 355 219.154 354.397 220.946 353.092C222.683 351.826 223.886 350.105 224.719 348.284C226.329 344.765 226.909 340.1 226.909 334.814C226.909 329.375 225.9 324.259 223.819 319.533C222.21 315.646 219.64 311.791 216.292 307.962C212.878 303.902 208.224 299.57 202.444 294.968C196.761 290.169 189.691 284.866 181.266 279.063C174.049 274.092 165.481 268.507 155.573 262.312C160.131 257.447 164.601 252.491 168.982 247.443C174.895 240.647 180.65 233.463 186.248 225.893L206.673 198.752L206.714 198.694C209.578 194.655 211.445 190.376 211.445 185.99C211.445 182.543 209.434 179.663 207.364 177.505C205.168 175.216 202.094 172.901 198.352 170.545L198.332 170.532L198.313 170.52C194.559 168.204 191.275 166.389 188.499 165.136C185.885 163.957 183.141 163 180.671 163Z" fill="black"/>
<path d="M289.593 149.11C298.68 152.443 303.148 154.943 302.996 156.609C302.845 158.427 297.998 159.942 288.457 161.154C278.461 162.517 270.434 163.426 264.376 163.881C258.469 164.335 253.547 164.184 249.609 163.426C245.823 162.669 239.726 161.608 237 159.336C215.532 150.701 205.5 142 193.033 128.659C190.156 124.569 187.127 120.175 183.946 115.479C180.917 110.783 177.585 105.48 173.95 99.5723C171.376 107.45 168.044 114.494 163.955 120.705C160.017 126.917 155.17 132.446 149.415 137.294C143.66 141.99 116.845 156.08 108.969 159.565C100.5 161.154 93 161.154 81.9349 161.2C72.5 161.239 66.4867 160.851 66.0324 159.336C65.578 157.821 69.8944 154.943 78.9816 150.701C95.7928 142.823 128.515 133.431 137.148 122.523C145.932 111.616 151.838 99.4965 154.867 86.1652C147.749 87.3771 122.085 90.5891 115.876 91.801C109.818 93.0129 65.5168 100.225 60.9733 101.437C58.2471 102.194 43.9753 104.725 42.1579 105.028C40.4919 105.33 38.9017 105.406 37.3872 105.255C35.8726 104.952 34.3581 104.422 32.8436 103.664C31.3291 102.755 29.4359 101.467 27.1641 99.801C21.4089 95.8622 18.91 93.2111 19.6672 91.8477C20.4245 90.3327 36.6652 87.4238 44.3892 87.1208C50.2959 86.9693 97.1714 80.2876 107.016 79.0757C117.012 77.8637 146.462 74.4245 157.366 72.7581C158.124 67.0014 158.427 61.4719 158.275 56.1697C158.275 50.8675 157.518 46.1712 156.003 42.0809C153.277 41.6264 120.021 40.9447 116.235 40.0358C109.268 46.3984 100.635 52.3066 90.3363 57.7604C83.2181 61.5477 79.2803 62.9869 78.5231 62.0779C77.9172 61.1689 80.4162 57.6846 86.02 51.6249C92.381 44.8078 97.8332 38.1421 102.377 31.6279C107.072 24.9623 110.858 18.8268 113.736 13.2216C116.613 7.61638 118.582 2.61714 119.642 -1.77614C120.703 -6.16942 120.854 -9.65374 120.097 -12.2291C118.885 -15.8649 118.204 -18.6675 118.052 -20.6369C118.052 -22.7578 118.809 -24.0455 120.324 -24.5C121.838 -25.106 124.262 -24.9545 127.594 -24.0455C130.926 -23.2881 135.318 -21.7731 140.77 -19.5007C144.859 -17.8343 147.964 -16.2437 150.084 -14.7287C152.356 -13.3653 153.719 -11.9261 154.174 -10.4112C154.628 -9.04777 154.401 -7.60859 153.492 -6.09367C152.583 -4.73024 151.144 -3.13957 149.176 -1.32166C147.813 -0.109723 145.995 2.08692 143.723 5.26826C141.603 8.4496 139.407 11.8582 137.135 15.494C135.924 17.6149 134.182 20.0388 131.91 22.7656C129.79 25.4925 127.442 28.2951 124.867 31.1735C131.228 30.719 179.574 27.2798 187.904 24.8559C196.234 22.2806 207.336 22.0235 215.212 18.0847C217.484 17.0242 235.453 15.191 237.119 14.585C238.785 13.8276 240.451 13.4489 242.117 13.4489C243.782 13.2974 245.524 13.6003 247.342 14.3578C249.159 14.9638 251.279 15.9485 253.703 17.3119C258.398 20.0388 260.669 22.3869 260.518 24.3563C260.367 26.1742 257.413 28.2194 251.658 30.4917C248.629 31.7037 245.676 32.7641 242.798 33.6731C240.072 34.582 221.043 36.491 217.711 37.3999C214.53 38.1574 196.896 39.9149 192.806 40.6723C188.717 41.4298 183.946 40.1873 178.494 40.9447C182.735 42.9141 185.082 44.6563 185.537 46.1712C186.142 47.6861 185.385 50.3372 183.265 54.1246C182.205 55.791 181.523 57.6846 181.22 59.8055C181.069 61.7749 180.766 64.8805 180.311 69.1223C188.49 67.6074 215.911 66.2439 222.575 65.032C229.39 63.6686 264.918 62.3809 269.159 61.1689C275.066 59.654 289.836 58.5178 293.471 57.7604C297.258 56.8514 300.362 56.4727 302.786 56.6242C305.209 56.6242 307.253 57.0787 308.919 57.9876C310.585 58.7451 312.403 59.957 314.372 61.6234C322.247 68.2891 325.125 72.9854 323.004 75.7122C320.884 78.4391 312.554 79.348 298.015 78.4391C294.834 78.2876 291.048 78.2876 286.656 78.4391C282.264 78.4391 267.417 78.6663 262.116 79.1208C256.967 79.4238 221.439 79.954 215.532 80.7115C209.777 81.3174 183.946 81.9992 178.04 82.7566C186.824 92.7551 194.851 101.239 202.121 108.207C209.542 115.176 216.812 121.16 223.93 126.159C253 146.576 269.159 143.5 289.593 149.11Z" fill="black"/>
</svg>
