<svg width="350" height="350" viewBox="0 0 350 350" fill="none" xmlns="http://www.w3.org/2000/svg">
<path d="M47.5 349C44.5 364.333 40.8333 372.833 36.5 374.5C32.5 376.5 28.6667 374.667 25 369C20.6667 362.333 17.3333 356.5 15 351.5C12.6667 346.833 11.1667 342.333 10.5 338C9.83333 333.667 9.83333 329.333 10.5 325C11.5 320.333 13 315 15 309C16.3333 305.333 17.6667 298.667 19 289C20.3333 279 21.6667 267 23 253C24.3333 239 25.3333 223.333 26 206C27 188.333 27.6667 170 28 151C28.3333 114 27.3333 85.6667 25 66C22.6667 46 19.3333 32.5 15 25.5C12.3333 21.5 10.8333 18.1667 10.5 15.5C10.1667 12.5 11.1667 10.5 13.5 9.49999C16.1667 8.16666 20.5 8.00001 26.5 8.99999C32.5 10 40.5 12.5 50.5 16.5C68.8333 16.5 89.6667 15.5 113 13.5C136.333 11.5 159 9 181 5.99999C203 2.99999 222.667 -5.48363e-06 240 -3.00001C257.667 -6.33334 269.667 -9.33333 276 -12C279.333 -13.3333 282.167 -14.1667 284.5 -14.5C286.833 -15.1667 289.333 -15.1667 292 -14.5C295 -13.8333 298.5 -12.5 302.5 -10.5C306.5 -8.50001 312 -5.50001 319 -1.50001C328 3.49999 334.833 7.66666 339.5 11C344.167 14.3333 347.167 17.5 348.5 20.5C350.167 23.1667 350.5 26 349.5 29C348.5 31.6667 346.667 35 344 39C340 44.6667 337.333 52.1667 336 61.5C334.667 70.8333 334.333 84.3333 335 102C336.333 134 337.333 162 338 186C339 209.667 339.667 230.333 340 248C340.667 265.667 341.167 280.667 341.5 293C341.833 305.333 342.333 316 343 325C343.667 340 342.5 352.833 339.5 363.5C336.5 374.167 330.667 385.667 322 398C315 408 308.833 412.833 303.5 412.5C298.167 412.167 294 406.667 291 396C288.667 387.667 286.5 380.667 284.5 375C282.5 369.667 280.167 364.167 277.5 358.5C274.833 352.833 272 349.167 269 347.5C266 346.167 261.167 345.167 254.5 344.5C247.5 343.833 237.833 343.667 225.5 344C213.5 344 200.667 344.333 187 345C173.333 345.333 159.667 346 146 347C132.333 348.333 120.5 349.667 110.5 351C98.5 352.333 87.6667 352.833 78 352.5C68.6667 352.5 58.5 351.333 47.5 349ZM59.5 40C59.8333 62 59.8333 86.8333 59.5 114.5C59.1667 141.833 58.5 169.167 57.5 196.5C56.8333 223.5 55.8333 248.833 54.5 272.5C53.1667 295.833 51.8333 314.5 50.5 328.5C57.5 328.833 65 329 73 329C81.3333 328.667 91.1667 328.167 102.5 327.5C114.167 326.5 128 325.167 144 323.5C160.333 321.5 180 319 203 316C225 313.333 242 313 254 315C266 317 276 322.833 284 332.5C291.667 341.167 296.5 339.167 298.5 326.5C300.833 306.167 302.333 284.667 303 262C304 239.333 304.333 216 304 192C304 181 303.667 168.667 303 155C302.667 141 302.167 127.5 301.5 114.5C300.833 101.167 300.167 89.1667 299.5 78.5C298.833 67.5 298.167 59.3333 297.5 54C296.5 46.3333 295.5 40.3333 294.5 36C293.5 31.6667 292 28.5 290 26.5C288.333 24.1666 285.833 22.8333 282.5 22.5C279.5 21.8333 275.5 21.5 270.5 21.5C265.167 21.5 258 21.8333 249 22.5C240 22.8333 229.667 23.6667 218 25C206.667 26 194.167 27.3333 180.5 29C166.833 30.3333 152.5 32 137.5 34C102.167 38.3333 76.1667 40.3333 59.5 40Z" fill="black"/>
<path d="M128.785 233.61C118.229 234.809 109.353 235.888 102.156 236.848C98.3176 237.567 95.079 238.047 92.44 238.287C90.041 238.287 87.7619 238.167 85.6028 237.927C83.4437 237.687 81.2846 237.208 79.1255 236.488C77.2063 235.529 75.0471 234.329 72.6481 232.89C68.09 230.252 66.2907 227.733 67.2503 225.335C68.2099 222.697 72.5282 221.377 80.205 221.377C86.6824 221.377 94.5992 221.257 103.955 221.018C113.312 220.538 123.387 220.058 134.183 219.579C135.862 215.021 136.822 211.064 137.062 207.706C137.542 204.348 137.542 201.709 137.062 199.791C134.423 191.396 134.183 186.599 136.342 185.4C138.741 183.96 144.859 185.999 154.695 191.516C161.652 195.353 165.61 198.711 166.57 201.59C167.529 204.228 167.05 206.267 165.13 207.706C164.411 208.186 163.451 209.265 162.252 210.944C161.052 212.383 159.373 214.781 157.214 218.139C162.491 217.66 167.649 217.3 172.687 217.06C177.965 216.58 183.003 216.101 187.801 215.621C186.602 207.226 187.201 202.549 189.6 201.59C192.239 200.39 197.637 201.829 205.794 205.907C210.592 208.545 213.83 210.824 215.51 212.743C219.828 212.263 223.786 211.783 227.385 211.304C230.983 210.824 234.222 210.344 237.101 209.864C245.737 208.425 252.575 207.346 257.612 206.626C262.65 205.667 266.729 205.307 269.847 205.547C273.206 205.787 276.085 206.387 278.484 207.346C281.123 208.305 284.122 209.864 287.48 212.023C291.319 214.422 293.958 216.82 295.397 219.219C297.076 221.377 297.436 223.416 296.477 225.335C295.757 227.014 293.478 228.453 289.639 229.652C286.041 230.612 280.883 230.852 274.166 230.372C266.009 229.892 256.893 229.532 246.817 229.293C236.741 229.053 226.185 229.053 215.15 229.293C212.031 237.687 208.792 244.883 205.434 250.879C202.315 256.876 198.837 262.392 194.998 267.429C200.516 270.067 205.674 272.586 210.472 274.984C215.51 277.383 220.788 280.021 226.305 282.9C235.182 287.697 241.539 292.973 245.377 298.73C249.456 304.726 251.495 310.722 251.495 316.719C251.255 324.874 248.736 329.551 243.938 330.75C239.38 331.949 233.742 328.831 227.025 321.396C221.747 315.4 215.27 309.403 207.593 303.407C200.156 297.651 190.68 291.174 179.165 283.979C167.409 294.053 153.855 301.728 138.501 307.005C123.147 312.521 106.114 315.879 87.4021 317.079C80.205 317.558 76.6065 316.479 76.6065 313.841C76.6065 311.202 80.0851 308.924 87.0422 307.005C103.116 302.687 117.15 297.531 129.145 291.534C141.38 285.538 151.696 279.062 160.092 272.106C155.294 269.468 150.856 267.309 146.778 265.63C142.939 263.711 138.981 262.032 134.903 260.593C127.946 257.955 123.867 255.436 122.668 253.038C121.468 250.4 121.948 247.042 124.107 242.964C124.827 241.525 125.546 240.086 126.266 238.647C127.226 236.968 128.065 235.289 128.785 233.61ZM186.362 230.012C179.884 230.252 173.527 230.492 167.289 230.732C161.052 230.972 154.934 231.331 148.937 231.811C147.977 233.49 147.018 235.169 146.058 236.848C145.338 238.527 144.379 240.326 143.179 242.245C141.98 244.403 141.62 245.962 142.1 246.922C142.819 247.881 145.099 248.96 148.937 250.16C152.535 251.359 156.374 252.678 160.452 254.117C164.531 255.317 168.609 256.756 172.687 258.435C175.806 253.877 178.445 249.2 180.604 244.403C183.003 239.606 184.922 234.809 186.362 230.012ZM180.604 140.427C181.564 151.94 181.804 161.294 181.324 168.49C180.844 175.446 180.124 180.123 179.165 182.521C176.766 188.997 174.127 192.355 171.248 192.595C168.369 192.835 164.77 189.957 160.452 183.96C158.053 180.602 156.494 177.484 155.774 174.606C155.294 171.488 155.534 168.85 156.494 166.691C157.933 163.093 159.013 159.615 159.733 156.257C160.452 152.66 161.052 147.143 161.532 139.708C153.135 153.379 143.419 165.132 132.384 174.966C121.588 184.56 108.274 192.475 92.44 198.711C86.9223 200.87 83.6836 200.99 82.724 199.071C82.0043 197.152 84.2834 194.514 89.5612 191.156C101.556 183.241 111.872 174.606 120.509 165.252C129.145 155.658 137.422 144.385 145.338 131.433C139.581 132.152 134.903 132.632 131.304 132.872C127.706 133.112 124.587 133.112 121.948 132.872C119.549 132.632 117.39 132.152 115.471 131.433C113.551 130.713 111.512 129.634 109.353 128.195C101.196 123.638 103.116 120.999 115.111 120.28C123.747 119.8 131.664 119.2 138.861 118.481C146.298 117.521 154.215 116.442 162.611 115.243C162.851 100.852 162.851 88.9788 162.611 79.6246C162.371 70.0305 161.892 62.2353 161.172 56.239C160.452 50.2426 159.493 45.6854 158.293 42.5674C157.094 39.2094 155.654 36.691 153.975 35.012C151.576 32.6135 150.136 30.3349 149.657 28.1762C149.177 26.0175 149.777 24.4585 151.456 23.4991C153.135 22.2998 155.774 21.8201 159.373 22.06C162.971 22.2998 167.529 23.619 173.047 26.0175C181.923 29.6153 187.321 32.9733 189.24 36.0913C191.4 39.2094 191.52 42.8072 189.6 46.8847C188.401 49.5231 187.441 52.1615 186.721 54.7998C186.242 57.1984 185.642 60.6762 184.922 65.2334C184.442 69.7906 183.843 75.7869 183.123 83.2224C182.643 90.4179 182.043 100.012 181.324 112.005C185.642 111.045 190.2 110.086 194.998 109.126C200.036 108.167 205.314 107.088 210.832 105.888C219.228 103.97 225.466 103.13 229.544 103.37C233.622 103.61 237.461 104.809 241.059 106.968C246.337 110.086 248.616 113.204 247.896 116.322C247.177 119.44 241.899 121.479 232.063 122.438C225.825 123.158 218.389 123.997 209.752 124.957C201.116 125.676 192.239 126.516 183.123 127.475C190.8 134.191 198.117 140.067 205.074 145.104C212.031 149.901 218.868 154.219 225.586 158.056C232.303 161.894 239.02 165.132 245.737 167.77C252.695 170.409 259.892 172.807 267.329 174.966C278.844 178.084 284.601 180.722 284.601 182.881C284.841 185.04 279.683 186.719 269.128 187.918C259.052 188.877 251.015 189.477 245.018 189.717C239.02 189.957 234.222 189.837 230.624 189.357C227.025 188.638 224.146 187.438 221.987 185.759C219.828 184.08 217.429 181.802 214.79 178.924C209.992 173.887 205.914 169.569 202.555 165.971C199.196 162.134 196.198 158.776 193.559 155.898C191.16 153.019 188.881 150.381 186.721 147.983C184.802 145.584 182.763 143.066 180.604 140.427ZM148.217 95.8146C147.737 101.331 145.818 104.809 142.46 106.248C139.101 107.447 135.502 106.728 131.664 104.09C129.265 102.171 126.386 99.2925 123.028 95.4548C119.909 91.3774 117.03 86.9401 114.391 82.143C112.472 78.7851 112.112 76.2666 113.311 74.5877C114.511 72.9087 117.51 72.3091 122.308 72.7888C132.384 73.988 139.341 76.6264 143.179 80.7039C147.258 84.5416 148.937 89.5784 148.217 95.8146ZM238.9 79.2648C236.261 79.9844 231.223 82.143 223.786 85.7408C216.589 89.0988 208.792 93.1762 200.396 97.9733C196.078 100.372 193.079 100.732 191.4 99.0526C189.96 97.1338 190.92 94.4954 194.278 91.1375C200.516 84.1818 204.954 78.4253 207.593 73.8681C210.472 69.3109 212.031 64.9936 212.271 60.9161C212.271 56.119 213.83 53.2408 216.949 52.2814C220.068 51.0821 224.986 52.5212 231.703 56.5987C242.019 62.8349 247.297 67.7519 247.537 71.3497C247.776 74.9474 244.898 77.5858 238.9 79.2648Z" fill="black"/>
</svg>
