<svg width="350" height="350" viewBox="0 0 350 350" fill="none" xmlns="http://www.w3.org/2000/svg">
<path d="M271.626 10.9997C287.222 4.99991 299.819 2 309.416 2C319.014 2 315.515 8.59977 338.909 21.7993C362.303 34.9988 374 46.0984 374 55.0981C374 63.4978 370.701 71.5975 364.103 79.3972C358.404 131.995 371.767 189.621 374 220.892C374 258.691 367.402 292.289 354.205 321.688C341.008 351.687 339.609 346.688 330.011 346.688C324.612 346.688 318.014 341.588 310.216 331.388C295.851 312.231 256.63 275.553 256.63 254.191C256.63 251.191 258.429 249.691 262.028 249.691C275.425 261.491 280.381 277.79 304.417 277.79C317.014 277.79 324.113 252.691 328.312 242.491C333.41 169.994 332.939 166.437 318.414 93.7967C314.815 75.1973 309.716 62.8978 303.118 56.898C297.119 50.8982 288.122 47.8983 276.125 47.8983C264.728 47.8983 257.929 52.6982 242.933 55.0981L186.747 64.9977C186.747 84.497 181.948 93.7967 172.451 119.396C219.439 139.495 218.439 141.995 242.933 159.594C265.727 181.793 287.122 206.393 287.122 233.392C287.122 251.391 281.123 240.391 269.126 240.391C261.328 240.391 246.832 236.191 238.434 227.792L167.952 131.995C153.955 168.494 125.266 191.341 92.6709 215.792C90.1063 217.716 53.4805 247.491 38.0845 239.191C33.9854 233.492 32.3859 225.992 40.7838 215.792C110.466 135.995 144.958 135.495 144.958 72.1975C60.9786 81.7971 55.6801 77.4973 37.0847 79.2972C37.0847 102.697 31.7045 127.196 29.8866 156.894C24.488 245.091 13.6905 289.19 -2.50541 289.19C-9.7036 289.19 -6.90416 280.49 -14.1023 263.091C-20.7007 246.291 -24 232.792 -24 222.592C-24 212.392 -21.0008 196.193 -15.0023 173.994C1.15858 114.186 0.593913 126.196 -10.5034 71.1975C-14.9022 61.198 -17.1016 59.7979 -17.1016 53.7981C-17.1016 47.7984 -12.0028 44.7985 -1.80539 44.7985C8.39205 44.7985 7.99196 42.9985 28.9867 51.3982C129.461 40.9986 172.451 31.9989 271.626 10.9997Z" fill="black"/>
</svg>
