<svg width="351" height="355" viewBox="0 0 351 355" fill="none" xmlns="http://www.w3.org/2000/svg">
<path fill-rule="evenodd" clip-rule="evenodd" d="M88.5816 163C86.8788 163 84.944 163.318 83.2057 164.426C81.3489 165.608 80.2152 167.374 79.7102 169.304L79.6682 169.465L79.637 169.628C79.2067 171.871 79.2428 174.246 79.601 176.674L79.6334 176.893L79.6853 177.11C80.1629 179.101 80.7193 181.089 81.3538 183.074C81.5936 183.824 81.7273 184.345 81.7935 184.677L81.7886 184.698V185.289C81.7886 187.701 80.7835 191.454 78.0695 196.815L78.0453 196.863L78.0221 196.911C75.478 202.215 71.0657 209.705 64.6759 219.464L64.6515 219.501L64.6277 219.539C61.526 224.466 58.5836 228.913 55.8001 232.883L55.764 232.935L55.7292 232.987C53.112 236.928 50.5934 240.375 48.175 243.341L48.1284 243.398L48.0836 243.457C45.8044 246.426 43.6471 248.884 41.6157 250.86L41.5539 250.921L41.4942 250.983C39.6418 252.914 37.8948 254.32 36.2683 255.288L36.2592 255.294L36.2502 255.299C32.0796 257.808 28 261.518 28 266.827C28 270.299 29.7456 273.076 32.1286 275.087C34.3954 277 37.4281 278.412 40.8382 279.516C43.3525 280.376 47.0523 282.411 52.0689 285.973C57.0336 289.498 63.0185 294.323 70.0429 300.489C83.8934 312.648 95.9219 326.477 106.134 341.986C108.581 345.769 111.084 348.888 113.681 351.111C116.26 353.32 119.357 355 122.872 355C125.001 355 127.064 354.397 128.856 353.092C130.593 351.826 131.796 350.105 132.629 348.284C134.239 344.765 134.819 340.1 134.819 334.814C134.819 329.375 133.81 324.259 131.729 319.533C130.12 315.646 127.55 311.791 124.202 307.962C120.788 303.902 116.134 299.57 110.354 294.968C104.672 290.169 97.6016 284.866 89.1765 279.063C81.9589 274.092 73.3916 268.507 63.4835 262.312C68.0415 257.447 72.5112 252.491 76.8926 247.443C82.805 240.647 88.56 233.463 94.1583 225.893L114.583 198.752L114.624 198.694C117.488 194.655 119.355 190.376 119.355 185.99C119.355 182.543 117.344 179.663 115.274 177.505C113.078 175.216 110.004 172.901 106.262 170.545L106.243 170.532L106.223 170.52C102.469 168.204 99.1848 166.389 96.409 165.136C93.795 163.957 91.0508 163 88.5816 163ZM274.762 163C273.059 163 271.125 163.318 269.386 164.426C267.53 165.608 266.396 167.374 265.891 169.304L265.849 169.465L265.818 169.628C265.387 171.871 265.423 174.246 265.782 176.674L265.814 176.893L265.866 177.11C266.344 179.101 266.9 181.089 267.534 183.074C267.774 183.824 267.908 184.345 267.974 184.677L267.969 184.698V185.289C267.969 187.701 266.964 191.454 264.25 196.815L264.226 196.863L264.203 196.911C261.659 202.215 257.246 209.705 250.857 219.464L250.832 219.501L250.808 219.539C247.707 224.466 244.764 228.913 241.981 232.883L241.945 232.935L241.91 232.987C239.293 236.928 236.774 240.375 234.356 243.341L234.309 243.398L234.264 243.457C231.985 246.426 229.828 248.884 227.796 250.86L227.735 250.921L227.675 250.983C225.822 252.914 224.075 254.32 222.449 255.288L222.44 255.294L222.431 255.299C218.26 257.808 214.181 261.518 214.181 266.827C214.181 270.299 215.926 273.076 218.309 275.087C220.576 277 223.609 278.412 227.019 279.516C229.533 280.376 233.233 282.411 238.25 285.973C243.214 289.498 249.199 294.323 256.224 300.489C270.074 312.648 282.103 326.477 292.315 341.986C294.762 345.769 297.264 348.888 299.861 351.111C302.441 353.32 305.538 355 309.052 355C311.182 355 313.245 354.397 315.036 353.092C316.774 351.826 317.977 350.105 318.81 348.284C320.42 344.765 321 340.1 321 334.814C321 329.375 319.991 324.259 317.909 319.533C316.301 315.646 313.731 311.791 310.383 307.962C306.968 303.902 302.315 299.57 296.535 294.968C290.852 290.169 283.782 284.866 275.357 279.063C268.14 274.092 259.572 268.507 249.664 262.312C254.222 257.447 258.692 252.491 263.073 247.443C268.986 240.647 274.741 233.463 280.339 225.893L300.764 198.752L300.805 198.694C303.669 194.655 305.536 190.376 305.536 185.99C305.536 182.543 303.525 179.663 301.455 177.505C299.259 175.216 296.185 172.901 292.443 170.545L292.423 170.532L292.404 170.52C288.65 168.204 285.366 166.389 282.59 165.136C279.976 163.957 277.231 163 274.762 163ZM181.671 163C179.969 163 178.034 163.318 176.296 164.426C174.439 165.608 173.305 167.374 172.8 169.304L172.758 169.465L172.727 169.628C172.297 171.871 172.333 174.246 172.691 176.674L172.723 176.893L172.775 177.11C173.253 179.101 173.809 181.089 174.444 183.074C174.683 183.824 174.817 184.345 174.883 184.677L174.878 184.698V185.289C174.878 187.701 173.873 191.454 171.159 196.815L171.135 196.863L171.112 196.911C168.568 202.215 164.156 209.705 157.766 219.464L157.741 219.501L157.718 219.539C154.616 224.466 151.673 228.913 148.89 232.883L148.854 232.935L148.819 232.987C146.202 236.928 143.683 240.375 141.265 243.341L141.218 243.398L141.173 243.457C138.894 246.426 136.737 248.884 134.706 250.86L134.644 250.921L134.584 250.983C132.732 252.914 130.985 254.32 129.358 255.288L129.349 255.294L129.34 255.299C125.169 257.808 121.09 261.518 121.09 266.827C121.09 270.299 122.835 273.076 125.218 275.087C127.485 277 130.518 278.412 133.928 279.516C136.442 280.376 140.142 282.411 145.159 285.973C150.123 289.498 156.108 294.323 163.133 300.489C176.983 312.648 189.012 326.477 199.224 341.986C201.671 345.769 204.174 348.888 206.77 351.111C209.35 353.32 212.447 355 215.962 355C218.091 355 220.154 354.397 221.946 353.092C223.683 351.826 224.886 350.105 225.719 348.284C227.329 344.765 227.909 340.1 227.909 334.814C227.909 329.375 226.9 324.259 224.819 319.533C223.21 315.646 220.64 311.791 217.292 307.962C213.878 303.902 209.224 299.57 203.444 294.968C197.761 290.169 190.691 284.866 182.266 279.063C175.049 274.092 166.481 268.507 156.573 262.312C161.131 257.447 165.601 252.491 169.982 247.443C175.895 240.647 181.65 233.463 187.248 225.893L207.673 198.752L207.714 198.694C210.578 194.655 212.445 190.376 212.445 185.99C212.445 182.543 210.434 179.663 208.364 177.505C206.168 175.216 203.094 172.901 199.352 170.545L199.332 170.532L199.313 170.52C195.559 168.204 192.275 166.389 189.499 165.136C186.885 163.957 184.141 163 181.671 163Z" fill="black"/>
<path d="M66.6692 179.555C59.7692 181.055 54.0692 182.555 49.5692 184.055C45.0692 185.255 41.1692 186.155 37.8692 186.755C34.5692 187.055 31.4192 187.055 28.4192 186.755C25.7192 186.155 22.8692 185.105 19.8692 183.605C17.1692 181.805 13.8692 179.405 9.96923 176.405C2.76923 171.005 -0.530769 167.255 0.0692308 165.155C0.969231 163.055 5.91923 162.005 14.9192 162.005C18.5192 162.005 23.6192 161.855 30.2192 161.555C36.8192 160.955 44.6192 160.205 53.6192 159.305C62.9192 158.405 73.1192 157.205 84.2192 155.705C95.3192 154.205 107.169 152.555 119.769 150.755C120.369 129.855 120.519 114.355 120.219 94.255C120.219 74.155 119.619 68.105 118.419 56.105C117.519 43.805 116.319 44.655 114.819 38.655C113.319 32.655 111.519 28.005 109.419 24.705C104.019 17.205 102.669 12.105 105.369 9.405C108.369 6.705 116.469 6.85499 129.669 9.85499C135.969 11.355 140.469 12.855 143.169 14.355C146.169 15.555 148.569 17.055 150.369 18.855C158.469 18.255 166.569 17.355 174.669 16.155C182.769 14.655 192.219 12.405 203.019 9.405C222.219 4.30499 236.769 1.30499 246.669 0.405006C256.569 -0.495 264.219 0.104992 269.619 2.20498C276.819 5.205 280.119 8.505 279.519 12.105C278.919 15.405 273.069 18.705 261.969 22.005C243.669 26.805 224.769 30.405 205.269 32.805C186.069 34.905 168.669 35.355 153.069 34.155V66.905C160.869 66.305 169.119 64.955 177.819 62.855C186.819 60.755 194.919 58.505 202.119 56.105C213.219 52.205 222.519 49.805 230.019 48.905C237.819 48.005 244.419 48.155 249.819 49.355C257.619 51.155 261.669 54.455 261.969 59.255C262.569 64.055 259.419 67.205 252.519 68.705C240.219 71.705 229.269 74.105 219.669 75.905C210.369 77.705 201.819 79.055 194.019 79.955C186.519 80.855 179.319 81.455 172.419 81.755C165.819 81.755 159.219 81.455 152.619 80.855C152.619 93.6061 152.776 96.364 152.169 109.105C165.669 108.805 184.869 104.905 209.769 97.405C215.469 95.905 220.119 94.705 223.719 93.805C227.619 92.905 230.919 92.305 233.619 92.005C236.619 91.705 239.469 91.855 242.169 92.455C244.869 92.755 247.719 93.355 250.719 94.255C260.319 97.255 264.969 100.855 264.669 105.055C264.369 108.955 259.719 111.805 250.719 113.605C238.119 116.005 226.869 118.105 216.969 119.905C207.369 121.405 198.669 122.605 190.869 123.505C183.069 124.405 176.019 125.005 169.719 125.305C163.419 125.305 157.419 125.005 151.719 124.405C151.719 134.843 151.368 135.382 150.819 145.805C172.419 142.505 194.319 138.755 216.519 134.555C238.719 130.355 259.719 126.005 279.519 121.505C293.619 117.905 304.719 116.705 312.819 117.905C320.919 118.805 328.719 121.655 336.219 126.455C347.319 134.255 351.669 140.255 349.269 144.455C346.869 148.355 337.869 150.005 322.269 149.405C315.969 148.805 307.569 148.805 297.069 149.405C286.569 150.005 274.269 151.055 260.169 152.555C246.069 153.755 230.619 155.405 213.819 157.505C164.545 162.784 115.005 169.485 66.6692 179.555Z" fill="black"/>
</svg>
