<svg width="350" height="380" viewBox="0 0 350 380" fill="none" xmlns="http://www.w3.org/2000/svg">
<path fill-rule="evenodd" clip-rule="evenodd" d="M87.5816 188C85.8788 188 83.944 188.318 82.2057 189.426C80.3489 190.608 79.2152 192.374 78.7102 194.304L78.6682 194.465L78.637 194.628C78.2067 196.871 78.2428 199.246 78.601 201.674L78.6334 201.893L78.6853 202.11C79.1629 204.101 79.7193 206.089 80.3538 208.074C80.5936 208.824 80.7273 209.345 80.7935 209.677L80.7886 209.698V210.289C80.7886 212.701 79.7835 216.454 77.0695 221.815L77.0453 221.863L77.0221 221.911C74.478 227.215 70.0657 234.705 63.6759 244.464L63.6515 244.501L63.6277 244.539C60.526 249.466 57.5836 253.913 54.8001 257.883L54.764 257.935L54.7292 257.987C52.112 261.928 49.5934 265.375 47.175 268.341L47.1284 268.398L47.0836 268.457C44.8044 271.426 42.6471 273.884 40.6157 275.86L40.5539 275.921L40.4942 275.983C38.6418 277.914 36.8948 279.32 35.2683 280.288L35.2592 280.294L35.2502 280.299C31.0796 282.808 27 286.518 27 291.827C27 295.299 28.7456 298.076 31.1286 300.087C33.3954 302 36.4281 303.412 39.8382 304.516C42.3525 305.376 46.0523 307.411 51.0689 310.973C56.0336 314.498 62.0185 319.323 69.0429 325.489C82.8934 337.648 94.9219 351.477 105.134 366.986C107.581 370.769 110.084 373.888 112.681 376.111C115.26 378.32 118.357 380 121.872 380C124.001 380 126.064 379.397 127.856 378.092C129.593 376.826 130.796 375.105 131.629 373.284C133.239 369.765 133.819 365.1 133.819 359.814C133.819 354.375 132.81 349.259 130.729 344.533C129.12 340.646 126.55 336.791 123.202 332.962C119.788 328.902 115.134 324.57 109.354 319.968C103.672 315.169 96.6016 309.866 88.1765 304.063C80.9589 299.092 72.3916 293.507 62.4835 287.312C67.0415 282.447 71.5112 277.491 75.8926 272.443C81.805 265.647 87.56 258.463 93.1583 250.893L113.583 223.752L113.624 223.694C116.488 219.655 118.355 215.376 118.355 210.99C118.355 207.543 116.344 204.663 114.274 202.505C112.078 200.216 109.004 197.901 105.262 195.545L105.243 195.532L105.223 195.52C101.469 193.204 98.1848 191.389 95.409 190.136C92.795 188.957 90.0508 188 87.5816 188ZM273.762 188C272.059 188 270.125 188.318 268.386 189.426C266.53 190.608 265.396 192.374 264.891 194.304L264.849 194.465L264.818 194.628C264.387 196.871 264.423 199.246 264.782 201.674L264.814 201.893L264.866 202.11C265.344 204.101 265.9 206.089 266.534 208.074C266.774 208.824 266.908 209.345 266.974 209.677L266.969 209.698V210.289C266.969 212.701 265.964 216.454 263.25 221.815L263.226 221.863L263.203 221.911C260.659 227.215 256.246 234.705 249.857 244.464L249.832 244.501L249.808 244.539C246.707 249.466 243.764 253.913 240.981 257.883L240.945 257.935L240.91 257.987C238.293 261.928 235.774 265.375 233.356 268.341L233.309 268.398L233.264 268.457C230.985 271.426 228.828 273.884 226.796 275.86L226.735 275.921L226.675 275.983C224.822 277.914 223.075 279.32 221.449 280.288L221.44 280.294L221.431 280.299C217.26 282.808 213.181 286.518 213.181 291.827C213.181 295.299 214.926 298.076 217.309 300.087C219.576 302 222.609 303.412 226.019 304.516C228.533 305.376 232.233 307.411 237.25 310.973C242.214 314.498 248.199 319.323 255.224 325.489C269.074 337.648 281.103 351.477 291.315 366.986C293.762 370.769 296.264 373.888 298.861 376.111C301.441 378.32 304.538 380 308.052 380C310.182 380 312.245 379.397 314.036 378.092C315.774 376.826 316.977 375.105 317.81 373.284C319.42 369.765 320 365.1 320 359.814C320 354.375 318.991 349.259 316.909 344.533C315.301 340.646 312.731 336.791 309.383 332.962C305.968 328.902 301.315 324.57 295.535 319.968C289.852 315.169 282.782 309.866 274.357 304.063C267.14 299.092 258.572 293.507 248.664 287.312C253.222 282.447 257.692 277.491 262.073 272.443C267.986 265.647 273.741 258.463 279.339 250.893L299.764 223.752L299.805 223.694C302.669 219.655 304.536 215.376 304.536 210.99C304.536 207.543 302.525 204.663 300.455 202.505C298.259 200.216 295.185 197.901 291.443 195.545L291.423 195.532L291.404 195.52C287.65 193.204 284.366 191.389 281.59 190.136C278.976 188.957 276.231 188 273.762 188ZM180.671 188C178.969 188 177.034 188.318 175.296 189.426C173.439 190.608 172.305 192.374 171.8 194.304L171.758 194.465L171.727 194.628C171.297 196.871 171.333 199.246 171.691 201.674L171.723 201.893L171.775 202.11C172.253 204.101 172.809 206.089 173.444 208.074C173.683 208.824 173.817 209.345 173.883 209.677L173.878 209.698V210.289C173.878 212.701 172.873 216.454 170.159 221.815L170.135 221.863L170.112 221.911C167.568 227.215 163.156 234.705 156.766 244.464L156.741 244.501L156.718 244.539C153.616 249.466 150.673 253.913 147.89 257.883L147.854 257.935L147.819 257.987C145.202 261.928 142.683 265.375 140.265 268.341L140.218 268.398L140.173 268.457C137.894 271.426 135.737 273.884 133.706 275.86L133.644 275.921L133.584 275.983C131.732 277.914 129.985 279.32 128.358 280.288L128.349 280.294L128.34 280.299C124.169 282.808 120.09 286.518 120.09 291.827C120.09 295.299 121.835 298.076 124.218 300.087C126.485 302 129.518 303.412 132.928 304.516C135.442 305.376 139.142 307.411 144.159 310.973C149.123 314.498 155.108 319.323 162.133 325.489C175.983 337.648 188.012 351.477 198.224 366.986C200.671 370.769 203.174 373.888 205.77 376.111C208.35 378.32 211.447 380 214.962 380C217.091 380 219.154 379.397 220.946 378.092C222.683 376.826 223.886 375.105 224.719 373.284C226.329 369.765 226.909 365.1 226.909 359.814C226.909 354.375 225.9 349.259 223.819 344.533C222.21 340.646 219.64 336.791 216.292 332.962C212.878 328.902 208.224 324.57 202.444 319.968C196.761 315.169 189.691 309.866 181.266 304.063C174.049 299.092 165.481 293.507 155.573 287.312C160.131 282.447 164.601 277.491 168.982 272.443C174.895 265.647 180.65 258.463 186.248 250.893L206.673 223.752L206.714 223.694C209.578 219.655 211.445 215.376 211.445 210.99C211.445 207.543 209.434 204.663 207.364 202.505C205.168 200.216 202.094 197.901 198.352 195.545L198.332 195.532L198.313 195.52C194.559 193.204 191.275 191.389 188.499 190.136C185.885 188.957 183.141 188 180.671 188Z" fill="black"/>
<path d="M289.593 174.11C298.68 177.443 303.148 179.943 302.996 181.609C302.845 183.427 297.998 184.942 288.457 186.154C278.461 187.517 270.434 188.426 264.376 188.881C258.469 189.335 253.547 189.184 249.609 188.426C245.823 187.669 239.726 186.608 237 184.336C215.532 175.701 205.5 167 193.033 153.659C190.156 149.569 187.127 145.175 183.946 140.479C180.917 135.783 177.585 130.48 173.95 124.572C171.376 132.45 168.044 139.494 163.955 145.705C160.017 151.917 155.17 157.446 149.415 162.294C143.66 166.99 116.845 181.08 108.969 184.565C100.5 186.154 93 186.154 81.9349 186.2C72.5 186.239 66.4867 185.851 66.0324 184.336C65.578 182.821 69.8944 179.943 78.9816 175.701C95.7928 167.823 128.515 158.431 137.148 147.523C145.932 136.616 151.838 124.497 154.867 111.165C147.749 112.377 122.085 115.589 115.876 116.801C109.818 118.013 65.5168 125.225 60.9733 126.437C58.2471 127.194 43.9753 129.725 42.1579 130.028C40.4919 130.33 38.9017 130.406 37.3872 130.255C35.8726 129.952 34.3581 129.422 32.8436 128.664C31.3291 127.755 29.4359 126.467 27.1641 124.801C21.4089 120.862 18.91 118.211 19.6672 116.848C20.4245 115.333 36.6652 112.424 44.3892 112.121C50.2959 111.969 97.1714 105.288 107.016 104.076C117.012 102.864 146.462 99.4245 157.366 97.7581C158.124 92.0014 158.427 86.4719 158.275 81.1697C158.275 75.8675 157.518 71.1712 156.003 67.0809C153.277 66.6264 120.021 65.9447 116.235 65.0358C109.268 71.3984 100.635 77.3066 90.3363 82.7604C83.2181 86.5477 79.2803 87.9869 78.5231 87.0779C77.9172 86.1689 80.4162 82.6846 86.02 76.6249C92.381 69.8078 97.8332 63.1421 102.377 56.6279C107.072 49.9623 110.858 43.8268 113.736 38.2216C116.613 32.6164 118.582 27.6171 119.642 23.2239C120.703 18.8306 120.854 15.3463 120.097 12.7709C118.885 9.13507 118.204 6.33246 118.052 4.36306C118.052 2.24216 118.809 0.95448 120.324 0.5C121.838 -0.105962 124.262 0.0455273 127.594 0.954479C130.926 1.71194 135.318 3.22687 140.77 5.49925C144.859 7.16567 147.964 8.75634 150.084 10.2713C152.356 11.6347 153.719 13.0739 154.174 14.5888C154.628 15.9522 154.401 17.3914 153.492 18.9063C152.583 20.2698 151.144 21.8604 149.176 23.6783C147.813 24.8903 145.995 27.0869 143.723 30.2683C141.603 33.4496 139.407 36.8582 137.135 40.494C135.924 42.6149 134.182 45.0388 131.91 47.7656C129.79 50.4925 127.442 53.2951 124.867 56.1735C131.228 55.719 179.574 52.2798 187.904 49.8559C196.234 47.2806 207.336 47.0235 215.212 43.0847C217.484 42.0242 235.453 40.191 237.119 39.585C238.785 38.8276 240.451 38.4489 242.117 38.4489C243.782 38.2974 245.524 38.6003 247.342 39.3578C249.159 39.9638 251.279 40.9485 253.703 42.3119C258.398 45.0388 260.669 47.3869 260.518 49.3563C260.367 51.1742 257.413 53.2194 251.658 55.4917C248.629 56.7037 245.676 57.7641 242.798 58.6731C240.072 59.582 221.043 61.491 217.711 62.3999C214.53 63.1574 196.896 64.9149 192.806 65.6723C188.717 66.4298 183.946 65.1873 178.494 65.9447C182.735 67.9141 185.082 69.6563 185.537 71.1712C186.142 72.6861 185.385 75.3372 183.265 79.1246C182.205 80.791 181.523 82.6846 181.22 84.8055C181.069 86.7749 180.766 89.8805 180.311 94.1223C188.49 92.6074 215.911 91.2439 222.575 90.032C229.39 88.6686 264.918 87.3809 269.159 86.1689C275.066 84.654 289.836 83.5178 293.471 82.7604C297.258 81.8514 300.362 81.4727 302.786 81.6242C305.209 81.6242 307.253 82.0787 308.919 82.9876C310.585 83.7451 312.403 84.957 314.372 86.6234C322.247 93.2891 325.125 97.9854 323.004 100.712C320.884 103.439 312.554 104.348 298.015 103.439C294.834 103.288 291.048 103.288 286.656 103.439C282.264 103.439 267.417 103.666 262.116 104.121C256.967 104.424 221.439 104.954 215.532 105.711C209.777 106.317 183.946 106.999 178.04 107.757C186.824 117.755 194.851 126.239 202.121 133.207C209.542 140.176 216.812 146.16 223.93 151.159C253 171.576 269.159 168.5 289.593 174.11Z" fill="black"/>
</svg>
