<svg width="350" height="350" viewBox="0 0 350 350" fill="none" xmlns="http://www.w3.org/2000/svg">
<path fill-rule="evenodd" clip-rule="evenodd" d="M103.399 139.792C97.4883 144.491 91.7083 148.889 86.0586 152.985C74.2475 161.377 62.5457 168.713 50.9531 174.993C48.493 176.326 46.2732 177.523 44.2619 178.599C45.4124 178.661 46.6299 178.776 47.9144 178.943C55.7376 179.921 66.1686 182.529 79.2072 186.767C128.34 181.986 155.216 177.314 181.47 172.75L181.47 172.75C187.439 171.712 193.376 170.68 199.536 169.654C229.08 164.73 235.791 160.449 241.494 156.812L241.495 156.812C242.21 156.356 242.909 155.91 243.635 155.474C248.524 152.54 252.599 150.421 255.859 149.118C259.444 147.814 263.356 147.651 267.594 148.629C271.831 149.281 276.721 151.236 282.262 154.496C285.866 156.298 290.085 158.715 294.919 161.747C289.445 157.088 282.724 150.984 279.176 146.327C267.368 130.977 248.882 117.548 230.729 104.359C213.111 91.5604 195.807 78.989 185.224 65.111C168.56 81.6133 152.288 96.6089 144.602 103.681C141.401 106.626 138.593 109.253 136.022 111.659L136.021 111.66C131.475 115.913 127.665 119.477 123.718 122.897C120.646 125.558 117.605 128.146 114.597 130.659C116.834 130.078 119.399 129.552 122.292 129.083C133.375 127.453 143.968 125.334 154.073 122.727C164.178 120.119 173.142 117.348 180.965 114.415C187.811 111.807 193.352 109.851 197.59 108.547C202.153 107.243 206.065 106.428 209.325 106.102C212.91 105.776 216.007 105.939 218.615 106.591C221.548 107.243 224.808 108.221 228.394 109.525C241.432 114.415 246.974 119.956 245.018 126.149C243.388 132.343 233.772 137.069 216.17 140.329C197.916 143.914 183.247 146.685 172.165 148.641C161.082 150.271 152.118 151.412 145.272 152.064C138.427 152.39 133.048 152.227 129.137 151.575C125.225 150.923 121.477 149.945 117.891 148.641C109.31 145.691 104.48 142.742 103.399 139.792ZM310.395 172.104C313.297 173.179 316.476 173.941 319.933 174.392C327.756 175.37 341.354 176.022 353.741 174.392C362.646 173.25 386.756 168.536 386.756 155.323C386.756 149.635 370.02 145.011 355.201 140.917C346.925 138.631 339.247 136.51 335.416 134.461C331.778 132.515 327.635 130.441 323.255 128.248C310.759 121.991 296.332 114.768 286.195 106.803C263.523 88.4498 232.136 61.4995 210.596 38.8133C222.862 25.3061 232.449 13.0739 234.708 5.75675C227.826 -3.96904 198.795 -0.516117 182.055 9.73067C160.236 23.0855 147.621 39.2609 134.208 56.4595C126.986 65.7203 119.532 75.2777 110.286 84.8511C89.346 106.453 68.5352 124.965 47.8532 140.387C27.5688 155.655 5.11158 169.173 -19.5186 180.942C-24.6037 183.357 -28.8516 185.673 -32.2622 187.892C-35.2752 189.957 -36.8544 191.693 -37 193.1C-36.9048 194.64 -35.0987 195.631 -31.5817 196.074C-27.9079 196.23 -21.7644 195.883 -13.1511 195.032C-6.21227 194.378 0.642563 193.306 7.41336 191.816C12.7397 190.45 16.0565 189.842 18.6417 189.368C22.477 188.666 24.7022 188.258 29.4903 186.109C29.043 188.258 29.154 190.922 29.8233 194.101C40.4004 241.698 39.5207 277.012 22 302.438C22 310.261 24.9337 318.736 30.8011 327.863C33.595 332.37 35.6786 336.203 37.3966 339.364C41.8924 347.635 43.884 351.298 49.5442 350.355C57.6934 349.377 63.5608 339.109 67.1465 319.551C67.7984 315.64 68.6133 310.261 69.5912 303.416C69.2201 295.415 68.7663 287.732 68.336 280.446C65.9315 239.733 64.2581 211.399 81.8149 209.258C88.7645 208.411 98.0058 207.563 107.247 206.716L107.247 206.716C115.778 205.934 124.308 205.151 131.036 204.369C145.378 202.739 159.395 201.272 173.085 199.968C179.956 199.169 181.904 198.449 183.64 197.806C185.445 197.138 187.021 196.555 193.668 196.057C201.579 195.285 212.32 194.57 222.202 193.913L222.203 193.913C229.017 193.459 235.423 193.033 240.212 192.634C249.339 191.982 256.51 191.819 261.726 192.145C267.267 192.145 271.342 193.612 273.95 196.546C276.883 199.153 278.839 203.391 279.817 209.258C283.729 229.899 284.269 264.568 281.284 277.501C280.306 281.739 278.513 284.836 275.906 286.791C273.624 288.421 270.201 289.236 265.638 289.236C261.109 288.913 254.454 286.085 248.218 283.436C240.354 280.096 233.158 277.038 231.737 279.643C229.171 284.348 231.925 298.587 236.79 304.883C242.331 312.38 246.895 321.507 250.48 332.264C254.066 342.695 259.444 347.422 266.615 346.444C274.113 345.466 284.055 337.316 296.441 321.996C301.005 316.455 304.591 311.239 307.198 306.35C310.132 301.46 312.251 295.918 313.555 289.725C314.859 283.532 315.51 276.524 315.51 268.7C315.844 263.823 316.11 257.576 316.398 250.844V250.843C316.955 237.812 317.59 222.959 318.933 212.681C322.193 208.117 324.638 204.206 326.267 200.946C327.897 197.361 328.223 193.938 327.245 190.678C326.267 187.093 323.986 183.67 320.4 180.41C317.874 177.884 314.539 175.116 310.395 172.104Z" fill="black"/>
</svg>
