<svg width="350" height="350" viewBox="0 0 350 350" fill="none" xmlns="http://www.w3.org/2000/svg">
<path d="M56 263.056C125.364 259.753 193.233 246.879 262 237.056C269.667 236.056 276 235.389 281 235.056C286 234.389 290.167 234.222 293.5 234.556C296.833 234.556 299.667 235.056 302 236.056C304.333 237.056 306.833 238.556 309.5 240.556C320.5 248.556 329.333 255.056 336 260.056C354.667 274.722 352.667 282.722 330 284.056C324.333 284.389 319.167 284.889 314.5 285.556C310.167 286.222 305.833 287.222 301.5 288.556C297.5 289.889 293.333 291.722 289 294.056C285 296.056 280.333 298.556 275 301.556C267.667 305.889 262.833 306.889 260.5 304.556C258.5 301.889 260.333 295.556 266 285.556C272.667 274.222 275.5 267.056 274.5 264.056C273.833 261.056 269.333 259.722 261 260.056C190.849 262.607 122.138 283.117 56 278.556C53 290.556 50 299.722 47 306.056C44.3333 312.389 40.8333 318.389 36.5 324.056C30.1667 332.056 24 335.722 18 335.056C12 334.056 7.33333 328.222 4 317.556C2 310.889 1.5 305.556 2.5 301.556C3.83333 297.222 7.16667 292.222 12.5 286.556C15.8333 282.889 19.3333 278.056 23 272.056C26.6667 265.722 29.1667 259.722 30.5 254.056C32.5 245.389 35.8333 241.556 40.5 242.556C45.1667 243.222 50.3333 250.056 56 263.056ZM101.5 195.056C91.8334 201.389 82.5 206.556 73.5 210.556C64.5 214.222 55.6667 217.222 47 219.556C37.6667 221.889 32.1667 221.889 30.5 219.556C29.1667 216.889 32.8333 213.222 41.5 208.556C50.8333 204.222 58 200.556 63 197.556C68 194.556 73.8333 190.389 80.5 185.056C76.8333 183.389 73 181.722 69 180.056C65 178.389 60.6667 176.556 56 174.556C49.6667 171.889 47.1667 169.389 48.5 167.056C50.1667 164.389 54.1667 163.389 60.5 164.056C68.8333 165.056 75.6667 166.056 81 167.056C86.6667 168.056 92.3333 169.389 98 171.056C101.667 167.722 104.667 164.889 107 162.556C109.333 160.222 111.333 157.722 113 155.056C116.667 150.056 115.167 148.056 108.5 149.056C102.833 149.722 96.6667 150.722 90 152.056C83.6667 153.389 76.1667 155.389 67.5 158.056C62.8333 159.389 58.6667 159.889 55 159.556C51.6667 158.889 47.6667 157.222 43 154.556C29 146.889 29.1667 142.722 43.5 142.056C50.1667 141.722 57.1667 141.056 64.5 140.056C71.8333 139.056 78.6667 137.889 85 136.556C91.6667 135.222 97.6667 133.722 103 132.056C108.667 130.389 113.167 128.889 116.5 127.556C126.5 123.222 137.167 125.389 148.5 134.056C156.833 140.056 161.167 144.722 161.5 148.056C162.167 151.056 160.167 153.556 155.5 155.556C152.5 156.889 148.833 158.889 144.5 161.556C140.5 164.222 133.167 169.889 122.5 178.556C130.167 181.222 136.333 184.222 141 187.556C146 190.889 149.167 194.389 150.5 198.056C153.167 205.722 152.333 210.889 148 213.556C144 215.889 138.167 214.889 130.5 210.556C124.833 207.556 119.667 204.889 115 202.556C110.333 199.889 105.833 197.389 101.5 195.056ZM236 185.556C217.667 196.556 198.5 204.056 178.5 208.056C168.833 210.056 163.5 209.889 162.5 207.556C161.5 205.222 164.833 202.222 172.5 198.556C176.833 196.556 180.667 194.722 184 193.056C187.333 191.389 190.333 189.889 193 188.556C196 186.889 199 185.222 202 183.556C205 181.556 208.333 179.222 212 176.556C206.667 174.556 202 172.889 198 171.556C194 169.889 188.667 167.722 182 165.056C174.667 162.389 171.167 160.056 171.5 158.056C172.167 156.056 176.833 155.222 185.5 155.556C192.833 155.889 200.167 156.722 207.5 158.056C215.167 159.389 223 160.889 231 162.556C236 158.889 239.833 155.889 242.5 153.556C245.5 150.889 247.833 148.556 249.5 146.556C255.5 140.222 254.167 137.722 245.5 139.056C235.833 140.389 227.5 141.722 220.5 143.056C213.833 144.056 208 145.722 203 148.056C193.667 152.056 184.5 151.056 175.5 145.056C168.833 140.722 165.833 137.722 166.5 136.056C167.5 134.056 172.167 132.722 180.5 132.056C187.833 131.722 195.333 131.056 203 130.056C210.667 129.056 218 127.889 225 126.556C232.333 124.889 238.833 123.222 244.5 121.556C250.167 119.889 254.667 118.222 258 116.556C264.333 113.222 269.333 111.722 273 112.056C277 112.389 282.5 114.889 289.5 119.556C300.167 126.556 305.667 132.056 306 136.056C306.333 140.056 303.833 142.889 298.5 144.556C293.5 146.222 288.667 148.556 284 151.556C279.333 154.222 273.167 158.556 265.5 164.556C264.167 165.889 262 167.556 259 169.556C269 172.222 276.167 175.056 280.5 178.056C285.167 180.722 288.833 184.389 291.5 189.056C295.5 196.056 295.333 201.222 291 204.556C287 207.556 281.5 207.222 274.5 203.556C266.167 199.222 259 195.722 253 193.056C247.333 190.389 241.667 187.889 236 185.556ZM171.5 96.0556C156.833 103.722 143 109.722 130 114.056C117.333 118.389 103.333 121.389 88 123.056C76.3333 124.389 70.1667 123.889 69.5 121.556C69.1667 119.222 74 116.222 84 112.556C96 108.556 106.167 104.722 114.5 101.056C122.833 97.3889 132.167 92.5556 142.5 86.5556C137.5 84.8889 132.5 83.3889 127.5 82.0556C122.5 80.3889 117.667 78.7222 113 77.0555C104 73.3889 99.6667 70.5556 100 68.5556C100.667 66.5556 106.167 66.0556 116.5 67.0556C125.833 67.7222 134.667 68.5556 143 69.5556C151.333 70.5556 159 71.3889 166 72.0556C171.333 68.3889 176 64.8889 180 61.5556C184.333 58.2222 188.333 54.7222 192 51.0556C196 47.0556 197.667 44.3889 197 43.0556C196.333 41.7222 192.667 41.3889 186 42.0556C178 43.0556 170.833 44.0556 164.5 45.0556C158.5 46.0556 152.5 47.0556 146.5 48.0556C140.833 49.0556 135 50.2222 129 51.5555C123 52.8889 116.167 54.5556 108.5 56.5556C101.833 58.2222 96.3333 58.8889 92 58.5555C88 57.8889 83.6667 55.7222 79 52.0556C71.6667 46.3889 68.1667 42.5556 68.5 40.5556C69.1667 38.5556 73.5 37.2222 81.5 36.5556C113.5 34.2222 138.833 31.5555 157.5 28.5555C176.5 25.2222 190.333 21.5556 199 17.5556C204.667 14.8889 209.667 13.7222 214 14.0556C218.667 14.3889 225.5 17.3889 234.5 23.0556C247.167 30.7222 253.833 36.2222 254.5 39.5556C255.5 42.8889 252.167 46.0555 244.5 49.0555C241.5 50.3889 237.833 52.3889 233.5 55.0556C229.5 57.3889 224.667 60.7222 219 65.0556C216.333 67.3889 213.5 69.7222 210.5 72.0556C207.5 74.0556 204.333 76.0556 201 78.0556C213.667 80.7222 222.667 83.5556 228 86.5556C233.333 89.2222 237.333 92.8889 240 97.5555C245.667 107.556 246 114.389 241 118.056C236 121.389 227.5 119.889 215.5 113.556C205.167 108.556 190.5 102.722 171.5 96.0556Z" fill="black"/>
</svg>
